M48
; DRILL file {KiCad (7.0.0)} date Tue Mar 28 06:18:24 2023
; FORMAT={-:-/ absolute / inch / decimal}
; #@! TF.CreationDate,2023-03-28T06:18:24-07:00
; #@! TF.GenerationSoftware,Kicad,Pcbnew,(7.0.0)
; #@! TF.FileFunction,Plated,1,2,PTH
FMAT,2
INCH
; #@! TA.AperFunction,Plated,PTH,ViaDrill
T1C0.0157
; #@! TA.AperFunction,Plated,PTH,ComponentDrill
T2C0.0394
%
G90
G05
T1
X0.8583Y-4.165
X0.876Y-1.8701
X0.8957Y-4.4685
X0.9449Y-5.1181
X0.9507Y-4.165
X1.0031Y-2.784
X1.0031Y-3.5173
X1.0039Y-1.8307
X1.007Y-2.3141
X1.122Y-1.9685
X1.17Y-2.465
X1.17Y-3.8662
X1.1833Y-2.2603
X1.1893Y-4.1626
X1.2049Y-2.7099
X1.2068Y-3.614
X1.2318Y-1.7333
X1.2695Y-3.8634
X1.2744Y-3.93
X1.2992Y-4.6457
X1.4114Y-3.5653
X1.4173Y-4.5768
X1.4662Y-2.766
X1.4764Y-5.128
X1.5354Y-4.498
X1.5862Y-2.7443
X1.622Y-3.9406
X1.6232Y-5.0373
X1.6232Y-5.3392
X1.6634Y-5.1181
X1.6698Y-3.5112
X1.72Y-3.5499
X1.7913Y-1.9193
X1.8209Y-2.2441
X1.8602Y-3.8091
X1.8898Y-3.1496
X1.9291Y-4.0354
X1.9882Y-1.6043
X1.9882Y-3.75
X2.1161Y-3.1398
X2.126Y-2.7362
X2.2191Y-1.8912
X2.2538Y-1.8354
X2.5038Y-5.0692
X2.578Y-5.3406
X2.632Y-2.0188
X2.6852Y-5.2491
T2
X0.9941Y-1.6028
X0.9941Y-1.7028
X1.0039Y-4.685
X1.0039Y-4.785
X1.052Y-1.2685
X1.052Y-1.3685
X1.053Y-4.3862
X1.053Y-4.4862
X1.0941Y-1.6028
X1.0941Y-1.7028
X1.1039Y-4.685
X1.1039Y-4.785
X1.152Y-1.2685
X1.152Y-1.3685
X1.153Y-4.3862
X1.153Y-4.4862
X1.2039Y-4.685
X1.2039Y-4.785
X1.2494Y-2.9193
X1.2494Y-3.0193
X1.2494Y-3.1193
X1.2494Y-3.2193
X1.2494Y-3.3193
X1.2494Y-3.4193
X1.3415Y-2.0364
X1.3415Y-2.1364
X1.3484Y-1.7209
X1.3484Y-1.8209
X1.3494Y-2.9193
X1.3494Y-3.0193
X1.3494Y-3.1193
X1.3494Y-3.2193
X1.3494Y-3.3193
X1.3494Y-3.4193
X1.3587Y-3.778
X1.3587Y-3.878
X1.3598Y-2.3862
X1.3598Y-2.4862
X1.3598Y-2.5862
X1.4033Y-4.6817
X1.4033Y-4.7817
X1.4114Y-4.2795
X1.4114Y-4.3795
X1.4343Y-1.3157
X1.4343Y-1.4157
X1.4415Y-2.0364
X1.4415Y-2.1364
X1.4484Y-1.7209
X1.4484Y-1.8209
X1.4587Y-3.778
X1.4587Y-3.878
X1.4598Y-2.3862
X1.4598Y-2.4862
X1.4598Y-2.5862
X1.5033Y-4.6817
X1.5033Y-4.7817
X1.5343Y-1.3157
X1.5343Y-1.4157
X1.6033Y-4.6817
X1.6033Y-4.7817
X1.6333Y-3.2392
X1.6333Y-3.3392
X1.6343Y-1.3157
X1.6343Y-1.4157
X1.6618Y-2.8035
X1.6618Y-2.9035
X1.6618Y-3.0035
X1.687Y-3.7392
X1.687Y-3.8392
X1.7333Y-3.2392
X1.7333Y-3.3392
X1.7618Y-2.8035
X1.7618Y-2.9035
X1.7618Y-3.0035
X1.8307Y-4.2224
X1.8307Y-4.3224
X1.8307Y-4.4224
X1.8307Y-4.5224
X1.8307Y-4.6224
X1.8307Y-4.7224
X1.8445Y-2.0827
X1.8473Y-1.7677
X1.8795Y-2.4872
X1.8795Y-2.5872
X1.9163Y-1.3577
X1.9163Y-1.4577
X1.9445Y-2.0827
X1.9473Y-1.7677
X1.9795Y-2.4872
X1.9795Y-2.5872
X1.9959Y-3.2372
X1.9959Y-3.3372
X2.0163Y-1.3577
X2.0163Y-1.4577
X2.0472Y-4.9295
X2.0472Y-5.0295
X2.0472Y-5.1295
X2.0472Y-5.2295
X2.0472Y-5.3295
X2.0512Y-4.2283
X2.0512Y-4.3283
X2.0512Y-4.4283
X2.0512Y-4.5283
X2.0512Y-4.6283
X2.0512Y-4.7283
X2.0959Y-3.2372
X2.0959Y-3.3372
X2.1163Y-1.3577
X2.1163Y-1.4577
X2.1226Y-3.8081
X2.1226Y-3.9081
X2.1472Y-4.9295
X2.1472Y-5.0295
X2.1472Y-5.1295
X2.1472Y-5.2295
X2.1472Y-5.3295
X2.1713Y-1.8346
X2.1713Y-1.9346
X2.1713Y-2.0346
X2.1815Y-2.9079
X2.1815Y-3.0079
X2.1959Y-3.2372
X2.1959Y-3.3372
X2.2163Y-1.3577
X2.2163Y-1.4577
X2.2226Y-3.8081
X2.2226Y-3.9081
X2.2815Y-2.9079
X2.2815Y-3.0079
X2.3163Y-1.3577
X2.3163Y-1.4577
X2.3189Y-2.2175
X2.3189Y-2.3175
X2.3189Y-2.4175
X2.3226Y-3.8081
X2.3226Y-3.9081
X2.3518Y-2.6175
X2.3518Y-2.7175
X2.4226Y-3.8081
X2.4226Y-3.9081
X2.44Y-3.1171
X2.44Y-3.2171
X2.44Y-3.3171
X2.44Y-3.4171
X2.44Y-3.5171
X2.4518Y-2.6175
X2.4518Y-2.7175
X2.4695Y-4.2809
X2.4695Y-4.3809
X2.5226Y-3.8081
X2.5226Y-3.9081
X2.5295Y-1.3681
X2.5295Y-1.4681
X2.54Y-3.1171
X2.54Y-3.2171
X2.54Y-3.3171
X2.54Y-3.4171
X2.54Y-3.5171
X2.5476Y-4.7037
X2.5476Y-4.8037
X2.5551Y-2.2175
X2.5551Y-2.3175
X2.5551Y-2.4175
X2.5695Y-4.2809
X2.5695Y-4.3809
X2.6295Y-1.3681
X2.6295Y-1.4681
X2.6476Y-4.7037
X2.6476Y-4.8037
X2.7193Y-1.8839
X2.7209Y-2.0413
X2.7224Y-1.7362
X2.7295Y-1.3681
X2.7295Y-1.4681
X2.7362Y-3.0315
X2.7362Y-3.1315
X2.7362Y-3.2315
X2.737Y-2.676
X2.737Y-2.776
X2.737Y-2.876
X2.7401Y-3.3902
X2.7401Y-3.4902
X2.7401Y-3.5902
X2.7431Y-2.2943
X2.7431Y-2.3943
X2.7431Y-2.4943
X2.8035Y-4.2248
X2.8035Y-4.3248
X2.8035Y-4.4248
X2.8035Y-4.5248
X2.8035Y-4.6248
X2.8035Y-4.7248
X2.8035Y-4.8248
X2.8035Y-4.9248
X2.8035Y-5.0248
X2.8035Y-5.1248
X2.8035Y-5.2248
X2.8035Y-5.3248
X2.8041Y-3.7982
X2.8041Y-3.8982
X2.8193Y-1.8839
X2.8209Y-2.0413
X2.8224Y-1.7362
X2.8295Y-1.3681
X2.8295Y-1.4681
X2.8362Y-3.0315
X2.8362Y-3.1315
X2.8362Y-3.2315
X2.837Y-2.676
X2.837Y-2.776
X2.837Y-2.876
X2.8401Y-3.3902
X2.8401Y-3.4902
X2.8401Y-3.5902
X2.8431Y-2.2943
X2.8431Y-2.3943
X2.8431Y-2.4943
X2.9035Y-4.2248
X2.9035Y-4.3248
X2.9035Y-4.4248
X2.9035Y-4.5248
X2.9035Y-4.6248
X2.9035Y-4.7248
X2.9035Y-4.8248
X2.9035Y-4.9248
X2.9035Y-5.0248
X2.9035Y-5.1248
X2.9035Y-5.2248
X2.9035Y-5.3248
X2.9041Y-3.7982
X2.9041Y-3.8982
X2.9193Y-1.8839
X2.9209Y-2.0413
X2.9224Y-1.7362
X2.9295Y-1.3681
X2.9295Y-1.4681
T0
M30
