%TF.GenerationSoftware,KiCad,Pcbnew,(7.0.0)*%
%TF.CreationDate,2023-03-30T09:06:06-07:00*%
%TF.ProjectId,wyw_r_faceplate,7779775f-725f-4666-9163-65706c617465,rev?*%
%TF.SameCoordinates,Original*%
%TF.FileFunction,Profile,NP*%
%FSLAX46Y46*%
G04 Gerber Fmt 4.6, Leading zero omitted, Abs format (unit mm)*
G04 Created by KiCad (PCBNEW (7.0.0)) date 2023-03-30 09:06:06*
%MOMM*%
%LPD*%
G01*
G04 APERTURE LIST*
%TA.AperFunction,Profile*%
%ADD10C,0.500000*%
%TD*%
G04 APERTURE END LIST*
D10*
X46810000Y-49024107D02*
G75*
G03*
X46810000Y-49024107I-3500000J0D01*
G01*
X31509999Y-42999107D02*
G75*
G03*
X31509999Y-42999107I-3500000J0D01*
G01*
X33512499Y-57850000D02*
G75*
G03*
X33512499Y-57850000I-1500000J0D01*
G01*
X48100891Y-36210000D02*
G75*
G03*
X48100891Y-36210000I-3500000J0D01*
G01*
X45500000Y-145400000D02*
G75*
G03*
X45500000Y-145400000I-1600000J0D01*
G01*
X28380000Y-145400000D02*
G75*
G03*
X28380000Y-145400000I-1600000J0D01*
G01*
X46001540Y-132258353D02*
G75*
G03*
X46001540Y-132258353I-2500001J0D01*
G01*
X33512499Y-66600000D02*
G75*
G03*
X33512499Y-66600000I-1500000J0D01*
G01*
X31180001Y-132258353D02*
G75*
G03*
X31180001Y-132258353I-2500001J0D01*
G01*
X46001539Y-121900000D02*
G75*
G03*
X46001539Y-121900000I-2500000J0D01*
G01*
X45500000Y-22900000D02*
G75*
G03*
X45500000Y-22900000I-1600000J0D01*
G01*
X28380000Y-22900000D02*
G75*
G03*
X28380000Y-22900000I-1600000J0D01*
G01*
X45780000Y-100600000D02*
G75*
G03*
X45780000Y-100600000I-2500000J0D01*
G01*
X33512499Y-101600000D02*
G75*
G03*
X33512499Y-101600000I-1500000J0D01*
G01*
X33512499Y-84100000D02*
G75*
G03*
X33512499Y-84100000I-1500000J0D01*
G01*
X45780000Y-90600000D02*
G75*
G03*
X45780000Y-90600000I-2500000J0D01*
G01*
X31180000Y-121900000D02*
G75*
G03*
X31180000Y-121900000I-2500000J0D01*
G01*
X45780000Y-80600000D02*
G75*
G03*
X45780000Y-80600000I-2500000J0D01*
G01*
X20000000Y-19900000D02*
X50480000Y-19900000D01*
X50480000Y-19900000D02*
X50480000Y-148400000D01*
X50480000Y-148400000D02*
X20000000Y-148400000D01*
X20000000Y-148400000D02*
X20000000Y-19900000D01*
X45780000Y-110600000D02*
G75*
G03*
X45780000Y-110600000I-2500000J0D01*
G01*
X33512499Y-75350000D02*
G75*
G03*
X33512499Y-75350000I-1500000J0D01*
G01*
X46710000Y-65599107D02*
G75*
G03*
X46710000Y-65599107I-3500000J0D01*
G01*
X33512499Y-92850000D02*
G75*
G03*
X33512499Y-92850000I-1500000J0D01*
G01*
M02*
