%TF.GenerationSoftware,KiCad,Pcbnew,(7.0.0)*%
%TF.CreationDate,2023-03-30T09:06:06-07:00*%
%TF.ProjectId,wyw_r_faceplate,7779775f-725f-4666-9163-65706c617465,rev?*%
%TF.SameCoordinates,Original*%
%TF.FileFunction,Legend,Top*%
%TF.FilePolarity,Positive*%
%FSLAX46Y46*%
G04 Gerber Fmt 4.6, Leading zero omitted, Abs format (unit mm)*
G04 Created by KiCad (PCBNEW (7.0.0)) date 2023-03-30 09:06:06*
%MOMM*%
%LPD*%
G01*
G04 APERTURE LIST*
%ADD10C,0.047896*%
%ADD11C,0.120000*%
%ADD12R,3.150000X1.000000*%
G04 APERTURE END LIST*
D10*
G36*
X31838509Y-107361259D02*
G01*
X31944978Y-107406861D01*
X32045022Y-107457273D01*
X32138065Y-107511688D01*
X32223535Y-107569305D01*
X32300856Y-107629317D01*
X32369456Y-107690920D01*
X32428760Y-107753311D01*
X32454747Y-107784550D01*
X32478195Y-107815685D01*
X32499032Y-107846614D01*
X32517186Y-107877237D01*
X32532586Y-107907454D01*
X32545160Y-107937164D01*
X32554837Y-107966266D01*
X32561543Y-107994660D01*
X32565208Y-108022245D01*
X32565761Y-108048922D01*
X32563128Y-108074588D01*
X32557239Y-108099145D01*
X32548022Y-108122490D01*
X32535405Y-108144524D01*
X32519316Y-108165147D01*
X32499683Y-108184256D01*
X32476436Y-108201753D01*
X32449501Y-108217537D01*
X32399049Y-108240458D01*
X32334469Y-108264823D01*
X32258160Y-108290114D01*
X32172520Y-108315814D01*
X31982843Y-108366370D01*
X31784626Y-108412351D01*
X31597056Y-108449617D01*
X31439321Y-108474027D01*
X31377638Y-108480117D01*
X31330609Y-108481441D01*
X31300633Y-108477481D01*
X31292789Y-108473358D01*
X31290108Y-108467720D01*
X31290077Y-108467689D01*
X31290795Y-108466225D01*
X31292923Y-108464336D01*
X31301274Y-108459333D01*
X31314847Y-108452781D01*
X31333363Y-108444780D01*
X31384096Y-108424831D01*
X31451221Y-108400287D01*
X31532491Y-108371952D01*
X31625654Y-108340625D01*
X31728460Y-108307111D01*
X31838661Y-108272209D01*
X31966368Y-108231746D01*
X32076996Y-108194681D01*
X32170518Y-108159919D01*
X32210856Y-108143060D01*
X32246906Y-108126366D01*
X32278666Y-108109700D01*
X32306133Y-108092926D01*
X32329301Y-108075907D01*
X32348169Y-108058506D01*
X32362733Y-108040586D01*
X32372988Y-108022010D01*
X32378932Y-108002642D01*
X32380562Y-107982345D01*
X32377873Y-107960982D01*
X32370862Y-107938416D01*
X32359526Y-107914510D01*
X32343861Y-107889127D01*
X32323863Y-107862131D01*
X32299530Y-107833385D01*
X32270858Y-107802752D01*
X32237843Y-107770095D01*
X32158770Y-107698162D01*
X32062284Y-107616492D01*
X31948358Y-107523991D01*
X31816963Y-107419563D01*
X31649330Y-107287056D01*
X31838509Y-107361259D01*
G37*
X31838509Y-107361259D02*
X31944978Y-107406861D01*
X32045022Y-107457273D01*
X32138065Y-107511688D01*
X32223535Y-107569305D01*
X32300856Y-107629317D01*
X32369456Y-107690920D01*
X32428760Y-107753311D01*
X32454747Y-107784550D01*
X32478195Y-107815685D01*
X32499032Y-107846614D01*
X32517186Y-107877237D01*
X32532586Y-107907454D01*
X32545160Y-107937164D01*
X32554837Y-107966266D01*
X32561543Y-107994660D01*
X32565208Y-108022245D01*
X32565761Y-108048922D01*
X32563128Y-108074588D01*
X32557239Y-108099145D01*
X32548022Y-108122490D01*
X32535405Y-108144524D01*
X32519316Y-108165147D01*
X32499683Y-108184256D01*
X32476436Y-108201753D01*
X32449501Y-108217537D01*
X32399049Y-108240458D01*
X32334469Y-108264823D01*
X32258160Y-108290114D01*
X32172520Y-108315814D01*
X31982843Y-108366370D01*
X31784626Y-108412351D01*
X31597056Y-108449617D01*
X31439321Y-108474027D01*
X31377638Y-108480117D01*
X31330609Y-108481441D01*
X31300633Y-108477481D01*
X31292789Y-108473358D01*
X31290108Y-108467720D01*
X31290077Y-108467689D01*
X31290795Y-108466225D01*
X31292923Y-108464336D01*
X31301274Y-108459333D01*
X31314847Y-108452781D01*
X31333363Y-108444780D01*
X31384096Y-108424831D01*
X31451221Y-108400287D01*
X31532491Y-108371952D01*
X31625654Y-108340625D01*
X31728460Y-108307111D01*
X31838661Y-108272209D01*
X31966368Y-108231746D01*
X32076996Y-108194681D01*
X32170518Y-108159919D01*
X32210856Y-108143060D01*
X32246906Y-108126366D01*
X32278666Y-108109700D01*
X32306133Y-108092926D01*
X32329301Y-108075907D01*
X32348169Y-108058506D01*
X32362733Y-108040586D01*
X32372988Y-108022010D01*
X32378932Y-108002642D01*
X32380562Y-107982345D01*
X32377873Y-107960982D01*
X32370862Y-107938416D01*
X32359526Y-107914510D01*
X32343861Y-107889127D01*
X32323863Y-107862131D01*
X32299530Y-107833385D01*
X32270858Y-107802752D01*
X32237843Y-107770095D01*
X32158770Y-107698162D01*
X32062284Y-107616492D01*
X31948358Y-107523991D01*
X31816963Y-107419563D01*
X31649330Y-107287056D01*
X31838509Y-107361259D01*
G36*
X36030869Y-112804098D02*
G01*
X36236746Y-112817209D01*
X36417039Y-112836586D01*
X36491936Y-112848366D01*
X36553651Y-112861402D01*
X36599922Y-112875591D01*
X36616559Y-112883086D01*
X36628487Y-112890831D01*
X36656798Y-112918446D01*
X36679375Y-112949226D01*
X36696445Y-112982882D01*
X36708236Y-113019127D01*
X36714973Y-113057674D01*
X36716885Y-113098235D01*
X36714198Y-113140524D01*
X36707139Y-113184253D01*
X36695935Y-113229134D01*
X36680813Y-113274881D01*
X36662000Y-113321205D01*
X36639723Y-113367820D01*
X36614210Y-113414439D01*
X36585687Y-113460773D01*
X36554381Y-113506536D01*
X36520519Y-113551441D01*
X36484329Y-113595199D01*
X36446036Y-113637525D01*
X36405869Y-113678130D01*
X36364054Y-113716727D01*
X36320819Y-113753028D01*
X36276390Y-113786748D01*
X36230994Y-113817597D01*
X36184858Y-113845289D01*
X36138209Y-113869537D01*
X36091275Y-113890053D01*
X36044282Y-113906550D01*
X35997458Y-113918741D01*
X35951029Y-113926338D01*
X35905222Y-113929054D01*
X35860264Y-113926601D01*
X35816383Y-113918693D01*
X35816383Y-113918632D01*
X35745743Y-113902395D01*
X35695577Y-113890997D01*
X35643105Y-113879326D01*
X35602114Y-113868063D01*
X35562235Y-113852648D01*
X35523553Y-113833357D01*
X35486155Y-113810466D01*
X35450128Y-113784252D01*
X35415560Y-113754991D01*
X35382537Y-113722960D01*
X35351146Y-113688436D01*
X35321474Y-113651695D01*
X35293608Y-113613014D01*
X35267636Y-113572668D01*
X35243643Y-113530936D01*
X35221716Y-113488092D01*
X35201944Y-113444415D01*
X35184412Y-113400179D01*
X35169208Y-113355663D01*
X35156419Y-113311142D01*
X35146131Y-113266893D01*
X35138432Y-113223193D01*
X35133408Y-113180317D01*
X35131147Y-113138544D01*
X35131735Y-113098148D01*
X35135259Y-113059407D01*
X35141806Y-113022598D01*
X35151464Y-112987996D01*
X35164318Y-112955879D01*
X35180457Y-112926522D01*
X35199966Y-112900203D01*
X35222934Y-112877199D01*
X35249446Y-112857784D01*
X35279591Y-112842237D01*
X35313454Y-112830833D01*
X35370095Y-112819478D01*
X35440700Y-112810620D01*
X35523005Y-112804153D01*
X35614749Y-112799977D01*
X35817504Y-112798078D01*
X36030869Y-112804098D01*
G37*
X36030869Y-112804098D02*
X36236746Y-112817209D01*
X36417039Y-112836586D01*
X36491936Y-112848366D01*
X36553651Y-112861402D01*
X36599922Y-112875591D01*
X36616559Y-112883086D01*
X36628487Y-112890831D01*
X36656798Y-112918446D01*
X36679375Y-112949226D01*
X36696445Y-112982882D01*
X36708236Y-113019127D01*
X36714973Y-113057674D01*
X36716885Y-113098235D01*
X36714198Y-113140524D01*
X36707139Y-113184253D01*
X36695935Y-113229134D01*
X36680813Y-113274881D01*
X36662000Y-113321205D01*
X36639723Y-113367820D01*
X36614210Y-113414439D01*
X36585687Y-113460773D01*
X36554381Y-113506536D01*
X36520519Y-113551441D01*
X36484329Y-113595199D01*
X36446036Y-113637525D01*
X36405869Y-113678130D01*
X36364054Y-113716727D01*
X36320819Y-113753028D01*
X36276390Y-113786748D01*
X36230994Y-113817597D01*
X36184858Y-113845289D01*
X36138209Y-113869537D01*
X36091275Y-113890053D01*
X36044282Y-113906550D01*
X35997458Y-113918741D01*
X35951029Y-113926338D01*
X35905222Y-113929054D01*
X35860264Y-113926601D01*
X35816383Y-113918693D01*
X35816383Y-113918632D01*
X35745743Y-113902395D01*
X35695577Y-113890997D01*
X35643105Y-113879326D01*
X35602114Y-113868063D01*
X35562235Y-113852648D01*
X35523553Y-113833357D01*
X35486155Y-113810466D01*
X35450128Y-113784252D01*
X35415560Y-113754991D01*
X35382537Y-113722960D01*
X35351146Y-113688436D01*
X35321474Y-113651695D01*
X35293608Y-113613014D01*
X35267636Y-113572668D01*
X35243643Y-113530936D01*
X35221716Y-113488092D01*
X35201944Y-113444415D01*
X35184412Y-113400179D01*
X35169208Y-113355663D01*
X35156419Y-113311142D01*
X35146131Y-113266893D01*
X35138432Y-113223193D01*
X35133408Y-113180317D01*
X35131147Y-113138544D01*
X35131735Y-113098148D01*
X35135259Y-113059407D01*
X35141806Y-113022598D01*
X35151464Y-112987996D01*
X35164318Y-112955879D01*
X35180457Y-112926522D01*
X35199966Y-112900203D01*
X35222934Y-112877199D01*
X35249446Y-112857784D01*
X35279591Y-112842237D01*
X35313454Y-112830833D01*
X35370095Y-112819478D01*
X35440700Y-112810620D01*
X35523005Y-112804153D01*
X35614749Y-112799977D01*
X35817504Y-112798078D01*
X36030869Y-112804098D01*
G36*
X25746830Y-112458761D02*
G01*
X25874430Y-112458761D01*
X25882685Y-112687318D01*
X25906099Y-112918494D01*
X25944790Y-113151949D01*
X25998879Y-113387341D01*
X26068483Y-113624331D01*
X26153724Y-113862577D01*
X26254719Y-114101741D01*
X26371589Y-114341480D01*
X26504454Y-114581456D01*
X26653431Y-114821327D01*
X26818642Y-115060753D01*
X26879812Y-115146059D01*
X26936881Y-115227452D01*
X26988598Y-115303021D01*
X27033714Y-115370857D01*
X27070980Y-115429048D01*
X27099145Y-115475684D01*
X27116960Y-115508854D01*
X27121596Y-115519793D01*
X27123177Y-115526649D01*
X27123892Y-115540117D01*
X27126121Y-115553003D01*
X27129989Y-115565330D01*
X27135619Y-115577123D01*
X27139134Y-115582825D01*
X27143136Y-115588402D01*
X27152664Y-115599192D01*
X27164329Y-115609515D01*
X27178254Y-115619395D01*
X27194563Y-115628854D01*
X27213382Y-115637914D01*
X27234834Y-115646600D01*
X27259044Y-115654934D01*
X27286136Y-115662938D01*
X27316236Y-115670637D01*
X27349466Y-115678052D01*
X27385952Y-115685207D01*
X27425818Y-115692125D01*
X27469189Y-115698828D01*
X27516188Y-115705339D01*
X27566941Y-115711682D01*
X27621571Y-115717880D01*
X27680203Y-115723954D01*
X27809972Y-115735827D01*
X27957243Y-115747484D01*
X28123010Y-115759109D01*
X28308269Y-115770886D01*
X28514015Y-115782997D01*
X29465601Y-115836000D01*
X29755419Y-115848978D01*
X29949249Y-115852785D01*
X30068089Y-115847306D01*
X30105950Y-115841048D01*
X30132936Y-115832425D01*
X30151674Y-115821422D01*
X30164787Y-115808026D01*
X30184639Y-115773994D01*
X30184517Y-115773826D01*
X30193051Y-115756248D01*
X30199705Y-115738922D01*
X30204489Y-115721853D01*
X30207408Y-115705046D01*
X30208470Y-115688506D01*
X30207683Y-115672238D01*
X30205053Y-115656246D01*
X30200589Y-115640536D01*
X30194298Y-115625112D01*
X30186186Y-115609979D01*
X30176262Y-115595143D01*
X30164532Y-115580607D01*
X30151005Y-115566378D01*
X30135687Y-115552459D01*
X30118586Y-115538856D01*
X30099709Y-115525573D01*
X30079063Y-115512616D01*
X30056656Y-115499989D01*
X30032496Y-115487698D01*
X30006589Y-115475746D01*
X29978944Y-115464140D01*
X29949566Y-115452883D01*
X29918464Y-115441981D01*
X29885646Y-115431439D01*
X29851118Y-115421261D01*
X29814887Y-115411453D01*
X29776962Y-115402019D01*
X29737350Y-115392964D01*
X29696057Y-115384293D01*
X29653091Y-115376011D01*
X29562172Y-115360634D01*
X29510360Y-115351918D01*
X29464020Y-115342511D01*
X29422992Y-115332208D01*
X29387119Y-115320806D01*
X29371066Y-115314628D01*
X29356242Y-115308100D01*
X29342628Y-115301194D01*
X29330204Y-115293887D01*
X29318950Y-115286151D01*
X29308847Y-115277963D01*
X29299874Y-115269295D01*
X29292011Y-115260124D01*
X29285240Y-115250423D01*
X29279540Y-115240166D01*
X29274891Y-115229330D01*
X29271275Y-115217887D01*
X29268670Y-115205812D01*
X29267057Y-115193081D01*
X29267008Y-115192054D01*
X29383186Y-115192054D01*
X29510414Y-115219947D01*
X29563606Y-115232064D01*
X29614346Y-115244369D01*
X29656897Y-115255438D01*
X29673310Y-115260064D01*
X29685524Y-115263847D01*
X29705545Y-115269963D01*
X29725266Y-115274842D01*
X29744739Y-115278474D01*
X29764013Y-115280851D01*
X29783139Y-115281963D01*
X29802168Y-115281802D01*
X29821149Y-115280358D01*
X29840134Y-115277622D01*
X29859172Y-115273585D01*
X29878314Y-115268239D01*
X29897611Y-115261574D01*
X29917112Y-115253582D01*
X29936869Y-115244252D01*
X29956932Y-115233577D01*
X29977351Y-115221547D01*
X29998177Y-115208152D01*
X29998146Y-115208168D01*
X30056780Y-115168044D01*
X30128929Y-115117389D01*
X30141422Y-115108456D01*
X30411287Y-115108456D01*
X30411329Y-115110937D01*
X30411572Y-115113368D01*
X30412018Y-115115751D01*
X30412666Y-115118086D01*
X30413520Y-115120373D01*
X30414580Y-115122614D01*
X30415847Y-115124810D01*
X30417324Y-115126959D01*
X30420910Y-115131126D01*
X30425350Y-115135120D01*
X30430654Y-115138946D01*
X30436834Y-115142610D01*
X30443901Y-115146116D01*
X30451867Y-115149470D01*
X30460742Y-115152677D01*
X30470538Y-115155743D01*
X30481266Y-115158673D01*
X30492937Y-115161471D01*
X30505564Y-115164144D01*
X30519156Y-115166697D01*
X30533725Y-115169134D01*
X30549282Y-115171461D01*
X30565840Y-115173683D01*
X30583408Y-115175806D01*
X30601998Y-115177834D01*
X30642290Y-115181630D01*
X30686806Y-115185112D01*
X30702312Y-115186111D01*
X30715763Y-115186782D01*
X30727165Y-115187007D01*
X30736524Y-115186669D01*
X30740439Y-115186252D01*
X30743846Y-115185649D01*
X30746746Y-115184847D01*
X30749139Y-115183831D01*
X30751025Y-115182585D01*
X30752407Y-115181095D01*
X30753284Y-115179347D01*
X30753658Y-115177326D01*
X30753529Y-115175016D01*
X30752898Y-115172404D01*
X30751766Y-115169475D01*
X30750134Y-115166213D01*
X30748002Y-115162605D01*
X30745372Y-115158635D01*
X30738617Y-115149552D01*
X30729878Y-115138846D01*
X30719159Y-115126400D01*
X30691811Y-115095817D01*
X30691353Y-115095802D01*
X30672432Y-115075840D01*
X30653999Y-115058324D01*
X30644957Y-115050482D01*
X30636026Y-115043250D01*
X30627202Y-115036628D01*
X30618483Y-115030616D01*
X30609863Y-115025213D01*
X30601341Y-115020418D01*
X30592911Y-115016232D01*
X30584571Y-115012654D01*
X30576317Y-115009684D01*
X30568144Y-115007321D01*
X30560051Y-115005565D01*
X30552032Y-115004415D01*
X30544085Y-115003872D01*
X30536206Y-115003934D01*
X30528390Y-115004602D01*
X30520636Y-115005874D01*
X30512938Y-115007751D01*
X30505293Y-115010233D01*
X30497698Y-115013318D01*
X30490149Y-115017007D01*
X30482642Y-115021299D01*
X30475174Y-115026194D01*
X30467741Y-115031691D01*
X30460340Y-115037790D01*
X30452966Y-115044491D01*
X30445617Y-115051793D01*
X30438288Y-115059696D01*
X30430977Y-115068199D01*
X30425919Y-115074616D01*
X30421591Y-115080803D01*
X30418003Y-115086764D01*
X30415168Y-115092504D01*
X30413096Y-115098030D01*
X30411799Y-115103345D01*
X30411287Y-115108456D01*
X30141422Y-115108456D01*
X30205427Y-115062689D01*
X30277107Y-115010429D01*
X30437630Y-114891929D01*
X30032387Y-114478981D01*
X29949486Y-114393757D01*
X29869244Y-114309865D01*
X29793627Y-114229455D01*
X29724598Y-114154676D01*
X29664122Y-114087678D01*
X29614164Y-114030612D01*
X29576687Y-113985626D01*
X29553658Y-113954872D01*
X29541601Y-113937007D01*
X29536125Y-113929264D01*
X29531007Y-113922370D01*
X29526240Y-113916366D01*
X29521817Y-113911294D01*
X29517732Y-113907195D01*
X29513976Y-113904111D01*
X29510543Y-113902082D01*
X29508946Y-113901477D01*
X29507426Y-113901151D01*
X29505984Y-113901110D01*
X29504618Y-113901359D01*
X29503327Y-113901903D01*
X29502111Y-113902748D01*
X29500968Y-113903897D01*
X29499898Y-113905358D01*
X29497973Y-113909231D01*
X29496329Y-113914410D01*
X29494957Y-113920934D01*
X29493851Y-113928847D01*
X29493005Y-113938188D01*
X29492410Y-113949000D01*
X29492060Y-113961325D01*
X29491948Y-113975203D01*
X29492066Y-113990676D01*
X29492967Y-114026573D01*
X29494704Y-114069347D01*
X29497222Y-114119332D01*
X29500463Y-114176857D01*
X29504372Y-114242256D01*
X29509048Y-114341946D01*
X29510686Y-114436321D01*
X29509271Y-114525837D01*
X29504787Y-114610946D01*
X29497221Y-114692105D01*
X29486557Y-114769767D01*
X29472782Y-114844387D01*
X29455879Y-114916420D01*
X29383186Y-115192054D01*
X29267008Y-115192054D01*
X29266417Y-115179667D01*
X29266730Y-115165545D01*
X29267975Y-115150689D01*
X29270134Y-115135075D01*
X29273186Y-115118676D01*
X29277112Y-115101467D01*
X29287505Y-115064519D01*
X29301155Y-115024025D01*
X29335638Y-114913268D01*
X29361658Y-114797084D01*
X29379354Y-114676204D01*
X29388866Y-114551356D01*
X29390334Y-114423271D01*
X29383899Y-114292678D01*
X29369698Y-114160307D01*
X29347874Y-114026888D01*
X29318564Y-113893149D01*
X29281910Y-113759822D01*
X29238050Y-113627635D01*
X29187125Y-113497318D01*
X29129274Y-113369601D01*
X29064637Y-113245213D01*
X28993354Y-113124885D01*
X28915565Y-113009346D01*
X28865641Y-112938321D01*
X28822317Y-112873815D01*
X28786309Y-112817112D01*
X28758331Y-112769500D01*
X28747578Y-112749505D01*
X28739100Y-112732265D01*
X28732988Y-112717941D01*
X28729330Y-112706694D01*
X28728217Y-112698684D01*
X28728642Y-112695943D01*
X28729737Y-112694072D01*
X28731512Y-112693090D01*
X28733980Y-112693019D01*
X28741035Y-112695686D01*
X28761403Y-112707635D01*
X28782716Y-112722006D01*
X28804937Y-112738759D01*
X28828033Y-112757858D01*
X28851969Y-112779263D01*
X28876710Y-112802936D01*
X28902221Y-112828840D01*
X28928467Y-112856935D01*
X28955413Y-112887185D01*
X28983024Y-112919550D01*
X29011266Y-112953992D01*
X29040104Y-112990474D01*
X29069502Y-113028956D01*
X29099426Y-113069402D01*
X29129842Y-113111772D01*
X29160713Y-113156028D01*
X29186427Y-113192560D01*
X29208929Y-113222862D01*
X29218855Y-113235553D01*
X29227833Y-113246539D01*
X29235816Y-113255771D01*
X29242756Y-113263200D01*
X29248603Y-113268777D01*
X29253311Y-113272452D01*
X29255222Y-113273561D01*
X29256831Y-113274177D01*
X29258130Y-113274292D01*
X29259114Y-113273902D01*
X29259777Y-113272999D01*
X29260113Y-113271578D01*
X29260115Y-113269633D01*
X29259779Y-113267156D01*
X29258064Y-113260588D01*
X29254921Y-113251823D01*
X29251007Y-113239098D01*
X29247042Y-113220874D01*
X29243054Y-113197498D01*
X29239070Y-113169312D01*
X29231224Y-113099890D01*
X29223721Y-113015361D01*
X29216780Y-112918481D01*
X29210619Y-112812001D01*
X29205458Y-112698676D01*
X29201515Y-112581260D01*
X29198677Y-112453627D01*
X29197646Y-112345229D01*
X29198386Y-112256558D01*
X29200863Y-112188102D01*
X29205040Y-112140352D01*
X29207756Y-112124394D01*
X29210884Y-112113796D01*
X29214419Y-112108620D01*
X29216338Y-112108083D01*
X29218357Y-112108925D01*
X29222694Y-112114774D01*
X29227425Y-112126228D01*
X29231688Y-112139467D01*
X29235879Y-112154364D01*
X29239974Y-112170753D01*
X29243949Y-112188472D01*
X29251447Y-112227245D01*
X29258182Y-112269376D01*
X29263967Y-112313558D01*
X29268610Y-112358484D01*
X29271925Y-112402845D01*
X29273720Y-112445335D01*
X29278773Y-112549761D01*
X29288874Y-112654805D01*
X29303920Y-112760327D01*
X29323810Y-112866188D01*
X29377709Y-113078362D01*
X29449752Y-113290207D01*
X29539119Y-113500601D01*
X29644992Y-113708423D01*
X29766551Y-113912551D01*
X29902977Y-114111864D01*
X30053450Y-114305240D01*
X30217152Y-114491559D01*
X30393263Y-114669698D01*
X30580964Y-114838537D01*
X30779436Y-114996954D01*
X30987859Y-115143828D01*
X31205414Y-115278037D01*
X31431282Y-115398460D01*
X31481449Y-115421850D01*
X31530657Y-115442229D01*
X31578782Y-115459678D01*
X31625703Y-115474279D01*
X31671295Y-115486112D01*
X31715437Y-115495259D01*
X31758005Y-115501800D01*
X31798877Y-115505816D01*
X31837929Y-115507389D01*
X31875039Y-115506600D01*
X31910084Y-115503529D01*
X31942941Y-115498259D01*
X31973488Y-115490869D01*
X32001600Y-115481441D01*
X32027157Y-115470055D01*
X32050034Y-115456794D01*
X32070108Y-115441738D01*
X32087258Y-115424968D01*
X32101360Y-115406566D01*
X32112291Y-115386611D01*
X32119928Y-115365186D01*
X32124149Y-115342371D01*
X32124831Y-115318248D01*
X32121850Y-115292897D01*
X32115084Y-115266399D01*
X32104411Y-115238837D01*
X32089706Y-115210290D01*
X32070849Y-115180839D01*
X32047714Y-115150566D01*
X32020180Y-115119553D01*
X31988125Y-115087879D01*
X31951424Y-115055626D01*
X31811667Y-114935147D01*
X31682692Y-114815138D01*
X31564106Y-114694821D01*
X31455517Y-114573418D01*
X31421190Y-114530670D01*
X31581138Y-114530670D01*
X31581171Y-114532460D01*
X31581921Y-114536473D01*
X31583570Y-114541052D01*
X31586105Y-114546183D01*
X31589511Y-114551852D01*
X31593776Y-114558045D01*
X31598886Y-114564749D01*
X31604827Y-114571949D01*
X31611585Y-114579632D01*
X31619147Y-114587784D01*
X31627499Y-114596391D01*
X31646519Y-114614916D01*
X31668535Y-114635096D01*
X31693440Y-114656820D01*
X31721123Y-114679977D01*
X31751476Y-114704458D01*
X31784389Y-114730152D01*
X31819753Y-114756948D01*
X31857460Y-114784736D01*
X31899555Y-114814095D01*
X31938514Y-114838822D01*
X31974063Y-114858998D01*
X32005931Y-114874699D01*
X32033847Y-114886007D01*
X32046238Y-114890037D01*
X32057538Y-114892997D01*
X32067715Y-114894899D01*
X32076733Y-114895751D01*
X32084559Y-114895563D01*
X32091160Y-114894346D01*
X32096500Y-114892108D01*
X32100546Y-114888861D01*
X32103265Y-114884613D01*
X32104621Y-114879374D01*
X32104582Y-114873155D01*
X32103112Y-114865965D01*
X32100179Y-114857814D01*
X32095747Y-114848712D01*
X32089784Y-114838669D01*
X32082255Y-114827694D01*
X32073127Y-114815798D01*
X32062364Y-114802990D01*
X32035802Y-114774677D01*
X32002296Y-114742836D01*
X32002327Y-114742851D01*
X31981890Y-114725315D01*
X31958671Y-114707109D01*
X31933125Y-114688480D01*
X31905706Y-114669678D01*
X31876871Y-114650951D01*
X31847074Y-114632547D01*
X31816770Y-114614717D01*
X31786415Y-114597707D01*
X31756463Y-114581768D01*
X31727370Y-114567147D01*
X31699590Y-114554093D01*
X31673578Y-114542855D01*
X31649791Y-114533681D01*
X31628682Y-114526821D01*
X31610707Y-114522522D01*
X31596321Y-114521034D01*
X31591389Y-114521363D01*
X31587438Y-114522340D01*
X31585826Y-114523068D01*
X31584454Y-114523953D01*
X31583321Y-114524992D01*
X31582424Y-114526186D01*
X31581763Y-114527531D01*
X31581334Y-114529026D01*
X31581138Y-114530670D01*
X31421190Y-114530670D01*
X31356534Y-114450152D01*
X31266765Y-114324246D01*
X31185819Y-114194922D01*
X31113304Y-114061403D01*
X31048829Y-113922910D01*
X30992001Y-113778667D01*
X30942430Y-113627896D01*
X30899723Y-113469820D01*
X30863489Y-113303660D01*
X30833337Y-113128640D01*
X30808875Y-112943982D01*
X30789711Y-112748909D01*
X30782743Y-112655639D01*
X30778437Y-112576867D01*
X30776661Y-112512436D01*
X30777283Y-112462188D01*
X30780171Y-112425966D01*
X30782424Y-112413067D01*
X30785194Y-112403615D01*
X30788464Y-112397591D01*
X30792218Y-112394976D01*
X30796440Y-112395749D01*
X30801113Y-112399892D01*
X30806221Y-112407385D01*
X30811746Y-112418208D01*
X30823986Y-112449765D01*
X30837701Y-112494407D01*
X30852758Y-112551977D01*
X30869026Y-112622317D01*
X30886372Y-112705271D01*
X30904666Y-112800682D01*
X30923775Y-112908394D01*
X30956686Y-113083740D01*
X30995449Y-113262238D01*
X31038061Y-113436910D01*
X31082523Y-113600776D01*
X31126835Y-113746859D01*
X31168997Y-113868178D01*
X31188647Y-113917371D01*
X31207008Y-113957756D01*
X31223832Y-113988461D01*
X31238869Y-114008613D01*
X31244329Y-114011733D01*
X31251418Y-114011574D01*
X31260057Y-114008258D01*
X31270168Y-114001907D01*
X31281672Y-113992641D01*
X31294492Y-113980582D01*
X31323766Y-113948569D01*
X31357366Y-113906841D01*
X31394665Y-113856367D01*
X31435039Y-113798119D01*
X31477863Y-113733066D01*
X31522512Y-113662180D01*
X31568362Y-113586432D01*
X31614786Y-113506792D01*
X31661160Y-113424231D01*
X31706859Y-113339719D01*
X31751258Y-113254228D01*
X31793732Y-113168728D01*
X31812737Y-113128486D01*
X31965584Y-113128486D01*
X32334328Y-113468650D01*
X32504059Y-113618633D01*
X32685967Y-113767448D01*
X32876895Y-113913388D01*
X33073689Y-114054747D01*
X33273195Y-114189818D01*
X33472257Y-114316894D01*
X33667720Y-114434268D01*
X33856430Y-114540233D01*
X34035231Y-114633084D01*
X34200969Y-114711112D01*
X34350489Y-114772611D01*
X34480636Y-114815875D01*
X34588254Y-114839196D01*
X34632629Y-114842845D01*
X34670190Y-114840868D01*
X34700540Y-114833052D01*
X34723287Y-114819184D01*
X34738036Y-114799051D01*
X34744392Y-114772438D01*
X34744362Y-114772453D01*
X34745792Y-114739177D01*
X34745661Y-114723190D01*
X34744824Y-114707453D01*
X34743175Y-114691825D01*
X34740606Y-114676168D01*
X34737012Y-114660342D01*
X34732286Y-114644208D01*
X34726322Y-114627627D01*
X34719013Y-114610460D01*
X34710253Y-114592567D01*
X34699936Y-114573810D01*
X34687954Y-114554049D01*
X34674202Y-114533145D01*
X34658573Y-114510958D01*
X34640961Y-114487350D01*
X34621258Y-114462181D01*
X34599360Y-114435313D01*
X34575159Y-114406605D01*
X34548549Y-114375919D01*
X34487675Y-114308055D01*
X34415888Y-114230608D01*
X34332335Y-114142464D01*
X34236166Y-114042508D01*
X34002571Y-113802711D01*
X33745303Y-113535934D01*
X33512557Y-113286389D01*
X33302545Y-113051920D01*
X33113476Y-112830372D01*
X32943560Y-112619588D01*
X32791007Y-112417412D01*
X32654027Y-112221690D01*
X32530830Y-112030265D01*
X32487918Y-111961906D01*
X32469209Y-111933303D01*
X32452224Y-111908318D01*
X32436883Y-111886873D01*
X32423105Y-111868893D01*
X32410809Y-111854301D01*
X32399914Y-111843021D01*
X32390340Y-111834978D01*
X32386023Y-111832146D01*
X32382006Y-111830094D01*
X32378278Y-111828814D01*
X32374831Y-111828295D01*
X32371653Y-111828528D01*
X32368735Y-111829503D01*
X32366066Y-111831211D01*
X32363637Y-111833643D01*
X32361437Y-111836789D01*
X32359456Y-111840639D01*
X32356112Y-111850414D01*
X32353523Y-111862892D01*
X32332867Y-111971002D01*
X32302762Y-112102928D01*
X32265655Y-112249954D01*
X32223991Y-112403366D01*
X32180216Y-112554449D01*
X32136775Y-112694488D01*
X32096113Y-112814769D01*
X32060677Y-112906578D01*
X31965584Y-113128486D01*
X31812737Y-113128486D01*
X31833656Y-113084190D01*
X31891665Y-112951059D01*
X31946499Y-112811681D01*
X31997968Y-112667058D01*
X32045882Y-112518190D01*
X32090051Y-112366080D01*
X32130284Y-112211730D01*
X32166391Y-112056140D01*
X32198181Y-111900314D01*
X32225465Y-111745252D01*
X32248051Y-111591957D01*
X32265750Y-111441429D01*
X32278371Y-111294672D01*
X32285724Y-111152685D01*
X32287618Y-111016472D01*
X32283863Y-110887034D01*
X32274269Y-110765373D01*
X32241676Y-110460579D01*
X31945564Y-110440376D01*
X31892728Y-110435130D01*
X31834911Y-110426500D01*
X31773362Y-110414909D01*
X31709328Y-110400782D01*
X31644056Y-110384542D01*
X31578795Y-110366612D01*
X31453293Y-110327377D01*
X31395548Y-110306919D01*
X31342803Y-110286465D01*
X31296306Y-110266440D01*
X31257305Y-110247265D01*
X31227047Y-110229366D01*
X31206781Y-110213165D01*
X31200784Y-110205834D01*
X31197752Y-110199086D01*
X31197842Y-110192975D01*
X31201210Y-110187553D01*
X31202624Y-110186536D01*
X31204622Y-110185713D01*
X31207189Y-110185083D01*
X31210309Y-110184641D01*
X31218139Y-110184310D01*
X31227983Y-110184695D01*
X31239710Y-110185772D01*
X31253190Y-110187515D01*
X31268292Y-110189899D01*
X31284885Y-110192899D01*
X31302841Y-110196490D01*
X31322027Y-110200646D01*
X31342314Y-110205342D01*
X31363572Y-110210554D01*
X31385669Y-110216255D01*
X31408476Y-110222421D01*
X31431862Y-110229026D01*
X31455696Y-110236045D01*
X31554800Y-110262129D01*
X31657309Y-110282093D01*
X31762102Y-110296115D01*
X31868061Y-110304374D01*
X31974065Y-110307047D01*
X32078995Y-110304313D01*
X32181731Y-110296350D01*
X32281155Y-110283334D01*
X32376145Y-110265446D01*
X32465583Y-110242861D01*
X32548349Y-110215759D01*
X32623324Y-110184317D01*
X32689387Y-110148714D01*
X32745420Y-110109127D01*
X32769325Y-110087896D01*
X32790302Y-110065735D01*
X32808212Y-110042667D01*
X32822914Y-110018715D01*
X32828726Y-110008263D01*
X32834654Y-109998388D01*
X32840656Y-109989127D01*
X32846691Y-109980519D01*
X32852715Y-109972604D01*
X32858687Y-109965419D01*
X32864564Y-109959004D01*
X32870304Y-109953397D01*
X32875865Y-109948638D01*
X32881205Y-109944766D01*
X32886281Y-109941818D01*
X32888707Y-109940703D01*
X32891051Y-109939834D01*
X32893308Y-109939216D01*
X32895473Y-109938853D01*
X32897540Y-109938750D01*
X32899504Y-109938913D01*
X32901360Y-109939346D01*
X32903103Y-109940054D01*
X32904727Y-109941042D01*
X32906227Y-109942314D01*
X32910907Y-109946327D01*
X32915907Y-109949372D01*
X32921197Y-109951485D01*
X32926747Y-109952699D01*
X32932525Y-109953051D01*
X32938501Y-109952574D01*
X32944643Y-109951305D01*
X32950922Y-109949278D01*
X32957306Y-109946529D01*
X32963764Y-109943092D01*
X32970267Y-109939002D01*
X32976782Y-109934295D01*
X32983280Y-109929005D01*
X32989728Y-109923168D01*
X32996098Y-109916819D01*
X33002357Y-109909992D01*
X33008476Y-109902723D01*
X33014423Y-109895046D01*
X33020167Y-109886998D01*
X33025678Y-109878612D01*
X33030925Y-109869924D01*
X33035878Y-109860969D01*
X33040505Y-109851782D01*
X33044775Y-109842398D01*
X33048658Y-109832852D01*
X33052124Y-109823180D01*
X33055140Y-109813415D01*
X33057677Y-109803594D01*
X33059704Y-109793751D01*
X33061190Y-109783921D01*
X33062104Y-109774140D01*
X33062416Y-109764442D01*
X33062958Y-109753807D01*
X33064548Y-109742336D01*
X33067132Y-109730139D01*
X33070656Y-109717324D01*
X33075068Y-109703997D01*
X33080313Y-109690266D01*
X33086339Y-109676241D01*
X33093090Y-109662027D01*
X33100514Y-109647734D01*
X33108557Y-109633468D01*
X33117166Y-109619338D01*
X33126287Y-109605451D01*
X33135866Y-109591916D01*
X33145850Y-109578840D01*
X33156184Y-109566331D01*
X33166817Y-109554496D01*
X33187216Y-109529482D01*
X33205863Y-109499898D01*
X33222774Y-109465977D01*
X33237966Y-109427951D01*
X33251456Y-109386053D01*
X33263259Y-109340515D01*
X33281871Y-109239447D01*
X33293935Y-109126608D01*
X33299580Y-109003856D01*
X33298939Y-108873049D01*
X33292141Y-108736047D01*
X33279318Y-108594709D01*
X33260602Y-108450893D01*
X33236123Y-108306459D01*
X33206011Y-108163265D01*
X33196928Y-108127532D01*
X33359271Y-108127532D01*
X33359312Y-108139085D01*
X33362266Y-108163485D01*
X33368806Y-108189809D01*
X33378639Y-108218300D01*
X33382146Y-108226021D01*
X33386342Y-108232706D01*
X33391218Y-108238362D01*
X33396762Y-108242994D01*
X33402964Y-108246609D01*
X33409813Y-108249212D01*
X33417300Y-108250809D01*
X33425413Y-108251408D01*
X33434142Y-108251013D01*
X33443476Y-108249631D01*
X33453405Y-108247267D01*
X33463919Y-108243929D01*
X33475007Y-108239622D01*
X33486658Y-108234352D01*
X33498862Y-108228125D01*
X33511608Y-108220947D01*
X33524886Y-108212824D01*
X33538686Y-108203763D01*
X33552996Y-108193770D01*
X33567807Y-108182850D01*
X33583108Y-108171010D01*
X33598888Y-108158255D01*
X33615137Y-108144592D01*
X33631844Y-108130027D01*
X33666591Y-108098215D01*
X33703045Y-108062867D01*
X33741123Y-108024031D01*
X33780739Y-107981758D01*
X33780739Y-107981804D01*
X33900490Y-107851417D01*
X33780739Y-107887016D01*
X33710373Y-107908399D01*
X33647409Y-107928563D01*
X33591551Y-107947750D01*
X33542507Y-107966202D01*
X33499983Y-107984161D01*
X33463687Y-108001868D01*
X33433323Y-108019565D01*
X33408600Y-108037494D01*
X33398261Y-108046622D01*
X33389223Y-108055898D01*
X33381448Y-108065352D01*
X33374899Y-108075016D01*
X33369540Y-108084920D01*
X33365335Y-108095093D01*
X33362246Y-108105566D01*
X33360237Y-108116368D01*
X33359271Y-108127532D01*
X33196928Y-108127532D01*
X33170399Y-108023170D01*
X33129417Y-107888032D01*
X33083196Y-107759712D01*
X33031868Y-107640068D01*
X32965134Y-107511142D01*
X32891292Y-107392793D01*
X32865406Y-107358092D01*
X33077020Y-107358092D01*
X33077262Y-107361232D01*
X33078630Y-107369339D01*
X33081132Y-107379761D01*
X33084718Y-107392353D01*
X33089336Y-107406969D01*
X33094936Y-107423463D01*
X33101467Y-107441690D01*
X33117119Y-107482761D01*
X33135884Y-107529016D01*
X33157356Y-107579292D01*
X33181129Y-107632423D01*
X33301369Y-107895057D01*
X33658668Y-107795356D01*
X33760375Y-107766300D01*
X33839745Y-107741731D01*
X33871632Y-107730802D01*
X33898630Y-107720601D01*
X33920969Y-107710998D01*
X33938881Y-107701862D01*
X33952597Y-107693062D01*
X33962349Y-107684466D01*
X33965811Y-107680204D01*
X33968369Y-107675944D01*
X33970051Y-107671670D01*
X33970886Y-107667366D01*
X33970904Y-107663014D01*
X33970134Y-107658599D01*
X33966342Y-107649513D01*
X33959744Y-107639977D01*
X33950592Y-107629885D01*
X33930574Y-107615744D01*
X33896029Y-107598020D01*
X33849089Y-107577392D01*
X33791879Y-107554536D01*
X33655156Y-107504846D01*
X33502865Y-107454357D01*
X33352011Y-107408475D01*
X33219601Y-107372608D01*
X33165626Y-107360120D01*
X33122640Y-107352163D01*
X33092767Y-107349413D01*
X33083412Y-107350202D01*
X33078133Y-107352546D01*
X33077448Y-107353731D01*
X33077079Y-107355586D01*
X33077020Y-107358092D01*
X32865406Y-107358092D01*
X32810823Y-107284924D01*
X32724211Y-107187440D01*
X32631935Y-107100246D01*
X32534479Y-107023247D01*
X32432323Y-106956346D01*
X32325950Y-106899450D01*
X32215840Y-106852463D01*
X32102477Y-106815288D01*
X31986341Y-106787832D01*
X31867915Y-106769999D01*
X31747679Y-106761692D01*
X31626116Y-106762818D01*
X31503708Y-106773281D01*
X31380936Y-106792986D01*
X31258281Y-106821836D01*
X31136226Y-106859737D01*
X31015253Y-106906595D01*
X30895842Y-106962312D01*
X30778476Y-107026794D01*
X30663636Y-107099946D01*
X30551805Y-107181672D01*
X30443463Y-107271878D01*
X30339093Y-107370467D01*
X30239176Y-107477344D01*
X30144195Y-107592415D01*
X30054629Y-107715584D01*
X29970963Y-107846755D01*
X29893676Y-107985833D01*
X29823251Y-108132723D01*
X29760170Y-108287330D01*
X29735357Y-108352679D01*
X29712075Y-108410655D01*
X29689331Y-108462004D01*
X29677852Y-108485427D01*
X29666134Y-108507474D01*
X29654056Y-108528239D01*
X29641491Y-108547814D01*
X29628317Y-108566294D01*
X29614410Y-108583772D01*
X29599644Y-108600340D01*
X29583897Y-108616094D01*
X29567044Y-108631125D01*
X29548962Y-108645528D01*
X29529525Y-108659397D01*
X29508610Y-108672824D01*
X29486094Y-108685903D01*
X29461851Y-108698727D01*
X29435759Y-108711391D01*
X29407692Y-108723987D01*
X29345140Y-108749350D01*
X29273203Y-108775566D01*
X29190888Y-108803380D01*
X29097204Y-108833542D01*
X28991157Y-108866798D01*
X28708671Y-108961733D01*
X28438836Y-109066434D01*
X28181771Y-109180562D01*
X27937596Y-109303777D01*
X27706430Y-109435737D01*
X27488392Y-109576102D01*
X27283602Y-109724533D01*
X27092180Y-109880688D01*
X26914244Y-110044227D01*
X26749914Y-110214810D01*
X26599309Y-110392097D01*
X26462549Y-110575746D01*
X26339754Y-110765418D01*
X26231042Y-110960773D01*
X26136533Y-111161469D01*
X26056347Y-111367166D01*
X25990602Y-111577525D01*
X25939419Y-111792204D01*
X25902916Y-112010863D01*
X25881213Y-112233162D01*
X25874430Y-112458761D01*
X25746830Y-112458761D01*
X25746748Y-112455204D01*
X25754485Y-112246585D01*
X25774734Y-112040661D01*
X25807380Y-111837678D01*
X25852309Y-111637882D01*
X25909406Y-111441518D01*
X25978557Y-111248832D01*
X26059647Y-111060070D01*
X26152561Y-110875477D01*
X26257184Y-110695300D01*
X26373404Y-110519785D01*
X26501104Y-110349176D01*
X26640170Y-110183720D01*
X26790488Y-110023663D01*
X26951943Y-109869250D01*
X27124420Y-109720727D01*
X27307806Y-109578340D01*
X27501985Y-109442335D01*
X27706843Y-109312958D01*
X27922265Y-109190454D01*
X28148137Y-109075069D01*
X28384344Y-108967048D01*
X28630772Y-108866639D01*
X28887306Y-108774086D01*
X29525948Y-108557884D01*
X29657112Y-108219642D01*
X29713255Y-108084139D01*
X29774395Y-107953982D01*
X29840292Y-107829268D01*
X29910705Y-107710091D01*
X29985394Y-107596546D01*
X30064117Y-107488727D01*
X30146636Y-107386729D01*
X30232708Y-107290648D01*
X30322094Y-107200577D01*
X30414552Y-107116611D01*
X30509843Y-107038846D01*
X30607726Y-106967375D01*
X30707959Y-106902294D01*
X30810304Y-106843698D01*
X30914519Y-106791681D01*
X31020363Y-106746338D01*
X31127596Y-106707763D01*
X31235978Y-106676052D01*
X31345267Y-106651298D01*
X31455224Y-106633598D01*
X31565608Y-106623045D01*
X31676178Y-106619735D01*
X31786694Y-106623762D01*
X31896915Y-106635221D01*
X32006601Y-106654206D01*
X32115511Y-106680812D01*
X32223404Y-106715135D01*
X32330040Y-106757269D01*
X32435179Y-106807308D01*
X32538580Y-106865347D01*
X32640002Y-106931481D01*
X32739204Y-107005806D01*
X32762738Y-107023669D01*
X32788644Y-107041484D01*
X32816910Y-107059243D01*
X32847525Y-107076944D01*
X32880478Y-107094582D01*
X32915758Y-107112151D01*
X32953354Y-107129648D01*
X32993256Y-107147068D01*
X33035451Y-107164405D01*
X33079928Y-107181656D01*
X33126678Y-107198816D01*
X33175688Y-107215881D01*
X33226947Y-107232844D01*
X33280445Y-107249703D01*
X33336170Y-107266453D01*
X33394112Y-107283088D01*
X33547823Y-107327495D01*
X33682812Y-107369583D01*
X33799441Y-107410086D01*
X33898071Y-107449741D01*
X33940749Y-107469480D01*
X33979064Y-107489282D01*
X34013060Y-107509239D01*
X34042782Y-107529443D01*
X34068276Y-107549985D01*
X34089586Y-107570959D01*
X34106759Y-107592454D01*
X34119839Y-107614565D01*
X34128871Y-107637381D01*
X34133901Y-107660995D01*
X34134974Y-107685499D01*
X34132135Y-107710985D01*
X34125429Y-107737545D01*
X34114902Y-107765270D01*
X34100598Y-107794252D01*
X34082564Y-107824583D01*
X34060843Y-107856356D01*
X34035482Y-107889661D01*
X33974019Y-107961237D01*
X33898536Y-108040046D01*
X33809395Y-108126823D01*
X33456276Y-108462104D01*
X33435677Y-108965019D01*
X33426781Y-109096257D01*
X33411170Y-109223027D01*
X33389030Y-109345024D01*
X33360545Y-109461941D01*
X33325902Y-109573472D01*
X33285285Y-109679311D01*
X33238881Y-109779153D01*
X33186874Y-109872690D01*
X33129451Y-109959617D01*
X33066797Y-110039628D01*
X32999097Y-110112416D01*
X32926537Y-110177676D01*
X32849303Y-110235101D01*
X32767580Y-110284385D01*
X32681553Y-110325223D01*
X32591408Y-110357307D01*
X32398689Y-110415001D01*
X32403694Y-110995185D01*
X32408699Y-111575370D01*
X32587990Y-111872749D01*
X32663801Y-111994961D01*
X32745319Y-112119612D01*
X32832420Y-112246556D01*
X32924981Y-112375645D01*
X33022878Y-112506734D01*
X33125988Y-112639675D01*
X33234187Y-112774324D01*
X33347351Y-112910532D01*
X33588080Y-113187042D01*
X33847186Y-113468035D01*
X34123680Y-113752338D01*
X34416573Y-114038780D01*
X34510960Y-114130745D01*
X34595916Y-114217326D01*
X34670828Y-114297794D01*
X34735084Y-114371421D01*
X34763026Y-114405442D01*
X34788075Y-114437478D01*
X34810154Y-114467440D01*
X34829186Y-114495236D01*
X34845097Y-114520775D01*
X34857808Y-114543966D01*
X34867245Y-114564717D01*
X34873329Y-114582939D01*
X34879901Y-114608011D01*
X34885977Y-114629416D01*
X34888937Y-114638651D01*
X34891902Y-114646857D01*
X34894915Y-114653999D01*
X34898020Y-114660040D01*
X34901260Y-114664941D01*
X34904677Y-114668667D01*
X34906466Y-114670078D01*
X34908316Y-114671180D01*
X34910232Y-114671971D01*
X34912218Y-114672444D01*
X34914282Y-114672596D01*
X34916428Y-114672421D01*
X34918662Y-114671916D01*
X34920988Y-114671075D01*
X34925942Y-114668368D01*
X34931332Y-114664264D01*
X34937201Y-114658726D01*
X34943594Y-114651716D01*
X34950552Y-114643198D01*
X34958119Y-114633135D01*
X34966339Y-114621489D01*
X34975254Y-114608225D01*
X34995342Y-114576690D01*
X35018728Y-114538236D01*
X35045758Y-114492565D01*
X35112129Y-114378395D01*
X35313698Y-114030220D01*
X35175331Y-113872627D01*
X35138306Y-113827657D01*
X35104371Y-113780693D01*
X35073510Y-113731851D01*
X35045705Y-113681247D01*
X35020941Y-113628995D01*
X34999200Y-113575212D01*
X34980467Y-113520011D01*
X34964724Y-113463509D01*
X34951956Y-113405821D01*
X34942145Y-113347063D01*
X34935276Y-113287348D01*
X34931331Y-113226794D01*
X34930295Y-113165514D01*
X34931071Y-113139604D01*
X35082271Y-113139604D01*
X35086707Y-113228020D01*
X35097554Y-113314044D01*
X35114621Y-113397229D01*
X35137716Y-113477130D01*
X35166649Y-113553301D01*
X35201227Y-113625293D01*
X35241260Y-113692663D01*
X35286557Y-113754962D01*
X35336925Y-113811746D01*
X35392173Y-113862567D01*
X35452111Y-113906979D01*
X35516547Y-113944536D01*
X35585290Y-113974791D01*
X35658148Y-113997299D01*
X35734930Y-114011613D01*
X35815444Y-114017287D01*
X35899500Y-114013874D01*
X35986906Y-114000928D01*
X36077471Y-113978002D01*
X36171003Y-113944651D01*
X36267311Y-113900428D01*
X36267281Y-113900428D01*
X36320203Y-113871243D01*
X36371238Y-113838789D01*
X36420313Y-113803309D01*
X36467357Y-113765048D01*
X36512296Y-113724252D01*
X36555058Y-113681164D01*
X36595570Y-113636029D01*
X36633761Y-113589091D01*
X36669557Y-113540595D01*
X36702886Y-113490787D01*
X36733676Y-113439909D01*
X36761854Y-113388207D01*
X36787347Y-113335925D01*
X36810084Y-113283308D01*
X36829991Y-113230601D01*
X36846996Y-113178047D01*
X36861027Y-113125891D01*
X36872012Y-113074379D01*
X36879877Y-113023754D01*
X36884550Y-112974261D01*
X36885959Y-112926145D01*
X36884032Y-112879649D01*
X36878695Y-112835020D01*
X36869876Y-112792500D01*
X36857504Y-112752335D01*
X36841504Y-112714770D01*
X36821806Y-112680048D01*
X36798336Y-112648415D01*
X36771022Y-112620114D01*
X36739792Y-112595391D01*
X36704572Y-112574490D01*
X36665291Y-112557655D01*
X36609500Y-112537097D01*
X36554933Y-112515577D01*
X36501526Y-112493057D01*
X36449213Y-112469498D01*
X36397929Y-112444860D01*
X36347610Y-112419107D01*
X36298190Y-112392198D01*
X36249603Y-112364095D01*
X36201786Y-112334760D01*
X36154672Y-112304154D01*
X36108197Y-112272237D01*
X36062296Y-112238972D01*
X36016903Y-112204320D01*
X35971954Y-112168241D01*
X35927383Y-112130698D01*
X35883125Y-112091652D01*
X35710365Y-111935783D01*
X35511330Y-112136802D01*
X35432616Y-112222074D01*
X35362418Y-112309862D01*
X35300544Y-112399722D01*
X35246803Y-112491207D01*
X35201004Y-112583870D01*
X35162955Y-112677265D01*
X35132465Y-112770946D01*
X35109343Y-112864467D01*
X35093398Y-112957381D01*
X35084438Y-113049242D01*
X35082271Y-113139604D01*
X34931071Y-113139604D01*
X34932150Y-113103625D01*
X34936880Y-113041242D01*
X34944469Y-112978479D01*
X34954901Y-112915453D01*
X34968158Y-112852278D01*
X34984224Y-112789071D01*
X35003082Y-112725945D01*
X35024717Y-112663017D01*
X35049111Y-112600402D01*
X35076249Y-112538215D01*
X35106113Y-112476571D01*
X35138687Y-112415587D01*
X35173955Y-112355376D01*
X35211899Y-112296054D01*
X35252504Y-112237737D01*
X35295754Y-112180540D01*
X35341630Y-112124579D01*
X35390118Y-112069968D01*
X35441200Y-112016822D01*
X35471638Y-111987614D01*
X35502364Y-111960605D01*
X35533416Y-111935802D01*
X35544116Y-111928108D01*
X35912178Y-111928108D01*
X36008278Y-112026115D01*
X36046012Y-112060647D01*
X36093628Y-112097939D01*
X36149426Y-112137150D01*
X36211708Y-112177442D01*
X36278773Y-112217976D01*
X36348923Y-112257912D01*
X36420457Y-112296412D01*
X36491676Y-112332636D01*
X36560882Y-112365745D01*
X36626373Y-112394900D01*
X36686452Y-112419263D01*
X36739418Y-112437993D01*
X36783572Y-112450252D01*
X36817215Y-112455201D01*
X36829563Y-112454672D01*
X36838647Y-112452000D01*
X36844253Y-112447082D01*
X36846168Y-112439811D01*
X36844821Y-112434268D01*
X36840865Y-112427442D01*
X36834430Y-112419411D01*
X36825649Y-112410257D01*
X36801564Y-112388892D01*
X36769654Y-112363982D01*
X36730962Y-112336162D01*
X36686531Y-112306067D01*
X36637406Y-112274332D01*
X36584629Y-112241592D01*
X36529244Y-112208482D01*
X36472294Y-112175638D01*
X36414823Y-112143694D01*
X36357873Y-112113286D01*
X36302490Y-112085048D01*
X36249715Y-112059615D01*
X36200593Y-112037623D01*
X36156166Y-112019706D01*
X35912178Y-111928108D01*
X35544116Y-111928108D01*
X35564833Y-111913210D01*
X35596653Y-111892834D01*
X35628915Y-111874679D01*
X35661657Y-111858752D01*
X35694918Y-111845057D01*
X35728736Y-111833600D01*
X35763149Y-111824385D01*
X35798196Y-111817420D01*
X35833916Y-111812708D01*
X35870346Y-111810255D01*
X35907526Y-111810067D01*
X35945494Y-111812149D01*
X35984287Y-111816507D01*
X36023946Y-111823145D01*
X36064507Y-111832070D01*
X36106010Y-111843286D01*
X36148493Y-111856799D01*
X36191995Y-111872615D01*
X36236553Y-111890738D01*
X36282207Y-111911174D01*
X36328994Y-111933929D01*
X36376954Y-111959008D01*
X36426125Y-111986416D01*
X36528252Y-112048242D01*
X36635683Y-112119449D01*
X36748726Y-112200081D01*
X36817635Y-112256676D01*
X36877528Y-112317949D01*
X36928647Y-112383455D01*
X36971239Y-112452748D01*
X37005547Y-112525382D01*
X37031816Y-112600911D01*
X37050291Y-112678890D01*
X37061217Y-112758873D01*
X37064837Y-112840415D01*
X37061397Y-112923069D01*
X37051141Y-113006390D01*
X37034314Y-113089933D01*
X37011160Y-113173251D01*
X36981924Y-113255900D01*
X36946851Y-113337432D01*
X36906185Y-113417404D01*
X36860171Y-113495368D01*
X36809053Y-113570880D01*
X36753076Y-113643493D01*
X36692484Y-113712763D01*
X36627523Y-113778242D01*
X36558437Y-113839487D01*
X36485470Y-113896050D01*
X36408866Y-113947486D01*
X36328872Y-113993350D01*
X36245730Y-114033196D01*
X36159687Y-114066578D01*
X36070985Y-114093051D01*
X35979871Y-114112168D01*
X35886588Y-114123485D01*
X35791382Y-114126555D01*
X35694496Y-114120933D01*
X35428230Y-114093330D01*
X35283882Y-114343101D01*
X34908058Y-114989769D01*
X34676582Y-115386650D01*
X34856148Y-115551139D01*
X34885068Y-115578435D01*
X34911006Y-115604564D01*
X34934008Y-115629501D01*
X34954119Y-115653223D01*
X34971385Y-115675705D01*
X34985852Y-115696923D01*
X34997565Y-115716852D01*
X35006572Y-115735468D01*
X35012917Y-115752747D01*
X35016646Y-115768663D01*
X35017805Y-115783194D01*
X35016440Y-115796313D01*
X35012597Y-115807998D01*
X35006321Y-115818223D01*
X34997659Y-115826964D01*
X34986656Y-115834198D01*
X34973358Y-115839898D01*
X34957812Y-115844042D01*
X34940062Y-115846604D01*
X34920154Y-115847560D01*
X34898135Y-115846886D01*
X34874050Y-115844558D01*
X34847946Y-115840551D01*
X34819867Y-115834840D01*
X34789860Y-115827401D01*
X34757971Y-115818211D01*
X34724245Y-115807244D01*
X34688728Y-115794476D01*
X34651467Y-115779882D01*
X34612506Y-115763439D01*
X34571892Y-115745122D01*
X34529671Y-115724907D01*
X34476178Y-115697570D01*
X34425394Y-115669643D01*
X34377362Y-115641267D01*
X34332128Y-115612584D01*
X34289736Y-115583737D01*
X34250231Y-115554867D01*
X34213659Y-115526116D01*
X34180064Y-115497627D01*
X34149490Y-115469542D01*
X34121983Y-115442003D01*
X34097588Y-115415151D01*
X34076349Y-115389129D01*
X34067004Y-115376151D01*
X34232236Y-115376151D01*
X34234352Y-115380928D01*
X34239265Y-115387463D01*
X34246549Y-115395143D01*
X34267619Y-115413580D01*
X34296341Y-115435527D01*
X34331494Y-115460273D01*
X34371858Y-115487105D01*
X34416211Y-115515313D01*
X34512001Y-115573009D01*
X34609095Y-115627668D01*
X34655079Y-115652080D01*
X34697726Y-115673597D01*
X34735815Y-115691510D01*
X34768125Y-115705105D01*
X34793435Y-115713672D01*
X34803083Y-115715848D01*
X34810524Y-115716499D01*
X34812851Y-115716367D01*
X34814902Y-115716041D01*
X34816680Y-115715528D01*
X34817468Y-115715203D01*
X34818188Y-115714832D01*
X34818842Y-115714417D01*
X34819429Y-115713958D01*
X34819950Y-115713456D01*
X34820405Y-115712911D01*
X34820795Y-115712324D01*
X34821120Y-115711696D01*
X34821381Y-115711027D01*
X34821577Y-115710318D01*
X34821778Y-115708782D01*
X34821727Y-115707093D01*
X34821425Y-115705256D01*
X34820877Y-115703276D01*
X34820085Y-115701158D01*
X34819053Y-115698907D01*
X34817782Y-115696527D01*
X34816277Y-115694025D01*
X34814539Y-115691404D01*
X34812572Y-115688670D01*
X34810379Y-115685828D01*
X34807962Y-115682883D01*
X34805325Y-115679840D01*
X34802471Y-115676703D01*
X34799402Y-115673478D01*
X34796122Y-115670170D01*
X34792632Y-115666783D01*
X34788938Y-115663323D01*
X34785040Y-115659795D01*
X34780942Y-115656204D01*
X34776648Y-115652554D01*
X34772159Y-115648850D01*
X34767479Y-115645099D01*
X34762611Y-115641304D01*
X34762611Y-115641273D01*
X34732172Y-115619047D01*
X34696417Y-115595163D01*
X34656412Y-115570149D01*
X34613222Y-115544527D01*
X34521548Y-115493566D01*
X34429920Y-115446481D01*
X34346863Y-115407474D01*
X34311212Y-115392312D01*
X34280899Y-115380745D01*
X34256992Y-115373298D01*
X34240555Y-115370496D01*
X34235470Y-115371001D01*
X34232653Y-115372864D01*
X34232236Y-115376151D01*
X34067004Y-115376151D01*
X34058311Y-115364079D01*
X34043519Y-115340143D01*
X34032018Y-115317462D01*
X34023853Y-115296180D01*
X34019069Y-115276438D01*
X34017709Y-115258379D01*
X34019821Y-115242143D01*
X34025447Y-115227874D01*
X34034633Y-115215713D01*
X34047424Y-115205803D01*
X34063864Y-115198285D01*
X34083999Y-115193301D01*
X34107873Y-115190995D01*
X34135532Y-115191507D01*
X34167019Y-115194979D01*
X34202381Y-115201555D01*
X34241661Y-115211375D01*
X34284904Y-115224582D01*
X34332156Y-115241319D01*
X34383461Y-115261726D01*
X34438706Y-115284376D01*
X34461475Y-115292937D01*
X34481507Y-115299497D01*
X34490613Y-115301990D01*
X34499175Y-115303939D01*
X34507239Y-115305327D01*
X34514852Y-115306142D01*
X34522060Y-115306368D01*
X34528911Y-115305989D01*
X34535450Y-115304992D01*
X34541725Y-115303362D01*
X34547782Y-115301083D01*
X34553668Y-115298141D01*
X34559430Y-115294520D01*
X34565114Y-115290208D01*
X34570767Y-115285187D01*
X34576435Y-115279444D01*
X34582165Y-115272964D01*
X34588004Y-115265732D01*
X34600195Y-115248953D01*
X34613382Y-115228987D01*
X34644234Y-115179023D01*
X34737129Y-115026237D01*
X34486793Y-114975944D01*
X34435046Y-114964974D01*
X34383934Y-114953089D01*
X34334779Y-114940666D01*
X34288902Y-114928085D01*
X34247626Y-114915724D01*
X34212273Y-114903962D01*
X34184163Y-114893178D01*
X34173238Y-114888271D01*
X34164619Y-114883751D01*
X33848566Y-114694670D01*
X33531432Y-114495795D01*
X33222176Y-114293382D01*
X32929756Y-114093687D01*
X32663131Y-113902966D01*
X32431260Y-113727476D01*
X32243101Y-113573473D01*
X32168213Y-113506483D01*
X32107613Y-113447212D01*
X32073667Y-113412273D01*
X32043160Y-113381691D01*
X32015849Y-113355397D01*
X31991491Y-113333324D01*
X31969842Y-113315405D01*
X31959958Y-113307981D01*
X31950661Y-113301571D01*
X31941920Y-113296166D01*
X31933704Y-113291756D01*
X31925983Y-113288334D01*
X31918728Y-113285892D01*
X31911907Y-113284421D01*
X31905490Y-113283912D01*
X31899448Y-113284357D01*
X31893748Y-113285747D01*
X31888362Y-113288075D01*
X31883259Y-113291331D01*
X31878408Y-113295508D01*
X31873780Y-113300596D01*
X31869343Y-113306588D01*
X31865067Y-113313474D01*
X31860923Y-113321247D01*
X31856879Y-113329899D01*
X31848972Y-113349801D01*
X31841103Y-113373115D01*
X31836730Y-113384856D01*
X31830077Y-113399861D01*
X31821281Y-113417901D01*
X31810478Y-113438743D01*
X31783401Y-113487914D01*
X31749939Y-113545524D01*
X31711187Y-113609727D01*
X31668240Y-113678672D01*
X31622191Y-113750514D01*
X31574135Y-113823402D01*
X31529466Y-113891312D01*
X31490470Y-113953168D01*
X31457118Y-114009287D01*
X31429380Y-114059987D01*
X31407226Y-114105583D01*
X31390627Y-114146394D01*
X31384400Y-114165103D01*
X31379551Y-114182735D01*
X31376076Y-114199328D01*
X31373970Y-114214924D01*
X31373231Y-114229560D01*
X31373853Y-114243277D01*
X31375835Y-114256114D01*
X31379172Y-114268111D01*
X31383859Y-114279308D01*
X31389895Y-114289744D01*
X31397274Y-114299458D01*
X31405992Y-114308491D01*
X31416048Y-114316882D01*
X31427436Y-114324671D01*
X31440152Y-114331897D01*
X31454194Y-114338599D01*
X31486237Y-114350593D01*
X31523537Y-114360969D01*
X31600794Y-114381818D01*
X31675267Y-114406116D01*
X31746632Y-114433594D01*
X31814565Y-114463985D01*
X31878742Y-114497019D01*
X31938838Y-114532428D01*
X31994530Y-114569943D01*
X32045494Y-114609296D01*
X32091405Y-114650219D01*
X32131940Y-114692441D01*
X32166773Y-114735696D01*
X32195582Y-114779714D01*
X32207626Y-114801925D01*
X32218042Y-114824226D01*
X32226790Y-114846584D01*
X32233829Y-114868965D01*
X32239119Y-114891335D01*
X32242619Y-114913661D01*
X32244288Y-114935909D01*
X32244087Y-114958046D01*
X32243031Y-114993213D01*
X32243520Y-115031165D01*
X32245414Y-115070704D01*
X32248569Y-115110634D01*
X32252845Y-115149756D01*
X32258099Y-115186875D01*
X32264189Y-115220792D01*
X32270973Y-115250312D01*
X32279589Y-115290531D01*
X32283261Y-115328794D01*
X32282204Y-115365071D01*
X32276630Y-115399331D01*
X32266753Y-115431542D01*
X32252785Y-115461673D01*
X32234941Y-115489694D01*
X32213432Y-115515573D01*
X32188473Y-115539279D01*
X32160276Y-115560782D01*
X32129055Y-115580049D01*
X32095022Y-115597050D01*
X32058392Y-115611755D01*
X32019376Y-115624131D01*
X31978189Y-115634148D01*
X31935043Y-115641775D01*
X31890152Y-115646980D01*
X31843729Y-115649733D01*
X31795986Y-115650002D01*
X31747138Y-115647757D01*
X31697397Y-115642966D01*
X31646976Y-115635599D01*
X31596089Y-115625624D01*
X31544949Y-115613009D01*
X31493768Y-115597725D01*
X31442761Y-115579740D01*
X31392140Y-115559023D01*
X31342118Y-115535542D01*
X31292910Y-115509268D01*
X31244726Y-115480168D01*
X31197782Y-115448212D01*
X31152290Y-115413368D01*
X31128230Y-115396016D01*
X31100603Y-115379965D01*
X31069731Y-115365206D01*
X31035936Y-115351726D01*
X30960864Y-115328558D01*
X30877962Y-115310368D01*
X30789803Y-115297066D01*
X30698961Y-115288558D01*
X30608011Y-115284754D01*
X30519527Y-115285560D01*
X30436084Y-115290886D01*
X30360254Y-115300638D01*
X30294613Y-115314726D01*
X30241734Y-115333056D01*
X30220885Y-115343784D01*
X30204192Y-115355538D01*
X30191977Y-115368306D01*
X30184561Y-115382078D01*
X30182266Y-115396842D01*
X30185415Y-115412585D01*
X30194328Y-115429298D01*
X30209328Y-115446968D01*
X30222059Y-115460178D01*
X30234090Y-115473629D01*
X30245418Y-115487300D01*
X30256041Y-115501170D01*
X30265957Y-115515216D01*
X30275163Y-115529418D01*
X30283656Y-115543754D01*
X30291435Y-115558202D01*
X30298497Y-115572740D01*
X30304839Y-115587348D01*
X30310460Y-115602004D01*
X30315356Y-115616686D01*
X30319526Y-115631372D01*
X30322967Y-115646042D01*
X30325676Y-115660673D01*
X30327652Y-115675245D01*
X30328891Y-115689735D01*
X30329392Y-115704122D01*
X30329152Y-115718385D01*
X30328169Y-115732502D01*
X30326439Y-115746451D01*
X30323962Y-115760211D01*
X30320734Y-115773761D01*
X30316753Y-115787078D01*
X30312017Y-115800142D01*
X30306523Y-115812931D01*
X30300270Y-115825424D01*
X30293253Y-115837598D01*
X30285472Y-115849432D01*
X30276923Y-115860906D01*
X30267605Y-115871996D01*
X30257515Y-115882682D01*
X30248055Y-115889423D01*
X30233551Y-115895984D01*
X30190766Y-115908507D01*
X30131858Y-115920129D01*
X30059527Y-115930729D01*
X29885393Y-115948373D01*
X29689960Y-115960464D01*
X29494824Y-115966026D01*
X29321578Y-115964084D01*
X29249914Y-115959994D01*
X29191820Y-115953662D01*
X29149997Y-115944966D01*
X29136030Y-115939693D01*
X29127144Y-115933784D01*
X29126533Y-115933830D01*
X29119633Y-115931235D01*
X29104190Y-115928420D01*
X29049485Y-115922235D01*
X28966038Y-115915494D01*
X28857471Y-115908416D01*
X28727406Y-115901222D01*
X28579462Y-115894129D01*
X28417260Y-115887357D01*
X28244423Y-115881126D01*
X27914752Y-115868188D01*
X27653450Y-115852233D01*
X27545585Y-115842382D01*
X27451388Y-115830885D01*
X27369720Y-115817445D01*
X27299438Y-115801765D01*
X27239403Y-115783548D01*
X27188473Y-115762498D01*
X27145507Y-115738315D01*
X27109364Y-115710705D01*
X27078902Y-115679369D01*
X27052982Y-115644010D01*
X27030462Y-115604331D01*
X27010200Y-115560035D01*
X26992304Y-115518440D01*
X26975300Y-115482087D01*
X26966996Y-115465848D01*
X26958751Y-115450887D01*
X26950511Y-115437191D01*
X26942220Y-115424750D01*
X26933825Y-115413553D01*
X26925271Y-115403589D01*
X26916503Y-115394846D01*
X26907466Y-115387314D01*
X26898106Y-115380981D01*
X26888369Y-115375836D01*
X26878199Y-115371868D01*
X26867542Y-115369066D01*
X26856344Y-115367419D01*
X26844550Y-115366915D01*
X26832104Y-115367545D01*
X26818954Y-115369295D01*
X26805043Y-115372156D01*
X26790318Y-115376117D01*
X26774724Y-115381165D01*
X26758206Y-115387290D01*
X26740709Y-115394482D01*
X26722180Y-115402728D01*
X26681803Y-115422340D01*
X26636639Y-115446037D01*
X26586250Y-115473732D01*
X26468244Y-115536631D01*
X26350413Y-115593541D01*
X26232877Y-115644494D01*
X26115758Y-115689520D01*
X25999175Y-115728652D01*
X25883249Y-115761919D01*
X25768099Y-115789354D01*
X25653846Y-115810988D01*
X25540610Y-115826851D01*
X25428511Y-115836975D01*
X25317669Y-115841392D01*
X25208205Y-115840131D01*
X25100239Y-115833226D01*
X24993891Y-115820706D01*
X24889281Y-115802602D01*
X24786530Y-115778947D01*
X24685757Y-115749772D01*
X24587082Y-115715107D01*
X24490627Y-115674984D01*
X24396511Y-115629433D01*
X24304854Y-115578487D01*
X24215777Y-115522176D01*
X24129400Y-115460532D01*
X24045842Y-115393585D01*
X23965225Y-115321367D01*
X23887668Y-115243910D01*
X23813291Y-115161244D01*
X23742216Y-115073400D01*
X23674561Y-114980410D01*
X23610447Y-114882305D01*
X23549995Y-114779117D01*
X23493324Y-114670875D01*
X23456524Y-114592219D01*
X23423298Y-114512352D01*
X23393654Y-114431230D01*
X23367600Y-114348811D01*
X23345144Y-114265049D01*
X23326296Y-114179901D01*
X23311063Y-114093323D01*
X23299453Y-114005272D01*
X23291476Y-113915704D01*
X23287139Y-113824573D01*
X23287670Y-113780963D01*
X23445120Y-113780963D01*
X23451542Y-113920619D01*
X23465370Y-114056974D01*
X23486581Y-114189834D01*
X23515147Y-114319002D01*
X23551045Y-114444282D01*
X23594248Y-114565480D01*
X23644731Y-114682399D01*
X23702468Y-114794844D01*
X23767434Y-114902619D01*
X23839603Y-115005528D01*
X23918951Y-115103375D01*
X24005451Y-115195966D01*
X24099078Y-115283103D01*
X24199806Y-115364593D01*
X24307611Y-115440237D01*
X24422466Y-115509842D01*
X24544346Y-115573212D01*
X24673225Y-115630149D01*
X24735141Y-115652082D01*
X24803175Y-115670344D01*
X24876724Y-115684967D01*
X24955187Y-115695983D01*
X25037963Y-115703422D01*
X25124450Y-115707316D01*
X25214045Y-115707696D01*
X25306148Y-115704593D01*
X25400157Y-115698039D01*
X25495471Y-115688065D01*
X25591486Y-115674701D01*
X25687602Y-115657980D01*
X25783218Y-115637932D01*
X25877731Y-115614590D01*
X25970540Y-115587983D01*
X26061043Y-115558143D01*
X26060982Y-115558174D01*
X26173593Y-115517720D01*
X26274290Y-115479860D01*
X26363448Y-115444255D01*
X26441441Y-115410567D01*
X26508641Y-115378460D01*
X26565424Y-115347594D01*
X26612162Y-115317633D01*
X26649231Y-115288238D01*
X26664256Y-115273648D01*
X26677003Y-115259072D01*
X26687520Y-115244470D01*
X26695853Y-115229798D01*
X26702049Y-115215014D01*
X26706155Y-115200077D01*
X26708217Y-115184943D01*
X26708282Y-115169571D01*
X26706397Y-115153919D01*
X26702609Y-115137943D01*
X26696964Y-115121603D01*
X26689509Y-115104856D01*
X26669356Y-115069971D01*
X26642525Y-115032951D01*
X26545235Y-114909233D01*
X26372078Y-115026756D01*
X26200165Y-115135323D01*
X26032852Y-115225075D01*
X25870437Y-115296557D01*
X25713220Y-115350312D01*
X25561497Y-115386881D01*
X25415569Y-115406810D01*
X25275733Y-115410639D01*
X25142287Y-115398913D01*
X25015531Y-115372175D01*
X24895763Y-115330967D01*
X24783281Y-115275834D01*
X24678384Y-115207317D01*
X24581370Y-115125959D01*
X24492539Y-115032305D01*
X24412187Y-114926897D01*
X24340614Y-114810278D01*
X24278119Y-114682990D01*
X24224999Y-114545578D01*
X24181554Y-114398585D01*
X24148081Y-114242552D01*
X24124880Y-114078024D01*
X24112249Y-113905543D01*
X24110486Y-113725653D01*
X24119889Y-113538896D01*
X24140758Y-113345816D01*
X24173391Y-113146955D01*
X24218086Y-112942857D01*
X24275142Y-112734065D01*
X24344857Y-112521122D01*
X24427529Y-112304570D01*
X24523458Y-112084954D01*
X24632942Y-111862816D01*
X24765116Y-111599105D01*
X24877763Y-111352529D01*
X24970882Y-111123059D01*
X25044469Y-110910671D01*
X25098522Y-110715336D01*
X25133037Y-110537028D01*
X25142968Y-110454251D01*
X25148012Y-110375720D01*
X25148171Y-110301433D01*
X25143444Y-110231386D01*
X25133830Y-110165575D01*
X25119330Y-110103998D01*
X25099942Y-110046651D01*
X25075666Y-109993531D01*
X25046503Y-109944634D01*
X25012451Y-109899957D01*
X24973510Y-109859496D01*
X24929680Y-109823249D01*
X24880961Y-109791211D01*
X24827352Y-109763381D01*
X24768853Y-109739753D01*
X24705463Y-109720326D01*
X24637183Y-109705094D01*
X24564011Y-109694057D01*
X24485948Y-109687209D01*
X24402992Y-109684547D01*
X24357391Y-109685648D01*
X24312944Y-109689417D01*
X24269746Y-109695706D01*
X24227895Y-109704367D01*
X24187487Y-109715252D01*
X24148619Y-109728213D01*
X24111388Y-109743103D01*
X24075889Y-109759773D01*
X24042220Y-109778076D01*
X24010477Y-109797864D01*
X23980757Y-109818989D01*
X23953156Y-109841303D01*
X23927771Y-109864658D01*
X23904699Y-109888907D01*
X23884036Y-109913902D01*
X23865879Y-109939495D01*
X23850324Y-109965537D01*
X23837468Y-109991882D01*
X23827408Y-110018381D01*
X23820240Y-110044886D01*
X23816060Y-110071250D01*
X23814966Y-110097325D01*
X23817054Y-110122963D01*
X23822421Y-110148016D01*
X23831162Y-110172336D01*
X23843376Y-110195775D01*
X23859157Y-110218186D01*
X23878604Y-110239420D01*
X23901812Y-110259331D01*
X23928879Y-110277769D01*
X23959900Y-110294588D01*
X23994972Y-110309639D01*
X24043194Y-110329097D01*
X24088595Y-110349737D01*
X24131177Y-110371575D01*
X24170942Y-110394623D01*
X24207890Y-110418897D01*
X24242025Y-110444410D01*
X24273346Y-110471175D01*
X24301857Y-110499209D01*
X24327559Y-110528523D01*
X24350454Y-110559133D01*
X24370543Y-110591053D01*
X24387827Y-110624297D01*
X24402310Y-110658878D01*
X24413991Y-110694811D01*
X24422874Y-110732110D01*
X24428959Y-110770790D01*
X24432248Y-110810863D01*
X24432744Y-110852345D01*
X24430447Y-110895249D01*
X24425360Y-110939590D01*
X24417483Y-110985382D01*
X24406820Y-111032638D01*
X24393371Y-111081373D01*
X24377138Y-111131601D01*
X24358122Y-111183335D01*
X24336327Y-111236591D01*
X24311752Y-111291382D01*
X24284400Y-111347723D01*
X24254273Y-111405627D01*
X24221372Y-111465108D01*
X24185699Y-111526181D01*
X24147255Y-111588859D01*
X23955107Y-111918918D01*
X23793913Y-112245952D01*
X23663469Y-112568397D01*
X23563572Y-112884685D01*
X23494017Y-113193253D01*
X23470555Y-113344152D01*
X23454601Y-113492534D01*
X23446132Y-113638203D01*
X23445120Y-113780963D01*
X23287670Y-113780963D01*
X23289419Y-113637454D01*
X23306361Y-113443562D01*
X23338032Y-113242548D01*
X23384498Y-113034060D01*
X23445826Y-112817748D01*
X23522084Y-112593260D01*
X23613337Y-112360247D01*
X23719653Y-112118356D01*
X23841099Y-111867238D01*
X23977741Y-111606541D01*
X24129646Y-111335914D01*
X24173460Y-111255589D01*
X24210685Y-111177619D01*
X24241346Y-111102269D01*
X24265467Y-111029809D01*
X24283071Y-110960503D01*
X24294183Y-110894620D01*
X24298826Y-110832426D01*
X24298729Y-110802796D01*
X24297024Y-110774189D01*
X24293713Y-110746637D01*
X24288800Y-110720174D01*
X24282288Y-110694834D01*
X24274179Y-110670650D01*
X24264478Y-110647655D01*
X24253185Y-110625883D01*
X24240305Y-110605367D01*
X24225841Y-110586140D01*
X24209795Y-110568236D01*
X24192171Y-110551689D01*
X24172971Y-110536530D01*
X24152199Y-110522795D01*
X24129857Y-110510516D01*
X24105949Y-110499726D01*
X24080477Y-110490460D01*
X24053444Y-110482750D01*
X23994750Y-110465744D01*
X23941579Y-110445497D01*
X23893832Y-110422257D01*
X23851409Y-110396275D01*
X23814210Y-110367799D01*
X23782136Y-110337078D01*
X23755086Y-110304361D01*
X23732962Y-110269898D01*
X23715663Y-110233937D01*
X23703090Y-110196728D01*
X23695142Y-110158519D01*
X23691721Y-110119561D01*
X23692726Y-110080101D01*
X23698057Y-110040389D01*
X23707616Y-110000674D01*
X23721302Y-109961206D01*
X23739015Y-109922233D01*
X23760657Y-109884005D01*
X23786126Y-109846770D01*
X23815324Y-109810777D01*
X23848150Y-109776277D01*
X23884505Y-109743517D01*
X23924289Y-109712748D01*
X23967403Y-109684217D01*
X24013746Y-109658175D01*
X24063220Y-109634870D01*
X24115723Y-109614552D01*
X24171157Y-109597469D01*
X24229422Y-109583870D01*
X24290418Y-109574006D01*
X24354045Y-109568124D01*
X24420204Y-109566475D01*
X24515349Y-109569826D01*
X24604949Y-109578177D01*
X24689002Y-109591500D01*
X24767505Y-109609771D01*
X24840456Y-109632965D01*
X24907850Y-109661055D01*
X24969686Y-109694017D01*
X25025960Y-109731824D01*
X25076669Y-109774452D01*
X25121811Y-109821875D01*
X25161383Y-109874068D01*
X25195381Y-109931004D01*
X25223803Y-109992659D01*
X25246645Y-110059008D01*
X25263906Y-110130024D01*
X25275581Y-110205682D01*
X25281669Y-110285958D01*
X25282166Y-110370824D01*
X25277069Y-110460257D01*
X25266375Y-110554230D01*
X25250082Y-110652718D01*
X25228186Y-110755696D01*
X25200684Y-110863138D01*
X25167575Y-110975018D01*
X25128854Y-111091312D01*
X25084519Y-111211994D01*
X25034567Y-111337038D01*
X24978994Y-111466419D01*
X24917799Y-111600111D01*
X24850978Y-111738089D01*
X24778529Y-111880328D01*
X24700447Y-112026802D01*
X24600145Y-112223187D01*
X24513052Y-112418815D01*
X24438821Y-112613073D01*
X24377104Y-112805346D01*
X24327557Y-112995023D01*
X24289830Y-113181488D01*
X24263578Y-113364129D01*
X24248453Y-113542333D01*
X24244109Y-113715486D01*
X24250198Y-113882974D01*
X24266374Y-114044185D01*
X24292290Y-114198504D01*
X24327599Y-114345319D01*
X24371953Y-114484016D01*
X24425006Y-114613981D01*
X24486412Y-114734602D01*
X24555823Y-114845264D01*
X24632892Y-114945355D01*
X24717272Y-115034261D01*
X24808616Y-115111368D01*
X24906578Y-115176064D01*
X25010811Y-115227734D01*
X25120967Y-115265766D01*
X25236700Y-115289546D01*
X25357663Y-115298460D01*
X25483508Y-115291896D01*
X25613890Y-115269239D01*
X25748460Y-115229877D01*
X25886873Y-115173196D01*
X26028780Y-115098582D01*
X26173836Y-115005423D01*
X26321693Y-114893104D01*
X26454323Y-114784523D01*
X26259041Y-114413490D01*
X26149018Y-114191677D01*
X26052537Y-113970347D01*
X25969485Y-113749746D01*
X25899746Y-113530119D01*
X25843207Y-113311712D01*
X25799751Y-113094771D01*
X25769266Y-112879543D01*
X25751636Y-112666271D01*
X25746830Y-112458761D01*
G37*
X25746830Y-112458761D02*
X25874430Y-112458761D01*
X25882685Y-112687318D01*
X25906099Y-112918494D01*
X25944790Y-113151949D01*
X25998879Y-113387341D01*
X26068483Y-113624331D01*
X26153724Y-113862577D01*
X26254719Y-114101741D01*
X26371589Y-114341480D01*
X26504454Y-114581456D01*
X26653431Y-114821327D01*
X26818642Y-115060753D01*
X26879812Y-115146059D01*
X26936881Y-115227452D01*
X26988598Y-115303021D01*
X27033714Y-115370857D01*
X27070980Y-115429048D01*
X27099145Y-115475684D01*
X27116960Y-115508854D01*
X27121596Y-115519793D01*
X27123177Y-115526649D01*
X27123892Y-115540117D01*
X27126121Y-115553003D01*
X27129989Y-115565330D01*
X27135619Y-115577123D01*
X27139134Y-115582825D01*
X27143136Y-115588402D01*
X27152664Y-115599192D01*
X27164329Y-115609515D01*
X27178254Y-115619395D01*
X27194563Y-115628854D01*
X27213382Y-115637914D01*
X27234834Y-115646600D01*
X27259044Y-115654934D01*
X27286136Y-115662938D01*
X27316236Y-115670637D01*
X27349466Y-115678052D01*
X27385952Y-115685207D01*
X27425818Y-115692125D01*
X27469189Y-115698828D01*
X27516188Y-115705339D01*
X27566941Y-115711682D01*
X27621571Y-115717880D01*
X27680203Y-115723954D01*
X27809972Y-115735827D01*
X27957243Y-115747484D01*
X28123010Y-115759109D01*
X28308269Y-115770886D01*
X28514015Y-115782997D01*
X29465601Y-115836000D01*
X29755419Y-115848978D01*
X29949249Y-115852785D01*
X30068089Y-115847306D01*
X30105950Y-115841048D01*
X30132936Y-115832425D01*
X30151674Y-115821422D01*
X30164787Y-115808026D01*
X30184639Y-115773994D01*
X30184517Y-115773826D01*
X30193051Y-115756248D01*
X30199705Y-115738922D01*
X30204489Y-115721853D01*
X30207408Y-115705046D01*
X30208470Y-115688506D01*
X30207683Y-115672238D01*
X30205053Y-115656246D01*
X30200589Y-115640536D01*
X30194298Y-115625112D01*
X30186186Y-115609979D01*
X30176262Y-115595143D01*
X30164532Y-115580607D01*
X30151005Y-115566378D01*
X30135687Y-115552459D01*
X30118586Y-115538856D01*
X30099709Y-115525573D01*
X30079063Y-115512616D01*
X30056656Y-115499989D01*
X30032496Y-115487698D01*
X30006589Y-115475746D01*
X29978944Y-115464140D01*
X29949566Y-115452883D01*
X29918464Y-115441981D01*
X29885646Y-115431439D01*
X29851118Y-115421261D01*
X29814887Y-115411453D01*
X29776962Y-115402019D01*
X29737350Y-115392964D01*
X29696057Y-115384293D01*
X29653091Y-115376011D01*
X29562172Y-115360634D01*
X29510360Y-115351918D01*
X29464020Y-115342511D01*
X29422992Y-115332208D01*
X29387119Y-115320806D01*
X29371066Y-115314628D01*
X29356242Y-115308100D01*
X29342628Y-115301194D01*
X29330204Y-115293887D01*
X29318950Y-115286151D01*
X29308847Y-115277963D01*
X29299874Y-115269295D01*
X29292011Y-115260124D01*
X29285240Y-115250423D01*
X29279540Y-115240166D01*
X29274891Y-115229330D01*
X29271275Y-115217887D01*
X29268670Y-115205812D01*
X29267057Y-115193081D01*
X29267008Y-115192054D01*
X29383186Y-115192054D01*
X29510414Y-115219947D01*
X29563606Y-115232064D01*
X29614346Y-115244369D01*
X29656897Y-115255438D01*
X29673310Y-115260064D01*
X29685524Y-115263847D01*
X29705545Y-115269963D01*
X29725266Y-115274842D01*
X29744739Y-115278474D01*
X29764013Y-115280851D01*
X29783139Y-115281963D01*
X29802168Y-115281802D01*
X29821149Y-115280358D01*
X29840134Y-115277622D01*
X29859172Y-115273585D01*
X29878314Y-115268239D01*
X29897611Y-115261574D01*
X29917112Y-115253582D01*
X29936869Y-115244252D01*
X29956932Y-115233577D01*
X29977351Y-115221547D01*
X29998177Y-115208152D01*
X29998146Y-115208168D01*
X30056780Y-115168044D01*
X30128929Y-115117389D01*
X30141422Y-115108456D01*
X30411287Y-115108456D01*
X30411329Y-115110937D01*
X30411572Y-115113368D01*
X30412018Y-115115751D01*
X30412666Y-115118086D01*
X30413520Y-115120373D01*
X30414580Y-115122614D01*
X30415847Y-115124810D01*
X30417324Y-115126959D01*
X30420910Y-115131126D01*
X30425350Y-115135120D01*
X30430654Y-115138946D01*
X30436834Y-115142610D01*
X30443901Y-115146116D01*
X30451867Y-115149470D01*
X30460742Y-115152677D01*
X30470538Y-115155743D01*
X30481266Y-115158673D01*
X30492937Y-115161471D01*
X30505564Y-115164144D01*
X30519156Y-115166697D01*
X30533725Y-115169134D01*
X30549282Y-115171461D01*
X30565840Y-115173683D01*
X30583408Y-115175806D01*
X30601998Y-115177834D01*
X30642290Y-115181630D01*
X30686806Y-115185112D01*
X30702312Y-115186111D01*
X30715763Y-115186782D01*
X30727165Y-115187007D01*
X30736524Y-115186669D01*
X30740439Y-115186252D01*
X30743846Y-115185649D01*
X30746746Y-115184847D01*
X30749139Y-115183831D01*
X30751025Y-115182585D01*
X30752407Y-115181095D01*
X30753284Y-115179347D01*
X30753658Y-115177326D01*
X30753529Y-115175016D01*
X30752898Y-115172404D01*
X30751766Y-115169475D01*
X30750134Y-115166213D01*
X30748002Y-115162605D01*
X30745372Y-115158635D01*
X30738617Y-115149552D01*
X30729878Y-115138846D01*
X30719159Y-115126400D01*
X30691811Y-115095817D01*
X30691353Y-115095802D01*
X30672432Y-115075840D01*
X30653999Y-115058324D01*
X30644957Y-115050482D01*
X30636026Y-115043250D01*
X30627202Y-115036628D01*
X30618483Y-115030616D01*
X30609863Y-115025213D01*
X30601341Y-115020418D01*
X30592911Y-115016232D01*
X30584571Y-115012654D01*
X30576317Y-115009684D01*
X30568144Y-115007321D01*
X30560051Y-115005565D01*
X30552032Y-115004415D01*
X30544085Y-115003872D01*
X30536206Y-115003934D01*
X30528390Y-115004602D01*
X30520636Y-115005874D01*
X30512938Y-115007751D01*
X30505293Y-115010233D01*
X30497698Y-115013318D01*
X30490149Y-115017007D01*
X30482642Y-115021299D01*
X30475174Y-115026194D01*
X30467741Y-115031691D01*
X30460340Y-115037790D01*
X30452966Y-115044491D01*
X30445617Y-115051793D01*
X30438288Y-115059696D01*
X30430977Y-115068199D01*
X30425919Y-115074616D01*
X30421591Y-115080803D01*
X30418003Y-115086764D01*
X30415168Y-115092504D01*
X30413096Y-115098030D01*
X30411799Y-115103345D01*
X30411287Y-115108456D01*
X30141422Y-115108456D01*
X30205427Y-115062689D01*
X30277107Y-115010429D01*
X30437630Y-114891929D01*
X30032387Y-114478981D01*
X29949486Y-114393757D01*
X29869244Y-114309865D01*
X29793627Y-114229455D01*
X29724598Y-114154676D01*
X29664122Y-114087678D01*
X29614164Y-114030612D01*
X29576687Y-113985626D01*
X29553658Y-113954872D01*
X29541601Y-113937007D01*
X29536125Y-113929264D01*
X29531007Y-113922370D01*
X29526240Y-113916366D01*
X29521817Y-113911294D01*
X29517732Y-113907195D01*
X29513976Y-113904111D01*
X29510543Y-113902082D01*
X29508946Y-113901477D01*
X29507426Y-113901151D01*
X29505984Y-113901110D01*
X29504618Y-113901359D01*
X29503327Y-113901903D01*
X29502111Y-113902748D01*
X29500968Y-113903897D01*
X29499898Y-113905358D01*
X29497973Y-113909231D01*
X29496329Y-113914410D01*
X29494957Y-113920934D01*
X29493851Y-113928847D01*
X29493005Y-113938188D01*
X29492410Y-113949000D01*
X29492060Y-113961325D01*
X29491948Y-113975203D01*
X29492066Y-113990676D01*
X29492967Y-114026573D01*
X29494704Y-114069347D01*
X29497222Y-114119332D01*
X29500463Y-114176857D01*
X29504372Y-114242256D01*
X29509048Y-114341946D01*
X29510686Y-114436321D01*
X29509271Y-114525837D01*
X29504787Y-114610946D01*
X29497221Y-114692105D01*
X29486557Y-114769767D01*
X29472782Y-114844387D01*
X29455879Y-114916420D01*
X29383186Y-115192054D01*
X29267008Y-115192054D01*
X29266417Y-115179667D01*
X29266730Y-115165545D01*
X29267975Y-115150689D01*
X29270134Y-115135075D01*
X29273186Y-115118676D01*
X29277112Y-115101467D01*
X29287505Y-115064519D01*
X29301155Y-115024025D01*
X29335638Y-114913268D01*
X29361658Y-114797084D01*
X29379354Y-114676204D01*
X29388866Y-114551356D01*
X29390334Y-114423271D01*
X29383899Y-114292678D01*
X29369698Y-114160307D01*
X29347874Y-114026888D01*
X29318564Y-113893149D01*
X29281910Y-113759822D01*
X29238050Y-113627635D01*
X29187125Y-113497318D01*
X29129274Y-113369601D01*
X29064637Y-113245213D01*
X28993354Y-113124885D01*
X28915565Y-113009346D01*
X28865641Y-112938321D01*
X28822317Y-112873815D01*
X28786309Y-112817112D01*
X28758331Y-112769500D01*
X28747578Y-112749505D01*
X28739100Y-112732265D01*
X28732988Y-112717941D01*
X28729330Y-112706694D01*
X28728217Y-112698684D01*
X28728642Y-112695943D01*
X28729737Y-112694072D01*
X28731512Y-112693090D01*
X28733980Y-112693019D01*
X28741035Y-112695686D01*
X28761403Y-112707635D01*
X28782716Y-112722006D01*
X28804937Y-112738759D01*
X28828033Y-112757858D01*
X28851969Y-112779263D01*
X28876710Y-112802936D01*
X28902221Y-112828840D01*
X28928467Y-112856935D01*
X28955413Y-112887185D01*
X28983024Y-112919550D01*
X29011266Y-112953992D01*
X29040104Y-112990474D01*
X29069502Y-113028956D01*
X29099426Y-113069402D01*
X29129842Y-113111772D01*
X29160713Y-113156028D01*
X29186427Y-113192560D01*
X29208929Y-113222862D01*
X29218855Y-113235553D01*
X29227833Y-113246539D01*
X29235816Y-113255771D01*
X29242756Y-113263200D01*
X29248603Y-113268777D01*
X29253311Y-113272452D01*
X29255222Y-113273561D01*
X29256831Y-113274177D01*
X29258130Y-113274292D01*
X29259114Y-113273902D01*
X29259777Y-113272999D01*
X29260113Y-113271578D01*
X29260115Y-113269633D01*
X29259779Y-113267156D01*
X29258064Y-113260588D01*
X29254921Y-113251823D01*
X29251007Y-113239098D01*
X29247042Y-113220874D01*
X29243054Y-113197498D01*
X29239070Y-113169312D01*
X29231224Y-113099890D01*
X29223721Y-113015361D01*
X29216780Y-112918481D01*
X29210619Y-112812001D01*
X29205458Y-112698676D01*
X29201515Y-112581260D01*
X29198677Y-112453627D01*
X29197646Y-112345229D01*
X29198386Y-112256558D01*
X29200863Y-112188102D01*
X29205040Y-112140352D01*
X29207756Y-112124394D01*
X29210884Y-112113796D01*
X29214419Y-112108620D01*
X29216338Y-112108083D01*
X29218357Y-112108925D01*
X29222694Y-112114774D01*
X29227425Y-112126228D01*
X29231688Y-112139467D01*
X29235879Y-112154364D01*
X29239974Y-112170753D01*
X29243949Y-112188472D01*
X29251447Y-112227245D01*
X29258182Y-112269376D01*
X29263967Y-112313558D01*
X29268610Y-112358484D01*
X29271925Y-112402845D01*
X29273720Y-112445335D01*
X29278773Y-112549761D01*
X29288874Y-112654805D01*
X29303920Y-112760327D01*
X29323810Y-112866188D01*
X29377709Y-113078362D01*
X29449752Y-113290207D01*
X29539119Y-113500601D01*
X29644992Y-113708423D01*
X29766551Y-113912551D01*
X29902977Y-114111864D01*
X30053450Y-114305240D01*
X30217152Y-114491559D01*
X30393263Y-114669698D01*
X30580964Y-114838537D01*
X30779436Y-114996954D01*
X30987859Y-115143828D01*
X31205414Y-115278037D01*
X31431282Y-115398460D01*
X31481449Y-115421850D01*
X31530657Y-115442229D01*
X31578782Y-115459678D01*
X31625703Y-115474279D01*
X31671295Y-115486112D01*
X31715437Y-115495259D01*
X31758005Y-115501800D01*
X31798877Y-115505816D01*
X31837929Y-115507389D01*
X31875039Y-115506600D01*
X31910084Y-115503529D01*
X31942941Y-115498259D01*
X31973488Y-115490869D01*
X32001600Y-115481441D01*
X32027157Y-115470055D01*
X32050034Y-115456794D01*
X32070108Y-115441738D01*
X32087258Y-115424968D01*
X32101360Y-115406566D01*
X32112291Y-115386611D01*
X32119928Y-115365186D01*
X32124149Y-115342371D01*
X32124831Y-115318248D01*
X32121850Y-115292897D01*
X32115084Y-115266399D01*
X32104411Y-115238837D01*
X32089706Y-115210290D01*
X32070849Y-115180839D01*
X32047714Y-115150566D01*
X32020180Y-115119553D01*
X31988125Y-115087879D01*
X31951424Y-115055626D01*
X31811667Y-114935147D01*
X31682692Y-114815138D01*
X31564106Y-114694821D01*
X31455517Y-114573418D01*
X31421190Y-114530670D01*
X31581138Y-114530670D01*
X31581171Y-114532460D01*
X31581921Y-114536473D01*
X31583570Y-114541052D01*
X31586105Y-114546183D01*
X31589511Y-114551852D01*
X31593776Y-114558045D01*
X31598886Y-114564749D01*
X31604827Y-114571949D01*
X31611585Y-114579632D01*
X31619147Y-114587784D01*
X31627499Y-114596391D01*
X31646519Y-114614916D01*
X31668535Y-114635096D01*
X31693440Y-114656820D01*
X31721123Y-114679977D01*
X31751476Y-114704458D01*
X31784389Y-114730152D01*
X31819753Y-114756948D01*
X31857460Y-114784736D01*
X31899555Y-114814095D01*
X31938514Y-114838822D01*
X31974063Y-114858998D01*
X32005931Y-114874699D01*
X32033847Y-114886007D01*
X32046238Y-114890037D01*
X32057538Y-114892997D01*
X32067715Y-114894899D01*
X32076733Y-114895751D01*
X32084559Y-114895563D01*
X32091160Y-114894346D01*
X32096500Y-114892108D01*
X32100546Y-114888861D01*
X32103265Y-114884613D01*
X32104621Y-114879374D01*
X32104582Y-114873155D01*
X32103112Y-114865965D01*
X32100179Y-114857814D01*
X32095747Y-114848712D01*
X32089784Y-114838669D01*
X32082255Y-114827694D01*
X32073127Y-114815798D01*
X32062364Y-114802990D01*
X32035802Y-114774677D01*
X32002296Y-114742836D01*
X32002327Y-114742851D01*
X31981890Y-114725315D01*
X31958671Y-114707109D01*
X31933125Y-114688480D01*
X31905706Y-114669678D01*
X31876871Y-114650951D01*
X31847074Y-114632547D01*
X31816770Y-114614717D01*
X31786415Y-114597707D01*
X31756463Y-114581768D01*
X31727370Y-114567147D01*
X31699590Y-114554093D01*
X31673578Y-114542855D01*
X31649791Y-114533681D01*
X31628682Y-114526821D01*
X31610707Y-114522522D01*
X31596321Y-114521034D01*
X31591389Y-114521363D01*
X31587438Y-114522340D01*
X31585826Y-114523068D01*
X31584454Y-114523953D01*
X31583321Y-114524992D01*
X31582424Y-114526186D01*
X31581763Y-114527531D01*
X31581334Y-114529026D01*
X31581138Y-114530670D01*
X31421190Y-114530670D01*
X31356534Y-114450152D01*
X31266765Y-114324246D01*
X31185819Y-114194922D01*
X31113304Y-114061403D01*
X31048829Y-113922910D01*
X30992001Y-113778667D01*
X30942430Y-113627896D01*
X30899723Y-113469820D01*
X30863489Y-113303660D01*
X30833337Y-113128640D01*
X30808875Y-112943982D01*
X30789711Y-112748909D01*
X30782743Y-112655639D01*
X30778437Y-112576867D01*
X30776661Y-112512436D01*
X30777283Y-112462188D01*
X30780171Y-112425966D01*
X30782424Y-112413067D01*
X30785194Y-112403615D01*
X30788464Y-112397591D01*
X30792218Y-112394976D01*
X30796440Y-112395749D01*
X30801113Y-112399892D01*
X30806221Y-112407385D01*
X30811746Y-112418208D01*
X30823986Y-112449765D01*
X30837701Y-112494407D01*
X30852758Y-112551977D01*
X30869026Y-112622317D01*
X30886372Y-112705271D01*
X30904666Y-112800682D01*
X30923775Y-112908394D01*
X30956686Y-113083740D01*
X30995449Y-113262238D01*
X31038061Y-113436910D01*
X31082523Y-113600776D01*
X31126835Y-113746859D01*
X31168997Y-113868178D01*
X31188647Y-113917371D01*
X31207008Y-113957756D01*
X31223832Y-113988461D01*
X31238869Y-114008613D01*
X31244329Y-114011733D01*
X31251418Y-114011574D01*
X31260057Y-114008258D01*
X31270168Y-114001907D01*
X31281672Y-113992641D01*
X31294492Y-113980582D01*
X31323766Y-113948569D01*
X31357366Y-113906841D01*
X31394665Y-113856367D01*
X31435039Y-113798119D01*
X31477863Y-113733066D01*
X31522512Y-113662180D01*
X31568362Y-113586432D01*
X31614786Y-113506792D01*
X31661160Y-113424231D01*
X31706859Y-113339719D01*
X31751258Y-113254228D01*
X31793732Y-113168728D01*
X31812737Y-113128486D01*
X31965584Y-113128486D01*
X32334328Y-113468650D01*
X32504059Y-113618633D01*
X32685967Y-113767448D01*
X32876895Y-113913388D01*
X33073689Y-114054747D01*
X33273195Y-114189818D01*
X33472257Y-114316894D01*
X33667720Y-114434268D01*
X33856430Y-114540233D01*
X34035231Y-114633084D01*
X34200969Y-114711112D01*
X34350489Y-114772611D01*
X34480636Y-114815875D01*
X34588254Y-114839196D01*
X34632629Y-114842845D01*
X34670190Y-114840868D01*
X34700540Y-114833052D01*
X34723287Y-114819184D01*
X34738036Y-114799051D01*
X34744392Y-114772438D01*
X34744362Y-114772453D01*
X34745792Y-114739177D01*
X34745661Y-114723190D01*
X34744824Y-114707453D01*
X34743175Y-114691825D01*
X34740606Y-114676168D01*
X34737012Y-114660342D01*
X34732286Y-114644208D01*
X34726322Y-114627627D01*
X34719013Y-114610460D01*
X34710253Y-114592567D01*
X34699936Y-114573810D01*
X34687954Y-114554049D01*
X34674202Y-114533145D01*
X34658573Y-114510958D01*
X34640961Y-114487350D01*
X34621258Y-114462181D01*
X34599360Y-114435313D01*
X34575159Y-114406605D01*
X34548549Y-114375919D01*
X34487675Y-114308055D01*
X34415888Y-114230608D01*
X34332335Y-114142464D01*
X34236166Y-114042508D01*
X34002571Y-113802711D01*
X33745303Y-113535934D01*
X33512557Y-113286389D01*
X33302545Y-113051920D01*
X33113476Y-112830372D01*
X32943560Y-112619588D01*
X32791007Y-112417412D01*
X32654027Y-112221690D01*
X32530830Y-112030265D01*
X32487918Y-111961906D01*
X32469209Y-111933303D01*
X32452224Y-111908318D01*
X32436883Y-111886873D01*
X32423105Y-111868893D01*
X32410809Y-111854301D01*
X32399914Y-111843021D01*
X32390340Y-111834978D01*
X32386023Y-111832146D01*
X32382006Y-111830094D01*
X32378278Y-111828814D01*
X32374831Y-111828295D01*
X32371653Y-111828528D01*
X32368735Y-111829503D01*
X32366066Y-111831211D01*
X32363637Y-111833643D01*
X32361437Y-111836789D01*
X32359456Y-111840639D01*
X32356112Y-111850414D01*
X32353523Y-111862892D01*
X32332867Y-111971002D01*
X32302762Y-112102928D01*
X32265655Y-112249954D01*
X32223991Y-112403366D01*
X32180216Y-112554449D01*
X32136775Y-112694488D01*
X32096113Y-112814769D01*
X32060677Y-112906578D01*
X31965584Y-113128486D01*
X31812737Y-113128486D01*
X31833656Y-113084190D01*
X31891665Y-112951059D01*
X31946499Y-112811681D01*
X31997968Y-112667058D01*
X32045882Y-112518190D01*
X32090051Y-112366080D01*
X32130284Y-112211730D01*
X32166391Y-112056140D01*
X32198181Y-111900314D01*
X32225465Y-111745252D01*
X32248051Y-111591957D01*
X32265750Y-111441429D01*
X32278371Y-111294672D01*
X32285724Y-111152685D01*
X32287618Y-111016472D01*
X32283863Y-110887034D01*
X32274269Y-110765373D01*
X32241676Y-110460579D01*
X31945564Y-110440376D01*
X31892728Y-110435130D01*
X31834911Y-110426500D01*
X31773362Y-110414909D01*
X31709328Y-110400782D01*
X31644056Y-110384542D01*
X31578795Y-110366612D01*
X31453293Y-110327377D01*
X31395548Y-110306919D01*
X31342803Y-110286465D01*
X31296306Y-110266440D01*
X31257305Y-110247265D01*
X31227047Y-110229366D01*
X31206781Y-110213165D01*
X31200784Y-110205834D01*
X31197752Y-110199086D01*
X31197842Y-110192975D01*
X31201210Y-110187553D01*
X31202624Y-110186536D01*
X31204622Y-110185713D01*
X31207189Y-110185083D01*
X31210309Y-110184641D01*
X31218139Y-110184310D01*
X31227983Y-110184695D01*
X31239710Y-110185772D01*
X31253190Y-110187515D01*
X31268292Y-110189899D01*
X31284885Y-110192899D01*
X31302841Y-110196490D01*
X31322027Y-110200646D01*
X31342314Y-110205342D01*
X31363572Y-110210554D01*
X31385669Y-110216255D01*
X31408476Y-110222421D01*
X31431862Y-110229026D01*
X31455696Y-110236045D01*
X31554800Y-110262129D01*
X31657309Y-110282093D01*
X31762102Y-110296115D01*
X31868061Y-110304374D01*
X31974065Y-110307047D01*
X32078995Y-110304313D01*
X32181731Y-110296350D01*
X32281155Y-110283334D01*
X32376145Y-110265446D01*
X32465583Y-110242861D01*
X32548349Y-110215759D01*
X32623324Y-110184317D01*
X32689387Y-110148714D01*
X32745420Y-110109127D01*
X32769325Y-110087896D01*
X32790302Y-110065735D01*
X32808212Y-110042667D01*
X32822914Y-110018715D01*
X32828726Y-110008263D01*
X32834654Y-109998388D01*
X32840656Y-109989127D01*
X32846691Y-109980519D01*
X32852715Y-109972604D01*
X32858687Y-109965419D01*
X32864564Y-109959004D01*
X32870304Y-109953397D01*
X32875865Y-109948638D01*
X32881205Y-109944766D01*
X32886281Y-109941818D01*
X32888707Y-109940703D01*
X32891051Y-109939834D01*
X32893308Y-109939216D01*
X32895473Y-109938853D01*
X32897540Y-109938750D01*
X32899504Y-109938913D01*
X32901360Y-109939346D01*
X32903103Y-109940054D01*
X32904727Y-109941042D01*
X32906227Y-109942314D01*
X32910907Y-109946327D01*
X32915907Y-109949372D01*
X32921197Y-109951485D01*
X32926747Y-109952699D01*
X32932525Y-109953051D01*
X32938501Y-109952574D01*
X32944643Y-109951305D01*
X32950922Y-109949278D01*
X32957306Y-109946529D01*
X32963764Y-109943092D01*
X32970267Y-109939002D01*
X32976782Y-109934295D01*
X32983280Y-109929005D01*
X32989728Y-109923168D01*
X32996098Y-109916819D01*
X33002357Y-109909992D01*
X33008476Y-109902723D01*
X33014423Y-109895046D01*
X33020167Y-109886998D01*
X33025678Y-109878612D01*
X33030925Y-109869924D01*
X33035878Y-109860969D01*
X33040505Y-109851782D01*
X33044775Y-109842398D01*
X33048658Y-109832852D01*
X33052124Y-109823180D01*
X33055140Y-109813415D01*
X33057677Y-109803594D01*
X33059704Y-109793751D01*
X33061190Y-109783921D01*
X33062104Y-109774140D01*
X33062416Y-109764442D01*
X33062958Y-109753807D01*
X33064548Y-109742336D01*
X33067132Y-109730139D01*
X33070656Y-109717324D01*
X33075068Y-109703997D01*
X33080313Y-109690266D01*
X33086339Y-109676241D01*
X33093090Y-109662027D01*
X33100514Y-109647734D01*
X33108557Y-109633468D01*
X33117166Y-109619338D01*
X33126287Y-109605451D01*
X33135866Y-109591916D01*
X33145850Y-109578840D01*
X33156184Y-109566331D01*
X33166817Y-109554496D01*
X33187216Y-109529482D01*
X33205863Y-109499898D01*
X33222774Y-109465977D01*
X33237966Y-109427951D01*
X33251456Y-109386053D01*
X33263259Y-109340515D01*
X33281871Y-109239447D01*
X33293935Y-109126608D01*
X33299580Y-109003856D01*
X33298939Y-108873049D01*
X33292141Y-108736047D01*
X33279318Y-108594709D01*
X33260602Y-108450893D01*
X33236123Y-108306459D01*
X33206011Y-108163265D01*
X33196928Y-108127532D01*
X33359271Y-108127532D01*
X33359312Y-108139085D01*
X33362266Y-108163485D01*
X33368806Y-108189809D01*
X33378639Y-108218300D01*
X33382146Y-108226021D01*
X33386342Y-108232706D01*
X33391218Y-108238362D01*
X33396762Y-108242994D01*
X33402964Y-108246609D01*
X33409813Y-108249212D01*
X33417300Y-108250809D01*
X33425413Y-108251408D01*
X33434142Y-108251013D01*
X33443476Y-108249631D01*
X33453405Y-108247267D01*
X33463919Y-108243929D01*
X33475007Y-108239622D01*
X33486658Y-108234352D01*
X33498862Y-108228125D01*
X33511608Y-108220947D01*
X33524886Y-108212824D01*
X33538686Y-108203763D01*
X33552996Y-108193770D01*
X33567807Y-108182850D01*
X33583108Y-108171010D01*
X33598888Y-108158255D01*
X33615137Y-108144592D01*
X33631844Y-108130027D01*
X33666591Y-108098215D01*
X33703045Y-108062867D01*
X33741123Y-108024031D01*
X33780739Y-107981758D01*
X33780739Y-107981804D01*
X33900490Y-107851417D01*
X33780739Y-107887016D01*
X33710373Y-107908399D01*
X33647409Y-107928563D01*
X33591551Y-107947750D01*
X33542507Y-107966202D01*
X33499983Y-107984161D01*
X33463687Y-108001868D01*
X33433323Y-108019565D01*
X33408600Y-108037494D01*
X33398261Y-108046622D01*
X33389223Y-108055898D01*
X33381448Y-108065352D01*
X33374899Y-108075016D01*
X33369540Y-108084920D01*
X33365335Y-108095093D01*
X33362246Y-108105566D01*
X33360237Y-108116368D01*
X33359271Y-108127532D01*
X33196928Y-108127532D01*
X33170399Y-108023170D01*
X33129417Y-107888032D01*
X33083196Y-107759712D01*
X33031868Y-107640068D01*
X32965134Y-107511142D01*
X32891292Y-107392793D01*
X32865406Y-107358092D01*
X33077020Y-107358092D01*
X33077262Y-107361232D01*
X33078630Y-107369339D01*
X33081132Y-107379761D01*
X33084718Y-107392353D01*
X33089336Y-107406969D01*
X33094936Y-107423463D01*
X33101467Y-107441690D01*
X33117119Y-107482761D01*
X33135884Y-107529016D01*
X33157356Y-107579292D01*
X33181129Y-107632423D01*
X33301369Y-107895057D01*
X33658668Y-107795356D01*
X33760375Y-107766300D01*
X33839745Y-107741731D01*
X33871632Y-107730802D01*
X33898630Y-107720601D01*
X33920969Y-107710998D01*
X33938881Y-107701862D01*
X33952597Y-107693062D01*
X33962349Y-107684466D01*
X33965811Y-107680204D01*
X33968369Y-107675944D01*
X33970051Y-107671670D01*
X33970886Y-107667366D01*
X33970904Y-107663014D01*
X33970134Y-107658599D01*
X33966342Y-107649513D01*
X33959744Y-107639977D01*
X33950592Y-107629885D01*
X33930574Y-107615744D01*
X33896029Y-107598020D01*
X33849089Y-107577392D01*
X33791879Y-107554536D01*
X33655156Y-107504846D01*
X33502865Y-107454357D01*
X33352011Y-107408475D01*
X33219601Y-107372608D01*
X33165626Y-107360120D01*
X33122640Y-107352163D01*
X33092767Y-107349413D01*
X33083412Y-107350202D01*
X33078133Y-107352546D01*
X33077448Y-107353731D01*
X33077079Y-107355586D01*
X33077020Y-107358092D01*
X32865406Y-107358092D01*
X32810823Y-107284924D01*
X32724211Y-107187440D01*
X32631935Y-107100246D01*
X32534479Y-107023247D01*
X32432323Y-106956346D01*
X32325950Y-106899450D01*
X32215840Y-106852463D01*
X32102477Y-106815288D01*
X31986341Y-106787832D01*
X31867915Y-106769999D01*
X31747679Y-106761692D01*
X31626116Y-106762818D01*
X31503708Y-106773281D01*
X31380936Y-106792986D01*
X31258281Y-106821836D01*
X31136226Y-106859737D01*
X31015253Y-106906595D01*
X30895842Y-106962312D01*
X30778476Y-107026794D01*
X30663636Y-107099946D01*
X30551805Y-107181672D01*
X30443463Y-107271878D01*
X30339093Y-107370467D01*
X30239176Y-107477344D01*
X30144195Y-107592415D01*
X30054629Y-107715584D01*
X29970963Y-107846755D01*
X29893676Y-107985833D01*
X29823251Y-108132723D01*
X29760170Y-108287330D01*
X29735357Y-108352679D01*
X29712075Y-108410655D01*
X29689331Y-108462004D01*
X29677852Y-108485427D01*
X29666134Y-108507474D01*
X29654056Y-108528239D01*
X29641491Y-108547814D01*
X29628317Y-108566294D01*
X29614410Y-108583772D01*
X29599644Y-108600340D01*
X29583897Y-108616094D01*
X29567044Y-108631125D01*
X29548962Y-108645528D01*
X29529525Y-108659397D01*
X29508610Y-108672824D01*
X29486094Y-108685903D01*
X29461851Y-108698727D01*
X29435759Y-108711391D01*
X29407692Y-108723987D01*
X29345140Y-108749350D01*
X29273203Y-108775566D01*
X29190888Y-108803380D01*
X29097204Y-108833542D01*
X28991157Y-108866798D01*
X28708671Y-108961733D01*
X28438836Y-109066434D01*
X28181771Y-109180562D01*
X27937596Y-109303777D01*
X27706430Y-109435737D01*
X27488392Y-109576102D01*
X27283602Y-109724533D01*
X27092180Y-109880688D01*
X26914244Y-110044227D01*
X26749914Y-110214810D01*
X26599309Y-110392097D01*
X26462549Y-110575746D01*
X26339754Y-110765418D01*
X26231042Y-110960773D01*
X26136533Y-111161469D01*
X26056347Y-111367166D01*
X25990602Y-111577525D01*
X25939419Y-111792204D01*
X25902916Y-112010863D01*
X25881213Y-112233162D01*
X25874430Y-112458761D01*
X25746830Y-112458761D01*
X25746748Y-112455204D01*
X25754485Y-112246585D01*
X25774734Y-112040661D01*
X25807380Y-111837678D01*
X25852309Y-111637882D01*
X25909406Y-111441518D01*
X25978557Y-111248832D01*
X26059647Y-111060070D01*
X26152561Y-110875477D01*
X26257184Y-110695300D01*
X26373404Y-110519785D01*
X26501104Y-110349176D01*
X26640170Y-110183720D01*
X26790488Y-110023663D01*
X26951943Y-109869250D01*
X27124420Y-109720727D01*
X27307806Y-109578340D01*
X27501985Y-109442335D01*
X27706843Y-109312958D01*
X27922265Y-109190454D01*
X28148137Y-109075069D01*
X28384344Y-108967048D01*
X28630772Y-108866639D01*
X28887306Y-108774086D01*
X29525948Y-108557884D01*
X29657112Y-108219642D01*
X29713255Y-108084139D01*
X29774395Y-107953982D01*
X29840292Y-107829268D01*
X29910705Y-107710091D01*
X29985394Y-107596546D01*
X30064117Y-107488727D01*
X30146636Y-107386729D01*
X30232708Y-107290648D01*
X30322094Y-107200577D01*
X30414552Y-107116611D01*
X30509843Y-107038846D01*
X30607726Y-106967375D01*
X30707959Y-106902294D01*
X30810304Y-106843698D01*
X30914519Y-106791681D01*
X31020363Y-106746338D01*
X31127596Y-106707763D01*
X31235978Y-106676052D01*
X31345267Y-106651298D01*
X31455224Y-106633598D01*
X31565608Y-106623045D01*
X31676178Y-106619735D01*
X31786694Y-106623762D01*
X31896915Y-106635221D01*
X32006601Y-106654206D01*
X32115511Y-106680812D01*
X32223404Y-106715135D01*
X32330040Y-106757269D01*
X32435179Y-106807308D01*
X32538580Y-106865347D01*
X32640002Y-106931481D01*
X32739204Y-107005806D01*
X32762738Y-107023669D01*
X32788644Y-107041484D01*
X32816910Y-107059243D01*
X32847525Y-107076944D01*
X32880478Y-107094582D01*
X32915758Y-107112151D01*
X32953354Y-107129648D01*
X32993256Y-107147068D01*
X33035451Y-107164405D01*
X33079928Y-107181656D01*
X33126678Y-107198816D01*
X33175688Y-107215881D01*
X33226947Y-107232844D01*
X33280445Y-107249703D01*
X33336170Y-107266453D01*
X33394112Y-107283088D01*
X33547823Y-107327495D01*
X33682812Y-107369583D01*
X33799441Y-107410086D01*
X33898071Y-107449741D01*
X33940749Y-107469480D01*
X33979064Y-107489282D01*
X34013060Y-107509239D01*
X34042782Y-107529443D01*
X34068276Y-107549985D01*
X34089586Y-107570959D01*
X34106759Y-107592454D01*
X34119839Y-107614565D01*
X34128871Y-107637381D01*
X34133901Y-107660995D01*
X34134974Y-107685499D01*
X34132135Y-107710985D01*
X34125429Y-107737545D01*
X34114902Y-107765270D01*
X34100598Y-107794252D01*
X34082564Y-107824583D01*
X34060843Y-107856356D01*
X34035482Y-107889661D01*
X33974019Y-107961237D01*
X33898536Y-108040046D01*
X33809395Y-108126823D01*
X33456276Y-108462104D01*
X33435677Y-108965019D01*
X33426781Y-109096257D01*
X33411170Y-109223027D01*
X33389030Y-109345024D01*
X33360545Y-109461941D01*
X33325902Y-109573472D01*
X33285285Y-109679311D01*
X33238881Y-109779153D01*
X33186874Y-109872690D01*
X33129451Y-109959617D01*
X33066797Y-110039628D01*
X32999097Y-110112416D01*
X32926537Y-110177676D01*
X32849303Y-110235101D01*
X32767580Y-110284385D01*
X32681553Y-110325223D01*
X32591408Y-110357307D01*
X32398689Y-110415001D01*
X32403694Y-110995185D01*
X32408699Y-111575370D01*
X32587990Y-111872749D01*
X32663801Y-111994961D01*
X32745319Y-112119612D01*
X32832420Y-112246556D01*
X32924981Y-112375645D01*
X33022878Y-112506734D01*
X33125988Y-112639675D01*
X33234187Y-112774324D01*
X33347351Y-112910532D01*
X33588080Y-113187042D01*
X33847186Y-113468035D01*
X34123680Y-113752338D01*
X34416573Y-114038780D01*
X34510960Y-114130745D01*
X34595916Y-114217326D01*
X34670828Y-114297794D01*
X34735084Y-114371421D01*
X34763026Y-114405442D01*
X34788075Y-114437478D01*
X34810154Y-114467440D01*
X34829186Y-114495236D01*
X34845097Y-114520775D01*
X34857808Y-114543966D01*
X34867245Y-114564717D01*
X34873329Y-114582939D01*
X34879901Y-114608011D01*
X34885977Y-114629416D01*
X34888937Y-114638651D01*
X34891902Y-114646857D01*
X34894915Y-114653999D01*
X34898020Y-114660040D01*
X34901260Y-114664941D01*
X34904677Y-114668667D01*
X34906466Y-114670078D01*
X34908316Y-114671180D01*
X34910232Y-114671971D01*
X34912218Y-114672444D01*
X34914282Y-114672596D01*
X34916428Y-114672421D01*
X34918662Y-114671916D01*
X34920988Y-114671075D01*
X34925942Y-114668368D01*
X34931332Y-114664264D01*
X34937201Y-114658726D01*
X34943594Y-114651716D01*
X34950552Y-114643198D01*
X34958119Y-114633135D01*
X34966339Y-114621489D01*
X34975254Y-114608225D01*
X34995342Y-114576690D01*
X35018728Y-114538236D01*
X35045758Y-114492565D01*
X35112129Y-114378395D01*
X35313698Y-114030220D01*
X35175331Y-113872627D01*
X35138306Y-113827657D01*
X35104371Y-113780693D01*
X35073510Y-113731851D01*
X35045705Y-113681247D01*
X35020941Y-113628995D01*
X34999200Y-113575212D01*
X34980467Y-113520011D01*
X34964724Y-113463509D01*
X34951956Y-113405821D01*
X34942145Y-113347063D01*
X34935276Y-113287348D01*
X34931331Y-113226794D01*
X34930295Y-113165514D01*
X34931071Y-113139604D01*
X35082271Y-113139604D01*
X35086707Y-113228020D01*
X35097554Y-113314044D01*
X35114621Y-113397229D01*
X35137716Y-113477130D01*
X35166649Y-113553301D01*
X35201227Y-113625293D01*
X35241260Y-113692663D01*
X35286557Y-113754962D01*
X35336925Y-113811746D01*
X35392173Y-113862567D01*
X35452111Y-113906979D01*
X35516547Y-113944536D01*
X35585290Y-113974791D01*
X35658148Y-113997299D01*
X35734930Y-114011613D01*
X35815444Y-114017287D01*
X35899500Y-114013874D01*
X35986906Y-114000928D01*
X36077471Y-113978002D01*
X36171003Y-113944651D01*
X36267311Y-113900428D01*
X36267281Y-113900428D01*
X36320203Y-113871243D01*
X36371238Y-113838789D01*
X36420313Y-113803309D01*
X36467357Y-113765048D01*
X36512296Y-113724252D01*
X36555058Y-113681164D01*
X36595570Y-113636029D01*
X36633761Y-113589091D01*
X36669557Y-113540595D01*
X36702886Y-113490787D01*
X36733676Y-113439909D01*
X36761854Y-113388207D01*
X36787347Y-113335925D01*
X36810084Y-113283308D01*
X36829991Y-113230601D01*
X36846996Y-113178047D01*
X36861027Y-113125891D01*
X36872012Y-113074379D01*
X36879877Y-113023754D01*
X36884550Y-112974261D01*
X36885959Y-112926145D01*
X36884032Y-112879649D01*
X36878695Y-112835020D01*
X36869876Y-112792500D01*
X36857504Y-112752335D01*
X36841504Y-112714770D01*
X36821806Y-112680048D01*
X36798336Y-112648415D01*
X36771022Y-112620114D01*
X36739792Y-112595391D01*
X36704572Y-112574490D01*
X36665291Y-112557655D01*
X36609500Y-112537097D01*
X36554933Y-112515577D01*
X36501526Y-112493057D01*
X36449213Y-112469498D01*
X36397929Y-112444860D01*
X36347610Y-112419107D01*
X36298190Y-112392198D01*
X36249603Y-112364095D01*
X36201786Y-112334760D01*
X36154672Y-112304154D01*
X36108197Y-112272237D01*
X36062296Y-112238972D01*
X36016903Y-112204320D01*
X35971954Y-112168241D01*
X35927383Y-112130698D01*
X35883125Y-112091652D01*
X35710365Y-111935783D01*
X35511330Y-112136802D01*
X35432616Y-112222074D01*
X35362418Y-112309862D01*
X35300544Y-112399722D01*
X35246803Y-112491207D01*
X35201004Y-112583870D01*
X35162955Y-112677265D01*
X35132465Y-112770946D01*
X35109343Y-112864467D01*
X35093398Y-112957381D01*
X35084438Y-113049242D01*
X35082271Y-113139604D01*
X34931071Y-113139604D01*
X34932150Y-113103625D01*
X34936880Y-113041242D01*
X34944469Y-112978479D01*
X34954901Y-112915453D01*
X34968158Y-112852278D01*
X34984224Y-112789071D01*
X35003082Y-112725945D01*
X35024717Y-112663017D01*
X35049111Y-112600402D01*
X35076249Y-112538215D01*
X35106113Y-112476571D01*
X35138687Y-112415587D01*
X35173955Y-112355376D01*
X35211899Y-112296054D01*
X35252504Y-112237737D01*
X35295754Y-112180540D01*
X35341630Y-112124579D01*
X35390118Y-112069968D01*
X35441200Y-112016822D01*
X35471638Y-111987614D01*
X35502364Y-111960605D01*
X35533416Y-111935802D01*
X35544116Y-111928108D01*
X35912178Y-111928108D01*
X36008278Y-112026115D01*
X36046012Y-112060647D01*
X36093628Y-112097939D01*
X36149426Y-112137150D01*
X36211708Y-112177442D01*
X36278773Y-112217976D01*
X36348923Y-112257912D01*
X36420457Y-112296412D01*
X36491676Y-112332636D01*
X36560882Y-112365745D01*
X36626373Y-112394900D01*
X36686452Y-112419263D01*
X36739418Y-112437993D01*
X36783572Y-112450252D01*
X36817215Y-112455201D01*
X36829563Y-112454672D01*
X36838647Y-112452000D01*
X36844253Y-112447082D01*
X36846168Y-112439811D01*
X36844821Y-112434268D01*
X36840865Y-112427442D01*
X36834430Y-112419411D01*
X36825649Y-112410257D01*
X36801564Y-112388892D01*
X36769654Y-112363982D01*
X36730962Y-112336162D01*
X36686531Y-112306067D01*
X36637406Y-112274332D01*
X36584629Y-112241592D01*
X36529244Y-112208482D01*
X36472294Y-112175638D01*
X36414823Y-112143694D01*
X36357873Y-112113286D01*
X36302490Y-112085048D01*
X36249715Y-112059615D01*
X36200593Y-112037623D01*
X36156166Y-112019706D01*
X35912178Y-111928108D01*
X35544116Y-111928108D01*
X35564833Y-111913210D01*
X35596653Y-111892834D01*
X35628915Y-111874679D01*
X35661657Y-111858752D01*
X35694918Y-111845057D01*
X35728736Y-111833600D01*
X35763149Y-111824385D01*
X35798196Y-111817420D01*
X35833916Y-111812708D01*
X35870346Y-111810255D01*
X35907526Y-111810067D01*
X35945494Y-111812149D01*
X35984287Y-111816507D01*
X36023946Y-111823145D01*
X36064507Y-111832070D01*
X36106010Y-111843286D01*
X36148493Y-111856799D01*
X36191995Y-111872615D01*
X36236553Y-111890738D01*
X36282207Y-111911174D01*
X36328994Y-111933929D01*
X36376954Y-111959008D01*
X36426125Y-111986416D01*
X36528252Y-112048242D01*
X36635683Y-112119449D01*
X36748726Y-112200081D01*
X36817635Y-112256676D01*
X36877528Y-112317949D01*
X36928647Y-112383455D01*
X36971239Y-112452748D01*
X37005547Y-112525382D01*
X37031816Y-112600911D01*
X37050291Y-112678890D01*
X37061217Y-112758873D01*
X37064837Y-112840415D01*
X37061397Y-112923069D01*
X37051141Y-113006390D01*
X37034314Y-113089933D01*
X37011160Y-113173251D01*
X36981924Y-113255900D01*
X36946851Y-113337432D01*
X36906185Y-113417404D01*
X36860171Y-113495368D01*
X36809053Y-113570880D01*
X36753076Y-113643493D01*
X36692484Y-113712763D01*
X36627523Y-113778242D01*
X36558437Y-113839487D01*
X36485470Y-113896050D01*
X36408866Y-113947486D01*
X36328872Y-113993350D01*
X36245730Y-114033196D01*
X36159687Y-114066578D01*
X36070985Y-114093051D01*
X35979871Y-114112168D01*
X35886588Y-114123485D01*
X35791382Y-114126555D01*
X35694496Y-114120933D01*
X35428230Y-114093330D01*
X35283882Y-114343101D01*
X34908058Y-114989769D01*
X34676582Y-115386650D01*
X34856148Y-115551139D01*
X34885068Y-115578435D01*
X34911006Y-115604564D01*
X34934008Y-115629501D01*
X34954119Y-115653223D01*
X34971385Y-115675705D01*
X34985852Y-115696923D01*
X34997565Y-115716852D01*
X35006572Y-115735468D01*
X35012917Y-115752747D01*
X35016646Y-115768663D01*
X35017805Y-115783194D01*
X35016440Y-115796313D01*
X35012597Y-115807998D01*
X35006321Y-115818223D01*
X34997659Y-115826964D01*
X34986656Y-115834198D01*
X34973358Y-115839898D01*
X34957812Y-115844042D01*
X34940062Y-115846604D01*
X34920154Y-115847560D01*
X34898135Y-115846886D01*
X34874050Y-115844558D01*
X34847946Y-115840551D01*
X34819867Y-115834840D01*
X34789860Y-115827401D01*
X34757971Y-115818211D01*
X34724245Y-115807244D01*
X34688728Y-115794476D01*
X34651467Y-115779882D01*
X34612506Y-115763439D01*
X34571892Y-115745122D01*
X34529671Y-115724907D01*
X34476178Y-115697570D01*
X34425394Y-115669643D01*
X34377362Y-115641267D01*
X34332128Y-115612584D01*
X34289736Y-115583737D01*
X34250231Y-115554867D01*
X34213659Y-115526116D01*
X34180064Y-115497627D01*
X34149490Y-115469542D01*
X34121983Y-115442003D01*
X34097588Y-115415151D01*
X34076349Y-115389129D01*
X34067004Y-115376151D01*
X34232236Y-115376151D01*
X34234352Y-115380928D01*
X34239265Y-115387463D01*
X34246549Y-115395143D01*
X34267619Y-115413580D01*
X34296341Y-115435527D01*
X34331494Y-115460273D01*
X34371858Y-115487105D01*
X34416211Y-115515313D01*
X34512001Y-115573009D01*
X34609095Y-115627668D01*
X34655079Y-115652080D01*
X34697726Y-115673597D01*
X34735815Y-115691510D01*
X34768125Y-115705105D01*
X34793435Y-115713672D01*
X34803083Y-115715848D01*
X34810524Y-115716499D01*
X34812851Y-115716367D01*
X34814902Y-115716041D01*
X34816680Y-115715528D01*
X34817468Y-115715203D01*
X34818188Y-115714832D01*
X34818842Y-115714417D01*
X34819429Y-115713958D01*
X34819950Y-115713456D01*
X34820405Y-115712911D01*
X34820795Y-115712324D01*
X34821120Y-115711696D01*
X34821381Y-115711027D01*
X34821577Y-115710318D01*
X34821778Y-115708782D01*
X34821727Y-115707093D01*
X34821425Y-115705256D01*
X34820877Y-115703276D01*
X34820085Y-115701158D01*
X34819053Y-115698907D01*
X34817782Y-115696527D01*
X34816277Y-115694025D01*
X34814539Y-115691404D01*
X34812572Y-115688670D01*
X34810379Y-115685828D01*
X34807962Y-115682883D01*
X34805325Y-115679840D01*
X34802471Y-115676703D01*
X34799402Y-115673478D01*
X34796122Y-115670170D01*
X34792632Y-115666783D01*
X34788938Y-115663323D01*
X34785040Y-115659795D01*
X34780942Y-115656204D01*
X34776648Y-115652554D01*
X34772159Y-115648850D01*
X34767479Y-115645099D01*
X34762611Y-115641304D01*
X34762611Y-115641273D01*
X34732172Y-115619047D01*
X34696417Y-115595163D01*
X34656412Y-115570149D01*
X34613222Y-115544527D01*
X34521548Y-115493566D01*
X34429920Y-115446481D01*
X34346863Y-115407474D01*
X34311212Y-115392312D01*
X34280899Y-115380745D01*
X34256992Y-115373298D01*
X34240555Y-115370496D01*
X34235470Y-115371001D01*
X34232653Y-115372864D01*
X34232236Y-115376151D01*
X34067004Y-115376151D01*
X34058311Y-115364079D01*
X34043519Y-115340143D01*
X34032018Y-115317462D01*
X34023853Y-115296180D01*
X34019069Y-115276438D01*
X34017709Y-115258379D01*
X34019821Y-115242143D01*
X34025447Y-115227874D01*
X34034633Y-115215713D01*
X34047424Y-115205803D01*
X34063864Y-115198285D01*
X34083999Y-115193301D01*
X34107873Y-115190995D01*
X34135532Y-115191507D01*
X34167019Y-115194979D01*
X34202381Y-115201555D01*
X34241661Y-115211375D01*
X34284904Y-115224582D01*
X34332156Y-115241319D01*
X34383461Y-115261726D01*
X34438706Y-115284376D01*
X34461475Y-115292937D01*
X34481507Y-115299497D01*
X34490613Y-115301990D01*
X34499175Y-115303939D01*
X34507239Y-115305327D01*
X34514852Y-115306142D01*
X34522060Y-115306368D01*
X34528911Y-115305989D01*
X34535450Y-115304992D01*
X34541725Y-115303362D01*
X34547782Y-115301083D01*
X34553668Y-115298141D01*
X34559430Y-115294520D01*
X34565114Y-115290208D01*
X34570767Y-115285187D01*
X34576435Y-115279444D01*
X34582165Y-115272964D01*
X34588004Y-115265732D01*
X34600195Y-115248953D01*
X34613382Y-115228987D01*
X34644234Y-115179023D01*
X34737129Y-115026237D01*
X34486793Y-114975944D01*
X34435046Y-114964974D01*
X34383934Y-114953089D01*
X34334779Y-114940666D01*
X34288902Y-114928085D01*
X34247626Y-114915724D01*
X34212273Y-114903962D01*
X34184163Y-114893178D01*
X34173238Y-114888271D01*
X34164619Y-114883751D01*
X33848566Y-114694670D01*
X33531432Y-114495795D01*
X33222176Y-114293382D01*
X32929756Y-114093687D01*
X32663131Y-113902966D01*
X32431260Y-113727476D01*
X32243101Y-113573473D01*
X32168213Y-113506483D01*
X32107613Y-113447212D01*
X32073667Y-113412273D01*
X32043160Y-113381691D01*
X32015849Y-113355397D01*
X31991491Y-113333324D01*
X31969842Y-113315405D01*
X31959958Y-113307981D01*
X31950661Y-113301571D01*
X31941920Y-113296166D01*
X31933704Y-113291756D01*
X31925983Y-113288334D01*
X31918728Y-113285892D01*
X31911907Y-113284421D01*
X31905490Y-113283912D01*
X31899448Y-113284357D01*
X31893748Y-113285747D01*
X31888362Y-113288075D01*
X31883259Y-113291331D01*
X31878408Y-113295508D01*
X31873780Y-113300596D01*
X31869343Y-113306588D01*
X31865067Y-113313474D01*
X31860923Y-113321247D01*
X31856879Y-113329899D01*
X31848972Y-113349801D01*
X31841103Y-113373115D01*
X31836730Y-113384856D01*
X31830077Y-113399861D01*
X31821281Y-113417901D01*
X31810478Y-113438743D01*
X31783401Y-113487914D01*
X31749939Y-113545524D01*
X31711187Y-113609727D01*
X31668240Y-113678672D01*
X31622191Y-113750514D01*
X31574135Y-113823402D01*
X31529466Y-113891312D01*
X31490470Y-113953168D01*
X31457118Y-114009287D01*
X31429380Y-114059987D01*
X31407226Y-114105583D01*
X31390627Y-114146394D01*
X31384400Y-114165103D01*
X31379551Y-114182735D01*
X31376076Y-114199328D01*
X31373970Y-114214924D01*
X31373231Y-114229560D01*
X31373853Y-114243277D01*
X31375835Y-114256114D01*
X31379172Y-114268111D01*
X31383859Y-114279308D01*
X31389895Y-114289744D01*
X31397274Y-114299458D01*
X31405992Y-114308491D01*
X31416048Y-114316882D01*
X31427436Y-114324671D01*
X31440152Y-114331897D01*
X31454194Y-114338599D01*
X31486237Y-114350593D01*
X31523537Y-114360969D01*
X31600794Y-114381818D01*
X31675267Y-114406116D01*
X31746632Y-114433594D01*
X31814565Y-114463985D01*
X31878742Y-114497019D01*
X31938838Y-114532428D01*
X31994530Y-114569943D01*
X32045494Y-114609296D01*
X32091405Y-114650219D01*
X32131940Y-114692441D01*
X32166773Y-114735696D01*
X32195582Y-114779714D01*
X32207626Y-114801925D01*
X32218042Y-114824226D01*
X32226790Y-114846584D01*
X32233829Y-114868965D01*
X32239119Y-114891335D01*
X32242619Y-114913661D01*
X32244288Y-114935909D01*
X32244087Y-114958046D01*
X32243031Y-114993213D01*
X32243520Y-115031165D01*
X32245414Y-115070704D01*
X32248569Y-115110634D01*
X32252845Y-115149756D01*
X32258099Y-115186875D01*
X32264189Y-115220792D01*
X32270973Y-115250312D01*
X32279589Y-115290531D01*
X32283261Y-115328794D01*
X32282204Y-115365071D01*
X32276630Y-115399331D01*
X32266753Y-115431542D01*
X32252785Y-115461673D01*
X32234941Y-115489694D01*
X32213432Y-115515573D01*
X32188473Y-115539279D01*
X32160276Y-115560782D01*
X32129055Y-115580049D01*
X32095022Y-115597050D01*
X32058392Y-115611755D01*
X32019376Y-115624131D01*
X31978189Y-115634148D01*
X31935043Y-115641775D01*
X31890152Y-115646980D01*
X31843729Y-115649733D01*
X31795986Y-115650002D01*
X31747138Y-115647757D01*
X31697397Y-115642966D01*
X31646976Y-115635599D01*
X31596089Y-115625624D01*
X31544949Y-115613009D01*
X31493768Y-115597725D01*
X31442761Y-115579740D01*
X31392140Y-115559023D01*
X31342118Y-115535542D01*
X31292910Y-115509268D01*
X31244726Y-115480168D01*
X31197782Y-115448212D01*
X31152290Y-115413368D01*
X31128230Y-115396016D01*
X31100603Y-115379965D01*
X31069731Y-115365206D01*
X31035936Y-115351726D01*
X30960864Y-115328558D01*
X30877962Y-115310368D01*
X30789803Y-115297066D01*
X30698961Y-115288558D01*
X30608011Y-115284754D01*
X30519527Y-115285560D01*
X30436084Y-115290886D01*
X30360254Y-115300638D01*
X30294613Y-115314726D01*
X30241734Y-115333056D01*
X30220885Y-115343784D01*
X30204192Y-115355538D01*
X30191977Y-115368306D01*
X30184561Y-115382078D01*
X30182266Y-115396842D01*
X30185415Y-115412585D01*
X30194328Y-115429298D01*
X30209328Y-115446968D01*
X30222059Y-115460178D01*
X30234090Y-115473629D01*
X30245418Y-115487300D01*
X30256041Y-115501170D01*
X30265957Y-115515216D01*
X30275163Y-115529418D01*
X30283656Y-115543754D01*
X30291435Y-115558202D01*
X30298497Y-115572740D01*
X30304839Y-115587348D01*
X30310460Y-115602004D01*
X30315356Y-115616686D01*
X30319526Y-115631372D01*
X30322967Y-115646042D01*
X30325676Y-115660673D01*
X30327652Y-115675245D01*
X30328891Y-115689735D01*
X30329392Y-115704122D01*
X30329152Y-115718385D01*
X30328169Y-115732502D01*
X30326439Y-115746451D01*
X30323962Y-115760211D01*
X30320734Y-115773761D01*
X30316753Y-115787078D01*
X30312017Y-115800142D01*
X30306523Y-115812931D01*
X30300270Y-115825424D01*
X30293253Y-115837598D01*
X30285472Y-115849432D01*
X30276923Y-115860906D01*
X30267605Y-115871996D01*
X30257515Y-115882682D01*
X30248055Y-115889423D01*
X30233551Y-115895984D01*
X30190766Y-115908507D01*
X30131858Y-115920129D01*
X30059527Y-115930729D01*
X29885393Y-115948373D01*
X29689960Y-115960464D01*
X29494824Y-115966026D01*
X29321578Y-115964084D01*
X29249914Y-115959994D01*
X29191820Y-115953662D01*
X29149997Y-115944966D01*
X29136030Y-115939693D01*
X29127144Y-115933784D01*
X29126533Y-115933830D01*
X29119633Y-115931235D01*
X29104190Y-115928420D01*
X29049485Y-115922235D01*
X28966038Y-115915494D01*
X28857471Y-115908416D01*
X28727406Y-115901222D01*
X28579462Y-115894129D01*
X28417260Y-115887357D01*
X28244423Y-115881126D01*
X27914752Y-115868188D01*
X27653450Y-115852233D01*
X27545585Y-115842382D01*
X27451388Y-115830885D01*
X27369720Y-115817445D01*
X27299438Y-115801765D01*
X27239403Y-115783548D01*
X27188473Y-115762498D01*
X27145507Y-115738315D01*
X27109364Y-115710705D01*
X27078902Y-115679369D01*
X27052982Y-115644010D01*
X27030462Y-115604331D01*
X27010200Y-115560035D01*
X26992304Y-115518440D01*
X26975300Y-115482087D01*
X26966996Y-115465848D01*
X26958751Y-115450887D01*
X26950511Y-115437191D01*
X26942220Y-115424750D01*
X26933825Y-115413553D01*
X26925271Y-115403589D01*
X26916503Y-115394846D01*
X26907466Y-115387314D01*
X26898106Y-115380981D01*
X26888369Y-115375836D01*
X26878199Y-115371868D01*
X26867542Y-115369066D01*
X26856344Y-115367419D01*
X26844550Y-115366915D01*
X26832104Y-115367545D01*
X26818954Y-115369295D01*
X26805043Y-115372156D01*
X26790318Y-115376117D01*
X26774724Y-115381165D01*
X26758206Y-115387290D01*
X26740709Y-115394482D01*
X26722180Y-115402728D01*
X26681803Y-115422340D01*
X26636639Y-115446037D01*
X26586250Y-115473732D01*
X26468244Y-115536631D01*
X26350413Y-115593541D01*
X26232877Y-115644494D01*
X26115758Y-115689520D01*
X25999175Y-115728652D01*
X25883249Y-115761919D01*
X25768099Y-115789354D01*
X25653846Y-115810988D01*
X25540610Y-115826851D01*
X25428511Y-115836975D01*
X25317669Y-115841392D01*
X25208205Y-115840131D01*
X25100239Y-115833226D01*
X24993891Y-115820706D01*
X24889281Y-115802602D01*
X24786530Y-115778947D01*
X24685757Y-115749772D01*
X24587082Y-115715107D01*
X24490627Y-115674984D01*
X24396511Y-115629433D01*
X24304854Y-115578487D01*
X24215777Y-115522176D01*
X24129400Y-115460532D01*
X24045842Y-115393585D01*
X23965225Y-115321367D01*
X23887668Y-115243910D01*
X23813291Y-115161244D01*
X23742216Y-115073400D01*
X23674561Y-114980410D01*
X23610447Y-114882305D01*
X23549995Y-114779117D01*
X23493324Y-114670875D01*
X23456524Y-114592219D01*
X23423298Y-114512352D01*
X23393654Y-114431230D01*
X23367600Y-114348811D01*
X23345144Y-114265049D01*
X23326296Y-114179901D01*
X23311063Y-114093323D01*
X23299453Y-114005272D01*
X23291476Y-113915704D01*
X23287139Y-113824573D01*
X23287670Y-113780963D01*
X23445120Y-113780963D01*
X23451542Y-113920619D01*
X23465370Y-114056974D01*
X23486581Y-114189834D01*
X23515147Y-114319002D01*
X23551045Y-114444282D01*
X23594248Y-114565480D01*
X23644731Y-114682399D01*
X23702468Y-114794844D01*
X23767434Y-114902619D01*
X23839603Y-115005528D01*
X23918951Y-115103375D01*
X24005451Y-115195966D01*
X24099078Y-115283103D01*
X24199806Y-115364593D01*
X24307611Y-115440237D01*
X24422466Y-115509842D01*
X24544346Y-115573212D01*
X24673225Y-115630149D01*
X24735141Y-115652082D01*
X24803175Y-115670344D01*
X24876724Y-115684967D01*
X24955187Y-115695983D01*
X25037963Y-115703422D01*
X25124450Y-115707316D01*
X25214045Y-115707696D01*
X25306148Y-115704593D01*
X25400157Y-115698039D01*
X25495471Y-115688065D01*
X25591486Y-115674701D01*
X25687602Y-115657980D01*
X25783218Y-115637932D01*
X25877731Y-115614590D01*
X25970540Y-115587983D01*
X26061043Y-115558143D01*
X26060982Y-115558174D01*
X26173593Y-115517720D01*
X26274290Y-115479860D01*
X26363448Y-115444255D01*
X26441441Y-115410567D01*
X26508641Y-115378460D01*
X26565424Y-115347594D01*
X26612162Y-115317633D01*
X26649231Y-115288238D01*
X26664256Y-115273648D01*
X26677003Y-115259072D01*
X26687520Y-115244470D01*
X26695853Y-115229798D01*
X26702049Y-115215014D01*
X26706155Y-115200077D01*
X26708217Y-115184943D01*
X26708282Y-115169571D01*
X26706397Y-115153919D01*
X26702609Y-115137943D01*
X26696964Y-115121603D01*
X26689509Y-115104856D01*
X26669356Y-115069971D01*
X26642525Y-115032951D01*
X26545235Y-114909233D01*
X26372078Y-115026756D01*
X26200165Y-115135323D01*
X26032852Y-115225075D01*
X25870437Y-115296557D01*
X25713220Y-115350312D01*
X25561497Y-115386881D01*
X25415569Y-115406810D01*
X25275733Y-115410639D01*
X25142287Y-115398913D01*
X25015531Y-115372175D01*
X24895763Y-115330967D01*
X24783281Y-115275834D01*
X24678384Y-115207317D01*
X24581370Y-115125959D01*
X24492539Y-115032305D01*
X24412187Y-114926897D01*
X24340614Y-114810278D01*
X24278119Y-114682990D01*
X24224999Y-114545578D01*
X24181554Y-114398585D01*
X24148081Y-114242552D01*
X24124880Y-114078024D01*
X24112249Y-113905543D01*
X24110486Y-113725653D01*
X24119889Y-113538896D01*
X24140758Y-113345816D01*
X24173391Y-113146955D01*
X24218086Y-112942857D01*
X24275142Y-112734065D01*
X24344857Y-112521122D01*
X24427529Y-112304570D01*
X24523458Y-112084954D01*
X24632942Y-111862816D01*
X24765116Y-111599105D01*
X24877763Y-111352529D01*
X24970882Y-111123059D01*
X25044469Y-110910671D01*
X25098522Y-110715336D01*
X25133037Y-110537028D01*
X25142968Y-110454251D01*
X25148012Y-110375720D01*
X25148171Y-110301433D01*
X25143444Y-110231386D01*
X25133830Y-110165575D01*
X25119330Y-110103998D01*
X25099942Y-110046651D01*
X25075666Y-109993531D01*
X25046503Y-109944634D01*
X25012451Y-109899957D01*
X24973510Y-109859496D01*
X24929680Y-109823249D01*
X24880961Y-109791211D01*
X24827352Y-109763381D01*
X24768853Y-109739753D01*
X24705463Y-109720326D01*
X24637183Y-109705094D01*
X24564011Y-109694057D01*
X24485948Y-109687209D01*
X24402992Y-109684547D01*
X24357391Y-109685648D01*
X24312944Y-109689417D01*
X24269746Y-109695706D01*
X24227895Y-109704367D01*
X24187487Y-109715252D01*
X24148619Y-109728213D01*
X24111388Y-109743103D01*
X24075889Y-109759773D01*
X24042220Y-109778076D01*
X24010477Y-109797864D01*
X23980757Y-109818989D01*
X23953156Y-109841303D01*
X23927771Y-109864658D01*
X23904699Y-109888907D01*
X23884036Y-109913902D01*
X23865879Y-109939495D01*
X23850324Y-109965537D01*
X23837468Y-109991882D01*
X23827408Y-110018381D01*
X23820240Y-110044886D01*
X23816060Y-110071250D01*
X23814966Y-110097325D01*
X23817054Y-110122963D01*
X23822421Y-110148016D01*
X23831162Y-110172336D01*
X23843376Y-110195775D01*
X23859157Y-110218186D01*
X23878604Y-110239420D01*
X23901812Y-110259331D01*
X23928879Y-110277769D01*
X23959900Y-110294588D01*
X23994972Y-110309639D01*
X24043194Y-110329097D01*
X24088595Y-110349737D01*
X24131177Y-110371575D01*
X24170942Y-110394623D01*
X24207890Y-110418897D01*
X24242025Y-110444410D01*
X24273346Y-110471175D01*
X24301857Y-110499209D01*
X24327559Y-110528523D01*
X24350454Y-110559133D01*
X24370543Y-110591053D01*
X24387827Y-110624297D01*
X24402310Y-110658878D01*
X24413991Y-110694811D01*
X24422874Y-110732110D01*
X24428959Y-110770790D01*
X24432248Y-110810863D01*
X24432744Y-110852345D01*
X24430447Y-110895249D01*
X24425360Y-110939590D01*
X24417483Y-110985382D01*
X24406820Y-111032638D01*
X24393371Y-111081373D01*
X24377138Y-111131601D01*
X24358122Y-111183335D01*
X24336327Y-111236591D01*
X24311752Y-111291382D01*
X24284400Y-111347723D01*
X24254273Y-111405627D01*
X24221372Y-111465108D01*
X24185699Y-111526181D01*
X24147255Y-111588859D01*
X23955107Y-111918918D01*
X23793913Y-112245952D01*
X23663469Y-112568397D01*
X23563572Y-112884685D01*
X23494017Y-113193253D01*
X23470555Y-113344152D01*
X23454601Y-113492534D01*
X23446132Y-113638203D01*
X23445120Y-113780963D01*
X23287670Y-113780963D01*
X23289419Y-113637454D01*
X23306361Y-113443562D01*
X23338032Y-113242548D01*
X23384498Y-113034060D01*
X23445826Y-112817748D01*
X23522084Y-112593260D01*
X23613337Y-112360247D01*
X23719653Y-112118356D01*
X23841099Y-111867238D01*
X23977741Y-111606541D01*
X24129646Y-111335914D01*
X24173460Y-111255589D01*
X24210685Y-111177619D01*
X24241346Y-111102269D01*
X24265467Y-111029809D01*
X24283071Y-110960503D01*
X24294183Y-110894620D01*
X24298826Y-110832426D01*
X24298729Y-110802796D01*
X24297024Y-110774189D01*
X24293713Y-110746637D01*
X24288800Y-110720174D01*
X24282288Y-110694834D01*
X24274179Y-110670650D01*
X24264478Y-110647655D01*
X24253185Y-110625883D01*
X24240305Y-110605367D01*
X24225841Y-110586140D01*
X24209795Y-110568236D01*
X24192171Y-110551689D01*
X24172971Y-110536530D01*
X24152199Y-110522795D01*
X24129857Y-110510516D01*
X24105949Y-110499726D01*
X24080477Y-110490460D01*
X24053444Y-110482750D01*
X23994750Y-110465744D01*
X23941579Y-110445497D01*
X23893832Y-110422257D01*
X23851409Y-110396275D01*
X23814210Y-110367799D01*
X23782136Y-110337078D01*
X23755086Y-110304361D01*
X23732962Y-110269898D01*
X23715663Y-110233937D01*
X23703090Y-110196728D01*
X23695142Y-110158519D01*
X23691721Y-110119561D01*
X23692726Y-110080101D01*
X23698057Y-110040389D01*
X23707616Y-110000674D01*
X23721302Y-109961206D01*
X23739015Y-109922233D01*
X23760657Y-109884005D01*
X23786126Y-109846770D01*
X23815324Y-109810777D01*
X23848150Y-109776277D01*
X23884505Y-109743517D01*
X23924289Y-109712748D01*
X23967403Y-109684217D01*
X24013746Y-109658175D01*
X24063220Y-109634870D01*
X24115723Y-109614552D01*
X24171157Y-109597469D01*
X24229422Y-109583870D01*
X24290418Y-109574006D01*
X24354045Y-109568124D01*
X24420204Y-109566475D01*
X24515349Y-109569826D01*
X24604949Y-109578177D01*
X24689002Y-109591500D01*
X24767505Y-109609771D01*
X24840456Y-109632965D01*
X24907850Y-109661055D01*
X24969686Y-109694017D01*
X25025960Y-109731824D01*
X25076669Y-109774452D01*
X25121811Y-109821875D01*
X25161383Y-109874068D01*
X25195381Y-109931004D01*
X25223803Y-109992659D01*
X25246645Y-110059008D01*
X25263906Y-110130024D01*
X25275581Y-110205682D01*
X25281669Y-110285958D01*
X25282166Y-110370824D01*
X25277069Y-110460257D01*
X25266375Y-110554230D01*
X25250082Y-110652718D01*
X25228186Y-110755696D01*
X25200684Y-110863138D01*
X25167575Y-110975018D01*
X25128854Y-111091312D01*
X25084519Y-111211994D01*
X25034567Y-111337038D01*
X24978994Y-111466419D01*
X24917799Y-111600111D01*
X24850978Y-111738089D01*
X24778529Y-111880328D01*
X24700447Y-112026802D01*
X24600145Y-112223187D01*
X24513052Y-112418815D01*
X24438821Y-112613073D01*
X24377104Y-112805346D01*
X24327557Y-112995023D01*
X24289830Y-113181488D01*
X24263578Y-113364129D01*
X24248453Y-113542333D01*
X24244109Y-113715486D01*
X24250198Y-113882974D01*
X24266374Y-114044185D01*
X24292290Y-114198504D01*
X24327599Y-114345319D01*
X24371953Y-114484016D01*
X24425006Y-114613981D01*
X24486412Y-114734602D01*
X24555823Y-114845264D01*
X24632892Y-114945355D01*
X24717272Y-115034261D01*
X24808616Y-115111368D01*
X24906578Y-115176064D01*
X25010811Y-115227734D01*
X25120967Y-115265766D01*
X25236700Y-115289546D01*
X25357663Y-115298460D01*
X25483508Y-115291896D01*
X25613890Y-115269239D01*
X25748460Y-115229877D01*
X25886873Y-115173196D01*
X26028780Y-115098582D01*
X26173836Y-115005423D01*
X26321693Y-114893104D01*
X26454323Y-114784523D01*
X26259041Y-114413490D01*
X26149018Y-114191677D01*
X26052537Y-113970347D01*
X25969485Y-113749746D01*
X25899746Y-113530119D01*
X25843207Y-113311712D01*
X25799751Y-113094771D01*
X25769266Y-112879543D01*
X25751636Y-112666271D01*
X25746830Y-112458761D01*
G36*
X37793363Y-40806020D02*
G01*
X37999239Y-40819131D01*
X38179532Y-40838508D01*
X38254431Y-40850288D01*
X38316147Y-40863324D01*
X38362420Y-40877513D01*
X38379058Y-40885008D01*
X38390987Y-40892753D01*
X38419298Y-40920368D01*
X38441875Y-40951148D01*
X38458945Y-40984804D01*
X38470736Y-41021049D01*
X38477473Y-41059596D01*
X38479385Y-41100158D01*
X38476698Y-41142446D01*
X38469638Y-41186175D01*
X38458434Y-41231056D01*
X38443313Y-41276803D01*
X38424500Y-41323127D01*
X38402223Y-41369742D01*
X38376710Y-41416361D01*
X38348187Y-41462695D01*
X38316881Y-41508458D01*
X38283019Y-41553363D01*
X38246829Y-41597122D01*
X38208536Y-41639447D01*
X38168369Y-41680052D01*
X38126554Y-41718649D01*
X38083319Y-41754950D01*
X38038890Y-41788670D01*
X37993494Y-41819519D01*
X37947358Y-41847211D01*
X37900709Y-41871459D01*
X37853775Y-41891975D01*
X37806782Y-41908472D01*
X37759958Y-41920663D01*
X37713529Y-41928260D01*
X37667722Y-41930976D01*
X37622764Y-41928523D01*
X37578883Y-41920615D01*
X37578868Y-41920554D01*
X37508224Y-41904317D01*
X37458061Y-41892919D01*
X37405605Y-41881248D01*
X37364614Y-41869985D01*
X37324735Y-41854570D01*
X37286052Y-41835279D01*
X37248654Y-41812388D01*
X37212627Y-41786174D01*
X37178059Y-41756913D01*
X37145035Y-41724882D01*
X37113644Y-41690358D01*
X37083972Y-41653617D01*
X37056105Y-41614936D01*
X37030132Y-41574590D01*
X37006139Y-41532858D01*
X36984212Y-41490014D01*
X36964439Y-41446337D01*
X36946907Y-41402101D01*
X36931703Y-41357585D01*
X36918913Y-41313064D01*
X36908625Y-41268815D01*
X36900925Y-41225115D01*
X36895901Y-41182240D01*
X36893640Y-41140466D01*
X36894228Y-41100070D01*
X36897752Y-41061330D01*
X36904300Y-41024520D01*
X36913957Y-40989918D01*
X36926813Y-40957801D01*
X36942952Y-40928445D01*
X36962462Y-40902126D01*
X36985430Y-40879121D01*
X37011944Y-40859706D01*
X37042089Y-40844159D01*
X37075954Y-40832755D01*
X37132595Y-40821400D01*
X37203199Y-40812542D01*
X37285504Y-40806076D01*
X37377247Y-40801899D01*
X37580000Y-40800000D01*
X37793363Y-40806020D01*
G37*
X37793363Y-40806020D02*
X37999239Y-40819131D01*
X38179532Y-40838508D01*
X38254431Y-40850288D01*
X38316147Y-40863324D01*
X38362420Y-40877513D01*
X38379058Y-40885008D01*
X38390987Y-40892753D01*
X38419298Y-40920368D01*
X38441875Y-40951148D01*
X38458945Y-40984804D01*
X38470736Y-41021049D01*
X38477473Y-41059596D01*
X38479385Y-41100158D01*
X38476698Y-41142446D01*
X38469638Y-41186175D01*
X38458434Y-41231056D01*
X38443313Y-41276803D01*
X38424500Y-41323127D01*
X38402223Y-41369742D01*
X38376710Y-41416361D01*
X38348187Y-41462695D01*
X38316881Y-41508458D01*
X38283019Y-41553363D01*
X38246829Y-41597122D01*
X38208536Y-41639447D01*
X38168369Y-41680052D01*
X38126554Y-41718649D01*
X38083319Y-41754950D01*
X38038890Y-41788670D01*
X37993494Y-41819519D01*
X37947358Y-41847211D01*
X37900709Y-41871459D01*
X37853775Y-41891975D01*
X37806782Y-41908472D01*
X37759958Y-41920663D01*
X37713529Y-41928260D01*
X37667722Y-41930976D01*
X37622764Y-41928523D01*
X37578883Y-41920615D01*
X37578868Y-41920554D01*
X37508224Y-41904317D01*
X37458061Y-41892919D01*
X37405605Y-41881248D01*
X37364614Y-41869985D01*
X37324735Y-41854570D01*
X37286052Y-41835279D01*
X37248654Y-41812388D01*
X37212627Y-41786174D01*
X37178059Y-41756913D01*
X37145035Y-41724882D01*
X37113644Y-41690358D01*
X37083972Y-41653617D01*
X37056105Y-41614936D01*
X37030132Y-41574590D01*
X37006139Y-41532858D01*
X36984212Y-41490014D01*
X36964439Y-41446337D01*
X36946907Y-41402101D01*
X36931703Y-41357585D01*
X36918913Y-41313064D01*
X36908625Y-41268815D01*
X36900925Y-41225115D01*
X36895901Y-41182240D01*
X36893640Y-41140466D01*
X36894228Y-41100070D01*
X36897752Y-41061330D01*
X36904300Y-41024520D01*
X36913957Y-40989918D01*
X36926813Y-40957801D01*
X36942952Y-40928445D01*
X36962462Y-40902126D01*
X36985430Y-40879121D01*
X37011944Y-40859706D01*
X37042089Y-40844159D01*
X37075954Y-40832755D01*
X37132595Y-40821400D01*
X37203199Y-40812542D01*
X37285504Y-40806076D01*
X37377247Y-40801899D01*
X37580000Y-40800000D01*
X37793363Y-40806020D01*
G36*
X36693504Y-41141526D02*
G01*
X36844731Y-41141526D01*
X36849167Y-41229942D01*
X36860014Y-41315966D01*
X36877080Y-41399151D01*
X36900175Y-41479052D01*
X36929107Y-41555223D01*
X36963685Y-41627215D01*
X37003717Y-41694585D01*
X37049012Y-41756884D01*
X37099379Y-41813668D01*
X37154627Y-41864489D01*
X37214564Y-41908901D01*
X37278998Y-41946458D01*
X37347740Y-41976713D01*
X37420596Y-41999221D01*
X37497377Y-42013535D01*
X37577890Y-42019209D01*
X37661945Y-42015796D01*
X37749349Y-42002850D01*
X37839913Y-41979924D01*
X37933443Y-41946573D01*
X38029750Y-41902350D01*
X38029765Y-41902350D01*
X38082689Y-41873165D01*
X38133725Y-41840711D01*
X38182802Y-41805231D01*
X38229847Y-41766970D01*
X38274787Y-41726174D01*
X38317550Y-41683086D01*
X38358063Y-41637951D01*
X38396254Y-41591013D01*
X38432051Y-41542518D01*
X38465380Y-41492709D01*
X38496170Y-41441831D01*
X38524348Y-41390129D01*
X38549842Y-41337847D01*
X38572578Y-41285230D01*
X38592485Y-41232523D01*
X38609491Y-41179969D01*
X38623521Y-41127814D01*
X38634505Y-41076301D01*
X38642369Y-41025676D01*
X38647042Y-40976183D01*
X38648450Y-40928067D01*
X38646521Y-40881571D01*
X38641183Y-40836942D01*
X38632363Y-40794422D01*
X38619989Y-40754258D01*
X38603988Y-40716692D01*
X38584288Y-40681970D01*
X38560816Y-40650337D01*
X38533499Y-40622036D01*
X38502266Y-40597313D01*
X38467044Y-40576412D01*
X38427760Y-40559577D01*
X38371969Y-40539019D01*
X38317402Y-40517499D01*
X38263995Y-40494979D01*
X38211682Y-40471420D01*
X38160398Y-40446783D01*
X38110079Y-40421029D01*
X38060658Y-40394120D01*
X38012071Y-40366018D01*
X37964253Y-40336682D01*
X37917138Y-40306076D01*
X37870662Y-40274159D01*
X37824759Y-40240894D01*
X37779364Y-40206242D01*
X37734413Y-40170163D01*
X37689840Y-40132620D01*
X37645579Y-40093574D01*
X37472819Y-39937705D01*
X37273784Y-40138725D01*
X37195071Y-40223996D01*
X37124874Y-40311784D01*
X37063001Y-40401644D01*
X37009261Y-40493129D01*
X36963463Y-40585792D01*
X36925415Y-40679187D01*
X36894926Y-40772868D01*
X36871804Y-40866389D01*
X36855859Y-40959303D01*
X36846898Y-41051164D01*
X36844731Y-41141526D01*
X36693504Y-41141526D01*
X36694582Y-41105562D01*
X36699313Y-41043179D01*
X36706903Y-40980416D01*
X36717334Y-40917390D01*
X36730592Y-40854216D01*
X36746658Y-40791008D01*
X36765517Y-40727883D01*
X36787152Y-40664955D01*
X36811547Y-40602339D01*
X36838685Y-40540152D01*
X36868550Y-40478509D01*
X36901124Y-40417524D01*
X36936392Y-40357313D01*
X36974337Y-40297992D01*
X37014943Y-40239675D01*
X37058192Y-40182478D01*
X37104069Y-40126516D01*
X37152557Y-40071905D01*
X37203639Y-40018760D01*
X37234077Y-39989551D01*
X37264803Y-39962543D01*
X37295856Y-39937740D01*
X37306577Y-39930030D01*
X37674663Y-39930030D01*
X37770763Y-40028037D01*
X37808497Y-40062570D01*
X37856113Y-40099861D01*
X37911913Y-40139072D01*
X37974195Y-40179364D01*
X38041262Y-40219898D01*
X38111412Y-40259834D01*
X38182948Y-40298334D01*
X38254169Y-40334558D01*
X38323375Y-40367667D01*
X38388868Y-40396822D01*
X38448948Y-40421185D01*
X38501916Y-40439915D01*
X38546071Y-40452174D01*
X38579714Y-40457123D01*
X38592063Y-40456594D01*
X38601147Y-40453923D01*
X38606753Y-40449004D01*
X38608668Y-40441734D01*
X38608653Y-40441734D01*
X38607306Y-40436190D01*
X38603349Y-40429364D01*
X38596915Y-40421334D01*
X38588133Y-40412179D01*
X38564049Y-40390814D01*
X38532138Y-40365904D01*
X38493447Y-40338084D01*
X38449016Y-40307989D01*
X38399891Y-40276254D01*
X38347114Y-40243514D01*
X38291729Y-40210405D01*
X38234779Y-40177560D01*
X38177307Y-40145616D01*
X38120358Y-40115208D01*
X38064974Y-40086970D01*
X38012200Y-40061537D01*
X37963077Y-40039545D01*
X37918651Y-40021629D01*
X37674663Y-39930030D01*
X37306577Y-39930030D01*
X37327273Y-39915147D01*
X37359093Y-39894771D01*
X37391356Y-39876617D01*
X37424098Y-39860690D01*
X37457359Y-39846994D01*
X37491178Y-39835537D01*
X37525592Y-39826323D01*
X37560639Y-39819357D01*
X37596360Y-39814645D01*
X37632791Y-39812193D01*
X37669971Y-39812005D01*
X37707939Y-39814087D01*
X37746734Y-39818444D01*
X37786393Y-39825083D01*
X37826955Y-39834007D01*
X37868459Y-39845224D01*
X37910942Y-39858737D01*
X37954445Y-39874552D01*
X37999004Y-39892676D01*
X38044658Y-39913112D01*
X38091446Y-39935867D01*
X38139406Y-39960946D01*
X38188577Y-39988354D01*
X38290705Y-40050179D01*
X38398137Y-40121386D01*
X38511180Y-40202018D01*
X38580090Y-40258613D01*
X38639982Y-40319887D01*
X38691101Y-40385393D01*
X38733693Y-40454685D01*
X38768001Y-40527319D01*
X38794271Y-40602848D01*
X38812746Y-40680827D01*
X38823671Y-40760811D01*
X38827291Y-40842352D01*
X38823851Y-40925006D01*
X38813595Y-41008328D01*
X38796768Y-41091870D01*
X38773614Y-41175189D01*
X38744379Y-41257837D01*
X38709305Y-41339370D01*
X38668639Y-41419341D01*
X38622625Y-41497306D01*
X38571507Y-41572817D01*
X38515530Y-41645431D01*
X38454939Y-41714700D01*
X38389977Y-41780180D01*
X38320891Y-41841424D01*
X38247924Y-41897987D01*
X38171321Y-41949423D01*
X38091326Y-41995287D01*
X38008185Y-42035133D01*
X37922141Y-42068515D01*
X37833440Y-42094988D01*
X37742325Y-42114105D01*
X37649043Y-42125422D01*
X37553836Y-42128492D01*
X37456950Y-42122870D01*
X37190669Y-42095267D01*
X37046336Y-42345038D01*
X36670512Y-42991706D01*
X36439021Y-43388587D01*
X36618602Y-43553077D01*
X36647522Y-43580372D01*
X36673461Y-43606501D01*
X36696462Y-43631438D01*
X36716573Y-43655160D01*
X36733839Y-43677642D01*
X36748306Y-43698860D01*
X36760020Y-43718789D01*
X36769026Y-43737405D01*
X36775371Y-43754684D01*
X36779100Y-43770600D01*
X36780259Y-43785131D01*
X36778894Y-43798250D01*
X36775051Y-43809935D01*
X36768775Y-43820160D01*
X36760113Y-43828902D01*
X36749110Y-43836135D01*
X36735813Y-43841835D01*
X36720266Y-43845979D01*
X36702516Y-43848541D01*
X36682608Y-43849497D01*
X36660589Y-43848824D01*
X36636505Y-43846495D01*
X36610400Y-43842488D01*
X36582321Y-43836777D01*
X36552314Y-43829339D01*
X36520425Y-43820148D01*
X36486699Y-43809181D01*
X36451182Y-43796413D01*
X36413921Y-43781820D01*
X36374960Y-43765377D01*
X36334346Y-43747059D01*
X36292125Y-43726844D01*
X36238634Y-43699507D01*
X36187850Y-43671580D01*
X36139820Y-43643204D01*
X36094586Y-43614521D01*
X36052195Y-43585674D01*
X36012691Y-43556804D01*
X35976119Y-43528053D01*
X35942524Y-43499565D01*
X35911951Y-43471479D01*
X35884444Y-43443940D01*
X35860049Y-43417088D01*
X35838810Y-43391066D01*
X35829454Y-43378073D01*
X35994738Y-43378073D01*
X35996852Y-43382850D01*
X36001763Y-43389385D01*
X36009046Y-43397065D01*
X36030114Y-43415502D01*
X36058835Y-43437449D01*
X36093988Y-43462195D01*
X36134351Y-43489027D01*
X36178704Y-43517235D01*
X36274493Y-43574931D01*
X36371588Y-43629590D01*
X36417571Y-43654002D01*
X36460218Y-43675519D01*
X36498306Y-43693432D01*
X36530614Y-43707027D01*
X36555922Y-43715594D01*
X36565570Y-43717770D01*
X36573009Y-43718421D01*
X36575336Y-43718289D01*
X36577387Y-43717963D01*
X36579165Y-43717450D01*
X36579953Y-43717125D01*
X36580673Y-43716754D01*
X36581327Y-43716339D01*
X36581914Y-43715880D01*
X36582435Y-43715378D01*
X36582890Y-43714833D01*
X36583280Y-43714246D01*
X36583605Y-43713618D01*
X36583866Y-43712949D01*
X36584062Y-43712240D01*
X36584263Y-43710704D01*
X36584212Y-43709015D01*
X36583911Y-43707178D01*
X36583363Y-43705198D01*
X36582571Y-43703080D01*
X36581539Y-43700829D01*
X36580268Y-43698449D01*
X36578763Y-43695947D01*
X36577026Y-43693326D01*
X36575059Y-43690592D01*
X36572867Y-43687750D01*
X36570451Y-43684805D01*
X36567814Y-43681762D01*
X36564961Y-43678625D01*
X36561892Y-43675400D01*
X36558613Y-43672092D01*
X36555124Y-43668705D01*
X36551430Y-43665245D01*
X36547534Y-43661717D01*
X36543437Y-43658126D01*
X36539144Y-43654476D01*
X36534656Y-43650772D01*
X36529978Y-43647021D01*
X36525111Y-43643226D01*
X36525127Y-43643195D01*
X36494690Y-43620969D01*
X36458938Y-43597085D01*
X36418934Y-43572071D01*
X36375745Y-43546449D01*
X36284073Y-43495488D01*
X36192445Y-43448403D01*
X36109385Y-43409396D01*
X36073732Y-43394234D01*
X36043417Y-43382667D01*
X36019506Y-43375220D01*
X36003065Y-43372418D01*
X35997978Y-43372923D01*
X35995158Y-43374786D01*
X35994738Y-43378073D01*
X35829454Y-43378073D01*
X35820772Y-43366016D01*
X35805980Y-43342080D01*
X35794479Y-43319400D01*
X35786313Y-43298118D01*
X35781528Y-43278376D01*
X35780169Y-43260316D01*
X35782279Y-43244080D01*
X35787905Y-43229811D01*
X35797091Y-43217650D01*
X35809881Y-43207740D01*
X35826321Y-43200222D01*
X35846455Y-43195239D01*
X35870329Y-43192932D01*
X35897987Y-43193444D01*
X35929474Y-43196916D01*
X35964835Y-43203492D01*
X36004115Y-43213312D01*
X36047358Y-43226520D01*
X36094610Y-43243256D01*
X36145915Y-43263663D01*
X36201160Y-43286313D01*
X36223929Y-43294874D01*
X36243961Y-43301435D01*
X36253067Y-43303928D01*
X36261629Y-43305876D01*
X36269692Y-43307265D01*
X36277305Y-43308079D01*
X36284513Y-43308305D01*
X36291364Y-43307926D01*
X36297903Y-43306929D01*
X36304177Y-43305299D01*
X36310234Y-43303020D01*
X36316120Y-43300078D01*
X36321881Y-43296458D01*
X36327564Y-43292145D01*
X36333216Y-43287124D01*
X36338884Y-43281382D01*
X36344613Y-43274902D01*
X36350452Y-43267669D01*
X36362641Y-43250890D01*
X36375826Y-43230924D01*
X36406673Y-43180961D01*
X36499568Y-43028174D01*
X36874553Y-42380332D01*
X37076137Y-42032157D01*
X36937770Y-41874564D01*
X36900744Y-41829594D01*
X36866808Y-41782630D01*
X36835945Y-41733789D01*
X36808140Y-41683184D01*
X36783375Y-41630933D01*
X36761633Y-41577149D01*
X36742899Y-41521949D01*
X36727157Y-41465447D01*
X36714388Y-41407759D01*
X36704577Y-41349000D01*
X36697708Y-41289286D01*
X36693763Y-41228731D01*
X36692727Y-41167451D01*
X36693504Y-41141526D01*
G37*
X36693504Y-41141526D02*
X36844731Y-41141526D01*
X36849167Y-41229942D01*
X36860014Y-41315966D01*
X36877080Y-41399151D01*
X36900175Y-41479052D01*
X36929107Y-41555223D01*
X36963685Y-41627215D01*
X37003717Y-41694585D01*
X37049012Y-41756884D01*
X37099379Y-41813668D01*
X37154627Y-41864489D01*
X37214564Y-41908901D01*
X37278998Y-41946458D01*
X37347740Y-41976713D01*
X37420596Y-41999221D01*
X37497377Y-42013535D01*
X37577890Y-42019209D01*
X37661945Y-42015796D01*
X37749349Y-42002850D01*
X37839913Y-41979924D01*
X37933443Y-41946573D01*
X38029750Y-41902350D01*
X38029765Y-41902350D01*
X38082689Y-41873165D01*
X38133725Y-41840711D01*
X38182802Y-41805231D01*
X38229847Y-41766970D01*
X38274787Y-41726174D01*
X38317550Y-41683086D01*
X38358063Y-41637951D01*
X38396254Y-41591013D01*
X38432051Y-41542518D01*
X38465380Y-41492709D01*
X38496170Y-41441831D01*
X38524348Y-41390129D01*
X38549842Y-41337847D01*
X38572578Y-41285230D01*
X38592485Y-41232523D01*
X38609491Y-41179969D01*
X38623521Y-41127814D01*
X38634505Y-41076301D01*
X38642369Y-41025676D01*
X38647042Y-40976183D01*
X38648450Y-40928067D01*
X38646521Y-40881571D01*
X38641183Y-40836942D01*
X38632363Y-40794422D01*
X38619989Y-40754258D01*
X38603988Y-40716692D01*
X38584288Y-40681970D01*
X38560816Y-40650337D01*
X38533499Y-40622036D01*
X38502266Y-40597313D01*
X38467044Y-40576412D01*
X38427760Y-40559577D01*
X38371969Y-40539019D01*
X38317402Y-40517499D01*
X38263995Y-40494979D01*
X38211682Y-40471420D01*
X38160398Y-40446783D01*
X38110079Y-40421029D01*
X38060658Y-40394120D01*
X38012071Y-40366018D01*
X37964253Y-40336682D01*
X37917138Y-40306076D01*
X37870662Y-40274159D01*
X37824759Y-40240894D01*
X37779364Y-40206242D01*
X37734413Y-40170163D01*
X37689840Y-40132620D01*
X37645579Y-40093574D01*
X37472819Y-39937705D01*
X37273784Y-40138725D01*
X37195071Y-40223996D01*
X37124874Y-40311784D01*
X37063001Y-40401644D01*
X37009261Y-40493129D01*
X36963463Y-40585792D01*
X36925415Y-40679187D01*
X36894926Y-40772868D01*
X36871804Y-40866389D01*
X36855859Y-40959303D01*
X36846898Y-41051164D01*
X36844731Y-41141526D01*
X36693504Y-41141526D01*
X36694582Y-41105562D01*
X36699313Y-41043179D01*
X36706903Y-40980416D01*
X36717334Y-40917390D01*
X36730592Y-40854216D01*
X36746658Y-40791008D01*
X36765517Y-40727883D01*
X36787152Y-40664955D01*
X36811547Y-40602339D01*
X36838685Y-40540152D01*
X36868550Y-40478509D01*
X36901124Y-40417524D01*
X36936392Y-40357313D01*
X36974337Y-40297992D01*
X37014943Y-40239675D01*
X37058192Y-40182478D01*
X37104069Y-40126516D01*
X37152557Y-40071905D01*
X37203639Y-40018760D01*
X37234077Y-39989551D01*
X37264803Y-39962543D01*
X37295856Y-39937740D01*
X37306577Y-39930030D01*
X37674663Y-39930030D01*
X37770763Y-40028037D01*
X37808497Y-40062570D01*
X37856113Y-40099861D01*
X37911913Y-40139072D01*
X37974195Y-40179364D01*
X38041262Y-40219898D01*
X38111412Y-40259834D01*
X38182948Y-40298334D01*
X38254169Y-40334558D01*
X38323375Y-40367667D01*
X38388868Y-40396822D01*
X38448948Y-40421185D01*
X38501916Y-40439915D01*
X38546071Y-40452174D01*
X38579714Y-40457123D01*
X38592063Y-40456594D01*
X38601147Y-40453923D01*
X38606753Y-40449004D01*
X38608668Y-40441734D01*
X38608653Y-40441734D01*
X38607306Y-40436190D01*
X38603349Y-40429364D01*
X38596915Y-40421334D01*
X38588133Y-40412179D01*
X38564049Y-40390814D01*
X38532138Y-40365904D01*
X38493447Y-40338084D01*
X38449016Y-40307989D01*
X38399891Y-40276254D01*
X38347114Y-40243514D01*
X38291729Y-40210405D01*
X38234779Y-40177560D01*
X38177307Y-40145616D01*
X38120358Y-40115208D01*
X38064974Y-40086970D01*
X38012200Y-40061537D01*
X37963077Y-40039545D01*
X37918651Y-40021629D01*
X37674663Y-39930030D01*
X37306577Y-39930030D01*
X37327273Y-39915147D01*
X37359093Y-39894771D01*
X37391356Y-39876617D01*
X37424098Y-39860690D01*
X37457359Y-39846994D01*
X37491178Y-39835537D01*
X37525592Y-39826323D01*
X37560639Y-39819357D01*
X37596360Y-39814645D01*
X37632791Y-39812193D01*
X37669971Y-39812005D01*
X37707939Y-39814087D01*
X37746734Y-39818444D01*
X37786393Y-39825083D01*
X37826955Y-39834007D01*
X37868459Y-39845224D01*
X37910942Y-39858737D01*
X37954445Y-39874552D01*
X37999004Y-39892676D01*
X38044658Y-39913112D01*
X38091446Y-39935867D01*
X38139406Y-39960946D01*
X38188577Y-39988354D01*
X38290705Y-40050179D01*
X38398137Y-40121386D01*
X38511180Y-40202018D01*
X38580090Y-40258613D01*
X38639982Y-40319887D01*
X38691101Y-40385393D01*
X38733693Y-40454685D01*
X38768001Y-40527319D01*
X38794271Y-40602848D01*
X38812746Y-40680827D01*
X38823671Y-40760811D01*
X38827291Y-40842352D01*
X38823851Y-40925006D01*
X38813595Y-41008328D01*
X38796768Y-41091870D01*
X38773614Y-41175189D01*
X38744379Y-41257837D01*
X38709305Y-41339370D01*
X38668639Y-41419341D01*
X38622625Y-41497306D01*
X38571507Y-41572817D01*
X38515530Y-41645431D01*
X38454939Y-41714700D01*
X38389977Y-41780180D01*
X38320891Y-41841424D01*
X38247924Y-41897987D01*
X38171321Y-41949423D01*
X38091326Y-41995287D01*
X38008185Y-42035133D01*
X37922141Y-42068515D01*
X37833440Y-42094988D01*
X37742325Y-42114105D01*
X37649043Y-42125422D01*
X37553836Y-42128492D01*
X37456950Y-42122870D01*
X37190669Y-42095267D01*
X37046336Y-42345038D01*
X36670512Y-42991706D01*
X36439021Y-43388587D01*
X36618602Y-43553077D01*
X36647522Y-43580372D01*
X36673461Y-43606501D01*
X36696462Y-43631438D01*
X36716573Y-43655160D01*
X36733839Y-43677642D01*
X36748306Y-43698860D01*
X36760020Y-43718789D01*
X36769026Y-43737405D01*
X36775371Y-43754684D01*
X36779100Y-43770600D01*
X36780259Y-43785131D01*
X36778894Y-43798250D01*
X36775051Y-43809935D01*
X36768775Y-43820160D01*
X36760113Y-43828902D01*
X36749110Y-43836135D01*
X36735813Y-43841835D01*
X36720266Y-43845979D01*
X36702516Y-43848541D01*
X36682608Y-43849497D01*
X36660589Y-43848824D01*
X36636505Y-43846495D01*
X36610400Y-43842488D01*
X36582321Y-43836777D01*
X36552314Y-43829339D01*
X36520425Y-43820148D01*
X36486699Y-43809181D01*
X36451182Y-43796413D01*
X36413921Y-43781820D01*
X36374960Y-43765377D01*
X36334346Y-43747059D01*
X36292125Y-43726844D01*
X36238634Y-43699507D01*
X36187850Y-43671580D01*
X36139820Y-43643204D01*
X36094586Y-43614521D01*
X36052195Y-43585674D01*
X36012691Y-43556804D01*
X35976119Y-43528053D01*
X35942524Y-43499565D01*
X35911951Y-43471479D01*
X35884444Y-43443940D01*
X35860049Y-43417088D01*
X35838810Y-43391066D01*
X35829454Y-43378073D01*
X35994738Y-43378073D01*
X35996852Y-43382850D01*
X36001763Y-43389385D01*
X36009046Y-43397065D01*
X36030114Y-43415502D01*
X36058835Y-43437449D01*
X36093988Y-43462195D01*
X36134351Y-43489027D01*
X36178704Y-43517235D01*
X36274493Y-43574931D01*
X36371588Y-43629590D01*
X36417571Y-43654002D01*
X36460218Y-43675519D01*
X36498306Y-43693432D01*
X36530614Y-43707027D01*
X36555922Y-43715594D01*
X36565570Y-43717770D01*
X36573009Y-43718421D01*
X36575336Y-43718289D01*
X36577387Y-43717963D01*
X36579165Y-43717450D01*
X36579953Y-43717125D01*
X36580673Y-43716754D01*
X36581327Y-43716339D01*
X36581914Y-43715880D01*
X36582435Y-43715378D01*
X36582890Y-43714833D01*
X36583280Y-43714246D01*
X36583605Y-43713618D01*
X36583866Y-43712949D01*
X36584062Y-43712240D01*
X36584263Y-43710704D01*
X36584212Y-43709015D01*
X36583911Y-43707178D01*
X36583363Y-43705198D01*
X36582571Y-43703080D01*
X36581539Y-43700829D01*
X36580268Y-43698449D01*
X36578763Y-43695947D01*
X36577026Y-43693326D01*
X36575059Y-43690592D01*
X36572867Y-43687750D01*
X36570451Y-43684805D01*
X36567814Y-43681762D01*
X36564961Y-43678625D01*
X36561892Y-43675400D01*
X36558613Y-43672092D01*
X36555124Y-43668705D01*
X36551430Y-43665245D01*
X36547534Y-43661717D01*
X36543437Y-43658126D01*
X36539144Y-43654476D01*
X36534656Y-43650772D01*
X36529978Y-43647021D01*
X36525111Y-43643226D01*
X36525127Y-43643195D01*
X36494690Y-43620969D01*
X36458938Y-43597085D01*
X36418934Y-43572071D01*
X36375745Y-43546449D01*
X36284073Y-43495488D01*
X36192445Y-43448403D01*
X36109385Y-43409396D01*
X36073732Y-43394234D01*
X36043417Y-43382667D01*
X36019506Y-43375220D01*
X36003065Y-43372418D01*
X35997978Y-43372923D01*
X35995158Y-43374786D01*
X35994738Y-43378073D01*
X35829454Y-43378073D01*
X35820772Y-43366016D01*
X35805980Y-43342080D01*
X35794479Y-43319400D01*
X35786313Y-43298118D01*
X35781528Y-43278376D01*
X35780169Y-43260316D01*
X35782279Y-43244080D01*
X35787905Y-43229811D01*
X35797091Y-43217650D01*
X35809881Y-43207740D01*
X35826321Y-43200222D01*
X35846455Y-43195239D01*
X35870329Y-43192932D01*
X35897987Y-43193444D01*
X35929474Y-43196916D01*
X35964835Y-43203492D01*
X36004115Y-43213312D01*
X36047358Y-43226520D01*
X36094610Y-43243256D01*
X36145915Y-43263663D01*
X36201160Y-43286313D01*
X36223929Y-43294874D01*
X36243961Y-43301435D01*
X36253067Y-43303928D01*
X36261629Y-43305876D01*
X36269692Y-43307265D01*
X36277305Y-43308079D01*
X36284513Y-43308305D01*
X36291364Y-43307926D01*
X36297903Y-43306929D01*
X36304177Y-43305299D01*
X36310234Y-43303020D01*
X36316120Y-43300078D01*
X36321881Y-43296458D01*
X36327564Y-43292145D01*
X36333216Y-43287124D01*
X36338884Y-43281382D01*
X36344613Y-43274902D01*
X36350452Y-43267669D01*
X36362641Y-43250890D01*
X36375826Y-43230924D01*
X36406673Y-43180961D01*
X36499568Y-43028174D01*
X36874553Y-42380332D01*
X37076137Y-42032157D01*
X36937770Y-41874564D01*
X36900744Y-41829594D01*
X36866808Y-41782630D01*
X36835945Y-41733789D01*
X36808140Y-41683184D01*
X36783375Y-41630933D01*
X36761633Y-41577149D01*
X36742899Y-41521949D01*
X36727157Y-41465447D01*
X36714388Y-41407759D01*
X36704577Y-41349000D01*
X36697708Y-41289286D01*
X36693763Y-41228731D01*
X36692727Y-41167451D01*
X36693504Y-41141526D01*
G36*
X32008322Y-109594708D02*
G01*
X32155015Y-109594708D01*
X32155066Y-109601128D01*
X32155592Y-109607957D01*
X32156593Y-109615194D01*
X32158069Y-109622838D01*
X32160022Y-109630891D01*
X32162450Y-109639351D01*
X32168739Y-109657493D01*
X32172139Y-109665865D01*
X32175697Y-109673710D01*
X32179412Y-109681028D01*
X32183279Y-109687820D01*
X32187296Y-109694086D01*
X32191458Y-109699824D01*
X32195764Y-109705035D01*
X32200210Y-109709718D01*
X32204792Y-109713874D01*
X32209508Y-109717503D01*
X32214354Y-109720604D01*
X32219326Y-109723176D01*
X32224423Y-109725221D01*
X32229639Y-109726737D01*
X32234973Y-109727724D01*
X32240421Y-109728183D01*
X32245980Y-109728114D01*
X32251646Y-109727515D01*
X32257417Y-109726387D01*
X32263289Y-109724729D01*
X32269258Y-109722542D01*
X32275323Y-109719825D01*
X32281478Y-109716579D01*
X32287722Y-109712803D01*
X32294051Y-109708496D01*
X32300462Y-109703659D01*
X32306951Y-109698291D01*
X32313515Y-109692393D01*
X32320152Y-109685964D01*
X32326857Y-109679004D01*
X32333628Y-109671513D01*
X32340462Y-109663490D01*
X32340492Y-109663551D01*
X32348293Y-109653761D01*
X32351710Y-109649149D01*
X32354799Y-109644716D01*
X32357557Y-109640455D01*
X32359982Y-109636358D01*
X32362069Y-109632418D01*
X32363815Y-109628628D01*
X32365218Y-109624980D01*
X32366273Y-109621466D01*
X32366977Y-109618080D01*
X32367327Y-109614815D01*
X32367320Y-109611662D01*
X32366952Y-109608614D01*
X32366220Y-109605665D01*
X32365120Y-109602806D01*
X32363649Y-109600030D01*
X32361805Y-109597331D01*
X32359582Y-109594700D01*
X32356979Y-109592130D01*
X32353991Y-109589614D01*
X32350616Y-109587145D01*
X32346850Y-109584715D01*
X32342689Y-109582317D01*
X32338131Y-109579943D01*
X32333172Y-109577586D01*
X32327809Y-109575239D01*
X32322037Y-109572894D01*
X32309258Y-109568183D01*
X32294807Y-109563392D01*
X32272901Y-109556976D01*
X32252846Y-109552205D01*
X32234646Y-109549077D01*
X32226244Y-109548129D01*
X32218307Y-109547591D01*
X32210835Y-109547464D01*
X32203830Y-109547747D01*
X32197292Y-109548440D01*
X32191222Y-109549543D01*
X32185619Y-109551056D01*
X32180485Y-109552978D01*
X32175819Y-109555310D01*
X32171623Y-109558052D01*
X32167897Y-109561202D01*
X32164642Y-109564762D01*
X32161857Y-109568731D01*
X32159544Y-109573109D01*
X32157702Y-109577896D01*
X32156333Y-109583091D01*
X32155437Y-109588695D01*
X32155015Y-109594708D01*
X32008322Y-109594708D01*
X32007323Y-109585389D01*
X32006537Y-109570801D01*
X32006563Y-109556524D01*
X32007410Y-109542616D01*
X32009085Y-109529133D01*
X32011596Y-109516132D01*
X32014949Y-109503671D01*
X32019154Y-109491806D01*
X32024217Y-109480594D01*
X32030146Y-109470091D01*
X32036948Y-109460355D01*
X32044632Y-109451442D01*
X32053204Y-109443410D01*
X32062672Y-109436315D01*
X32073044Y-109430213D01*
X32084328Y-109425163D01*
X32106839Y-109417349D01*
X32129491Y-109411091D01*
X32152221Y-109406350D01*
X32174971Y-109403086D01*
X32197678Y-109401258D01*
X32220283Y-109400827D01*
X32242725Y-109401753D01*
X32264945Y-109403995D01*
X32286880Y-109407515D01*
X32308471Y-109412271D01*
X32329657Y-109418224D01*
X32350379Y-109425333D01*
X32370574Y-109433560D01*
X32390184Y-109442863D01*
X32409147Y-109453203D01*
X32427402Y-109464540D01*
X32444891Y-109476834D01*
X32461551Y-109490045D01*
X32477323Y-109504132D01*
X32492145Y-109519057D01*
X32505959Y-109534779D01*
X32518702Y-109551257D01*
X32530315Y-109568453D01*
X32540737Y-109586325D01*
X32549907Y-109604835D01*
X32557766Y-109623941D01*
X32564252Y-109643605D01*
X32569306Y-109663785D01*
X32572866Y-109684443D01*
X32574873Y-109705537D01*
X32575265Y-109727029D01*
X32573982Y-109748878D01*
X32571632Y-109766668D01*
X32568151Y-109783536D01*
X32563579Y-109799477D01*
X32557957Y-109814482D01*
X32551325Y-109828545D01*
X32543722Y-109841658D01*
X32535191Y-109853815D01*
X32525770Y-109865008D01*
X32515500Y-109875230D01*
X32504421Y-109884474D01*
X32492575Y-109892733D01*
X32480000Y-109900000D01*
X32466738Y-109906268D01*
X32452829Y-109911529D01*
X32438312Y-109915776D01*
X32423229Y-109919002D01*
X32407620Y-109921201D01*
X32391524Y-109922364D01*
X32374983Y-109922486D01*
X32358037Y-109921558D01*
X32340725Y-109919573D01*
X32323089Y-109916525D01*
X32305168Y-109912406D01*
X32287003Y-109907210D01*
X32268634Y-109900929D01*
X32250102Y-109893555D01*
X32231447Y-109885082D01*
X32212709Y-109875503D01*
X32193928Y-109864811D01*
X32175145Y-109852997D01*
X32156400Y-109840057D01*
X32137733Y-109825981D01*
X32137733Y-109826011D01*
X32124286Y-109814820D01*
X32111522Y-109802975D01*
X32099451Y-109790531D01*
X32088078Y-109777547D01*
X32077413Y-109764078D01*
X32067462Y-109750183D01*
X32058233Y-109735916D01*
X32049734Y-109721337D01*
X32041972Y-109706500D01*
X32034954Y-109691464D01*
X32028689Y-109676285D01*
X32023184Y-109661019D01*
X32018447Y-109645724D01*
X32014484Y-109630457D01*
X32011305Y-109615274D01*
X32008915Y-109600233D01*
X32008322Y-109594708D01*
G37*
X32008322Y-109594708D02*
X32155015Y-109594708D01*
X32155066Y-109601128D01*
X32155592Y-109607957D01*
X32156593Y-109615194D01*
X32158069Y-109622838D01*
X32160022Y-109630891D01*
X32162450Y-109639351D01*
X32168739Y-109657493D01*
X32172139Y-109665865D01*
X32175697Y-109673710D01*
X32179412Y-109681028D01*
X32183279Y-109687820D01*
X32187296Y-109694086D01*
X32191458Y-109699824D01*
X32195764Y-109705035D01*
X32200210Y-109709718D01*
X32204792Y-109713874D01*
X32209508Y-109717503D01*
X32214354Y-109720604D01*
X32219326Y-109723176D01*
X32224423Y-109725221D01*
X32229639Y-109726737D01*
X32234973Y-109727724D01*
X32240421Y-109728183D01*
X32245980Y-109728114D01*
X32251646Y-109727515D01*
X32257417Y-109726387D01*
X32263289Y-109724729D01*
X32269258Y-109722542D01*
X32275323Y-109719825D01*
X32281478Y-109716579D01*
X32287722Y-109712803D01*
X32294051Y-109708496D01*
X32300462Y-109703659D01*
X32306951Y-109698291D01*
X32313515Y-109692393D01*
X32320152Y-109685964D01*
X32326857Y-109679004D01*
X32333628Y-109671513D01*
X32340462Y-109663490D01*
X32340492Y-109663551D01*
X32348293Y-109653761D01*
X32351710Y-109649149D01*
X32354799Y-109644716D01*
X32357557Y-109640455D01*
X32359982Y-109636358D01*
X32362069Y-109632418D01*
X32363815Y-109628628D01*
X32365218Y-109624980D01*
X32366273Y-109621466D01*
X32366977Y-109618080D01*
X32367327Y-109614815D01*
X32367320Y-109611662D01*
X32366952Y-109608614D01*
X32366220Y-109605665D01*
X32365120Y-109602806D01*
X32363649Y-109600030D01*
X32361805Y-109597331D01*
X32359582Y-109594700D01*
X32356979Y-109592130D01*
X32353991Y-109589614D01*
X32350616Y-109587145D01*
X32346850Y-109584715D01*
X32342689Y-109582317D01*
X32338131Y-109579943D01*
X32333172Y-109577586D01*
X32327809Y-109575239D01*
X32322037Y-109572894D01*
X32309258Y-109568183D01*
X32294807Y-109563392D01*
X32272901Y-109556976D01*
X32252846Y-109552205D01*
X32234646Y-109549077D01*
X32226244Y-109548129D01*
X32218307Y-109547591D01*
X32210835Y-109547464D01*
X32203830Y-109547747D01*
X32197292Y-109548440D01*
X32191222Y-109549543D01*
X32185619Y-109551056D01*
X32180485Y-109552978D01*
X32175819Y-109555310D01*
X32171623Y-109558052D01*
X32167897Y-109561202D01*
X32164642Y-109564762D01*
X32161857Y-109568731D01*
X32159544Y-109573109D01*
X32157702Y-109577896D01*
X32156333Y-109583091D01*
X32155437Y-109588695D01*
X32155015Y-109594708D01*
X32008322Y-109594708D01*
X32007323Y-109585389D01*
X32006537Y-109570801D01*
X32006563Y-109556524D01*
X32007410Y-109542616D01*
X32009085Y-109529133D01*
X32011596Y-109516132D01*
X32014949Y-109503671D01*
X32019154Y-109491806D01*
X32024217Y-109480594D01*
X32030146Y-109470091D01*
X32036948Y-109460355D01*
X32044632Y-109451442D01*
X32053204Y-109443410D01*
X32062672Y-109436315D01*
X32073044Y-109430213D01*
X32084328Y-109425163D01*
X32106839Y-109417349D01*
X32129491Y-109411091D01*
X32152221Y-109406350D01*
X32174971Y-109403086D01*
X32197678Y-109401258D01*
X32220283Y-109400827D01*
X32242725Y-109401753D01*
X32264945Y-109403995D01*
X32286880Y-109407515D01*
X32308471Y-109412271D01*
X32329657Y-109418224D01*
X32350379Y-109425333D01*
X32370574Y-109433560D01*
X32390184Y-109442863D01*
X32409147Y-109453203D01*
X32427402Y-109464540D01*
X32444891Y-109476834D01*
X32461551Y-109490045D01*
X32477323Y-109504132D01*
X32492145Y-109519057D01*
X32505959Y-109534779D01*
X32518702Y-109551257D01*
X32530315Y-109568453D01*
X32540737Y-109586325D01*
X32549907Y-109604835D01*
X32557766Y-109623941D01*
X32564252Y-109643605D01*
X32569306Y-109663785D01*
X32572866Y-109684443D01*
X32574873Y-109705537D01*
X32575265Y-109727029D01*
X32573982Y-109748878D01*
X32571632Y-109766668D01*
X32568151Y-109783536D01*
X32563579Y-109799477D01*
X32557957Y-109814482D01*
X32551325Y-109828545D01*
X32543722Y-109841658D01*
X32535191Y-109853815D01*
X32525770Y-109865008D01*
X32515500Y-109875230D01*
X32504421Y-109884474D01*
X32492575Y-109892733D01*
X32480000Y-109900000D01*
X32466738Y-109906268D01*
X32452829Y-109911529D01*
X32438312Y-109915776D01*
X32423229Y-109919002D01*
X32407620Y-109921201D01*
X32391524Y-109922364D01*
X32374983Y-109922486D01*
X32358037Y-109921558D01*
X32340725Y-109919573D01*
X32323089Y-109916525D01*
X32305168Y-109912406D01*
X32287003Y-109907210D01*
X32268634Y-109900929D01*
X32250102Y-109893555D01*
X32231447Y-109885082D01*
X32212709Y-109875503D01*
X32193928Y-109864811D01*
X32175145Y-109852997D01*
X32156400Y-109840057D01*
X32137733Y-109825981D01*
X32137733Y-109826011D01*
X32124286Y-109814820D01*
X32111522Y-109802975D01*
X32099451Y-109790531D01*
X32088078Y-109777547D01*
X32077413Y-109764078D01*
X32067462Y-109750183D01*
X32058233Y-109735916D01*
X32049734Y-109721337D01*
X32041972Y-109706500D01*
X32034954Y-109691464D01*
X32028689Y-109676285D01*
X32023184Y-109661019D01*
X32018447Y-109645724D01*
X32014484Y-109630457D01*
X32011305Y-109615274D01*
X32008915Y-109600233D01*
X32008322Y-109594708D01*
D11*
%TO.C,J1*%
X38200000Y-142700000D02*
X38200000Y-142130000D01*
X33000000Y-142700000D02*
X33000000Y-142130000D01*
X33000000Y-138070000D02*
X33000000Y-137500000D01*
X38200000Y-140610000D02*
X38200000Y-139590000D01*
X38200000Y-137500000D02*
X33000000Y-137500000D01*
X38200000Y-138070000D02*
X38200000Y-137500000D01*
X39640000Y-142130000D02*
X38200000Y-142130000D01*
X33000000Y-140610000D02*
X33000000Y-139590000D01*
X38200000Y-142700000D02*
X33000000Y-142700000D01*
%TD*%
%LPC*%
D12*
%TO.C,J1*%
X38124999Y-141369999D03*
X33074999Y-141369999D03*
X38124999Y-138829999D03*
X33074999Y-138829999D03*
%TD*%
M02*
