%TF.GenerationSoftware,KiCad,Pcbnew,(7.0.0)*%
%TF.CreationDate,2023-03-30T09:00:50-07:00*%
%TF.ProjectId,wyw_r_frontpanel,7779775f-725f-4667-926f-6e7470616e65,rev?*%
%TF.SameCoordinates,Original*%
%TF.FileFunction,Soldermask,Top*%
%TF.FilePolarity,Negative*%
%FSLAX46Y46*%
G04 Gerber Fmt 4.6, Leading zero omitted, Abs format (unit mm)*
G04 Created by KiCad (PCBNEW (7.0.0)) date 2023-03-30 09:00:50*
%MOMM*%
%LPD*%
G01*
G04 APERTURE LIST*
%ADD10C,2.130000*%
%ADD11R,1.830000X1.930000*%
%ADD12O,2.720000X3.240000*%
%ADD13R,1.800000X1.800000*%
%ADD14C,1.800000*%
%ADD15O,3.240000X2.720000*%
G04 APERTURE END LIST*
D10*
%TO.C,J5*%
X39800000Y-110700000D03*
X48100000Y-110700000D03*
D11*
X36699999Y-110699999D03*
%TD*%
D12*
%TO.C,RV3*%
X38299999Y-49249999D03*
X47899999Y-49249999D03*
D13*
X40599999Y-56749999D03*
D14*
X43100000Y-56750000D03*
X45600000Y-56750000D03*
%TD*%
D10*
%TO.C,J9*%
X40021539Y-132358354D03*
X48321539Y-132358354D03*
D11*
X36921538Y-132358353D03*
%TD*%
D12*
%TO.C,RV1*%
X22999999Y-43224999D03*
X32599999Y-43224999D03*
D13*
X25299999Y-50724999D03*
D14*
X27800000Y-50725000D03*
X30300000Y-50725000D03*
%TD*%
D10*
%TO.C,J3*%
X39800000Y-90700000D03*
X48100000Y-90700000D03*
D11*
X36699999Y-90699999D03*
%TD*%
D10*
%TO.C,J2*%
X39800000Y-80700000D03*
X48100000Y-80700000D03*
D11*
X36699999Y-80699999D03*
%TD*%
D10*
%TO.C,J4*%
X39800000Y-100700000D03*
X48100000Y-100700000D03*
D11*
X36699999Y-100699999D03*
%TD*%
%TO.C,J6*%
X22099999Y-121999999D03*
D10*
X33500000Y-122000000D03*
X25200000Y-122000000D03*
%TD*%
%TO.C,J7*%
X40021539Y-122000000D03*
X48321539Y-122000000D03*
D11*
X36921538Y-121999999D03*
%TD*%
D14*
%TO.C,RV4*%
X45500000Y-73325000D03*
X43000000Y-73325000D03*
D13*
X40499999Y-73324999D03*
D12*
X47799999Y-65824999D03*
X38199999Y-65824999D03*
%TD*%
D11*
%TO.C,J8*%
X22099999Y-132358353D03*
D10*
X33500000Y-132358354D03*
X25200000Y-132358354D03*
%TD*%
D15*
%TO.C,RV2*%
X44374999Y-31399999D03*
X44374999Y-40999999D03*
D13*
X36874999Y-33699999D03*
D14*
X36875000Y-36200000D03*
X36875000Y-38700000D03*
%TD*%
M02*
