M48
; DRILL file {KiCad (7.0.0)} date Thu Mar 30 09:00:50 2023
; FORMAT={-:-/ absolute / inch / decimal}
; #@! TF.CreationDate,2023-03-30T09:00:50-07:00
; #@! TF.GenerationSoftware,Kicad,Pcbnew,(7.0.0)
; #@! TF.FileFunction,Plated,1,2,PTH
FMAT,2
INCH
; #@! TA.AperFunction,Plated,PTH,ComponentDrill
T1C0.0394
; #@! TA.AperFunction,Plated,PTH,ComponentDrill
T2C0.0433
; #@! TA.AperFunction,Plated,PTH,ComponentDrill
T3C0.0480
; #@! TA.AperFunction,Plated,PTH,ComponentDrill
T4C0.0559
; #@! TA.AperFunction,Plated,PTH,ComponentDrill
T5C0.0563
%
G90
G05
T1
X0.9961Y-1.997
X1.0945Y-1.997
X1.1929Y-1.997
X1.4518Y-1.3268
X1.4518Y-1.4252
X1.4518Y-1.5236
X1.5945Y-2.8868
X1.5984Y-2.2343
X1.6929Y-2.8868
X1.6969Y-2.2343
X1.7913Y-2.8868
X1.7953Y-2.2343
T3
X0.8701Y-4.8031
X0.8701Y-5.211
X1.4449Y-3.1772
X1.4449Y-3.5709
X1.4449Y-3.9646
X1.4449Y-4.3583
X1.4536Y-4.8031
X1.4536Y-5.211
T4
X0.9921Y-4.8031
X0.9921Y-5.211
X1.5669Y-3.1772
X1.5669Y-3.5709
X1.5669Y-3.9646
X1.5669Y-4.3583
X1.5757Y-4.8031
X1.5757Y-5.211
T5
X1.3189Y-4.8031
X1.3189Y-5.211
X1.8937Y-3.1772
X1.8937Y-3.5709
X1.8937Y-3.9646
X1.8937Y-4.3583
X1.9024Y-4.8031
X1.9024Y-5.211
T2
G00X0.9055Y-1.7156
M15
G01X0.9055Y-1.688
M16
G05
G00X1.2835Y-1.7156
M15
G01X1.2835Y-1.688
M16
G05
G00X1.5039Y-2.6053
M15
G01X1.5039Y-2.5778
M16
G05
G00X1.5079Y-1.9528
M15
G01X1.5079Y-1.9252
M16
G05
G00X1.7333Y-1.2362
M15
G01X1.7608Y-1.2362
M16
G05
G00X1.7333Y-1.6142
M15
G01X1.7608Y-1.6142
M16
G05
G00X1.8819Y-2.6053
M15
G01X1.8819Y-2.5778
M16
G05
G00X1.8858Y-1.9528
M15
G01X1.8858Y-1.9252
M16
G05
T0
M30
