%TF.GenerationSoftware,KiCad,Pcbnew,(7.0.0)*%
%TF.CreationDate,2023-03-30T09:00:50-07:00*%
%TF.ProjectId,wyw_r_frontpanel,7779775f-725f-4667-926f-6e7470616e65,rev?*%
%TF.SameCoordinates,Original*%
%TF.FileFunction,Legend,Bot*%
%TF.FilePolarity,Positive*%
%FSLAX46Y46*%
G04 Gerber Fmt 4.6, Leading zero omitted, Abs format (unit mm)*
G04 Created by KiCad (PCBNEW (7.0.0)) date 2023-03-30 09:00:50*
%MOMM*%
%LPD*%
G01*
G04 APERTURE LIST*
G04 Aperture macros list*
%AMRoundRect*
0 Rectangle with rounded corners*
0 $1 Rounding radius*
0 $2 $3 $4 $5 $6 $7 $8 $9 X,Y pos of 4 corners*
0 Add a 4 corners polygon primitive as box body*
4,1,4,$2,$3,$4,$5,$6,$7,$8,$9,$2,$3,0*
0 Add four circle primitives for the rounded corners*
1,1,$1+$1,$2,$3*
1,1,$1+$1,$4,$5*
1,1,$1+$1,$6,$7*
1,1,$1+$1,$8,$9*
0 Add four rect primitives between the rounded corners*
20,1,$1+$1,$2,$3,$4,$5,0*
20,1,$1+$1,$4,$5,$6,$7,0*
20,1,$1+$1,$6,$7,$8,$9,0*
20,1,$1+$1,$8,$9,$2,$3,0*%
G04 Aperture macros list end*
%ADD10C,0.150000*%
%ADD11C,0.120000*%
%ADD12R,3.000000X1.000000*%
%ADD13C,2.130000*%
%ADD14R,1.830000X1.930000*%
%ADD15O,2.720000X3.240000*%
%ADD16R,1.800000X1.800000*%
%ADD17C,1.800000*%
%ADD18O,3.240000X2.720000*%
%ADD19RoundRect,0.218750X0.218750X0.256250X-0.218750X0.256250X-0.218750X-0.256250X0.218750X-0.256250X0*%
G04 APERTURE END LIST*
D10*
%TO.C,J1*%
X25333333Y-55277380D02*
X25333333Y-55991666D01*
X25333333Y-55991666D02*
X25380952Y-56134523D01*
X25380952Y-56134523D02*
X25476190Y-56229761D01*
X25476190Y-56229761D02*
X25619047Y-56277380D01*
X25619047Y-56277380D02*
X25714285Y-56277380D01*
X24333333Y-56277380D02*
X24904761Y-56277380D01*
X24619047Y-56277380D02*
X24619047Y-55277380D01*
X24619047Y-55277380D02*
X24714285Y-55420238D01*
X24714285Y-55420238D02*
X24809523Y-55515476D01*
X24809523Y-55515476D02*
X24904761Y-55563095D01*
%TO.C,D5*%
X32650594Y-91887380D02*
X32650594Y-90887380D01*
X32650594Y-90887380D02*
X32412499Y-90887380D01*
X32412499Y-90887380D02*
X32269642Y-90935000D01*
X32269642Y-90935000D02*
X32174404Y-91030238D01*
X32174404Y-91030238D02*
X32126785Y-91125476D01*
X32126785Y-91125476D02*
X32079166Y-91315952D01*
X32079166Y-91315952D02*
X32079166Y-91458809D01*
X32079166Y-91458809D02*
X32126785Y-91649285D01*
X32126785Y-91649285D02*
X32174404Y-91744523D01*
X32174404Y-91744523D02*
X32269642Y-91839761D01*
X32269642Y-91839761D02*
X32412499Y-91887380D01*
X32412499Y-91887380D02*
X32650594Y-91887380D01*
X31174404Y-90887380D02*
X31650594Y-90887380D01*
X31650594Y-90887380D02*
X31698213Y-91363571D01*
X31698213Y-91363571D02*
X31650594Y-91315952D01*
X31650594Y-91315952D02*
X31555356Y-91268333D01*
X31555356Y-91268333D02*
X31317261Y-91268333D01*
X31317261Y-91268333D02*
X31222023Y-91315952D01*
X31222023Y-91315952D02*
X31174404Y-91363571D01*
X31174404Y-91363571D02*
X31126785Y-91458809D01*
X31126785Y-91458809D02*
X31126785Y-91696904D01*
X31126785Y-91696904D02*
X31174404Y-91792142D01*
X31174404Y-91792142D02*
X31222023Y-91839761D01*
X31222023Y-91839761D02*
X31317261Y-91887380D01*
X31317261Y-91887380D02*
X31555356Y-91887380D01*
X31555356Y-91887380D02*
X31650594Y-91839761D01*
X31650594Y-91839761D02*
X31698213Y-91792142D01*
%TO.C,D6*%
X32650594Y-100637380D02*
X32650594Y-99637380D01*
X32650594Y-99637380D02*
X32412499Y-99637380D01*
X32412499Y-99637380D02*
X32269642Y-99685000D01*
X32269642Y-99685000D02*
X32174404Y-99780238D01*
X32174404Y-99780238D02*
X32126785Y-99875476D01*
X32126785Y-99875476D02*
X32079166Y-100065952D01*
X32079166Y-100065952D02*
X32079166Y-100208809D01*
X32079166Y-100208809D02*
X32126785Y-100399285D01*
X32126785Y-100399285D02*
X32174404Y-100494523D01*
X32174404Y-100494523D02*
X32269642Y-100589761D01*
X32269642Y-100589761D02*
X32412499Y-100637380D01*
X32412499Y-100637380D02*
X32650594Y-100637380D01*
X31222023Y-99637380D02*
X31412499Y-99637380D01*
X31412499Y-99637380D02*
X31507737Y-99685000D01*
X31507737Y-99685000D02*
X31555356Y-99732619D01*
X31555356Y-99732619D02*
X31650594Y-99875476D01*
X31650594Y-99875476D02*
X31698213Y-100065952D01*
X31698213Y-100065952D02*
X31698213Y-100446904D01*
X31698213Y-100446904D02*
X31650594Y-100542142D01*
X31650594Y-100542142D02*
X31602975Y-100589761D01*
X31602975Y-100589761D02*
X31507737Y-100637380D01*
X31507737Y-100637380D02*
X31317261Y-100637380D01*
X31317261Y-100637380D02*
X31222023Y-100589761D01*
X31222023Y-100589761D02*
X31174404Y-100542142D01*
X31174404Y-100542142D02*
X31126785Y-100446904D01*
X31126785Y-100446904D02*
X31126785Y-100208809D01*
X31126785Y-100208809D02*
X31174404Y-100113571D01*
X31174404Y-100113571D02*
X31222023Y-100065952D01*
X31222023Y-100065952D02*
X31317261Y-100018333D01*
X31317261Y-100018333D02*
X31507737Y-100018333D01*
X31507737Y-100018333D02*
X31602975Y-100065952D01*
X31602975Y-100065952D02*
X31650594Y-100113571D01*
X31650594Y-100113571D02*
X31698213Y-100208809D01*
%TO.C,D3*%
X32650594Y-74387380D02*
X32650594Y-73387380D01*
X32650594Y-73387380D02*
X32412499Y-73387380D01*
X32412499Y-73387380D02*
X32269642Y-73435000D01*
X32269642Y-73435000D02*
X32174404Y-73530238D01*
X32174404Y-73530238D02*
X32126785Y-73625476D01*
X32126785Y-73625476D02*
X32079166Y-73815952D01*
X32079166Y-73815952D02*
X32079166Y-73958809D01*
X32079166Y-73958809D02*
X32126785Y-74149285D01*
X32126785Y-74149285D02*
X32174404Y-74244523D01*
X32174404Y-74244523D02*
X32269642Y-74339761D01*
X32269642Y-74339761D02*
X32412499Y-74387380D01*
X32412499Y-74387380D02*
X32650594Y-74387380D01*
X31745832Y-73387380D02*
X31126785Y-73387380D01*
X31126785Y-73387380D02*
X31460118Y-73768333D01*
X31460118Y-73768333D02*
X31317261Y-73768333D01*
X31317261Y-73768333D02*
X31222023Y-73815952D01*
X31222023Y-73815952D02*
X31174404Y-73863571D01*
X31174404Y-73863571D02*
X31126785Y-73958809D01*
X31126785Y-73958809D02*
X31126785Y-74196904D01*
X31126785Y-74196904D02*
X31174404Y-74292142D01*
X31174404Y-74292142D02*
X31222023Y-74339761D01*
X31222023Y-74339761D02*
X31317261Y-74387380D01*
X31317261Y-74387380D02*
X31602975Y-74387380D01*
X31602975Y-74387380D02*
X31698213Y-74339761D01*
X31698213Y-74339761D02*
X31745832Y-74292142D01*
%TO.C,D4*%
X32650594Y-83137380D02*
X32650594Y-82137380D01*
X32650594Y-82137380D02*
X32412499Y-82137380D01*
X32412499Y-82137380D02*
X32269642Y-82185000D01*
X32269642Y-82185000D02*
X32174404Y-82280238D01*
X32174404Y-82280238D02*
X32126785Y-82375476D01*
X32126785Y-82375476D02*
X32079166Y-82565952D01*
X32079166Y-82565952D02*
X32079166Y-82708809D01*
X32079166Y-82708809D02*
X32126785Y-82899285D01*
X32126785Y-82899285D02*
X32174404Y-82994523D01*
X32174404Y-82994523D02*
X32269642Y-83089761D01*
X32269642Y-83089761D02*
X32412499Y-83137380D01*
X32412499Y-83137380D02*
X32650594Y-83137380D01*
X31222023Y-82470714D02*
X31222023Y-83137380D01*
X31460118Y-82089761D02*
X31698213Y-82804047D01*
X31698213Y-82804047D02*
X31079166Y-82804047D01*
%TO.C,D2*%
X32650594Y-65637380D02*
X32650594Y-64637380D01*
X32650594Y-64637380D02*
X32412499Y-64637380D01*
X32412499Y-64637380D02*
X32269642Y-64685000D01*
X32269642Y-64685000D02*
X32174404Y-64780238D01*
X32174404Y-64780238D02*
X32126785Y-64875476D01*
X32126785Y-64875476D02*
X32079166Y-65065952D01*
X32079166Y-65065952D02*
X32079166Y-65208809D01*
X32079166Y-65208809D02*
X32126785Y-65399285D01*
X32126785Y-65399285D02*
X32174404Y-65494523D01*
X32174404Y-65494523D02*
X32269642Y-65589761D01*
X32269642Y-65589761D02*
X32412499Y-65637380D01*
X32412499Y-65637380D02*
X32650594Y-65637380D01*
X31698213Y-64732619D02*
X31650594Y-64685000D01*
X31650594Y-64685000D02*
X31555356Y-64637380D01*
X31555356Y-64637380D02*
X31317261Y-64637380D01*
X31317261Y-64637380D02*
X31222023Y-64685000D01*
X31222023Y-64685000D02*
X31174404Y-64732619D01*
X31174404Y-64732619D02*
X31126785Y-64827857D01*
X31126785Y-64827857D02*
X31126785Y-64923095D01*
X31126785Y-64923095D02*
X31174404Y-65065952D01*
X31174404Y-65065952D02*
X31745832Y-65637380D01*
X31745832Y-65637380D02*
X31126785Y-65637380D01*
%TO.C,D1*%
X32650594Y-56887380D02*
X32650594Y-55887380D01*
X32650594Y-55887380D02*
X32412499Y-55887380D01*
X32412499Y-55887380D02*
X32269642Y-55935000D01*
X32269642Y-55935000D02*
X32174404Y-56030238D01*
X32174404Y-56030238D02*
X32126785Y-56125476D01*
X32126785Y-56125476D02*
X32079166Y-56315952D01*
X32079166Y-56315952D02*
X32079166Y-56458809D01*
X32079166Y-56458809D02*
X32126785Y-56649285D01*
X32126785Y-56649285D02*
X32174404Y-56744523D01*
X32174404Y-56744523D02*
X32269642Y-56839761D01*
X32269642Y-56839761D02*
X32412499Y-56887380D01*
X32412499Y-56887380D02*
X32650594Y-56887380D01*
X31126785Y-56887380D02*
X31698213Y-56887380D01*
X31412499Y-56887380D02*
X31412499Y-55887380D01*
X31412499Y-55887380D02*
X31507737Y-56030238D01*
X31507737Y-56030238D02*
X31602975Y-56125476D01*
X31602975Y-56125476D02*
X31698213Y-56173095D01*
D11*
%TO.C,J1*%
X22400000Y-107700000D02*
X22400000Y-108270000D01*
X22400000Y-105160000D02*
X22400000Y-106180000D01*
X22400000Y-102620000D02*
X22400000Y-103640000D01*
X22400000Y-100080000D02*
X22400000Y-101100000D01*
X22400000Y-97540000D02*
X22400000Y-98560000D01*
X22400000Y-95000000D02*
X22400000Y-96020000D01*
X22400000Y-92460000D02*
X22400000Y-93480000D01*
X22400000Y-89920000D02*
X22400000Y-90940000D01*
X22400000Y-87380000D02*
X22400000Y-88400000D01*
X22400000Y-84840000D02*
X22400000Y-85860000D01*
X22400000Y-82300000D02*
X22400000Y-83320000D01*
X22400000Y-79760000D02*
X22400000Y-80780000D01*
X22400000Y-77220000D02*
X22400000Y-78240000D01*
X22400000Y-74680000D02*
X22400000Y-75700000D01*
X22400000Y-72140000D02*
X22400000Y-73160000D01*
X22400000Y-69600000D02*
X22400000Y-70620000D01*
X22400000Y-67060000D02*
X22400000Y-68080000D01*
X22400000Y-64520000D02*
X22400000Y-65540000D01*
X22400000Y-61980000D02*
X22400000Y-63000000D01*
X22400000Y-59440000D02*
X22400000Y-60460000D01*
X22400000Y-57920000D02*
X21040000Y-57920000D01*
X22400000Y-57350000D02*
X22400000Y-57920000D01*
X27600000Y-108270000D02*
X22400000Y-108270000D01*
X27600000Y-107700000D02*
X27600000Y-108270000D01*
X27600000Y-105160000D02*
X27600000Y-106180000D01*
X27600000Y-102620000D02*
X27600000Y-103640000D01*
X27600000Y-100080000D02*
X27600000Y-101100000D01*
X27600000Y-97540000D02*
X27600000Y-98560000D01*
X27600000Y-95000000D02*
X27600000Y-96020000D01*
X27600000Y-92460000D02*
X27600000Y-93480000D01*
X27600000Y-89920000D02*
X27600000Y-90940000D01*
X27600000Y-87380000D02*
X27600000Y-88400000D01*
X27600000Y-84840000D02*
X27600000Y-85860000D01*
X27600000Y-82300000D02*
X27600000Y-83320000D01*
X27600000Y-79760000D02*
X27600000Y-80780000D01*
X27600000Y-77220000D02*
X27600000Y-78240000D01*
X27600000Y-74680000D02*
X27600000Y-75700000D01*
X27600000Y-72140000D02*
X27600000Y-73160000D01*
X27600000Y-69600000D02*
X27600000Y-70620000D01*
X27600000Y-67060000D02*
X27600000Y-68080000D01*
X27600000Y-64520000D02*
X27600000Y-65540000D01*
X27600000Y-61980000D02*
X27600000Y-63000000D01*
X27600000Y-59440000D02*
X27600000Y-60460000D01*
X27600000Y-57350000D02*
X22400000Y-57350000D01*
X27600000Y-57350000D02*
X27600000Y-57920000D01*
%TO.C,D5*%
X31112500Y-92215000D02*
X33397500Y-92215000D01*
X33397500Y-92215000D02*
X33397500Y-93685000D01*
X33397500Y-93685000D02*
X31112500Y-93685000D01*
%TO.C,D6*%
X31112500Y-100965000D02*
X33397500Y-100965000D01*
X33397500Y-100965000D02*
X33397500Y-102435000D01*
X33397500Y-102435000D02*
X31112500Y-102435000D01*
%TO.C,D3*%
X31112500Y-74715000D02*
X33397500Y-74715000D01*
X33397500Y-74715000D02*
X33397500Y-76185000D01*
X33397500Y-76185000D02*
X31112500Y-76185000D01*
%TO.C,D4*%
X31112500Y-83465000D02*
X33397500Y-83465000D01*
X33397500Y-83465000D02*
X33397500Y-84935000D01*
X33397500Y-84935000D02*
X31112500Y-84935000D01*
%TO.C,D2*%
X31112500Y-65965000D02*
X33397500Y-65965000D01*
X33397500Y-65965000D02*
X33397500Y-67435000D01*
X33397500Y-67435000D02*
X31112500Y-67435000D01*
%TO.C,D1*%
X31112500Y-57215000D02*
X33397500Y-57215000D01*
X33397500Y-57215000D02*
X33397500Y-58685000D01*
X33397500Y-58685000D02*
X31112500Y-58685000D01*
%TD*%
%LPC*%
D12*
%TO.C,J1*%
X27519999Y-106939999D03*
X22479999Y-106939999D03*
X27519999Y-104399999D03*
X22479999Y-104399999D03*
X27519999Y-101859999D03*
X22479999Y-101859999D03*
X27519999Y-99319999D03*
X22479999Y-99319999D03*
X27519999Y-96779999D03*
X22479999Y-96779999D03*
X27519999Y-94239999D03*
X22479999Y-94239999D03*
X27519999Y-91699999D03*
X22479999Y-91699999D03*
X27519999Y-89159999D03*
X22479999Y-89159999D03*
X27519999Y-86619999D03*
X22479999Y-86619999D03*
X27519999Y-84079999D03*
X22479999Y-84079999D03*
X27519999Y-81539999D03*
X22479999Y-81539999D03*
X27519999Y-78999999D03*
X22479999Y-78999999D03*
X27519999Y-76459999D03*
X22479999Y-76459999D03*
X27519999Y-73919999D03*
X22479999Y-73919999D03*
X27519999Y-71379999D03*
X22479999Y-71379999D03*
X27519999Y-68839999D03*
X22479999Y-68839999D03*
X27519999Y-66299999D03*
X22479999Y-66299999D03*
X27519999Y-63759999D03*
X22479999Y-63759999D03*
X27519999Y-61219999D03*
X22479999Y-61219999D03*
X27519999Y-58679999D03*
X22479999Y-58679999D03*
%TD*%
D13*
%TO.C,J5*%
X39800000Y-110700000D03*
X48100000Y-110700000D03*
D14*
X36699999Y-110699999D03*
%TD*%
D15*
%TO.C,RV3*%
X38299999Y-49249999D03*
X47899999Y-49249999D03*
D16*
X40599999Y-56749999D03*
D17*
X43100000Y-56750000D03*
X45600000Y-56750000D03*
%TD*%
D13*
%TO.C,J9*%
X40021539Y-132358354D03*
X48321539Y-132358354D03*
D14*
X36921538Y-132358353D03*
%TD*%
D15*
%TO.C,RV1*%
X22999999Y-43224999D03*
X32599999Y-43224999D03*
D16*
X25299999Y-50724999D03*
D17*
X27800000Y-50725000D03*
X30300000Y-50725000D03*
%TD*%
D13*
%TO.C,J3*%
X39800000Y-90700000D03*
X48100000Y-90700000D03*
D14*
X36699999Y-90699999D03*
%TD*%
D13*
%TO.C,J2*%
X39800000Y-80700000D03*
X48100000Y-80700000D03*
D14*
X36699999Y-80699999D03*
%TD*%
D13*
%TO.C,J4*%
X39800000Y-100700000D03*
X48100000Y-100700000D03*
D14*
X36699999Y-100699999D03*
%TD*%
%TO.C,J6*%
X22099999Y-121999999D03*
D13*
X33500000Y-122000000D03*
X25200000Y-122000000D03*
%TD*%
%TO.C,J7*%
X40021539Y-122000000D03*
X48321539Y-122000000D03*
D14*
X36921538Y-121999999D03*
%TD*%
D17*
%TO.C,RV4*%
X45500000Y-73325000D03*
X43000000Y-73325000D03*
D16*
X40499999Y-73324999D03*
D15*
X47799999Y-65824999D03*
X38199999Y-65824999D03*
%TD*%
D14*
%TO.C,J8*%
X22099999Y-132358353D03*
D13*
X33500000Y-132358354D03*
X25200000Y-132358354D03*
%TD*%
D18*
%TO.C,RV2*%
X44374999Y-31399999D03*
X44374999Y-40999999D03*
D16*
X36874999Y-33699999D03*
D17*
X36875000Y-36200000D03*
X36875000Y-38700000D03*
%TD*%
D19*
%TO.C,D5*%
X31125000Y-92950000D03*
X32700000Y-92950000D03*
%TD*%
%TO.C,D6*%
X31125000Y-101700000D03*
X32700000Y-101700000D03*
%TD*%
%TO.C,D3*%
X31125000Y-75450000D03*
X32700000Y-75450000D03*
%TD*%
%TO.C,D4*%
X31125000Y-84200000D03*
X32700000Y-84200000D03*
%TD*%
%TO.C,D2*%
X31125000Y-66700000D03*
X32700000Y-66700000D03*
%TD*%
%TO.C,D1*%
X31125000Y-57950000D03*
X32700000Y-57950000D03*
%TD*%
M02*
