%TF.GenerationSoftware,KiCad,Pcbnew,(7.0.0)*%
%TF.CreationDate,2023-03-30T09:00:50-07:00*%
%TF.ProjectId,wyw_r_frontpanel,7779775f-725f-4667-926f-6e7470616e65,rev?*%
%TF.SameCoordinates,Original*%
%TF.FileFunction,Paste,Bot*%
%TF.FilePolarity,Positive*%
%FSLAX46Y46*%
G04 Gerber Fmt 4.6, Leading zero omitted, Abs format (unit mm)*
G04 Created by KiCad (PCBNEW (7.0.0)) date 2023-03-30 09:00:50*
%MOMM*%
%LPD*%
G01*
G04 APERTURE LIST*
G04 Aperture macros list*
%AMRoundRect*
0 Rectangle with rounded corners*
0 $1 Rounding radius*
0 $2 $3 $4 $5 $6 $7 $8 $9 X,Y pos of 4 corners*
0 Add a 4 corners polygon primitive as box body*
4,1,4,$2,$3,$4,$5,$6,$7,$8,$9,$2,$3,0*
0 Add four circle primitives for the rounded corners*
1,1,$1+$1,$2,$3*
1,1,$1+$1,$4,$5*
1,1,$1+$1,$6,$7*
1,1,$1+$1,$8,$9*
0 Add four rect primitives between the rounded corners*
20,1,$1+$1,$2,$3,$4,$5,0*
20,1,$1+$1,$4,$5,$6,$7,0*
20,1,$1+$1,$6,$7,$8,$9,0*
20,1,$1+$1,$8,$9,$2,$3,0*%
G04 Aperture macros list end*
%ADD10R,3.000000X1.000000*%
%ADD11RoundRect,0.218750X0.218750X0.256250X-0.218750X0.256250X-0.218750X-0.256250X0.218750X-0.256250X0*%
G04 APERTURE END LIST*
D10*
%TO.C,J1*%
X27519999Y-106939999D03*
X22479999Y-106939999D03*
X27519999Y-104399999D03*
X22479999Y-104399999D03*
X27519999Y-101859999D03*
X22479999Y-101859999D03*
X27519999Y-99319999D03*
X22479999Y-99319999D03*
X27519999Y-96779999D03*
X22479999Y-96779999D03*
X27519999Y-94239999D03*
X22479999Y-94239999D03*
X27519999Y-91699999D03*
X22479999Y-91699999D03*
X27519999Y-89159999D03*
X22479999Y-89159999D03*
X27519999Y-86619999D03*
X22479999Y-86619999D03*
X27519999Y-84079999D03*
X22479999Y-84079999D03*
X27519999Y-81539999D03*
X22479999Y-81539999D03*
X27519999Y-78999999D03*
X22479999Y-78999999D03*
X27519999Y-76459999D03*
X22479999Y-76459999D03*
X27519999Y-73919999D03*
X22479999Y-73919999D03*
X27519999Y-71379999D03*
X22479999Y-71379999D03*
X27519999Y-68839999D03*
X22479999Y-68839999D03*
X27519999Y-66299999D03*
X22479999Y-66299999D03*
X27519999Y-63759999D03*
X22479999Y-63759999D03*
X27519999Y-61219999D03*
X22479999Y-61219999D03*
X27519999Y-58679999D03*
X22479999Y-58679999D03*
%TD*%
D11*
%TO.C,D5*%
X31125000Y-92950000D03*
X32700000Y-92950000D03*
%TD*%
%TO.C,D6*%
X31125000Y-101700000D03*
X32700000Y-101700000D03*
%TD*%
%TO.C,D3*%
X31125000Y-75450000D03*
X32700000Y-75450000D03*
%TD*%
%TO.C,D4*%
X31125000Y-84200000D03*
X32700000Y-84200000D03*
%TD*%
%TO.C,D2*%
X31125000Y-66700000D03*
X32700000Y-66700000D03*
%TD*%
%TO.C,D1*%
X31125000Y-57950000D03*
X32700000Y-57950000D03*
%TD*%
M02*
