%TF.GenerationSoftware,KiCad,Pcbnew,(7.0.0)*%
%TF.CreationDate,2023-03-30T09:00:50-07:00*%
%TF.ProjectId,wyw_r_frontpanel,7779775f-725f-4667-926f-6e7470616e65,rev?*%
%TF.SameCoordinates,Original*%
%TF.FileFunction,Copper,L1,Top*%
%TF.FilePolarity,Positive*%
%FSLAX46Y46*%
G04 Gerber Fmt 4.6, Leading zero omitted, Abs format (unit mm)*
G04 Created by KiCad (PCBNEW (7.0.0)) date 2023-03-30 09:00:50*
%MOMM*%
%LPD*%
G01*
G04 APERTURE LIST*
%TA.AperFunction,ComponentPad*%
%ADD10C,2.130000*%
%TD*%
%TA.AperFunction,ComponentPad*%
%ADD11R,1.830000X1.930000*%
%TD*%
%TA.AperFunction,ComponentPad*%
%ADD12O,2.720000X3.240000*%
%TD*%
%TA.AperFunction,ComponentPad*%
%ADD13R,1.800000X1.800000*%
%TD*%
%TA.AperFunction,ComponentPad*%
%ADD14C,1.800000*%
%TD*%
%TA.AperFunction,ComponentPad*%
%ADD15O,3.240000X2.720000*%
%TD*%
G04 APERTURE END LIST*
D10*
%TO.P,J5,TN*%
%TO.N,unconnected-(J5-PadTN)*%
X39800000Y-110700000D03*
%TO.P,J5,T*%
%TO.N,Net-(J1-Pin_39)*%
X48100000Y-110700000D03*
D11*
%TO.P,J5,S*%
%TO.N,GND*%
X36699999Y-110699999D03*
%TD*%
D12*
%TO.P,RV3,*%
%TO.N,*%
X38299999Y-49249999D03*
X47899999Y-49249999D03*
D13*
%TO.P,RV3,1,1*%
%TO.N,Net-(J1-Pin_9)*%
X40599999Y-56749999D03*
D14*
%TO.P,RV3,2,2*%
%TO.N,unconnected-(RV3-Pad2)*%
X43100000Y-56750000D03*
%TO.P,RV3,3,3*%
%TO.N,Net-(J1-Pin_7)*%
X45600000Y-56750000D03*
%TD*%
D10*
%TO.P,J9,TN*%
%TO.N,unconnected-(J9-PadTN)*%
X40021539Y-132358354D03*
%TO.P,J9,T*%
%TO.N,Net-(J1-Pin_40)*%
X48321539Y-132358354D03*
D11*
%TO.P,J9,S*%
%TO.N,GND*%
X36921538Y-132358353D03*
%TD*%
D12*
%TO.P,RV1,*%
%TO.N,*%
X22999999Y-43224999D03*
X32599999Y-43224999D03*
D13*
%TO.P,RV1,1,1*%
%TO.N,Net-(J1-Pin_3)*%
X25299999Y-50724999D03*
D14*
%TO.P,RV1,2,2*%
%TO.N,Net-(J1-Pin_2)*%
X27800000Y-50725000D03*
%TO.P,RV1,3,3*%
%TO.N,Net-(J1-Pin_1)*%
X30300000Y-50725000D03*
%TD*%
D10*
%TO.P,J3,TN*%
%TO.N,unconnected-(J3-PadTN)*%
X39800000Y-90700000D03*
%TO.P,J3,T*%
%TO.N,Net-(J1-Pin_35)*%
X48100000Y-90700000D03*
D11*
%TO.P,J3,S*%
%TO.N,GND*%
X36699999Y-90699999D03*
%TD*%
D10*
%TO.P,J2,TN*%
%TO.N,unconnected-(J2-PadTN)*%
X39800000Y-80700000D03*
%TO.P,J2,T*%
%TO.N,Net-(J1-Pin_33)*%
X48100000Y-80700000D03*
D11*
%TO.P,J2,S*%
%TO.N,GND*%
X36699999Y-80699999D03*
%TD*%
D10*
%TO.P,J4,TN*%
%TO.N,unconnected-(J4-PadTN)*%
X39800000Y-100700000D03*
%TO.P,J4,T*%
%TO.N,Net-(J1-Pin_37)*%
X48100000Y-100700000D03*
D11*
%TO.P,J4,S*%
%TO.N,GND*%
X36699999Y-100699999D03*
%TD*%
%TO.P,J6,S*%
%TO.N,GND*%
X22099999Y-121999999D03*
D10*
%TO.P,J6,T*%
%TO.N,Net-(J1-Pin_34)*%
X33500000Y-122000000D03*
%TO.P,J6,TN*%
%TO.N,unconnected-(J6-PadTN)*%
X25200000Y-122000000D03*
%TD*%
%TO.P,J7,TN*%
%TO.N,unconnected-(J7-PadTN)*%
X40021539Y-122000000D03*
%TO.P,J7,T*%
%TO.N,Net-(J1-Pin_36)*%
X48321539Y-122000000D03*
D11*
%TO.P,J7,S*%
%TO.N,GND*%
X36921538Y-121999999D03*
%TD*%
D14*
%TO.P,RV4,3,3*%
%TO.N,Net-(J1-Pin_12)*%
X45500000Y-73325000D03*
%TO.P,RV4,2,2*%
%TO.N,Net-(J1-Pin_11)*%
X43000000Y-73325000D03*
D13*
%TO.P,RV4,1,1*%
%TO.N,Net-(J1-Pin_10)*%
X40499999Y-73324999D03*
D12*
%TO.P,RV4,*%
%TO.N,*%
X47799999Y-65824999D03*
X38199999Y-65824999D03*
%TD*%
D11*
%TO.P,J8,S*%
%TO.N,GND*%
X22099999Y-132358353D03*
D10*
%TO.P,J8,T*%
%TO.N,Net-(J1-Pin_38)*%
X33500000Y-132358354D03*
%TO.P,J8,TN*%
%TO.N,unconnected-(J8-PadTN)*%
X25200000Y-132358354D03*
%TD*%
D15*
%TO.P,RV2,*%
%TO.N,*%
X44374999Y-31399999D03*
X44374999Y-40999999D03*
D13*
%TO.P,RV2,1,1*%
%TO.N,Net-(J1-Pin_4)*%
X36874999Y-33699999D03*
D14*
%TO.P,RV2,2,2*%
%TO.N,Net-(J1-Pin_5)*%
X36875000Y-36200000D03*
%TO.P,RV2,3,3*%
%TO.N,Net-(J1-Pin_6)*%
X36875000Y-38700000D03*
%TD*%
%TA.AperFunction,Conductor*%
%TO.N,GND*%
G36*
X50417500Y-20017113D02*
G01*
X50462887Y-20062500D01*
X50479500Y-20124500D01*
X50479500Y-148375500D01*
X50462887Y-148437500D01*
X50417500Y-148482887D01*
X50355500Y-148499500D01*
X20124500Y-148499500D01*
X20062500Y-148482887D01*
X20017113Y-148437500D01*
X20000500Y-148375500D01*
X20000500Y-145500000D01*
X25074551Y-145500000D01*
X25094317Y-145751148D01*
X25095452Y-145755877D01*
X25095453Y-145755881D01*
X25151989Y-145991374D01*
X25151991Y-145991382D01*
X25153127Y-145996111D01*
X25249534Y-146228859D01*
X25252081Y-146233016D01*
X25252082Y-146233017D01*
X25378617Y-146439504D01*
X25378622Y-146439511D01*
X25381164Y-146443659D01*
X25384324Y-146447358D01*
X25384327Y-146447363D01*
X25534845Y-146623596D01*
X25544776Y-146635224D01*
X25548476Y-146638384D01*
X25730705Y-146794023D01*
X25736341Y-146798836D01*
X25740491Y-146801379D01*
X25740495Y-146801382D01*
X25852300Y-146869896D01*
X25951141Y-146930466D01*
X26183889Y-147026873D01*
X26428852Y-147085683D01*
X26680000Y-147105449D01*
X26931148Y-147085683D01*
X27176111Y-147026873D01*
X27408859Y-146930466D01*
X27623659Y-146798836D01*
X27815224Y-146635224D01*
X27978836Y-146443659D01*
X28110466Y-146228859D01*
X28206873Y-145996111D01*
X28265683Y-145751148D01*
X28285449Y-145500000D01*
X42194551Y-145500000D01*
X42214317Y-145751148D01*
X42215452Y-145755877D01*
X42215453Y-145755881D01*
X42271989Y-145991374D01*
X42271991Y-145991382D01*
X42273127Y-145996111D01*
X42369534Y-146228859D01*
X42372081Y-146233016D01*
X42372082Y-146233017D01*
X42498617Y-146439504D01*
X42498622Y-146439511D01*
X42501164Y-146443659D01*
X42504324Y-146447358D01*
X42504327Y-146447363D01*
X42654845Y-146623596D01*
X42664776Y-146635224D01*
X42668476Y-146638384D01*
X42850705Y-146794023D01*
X42856341Y-146798836D01*
X42860491Y-146801379D01*
X42860495Y-146801382D01*
X42972300Y-146869896D01*
X43071141Y-146930466D01*
X43303889Y-147026873D01*
X43548852Y-147085683D01*
X43800000Y-147105449D01*
X44051148Y-147085683D01*
X44296111Y-147026873D01*
X44528859Y-146930466D01*
X44743659Y-146798836D01*
X44935224Y-146635224D01*
X45098836Y-146443659D01*
X45230466Y-146228859D01*
X45326873Y-145996111D01*
X45385683Y-145751148D01*
X45405449Y-145500000D01*
X45385683Y-145248852D01*
X45326873Y-145003889D01*
X45230466Y-144771141D01*
X45098836Y-144556341D01*
X44935224Y-144364776D01*
X44931523Y-144361615D01*
X44747363Y-144204327D01*
X44747358Y-144204324D01*
X44743659Y-144201164D01*
X44739511Y-144198622D01*
X44739504Y-144198617D01*
X44533017Y-144072082D01*
X44533016Y-144072081D01*
X44528859Y-144069534D01*
X44296111Y-143973127D01*
X44291382Y-143971991D01*
X44291374Y-143971989D01*
X44055881Y-143915453D01*
X44055877Y-143915452D01*
X44051148Y-143914317D01*
X44046295Y-143913935D01*
X43804854Y-143894933D01*
X43800000Y-143894551D01*
X43795146Y-143894933D01*
X43553704Y-143913935D01*
X43553702Y-143913935D01*
X43548852Y-143914317D01*
X43544124Y-143915451D01*
X43544118Y-143915453D01*
X43308625Y-143971989D01*
X43308613Y-143971992D01*
X43303889Y-143973127D01*
X43299392Y-143974989D01*
X43299388Y-143974991D01*
X43075645Y-144067668D01*
X43075640Y-144067670D01*
X43071141Y-144069534D01*
X43066988Y-144072078D01*
X43066982Y-144072082D01*
X42860495Y-144198617D01*
X42860482Y-144198626D01*
X42856341Y-144201164D01*
X42852646Y-144204319D01*
X42852636Y-144204327D01*
X42668476Y-144361615D01*
X42668469Y-144361621D01*
X42664776Y-144364776D01*
X42661621Y-144368469D01*
X42661615Y-144368476D01*
X42504327Y-144552636D01*
X42504319Y-144552646D01*
X42501164Y-144556341D01*
X42498626Y-144560482D01*
X42498617Y-144560495D01*
X42372082Y-144766982D01*
X42372078Y-144766988D01*
X42369534Y-144771141D01*
X42367670Y-144775640D01*
X42367668Y-144775645D01*
X42274991Y-144999388D01*
X42273127Y-145003889D01*
X42271992Y-145008613D01*
X42271989Y-145008625D01*
X42215453Y-145244118D01*
X42215451Y-145244124D01*
X42214317Y-145248852D01*
X42194551Y-145500000D01*
X28285449Y-145500000D01*
X28265683Y-145248852D01*
X28206873Y-145003889D01*
X28110466Y-144771141D01*
X27978836Y-144556341D01*
X27815224Y-144364776D01*
X27811523Y-144361615D01*
X27627363Y-144204327D01*
X27627358Y-144204324D01*
X27623659Y-144201164D01*
X27619511Y-144198622D01*
X27619504Y-144198617D01*
X27413017Y-144072082D01*
X27413016Y-144072081D01*
X27408859Y-144069534D01*
X27176111Y-143973127D01*
X27171382Y-143971991D01*
X27171374Y-143971989D01*
X26935881Y-143915453D01*
X26935877Y-143915452D01*
X26931148Y-143914317D01*
X26926295Y-143913935D01*
X26684854Y-143894933D01*
X26680000Y-143894551D01*
X26675146Y-143894933D01*
X26433704Y-143913935D01*
X26433702Y-143913935D01*
X26428852Y-143914317D01*
X26424124Y-143915451D01*
X26424118Y-143915453D01*
X26188625Y-143971989D01*
X26188613Y-143971992D01*
X26183889Y-143973127D01*
X26179392Y-143974989D01*
X26179388Y-143974991D01*
X25955645Y-144067668D01*
X25955640Y-144067670D01*
X25951141Y-144069534D01*
X25946988Y-144072078D01*
X25946982Y-144072082D01*
X25740495Y-144198617D01*
X25740482Y-144198626D01*
X25736341Y-144201164D01*
X25732646Y-144204319D01*
X25732636Y-144204327D01*
X25548476Y-144361615D01*
X25548469Y-144361621D01*
X25544776Y-144364776D01*
X25541621Y-144368469D01*
X25541615Y-144368476D01*
X25384327Y-144552636D01*
X25384319Y-144552646D01*
X25381164Y-144556341D01*
X25378626Y-144560482D01*
X25378617Y-144560495D01*
X25252082Y-144766982D01*
X25252078Y-144766988D01*
X25249534Y-144771141D01*
X25247670Y-144775640D01*
X25247668Y-144775645D01*
X25154991Y-144999388D01*
X25153127Y-145003889D01*
X25151992Y-145008613D01*
X25151989Y-145008625D01*
X25095453Y-145244118D01*
X25095451Y-145244124D01*
X25094317Y-145248852D01*
X25074551Y-145500000D01*
X20000500Y-145500000D01*
X20000500Y-138000000D01*
X21499459Y-138000000D01*
X21499617Y-138000383D01*
X21499901Y-138000500D01*
X24487944Y-138000500D01*
X24500099Y-138000500D01*
X24500383Y-138000383D01*
X24500541Y-138000000D01*
X26499459Y-138000000D01*
X26499617Y-138000383D01*
X26499901Y-138000500D01*
X29487944Y-138000500D01*
X29500099Y-138000500D01*
X29500383Y-138000383D01*
X29500541Y-138000000D01*
X31499459Y-138000000D01*
X31499617Y-138000383D01*
X31499901Y-138000500D01*
X34487944Y-138000500D01*
X34500099Y-138000500D01*
X34500383Y-138000383D01*
X34500541Y-138000000D01*
X36499459Y-138000000D01*
X36499617Y-138000383D01*
X36499901Y-138000500D01*
X39487944Y-138000500D01*
X39500099Y-138000500D01*
X39500383Y-138000383D01*
X39500541Y-138000000D01*
X41499459Y-138000000D01*
X41499617Y-138000383D01*
X41499901Y-138000500D01*
X44487944Y-138000500D01*
X44500099Y-138000500D01*
X44500383Y-138000383D01*
X44500541Y-138000000D01*
X46499459Y-138000000D01*
X46499617Y-138000383D01*
X46499901Y-138000500D01*
X49487944Y-138000500D01*
X49500099Y-138000500D01*
X49500383Y-138000383D01*
X49500541Y-138000000D01*
X49500383Y-137999617D01*
X49500099Y-137999500D01*
X46499901Y-137999500D01*
X46499617Y-137999617D01*
X46499459Y-138000000D01*
X44500541Y-138000000D01*
X44500383Y-137999617D01*
X44500099Y-137999500D01*
X41499901Y-137999500D01*
X41499617Y-137999617D01*
X41499459Y-138000000D01*
X39500541Y-138000000D01*
X39500383Y-137999617D01*
X39500099Y-137999500D01*
X36499901Y-137999500D01*
X36499617Y-137999617D01*
X36499459Y-138000000D01*
X34500541Y-138000000D01*
X34500383Y-137999617D01*
X34500099Y-137999500D01*
X31499901Y-137999500D01*
X31499617Y-137999617D01*
X31499459Y-138000000D01*
X29500541Y-138000000D01*
X29500383Y-137999617D01*
X29500099Y-137999500D01*
X26499901Y-137999500D01*
X26499617Y-137999617D01*
X26499459Y-138000000D01*
X24500541Y-138000000D01*
X24500383Y-137999617D01*
X24500099Y-137999500D01*
X21499901Y-137999500D01*
X21499617Y-137999617D01*
X21499459Y-138000000D01*
X20000500Y-138000000D01*
X20000500Y-133367872D01*
X20685000Y-133367872D01*
X20685353Y-133374468D01*
X20690573Y-133423021D01*
X20694111Y-133437995D01*
X20738547Y-133557131D01*
X20746962Y-133572543D01*
X20822498Y-133673446D01*
X20834907Y-133685855D01*
X20935810Y-133761391D01*
X20951222Y-133769806D01*
X21070358Y-133814242D01*
X21085332Y-133817780D01*
X21133885Y-133823000D01*
X21140482Y-133823354D01*
X21833674Y-133823354D01*
X21846549Y-133819903D01*
X21850000Y-133807028D01*
X22350000Y-133807028D01*
X22353450Y-133819903D01*
X22366326Y-133823354D01*
X23059518Y-133823354D01*
X23066114Y-133823000D01*
X23114667Y-133817780D01*
X23129641Y-133814242D01*
X23248777Y-133769806D01*
X23264189Y-133761391D01*
X23365092Y-133685855D01*
X23377501Y-133673446D01*
X23453037Y-133572543D01*
X23461452Y-133557131D01*
X23505888Y-133437995D01*
X23509426Y-133423021D01*
X23514646Y-133374468D01*
X23515000Y-133367872D01*
X23515000Y-133004643D01*
X23533273Y-132939853D01*
X23582705Y-132894158D01*
X23648729Y-132881025D01*
X23711885Y-132904325D01*
X23753560Y-132957189D01*
X23800816Y-133071274D01*
X23929567Y-133281377D01*
X23932731Y-133285082D01*
X23932735Y-133285087D01*
X24040656Y-133411446D01*
X24089601Y-133468753D01*
X24093308Y-133471919D01*
X24273266Y-133625618D01*
X24273269Y-133625620D01*
X24276977Y-133628787D01*
X24487080Y-133757538D01*
X24714738Y-133851837D01*
X24954345Y-133909361D01*
X25200000Y-133928695D01*
X25445655Y-133909361D01*
X25685262Y-133851837D01*
X25912920Y-133757538D01*
X26123023Y-133628787D01*
X26310399Y-133468753D01*
X26470433Y-133281377D01*
X26599184Y-133071274D01*
X26693483Y-132843616D01*
X26751007Y-132604009D01*
X26762078Y-132463347D01*
X27078525Y-132463347D01*
X27079294Y-132468376D01*
X27079295Y-132468382D01*
X27115064Y-132702132D01*
X27115065Y-132702138D01*
X27115835Y-132707167D01*
X27117415Y-132712001D01*
X27117416Y-132712005D01*
X27172660Y-132881025D01*
X27192466Y-132941620D01*
X27194813Y-132946129D01*
X27194815Y-132946133D01*
X27259960Y-133071274D01*
X27306360Y-133160408D01*
X27309414Y-133164476D01*
X27309415Y-133164477D01*
X27397185Y-133281377D01*
X27454458Y-133357657D01*
X27632784Y-133528068D01*
X27757343Y-133613036D01*
X27832343Y-133664198D01*
X27832346Y-133664200D01*
X27836548Y-133667066D01*
X28060278Y-133770918D01*
X28297965Y-133836835D01*
X28543226Y-133863046D01*
X28789475Y-133848847D01*
X29030099Y-133794620D01*
X29258634Y-133701822D01*
X29468945Y-133572943D01*
X29655382Y-133411446D01*
X29812939Y-133221667D01*
X29937385Y-133008704D01*
X30025377Y-132778275D01*
X30074553Y-132536569D01*
X30081088Y-132358354D01*
X31929659Y-132358354D01*
X31948993Y-132604009D01*
X31950128Y-132608738D01*
X31950129Y-132608742D01*
X32005379Y-132838879D01*
X32005381Y-132838887D01*
X32006517Y-132843616D01*
X32100816Y-133071274D01*
X32229567Y-133281377D01*
X32232731Y-133285082D01*
X32232735Y-133285087D01*
X32340656Y-133411446D01*
X32389601Y-133468753D01*
X32393308Y-133471919D01*
X32573266Y-133625618D01*
X32573269Y-133625620D01*
X32576977Y-133628787D01*
X32787080Y-133757538D01*
X33014738Y-133851837D01*
X33254345Y-133909361D01*
X33500000Y-133928695D01*
X33745655Y-133909361D01*
X33985262Y-133851837D01*
X34212920Y-133757538D01*
X34423023Y-133628787D01*
X34610399Y-133468753D01*
X34696559Y-133367872D01*
X35506539Y-133367872D01*
X35506892Y-133374468D01*
X35512112Y-133423021D01*
X35515650Y-133437995D01*
X35560086Y-133557131D01*
X35568501Y-133572543D01*
X35644037Y-133673446D01*
X35656446Y-133685855D01*
X35757349Y-133761391D01*
X35772761Y-133769806D01*
X35891897Y-133814242D01*
X35906871Y-133817780D01*
X35955424Y-133823000D01*
X35962021Y-133823354D01*
X36655213Y-133823354D01*
X36668088Y-133819903D01*
X36671539Y-133807028D01*
X37171539Y-133807028D01*
X37174989Y-133819903D01*
X37187865Y-133823354D01*
X37881057Y-133823354D01*
X37887653Y-133823000D01*
X37936206Y-133817780D01*
X37951180Y-133814242D01*
X38070316Y-133769806D01*
X38085728Y-133761391D01*
X38186631Y-133685855D01*
X38199040Y-133673446D01*
X38274576Y-133572543D01*
X38282991Y-133557131D01*
X38327427Y-133437995D01*
X38330965Y-133423021D01*
X38336185Y-133374468D01*
X38336539Y-133367872D01*
X38336539Y-133004643D01*
X38354812Y-132939853D01*
X38404244Y-132894158D01*
X38470268Y-132881025D01*
X38533424Y-132904325D01*
X38575099Y-132957189D01*
X38622355Y-133071274D01*
X38751106Y-133281377D01*
X38754270Y-133285082D01*
X38754274Y-133285087D01*
X38862195Y-133411446D01*
X38911140Y-133468753D01*
X38914847Y-133471919D01*
X39094805Y-133625618D01*
X39094808Y-133625620D01*
X39098516Y-133628787D01*
X39308619Y-133757538D01*
X39536277Y-133851837D01*
X39775884Y-133909361D01*
X40021539Y-133928695D01*
X40267194Y-133909361D01*
X40506801Y-133851837D01*
X40734459Y-133757538D01*
X40944562Y-133628787D01*
X41131938Y-133468753D01*
X41291972Y-133281377D01*
X41420723Y-133071274D01*
X41515022Y-132843616D01*
X41572546Y-132604009D01*
X41583617Y-132463347D01*
X41900064Y-132463347D01*
X41900833Y-132468376D01*
X41900834Y-132468382D01*
X41936603Y-132702132D01*
X41936604Y-132702138D01*
X41937374Y-132707167D01*
X41938954Y-132712001D01*
X41938955Y-132712005D01*
X41994199Y-132881025D01*
X42014005Y-132941620D01*
X42016352Y-132946129D01*
X42016354Y-132946133D01*
X42081499Y-133071274D01*
X42127899Y-133160408D01*
X42130953Y-133164476D01*
X42130954Y-133164477D01*
X42218724Y-133281377D01*
X42275997Y-133357657D01*
X42454323Y-133528068D01*
X42578882Y-133613036D01*
X42653882Y-133664198D01*
X42653885Y-133664200D01*
X42658087Y-133667066D01*
X42881817Y-133770918D01*
X43119504Y-133836835D01*
X43364765Y-133863046D01*
X43611014Y-133848847D01*
X43851638Y-133794620D01*
X44080173Y-133701822D01*
X44290484Y-133572943D01*
X44476921Y-133411446D01*
X44634478Y-133221667D01*
X44758924Y-133008704D01*
X44846916Y-132778275D01*
X44896092Y-132536569D01*
X44902627Y-132358354D01*
X46751198Y-132358354D01*
X46770532Y-132604009D01*
X46771667Y-132608738D01*
X46771668Y-132608742D01*
X46826918Y-132838879D01*
X46826920Y-132838887D01*
X46828056Y-132843616D01*
X46922355Y-133071274D01*
X47051106Y-133281377D01*
X47054270Y-133285082D01*
X47054274Y-133285087D01*
X47162195Y-133411446D01*
X47211140Y-133468753D01*
X47214847Y-133471919D01*
X47394805Y-133625618D01*
X47394808Y-133625620D01*
X47398516Y-133628787D01*
X47608619Y-133757538D01*
X47836277Y-133851837D01*
X48075884Y-133909361D01*
X48321539Y-133928695D01*
X48567194Y-133909361D01*
X48806801Y-133851837D01*
X49034459Y-133757538D01*
X49244562Y-133628787D01*
X49431938Y-133468753D01*
X49591972Y-133281377D01*
X49720723Y-133071274D01*
X49815022Y-132843616D01*
X49872546Y-132604009D01*
X49891880Y-132358354D01*
X49872546Y-132112699D01*
X49815022Y-131873092D01*
X49720723Y-131645434D01*
X49591972Y-131435331D01*
X49518098Y-131348836D01*
X49435104Y-131251662D01*
X49431938Y-131247955D01*
X49394219Y-131215740D01*
X49248272Y-131091089D01*
X49248267Y-131091085D01*
X49244562Y-131087921D01*
X49034459Y-130959170D01*
X48806801Y-130864871D01*
X48802072Y-130863735D01*
X48802064Y-130863733D01*
X48571927Y-130808483D01*
X48571923Y-130808482D01*
X48567194Y-130807347D01*
X48562341Y-130806965D01*
X48326393Y-130788395D01*
X48321539Y-130788013D01*
X48316685Y-130788395D01*
X48080736Y-130806965D01*
X48080734Y-130806965D01*
X48075884Y-130807347D01*
X48071156Y-130808481D01*
X48071150Y-130808483D01*
X47841013Y-130863733D01*
X47841001Y-130863736D01*
X47836277Y-130864871D01*
X47831780Y-130866733D01*
X47831776Y-130866735D01*
X47613123Y-130957304D01*
X47613118Y-130957306D01*
X47608619Y-130959170D01*
X47604466Y-130961714D01*
X47604460Y-130961718D01*
X47402673Y-131085373D01*
X47402667Y-131085376D01*
X47398516Y-131087921D01*
X47394816Y-131091080D01*
X47394805Y-131091089D01*
X47214847Y-131244788D01*
X47214840Y-131244794D01*
X47211140Y-131247955D01*
X47207979Y-131251655D01*
X47207973Y-131251662D01*
X47054274Y-131431620D01*
X47054265Y-131431631D01*
X47051106Y-131435331D01*
X47048561Y-131439482D01*
X47048558Y-131439488D01*
X46924903Y-131641275D01*
X46924899Y-131641281D01*
X46922355Y-131645434D01*
X46920491Y-131649933D01*
X46920489Y-131649938D01*
X46856425Y-131804602D01*
X46828056Y-131873092D01*
X46826921Y-131877816D01*
X46826918Y-131877828D01*
X46771668Y-132107965D01*
X46771666Y-132107971D01*
X46770532Y-132112699D01*
X46751198Y-132358354D01*
X44902627Y-132358354D01*
X44905131Y-132290076D01*
X44904485Y-132285033D01*
X44874435Y-132050460D01*
X44874434Y-132050458D01*
X44873789Y-132045418D01*
X44802909Y-131809163D01*
X44694395Y-131587657D01*
X44551160Y-131386849D01*
X44547568Y-131383244D01*
X44380648Y-131215740D01*
X44380644Y-131215736D01*
X44377051Y-131212131D01*
X44208603Y-131091089D01*
X44180879Y-131071167D01*
X44180876Y-131071165D01*
X44176744Y-131068196D01*
X43955618Y-130958909D01*
X43950750Y-130957429D01*
X43950745Y-130957428D01*
X43769839Y-130902465D01*
X43719613Y-130887205D01*
X43714572Y-130886541D01*
X43714566Y-130886540D01*
X43478339Y-130855441D01*
X43478338Y-130855440D01*
X43475065Y-130855010D01*
X43471771Y-130854929D01*
X43471765Y-130854929D01*
X43404847Y-130853293D01*
X43404831Y-130853293D01*
X43401539Y-130853213D01*
X43398244Y-130853483D01*
X43398240Y-130853484D01*
X43160784Y-130873006D01*
X43160773Y-130873007D01*
X43155710Y-130873424D01*
X43150779Y-130874662D01*
X43150770Y-130874664D01*
X42921420Y-130932273D01*
X42921418Y-130932273D01*
X42916484Y-130933513D01*
X42911816Y-130935542D01*
X42911815Y-130935543D01*
X42694947Y-131029839D01*
X42694936Y-131029844D01*
X42690283Y-131031868D01*
X42686024Y-131034622D01*
X42686015Y-131034628D01*
X42487452Y-131163084D01*
X42487444Y-131163089D01*
X42483184Y-131165846D01*
X42479430Y-131169261D01*
X42479422Y-131169268D01*
X42304507Y-131328429D01*
X42304497Y-131328438D01*
X42300749Y-131331850D01*
X42297602Y-131335834D01*
X42297599Y-131335838D01*
X42151026Y-131521431D01*
X42151021Y-131521438D01*
X42147875Y-131525422D01*
X42145424Y-131529861D01*
X42145418Y-131529871D01*
X42031129Y-131736907D01*
X42028670Y-131741362D01*
X42026973Y-131746153D01*
X42026969Y-131746163D01*
X41983615Y-131868591D01*
X41946333Y-131973872D01*
X41945442Y-131978872D01*
X41945439Y-131978885D01*
X41903970Y-132211697D01*
X41903969Y-132211703D01*
X41903078Y-132216708D01*
X41903016Y-132221781D01*
X41903015Y-132221792D01*
X41900126Y-132458256D01*
X41900064Y-132463347D01*
X41583617Y-132463347D01*
X41591880Y-132358354D01*
X41572546Y-132112699D01*
X41515022Y-131873092D01*
X41420723Y-131645434D01*
X41291972Y-131435331D01*
X41218098Y-131348836D01*
X41135104Y-131251662D01*
X41131938Y-131247955D01*
X41094219Y-131215740D01*
X40948272Y-131091089D01*
X40948267Y-131091085D01*
X40944562Y-131087921D01*
X40734459Y-130959170D01*
X40506801Y-130864871D01*
X40502072Y-130863735D01*
X40502064Y-130863733D01*
X40271927Y-130808483D01*
X40271923Y-130808482D01*
X40267194Y-130807347D01*
X40262341Y-130806965D01*
X40026393Y-130788395D01*
X40021539Y-130788013D01*
X40016685Y-130788395D01*
X39780736Y-130806965D01*
X39780734Y-130806965D01*
X39775884Y-130807347D01*
X39771156Y-130808481D01*
X39771150Y-130808483D01*
X39541013Y-130863733D01*
X39541001Y-130863736D01*
X39536277Y-130864871D01*
X39531780Y-130866733D01*
X39531776Y-130866735D01*
X39313123Y-130957304D01*
X39313118Y-130957306D01*
X39308619Y-130959170D01*
X39304466Y-130961714D01*
X39304460Y-130961718D01*
X39102673Y-131085373D01*
X39102667Y-131085376D01*
X39098516Y-131087921D01*
X39094816Y-131091080D01*
X39094805Y-131091089D01*
X38914847Y-131244788D01*
X38914840Y-131244794D01*
X38911140Y-131247955D01*
X38907979Y-131251655D01*
X38907973Y-131251662D01*
X38754274Y-131431620D01*
X38754265Y-131431631D01*
X38751106Y-131435331D01*
X38748561Y-131439482D01*
X38748558Y-131439488D01*
X38624903Y-131641275D01*
X38624899Y-131641281D01*
X38622355Y-131645434D01*
X38620491Y-131649933D01*
X38620489Y-131649938D01*
X38575100Y-131759518D01*
X38533424Y-131812383D01*
X38470268Y-131835683D01*
X38404244Y-131822550D01*
X38354812Y-131776855D01*
X38336539Y-131712065D01*
X38336539Y-131348836D01*
X38336185Y-131342239D01*
X38330965Y-131293686D01*
X38327427Y-131278712D01*
X38282991Y-131159576D01*
X38274576Y-131144164D01*
X38199040Y-131043261D01*
X38186631Y-131030852D01*
X38085728Y-130955316D01*
X38070316Y-130946901D01*
X37951180Y-130902465D01*
X37936206Y-130898927D01*
X37887653Y-130893707D01*
X37881057Y-130893354D01*
X37187865Y-130893354D01*
X37174989Y-130896804D01*
X37171539Y-130909680D01*
X37171539Y-133807028D01*
X36671539Y-133807028D01*
X36671539Y-132624680D01*
X36668088Y-132611804D01*
X36655213Y-132608354D01*
X35522865Y-132608354D01*
X35509989Y-132611804D01*
X35506539Y-132624680D01*
X35506539Y-133367872D01*
X34696559Y-133367872D01*
X34770433Y-133281377D01*
X34899184Y-133071274D01*
X34993483Y-132843616D01*
X35051007Y-132604009D01*
X35070341Y-132358354D01*
X35051007Y-132112699D01*
X35046044Y-132092028D01*
X35506539Y-132092028D01*
X35509989Y-132104903D01*
X35522865Y-132108354D01*
X36655213Y-132108354D01*
X36668088Y-132104903D01*
X36671539Y-132092028D01*
X36671539Y-130909680D01*
X36668088Y-130896804D01*
X36655213Y-130893354D01*
X35962021Y-130893354D01*
X35955424Y-130893707D01*
X35906871Y-130898927D01*
X35891897Y-130902465D01*
X35772761Y-130946901D01*
X35757349Y-130955316D01*
X35656446Y-131030852D01*
X35644037Y-131043261D01*
X35568501Y-131144164D01*
X35560086Y-131159576D01*
X35515650Y-131278712D01*
X35512112Y-131293686D01*
X35506892Y-131342239D01*
X35506539Y-131348836D01*
X35506539Y-132092028D01*
X35046044Y-132092028D01*
X34993483Y-131873092D01*
X34899184Y-131645434D01*
X34770433Y-131435331D01*
X34696559Y-131348836D01*
X34613565Y-131251662D01*
X34610399Y-131247955D01*
X34572680Y-131215740D01*
X34426733Y-131091089D01*
X34426728Y-131091085D01*
X34423023Y-131087921D01*
X34212920Y-130959170D01*
X33985262Y-130864871D01*
X33980533Y-130863735D01*
X33980525Y-130863733D01*
X33750388Y-130808483D01*
X33750384Y-130808482D01*
X33745655Y-130807347D01*
X33740802Y-130806965D01*
X33504854Y-130788395D01*
X33500000Y-130788013D01*
X33495146Y-130788395D01*
X33259197Y-130806965D01*
X33259195Y-130806965D01*
X33254345Y-130807347D01*
X33249617Y-130808481D01*
X33249611Y-130808483D01*
X33019474Y-130863733D01*
X33019462Y-130863736D01*
X33014738Y-130864871D01*
X33010241Y-130866733D01*
X33010237Y-130866735D01*
X32791584Y-130957304D01*
X32791579Y-130957306D01*
X32787080Y-130959170D01*
X32782927Y-130961714D01*
X32782921Y-130961718D01*
X32581134Y-131085373D01*
X32581128Y-131085376D01*
X32576977Y-131087921D01*
X32573277Y-131091080D01*
X32573266Y-131091089D01*
X32393308Y-131244788D01*
X32393301Y-131244794D01*
X32389601Y-131247955D01*
X32386440Y-131251655D01*
X32386434Y-131251662D01*
X32232735Y-131431620D01*
X32232726Y-131431631D01*
X32229567Y-131435331D01*
X32227022Y-131439482D01*
X32227019Y-131439488D01*
X32103364Y-131641275D01*
X32103360Y-131641281D01*
X32100816Y-131645434D01*
X32098952Y-131649933D01*
X32098950Y-131649938D01*
X32034886Y-131804602D01*
X32006517Y-131873092D01*
X32005382Y-131877816D01*
X32005379Y-131877828D01*
X31950129Y-132107965D01*
X31950127Y-132107971D01*
X31948993Y-132112699D01*
X31929659Y-132358354D01*
X30081088Y-132358354D01*
X30083592Y-132290076D01*
X30082946Y-132285033D01*
X30052896Y-132050460D01*
X30052895Y-132050458D01*
X30052250Y-132045418D01*
X29981370Y-131809163D01*
X29872856Y-131587657D01*
X29729621Y-131386849D01*
X29726029Y-131383244D01*
X29559109Y-131215740D01*
X29559105Y-131215736D01*
X29555512Y-131212131D01*
X29387064Y-131091089D01*
X29359340Y-131071167D01*
X29359337Y-131071165D01*
X29355205Y-131068196D01*
X29134079Y-130958909D01*
X29129211Y-130957429D01*
X29129206Y-130957428D01*
X28948300Y-130902465D01*
X28898074Y-130887205D01*
X28893033Y-130886541D01*
X28893027Y-130886540D01*
X28656800Y-130855441D01*
X28656799Y-130855440D01*
X28653526Y-130855010D01*
X28650232Y-130854929D01*
X28650226Y-130854929D01*
X28583308Y-130853293D01*
X28583292Y-130853293D01*
X28580000Y-130853213D01*
X28576705Y-130853483D01*
X28576701Y-130853484D01*
X28339245Y-130873006D01*
X28339234Y-130873007D01*
X28334171Y-130873424D01*
X28329240Y-130874662D01*
X28329231Y-130874664D01*
X28099881Y-130932273D01*
X28099879Y-130932273D01*
X28094945Y-130933513D01*
X28090277Y-130935542D01*
X28090276Y-130935543D01*
X27873408Y-131029839D01*
X27873397Y-131029844D01*
X27868744Y-131031868D01*
X27864485Y-131034622D01*
X27864476Y-131034628D01*
X27665913Y-131163084D01*
X27665905Y-131163089D01*
X27661645Y-131165846D01*
X27657891Y-131169261D01*
X27657883Y-131169268D01*
X27482968Y-131328429D01*
X27482958Y-131328438D01*
X27479210Y-131331850D01*
X27476063Y-131335834D01*
X27476060Y-131335838D01*
X27329487Y-131521431D01*
X27329482Y-131521438D01*
X27326336Y-131525422D01*
X27323885Y-131529861D01*
X27323879Y-131529871D01*
X27209590Y-131736907D01*
X27207131Y-131741362D01*
X27205434Y-131746153D01*
X27205430Y-131746163D01*
X27162076Y-131868591D01*
X27124794Y-131973872D01*
X27123903Y-131978872D01*
X27123900Y-131978885D01*
X27082431Y-132211697D01*
X27082430Y-132211703D01*
X27081539Y-132216708D01*
X27081477Y-132221781D01*
X27081476Y-132221792D01*
X27078587Y-132458256D01*
X27078525Y-132463347D01*
X26762078Y-132463347D01*
X26770341Y-132358354D01*
X26751007Y-132112699D01*
X26693483Y-131873092D01*
X26599184Y-131645434D01*
X26470433Y-131435331D01*
X26396559Y-131348836D01*
X26313565Y-131251662D01*
X26310399Y-131247955D01*
X26272680Y-131215740D01*
X26126733Y-131091089D01*
X26126728Y-131091085D01*
X26123023Y-131087921D01*
X25912920Y-130959170D01*
X25685262Y-130864871D01*
X25680533Y-130863735D01*
X25680525Y-130863733D01*
X25450388Y-130808483D01*
X25450384Y-130808482D01*
X25445655Y-130807347D01*
X25440802Y-130806965D01*
X25204854Y-130788395D01*
X25200000Y-130788013D01*
X25195146Y-130788395D01*
X24959197Y-130806965D01*
X24959195Y-130806965D01*
X24954345Y-130807347D01*
X24949617Y-130808481D01*
X24949611Y-130808483D01*
X24719474Y-130863733D01*
X24719462Y-130863736D01*
X24714738Y-130864871D01*
X24710241Y-130866733D01*
X24710237Y-130866735D01*
X24491584Y-130957304D01*
X24491579Y-130957306D01*
X24487080Y-130959170D01*
X24482927Y-130961714D01*
X24482921Y-130961718D01*
X24281134Y-131085373D01*
X24281128Y-131085376D01*
X24276977Y-131087921D01*
X24273277Y-131091080D01*
X24273266Y-131091089D01*
X24093308Y-131244788D01*
X24093301Y-131244794D01*
X24089601Y-131247955D01*
X24086440Y-131251655D01*
X24086434Y-131251662D01*
X23932735Y-131431620D01*
X23932726Y-131431631D01*
X23929567Y-131435331D01*
X23927022Y-131439482D01*
X23927019Y-131439488D01*
X23803364Y-131641275D01*
X23803360Y-131641281D01*
X23800816Y-131645434D01*
X23798952Y-131649933D01*
X23798950Y-131649938D01*
X23753561Y-131759518D01*
X23711885Y-131812383D01*
X23648729Y-131835683D01*
X23582705Y-131822550D01*
X23533273Y-131776855D01*
X23515000Y-131712065D01*
X23515000Y-131348836D01*
X23514646Y-131342239D01*
X23509426Y-131293686D01*
X23505888Y-131278712D01*
X23461452Y-131159576D01*
X23453037Y-131144164D01*
X23377501Y-131043261D01*
X23365092Y-131030852D01*
X23264189Y-130955316D01*
X23248777Y-130946901D01*
X23129641Y-130902465D01*
X23114667Y-130898927D01*
X23066114Y-130893707D01*
X23059518Y-130893354D01*
X22366326Y-130893354D01*
X22353450Y-130896804D01*
X22350000Y-130909680D01*
X22350000Y-133807028D01*
X21850000Y-133807028D01*
X21850000Y-132624680D01*
X21846549Y-132611804D01*
X21833674Y-132608354D01*
X20701326Y-132608354D01*
X20688450Y-132611804D01*
X20685000Y-132624680D01*
X20685000Y-133367872D01*
X20000500Y-133367872D01*
X20000500Y-132092028D01*
X20685000Y-132092028D01*
X20688450Y-132104903D01*
X20701326Y-132108354D01*
X21833674Y-132108354D01*
X21846549Y-132104903D01*
X21850000Y-132092028D01*
X21850000Y-130909680D01*
X21846549Y-130896804D01*
X21833674Y-130893354D01*
X21140482Y-130893354D01*
X21133885Y-130893707D01*
X21085332Y-130898927D01*
X21070358Y-130902465D01*
X20951222Y-130946901D01*
X20935810Y-130955316D01*
X20834907Y-131030852D01*
X20822498Y-131043261D01*
X20746962Y-131144164D01*
X20738547Y-131159576D01*
X20694111Y-131278712D01*
X20690573Y-131293686D01*
X20685353Y-131342239D01*
X20685000Y-131348836D01*
X20685000Y-132092028D01*
X20000500Y-132092028D01*
X20000500Y-123009518D01*
X20685000Y-123009518D01*
X20685353Y-123016114D01*
X20690573Y-123064667D01*
X20694111Y-123079641D01*
X20738547Y-123198777D01*
X20746962Y-123214189D01*
X20822498Y-123315092D01*
X20834907Y-123327501D01*
X20935810Y-123403037D01*
X20951222Y-123411452D01*
X21070358Y-123455888D01*
X21085332Y-123459426D01*
X21133885Y-123464646D01*
X21140482Y-123465000D01*
X21833674Y-123465000D01*
X21846549Y-123461549D01*
X21850000Y-123448674D01*
X22350000Y-123448674D01*
X22353450Y-123461549D01*
X22366326Y-123465000D01*
X23059518Y-123465000D01*
X23066114Y-123464646D01*
X23114667Y-123459426D01*
X23129641Y-123455888D01*
X23248777Y-123411452D01*
X23264189Y-123403037D01*
X23365092Y-123327501D01*
X23377501Y-123315092D01*
X23453037Y-123214189D01*
X23461452Y-123198777D01*
X23505888Y-123079641D01*
X23509426Y-123064667D01*
X23514646Y-123016114D01*
X23515000Y-123009518D01*
X23515000Y-122646289D01*
X23533273Y-122581499D01*
X23582705Y-122535804D01*
X23648729Y-122522671D01*
X23711885Y-122545971D01*
X23753560Y-122598835D01*
X23800816Y-122712920D01*
X23929567Y-122923023D01*
X23932731Y-122926728D01*
X23932735Y-122926733D01*
X24040656Y-123053092D01*
X24089601Y-123110399D01*
X24093308Y-123113565D01*
X24273266Y-123267264D01*
X24273269Y-123267266D01*
X24276977Y-123270433D01*
X24487080Y-123399184D01*
X24714738Y-123493483D01*
X24954345Y-123551007D01*
X25200000Y-123570341D01*
X25445655Y-123551007D01*
X25685262Y-123493483D01*
X25912920Y-123399184D01*
X26123023Y-123270433D01*
X26310399Y-123110399D01*
X26470433Y-122923023D01*
X26599184Y-122712920D01*
X26693483Y-122485262D01*
X26751007Y-122245655D01*
X26762078Y-122104993D01*
X27078525Y-122104993D01*
X27079294Y-122110022D01*
X27079295Y-122110028D01*
X27115064Y-122343778D01*
X27115065Y-122343784D01*
X27115835Y-122348813D01*
X27117415Y-122353647D01*
X27117416Y-122353651D01*
X27172660Y-122522671D01*
X27192466Y-122583266D01*
X27194813Y-122587775D01*
X27194815Y-122587779D01*
X27259960Y-122712920D01*
X27306360Y-122802054D01*
X27309414Y-122806122D01*
X27309415Y-122806123D01*
X27397185Y-122923023D01*
X27454458Y-122999303D01*
X27632784Y-123169714D01*
X27757343Y-123254682D01*
X27832343Y-123305844D01*
X27832346Y-123305846D01*
X27836548Y-123308712D01*
X28060278Y-123412564D01*
X28297965Y-123478481D01*
X28543226Y-123504692D01*
X28789475Y-123490493D01*
X29030099Y-123436266D01*
X29258634Y-123343468D01*
X29468945Y-123214589D01*
X29655382Y-123053092D01*
X29812939Y-122863313D01*
X29937385Y-122650350D01*
X30025377Y-122419921D01*
X30074553Y-122178215D01*
X30081088Y-122000000D01*
X31929659Y-122000000D01*
X31948993Y-122245655D01*
X31950128Y-122250384D01*
X31950129Y-122250388D01*
X32005379Y-122480525D01*
X32005381Y-122480533D01*
X32006517Y-122485262D01*
X32100816Y-122712920D01*
X32229567Y-122923023D01*
X32232731Y-122926728D01*
X32232735Y-122926733D01*
X32340656Y-123053092D01*
X32389601Y-123110399D01*
X32393308Y-123113565D01*
X32573266Y-123267264D01*
X32573269Y-123267266D01*
X32576977Y-123270433D01*
X32787080Y-123399184D01*
X33014738Y-123493483D01*
X33254345Y-123551007D01*
X33500000Y-123570341D01*
X33745655Y-123551007D01*
X33985262Y-123493483D01*
X34212920Y-123399184D01*
X34423023Y-123270433D01*
X34610399Y-123110399D01*
X34696559Y-123009518D01*
X35506539Y-123009518D01*
X35506892Y-123016114D01*
X35512112Y-123064667D01*
X35515650Y-123079641D01*
X35560086Y-123198777D01*
X35568501Y-123214189D01*
X35644037Y-123315092D01*
X35656446Y-123327501D01*
X35757349Y-123403037D01*
X35772761Y-123411452D01*
X35891897Y-123455888D01*
X35906871Y-123459426D01*
X35955424Y-123464646D01*
X35962021Y-123465000D01*
X36655213Y-123465000D01*
X36668088Y-123461549D01*
X36671539Y-123448674D01*
X37171539Y-123448674D01*
X37174989Y-123461549D01*
X37187865Y-123465000D01*
X37881057Y-123465000D01*
X37887653Y-123464646D01*
X37936206Y-123459426D01*
X37951180Y-123455888D01*
X38070316Y-123411452D01*
X38085728Y-123403037D01*
X38186631Y-123327501D01*
X38199040Y-123315092D01*
X38274576Y-123214189D01*
X38282991Y-123198777D01*
X38327427Y-123079641D01*
X38330965Y-123064667D01*
X38336185Y-123016114D01*
X38336539Y-123009518D01*
X38336539Y-122646289D01*
X38354812Y-122581499D01*
X38404244Y-122535804D01*
X38470268Y-122522671D01*
X38533424Y-122545971D01*
X38575099Y-122598835D01*
X38622355Y-122712920D01*
X38751106Y-122923023D01*
X38754270Y-122926728D01*
X38754274Y-122926733D01*
X38862195Y-123053092D01*
X38911140Y-123110399D01*
X38914847Y-123113565D01*
X39094805Y-123267264D01*
X39094808Y-123267266D01*
X39098516Y-123270433D01*
X39308619Y-123399184D01*
X39536277Y-123493483D01*
X39775884Y-123551007D01*
X40021539Y-123570341D01*
X40267194Y-123551007D01*
X40506801Y-123493483D01*
X40734459Y-123399184D01*
X40944562Y-123270433D01*
X41131938Y-123110399D01*
X41291972Y-122923023D01*
X41420723Y-122712920D01*
X41515022Y-122485262D01*
X41572546Y-122245655D01*
X41583617Y-122104993D01*
X41900064Y-122104993D01*
X41900833Y-122110022D01*
X41900834Y-122110028D01*
X41936603Y-122343778D01*
X41936604Y-122343784D01*
X41937374Y-122348813D01*
X41938954Y-122353647D01*
X41938955Y-122353651D01*
X41994199Y-122522671D01*
X42014005Y-122583266D01*
X42016352Y-122587775D01*
X42016354Y-122587779D01*
X42081499Y-122712920D01*
X42127899Y-122802054D01*
X42130953Y-122806122D01*
X42130954Y-122806123D01*
X42218724Y-122923023D01*
X42275997Y-122999303D01*
X42454323Y-123169714D01*
X42578882Y-123254682D01*
X42653882Y-123305844D01*
X42653885Y-123305846D01*
X42658087Y-123308712D01*
X42881817Y-123412564D01*
X43119504Y-123478481D01*
X43364765Y-123504692D01*
X43611014Y-123490493D01*
X43851638Y-123436266D01*
X44080173Y-123343468D01*
X44290484Y-123214589D01*
X44476921Y-123053092D01*
X44634478Y-122863313D01*
X44758924Y-122650350D01*
X44846916Y-122419921D01*
X44896092Y-122178215D01*
X44902627Y-122000000D01*
X46751198Y-122000000D01*
X46770532Y-122245655D01*
X46771667Y-122250384D01*
X46771668Y-122250388D01*
X46826918Y-122480525D01*
X46826920Y-122480533D01*
X46828056Y-122485262D01*
X46922355Y-122712920D01*
X47051106Y-122923023D01*
X47054270Y-122926728D01*
X47054274Y-122926733D01*
X47162195Y-123053092D01*
X47211140Y-123110399D01*
X47214847Y-123113565D01*
X47394805Y-123267264D01*
X47394808Y-123267266D01*
X47398516Y-123270433D01*
X47608619Y-123399184D01*
X47836277Y-123493483D01*
X48075884Y-123551007D01*
X48321539Y-123570341D01*
X48567194Y-123551007D01*
X48806801Y-123493483D01*
X49034459Y-123399184D01*
X49244562Y-123270433D01*
X49431938Y-123110399D01*
X49591972Y-122923023D01*
X49720723Y-122712920D01*
X49815022Y-122485262D01*
X49872546Y-122245655D01*
X49891880Y-122000000D01*
X49872546Y-121754345D01*
X49815022Y-121514738D01*
X49720723Y-121287080D01*
X49591972Y-121076977D01*
X49518098Y-120990482D01*
X49435104Y-120893308D01*
X49431938Y-120889601D01*
X49394219Y-120857386D01*
X49248272Y-120732735D01*
X49248267Y-120732731D01*
X49244562Y-120729567D01*
X49034459Y-120600816D01*
X48806801Y-120506517D01*
X48802072Y-120505381D01*
X48802064Y-120505379D01*
X48571927Y-120450129D01*
X48571923Y-120450128D01*
X48567194Y-120448993D01*
X48562341Y-120448611D01*
X48326393Y-120430041D01*
X48321539Y-120429659D01*
X48316685Y-120430041D01*
X48080736Y-120448611D01*
X48080734Y-120448611D01*
X48075884Y-120448993D01*
X48071156Y-120450127D01*
X48071150Y-120450129D01*
X47841013Y-120505379D01*
X47841001Y-120505382D01*
X47836277Y-120506517D01*
X47831780Y-120508379D01*
X47831776Y-120508381D01*
X47613123Y-120598950D01*
X47613118Y-120598952D01*
X47608619Y-120600816D01*
X47604466Y-120603360D01*
X47604460Y-120603364D01*
X47402673Y-120727019D01*
X47402667Y-120727022D01*
X47398516Y-120729567D01*
X47394816Y-120732726D01*
X47394805Y-120732735D01*
X47214847Y-120886434D01*
X47214840Y-120886440D01*
X47211140Y-120889601D01*
X47207979Y-120893301D01*
X47207973Y-120893308D01*
X47054274Y-121073266D01*
X47054265Y-121073277D01*
X47051106Y-121076977D01*
X47048561Y-121081128D01*
X47048558Y-121081134D01*
X46924903Y-121282921D01*
X46924899Y-121282927D01*
X46922355Y-121287080D01*
X46920491Y-121291579D01*
X46920489Y-121291584D01*
X46856425Y-121446248D01*
X46828056Y-121514738D01*
X46826921Y-121519462D01*
X46826918Y-121519474D01*
X46771668Y-121749611D01*
X46771666Y-121749617D01*
X46770532Y-121754345D01*
X46751198Y-122000000D01*
X44902627Y-122000000D01*
X44905131Y-121931722D01*
X44904485Y-121926679D01*
X44874435Y-121692106D01*
X44874434Y-121692104D01*
X44873789Y-121687064D01*
X44802909Y-121450809D01*
X44694395Y-121229303D01*
X44551160Y-121028495D01*
X44547568Y-121024890D01*
X44380648Y-120857386D01*
X44380644Y-120857382D01*
X44377051Y-120853777D01*
X44208603Y-120732735D01*
X44180879Y-120712813D01*
X44180876Y-120712811D01*
X44176744Y-120709842D01*
X43955618Y-120600555D01*
X43950750Y-120599075D01*
X43950745Y-120599074D01*
X43769839Y-120544111D01*
X43719613Y-120528851D01*
X43714572Y-120528187D01*
X43714566Y-120528186D01*
X43478339Y-120497087D01*
X43478338Y-120497086D01*
X43475065Y-120496656D01*
X43471771Y-120496575D01*
X43471765Y-120496575D01*
X43404847Y-120494939D01*
X43404831Y-120494939D01*
X43401539Y-120494859D01*
X43398244Y-120495129D01*
X43398240Y-120495130D01*
X43160784Y-120514652D01*
X43160773Y-120514653D01*
X43155710Y-120515070D01*
X43150779Y-120516308D01*
X43150770Y-120516310D01*
X42921420Y-120573919D01*
X42921418Y-120573919D01*
X42916484Y-120575159D01*
X42911816Y-120577188D01*
X42911815Y-120577189D01*
X42694947Y-120671485D01*
X42694936Y-120671490D01*
X42690283Y-120673514D01*
X42686024Y-120676268D01*
X42686015Y-120676274D01*
X42487452Y-120804730D01*
X42487444Y-120804735D01*
X42483184Y-120807492D01*
X42479430Y-120810907D01*
X42479422Y-120810914D01*
X42304507Y-120970075D01*
X42304497Y-120970084D01*
X42300749Y-120973496D01*
X42297602Y-120977480D01*
X42297599Y-120977484D01*
X42151026Y-121163077D01*
X42151021Y-121163084D01*
X42147875Y-121167068D01*
X42145424Y-121171507D01*
X42145418Y-121171517D01*
X42031129Y-121378553D01*
X42028670Y-121383008D01*
X42026973Y-121387799D01*
X42026969Y-121387809D01*
X41983615Y-121510237D01*
X41946333Y-121615518D01*
X41945442Y-121620518D01*
X41945439Y-121620531D01*
X41903970Y-121853343D01*
X41903969Y-121853349D01*
X41903078Y-121858354D01*
X41903016Y-121863427D01*
X41903015Y-121863438D01*
X41900126Y-122099902D01*
X41900064Y-122104993D01*
X41583617Y-122104993D01*
X41591880Y-122000000D01*
X41572546Y-121754345D01*
X41515022Y-121514738D01*
X41420723Y-121287080D01*
X41291972Y-121076977D01*
X41218098Y-120990482D01*
X41135104Y-120893308D01*
X41131938Y-120889601D01*
X41094219Y-120857386D01*
X40948272Y-120732735D01*
X40948267Y-120732731D01*
X40944562Y-120729567D01*
X40734459Y-120600816D01*
X40506801Y-120506517D01*
X40502072Y-120505381D01*
X40502064Y-120505379D01*
X40271927Y-120450129D01*
X40271923Y-120450128D01*
X40267194Y-120448993D01*
X40262341Y-120448611D01*
X40026393Y-120430041D01*
X40021539Y-120429659D01*
X40016685Y-120430041D01*
X39780736Y-120448611D01*
X39780734Y-120448611D01*
X39775884Y-120448993D01*
X39771156Y-120450127D01*
X39771150Y-120450129D01*
X39541013Y-120505379D01*
X39541001Y-120505382D01*
X39536277Y-120506517D01*
X39531780Y-120508379D01*
X39531776Y-120508381D01*
X39313123Y-120598950D01*
X39313118Y-120598952D01*
X39308619Y-120600816D01*
X39304466Y-120603360D01*
X39304460Y-120603364D01*
X39102673Y-120727019D01*
X39102667Y-120727022D01*
X39098516Y-120729567D01*
X39094816Y-120732726D01*
X39094805Y-120732735D01*
X38914847Y-120886434D01*
X38914840Y-120886440D01*
X38911140Y-120889601D01*
X38907979Y-120893301D01*
X38907973Y-120893308D01*
X38754274Y-121073266D01*
X38754265Y-121073277D01*
X38751106Y-121076977D01*
X38748561Y-121081128D01*
X38748558Y-121081134D01*
X38624903Y-121282921D01*
X38624899Y-121282927D01*
X38622355Y-121287080D01*
X38620491Y-121291579D01*
X38620489Y-121291584D01*
X38575100Y-121401164D01*
X38533424Y-121454029D01*
X38470268Y-121477329D01*
X38404244Y-121464196D01*
X38354812Y-121418501D01*
X38336539Y-121353711D01*
X38336539Y-120990482D01*
X38336185Y-120983885D01*
X38330965Y-120935332D01*
X38327427Y-120920358D01*
X38282991Y-120801222D01*
X38274576Y-120785810D01*
X38199040Y-120684907D01*
X38186631Y-120672498D01*
X38085728Y-120596962D01*
X38070316Y-120588547D01*
X37951180Y-120544111D01*
X37936206Y-120540573D01*
X37887653Y-120535353D01*
X37881057Y-120535000D01*
X37187865Y-120535000D01*
X37174989Y-120538450D01*
X37171539Y-120551326D01*
X37171539Y-123448674D01*
X36671539Y-123448674D01*
X36671539Y-122266326D01*
X36668088Y-122253450D01*
X36655213Y-122250000D01*
X35522865Y-122250000D01*
X35509989Y-122253450D01*
X35506539Y-122266326D01*
X35506539Y-123009518D01*
X34696559Y-123009518D01*
X34770433Y-122923023D01*
X34899184Y-122712920D01*
X34993483Y-122485262D01*
X35051007Y-122245655D01*
X35070341Y-122000000D01*
X35051007Y-121754345D01*
X35046044Y-121733674D01*
X35506539Y-121733674D01*
X35509989Y-121746549D01*
X35522865Y-121750000D01*
X36655213Y-121750000D01*
X36668088Y-121746549D01*
X36671539Y-121733674D01*
X36671539Y-120551326D01*
X36668088Y-120538450D01*
X36655213Y-120535000D01*
X35962021Y-120535000D01*
X35955424Y-120535353D01*
X35906871Y-120540573D01*
X35891897Y-120544111D01*
X35772761Y-120588547D01*
X35757349Y-120596962D01*
X35656446Y-120672498D01*
X35644037Y-120684907D01*
X35568501Y-120785810D01*
X35560086Y-120801222D01*
X35515650Y-120920358D01*
X35512112Y-120935332D01*
X35506892Y-120983885D01*
X35506539Y-120990482D01*
X35506539Y-121733674D01*
X35046044Y-121733674D01*
X34993483Y-121514738D01*
X34899184Y-121287080D01*
X34770433Y-121076977D01*
X34696559Y-120990482D01*
X34613565Y-120893308D01*
X34610399Y-120889601D01*
X34572680Y-120857386D01*
X34426733Y-120732735D01*
X34426728Y-120732731D01*
X34423023Y-120729567D01*
X34212920Y-120600816D01*
X33985262Y-120506517D01*
X33980533Y-120505381D01*
X33980525Y-120505379D01*
X33750388Y-120450129D01*
X33750384Y-120450128D01*
X33745655Y-120448993D01*
X33740802Y-120448611D01*
X33504854Y-120430041D01*
X33500000Y-120429659D01*
X33495146Y-120430041D01*
X33259197Y-120448611D01*
X33259195Y-120448611D01*
X33254345Y-120448993D01*
X33249617Y-120450127D01*
X33249611Y-120450129D01*
X33019474Y-120505379D01*
X33019462Y-120505382D01*
X33014738Y-120506517D01*
X33010241Y-120508379D01*
X33010237Y-120508381D01*
X32791584Y-120598950D01*
X32791579Y-120598952D01*
X32787080Y-120600816D01*
X32782927Y-120603360D01*
X32782921Y-120603364D01*
X32581134Y-120727019D01*
X32581128Y-120727022D01*
X32576977Y-120729567D01*
X32573277Y-120732726D01*
X32573266Y-120732735D01*
X32393308Y-120886434D01*
X32393301Y-120886440D01*
X32389601Y-120889601D01*
X32386440Y-120893301D01*
X32386434Y-120893308D01*
X32232735Y-121073266D01*
X32232726Y-121073277D01*
X32229567Y-121076977D01*
X32227022Y-121081128D01*
X32227019Y-121081134D01*
X32103364Y-121282921D01*
X32103360Y-121282927D01*
X32100816Y-121287080D01*
X32098952Y-121291579D01*
X32098950Y-121291584D01*
X32034886Y-121446248D01*
X32006517Y-121514738D01*
X32005382Y-121519462D01*
X32005379Y-121519474D01*
X31950129Y-121749611D01*
X31950127Y-121749617D01*
X31948993Y-121754345D01*
X31929659Y-122000000D01*
X30081088Y-122000000D01*
X30083592Y-121931722D01*
X30082946Y-121926679D01*
X30052896Y-121692106D01*
X30052895Y-121692104D01*
X30052250Y-121687064D01*
X29981370Y-121450809D01*
X29872856Y-121229303D01*
X29729621Y-121028495D01*
X29726029Y-121024890D01*
X29559109Y-120857386D01*
X29559105Y-120857382D01*
X29555512Y-120853777D01*
X29387064Y-120732735D01*
X29359340Y-120712813D01*
X29359337Y-120712811D01*
X29355205Y-120709842D01*
X29134079Y-120600555D01*
X29129211Y-120599075D01*
X29129206Y-120599074D01*
X28948300Y-120544111D01*
X28898074Y-120528851D01*
X28893033Y-120528187D01*
X28893027Y-120528186D01*
X28656800Y-120497087D01*
X28656799Y-120497086D01*
X28653526Y-120496656D01*
X28650232Y-120496575D01*
X28650226Y-120496575D01*
X28583308Y-120494939D01*
X28583292Y-120494939D01*
X28580000Y-120494859D01*
X28576705Y-120495129D01*
X28576701Y-120495130D01*
X28339245Y-120514652D01*
X28339234Y-120514653D01*
X28334171Y-120515070D01*
X28329240Y-120516308D01*
X28329231Y-120516310D01*
X28099881Y-120573919D01*
X28099879Y-120573919D01*
X28094945Y-120575159D01*
X28090277Y-120577188D01*
X28090276Y-120577189D01*
X27873408Y-120671485D01*
X27873397Y-120671490D01*
X27868744Y-120673514D01*
X27864485Y-120676268D01*
X27864476Y-120676274D01*
X27665913Y-120804730D01*
X27665905Y-120804735D01*
X27661645Y-120807492D01*
X27657891Y-120810907D01*
X27657883Y-120810914D01*
X27482968Y-120970075D01*
X27482958Y-120970084D01*
X27479210Y-120973496D01*
X27476063Y-120977480D01*
X27476060Y-120977484D01*
X27329487Y-121163077D01*
X27329482Y-121163084D01*
X27326336Y-121167068D01*
X27323885Y-121171507D01*
X27323879Y-121171517D01*
X27209590Y-121378553D01*
X27207131Y-121383008D01*
X27205434Y-121387799D01*
X27205430Y-121387809D01*
X27162076Y-121510237D01*
X27124794Y-121615518D01*
X27123903Y-121620518D01*
X27123900Y-121620531D01*
X27082431Y-121853343D01*
X27082430Y-121853349D01*
X27081539Y-121858354D01*
X27081477Y-121863427D01*
X27081476Y-121863438D01*
X27078587Y-122099902D01*
X27078525Y-122104993D01*
X26762078Y-122104993D01*
X26770341Y-122000000D01*
X26751007Y-121754345D01*
X26693483Y-121514738D01*
X26599184Y-121287080D01*
X26470433Y-121076977D01*
X26396559Y-120990482D01*
X26313565Y-120893308D01*
X26310399Y-120889601D01*
X26272680Y-120857386D01*
X26126733Y-120732735D01*
X26126728Y-120732731D01*
X26123023Y-120729567D01*
X25912920Y-120600816D01*
X25685262Y-120506517D01*
X25680533Y-120505381D01*
X25680525Y-120505379D01*
X25450388Y-120450129D01*
X25450384Y-120450128D01*
X25445655Y-120448993D01*
X25440802Y-120448611D01*
X25204854Y-120430041D01*
X25200000Y-120429659D01*
X25195146Y-120430041D01*
X24959197Y-120448611D01*
X24959195Y-120448611D01*
X24954345Y-120448993D01*
X24949617Y-120450127D01*
X24949611Y-120450129D01*
X24719474Y-120505379D01*
X24719462Y-120505382D01*
X24714738Y-120506517D01*
X24710241Y-120508379D01*
X24710237Y-120508381D01*
X24491584Y-120598950D01*
X24491579Y-120598952D01*
X24487080Y-120600816D01*
X24482927Y-120603360D01*
X24482921Y-120603364D01*
X24281134Y-120727019D01*
X24281128Y-120727022D01*
X24276977Y-120729567D01*
X24273277Y-120732726D01*
X24273266Y-120732735D01*
X24093308Y-120886434D01*
X24093301Y-120886440D01*
X24089601Y-120889601D01*
X24086440Y-120893301D01*
X24086434Y-120893308D01*
X23932735Y-121073266D01*
X23932726Y-121073277D01*
X23929567Y-121076977D01*
X23927022Y-121081128D01*
X23927019Y-121081134D01*
X23803364Y-121282921D01*
X23803360Y-121282927D01*
X23800816Y-121287080D01*
X23798952Y-121291579D01*
X23798950Y-121291584D01*
X23753561Y-121401164D01*
X23711885Y-121454029D01*
X23648729Y-121477329D01*
X23582705Y-121464196D01*
X23533273Y-121418501D01*
X23515000Y-121353711D01*
X23515000Y-120990482D01*
X23514646Y-120983885D01*
X23509426Y-120935332D01*
X23505888Y-120920358D01*
X23461452Y-120801222D01*
X23453037Y-120785810D01*
X23377501Y-120684907D01*
X23365092Y-120672498D01*
X23264189Y-120596962D01*
X23248777Y-120588547D01*
X23129641Y-120544111D01*
X23114667Y-120540573D01*
X23066114Y-120535353D01*
X23059518Y-120535000D01*
X22366326Y-120535000D01*
X22353450Y-120538450D01*
X22350000Y-120551326D01*
X22350000Y-123448674D01*
X21850000Y-123448674D01*
X21850000Y-122266326D01*
X21846549Y-122253450D01*
X21833674Y-122250000D01*
X20701326Y-122250000D01*
X20688450Y-122253450D01*
X20685000Y-122266326D01*
X20685000Y-123009518D01*
X20000500Y-123009518D01*
X20000500Y-121733674D01*
X20685000Y-121733674D01*
X20688450Y-121746549D01*
X20701326Y-121750000D01*
X21833674Y-121750000D01*
X21846549Y-121746549D01*
X21850000Y-121733674D01*
X21850000Y-120551326D01*
X21846549Y-120538450D01*
X21833674Y-120535000D01*
X21140482Y-120535000D01*
X21133885Y-120535353D01*
X21085332Y-120540573D01*
X21070358Y-120544111D01*
X20951222Y-120588547D01*
X20935810Y-120596962D01*
X20834907Y-120672498D01*
X20822498Y-120684907D01*
X20746962Y-120785810D01*
X20738547Y-120801222D01*
X20694111Y-120920358D01*
X20690573Y-120935332D01*
X20685353Y-120983885D01*
X20685000Y-120990482D01*
X20685000Y-121733674D01*
X20000500Y-121733674D01*
X20000500Y-111709518D01*
X35285000Y-111709518D01*
X35285353Y-111716114D01*
X35290573Y-111764667D01*
X35294111Y-111779641D01*
X35338547Y-111898777D01*
X35346962Y-111914189D01*
X35422498Y-112015092D01*
X35434907Y-112027501D01*
X35535810Y-112103037D01*
X35551222Y-112111452D01*
X35670358Y-112155888D01*
X35685332Y-112159426D01*
X35733885Y-112164646D01*
X35740482Y-112165000D01*
X36433674Y-112165000D01*
X36446549Y-112161549D01*
X36450000Y-112148674D01*
X36950000Y-112148674D01*
X36953450Y-112161549D01*
X36966326Y-112165000D01*
X37659518Y-112165000D01*
X37666114Y-112164646D01*
X37714667Y-112159426D01*
X37729641Y-112155888D01*
X37848777Y-112111452D01*
X37864189Y-112103037D01*
X37965092Y-112027501D01*
X37977501Y-112015092D01*
X38053037Y-111914189D01*
X38061452Y-111898777D01*
X38105888Y-111779641D01*
X38109426Y-111764667D01*
X38114646Y-111716114D01*
X38115000Y-111709518D01*
X38115000Y-111346289D01*
X38133273Y-111281499D01*
X38182705Y-111235804D01*
X38248729Y-111222671D01*
X38311885Y-111245971D01*
X38353560Y-111298835D01*
X38400816Y-111412920D01*
X38529567Y-111623023D01*
X38532731Y-111626728D01*
X38532735Y-111626733D01*
X38640656Y-111753092D01*
X38689601Y-111810399D01*
X38693308Y-111813565D01*
X38873266Y-111967264D01*
X38873269Y-111967266D01*
X38876977Y-111970433D01*
X39087080Y-112099184D01*
X39314738Y-112193483D01*
X39554345Y-112251007D01*
X39800000Y-112270341D01*
X40045655Y-112251007D01*
X40285262Y-112193483D01*
X40512920Y-112099184D01*
X40723023Y-111970433D01*
X40910399Y-111810399D01*
X41070433Y-111623023D01*
X41199184Y-111412920D01*
X41293483Y-111185262D01*
X41351007Y-110945655D01*
X41362078Y-110804993D01*
X41678525Y-110804993D01*
X41679294Y-110810022D01*
X41679295Y-110810028D01*
X41715064Y-111043778D01*
X41715065Y-111043784D01*
X41715835Y-111048813D01*
X41717415Y-111053647D01*
X41717416Y-111053651D01*
X41772660Y-111222671D01*
X41792466Y-111283266D01*
X41794813Y-111287775D01*
X41794815Y-111287779D01*
X41859960Y-111412920D01*
X41906360Y-111502054D01*
X41909414Y-111506122D01*
X41909415Y-111506123D01*
X41997185Y-111623023D01*
X42054458Y-111699303D01*
X42232784Y-111869714D01*
X42357343Y-111954682D01*
X42432343Y-112005844D01*
X42432346Y-112005846D01*
X42436548Y-112008712D01*
X42660278Y-112112564D01*
X42897965Y-112178481D01*
X43143226Y-112204692D01*
X43389475Y-112190493D01*
X43630099Y-112136266D01*
X43858634Y-112043468D01*
X44068945Y-111914589D01*
X44255382Y-111753092D01*
X44412939Y-111563313D01*
X44537385Y-111350350D01*
X44625377Y-111119921D01*
X44674553Y-110878215D01*
X44681088Y-110700000D01*
X46529659Y-110700000D01*
X46548993Y-110945655D01*
X46550128Y-110950384D01*
X46550129Y-110950388D01*
X46605379Y-111180525D01*
X46605381Y-111180533D01*
X46606517Y-111185262D01*
X46700816Y-111412920D01*
X46829567Y-111623023D01*
X46832731Y-111626728D01*
X46832735Y-111626733D01*
X46940656Y-111753092D01*
X46989601Y-111810399D01*
X46993308Y-111813565D01*
X47173266Y-111967264D01*
X47173269Y-111967266D01*
X47176977Y-111970433D01*
X47387080Y-112099184D01*
X47614738Y-112193483D01*
X47854345Y-112251007D01*
X48100000Y-112270341D01*
X48345655Y-112251007D01*
X48585262Y-112193483D01*
X48812920Y-112099184D01*
X49023023Y-111970433D01*
X49210399Y-111810399D01*
X49370433Y-111623023D01*
X49499184Y-111412920D01*
X49593483Y-111185262D01*
X49651007Y-110945655D01*
X49670341Y-110700000D01*
X49651007Y-110454345D01*
X49593483Y-110214738D01*
X49499184Y-109987080D01*
X49370433Y-109776977D01*
X49296559Y-109690482D01*
X49213565Y-109593308D01*
X49210399Y-109589601D01*
X49172680Y-109557386D01*
X49026733Y-109432735D01*
X49026728Y-109432731D01*
X49023023Y-109429567D01*
X48812920Y-109300816D01*
X48585262Y-109206517D01*
X48580533Y-109205381D01*
X48580525Y-109205379D01*
X48350388Y-109150129D01*
X48350384Y-109150128D01*
X48345655Y-109148993D01*
X48340802Y-109148611D01*
X48104854Y-109130041D01*
X48100000Y-109129659D01*
X48095146Y-109130041D01*
X47859197Y-109148611D01*
X47859195Y-109148611D01*
X47854345Y-109148993D01*
X47849617Y-109150127D01*
X47849611Y-109150129D01*
X47619474Y-109205379D01*
X47619462Y-109205382D01*
X47614738Y-109206517D01*
X47610241Y-109208379D01*
X47610237Y-109208381D01*
X47391584Y-109298950D01*
X47391579Y-109298952D01*
X47387080Y-109300816D01*
X47382927Y-109303360D01*
X47382921Y-109303364D01*
X47181134Y-109427019D01*
X47181128Y-109427022D01*
X47176977Y-109429567D01*
X47173277Y-109432726D01*
X47173266Y-109432735D01*
X46993308Y-109586434D01*
X46993301Y-109586440D01*
X46989601Y-109589601D01*
X46986440Y-109593301D01*
X46986434Y-109593308D01*
X46832735Y-109773266D01*
X46832726Y-109773277D01*
X46829567Y-109776977D01*
X46827022Y-109781128D01*
X46827019Y-109781134D01*
X46703364Y-109982921D01*
X46703360Y-109982927D01*
X46700816Y-109987080D01*
X46698952Y-109991579D01*
X46698950Y-109991584D01*
X46634886Y-110146248D01*
X46606517Y-110214738D01*
X46605382Y-110219462D01*
X46605379Y-110219474D01*
X46550129Y-110449611D01*
X46550127Y-110449617D01*
X46548993Y-110454345D01*
X46529659Y-110700000D01*
X44681088Y-110700000D01*
X44683592Y-110631722D01*
X44682946Y-110626679D01*
X44652896Y-110392106D01*
X44652895Y-110392104D01*
X44652250Y-110387064D01*
X44581370Y-110150809D01*
X44472856Y-109929303D01*
X44329621Y-109728495D01*
X44326029Y-109724890D01*
X44159109Y-109557386D01*
X44159105Y-109557382D01*
X44155512Y-109553777D01*
X43987064Y-109432735D01*
X43959340Y-109412813D01*
X43959337Y-109412811D01*
X43955205Y-109409842D01*
X43734079Y-109300555D01*
X43729211Y-109299075D01*
X43729206Y-109299074D01*
X43548300Y-109244111D01*
X43498074Y-109228851D01*
X43493033Y-109228187D01*
X43493027Y-109228186D01*
X43256800Y-109197087D01*
X43256799Y-109197086D01*
X43253526Y-109196656D01*
X43250232Y-109196575D01*
X43250226Y-109196575D01*
X43183308Y-109194939D01*
X43183292Y-109194939D01*
X43180000Y-109194859D01*
X43176705Y-109195129D01*
X43176701Y-109195130D01*
X42939245Y-109214652D01*
X42939234Y-109214653D01*
X42934171Y-109215070D01*
X42929240Y-109216308D01*
X42929231Y-109216310D01*
X42699881Y-109273919D01*
X42699879Y-109273919D01*
X42694945Y-109275159D01*
X42690277Y-109277188D01*
X42690276Y-109277189D01*
X42473408Y-109371485D01*
X42473397Y-109371490D01*
X42468744Y-109373514D01*
X42464485Y-109376268D01*
X42464476Y-109376274D01*
X42265913Y-109504730D01*
X42265905Y-109504735D01*
X42261645Y-109507492D01*
X42257891Y-109510907D01*
X42257883Y-109510914D01*
X42082968Y-109670075D01*
X42082958Y-109670084D01*
X42079210Y-109673496D01*
X42076063Y-109677480D01*
X42076060Y-109677484D01*
X41929487Y-109863077D01*
X41929482Y-109863084D01*
X41926336Y-109867068D01*
X41923885Y-109871507D01*
X41923879Y-109871517D01*
X41809590Y-110078553D01*
X41807131Y-110083008D01*
X41805434Y-110087799D01*
X41805430Y-110087809D01*
X41762076Y-110210237D01*
X41724794Y-110315518D01*
X41723903Y-110320518D01*
X41723900Y-110320531D01*
X41682431Y-110553343D01*
X41682430Y-110553349D01*
X41681539Y-110558354D01*
X41681477Y-110563427D01*
X41681476Y-110563438D01*
X41678587Y-110799902D01*
X41678525Y-110804993D01*
X41362078Y-110804993D01*
X41370341Y-110700000D01*
X41351007Y-110454345D01*
X41293483Y-110214738D01*
X41199184Y-109987080D01*
X41070433Y-109776977D01*
X40996559Y-109690482D01*
X40913565Y-109593308D01*
X40910399Y-109589601D01*
X40872680Y-109557386D01*
X40726733Y-109432735D01*
X40726728Y-109432731D01*
X40723023Y-109429567D01*
X40512920Y-109300816D01*
X40285262Y-109206517D01*
X40280533Y-109205381D01*
X40280525Y-109205379D01*
X40050388Y-109150129D01*
X40050384Y-109150128D01*
X40045655Y-109148993D01*
X40040802Y-109148611D01*
X39804854Y-109130041D01*
X39800000Y-109129659D01*
X39795146Y-109130041D01*
X39559197Y-109148611D01*
X39559195Y-109148611D01*
X39554345Y-109148993D01*
X39549617Y-109150127D01*
X39549611Y-109150129D01*
X39319474Y-109205379D01*
X39319462Y-109205382D01*
X39314738Y-109206517D01*
X39310241Y-109208379D01*
X39310237Y-109208381D01*
X39091584Y-109298950D01*
X39091579Y-109298952D01*
X39087080Y-109300816D01*
X39082927Y-109303360D01*
X39082921Y-109303364D01*
X38881134Y-109427019D01*
X38881128Y-109427022D01*
X38876977Y-109429567D01*
X38873277Y-109432726D01*
X38873266Y-109432735D01*
X38693308Y-109586434D01*
X38693301Y-109586440D01*
X38689601Y-109589601D01*
X38686440Y-109593301D01*
X38686434Y-109593308D01*
X38532735Y-109773266D01*
X38532726Y-109773277D01*
X38529567Y-109776977D01*
X38527022Y-109781128D01*
X38527019Y-109781134D01*
X38403364Y-109982921D01*
X38403360Y-109982927D01*
X38400816Y-109987080D01*
X38398952Y-109991579D01*
X38398950Y-109991584D01*
X38353561Y-110101164D01*
X38311885Y-110154029D01*
X38248729Y-110177329D01*
X38182705Y-110164196D01*
X38133273Y-110118501D01*
X38115000Y-110053711D01*
X38115000Y-109690482D01*
X38114646Y-109683885D01*
X38109426Y-109635332D01*
X38105888Y-109620358D01*
X38061452Y-109501222D01*
X38053037Y-109485810D01*
X37977501Y-109384907D01*
X37965092Y-109372498D01*
X37864189Y-109296962D01*
X37848777Y-109288547D01*
X37729641Y-109244111D01*
X37714667Y-109240573D01*
X37666114Y-109235353D01*
X37659518Y-109235000D01*
X36966326Y-109235000D01*
X36953450Y-109238450D01*
X36950000Y-109251326D01*
X36950000Y-112148674D01*
X36450000Y-112148674D01*
X36450000Y-110966326D01*
X36446549Y-110953450D01*
X36433674Y-110950000D01*
X35301326Y-110950000D01*
X35288450Y-110953450D01*
X35285000Y-110966326D01*
X35285000Y-111709518D01*
X20000500Y-111709518D01*
X20000500Y-110433674D01*
X35285000Y-110433674D01*
X35288450Y-110446549D01*
X35301326Y-110450000D01*
X36433674Y-110450000D01*
X36446549Y-110446549D01*
X36450000Y-110433674D01*
X36450000Y-109251326D01*
X36446549Y-109238450D01*
X36433674Y-109235000D01*
X35740482Y-109235000D01*
X35733885Y-109235353D01*
X35685332Y-109240573D01*
X35670358Y-109244111D01*
X35551222Y-109288547D01*
X35535810Y-109296962D01*
X35434907Y-109372498D01*
X35422498Y-109384907D01*
X35346962Y-109485810D01*
X35338547Y-109501222D01*
X35294111Y-109620358D01*
X35290573Y-109635332D01*
X35285353Y-109683885D01*
X35285000Y-109690482D01*
X35285000Y-110433674D01*
X20000500Y-110433674D01*
X20000500Y-105670000D01*
X23221459Y-105670000D01*
X23221617Y-105670383D01*
X23221901Y-105670500D01*
X23859500Y-105670500D01*
X23921500Y-105687113D01*
X23966887Y-105732500D01*
X23983500Y-105794500D01*
X23983500Y-106432099D01*
X23983617Y-106432383D01*
X23984000Y-106432541D01*
X23984383Y-106432383D01*
X23984500Y-106432099D01*
X23984500Y-105794500D01*
X24001113Y-105732500D01*
X24046500Y-105687113D01*
X24108500Y-105670500D01*
X24286955Y-105670500D01*
X24344211Y-105684510D01*
X24388529Y-105723376D01*
X24409894Y-105778314D01*
X24414956Y-105816762D01*
X24475464Y-105962841D01*
X24571718Y-106088282D01*
X24697159Y-106184536D01*
X24843238Y-106245044D01*
X24891685Y-106251422D01*
X24946623Y-106272786D01*
X24985489Y-106317104D01*
X24999500Y-106374361D01*
X24999500Y-106432099D01*
X24999617Y-106432383D01*
X25000000Y-106432541D01*
X25000383Y-106432383D01*
X25000500Y-106432099D01*
X25000500Y-106374361D01*
X25014511Y-106317104D01*
X25053377Y-106272786D01*
X25108314Y-106251422D01*
X25156762Y-106245044D01*
X25302841Y-106184536D01*
X25428282Y-106088282D01*
X25524536Y-105962841D01*
X25585044Y-105816762D01*
X25590105Y-105778314D01*
X25611471Y-105723376D01*
X25655789Y-105684510D01*
X25713045Y-105670500D01*
X26003944Y-105670500D01*
X26016099Y-105670500D01*
X26016383Y-105670383D01*
X26016541Y-105670000D01*
X26016383Y-105669617D01*
X26016099Y-105669500D01*
X26003944Y-105669500D01*
X25715678Y-105669500D01*
X25658421Y-105655489D01*
X25614103Y-105616624D01*
X25592739Y-105561686D01*
X25587386Y-105521031D01*
X25585044Y-105503238D01*
X25524536Y-105357159D01*
X25428282Y-105231718D01*
X25302841Y-105135464D01*
X25215633Y-105099341D01*
X25164271Y-105078066D01*
X25164268Y-105078065D01*
X25156762Y-105074956D01*
X25108314Y-105068577D01*
X25053377Y-105047214D01*
X25014511Y-105002896D01*
X25000500Y-104945639D01*
X25000500Y-104920056D01*
X25000500Y-104907901D01*
X25000383Y-104907617D01*
X25000000Y-104907459D01*
X24999617Y-104907617D01*
X24999500Y-104907901D01*
X24999500Y-104920056D01*
X24999500Y-104945639D01*
X24985489Y-105002896D01*
X24946623Y-105047214D01*
X24891685Y-105068577D01*
X24843238Y-105074956D01*
X24835733Y-105078064D01*
X24835728Y-105078066D01*
X24704666Y-105132354D01*
X24704662Y-105132355D01*
X24697159Y-105135464D01*
X24690714Y-105140408D01*
X24690711Y-105140411D01*
X24578164Y-105226771D01*
X24578160Y-105226774D01*
X24571718Y-105231718D01*
X24566774Y-105238160D01*
X24566771Y-105238164D01*
X24480411Y-105350711D01*
X24480408Y-105350714D01*
X24475464Y-105357159D01*
X24472355Y-105364662D01*
X24472354Y-105364666D01*
X24418066Y-105495728D01*
X24418064Y-105495733D01*
X24414956Y-105503238D01*
X24413895Y-105511294D01*
X24413895Y-105511296D01*
X24407261Y-105561686D01*
X24385897Y-105616624D01*
X24341579Y-105655489D01*
X24284322Y-105669500D01*
X24108500Y-105669500D01*
X24046500Y-105652887D01*
X24001113Y-105607500D01*
X23984500Y-105545500D01*
X23984500Y-104920056D01*
X23984500Y-104907901D01*
X23984383Y-104907617D01*
X23984000Y-104907459D01*
X23983617Y-104907617D01*
X23983500Y-104907901D01*
X23983500Y-104920056D01*
X23983500Y-105545500D01*
X23966887Y-105607500D01*
X23921500Y-105652887D01*
X23859500Y-105669500D01*
X23221901Y-105669500D01*
X23221617Y-105669617D01*
X23221459Y-105670000D01*
X20000500Y-105670000D01*
X20000500Y-103716704D01*
X31094659Y-103716704D01*
X31095256Y-103722766D01*
X31113378Y-103906771D01*
X31113379Y-103906777D01*
X31113976Y-103912836D01*
X31115743Y-103918661D01*
X31115744Y-103918666D01*
X31117175Y-103923382D01*
X31171186Y-104101431D01*
X31174055Y-104106799D01*
X31174057Y-104106803D01*
X31261215Y-104269865D01*
X31261219Y-104269871D01*
X31264090Y-104275242D01*
X31267956Y-104279953D01*
X31267957Y-104279954D01*
X31385254Y-104422880D01*
X31389117Y-104427587D01*
X31541462Y-104552614D01*
X31546834Y-104555485D01*
X31546838Y-104555488D01*
X31688839Y-104631388D01*
X31715273Y-104645518D01*
X31903868Y-104702728D01*
X32100000Y-104722045D01*
X32296132Y-104702728D01*
X32484727Y-104645518D01*
X32658538Y-104552614D01*
X32810883Y-104427587D01*
X32935910Y-104275242D01*
X33028814Y-104101431D01*
X33086024Y-103912836D01*
X33105341Y-103716704D01*
X33086024Y-103520572D01*
X33028814Y-103331977D01*
X33014684Y-103305543D01*
X32938784Y-103163542D01*
X32938781Y-103163538D01*
X32935910Y-103158166D01*
X32810883Y-103005821D01*
X32658538Y-102880794D01*
X32653167Y-102877923D01*
X32653161Y-102877919D01*
X32490099Y-102790761D01*
X32490095Y-102790759D01*
X32484727Y-102787890D01*
X32478899Y-102786122D01*
X32301962Y-102732448D01*
X32301957Y-102732447D01*
X32296132Y-102730680D01*
X32290073Y-102730083D01*
X32290067Y-102730082D01*
X32106062Y-102711960D01*
X32100000Y-102711363D01*
X32093938Y-102711960D01*
X31909932Y-102730082D01*
X31909924Y-102730083D01*
X31903868Y-102730680D01*
X31898044Y-102732446D01*
X31898037Y-102732448D01*
X31721100Y-102786122D01*
X31721096Y-102786123D01*
X31715273Y-102787890D01*
X31709907Y-102790757D01*
X31709900Y-102790761D01*
X31546838Y-102877919D01*
X31546827Y-102877926D01*
X31541462Y-102880794D01*
X31536754Y-102884657D01*
X31536749Y-102884661D01*
X31393823Y-103001958D01*
X31393818Y-103001962D01*
X31389117Y-103005821D01*
X31385258Y-103010522D01*
X31385254Y-103010527D01*
X31267957Y-103153453D01*
X31267953Y-103153458D01*
X31264090Y-103158166D01*
X31261222Y-103163531D01*
X31261215Y-103163542D01*
X31174057Y-103326604D01*
X31174053Y-103326611D01*
X31171186Y-103331977D01*
X31169419Y-103337800D01*
X31169418Y-103337804D01*
X31115744Y-103514741D01*
X31115742Y-103514748D01*
X31113976Y-103520572D01*
X31113379Y-103526628D01*
X31113378Y-103526636D01*
X31095856Y-103704551D01*
X31094659Y-103716704D01*
X20000500Y-103716704D01*
X20000500Y-101709518D01*
X35285000Y-101709518D01*
X35285353Y-101716114D01*
X35290573Y-101764667D01*
X35294111Y-101779641D01*
X35338547Y-101898777D01*
X35346962Y-101914189D01*
X35422498Y-102015092D01*
X35434907Y-102027501D01*
X35535810Y-102103037D01*
X35551222Y-102111452D01*
X35670358Y-102155888D01*
X35685332Y-102159426D01*
X35733885Y-102164646D01*
X35740482Y-102165000D01*
X36433674Y-102165000D01*
X36446549Y-102161549D01*
X36450000Y-102148674D01*
X36950000Y-102148674D01*
X36953450Y-102161549D01*
X36966326Y-102165000D01*
X37659518Y-102165000D01*
X37666114Y-102164646D01*
X37714667Y-102159426D01*
X37729641Y-102155888D01*
X37848777Y-102111452D01*
X37864189Y-102103037D01*
X37965092Y-102027501D01*
X37977501Y-102015092D01*
X38053037Y-101914189D01*
X38061452Y-101898777D01*
X38105888Y-101779641D01*
X38109426Y-101764667D01*
X38114646Y-101716114D01*
X38115000Y-101709518D01*
X38115000Y-101346289D01*
X38133273Y-101281499D01*
X38182705Y-101235804D01*
X38248729Y-101222671D01*
X38311885Y-101245971D01*
X38353560Y-101298835D01*
X38400816Y-101412920D01*
X38529567Y-101623023D01*
X38532731Y-101626728D01*
X38532735Y-101626733D01*
X38640656Y-101753092D01*
X38689601Y-101810399D01*
X38693308Y-101813565D01*
X38873266Y-101967264D01*
X38873269Y-101967266D01*
X38876977Y-101970433D01*
X39087080Y-102099184D01*
X39314738Y-102193483D01*
X39554345Y-102251007D01*
X39800000Y-102270341D01*
X40045655Y-102251007D01*
X40285262Y-102193483D01*
X40512920Y-102099184D01*
X40723023Y-101970433D01*
X40910399Y-101810399D01*
X41070433Y-101623023D01*
X41199184Y-101412920D01*
X41293483Y-101185262D01*
X41351007Y-100945655D01*
X41362078Y-100804993D01*
X41678525Y-100804993D01*
X41679294Y-100810022D01*
X41679295Y-100810028D01*
X41715064Y-101043778D01*
X41715065Y-101043784D01*
X41715835Y-101048813D01*
X41717415Y-101053647D01*
X41717416Y-101053651D01*
X41772660Y-101222671D01*
X41792466Y-101283266D01*
X41794813Y-101287775D01*
X41794815Y-101287779D01*
X41859960Y-101412920D01*
X41906360Y-101502054D01*
X41909414Y-101506122D01*
X41909415Y-101506123D01*
X41997185Y-101623023D01*
X42054458Y-101699303D01*
X42232784Y-101869714D01*
X42357343Y-101954682D01*
X42432343Y-102005844D01*
X42432346Y-102005846D01*
X42436548Y-102008712D01*
X42660278Y-102112564D01*
X42897965Y-102178481D01*
X43143226Y-102204692D01*
X43389475Y-102190493D01*
X43630099Y-102136266D01*
X43858634Y-102043468D01*
X44068945Y-101914589D01*
X44255382Y-101753092D01*
X44412939Y-101563313D01*
X44537385Y-101350350D01*
X44625377Y-101119921D01*
X44674553Y-100878215D01*
X44681088Y-100700000D01*
X46529659Y-100700000D01*
X46548993Y-100945655D01*
X46550128Y-100950384D01*
X46550129Y-100950388D01*
X46605379Y-101180525D01*
X46605381Y-101180533D01*
X46606517Y-101185262D01*
X46700816Y-101412920D01*
X46829567Y-101623023D01*
X46832731Y-101626728D01*
X46832735Y-101626733D01*
X46940656Y-101753092D01*
X46989601Y-101810399D01*
X46993308Y-101813565D01*
X47173266Y-101967264D01*
X47173269Y-101967266D01*
X47176977Y-101970433D01*
X47387080Y-102099184D01*
X47614738Y-102193483D01*
X47854345Y-102251007D01*
X48100000Y-102270341D01*
X48345655Y-102251007D01*
X48585262Y-102193483D01*
X48812920Y-102099184D01*
X49023023Y-101970433D01*
X49210399Y-101810399D01*
X49370433Y-101623023D01*
X49499184Y-101412920D01*
X49593483Y-101185262D01*
X49651007Y-100945655D01*
X49670341Y-100700000D01*
X49651007Y-100454345D01*
X49593483Y-100214738D01*
X49499184Y-99987080D01*
X49370433Y-99776977D01*
X49296559Y-99690482D01*
X49213565Y-99593308D01*
X49210399Y-99589601D01*
X49172680Y-99557386D01*
X49026733Y-99432735D01*
X49026728Y-99432731D01*
X49023023Y-99429567D01*
X48812920Y-99300816D01*
X48585262Y-99206517D01*
X48580533Y-99205381D01*
X48580525Y-99205379D01*
X48350388Y-99150129D01*
X48350384Y-99150128D01*
X48345655Y-99148993D01*
X48340802Y-99148611D01*
X48104854Y-99130041D01*
X48100000Y-99129659D01*
X48095146Y-99130041D01*
X47859197Y-99148611D01*
X47859195Y-99148611D01*
X47854345Y-99148993D01*
X47849617Y-99150127D01*
X47849611Y-99150129D01*
X47619474Y-99205379D01*
X47619462Y-99205382D01*
X47614738Y-99206517D01*
X47610241Y-99208379D01*
X47610237Y-99208381D01*
X47391584Y-99298950D01*
X47391579Y-99298952D01*
X47387080Y-99300816D01*
X47382927Y-99303360D01*
X47382921Y-99303364D01*
X47181134Y-99427019D01*
X47181128Y-99427022D01*
X47176977Y-99429567D01*
X47173277Y-99432726D01*
X47173266Y-99432735D01*
X46993308Y-99586434D01*
X46993301Y-99586440D01*
X46989601Y-99589601D01*
X46986440Y-99593301D01*
X46986434Y-99593308D01*
X46832735Y-99773266D01*
X46832726Y-99773277D01*
X46829567Y-99776977D01*
X46827022Y-99781128D01*
X46827019Y-99781134D01*
X46703364Y-99982921D01*
X46703360Y-99982927D01*
X46700816Y-99987080D01*
X46698952Y-99991579D01*
X46698950Y-99991584D01*
X46634886Y-100146248D01*
X46606517Y-100214738D01*
X46605382Y-100219462D01*
X46605379Y-100219474D01*
X46550129Y-100449611D01*
X46550127Y-100449617D01*
X46548993Y-100454345D01*
X46529659Y-100700000D01*
X44681088Y-100700000D01*
X44683592Y-100631722D01*
X44682946Y-100626679D01*
X44652896Y-100392106D01*
X44652895Y-100392104D01*
X44652250Y-100387064D01*
X44581370Y-100150809D01*
X44472856Y-99929303D01*
X44329621Y-99728495D01*
X44326029Y-99724890D01*
X44159109Y-99557386D01*
X44159105Y-99557382D01*
X44155512Y-99553777D01*
X43987064Y-99432735D01*
X43959340Y-99412813D01*
X43959337Y-99412811D01*
X43955205Y-99409842D01*
X43734079Y-99300555D01*
X43729211Y-99299075D01*
X43729206Y-99299074D01*
X43548300Y-99244111D01*
X43498074Y-99228851D01*
X43493033Y-99228187D01*
X43493027Y-99228186D01*
X43256800Y-99197087D01*
X43256799Y-99197086D01*
X43253526Y-99196656D01*
X43250232Y-99196575D01*
X43250226Y-99196575D01*
X43183308Y-99194939D01*
X43183292Y-99194939D01*
X43180000Y-99194859D01*
X43176705Y-99195129D01*
X43176701Y-99195130D01*
X42939245Y-99214652D01*
X42939234Y-99214653D01*
X42934171Y-99215070D01*
X42929240Y-99216308D01*
X42929231Y-99216310D01*
X42699881Y-99273919D01*
X42699879Y-99273919D01*
X42694945Y-99275159D01*
X42690277Y-99277188D01*
X42690276Y-99277189D01*
X42473408Y-99371485D01*
X42473397Y-99371490D01*
X42468744Y-99373514D01*
X42464485Y-99376268D01*
X42464476Y-99376274D01*
X42265913Y-99504730D01*
X42265905Y-99504735D01*
X42261645Y-99507492D01*
X42257891Y-99510907D01*
X42257883Y-99510914D01*
X42082968Y-99670075D01*
X42082958Y-99670084D01*
X42079210Y-99673496D01*
X42076063Y-99677480D01*
X42076060Y-99677484D01*
X41929487Y-99863077D01*
X41929482Y-99863084D01*
X41926336Y-99867068D01*
X41923885Y-99871507D01*
X41923879Y-99871517D01*
X41809590Y-100078553D01*
X41807131Y-100083008D01*
X41805434Y-100087799D01*
X41805430Y-100087809D01*
X41762076Y-100210237D01*
X41724794Y-100315518D01*
X41723903Y-100320518D01*
X41723900Y-100320531D01*
X41682431Y-100553343D01*
X41682430Y-100553349D01*
X41681539Y-100558354D01*
X41681477Y-100563427D01*
X41681476Y-100563438D01*
X41678587Y-100799902D01*
X41678525Y-100804993D01*
X41362078Y-100804993D01*
X41370341Y-100700000D01*
X41351007Y-100454345D01*
X41293483Y-100214738D01*
X41199184Y-99987080D01*
X41070433Y-99776977D01*
X40996559Y-99690482D01*
X40913565Y-99593308D01*
X40910399Y-99589601D01*
X40872680Y-99557386D01*
X40726733Y-99432735D01*
X40726728Y-99432731D01*
X40723023Y-99429567D01*
X40512920Y-99300816D01*
X40285262Y-99206517D01*
X40280533Y-99205381D01*
X40280525Y-99205379D01*
X40050388Y-99150129D01*
X40050384Y-99150128D01*
X40045655Y-99148993D01*
X40040802Y-99148611D01*
X39804854Y-99130041D01*
X39800000Y-99129659D01*
X39795146Y-99130041D01*
X39559197Y-99148611D01*
X39559195Y-99148611D01*
X39554345Y-99148993D01*
X39549617Y-99150127D01*
X39549611Y-99150129D01*
X39319474Y-99205379D01*
X39319462Y-99205382D01*
X39314738Y-99206517D01*
X39310241Y-99208379D01*
X39310237Y-99208381D01*
X39091584Y-99298950D01*
X39091579Y-99298952D01*
X39087080Y-99300816D01*
X39082927Y-99303360D01*
X39082921Y-99303364D01*
X38881134Y-99427019D01*
X38881128Y-99427022D01*
X38876977Y-99429567D01*
X38873277Y-99432726D01*
X38873266Y-99432735D01*
X38693308Y-99586434D01*
X38693301Y-99586440D01*
X38689601Y-99589601D01*
X38686440Y-99593301D01*
X38686434Y-99593308D01*
X38532735Y-99773266D01*
X38532726Y-99773277D01*
X38529567Y-99776977D01*
X38527022Y-99781128D01*
X38527019Y-99781134D01*
X38403364Y-99982921D01*
X38403360Y-99982927D01*
X38400816Y-99987080D01*
X38398952Y-99991579D01*
X38398950Y-99991584D01*
X38353561Y-100101164D01*
X38311885Y-100154029D01*
X38248729Y-100177329D01*
X38182705Y-100164196D01*
X38133273Y-100118501D01*
X38115000Y-100053711D01*
X38115000Y-99690482D01*
X38114646Y-99683885D01*
X38109426Y-99635332D01*
X38105888Y-99620358D01*
X38061452Y-99501222D01*
X38053037Y-99485810D01*
X37977501Y-99384907D01*
X37965092Y-99372498D01*
X37864189Y-99296962D01*
X37848777Y-99288547D01*
X37729641Y-99244111D01*
X37714667Y-99240573D01*
X37666114Y-99235353D01*
X37659518Y-99235000D01*
X36966326Y-99235000D01*
X36953450Y-99238450D01*
X36950000Y-99251326D01*
X36950000Y-102148674D01*
X36450000Y-102148674D01*
X36450000Y-100966326D01*
X36446549Y-100953450D01*
X36433674Y-100950000D01*
X35301326Y-100950000D01*
X35288450Y-100953450D01*
X35285000Y-100966326D01*
X35285000Y-101709518D01*
X20000500Y-101709518D01*
X20000500Y-100433674D01*
X35285000Y-100433674D01*
X35288450Y-100446549D01*
X35301326Y-100450000D01*
X36433674Y-100450000D01*
X36446549Y-100446549D01*
X36450000Y-100433674D01*
X36450000Y-99251326D01*
X36446549Y-99238450D01*
X36433674Y-99235000D01*
X35740482Y-99235000D01*
X35733885Y-99235353D01*
X35685332Y-99240573D01*
X35670358Y-99244111D01*
X35551222Y-99288547D01*
X35535810Y-99296962D01*
X35434907Y-99372498D01*
X35422498Y-99384907D01*
X35346962Y-99485810D01*
X35338547Y-99501222D01*
X35294111Y-99620358D01*
X35290573Y-99635332D01*
X35285353Y-99683885D01*
X35285000Y-99690482D01*
X35285000Y-100433674D01*
X20000500Y-100433674D01*
X20000500Y-94958352D01*
X31094659Y-94958352D01*
X31095256Y-94964414D01*
X31113378Y-95148419D01*
X31113379Y-95148425D01*
X31113976Y-95154484D01*
X31115743Y-95160309D01*
X31115744Y-95160314D01*
X31117175Y-95165030D01*
X31171186Y-95343079D01*
X31174055Y-95348447D01*
X31174057Y-95348451D01*
X31261215Y-95511513D01*
X31261219Y-95511519D01*
X31264090Y-95516890D01*
X31267956Y-95521601D01*
X31267957Y-95521602D01*
X31385254Y-95664528D01*
X31389117Y-95669235D01*
X31541462Y-95794262D01*
X31546834Y-95797133D01*
X31546838Y-95797136D01*
X31688839Y-95873036D01*
X31715273Y-95887166D01*
X31903868Y-95944376D01*
X32100000Y-95963693D01*
X32296132Y-95944376D01*
X32484727Y-95887166D01*
X32658538Y-95794262D01*
X32810883Y-95669235D01*
X32935910Y-95516890D01*
X33028814Y-95343079D01*
X33086024Y-95154484D01*
X33105341Y-94958352D01*
X33086024Y-94762220D01*
X33028814Y-94573625D01*
X33014684Y-94547191D01*
X32938784Y-94405190D01*
X32938781Y-94405186D01*
X32935910Y-94399814D01*
X32810883Y-94247469D01*
X32658538Y-94122442D01*
X32653167Y-94119571D01*
X32653161Y-94119567D01*
X32490099Y-94032409D01*
X32490095Y-94032407D01*
X32484727Y-94029538D01*
X32478899Y-94027770D01*
X32301962Y-93974096D01*
X32301957Y-93974095D01*
X32296132Y-93972328D01*
X32290073Y-93971731D01*
X32290067Y-93971730D01*
X32106062Y-93953608D01*
X32100000Y-93953011D01*
X32093938Y-93953608D01*
X31909932Y-93971730D01*
X31909924Y-93971731D01*
X31903868Y-93972328D01*
X31898044Y-93974094D01*
X31898037Y-93974096D01*
X31721100Y-94027770D01*
X31721096Y-94027771D01*
X31715273Y-94029538D01*
X31709907Y-94032405D01*
X31709900Y-94032409D01*
X31546838Y-94119567D01*
X31546827Y-94119574D01*
X31541462Y-94122442D01*
X31536754Y-94126305D01*
X31536749Y-94126309D01*
X31393823Y-94243606D01*
X31393818Y-94243610D01*
X31389117Y-94247469D01*
X31385258Y-94252170D01*
X31385254Y-94252175D01*
X31267957Y-94395101D01*
X31267953Y-94395106D01*
X31264090Y-94399814D01*
X31261222Y-94405179D01*
X31261215Y-94405190D01*
X31174057Y-94568252D01*
X31174053Y-94568259D01*
X31171186Y-94573625D01*
X31169419Y-94579448D01*
X31169418Y-94579452D01*
X31115744Y-94756389D01*
X31115742Y-94756396D01*
X31113976Y-94762220D01*
X31113379Y-94768276D01*
X31113378Y-94768284D01*
X31095856Y-94946199D01*
X31094659Y-94958352D01*
X20000500Y-94958352D01*
X20000500Y-91709518D01*
X35285000Y-91709518D01*
X35285353Y-91716114D01*
X35290573Y-91764667D01*
X35294111Y-91779641D01*
X35338547Y-91898777D01*
X35346962Y-91914189D01*
X35422498Y-92015092D01*
X35434907Y-92027501D01*
X35535810Y-92103037D01*
X35551222Y-92111452D01*
X35670358Y-92155888D01*
X35685332Y-92159426D01*
X35733885Y-92164646D01*
X35740482Y-92165000D01*
X36433674Y-92165000D01*
X36446549Y-92161549D01*
X36450000Y-92148674D01*
X36950000Y-92148674D01*
X36953450Y-92161549D01*
X36966326Y-92165000D01*
X37659518Y-92165000D01*
X37666114Y-92164646D01*
X37714667Y-92159426D01*
X37729641Y-92155888D01*
X37848777Y-92111452D01*
X37864189Y-92103037D01*
X37965092Y-92027501D01*
X37977501Y-92015092D01*
X38053037Y-91914189D01*
X38061452Y-91898777D01*
X38105888Y-91779641D01*
X38109426Y-91764667D01*
X38114646Y-91716114D01*
X38115000Y-91709518D01*
X38115000Y-91346289D01*
X38133273Y-91281499D01*
X38182705Y-91235804D01*
X38248729Y-91222671D01*
X38311885Y-91245971D01*
X38353560Y-91298835D01*
X38400816Y-91412920D01*
X38529567Y-91623023D01*
X38532731Y-91626728D01*
X38532735Y-91626733D01*
X38640656Y-91753092D01*
X38689601Y-91810399D01*
X38693308Y-91813565D01*
X38873266Y-91967264D01*
X38873269Y-91967266D01*
X38876977Y-91970433D01*
X39087080Y-92099184D01*
X39314738Y-92193483D01*
X39554345Y-92251007D01*
X39800000Y-92270341D01*
X40045655Y-92251007D01*
X40285262Y-92193483D01*
X40512920Y-92099184D01*
X40723023Y-91970433D01*
X40910399Y-91810399D01*
X41070433Y-91623023D01*
X41199184Y-91412920D01*
X41293483Y-91185262D01*
X41351007Y-90945655D01*
X41362078Y-90804993D01*
X41678525Y-90804993D01*
X41679294Y-90810022D01*
X41679295Y-90810028D01*
X41715064Y-91043778D01*
X41715065Y-91043784D01*
X41715835Y-91048813D01*
X41717415Y-91053647D01*
X41717416Y-91053651D01*
X41772660Y-91222671D01*
X41792466Y-91283266D01*
X41794813Y-91287775D01*
X41794815Y-91287779D01*
X41859960Y-91412920D01*
X41906360Y-91502054D01*
X41909414Y-91506122D01*
X41909415Y-91506123D01*
X41997185Y-91623023D01*
X42054458Y-91699303D01*
X42232784Y-91869714D01*
X42357343Y-91954682D01*
X42432343Y-92005844D01*
X42432346Y-92005846D01*
X42436548Y-92008712D01*
X42660278Y-92112564D01*
X42897965Y-92178481D01*
X43143226Y-92204692D01*
X43389475Y-92190493D01*
X43630099Y-92136266D01*
X43858634Y-92043468D01*
X44068945Y-91914589D01*
X44255382Y-91753092D01*
X44412939Y-91563313D01*
X44537385Y-91350350D01*
X44625377Y-91119921D01*
X44674553Y-90878215D01*
X44681088Y-90700000D01*
X46529659Y-90700000D01*
X46548993Y-90945655D01*
X46550128Y-90950384D01*
X46550129Y-90950388D01*
X46605379Y-91180525D01*
X46605381Y-91180533D01*
X46606517Y-91185262D01*
X46700816Y-91412920D01*
X46829567Y-91623023D01*
X46832731Y-91626728D01*
X46832735Y-91626733D01*
X46940656Y-91753092D01*
X46989601Y-91810399D01*
X46993308Y-91813565D01*
X47173266Y-91967264D01*
X47173269Y-91967266D01*
X47176977Y-91970433D01*
X47387080Y-92099184D01*
X47614738Y-92193483D01*
X47854345Y-92251007D01*
X48100000Y-92270341D01*
X48345655Y-92251007D01*
X48585262Y-92193483D01*
X48812920Y-92099184D01*
X49023023Y-91970433D01*
X49210399Y-91810399D01*
X49370433Y-91623023D01*
X49499184Y-91412920D01*
X49593483Y-91185262D01*
X49651007Y-90945655D01*
X49670341Y-90700000D01*
X49651007Y-90454345D01*
X49593483Y-90214738D01*
X49499184Y-89987080D01*
X49370433Y-89776977D01*
X49296559Y-89690482D01*
X49213565Y-89593308D01*
X49210399Y-89589601D01*
X49172680Y-89557386D01*
X49026733Y-89432735D01*
X49026728Y-89432731D01*
X49023023Y-89429567D01*
X48812920Y-89300816D01*
X48585262Y-89206517D01*
X48580533Y-89205381D01*
X48580525Y-89205379D01*
X48350388Y-89150129D01*
X48350384Y-89150128D01*
X48345655Y-89148993D01*
X48340802Y-89148611D01*
X48104854Y-89130041D01*
X48100000Y-89129659D01*
X48095146Y-89130041D01*
X47859197Y-89148611D01*
X47859195Y-89148611D01*
X47854345Y-89148993D01*
X47849617Y-89150127D01*
X47849611Y-89150129D01*
X47619474Y-89205379D01*
X47619462Y-89205382D01*
X47614738Y-89206517D01*
X47610241Y-89208379D01*
X47610237Y-89208381D01*
X47391584Y-89298950D01*
X47391579Y-89298952D01*
X47387080Y-89300816D01*
X47382927Y-89303360D01*
X47382921Y-89303364D01*
X47181134Y-89427019D01*
X47181128Y-89427022D01*
X47176977Y-89429567D01*
X47173277Y-89432726D01*
X47173266Y-89432735D01*
X46993308Y-89586434D01*
X46993301Y-89586440D01*
X46989601Y-89589601D01*
X46986440Y-89593301D01*
X46986434Y-89593308D01*
X46832735Y-89773266D01*
X46832726Y-89773277D01*
X46829567Y-89776977D01*
X46827022Y-89781128D01*
X46827019Y-89781134D01*
X46703364Y-89982921D01*
X46703360Y-89982927D01*
X46700816Y-89987080D01*
X46698952Y-89991579D01*
X46698950Y-89991584D01*
X46634886Y-90146248D01*
X46606517Y-90214738D01*
X46605382Y-90219462D01*
X46605379Y-90219474D01*
X46550129Y-90449611D01*
X46550127Y-90449617D01*
X46548993Y-90454345D01*
X46529659Y-90700000D01*
X44681088Y-90700000D01*
X44683592Y-90631722D01*
X44682946Y-90626679D01*
X44652896Y-90392106D01*
X44652895Y-90392104D01*
X44652250Y-90387064D01*
X44581370Y-90150809D01*
X44472856Y-89929303D01*
X44329621Y-89728495D01*
X44326029Y-89724890D01*
X44159109Y-89557386D01*
X44159105Y-89557382D01*
X44155512Y-89553777D01*
X43987064Y-89432735D01*
X43959340Y-89412813D01*
X43959337Y-89412811D01*
X43955205Y-89409842D01*
X43734079Y-89300555D01*
X43729211Y-89299075D01*
X43729206Y-89299074D01*
X43548300Y-89244111D01*
X43498074Y-89228851D01*
X43493033Y-89228187D01*
X43493027Y-89228186D01*
X43256800Y-89197087D01*
X43256799Y-89197086D01*
X43253526Y-89196656D01*
X43250232Y-89196575D01*
X43250226Y-89196575D01*
X43183308Y-89194939D01*
X43183292Y-89194939D01*
X43180000Y-89194859D01*
X43176705Y-89195129D01*
X43176701Y-89195130D01*
X42939245Y-89214652D01*
X42939234Y-89214653D01*
X42934171Y-89215070D01*
X42929240Y-89216308D01*
X42929231Y-89216310D01*
X42699881Y-89273919D01*
X42699879Y-89273919D01*
X42694945Y-89275159D01*
X42690277Y-89277188D01*
X42690276Y-89277189D01*
X42473408Y-89371485D01*
X42473397Y-89371490D01*
X42468744Y-89373514D01*
X42464485Y-89376268D01*
X42464476Y-89376274D01*
X42265913Y-89504730D01*
X42265905Y-89504735D01*
X42261645Y-89507492D01*
X42257891Y-89510907D01*
X42257883Y-89510914D01*
X42082968Y-89670075D01*
X42082958Y-89670084D01*
X42079210Y-89673496D01*
X42076063Y-89677480D01*
X42076060Y-89677484D01*
X41929487Y-89863077D01*
X41929482Y-89863084D01*
X41926336Y-89867068D01*
X41923885Y-89871507D01*
X41923879Y-89871517D01*
X41809590Y-90078553D01*
X41807131Y-90083008D01*
X41805434Y-90087799D01*
X41805430Y-90087809D01*
X41762076Y-90210237D01*
X41724794Y-90315518D01*
X41723903Y-90320518D01*
X41723900Y-90320531D01*
X41682431Y-90553343D01*
X41682430Y-90553349D01*
X41681539Y-90558354D01*
X41681477Y-90563427D01*
X41681476Y-90563438D01*
X41678587Y-90799902D01*
X41678525Y-90804993D01*
X41362078Y-90804993D01*
X41370341Y-90700000D01*
X41351007Y-90454345D01*
X41293483Y-90214738D01*
X41199184Y-89987080D01*
X41070433Y-89776977D01*
X40996559Y-89690482D01*
X40913565Y-89593308D01*
X40910399Y-89589601D01*
X40872680Y-89557386D01*
X40726733Y-89432735D01*
X40726728Y-89432731D01*
X40723023Y-89429567D01*
X40512920Y-89300816D01*
X40285262Y-89206517D01*
X40280533Y-89205381D01*
X40280525Y-89205379D01*
X40050388Y-89150129D01*
X40050384Y-89150128D01*
X40045655Y-89148993D01*
X40040802Y-89148611D01*
X39804854Y-89130041D01*
X39800000Y-89129659D01*
X39795146Y-89130041D01*
X39559197Y-89148611D01*
X39559195Y-89148611D01*
X39554345Y-89148993D01*
X39549617Y-89150127D01*
X39549611Y-89150129D01*
X39319474Y-89205379D01*
X39319462Y-89205382D01*
X39314738Y-89206517D01*
X39310241Y-89208379D01*
X39310237Y-89208381D01*
X39091584Y-89298950D01*
X39091579Y-89298952D01*
X39087080Y-89300816D01*
X39082927Y-89303360D01*
X39082921Y-89303364D01*
X38881134Y-89427019D01*
X38881128Y-89427022D01*
X38876977Y-89429567D01*
X38873277Y-89432726D01*
X38873266Y-89432735D01*
X38693308Y-89586434D01*
X38693301Y-89586440D01*
X38689601Y-89589601D01*
X38686440Y-89593301D01*
X38686434Y-89593308D01*
X38532735Y-89773266D01*
X38532726Y-89773277D01*
X38529567Y-89776977D01*
X38527022Y-89781128D01*
X38527019Y-89781134D01*
X38403364Y-89982921D01*
X38403360Y-89982927D01*
X38400816Y-89987080D01*
X38398952Y-89991579D01*
X38398950Y-89991584D01*
X38353561Y-90101164D01*
X38311885Y-90154029D01*
X38248729Y-90177329D01*
X38182705Y-90164196D01*
X38133273Y-90118501D01*
X38115000Y-90053711D01*
X38115000Y-89690482D01*
X38114646Y-89683885D01*
X38109426Y-89635332D01*
X38105888Y-89620358D01*
X38061452Y-89501222D01*
X38053037Y-89485810D01*
X37977501Y-89384907D01*
X37965092Y-89372498D01*
X37864189Y-89296962D01*
X37848777Y-89288547D01*
X37729641Y-89244111D01*
X37714667Y-89240573D01*
X37666114Y-89235353D01*
X37659518Y-89235000D01*
X36966326Y-89235000D01*
X36953450Y-89238450D01*
X36950000Y-89251326D01*
X36950000Y-92148674D01*
X36450000Y-92148674D01*
X36450000Y-90966326D01*
X36446549Y-90953450D01*
X36433674Y-90950000D01*
X35301326Y-90950000D01*
X35288450Y-90953450D01*
X35285000Y-90966326D01*
X35285000Y-91709518D01*
X20000500Y-91709518D01*
X20000500Y-90433674D01*
X35285000Y-90433674D01*
X35288450Y-90446549D01*
X35301326Y-90450000D01*
X36433674Y-90450000D01*
X36446549Y-90446549D01*
X36450000Y-90433674D01*
X36450000Y-89251326D01*
X36446549Y-89238450D01*
X36433674Y-89235000D01*
X35740482Y-89235000D01*
X35733885Y-89235353D01*
X35685332Y-89240573D01*
X35670358Y-89244111D01*
X35551222Y-89288547D01*
X35535810Y-89296962D01*
X35434907Y-89372498D01*
X35422498Y-89384907D01*
X35346962Y-89485810D01*
X35338547Y-89501222D01*
X35294111Y-89620358D01*
X35290573Y-89635332D01*
X35285353Y-89683885D01*
X35285000Y-89690482D01*
X35285000Y-90433674D01*
X20000500Y-90433674D01*
X20000500Y-86216704D01*
X30894659Y-86216704D01*
X30895256Y-86222766D01*
X30913378Y-86406771D01*
X30913379Y-86406777D01*
X30913976Y-86412836D01*
X30915743Y-86418661D01*
X30915744Y-86418666D01*
X30917175Y-86423382D01*
X30971186Y-86601431D01*
X30974055Y-86606799D01*
X30974057Y-86606803D01*
X31061215Y-86769865D01*
X31061219Y-86769871D01*
X31064090Y-86775242D01*
X31067956Y-86779953D01*
X31067957Y-86779954D01*
X31185254Y-86922880D01*
X31189117Y-86927587D01*
X31341462Y-87052614D01*
X31346834Y-87055485D01*
X31346838Y-87055488D01*
X31488839Y-87131388D01*
X31515273Y-87145518D01*
X31703868Y-87202728D01*
X31900000Y-87222045D01*
X32096132Y-87202728D01*
X32284727Y-87145518D01*
X32458538Y-87052614D01*
X32610883Y-86927587D01*
X32735910Y-86775242D01*
X32828814Y-86601431D01*
X32886024Y-86412836D01*
X32905341Y-86216704D01*
X32886024Y-86020572D01*
X32828814Y-85831977D01*
X32814684Y-85805543D01*
X32738784Y-85663542D01*
X32738781Y-85663538D01*
X32735910Y-85658166D01*
X32610883Y-85505821D01*
X32458538Y-85380794D01*
X32453167Y-85377923D01*
X32453161Y-85377919D01*
X32290099Y-85290761D01*
X32290095Y-85290759D01*
X32284727Y-85287890D01*
X32278899Y-85286122D01*
X32101962Y-85232448D01*
X32101957Y-85232447D01*
X32096132Y-85230680D01*
X32090073Y-85230083D01*
X32090067Y-85230082D01*
X31906062Y-85211960D01*
X31900000Y-85211363D01*
X31893938Y-85211960D01*
X31709932Y-85230082D01*
X31709924Y-85230083D01*
X31703868Y-85230680D01*
X31698044Y-85232446D01*
X31698037Y-85232448D01*
X31521100Y-85286122D01*
X31521096Y-85286123D01*
X31515273Y-85287890D01*
X31509907Y-85290757D01*
X31509900Y-85290761D01*
X31346838Y-85377919D01*
X31346827Y-85377926D01*
X31341462Y-85380794D01*
X31336754Y-85384657D01*
X31336749Y-85384661D01*
X31193823Y-85501958D01*
X31193818Y-85501962D01*
X31189117Y-85505821D01*
X31185258Y-85510522D01*
X31185254Y-85510527D01*
X31067957Y-85653453D01*
X31067953Y-85653458D01*
X31064090Y-85658166D01*
X31061222Y-85663531D01*
X31061215Y-85663542D01*
X30974057Y-85826604D01*
X30974053Y-85826611D01*
X30971186Y-85831977D01*
X30969419Y-85837800D01*
X30969418Y-85837804D01*
X30915744Y-86014741D01*
X30915742Y-86014748D01*
X30913976Y-86020572D01*
X30913379Y-86026628D01*
X30913378Y-86026636D01*
X30895856Y-86204551D01*
X30894659Y-86216704D01*
X20000500Y-86216704D01*
X20000500Y-81709518D01*
X35285000Y-81709518D01*
X35285353Y-81716114D01*
X35290573Y-81764667D01*
X35294111Y-81779641D01*
X35338547Y-81898777D01*
X35346962Y-81914189D01*
X35422498Y-82015092D01*
X35434907Y-82027501D01*
X35535810Y-82103037D01*
X35551222Y-82111452D01*
X35670358Y-82155888D01*
X35685332Y-82159426D01*
X35733885Y-82164646D01*
X35740482Y-82165000D01*
X36433674Y-82165000D01*
X36446549Y-82161549D01*
X36450000Y-82148674D01*
X36950000Y-82148674D01*
X36953450Y-82161549D01*
X36966326Y-82165000D01*
X37659518Y-82165000D01*
X37666114Y-82164646D01*
X37714667Y-82159426D01*
X37729641Y-82155888D01*
X37848777Y-82111452D01*
X37864189Y-82103037D01*
X37965092Y-82027501D01*
X37977501Y-82015092D01*
X38053037Y-81914189D01*
X38061452Y-81898777D01*
X38105888Y-81779641D01*
X38109426Y-81764667D01*
X38114646Y-81716114D01*
X38115000Y-81709518D01*
X38115000Y-81346289D01*
X38133273Y-81281499D01*
X38182705Y-81235804D01*
X38248729Y-81222671D01*
X38311885Y-81245971D01*
X38353560Y-81298835D01*
X38400816Y-81412920D01*
X38529567Y-81623023D01*
X38532731Y-81626728D01*
X38532735Y-81626733D01*
X38640656Y-81753092D01*
X38689601Y-81810399D01*
X38693308Y-81813565D01*
X38873266Y-81967264D01*
X38873269Y-81967266D01*
X38876977Y-81970433D01*
X39087080Y-82099184D01*
X39314738Y-82193483D01*
X39554345Y-82251007D01*
X39800000Y-82270341D01*
X40045655Y-82251007D01*
X40285262Y-82193483D01*
X40512920Y-82099184D01*
X40723023Y-81970433D01*
X40910399Y-81810399D01*
X41070433Y-81623023D01*
X41199184Y-81412920D01*
X41293483Y-81185262D01*
X41351007Y-80945655D01*
X41362078Y-80804993D01*
X41678525Y-80804993D01*
X41679294Y-80810022D01*
X41679295Y-80810028D01*
X41715064Y-81043778D01*
X41715065Y-81043784D01*
X41715835Y-81048813D01*
X41717415Y-81053647D01*
X41717416Y-81053651D01*
X41772660Y-81222671D01*
X41792466Y-81283266D01*
X41794813Y-81287775D01*
X41794815Y-81287779D01*
X41859960Y-81412920D01*
X41906360Y-81502054D01*
X41909414Y-81506122D01*
X41909415Y-81506123D01*
X41997185Y-81623023D01*
X42054458Y-81699303D01*
X42232784Y-81869714D01*
X42357343Y-81954682D01*
X42432343Y-82005844D01*
X42432346Y-82005846D01*
X42436548Y-82008712D01*
X42660278Y-82112564D01*
X42897965Y-82178481D01*
X43143226Y-82204692D01*
X43389475Y-82190493D01*
X43630099Y-82136266D01*
X43858634Y-82043468D01*
X44068945Y-81914589D01*
X44255382Y-81753092D01*
X44412939Y-81563313D01*
X44537385Y-81350350D01*
X44625377Y-81119921D01*
X44674553Y-80878215D01*
X44681088Y-80700000D01*
X46529659Y-80700000D01*
X46548993Y-80945655D01*
X46550128Y-80950384D01*
X46550129Y-80950388D01*
X46605379Y-81180525D01*
X46605381Y-81180533D01*
X46606517Y-81185262D01*
X46700816Y-81412920D01*
X46829567Y-81623023D01*
X46832731Y-81626728D01*
X46832735Y-81626733D01*
X46940656Y-81753092D01*
X46989601Y-81810399D01*
X46993308Y-81813565D01*
X47173266Y-81967264D01*
X47173269Y-81967266D01*
X47176977Y-81970433D01*
X47387080Y-82099184D01*
X47614738Y-82193483D01*
X47854345Y-82251007D01*
X48100000Y-82270341D01*
X48345655Y-82251007D01*
X48585262Y-82193483D01*
X48812920Y-82099184D01*
X49023023Y-81970433D01*
X49210399Y-81810399D01*
X49370433Y-81623023D01*
X49499184Y-81412920D01*
X49593483Y-81185262D01*
X49651007Y-80945655D01*
X49670341Y-80700000D01*
X49651007Y-80454345D01*
X49593483Y-80214738D01*
X49499184Y-79987080D01*
X49370433Y-79776977D01*
X49296559Y-79690482D01*
X49213565Y-79593308D01*
X49210399Y-79589601D01*
X49172680Y-79557386D01*
X49026733Y-79432735D01*
X49026728Y-79432731D01*
X49023023Y-79429567D01*
X48812920Y-79300816D01*
X48585262Y-79206517D01*
X48580533Y-79205381D01*
X48580525Y-79205379D01*
X48350388Y-79150129D01*
X48350384Y-79150128D01*
X48345655Y-79148993D01*
X48340802Y-79148611D01*
X48104854Y-79130041D01*
X48100000Y-79129659D01*
X48095146Y-79130041D01*
X47859197Y-79148611D01*
X47859195Y-79148611D01*
X47854345Y-79148993D01*
X47849617Y-79150127D01*
X47849611Y-79150129D01*
X47619474Y-79205379D01*
X47619462Y-79205382D01*
X47614738Y-79206517D01*
X47610241Y-79208379D01*
X47610237Y-79208381D01*
X47391584Y-79298950D01*
X47391579Y-79298952D01*
X47387080Y-79300816D01*
X47382927Y-79303360D01*
X47382921Y-79303364D01*
X47181134Y-79427019D01*
X47181128Y-79427022D01*
X47176977Y-79429567D01*
X47173277Y-79432726D01*
X47173266Y-79432735D01*
X46993308Y-79586434D01*
X46993301Y-79586440D01*
X46989601Y-79589601D01*
X46986440Y-79593301D01*
X46986434Y-79593308D01*
X46832735Y-79773266D01*
X46832726Y-79773277D01*
X46829567Y-79776977D01*
X46827022Y-79781128D01*
X46827019Y-79781134D01*
X46703364Y-79982921D01*
X46703360Y-79982927D01*
X46700816Y-79987080D01*
X46698952Y-79991579D01*
X46698950Y-79991584D01*
X46634886Y-80146248D01*
X46606517Y-80214738D01*
X46605382Y-80219462D01*
X46605379Y-80219474D01*
X46550129Y-80449611D01*
X46550127Y-80449617D01*
X46548993Y-80454345D01*
X46529659Y-80700000D01*
X44681088Y-80700000D01*
X44683592Y-80631722D01*
X44682946Y-80626679D01*
X44652896Y-80392106D01*
X44652895Y-80392104D01*
X44652250Y-80387064D01*
X44581370Y-80150809D01*
X44472856Y-79929303D01*
X44329621Y-79728495D01*
X44326029Y-79724890D01*
X44159109Y-79557386D01*
X44159105Y-79557382D01*
X44155512Y-79553777D01*
X43987064Y-79432735D01*
X43959340Y-79412813D01*
X43959337Y-79412811D01*
X43955205Y-79409842D01*
X43734079Y-79300555D01*
X43729211Y-79299075D01*
X43729206Y-79299074D01*
X43548300Y-79244111D01*
X43498074Y-79228851D01*
X43493033Y-79228187D01*
X43493027Y-79228186D01*
X43256800Y-79197087D01*
X43256799Y-79197086D01*
X43253526Y-79196656D01*
X43250232Y-79196575D01*
X43250226Y-79196575D01*
X43183308Y-79194939D01*
X43183292Y-79194939D01*
X43180000Y-79194859D01*
X43176705Y-79195129D01*
X43176701Y-79195130D01*
X42939245Y-79214652D01*
X42939234Y-79214653D01*
X42934171Y-79215070D01*
X42929240Y-79216308D01*
X42929231Y-79216310D01*
X42699881Y-79273919D01*
X42699879Y-79273919D01*
X42694945Y-79275159D01*
X42690277Y-79277188D01*
X42690276Y-79277189D01*
X42473408Y-79371485D01*
X42473397Y-79371490D01*
X42468744Y-79373514D01*
X42464485Y-79376268D01*
X42464476Y-79376274D01*
X42265913Y-79504730D01*
X42265905Y-79504735D01*
X42261645Y-79507492D01*
X42257891Y-79510907D01*
X42257883Y-79510914D01*
X42082968Y-79670075D01*
X42082958Y-79670084D01*
X42079210Y-79673496D01*
X42076063Y-79677480D01*
X42076060Y-79677484D01*
X41929487Y-79863077D01*
X41929482Y-79863084D01*
X41926336Y-79867068D01*
X41923885Y-79871507D01*
X41923879Y-79871517D01*
X41809590Y-80078553D01*
X41807131Y-80083008D01*
X41805434Y-80087799D01*
X41805430Y-80087809D01*
X41762076Y-80210237D01*
X41724794Y-80315518D01*
X41723903Y-80320518D01*
X41723900Y-80320531D01*
X41682431Y-80553343D01*
X41682430Y-80553349D01*
X41681539Y-80558354D01*
X41681477Y-80563427D01*
X41681476Y-80563438D01*
X41678587Y-80799902D01*
X41678525Y-80804993D01*
X41362078Y-80804993D01*
X41370341Y-80700000D01*
X41351007Y-80454345D01*
X41293483Y-80214738D01*
X41199184Y-79987080D01*
X41070433Y-79776977D01*
X40996559Y-79690482D01*
X40913565Y-79593308D01*
X40910399Y-79589601D01*
X40872680Y-79557386D01*
X40726733Y-79432735D01*
X40726728Y-79432731D01*
X40723023Y-79429567D01*
X40512920Y-79300816D01*
X40285262Y-79206517D01*
X40280533Y-79205381D01*
X40280525Y-79205379D01*
X40050388Y-79150129D01*
X40050384Y-79150128D01*
X40045655Y-79148993D01*
X40040802Y-79148611D01*
X39804854Y-79130041D01*
X39800000Y-79129659D01*
X39795146Y-79130041D01*
X39559197Y-79148611D01*
X39559195Y-79148611D01*
X39554345Y-79148993D01*
X39549617Y-79150127D01*
X39549611Y-79150129D01*
X39319474Y-79205379D01*
X39319462Y-79205382D01*
X39314738Y-79206517D01*
X39310241Y-79208379D01*
X39310237Y-79208381D01*
X39091584Y-79298950D01*
X39091579Y-79298952D01*
X39087080Y-79300816D01*
X39082927Y-79303360D01*
X39082921Y-79303364D01*
X38881134Y-79427019D01*
X38881128Y-79427022D01*
X38876977Y-79429567D01*
X38873277Y-79432726D01*
X38873266Y-79432735D01*
X38693308Y-79586434D01*
X38693301Y-79586440D01*
X38689601Y-79589601D01*
X38686440Y-79593301D01*
X38686434Y-79593308D01*
X38532735Y-79773266D01*
X38532726Y-79773277D01*
X38529567Y-79776977D01*
X38527022Y-79781128D01*
X38527019Y-79781134D01*
X38403364Y-79982921D01*
X38403360Y-79982927D01*
X38400816Y-79987080D01*
X38398952Y-79991579D01*
X38398950Y-79991584D01*
X38353561Y-80101164D01*
X38311885Y-80154029D01*
X38248729Y-80177329D01*
X38182705Y-80164196D01*
X38133273Y-80118501D01*
X38115000Y-80053711D01*
X38115000Y-79690482D01*
X38114646Y-79683885D01*
X38109426Y-79635332D01*
X38105888Y-79620358D01*
X38061452Y-79501222D01*
X38053037Y-79485810D01*
X37977501Y-79384907D01*
X37965092Y-79372498D01*
X37864189Y-79296962D01*
X37848777Y-79288547D01*
X37729641Y-79244111D01*
X37714667Y-79240573D01*
X37666114Y-79235353D01*
X37659518Y-79235000D01*
X36966326Y-79235000D01*
X36953450Y-79238450D01*
X36950000Y-79251326D01*
X36950000Y-82148674D01*
X36450000Y-82148674D01*
X36450000Y-80966326D01*
X36446549Y-80953450D01*
X36433674Y-80950000D01*
X35301326Y-80950000D01*
X35288450Y-80953450D01*
X35285000Y-80966326D01*
X35285000Y-81709518D01*
X20000500Y-81709518D01*
X20000500Y-80433674D01*
X35285000Y-80433674D01*
X35288450Y-80446549D01*
X35301326Y-80450000D01*
X36433674Y-80450000D01*
X36446549Y-80446549D01*
X36450000Y-80433674D01*
X36450000Y-79251326D01*
X36446549Y-79238450D01*
X36433674Y-79235000D01*
X35740482Y-79235000D01*
X35733885Y-79235353D01*
X35685332Y-79240573D01*
X35670358Y-79244111D01*
X35551222Y-79288547D01*
X35535810Y-79296962D01*
X35434907Y-79372498D01*
X35422498Y-79384907D01*
X35346962Y-79485810D01*
X35338547Y-79501222D01*
X35294111Y-79620358D01*
X35290573Y-79635332D01*
X35285353Y-79683885D01*
X35285000Y-79690482D01*
X35285000Y-80433674D01*
X20000500Y-80433674D01*
X20000500Y-77458352D01*
X30894659Y-77458352D01*
X30895256Y-77464414D01*
X30913378Y-77648419D01*
X30913379Y-77648425D01*
X30913976Y-77654484D01*
X30915743Y-77660309D01*
X30915744Y-77660314D01*
X30917175Y-77665030D01*
X30971186Y-77843079D01*
X30974055Y-77848447D01*
X30974057Y-77848451D01*
X31061215Y-78011513D01*
X31061219Y-78011519D01*
X31064090Y-78016890D01*
X31067956Y-78021601D01*
X31067957Y-78021602D01*
X31185254Y-78164528D01*
X31189117Y-78169235D01*
X31341462Y-78294262D01*
X31346834Y-78297133D01*
X31346838Y-78297136D01*
X31488839Y-78373036D01*
X31515273Y-78387166D01*
X31703868Y-78444376D01*
X31900000Y-78463693D01*
X32096132Y-78444376D01*
X32284727Y-78387166D01*
X32458538Y-78294262D01*
X32610883Y-78169235D01*
X32735910Y-78016890D01*
X32828814Y-77843079D01*
X32886024Y-77654484D01*
X32905341Y-77458352D01*
X32886024Y-77262220D01*
X32828814Y-77073625D01*
X32814684Y-77047191D01*
X32738784Y-76905190D01*
X32738781Y-76905186D01*
X32735910Y-76899814D01*
X32610883Y-76747469D01*
X32458538Y-76622442D01*
X32453167Y-76619571D01*
X32453161Y-76619567D01*
X32290099Y-76532409D01*
X32290095Y-76532407D01*
X32284727Y-76529538D01*
X32278899Y-76527770D01*
X32101962Y-76474096D01*
X32101957Y-76474095D01*
X32096132Y-76472328D01*
X32090073Y-76471731D01*
X32090067Y-76471730D01*
X31906062Y-76453608D01*
X31900000Y-76453011D01*
X31893938Y-76453608D01*
X31709932Y-76471730D01*
X31709924Y-76471731D01*
X31703868Y-76472328D01*
X31698044Y-76474094D01*
X31698037Y-76474096D01*
X31521100Y-76527770D01*
X31521096Y-76527771D01*
X31515273Y-76529538D01*
X31509907Y-76532405D01*
X31509900Y-76532409D01*
X31346838Y-76619567D01*
X31346827Y-76619574D01*
X31341462Y-76622442D01*
X31336754Y-76626305D01*
X31336749Y-76626309D01*
X31193823Y-76743606D01*
X31193818Y-76743610D01*
X31189117Y-76747469D01*
X31185258Y-76752170D01*
X31185254Y-76752175D01*
X31067957Y-76895101D01*
X31067953Y-76895106D01*
X31064090Y-76899814D01*
X31061222Y-76905179D01*
X31061215Y-76905190D01*
X30974057Y-77068252D01*
X30974053Y-77068259D01*
X30971186Y-77073625D01*
X30969419Y-77079448D01*
X30969418Y-77079452D01*
X30915744Y-77256389D01*
X30915742Y-77256396D01*
X30913976Y-77262220D01*
X30913379Y-77268276D01*
X30913378Y-77268284D01*
X30895856Y-77446197D01*
X30894659Y-77458352D01*
X20000500Y-77458352D01*
X20000500Y-74269578D01*
X39099500Y-74269578D01*
X39099501Y-74272872D01*
X39099853Y-74276150D01*
X39099854Y-74276161D01*
X39105079Y-74324768D01*
X39105080Y-74324773D01*
X39105909Y-74332483D01*
X39108619Y-74339749D01*
X39108620Y-74339753D01*
X39137908Y-74418276D01*
X39156204Y-74467331D01*
X39242454Y-74582546D01*
X39357669Y-74668796D01*
X39492517Y-74719091D01*
X39552127Y-74725500D01*
X41447872Y-74725499D01*
X41507483Y-74719091D01*
X41642331Y-74668796D01*
X41757546Y-74582546D01*
X41843796Y-74467331D01*
X41862092Y-74418274D01*
X41894204Y-74370458D01*
X41944457Y-74342308D01*
X42002007Y-74339900D01*
X42054435Y-74363753D01*
X42231374Y-74501470D01*
X42435497Y-74611936D01*
X42655019Y-74687298D01*
X42883951Y-74725500D01*
X43110916Y-74725500D01*
X43116049Y-74725500D01*
X43344981Y-74687298D01*
X43564503Y-74611936D01*
X43768626Y-74501470D01*
X43951784Y-74358913D01*
X44108979Y-74188153D01*
X44146190Y-74131196D01*
X44190982Y-74089962D01*
X44250000Y-74075017D01*
X44309018Y-74089962D01*
X44353809Y-74131196D01*
X44388215Y-74183860D01*
X44388222Y-74183869D01*
X44391021Y-74188153D01*
X44548216Y-74358913D01*
X44731374Y-74501470D01*
X44935497Y-74611936D01*
X45155019Y-74687298D01*
X45383951Y-74725500D01*
X45610916Y-74725500D01*
X45616049Y-74725500D01*
X45844981Y-74687298D01*
X46064503Y-74611936D01*
X46268626Y-74501470D01*
X46451784Y-74358913D01*
X46608979Y-74188153D01*
X46735924Y-73993849D01*
X46829157Y-73781300D01*
X46886134Y-73556305D01*
X46905300Y-73325000D01*
X46886134Y-73093695D01*
X46829157Y-72868700D01*
X46735924Y-72656151D01*
X46608979Y-72461847D01*
X46451784Y-72291087D01*
X46268626Y-72148530D01*
X46214497Y-72119237D01*
X46069007Y-72040501D01*
X46069002Y-72040499D01*
X46064503Y-72038064D01*
X46059657Y-72036400D01*
X46059654Y-72036399D01*
X45849834Y-71964368D01*
X45849833Y-71964367D01*
X45844981Y-71962702D01*
X45839931Y-71961859D01*
X45839922Y-71961857D01*
X45621111Y-71925344D01*
X45621102Y-71925343D01*
X45616049Y-71924500D01*
X45383951Y-71924500D01*
X45378898Y-71925343D01*
X45378888Y-71925344D01*
X45160077Y-71961857D01*
X45160065Y-71961859D01*
X45155019Y-71962702D01*
X45150169Y-71964366D01*
X45150165Y-71964368D01*
X44940345Y-72036399D01*
X44940337Y-72036402D01*
X44935497Y-72038064D01*
X44931001Y-72040496D01*
X44930992Y-72040501D01*
X44735882Y-72146090D01*
X44735878Y-72146092D01*
X44731374Y-72148530D01*
X44727334Y-72151674D01*
X44727327Y-72151679D01*
X44552263Y-72287936D01*
X44552255Y-72287943D01*
X44548216Y-72291087D01*
X44544746Y-72294855D01*
X44544742Y-72294860D01*
X44394491Y-72458077D01*
X44394488Y-72458080D01*
X44391021Y-72461847D01*
X44388226Y-72466124D01*
X44388219Y-72466134D01*
X44353809Y-72518804D01*
X44309017Y-72560037D01*
X44250000Y-72574982D01*
X44190983Y-72560037D01*
X44146191Y-72518804D01*
X44111780Y-72466134D01*
X44111778Y-72466132D01*
X44108979Y-72461847D01*
X43951784Y-72291087D01*
X43768626Y-72148530D01*
X43714497Y-72119237D01*
X43569007Y-72040501D01*
X43569002Y-72040499D01*
X43564503Y-72038064D01*
X43559657Y-72036400D01*
X43559654Y-72036399D01*
X43349834Y-71964368D01*
X43349833Y-71964367D01*
X43344981Y-71962702D01*
X43339931Y-71961859D01*
X43339922Y-71961857D01*
X43121111Y-71925344D01*
X43121102Y-71925343D01*
X43116049Y-71924500D01*
X42883951Y-71924500D01*
X42878898Y-71925343D01*
X42878888Y-71925344D01*
X42660077Y-71961857D01*
X42660065Y-71961859D01*
X42655019Y-71962702D01*
X42650169Y-71964366D01*
X42650165Y-71964368D01*
X42440345Y-72036399D01*
X42440337Y-72036402D01*
X42435497Y-72038064D01*
X42431001Y-72040496D01*
X42430992Y-72040501D01*
X42235882Y-72146090D01*
X42235878Y-72146092D01*
X42231374Y-72148530D01*
X42227334Y-72151674D01*
X42227327Y-72151679D01*
X42054436Y-72286245D01*
X42002007Y-72310099D01*
X41944458Y-72307691D01*
X41894205Y-72279541D01*
X41862092Y-72231723D01*
X41846896Y-72190981D01*
X41843796Y-72182669D01*
X41757546Y-72067454D01*
X41721541Y-72040501D01*
X41649431Y-71986519D01*
X41649430Y-71986518D01*
X41642331Y-71981204D01*
X41507483Y-71930909D01*
X41499770Y-71930079D01*
X41499767Y-71930079D01*
X41451180Y-71924855D01*
X41451169Y-71924854D01*
X41447873Y-71924500D01*
X41444550Y-71924500D01*
X39555439Y-71924500D01*
X39555420Y-71924500D01*
X39552128Y-71924501D01*
X39548850Y-71924853D01*
X39548838Y-71924854D01*
X39500231Y-71930079D01*
X39500225Y-71930080D01*
X39492517Y-71930909D01*
X39485252Y-71933618D01*
X39485246Y-71933620D01*
X39365980Y-71978104D01*
X39365978Y-71978104D01*
X39357669Y-71981204D01*
X39350572Y-71986516D01*
X39350568Y-71986519D01*
X39249550Y-72062141D01*
X39249546Y-72062144D01*
X39242454Y-72067454D01*
X39237144Y-72074546D01*
X39237141Y-72074550D01*
X39161519Y-72175568D01*
X39161516Y-72175572D01*
X39156204Y-72182669D01*
X39153104Y-72190978D01*
X39153104Y-72190980D01*
X39108620Y-72310247D01*
X39108619Y-72310250D01*
X39105909Y-72317517D01*
X39105079Y-72325227D01*
X39105079Y-72325232D01*
X39099855Y-72373819D01*
X39099854Y-72373831D01*
X39099500Y-72377127D01*
X39099500Y-72380448D01*
X39099500Y-72380449D01*
X39099500Y-74269560D01*
X39099500Y-74269578D01*
X20000500Y-74269578D01*
X20000500Y-68758352D01*
X30994659Y-68758352D01*
X30995256Y-68764414D01*
X31013378Y-68948419D01*
X31013379Y-68948425D01*
X31013976Y-68954484D01*
X31015743Y-68960309D01*
X31015744Y-68960314D01*
X31017175Y-68965030D01*
X31071186Y-69143079D01*
X31074055Y-69148447D01*
X31074057Y-69148451D01*
X31161215Y-69311513D01*
X31161219Y-69311519D01*
X31164090Y-69316890D01*
X31167956Y-69321601D01*
X31167957Y-69321602D01*
X31285254Y-69464528D01*
X31289117Y-69469235D01*
X31441462Y-69594262D01*
X31446834Y-69597133D01*
X31446838Y-69597136D01*
X31588839Y-69673036D01*
X31615273Y-69687166D01*
X31803868Y-69744376D01*
X32000000Y-69763693D01*
X32196132Y-69744376D01*
X32384727Y-69687166D01*
X32558538Y-69594262D01*
X32710883Y-69469235D01*
X32835910Y-69316890D01*
X32928814Y-69143079D01*
X32986024Y-68954484D01*
X33005341Y-68758352D01*
X32986024Y-68562220D01*
X32928814Y-68373625D01*
X32914684Y-68347191D01*
X32838784Y-68205190D01*
X32838781Y-68205186D01*
X32835910Y-68199814D01*
X32710883Y-68047469D01*
X32558538Y-67922442D01*
X32553167Y-67919571D01*
X32553161Y-67919567D01*
X32390099Y-67832409D01*
X32390095Y-67832407D01*
X32384727Y-67829538D01*
X32378899Y-67827770D01*
X32201962Y-67774096D01*
X32201957Y-67774095D01*
X32196132Y-67772328D01*
X32190073Y-67771731D01*
X32190067Y-67771730D01*
X32006062Y-67753608D01*
X32000000Y-67753011D01*
X31993938Y-67753608D01*
X31809932Y-67771730D01*
X31809924Y-67771731D01*
X31803868Y-67772328D01*
X31798044Y-67774094D01*
X31798037Y-67774096D01*
X31621100Y-67827770D01*
X31621096Y-67827771D01*
X31615273Y-67829538D01*
X31609907Y-67832405D01*
X31609900Y-67832409D01*
X31446838Y-67919567D01*
X31446827Y-67919574D01*
X31441462Y-67922442D01*
X31436754Y-67926305D01*
X31436749Y-67926309D01*
X31293823Y-68043606D01*
X31293818Y-68043610D01*
X31289117Y-68047469D01*
X31285258Y-68052170D01*
X31285254Y-68052175D01*
X31167957Y-68195101D01*
X31167953Y-68195106D01*
X31164090Y-68199814D01*
X31161222Y-68205179D01*
X31161215Y-68205190D01*
X31074057Y-68368252D01*
X31074053Y-68368259D01*
X31071186Y-68373625D01*
X31069419Y-68379448D01*
X31069418Y-68379452D01*
X31015744Y-68556389D01*
X31015742Y-68556396D01*
X31013976Y-68562220D01*
X31013379Y-68568276D01*
X31013378Y-68568284D01*
X30995856Y-68746197D01*
X30994659Y-68758352D01*
X20000500Y-68758352D01*
X20000500Y-66153000D01*
X36339500Y-66153000D01*
X36339664Y-66155251D01*
X36339665Y-66155257D01*
X36344817Y-66225645D01*
X36354403Y-66356616D01*
X36355386Y-66361031D01*
X36355388Y-66361041D01*
X36412630Y-66618011D01*
X36412633Y-66618023D01*
X36413618Y-66622442D01*
X36415237Y-66626676D01*
X36415238Y-66626678D01*
X36464508Y-66755500D01*
X36510907Y-66876814D01*
X36513125Y-66880766D01*
X36641978Y-67110359D01*
X36641981Y-67110364D01*
X36644196Y-67114310D01*
X36810645Y-67329868D01*
X36813906Y-67333012D01*
X37003437Y-67515744D01*
X37003442Y-67515748D01*
X37006705Y-67518894D01*
X37228198Y-67677358D01*
X37470403Y-67801885D01*
X37728159Y-67889819D01*
X37995971Y-67939286D01*
X38268131Y-67949232D01*
X38538839Y-67919446D01*
X38802326Y-67850562D01*
X39052975Y-67744047D01*
X39285444Y-67602173D01*
X39494779Y-67427963D01*
X39676518Y-67225131D01*
X39826788Y-66997998D01*
X39942386Y-66751406D01*
X40020847Y-66490611D01*
X40060500Y-66221171D01*
X40060500Y-66153000D01*
X45939500Y-66153000D01*
X45939664Y-66155251D01*
X45939665Y-66155257D01*
X45944817Y-66225645D01*
X45954403Y-66356616D01*
X45955386Y-66361031D01*
X45955388Y-66361041D01*
X46012630Y-66618011D01*
X46012633Y-66618023D01*
X46013618Y-66622442D01*
X46015237Y-66626676D01*
X46015238Y-66626678D01*
X46064508Y-66755500D01*
X46110907Y-66876814D01*
X46113125Y-66880766D01*
X46241978Y-67110359D01*
X46241981Y-67110364D01*
X46244196Y-67114310D01*
X46410645Y-67329868D01*
X46413906Y-67333012D01*
X46603437Y-67515744D01*
X46603442Y-67515748D01*
X46606705Y-67518894D01*
X46828198Y-67677358D01*
X47070403Y-67801885D01*
X47328159Y-67889819D01*
X47595971Y-67939286D01*
X47868131Y-67949232D01*
X48138839Y-67919446D01*
X48402326Y-67850562D01*
X48652975Y-67744047D01*
X48885444Y-67602173D01*
X49094779Y-67427963D01*
X49276518Y-67225131D01*
X49426788Y-66997998D01*
X49542386Y-66751406D01*
X49620847Y-66490611D01*
X49660500Y-66221171D01*
X49660500Y-65497000D01*
X49645597Y-65293384D01*
X49616747Y-65163871D01*
X49587369Y-65031988D01*
X49587368Y-65031985D01*
X49586382Y-65027558D01*
X49489093Y-64773186D01*
X49355804Y-64535690D01*
X49189355Y-64320132D01*
X49186093Y-64316987D01*
X48996562Y-64134255D01*
X48996556Y-64134250D01*
X48993295Y-64131106D01*
X48771802Y-63972642D01*
X48743236Y-63957955D01*
X48533632Y-63850189D01*
X48533625Y-63850186D01*
X48529597Y-63848115D01*
X48525312Y-63846653D01*
X48525307Y-63846651D01*
X48276124Y-63761642D01*
X48276122Y-63761641D01*
X48271841Y-63760181D01*
X48249679Y-63756087D01*
X48008489Y-63711537D01*
X48008478Y-63711535D01*
X48004029Y-63710714D01*
X47999500Y-63710548D01*
X47999496Y-63710548D01*
X47736397Y-63700933D01*
X47736390Y-63700933D01*
X47731869Y-63700768D01*
X47727372Y-63701262D01*
X47727366Y-63701263D01*
X47465672Y-63730057D01*
X47465663Y-63730058D01*
X47461161Y-63730554D01*
X47456782Y-63731698D01*
X47456770Y-63731701D01*
X47202049Y-63798294D01*
X47202046Y-63798295D01*
X47197674Y-63799438D01*
X47193524Y-63801201D01*
X47193511Y-63801206D01*
X46951191Y-63904182D01*
X46951183Y-63904185D01*
X46947025Y-63905953D01*
X46943168Y-63908306D01*
X46943158Y-63908312D01*
X46718428Y-64045463D01*
X46718418Y-64045469D01*
X46714556Y-64047827D01*
X46711071Y-64050726D01*
X46711067Y-64050730D01*
X46508706Y-64219136D01*
X46508700Y-64219141D01*
X46505221Y-64222037D01*
X46502203Y-64225404D01*
X46502199Y-64225409D01*
X46326498Y-64421502D01*
X46326492Y-64421508D01*
X46323482Y-64424869D01*
X46320989Y-64428636D01*
X46320986Y-64428641D01*
X46175711Y-64648224D01*
X46175708Y-64648229D01*
X46173212Y-64652002D01*
X46171295Y-64656089D01*
X46171290Y-64656100D01*
X46059533Y-64894499D01*
X46059530Y-64894506D01*
X46057614Y-64898594D01*
X46056314Y-64902912D01*
X46056310Y-64902925D01*
X45980458Y-65155050D01*
X45979153Y-65159389D01*
X45978494Y-65163865D01*
X45978493Y-65163871D01*
X45940158Y-65424354D01*
X45940157Y-65424361D01*
X45939500Y-65428829D01*
X45939500Y-66153000D01*
X40060500Y-66153000D01*
X40060500Y-65497000D01*
X40045597Y-65293384D01*
X40016747Y-65163871D01*
X39987369Y-65031988D01*
X39987368Y-65031985D01*
X39986382Y-65027558D01*
X39889093Y-64773186D01*
X39755804Y-64535690D01*
X39589355Y-64320132D01*
X39586093Y-64316987D01*
X39396562Y-64134255D01*
X39396556Y-64134250D01*
X39393295Y-64131106D01*
X39171802Y-63972642D01*
X39143236Y-63957955D01*
X38933632Y-63850189D01*
X38933625Y-63850186D01*
X38929597Y-63848115D01*
X38925312Y-63846653D01*
X38925307Y-63846651D01*
X38676124Y-63761642D01*
X38676122Y-63761641D01*
X38671841Y-63760181D01*
X38649679Y-63756087D01*
X38408489Y-63711537D01*
X38408478Y-63711535D01*
X38404029Y-63710714D01*
X38399500Y-63710548D01*
X38399496Y-63710548D01*
X38136397Y-63700933D01*
X38136390Y-63700933D01*
X38131869Y-63700768D01*
X38127372Y-63701262D01*
X38127366Y-63701263D01*
X37865672Y-63730057D01*
X37865663Y-63730058D01*
X37861161Y-63730554D01*
X37856782Y-63731698D01*
X37856770Y-63731701D01*
X37602049Y-63798294D01*
X37602046Y-63798295D01*
X37597674Y-63799438D01*
X37593524Y-63801201D01*
X37593511Y-63801206D01*
X37351191Y-63904182D01*
X37351183Y-63904185D01*
X37347025Y-63905953D01*
X37343168Y-63908306D01*
X37343158Y-63908312D01*
X37118428Y-64045463D01*
X37118418Y-64045469D01*
X37114556Y-64047827D01*
X37111071Y-64050726D01*
X37111067Y-64050730D01*
X36908706Y-64219136D01*
X36908700Y-64219141D01*
X36905221Y-64222037D01*
X36902203Y-64225404D01*
X36902199Y-64225409D01*
X36726498Y-64421502D01*
X36726492Y-64421508D01*
X36723482Y-64424869D01*
X36720989Y-64428636D01*
X36720986Y-64428641D01*
X36575711Y-64648224D01*
X36575708Y-64648229D01*
X36573212Y-64652002D01*
X36571295Y-64656089D01*
X36571290Y-64656100D01*
X36459533Y-64894499D01*
X36459530Y-64894506D01*
X36457614Y-64898594D01*
X36456314Y-64902912D01*
X36456310Y-64902925D01*
X36380458Y-65155050D01*
X36379153Y-65159389D01*
X36378494Y-65163865D01*
X36378493Y-65163871D01*
X36340158Y-65424354D01*
X36340157Y-65424361D01*
X36339500Y-65428829D01*
X36339500Y-66153000D01*
X20000500Y-66153000D01*
X20000500Y-59960000D01*
X24394318Y-59960000D01*
X24395379Y-59968059D01*
X24413894Y-60108702D01*
X24413895Y-60108708D01*
X24414956Y-60116762D01*
X24475464Y-60262841D01*
X24571718Y-60388282D01*
X24697159Y-60484536D01*
X24843238Y-60545044D01*
X25000000Y-60565682D01*
X25156762Y-60545044D01*
X25302841Y-60484536D01*
X25428282Y-60388282D01*
X25524536Y-60262841D01*
X25585044Y-60116762D01*
X25600416Y-60000000D01*
X30994659Y-60000000D01*
X30995256Y-60006062D01*
X31013378Y-60190067D01*
X31013379Y-60190073D01*
X31013976Y-60196132D01*
X31015743Y-60201957D01*
X31015744Y-60201962D01*
X31066963Y-60370807D01*
X31071186Y-60384727D01*
X31074055Y-60390095D01*
X31074057Y-60390099D01*
X31161215Y-60553161D01*
X31161219Y-60553167D01*
X31164090Y-60558538D01*
X31167956Y-60563249D01*
X31167957Y-60563250D01*
X31285254Y-60706176D01*
X31289117Y-60710883D01*
X31441462Y-60835910D01*
X31446834Y-60838781D01*
X31446838Y-60838784D01*
X31588839Y-60914684D01*
X31615273Y-60928814D01*
X31803868Y-60986024D01*
X32000000Y-61005341D01*
X32196132Y-60986024D01*
X32384727Y-60928814D01*
X32558538Y-60835910D01*
X32710883Y-60710883D01*
X32835910Y-60558538D01*
X32928814Y-60384727D01*
X32986024Y-60196132D01*
X33005341Y-60000000D01*
X32986024Y-59803868D01*
X32928814Y-59615273D01*
X32893412Y-59549041D01*
X32838784Y-59446838D01*
X32838781Y-59446834D01*
X32835910Y-59441462D01*
X32710883Y-59289117D01*
X32558538Y-59164090D01*
X32553167Y-59161219D01*
X32553161Y-59161215D01*
X32390099Y-59074057D01*
X32390095Y-59074055D01*
X32384727Y-59071186D01*
X32378899Y-59069418D01*
X32201962Y-59015744D01*
X32201957Y-59015743D01*
X32196132Y-59013976D01*
X32190073Y-59013379D01*
X32190067Y-59013378D01*
X32006062Y-58995256D01*
X32000000Y-58994659D01*
X31993938Y-58995256D01*
X31809932Y-59013378D01*
X31809924Y-59013379D01*
X31803868Y-59013976D01*
X31798044Y-59015742D01*
X31798037Y-59015744D01*
X31621100Y-59069418D01*
X31621096Y-59069419D01*
X31615273Y-59071186D01*
X31609907Y-59074053D01*
X31609900Y-59074057D01*
X31446838Y-59161215D01*
X31446827Y-59161222D01*
X31441462Y-59164090D01*
X31436754Y-59167953D01*
X31436749Y-59167957D01*
X31293823Y-59285254D01*
X31293818Y-59285258D01*
X31289117Y-59289117D01*
X31285258Y-59293818D01*
X31285254Y-59293823D01*
X31167957Y-59436749D01*
X31167953Y-59436754D01*
X31164090Y-59441462D01*
X31161222Y-59446827D01*
X31161215Y-59446838D01*
X31074057Y-59609900D01*
X31074053Y-59609907D01*
X31071186Y-59615273D01*
X31069419Y-59621096D01*
X31069418Y-59621100D01*
X31015744Y-59798037D01*
X31015742Y-59798044D01*
X31013976Y-59803868D01*
X31013379Y-59809924D01*
X31013378Y-59809932D01*
X30995856Y-59987845D01*
X30994659Y-60000000D01*
X25600416Y-60000000D01*
X25605682Y-59960000D01*
X25585044Y-59803238D01*
X25524536Y-59657159D01*
X25428282Y-59531718D01*
X25302841Y-59435464D01*
X25295333Y-59432354D01*
X25164271Y-59378066D01*
X25164268Y-59378065D01*
X25156762Y-59374956D01*
X25148708Y-59373895D01*
X25148702Y-59373894D01*
X25008059Y-59355379D01*
X25000000Y-59354318D01*
X24991941Y-59355379D01*
X24851297Y-59373894D01*
X24851289Y-59373896D01*
X24843238Y-59374956D01*
X24835733Y-59378064D01*
X24835728Y-59378066D01*
X24704666Y-59432354D01*
X24704662Y-59432355D01*
X24697159Y-59435464D01*
X24690714Y-59440408D01*
X24690711Y-59440411D01*
X24578164Y-59526771D01*
X24578160Y-59526774D01*
X24571718Y-59531718D01*
X24566774Y-59538160D01*
X24566771Y-59538164D01*
X24480411Y-59650711D01*
X24480408Y-59650714D01*
X24475464Y-59657159D01*
X24472355Y-59664662D01*
X24472354Y-59664666D01*
X24418066Y-59795728D01*
X24418064Y-59795733D01*
X24414956Y-59803238D01*
X24413896Y-59811289D01*
X24413894Y-59811297D01*
X24396449Y-59943813D01*
X24394318Y-59960000D01*
X20000500Y-59960000D01*
X20000500Y-57694578D01*
X39199500Y-57694578D01*
X39199501Y-57697872D01*
X39199853Y-57701150D01*
X39199854Y-57701161D01*
X39205079Y-57749768D01*
X39205080Y-57749773D01*
X39205909Y-57757483D01*
X39208619Y-57764749D01*
X39208620Y-57764753D01*
X39237908Y-57843276D01*
X39256204Y-57892331D01*
X39342454Y-58007546D01*
X39457669Y-58093796D01*
X39592517Y-58144091D01*
X39652127Y-58150500D01*
X41547872Y-58150499D01*
X41607483Y-58144091D01*
X41742331Y-58093796D01*
X41857546Y-58007546D01*
X41943796Y-57892331D01*
X41962092Y-57843274D01*
X41994204Y-57795458D01*
X42044457Y-57767308D01*
X42102007Y-57764900D01*
X42154435Y-57788753D01*
X42331374Y-57926470D01*
X42535497Y-58036936D01*
X42755019Y-58112298D01*
X42983951Y-58150500D01*
X43210916Y-58150500D01*
X43216049Y-58150500D01*
X43444981Y-58112298D01*
X43664503Y-58036936D01*
X43868626Y-57926470D01*
X44051784Y-57783913D01*
X44208979Y-57613153D01*
X44246190Y-57556196D01*
X44290982Y-57514962D01*
X44350000Y-57500017D01*
X44409018Y-57514962D01*
X44453809Y-57556196D01*
X44488215Y-57608860D01*
X44488222Y-57608869D01*
X44491021Y-57613153D01*
X44648216Y-57783913D01*
X44831374Y-57926470D01*
X45035497Y-58036936D01*
X45255019Y-58112298D01*
X45483951Y-58150500D01*
X45710916Y-58150500D01*
X45716049Y-58150500D01*
X45944981Y-58112298D01*
X46164503Y-58036936D01*
X46368626Y-57926470D01*
X46551784Y-57783913D01*
X46708979Y-57613153D01*
X46835924Y-57418849D01*
X46929157Y-57206300D01*
X46986134Y-56981305D01*
X47005300Y-56750000D01*
X46986134Y-56518695D01*
X46929157Y-56293700D01*
X46835924Y-56081151D01*
X46708979Y-55886847D01*
X46551784Y-55716087D01*
X46368626Y-55573530D01*
X46314497Y-55544237D01*
X46169007Y-55465501D01*
X46169002Y-55465499D01*
X46164503Y-55463064D01*
X46159657Y-55461400D01*
X46159654Y-55461399D01*
X45949834Y-55389368D01*
X45949833Y-55389367D01*
X45944981Y-55387702D01*
X45939931Y-55386859D01*
X45939922Y-55386857D01*
X45721111Y-55350344D01*
X45721102Y-55350343D01*
X45716049Y-55349500D01*
X45483951Y-55349500D01*
X45478898Y-55350343D01*
X45478888Y-55350344D01*
X45260077Y-55386857D01*
X45260065Y-55386859D01*
X45255019Y-55387702D01*
X45250169Y-55389366D01*
X45250165Y-55389368D01*
X45040345Y-55461399D01*
X45040337Y-55461402D01*
X45035497Y-55463064D01*
X45031001Y-55465496D01*
X45030992Y-55465501D01*
X44835882Y-55571090D01*
X44835878Y-55571092D01*
X44831374Y-55573530D01*
X44827334Y-55576674D01*
X44827327Y-55576679D01*
X44652263Y-55712936D01*
X44652255Y-55712943D01*
X44648216Y-55716087D01*
X44644746Y-55719855D01*
X44644742Y-55719860D01*
X44494491Y-55883077D01*
X44494488Y-55883080D01*
X44491021Y-55886847D01*
X44488226Y-55891124D01*
X44488219Y-55891134D01*
X44453809Y-55943804D01*
X44409017Y-55985037D01*
X44350000Y-55999982D01*
X44290983Y-55985037D01*
X44246191Y-55943804D01*
X44211780Y-55891134D01*
X44211778Y-55891132D01*
X44208979Y-55886847D01*
X44051784Y-55716087D01*
X43868626Y-55573530D01*
X43814497Y-55544237D01*
X43669007Y-55465501D01*
X43669002Y-55465499D01*
X43664503Y-55463064D01*
X43659657Y-55461400D01*
X43659654Y-55461399D01*
X43449834Y-55389368D01*
X43449833Y-55389367D01*
X43444981Y-55387702D01*
X43439931Y-55386859D01*
X43439922Y-55386857D01*
X43221111Y-55350344D01*
X43221102Y-55350343D01*
X43216049Y-55349500D01*
X42983951Y-55349500D01*
X42978898Y-55350343D01*
X42978888Y-55350344D01*
X42760077Y-55386857D01*
X42760065Y-55386859D01*
X42755019Y-55387702D01*
X42750169Y-55389366D01*
X42750165Y-55389368D01*
X42540345Y-55461399D01*
X42540337Y-55461402D01*
X42535497Y-55463064D01*
X42531001Y-55465496D01*
X42530992Y-55465501D01*
X42335882Y-55571090D01*
X42335878Y-55571092D01*
X42331374Y-55573530D01*
X42327334Y-55576674D01*
X42327327Y-55576679D01*
X42154436Y-55711245D01*
X42102007Y-55735099D01*
X42044458Y-55732691D01*
X41994205Y-55704541D01*
X41962092Y-55656723D01*
X41946896Y-55615981D01*
X41943796Y-55607669D01*
X41857546Y-55492454D01*
X41821541Y-55465501D01*
X41749431Y-55411519D01*
X41749430Y-55411518D01*
X41742331Y-55406204D01*
X41607483Y-55355909D01*
X41599770Y-55355079D01*
X41599767Y-55355079D01*
X41551180Y-55349855D01*
X41551169Y-55349854D01*
X41547873Y-55349500D01*
X41544550Y-55349500D01*
X39655439Y-55349500D01*
X39655420Y-55349500D01*
X39652128Y-55349501D01*
X39648850Y-55349853D01*
X39648838Y-55349854D01*
X39600231Y-55355079D01*
X39600225Y-55355080D01*
X39592517Y-55355909D01*
X39585252Y-55358618D01*
X39585246Y-55358620D01*
X39465980Y-55403104D01*
X39465978Y-55403104D01*
X39457669Y-55406204D01*
X39450572Y-55411516D01*
X39450568Y-55411519D01*
X39349550Y-55487141D01*
X39349546Y-55487144D01*
X39342454Y-55492454D01*
X39337144Y-55499546D01*
X39337141Y-55499550D01*
X39261519Y-55600568D01*
X39261516Y-55600572D01*
X39256204Y-55607669D01*
X39253104Y-55615978D01*
X39253104Y-55615980D01*
X39208620Y-55735247D01*
X39208619Y-55735250D01*
X39205909Y-55742517D01*
X39205079Y-55750227D01*
X39205079Y-55750232D01*
X39199855Y-55798819D01*
X39199854Y-55798831D01*
X39199500Y-55802127D01*
X39199500Y-55805448D01*
X39199500Y-55805449D01*
X39199500Y-57694560D01*
X39199500Y-57694578D01*
X20000500Y-57694578D01*
X20000500Y-51669578D01*
X23899500Y-51669578D01*
X23899501Y-51672872D01*
X23899853Y-51676150D01*
X23899854Y-51676161D01*
X23905079Y-51724768D01*
X23905080Y-51724773D01*
X23905909Y-51732483D01*
X23908619Y-51739749D01*
X23908620Y-51739753D01*
X23937908Y-51818276D01*
X23956204Y-51867331D01*
X24042454Y-51982546D01*
X24157669Y-52068796D01*
X24292517Y-52119091D01*
X24352127Y-52125500D01*
X26247872Y-52125499D01*
X26307483Y-52119091D01*
X26442331Y-52068796D01*
X26557546Y-51982546D01*
X26643796Y-51867331D01*
X26662092Y-51818274D01*
X26694204Y-51770458D01*
X26744457Y-51742308D01*
X26802007Y-51739900D01*
X26854435Y-51763753D01*
X27031374Y-51901470D01*
X27235497Y-52011936D01*
X27455019Y-52087298D01*
X27683951Y-52125500D01*
X27910916Y-52125500D01*
X27916049Y-52125500D01*
X28144981Y-52087298D01*
X28364503Y-52011936D01*
X28568626Y-51901470D01*
X28751784Y-51758913D01*
X28908979Y-51588153D01*
X28946190Y-51531196D01*
X28990982Y-51489962D01*
X29050000Y-51475017D01*
X29109018Y-51489962D01*
X29153809Y-51531196D01*
X29188215Y-51583860D01*
X29188222Y-51583869D01*
X29191021Y-51588153D01*
X29348216Y-51758913D01*
X29531374Y-51901470D01*
X29735497Y-52011936D01*
X29955019Y-52087298D01*
X30183951Y-52125500D01*
X30410916Y-52125500D01*
X30416049Y-52125500D01*
X30644981Y-52087298D01*
X30864503Y-52011936D01*
X31068626Y-51901470D01*
X31251784Y-51758913D01*
X31408979Y-51588153D01*
X31535924Y-51393849D01*
X31629157Y-51181300D01*
X31686134Y-50956305D01*
X31705300Y-50725000D01*
X31686134Y-50493695D01*
X31629157Y-50268700D01*
X31535924Y-50056151D01*
X31408979Y-49861847D01*
X31251784Y-49691087D01*
X31106489Y-49578000D01*
X36439500Y-49578000D01*
X36439664Y-49580251D01*
X36439665Y-49580257D01*
X36449179Y-49710247D01*
X36454403Y-49781616D01*
X36455386Y-49786031D01*
X36455388Y-49786041D01*
X36512630Y-50043011D01*
X36512633Y-50043023D01*
X36513618Y-50047442D01*
X36515237Y-50051676D01*
X36515238Y-50051678D01*
X36598242Y-50268700D01*
X36610907Y-50301814D01*
X36613125Y-50305766D01*
X36741978Y-50535359D01*
X36741981Y-50535364D01*
X36744196Y-50539310D01*
X36910645Y-50754868D01*
X36913906Y-50758012D01*
X37103437Y-50940744D01*
X37103442Y-50940748D01*
X37106705Y-50943894D01*
X37328198Y-51102358D01*
X37570403Y-51226885D01*
X37828159Y-51314819D01*
X38095971Y-51364286D01*
X38368131Y-51374232D01*
X38638839Y-51344446D01*
X38902326Y-51275562D01*
X39152975Y-51169047D01*
X39385444Y-51027173D01*
X39594779Y-50852963D01*
X39776518Y-50650131D01*
X39926788Y-50422998D01*
X40042386Y-50176406D01*
X40120847Y-49915611D01*
X40160500Y-49646171D01*
X40160500Y-49578000D01*
X46039500Y-49578000D01*
X46039664Y-49580251D01*
X46039665Y-49580257D01*
X46049179Y-49710247D01*
X46054403Y-49781616D01*
X46055386Y-49786031D01*
X46055388Y-49786041D01*
X46112630Y-50043011D01*
X46112633Y-50043023D01*
X46113618Y-50047442D01*
X46115237Y-50051676D01*
X46115238Y-50051678D01*
X46198242Y-50268700D01*
X46210907Y-50301814D01*
X46213125Y-50305766D01*
X46341978Y-50535359D01*
X46341981Y-50535364D01*
X46344196Y-50539310D01*
X46510645Y-50754868D01*
X46513906Y-50758012D01*
X46703437Y-50940744D01*
X46703442Y-50940748D01*
X46706705Y-50943894D01*
X46928198Y-51102358D01*
X47170403Y-51226885D01*
X47428159Y-51314819D01*
X47695971Y-51364286D01*
X47968131Y-51374232D01*
X48238839Y-51344446D01*
X48502326Y-51275562D01*
X48752975Y-51169047D01*
X48985444Y-51027173D01*
X49194779Y-50852963D01*
X49376518Y-50650131D01*
X49526788Y-50422998D01*
X49642386Y-50176406D01*
X49720847Y-49915611D01*
X49760500Y-49646171D01*
X49760500Y-48922000D01*
X49745597Y-48718384D01*
X49716747Y-48588871D01*
X49687369Y-48456988D01*
X49687368Y-48456985D01*
X49686382Y-48452558D01*
X49589093Y-48198186D01*
X49455804Y-47960690D01*
X49289355Y-47745132D01*
X49286093Y-47741987D01*
X49096562Y-47559255D01*
X49096556Y-47559250D01*
X49093295Y-47556106D01*
X48871802Y-47397642D01*
X48843236Y-47382955D01*
X48633632Y-47275189D01*
X48633625Y-47275186D01*
X48629597Y-47273115D01*
X48625312Y-47271653D01*
X48625307Y-47271651D01*
X48376124Y-47186642D01*
X48376122Y-47186641D01*
X48371841Y-47185181D01*
X48349679Y-47181087D01*
X48108489Y-47136537D01*
X48108478Y-47136535D01*
X48104029Y-47135714D01*
X48099500Y-47135548D01*
X48099496Y-47135548D01*
X47836397Y-47125933D01*
X47836390Y-47125933D01*
X47831869Y-47125768D01*
X47827372Y-47126262D01*
X47827366Y-47126263D01*
X47565672Y-47155057D01*
X47565663Y-47155058D01*
X47561161Y-47155554D01*
X47556782Y-47156698D01*
X47556770Y-47156701D01*
X47302049Y-47223294D01*
X47302046Y-47223295D01*
X47297674Y-47224438D01*
X47293524Y-47226201D01*
X47293511Y-47226206D01*
X47051191Y-47329182D01*
X47051183Y-47329185D01*
X47047025Y-47330953D01*
X47043168Y-47333306D01*
X47043158Y-47333312D01*
X46818428Y-47470463D01*
X46818418Y-47470469D01*
X46814556Y-47472827D01*
X46811071Y-47475726D01*
X46811067Y-47475730D01*
X46608706Y-47644136D01*
X46608700Y-47644141D01*
X46605221Y-47647037D01*
X46602203Y-47650404D01*
X46602199Y-47650409D01*
X46426498Y-47846502D01*
X46426492Y-47846508D01*
X46423482Y-47849869D01*
X46420989Y-47853636D01*
X46420986Y-47853641D01*
X46275711Y-48073224D01*
X46275708Y-48073229D01*
X46273212Y-48077002D01*
X46271295Y-48081089D01*
X46271290Y-48081100D01*
X46159533Y-48319499D01*
X46159530Y-48319506D01*
X46157614Y-48323594D01*
X46156314Y-48327912D01*
X46156310Y-48327925D01*
X46080458Y-48580050D01*
X46079153Y-48584389D01*
X46078494Y-48588865D01*
X46078493Y-48588871D01*
X46040158Y-48849354D01*
X46040157Y-48849361D01*
X46039500Y-48853829D01*
X46039500Y-49578000D01*
X40160500Y-49578000D01*
X40160500Y-48922000D01*
X40145597Y-48718384D01*
X40116747Y-48588871D01*
X40087369Y-48456988D01*
X40087368Y-48456985D01*
X40086382Y-48452558D01*
X39989093Y-48198186D01*
X39855804Y-47960690D01*
X39689355Y-47745132D01*
X39686093Y-47741987D01*
X39496562Y-47559255D01*
X39496556Y-47559250D01*
X39493295Y-47556106D01*
X39271802Y-47397642D01*
X39243236Y-47382955D01*
X39033632Y-47275189D01*
X39033625Y-47275186D01*
X39029597Y-47273115D01*
X39025312Y-47271653D01*
X39025307Y-47271651D01*
X38776124Y-47186642D01*
X38776122Y-47186641D01*
X38771841Y-47185181D01*
X38749679Y-47181087D01*
X38508489Y-47136537D01*
X38508478Y-47136535D01*
X38504029Y-47135714D01*
X38499500Y-47135548D01*
X38499496Y-47135548D01*
X38236397Y-47125933D01*
X38236390Y-47125933D01*
X38231869Y-47125768D01*
X38227372Y-47126262D01*
X38227366Y-47126263D01*
X37965672Y-47155057D01*
X37965663Y-47155058D01*
X37961161Y-47155554D01*
X37956782Y-47156698D01*
X37956770Y-47156701D01*
X37702049Y-47223294D01*
X37702046Y-47223295D01*
X37697674Y-47224438D01*
X37693524Y-47226201D01*
X37693511Y-47226206D01*
X37451191Y-47329182D01*
X37451183Y-47329185D01*
X37447025Y-47330953D01*
X37443168Y-47333306D01*
X37443158Y-47333312D01*
X37218428Y-47470463D01*
X37218418Y-47470469D01*
X37214556Y-47472827D01*
X37211071Y-47475726D01*
X37211067Y-47475730D01*
X37008706Y-47644136D01*
X37008700Y-47644141D01*
X37005221Y-47647037D01*
X37002203Y-47650404D01*
X37002199Y-47650409D01*
X36826498Y-47846502D01*
X36826492Y-47846508D01*
X36823482Y-47849869D01*
X36820989Y-47853636D01*
X36820986Y-47853641D01*
X36675711Y-48073224D01*
X36675708Y-48073229D01*
X36673212Y-48077002D01*
X36671295Y-48081089D01*
X36671290Y-48081100D01*
X36559533Y-48319499D01*
X36559530Y-48319506D01*
X36557614Y-48323594D01*
X36556314Y-48327912D01*
X36556310Y-48327925D01*
X36480458Y-48580050D01*
X36479153Y-48584389D01*
X36478494Y-48588865D01*
X36478493Y-48588871D01*
X36440158Y-48849354D01*
X36440157Y-48849361D01*
X36439500Y-48853829D01*
X36439500Y-49578000D01*
X31106489Y-49578000D01*
X31068626Y-49548530D01*
X31014497Y-49519237D01*
X30869007Y-49440501D01*
X30869002Y-49440499D01*
X30864503Y-49438064D01*
X30859657Y-49436400D01*
X30859654Y-49436399D01*
X30649834Y-49364368D01*
X30649833Y-49364367D01*
X30644981Y-49362702D01*
X30639931Y-49361859D01*
X30639922Y-49361857D01*
X30421111Y-49325344D01*
X30421102Y-49325343D01*
X30416049Y-49324500D01*
X30183951Y-49324500D01*
X30178898Y-49325343D01*
X30178888Y-49325344D01*
X29960077Y-49361857D01*
X29960065Y-49361859D01*
X29955019Y-49362702D01*
X29950169Y-49364366D01*
X29950165Y-49364368D01*
X29740345Y-49436399D01*
X29740337Y-49436402D01*
X29735497Y-49438064D01*
X29731001Y-49440496D01*
X29730992Y-49440501D01*
X29535882Y-49546090D01*
X29535878Y-49546092D01*
X29531374Y-49548530D01*
X29527334Y-49551674D01*
X29527327Y-49551679D01*
X29352263Y-49687936D01*
X29352255Y-49687943D01*
X29348216Y-49691087D01*
X29344746Y-49694855D01*
X29344742Y-49694860D01*
X29194491Y-49858077D01*
X29194488Y-49858080D01*
X29191021Y-49861847D01*
X29188226Y-49866124D01*
X29188219Y-49866134D01*
X29153809Y-49918804D01*
X29109017Y-49960037D01*
X29050000Y-49974982D01*
X28990983Y-49960037D01*
X28946191Y-49918804D01*
X28911780Y-49866134D01*
X28911778Y-49866132D01*
X28908979Y-49861847D01*
X28751784Y-49691087D01*
X28568626Y-49548530D01*
X28514497Y-49519237D01*
X28369007Y-49440501D01*
X28369002Y-49440499D01*
X28364503Y-49438064D01*
X28359657Y-49436400D01*
X28359654Y-49436399D01*
X28149834Y-49364368D01*
X28149833Y-49364367D01*
X28144981Y-49362702D01*
X28139931Y-49361859D01*
X28139922Y-49361857D01*
X27921111Y-49325344D01*
X27921102Y-49325343D01*
X27916049Y-49324500D01*
X27683951Y-49324500D01*
X27678898Y-49325343D01*
X27678888Y-49325344D01*
X27460077Y-49361857D01*
X27460065Y-49361859D01*
X27455019Y-49362702D01*
X27450169Y-49364366D01*
X27450165Y-49364368D01*
X27240345Y-49436399D01*
X27240337Y-49436402D01*
X27235497Y-49438064D01*
X27231001Y-49440496D01*
X27230992Y-49440501D01*
X27035882Y-49546090D01*
X27035878Y-49546092D01*
X27031374Y-49548530D01*
X27027334Y-49551674D01*
X27027327Y-49551679D01*
X26854436Y-49686245D01*
X26802007Y-49710099D01*
X26744458Y-49707691D01*
X26694205Y-49679541D01*
X26662092Y-49631723D01*
X26646896Y-49590981D01*
X26643796Y-49582669D01*
X26557546Y-49467454D01*
X26521541Y-49440501D01*
X26449431Y-49386519D01*
X26449430Y-49386518D01*
X26442331Y-49381204D01*
X26307483Y-49330909D01*
X26299770Y-49330079D01*
X26299767Y-49330079D01*
X26251180Y-49324855D01*
X26251169Y-49324854D01*
X26247873Y-49324500D01*
X26244550Y-49324500D01*
X24355439Y-49324500D01*
X24355420Y-49324500D01*
X24352128Y-49324501D01*
X24348850Y-49324853D01*
X24348838Y-49324854D01*
X24300231Y-49330079D01*
X24300225Y-49330080D01*
X24292517Y-49330909D01*
X24285252Y-49333618D01*
X24285246Y-49333620D01*
X24165980Y-49378104D01*
X24165978Y-49378104D01*
X24157669Y-49381204D01*
X24150572Y-49386516D01*
X24150568Y-49386519D01*
X24049550Y-49462141D01*
X24049546Y-49462144D01*
X24042454Y-49467454D01*
X24037144Y-49474546D01*
X24037141Y-49474550D01*
X23961519Y-49575568D01*
X23961516Y-49575572D01*
X23956204Y-49582669D01*
X23953104Y-49590978D01*
X23953104Y-49590980D01*
X23908620Y-49710247D01*
X23908619Y-49710250D01*
X23905909Y-49717517D01*
X23905079Y-49725227D01*
X23905079Y-49725232D01*
X23899855Y-49773819D01*
X23899854Y-49773831D01*
X23899500Y-49777127D01*
X23899500Y-49780448D01*
X23899500Y-49780449D01*
X23899500Y-51669560D01*
X23899500Y-51669578D01*
X20000500Y-51669578D01*
X20000500Y-43553000D01*
X21139500Y-43553000D01*
X21139664Y-43555251D01*
X21139665Y-43555257D01*
X21144817Y-43625645D01*
X21154403Y-43756616D01*
X21155386Y-43761031D01*
X21155388Y-43761041D01*
X21212630Y-44018011D01*
X21212633Y-44018023D01*
X21213618Y-44022442D01*
X21215237Y-44026676D01*
X21215238Y-44026678D01*
X21264508Y-44155500D01*
X21310907Y-44276814D01*
X21313125Y-44280766D01*
X21441978Y-44510359D01*
X21441981Y-44510364D01*
X21444196Y-44514310D01*
X21610645Y-44729868D01*
X21613906Y-44733012D01*
X21803437Y-44915744D01*
X21803442Y-44915748D01*
X21806705Y-44918894D01*
X22028198Y-45077358D01*
X22270403Y-45201885D01*
X22528159Y-45289819D01*
X22795971Y-45339286D01*
X23068131Y-45349232D01*
X23338839Y-45319446D01*
X23602326Y-45250562D01*
X23852975Y-45144047D01*
X24085444Y-45002173D01*
X24294779Y-44827963D01*
X24476518Y-44625131D01*
X24626788Y-44397998D01*
X24742386Y-44151406D01*
X24820847Y-43890611D01*
X24860500Y-43621171D01*
X24860500Y-43553000D01*
X30739500Y-43553000D01*
X30739664Y-43555251D01*
X30739665Y-43555257D01*
X30744817Y-43625645D01*
X30754403Y-43756616D01*
X30755386Y-43761031D01*
X30755388Y-43761041D01*
X30812630Y-44018011D01*
X30812633Y-44018023D01*
X30813618Y-44022442D01*
X30815237Y-44026676D01*
X30815238Y-44026678D01*
X30864508Y-44155500D01*
X30910907Y-44276814D01*
X30913125Y-44280766D01*
X31041978Y-44510359D01*
X31041981Y-44510364D01*
X31044196Y-44514310D01*
X31210645Y-44729868D01*
X31213906Y-44733012D01*
X31403437Y-44915744D01*
X31403442Y-44915748D01*
X31406705Y-44918894D01*
X31628198Y-45077358D01*
X31870403Y-45201885D01*
X32128159Y-45289819D01*
X32395971Y-45339286D01*
X32668131Y-45349232D01*
X32938839Y-45319446D01*
X33202326Y-45250562D01*
X33452975Y-45144047D01*
X33685444Y-45002173D01*
X33894779Y-44827963D01*
X34076518Y-44625131D01*
X34226788Y-44397998D01*
X34342386Y-44151406D01*
X34420847Y-43890611D01*
X34460500Y-43621171D01*
X34460500Y-42897000D01*
X34445597Y-42693384D01*
X34416747Y-42563871D01*
X34387369Y-42431988D01*
X34387368Y-42431985D01*
X34386382Y-42427558D01*
X34289093Y-42173186D01*
X34155804Y-41935690D01*
X33989355Y-41720132D01*
X33986093Y-41716987D01*
X33796562Y-41534255D01*
X33796556Y-41534250D01*
X33793295Y-41531106D01*
X33571802Y-41372642D01*
X33506055Y-41338839D01*
X33333632Y-41250189D01*
X33333625Y-41250186D01*
X33329597Y-41248115D01*
X33325312Y-41246653D01*
X33325307Y-41246651D01*
X33076124Y-41161642D01*
X33076122Y-41161641D01*
X33071841Y-41160181D01*
X33049679Y-41156087D01*
X32808489Y-41111537D01*
X32808478Y-41111535D01*
X32804029Y-41110714D01*
X32799500Y-41110548D01*
X32799496Y-41110548D01*
X32536397Y-41100933D01*
X32536390Y-41100933D01*
X32531869Y-41100768D01*
X32527372Y-41101262D01*
X32527366Y-41101263D01*
X32265672Y-41130057D01*
X32265663Y-41130058D01*
X32261161Y-41130554D01*
X32256782Y-41131698D01*
X32256770Y-41131701D01*
X32002049Y-41198294D01*
X32002046Y-41198295D01*
X31997674Y-41199438D01*
X31993524Y-41201201D01*
X31993511Y-41201206D01*
X31751191Y-41304182D01*
X31751183Y-41304185D01*
X31747025Y-41305953D01*
X31743168Y-41308306D01*
X31743158Y-41308312D01*
X31518428Y-41445463D01*
X31518418Y-41445469D01*
X31514556Y-41447827D01*
X31511071Y-41450726D01*
X31511067Y-41450730D01*
X31308706Y-41619136D01*
X31308700Y-41619141D01*
X31305221Y-41622037D01*
X31302203Y-41625404D01*
X31302199Y-41625409D01*
X31126498Y-41821502D01*
X31126492Y-41821508D01*
X31123482Y-41824869D01*
X31120989Y-41828636D01*
X31120986Y-41828641D01*
X30975711Y-42048224D01*
X30975708Y-42048229D01*
X30973212Y-42052002D01*
X30971295Y-42056089D01*
X30971290Y-42056100D01*
X30859533Y-42294499D01*
X30859530Y-42294506D01*
X30857614Y-42298594D01*
X30856314Y-42302912D01*
X30856310Y-42302925D01*
X30803334Y-42479013D01*
X30779153Y-42559389D01*
X30778494Y-42563865D01*
X30778493Y-42563871D01*
X30740158Y-42824354D01*
X30740157Y-42824361D01*
X30739500Y-42828829D01*
X30739500Y-43553000D01*
X24860500Y-43553000D01*
X24860500Y-42897000D01*
X24845597Y-42693384D01*
X24816747Y-42563871D01*
X24787369Y-42431988D01*
X24787368Y-42431985D01*
X24786382Y-42427558D01*
X24689093Y-42173186D01*
X24555804Y-41935690D01*
X24389355Y-41720132D01*
X24386093Y-41716987D01*
X24196562Y-41534255D01*
X24196556Y-41534250D01*
X24193295Y-41531106D01*
X23971802Y-41372642D01*
X23906055Y-41338839D01*
X23733632Y-41250189D01*
X23733625Y-41250186D01*
X23729597Y-41248115D01*
X23725312Y-41246653D01*
X23725307Y-41246651D01*
X23476124Y-41161642D01*
X23476122Y-41161641D01*
X23471841Y-41160181D01*
X23449679Y-41156087D01*
X23208489Y-41111537D01*
X23208478Y-41111535D01*
X23204029Y-41110714D01*
X23199500Y-41110548D01*
X23199496Y-41110548D01*
X22936397Y-41100933D01*
X22936390Y-41100933D01*
X22931869Y-41100768D01*
X22927372Y-41101262D01*
X22927366Y-41101263D01*
X22665672Y-41130057D01*
X22665663Y-41130058D01*
X22661161Y-41130554D01*
X22656782Y-41131698D01*
X22656770Y-41131701D01*
X22402049Y-41198294D01*
X22402046Y-41198295D01*
X22397674Y-41199438D01*
X22393524Y-41201201D01*
X22393511Y-41201206D01*
X22151191Y-41304182D01*
X22151183Y-41304185D01*
X22147025Y-41305953D01*
X22143168Y-41308306D01*
X22143158Y-41308312D01*
X21918428Y-41445463D01*
X21918418Y-41445469D01*
X21914556Y-41447827D01*
X21911071Y-41450726D01*
X21911067Y-41450730D01*
X21708706Y-41619136D01*
X21708700Y-41619141D01*
X21705221Y-41622037D01*
X21702203Y-41625404D01*
X21702199Y-41625409D01*
X21526498Y-41821502D01*
X21526492Y-41821508D01*
X21523482Y-41824869D01*
X21520989Y-41828636D01*
X21520986Y-41828641D01*
X21375711Y-42048224D01*
X21375708Y-42048229D01*
X21373212Y-42052002D01*
X21371295Y-42056089D01*
X21371290Y-42056100D01*
X21259533Y-42294499D01*
X21259530Y-42294506D01*
X21257614Y-42298594D01*
X21256314Y-42302912D01*
X21256310Y-42302925D01*
X21203334Y-42479013D01*
X21179153Y-42559389D01*
X21178494Y-42563865D01*
X21178493Y-42563871D01*
X21140158Y-42824354D01*
X21140157Y-42824361D01*
X21139500Y-42828829D01*
X21139500Y-43553000D01*
X20000500Y-43553000D01*
X20000500Y-41068131D01*
X42250768Y-41068131D01*
X42251262Y-41072628D01*
X42251263Y-41072633D01*
X42280057Y-41334327D01*
X42280058Y-41334334D01*
X42280554Y-41338839D01*
X42281699Y-41343220D01*
X42281701Y-41343229D01*
X42330128Y-41528465D01*
X42349438Y-41602326D01*
X42351203Y-41606480D01*
X42351206Y-41606488D01*
X42405237Y-41733632D01*
X42455953Y-41852975D01*
X42458309Y-41856836D01*
X42458312Y-41856841D01*
X42595463Y-42081571D01*
X42597827Y-42085444D01*
X42772037Y-42294779D01*
X42974869Y-42476518D01*
X43202002Y-42626788D01*
X43448594Y-42742386D01*
X43709389Y-42820847D01*
X43978829Y-42860500D01*
X44700739Y-42860500D01*
X44703000Y-42860500D01*
X44906616Y-42845597D01*
X45172442Y-42786382D01*
X45426814Y-42689093D01*
X45664310Y-42555804D01*
X45879868Y-42389355D01*
X46068894Y-42193295D01*
X46227358Y-41971802D01*
X46351885Y-41729597D01*
X46439819Y-41471841D01*
X46489286Y-41204029D01*
X46499232Y-40931869D01*
X46469446Y-40661161D01*
X46400562Y-40397674D01*
X46294047Y-40147025D01*
X46152173Y-39914556D01*
X45977963Y-39705221D01*
X45775131Y-39523482D01*
X45547998Y-39373212D01*
X45543903Y-39371292D01*
X45543899Y-39371290D01*
X45305500Y-39259533D01*
X45305497Y-39259532D01*
X45301406Y-39257614D01*
X45297082Y-39256313D01*
X45297074Y-39256310D01*
X45044949Y-39180458D01*
X45044947Y-39180457D01*
X45040611Y-39179153D01*
X45036131Y-39178493D01*
X45036128Y-39178493D01*
X44775645Y-39140158D01*
X44775639Y-39140157D01*
X44771171Y-39139500D01*
X44047000Y-39139500D01*
X44044749Y-39139664D01*
X44044742Y-39139665D01*
X43847903Y-39154072D01*
X43847899Y-39154072D01*
X43843384Y-39154403D01*
X43838970Y-39155386D01*
X43838958Y-39155388D01*
X43581988Y-39212630D01*
X43581972Y-39212634D01*
X43577558Y-39213618D01*
X43573327Y-39215236D01*
X43573321Y-39215238D01*
X43327418Y-39309288D01*
X43327413Y-39309290D01*
X43323186Y-39310907D01*
X43319238Y-39313122D01*
X43319233Y-39313125D01*
X43089640Y-39441978D01*
X43089628Y-39441985D01*
X43085690Y-39444196D01*
X43082110Y-39446960D01*
X43082103Y-39446965D01*
X42873717Y-39607876D01*
X42873710Y-39607881D01*
X42870132Y-39610645D01*
X42866994Y-39613899D01*
X42866987Y-39613906D01*
X42684255Y-39803437D01*
X42684243Y-39803450D01*
X42681106Y-39806705D01*
X42678467Y-39810393D01*
X42678465Y-39810396D01*
X42525281Y-40024508D01*
X42525275Y-40024517D01*
X42522642Y-40028198D01*
X42520569Y-40032228D01*
X42520567Y-40032233D01*
X42400189Y-40266367D01*
X42400183Y-40266378D01*
X42398115Y-40270403D01*
X42396655Y-40274682D01*
X42396651Y-40274692D01*
X42311642Y-40523875D01*
X42310181Y-40528159D01*
X42309358Y-40532612D01*
X42309358Y-40532614D01*
X42261537Y-40791510D01*
X42261535Y-40791523D01*
X42260714Y-40795971D01*
X42260548Y-40800497D01*
X42260548Y-40800503D01*
X42250933Y-41063602D01*
X42250933Y-41063608D01*
X42250768Y-41068131D01*
X20000500Y-41068131D01*
X20000500Y-38700000D01*
X35469700Y-38700000D01*
X35470124Y-38705117D01*
X35488441Y-38926186D01*
X35488442Y-38926195D01*
X35488866Y-38931305D01*
X35490123Y-38936272D01*
X35490125Y-38936279D01*
X35541630Y-39139665D01*
X35545843Y-39156300D01*
X35547903Y-39160996D01*
X35637016Y-39364154D01*
X35637019Y-39364159D01*
X35639076Y-39368849D01*
X35686854Y-39441978D01*
X35763219Y-39558865D01*
X35763222Y-39558869D01*
X35766021Y-39563153D01*
X35923216Y-39733913D01*
X36106374Y-39876470D01*
X36310497Y-39986936D01*
X36530019Y-40062298D01*
X36758951Y-40100500D01*
X36985916Y-40100500D01*
X36991049Y-40100500D01*
X37219981Y-40062298D01*
X37439503Y-39986936D01*
X37643626Y-39876470D01*
X37826784Y-39733913D01*
X37983979Y-39563153D01*
X38110924Y-39368849D01*
X38204157Y-39156300D01*
X38261134Y-38931305D01*
X38280300Y-38700000D01*
X38261134Y-38468695D01*
X38204157Y-38243700D01*
X38110924Y-38031151D01*
X37983979Y-37836847D01*
X37826784Y-37666087D01*
X37674875Y-37547852D01*
X37639639Y-37504461D01*
X37627039Y-37450000D01*
X37639639Y-37395539D01*
X37674875Y-37352147D01*
X37826784Y-37233913D01*
X37983979Y-37063153D01*
X38110924Y-36868849D01*
X38204157Y-36656300D01*
X38261134Y-36431305D01*
X38280300Y-36200000D01*
X38261134Y-35968695D01*
X38204157Y-35743700D01*
X38110924Y-35531151D01*
X37983979Y-35336847D01*
X37980508Y-35333076D01*
X37980503Y-35333070D01*
X37916609Y-35263662D01*
X37887836Y-35210909D01*
X37887244Y-35150822D01*
X37914971Y-35097512D01*
X37964507Y-35063498D01*
X38017331Y-35043796D01*
X38132546Y-34957546D01*
X38218796Y-34842331D01*
X38269091Y-34707483D01*
X38275500Y-34647873D01*
X38275499Y-32752128D01*
X38269091Y-32692517D01*
X38218796Y-32557669D01*
X38132546Y-32442454D01*
X38017331Y-32356204D01*
X37882483Y-32305909D01*
X37874770Y-32305079D01*
X37874767Y-32305079D01*
X37826180Y-32299855D01*
X37826169Y-32299854D01*
X37822873Y-32299500D01*
X37819550Y-32299500D01*
X35930439Y-32299500D01*
X35930420Y-32299500D01*
X35927128Y-32299501D01*
X35923850Y-32299853D01*
X35923838Y-32299854D01*
X35875231Y-32305079D01*
X35875225Y-32305080D01*
X35867517Y-32305909D01*
X35860252Y-32308618D01*
X35860246Y-32308620D01*
X35740980Y-32353104D01*
X35740978Y-32353104D01*
X35732669Y-32356204D01*
X35725572Y-32361516D01*
X35725568Y-32361519D01*
X35624550Y-32437141D01*
X35624546Y-32437144D01*
X35617454Y-32442454D01*
X35612144Y-32449546D01*
X35612141Y-32449550D01*
X35536519Y-32550568D01*
X35536516Y-32550572D01*
X35531204Y-32557669D01*
X35528104Y-32565978D01*
X35528104Y-32565980D01*
X35483620Y-32685247D01*
X35483619Y-32685250D01*
X35480909Y-32692517D01*
X35480079Y-32700227D01*
X35480079Y-32700232D01*
X35474855Y-32748819D01*
X35474854Y-32748831D01*
X35474500Y-32752127D01*
X35474500Y-32755448D01*
X35474500Y-32755449D01*
X35474500Y-34644560D01*
X35474500Y-34644578D01*
X35474501Y-34647872D01*
X35474853Y-34651150D01*
X35474854Y-34651161D01*
X35480079Y-34699768D01*
X35480080Y-34699773D01*
X35480909Y-34707483D01*
X35483619Y-34714749D01*
X35483620Y-34714753D01*
X35517217Y-34804831D01*
X35531204Y-34842331D01*
X35617454Y-34957546D01*
X35732669Y-35043796D01*
X35785493Y-35063498D01*
X35835028Y-35097513D01*
X35862755Y-35150822D01*
X35862163Y-35210909D01*
X35833391Y-35263662D01*
X35769490Y-35333077D01*
X35769481Y-35333087D01*
X35766021Y-35336847D01*
X35763226Y-35341124D01*
X35763219Y-35341134D01*
X35641878Y-35526862D01*
X35639076Y-35531151D01*
X35637021Y-35535835D01*
X35637016Y-35535845D01*
X35547903Y-35739003D01*
X35545843Y-35743700D01*
X35544585Y-35748665D01*
X35544584Y-35748670D01*
X35490125Y-35963720D01*
X35490123Y-35963729D01*
X35488866Y-35968695D01*
X35488442Y-35973802D01*
X35488441Y-35973813D01*
X35470200Y-36193955D01*
X35469700Y-36200000D01*
X35470124Y-36205117D01*
X35488441Y-36426186D01*
X35488442Y-36426195D01*
X35488866Y-36431305D01*
X35490123Y-36436272D01*
X35490125Y-36436279D01*
X35544584Y-36651329D01*
X35545843Y-36656300D01*
X35547903Y-36660996D01*
X35637016Y-36864154D01*
X35637019Y-36864159D01*
X35639076Y-36868849D01*
X35702548Y-36966001D01*
X35763219Y-37058865D01*
X35763222Y-37058869D01*
X35766021Y-37063153D01*
X35923216Y-37233913D01*
X35927263Y-37237063D01*
X35927270Y-37237069D01*
X36075122Y-37352147D01*
X36110360Y-37395540D01*
X36122960Y-37450000D01*
X36110360Y-37504460D01*
X36075122Y-37547853D01*
X35927270Y-37662930D01*
X35927258Y-37662940D01*
X35923216Y-37666087D01*
X35919746Y-37669855D01*
X35919742Y-37669860D01*
X35769491Y-37833077D01*
X35769488Y-37833080D01*
X35766021Y-37836847D01*
X35763226Y-37841124D01*
X35763219Y-37841134D01*
X35641878Y-38026862D01*
X35639076Y-38031151D01*
X35637021Y-38035835D01*
X35637016Y-38035845D01*
X35547903Y-38239003D01*
X35545843Y-38243700D01*
X35544585Y-38248665D01*
X35544584Y-38248670D01*
X35490125Y-38463720D01*
X35490123Y-38463729D01*
X35488866Y-38468695D01*
X35488442Y-38473802D01*
X35488441Y-38473813D01*
X35470200Y-38693955D01*
X35469700Y-38700000D01*
X20000500Y-38700000D01*
X20000500Y-31468131D01*
X42250768Y-31468131D01*
X42251262Y-31472628D01*
X42251263Y-31472633D01*
X42280057Y-31734327D01*
X42280058Y-31734334D01*
X42280554Y-31738839D01*
X42281699Y-31743220D01*
X42281701Y-31743229D01*
X42345729Y-31988141D01*
X42349438Y-32002326D01*
X42351203Y-32006480D01*
X42351206Y-32006488D01*
X42405237Y-32133632D01*
X42455953Y-32252975D01*
X42458309Y-32256836D01*
X42458312Y-32256841D01*
X42575921Y-32449550D01*
X42597827Y-32485444D01*
X42772037Y-32694779D01*
X42974869Y-32876518D01*
X43202002Y-33026788D01*
X43448594Y-33142386D01*
X43709389Y-33220847D01*
X43978829Y-33260500D01*
X44700739Y-33260500D01*
X44703000Y-33260500D01*
X44906616Y-33245597D01*
X45172442Y-33186382D01*
X45426814Y-33089093D01*
X45664310Y-32955804D01*
X45879868Y-32789355D01*
X46068894Y-32593295D01*
X46227358Y-32371802D01*
X46351885Y-32129597D01*
X46439819Y-31871841D01*
X46489286Y-31604029D01*
X46499232Y-31331869D01*
X46469446Y-31061161D01*
X46400562Y-30797674D01*
X46294047Y-30547025D01*
X46152173Y-30314556D01*
X45977963Y-30105221D01*
X45775131Y-29923482D01*
X45547998Y-29773212D01*
X45543903Y-29771292D01*
X45543899Y-29771290D01*
X45305500Y-29659533D01*
X45305497Y-29659532D01*
X45301406Y-29657614D01*
X45297082Y-29656313D01*
X45297074Y-29656310D01*
X45044949Y-29580458D01*
X45044947Y-29580457D01*
X45040611Y-29579153D01*
X45036131Y-29578493D01*
X45036128Y-29578493D01*
X44775645Y-29540158D01*
X44775639Y-29540157D01*
X44771171Y-29539500D01*
X44047000Y-29539500D01*
X44044749Y-29539664D01*
X44044742Y-29539665D01*
X43847903Y-29554072D01*
X43847899Y-29554072D01*
X43843384Y-29554403D01*
X43838970Y-29555386D01*
X43838958Y-29555388D01*
X43581988Y-29612630D01*
X43581972Y-29612634D01*
X43577558Y-29613618D01*
X43573327Y-29615236D01*
X43573321Y-29615238D01*
X43327418Y-29709288D01*
X43327413Y-29709290D01*
X43323186Y-29710907D01*
X43319238Y-29713122D01*
X43319233Y-29713125D01*
X43089640Y-29841978D01*
X43089628Y-29841985D01*
X43085690Y-29844196D01*
X43082110Y-29846960D01*
X43082103Y-29846965D01*
X42873717Y-30007876D01*
X42873710Y-30007881D01*
X42870132Y-30010645D01*
X42866994Y-30013899D01*
X42866987Y-30013906D01*
X42684255Y-30203437D01*
X42684243Y-30203450D01*
X42681106Y-30206705D01*
X42678467Y-30210393D01*
X42678465Y-30210396D01*
X42525281Y-30424508D01*
X42525275Y-30424517D01*
X42522642Y-30428198D01*
X42520569Y-30432228D01*
X42520567Y-30432233D01*
X42400189Y-30666367D01*
X42400183Y-30666378D01*
X42398115Y-30670403D01*
X42396655Y-30674682D01*
X42396651Y-30674692D01*
X42311642Y-30923875D01*
X42310181Y-30928159D01*
X42309358Y-30932612D01*
X42309358Y-30932614D01*
X42261537Y-31191510D01*
X42261535Y-31191523D01*
X42260714Y-31195971D01*
X42260548Y-31200497D01*
X42260548Y-31200503D01*
X42250933Y-31463602D01*
X42250933Y-31463608D01*
X42250768Y-31468131D01*
X20000500Y-31468131D01*
X20000500Y-29000000D01*
X21499459Y-29000000D01*
X21499617Y-29000383D01*
X21499901Y-29000500D01*
X24487944Y-29000500D01*
X24500099Y-29000500D01*
X24500383Y-29000383D01*
X24500541Y-29000000D01*
X26499459Y-29000000D01*
X26499617Y-29000383D01*
X26499901Y-29000500D01*
X29487944Y-29000500D01*
X29500099Y-29000500D01*
X29500383Y-29000383D01*
X29500541Y-29000000D01*
X31499459Y-29000000D01*
X31499617Y-29000383D01*
X31499901Y-29000500D01*
X34487944Y-29000500D01*
X34500099Y-29000500D01*
X34500383Y-29000383D01*
X34500541Y-29000000D01*
X36499459Y-29000000D01*
X36499617Y-29000383D01*
X36499901Y-29000500D01*
X39487944Y-29000500D01*
X39500099Y-29000500D01*
X39500383Y-29000383D01*
X39500541Y-29000000D01*
X41499459Y-29000000D01*
X41499617Y-29000383D01*
X41499901Y-29000500D01*
X44487944Y-29000500D01*
X44500099Y-29000500D01*
X44500383Y-29000383D01*
X44500541Y-29000000D01*
X46499459Y-29000000D01*
X46499617Y-29000383D01*
X46499901Y-29000500D01*
X49487944Y-29000500D01*
X49500099Y-29000500D01*
X49500383Y-29000383D01*
X49500541Y-29000000D01*
X49500383Y-28999617D01*
X49500099Y-28999500D01*
X46499901Y-28999500D01*
X46499617Y-28999617D01*
X46499459Y-29000000D01*
X44500541Y-29000000D01*
X44500383Y-28999617D01*
X44500099Y-28999500D01*
X41499901Y-28999500D01*
X41499617Y-28999617D01*
X41499459Y-29000000D01*
X39500541Y-29000000D01*
X39500383Y-28999617D01*
X39500099Y-28999500D01*
X36499901Y-28999500D01*
X36499617Y-28999617D01*
X36499459Y-29000000D01*
X34500541Y-29000000D01*
X34500383Y-28999617D01*
X34500099Y-28999500D01*
X31499901Y-28999500D01*
X31499617Y-28999617D01*
X31499459Y-29000000D01*
X29500541Y-29000000D01*
X29500383Y-28999617D01*
X29500099Y-28999500D01*
X26499901Y-28999500D01*
X26499617Y-28999617D01*
X26499459Y-29000000D01*
X24500541Y-29000000D01*
X24500383Y-28999617D01*
X24500099Y-28999500D01*
X21499901Y-28999500D01*
X21499617Y-28999617D01*
X21499459Y-29000000D01*
X20000500Y-29000000D01*
X20000500Y-23000000D01*
X25074551Y-23000000D01*
X25094317Y-23251148D01*
X25095452Y-23255877D01*
X25095453Y-23255881D01*
X25151989Y-23491374D01*
X25151991Y-23491382D01*
X25153127Y-23496111D01*
X25249534Y-23728859D01*
X25252081Y-23733016D01*
X25252082Y-23733017D01*
X25378617Y-23939504D01*
X25378622Y-23939511D01*
X25381164Y-23943659D01*
X25384324Y-23947358D01*
X25384327Y-23947363D01*
X25534845Y-24123596D01*
X25544776Y-24135224D01*
X25548476Y-24138384D01*
X25730705Y-24294023D01*
X25736341Y-24298836D01*
X25740491Y-24301379D01*
X25740495Y-24301382D01*
X25852300Y-24369896D01*
X25951141Y-24430466D01*
X26183889Y-24526873D01*
X26428852Y-24585683D01*
X26680000Y-24605449D01*
X26931148Y-24585683D01*
X27176111Y-24526873D01*
X27408859Y-24430466D01*
X27623659Y-24298836D01*
X27815224Y-24135224D01*
X27978836Y-23943659D01*
X28110466Y-23728859D01*
X28206873Y-23496111D01*
X28265683Y-23251148D01*
X28285449Y-23000000D01*
X42194551Y-23000000D01*
X42214317Y-23251148D01*
X42215452Y-23255877D01*
X42215453Y-23255881D01*
X42271989Y-23491374D01*
X42271991Y-23491382D01*
X42273127Y-23496111D01*
X42369534Y-23728859D01*
X42372081Y-23733016D01*
X42372082Y-23733017D01*
X42498617Y-23939504D01*
X42498622Y-23939511D01*
X42501164Y-23943659D01*
X42504324Y-23947358D01*
X42504327Y-23947363D01*
X42654845Y-24123596D01*
X42664776Y-24135224D01*
X42668476Y-24138384D01*
X42850705Y-24294023D01*
X42856341Y-24298836D01*
X42860491Y-24301379D01*
X42860495Y-24301382D01*
X42972300Y-24369896D01*
X43071141Y-24430466D01*
X43303889Y-24526873D01*
X43548852Y-24585683D01*
X43800000Y-24605449D01*
X44051148Y-24585683D01*
X44296111Y-24526873D01*
X44528859Y-24430466D01*
X44743659Y-24298836D01*
X44935224Y-24135224D01*
X45098836Y-23943659D01*
X45230466Y-23728859D01*
X45326873Y-23496111D01*
X45385683Y-23251148D01*
X45405449Y-23000000D01*
X45385683Y-22748852D01*
X45326873Y-22503889D01*
X45230466Y-22271141D01*
X45098836Y-22056341D01*
X44935224Y-21864776D01*
X44931523Y-21861615D01*
X44747363Y-21704327D01*
X44747358Y-21704324D01*
X44743659Y-21701164D01*
X44739511Y-21698622D01*
X44739504Y-21698617D01*
X44533017Y-21572082D01*
X44533016Y-21572081D01*
X44528859Y-21569534D01*
X44296111Y-21473127D01*
X44291382Y-21471991D01*
X44291374Y-21471989D01*
X44055881Y-21415453D01*
X44055877Y-21415452D01*
X44051148Y-21414317D01*
X44046295Y-21413935D01*
X43804854Y-21394933D01*
X43800000Y-21394551D01*
X43795146Y-21394933D01*
X43553704Y-21413935D01*
X43553702Y-21413935D01*
X43548852Y-21414317D01*
X43544124Y-21415451D01*
X43544118Y-21415453D01*
X43308625Y-21471989D01*
X43308613Y-21471992D01*
X43303889Y-21473127D01*
X43299392Y-21474989D01*
X43299388Y-21474991D01*
X43075645Y-21567668D01*
X43075640Y-21567670D01*
X43071141Y-21569534D01*
X43066988Y-21572078D01*
X43066982Y-21572082D01*
X42860495Y-21698617D01*
X42860482Y-21698626D01*
X42856341Y-21701164D01*
X42852646Y-21704319D01*
X42852636Y-21704327D01*
X42668476Y-21861615D01*
X42668469Y-21861621D01*
X42664776Y-21864776D01*
X42661621Y-21868469D01*
X42661615Y-21868476D01*
X42504327Y-22052636D01*
X42504319Y-22052646D01*
X42501164Y-22056341D01*
X42498626Y-22060482D01*
X42498617Y-22060495D01*
X42372082Y-22266982D01*
X42372078Y-22266988D01*
X42369534Y-22271141D01*
X42367670Y-22275640D01*
X42367668Y-22275645D01*
X42274991Y-22499388D01*
X42273127Y-22503889D01*
X42271992Y-22508613D01*
X42271989Y-22508625D01*
X42215453Y-22744118D01*
X42215451Y-22744124D01*
X42214317Y-22748852D01*
X42194551Y-23000000D01*
X28285449Y-23000000D01*
X28265683Y-22748852D01*
X28206873Y-22503889D01*
X28110466Y-22271141D01*
X27978836Y-22056341D01*
X27815224Y-21864776D01*
X27811523Y-21861615D01*
X27627363Y-21704327D01*
X27627358Y-21704324D01*
X27623659Y-21701164D01*
X27619511Y-21698622D01*
X27619504Y-21698617D01*
X27413017Y-21572082D01*
X27413016Y-21572081D01*
X27408859Y-21569534D01*
X27176111Y-21473127D01*
X27171382Y-21471991D01*
X27171374Y-21471989D01*
X26935881Y-21415453D01*
X26935877Y-21415452D01*
X26931148Y-21414317D01*
X26926295Y-21413935D01*
X26684854Y-21394933D01*
X26680000Y-21394551D01*
X26675146Y-21394933D01*
X26433704Y-21413935D01*
X26433702Y-21413935D01*
X26428852Y-21414317D01*
X26424124Y-21415451D01*
X26424118Y-21415453D01*
X26188625Y-21471989D01*
X26188613Y-21471992D01*
X26183889Y-21473127D01*
X26179392Y-21474989D01*
X26179388Y-21474991D01*
X25955645Y-21567668D01*
X25955640Y-21567670D01*
X25951141Y-21569534D01*
X25946988Y-21572078D01*
X25946982Y-21572082D01*
X25740495Y-21698617D01*
X25740482Y-21698626D01*
X25736341Y-21701164D01*
X25732646Y-21704319D01*
X25732636Y-21704327D01*
X25548476Y-21861615D01*
X25548469Y-21861621D01*
X25544776Y-21864776D01*
X25541621Y-21868469D01*
X25541615Y-21868476D01*
X25384327Y-22052636D01*
X25384319Y-22052646D01*
X25381164Y-22056341D01*
X25378626Y-22060482D01*
X25378617Y-22060495D01*
X25252082Y-22266982D01*
X25252078Y-22266988D01*
X25249534Y-22271141D01*
X25247670Y-22275640D01*
X25247668Y-22275645D01*
X25154991Y-22499388D01*
X25153127Y-22503889D01*
X25151992Y-22508613D01*
X25151989Y-22508625D01*
X25095453Y-22744118D01*
X25095451Y-22744124D01*
X25094317Y-22748852D01*
X25074551Y-23000000D01*
X20000500Y-23000000D01*
X20000500Y-20124500D01*
X20017113Y-20062500D01*
X20062500Y-20017113D01*
X20124500Y-20000500D01*
X50355500Y-20000500D01*
X50417500Y-20017113D01*
G37*
%TD.AperFunction*%
%TD*%
M02*
