%TF.GenerationSoftware,KiCad,Pcbnew,(6.0.5)*%
%TF.CreationDate,2023-02-22T06:39:25-08:00*%
%TF.ProjectId,wisseq,77697373-6571-42e6-9b69-6361645f7063,rev?*%
%TF.SameCoordinates,Original*%
%TF.FileFunction,Other,Comment*%
%FSLAX46Y46*%
G04 Gerber Fmt 4.6, Leading zero omitted, Abs format (unit mm)*
G04 Created by KiCad (PCBNEW (6.0.5)) date 2023-02-22 06:39:25*
%MOMM*%
%LPD*%
G01*
G04 APERTURE LIST*
%ADD10C,0.051000*%
G04 APERTURE END LIST*
D10*
%TO.C,J2*%
X63277904Y-128642952D02*
X63277904Y-128242952D01*
X63506476Y-128642952D02*
X63335047Y-128414380D01*
X63506476Y-128242952D02*
X63277904Y-128471523D01*
X63677904Y-128433428D02*
X63811238Y-128433428D01*
X63868380Y-128642952D02*
X63677904Y-128642952D01*
X63677904Y-128242952D01*
X63868380Y-128242952D01*
X64039809Y-128433428D02*
X64173142Y-128433428D01*
X64230285Y-128642952D02*
X64039809Y-128642952D01*
X64039809Y-128242952D01*
X64230285Y-128242952D01*
X64401714Y-128642952D02*
X64401714Y-128242952D01*
X64554095Y-128242952D01*
X64592190Y-128262000D01*
X64611238Y-128281047D01*
X64630285Y-128319142D01*
X64630285Y-128376285D01*
X64611238Y-128414380D01*
X64592190Y-128433428D01*
X64554095Y-128452476D01*
X64401714Y-128452476D01*
X64877904Y-128242952D02*
X64954095Y-128242952D01*
X64992190Y-128262000D01*
X65030285Y-128300095D01*
X65049333Y-128376285D01*
X65049333Y-128509619D01*
X65030285Y-128585809D01*
X64992190Y-128623904D01*
X64954095Y-128642952D01*
X64877904Y-128642952D01*
X64839809Y-128623904D01*
X64801714Y-128585809D01*
X64782666Y-128509619D01*
X64782666Y-128376285D01*
X64801714Y-128300095D01*
X64839809Y-128262000D01*
X64877904Y-128242952D01*
X65220761Y-128242952D02*
X65220761Y-128566761D01*
X65239809Y-128604857D01*
X65258857Y-128623904D01*
X65296952Y-128642952D01*
X65373142Y-128642952D01*
X65411238Y-128623904D01*
X65430285Y-128604857D01*
X65449333Y-128566761D01*
X65449333Y-128242952D01*
X65582666Y-128242952D02*
X65811238Y-128242952D01*
X65696952Y-128642952D02*
X65696952Y-128242952D01*
%TO.C,J1*%
X25939904Y-128134952D02*
X25939904Y-127734952D01*
X26168476Y-128134952D02*
X25997047Y-127906380D01*
X26168476Y-127734952D02*
X25939904Y-127963523D01*
X26339904Y-127925428D02*
X26473238Y-127925428D01*
X26530380Y-128134952D02*
X26339904Y-128134952D01*
X26339904Y-127734952D01*
X26530380Y-127734952D01*
X26701809Y-127925428D02*
X26835142Y-127925428D01*
X26892285Y-128134952D02*
X26701809Y-128134952D01*
X26701809Y-127734952D01*
X26892285Y-127734952D01*
X27063714Y-128134952D02*
X27063714Y-127734952D01*
X27216095Y-127734952D01*
X27254190Y-127754000D01*
X27273238Y-127773047D01*
X27292285Y-127811142D01*
X27292285Y-127868285D01*
X27273238Y-127906380D01*
X27254190Y-127925428D01*
X27216095Y-127944476D01*
X27063714Y-127944476D01*
X27539904Y-127734952D02*
X27616095Y-127734952D01*
X27654190Y-127754000D01*
X27692285Y-127792095D01*
X27711333Y-127868285D01*
X27711333Y-128001619D01*
X27692285Y-128077809D01*
X27654190Y-128115904D01*
X27616095Y-128134952D01*
X27539904Y-128134952D01*
X27501809Y-128115904D01*
X27463714Y-128077809D01*
X27444666Y-128001619D01*
X27444666Y-127868285D01*
X27463714Y-127792095D01*
X27501809Y-127754000D01*
X27539904Y-127734952D01*
X27882761Y-127734952D02*
X27882761Y-128058761D01*
X27901809Y-128096857D01*
X27920857Y-128115904D01*
X27958952Y-128134952D01*
X28035142Y-128134952D01*
X28073238Y-128115904D01*
X28092285Y-128096857D01*
X28111333Y-128058761D01*
X28111333Y-127734952D01*
X28244666Y-127734952D02*
X28473238Y-127734952D01*
X28358952Y-128134952D02*
X28358952Y-127734952D01*
%TD*%
M02*
