M48
; DRILL file {KiCad (6.0.5)} date Wed Feb 22 06:39:25 2023
; FORMAT={-:-/ absolute / inch / decimal}
; #@! TF.CreationDate,2023-02-22T06:39:25-08:00
; #@! TF.GenerationSoftware,Kicad,Pcbnew,(6.0.5)
; #@! TF.FileFunction,Plated,1,2,PTH
FMAT,2
INCH
; #@! TA.AperFunction,Plated,PTH,ViaDrill
T1C0.0157
; #@! TA.AperFunction,Plated,PTH,ComponentDrill
T2C0.0394
; #@! TA.AperFunction,Plated,PTH,ComponentDrill
T3C0.0480
; #@! TA.AperFunction,Plated,PTH,ComponentDrill
T4C0.0559
; #@! TA.AperFunction,Plated,PTH,ComponentDrill
T5C0.0563
%
G90
G05
T1
X1.33Y-2.99
X1.34Y-5.27
X1.42Y-3.47
X1.42Y-3.77
X1.43Y-1.89
X1.43Y-2.16
X1.44Y-3.4
X1.45Y-2.5
X1.46Y-1.96
X1.46Y-2.9
X1.46Y-3.24
X1.46Y-3.66
X1.48Y-1.65
X1.54Y-3.13
X1.55Y-2.29
X1.57Y-1.73
X1.62Y-3.1
X1.62Y-3.3261
X1.63Y-2.53
X1.63Y-5.21
X1.64Y-2.77
X1.65Y-3.26
X1.65Y-3.39
X1.65Y-3.56
X1.66Y-3.46
X1.67Y-1.82
X1.6837Y-2.3037
X1.7Y-2.92
X1.7Y-3.27
X1.72Y-1.74
X1.73Y-2.43
X1.74Y-2.51
X1.77Y-3.27
X1.77Y-3.75
X1.78Y-2.97
X1.79Y-1.87
X1.79Y-2.47
X1.84Y-2.77
X1.84Y-3.23
X1.85Y-2.3
X1.85Y-5.26
X1.85Y-5.32
X1.87Y-3.83
X1.88Y-1.87
X1.88Y-3.94
X1.9Y-3.15
X1.94Y-5.1
X1.99Y-3.23
X1.99Y-3.77
X2.0Y-2.2
X2.0Y-3.04
X2.0Y-3.36
X2.0Y-3.94
X2.01Y-2.06
X2.01Y-3.18
X2.05Y-3.45
X2.05Y-3.6
X2.1Y-2.01
X2.12Y-3.8
X2.15Y-5.1
X2.16Y-2.18
X2.24Y-5.32
X2.28Y-3.62
X2.45Y-3.14
X2.47Y-2.43
X2.51Y-4.06
X2.51Y-4.25
X2.63Y-4.06
X2.72Y-3.68
T2
X1.46Y-4.4425
X1.56Y-4.4425
X1.6Y-4.9225
X1.66Y-4.4425
X1.7Y-4.9225
X1.75Y-5.32
X1.76Y-4.4425
X1.8Y-1.36
X1.8Y-1.46
X1.8Y-4.9225
X1.86Y-4.4425
X1.9Y-1.36
X1.9Y-1.46
X1.9Y-4.9225
X1.96Y-4.4425
X2.0Y-1.36
X2.0Y-1.46
X2.0Y-4.9225
X2.06Y-4.4425
X2.1Y-1.36
X2.1Y-1.46
X2.16Y-4.4425
X2.2Y-1.36
X2.2Y-1.46
X2.3Y-1.36
X2.3Y-1.46
X2.4Y-1.36
X2.4Y-1.46
X2.42Y-4.06
X2.42Y-4.16
X2.42Y-4.26
X2.42Y-4.36
X2.42Y-4.46
X2.42Y-4.56
X2.5Y-1.36
X2.5Y-1.46
T3
X1.07Y-4.7824
X2.54Y-4.8024
T4
X1.07Y-4.9045
X2.54Y-4.9245
T5
X1.07Y-5.2313
X2.54Y-5.2513
T0
M30
