%TF.GenerationSoftware,KiCad,Pcbnew,(6.0.5)*%
%TF.CreationDate,2023-02-22T06:39:24-08:00*%
%TF.ProjectId,wisseq,77697373-6571-42e6-9b69-6361645f7063,rev?*%
%TF.SameCoordinates,Original*%
%TF.FileFunction,Legend,Top*%
%TF.FilePolarity,Positive*%
%FSLAX46Y46*%
G04 Gerber Fmt 4.6, Leading zero omitted, Abs format (unit mm)*
G04 Created by KiCad (PCBNEW (6.0.5)) date 2023-02-22 06:39:24*
%MOMM*%
%LPD*%
G01*
G04 APERTURE LIST*
G04 Aperture macros list*
%AMRoundRect*
0 Rectangle with rounded corners*
0 $1 Rounding radius*
0 $2 $3 $4 $5 $6 $7 $8 $9 X,Y pos of 4 corners*
0 Add a 4 corners polygon primitive as box body*
4,1,4,$2,$3,$4,$5,$6,$7,$8,$9,$2,$3,0*
0 Add four circle primitives for the rounded corners*
1,1,$1+$1,$2,$3*
1,1,$1+$1,$4,$5*
1,1,$1+$1,$6,$7*
1,1,$1+$1,$8,$9*
0 Add four rect primitives between the rounded corners*
20,1,$1+$1,$2,$3,$4,$5,0*
20,1,$1+$1,$4,$5,$6,$7,0*
20,1,$1+$1,$6,$7,$8,$9,0*
20,1,$1+$1,$8,$9,$2,$3,0*%
G04 Aperture macros list end*
%ADD10C,0.150000*%
%ADD11C,0.120000*%
%ADD12R,0.800000X1.300000*%
%ADD13RoundRect,0.150000X0.825000X0.150000X-0.825000X0.150000X-0.825000X-0.150000X0.825000X-0.150000X0*%
%ADD14RoundRect,0.150000X-0.825000X-0.150000X0.825000X-0.150000X0.825000X0.150000X-0.825000X0.150000X0*%
%ADD15R,1.550000X1.300000*%
%ADD16RoundRect,0.200000X0.275000X-0.200000X0.275000X0.200000X-0.275000X0.200000X-0.275000X-0.200000X0*%
%ADD17RoundRect,0.200000X-0.200000X-0.275000X0.200000X-0.275000X0.200000X0.275000X-0.200000X0.275000X0*%
%ADD18RoundRect,0.150000X-0.587500X-0.150000X0.587500X-0.150000X0.587500X0.150000X-0.587500X0.150000X0*%
%ADD19RoundRect,0.150000X0.587500X0.150000X-0.587500X0.150000X-0.587500X-0.150000X0.587500X-0.150000X0*%
%ADD20R,1.700000X1.700000*%
%ADD21O,1.700000X1.700000*%
%ADD22RoundRect,0.250000X0.600000X-0.600000X0.600000X0.600000X-0.600000X0.600000X-0.600000X-0.600000X0*%
%ADD23C,1.700000*%
%ADD24R,1.930000X1.830000*%
%ADD25C,2.130000*%
%ADD26RoundRect,0.218750X-0.256250X0.218750X-0.256250X-0.218750X0.256250X-0.218750X0.256250X0.218750X0*%
%ADD27R,0.450000X0.600000*%
%ADD28RoundRect,0.218750X0.218750X0.256250X-0.218750X0.256250X-0.218750X-0.256250X0.218750X-0.256250X0*%
%ADD29RoundRect,0.225000X-0.225000X-0.250000X0.225000X-0.250000X0.225000X0.250000X-0.225000X0.250000X0*%
%ADD30RoundRect,0.225000X0.250000X-0.225000X0.250000X0.225000X-0.250000X0.225000X-0.250000X-0.225000X0*%
%ADD31RoundRect,0.225000X0.225000X0.250000X-0.225000X0.250000X-0.225000X-0.250000X0.225000X-0.250000X0*%
G04 APERTURE END LIST*
D10*
X56618476Y-22899714D02*
X56808952Y-23566380D01*
X56999428Y-23090190D01*
X57189904Y-23566380D01*
X57380380Y-22899714D01*
X57761333Y-23566380D02*
X57761333Y-22899714D01*
X57761333Y-22566380D02*
X57713714Y-22614000D01*
X57761333Y-22661619D01*
X57808952Y-22614000D01*
X57761333Y-22566380D01*
X57761333Y-22661619D01*
X58189904Y-23518761D02*
X58285142Y-23566380D01*
X58475619Y-23566380D01*
X58570857Y-23518761D01*
X58618476Y-23423523D01*
X58618476Y-23375904D01*
X58570857Y-23280666D01*
X58475619Y-23233047D01*
X58332761Y-23233047D01*
X58237523Y-23185428D01*
X58189904Y-23090190D01*
X58189904Y-23042571D01*
X58237523Y-22947333D01*
X58332761Y-22899714D01*
X58475619Y-22899714D01*
X58570857Y-22947333D01*
X58999428Y-23518761D02*
X59094666Y-23566380D01*
X59285142Y-23566380D01*
X59380380Y-23518761D01*
X59428000Y-23423523D01*
X59428000Y-23375904D01*
X59380380Y-23280666D01*
X59285142Y-23233047D01*
X59142285Y-23233047D01*
X59047047Y-23185428D01*
X58999428Y-23090190D01*
X58999428Y-23042571D01*
X59047047Y-22947333D01*
X59142285Y-22899714D01*
X59285142Y-22899714D01*
X59380380Y-22947333D01*
X60237523Y-23518761D02*
X60142285Y-23566380D01*
X59951809Y-23566380D01*
X59856571Y-23518761D01*
X59808952Y-23423523D01*
X59808952Y-23042571D01*
X59856571Y-22947333D01*
X59951809Y-22899714D01*
X60142285Y-22899714D01*
X60237523Y-22947333D01*
X60285142Y-23042571D01*
X60285142Y-23137809D01*
X59808952Y-23233047D01*
X61142285Y-22899714D02*
X61142285Y-23899714D01*
X61142285Y-23518761D02*
X61047047Y-23566380D01*
X60856571Y-23566380D01*
X60761333Y-23518761D01*
X60713714Y-23471142D01*
X60666095Y-23375904D01*
X60666095Y-23090190D01*
X60713714Y-22994952D01*
X60761333Y-22947333D01*
X60856571Y-22899714D01*
X61047047Y-22899714D01*
X61142285Y-22947333D01*
X29448952Y-22566380D02*
X29687047Y-23566380D01*
X29877523Y-22852095D01*
X30068000Y-23566380D01*
X30306095Y-22566380D01*
X30687047Y-23566380D02*
X30687047Y-22899714D01*
X30687047Y-22566380D02*
X30639428Y-22614000D01*
X30687047Y-22661619D01*
X30734666Y-22614000D01*
X30687047Y-22566380D01*
X30687047Y-22661619D01*
X31115619Y-23518761D02*
X31210857Y-23566380D01*
X31401333Y-23566380D01*
X31496571Y-23518761D01*
X31544190Y-23423523D01*
X31544190Y-23375904D01*
X31496571Y-23280666D01*
X31401333Y-23233047D01*
X31258476Y-23233047D01*
X31163238Y-23185428D01*
X31115619Y-23090190D01*
X31115619Y-23042571D01*
X31163238Y-22947333D01*
X31258476Y-22899714D01*
X31401333Y-22899714D01*
X31496571Y-22947333D01*
X32734666Y-23566380D02*
X32734666Y-22566380D01*
X32972761Y-22566380D01*
X33115619Y-22614000D01*
X33210857Y-22709238D01*
X33258476Y-22804476D01*
X33306095Y-22994952D01*
X33306095Y-23137809D01*
X33258476Y-23328285D01*
X33210857Y-23423523D01*
X33115619Y-23518761D01*
X32972761Y-23566380D01*
X32734666Y-23566380D01*
X34115619Y-23518761D02*
X34020380Y-23566380D01*
X33829904Y-23566380D01*
X33734666Y-23518761D01*
X33687047Y-23423523D01*
X33687047Y-23042571D01*
X33734666Y-22947333D01*
X33829904Y-22899714D01*
X34020380Y-22899714D01*
X34115619Y-22947333D01*
X34163238Y-23042571D01*
X34163238Y-23137809D01*
X33687047Y-23233047D01*
X34544190Y-23518761D02*
X34639428Y-23566380D01*
X34829904Y-23566380D01*
X34925142Y-23518761D01*
X34972761Y-23423523D01*
X34972761Y-23375904D01*
X34925142Y-23280666D01*
X34829904Y-23233047D01*
X34687047Y-23233047D01*
X34591809Y-23185428D01*
X34544190Y-23090190D01*
X34544190Y-23042571D01*
X34591809Y-22947333D01*
X34687047Y-22899714D01*
X34829904Y-22899714D01*
X34925142Y-22947333D01*
X35401333Y-23566380D02*
X35401333Y-22899714D01*
X35401333Y-22566380D02*
X35353714Y-22614000D01*
X35401333Y-22661619D01*
X35448952Y-22614000D01*
X35401333Y-22566380D01*
X35401333Y-22661619D01*
X36306095Y-22899714D02*
X36306095Y-23709238D01*
X36258476Y-23804476D01*
X36210857Y-23852095D01*
X36115619Y-23899714D01*
X35972761Y-23899714D01*
X35877523Y-23852095D01*
X36306095Y-23518761D02*
X36210857Y-23566380D01*
X36020380Y-23566380D01*
X35925142Y-23518761D01*
X35877523Y-23471142D01*
X35829904Y-23375904D01*
X35829904Y-23090190D01*
X35877523Y-22994952D01*
X35925142Y-22947333D01*
X36020380Y-22899714D01*
X36210857Y-22899714D01*
X36306095Y-22947333D01*
X36782285Y-22899714D02*
X36782285Y-23566380D01*
X36782285Y-22994952D02*
X36829904Y-22947333D01*
X36925142Y-22899714D01*
X37068000Y-22899714D01*
X37163238Y-22947333D01*
X37210857Y-23042571D01*
X37210857Y-23566380D01*
X37639428Y-23518761D02*
X37734666Y-23566380D01*
X37925142Y-23566380D01*
X38020380Y-23518761D01*
X38068000Y-23423523D01*
X38068000Y-23375904D01*
X38020380Y-23280666D01*
X37925142Y-23233047D01*
X37782285Y-23233047D01*
X37687047Y-23185428D01*
X37639428Y-23090190D01*
X37639428Y-23042571D01*
X37687047Y-22947333D01*
X37782285Y-22899714D01*
X37925142Y-22899714D01*
X38020380Y-22947333D01*
X39210857Y-22661619D02*
X39258476Y-22614000D01*
X39353714Y-22566380D01*
X39591809Y-22566380D01*
X39687047Y-22614000D01*
X39734666Y-22661619D01*
X39782285Y-22756857D01*
X39782285Y-22852095D01*
X39734666Y-22994952D01*
X39163238Y-23566380D01*
X39782285Y-23566380D01*
X40401333Y-22566380D02*
X40496571Y-22566380D01*
X40591809Y-22614000D01*
X40639428Y-22661619D01*
X40687047Y-22756857D01*
X40734666Y-22947333D01*
X40734666Y-23185428D01*
X40687047Y-23375904D01*
X40639428Y-23471142D01*
X40591809Y-23518761D01*
X40496571Y-23566380D01*
X40401333Y-23566380D01*
X40306095Y-23518761D01*
X40258476Y-23471142D01*
X40210857Y-23375904D01*
X40163238Y-23185428D01*
X40163238Y-22947333D01*
X40210857Y-22756857D01*
X40258476Y-22661619D01*
X40306095Y-22614000D01*
X40401333Y-22566380D01*
X41115619Y-22661619D02*
X41163238Y-22614000D01*
X41258476Y-22566380D01*
X41496571Y-22566380D01*
X41591809Y-22614000D01*
X41639428Y-22661619D01*
X41687047Y-22756857D01*
X41687047Y-22852095D01*
X41639428Y-22994952D01*
X41068000Y-23566380D01*
X41687047Y-23566380D01*
X42020380Y-22566380D02*
X42639428Y-22566380D01*
X42306095Y-22947333D01*
X42448952Y-22947333D01*
X42544190Y-22994952D01*
X42591809Y-23042571D01*
X42639428Y-23137809D01*
X42639428Y-23375904D01*
X42591809Y-23471142D01*
X42544190Y-23518761D01*
X42448952Y-23566380D01*
X42163238Y-23566380D01*
X42068000Y-23518761D01*
X42020380Y-23471142D01*
X56364476Y-145327714D02*
X56554952Y-145994380D01*
X56745428Y-145518190D01*
X56935904Y-145994380D01*
X57126380Y-145327714D01*
X57507333Y-145994380D02*
X57507333Y-145327714D01*
X57507333Y-144994380D02*
X57459714Y-145042000D01*
X57507333Y-145089619D01*
X57554952Y-145042000D01*
X57507333Y-144994380D01*
X57507333Y-145089619D01*
X57935904Y-145946761D02*
X58031142Y-145994380D01*
X58221619Y-145994380D01*
X58316857Y-145946761D01*
X58364476Y-145851523D01*
X58364476Y-145803904D01*
X58316857Y-145708666D01*
X58221619Y-145661047D01*
X58078761Y-145661047D01*
X57983523Y-145613428D01*
X57935904Y-145518190D01*
X57935904Y-145470571D01*
X57983523Y-145375333D01*
X58078761Y-145327714D01*
X58221619Y-145327714D01*
X58316857Y-145375333D01*
X58745428Y-145946761D02*
X58840666Y-145994380D01*
X59031142Y-145994380D01*
X59126380Y-145946761D01*
X59174000Y-145851523D01*
X59174000Y-145803904D01*
X59126380Y-145708666D01*
X59031142Y-145661047D01*
X58888285Y-145661047D01*
X58793047Y-145613428D01*
X58745428Y-145518190D01*
X58745428Y-145470571D01*
X58793047Y-145375333D01*
X58888285Y-145327714D01*
X59031142Y-145327714D01*
X59126380Y-145375333D01*
X59983523Y-145946761D02*
X59888285Y-145994380D01*
X59697809Y-145994380D01*
X59602571Y-145946761D01*
X59554952Y-145851523D01*
X59554952Y-145470571D01*
X59602571Y-145375333D01*
X59697809Y-145327714D01*
X59888285Y-145327714D01*
X59983523Y-145375333D01*
X60031142Y-145470571D01*
X60031142Y-145565809D01*
X59554952Y-145661047D01*
X60888285Y-145327714D02*
X60888285Y-146327714D01*
X60888285Y-145946761D02*
X60793047Y-145994380D01*
X60602571Y-145994380D01*
X60507333Y-145946761D01*
X60459714Y-145899142D01*
X60412095Y-145803904D01*
X60412095Y-145518190D01*
X60459714Y-145422952D01*
X60507333Y-145375333D01*
X60602571Y-145327714D01*
X60793047Y-145327714D01*
X60888285Y-145375333D01*
X29194952Y-144994380D02*
X29433047Y-145994380D01*
X29623523Y-145280095D01*
X29814000Y-145994380D01*
X30052095Y-144994380D01*
X30433047Y-145994380D02*
X30433047Y-145327714D01*
X30433047Y-144994380D02*
X30385428Y-145042000D01*
X30433047Y-145089619D01*
X30480666Y-145042000D01*
X30433047Y-144994380D01*
X30433047Y-145089619D01*
X30861619Y-145946761D02*
X30956857Y-145994380D01*
X31147333Y-145994380D01*
X31242571Y-145946761D01*
X31290190Y-145851523D01*
X31290190Y-145803904D01*
X31242571Y-145708666D01*
X31147333Y-145661047D01*
X31004476Y-145661047D01*
X30909238Y-145613428D01*
X30861619Y-145518190D01*
X30861619Y-145470571D01*
X30909238Y-145375333D01*
X31004476Y-145327714D01*
X31147333Y-145327714D01*
X31242571Y-145375333D01*
X32480666Y-145994380D02*
X32480666Y-144994380D01*
X32718761Y-144994380D01*
X32861619Y-145042000D01*
X32956857Y-145137238D01*
X33004476Y-145232476D01*
X33052095Y-145422952D01*
X33052095Y-145565809D01*
X33004476Y-145756285D01*
X32956857Y-145851523D01*
X32861619Y-145946761D01*
X32718761Y-145994380D01*
X32480666Y-145994380D01*
X33861619Y-145946761D02*
X33766380Y-145994380D01*
X33575904Y-145994380D01*
X33480666Y-145946761D01*
X33433047Y-145851523D01*
X33433047Y-145470571D01*
X33480666Y-145375333D01*
X33575904Y-145327714D01*
X33766380Y-145327714D01*
X33861619Y-145375333D01*
X33909238Y-145470571D01*
X33909238Y-145565809D01*
X33433047Y-145661047D01*
X34290190Y-145946761D02*
X34385428Y-145994380D01*
X34575904Y-145994380D01*
X34671142Y-145946761D01*
X34718761Y-145851523D01*
X34718761Y-145803904D01*
X34671142Y-145708666D01*
X34575904Y-145661047D01*
X34433047Y-145661047D01*
X34337809Y-145613428D01*
X34290190Y-145518190D01*
X34290190Y-145470571D01*
X34337809Y-145375333D01*
X34433047Y-145327714D01*
X34575904Y-145327714D01*
X34671142Y-145375333D01*
X35147333Y-145994380D02*
X35147333Y-145327714D01*
X35147333Y-144994380D02*
X35099714Y-145042000D01*
X35147333Y-145089619D01*
X35194952Y-145042000D01*
X35147333Y-144994380D01*
X35147333Y-145089619D01*
X36052095Y-145327714D02*
X36052095Y-146137238D01*
X36004476Y-146232476D01*
X35956857Y-146280095D01*
X35861619Y-146327714D01*
X35718761Y-146327714D01*
X35623523Y-146280095D01*
X36052095Y-145946761D02*
X35956857Y-145994380D01*
X35766380Y-145994380D01*
X35671142Y-145946761D01*
X35623523Y-145899142D01*
X35575904Y-145803904D01*
X35575904Y-145518190D01*
X35623523Y-145422952D01*
X35671142Y-145375333D01*
X35766380Y-145327714D01*
X35956857Y-145327714D01*
X36052095Y-145375333D01*
X36528285Y-145327714D02*
X36528285Y-145994380D01*
X36528285Y-145422952D02*
X36575904Y-145375333D01*
X36671142Y-145327714D01*
X36814000Y-145327714D01*
X36909238Y-145375333D01*
X36956857Y-145470571D01*
X36956857Y-145994380D01*
X37385428Y-145946761D02*
X37480666Y-145994380D01*
X37671142Y-145994380D01*
X37766380Y-145946761D01*
X37814000Y-145851523D01*
X37814000Y-145803904D01*
X37766380Y-145708666D01*
X37671142Y-145661047D01*
X37528285Y-145661047D01*
X37433047Y-145613428D01*
X37385428Y-145518190D01*
X37385428Y-145470571D01*
X37433047Y-145375333D01*
X37528285Y-145327714D01*
X37671142Y-145327714D01*
X37766380Y-145375333D01*
X38956857Y-145089619D02*
X39004476Y-145042000D01*
X39099714Y-144994380D01*
X39337809Y-144994380D01*
X39433047Y-145042000D01*
X39480666Y-145089619D01*
X39528285Y-145184857D01*
X39528285Y-145280095D01*
X39480666Y-145422952D01*
X38909238Y-145994380D01*
X39528285Y-145994380D01*
X40147333Y-144994380D02*
X40242571Y-144994380D01*
X40337809Y-145042000D01*
X40385428Y-145089619D01*
X40433047Y-145184857D01*
X40480666Y-145375333D01*
X40480666Y-145613428D01*
X40433047Y-145803904D01*
X40385428Y-145899142D01*
X40337809Y-145946761D01*
X40242571Y-145994380D01*
X40147333Y-145994380D01*
X40052095Y-145946761D01*
X40004476Y-145899142D01*
X39956857Y-145803904D01*
X39909238Y-145613428D01*
X39909238Y-145375333D01*
X39956857Y-145184857D01*
X40004476Y-145089619D01*
X40052095Y-145042000D01*
X40147333Y-144994380D01*
X40861619Y-145089619D02*
X40909238Y-145042000D01*
X41004476Y-144994380D01*
X41242571Y-144994380D01*
X41337809Y-145042000D01*
X41385428Y-145089619D01*
X41433047Y-145184857D01*
X41433047Y-145280095D01*
X41385428Y-145422952D01*
X40814000Y-145994380D01*
X41433047Y-145994380D01*
X41766380Y-144994380D02*
X42385428Y-144994380D01*
X42052095Y-145375333D01*
X42194952Y-145375333D01*
X42290190Y-145422952D01*
X42337809Y-145470571D01*
X42385428Y-145565809D01*
X42385428Y-145803904D01*
X42337809Y-145899142D01*
X42290190Y-145946761D01*
X42194952Y-145994380D01*
X41909238Y-145994380D01*
X41814000Y-145946761D01*
X41766380Y-145899142D01*
X65024000Y-110744000D02*
X65024000Y-108966000D01*
X63754000Y-110744000D02*
X65024000Y-110744000D01*
X65024000Y-105410000D02*
X63754000Y-105410000D01*
X65024000Y-106934000D02*
X65024000Y-105410000D01*
X64262095Y-107704000D02*
X64166857Y-107656380D01*
X64024000Y-107656380D01*
X63881142Y-107704000D01*
X63785904Y-107799238D01*
X63738285Y-107894476D01*
X63690666Y-108084952D01*
X63690666Y-108227809D01*
X63738285Y-108418285D01*
X63785904Y-108513523D01*
X63881142Y-108608761D01*
X64024000Y-108656380D01*
X64119238Y-108656380D01*
X64262095Y-108608761D01*
X64309714Y-108561142D01*
X64309714Y-108227809D01*
X64119238Y-108227809D01*
X64738285Y-108656380D02*
X64738285Y-107656380D01*
X65309714Y-108656380D01*
X65309714Y-107656380D01*
X65785904Y-108656380D02*
X65785904Y-107656380D01*
X66024000Y-107656380D01*
X66166857Y-107704000D01*
X66262095Y-107799238D01*
X66309714Y-107894476D01*
X66357333Y-108084952D01*
X66357333Y-108227809D01*
X66309714Y-108418285D01*
X66262095Y-108513523D01*
X66166857Y-108608761D01*
X66024000Y-108656380D01*
X65785904Y-108656380D01*
X63658857Y-116149428D02*
X64420761Y-116149428D01*
X64039809Y-116530380D02*
X64039809Y-115768476D01*
X65373142Y-115530380D02*
X64896952Y-115530380D01*
X64849333Y-116006571D01*
X64896952Y-115958952D01*
X64992190Y-115911333D01*
X65230285Y-115911333D01*
X65325523Y-115958952D01*
X65373142Y-116006571D01*
X65420761Y-116101809D01*
X65420761Y-116339904D01*
X65373142Y-116435142D01*
X65325523Y-116482761D01*
X65230285Y-116530380D01*
X64992190Y-116530380D01*
X64896952Y-116482761D01*
X64849333Y-116435142D01*
X63436666Y-113355428D02*
X64198571Y-113355428D01*
X63817619Y-113736380D02*
X63817619Y-112974476D01*
X65198571Y-113736380D02*
X64627142Y-113736380D01*
X64912857Y-113736380D02*
X64912857Y-112736380D01*
X64817619Y-112879238D01*
X64722380Y-112974476D01*
X64627142Y-113022095D01*
X65579523Y-112831619D02*
X65627142Y-112784000D01*
X65722380Y-112736380D01*
X65960476Y-112736380D01*
X66055714Y-112784000D01*
X66103333Y-112831619D01*
X66150952Y-112926857D01*
X66150952Y-113022095D01*
X66103333Y-113164952D01*
X65531904Y-113736380D01*
X66150952Y-113736380D01*
X63436666Y-103195428D02*
X64198571Y-103195428D01*
X65198571Y-103576380D02*
X64627142Y-103576380D01*
X64912857Y-103576380D02*
X64912857Y-102576380D01*
X64817619Y-102719238D01*
X64722380Y-102814476D01*
X64627142Y-102862095D01*
X65579523Y-102671619D02*
X65627142Y-102624000D01*
X65722380Y-102576380D01*
X65960476Y-102576380D01*
X66055714Y-102624000D01*
X66103333Y-102671619D01*
X66150952Y-102766857D01*
X66150952Y-102862095D01*
X66103333Y-103004952D01*
X65531904Y-103576380D01*
X66150952Y-103576380D01*
%TO.C,U5*%
X51626380Y-119696904D02*
X52435904Y-119696904D01*
X52531142Y-119649285D01*
X52578761Y-119601666D01*
X52626380Y-119506428D01*
X52626380Y-119315952D01*
X52578761Y-119220714D01*
X52531142Y-119173095D01*
X52435904Y-119125476D01*
X51626380Y-119125476D01*
X51626380Y-118173095D02*
X51626380Y-118649285D01*
X52102571Y-118696904D01*
X52054952Y-118649285D01*
X52007333Y-118554047D01*
X52007333Y-118315952D01*
X52054952Y-118220714D01*
X52102571Y-118173095D01*
X52197809Y-118125476D01*
X52435904Y-118125476D01*
X52531142Y-118173095D01*
X52578761Y-118220714D01*
X52626380Y-118315952D01*
X52626380Y-118554047D01*
X52578761Y-118649285D01*
X52531142Y-118696904D01*
%TO.C,U4*%
X41402095Y-57564380D02*
X41402095Y-58373904D01*
X41449714Y-58469142D01*
X41497333Y-58516761D01*
X41592571Y-58564380D01*
X41783047Y-58564380D01*
X41878285Y-58516761D01*
X41925904Y-58469142D01*
X41973523Y-58373904D01*
X41973523Y-57564380D01*
X42878285Y-57897714D02*
X42878285Y-58564380D01*
X42640190Y-57516761D02*
X42402095Y-58231047D01*
X43021142Y-58231047D01*
%TO.C,U3*%
X41148095Y-93124380D02*
X41148095Y-93933904D01*
X41195714Y-94029142D01*
X41243333Y-94076761D01*
X41338571Y-94124380D01*
X41529047Y-94124380D01*
X41624285Y-94076761D01*
X41671904Y-94029142D01*
X41719523Y-93933904D01*
X41719523Y-93124380D01*
X42100476Y-93124380D02*
X42719523Y-93124380D01*
X42386190Y-93505333D01*
X42529047Y-93505333D01*
X42624285Y-93552952D01*
X42671904Y-93600571D01*
X42719523Y-93695809D01*
X42719523Y-93933904D01*
X42671904Y-94029142D01*
X42624285Y-94076761D01*
X42529047Y-94124380D01*
X42243333Y-94124380D01*
X42148095Y-94076761D01*
X42100476Y-94029142D01*
%TO.C,U2*%
X39226380Y-69849904D02*
X40035904Y-69849904D01*
X40131142Y-69802285D01*
X40178761Y-69754666D01*
X40226380Y-69659428D01*
X40226380Y-69468952D01*
X40178761Y-69373714D01*
X40131142Y-69326095D01*
X40035904Y-69278476D01*
X39226380Y-69278476D01*
X39321619Y-68849904D02*
X39274000Y-68802285D01*
X39226380Y-68707047D01*
X39226380Y-68468952D01*
X39274000Y-68373714D01*
X39321619Y-68326095D01*
X39416857Y-68278476D01*
X39512095Y-68278476D01*
X39654952Y-68326095D01*
X40226380Y-68897523D01*
X40226380Y-68278476D01*
%TO.C,U1*%
X51054095Y-129148380D02*
X51054095Y-129957904D01*
X51101714Y-130053142D01*
X51149333Y-130100761D01*
X51244571Y-130148380D01*
X51435047Y-130148380D01*
X51530285Y-130100761D01*
X51577904Y-130053142D01*
X51625523Y-129957904D01*
X51625523Y-129148380D01*
X52625523Y-130148380D02*
X52054095Y-130148380D01*
X52339809Y-130148380D02*
X52339809Y-129148380D01*
X52244571Y-129291238D01*
X52149333Y-129386476D01*
X52054095Y-129434095D01*
%TO.C,SW8*%
X25590666Y-46110761D02*
X25733523Y-46158380D01*
X25971619Y-46158380D01*
X26066857Y-46110761D01*
X26114476Y-46063142D01*
X26162095Y-45967904D01*
X26162095Y-45872666D01*
X26114476Y-45777428D01*
X26066857Y-45729809D01*
X25971619Y-45682190D01*
X25781142Y-45634571D01*
X25685904Y-45586952D01*
X25638285Y-45539333D01*
X25590666Y-45444095D01*
X25590666Y-45348857D01*
X25638285Y-45253619D01*
X25685904Y-45206000D01*
X25781142Y-45158380D01*
X26019238Y-45158380D01*
X26162095Y-45206000D01*
X26495428Y-45158380D02*
X26733523Y-46158380D01*
X26924000Y-45444095D01*
X27114476Y-46158380D01*
X27352571Y-45158380D01*
X27876380Y-45586952D02*
X27781142Y-45539333D01*
X27733523Y-45491714D01*
X27685904Y-45396476D01*
X27685904Y-45348857D01*
X27733523Y-45253619D01*
X27781142Y-45206000D01*
X27876380Y-45158380D01*
X28066857Y-45158380D01*
X28162095Y-45206000D01*
X28209714Y-45253619D01*
X28257333Y-45348857D01*
X28257333Y-45396476D01*
X28209714Y-45491714D01*
X28162095Y-45539333D01*
X28066857Y-45586952D01*
X27876380Y-45586952D01*
X27781142Y-45634571D01*
X27733523Y-45682190D01*
X27685904Y-45777428D01*
X27685904Y-45967904D01*
X27733523Y-46063142D01*
X27781142Y-46110761D01*
X27876380Y-46158380D01*
X28066857Y-46158380D01*
X28162095Y-46110761D01*
X28209714Y-46063142D01*
X28257333Y-45967904D01*
X28257333Y-45777428D01*
X28209714Y-45682190D01*
X28162095Y-45634571D01*
X28066857Y-45586952D01*
%TO.C,SW7*%
X25590666Y-53513046D02*
X25733523Y-53560665D01*
X25971619Y-53560665D01*
X26066857Y-53513046D01*
X26114476Y-53465427D01*
X26162095Y-53370189D01*
X26162095Y-53274951D01*
X26114476Y-53179713D01*
X26066857Y-53132094D01*
X25971619Y-53084475D01*
X25781142Y-53036856D01*
X25685904Y-52989237D01*
X25638285Y-52941618D01*
X25590666Y-52846380D01*
X25590666Y-52751142D01*
X25638285Y-52655904D01*
X25685904Y-52608285D01*
X25781142Y-52560665D01*
X26019238Y-52560665D01*
X26162095Y-52608285D01*
X26495428Y-52560665D02*
X26733523Y-53560665D01*
X26924000Y-52846380D01*
X27114476Y-53560665D01*
X27352571Y-52560665D01*
X27638285Y-52560665D02*
X28304952Y-52560665D01*
X27876380Y-53560665D01*
%TO.C,SW6*%
X25590666Y-60915331D02*
X25733523Y-60962950D01*
X25971619Y-60962950D01*
X26066857Y-60915331D01*
X26114476Y-60867712D01*
X26162095Y-60772474D01*
X26162095Y-60677236D01*
X26114476Y-60581998D01*
X26066857Y-60534379D01*
X25971619Y-60486760D01*
X25781142Y-60439141D01*
X25685904Y-60391522D01*
X25638285Y-60343903D01*
X25590666Y-60248665D01*
X25590666Y-60153427D01*
X25638285Y-60058189D01*
X25685904Y-60010570D01*
X25781142Y-59962950D01*
X26019238Y-59962950D01*
X26162095Y-60010570D01*
X26495428Y-59962950D02*
X26733523Y-60962950D01*
X26924000Y-60248665D01*
X27114476Y-60962950D01*
X27352571Y-59962950D01*
X28162095Y-59962950D02*
X27971619Y-59962950D01*
X27876380Y-60010570D01*
X27828761Y-60058189D01*
X27733523Y-60201046D01*
X27685904Y-60391522D01*
X27685904Y-60772474D01*
X27733523Y-60867712D01*
X27781142Y-60915331D01*
X27876380Y-60962950D01*
X28066857Y-60962950D01*
X28162095Y-60915331D01*
X28209714Y-60867712D01*
X28257333Y-60772474D01*
X28257333Y-60534379D01*
X28209714Y-60439141D01*
X28162095Y-60391522D01*
X28066857Y-60343903D01*
X27876380Y-60343903D01*
X27781142Y-60391522D01*
X27733523Y-60439141D01*
X27685904Y-60534379D01*
%TO.C,SW5*%
X25590666Y-68317616D02*
X25733523Y-68365235D01*
X25971619Y-68365235D01*
X26066857Y-68317616D01*
X26114476Y-68269997D01*
X26162095Y-68174759D01*
X26162095Y-68079521D01*
X26114476Y-67984283D01*
X26066857Y-67936664D01*
X25971619Y-67889045D01*
X25781142Y-67841426D01*
X25685904Y-67793807D01*
X25638285Y-67746188D01*
X25590666Y-67650950D01*
X25590666Y-67555712D01*
X25638285Y-67460474D01*
X25685904Y-67412855D01*
X25781142Y-67365235D01*
X26019238Y-67365235D01*
X26162095Y-67412855D01*
X26495428Y-67365235D02*
X26733523Y-68365235D01*
X26924000Y-67650950D01*
X27114476Y-68365235D01*
X27352571Y-67365235D01*
X28209714Y-67365235D02*
X27733523Y-67365235D01*
X27685904Y-67841426D01*
X27733523Y-67793807D01*
X27828761Y-67746188D01*
X28066857Y-67746188D01*
X28162095Y-67793807D01*
X28209714Y-67841426D01*
X28257333Y-67936664D01*
X28257333Y-68174759D01*
X28209714Y-68269997D01*
X28162095Y-68317616D01*
X28066857Y-68365235D01*
X27828761Y-68365235D01*
X27733523Y-68317616D01*
X27685904Y-68269997D01*
%TO.C,SW4*%
X25590666Y-75719901D02*
X25733523Y-75767520D01*
X25971619Y-75767520D01*
X26066857Y-75719901D01*
X26114476Y-75672282D01*
X26162095Y-75577044D01*
X26162095Y-75481806D01*
X26114476Y-75386568D01*
X26066857Y-75338949D01*
X25971619Y-75291330D01*
X25781142Y-75243711D01*
X25685904Y-75196092D01*
X25638285Y-75148473D01*
X25590666Y-75053235D01*
X25590666Y-74957997D01*
X25638285Y-74862759D01*
X25685904Y-74815140D01*
X25781142Y-74767520D01*
X26019238Y-74767520D01*
X26162095Y-74815140D01*
X26495428Y-74767520D02*
X26733523Y-75767520D01*
X26924000Y-75053235D01*
X27114476Y-75767520D01*
X27352571Y-74767520D01*
X28162095Y-75100854D02*
X28162095Y-75767520D01*
X27924000Y-74719901D02*
X27685904Y-75434187D01*
X28304952Y-75434187D01*
%TO.C,SW3*%
X25590666Y-83122186D02*
X25733523Y-83169805D01*
X25971619Y-83169805D01*
X26066857Y-83122186D01*
X26114476Y-83074567D01*
X26162095Y-82979329D01*
X26162095Y-82884091D01*
X26114476Y-82788853D01*
X26066857Y-82741234D01*
X25971619Y-82693615D01*
X25781142Y-82645996D01*
X25685904Y-82598377D01*
X25638285Y-82550758D01*
X25590666Y-82455520D01*
X25590666Y-82360282D01*
X25638285Y-82265044D01*
X25685904Y-82217425D01*
X25781142Y-82169805D01*
X26019238Y-82169805D01*
X26162095Y-82217425D01*
X26495428Y-82169805D02*
X26733523Y-83169805D01*
X26924000Y-82455520D01*
X27114476Y-83169805D01*
X27352571Y-82169805D01*
X27638285Y-82169805D02*
X28257333Y-82169805D01*
X27924000Y-82550758D01*
X28066857Y-82550758D01*
X28162095Y-82598377D01*
X28209714Y-82645996D01*
X28257333Y-82741234D01*
X28257333Y-82979329D01*
X28209714Y-83074567D01*
X28162095Y-83122186D01*
X28066857Y-83169805D01*
X27781142Y-83169805D01*
X27685904Y-83122186D01*
X27638285Y-83074567D01*
%TO.C,SW2*%
X25590666Y-90524471D02*
X25733523Y-90572090D01*
X25971619Y-90572090D01*
X26066857Y-90524471D01*
X26114476Y-90476852D01*
X26162095Y-90381614D01*
X26162095Y-90286376D01*
X26114476Y-90191138D01*
X26066857Y-90143519D01*
X25971619Y-90095900D01*
X25781142Y-90048281D01*
X25685904Y-90000662D01*
X25638285Y-89953043D01*
X25590666Y-89857805D01*
X25590666Y-89762567D01*
X25638285Y-89667329D01*
X25685904Y-89619710D01*
X25781142Y-89572090D01*
X26019238Y-89572090D01*
X26162095Y-89619710D01*
X26495428Y-89572090D02*
X26733523Y-90572090D01*
X26924000Y-89857805D01*
X27114476Y-90572090D01*
X27352571Y-89572090D01*
X27685904Y-89667329D02*
X27733523Y-89619710D01*
X27828761Y-89572090D01*
X28066857Y-89572090D01*
X28162095Y-89619710D01*
X28209714Y-89667329D01*
X28257333Y-89762567D01*
X28257333Y-89857805D01*
X28209714Y-90000662D01*
X27638285Y-90572090D01*
X28257333Y-90572090D01*
%TO.C,SW1*%
X25590666Y-97926761D02*
X25733523Y-97974380D01*
X25971619Y-97974380D01*
X26066857Y-97926761D01*
X26114476Y-97879142D01*
X26162095Y-97783904D01*
X26162095Y-97688666D01*
X26114476Y-97593428D01*
X26066857Y-97545809D01*
X25971619Y-97498190D01*
X25781142Y-97450571D01*
X25685904Y-97402952D01*
X25638285Y-97355333D01*
X25590666Y-97260095D01*
X25590666Y-97164857D01*
X25638285Y-97069619D01*
X25685904Y-97022000D01*
X25781142Y-96974380D01*
X26019238Y-96974380D01*
X26162095Y-97022000D01*
X26495428Y-96974380D02*
X26733523Y-97974380D01*
X26924000Y-97260095D01*
X27114476Y-97974380D01*
X27352571Y-96974380D01*
X28257333Y-97974380D02*
X27685904Y-97974380D01*
X27971619Y-97974380D02*
X27971619Y-96974380D01*
X27876380Y-97117238D01*
X27781142Y-97212476D01*
X27685904Y-97260095D01*
%TO.C,R32*%
X36106380Y-109925857D02*
X35630190Y-110259190D01*
X36106380Y-110497285D02*
X35106380Y-110497285D01*
X35106380Y-110116333D01*
X35154000Y-110021095D01*
X35201619Y-109973476D01*
X35296857Y-109925857D01*
X35439714Y-109925857D01*
X35534952Y-109973476D01*
X35582571Y-110021095D01*
X35630190Y-110116333D01*
X35630190Y-110497285D01*
X35106380Y-109592523D02*
X35106380Y-108973476D01*
X35487333Y-109306809D01*
X35487333Y-109163952D01*
X35534952Y-109068714D01*
X35582571Y-109021095D01*
X35677809Y-108973476D01*
X35915904Y-108973476D01*
X36011142Y-109021095D01*
X36058761Y-109068714D01*
X36106380Y-109163952D01*
X36106380Y-109449666D01*
X36058761Y-109544904D01*
X36011142Y-109592523D01*
X35201619Y-108592523D02*
X35154000Y-108544904D01*
X35106380Y-108449666D01*
X35106380Y-108211571D01*
X35154000Y-108116333D01*
X35201619Y-108068714D01*
X35296857Y-108021095D01*
X35392095Y-108021095D01*
X35534952Y-108068714D01*
X36106380Y-108640142D01*
X36106380Y-108021095D01*
%TO.C,R31*%
X38646380Y-109862857D02*
X38170190Y-110196190D01*
X38646380Y-110434285D02*
X37646380Y-110434285D01*
X37646380Y-110053333D01*
X37694000Y-109958095D01*
X37741619Y-109910476D01*
X37836857Y-109862857D01*
X37979714Y-109862857D01*
X38074952Y-109910476D01*
X38122571Y-109958095D01*
X38170190Y-110053333D01*
X38170190Y-110434285D01*
X37646380Y-109529523D02*
X37646380Y-108910476D01*
X38027333Y-109243809D01*
X38027333Y-109100952D01*
X38074952Y-109005714D01*
X38122571Y-108958095D01*
X38217809Y-108910476D01*
X38455904Y-108910476D01*
X38551142Y-108958095D01*
X38598761Y-109005714D01*
X38646380Y-109100952D01*
X38646380Y-109386666D01*
X38598761Y-109481904D01*
X38551142Y-109529523D01*
X38646380Y-107958095D02*
X38646380Y-108529523D01*
X38646380Y-108243809D02*
X37646380Y-108243809D01*
X37789238Y-108339047D01*
X37884476Y-108434285D01*
X37932095Y-108529523D01*
%TO.C,R30*%
X41186380Y-109862857D02*
X40710190Y-110196190D01*
X41186380Y-110434285D02*
X40186380Y-110434285D01*
X40186380Y-110053333D01*
X40234000Y-109958095D01*
X40281619Y-109910476D01*
X40376857Y-109862857D01*
X40519714Y-109862857D01*
X40614952Y-109910476D01*
X40662571Y-109958095D01*
X40710190Y-110053333D01*
X40710190Y-110434285D01*
X40186380Y-109529523D02*
X40186380Y-108910476D01*
X40567333Y-109243809D01*
X40567333Y-109100952D01*
X40614952Y-109005714D01*
X40662571Y-108958095D01*
X40757809Y-108910476D01*
X40995904Y-108910476D01*
X41091142Y-108958095D01*
X41138761Y-109005714D01*
X41186380Y-109100952D01*
X41186380Y-109386666D01*
X41138761Y-109481904D01*
X41091142Y-109529523D01*
X40186380Y-108291428D02*
X40186380Y-108196190D01*
X40234000Y-108100952D01*
X40281619Y-108053333D01*
X40376857Y-108005714D01*
X40567333Y-107958095D01*
X40805428Y-107958095D01*
X40995904Y-108005714D01*
X41091142Y-108053333D01*
X41138761Y-108100952D01*
X41186380Y-108196190D01*
X41186380Y-108291428D01*
X41138761Y-108386666D01*
X41091142Y-108434285D01*
X40995904Y-108481904D01*
X40805428Y-108529523D01*
X40567333Y-108529523D01*
X40376857Y-108481904D01*
X40281619Y-108434285D01*
X40234000Y-108386666D01*
X40186380Y-108291428D01*
%TO.C,R29*%
X43726380Y-109862857D02*
X43250190Y-110196190D01*
X43726380Y-110434285D02*
X42726380Y-110434285D01*
X42726380Y-110053333D01*
X42774000Y-109958095D01*
X42821619Y-109910476D01*
X42916857Y-109862857D01*
X43059714Y-109862857D01*
X43154952Y-109910476D01*
X43202571Y-109958095D01*
X43250190Y-110053333D01*
X43250190Y-110434285D01*
X42821619Y-109481904D02*
X42774000Y-109434285D01*
X42726380Y-109339047D01*
X42726380Y-109100952D01*
X42774000Y-109005714D01*
X42821619Y-108958095D01*
X42916857Y-108910476D01*
X43012095Y-108910476D01*
X43154952Y-108958095D01*
X43726380Y-109529523D01*
X43726380Y-108910476D01*
X43726380Y-108434285D02*
X43726380Y-108243809D01*
X43678761Y-108148571D01*
X43631142Y-108100952D01*
X43488285Y-108005714D01*
X43297809Y-107958095D01*
X42916857Y-107958095D01*
X42821619Y-108005714D01*
X42774000Y-108053333D01*
X42726380Y-108148571D01*
X42726380Y-108339047D01*
X42774000Y-108434285D01*
X42821619Y-108481904D01*
X42916857Y-108529523D01*
X43154952Y-108529523D01*
X43250190Y-108481904D01*
X43297809Y-108434285D01*
X43345428Y-108339047D01*
X43345428Y-108148571D01*
X43297809Y-108053333D01*
X43250190Y-108005714D01*
X43154952Y-107958095D01*
%TO.C,R28*%
X46266380Y-109862857D02*
X45790190Y-110196190D01*
X46266380Y-110434285D02*
X45266380Y-110434285D01*
X45266380Y-110053333D01*
X45314000Y-109958095D01*
X45361619Y-109910476D01*
X45456857Y-109862857D01*
X45599714Y-109862857D01*
X45694952Y-109910476D01*
X45742571Y-109958095D01*
X45790190Y-110053333D01*
X45790190Y-110434285D01*
X45361619Y-109481904D02*
X45314000Y-109434285D01*
X45266380Y-109339047D01*
X45266380Y-109100952D01*
X45314000Y-109005714D01*
X45361619Y-108958095D01*
X45456857Y-108910476D01*
X45552095Y-108910476D01*
X45694952Y-108958095D01*
X46266380Y-109529523D01*
X46266380Y-108910476D01*
X45694952Y-108339047D02*
X45647333Y-108434285D01*
X45599714Y-108481904D01*
X45504476Y-108529523D01*
X45456857Y-108529523D01*
X45361619Y-108481904D01*
X45314000Y-108434285D01*
X45266380Y-108339047D01*
X45266380Y-108148571D01*
X45314000Y-108053333D01*
X45361619Y-108005714D01*
X45456857Y-107958095D01*
X45504476Y-107958095D01*
X45599714Y-108005714D01*
X45647333Y-108053333D01*
X45694952Y-108148571D01*
X45694952Y-108339047D01*
X45742571Y-108434285D01*
X45790190Y-108481904D01*
X45885428Y-108529523D01*
X46075904Y-108529523D01*
X46171142Y-108481904D01*
X46218761Y-108434285D01*
X46266380Y-108339047D01*
X46266380Y-108148571D01*
X46218761Y-108053333D01*
X46171142Y-108005714D01*
X46075904Y-107958095D01*
X45885428Y-107958095D01*
X45790190Y-108005714D01*
X45742571Y-108053333D01*
X45694952Y-108148571D01*
%TO.C,R27*%
X48806380Y-109862857D02*
X48330190Y-110196190D01*
X48806380Y-110434285D02*
X47806380Y-110434285D01*
X47806380Y-110053333D01*
X47854000Y-109958095D01*
X47901619Y-109910476D01*
X47996857Y-109862857D01*
X48139714Y-109862857D01*
X48234952Y-109910476D01*
X48282571Y-109958095D01*
X48330190Y-110053333D01*
X48330190Y-110434285D01*
X47901619Y-109481904D02*
X47854000Y-109434285D01*
X47806380Y-109339047D01*
X47806380Y-109100952D01*
X47854000Y-109005714D01*
X47901619Y-108958095D01*
X47996857Y-108910476D01*
X48092095Y-108910476D01*
X48234952Y-108958095D01*
X48806380Y-109529523D01*
X48806380Y-108910476D01*
X47806380Y-108577142D02*
X47806380Y-107910476D01*
X48806380Y-108339047D01*
%TO.C,R26*%
X51346380Y-109925857D02*
X50870190Y-110259190D01*
X51346380Y-110497285D02*
X50346380Y-110497285D01*
X50346380Y-110116333D01*
X50394000Y-110021095D01*
X50441619Y-109973476D01*
X50536857Y-109925857D01*
X50679714Y-109925857D01*
X50774952Y-109973476D01*
X50822571Y-110021095D01*
X50870190Y-110116333D01*
X50870190Y-110497285D01*
X50441619Y-109544904D02*
X50394000Y-109497285D01*
X50346380Y-109402047D01*
X50346380Y-109163952D01*
X50394000Y-109068714D01*
X50441619Y-109021095D01*
X50536857Y-108973476D01*
X50632095Y-108973476D01*
X50774952Y-109021095D01*
X51346380Y-109592523D01*
X51346380Y-108973476D01*
X50346380Y-108116333D02*
X50346380Y-108306809D01*
X50394000Y-108402047D01*
X50441619Y-108449666D01*
X50584476Y-108544904D01*
X50774952Y-108592523D01*
X51155904Y-108592523D01*
X51251142Y-108544904D01*
X51298761Y-108497285D01*
X51346380Y-108402047D01*
X51346380Y-108211571D01*
X51298761Y-108116333D01*
X51251142Y-108068714D01*
X51155904Y-108021095D01*
X50917809Y-108021095D01*
X50822571Y-108068714D01*
X50774952Y-108116333D01*
X50727333Y-108211571D01*
X50727333Y-108402047D01*
X50774952Y-108497285D01*
X50822571Y-108544904D01*
X50917809Y-108592523D01*
%TO.C,R25*%
X53886380Y-109862857D02*
X53410190Y-110196190D01*
X53886380Y-110434285D02*
X52886380Y-110434285D01*
X52886380Y-110053333D01*
X52934000Y-109958095D01*
X52981619Y-109910476D01*
X53076857Y-109862857D01*
X53219714Y-109862857D01*
X53314952Y-109910476D01*
X53362571Y-109958095D01*
X53410190Y-110053333D01*
X53410190Y-110434285D01*
X52981619Y-109481904D02*
X52934000Y-109434285D01*
X52886380Y-109339047D01*
X52886380Y-109100952D01*
X52934000Y-109005714D01*
X52981619Y-108958095D01*
X53076857Y-108910476D01*
X53172095Y-108910476D01*
X53314952Y-108958095D01*
X53886380Y-109529523D01*
X53886380Y-108910476D01*
X52886380Y-108005714D02*
X52886380Y-108481904D01*
X53362571Y-108529523D01*
X53314952Y-108481904D01*
X53267333Y-108386666D01*
X53267333Y-108148571D01*
X53314952Y-108053333D01*
X53362571Y-108005714D01*
X53457809Y-107958095D01*
X53695904Y-107958095D01*
X53791142Y-108005714D01*
X53838761Y-108053333D01*
X53886380Y-108148571D01*
X53886380Y-108386666D01*
X53838761Y-108481904D01*
X53791142Y-108529523D01*
%TO.C,R24*%
X39489142Y-44488380D02*
X39155809Y-44012190D01*
X38917714Y-44488380D02*
X38917714Y-43488380D01*
X39298666Y-43488380D01*
X39393904Y-43536000D01*
X39441523Y-43583619D01*
X39489142Y-43678857D01*
X39489142Y-43821714D01*
X39441523Y-43916952D01*
X39393904Y-43964571D01*
X39298666Y-44012190D01*
X38917714Y-44012190D01*
X39870095Y-43583619D02*
X39917714Y-43536000D01*
X40012952Y-43488380D01*
X40251047Y-43488380D01*
X40346285Y-43536000D01*
X40393904Y-43583619D01*
X40441523Y-43678857D01*
X40441523Y-43774095D01*
X40393904Y-43916952D01*
X39822476Y-44488380D01*
X40441523Y-44488380D01*
X41298666Y-43821714D02*
X41298666Y-44488380D01*
X41060571Y-43440761D02*
X40822476Y-44155047D01*
X41441523Y-44155047D01*
%TO.C,R23*%
X49822380Y-50680857D02*
X49346190Y-51014190D01*
X49822380Y-51252285D02*
X48822380Y-51252285D01*
X48822380Y-50871333D01*
X48870000Y-50776095D01*
X48917619Y-50728476D01*
X49012857Y-50680857D01*
X49155714Y-50680857D01*
X49250952Y-50728476D01*
X49298571Y-50776095D01*
X49346190Y-50871333D01*
X49346190Y-51252285D01*
X48917619Y-50299904D02*
X48870000Y-50252285D01*
X48822380Y-50157047D01*
X48822380Y-49918952D01*
X48870000Y-49823714D01*
X48917619Y-49776095D01*
X49012857Y-49728476D01*
X49108095Y-49728476D01*
X49250952Y-49776095D01*
X49822380Y-50347523D01*
X49822380Y-49728476D01*
X48822380Y-49395142D02*
X48822380Y-48776095D01*
X49203333Y-49109428D01*
X49203333Y-48966571D01*
X49250952Y-48871333D01*
X49298571Y-48823714D01*
X49393809Y-48776095D01*
X49631904Y-48776095D01*
X49727142Y-48823714D01*
X49774761Y-48871333D01*
X49822380Y-48966571D01*
X49822380Y-49252285D01*
X49774761Y-49347523D01*
X49727142Y-49395142D01*
%TO.C,R22*%
X50265380Y-53982857D02*
X49789190Y-54316190D01*
X50265380Y-54554285D02*
X49265380Y-54554285D01*
X49265380Y-54173333D01*
X49313000Y-54078095D01*
X49360619Y-54030476D01*
X49455857Y-53982857D01*
X49598714Y-53982857D01*
X49693952Y-54030476D01*
X49741571Y-54078095D01*
X49789190Y-54173333D01*
X49789190Y-54554285D01*
X49360619Y-53601904D02*
X49313000Y-53554285D01*
X49265380Y-53459047D01*
X49265380Y-53220952D01*
X49313000Y-53125714D01*
X49360619Y-53078095D01*
X49455857Y-53030476D01*
X49551095Y-53030476D01*
X49693952Y-53078095D01*
X50265380Y-53649523D01*
X50265380Y-53030476D01*
X49360619Y-52649523D02*
X49313000Y-52601904D01*
X49265380Y-52506666D01*
X49265380Y-52268571D01*
X49313000Y-52173333D01*
X49360619Y-52125714D01*
X49455857Y-52078095D01*
X49551095Y-52078095D01*
X49693952Y-52125714D01*
X50265380Y-52697142D01*
X50265380Y-52078095D01*
%TO.C,R21*%
X50265380Y-57284857D02*
X49789190Y-57618190D01*
X50265380Y-57856285D02*
X49265380Y-57856285D01*
X49265380Y-57475333D01*
X49313000Y-57380095D01*
X49360619Y-57332476D01*
X49455857Y-57284857D01*
X49598714Y-57284857D01*
X49693952Y-57332476D01*
X49741571Y-57380095D01*
X49789190Y-57475333D01*
X49789190Y-57856285D01*
X49360619Y-56903904D02*
X49313000Y-56856285D01*
X49265380Y-56761047D01*
X49265380Y-56522952D01*
X49313000Y-56427714D01*
X49360619Y-56380095D01*
X49455857Y-56332476D01*
X49551095Y-56332476D01*
X49693952Y-56380095D01*
X50265380Y-56951523D01*
X50265380Y-56332476D01*
X50265380Y-55380095D02*
X50265380Y-55951523D01*
X50265380Y-55665809D02*
X49265380Y-55665809D01*
X49408238Y-55761047D01*
X49503476Y-55856285D01*
X49551095Y-55951523D01*
%TO.C,R20*%
X39235142Y-80048380D02*
X38901809Y-79572190D01*
X38663714Y-80048380D02*
X38663714Y-79048380D01*
X39044666Y-79048380D01*
X39139904Y-79096000D01*
X39187523Y-79143619D01*
X39235142Y-79238857D01*
X39235142Y-79381714D01*
X39187523Y-79476952D01*
X39139904Y-79524571D01*
X39044666Y-79572190D01*
X38663714Y-79572190D01*
X39616095Y-79143619D02*
X39663714Y-79096000D01*
X39758952Y-79048380D01*
X39997047Y-79048380D01*
X40092285Y-79096000D01*
X40139904Y-79143619D01*
X40187523Y-79238857D01*
X40187523Y-79334095D01*
X40139904Y-79476952D01*
X39568476Y-80048380D01*
X40187523Y-80048380D01*
X40806571Y-79048380D02*
X40901809Y-79048380D01*
X40997047Y-79096000D01*
X41044666Y-79143619D01*
X41092285Y-79238857D01*
X41139904Y-79429333D01*
X41139904Y-79667428D01*
X41092285Y-79857904D01*
X41044666Y-79953142D01*
X40997047Y-80000761D01*
X40901809Y-80048380D01*
X40806571Y-80048380D01*
X40711333Y-80000761D01*
X40663714Y-79953142D01*
X40616095Y-79857904D01*
X40568476Y-79667428D01*
X40568476Y-79429333D01*
X40616095Y-79238857D01*
X40663714Y-79143619D01*
X40711333Y-79096000D01*
X40806571Y-79048380D01*
%TO.C,R19*%
X46855142Y-83604380D02*
X46521809Y-83128190D01*
X46283714Y-83604380D02*
X46283714Y-82604380D01*
X46664666Y-82604380D01*
X46759904Y-82652000D01*
X46807523Y-82699619D01*
X46855142Y-82794857D01*
X46855142Y-82937714D01*
X46807523Y-83032952D01*
X46759904Y-83080571D01*
X46664666Y-83128190D01*
X46283714Y-83128190D01*
X47807523Y-83604380D02*
X47236095Y-83604380D01*
X47521809Y-83604380D02*
X47521809Y-82604380D01*
X47426571Y-82747238D01*
X47331333Y-82842476D01*
X47236095Y-82890095D01*
X48283714Y-83604380D02*
X48474190Y-83604380D01*
X48569428Y-83556761D01*
X48617047Y-83509142D01*
X48712285Y-83366285D01*
X48759904Y-83175809D01*
X48759904Y-82794857D01*
X48712285Y-82699619D01*
X48664666Y-82652000D01*
X48569428Y-82604380D01*
X48378952Y-82604380D01*
X48283714Y-82652000D01*
X48236095Y-82699619D01*
X48188476Y-82794857D01*
X48188476Y-83032952D01*
X48236095Y-83128190D01*
X48283714Y-83175809D01*
X48378952Y-83223428D01*
X48569428Y-83223428D01*
X48664666Y-83175809D01*
X48712285Y-83128190D01*
X48759904Y-83032952D01*
%TO.C,R18*%
X46855142Y-87160380D02*
X46521809Y-86684190D01*
X46283714Y-87160380D02*
X46283714Y-86160380D01*
X46664666Y-86160380D01*
X46759904Y-86208000D01*
X46807523Y-86255619D01*
X46855142Y-86350857D01*
X46855142Y-86493714D01*
X46807523Y-86588952D01*
X46759904Y-86636571D01*
X46664666Y-86684190D01*
X46283714Y-86684190D01*
X47807523Y-87160380D02*
X47236095Y-87160380D01*
X47521809Y-87160380D02*
X47521809Y-86160380D01*
X47426571Y-86303238D01*
X47331333Y-86398476D01*
X47236095Y-86446095D01*
X48378952Y-86588952D02*
X48283714Y-86541333D01*
X48236095Y-86493714D01*
X48188476Y-86398476D01*
X48188476Y-86350857D01*
X48236095Y-86255619D01*
X48283714Y-86208000D01*
X48378952Y-86160380D01*
X48569428Y-86160380D01*
X48664666Y-86208000D01*
X48712285Y-86255619D01*
X48759904Y-86350857D01*
X48759904Y-86398476D01*
X48712285Y-86493714D01*
X48664666Y-86541333D01*
X48569428Y-86588952D01*
X48378952Y-86588952D01*
X48283714Y-86636571D01*
X48236095Y-86684190D01*
X48188476Y-86779428D01*
X48188476Y-86969904D01*
X48236095Y-87065142D01*
X48283714Y-87112761D01*
X48378952Y-87160380D01*
X48569428Y-87160380D01*
X48664666Y-87112761D01*
X48712285Y-87065142D01*
X48759904Y-86969904D01*
X48759904Y-86779428D01*
X48712285Y-86684190D01*
X48664666Y-86636571D01*
X48569428Y-86588952D01*
%TO.C,R17*%
X46918142Y-90716380D02*
X46584809Y-90240190D01*
X46346714Y-90716380D02*
X46346714Y-89716380D01*
X46727666Y-89716380D01*
X46822904Y-89764000D01*
X46870523Y-89811619D01*
X46918142Y-89906857D01*
X46918142Y-90049714D01*
X46870523Y-90144952D01*
X46822904Y-90192571D01*
X46727666Y-90240190D01*
X46346714Y-90240190D01*
X47870523Y-90716380D02*
X47299095Y-90716380D01*
X47584809Y-90716380D02*
X47584809Y-89716380D01*
X47489571Y-89859238D01*
X47394333Y-89954476D01*
X47299095Y-90002095D01*
X48203857Y-89716380D02*
X48870523Y-89716380D01*
X48441952Y-90716380D01*
%TO.C,R16*%
X33456142Y-41186380D02*
X33122809Y-40710190D01*
X32884714Y-41186380D02*
X32884714Y-40186380D01*
X33265666Y-40186380D01*
X33360904Y-40234000D01*
X33408523Y-40281619D01*
X33456142Y-40376857D01*
X33456142Y-40519714D01*
X33408523Y-40614952D01*
X33360904Y-40662571D01*
X33265666Y-40710190D01*
X32884714Y-40710190D01*
X34408523Y-41186380D02*
X33837095Y-41186380D01*
X34122809Y-41186380D02*
X34122809Y-40186380D01*
X34027571Y-40329238D01*
X33932333Y-40424476D01*
X33837095Y-40472095D01*
X35265666Y-40186380D02*
X35075190Y-40186380D01*
X34979952Y-40234000D01*
X34932333Y-40281619D01*
X34837095Y-40424476D01*
X34789476Y-40614952D01*
X34789476Y-40995904D01*
X34837095Y-41091142D01*
X34884714Y-41138761D01*
X34979952Y-41186380D01*
X35170428Y-41186380D01*
X35265666Y-41138761D01*
X35313285Y-41091142D01*
X35360904Y-40995904D01*
X35360904Y-40757809D01*
X35313285Y-40662571D01*
X35265666Y-40614952D01*
X35170428Y-40567333D01*
X34979952Y-40567333D01*
X34884714Y-40614952D01*
X34837095Y-40662571D01*
X34789476Y-40757809D01*
%TO.C,R15*%
X33139142Y-48552380D02*
X32805809Y-48076190D01*
X32567714Y-48552380D02*
X32567714Y-47552380D01*
X32948666Y-47552380D01*
X33043904Y-47600000D01*
X33091523Y-47647619D01*
X33139142Y-47742857D01*
X33139142Y-47885714D01*
X33091523Y-47980952D01*
X33043904Y-48028571D01*
X32948666Y-48076190D01*
X32567714Y-48076190D01*
X34091523Y-48552380D02*
X33520095Y-48552380D01*
X33805809Y-48552380D02*
X33805809Y-47552380D01*
X33710571Y-47695238D01*
X33615333Y-47790476D01*
X33520095Y-47838095D01*
X34996285Y-47552380D02*
X34520095Y-47552380D01*
X34472476Y-48028571D01*
X34520095Y-47980952D01*
X34615333Y-47933333D01*
X34853428Y-47933333D01*
X34948666Y-47980952D01*
X34996285Y-48028571D01*
X35043904Y-48123809D01*
X35043904Y-48361904D01*
X34996285Y-48457142D01*
X34948666Y-48504761D01*
X34853428Y-48552380D01*
X34615333Y-48552380D01*
X34520095Y-48504761D01*
X34472476Y-48457142D01*
%TO.C,R14*%
X33202142Y-55918380D02*
X32868809Y-55442190D01*
X32630714Y-55918380D02*
X32630714Y-54918380D01*
X33011666Y-54918380D01*
X33106904Y-54966000D01*
X33154523Y-55013619D01*
X33202142Y-55108857D01*
X33202142Y-55251714D01*
X33154523Y-55346952D01*
X33106904Y-55394571D01*
X33011666Y-55442190D01*
X32630714Y-55442190D01*
X34154523Y-55918380D02*
X33583095Y-55918380D01*
X33868809Y-55918380D02*
X33868809Y-54918380D01*
X33773571Y-55061238D01*
X33678333Y-55156476D01*
X33583095Y-55204095D01*
X35011666Y-55251714D02*
X35011666Y-55918380D01*
X34773571Y-54870761D02*
X34535476Y-55585047D01*
X35154523Y-55585047D01*
%TO.C,R13*%
X33139142Y-63284380D02*
X32805809Y-62808190D01*
X32567714Y-63284380D02*
X32567714Y-62284380D01*
X32948666Y-62284380D01*
X33043904Y-62332000D01*
X33091523Y-62379619D01*
X33139142Y-62474857D01*
X33139142Y-62617714D01*
X33091523Y-62712952D01*
X33043904Y-62760571D01*
X32948666Y-62808190D01*
X32567714Y-62808190D01*
X34091523Y-63284380D02*
X33520095Y-63284380D01*
X33805809Y-63284380D02*
X33805809Y-62284380D01*
X33710571Y-62427238D01*
X33615333Y-62522476D01*
X33520095Y-62570095D01*
X34424857Y-62284380D02*
X35043904Y-62284380D01*
X34710571Y-62665333D01*
X34853428Y-62665333D01*
X34948666Y-62712952D01*
X34996285Y-62760571D01*
X35043904Y-62855809D01*
X35043904Y-63093904D01*
X34996285Y-63189142D01*
X34948666Y-63236761D01*
X34853428Y-63284380D01*
X34567714Y-63284380D01*
X34472476Y-63236761D01*
X34424857Y-63189142D01*
%TO.C,R12*%
X33202142Y-70904380D02*
X32868809Y-70428190D01*
X32630714Y-70904380D02*
X32630714Y-69904380D01*
X33011666Y-69904380D01*
X33106904Y-69952000D01*
X33154523Y-69999619D01*
X33202142Y-70094857D01*
X33202142Y-70237714D01*
X33154523Y-70332952D01*
X33106904Y-70380571D01*
X33011666Y-70428190D01*
X32630714Y-70428190D01*
X34154523Y-70904380D02*
X33583095Y-70904380D01*
X33868809Y-70904380D02*
X33868809Y-69904380D01*
X33773571Y-70047238D01*
X33678333Y-70142476D01*
X33583095Y-70190095D01*
X34535476Y-69999619D02*
X34583095Y-69952000D01*
X34678333Y-69904380D01*
X34916428Y-69904380D01*
X35011666Y-69952000D01*
X35059285Y-69999619D01*
X35106904Y-70094857D01*
X35106904Y-70190095D01*
X35059285Y-70332952D01*
X34487857Y-70904380D01*
X35106904Y-70904380D01*
%TO.C,R11*%
X33202142Y-78270380D02*
X32868809Y-77794190D01*
X32630714Y-78270380D02*
X32630714Y-77270380D01*
X33011666Y-77270380D01*
X33106904Y-77318000D01*
X33154523Y-77365619D01*
X33202142Y-77460857D01*
X33202142Y-77603714D01*
X33154523Y-77698952D01*
X33106904Y-77746571D01*
X33011666Y-77794190D01*
X32630714Y-77794190D01*
X34154523Y-78270380D02*
X33583095Y-78270380D01*
X33868809Y-78270380D02*
X33868809Y-77270380D01*
X33773571Y-77413238D01*
X33678333Y-77508476D01*
X33583095Y-77556095D01*
X35106904Y-78270380D02*
X34535476Y-78270380D01*
X34821190Y-78270380D02*
X34821190Y-77270380D01*
X34725952Y-77413238D01*
X34630714Y-77508476D01*
X34535476Y-77556095D01*
%TO.C,R10*%
X33139142Y-85382380D02*
X32805809Y-84906190D01*
X32567714Y-85382380D02*
X32567714Y-84382380D01*
X32948666Y-84382380D01*
X33043904Y-84430000D01*
X33091523Y-84477619D01*
X33139142Y-84572857D01*
X33139142Y-84715714D01*
X33091523Y-84810952D01*
X33043904Y-84858571D01*
X32948666Y-84906190D01*
X32567714Y-84906190D01*
X34091523Y-85382380D02*
X33520095Y-85382380D01*
X33805809Y-85382380D02*
X33805809Y-84382380D01*
X33710571Y-84525238D01*
X33615333Y-84620476D01*
X33520095Y-84668095D01*
X34710571Y-84382380D02*
X34805809Y-84382380D01*
X34901047Y-84430000D01*
X34948666Y-84477619D01*
X34996285Y-84572857D01*
X35043904Y-84763333D01*
X35043904Y-85001428D01*
X34996285Y-85191904D01*
X34948666Y-85287142D01*
X34901047Y-85334761D01*
X34805809Y-85382380D01*
X34710571Y-85382380D01*
X34615333Y-85334761D01*
X34567714Y-85287142D01*
X34520095Y-85191904D01*
X34472476Y-85001428D01*
X34472476Y-84763333D01*
X34520095Y-84572857D01*
X34567714Y-84477619D01*
X34615333Y-84430000D01*
X34710571Y-84382380D01*
%TO.C,R9*%
X33615333Y-93002380D02*
X33282000Y-92526190D01*
X33043904Y-93002380D02*
X33043904Y-92002380D01*
X33424857Y-92002380D01*
X33520095Y-92050000D01*
X33567714Y-92097619D01*
X33615333Y-92192857D01*
X33615333Y-92335714D01*
X33567714Y-92430952D01*
X33520095Y-92478571D01*
X33424857Y-92526190D01*
X33043904Y-92526190D01*
X34091523Y-93002380D02*
X34282000Y-93002380D01*
X34377238Y-92954761D01*
X34424857Y-92907142D01*
X34520095Y-92764285D01*
X34567714Y-92573809D01*
X34567714Y-92192857D01*
X34520095Y-92097619D01*
X34472476Y-92050000D01*
X34377238Y-92002380D01*
X34186761Y-92002380D01*
X34091523Y-92050000D01*
X34043904Y-92097619D01*
X33996285Y-92192857D01*
X33996285Y-92430952D01*
X34043904Y-92526190D01*
X34091523Y-92573809D01*
X34186761Y-92621428D01*
X34377238Y-92621428D01*
X34472476Y-92573809D01*
X34520095Y-92526190D01*
X34567714Y-92430952D01*
%TO.C,R8*%
X33869333Y-42964380D02*
X33536000Y-42488190D01*
X33297904Y-42964380D02*
X33297904Y-41964380D01*
X33678857Y-41964380D01*
X33774095Y-42012000D01*
X33821714Y-42059619D01*
X33869333Y-42154857D01*
X33869333Y-42297714D01*
X33821714Y-42392952D01*
X33774095Y-42440571D01*
X33678857Y-42488190D01*
X33297904Y-42488190D01*
X34440761Y-42392952D02*
X34345523Y-42345333D01*
X34297904Y-42297714D01*
X34250285Y-42202476D01*
X34250285Y-42154857D01*
X34297904Y-42059619D01*
X34345523Y-42012000D01*
X34440761Y-41964380D01*
X34631238Y-41964380D01*
X34726476Y-42012000D01*
X34774095Y-42059619D01*
X34821714Y-42154857D01*
X34821714Y-42202476D01*
X34774095Y-42297714D01*
X34726476Y-42345333D01*
X34631238Y-42392952D01*
X34440761Y-42392952D01*
X34345523Y-42440571D01*
X34297904Y-42488190D01*
X34250285Y-42583428D01*
X34250285Y-42773904D01*
X34297904Y-42869142D01*
X34345523Y-42916761D01*
X34440761Y-42964380D01*
X34631238Y-42964380D01*
X34726476Y-42916761D01*
X34774095Y-42869142D01*
X34821714Y-42773904D01*
X34821714Y-42583428D01*
X34774095Y-42488190D01*
X34726476Y-42440571D01*
X34631238Y-42392952D01*
%TO.C,R7*%
X33615333Y-50330380D02*
X33282000Y-49854190D01*
X33043904Y-50330380D02*
X33043904Y-49330380D01*
X33424857Y-49330380D01*
X33520095Y-49378000D01*
X33567714Y-49425619D01*
X33615333Y-49520857D01*
X33615333Y-49663714D01*
X33567714Y-49758952D01*
X33520095Y-49806571D01*
X33424857Y-49854190D01*
X33043904Y-49854190D01*
X33948666Y-49330380D02*
X34615333Y-49330380D01*
X34186761Y-50330380D01*
%TO.C,R6*%
X33678333Y-57696380D02*
X33345000Y-57220190D01*
X33106904Y-57696380D02*
X33106904Y-56696380D01*
X33487857Y-56696380D01*
X33583095Y-56744000D01*
X33630714Y-56791619D01*
X33678333Y-56886857D01*
X33678333Y-57029714D01*
X33630714Y-57124952D01*
X33583095Y-57172571D01*
X33487857Y-57220190D01*
X33106904Y-57220190D01*
X34535476Y-56696380D02*
X34345000Y-56696380D01*
X34249761Y-56744000D01*
X34202142Y-56791619D01*
X34106904Y-56934476D01*
X34059285Y-57124952D01*
X34059285Y-57505904D01*
X34106904Y-57601142D01*
X34154523Y-57648761D01*
X34249761Y-57696380D01*
X34440238Y-57696380D01*
X34535476Y-57648761D01*
X34583095Y-57601142D01*
X34630714Y-57505904D01*
X34630714Y-57267809D01*
X34583095Y-57172571D01*
X34535476Y-57124952D01*
X34440238Y-57077333D01*
X34249761Y-57077333D01*
X34154523Y-57124952D01*
X34106904Y-57172571D01*
X34059285Y-57267809D01*
%TO.C,R5*%
X33615333Y-65062380D02*
X33282000Y-64586190D01*
X33043904Y-65062380D02*
X33043904Y-64062380D01*
X33424857Y-64062380D01*
X33520095Y-64110000D01*
X33567714Y-64157619D01*
X33615333Y-64252857D01*
X33615333Y-64395714D01*
X33567714Y-64490952D01*
X33520095Y-64538571D01*
X33424857Y-64586190D01*
X33043904Y-64586190D01*
X34520095Y-64062380D02*
X34043904Y-64062380D01*
X33996285Y-64538571D01*
X34043904Y-64490952D01*
X34139142Y-64443333D01*
X34377238Y-64443333D01*
X34472476Y-64490952D01*
X34520095Y-64538571D01*
X34567714Y-64633809D01*
X34567714Y-64871904D01*
X34520095Y-64967142D01*
X34472476Y-65014761D01*
X34377238Y-65062380D01*
X34139142Y-65062380D01*
X34043904Y-65014761D01*
X33996285Y-64967142D01*
%TO.C,R4*%
X33615333Y-72682380D02*
X33282000Y-72206190D01*
X33043904Y-72682380D02*
X33043904Y-71682380D01*
X33424857Y-71682380D01*
X33520095Y-71730000D01*
X33567714Y-71777619D01*
X33615333Y-71872857D01*
X33615333Y-72015714D01*
X33567714Y-72110952D01*
X33520095Y-72158571D01*
X33424857Y-72206190D01*
X33043904Y-72206190D01*
X34472476Y-72015714D02*
X34472476Y-72682380D01*
X34234380Y-71634761D02*
X33996285Y-72349047D01*
X34615333Y-72349047D01*
%TO.C,R3*%
X33678333Y-80048380D02*
X33345000Y-79572190D01*
X33106904Y-80048380D02*
X33106904Y-79048380D01*
X33487857Y-79048380D01*
X33583095Y-79096000D01*
X33630714Y-79143619D01*
X33678333Y-79238857D01*
X33678333Y-79381714D01*
X33630714Y-79476952D01*
X33583095Y-79524571D01*
X33487857Y-79572190D01*
X33106904Y-79572190D01*
X34011666Y-79048380D02*
X34630714Y-79048380D01*
X34297380Y-79429333D01*
X34440238Y-79429333D01*
X34535476Y-79476952D01*
X34583095Y-79524571D01*
X34630714Y-79619809D01*
X34630714Y-79857904D01*
X34583095Y-79953142D01*
X34535476Y-80000761D01*
X34440238Y-80048380D01*
X34154523Y-80048380D01*
X34059285Y-80000761D01*
X34011666Y-79953142D01*
%TO.C,R2*%
X33615333Y-87432380D02*
X33282000Y-86956190D01*
X33043904Y-87432380D02*
X33043904Y-86432380D01*
X33424857Y-86432380D01*
X33520095Y-86480000D01*
X33567714Y-86527619D01*
X33615333Y-86622857D01*
X33615333Y-86765714D01*
X33567714Y-86860952D01*
X33520095Y-86908571D01*
X33424857Y-86956190D01*
X33043904Y-86956190D01*
X33996285Y-86527619D02*
X34043904Y-86480000D01*
X34139142Y-86432380D01*
X34377238Y-86432380D01*
X34472476Y-86480000D01*
X34520095Y-86527619D01*
X34567714Y-86622857D01*
X34567714Y-86718095D01*
X34520095Y-86860952D01*
X33948666Y-87432380D01*
X34567714Y-87432380D01*
%TO.C,R1*%
X33615333Y-94780380D02*
X33282000Y-94304190D01*
X33043904Y-94780380D02*
X33043904Y-93780380D01*
X33424857Y-93780380D01*
X33520095Y-93828000D01*
X33567714Y-93875619D01*
X33615333Y-93970857D01*
X33615333Y-94113714D01*
X33567714Y-94208952D01*
X33520095Y-94256571D01*
X33424857Y-94304190D01*
X33043904Y-94304190D01*
X34567714Y-94780380D02*
X33996285Y-94780380D01*
X34282000Y-94780380D02*
X34282000Y-93780380D01*
X34186761Y-93923238D01*
X34091523Y-94018476D01*
X33996285Y-94066095D01*
%TO.C,Q9*%
X36988761Y-132373619D02*
X36893523Y-132326000D01*
X36798285Y-132230761D01*
X36655428Y-132087904D01*
X36560190Y-132040285D01*
X36464952Y-132040285D01*
X36512571Y-132278380D02*
X36417333Y-132230761D01*
X36322095Y-132135523D01*
X36274476Y-131945047D01*
X36274476Y-131611714D01*
X36322095Y-131421238D01*
X36417333Y-131326000D01*
X36512571Y-131278380D01*
X36703047Y-131278380D01*
X36798285Y-131326000D01*
X36893523Y-131421238D01*
X36941142Y-131611714D01*
X36941142Y-131945047D01*
X36893523Y-132135523D01*
X36798285Y-132230761D01*
X36703047Y-132278380D01*
X36512571Y-132278380D01*
X37417333Y-132278380D02*
X37607809Y-132278380D01*
X37703047Y-132230761D01*
X37750666Y-132183142D01*
X37845904Y-132040285D01*
X37893523Y-131849809D01*
X37893523Y-131468857D01*
X37845904Y-131373619D01*
X37798285Y-131326000D01*
X37703047Y-131278380D01*
X37512571Y-131278380D01*
X37417333Y-131326000D01*
X37369714Y-131373619D01*
X37322095Y-131468857D01*
X37322095Y-131706952D01*
X37369714Y-131802190D01*
X37417333Y-131849809D01*
X37512571Y-131897428D01*
X37703047Y-131897428D01*
X37798285Y-131849809D01*
X37845904Y-131802190D01*
X37893523Y-131706952D01*
%TO.C,Q8*%
X58403261Y-57443619D02*
X58308023Y-57396000D01*
X58212785Y-57300761D01*
X58069928Y-57157904D01*
X57974690Y-57110285D01*
X57879452Y-57110285D01*
X57927071Y-57348380D02*
X57831833Y-57300761D01*
X57736595Y-57205523D01*
X57688976Y-57015047D01*
X57688976Y-56681714D01*
X57736595Y-56491238D01*
X57831833Y-56396000D01*
X57927071Y-56348380D01*
X58117547Y-56348380D01*
X58212785Y-56396000D01*
X58308023Y-56491238D01*
X58355642Y-56681714D01*
X58355642Y-57015047D01*
X58308023Y-57205523D01*
X58212785Y-57300761D01*
X58117547Y-57348380D01*
X57927071Y-57348380D01*
X58927071Y-56776952D02*
X58831833Y-56729333D01*
X58784214Y-56681714D01*
X58736595Y-56586476D01*
X58736595Y-56538857D01*
X58784214Y-56443619D01*
X58831833Y-56396000D01*
X58927071Y-56348380D01*
X59117547Y-56348380D01*
X59212785Y-56396000D01*
X59260404Y-56443619D01*
X59308023Y-56538857D01*
X59308023Y-56586476D01*
X59260404Y-56681714D01*
X59212785Y-56729333D01*
X59117547Y-56776952D01*
X58927071Y-56776952D01*
X58831833Y-56824571D01*
X58784214Y-56872190D01*
X58736595Y-56967428D01*
X58736595Y-57157904D01*
X58784214Y-57253142D01*
X58831833Y-57300761D01*
X58927071Y-57348380D01*
X59117547Y-57348380D01*
X59212785Y-57300761D01*
X59260404Y-57253142D01*
X59308023Y-57157904D01*
X59308023Y-56967428D01*
X59260404Y-56872190D01*
X59212785Y-56824571D01*
X59117547Y-56776952D01*
%TO.C,Q7*%
X58324761Y-50331619D02*
X58229523Y-50284000D01*
X58134285Y-50188761D01*
X57991428Y-50045904D01*
X57896190Y-49998285D01*
X57800952Y-49998285D01*
X57848571Y-50236380D02*
X57753333Y-50188761D01*
X57658095Y-50093523D01*
X57610476Y-49903047D01*
X57610476Y-49569714D01*
X57658095Y-49379238D01*
X57753333Y-49284000D01*
X57848571Y-49236380D01*
X58039047Y-49236380D01*
X58134285Y-49284000D01*
X58229523Y-49379238D01*
X58277142Y-49569714D01*
X58277142Y-49903047D01*
X58229523Y-50093523D01*
X58134285Y-50188761D01*
X58039047Y-50236380D01*
X57848571Y-50236380D01*
X58610476Y-49236380D02*
X59277142Y-49236380D01*
X58848571Y-50236380D01*
%TO.C,Q6*%
X56976261Y-73699619D02*
X56881023Y-73652000D01*
X56785785Y-73556761D01*
X56642928Y-73413904D01*
X56547690Y-73366285D01*
X56452452Y-73366285D01*
X56500071Y-73604380D02*
X56404833Y-73556761D01*
X56309595Y-73461523D01*
X56261976Y-73271047D01*
X56261976Y-72937714D01*
X56309595Y-72747238D01*
X56404833Y-72652000D01*
X56500071Y-72604380D01*
X56690547Y-72604380D01*
X56785785Y-72652000D01*
X56881023Y-72747238D01*
X56928642Y-72937714D01*
X56928642Y-73271047D01*
X56881023Y-73461523D01*
X56785785Y-73556761D01*
X56690547Y-73604380D01*
X56500071Y-73604380D01*
X57785785Y-72604380D02*
X57595309Y-72604380D01*
X57500071Y-72652000D01*
X57452452Y-72699619D01*
X57357214Y-72842476D01*
X57309595Y-73032952D01*
X57309595Y-73413904D01*
X57357214Y-73509142D01*
X57404833Y-73556761D01*
X57500071Y-73604380D01*
X57690547Y-73604380D01*
X57785785Y-73556761D01*
X57833404Y-73509142D01*
X57881023Y-73413904D01*
X57881023Y-73175809D01*
X57833404Y-73080571D01*
X57785785Y-73032952D01*
X57690547Y-72985333D01*
X57500071Y-72985333D01*
X57404833Y-73032952D01*
X57357214Y-73080571D01*
X57309595Y-73175809D01*
%TO.C,Q5*%
X56976261Y-77255619D02*
X56881023Y-77208000D01*
X56785785Y-77112761D01*
X56642928Y-76969904D01*
X56547690Y-76922285D01*
X56452452Y-76922285D01*
X56500071Y-77160380D02*
X56404833Y-77112761D01*
X56309595Y-77017523D01*
X56261976Y-76827047D01*
X56261976Y-76493714D01*
X56309595Y-76303238D01*
X56404833Y-76208000D01*
X56500071Y-76160380D01*
X56690547Y-76160380D01*
X56785785Y-76208000D01*
X56881023Y-76303238D01*
X56928642Y-76493714D01*
X56928642Y-76827047D01*
X56881023Y-77017523D01*
X56785785Y-77112761D01*
X56690547Y-77160380D01*
X56500071Y-77160380D01*
X57833404Y-76160380D02*
X57357214Y-76160380D01*
X57309595Y-76636571D01*
X57357214Y-76588952D01*
X57452452Y-76541333D01*
X57690547Y-76541333D01*
X57785785Y-76588952D01*
X57833404Y-76636571D01*
X57881023Y-76731809D01*
X57881023Y-76969904D01*
X57833404Y-77065142D01*
X57785785Y-77112761D01*
X57690547Y-77160380D01*
X57452452Y-77160380D01*
X57357214Y-77112761D01*
X57309595Y-77065142D01*
%TO.C,Q4*%
X58324761Y-41441619D02*
X58229523Y-41394000D01*
X58134285Y-41298761D01*
X57991428Y-41155904D01*
X57896190Y-41108285D01*
X57800952Y-41108285D01*
X57848571Y-41346380D02*
X57753333Y-41298761D01*
X57658095Y-41203523D01*
X57610476Y-41013047D01*
X57610476Y-40679714D01*
X57658095Y-40489238D01*
X57753333Y-40394000D01*
X57848571Y-40346380D01*
X58039047Y-40346380D01*
X58134285Y-40394000D01*
X58229523Y-40489238D01*
X58277142Y-40679714D01*
X58277142Y-41013047D01*
X58229523Y-41203523D01*
X58134285Y-41298761D01*
X58039047Y-41346380D01*
X57848571Y-41346380D01*
X59134285Y-40679714D02*
X59134285Y-41346380D01*
X58896190Y-40298761D02*
X58658095Y-41013047D01*
X59277142Y-41013047D01*
%TO.C,Q3*%
X58324761Y-44997619D02*
X58229523Y-44950000D01*
X58134285Y-44854761D01*
X57991428Y-44711904D01*
X57896190Y-44664285D01*
X57800952Y-44664285D01*
X57848571Y-44902380D02*
X57753333Y-44854761D01*
X57658095Y-44759523D01*
X57610476Y-44569047D01*
X57610476Y-44235714D01*
X57658095Y-44045238D01*
X57753333Y-43950000D01*
X57848571Y-43902380D01*
X58039047Y-43902380D01*
X58134285Y-43950000D01*
X58229523Y-44045238D01*
X58277142Y-44235714D01*
X58277142Y-44569047D01*
X58229523Y-44759523D01*
X58134285Y-44854761D01*
X58039047Y-44902380D01*
X57848571Y-44902380D01*
X58610476Y-43902380D02*
X59229523Y-43902380D01*
X58896190Y-44283333D01*
X59039047Y-44283333D01*
X59134285Y-44330952D01*
X59181904Y-44378571D01*
X59229523Y-44473809D01*
X59229523Y-44711904D01*
X59181904Y-44807142D01*
X59134285Y-44854761D01*
X59039047Y-44902380D01*
X58753333Y-44902380D01*
X58658095Y-44854761D01*
X58610476Y-44807142D01*
%TO.C,Q2*%
X56976261Y-82589619D02*
X56881023Y-82542000D01*
X56785785Y-82446761D01*
X56642928Y-82303904D01*
X56547690Y-82256285D01*
X56452452Y-82256285D01*
X56500071Y-82494380D02*
X56404833Y-82446761D01*
X56309595Y-82351523D01*
X56261976Y-82161047D01*
X56261976Y-81827714D01*
X56309595Y-81637238D01*
X56404833Y-81542000D01*
X56500071Y-81494380D01*
X56690547Y-81494380D01*
X56785785Y-81542000D01*
X56881023Y-81637238D01*
X56928642Y-81827714D01*
X56928642Y-82161047D01*
X56881023Y-82351523D01*
X56785785Y-82446761D01*
X56690547Y-82494380D01*
X56500071Y-82494380D01*
X57309595Y-81589619D02*
X57357214Y-81542000D01*
X57452452Y-81494380D01*
X57690547Y-81494380D01*
X57785785Y-81542000D01*
X57833404Y-81589619D01*
X57881023Y-81684857D01*
X57881023Y-81780095D01*
X57833404Y-81922952D01*
X57261976Y-82494380D01*
X57881023Y-82494380D01*
%TO.C,Q1*%
X57054761Y-89701619D02*
X56959523Y-89654000D01*
X56864285Y-89558761D01*
X56721428Y-89415904D01*
X56626190Y-89368285D01*
X56530952Y-89368285D01*
X56578571Y-89606380D02*
X56483333Y-89558761D01*
X56388095Y-89463523D01*
X56340476Y-89273047D01*
X56340476Y-88939714D01*
X56388095Y-88749238D01*
X56483333Y-88654000D01*
X56578571Y-88606380D01*
X56769047Y-88606380D01*
X56864285Y-88654000D01*
X56959523Y-88749238D01*
X57007142Y-88939714D01*
X57007142Y-89273047D01*
X56959523Y-89463523D01*
X56864285Y-89558761D01*
X56769047Y-89606380D01*
X56578571Y-89606380D01*
X57959523Y-89606380D02*
X57388095Y-89606380D01*
X57673809Y-89606380D02*
X57673809Y-88606380D01*
X57578571Y-88749238D01*
X57483333Y-88844476D01*
X57388095Y-88892095D01*
%TO.C,J7*%
X61134666Y-117606380D02*
X61134666Y-118320666D01*
X61087047Y-118463523D01*
X60991809Y-118558761D01*
X60848952Y-118606380D01*
X60753714Y-118606380D01*
X61515619Y-117606380D02*
X62182285Y-117606380D01*
X61753714Y-118606380D01*
%TO.C,J6*%
X44116666Y-132250380D02*
X44116666Y-132964666D01*
X44069047Y-133107523D01*
X43973809Y-133202761D01*
X43830952Y-133250380D01*
X43735714Y-133250380D01*
X45021428Y-132250380D02*
X44830952Y-132250380D01*
X44735714Y-132298000D01*
X44688095Y-132345619D01*
X44592857Y-132488476D01*
X44545238Y-132678952D01*
X44545238Y-133059904D01*
X44592857Y-133155142D01*
X44640476Y-133202761D01*
X44735714Y-133250380D01*
X44926190Y-133250380D01*
X45021428Y-133202761D01*
X45069047Y-133155142D01*
X45116666Y-133059904D01*
X45116666Y-132821809D01*
X45069047Y-132726571D01*
X45021428Y-132678952D01*
X44926190Y-132631333D01*
X44735714Y-132631333D01*
X44640476Y-132678952D01*
X44592857Y-132726571D01*
X44545238Y-132821809D01*
%TO.C,J5*%
X56646380Y-113172333D02*
X57360666Y-113172333D01*
X57503523Y-113219952D01*
X57598761Y-113315190D01*
X57646380Y-113458047D01*
X57646380Y-113553285D01*
X56646380Y-112219952D02*
X56646380Y-112696142D01*
X57122571Y-112743761D01*
X57074952Y-112696142D01*
X57027333Y-112600904D01*
X57027333Y-112362809D01*
X57074952Y-112267571D01*
X57122571Y-112219952D01*
X57217809Y-112172333D01*
X57455904Y-112172333D01*
X57551142Y-112219952D01*
X57598761Y-112267571D01*
X57646380Y-112362809D01*
X57646380Y-112600904D01*
X57598761Y-112696142D01*
X57551142Y-112743761D01*
%TO.C,J4*%
X37762380Y-125364333D02*
X38476666Y-125364333D01*
X38619523Y-125411952D01*
X38714761Y-125507190D01*
X38762380Y-125650047D01*
X38762380Y-125745285D01*
X38095714Y-124459571D02*
X38762380Y-124459571D01*
X37714761Y-124697666D02*
X38429047Y-124935761D01*
X38429047Y-124316714D01*
%TO.C,J3*%
X39072380Y-36147333D02*
X39786666Y-36147333D01*
X39929523Y-36194952D01*
X40024761Y-36290190D01*
X40072380Y-36433047D01*
X40072380Y-36528285D01*
X39072380Y-35766380D02*
X39072380Y-35147333D01*
X39453333Y-35480666D01*
X39453333Y-35337809D01*
X39500952Y-35242571D01*
X39548571Y-35194952D01*
X39643809Y-35147333D01*
X39881904Y-35147333D01*
X39977142Y-35194952D01*
X40024761Y-35242571D01*
X40072380Y-35337809D01*
X40072380Y-35623523D01*
X40024761Y-35718761D01*
X39977142Y-35766380D01*
%TO.C,J2*%
X60152666Y-122514380D02*
X60152666Y-123228666D01*
X60105047Y-123371523D01*
X60009809Y-123466761D01*
X59866952Y-123514380D01*
X59771714Y-123514380D01*
X60581238Y-122609619D02*
X60628857Y-122562000D01*
X60724095Y-122514380D01*
X60962190Y-122514380D01*
X61057428Y-122562000D01*
X61105047Y-122609619D01*
X61152666Y-122704857D01*
X61152666Y-122800095D01*
X61105047Y-122942952D01*
X60533619Y-123514380D01*
X61152666Y-123514380D01*
%TO.C,J1*%
X22814666Y-122006380D02*
X22814666Y-122720666D01*
X22767047Y-122863523D01*
X22671809Y-122958761D01*
X22528952Y-123006380D01*
X22433714Y-123006380D01*
X23814666Y-123006380D02*
X23243238Y-123006380D01*
X23528952Y-123006380D02*
X23528952Y-122006380D01*
X23433714Y-122149238D01*
X23338476Y-122244476D01*
X23243238Y-122292095D01*
%TO.C,D24*%
X38966380Y-107169785D02*
X37966380Y-107169785D01*
X37966380Y-106931690D01*
X38014000Y-106788833D01*
X38109238Y-106693595D01*
X38204476Y-106645976D01*
X38394952Y-106598357D01*
X38537809Y-106598357D01*
X38728285Y-106645976D01*
X38823523Y-106693595D01*
X38918761Y-106788833D01*
X38966380Y-106931690D01*
X38966380Y-107169785D01*
X38061619Y-106217404D02*
X38014000Y-106169785D01*
X37966380Y-106074547D01*
X37966380Y-105836452D01*
X38014000Y-105741214D01*
X38061619Y-105693595D01*
X38156857Y-105645976D01*
X38252095Y-105645976D01*
X38394952Y-105693595D01*
X38966380Y-106265023D01*
X38966380Y-105645976D01*
X38299714Y-104788833D02*
X38966380Y-104788833D01*
X37918761Y-105026928D02*
X38633047Y-105265023D01*
X38633047Y-104645976D01*
%TO.C,D23*%
X41506380Y-107195285D02*
X40506380Y-107195285D01*
X40506380Y-106957190D01*
X40554000Y-106814333D01*
X40649238Y-106719095D01*
X40744476Y-106671476D01*
X40934952Y-106623857D01*
X41077809Y-106623857D01*
X41268285Y-106671476D01*
X41363523Y-106719095D01*
X41458761Y-106814333D01*
X41506380Y-106957190D01*
X41506380Y-107195285D01*
X40601619Y-106242904D02*
X40554000Y-106195285D01*
X40506380Y-106100047D01*
X40506380Y-105861952D01*
X40554000Y-105766714D01*
X40601619Y-105719095D01*
X40696857Y-105671476D01*
X40792095Y-105671476D01*
X40934952Y-105719095D01*
X41506380Y-106290523D01*
X41506380Y-105671476D01*
X40506380Y-105338142D02*
X40506380Y-104719095D01*
X40887333Y-105052428D01*
X40887333Y-104909571D01*
X40934952Y-104814333D01*
X40982571Y-104766714D01*
X41077809Y-104719095D01*
X41315904Y-104719095D01*
X41411142Y-104766714D01*
X41458761Y-104814333D01*
X41506380Y-104909571D01*
X41506380Y-105195285D01*
X41458761Y-105290523D01*
X41411142Y-105338142D01*
%TO.C,D22*%
X44046380Y-107195285D02*
X43046380Y-107195285D01*
X43046380Y-106957190D01*
X43094000Y-106814333D01*
X43189238Y-106719095D01*
X43284476Y-106671476D01*
X43474952Y-106623857D01*
X43617809Y-106623857D01*
X43808285Y-106671476D01*
X43903523Y-106719095D01*
X43998761Y-106814333D01*
X44046380Y-106957190D01*
X44046380Y-107195285D01*
X43141619Y-106242904D02*
X43094000Y-106195285D01*
X43046380Y-106100047D01*
X43046380Y-105861952D01*
X43094000Y-105766714D01*
X43141619Y-105719095D01*
X43236857Y-105671476D01*
X43332095Y-105671476D01*
X43474952Y-105719095D01*
X44046380Y-106290523D01*
X44046380Y-105671476D01*
X43141619Y-105290523D02*
X43094000Y-105242904D01*
X43046380Y-105147666D01*
X43046380Y-104909571D01*
X43094000Y-104814333D01*
X43141619Y-104766714D01*
X43236857Y-104719095D01*
X43332095Y-104719095D01*
X43474952Y-104766714D01*
X44046380Y-105338142D01*
X44046380Y-104719095D01*
%TO.C,D21*%
X46586380Y-107169785D02*
X45586380Y-107169785D01*
X45586380Y-106931690D01*
X45634000Y-106788833D01*
X45729238Y-106693595D01*
X45824476Y-106645976D01*
X46014952Y-106598357D01*
X46157809Y-106598357D01*
X46348285Y-106645976D01*
X46443523Y-106693595D01*
X46538761Y-106788833D01*
X46586380Y-106931690D01*
X46586380Y-107169785D01*
X45681619Y-106217404D02*
X45634000Y-106169785D01*
X45586380Y-106074547D01*
X45586380Y-105836452D01*
X45634000Y-105741214D01*
X45681619Y-105693595D01*
X45776857Y-105645976D01*
X45872095Y-105645976D01*
X46014952Y-105693595D01*
X46586380Y-106265023D01*
X46586380Y-105645976D01*
X46586380Y-104693595D02*
X46586380Y-105265023D01*
X46586380Y-104979309D02*
X45586380Y-104979309D01*
X45729238Y-105074547D01*
X45824476Y-105169785D01*
X45872095Y-105265023D01*
%TO.C,D20*%
X49126380Y-107195285D02*
X48126380Y-107195285D01*
X48126380Y-106957190D01*
X48174000Y-106814333D01*
X48269238Y-106719095D01*
X48364476Y-106671476D01*
X48554952Y-106623857D01*
X48697809Y-106623857D01*
X48888285Y-106671476D01*
X48983523Y-106719095D01*
X49078761Y-106814333D01*
X49126380Y-106957190D01*
X49126380Y-107195285D01*
X48221619Y-106242904D02*
X48174000Y-106195285D01*
X48126380Y-106100047D01*
X48126380Y-105861952D01*
X48174000Y-105766714D01*
X48221619Y-105719095D01*
X48316857Y-105671476D01*
X48412095Y-105671476D01*
X48554952Y-105719095D01*
X49126380Y-106290523D01*
X49126380Y-105671476D01*
X48126380Y-105052428D02*
X48126380Y-104957190D01*
X48174000Y-104861952D01*
X48221619Y-104814333D01*
X48316857Y-104766714D01*
X48507333Y-104719095D01*
X48745428Y-104719095D01*
X48935904Y-104766714D01*
X49031142Y-104814333D01*
X49078761Y-104861952D01*
X49126380Y-104957190D01*
X49126380Y-105052428D01*
X49078761Y-105147666D01*
X49031142Y-105195285D01*
X48935904Y-105242904D01*
X48745428Y-105290523D01*
X48507333Y-105290523D01*
X48316857Y-105242904D01*
X48221619Y-105195285D01*
X48174000Y-105147666D01*
X48126380Y-105052428D01*
%TO.C,D19*%
X51666380Y-107169785D02*
X50666380Y-107169785D01*
X50666380Y-106931690D01*
X50714000Y-106788833D01*
X50809238Y-106693595D01*
X50904476Y-106645976D01*
X51094952Y-106598357D01*
X51237809Y-106598357D01*
X51428285Y-106645976D01*
X51523523Y-106693595D01*
X51618761Y-106788833D01*
X51666380Y-106931690D01*
X51666380Y-107169785D01*
X51666380Y-105645976D02*
X51666380Y-106217404D01*
X51666380Y-105931690D02*
X50666380Y-105931690D01*
X50809238Y-106026928D01*
X50904476Y-106122166D01*
X50952095Y-106217404D01*
X51666380Y-105169785D02*
X51666380Y-104979309D01*
X51618761Y-104884071D01*
X51571142Y-104836452D01*
X51428285Y-104741214D01*
X51237809Y-104693595D01*
X50856857Y-104693595D01*
X50761619Y-104741214D01*
X50714000Y-104788833D01*
X50666380Y-104884071D01*
X50666380Y-105074547D01*
X50714000Y-105169785D01*
X50761619Y-105217404D01*
X50856857Y-105265023D01*
X51094952Y-105265023D01*
X51190190Y-105217404D01*
X51237809Y-105169785D01*
X51285428Y-105074547D01*
X51285428Y-104884071D01*
X51237809Y-104788833D01*
X51190190Y-104741214D01*
X51094952Y-104693595D01*
%TO.C,D18*%
X54206380Y-107169785D02*
X53206380Y-107169785D01*
X53206380Y-106931690D01*
X53254000Y-106788833D01*
X53349238Y-106693595D01*
X53444476Y-106645976D01*
X53634952Y-106598357D01*
X53777809Y-106598357D01*
X53968285Y-106645976D01*
X54063523Y-106693595D01*
X54158761Y-106788833D01*
X54206380Y-106931690D01*
X54206380Y-107169785D01*
X54206380Y-105645976D02*
X54206380Y-106217404D01*
X54206380Y-105931690D02*
X53206380Y-105931690D01*
X53349238Y-106026928D01*
X53444476Y-106122166D01*
X53492095Y-106217404D01*
X53634952Y-105074547D02*
X53587333Y-105169785D01*
X53539714Y-105217404D01*
X53444476Y-105265023D01*
X53396857Y-105265023D01*
X53301619Y-105217404D01*
X53254000Y-105169785D01*
X53206380Y-105074547D01*
X53206380Y-104884071D01*
X53254000Y-104788833D01*
X53301619Y-104741214D01*
X53396857Y-104693595D01*
X53444476Y-104693595D01*
X53539714Y-104741214D01*
X53587333Y-104788833D01*
X53634952Y-104884071D01*
X53634952Y-105074547D01*
X53682571Y-105169785D01*
X53730190Y-105217404D01*
X53825428Y-105265023D01*
X54015904Y-105265023D01*
X54111142Y-105217404D01*
X54158761Y-105169785D01*
X54206380Y-105074547D01*
X54206380Y-104884071D01*
X54158761Y-104788833D01*
X54111142Y-104741214D01*
X54015904Y-104693595D01*
X53825428Y-104693595D01*
X53730190Y-104741214D01*
X53682571Y-104788833D01*
X53634952Y-104884071D01*
%TO.C,D17*%
X56746380Y-107195285D02*
X55746380Y-107195285D01*
X55746380Y-106957190D01*
X55794000Y-106814333D01*
X55889238Y-106719095D01*
X55984476Y-106671476D01*
X56174952Y-106623857D01*
X56317809Y-106623857D01*
X56508285Y-106671476D01*
X56603523Y-106719095D01*
X56698761Y-106814333D01*
X56746380Y-106957190D01*
X56746380Y-107195285D01*
X56746380Y-105671476D02*
X56746380Y-106242904D01*
X56746380Y-105957190D02*
X55746380Y-105957190D01*
X55889238Y-106052428D01*
X55984476Y-106147666D01*
X56032095Y-106242904D01*
X55746380Y-105338142D02*
X55746380Y-104671476D01*
X56746380Y-105100047D01*
%TO.C,D16*%
X63848880Y-62936285D02*
X62848880Y-62936285D01*
X62848880Y-62698190D01*
X62896500Y-62555333D01*
X62991738Y-62460095D01*
X63086976Y-62412476D01*
X63277452Y-62364857D01*
X63420309Y-62364857D01*
X63610785Y-62412476D01*
X63706023Y-62460095D01*
X63801261Y-62555333D01*
X63848880Y-62698190D01*
X63848880Y-62936285D01*
X63848880Y-61412476D02*
X63848880Y-61983904D01*
X63848880Y-61698190D02*
X62848880Y-61698190D01*
X62991738Y-61793428D01*
X63086976Y-61888666D01*
X63134595Y-61983904D01*
X62848880Y-60555333D02*
X62848880Y-60745809D01*
X62896500Y-60841047D01*
X62944119Y-60888666D01*
X63086976Y-60983904D01*
X63277452Y-61031523D01*
X63658404Y-61031523D01*
X63753642Y-60983904D01*
X63801261Y-60936285D01*
X63848880Y-60841047D01*
X63848880Y-60650571D01*
X63801261Y-60555333D01*
X63753642Y-60507714D01*
X63658404Y-60460095D01*
X63420309Y-60460095D01*
X63325071Y-60507714D01*
X63277452Y-60555333D01*
X63229833Y-60650571D01*
X63229833Y-60841047D01*
X63277452Y-60936285D01*
X63325071Y-60983904D01*
X63420309Y-61031523D01*
%TO.C,D15*%
X44440714Y-50339880D02*
X44440714Y-49339880D01*
X44678809Y-49339880D01*
X44821666Y-49387500D01*
X44916904Y-49482738D01*
X44964523Y-49577976D01*
X45012142Y-49768452D01*
X45012142Y-49911309D01*
X44964523Y-50101785D01*
X44916904Y-50197023D01*
X44821666Y-50292261D01*
X44678809Y-50339880D01*
X44440714Y-50339880D01*
X45964523Y-50339880D02*
X45393095Y-50339880D01*
X45678809Y-50339880D02*
X45678809Y-49339880D01*
X45583571Y-49482738D01*
X45488333Y-49577976D01*
X45393095Y-49625595D01*
X46869285Y-49339880D02*
X46393095Y-49339880D01*
X46345476Y-49816071D01*
X46393095Y-49768452D01*
X46488333Y-49720833D01*
X46726428Y-49720833D01*
X46821666Y-49768452D01*
X46869285Y-49816071D01*
X46916904Y-49911309D01*
X46916904Y-50149404D01*
X46869285Y-50244642D01*
X46821666Y-50292261D01*
X46726428Y-50339880D01*
X46488333Y-50339880D01*
X46393095Y-50292261D01*
X46345476Y-50244642D01*
%TO.C,D14*%
X58721880Y-79700285D02*
X57721880Y-79700285D01*
X57721880Y-79462190D01*
X57769500Y-79319333D01*
X57864738Y-79224095D01*
X57959976Y-79176476D01*
X58150452Y-79128857D01*
X58293309Y-79128857D01*
X58483785Y-79176476D01*
X58579023Y-79224095D01*
X58674261Y-79319333D01*
X58721880Y-79462190D01*
X58721880Y-79700285D01*
X58721880Y-78176476D02*
X58721880Y-78747904D01*
X58721880Y-78462190D02*
X57721880Y-78462190D01*
X57864738Y-78557428D01*
X57959976Y-78652666D01*
X58007595Y-78747904D01*
X58055214Y-77319333D02*
X58721880Y-77319333D01*
X57674261Y-77557428D02*
X58388547Y-77795523D01*
X58388547Y-77176476D01*
%TO.C,D13*%
X62421880Y-85034285D02*
X61421880Y-85034285D01*
X61421880Y-84796190D01*
X61469500Y-84653333D01*
X61564738Y-84558095D01*
X61659976Y-84510476D01*
X61850452Y-84462857D01*
X61993309Y-84462857D01*
X62183785Y-84510476D01*
X62279023Y-84558095D01*
X62374261Y-84653333D01*
X62421880Y-84796190D01*
X62421880Y-85034285D01*
X62421880Y-83510476D02*
X62421880Y-84081904D01*
X62421880Y-83796190D02*
X61421880Y-83796190D01*
X61564738Y-83891428D01*
X61659976Y-83986666D01*
X61707595Y-84081904D01*
X61421880Y-83177142D02*
X61421880Y-82558095D01*
X61802833Y-82891428D01*
X61802833Y-82748571D01*
X61850452Y-82653333D01*
X61898071Y-82605714D01*
X61993309Y-82558095D01*
X62231404Y-82558095D01*
X62326642Y-82605714D01*
X62374261Y-82653333D01*
X62421880Y-82748571D01*
X62421880Y-83034285D01*
X62374261Y-83129523D01*
X62326642Y-83177142D01*
%TO.C,D12*%
X33583714Y-53434880D02*
X33583714Y-52434880D01*
X33821809Y-52434880D01*
X33964666Y-52482500D01*
X34059904Y-52577738D01*
X34107523Y-52672976D01*
X34155142Y-52863452D01*
X34155142Y-53006309D01*
X34107523Y-53196785D01*
X34059904Y-53292023D01*
X33964666Y-53387261D01*
X33821809Y-53434880D01*
X33583714Y-53434880D01*
X35107523Y-53434880D02*
X34536095Y-53434880D01*
X34821809Y-53434880D02*
X34821809Y-52434880D01*
X34726571Y-52577738D01*
X34631333Y-52672976D01*
X34536095Y-52720595D01*
X35488476Y-52530119D02*
X35536095Y-52482500D01*
X35631333Y-52434880D01*
X35869428Y-52434880D01*
X35964666Y-52482500D01*
X36012285Y-52530119D01*
X36059904Y-52625357D01*
X36059904Y-52720595D01*
X36012285Y-52863452D01*
X35440857Y-53434880D01*
X36059904Y-53434880D01*
%TO.C,D11*%
X63770380Y-52268285D02*
X62770380Y-52268285D01*
X62770380Y-52030190D01*
X62818000Y-51887333D01*
X62913238Y-51792095D01*
X63008476Y-51744476D01*
X63198952Y-51696857D01*
X63341809Y-51696857D01*
X63532285Y-51744476D01*
X63627523Y-51792095D01*
X63722761Y-51887333D01*
X63770380Y-52030190D01*
X63770380Y-52268285D01*
X63770380Y-50744476D02*
X63770380Y-51315904D01*
X63770380Y-51030190D02*
X62770380Y-51030190D01*
X62913238Y-51125428D01*
X63008476Y-51220666D01*
X63056095Y-51315904D01*
X63770380Y-49792095D02*
X63770380Y-50363523D01*
X63770380Y-50077809D02*
X62770380Y-50077809D01*
X62913238Y-50173047D01*
X63008476Y-50268285D01*
X63056095Y-50363523D01*
%TO.C,D10*%
X58721880Y-90368285D02*
X57721880Y-90368285D01*
X57721880Y-90130190D01*
X57769500Y-89987333D01*
X57864738Y-89892095D01*
X57959976Y-89844476D01*
X58150452Y-89796857D01*
X58293309Y-89796857D01*
X58483785Y-89844476D01*
X58579023Y-89892095D01*
X58674261Y-89987333D01*
X58721880Y-90130190D01*
X58721880Y-90368285D01*
X58721880Y-88844476D02*
X58721880Y-89415904D01*
X58721880Y-89130190D02*
X57721880Y-89130190D01*
X57864738Y-89225428D01*
X57959976Y-89320666D01*
X58007595Y-89415904D01*
X57721880Y-88225428D02*
X57721880Y-88130190D01*
X57769500Y-88034952D01*
X57817119Y-87987333D01*
X57912357Y-87939714D01*
X58102833Y-87892095D01*
X58340928Y-87892095D01*
X58531404Y-87939714D01*
X58626642Y-87987333D01*
X58674261Y-88034952D01*
X58721880Y-88130190D01*
X58721880Y-88225428D01*
X58674261Y-88320666D01*
X58626642Y-88368285D01*
X58531404Y-88415904D01*
X58340928Y-88463523D01*
X58102833Y-88463523D01*
X57912357Y-88415904D01*
X57817119Y-88368285D01*
X57769500Y-88320666D01*
X57721880Y-88225428D01*
%TO.C,D9*%
X62500380Y-94972095D02*
X61500380Y-94972095D01*
X61500380Y-94734000D01*
X61548000Y-94591142D01*
X61643238Y-94495904D01*
X61738476Y-94448285D01*
X61928952Y-94400666D01*
X62071809Y-94400666D01*
X62262285Y-94448285D01*
X62357523Y-94495904D01*
X62452761Y-94591142D01*
X62500380Y-94734000D01*
X62500380Y-94972095D01*
X62500380Y-93924476D02*
X62500380Y-93734000D01*
X62452761Y-93638761D01*
X62405142Y-93591142D01*
X62262285Y-93495904D01*
X62071809Y-93448285D01*
X61690857Y-93448285D01*
X61595619Y-93495904D01*
X61548000Y-93543523D01*
X61500380Y-93638761D01*
X61500380Y-93829238D01*
X61548000Y-93924476D01*
X61595619Y-93972095D01*
X61690857Y-94019714D01*
X61928952Y-94019714D01*
X62024190Y-93972095D01*
X62071809Y-93924476D01*
X62119428Y-93829238D01*
X62119428Y-93638761D01*
X62071809Y-93543523D01*
X62024190Y-93495904D01*
X61928952Y-93448285D01*
%TO.C,D8*%
X33297904Y-42268380D02*
X33297904Y-41268380D01*
X33536000Y-41268380D01*
X33678857Y-41316000D01*
X33774095Y-41411238D01*
X33821714Y-41506476D01*
X33869333Y-41696952D01*
X33869333Y-41839809D01*
X33821714Y-42030285D01*
X33774095Y-42125523D01*
X33678857Y-42220761D01*
X33536000Y-42268380D01*
X33297904Y-42268380D01*
X34440761Y-41696952D02*
X34345523Y-41649333D01*
X34297904Y-41601714D01*
X34250285Y-41506476D01*
X34250285Y-41458857D01*
X34297904Y-41363619D01*
X34345523Y-41316000D01*
X34440761Y-41268380D01*
X34631238Y-41268380D01*
X34726476Y-41316000D01*
X34774095Y-41363619D01*
X34821714Y-41458857D01*
X34821714Y-41506476D01*
X34774095Y-41601714D01*
X34726476Y-41649333D01*
X34631238Y-41696952D01*
X34440761Y-41696952D01*
X34345523Y-41744571D01*
X34297904Y-41792190D01*
X34250285Y-41887428D01*
X34250285Y-42077904D01*
X34297904Y-42173142D01*
X34345523Y-42220761D01*
X34440761Y-42268380D01*
X34631238Y-42268380D01*
X34726476Y-42220761D01*
X34774095Y-42173142D01*
X34821714Y-42077904D01*
X34821714Y-41887428D01*
X34774095Y-41792190D01*
X34726476Y-41744571D01*
X34631238Y-41696952D01*
%TO.C,D7*%
X33094904Y-49634380D02*
X33094904Y-48634380D01*
X33333000Y-48634380D01*
X33475857Y-48682000D01*
X33571095Y-48777238D01*
X33618714Y-48872476D01*
X33666333Y-49062952D01*
X33666333Y-49205809D01*
X33618714Y-49396285D01*
X33571095Y-49491523D01*
X33475857Y-49586761D01*
X33333000Y-49634380D01*
X33094904Y-49634380D01*
X33999666Y-48634380D02*
X34666333Y-48634380D01*
X34237761Y-49634380D01*
%TO.C,D6*%
X33094904Y-57000380D02*
X33094904Y-56000380D01*
X33333000Y-56000380D01*
X33475857Y-56048000D01*
X33571095Y-56143238D01*
X33618714Y-56238476D01*
X33666333Y-56428952D01*
X33666333Y-56571809D01*
X33618714Y-56762285D01*
X33571095Y-56857523D01*
X33475857Y-56952761D01*
X33333000Y-57000380D01*
X33094904Y-57000380D01*
X34523476Y-56000380D02*
X34333000Y-56000380D01*
X34237761Y-56048000D01*
X34190142Y-56095619D01*
X34094904Y-56238476D01*
X34047285Y-56428952D01*
X34047285Y-56809904D01*
X34094904Y-56905142D01*
X34142523Y-56952761D01*
X34237761Y-57000380D01*
X34428238Y-57000380D01*
X34523476Y-56952761D01*
X34571095Y-56905142D01*
X34618714Y-56809904D01*
X34618714Y-56571809D01*
X34571095Y-56476571D01*
X34523476Y-56428952D01*
X34428238Y-56381333D01*
X34237761Y-56381333D01*
X34142523Y-56428952D01*
X34094904Y-56476571D01*
X34047285Y-56571809D01*
%TO.C,D5*%
X33094904Y-64366380D02*
X33094904Y-63366380D01*
X33333000Y-63366380D01*
X33475857Y-63414000D01*
X33571095Y-63509238D01*
X33618714Y-63604476D01*
X33666333Y-63794952D01*
X33666333Y-63937809D01*
X33618714Y-64128285D01*
X33571095Y-64223523D01*
X33475857Y-64318761D01*
X33333000Y-64366380D01*
X33094904Y-64366380D01*
X34571095Y-63366380D02*
X34094904Y-63366380D01*
X34047285Y-63842571D01*
X34094904Y-63794952D01*
X34190142Y-63747333D01*
X34428238Y-63747333D01*
X34523476Y-63794952D01*
X34571095Y-63842571D01*
X34618714Y-63937809D01*
X34618714Y-64175904D01*
X34571095Y-64271142D01*
X34523476Y-64318761D01*
X34428238Y-64366380D01*
X34190142Y-64366380D01*
X34094904Y-64318761D01*
X34047285Y-64271142D01*
%TO.C,D4*%
X33043904Y-71986380D02*
X33043904Y-70986380D01*
X33282000Y-70986380D01*
X33424857Y-71034000D01*
X33520095Y-71129238D01*
X33567714Y-71224476D01*
X33615333Y-71414952D01*
X33615333Y-71557809D01*
X33567714Y-71748285D01*
X33520095Y-71843523D01*
X33424857Y-71938761D01*
X33282000Y-71986380D01*
X33043904Y-71986380D01*
X34472476Y-71319714D02*
X34472476Y-71986380D01*
X34234380Y-70938761D02*
X33996285Y-71653047D01*
X34615333Y-71653047D01*
%TO.C,D3*%
X33043904Y-79352380D02*
X33043904Y-78352380D01*
X33282000Y-78352380D01*
X33424857Y-78400000D01*
X33520095Y-78495238D01*
X33567714Y-78590476D01*
X33615333Y-78780952D01*
X33615333Y-78923809D01*
X33567714Y-79114285D01*
X33520095Y-79209523D01*
X33424857Y-79304761D01*
X33282000Y-79352380D01*
X33043904Y-79352380D01*
X33948666Y-78352380D02*
X34567714Y-78352380D01*
X34234380Y-78733333D01*
X34377238Y-78733333D01*
X34472476Y-78780952D01*
X34520095Y-78828571D01*
X34567714Y-78923809D01*
X34567714Y-79161904D01*
X34520095Y-79257142D01*
X34472476Y-79304761D01*
X34377238Y-79352380D01*
X34091523Y-79352380D01*
X33996285Y-79304761D01*
X33948666Y-79257142D01*
%TO.C,D2*%
X33069404Y-86464380D02*
X33069404Y-85464380D01*
X33307500Y-85464380D01*
X33450357Y-85512000D01*
X33545595Y-85607238D01*
X33593214Y-85702476D01*
X33640833Y-85892952D01*
X33640833Y-86035809D01*
X33593214Y-86226285D01*
X33545595Y-86321523D01*
X33450357Y-86416761D01*
X33307500Y-86464380D01*
X33069404Y-86464380D01*
X34021785Y-85559619D02*
X34069404Y-85512000D01*
X34164642Y-85464380D01*
X34402738Y-85464380D01*
X34497976Y-85512000D01*
X34545595Y-85559619D01*
X34593214Y-85654857D01*
X34593214Y-85750095D01*
X34545595Y-85892952D01*
X33974166Y-86464380D01*
X34593214Y-86464380D01*
%TO.C,D1*%
X33069404Y-94084380D02*
X33069404Y-93084380D01*
X33307500Y-93084380D01*
X33450357Y-93132000D01*
X33545595Y-93227238D01*
X33593214Y-93322476D01*
X33640833Y-93512952D01*
X33640833Y-93655809D01*
X33593214Y-93846285D01*
X33545595Y-93941523D01*
X33450357Y-94036761D01*
X33307500Y-94084380D01*
X33069404Y-94084380D01*
X34593214Y-94084380D02*
X34021785Y-94084380D01*
X34307500Y-94084380D02*
X34307500Y-93084380D01*
X34212261Y-93227238D01*
X34117023Y-93322476D01*
X34021785Y-93370095D01*
%TO.C,C8*%
X39965333Y-46171142D02*
X39917714Y-46218761D01*
X39774857Y-46266380D01*
X39679619Y-46266380D01*
X39536761Y-46218761D01*
X39441523Y-46123523D01*
X39393904Y-46028285D01*
X39346285Y-45837809D01*
X39346285Y-45694952D01*
X39393904Y-45504476D01*
X39441523Y-45409238D01*
X39536761Y-45314000D01*
X39679619Y-45266380D01*
X39774857Y-45266380D01*
X39917714Y-45314000D01*
X39965333Y-45361619D01*
X40536761Y-45694952D02*
X40441523Y-45647333D01*
X40393904Y-45599714D01*
X40346285Y-45504476D01*
X40346285Y-45456857D01*
X40393904Y-45361619D01*
X40441523Y-45314000D01*
X40536761Y-45266380D01*
X40727238Y-45266380D01*
X40822476Y-45314000D01*
X40870095Y-45361619D01*
X40917714Y-45456857D01*
X40917714Y-45504476D01*
X40870095Y-45599714D01*
X40822476Y-45647333D01*
X40727238Y-45694952D01*
X40536761Y-45694952D01*
X40441523Y-45742571D01*
X40393904Y-45790190D01*
X40346285Y-45885428D01*
X40346285Y-46075904D01*
X40393904Y-46171142D01*
X40441523Y-46218761D01*
X40536761Y-46266380D01*
X40727238Y-46266380D01*
X40822476Y-46218761D01*
X40870095Y-46171142D01*
X40917714Y-46075904D01*
X40917714Y-45885428D01*
X40870095Y-45790190D01*
X40822476Y-45742571D01*
X40727238Y-45694952D01*
%TO.C,C7*%
X45917142Y-49709666D02*
X45964761Y-49757285D01*
X46012380Y-49900142D01*
X46012380Y-49995380D01*
X45964761Y-50138238D01*
X45869523Y-50233476D01*
X45774285Y-50281095D01*
X45583809Y-50328714D01*
X45440952Y-50328714D01*
X45250476Y-50281095D01*
X45155238Y-50233476D01*
X45060000Y-50138238D01*
X45012380Y-49995380D01*
X45012380Y-49900142D01*
X45060000Y-49757285D01*
X45107619Y-49709666D01*
X45012380Y-49376333D02*
X45012380Y-48709666D01*
X46012380Y-49138238D01*
%TO.C,C6*%
X45917142Y-52998666D02*
X45964761Y-53046285D01*
X46012380Y-53189142D01*
X46012380Y-53284380D01*
X45964761Y-53427238D01*
X45869523Y-53522476D01*
X45774285Y-53570095D01*
X45583809Y-53617714D01*
X45440952Y-53617714D01*
X45250476Y-53570095D01*
X45155238Y-53522476D01*
X45060000Y-53427238D01*
X45012380Y-53284380D01*
X45012380Y-53189142D01*
X45060000Y-53046285D01*
X45107619Y-52998666D01*
X45012380Y-52141523D02*
X45012380Y-52332000D01*
X45060000Y-52427238D01*
X45107619Y-52474857D01*
X45250476Y-52570095D01*
X45440952Y-52617714D01*
X45821904Y-52617714D01*
X45917142Y-52570095D01*
X45964761Y-52522476D01*
X46012380Y-52427238D01*
X46012380Y-52236761D01*
X45964761Y-52141523D01*
X45917142Y-52093904D01*
X45821904Y-52046285D01*
X45583809Y-52046285D01*
X45488571Y-52093904D01*
X45440952Y-52141523D01*
X45393333Y-52236761D01*
X45393333Y-52427238D01*
X45440952Y-52522476D01*
X45488571Y-52570095D01*
X45583809Y-52617714D01*
%TO.C,C5*%
X45917142Y-56300666D02*
X45964761Y-56348285D01*
X46012380Y-56491142D01*
X46012380Y-56586380D01*
X45964761Y-56729238D01*
X45869523Y-56824476D01*
X45774285Y-56872095D01*
X45583809Y-56919714D01*
X45440952Y-56919714D01*
X45250476Y-56872095D01*
X45155238Y-56824476D01*
X45060000Y-56729238D01*
X45012380Y-56586380D01*
X45012380Y-56491142D01*
X45060000Y-56348285D01*
X45107619Y-56300666D01*
X45012380Y-55395904D02*
X45012380Y-55872095D01*
X45488571Y-55919714D01*
X45440952Y-55872095D01*
X45393333Y-55776857D01*
X45393333Y-55538761D01*
X45440952Y-55443523D01*
X45488571Y-55395904D01*
X45583809Y-55348285D01*
X45821904Y-55348285D01*
X45917142Y-55395904D01*
X45964761Y-55443523D01*
X46012380Y-55538761D01*
X46012380Y-55776857D01*
X45964761Y-55872095D01*
X45917142Y-55919714D01*
%TO.C,C4*%
X39711333Y-84591142D02*
X39663714Y-84638761D01*
X39520857Y-84686380D01*
X39425619Y-84686380D01*
X39282761Y-84638761D01*
X39187523Y-84543523D01*
X39139904Y-84448285D01*
X39092285Y-84257809D01*
X39092285Y-84114952D01*
X39139904Y-83924476D01*
X39187523Y-83829238D01*
X39282761Y-83734000D01*
X39425619Y-83686380D01*
X39520857Y-83686380D01*
X39663714Y-83734000D01*
X39711333Y-83781619D01*
X40568476Y-84019714D02*
X40568476Y-84686380D01*
X40330380Y-83638761D02*
X40092285Y-84353047D01*
X40711333Y-84353047D01*
%TO.C,C3*%
X47344333Y-85287142D02*
X47296714Y-85334761D01*
X47153857Y-85382380D01*
X47058619Y-85382380D01*
X46915761Y-85334761D01*
X46820523Y-85239523D01*
X46772904Y-85144285D01*
X46725285Y-84953809D01*
X46725285Y-84810952D01*
X46772904Y-84620476D01*
X46820523Y-84525238D01*
X46915761Y-84430000D01*
X47058619Y-84382380D01*
X47153857Y-84382380D01*
X47296714Y-84430000D01*
X47344333Y-84477619D01*
X47677666Y-84382380D02*
X48296714Y-84382380D01*
X47963380Y-84763333D01*
X48106238Y-84763333D01*
X48201476Y-84810952D01*
X48249095Y-84858571D01*
X48296714Y-84953809D01*
X48296714Y-85191904D01*
X48249095Y-85287142D01*
X48201476Y-85334761D01*
X48106238Y-85382380D01*
X47820523Y-85382380D01*
X47725285Y-85334761D01*
X47677666Y-85287142D01*
%TO.C,C2*%
X47344333Y-88843142D02*
X47296714Y-88890761D01*
X47153857Y-88938380D01*
X47058619Y-88938380D01*
X46915761Y-88890761D01*
X46820523Y-88795523D01*
X46772904Y-88700285D01*
X46725285Y-88509809D01*
X46725285Y-88366952D01*
X46772904Y-88176476D01*
X46820523Y-88081238D01*
X46915761Y-87986000D01*
X47058619Y-87938380D01*
X47153857Y-87938380D01*
X47296714Y-87986000D01*
X47344333Y-88033619D01*
X47725285Y-88033619D02*
X47772904Y-87986000D01*
X47868142Y-87938380D01*
X48106238Y-87938380D01*
X48201476Y-87986000D01*
X48249095Y-88033619D01*
X48296714Y-88128857D01*
X48296714Y-88224095D01*
X48249095Y-88366952D01*
X47677666Y-88938380D01*
X48296714Y-88938380D01*
%TO.C,C1*%
X47344333Y-92399142D02*
X47296714Y-92446761D01*
X47153857Y-92494380D01*
X47058619Y-92494380D01*
X46915761Y-92446761D01*
X46820523Y-92351523D01*
X46772904Y-92256285D01*
X46725285Y-92065809D01*
X46725285Y-91922952D01*
X46772904Y-91732476D01*
X46820523Y-91637238D01*
X46915761Y-91542000D01*
X47058619Y-91494380D01*
X47153857Y-91494380D01*
X47296714Y-91542000D01*
X47344333Y-91589619D01*
X48296714Y-92494380D02*
X47725285Y-92494380D01*
X48011000Y-92494380D02*
X48011000Y-91494380D01*
X47915761Y-91637238D01*
X47820523Y-91732476D01*
X47725285Y-91780095D01*
D11*
%TO.C,U5*%
X51374000Y-116535000D02*
X51374000Y-121335000D01*
X40574000Y-116535000D02*
X40574000Y-121335000D01*
X50974000Y-116535000D02*
X50974000Y-115135000D01*
X51374000Y-116535000D02*
X50974000Y-116535000D01*
%TO.C,U4*%
X42164000Y-57267000D02*
X40214000Y-57267000D01*
X42164000Y-48397000D02*
X40214000Y-48397000D01*
X42164000Y-57267000D02*
X45614000Y-57267000D01*
X42164000Y-48397000D02*
X44114000Y-48397000D01*
%TO.C,U3*%
X41910000Y-92827000D02*
X39960000Y-92827000D01*
X41910000Y-83957000D02*
X39960000Y-83957000D01*
X41910000Y-92827000D02*
X45360000Y-92827000D01*
X41910000Y-83957000D02*
X43860000Y-83957000D01*
%TO.C,U2*%
X40574000Y-71488000D02*
X40574000Y-66688000D01*
X51374000Y-71488000D02*
X51374000Y-66688000D01*
X40974000Y-71488000D02*
X40974000Y-72888000D01*
X40574000Y-71488000D02*
X40974000Y-71488000D01*
%TO.C,U1*%
X51816000Y-130536000D02*
X53766000Y-130536000D01*
X51816000Y-135656000D02*
X53766000Y-135656000D01*
X51816000Y-130536000D02*
X48366000Y-130536000D01*
X51816000Y-135656000D02*
X49866000Y-135656000D01*
%TO.C,SW8*%
X30154000Y-44886000D02*
X23694000Y-44886000D01*
X30154000Y-38426000D02*
X30154000Y-38456000D01*
X30154000Y-42956000D02*
X30154000Y-40356000D01*
X23694000Y-44886000D02*
X23694000Y-44856000D01*
X30154000Y-38426000D02*
X23694000Y-38426000D01*
X30154000Y-44856000D02*
X30154000Y-44886000D01*
X23694000Y-38426000D02*
X23694000Y-38456000D01*
X23694000Y-42956000D02*
X23694000Y-40356000D01*
%TO.C,SW7*%
X30154000Y-52288285D02*
X23694000Y-52288285D01*
X30154000Y-45828285D02*
X30154000Y-45858285D01*
X30154000Y-50358285D02*
X30154000Y-47758285D01*
X23694000Y-52288285D02*
X23694000Y-52258285D01*
X30154000Y-45828285D02*
X23694000Y-45828285D01*
X30154000Y-52258285D02*
X30154000Y-52288285D01*
X23694000Y-45828285D02*
X23694000Y-45858285D01*
X23694000Y-50358285D02*
X23694000Y-47758285D01*
%TO.C,SW6*%
X30154000Y-59690570D02*
X23694000Y-59690570D01*
X30154000Y-53230570D02*
X30154000Y-53260570D01*
X30154000Y-57760570D02*
X30154000Y-55160570D01*
X23694000Y-59690570D02*
X23694000Y-59660570D01*
X30154000Y-53230570D02*
X23694000Y-53230570D01*
X30154000Y-59660570D02*
X30154000Y-59690570D01*
X23694000Y-53230570D02*
X23694000Y-53260570D01*
X23694000Y-57760570D02*
X23694000Y-55160570D01*
%TO.C,SW5*%
X30154000Y-67092855D02*
X23694000Y-67092855D01*
X30154000Y-60632855D02*
X30154000Y-60662855D01*
X30154000Y-65162855D02*
X30154000Y-62562855D01*
X23694000Y-67092855D02*
X23694000Y-67062855D01*
X30154000Y-60632855D02*
X23694000Y-60632855D01*
X30154000Y-67062855D02*
X30154000Y-67092855D01*
X23694000Y-60632855D02*
X23694000Y-60662855D01*
X23694000Y-65162855D02*
X23694000Y-62562855D01*
%TO.C,SW4*%
X30154000Y-74495140D02*
X23694000Y-74495140D01*
X30154000Y-68035140D02*
X30154000Y-68065140D01*
X30154000Y-72565140D02*
X30154000Y-69965140D01*
X23694000Y-74495140D02*
X23694000Y-74465140D01*
X30154000Y-68035140D02*
X23694000Y-68035140D01*
X30154000Y-74465140D02*
X30154000Y-74495140D01*
X23694000Y-68035140D02*
X23694000Y-68065140D01*
X23694000Y-72565140D02*
X23694000Y-69965140D01*
%TO.C,SW3*%
X30154000Y-81897425D02*
X23694000Y-81897425D01*
X30154000Y-75437425D02*
X30154000Y-75467425D01*
X30154000Y-79967425D02*
X30154000Y-77367425D01*
X23694000Y-81897425D02*
X23694000Y-81867425D01*
X30154000Y-75437425D02*
X23694000Y-75437425D01*
X30154000Y-81867425D02*
X30154000Y-81897425D01*
X23694000Y-75437425D02*
X23694000Y-75467425D01*
X23694000Y-79967425D02*
X23694000Y-77367425D01*
%TO.C,SW2*%
X30154000Y-89299710D02*
X23694000Y-89299710D01*
X30154000Y-82839710D02*
X30154000Y-82869710D01*
X30154000Y-87369710D02*
X30154000Y-84769710D01*
X23694000Y-89299710D02*
X23694000Y-89269710D01*
X30154000Y-82839710D02*
X23694000Y-82839710D01*
X30154000Y-89269710D02*
X30154000Y-89299710D01*
X23694000Y-82839710D02*
X23694000Y-82869710D01*
X23694000Y-87369710D02*
X23694000Y-84769710D01*
%TO.C,SW1*%
X30154000Y-96702000D02*
X23694000Y-96702000D01*
X30154000Y-90242000D02*
X30154000Y-90272000D01*
X30154000Y-94772000D02*
X30154000Y-92172000D01*
X23694000Y-96702000D02*
X23694000Y-96672000D01*
X30154000Y-90242000D02*
X23694000Y-90242000D01*
X30154000Y-96672000D02*
X30154000Y-96702000D01*
X23694000Y-90242000D02*
X23694000Y-90272000D01*
X23694000Y-94772000D02*
X23694000Y-92172000D01*
%TO.C,R32*%
X37606500Y-109520258D02*
X37606500Y-109045742D01*
X36561500Y-109520258D02*
X36561500Y-109045742D01*
%TO.C,R31*%
X40146500Y-109457258D02*
X40146500Y-108982742D01*
X39101500Y-109457258D02*
X39101500Y-108982742D01*
%TO.C,R30*%
X42686500Y-109457258D02*
X42686500Y-108982742D01*
X41641500Y-109457258D02*
X41641500Y-108982742D01*
%TO.C,R29*%
X45226500Y-109457258D02*
X45226500Y-108982742D01*
X44181500Y-109457258D02*
X44181500Y-108982742D01*
%TO.C,R28*%
X46721500Y-109457258D02*
X46721500Y-108982742D01*
X47766500Y-109457258D02*
X47766500Y-108982742D01*
%TO.C,R27*%
X49261500Y-109457258D02*
X49261500Y-108982742D01*
X50306500Y-109457258D02*
X50306500Y-108982742D01*
%TO.C,R26*%
X51801500Y-109520258D02*
X51801500Y-109045742D01*
X52846500Y-109520258D02*
X52846500Y-109045742D01*
%TO.C,R25*%
X54341500Y-109457258D02*
X54341500Y-108982742D01*
X55386500Y-109457258D02*
X55386500Y-108982742D01*
%TO.C,R24*%
X39894742Y-45988500D02*
X40369258Y-45988500D01*
X39894742Y-44943500D02*
X40369258Y-44943500D01*
%TO.C,R23*%
X49101500Y-49767258D02*
X49101500Y-49292742D01*
X48056500Y-49767258D02*
X48056500Y-49292742D01*
%TO.C,R22*%
X49544500Y-53069258D02*
X49544500Y-52594742D01*
X48499500Y-53069258D02*
X48499500Y-52594742D01*
%TO.C,R21*%
X49544500Y-56371258D02*
X49544500Y-55896742D01*
X48499500Y-56371258D02*
X48499500Y-55896742D01*
%TO.C,R20*%
X39640742Y-81548500D02*
X40115258Y-81548500D01*
X39640742Y-80503500D02*
X40115258Y-80503500D01*
%TO.C,R19*%
X47260742Y-85104500D02*
X47735258Y-85104500D01*
X47260742Y-84059500D02*
X47735258Y-84059500D01*
%TO.C,R18*%
X47260742Y-88660500D02*
X47735258Y-88660500D01*
X47260742Y-87615500D02*
X47735258Y-87615500D01*
%TO.C,R17*%
X47323742Y-92216500D02*
X47798258Y-92216500D01*
X47323742Y-91171500D02*
X47798258Y-91171500D01*
%TO.C,R16*%
X33861742Y-42686500D02*
X34336258Y-42686500D01*
X33861742Y-41641500D02*
X34336258Y-41641500D01*
%TO.C,R15*%
X33544742Y-50052500D02*
X34019258Y-50052500D01*
X33544742Y-49007500D02*
X34019258Y-49007500D01*
%TO.C,R14*%
X33607742Y-57418500D02*
X34082258Y-57418500D01*
X33607742Y-56373500D02*
X34082258Y-56373500D01*
%TO.C,R13*%
X33544742Y-64784500D02*
X34019258Y-64784500D01*
X33544742Y-63739500D02*
X34019258Y-63739500D01*
%TO.C,R12*%
X33607742Y-72404500D02*
X34082258Y-72404500D01*
X33607742Y-71359500D02*
X34082258Y-71359500D01*
%TO.C,R11*%
X33607742Y-79770500D02*
X34082258Y-79770500D01*
X33607742Y-78725500D02*
X34082258Y-78725500D01*
%TO.C,R10*%
X33544742Y-86882500D02*
X34019258Y-86882500D01*
X33544742Y-85837500D02*
X34019258Y-85837500D01*
%TO.C,R9*%
X33544742Y-94502500D02*
X34019258Y-94502500D01*
X33544742Y-93457500D02*
X34019258Y-93457500D01*
%TO.C,R8*%
X33798742Y-44464500D02*
X34273258Y-44464500D01*
X33798742Y-43419500D02*
X34273258Y-43419500D01*
%TO.C,R7*%
X33544742Y-51830500D02*
X34019258Y-51830500D01*
X33544742Y-50785500D02*
X34019258Y-50785500D01*
%TO.C,R6*%
X33607742Y-59196500D02*
X34082258Y-59196500D01*
X33607742Y-58151500D02*
X34082258Y-58151500D01*
%TO.C,R5*%
X33544742Y-66562500D02*
X34019258Y-66562500D01*
X33544742Y-65517500D02*
X34019258Y-65517500D01*
%TO.C,R4*%
X33544742Y-74182500D02*
X34019258Y-74182500D01*
X33544742Y-73137500D02*
X34019258Y-73137500D01*
%TO.C,R3*%
X33607742Y-81548500D02*
X34082258Y-81548500D01*
X33607742Y-80503500D02*
X34082258Y-80503500D01*
%TO.C,R2*%
X33544742Y-88932500D02*
X34019258Y-88932500D01*
X33544742Y-87887500D02*
X34019258Y-87887500D01*
%TO.C,R1*%
X33544742Y-96280500D02*
X34019258Y-96280500D01*
X33544742Y-95235500D02*
X34019258Y-95235500D01*
%TO.C,Q9*%
X37416500Y-132806000D02*
X38066500Y-132806000D01*
X37416500Y-135926000D02*
X38066500Y-135926000D01*
X37416500Y-132806000D02*
X35741500Y-132806000D01*
X37416500Y-135926000D02*
X36766500Y-135926000D01*
%TO.C,Q8*%
X58498500Y-60416000D02*
X59148500Y-60416000D01*
X58498500Y-63536000D02*
X60173500Y-63536000D01*
X58498500Y-60416000D02*
X57848500Y-60416000D01*
X58498500Y-63536000D02*
X57848500Y-63536000D01*
%TO.C,Q7*%
X58420000Y-55082000D02*
X59070000Y-55082000D01*
X58420000Y-58202000D02*
X60095000Y-58202000D01*
X58420000Y-55082000D02*
X57770000Y-55082000D01*
X58420000Y-58202000D02*
X57770000Y-58202000D01*
%TO.C,Q6*%
X57071500Y-79792000D02*
X56421500Y-79792000D01*
X57071500Y-76672000D02*
X56421500Y-76672000D01*
X57071500Y-79792000D02*
X58746500Y-79792000D01*
X57071500Y-76672000D02*
X57721500Y-76672000D01*
%TO.C,Q5*%
X57071500Y-85126000D02*
X56421500Y-85126000D01*
X57071500Y-82006000D02*
X56421500Y-82006000D01*
X57071500Y-85126000D02*
X58746500Y-85126000D01*
X57071500Y-82006000D02*
X57721500Y-82006000D01*
%TO.C,Q4*%
X58420000Y-47534000D02*
X57770000Y-47534000D01*
X58420000Y-44414000D02*
X57770000Y-44414000D01*
X58420000Y-47534000D02*
X60095000Y-47534000D01*
X58420000Y-44414000D02*
X59070000Y-44414000D01*
%TO.C,Q3*%
X58420000Y-52868000D02*
X57770000Y-52868000D01*
X58420000Y-49748000D02*
X57770000Y-49748000D01*
X58420000Y-52868000D02*
X60095000Y-52868000D01*
X58420000Y-49748000D02*
X59070000Y-49748000D01*
%TO.C,Q2*%
X57071500Y-90460000D02*
X56421500Y-90460000D01*
X57071500Y-87340000D02*
X56421500Y-87340000D01*
X57071500Y-90460000D02*
X58746500Y-90460000D01*
X57071500Y-87340000D02*
X57721500Y-87340000D01*
%TO.C,Q1*%
X57150000Y-95794000D02*
X56500000Y-95794000D01*
X57150000Y-92674000D02*
X56500000Y-92674000D01*
X57150000Y-95794000D02*
X58825000Y-95794000D01*
X57150000Y-92674000D02*
X57800000Y-92674000D01*
%TO.C,J7*%
X62798000Y-114554000D02*
X62798000Y-101794000D01*
X62798000Y-115824000D02*
X62798000Y-117154000D01*
X62798000Y-117154000D02*
X61468000Y-117154000D01*
X62798000Y-114554000D02*
X60138000Y-114554000D01*
X62798000Y-101794000D02*
X60138000Y-101794000D01*
X60138000Y-114554000D02*
X60138000Y-101794000D01*
%TO.C,J6*%
X43120000Y-133798000D02*
X44450000Y-133798000D01*
X43120000Y-136398000D02*
X45780000Y-136398000D01*
X43120000Y-136458000D02*
X45780000Y-136458000D01*
X45780000Y-136398000D02*
X45780000Y-136458000D01*
X43120000Y-136398000D02*
X43120000Y-136458000D01*
X43120000Y-135128000D02*
X43120000Y-133798000D01*
%TO.C,J5*%
X53594000Y-111509000D02*
X53594000Y-114169000D01*
X35754000Y-111509000D02*
X35754000Y-114169000D01*
X53594000Y-111509000D02*
X35754000Y-111509000D01*
X54864000Y-111509000D02*
X56194000Y-111509000D01*
X53594000Y-114169000D02*
X35754000Y-114169000D01*
X56194000Y-111509000D02*
X56194000Y-112839000D01*
%TO.C,J4*%
X41910000Y-123701000D02*
X52130000Y-123701000D01*
X39310000Y-126361000D02*
X39310000Y-125031000D01*
X41910000Y-126361000D02*
X52130000Y-126361000D01*
X52130000Y-126361000D02*
X52130000Y-123701000D01*
X41910000Y-126361000D02*
X41910000Y-123701000D01*
X40640000Y-126361000D02*
X39310000Y-126361000D01*
%TO.C,J3*%
X67410000Y-39064000D02*
X56660000Y-39064000D01*
X45220000Y-41764000D02*
X46220000Y-41764000D01*
X68710000Y-40374000D02*
X40510000Y-40374000D01*
X56660000Y-39064000D02*
X56660000Y-40374000D01*
X56660000Y-39064000D02*
X56660000Y-39064000D01*
X41810000Y-39064000D02*
X41810000Y-32564000D01*
X46220000Y-41764000D02*
X45720000Y-40764000D01*
X40510000Y-31254000D02*
X68710000Y-31254000D01*
X68710000Y-31254000D02*
X68710000Y-40374000D01*
X41810000Y-32564000D02*
X67410000Y-32564000D01*
X52560000Y-40374000D02*
X52560000Y-39064000D01*
X67410000Y-32564000D02*
X67410000Y-39064000D01*
X40510000Y-40374000D02*
X40510000Y-31254000D01*
X52560000Y-39064000D02*
X41810000Y-39064000D01*
X45720000Y-40764000D02*
X45220000Y-41764000D01*
%TO.C,J2*%
X60016000Y-123962000D02*
X60016000Y-134462000D01*
X63796000Y-123962000D02*
X60016000Y-123962000D01*
X69016000Y-134462000D02*
X65316000Y-134462000D01*
X69016000Y-123962000D02*
X65236000Y-123962000D01*
X69016000Y-123962000D02*
X69016000Y-134462000D01*
X63286000Y-120812000D02*
X63286000Y-121612000D01*
X63286000Y-120812000D02*
X64146000Y-120812000D01*
X63716000Y-134462000D02*
X60016000Y-134462000D01*
X66316000Y-128462000D02*
G75*
G03*
X66316000Y-128462000I-1800000J0D01*
G01*
%TO.C,J1*%
X22678000Y-123454000D02*
X22678000Y-133954000D01*
X26458000Y-123454000D02*
X22678000Y-123454000D01*
X31678000Y-133954000D02*
X27978000Y-133954000D01*
X31678000Y-123454000D02*
X27898000Y-123454000D01*
X31678000Y-123454000D02*
X31678000Y-133954000D01*
X25948000Y-120304000D02*
X25948000Y-121104000D01*
X25948000Y-120304000D02*
X26808000Y-120304000D01*
X26378000Y-133954000D02*
X22678000Y-133954000D01*
X28978000Y-127954000D02*
G75*
G03*
X28978000Y-127954000I-1800000J0D01*
G01*
%TO.C,D24*%
X36349000Y-104470500D02*
X36349000Y-106755500D01*
X37819000Y-104470500D02*
X36349000Y-104470500D01*
X37819000Y-106755500D02*
X37819000Y-104470500D01*
%TO.C,D23*%
X38889000Y-104496000D02*
X38889000Y-106781000D01*
X40359000Y-104496000D02*
X38889000Y-104496000D01*
X40359000Y-106781000D02*
X40359000Y-104496000D01*
%TO.C,D22*%
X41429000Y-104496000D02*
X41429000Y-106781000D01*
X42899000Y-104496000D02*
X41429000Y-104496000D01*
X42899000Y-106781000D02*
X42899000Y-104496000D01*
%TO.C,D21*%
X43969000Y-104470500D02*
X43969000Y-106755500D01*
X45439000Y-104470500D02*
X43969000Y-104470500D01*
X45439000Y-106755500D02*
X45439000Y-104470500D01*
%TO.C,D20*%
X46509000Y-104496000D02*
X46509000Y-106781000D01*
X47979000Y-104496000D02*
X46509000Y-104496000D01*
X47979000Y-106781000D02*
X47979000Y-104496000D01*
%TO.C,D19*%
X49049000Y-104470500D02*
X49049000Y-106755500D01*
X50519000Y-104470500D02*
X49049000Y-104470500D01*
X50519000Y-106755500D02*
X50519000Y-104470500D01*
%TO.C,D18*%
X51589000Y-104470500D02*
X51589000Y-106755500D01*
X53059000Y-104470500D02*
X51589000Y-104470500D01*
X53059000Y-106755500D02*
X53059000Y-104470500D01*
%TO.C,D17*%
X54129000Y-104496000D02*
X54129000Y-106781000D01*
X55599000Y-104496000D02*
X54129000Y-104496000D01*
X55599000Y-106781000D02*
X55599000Y-104496000D01*
%TO.C,D16*%
X62396500Y-60222000D02*
X62396500Y-62772000D01*
X60696500Y-60222000D02*
X60696500Y-62772000D01*
X62396500Y-60222000D02*
X60696500Y-60222000D01*
%TO.C,D15*%
X60618000Y-58142000D02*
X60618000Y-55592000D01*
X62318000Y-58142000D02*
X62318000Y-55592000D01*
X60618000Y-58142000D02*
X62318000Y-58142000D01*
%TO.C,D14*%
X59269500Y-79986000D02*
X60969500Y-79986000D01*
X60969500Y-79986000D02*
X60969500Y-77436000D01*
X59269500Y-79986000D02*
X59269500Y-77436000D01*
%TO.C,D13*%
X60969500Y-82320000D02*
X59269500Y-82320000D01*
X59269500Y-82320000D02*
X59269500Y-84870000D01*
X60969500Y-82320000D02*
X60969500Y-84870000D01*
%TO.C,D12*%
X60618000Y-47220000D02*
X62318000Y-47220000D01*
X62318000Y-47220000D02*
X62318000Y-44670000D01*
X60618000Y-47220000D02*
X60618000Y-44670000D01*
%TO.C,D11*%
X62318000Y-49554000D02*
X62318000Y-52104000D01*
X60618000Y-49554000D02*
X60618000Y-52104000D01*
X62318000Y-49554000D02*
X60618000Y-49554000D01*
%TO.C,D10*%
X59269500Y-90654000D02*
X60969500Y-90654000D01*
X60969500Y-90654000D02*
X60969500Y-88104000D01*
X59269500Y-90654000D02*
X59269500Y-88104000D01*
%TO.C,D9*%
X61048000Y-92734000D02*
X59348000Y-92734000D01*
X59348000Y-92734000D02*
X59348000Y-95284000D01*
X61048000Y-92734000D02*
X61048000Y-95284000D01*
%TO.C,D8*%
X35521000Y-39651000D02*
X33236000Y-39651000D01*
X35521000Y-41121000D02*
X35521000Y-39651000D01*
X33236000Y-41121000D02*
X35521000Y-41121000D01*
%TO.C,D7*%
X35318000Y-47017000D02*
X33033000Y-47017000D01*
X35318000Y-48487000D02*
X35318000Y-47017000D01*
X33033000Y-48487000D02*
X35318000Y-48487000D01*
%TO.C,D6*%
X35318000Y-54383000D02*
X33033000Y-54383000D01*
X35318000Y-55853000D02*
X35318000Y-54383000D01*
X33033000Y-55853000D02*
X35318000Y-55853000D01*
%TO.C,D5*%
X35318000Y-61749000D02*
X33033000Y-61749000D01*
X35318000Y-63219000D02*
X35318000Y-61749000D01*
X33033000Y-63219000D02*
X35318000Y-63219000D01*
%TO.C,D4*%
X35267000Y-69369000D02*
X32982000Y-69369000D01*
X35267000Y-70839000D02*
X35267000Y-69369000D01*
X32982000Y-70839000D02*
X35267000Y-70839000D01*
%TO.C,D3*%
X35267000Y-76735000D02*
X32982000Y-76735000D01*
X35267000Y-78205000D02*
X35267000Y-76735000D01*
X32982000Y-78205000D02*
X35267000Y-78205000D01*
%TO.C,D2*%
X35292500Y-83847000D02*
X33007500Y-83847000D01*
X35292500Y-85317000D02*
X35292500Y-83847000D01*
X33007500Y-85317000D02*
X35292500Y-85317000D01*
%TO.C,D1*%
X35292500Y-91467000D02*
X33007500Y-91467000D01*
X35292500Y-92937000D02*
X35292500Y-91467000D01*
X33007500Y-92937000D02*
X35292500Y-92937000D01*
%TO.C,C8*%
X39991420Y-47754000D02*
X40272580Y-47754000D01*
X39991420Y-46734000D02*
X40272580Y-46734000D01*
%TO.C,C7*%
X47500000Y-49683580D02*
X47500000Y-49402420D01*
X46480000Y-49683580D02*
X46480000Y-49402420D01*
%TO.C,C6*%
X47500000Y-52972580D02*
X47500000Y-52691420D01*
X46480000Y-52972580D02*
X46480000Y-52691420D01*
%TO.C,C5*%
X47500000Y-56274580D02*
X47500000Y-55993420D01*
X46480000Y-56274580D02*
X46480000Y-55993420D01*
%TO.C,C4*%
X40018580Y-82294000D02*
X39737420Y-82294000D01*
X40018580Y-83314000D02*
X39737420Y-83314000D01*
%TO.C,C3*%
X47370420Y-86870000D02*
X47651580Y-86870000D01*
X47370420Y-85850000D02*
X47651580Y-85850000D01*
%TO.C,C2*%
X47370420Y-90426000D02*
X47651580Y-90426000D01*
X47370420Y-89406000D02*
X47651580Y-89406000D01*
%TO.C,C1*%
X47370420Y-93982000D02*
X47651580Y-93982000D01*
X47370420Y-92962000D02*
X47651580Y-92962000D01*
%TD*%
%LPC*%
D12*
%TO.C,U5*%
X50424000Y-115785000D03*
X49144000Y-115785000D03*
X47884000Y-115785000D03*
X46614000Y-115785000D03*
X45334000Y-115785000D03*
X44064000Y-115785000D03*
X42804000Y-115785000D03*
X41524000Y-115785000D03*
X41524000Y-122085000D03*
X42804000Y-122085000D03*
X44064000Y-122085000D03*
X45334000Y-122085000D03*
X46614000Y-122085000D03*
X47884000Y-122085000D03*
X49144000Y-122085000D03*
X50424000Y-122085000D03*
%TD*%
D13*
%TO.C,U4*%
X44639000Y-56642000D03*
X44639000Y-55372000D03*
X44639000Y-54102000D03*
X44639000Y-52832000D03*
X44639000Y-51562000D03*
X44639000Y-50292000D03*
X44639000Y-49022000D03*
X39689000Y-49022000D03*
X39689000Y-50292000D03*
X39689000Y-51562000D03*
X39689000Y-52832000D03*
X39689000Y-54102000D03*
X39689000Y-55372000D03*
X39689000Y-56642000D03*
%TD*%
%TO.C,U3*%
X44385000Y-92202000D03*
X44385000Y-90932000D03*
X44385000Y-89662000D03*
X44385000Y-88392000D03*
X44385000Y-87122000D03*
X44385000Y-85852000D03*
X44385000Y-84582000D03*
X39435000Y-84582000D03*
X39435000Y-85852000D03*
X39435000Y-87122000D03*
X39435000Y-88392000D03*
X39435000Y-89662000D03*
X39435000Y-90932000D03*
X39435000Y-92202000D03*
%TD*%
D12*
%TO.C,U2*%
X41524000Y-72238000D03*
X42804000Y-72238000D03*
X44064000Y-72238000D03*
X45334000Y-72238000D03*
X46614000Y-72238000D03*
X47884000Y-72238000D03*
X49144000Y-72238000D03*
X50424000Y-72238000D03*
X50424000Y-65938000D03*
X49144000Y-65938000D03*
X47884000Y-65938000D03*
X46614000Y-65938000D03*
X45334000Y-65938000D03*
X44064000Y-65938000D03*
X42804000Y-65938000D03*
X41524000Y-65938000D03*
%TD*%
D14*
%TO.C,U1*%
X49341000Y-131191000D03*
X49341000Y-132461000D03*
X49341000Y-133731000D03*
X49341000Y-135001000D03*
X54291000Y-135001000D03*
X54291000Y-133731000D03*
X54291000Y-132461000D03*
X54291000Y-131191000D03*
%TD*%
D15*
%TO.C,SW8*%
X22949000Y-43906000D03*
X30899000Y-43906000D03*
X30899000Y-39406000D03*
X22949000Y-39406000D03*
%TD*%
%TO.C,SW7*%
X22949000Y-51308285D03*
X30899000Y-51308285D03*
X30899000Y-46808285D03*
X22949000Y-46808285D03*
%TD*%
%TO.C,SW6*%
X22949000Y-58710570D03*
X30899000Y-58710570D03*
X30899000Y-54210570D03*
X22949000Y-54210570D03*
%TD*%
%TO.C,SW5*%
X22949000Y-66112855D03*
X30899000Y-66112855D03*
X30899000Y-61612855D03*
X22949000Y-61612855D03*
%TD*%
%TO.C,SW4*%
X22949000Y-73515140D03*
X30899000Y-73515140D03*
X30899000Y-69015140D03*
X22949000Y-69015140D03*
%TD*%
%TO.C,SW3*%
X22949000Y-80917425D03*
X30899000Y-80917425D03*
X30899000Y-76417425D03*
X22949000Y-76417425D03*
%TD*%
%TO.C,SW2*%
X22949000Y-88319710D03*
X30899000Y-88319710D03*
X30899000Y-83819710D03*
X22949000Y-83819710D03*
%TD*%
%TO.C,SW1*%
X22949000Y-95722000D03*
X30899000Y-95722000D03*
X30899000Y-91222000D03*
X22949000Y-91222000D03*
%TD*%
D16*
%TO.C,R32*%
X37084000Y-110108000D03*
X37084000Y-108458000D03*
%TD*%
%TO.C,R31*%
X39624000Y-110045000D03*
X39624000Y-108395000D03*
%TD*%
%TO.C,R30*%
X42164000Y-110045000D03*
X42164000Y-108395000D03*
%TD*%
%TO.C,R29*%
X44704000Y-110045000D03*
X44704000Y-108395000D03*
%TD*%
%TO.C,R28*%
X47244000Y-108395000D03*
X47244000Y-110045000D03*
%TD*%
%TO.C,R27*%
X49784000Y-108395000D03*
X49784000Y-110045000D03*
%TD*%
%TO.C,R26*%
X52324000Y-108458000D03*
X52324000Y-110108000D03*
%TD*%
%TO.C,R25*%
X54864000Y-108395000D03*
X54864000Y-110045000D03*
%TD*%
D17*
%TO.C,R24*%
X39307000Y-45466000D03*
X40957000Y-45466000D03*
%TD*%
D16*
%TO.C,R23*%
X48579000Y-50355000D03*
X48579000Y-48705000D03*
%TD*%
%TO.C,R22*%
X49022000Y-53657000D03*
X49022000Y-52007000D03*
%TD*%
%TO.C,R21*%
X49022000Y-56959000D03*
X49022000Y-55309000D03*
%TD*%
D17*
%TO.C,R20*%
X39053000Y-81026000D03*
X40703000Y-81026000D03*
%TD*%
%TO.C,R19*%
X46673000Y-84582000D03*
X48323000Y-84582000D03*
%TD*%
%TO.C,R18*%
X46673000Y-88138000D03*
X48323000Y-88138000D03*
%TD*%
%TO.C,R17*%
X46736000Y-91694000D03*
X48386000Y-91694000D03*
%TD*%
%TO.C,R16*%
X33274000Y-42164000D03*
X34924000Y-42164000D03*
%TD*%
%TO.C,R15*%
X32957000Y-49530000D03*
X34607000Y-49530000D03*
%TD*%
%TO.C,R14*%
X33020000Y-56896000D03*
X34670000Y-56896000D03*
%TD*%
%TO.C,R13*%
X32957000Y-64262000D03*
X34607000Y-64262000D03*
%TD*%
%TO.C,R12*%
X33020000Y-71882000D03*
X34670000Y-71882000D03*
%TD*%
%TO.C,R11*%
X33020000Y-79248000D03*
X34670000Y-79248000D03*
%TD*%
%TO.C,R10*%
X32957000Y-86360000D03*
X34607000Y-86360000D03*
%TD*%
%TO.C,R9*%
X32957000Y-93980000D03*
X34607000Y-93980000D03*
%TD*%
%TO.C,R8*%
X33211000Y-43942000D03*
X34861000Y-43942000D03*
%TD*%
%TO.C,R7*%
X32957000Y-51308000D03*
X34607000Y-51308000D03*
%TD*%
%TO.C,R6*%
X33020000Y-58674000D03*
X34670000Y-58674000D03*
%TD*%
%TO.C,R5*%
X32957000Y-66040000D03*
X34607000Y-66040000D03*
%TD*%
%TO.C,R4*%
X32957000Y-73660000D03*
X34607000Y-73660000D03*
%TD*%
%TO.C,R3*%
X33020000Y-81026000D03*
X34670000Y-81026000D03*
%TD*%
%TO.C,R2*%
X32957000Y-88410000D03*
X34607000Y-88410000D03*
%TD*%
%TO.C,R1*%
X32957000Y-95758000D03*
X34607000Y-95758000D03*
%TD*%
D18*
%TO.C,Q9*%
X36479000Y-133416000D03*
X36479000Y-135316000D03*
X38354000Y-134366000D03*
%TD*%
D19*
%TO.C,Q8*%
X57561000Y-61976000D03*
X59436000Y-61026000D03*
X59436000Y-62926000D03*
%TD*%
%TO.C,Q7*%
X57482500Y-56642000D03*
X59357500Y-55692000D03*
X59357500Y-57592000D03*
%TD*%
%TO.C,Q6*%
X58009000Y-79182000D03*
X58009000Y-77282000D03*
X56134000Y-78232000D03*
%TD*%
%TO.C,Q5*%
X58009000Y-84516000D03*
X58009000Y-82616000D03*
X56134000Y-83566000D03*
%TD*%
%TO.C,Q4*%
X59357500Y-46924000D03*
X59357500Y-45024000D03*
X57482500Y-45974000D03*
%TD*%
%TO.C,Q3*%
X59357500Y-52258000D03*
X59357500Y-50358000D03*
X57482500Y-51308000D03*
%TD*%
%TO.C,Q2*%
X58009000Y-89850000D03*
X58009000Y-87950000D03*
X56134000Y-88900000D03*
%TD*%
%TO.C,Q1*%
X58087500Y-95184000D03*
X58087500Y-93284000D03*
X56212500Y-94234000D03*
%TD*%
D20*
%TO.C,J7*%
X61468000Y-115824000D03*
D21*
X61468000Y-113284000D03*
X61468000Y-110744000D03*
X61468000Y-108204000D03*
X61468000Y-105664000D03*
X61468000Y-103124000D03*
%TD*%
D20*
%TO.C,J6*%
X44450000Y-135128000D03*
%TD*%
%TO.C,J5*%
X54864000Y-112839000D03*
D21*
X52324000Y-112839000D03*
X49784000Y-112839000D03*
X47244000Y-112839000D03*
X44704000Y-112839000D03*
X42164000Y-112839000D03*
X39624000Y-112839000D03*
X37084000Y-112839000D03*
%TD*%
D20*
%TO.C,J4*%
X40640000Y-125031000D03*
D21*
X43180000Y-125031000D03*
X45720000Y-125031000D03*
X48260000Y-125031000D03*
X50800000Y-125031000D03*
%TD*%
D22*
%TO.C,J3*%
X45720000Y-37084000D03*
D23*
X45720000Y-34544000D03*
X48260000Y-37084000D03*
X48260000Y-34544000D03*
X50800000Y-37084000D03*
X50800000Y-34544000D03*
X53340000Y-37084000D03*
X53340000Y-34544000D03*
X55880000Y-37084000D03*
X55880000Y-34544000D03*
X58420000Y-37084000D03*
X58420000Y-34544000D03*
X60960000Y-37084000D03*
X60960000Y-34544000D03*
X63500000Y-37084000D03*
X63500000Y-34544000D03*
%TD*%
D24*
%TO.C,J2*%
X64516000Y-121982000D03*
D25*
X64516000Y-133382000D03*
X64516000Y-125082000D03*
%TD*%
D24*
%TO.C,J1*%
X27178000Y-121474000D03*
D25*
X27178000Y-132874000D03*
X27178000Y-124574000D03*
%TD*%
D26*
%TO.C,D24*%
X37084000Y-105168000D03*
X37084000Y-106743000D03*
%TD*%
%TO.C,D23*%
X39624000Y-105193500D03*
X39624000Y-106768500D03*
%TD*%
%TO.C,D22*%
X42164000Y-105193500D03*
X42164000Y-106768500D03*
%TD*%
%TO.C,D21*%
X44704000Y-105168000D03*
X44704000Y-106743000D03*
%TD*%
%TO.C,D20*%
X47244000Y-105193500D03*
X47244000Y-106768500D03*
%TD*%
%TO.C,D19*%
X49784000Y-105168000D03*
X49784000Y-106743000D03*
%TD*%
%TO.C,D18*%
X52324000Y-105168000D03*
X52324000Y-106743000D03*
%TD*%
%TO.C,D17*%
X54864000Y-105193500D03*
X54864000Y-106768500D03*
%TD*%
D27*
%TO.C,D16*%
X61546500Y-62772000D03*
X61546500Y-60672000D03*
%TD*%
%TO.C,D15*%
X61468000Y-55592000D03*
X61468000Y-57692000D03*
%TD*%
%TO.C,D14*%
X60119500Y-79536000D03*
X60119500Y-77436000D03*
%TD*%
%TO.C,D13*%
X60119500Y-82770000D03*
X60119500Y-84870000D03*
%TD*%
%TO.C,D12*%
X61468000Y-46770000D03*
X61468000Y-44670000D03*
%TD*%
%TO.C,D11*%
X61468000Y-52104000D03*
X61468000Y-50004000D03*
%TD*%
%TO.C,D10*%
X60119500Y-90204000D03*
X60119500Y-88104000D03*
%TD*%
%TO.C,D9*%
X60198000Y-93184000D03*
X60198000Y-95284000D03*
%TD*%
D28*
%TO.C,D8*%
X34823500Y-40386000D03*
X33248500Y-40386000D03*
%TD*%
%TO.C,D7*%
X34620500Y-47752000D03*
X33045500Y-47752000D03*
%TD*%
%TO.C,D6*%
X34620500Y-55118000D03*
X33045500Y-55118000D03*
%TD*%
%TO.C,D5*%
X34620500Y-62484000D03*
X33045500Y-62484000D03*
%TD*%
%TO.C,D4*%
X34569500Y-70104000D03*
X32994500Y-70104000D03*
%TD*%
%TO.C,D3*%
X34569500Y-77470000D03*
X32994500Y-77470000D03*
%TD*%
%TO.C,D2*%
X34595000Y-84582000D03*
X33020000Y-84582000D03*
%TD*%
%TO.C,D1*%
X34595000Y-92202000D03*
X33020000Y-92202000D03*
%TD*%
D29*
%TO.C,C8*%
X39357000Y-47244000D03*
X40907000Y-47244000D03*
%TD*%
D30*
%TO.C,C7*%
X46990000Y-50318000D03*
X46990000Y-48768000D03*
%TD*%
%TO.C,C6*%
X46990000Y-53607000D03*
X46990000Y-52057000D03*
%TD*%
%TO.C,C5*%
X46990000Y-56909000D03*
X46990000Y-55359000D03*
%TD*%
D31*
%TO.C,C4*%
X40653000Y-82804000D03*
X39103000Y-82804000D03*
%TD*%
D29*
%TO.C,C3*%
X46736000Y-86360000D03*
X48286000Y-86360000D03*
%TD*%
%TO.C,C2*%
X46736000Y-89916000D03*
X48286000Y-89916000D03*
%TD*%
%TO.C,C1*%
X46736000Y-93472000D03*
X48286000Y-93472000D03*
%TD*%
M02*
