%TF.GenerationSoftware,KiCad,Pcbnew,(7.0.0)*%
%TF.CreationDate,2023-03-10T05:54:07-08:00*%
%TF.ProjectId,wismix,7769736d-6978-42e6-9b69-6361645f7063,rev?*%
%TF.SameCoordinates,Original*%
%TF.FileFunction,Soldermask,Bot*%
%TF.FilePolarity,Negative*%
%FSLAX46Y46*%
G04 Gerber Fmt 4.6, Leading zero omitted, Abs format (unit mm)*
G04 Created by KiCad (PCBNEW (7.0.0)) date 2023-03-10 05:54:07*
%MOMM*%
%LPD*%
G01*
G04 APERTURE LIST*
%ADD10O,2.720000X3.240000*%
%ADD11R,1.800000X1.800000*%
%ADD12C,1.800000*%
%ADD13C,2.130000*%
%ADD14R,1.830000X1.930000*%
%ADD15R,1.930000X1.830000*%
G04 APERTURE END LIST*
D10*
%TO.C,RV5*%
X35072499Y-103249999D03*
X25472499Y-103249999D03*
D11*
X32772499Y-110749999D03*
D12*
X30272500Y-110750000D03*
X27772500Y-110750000D03*
%TD*%
%TO.C,RV4*%
X27772500Y-94175000D03*
X30272500Y-94175000D03*
D11*
X32772499Y-94174999D03*
D10*
X25472499Y-86674999D03*
X35072499Y-86674999D03*
%TD*%
%TO.C,RV3*%
X35072499Y-70099999D03*
X25472499Y-70099999D03*
D11*
X32772499Y-77599999D03*
D12*
X30272500Y-77600000D03*
X27772500Y-77600000D03*
%TD*%
%TO.C,RV2*%
X27772500Y-61025000D03*
X30272500Y-61025000D03*
D11*
X32772499Y-61024999D03*
D10*
X25472499Y-53524999D03*
X35072499Y-53524999D03*
%TD*%
D12*
%TO.C,RV1*%
X27772500Y-44475000D03*
X30272500Y-44475000D03*
D11*
X32772499Y-44474999D03*
D10*
X25472499Y-36974999D03*
X35072499Y-36974999D03*
%TD*%
D13*
%TO.C,J7*%
X31570000Y-121500000D03*
X39870000Y-121500000D03*
D14*
X28469999Y-121499999D03*
%TD*%
D15*
%TO.C,J6*%
X43272499Y-109924999D03*
D13*
X43272500Y-98525000D03*
X43272500Y-106825000D03*
%TD*%
%TO.C,J5*%
X43272500Y-90250000D03*
X43272500Y-81950000D03*
D15*
X43272499Y-93349999D03*
%TD*%
D13*
%TO.C,J4*%
X43272500Y-73675000D03*
X43272500Y-65375000D03*
D15*
X43272499Y-76774999D03*
%TD*%
D13*
%TO.C,J3*%
X43258674Y-57100000D03*
X43258674Y-48800000D03*
D15*
X43258673Y-60199999D03*
%TD*%
%TO.C,J2*%
X43272499Y-43599999D03*
D13*
X43272500Y-32200000D03*
X43272500Y-40500000D03*
%TD*%
M02*
