%TF.GenerationSoftware,KiCad,Pcbnew,(7.0.0)*%
%TF.CreationDate,2023-03-10T05:54:07-08:00*%
%TF.ProjectId,wismix,7769736d-6978-42e6-9b69-6361645f7063,rev?*%
%TF.SameCoordinates,Original*%
%TF.FileFunction,Soldermask,Top*%
%TF.FilePolarity,Negative*%
%FSLAX46Y46*%
G04 Gerber Fmt 4.6, Leading zero omitted, Abs format (unit mm)*
G04 Created by KiCad (PCBNEW (7.0.0)) date 2023-03-10 05:54:07*
%MOMM*%
%LPD*%
G01*
G04 APERTURE LIST*
G04 Aperture macros list*
%AMRoundRect*
0 Rectangle with rounded corners*
0 $1 Rounding radius*
0 $2 $3 $4 $5 $6 $7 $8 $9 X,Y pos of 4 corners*
0 Add a 4 corners polygon primitive as box body*
4,1,4,$2,$3,$4,$5,$6,$7,$8,$9,$2,$3,0*
0 Add four circle primitives for the rounded corners*
1,1,$1+$1,$2,$3*
1,1,$1+$1,$4,$5*
1,1,$1+$1,$6,$7*
1,1,$1+$1,$8,$9*
0 Add four rect primitives between the rounded corners*
20,1,$1+$1,$2,$3,$4,$5,0*
20,1,$1+$1,$4,$5,$6,$7,0*
20,1,$1+$1,$6,$7,$8,$9,0*
20,1,$1+$1,$8,$9,$2,$3,0*%
G04 Aperture macros list end*
%ADD10RoundRect,0.150000X-0.825000X-0.150000X0.825000X-0.150000X0.825000X0.150000X-0.825000X0.150000X0*%
%ADD11O,2.720000X3.240000*%
%ADD12R,1.800000X1.800000*%
%ADD13C,1.800000*%
%ADD14RoundRect,0.200000X-0.275000X0.200000X-0.275000X-0.200000X0.275000X-0.200000X0.275000X0.200000X0*%
%ADD15RoundRect,0.200000X-0.200000X-0.275000X0.200000X-0.275000X0.200000X0.275000X-0.200000X0.275000X0*%
%ADD16RoundRect,0.200000X0.200000X0.275000X-0.200000X0.275000X-0.200000X-0.275000X0.200000X-0.275000X0*%
%ADD17C,2.130000*%
%ADD18R,1.830000X1.930000*%
%ADD19R,1.930000X1.830000*%
%ADD20RoundRect,0.255000X0.255000X-2.245000X0.255000X2.245000X-0.255000X2.245000X-0.255000X-2.245000X0*%
G04 APERTURE END LIST*
D10*
%TO.C,U3*%
X35775000Y-113595000D03*
X35775000Y-114865000D03*
X35775000Y-116135000D03*
X35775000Y-117405000D03*
X40725000Y-117405000D03*
X40725000Y-116135000D03*
X40725000Y-114865000D03*
X40725000Y-113595000D03*
%TD*%
%TO.C,U2*%
X27775000Y-80095000D03*
X27775000Y-81365000D03*
X27775000Y-82635000D03*
X27775000Y-83905000D03*
X32725000Y-83905000D03*
X32725000Y-82635000D03*
X32725000Y-81365000D03*
X32725000Y-80095000D03*
%TD*%
%TO.C,U1*%
X27775000Y-47095000D03*
X27775000Y-48365000D03*
X27775000Y-49635000D03*
X27775000Y-50905000D03*
X32725000Y-50905000D03*
X32725000Y-49635000D03*
X32725000Y-48365000D03*
X32725000Y-47095000D03*
%TD*%
D11*
%TO.C,RV5*%
X35072499Y-103249999D03*
X25472499Y-103249999D03*
D12*
X32772499Y-110749999D03*
D13*
X30272500Y-110750000D03*
X27772500Y-110750000D03*
%TD*%
%TO.C,RV4*%
X27772500Y-94175000D03*
X30272500Y-94175000D03*
D12*
X32772499Y-94174999D03*
D11*
X25472499Y-86674999D03*
X35072499Y-86674999D03*
%TD*%
%TO.C,RV3*%
X35072499Y-70099999D03*
X25472499Y-70099999D03*
D12*
X32772499Y-77599999D03*
D13*
X30272500Y-77600000D03*
X27772500Y-77600000D03*
%TD*%
%TO.C,RV2*%
X27772500Y-61025000D03*
X30272500Y-61025000D03*
D12*
X32772499Y-61024999D03*
D11*
X25472499Y-53524999D03*
X35072499Y-53524999D03*
%TD*%
D13*
%TO.C,RV1*%
X27772500Y-44475000D03*
X30272500Y-44475000D03*
D12*
X32772499Y-44474999D03*
D11*
X25472499Y-36974999D03*
X35072499Y-36974999D03*
%TD*%
D14*
%TO.C,R5*%
X33000000Y-114925000D03*
X33000000Y-116575000D03*
%TD*%
D15*
%TO.C,R4*%
X35000000Y-81500000D03*
X36650000Y-81500000D03*
%TD*%
D16*
%TO.C,R3*%
X25500000Y-81500000D03*
X23850000Y-81500000D03*
%TD*%
D15*
%TO.C,R2*%
X35175000Y-49500000D03*
X36825000Y-49500000D03*
%TD*%
D16*
%TO.C,R1*%
X25250000Y-48250000D03*
X23600000Y-48250000D03*
%TD*%
D17*
%TO.C,J7*%
X31570000Y-121500000D03*
X39870000Y-121500000D03*
D18*
X28469999Y-121499999D03*
%TD*%
D19*
%TO.C,J6*%
X43272499Y-109924999D03*
D17*
X43272500Y-98525000D03*
X43272500Y-106825000D03*
%TD*%
%TO.C,J5*%
X43272500Y-90250000D03*
X43272500Y-81950000D03*
D19*
X43272499Y-93349999D03*
%TD*%
D17*
%TO.C,J4*%
X43272500Y-73675000D03*
X43272500Y-65375000D03*
D19*
X43272499Y-76774999D03*
%TD*%
D17*
%TO.C,J3*%
X43258674Y-57100000D03*
X43258674Y-48800000D03*
D19*
X43258673Y-60199999D03*
%TD*%
%TO.C,J2*%
X43272499Y-43599999D03*
D17*
X43272500Y-32200000D03*
X43272500Y-40500000D03*
%TD*%
D20*
%TO.C,J1*%
X26050000Y-134000000D03*
X28590000Y-134000000D03*
X31130000Y-134000000D03*
X33670000Y-134000000D03*
X36210000Y-134000000D03*
X38750000Y-134000000D03*
X41290000Y-134000000D03*
X43830000Y-134000000D03*
X26050000Y-126400000D03*
X28590000Y-126400000D03*
X31130000Y-126400000D03*
X33670000Y-126400000D03*
X36210000Y-126400000D03*
X38750000Y-126400000D03*
X41290000Y-126400000D03*
X43830000Y-126400000D03*
%TD*%
M02*
