M48
; DRILL file {KiCad (7.0.0)} date Fri Mar 10 05:54:07 2023
; FORMAT={-:-/ absolute / inch / decimal}
; #@! TF.CreationDate,2023-03-10T05:54:07-08:00
; #@! TF.GenerationSoftware,Kicad,Pcbnew,(7.0.0)
; #@! TF.FileFunction,Plated,1,2,PTH
FMAT,2
INCH
; #@! TA.AperFunction,Plated,PTH,ViaDrill
T1C0.0157
; #@! TA.AperFunction,Plated,PTH,ComponentDrill
T2C0.0394
; #@! TA.AperFunction,Plated,PTH,ComponentDrill
T3C0.0433
; #@! TA.AperFunction,Plated,PTH,ComponentDrill
T4C0.0480
; #@! TA.AperFunction,Plated,PTH,ComponentDrill
T5C0.0559
; #@! TA.AperFunction,Plated,PTH,ComponentDrill
T6C0.0563
%
G90
G05
T1
X1.0433Y-3.5925
X1.0433Y-4.5669
X1.0531Y-2.313
X1.0925Y-3.3661
X1.1024Y-2.0669
X1.122Y-5.128
X1.2205Y-5.128
X1.2598Y-2.0768
X1.2795Y-3.3563
X1.3287Y-5.128
X1.4665Y-1.8504
X1.4665Y-3.1299
X1.4665Y-4.8425
X1.4961Y-4.4685
T2
X1.0934Y-1.751
X1.0934Y-2.4026
X1.0934Y-3.0551
X1.0934Y-3.7077
X1.0934Y-4.3602
X1.1918Y-1.751
X1.1918Y-2.4026
X1.1918Y-3.0551
X1.1918Y-3.7077
X1.1918Y-4.3602
X1.2903Y-1.751
X1.2903Y-2.4026
X1.2903Y-3.0551
X1.2903Y-3.7077
X1.2903Y-4.3602
T4
X1.1209Y-4.7835
X1.7031Y-2.3701
X1.7036Y-1.7165
X1.7036Y-3.0226
X1.7036Y-3.6752
X1.7036Y-4.3278
T5
X1.2429Y-4.7835
X1.7031Y-2.248
X1.7036Y-1.5945
X1.7036Y-2.9006
X1.7036Y-3.5531
X1.7036Y-4.2057
T6
X1.5697Y-4.7835
X1.7031Y-1.9213
X1.7036Y-1.2677
X1.7036Y-2.5738
X1.7036Y-3.2264
X1.7036Y-3.8789
T3
G00X1.0029Y-1.4419
M15
G01X1.0029Y-1.4695
M16
G05
G00X1.0029Y-2.0935
M15
G01X1.0029Y-2.1211
M16
G05
G00X1.0029Y-2.7461
M15
G01X1.0029Y-2.7736
M16
G05
G00X1.0029Y-3.3986
M15
G01X1.0029Y-3.4262
M16
G05
G00X1.0029Y-4.0512
M15
G01X1.0029Y-4.0787
M16
G05
G00X1.3808Y-1.4419
M15
G01X1.3808Y-1.4695
M16
G05
G00X1.3808Y-2.0935
M15
G01X1.3808Y-2.1211
M16
G05
G00X1.3808Y-2.7461
M15
G01X1.3808Y-2.7736
M16
G05
G00X1.3808Y-3.3986
M15
G01X1.3808Y-3.4262
M16
G05
G00X1.3808Y-4.0512
M15
G01X1.3808Y-4.0787
M16
G05
T0
M30
