%TF.GenerationSoftware,KiCad,Pcbnew,(7.0.0)*%
%TF.CreationDate,2023-03-10T05:54:07-08:00*%
%TF.ProjectId,wismix,7769736d-6978-42e6-9b69-6361645f7063,rev?*%
%TF.SameCoordinates,Original*%
%TF.FileFunction,Copper,L2,Bot*%
%TF.FilePolarity,Positive*%
%FSLAX46Y46*%
G04 Gerber Fmt 4.6, Leading zero omitted, Abs format (unit mm)*
G04 Created by KiCad (PCBNEW (7.0.0)) date 2023-03-10 05:54:07*
%MOMM*%
%LPD*%
G01*
G04 APERTURE LIST*
%TA.AperFunction,ComponentPad*%
%ADD10O,2.720000X3.240000*%
%TD*%
%TA.AperFunction,ComponentPad*%
%ADD11R,1.800000X1.800000*%
%TD*%
%TA.AperFunction,ComponentPad*%
%ADD12C,1.800000*%
%TD*%
%TA.AperFunction,ComponentPad*%
%ADD13C,2.130000*%
%TD*%
%TA.AperFunction,ComponentPad*%
%ADD14R,1.830000X1.930000*%
%TD*%
%TA.AperFunction,ComponentPad*%
%ADD15R,1.930000X1.830000*%
%TD*%
%TA.AperFunction,ViaPad*%
%ADD16C,0.800000*%
%TD*%
%TA.AperFunction,Conductor*%
%ADD17C,0.250000*%
%TD*%
G04 APERTURE END LIST*
D10*
%TO.P,RV5,*%
%TO.N,*%
X35072499Y-103249999D03*
X25472499Y-103249999D03*
D11*
%TO.P,RV5,1,1*%
%TO.N,GND*%
X32772499Y-110749999D03*
D12*
%TO.P,RV5,2,2*%
%TO.N,Net-(U3A-+)*%
X30272500Y-110750000D03*
%TO.P,RV5,3,3*%
%TO.N,Net-(J6-PadT)*%
X27772500Y-110750000D03*
%TD*%
%TO.P,RV4,3,3*%
%TO.N,Net-(J5-PadT)*%
X27772500Y-94175000D03*
%TO.P,RV4,2,2*%
%TO.N,Net-(U2B-+)*%
X30272500Y-94175000D03*
D11*
%TO.P,RV4,1,1*%
%TO.N,GND*%
X32772499Y-94174999D03*
D10*
%TO.P,RV4,*%
%TO.N,*%
X25472499Y-86674999D03*
X35072499Y-86674999D03*
%TD*%
%TO.P,RV3,*%
%TO.N,*%
X35072499Y-70099999D03*
X25472499Y-70099999D03*
D11*
%TO.P,RV3,1,1*%
%TO.N,GND*%
X32772499Y-77599999D03*
D12*
%TO.P,RV3,2,2*%
%TO.N,Net-(U2A-+)*%
X30272500Y-77600000D03*
%TO.P,RV3,3,3*%
%TO.N,Net-(J4-PadT)*%
X27772500Y-77600000D03*
%TD*%
%TO.P,RV2,3,3*%
%TO.N,Net-(J3-PadT)*%
X27772500Y-61025000D03*
%TO.P,RV2,2,2*%
%TO.N,Net-(U1B-+)*%
X30272500Y-61025000D03*
D11*
%TO.P,RV2,1,1*%
%TO.N,GND*%
X32772499Y-61024999D03*
D10*
%TO.P,RV2,*%
%TO.N,*%
X25472499Y-53524999D03*
X35072499Y-53524999D03*
%TD*%
D12*
%TO.P,RV1,3,3*%
%TO.N,Net-(J2-PadT)*%
X27772500Y-44475000D03*
%TO.P,RV1,2,2*%
%TO.N,Net-(U1A-+)*%
X30272500Y-44475000D03*
D11*
%TO.P,RV1,1,1*%
%TO.N,GND*%
X32772499Y-44474999D03*
D10*
%TO.P,RV1,*%
%TO.N,*%
X25472499Y-36974999D03*
X35072499Y-36974999D03*
%TD*%
D13*
%TO.P,J7,TN*%
%TO.N,unconnected-(J7-PadTN)*%
X31570000Y-121500000D03*
%TO.P,J7,T*%
%TO.N,Net-(U3B--)*%
X39870000Y-121500000D03*
D14*
%TO.P,J7,S*%
%TO.N,GND*%
X28469999Y-121499999D03*
%TD*%
D15*
%TO.P,J6,S*%
%TO.N,GND*%
X43272499Y-109924999D03*
D13*
%TO.P,J6,T*%
%TO.N,Net-(J6-PadT)*%
X43272500Y-98525000D03*
%TO.P,J6,TN*%
%TO.N,unconnected-(J6-PadTN)*%
X43272500Y-106825000D03*
%TD*%
%TO.P,J5,TN*%
%TO.N,unconnected-(J5-PadTN)*%
X43272500Y-90250000D03*
%TO.P,J5,T*%
%TO.N,Net-(J5-PadT)*%
X43272500Y-81950000D03*
D15*
%TO.P,J5,S*%
%TO.N,GND*%
X43272499Y-93349999D03*
%TD*%
D13*
%TO.P,J4,TN*%
%TO.N,unconnected-(J4-PadTN)*%
X43272500Y-73675000D03*
%TO.P,J4,T*%
%TO.N,Net-(J4-PadT)*%
X43272500Y-65375000D03*
D15*
%TO.P,J4,S*%
%TO.N,GND*%
X43272499Y-76774999D03*
%TD*%
D13*
%TO.P,J3,TN*%
%TO.N,unconnected-(J3-PadTN)*%
X43258674Y-57100000D03*
%TO.P,J3,T*%
%TO.N,Net-(J3-PadT)*%
X43258674Y-48800000D03*
D15*
%TO.P,J3,S*%
%TO.N,GND*%
X43258673Y-60199999D03*
%TD*%
%TO.P,J2,S*%
%TO.N,GND*%
X43272499Y-43599999D03*
D13*
%TO.P,J2,T*%
%TO.N,Net-(J2-PadT)*%
X43272500Y-32200000D03*
%TO.P,J2,TN*%
%TO.N,unconnected-(J2-PadTN)*%
X43272500Y-40500000D03*
%TD*%
D16*
%TO.N,+12V*%
X38000000Y-113500000D03*
X37250000Y-123000000D03*
X37250000Y-79500000D03*
X37250000Y-47000000D03*
%TO.N,-12V*%
X28000000Y-52500000D03*
X27750000Y-85500000D03*
X26500000Y-116000000D03*
%TO.N,GND*%
X28500000Y-130250000D03*
X33750000Y-130250000D03*
X31000000Y-130250000D03*
%TO.N,Net-(U2B-+)*%
X32500000Y-85250000D03*
X26500000Y-91250000D03*
%TO.N,Net-(U1B-+)*%
X32000000Y-52750000D03*
X26750000Y-58750000D03*
%TD*%
D17*
%TO.N,+12V*%
X38000000Y-113500000D02*
X37250000Y-113500000D01*
X37250000Y-47000000D02*
X37250000Y-79500000D01*
X37250000Y-79500000D02*
X37250000Y-113500000D01*
X37250000Y-113500000D02*
X37250000Y-123000000D01*
%TO.N,-12V*%
X28000000Y-54559912D02*
X28000000Y-52500000D01*
X26025000Y-56534912D02*
X28000000Y-54559912D01*
X26025000Y-61009912D02*
X26025000Y-56534912D01*
X28997500Y-84252500D02*
X28997500Y-63982412D01*
X28997500Y-63982412D02*
X26025000Y-61009912D01*
X27750000Y-85500000D02*
X28997500Y-84252500D01*
X26500000Y-110250000D02*
X26500000Y-116000000D01*
X27157500Y-109592500D02*
X26500000Y-110250000D01*
X25775000Y-100909550D02*
X27157500Y-102292050D01*
X27750000Y-88974695D02*
X25775000Y-90949695D01*
X25775000Y-90949695D02*
X25775000Y-100909550D01*
X27750000Y-85500000D02*
X27750000Y-88974695D01*
X27157500Y-102292050D02*
X27157500Y-109592500D01*
%TO.N,Net-(U2B-+)*%
X26500000Y-91250000D02*
X32500000Y-85250000D01*
%TO.N,Net-(U1B-+)*%
X32000000Y-53500000D02*
X32000000Y-52750000D01*
X26750000Y-58750000D02*
X32000000Y-53500000D01*
%TD*%
%TA.AperFunction,Conductor*%
%TO.N,GND*%
G36*
X50417500Y-20017113D02*
G01*
X50462887Y-20062500D01*
X50479500Y-20124500D01*
X50479500Y-148375500D01*
X50462887Y-148437500D01*
X50417500Y-148482887D01*
X50355500Y-148499500D01*
X20124500Y-148499500D01*
X20062500Y-148482887D01*
X20017113Y-148437500D01*
X20000500Y-148375500D01*
X20000500Y-145500000D01*
X25074551Y-145500000D01*
X25094317Y-145751148D01*
X25095452Y-145755877D01*
X25095453Y-145755881D01*
X25151989Y-145991374D01*
X25151991Y-145991382D01*
X25153127Y-145996111D01*
X25249534Y-146228859D01*
X25252081Y-146233016D01*
X25252082Y-146233017D01*
X25378617Y-146439504D01*
X25378622Y-146439511D01*
X25381164Y-146443659D01*
X25384324Y-146447358D01*
X25384327Y-146447363D01*
X25534845Y-146623596D01*
X25544776Y-146635224D01*
X25548476Y-146638384D01*
X25730705Y-146794023D01*
X25736341Y-146798836D01*
X25740491Y-146801379D01*
X25740495Y-146801382D01*
X25852300Y-146869896D01*
X25951141Y-146930466D01*
X26183889Y-147026873D01*
X26428852Y-147085683D01*
X26680000Y-147105449D01*
X26931148Y-147085683D01*
X27176111Y-147026873D01*
X27408859Y-146930466D01*
X27623659Y-146798836D01*
X27815224Y-146635224D01*
X27978836Y-146443659D01*
X28110466Y-146228859D01*
X28206873Y-145996111D01*
X28265683Y-145751148D01*
X28285449Y-145500000D01*
X42194551Y-145500000D01*
X42214317Y-145751148D01*
X42215452Y-145755877D01*
X42215453Y-145755881D01*
X42271989Y-145991374D01*
X42271991Y-145991382D01*
X42273127Y-145996111D01*
X42369534Y-146228859D01*
X42372081Y-146233016D01*
X42372082Y-146233017D01*
X42498617Y-146439504D01*
X42498622Y-146439511D01*
X42501164Y-146443659D01*
X42504324Y-146447358D01*
X42504327Y-146447363D01*
X42654845Y-146623596D01*
X42664776Y-146635224D01*
X42668476Y-146638384D01*
X42850705Y-146794023D01*
X42856341Y-146798836D01*
X42860491Y-146801379D01*
X42860495Y-146801382D01*
X42972300Y-146869896D01*
X43071141Y-146930466D01*
X43303889Y-147026873D01*
X43548852Y-147085683D01*
X43800000Y-147105449D01*
X44051148Y-147085683D01*
X44296111Y-147026873D01*
X44528859Y-146930466D01*
X44743659Y-146798836D01*
X44935224Y-146635224D01*
X45098836Y-146443659D01*
X45230466Y-146228859D01*
X45326873Y-145996111D01*
X45385683Y-145751148D01*
X45405449Y-145500000D01*
X45385683Y-145248852D01*
X45326873Y-145003889D01*
X45230466Y-144771141D01*
X45098836Y-144556341D01*
X44935224Y-144364776D01*
X44931523Y-144361615D01*
X44747363Y-144204327D01*
X44747358Y-144204324D01*
X44743659Y-144201164D01*
X44739511Y-144198622D01*
X44739504Y-144198617D01*
X44533017Y-144072082D01*
X44533016Y-144072081D01*
X44528859Y-144069534D01*
X44296111Y-143973127D01*
X44291382Y-143971991D01*
X44291374Y-143971989D01*
X44055881Y-143915453D01*
X44055877Y-143915452D01*
X44051148Y-143914317D01*
X44046295Y-143913935D01*
X43804854Y-143894933D01*
X43800000Y-143894551D01*
X43795146Y-143894933D01*
X43553704Y-143913935D01*
X43553702Y-143913935D01*
X43548852Y-143914317D01*
X43544124Y-143915451D01*
X43544118Y-143915453D01*
X43308625Y-143971989D01*
X43308613Y-143971992D01*
X43303889Y-143973127D01*
X43299392Y-143974989D01*
X43299388Y-143974991D01*
X43075645Y-144067668D01*
X43075640Y-144067670D01*
X43071141Y-144069534D01*
X43066988Y-144072078D01*
X43066982Y-144072082D01*
X42860495Y-144198617D01*
X42860482Y-144198626D01*
X42856341Y-144201164D01*
X42852646Y-144204319D01*
X42852636Y-144204327D01*
X42668476Y-144361615D01*
X42668469Y-144361621D01*
X42664776Y-144364776D01*
X42661621Y-144368469D01*
X42661615Y-144368476D01*
X42504327Y-144552636D01*
X42504319Y-144552646D01*
X42501164Y-144556341D01*
X42498626Y-144560482D01*
X42498617Y-144560495D01*
X42372082Y-144766982D01*
X42372078Y-144766988D01*
X42369534Y-144771141D01*
X42367670Y-144775640D01*
X42367668Y-144775645D01*
X42274991Y-144999388D01*
X42273127Y-145003889D01*
X42271992Y-145008613D01*
X42271989Y-145008625D01*
X42215453Y-145244118D01*
X42215451Y-145244124D01*
X42214317Y-145248852D01*
X42194551Y-145500000D01*
X28285449Y-145500000D01*
X28265683Y-145248852D01*
X28206873Y-145003889D01*
X28110466Y-144771141D01*
X27978836Y-144556341D01*
X27815224Y-144364776D01*
X27811523Y-144361615D01*
X27627363Y-144204327D01*
X27627358Y-144204324D01*
X27623659Y-144201164D01*
X27619511Y-144198622D01*
X27619504Y-144198617D01*
X27413017Y-144072082D01*
X27413016Y-144072081D01*
X27408859Y-144069534D01*
X27176111Y-143973127D01*
X27171382Y-143971991D01*
X27171374Y-143971989D01*
X26935881Y-143915453D01*
X26935877Y-143915452D01*
X26931148Y-143914317D01*
X26926295Y-143913935D01*
X26684854Y-143894933D01*
X26680000Y-143894551D01*
X26675146Y-143894933D01*
X26433704Y-143913935D01*
X26433702Y-143913935D01*
X26428852Y-143914317D01*
X26424124Y-143915451D01*
X26424118Y-143915453D01*
X26188625Y-143971989D01*
X26188613Y-143971992D01*
X26183889Y-143973127D01*
X26179392Y-143974989D01*
X26179388Y-143974991D01*
X25955645Y-144067668D01*
X25955640Y-144067670D01*
X25951141Y-144069534D01*
X25946988Y-144072078D01*
X25946982Y-144072082D01*
X25740495Y-144198617D01*
X25740482Y-144198626D01*
X25736341Y-144201164D01*
X25732646Y-144204319D01*
X25732636Y-144204327D01*
X25548476Y-144361615D01*
X25548469Y-144361621D01*
X25544776Y-144364776D01*
X25541621Y-144368469D01*
X25541615Y-144368476D01*
X25384327Y-144552636D01*
X25384319Y-144552646D01*
X25381164Y-144556341D01*
X25378626Y-144560482D01*
X25378617Y-144560495D01*
X25252082Y-144766982D01*
X25252078Y-144766988D01*
X25249534Y-144771141D01*
X25247670Y-144775640D01*
X25247668Y-144775645D01*
X25154991Y-144999388D01*
X25153127Y-145003889D01*
X25151992Y-145008613D01*
X25151989Y-145008625D01*
X25095453Y-145244118D01*
X25095451Y-145244124D01*
X25094317Y-145248852D01*
X25074551Y-145500000D01*
X20000500Y-145500000D01*
X20000500Y-138000000D01*
X21499459Y-138000000D01*
X21499617Y-138000383D01*
X21499901Y-138000500D01*
X24487944Y-138000500D01*
X24500099Y-138000500D01*
X24500383Y-138000383D01*
X24500541Y-138000000D01*
X26499459Y-138000000D01*
X26499617Y-138000383D01*
X26499901Y-138000500D01*
X29487944Y-138000500D01*
X29500099Y-138000500D01*
X29500383Y-138000383D01*
X29500541Y-138000000D01*
X31499459Y-138000000D01*
X31499617Y-138000383D01*
X31499901Y-138000500D01*
X34487944Y-138000500D01*
X34500099Y-138000500D01*
X34500383Y-138000383D01*
X34500541Y-138000000D01*
X36499459Y-138000000D01*
X36499617Y-138000383D01*
X36499901Y-138000500D01*
X39487944Y-138000500D01*
X39500099Y-138000500D01*
X39500383Y-138000383D01*
X39500541Y-138000000D01*
X41499459Y-138000000D01*
X41499617Y-138000383D01*
X41499901Y-138000500D01*
X44487944Y-138000500D01*
X44500099Y-138000500D01*
X44500383Y-138000383D01*
X44500541Y-138000000D01*
X46499459Y-138000000D01*
X46499617Y-138000383D01*
X46499901Y-138000500D01*
X49487944Y-138000500D01*
X49500099Y-138000500D01*
X49500383Y-138000383D01*
X49500541Y-138000000D01*
X49500383Y-137999617D01*
X49500099Y-137999500D01*
X46499901Y-137999500D01*
X46499617Y-137999617D01*
X46499459Y-138000000D01*
X44500541Y-138000000D01*
X44500383Y-137999617D01*
X44500099Y-137999500D01*
X41499901Y-137999500D01*
X41499617Y-137999617D01*
X41499459Y-138000000D01*
X39500541Y-138000000D01*
X39500383Y-137999617D01*
X39500099Y-137999500D01*
X36499901Y-137999500D01*
X36499617Y-137999617D01*
X36499459Y-138000000D01*
X34500541Y-138000000D01*
X34500383Y-137999617D01*
X34500099Y-137999500D01*
X31499901Y-137999500D01*
X31499617Y-137999617D01*
X31499459Y-138000000D01*
X29500541Y-138000000D01*
X29500383Y-137999617D01*
X29500099Y-137999500D01*
X26499901Y-137999500D01*
X26499617Y-137999617D01*
X26499459Y-138000000D01*
X24500541Y-138000000D01*
X24500383Y-137999617D01*
X24500099Y-137999500D01*
X21499901Y-137999500D01*
X21499617Y-137999617D01*
X21499459Y-138000000D01*
X20000500Y-138000000D01*
X20000500Y-122509518D01*
X27055000Y-122509518D01*
X27055353Y-122516114D01*
X27060573Y-122564667D01*
X27064111Y-122579641D01*
X27108547Y-122698777D01*
X27116962Y-122714189D01*
X27192498Y-122815092D01*
X27204907Y-122827501D01*
X27305810Y-122903037D01*
X27321222Y-122911452D01*
X27440358Y-122955888D01*
X27455332Y-122959426D01*
X27503885Y-122964646D01*
X27510482Y-122965000D01*
X28203674Y-122965000D01*
X28216549Y-122961549D01*
X28220000Y-122948674D01*
X28720000Y-122948674D01*
X28723450Y-122961549D01*
X28736326Y-122965000D01*
X29429518Y-122965000D01*
X29436114Y-122964646D01*
X29484667Y-122959426D01*
X29499641Y-122955888D01*
X29618777Y-122911452D01*
X29634189Y-122903037D01*
X29735092Y-122827501D01*
X29747501Y-122815092D01*
X29823037Y-122714189D01*
X29831452Y-122698777D01*
X29875888Y-122579641D01*
X29879426Y-122564667D01*
X29884646Y-122516114D01*
X29885000Y-122509518D01*
X29885000Y-122146289D01*
X29903273Y-122081499D01*
X29952705Y-122035804D01*
X30018729Y-122022671D01*
X30081885Y-122045971D01*
X30123560Y-122098835D01*
X30170816Y-122212920D01*
X30299567Y-122423023D01*
X30302731Y-122426728D01*
X30302735Y-122426733D01*
X30379074Y-122516114D01*
X30459601Y-122610399D01*
X30463308Y-122613565D01*
X30643266Y-122767264D01*
X30643269Y-122767266D01*
X30646977Y-122770433D01*
X30857080Y-122899184D01*
X31084738Y-122993483D01*
X31324345Y-123051007D01*
X31570000Y-123070341D01*
X31815655Y-123051007D01*
X32055262Y-122993483D01*
X32282920Y-122899184D01*
X32493023Y-122770433D01*
X32680399Y-122610399D01*
X32840433Y-122423023D01*
X32969184Y-122212920D01*
X33063483Y-121985262D01*
X33121007Y-121745655D01*
X33140341Y-121500000D01*
X33121007Y-121254345D01*
X33063483Y-121014738D01*
X32969184Y-120787080D01*
X32840433Y-120576977D01*
X32766559Y-120490482D01*
X32683565Y-120393308D01*
X32680399Y-120389601D01*
X32610950Y-120330286D01*
X32496733Y-120232735D01*
X32496728Y-120232731D01*
X32493023Y-120229567D01*
X32282920Y-120100816D01*
X32055262Y-120006517D01*
X32050533Y-120005381D01*
X32050525Y-120005379D01*
X31820388Y-119950129D01*
X31820384Y-119950128D01*
X31815655Y-119948993D01*
X31810802Y-119948611D01*
X31574854Y-119930041D01*
X31570000Y-119929659D01*
X31565146Y-119930041D01*
X31329197Y-119948611D01*
X31329195Y-119948611D01*
X31324345Y-119948993D01*
X31319617Y-119950127D01*
X31319611Y-119950129D01*
X31089474Y-120005379D01*
X31089462Y-120005382D01*
X31084738Y-120006517D01*
X31080241Y-120008379D01*
X31080237Y-120008381D01*
X30861584Y-120098950D01*
X30861579Y-120098952D01*
X30857080Y-120100816D01*
X30852927Y-120103360D01*
X30852921Y-120103364D01*
X30651134Y-120227019D01*
X30651128Y-120227022D01*
X30646977Y-120229567D01*
X30643277Y-120232726D01*
X30643266Y-120232735D01*
X30463308Y-120386434D01*
X30463301Y-120386440D01*
X30459601Y-120389601D01*
X30456440Y-120393301D01*
X30456434Y-120393308D01*
X30302735Y-120573266D01*
X30302726Y-120573277D01*
X30299567Y-120576977D01*
X30297022Y-120581128D01*
X30297019Y-120581134D01*
X30173364Y-120782921D01*
X30173360Y-120782927D01*
X30170816Y-120787080D01*
X30168952Y-120791579D01*
X30168950Y-120791584D01*
X30123561Y-120901164D01*
X30081885Y-120954029D01*
X30018729Y-120977329D01*
X29952705Y-120964196D01*
X29903273Y-120918501D01*
X29885000Y-120853711D01*
X29885000Y-120490482D01*
X29884646Y-120483885D01*
X29879426Y-120435332D01*
X29875888Y-120420358D01*
X29831452Y-120301222D01*
X29823037Y-120285810D01*
X29747501Y-120184907D01*
X29735092Y-120172498D01*
X29634189Y-120096962D01*
X29618777Y-120088547D01*
X29499641Y-120044111D01*
X29484667Y-120040573D01*
X29436114Y-120035353D01*
X29429518Y-120035000D01*
X28736326Y-120035000D01*
X28723450Y-120038450D01*
X28720000Y-120051326D01*
X28720000Y-122948674D01*
X28220000Y-122948674D01*
X28220000Y-121766326D01*
X28216549Y-121753450D01*
X28203674Y-121750000D01*
X27071326Y-121750000D01*
X27058450Y-121753450D01*
X27055000Y-121766326D01*
X27055000Y-122509518D01*
X20000500Y-122509518D01*
X20000500Y-121233674D01*
X27055000Y-121233674D01*
X27058450Y-121246549D01*
X27071326Y-121250000D01*
X28203674Y-121250000D01*
X28216549Y-121246549D01*
X28220000Y-121233674D01*
X28220000Y-120051326D01*
X28216549Y-120038450D01*
X28203674Y-120035000D01*
X27510482Y-120035000D01*
X27503885Y-120035353D01*
X27455332Y-120040573D01*
X27440358Y-120044111D01*
X27321222Y-120088547D01*
X27305810Y-120096962D01*
X27204907Y-120172498D01*
X27192498Y-120184907D01*
X27116962Y-120285810D01*
X27108547Y-120301222D01*
X27064111Y-120420358D01*
X27060573Y-120435332D01*
X27055353Y-120483885D01*
X27055000Y-120490482D01*
X27055000Y-121233674D01*
X20000500Y-121233674D01*
X20000500Y-103578000D01*
X23612000Y-103578000D01*
X23612164Y-103580251D01*
X23612165Y-103580257D01*
X23622538Y-103721979D01*
X23626903Y-103781616D01*
X23627886Y-103786031D01*
X23627888Y-103786041D01*
X23685130Y-104043011D01*
X23685133Y-104043023D01*
X23686118Y-104047442D01*
X23783407Y-104301814D01*
X23785625Y-104305766D01*
X23914478Y-104535359D01*
X23914481Y-104535364D01*
X23916696Y-104539310D01*
X24083145Y-104754868D01*
X24086406Y-104758012D01*
X24275937Y-104940744D01*
X24275942Y-104940748D01*
X24279205Y-104943894D01*
X24500698Y-105102358D01*
X24742903Y-105226885D01*
X25000659Y-105314819D01*
X25268471Y-105364286D01*
X25540631Y-105374232D01*
X25811339Y-105344446D01*
X26074826Y-105275562D01*
X26325475Y-105169047D01*
X26337407Y-105161764D01*
X26343405Y-105158105D01*
X26405736Y-105139972D01*
X26468688Y-105155817D01*
X26515008Y-105201299D01*
X26532000Y-105263951D01*
X26532000Y-109282047D01*
X26522561Y-109329500D01*
X26495681Y-109369728D01*
X26112696Y-109752711D01*
X26104511Y-109760159D01*
X26098123Y-109764214D01*
X26092788Y-109769894D01*
X26092783Y-109769899D01*
X26052096Y-109813225D01*
X26049392Y-109816016D01*
X26032628Y-109832780D01*
X26032621Y-109832787D01*
X26029880Y-109835529D01*
X26027500Y-109838596D01*
X26027489Y-109838609D01*
X26027400Y-109838725D01*
X26019842Y-109847570D01*
X25995280Y-109873727D01*
X25995273Y-109873736D01*
X25989938Y-109879418D01*
X25986182Y-109886249D01*
X25986179Y-109886254D01*
X25980285Y-109896975D01*
X25969609Y-109913227D01*
X25962109Y-109922896D01*
X25962101Y-109922907D01*
X25957327Y-109929064D01*
X25954234Y-109936208D01*
X25954229Y-109936219D01*
X25939974Y-109969160D01*
X25934838Y-109979643D01*
X25913803Y-110017908D01*
X25911864Y-110025456D01*
X25911863Y-110025461D01*
X25908822Y-110037307D01*
X25902521Y-110055711D01*
X25897658Y-110066948D01*
X25897656Y-110066952D01*
X25894562Y-110074104D01*
X25893342Y-110081803D01*
X25893342Y-110081805D01*
X25887729Y-110117241D01*
X25885361Y-110128676D01*
X25876438Y-110163428D01*
X25876436Y-110163436D01*
X25874500Y-110170981D01*
X25874500Y-110178777D01*
X25874500Y-110191017D01*
X25872974Y-110210402D01*
X25869840Y-110230196D01*
X25870574Y-110237961D01*
X25870574Y-110237964D01*
X25873950Y-110273676D01*
X25874500Y-110285345D01*
X25874500Y-115301313D01*
X25866264Y-115345751D01*
X25842650Y-115384285D01*
X25771813Y-115462956D01*
X25771808Y-115462962D01*
X25767467Y-115467784D01*
X25764222Y-115473404D01*
X25764218Y-115473410D01*
X25676069Y-115626089D01*
X25676066Y-115626094D01*
X25672821Y-115631716D01*
X25670815Y-115637888D01*
X25670813Y-115637894D01*
X25616333Y-115805564D01*
X25616331Y-115805573D01*
X25614326Y-115811744D01*
X25613648Y-115818194D01*
X25613646Y-115818204D01*
X25595962Y-115986464D01*
X25594540Y-116000000D01*
X25595219Y-116006460D01*
X25613646Y-116181795D01*
X25613647Y-116181803D01*
X25614326Y-116188256D01*
X25616331Y-116194428D01*
X25616333Y-116194435D01*
X25670813Y-116362105D01*
X25672821Y-116368284D01*
X25767467Y-116532216D01*
X25894129Y-116672888D01*
X26047270Y-116784151D01*
X26220197Y-116861144D01*
X26405354Y-116900500D01*
X26588143Y-116900500D01*
X26594646Y-116900500D01*
X26779803Y-116861144D01*
X26952730Y-116784151D01*
X27105871Y-116672888D01*
X27232533Y-116532216D01*
X27327179Y-116368284D01*
X27385674Y-116188256D01*
X27405460Y-116000000D01*
X27385674Y-115811744D01*
X27327179Y-115631716D01*
X27232533Y-115467784D01*
X27157349Y-115384284D01*
X27133736Y-115345751D01*
X27125500Y-115301313D01*
X27125500Y-112182287D01*
X27139249Y-112125536D01*
X27177447Y-112081370D01*
X27231623Y-112059582D01*
X27289761Y-112065005D01*
X27427519Y-112112298D01*
X27656451Y-112150500D01*
X27883416Y-112150500D01*
X27888549Y-112150500D01*
X28117481Y-112112298D01*
X28337003Y-112036936D01*
X28541126Y-111926470D01*
X28724284Y-111783913D01*
X28881479Y-111613153D01*
X28918690Y-111556196D01*
X28963482Y-111514962D01*
X29022500Y-111500017D01*
X29081518Y-111514962D01*
X29126309Y-111556196D01*
X29160715Y-111608860D01*
X29160722Y-111608869D01*
X29163521Y-111613153D01*
X29320716Y-111783913D01*
X29503874Y-111926470D01*
X29707997Y-112036936D01*
X29927519Y-112112298D01*
X30156451Y-112150500D01*
X30383416Y-112150500D01*
X30388549Y-112150500D01*
X30617481Y-112112298D01*
X30837003Y-112036936D01*
X31041126Y-111926470D01*
X31218479Y-111788431D01*
X31270904Y-111764579D01*
X31328453Y-111766986D01*
X31378706Y-111795135D01*
X31410820Y-111842952D01*
X31426048Y-111883779D01*
X31434462Y-111899189D01*
X31509998Y-112000092D01*
X31522407Y-112012501D01*
X31623310Y-112088037D01*
X31638722Y-112096452D01*
X31757858Y-112140888D01*
X31772832Y-112144426D01*
X31821385Y-112149646D01*
X31827982Y-112150000D01*
X32506174Y-112150000D01*
X32519049Y-112146549D01*
X32522500Y-112133674D01*
X33022500Y-112133674D01*
X33025950Y-112146549D01*
X33038826Y-112150000D01*
X33717018Y-112150000D01*
X33723614Y-112149646D01*
X33772167Y-112144426D01*
X33787141Y-112140888D01*
X33906277Y-112096452D01*
X33921689Y-112088037D01*
X34022592Y-112012501D01*
X34035001Y-112000092D01*
X34110537Y-111899189D01*
X34118952Y-111883777D01*
X34163388Y-111764641D01*
X34166926Y-111749667D01*
X34172146Y-111701114D01*
X34172500Y-111694518D01*
X34172500Y-111016326D01*
X34169049Y-111003450D01*
X34156174Y-111000000D01*
X33038826Y-111000000D01*
X33025950Y-111003450D01*
X33022500Y-111016326D01*
X33022500Y-112133674D01*
X32522500Y-112133674D01*
X32522500Y-110483674D01*
X33022500Y-110483674D01*
X33025950Y-110496549D01*
X33038826Y-110500000D01*
X34156174Y-110500000D01*
X34169049Y-110496549D01*
X34172500Y-110483674D01*
X34172500Y-109805482D01*
X34172146Y-109798885D01*
X34166926Y-109750332D01*
X34163388Y-109735358D01*
X34118952Y-109616222D01*
X34110537Y-109600810D01*
X34035001Y-109499907D01*
X34022592Y-109487498D01*
X33921689Y-109411962D01*
X33906277Y-109403547D01*
X33787141Y-109359111D01*
X33772167Y-109355573D01*
X33723614Y-109350353D01*
X33717018Y-109350000D01*
X33038826Y-109350000D01*
X33025950Y-109353450D01*
X33022500Y-109366326D01*
X33022500Y-110483674D01*
X32522500Y-110483674D01*
X32522500Y-109366326D01*
X32519049Y-109353450D01*
X32506174Y-109350000D01*
X31827982Y-109350000D01*
X31821385Y-109350353D01*
X31772832Y-109355573D01*
X31757858Y-109359111D01*
X31638722Y-109403547D01*
X31623310Y-109411962D01*
X31522407Y-109487498D01*
X31509998Y-109499907D01*
X31434462Y-109600810D01*
X31426045Y-109616224D01*
X31410819Y-109657048D01*
X31378706Y-109704864D01*
X31328453Y-109733013D01*
X31270904Y-109735420D01*
X31218476Y-109711566D01*
X31045180Y-109576684D01*
X31045169Y-109576676D01*
X31041126Y-109573530D01*
X30905083Y-109499907D01*
X30841507Y-109465501D01*
X30841502Y-109465499D01*
X30837003Y-109463064D01*
X30832157Y-109461400D01*
X30832154Y-109461399D01*
X30622334Y-109389368D01*
X30622333Y-109389367D01*
X30617481Y-109387702D01*
X30612431Y-109386859D01*
X30612422Y-109386857D01*
X30393611Y-109350344D01*
X30393602Y-109350343D01*
X30388549Y-109349500D01*
X30156451Y-109349500D01*
X30151398Y-109350343D01*
X30151388Y-109350344D01*
X29932577Y-109386857D01*
X29932565Y-109386859D01*
X29927519Y-109387702D01*
X29922669Y-109389366D01*
X29922665Y-109389368D01*
X29712845Y-109461399D01*
X29712837Y-109461402D01*
X29707997Y-109463064D01*
X29703501Y-109465496D01*
X29703492Y-109465501D01*
X29508382Y-109571090D01*
X29508378Y-109571092D01*
X29503874Y-109573530D01*
X29499834Y-109576674D01*
X29499827Y-109576679D01*
X29324763Y-109712936D01*
X29324755Y-109712943D01*
X29320716Y-109716087D01*
X29317246Y-109719855D01*
X29317242Y-109719860D01*
X29166991Y-109883077D01*
X29166988Y-109883080D01*
X29163521Y-109886847D01*
X29160726Y-109891124D01*
X29160719Y-109891134D01*
X29126309Y-109943804D01*
X29081517Y-109985037D01*
X29022500Y-109999982D01*
X28963483Y-109985037D01*
X28918691Y-109943804D01*
X28884280Y-109891134D01*
X28884278Y-109891132D01*
X28881479Y-109886847D01*
X28724284Y-109716087D01*
X28718475Y-109711566D01*
X28545172Y-109576679D01*
X28545171Y-109576678D01*
X28541126Y-109573530D01*
X28405083Y-109499907D01*
X28341507Y-109465501D01*
X28341502Y-109465499D01*
X28337003Y-109463064D01*
X28332157Y-109461400D01*
X28332154Y-109461399D01*
X28122334Y-109389368D01*
X28122333Y-109389367D01*
X28117481Y-109387702D01*
X28112431Y-109386859D01*
X28112422Y-109386857D01*
X27888549Y-109349500D01*
X27888820Y-109347875D01*
X27839190Y-109330845D01*
X27797949Y-109286053D01*
X27783000Y-109227029D01*
X27783000Y-102369821D01*
X27783520Y-102358768D01*
X27785172Y-102351382D01*
X27783061Y-102284194D01*
X27783000Y-102280300D01*
X27783000Y-102256595D01*
X27783000Y-102252700D01*
X27782498Y-102248731D01*
X27781580Y-102237074D01*
X27780794Y-102212061D01*
X27780209Y-102193423D01*
X27774620Y-102174190D01*
X27770674Y-102155133D01*
X27769141Y-102142994D01*
X27768164Y-102135258D01*
X27752082Y-102094641D01*
X27748303Y-102083601D01*
X27738295Y-102049152D01*
X27738293Y-102049149D01*
X27736118Y-102041660D01*
X27732147Y-102034946D01*
X27732145Y-102034941D01*
X27725921Y-102024418D01*
X27717358Y-102006940D01*
X27709986Y-101988318D01*
X27705402Y-101982009D01*
X27705399Y-101982003D01*
X27684317Y-101952987D01*
X27677901Y-101943220D01*
X27659643Y-101912346D01*
X27659640Y-101912342D01*
X27655670Y-101905629D01*
X27641506Y-101891465D01*
X27628868Y-101876668D01*
X27621684Y-101866779D01*
X27621678Y-101866773D01*
X27617094Y-101860463D01*
X27583446Y-101832627D01*
X27574805Y-101824764D01*
X26436819Y-100686778D01*
X26409939Y-100646550D01*
X26400500Y-100599097D01*
X26400500Y-95052079D01*
X26416436Y-94991266D01*
X26460148Y-94946085D01*
X26520400Y-94928147D01*
X26581706Y-94942063D01*
X26628309Y-94984257D01*
X26660719Y-95033865D01*
X26660722Y-95033869D01*
X26663521Y-95038153D01*
X26820716Y-95208913D01*
X27003874Y-95351470D01*
X27207997Y-95461936D01*
X27427519Y-95537298D01*
X27656451Y-95575500D01*
X27883416Y-95575500D01*
X27888549Y-95575500D01*
X28117481Y-95537298D01*
X28337003Y-95461936D01*
X28541126Y-95351470D01*
X28724284Y-95208913D01*
X28881479Y-95038153D01*
X28918691Y-94981194D01*
X28963480Y-94939963D01*
X29022497Y-94925017D01*
X29081515Y-94939962D01*
X29126307Y-94981195D01*
X29160713Y-95033857D01*
X29160721Y-95033867D01*
X29163521Y-95038153D01*
X29320716Y-95208913D01*
X29503874Y-95351470D01*
X29707997Y-95461936D01*
X29927519Y-95537298D01*
X30156451Y-95575500D01*
X30383416Y-95575500D01*
X30388549Y-95575500D01*
X30617481Y-95537298D01*
X30837003Y-95461936D01*
X31041126Y-95351470D01*
X31218479Y-95213431D01*
X31270904Y-95189579D01*
X31328453Y-95191986D01*
X31378706Y-95220135D01*
X31410820Y-95267952D01*
X31426048Y-95308779D01*
X31434462Y-95324189D01*
X31509998Y-95425092D01*
X31522407Y-95437501D01*
X31623310Y-95513037D01*
X31638722Y-95521452D01*
X31757858Y-95565888D01*
X31772832Y-95569426D01*
X31821385Y-95574646D01*
X31827982Y-95575000D01*
X32506174Y-95575000D01*
X32519049Y-95571549D01*
X32522500Y-95558674D01*
X33022500Y-95558674D01*
X33025950Y-95571549D01*
X33038826Y-95575000D01*
X33717018Y-95575000D01*
X33723614Y-95574646D01*
X33772167Y-95569426D01*
X33787141Y-95565888D01*
X33906277Y-95521452D01*
X33921689Y-95513037D01*
X34022592Y-95437501D01*
X34035001Y-95425092D01*
X34110537Y-95324189D01*
X34118952Y-95308777D01*
X34163388Y-95189641D01*
X34166926Y-95174667D01*
X34172146Y-95126114D01*
X34172500Y-95119518D01*
X34172500Y-94441326D01*
X34169049Y-94428450D01*
X34156174Y-94425000D01*
X33038826Y-94425000D01*
X33025950Y-94428450D01*
X33022500Y-94441326D01*
X33022500Y-95558674D01*
X32522500Y-95558674D01*
X32522500Y-93908674D01*
X33022500Y-93908674D01*
X33025950Y-93921549D01*
X33038826Y-93925000D01*
X34156174Y-93925000D01*
X34169049Y-93921549D01*
X34172500Y-93908674D01*
X34172500Y-93230482D01*
X34172146Y-93223885D01*
X34166926Y-93175332D01*
X34163388Y-93160358D01*
X34118952Y-93041222D01*
X34110537Y-93025810D01*
X34035001Y-92924907D01*
X34022592Y-92912498D01*
X33921689Y-92836962D01*
X33906277Y-92828547D01*
X33787141Y-92784111D01*
X33772167Y-92780573D01*
X33723614Y-92775353D01*
X33717018Y-92775000D01*
X33038826Y-92775000D01*
X33025950Y-92778450D01*
X33022500Y-92791326D01*
X33022500Y-93908674D01*
X32522500Y-93908674D01*
X32522500Y-92791326D01*
X32519049Y-92778450D01*
X32506174Y-92775000D01*
X31827982Y-92775000D01*
X31821385Y-92775353D01*
X31772832Y-92780573D01*
X31757858Y-92784111D01*
X31638722Y-92828547D01*
X31623310Y-92836962D01*
X31522407Y-92912498D01*
X31509998Y-92924907D01*
X31434462Y-93025810D01*
X31426045Y-93041224D01*
X31410819Y-93082048D01*
X31378706Y-93129864D01*
X31328453Y-93158013D01*
X31270904Y-93160420D01*
X31218476Y-93136566D01*
X31045180Y-93001684D01*
X31045169Y-93001676D01*
X31041126Y-92998530D01*
X30905083Y-92924907D01*
X30841507Y-92890501D01*
X30841502Y-92890499D01*
X30837003Y-92888064D01*
X30832157Y-92886400D01*
X30832154Y-92886399D01*
X30622334Y-92814368D01*
X30622333Y-92814367D01*
X30617481Y-92812702D01*
X30612431Y-92811859D01*
X30612422Y-92811857D01*
X30393611Y-92775344D01*
X30393602Y-92775343D01*
X30388549Y-92774500D01*
X30156451Y-92774500D01*
X30151398Y-92775343D01*
X30151388Y-92775344D01*
X29932577Y-92811857D01*
X29932565Y-92811859D01*
X29927519Y-92812702D01*
X29922669Y-92814366D01*
X29922665Y-92814368D01*
X29712845Y-92886399D01*
X29712837Y-92886402D01*
X29707997Y-92888064D01*
X29703501Y-92890496D01*
X29703492Y-92890501D01*
X29508382Y-92996090D01*
X29508378Y-92996092D01*
X29503874Y-92998530D01*
X29499834Y-93001674D01*
X29499827Y-93001679D01*
X29324763Y-93137936D01*
X29324755Y-93137943D01*
X29320716Y-93141087D01*
X29317246Y-93144855D01*
X29317242Y-93144860D01*
X29166991Y-93308077D01*
X29166988Y-93308080D01*
X29163521Y-93311847D01*
X29160726Y-93316124D01*
X29160719Y-93316134D01*
X29126309Y-93368804D01*
X29081517Y-93410037D01*
X29022500Y-93424982D01*
X28963483Y-93410037D01*
X28918691Y-93368804D01*
X28884280Y-93316134D01*
X28884278Y-93316132D01*
X28881479Y-93311847D01*
X28724284Y-93141087D01*
X28718475Y-93136566D01*
X28545172Y-93001679D01*
X28545171Y-93001678D01*
X28541126Y-92998530D01*
X28405083Y-92924907D01*
X28341507Y-92890501D01*
X28341502Y-92890499D01*
X28337003Y-92888064D01*
X28332157Y-92886400D01*
X28332154Y-92886399D01*
X28122334Y-92814368D01*
X28122333Y-92814367D01*
X28117481Y-92812702D01*
X28112431Y-92811859D01*
X28112422Y-92811857D01*
X27893611Y-92775344D01*
X27893602Y-92775343D01*
X27888549Y-92774500D01*
X27656451Y-92774500D01*
X27651398Y-92775343D01*
X27651388Y-92775344D01*
X27432577Y-92811857D01*
X27432565Y-92811859D01*
X27427519Y-92812702D01*
X27422669Y-92814366D01*
X27422665Y-92814368D01*
X27212845Y-92886399D01*
X27212837Y-92886402D01*
X27207997Y-92888064D01*
X27203501Y-92890496D01*
X27203492Y-92890501D01*
X27008382Y-92996090D01*
X27008378Y-92996092D01*
X27003874Y-92998530D01*
X26999834Y-93001674D01*
X26999827Y-93001679D01*
X26824763Y-93137936D01*
X26824755Y-93137943D01*
X26820716Y-93141087D01*
X26817246Y-93144855D01*
X26817242Y-93144860D01*
X26666991Y-93308077D01*
X26666988Y-93308080D01*
X26663521Y-93311847D01*
X26660726Y-93316124D01*
X26660719Y-93316134D01*
X26628309Y-93365743D01*
X26581706Y-93407937D01*
X26520400Y-93421853D01*
X26460148Y-93403915D01*
X26416436Y-93358734D01*
X26400500Y-93297921D01*
X26400500Y-92274500D01*
X26417113Y-92212500D01*
X26462500Y-92167113D01*
X26524500Y-92150500D01*
X26588143Y-92150500D01*
X26594646Y-92150500D01*
X26779803Y-92111144D01*
X26952730Y-92034151D01*
X27105871Y-91922888D01*
X27232533Y-91782216D01*
X27327179Y-91618284D01*
X27385674Y-91438256D01*
X27403321Y-91270344D01*
X27414721Y-91229925D01*
X27438958Y-91195630D01*
X32447771Y-86186819D01*
X32488000Y-86159939D01*
X32535453Y-86150500D01*
X32588143Y-86150500D01*
X32594646Y-86150500D01*
X32779803Y-86111144D01*
X32952730Y-86034151D01*
X33044881Y-85967199D01*
X33098094Y-85945090D01*
X33155561Y-85949422D01*
X33204863Y-85979264D01*
X33235351Y-86028169D01*
X33240440Y-86085574D01*
X33212658Y-86274354D01*
X33212657Y-86274361D01*
X33212000Y-86278829D01*
X33212000Y-87003000D01*
X33212164Y-87005251D01*
X33212165Y-87005257D01*
X33222538Y-87146979D01*
X33226903Y-87206616D01*
X33227886Y-87211031D01*
X33227888Y-87211041D01*
X33285130Y-87468011D01*
X33285133Y-87468023D01*
X33286118Y-87472442D01*
X33383407Y-87726814D01*
X33385625Y-87730766D01*
X33514478Y-87960359D01*
X33514481Y-87960364D01*
X33516696Y-87964310D01*
X33683145Y-88179868D01*
X33686406Y-88183012D01*
X33875937Y-88365744D01*
X33875942Y-88365748D01*
X33879205Y-88368894D01*
X34100698Y-88527358D01*
X34342903Y-88651885D01*
X34600659Y-88739819D01*
X34868471Y-88789286D01*
X35140631Y-88799232D01*
X35411339Y-88769446D01*
X35674826Y-88700562D01*
X35925475Y-88594047D01*
X36157944Y-88452173D01*
X36367279Y-88277963D01*
X36370308Y-88274583D01*
X36408149Y-88232351D01*
X36457051Y-88198960D01*
X36515862Y-88192054D01*
X36571169Y-88213208D01*
X36610361Y-88257597D01*
X36624500Y-88315099D01*
X36624500Y-101610145D01*
X36611190Y-101666036D01*
X36574116Y-101709928D01*
X36521239Y-101732398D01*
X36463909Y-101728623D01*
X36414435Y-101699413D01*
X36269062Y-101559255D01*
X36269056Y-101559250D01*
X36265795Y-101556106D01*
X36044302Y-101397642D01*
X36015736Y-101382955D01*
X35806132Y-101275189D01*
X35806125Y-101275186D01*
X35802097Y-101273115D01*
X35797812Y-101271653D01*
X35797807Y-101271651D01*
X35548624Y-101186642D01*
X35548622Y-101186641D01*
X35544341Y-101185181D01*
X35522179Y-101181087D01*
X35280989Y-101136537D01*
X35280978Y-101136535D01*
X35276529Y-101135714D01*
X35272000Y-101135548D01*
X35271996Y-101135548D01*
X35008897Y-101125933D01*
X35008890Y-101125933D01*
X35004369Y-101125768D01*
X34999872Y-101126262D01*
X34999866Y-101126263D01*
X34738172Y-101155057D01*
X34738163Y-101155058D01*
X34733661Y-101155554D01*
X34729282Y-101156698D01*
X34729270Y-101156701D01*
X34474549Y-101223294D01*
X34474546Y-101223295D01*
X34470174Y-101224438D01*
X34466024Y-101226201D01*
X34466011Y-101226206D01*
X34223691Y-101329182D01*
X34223683Y-101329185D01*
X34219525Y-101330953D01*
X34215668Y-101333306D01*
X34215658Y-101333312D01*
X33990928Y-101470463D01*
X33990918Y-101470469D01*
X33987056Y-101472827D01*
X33983571Y-101475726D01*
X33983567Y-101475730D01*
X33781206Y-101644136D01*
X33781200Y-101644141D01*
X33777721Y-101647037D01*
X33774703Y-101650404D01*
X33774699Y-101650409D01*
X33598998Y-101846502D01*
X33598992Y-101846508D01*
X33595982Y-101849869D01*
X33593489Y-101853636D01*
X33593486Y-101853641D01*
X33448211Y-102073224D01*
X33448208Y-102073229D01*
X33445712Y-102077002D01*
X33443795Y-102081089D01*
X33443790Y-102081100D01*
X33332033Y-102319499D01*
X33332030Y-102319506D01*
X33330114Y-102323594D01*
X33328814Y-102327912D01*
X33328810Y-102327925D01*
X33252958Y-102580050D01*
X33251653Y-102584389D01*
X33250994Y-102588865D01*
X33250993Y-102588871D01*
X33212658Y-102849354D01*
X33212657Y-102849361D01*
X33212000Y-102853829D01*
X33212000Y-103578000D01*
X33212164Y-103580251D01*
X33212165Y-103580257D01*
X33222538Y-103721979D01*
X33226903Y-103781616D01*
X33227886Y-103786031D01*
X33227888Y-103786041D01*
X33285130Y-104043011D01*
X33285133Y-104043023D01*
X33286118Y-104047442D01*
X33383407Y-104301814D01*
X33385625Y-104305766D01*
X33514478Y-104535359D01*
X33514481Y-104535364D01*
X33516696Y-104539310D01*
X33683145Y-104754868D01*
X33686406Y-104758012D01*
X33875937Y-104940744D01*
X33875942Y-104940748D01*
X33879205Y-104943894D01*
X34100698Y-105102358D01*
X34342903Y-105226885D01*
X34600659Y-105314819D01*
X34868471Y-105364286D01*
X35140631Y-105374232D01*
X35411339Y-105344446D01*
X35674826Y-105275562D01*
X35925475Y-105169047D01*
X36157944Y-105027173D01*
X36367279Y-104852963D01*
X36370308Y-104849583D01*
X36408149Y-104807351D01*
X36457051Y-104773960D01*
X36515862Y-104767054D01*
X36571169Y-104788208D01*
X36610361Y-104832597D01*
X36624500Y-104890099D01*
X36624500Y-113429151D01*
X36622304Y-113452386D01*
X36622233Y-113452753D01*
X36622232Y-113452760D01*
X36620773Y-113460412D01*
X36621262Y-113468189D01*
X36621262Y-113468195D01*
X36624255Y-113515759D01*
X36624500Y-113523545D01*
X36624500Y-121007776D01*
X36605864Y-121073155D01*
X36555557Y-121118883D01*
X36488701Y-121131213D01*
X36425392Y-121106441D01*
X36384659Y-121052011D01*
X36367767Y-121007776D01*
X36307385Y-120849650D01*
X36182939Y-120636687D01*
X36025382Y-120446908D01*
X35890750Y-120330286D01*
X35842793Y-120288744D01*
X35842791Y-120288742D01*
X35838945Y-120285411D01*
X35674938Y-120184907D01*
X35632977Y-120159193D01*
X35632973Y-120159191D01*
X35628634Y-120156532D01*
X35623923Y-120154619D01*
X35623917Y-120154616D01*
X35404809Y-120065646D01*
X35404803Y-120065644D01*
X35400099Y-120063734D01*
X35395134Y-120062615D01*
X35164439Y-120010625D01*
X35164430Y-120010623D01*
X35159475Y-120009507D01*
X35154394Y-120009214D01*
X34918307Y-119995601D01*
X34913226Y-119995308D01*
X34908175Y-119995847D01*
X34908166Y-119995848D01*
X34673020Y-120020978D01*
X34673010Y-120020979D01*
X34667965Y-120021519D01*
X34663066Y-120022877D01*
X34663064Y-120022878D01*
X34435183Y-120086075D01*
X34435175Y-120086077D01*
X34430278Y-120087436D01*
X34425667Y-120089576D01*
X34425657Y-120089580D01*
X34211165Y-120189144D01*
X34211156Y-120189148D01*
X34206548Y-120191288D01*
X34202355Y-120194147D01*
X34202343Y-120194155D01*
X34063682Y-120288744D01*
X34002784Y-120330286D01*
X33999112Y-120333794D01*
X33999107Y-120333799D01*
X33828138Y-120497179D01*
X33828130Y-120497187D01*
X33824458Y-120500697D01*
X33821408Y-120504758D01*
X33821401Y-120504767D01*
X33679415Y-120693876D01*
X33679410Y-120693882D01*
X33676360Y-120697946D01*
X33674012Y-120702455D01*
X33674009Y-120702461D01*
X33564815Y-120912220D01*
X33564811Y-120912228D01*
X33562466Y-120916734D01*
X33560888Y-120921561D01*
X33560885Y-120921569D01*
X33487416Y-121146348D01*
X33487414Y-121146355D01*
X33485835Y-121151187D01*
X33485065Y-121156212D01*
X33485064Y-121156221D01*
X33449295Y-121389971D01*
X33449294Y-121389978D01*
X33448525Y-121395007D01*
X33448587Y-121400094D01*
X33448587Y-121400097D01*
X33451476Y-121636561D01*
X33451476Y-121636571D01*
X33451539Y-121641646D01*
X33452430Y-121646651D01*
X33452431Y-121646656D01*
X33493900Y-121879468D01*
X33493902Y-121879478D01*
X33494794Y-121884482D01*
X33496494Y-121889282D01*
X33575430Y-122112190D01*
X33575432Y-122112195D01*
X33577131Y-122116992D01*
X33579590Y-122121446D01*
X33661980Y-122270697D01*
X33696336Y-122332932D01*
X33849210Y-122526504D01*
X33852965Y-122529920D01*
X33852968Y-122529924D01*
X33984047Y-122649197D01*
X34031645Y-122692508D01*
X34065159Y-122714189D01*
X34221131Y-122815092D01*
X34238744Y-122826486D01*
X34464945Y-122924841D01*
X34704171Y-122984930D01*
X34950000Y-123005141D01*
X35023526Y-123003344D01*
X35268074Y-122971149D01*
X35504079Y-122899445D01*
X35725205Y-122790158D01*
X35925512Y-122646223D01*
X36099621Y-122471505D01*
X36242856Y-122270697D01*
X36351370Y-122049191D01*
X36381729Y-121947996D01*
X36419738Y-121889536D01*
X36483285Y-121860830D01*
X36552276Y-121870956D01*
X36604894Y-121916712D01*
X36624500Y-121983629D01*
X36624500Y-122301313D01*
X36616264Y-122345751D01*
X36592650Y-122384285D01*
X36521813Y-122462956D01*
X36521808Y-122462962D01*
X36517467Y-122467784D01*
X36514222Y-122473404D01*
X36514218Y-122473410D01*
X36426069Y-122626089D01*
X36426066Y-122626094D01*
X36422821Y-122631716D01*
X36420815Y-122637888D01*
X36420813Y-122637894D01*
X36366333Y-122805564D01*
X36366331Y-122805573D01*
X36364326Y-122811744D01*
X36363648Y-122818194D01*
X36363646Y-122818204D01*
X36347728Y-122969669D01*
X36344540Y-123000000D01*
X36345219Y-123006460D01*
X36363646Y-123181795D01*
X36363647Y-123181803D01*
X36364326Y-123188256D01*
X36366331Y-123194428D01*
X36366333Y-123194435D01*
X36420813Y-123362105D01*
X36422821Y-123368284D01*
X36517467Y-123532216D01*
X36644129Y-123672888D01*
X36797270Y-123784151D01*
X36970197Y-123861144D01*
X37155354Y-123900500D01*
X37338143Y-123900500D01*
X37344646Y-123900500D01*
X37529803Y-123861144D01*
X37702730Y-123784151D01*
X37855871Y-123672888D01*
X37982533Y-123532216D01*
X38077179Y-123368284D01*
X38135674Y-123188256D01*
X38155460Y-123000000D01*
X38135674Y-122811744D01*
X38077179Y-122631716D01*
X37982533Y-122467784D01*
X37945570Y-122426733D01*
X37907350Y-122384285D01*
X37883736Y-122345751D01*
X37875500Y-122301313D01*
X37875500Y-121500000D01*
X38299659Y-121500000D01*
X38318993Y-121745655D01*
X38320128Y-121750384D01*
X38320129Y-121750388D01*
X38375379Y-121980525D01*
X38375381Y-121980533D01*
X38376517Y-121985262D01*
X38470816Y-122212920D01*
X38599567Y-122423023D01*
X38602731Y-122426728D01*
X38602735Y-122426733D01*
X38679074Y-122516114D01*
X38759601Y-122610399D01*
X38763308Y-122613565D01*
X38943266Y-122767264D01*
X38943269Y-122767266D01*
X38946977Y-122770433D01*
X39157080Y-122899184D01*
X39384738Y-122993483D01*
X39624345Y-123051007D01*
X39870000Y-123070341D01*
X40115655Y-123051007D01*
X40355262Y-122993483D01*
X40582920Y-122899184D01*
X40793023Y-122770433D01*
X40980399Y-122610399D01*
X41140433Y-122423023D01*
X41269184Y-122212920D01*
X41363483Y-121985262D01*
X41421007Y-121745655D01*
X41440341Y-121500000D01*
X41421007Y-121254345D01*
X41363483Y-121014738D01*
X41269184Y-120787080D01*
X41140433Y-120576977D01*
X41066559Y-120490482D01*
X40983565Y-120393308D01*
X40980399Y-120389601D01*
X40910950Y-120330286D01*
X40796733Y-120232735D01*
X40796728Y-120232731D01*
X40793023Y-120229567D01*
X40582920Y-120100816D01*
X40355262Y-120006517D01*
X40350533Y-120005381D01*
X40350525Y-120005379D01*
X40120388Y-119950129D01*
X40120384Y-119950128D01*
X40115655Y-119948993D01*
X40110802Y-119948611D01*
X39874854Y-119930041D01*
X39870000Y-119929659D01*
X39865146Y-119930041D01*
X39629197Y-119948611D01*
X39629195Y-119948611D01*
X39624345Y-119948993D01*
X39619617Y-119950127D01*
X39619611Y-119950129D01*
X39389474Y-120005379D01*
X39389462Y-120005382D01*
X39384738Y-120006517D01*
X39380241Y-120008379D01*
X39380237Y-120008381D01*
X39161584Y-120098950D01*
X39161579Y-120098952D01*
X39157080Y-120100816D01*
X39152927Y-120103360D01*
X39152921Y-120103364D01*
X38951134Y-120227019D01*
X38951128Y-120227022D01*
X38946977Y-120229567D01*
X38943277Y-120232726D01*
X38943266Y-120232735D01*
X38763308Y-120386434D01*
X38763301Y-120386440D01*
X38759601Y-120389601D01*
X38756440Y-120393301D01*
X38756434Y-120393308D01*
X38602735Y-120573266D01*
X38602726Y-120573277D01*
X38599567Y-120576977D01*
X38597022Y-120581128D01*
X38597019Y-120581134D01*
X38473364Y-120782921D01*
X38473360Y-120782927D01*
X38470816Y-120787080D01*
X38468952Y-120791579D01*
X38468950Y-120791584D01*
X38378381Y-121010237D01*
X38376517Y-121014738D01*
X38375382Y-121019462D01*
X38375379Y-121019474D01*
X38320129Y-121249611D01*
X38320127Y-121249617D01*
X38318993Y-121254345D01*
X38299659Y-121500000D01*
X37875500Y-121500000D01*
X37875500Y-114524500D01*
X37892113Y-114462500D01*
X37937500Y-114417113D01*
X37999500Y-114400500D01*
X38088143Y-114400500D01*
X38094646Y-114400500D01*
X38279803Y-114361144D01*
X38452730Y-114284151D01*
X38605871Y-114172888D01*
X38732533Y-114032216D01*
X38827179Y-113868284D01*
X38885674Y-113688256D01*
X38905460Y-113500000D01*
X38885674Y-113311744D01*
X38827179Y-113131716D01*
X38732533Y-112967784D01*
X38605871Y-112827112D01*
X38600613Y-112823292D01*
X38600611Y-112823290D01*
X38457988Y-112719669D01*
X38457987Y-112719668D01*
X38452730Y-112715849D01*
X38446792Y-112713205D01*
X38285745Y-112641501D01*
X38285740Y-112641499D01*
X38279803Y-112638856D01*
X38273444Y-112637504D01*
X38273440Y-112637503D01*
X38101008Y-112600852D01*
X38101005Y-112600851D01*
X38094646Y-112599500D01*
X37999500Y-112599500D01*
X37937500Y-112582887D01*
X37892113Y-112537500D01*
X37875500Y-112475500D01*
X37875500Y-110884518D01*
X41807500Y-110884518D01*
X41807853Y-110891114D01*
X41813073Y-110939667D01*
X41816611Y-110954641D01*
X41861047Y-111073777D01*
X41869462Y-111089189D01*
X41944998Y-111190092D01*
X41957407Y-111202501D01*
X42058310Y-111278037D01*
X42073722Y-111286452D01*
X42192858Y-111330888D01*
X42207832Y-111334426D01*
X42256385Y-111339646D01*
X42262982Y-111340000D01*
X43006174Y-111340000D01*
X43019049Y-111336549D01*
X43022500Y-111323674D01*
X43522500Y-111323674D01*
X43525950Y-111336549D01*
X43538826Y-111340000D01*
X44282018Y-111340000D01*
X44288614Y-111339646D01*
X44337167Y-111334426D01*
X44352141Y-111330888D01*
X44471277Y-111286452D01*
X44486689Y-111278037D01*
X44587592Y-111202501D01*
X44600001Y-111190092D01*
X44675537Y-111089189D01*
X44683952Y-111073777D01*
X44728388Y-110954641D01*
X44731926Y-110939667D01*
X44737146Y-110891114D01*
X44737500Y-110884518D01*
X44737500Y-110191326D01*
X44734049Y-110178450D01*
X44721174Y-110175000D01*
X43538826Y-110175000D01*
X43525950Y-110178450D01*
X43522500Y-110191326D01*
X43522500Y-111323674D01*
X43022500Y-111323674D01*
X43022500Y-110191326D01*
X43019049Y-110178450D01*
X43006174Y-110175000D01*
X41823826Y-110175000D01*
X41810950Y-110178450D01*
X41807500Y-110191326D01*
X41807500Y-110884518D01*
X37875500Y-110884518D01*
X37875500Y-106825000D01*
X41702159Y-106825000D01*
X41721493Y-107070655D01*
X41722628Y-107075384D01*
X41722629Y-107075388D01*
X41777879Y-107305525D01*
X41777881Y-107305533D01*
X41779017Y-107310262D01*
X41873316Y-107537920D01*
X42002067Y-107748023D01*
X42005231Y-107751728D01*
X42005235Y-107751733D01*
X42158934Y-107931691D01*
X42162101Y-107935399D01*
X42165808Y-107938565D01*
X42345766Y-108092264D01*
X42345769Y-108092266D01*
X42349477Y-108095433D01*
X42559580Y-108224184D01*
X42673664Y-108271439D01*
X42726529Y-108313115D01*
X42749829Y-108376271D01*
X42736696Y-108442295D01*
X42691001Y-108491727D01*
X42626211Y-108510000D01*
X42262982Y-108510000D01*
X42256385Y-108510353D01*
X42207832Y-108515573D01*
X42192858Y-108519111D01*
X42073722Y-108563547D01*
X42058310Y-108571962D01*
X41957407Y-108647498D01*
X41944998Y-108659907D01*
X41869462Y-108760810D01*
X41861047Y-108776222D01*
X41816611Y-108895358D01*
X41813073Y-108910332D01*
X41807853Y-108958885D01*
X41807500Y-108965482D01*
X41807500Y-109658674D01*
X41810950Y-109671549D01*
X41823826Y-109675000D01*
X44721174Y-109675000D01*
X44734049Y-109671549D01*
X44737500Y-109658674D01*
X44737500Y-108965482D01*
X44737146Y-108958885D01*
X44731926Y-108910332D01*
X44728388Y-108895358D01*
X44683952Y-108776222D01*
X44675537Y-108760810D01*
X44600001Y-108659907D01*
X44587592Y-108647498D01*
X44486689Y-108571962D01*
X44471277Y-108563547D01*
X44352141Y-108519111D01*
X44337167Y-108515573D01*
X44288614Y-108510353D01*
X44282018Y-108510000D01*
X43918789Y-108510000D01*
X43853999Y-108491727D01*
X43808304Y-108442295D01*
X43795171Y-108376271D01*
X43818471Y-108313115D01*
X43871336Y-108271439D01*
X43985420Y-108224184D01*
X44195523Y-108095433D01*
X44382899Y-107935399D01*
X44542933Y-107748023D01*
X44671684Y-107537920D01*
X44765983Y-107310262D01*
X44823507Y-107070655D01*
X44842841Y-106825000D01*
X44823507Y-106579345D01*
X44765983Y-106339738D01*
X44671684Y-106112080D01*
X44542933Y-105901977D01*
X44382899Y-105714601D01*
X44379191Y-105711434D01*
X44199233Y-105557735D01*
X44199228Y-105557731D01*
X44195523Y-105554567D01*
X43985420Y-105425816D01*
X43757762Y-105331517D01*
X43753033Y-105330381D01*
X43753025Y-105330379D01*
X43522888Y-105275129D01*
X43522884Y-105275128D01*
X43518155Y-105273993D01*
X43513302Y-105273611D01*
X43277354Y-105255041D01*
X43272500Y-105254659D01*
X43267646Y-105255041D01*
X43031697Y-105273611D01*
X43031695Y-105273611D01*
X43026845Y-105273993D01*
X43022117Y-105275127D01*
X43022111Y-105275129D01*
X42791974Y-105330379D01*
X42791962Y-105330382D01*
X42787238Y-105331517D01*
X42782741Y-105333379D01*
X42782737Y-105333381D01*
X42564084Y-105423950D01*
X42564079Y-105423952D01*
X42559580Y-105425816D01*
X42555427Y-105428360D01*
X42555421Y-105428364D01*
X42353634Y-105552019D01*
X42353628Y-105552022D01*
X42349477Y-105554567D01*
X42345777Y-105557726D01*
X42345766Y-105557735D01*
X42165808Y-105711434D01*
X42165801Y-105711440D01*
X42162101Y-105714601D01*
X42158940Y-105718301D01*
X42158934Y-105718308D01*
X42005235Y-105898266D01*
X42005226Y-105898277D01*
X42002067Y-105901977D01*
X41999522Y-105906128D01*
X41999519Y-105906134D01*
X41875864Y-106107921D01*
X41875860Y-106107927D01*
X41873316Y-106112080D01*
X41779017Y-106339738D01*
X41777882Y-106344462D01*
X41777879Y-106344474D01*
X41722629Y-106574611D01*
X41722627Y-106574617D01*
X41721493Y-106579345D01*
X41702159Y-106825000D01*
X37875500Y-106825000D01*
X37875500Y-103481774D01*
X41767808Y-103481774D01*
X41768347Y-103486825D01*
X41768348Y-103486833D01*
X41793478Y-103721979D01*
X41793479Y-103721986D01*
X41794019Y-103727035D01*
X41795378Y-103731935D01*
X41848952Y-103925118D01*
X41859936Y-103964722D01*
X41862077Y-103969336D01*
X41862080Y-103969342D01*
X41961644Y-104183834D01*
X41963788Y-104188452D01*
X41966651Y-104192649D01*
X41966655Y-104192656D01*
X42041118Y-104301814D01*
X42102786Y-104392216D01*
X42106299Y-104395892D01*
X42249543Y-104545790D01*
X42273197Y-104570542D01*
X42470446Y-104718640D01*
X42689234Y-104832534D01*
X42923687Y-104909165D01*
X43167507Y-104946475D01*
X43414146Y-104943461D01*
X43656982Y-104900206D01*
X43889492Y-104817869D01*
X44105432Y-104698664D01*
X44299004Y-104545790D01*
X44465008Y-104363355D01*
X44598986Y-104156256D01*
X44697341Y-103930055D01*
X44757430Y-103690829D01*
X44777641Y-103445000D01*
X44775844Y-103371474D01*
X44743649Y-103126926D01*
X44671945Y-102890921D01*
X44562658Y-102669795D01*
X44418723Y-102469488D01*
X44415116Y-102465893D01*
X44415113Y-102465890D01*
X44247609Y-102298970D01*
X44247606Y-102298967D01*
X44244005Y-102295379D01*
X44189632Y-102256595D01*
X44047343Y-102155101D01*
X44047340Y-102155099D01*
X44043197Y-102152144D01*
X43821691Y-102043630D01*
X43815125Y-102041660D01*
X43590305Y-101974210D01*
X43590296Y-101974208D01*
X43585436Y-101972750D01*
X43580404Y-101972105D01*
X43580393Y-101972103D01*
X43345820Y-101942053D01*
X43345809Y-101942052D01*
X43340778Y-101941408D01*
X43335702Y-101941594D01*
X43335699Y-101941594D01*
X43099369Y-101950260D01*
X43099362Y-101950260D01*
X43094285Y-101950447D01*
X43089303Y-101951460D01*
X43089299Y-101951461D01*
X42857564Y-101998608D01*
X42857555Y-101998610D01*
X42852579Y-101999623D01*
X42847830Y-102001436D01*
X42847821Y-102001439D01*
X42626908Y-102085798D01*
X42622150Y-102087615D01*
X42617762Y-102090179D01*
X42617756Y-102090182D01*
X42413582Y-102209492D01*
X42413575Y-102209496D01*
X42409187Y-102212061D01*
X42405277Y-102215306D01*
X42405270Y-102215312D01*
X42223322Y-102366368D01*
X42223318Y-102366371D01*
X42219408Y-102369618D01*
X42216079Y-102373460D01*
X42216077Y-102373463D01*
X42061244Y-102552206D01*
X42061237Y-102552214D01*
X42057911Y-102556055D01*
X42055252Y-102560392D01*
X42055249Y-102560398D01*
X41931693Y-102762022D01*
X41931688Y-102762031D01*
X41929032Y-102766366D01*
X41927121Y-102771071D01*
X41927116Y-102771082D01*
X41838146Y-102990190D01*
X41838142Y-102990200D01*
X41836234Y-102994901D01*
X41835116Y-102999861D01*
X41835115Y-102999865D01*
X41783125Y-103230560D01*
X41783123Y-103230570D01*
X41782007Y-103235525D01*
X41767808Y-103481774D01*
X37875500Y-103481774D01*
X37875500Y-98525000D01*
X41702159Y-98525000D01*
X41721493Y-98770655D01*
X41722628Y-98775384D01*
X41722629Y-98775388D01*
X41777879Y-99005525D01*
X41777881Y-99005533D01*
X41779017Y-99010262D01*
X41873316Y-99237920D01*
X42002067Y-99448023D01*
X42005231Y-99451728D01*
X42005235Y-99451733D01*
X42158934Y-99631691D01*
X42162101Y-99635399D01*
X42165808Y-99638565D01*
X42345766Y-99792264D01*
X42345769Y-99792266D01*
X42349477Y-99795433D01*
X42559580Y-99924184D01*
X42787238Y-100018483D01*
X43026845Y-100076007D01*
X43272500Y-100095341D01*
X43518155Y-100076007D01*
X43757762Y-100018483D01*
X43985420Y-99924184D01*
X44195523Y-99795433D01*
X44382899Y-99635399D01*
X44542933Y-99448023D01*
X44671684Y-99237920D01*
X44765983Y-99010262D01*
X44823507Y-98770655D01*
X44842841Y-98525000D01*
X44823507Y-98279345D01*
X44765983Y-98039738D01*
X44671684Y-97812080D01*
X44542933Y-97601977D01*
X44382899Y-97414601D01*
X44379191Y-97411434D01*
X44199233Y-97257735D01*
X44199228Y-97257731D01*
X44195523Y-97254567D01*
X43985420Y-97125816D01*
X43757762Y-97031517D01*
X43753033Y-97030381D01*
X43753025Y-97030379D01*
X43522888Y-96975129D01*
X43522884Y-96975128D01*
X43518155Y-96973993D01*
X43513302Y-96973611D01*
X43277354Y-96955041D01*
X43272500Y-96954659D01*
X43267646Y-96955041D01*
X43031697Y-96973611D01*
X43031695Y-96973611D01*
X43026845Y-96973993D01*
X43022117Y-96975127D01*
X43022111Y-96975129D01*
X42791974Y-97030379D01*
X42791962Y-97030382D01*
X42787238Y-97031517D01*
X42782741Y-97033379D01*
X42782737Y-97033381D01*
X42564084Y-97123950D01*
X42564079Y-97123952D01*
X42559580Y-97125816D01*
X42555427Y-97128360D01*
X42555421Y-97128364D01*
X42353634Y-97252019D01*
X42353628Y-97252022D01*
X42349477Y-97254567D01*
X42345777Y-97257726D01*
X42345766Y-97257735D01*
X42165808Y-97411434D01*
X42165801Y-97411440D01*
X42162101Y-97414601D01*
X42158940Y-97418301D01*
X42158934Y-97418308D01*
X42005235Y-97598266D01*
X42005226Y-97598277D01*
X42002067Y-97601977D01*
X41999522Y-97606128D01*
X41999519Y-97606134D01*
X41875864Y-97807921D01*
X41875860Y-97807927D01*
X41873316Y-97812080D01*
X41779017Y-98039738D01*
X41777882Y-98044462D01*
X41777879Y-98044474D01*
X41722629Y-98274611D01*
X41722627Y-98274617D01*
X41721493Y-98279345D01*
X41702159Y-98525000D01*
X37875500Y-98525000D01*
X37875500Y-94309518D01*
X41807500Y-94309518D01*
X41807853Y-94316114D01*
X41813073Y-94364667D01*
X41816611Y-94379641D01*
X41861047Y-94498777D01*
X41869462Y-94514189D01*
X41944998Y-94615092D01*
X41957407Y-94627501D01*
X42058310Y-94703037D01*
X42073722Y-94711452D01*
X42192858Y-94755888D01*
X42207832Y-94759426D01*
X42256385Y-94764646D01*
X42262982Y-94765000D01*
X43006174Y-94765000D01*
X43019049Y-94761549D01*
X43022500Y-94748674D01*
X43522500Y-94748674D01*
X43525950Y-94761549D01*
X43538826Y-94765000D01*
X44282018Y-94765000D01*
X44288614Y-94764646D01*
X44337167Y-94759426D01*
X44352141Y-94755888D01*
X44471277Y-94711452D01*
X44486689Y-94703037D01*
X44587592Y-94627501D01*
X44600001Y-94615092D01*
X44675537Y-94514189D01*
X44683952Y-94498777D01*
X44728388Y-94379641D01*
X44731926Y-94364667D01*
X44737146Y-94316114D01*
X44737500Y-94309518D01*
X44737500Y-93616326D01*
X44734049Y-93603450D01*
X44721174Y-93600000D01*
X43538826Y-93600000D01*
X43525950Y-93603450D01*
X43522500Y-93616326D01*
X43522500Y-94748674D01*
X43022500Y-94748674D01*
X43022500Y-93616326D01*
X43019049Y-93603450D01*
X43006174Y-93600000D01*
X41823826Y-93600000D01*
X41810950Y-93603450D01*
X41807500Y-93616326D01*
X41807500Y-94309518D01*
X37875500Y-94309518D01*
X37875500Y-90250000D01*
X41702159Y-90250000D01*
X41702541Y-90254854D01*
X41718574Y-90458573D01*
X41721493Y-90495655D01*
X41722628Y-90500384D01*
X41722629Y-90500388D01*
X41777879Y-90730525D01*
X41777881Y-90730533D01*
X41779017Y-90735262D01*
X41873316Y-90962920D01*
X42002067Y-91173023D01*
X42005231Y-91176728D01*
X42005235Y-91176733D01*
X42051681Y-91231114D01*
X42162101Y-91360399D01*
X42165808Y-91363565D01*
X42345766Y-91517264D01*
X42345769Y-91517266D01*
X42349477Y-91520433D01*
X42559580Y-91649184D01*
X42673664Y-91696439D01*
X42726529Y-91738115D01*
X42749829Y-91801271D01*
X42736696Y-91867295D01*
X42691001Y-91916727D01*
X42626211Y-91935000D01*
X42262982Y-91935000D01*
X42256385Y-91935353D01*
X42207832Y-91940573D01*
X42192858Y-91944111D01*
X42073722Y-91988547D01*
X42058310Y-91996962D01*
X41957407Y-92072498D01*
X41944998Y-92084907D01*
X41869462Y-92185810D01*
X41861047Y-92201222D01*
X41816611Y-92320358D01*
X41813073Y-92335332D01*
X41807853Y-92383885D01*
X41807500Y-92390482D01*
X41807500Y-93083674D01*
X41810950Y-93096549D01*
X41823826Y-93100000D01*
X44721174Y-93100000D01*
X44734049Y-93096549D01*
X44737500Y-93083674D01*
X44737500Y-92390482D01*
X44737146Y-92383885D01*
X44731926Y-92335332D01*
X44728388Y-92320358D01*
X44683952Y-92201222D01*
X44675537Y-92185810D01*
X44600001Y-92084907D01*
X44587592Y-92072498D01*
X44486689Y-91996962D01*
X44471277Y-91988547D01*
X44352141Y-91944111D01*
X44337167Y-91940573D01*
X44288614Y-91935353D01*
X44282018Y-91935000D01*
X43918789Y-91935000D01*
X43853999Y-91916727D01*
X43808304Y-91867295D01*
X43795171Y-91801271D01*
X43818471Y-91738115D01*
X43871336Y-91696439D01*
X43985420Y-91649184D01*
X44195523Y-91520433D01*
X44382899Y-91360399D01*
X44542933Y-91173023D01*
X44671684Y-90962920D01*
X44765983Y-90735262D01*
X44823507Y-90495655D01*
X44842841Y-90250000D01*
X44823507Y-90004345D01*
X44765983Y-89764738D01*
X44671684Y-89537080D01*
X44542933Y-89326977D01*
X44382899Y-89139601D01*
X44379191Y-89136434D01*
X44199233Y-88982735D01*
X44199228Y-88982731D01*
X44195523Y-88979567D01*
X43985420Y-88850816D01*
X43757762Y-88756517D01*
X43753033Y-88755381D01*
X43753025Y-88755379D01*
X43522888Y-88700129D01*
X43522884Y-88700128D01*
X43518155Y-88698993D01*
X43513302Y-88698611D01*
X43277354Y-88680041D01*
X43272500Y-88679659D01*
X43267646Y-88680041D01*
X43031697Y-88698611D01*
X43031695Y-88698611D01*
X43026845Y-88698993D01*
X43022117Y-88700127D01*
X43022111Y-88700129D01*
X42791974Y-88755379D01*
X42791962Y-88755382D01*
X42787238Y-88756517D01*
X42782741Y-88758379D01*
X42782737Y-88758381D01*
X42564084Y-88848950D01*
X42564079Y-88848952D01*
X42559580Y-88850816D01*
X42555427Y-88853360D01*
X42555421Y-88853364D01*
X42353634Y-88977019D01*
X42353628Y-88977022D01*
X42349477Y-88979567D01*
X42345777Y-88982726D01*
X42345766Y-88982735D01*
X42165808Y-89136434D01*
X42165801Y-89136440D01*
X42162101Y-89139601D01*
X42158940Y-89143301D01*
X42158934Y-89143308D01*
X42005235Y-89323266D01*
X42005226Y-89323277D01*
X42002067Y-89326977D01*
X41999522Y-89331128D01*
X41999519Y-89331134D01*
X41875864Y-89532921D01*
X41875860Y-89532927D01*
X41873316Y-89537080D01*
X41779017Y-89764738D01*
X41777882Y-89769462D01*
X41777879Y-89769474D01*
X41722629Y-89999611D01*
X41722627Y-89999617D01*
X41721493Y-90004345D01*
X41702159Y-90250000D01*
X37875500Y-90250000D01*
X37875500Y-86906774D01*
X41767808Y-86906774D01*
X41768347Y-86911825D01*
X41768348Y-86911833D01*
X41793478Y-87146979D01*
X41793479Y-87146986D01*
X41794019Y-87152035D01*
X41795378Y-87156935D01*
X41848952Y-87350118D01*
X41859936Y-87389722D01*
X41862077Y-87394336D01*
X41862080Y-87394342D01*
X41961644Y-87608834D01*
X41963788Y-87613452D01*
X41966651Y-87617649D01*
X41966655Y-87617656D01*
X42041118Y-87726814D01*
X42102786Y-87817216D01*
X42106299Y-87820892D01*
X42249543Y-87970790D01*
X42273197Y-87995542D01*
X42470446Y-88143640D01*
X42689234Y-88257534D01*
X42923687Y-88334165D01*
X43167507Y-88371475D01*
X43414146Y-88368461D01*
X43656982Y-88325206D01*
X43889492Y-88242869D01*
X44105432Y-88123664D01*
X44299004Y-87970790D01*
X44465008Y-87788355D01*
X44598986Y-87581256D01*
X44697341Y-87355055D01*
X44757430Y-87115829D01*
X44777641Y-86870000D01*
X44775844Y-86796474D01*
X44743649Y-86551926D01*
X44671945Y-86315921D01*
X44562658Y-86094795D01*
X44418723Y-85894488D01*
X44415116Y-85890893D01*
X44415113Y-85890890D01*
X44247609Y-85723970D01*
X44247606Y-85723967D01*
X44244005Y-85720379D01*
X44189912Y-85681795D01*
X44047343Y-85580101D01*
X44047340Y-85580099D01*
X44043197Y-85577144D01*
X43821691Y-85468630D01*
X43816825Y-85467170D01*
X43590305Y-85399210D01*
X43590296Y-85399208D01*
X43585436Y-85397750D01*
X43580404Y-85397105D01*
X43580393Y-85397103D01*
X43345820Y-85367053D01*
X43345809Y-85367052D01*
X43340778Y-85366408D01*
X43335702Y-85366594D01*
X43335699Y-85366594D01*
X43099369Y-85375260D01*
X43099362Y-85375260D01*
X43094285Y-85375447D01*
X43089303Y-85376460D01*
X43089299Y-85376461D01*
X42857564Y-85423608D01*
X42857555Y-85423610D01*
X42852579Y-85424623D01*
X42847830Y-85426436D01*
X42847821Y-85426439D01*
X42639211Y-85506100D01*
X42622150Y-85512615D01*
X42617762Y-85515179D01*
X42617756Y-85515182D01*
X42413582Y-85634492D01*
X42413575Y-85634496D01*
X42409187Y-85637061D01*
X42405277Y-85640306D01*
X42405270Y-85640312D01*
X42223322Y-85791368D01*
X42223318Y-85791371D01*
X42219408Y-85794618D01*
X42216079Y-85798460D01*
X42216077Y-85798463D01*
X42061244Y-85977206D01*
X42061237Y-85977214D01*
X42057911Y-85981055D01*
X42055252Y-85985392D01*
X42055249Y-85985398D01*
X41931693Y-86187022D01*
X41931688Y-86187031D01*
X41929032Y-86191366D01*
X41927121Y-86196071D01*
X41927116Y-86196082D01*
X41838146Y-86415190D01*
X41838142Y-86415200D01*
X41836234Y-86419901D01*
X41835116Y-86424861D01*
X41835115Y-86424865D01*
X41783125Y-86655560D01*
X41783123Y-86655570D01*
X41782007Y-86660525D01*
X41767808Y-86906774D01*
X37875500Y-86906774D01*
X37875500Y-81950000D01*
X41702159Y-81950000D01*
X41721493Y-82195655D01*
X41722628Y-82200384D01*
X41722629Y-82200388D01*
X41777879Y-82430525D01*
X41777881Y-82430533D01*
X41779017Y-82435262D01*
X41873316Y-82662920D01*
X42002067Y-82873023D01*
X42005231Y-82876728D01*
X42005235Y-82876733D01*
X42158934Y-83056691D01*
X42162101Y-83060399D01*
X42165808Y-83063565D01*
X42345766Y-83217264D01*
X42345769Y-83217266D01*
X42349477Y-83220433D01*
X42559580Y-83349184D01*
X42787238Y-83443483D01*
X43026845Y-83501007D01*
X43272500Y-83520341D01*
X43518155Y-83501007D01*
X43757762Y-83443483D01*
X43985420Y-83349184D01*
X44195523Y-83220433D01*
X44382899Y-83060399D01*
X44542933Y-82873023D01*
X44671684Y-82662920D01*
X44765983Y-82435262D01*
X44823507Y-82195655D01*
X44842841Y-81950000D01*
X44823507Y-81704345D01*
X44765983Y-81464738D01*
X44671684Y-81237080D01*
X44542933Y-81026977D01*
X44382899Y-80839601D01*
X44379191Y-80836434D01*
X44199233Y-80682735D01*
X44199228Y-80682731D01*
X44195523Y-80679567D01*
X43985420Y-80550816D01*
X43757762Y-80456517D01*
X43753033Y-80455381D01*
X43753025Y-80455379D01*
X43522888Y-80400129D01*
X43522884Y-80400128D01*
X43518155Y-80398993D01*
X43513302Y-80398611D01*
X43277354Y-80380041D01*
X43272500Y-80379659D01*
X43267646Y-80380041D01*
X43031697Y-80398611D01*
X43031695Y-80398611D01*
X43026845Y-80398993D01*
X43022117Y-80400127D01*
X43022111Y-80400129D01*
X42791974Y-80455379D01*
X42791962Y-80455382D01*
X42787238Y-80456517D01*
X42782741Y-80458379D01*
X42782737Y-80458381D01*
X42564084Y-80548950D01*
X42564079Y-80548952D01*
X42559580Y-80550816D01*
X42555427Y-80553360D01*
X42555421Y-80553364D01*
X42353634Y-80677019D01*
X42353628Y-80677022D01*
X42349477Y-80679567D01*
X42345777Y-80682726D01*
X42345766Y-80682735D01*
X42165808Y-80836434D01*
X42165801Y-80836440D01*
X42162101Y-80839601D01*
X42158940Y-80843301D01*
X42158934Y-80843308D01*
X42005235Y-81023266D01*
X42005226Y-81023277D01*
X42002067Y-81026977D01*
X41999522Y-81031128D01*
X41999519Y-81031134D01*
X41875864Y-81232921D01*
X41875860Y-81232927D01*
X41873316Y-81237080D01*
X41779017Y-81464738D01*
X41777882Y-81469462D01*
X41777879Y-81469474D01*
X41722629Y-81699611D01*
X41722627Y-81699617D01*
X41721493Y-81704345D01*
X41702159Y-81950000D01*
X37875500Y-81950000D01*
X37875500Y-80198687D01*
X37883736Y-80154249D01*
X37907350Y-80115715D01*
X37982533Y-80032216D01*
X38077179Y-79868284D01*
X38135674Y-79688256D01*
X38155460Y-79500000D01*
X38135674Y-79311744D01*
X38077179Y-79131716D01*
X37982533Y-78967784D01*
X37977593Y-78962298D01*
X37907350Y-78884285D01*
X37883736Y-78845751D01*
X37875500Y-78801313D01*
X37875500Y-77734518D01*
X41807500Y-77734518D01*
X41807853Y-77741114D01*
X41813073Y-77789667D01*
X41816611Y-77804641D01*
X41861047Y-77923777D01*
X41869462Y-77939189D01*
X41944998Y-78040092D01*
X41957407Y-78052501D01*
X42058310Y-78128037D01*
X42073722Y-78136452D01*
X42192858Y-78180888D01*
X42207832Y-78184426D01*
X42256385Y-78189646D01*
X42262982Y-78190000D01*
X43006174Y-78190000D01*
X43019049Y-78186549D01*
X43022500Y-78173674D01*
X43522500Y-78173674D01*
X43525950Y-78186549D01*
X43538826Y-78190000D01*
X44282018Y-78190000D01*
X44288614Y-78189646D01*
X44337167Y-78184426D01*
X44352141Y-78180888D01*
X44471277Y-78136452D01*
X44486689Y-78128037D01*
X44587592Y-78052501D01*
X44600001Y-78040092D01*
X44675537Y-77939189D01*
X44683952Y-77923777D01*
X44728388Y-77804641D01*
X44731926Y-77789667D01*
X44737146Y-77741114D01*
X44737500Y-77734518D01*
X44737500Y-77041326D01*
X44734049Y-77028450D01*
X44721174Y-77025000D01*
X43538826Y-77025000D01*
X43525950Y-77028450D01*
X43522500Y-77041326D01*
X43522500Y-78173674D01*
X43022500Y-78173674D01*
X43022500Y-77041326D01*
X43019049Y-77028450D01*
X43006174Y-77025000D01*
X41823826Y-77025000D01*
X41810950Y-77028450D01*
X41807500Y-77041326D01*
X41807500Y-77734518D01*
X37875500Y-77734518D01*
X37875500Y-73675000D01*
X41702159Y-73675000D01*
X41721493Y-73920655D01*
X41722628Y-73925384D01*
X41722629Y-73925388D01*
X41777879Y-74155525D01*
X41777881Y-74155533D01*
X41779017Y-74160262D01*
X41873316Y-74387920D01*
X42002067Y-74598023D01*
X42005231Y-74601728D01*
X42005235Y-74601733D01*
X42158934Y-74781691D01*
X42162101Y-74785399D01*
X42165808Y-74788565D01*
X42345766Y-74942264D01*
X42345769Y-74942266D01*
X42349477Y-74945433D01*
X42559580Y-75074184D01*
X42673664Y-75121439D01*
X42726529Y-75163115D01*
X42749829Y-75226271D01*
X42736696Y-75292295D01*
X42691001Y-75341727D01*
X42626211Y-75360000D01*
X42262982Y-75360000D01*
X42256385Y-75360353D01*
X42207832Y-75365573D01*
X42192858Y-75369111D01*
X42073722Y-75413547D01*
X42058310Y-75421962D01*
X41957407Y-75497498D01*
X41944998Y-75509907D01*
X41869462Y-75610810D01*
X41861047Y-75626222D01*
X41816611Y-75745358D01*
X41813073Y-75760332D01*
X41807853Y-75808885D01*
X41807500Y-75815482D01*
X41807500Y-76508674D01*
X41810950Y-76521549D01*
X41823826Y-76525000D01*
X44721174Y-76525000D01*
X44734049Y-76521549D01*
X44737500Y-76508674D01*
X44737500Y-75815482D01*
X44737146Y-75808885D01*
X44731926Y-75760332D01*
X44728388Y-75745358D01*
X44683952Y-75626222D01*
X44675537Y-75610810D01*
X44600001Y-75509907D01*
X44587592Y-75497498D01*
X44486689Y-75421962D01*
X44471277Y-75413547D01*
X44352141Y-75369111D01*
X44337167Y-75365573D01*
X44288614Y-75360353D01*
X44282018Y-75360000D01*
X43918789Y-75360000D01*
X43853999Y-75341727D01*
X43808304Y-75292295D01*
X43795171Y-75226271D01*
X43818471Y-75163115D01*
X43871336Y-75121439D01*
X43985420Y-75074184D01*
X44195523Y-74945433D01*
X44382899Y-74785399D01*
X44542933Y-74598023D01*
X44671684Y-74387920D01*
X44765983Y-74160262D01*
X44823507Y-73920655D01*
X44842841Y-73675000D01*
X44823507Y-73429345D01*
X44765983Y-73189738D01*
X44671684Y-72962080D01*
X44542933Y-72751977D01*
X44382899Y-72564601D01*
X44379191Y-72561434D01*
X44199233Y-72407735D01*
X44199228Y-72407731D01*
X44195523Y-72404567D01*
X43985420Y-72275816D01*
X43757762Y-72181517D01*
X43753033Y-72180381D01*
X43753025Y-72180379D01*
X43522888Y-72125129D01*
X43522884Y-72125128D01*
X43518155Y-72123993D01*
X43513302Y-72123611D01*
X43277354Y-72105041D01*
X43272500Y-72104659D01*
X43267646Y-72105041D01*
X43031697Y-72123611D01*
X43031695Y-72123611D01*
X43026845Y-72123993D01*
X43022117Y-72125127D01*
X43022111Y-72125129D01*
X42791974Y-72180379D01*
X42791962Y-72180382D01*
X42787238Y-72181517D01*
X42782741Y-72183379D01*
X42782737Y-72183381D01*
X42564084Y-72273950D01*
X42564079Y-72273952D01*
X42559580Y-72275816D01*
X42555427Y-72278360D01*
X42555421Y-72278364D01*
X42353634Y-72402019D01*
X42353628Y-72402022D01*
X42349477Y-72404567D01*
X42345777Y-72407726D01*
X42345766Y-72407735D01*
X42165808Y-72561434D01*
X42165801Y-72561440D01*
X42162101Y-72564601D01*
X42158940Y-72568301D01*
X42158934Y-72568308D01*
X42005235Y-72748266D01*
X42005226Y-72748277D01*
X42002067Y-72751977D01*
X41999522Y-72756128D01*
X41999519Y-72756134D01*
X41875864Y-72957921D01*
X41875860Y-72957927D01*
X41873316Y-72962080D01*
X41779017Y-73189738D01*
X41777882Y-73194462D01*
X41777879Y-73194474D01*
X41722629Y-73424611D01*
X41722627Y-73424617D01*
X41721493Y-73429345D01*
X41702159Y-73675000D01*
X37875500Y-73675000D01*
X37875500Y-70331774D01*
X41767808Y-70331774D01*
X41768347Y-70336825D01*
X41768348Y-70336833D01*
X41793478Y-70571979D01*
X41793479Y-70571986D01*
X41794019Y-70577035D01*
X41795378Y-70581935D01*
X41848952Y-70775118D01*
X41859936Y-70814722D01*
X41862077Y-70819336D01*
X41862080Y-70819342D01*
X41961644Y-71033834D01*
X41963788Y-71038452D01*
X41966651Y-71042649D01*
X41966655Y-71042656D01*
X42041118Y-71151814D01*
X42102786Y-71242216D01*
X42106299Y-71245892D01*
X42249543Y-71395790D01*
X42273197Y-71420542D01*
X42470446Y-71568640D01*
X42689234Y-71682534D01*
X42923687Y-71759165D01*
X43167507Y-71796475D01*
X43414146Y-71793461D01*
X43656982Y-71750206D01*
X43889492Y-71667869D01*
X44105432Y-71548664D01*
X44299004Y-71395790D01*
X44465008Y-71213355D01*
X44598986Y-71006256D01*
X44697341Y-70780055D01*
X44757430Y-70540829D01*
X44777641Y-70295000D01*
X44775844Y-70221474D01*
X44743649Y-69976926D01*
X44671945Y-69740921D01*
X44562658Y-69519795D01*
X44418723Y-69319488D01*
X44415116Y-69315893D01*
X44415113Y-69315890D01*
X44247609Y-69148970D01*
X44247606Y-69148967D01*
X44244005Y-69145379D01*
X44239861Y-69142423D01*
X44047343Y-69005101D01*
X44047340Y-69005099D01*
X44043197Y-69002144D01*
X43821691Y-68893630D01*
X43816825Y-68892170D01*
X43590305Y-68824210D01*
X43590296Y-68824208D01*
X43585436Y-68822750D01*
X43580404Y-68822105D01*
X43580393Y-68822103D01*
X43345820Y-68792053D01*
X43345809Y-68792052D01*
X43340778Y-68791408D01*
X43335702Y-68791594D01*
X43335699Y-68791594D01*
X43099369Y-68800260D01*
X43099362Y-68800260D01*
X43094285Y-68800447D01*
X43089303Y-68801460D01*
X43089299Y-68801461D01*
X42857564Y-68848608D01*
X42857555Y-68848610D01*
X42852579Y-68849623D01*
X42847830Y-68851436D01*
X42847821Y-68851439D01*
X42639211Y-68931100D01*
X42622150Y-68937615D01*
X42617762Y-68940179D01*
X42617756Y-68940182D01*
X42413582Y-69059492D01*
X42413575Y-69059496D01*
X42409187Y-69062061D01*
X42405277Y-69065306D01*
X42405270Y-69065312D01*
X42223322Y-69216368D01*
X42223318Y-69216371D01*
X42219408Y-69219618D01*
X42216079Y-69223460D01*
X42216077Y-69223463D01*
X42061244Y-69402206D01*
X42061237Y-69402214D01*
X42057911Y-69406055D01*
X42055252Y-69410392D01*
X42055249Y-69410398D01*
X41931693Y-69612022D01*
X41931688Y-69612031D01*
X41929032Y-69616366D01*
X41927121Y-69621071D01*
X41927116Y-69621082D01*
X41838146Y-69840190D01*
X41838142Y-69840200D01*
X41836234Y-69844901D01*
X41835116Y-69849861D01*
X41835115Y-69849865D01*
X41783125Y-70080560D01*
X41783123Y-70080570D01*
X41782007Y-70085525D01*
X41767808Y-70331774D01*
X37875500Y-70331774D01*
X37875500Y-65375000D01*
X41702159Y-65375000D01*
X41721493Y-65620655D01*
X41722628Y-65625384D01*
X41722629Y-65625388D01*
X41777879Y-65855525D01*
X41777881Y-65855533D01*
X41779017Y-65860262D01*
X41873316Y-66087920D01*
X42002067Y-66298023D01*
X42005231Y-66301728D01*
X42005235Y-66301733D01*
X42158934Y-66481691D01*
X42162101Y-66485399D01*
X42165808Y-66488565D01*
X42345766Y-66642264D01*
X42345769Y-66642266D01*
X42349477Y-66645433D01*
X42559580Y-66774184D01*
X42787238Y-66868483D01*
X43026845Y-66926007D01*
X43272500Y-66945341D01*
X43518155Y-66926007D01*
X43757762Y-66868483D01*
X43985420Y-66774184D01*
X44195523Y-66645433D01*
X44382899Y-66485399D01*
X44542933Y-66298023D01*
X44671684Y-66087920D01*
X44765983Y-65860262D01*
X44823507Y-65620655D01*
X44842841Y-65375000D01*
X44823507Y-65129345D01*
X44765983Y-64889738D01*
X44671684Y-64662080D01*
X44542933Y-64451977D01*
X44382899Y-64264601D01*
X44313331Y-64205184D01*
X44199233Y-64107735D01*
X44199228Y-64107731D01*
X44195523Y-64104567D01*
X43985420Y-63975816D01*
X43757762Y-63881517D01*
X43753033Y-63880381D01*
X43753025Y-63880379D01*
X43522888Y-63825129D01*
X43522884Y-63825128D01*
X43518155Y-63823993D01*
X43513302Y-63823611D01*
X43277354Y-63805041D01*
X43272500Y-63804659D01*
X43267646Y-63805041D01*
X43031697Y-63823611D01*
X43031695Y-63823611D01*
X43026845Y-63823993D01*
X43022117Y-63825127D01*
X43022111Y-63825129D01*
X42791974Y-63880379D01*
X42791962Y-63880382D01*
X42787238Y-63881517D01*
X42782741Y-63883379D01*
X42782737Y-63883381D01*
X42564084Y-63973950D01*
X42564079Y-63973952D01*
X42559580Y-63975816D01*
X42555427Y-63978360D01*
X42555421Y-63978364D01*
X42353634Y-64102019D01*
X42353628Y-64102022D01*
X42349477Y-64104567D01*
X42345777Y-64107726D01*
X42345766Y-64107735D01*
X42165808Y-64261434D01*
X42165801Y-64261440D01*
X42162101Y-64264601D01*
X42158940Y-64268301D01*
X42158934Y-64268308D01*
X42005235Y-64448266D01*
X42005226Y-64448277D01*
X42002067Y-64451977D01*
X41999522Y-64456128D01*
X41999519Y-64456134D01*
X41875864Y-64657921D01*
X41875860Y-64657927D01*
X41873316Y-64662080D01*
X41779017Y-64889738D01*
X41777882Y-64894462D01*
X41777879Y-64894474D01*
X41722629Y-65124611D01*
X41722627Y-65124617D01*
X41721493Y-65129345D01*
X41702159Y-65375000D01*
X37875500Y-65375000D01*
X37875500Y-61159518D01*
X41793674Y-61159518D01*
X41794027Y-61166114D01*
X41799247Y-61214667D01*
X41802785Y-61229641D01*
X41847221Y-61348777D01*
X41855636Y-61364189D01*
X41931172Y-61465092D01*
X41943581Y-61477501D01*
X42044484Y-61553037D01*
X42059896Y-61561452D01*
X42179032Y-61605888D01*
X42194006Y-61609426D01*
X42242559Y-61614646D01*
X42249156Y-61615000D01*
X42992348Y-61615000D01*
X43005223Y-61611549D01*
X43008674Y-61598674D01*
X43508674Y-61598674D01*
X43512124Y-61611549D01*
X43525000Y-61615000D01*
X44268192Y-61615000D01*
X44274788Y-61614646D01*
X44323341Y-61609426D01*
X44338315Y-61605888D01*
X44457451Y-61561452D01*
X44472863Y-61553037D01*
X44573766Y-61477501D01*
X44586175Y-61465092D01*
X44661711Y-61364189D01*
X44670126Y-61348777D01*
X44714562Y-61229641D01*
X44718100Y-61214667D01*
X44723320Y-61166114D01*
X44723674Y-61159518D01*
X44723674Y-60466326D01*
X44720223Y-60453450D01*
X44707348Y-60450000D01*
X43525000Y-60450000D01*
X43512124Y-60453450D01*
X43508674Y-60466326D01*
X43508674Y-61598674D01*
X43008674Y-61598674D01*
X43008674Y-60466326D01*
X43005223Y-60453450D01*
X42992348Y-60450000D01*
X41810000Y-60450000D01*
X41797124Y-60453450D01*
X41793674Y-60466326D01*
X41793674Y-61159518D01*
X37875500Y-61159518D01*
X37875500Y-57100000D01*
X41688333Y-57100000D01*
X41707667Y-57345655D01*
X41708802Y-57350384D01*
X41708803Y-57350388D01*
X41764053Y-57580525D01*
X41764055Y-57580533D01*
X41765191Y-57585262D01*
X41859490Y-57812920D01*
X41988241Y-58023023D01*
X41991405Y-58026728D01*
X41991409Y-58026733D01*
X42145108Y-58206691D01*
X42148275Y-58210399D01*
X42151982Y-58213565D01*
X42331940Y-58367264D01*
X42331943Y-58367266D01*
X42335651Y-58370433D01*
X42545754Y-58499184D01*
X42659838Y-58546439D01*
X42712703Y-58588115D01*
X42736003Y-58651271D01*
X42722870Y-58717295D01*
X42677175Y-58766727D01*
X42612385Y-58785000D01*
X42249156Y-58785000D01*
X42242559Y-58785353D01*
X42194006Y-58790573D01*
X42179032Y-58794111D01*
X42059896Y-58838547D01*
X42044484Y-58846962D01*
X41943581Y-58922498D01*
X41931172Y-58934907D01*
X41855636Y-59035810D01*
X41847221Y-59051222D01*
X41802785Y-59170358D01*
X41799247Y-59185332D01*
X41794027Y-59233885D01*
X41793674Y-59240482D01*
X41793674Y-59933674D01*
X41797124Y-59946549D01*
X41810000Y-59950000D01*
X44707348Y-59950000D01*
X44720223Y-59946549D01*
X44723674Y-59933674D01*
X44723674Y-59240482D01*
X44723320Y-59233885D01*
X44718100Y-59185332D01*
X44714562Y-59170358D01*
X44670126Y-59051222D01*
X44661711Y-59035810D01*
X44586175Y-58934907D01*
X44573766Y-58922498D01*
X44472863Y-58846962D01*
X44457451Y-58838547D01*
X44338315Y-58794111D01*
X44323341Y-58790573D01*
X44274788Y-58785353D01*
X44268192Y-58785000D01*
X43904963Y-58785000D01*
X43840173Y-58766727D01*
X43794478Y-58717295D01*
X43781345Y-58651271D01*
X43804645Y-58588115D01*
X43857510Y-58546439D01*
X43971594Y-58499184D01*
X44181697Y-58370433D01*
X44369073Y-58210399D01*
X44529107Y-58023023D01*
X44657858Y-57812920D01*
X44752157Y-57585262D01*
X44809681Y-57345655D01*
X44829015Y-57100000D01*
X44809681Y-56854345D01*
X44752157Y-56614738D01*
X44657858Y-56387080D01*
X44529107Y-56176977D01*
X44518305Y-56164330D01*
X44372239Y-55993308D01*
X44369073Y-55989601D01*
X44365365Y-55986434D01*
X44185407Y-55832735D01*
X44185402Y-55832731D01*
X44181697Y-55829567D01*
X43971594Y-55700816D01*
X43743936Y-55606517D01*
X43739207Y-55605381D01*
X43739199Y-55605379D01*
X43509062Y-55550129D01*
X43509058Y-55550128D01*
X43504329Y-55548993D01*
X43499476Y-55548611D01*
X43263528Y-55530041D01*
X43258674Y-55529659D01*
X43253820Y-55530041D01*
X43017871Y-55548611D01*
X43017869Y-55548611D01*
X43013019Y-55548993D01*
X43008291Y-55550127D01*
X43008285Y-55550129D01*
X42778148Y-55605379D01*
X42778136Y-55605382D01*
X42773412Y-55606517D01*
X42768915Y-55608379D01*
X42768911Y-55608381D01*
X42550258Y-55698950D01*
X42550253Y-55698952D01*
X42545754Y-55700816D01*
X42541601Y-55703360D01*
X42541595Y-55703364D01*
X42339808Y-55827019D01*
X42339802Y-55827022D01*
X42335651Y-55829567D01*
X42331951Y-55832726D01*
X42331940Y-55832735D01*
X42151982Y-55986434D01*
X42151975Y-55986440D01*
X42148275Y-55989601D01*
X42145114Y-55993301D01*
X42145108Y-55993308D01*
X41991409Y-56173266D01*
X41991400Y-56173277D01*
X41988241Y-56176977D01*
X41985696Y-56181128D01*
X41985693Y-56181134D01*
X41862038Y-56382921D01*
X41862034Y-56382927D01*
X41859490Y-56387080D01*
X41857626Y-56391579D01*
X41857624Y-56391584D01*
X41767055Y-56610237D01*
X41765191Y-56614738D01*
X41764056Y-56619462D01*
X41764053Y-56619474D01*
X41708803Y-56849611D01*
X41708801Y-56849617D01*
X41707667Y-56854345D01*
X41688333Y-57100000D01*
X37875500Y-57100000D01*
X37875500Y-53756774D01*
X41753982Y-53756774D01*
X41754521Y-53761825D01*
X41754522Y-53761833D01*
X41779652Y-53996979D01*
X41779653Y-53996986D01*
X41780193Y-54002035D01*
X41781552Y-54006935D01*
X41835126Y-54200118D01*
X41846110Y-54239722D01*
X41848251Y-54244336D01*
X41848254Y-54244342D01*
X41944370Y-54451406D01*
X41949962Y-54463452D01*
X41952825Y-54467649D01*
X41952829Y-54467656D01*
X42027292Y-54576814D01*
X42088960Y-54667216D01*
X42092473Y-54670892D01*
X42254811Y-54840771D01*
X42259371Y-54845542D01*
X42456620Y-54993640D01*
X42675408Y-55107534D01*
X42909861Y-55184165D01*
X43153681Y-55221475D01*
X43400320Y-55218461D01*
X43643156Y-55175206D01*
X43875666Y-55092869D01*
X44091606Y-54973664D01*
X44285178Y-54820790D01*
X44451182Y-54638355D01*
X44585160Y-54431256D01*
X44683515Y-54205055D01*
X44743604Y-53965829D01*
X44763815Y-53720000D01*
X44762018Y-53646474D01*
X44729823Y-53401926D01*
X44658119Y-53165921D01*
X44548832Y-52944795D01*
X44404897Y-52744488D01*
X44401290Y-52740893D01*
X44401287Y-52740890D01*
X44233783Y-52573970D01*
X44233780Y-52573967D01*
X44230179Y-52570379D01*
X44140568Y-52506460D01*
X44033517Y-52430101D01*
X44033514Y-52430099D01*
X44029371Y-52427144D01*
X43807865Y-52318630D01*
X43784913Y-52311744D01*
X43576479Y-52249210D01*
X43576470Y-52249208D01*
X43571610Y-52247750D01*
X43566578Y-52247105D01*
X43566567Y-52247103D01*
X43331994Y-52217053D01*
X43331983Y-52217052D01*
X43326952Y-52216408D01*
X43321876Y-52216594D01*
X43321873Y-52216594D01*
X43085543Y-52225260D01*
X43085536Y-52225260D01*
X43080459Y-52225447D01*
X43075477Y-52226460D01*
X43075473Y-52226461D01*
X42843738Y-52273608D01*
X42843729Y-52273610D01*
X42838753Y-52274623D01*
X42834004Y-52276436D01*
X42833995Y-52276439D01*
X42625385Y-52356100D01*
X42608324Y-52362615D01*
X42603936Y-52365179D01*
X42603930Y-52365182D01*
X42399756Y-52484492D01*
X42399749Y-52484496D01*
X42395361Y-52487061D01*
X42391451Y-52490306D01*
X42391444Y-52490312D01*
X42209496Y-52641368D01*
X42209492Y-52641371D01*
X42205582Y-52644618D01*
X42202253Y-52648460D01*
X42202251Y-52648463D01*
X42047418Y-52827206D01*
X42047411Y-52827214D01*
X42044085Y-52831055D01*
X42041426Y-52835392D01*
X42041423Y-52835398D01*
X41917867Y-53037022D01*
X41917862Y-53037031D01*
X41915206Y-53041366D01*
X41913295Y-53046071D01*
X41913290Y-53046082D01*
X41824320Y-53265190D01*
X41824316Y-53265200D01*
X41822408Y-53269901D01*
X41821290Y-53274861D01*
X41821289Y-53274865D01*
X41769299Y-53505560D01*
X41769297Y-53505570D01*
X41768181Y-53510525D01*
X41767888Y-53515604D01*
X41767888Y-53515605D01*
X41758646Y-53675896D01*
X41753982Y-53756774D01*
X37875500Y-53756774D01*
X37875500Y-48800000D01*
X41688333Y-48800000D01*
X41707667Y-49045655D01*
X41708802Y-49050384D01*
X41708803Y-49050388D01*
X41764053Y-49280525D01*
X41764055Y-49280533D01*
X41765191Y-49285262D01*
X41859490Y-49512920D01*
X41988241Y-49723023D01*
X41991405Y-49726728D01*
X41991409Y-49726733D01*
X42145108Y-49906691D01*
X42148275Y-49910399D01*
X42151982Y-49913565D01*
X42331940Y-50067264D01*
X42331943Y-50067266D01*
X42335651Y-50070433D01*
X42545754Y-50199184D01*
X42773412Y-50293483D01*
X43013019Y-50351007D01*
X43258674Y-50370341D01*
X43504329Y-50351007D01*
X43743936Y-50293483D01*
X43971594Y-50199184D01*
X44181697Y-50070433D01*
X44369073Y-49910399D01*
X44529107Y-49723023D01*
X44657858Y-49512920D01*
X44752157Y-49285262D01*
X44809681Y-49045655D01*
X44829015Y-48800000D01*
X44809681Y-48554345D01*
X44752157Y-48314738D01*
X44657858Y-48087080D01*
X44529107Y-47876977D01*
X44369073Y-47689601D01*
X44323980Y-47651088D01*
X44185407Y-47532735D01*
X44185402Y-47532731D01*
X44181697Y-47529567D01*
X43971594Y-47400816D01*
X43743936Y-47306517D01*
X43739207Y-47305381D01*
X43739199Y-47305379D01*
X43509062Y-47250129D01*
X43509058Y-47250128D01*
X43504329Y-47248993D01*
X43499476Y-47248611D01*
X43263528Y-47230041D01*
X43258674Y-47229659D01*
X43253820Y-47230041D01*
X43017871Y-47248611D01*
X43017869Y-47248611D01*
X43013019Y-47248993D01*
X43008291Y-47250127D01*
X43008285Y-47250129D01*
X42778148Y-47305379D01*
X42778136Y-47305382D01*
X42773412Y-47306517D01*
X42768915Y-47308379D01*
X42768911Y-47308381D01*
X42550258Y-47398950D01*
X42550253Y-47398952D01*
X42545754Y-47400816D01*
X42541601Y-47403360D01*
X42541595Y-47403364D01*
X42339808Y-47527019D01*
X42339802Y-47527022D01*
X42335651Y-47529567D01*
X42331951Y-47532726D01*
X42331940Y-47532735D01*
X42151982Y-47686434D01*
X42151975Y-47686440D01*
X42148275Y-47689601D01*
X42145114Y-47693301D01*
X42145108Y-47693308D01*
X41991409Y-47873266D01*
X41991400Y-47873277D01*
X41988241Y-47876977D01*
X41985696Y-47881128D01*
X41985693Y-47881134D01*
X41862038Y-48082921D01*
X41862034Y-48082927D01*
X41859490Y-48087080D01*
X41765191Y-48314738D01*
X41764056Y-48319462D01*
X41764053Y-48319474D01*
X41708803Y-48549611D01*
X41708801Y-48549617D01*
X41707667Y-48554345D01*
X41688333Y-48800000D01*
X37875500Y-48800000D01*
X37875500Y-47698687D01*
X37883736Y-47654249D01*
X37907350Y-47615715D01*
X37982533Y-47532216D01*
X38077179Y-47368284D01*
X38135674Y-47188256D01*
X38155460Y-47000000D01*
X38135674Y-46811744D01*
X38077179Y-46631716D01*
X37982533Y-46467784D01*
X37855871Y-46327112D01*
X37850613Y-46323292D01*
X37850611Y-46323290D01*
X37707988Y-46219669D01*
X37707987Y-46219668D01*
X37702730Y-46215849D01*
X37696792Y-46213205D01*
X37535745Y-46141501D01*
X37535740Y-46141499D01*
X37529803Y-46138856D01*
X37523444Y-46137504D01*
X37523440Y-46137503D01*
X37351008Y-46100852D01*
X37351005Y-46100851D01*
X37344646Y-46099500D01*
X37155354Y-46099500D01*
X37148995Y-46100851D01*
X37148991Y-46100852D01*
X36976559Y-46137503D01*
X36976552Y-46137505D01*
X36970197Y-46138856D01*
X36964262Y-46141498D01*
X36964254Y-46141501D01*
X36803207Y-46213205D01*
X36803202Y-46213207D01*
X36797270Y-46215849D01*
X36792016Y-46219665D01*
X36792011Y-46219669D01*
X36649388Y-46323290D01*
X36649381Y-46323295D01*
X36644129Y-46327112D01*
X36639784Y-46331937D01*
X36639779Y-46331942D01*
X36521813Y-46462956D01*
X36521808Y-46462962D01*
X36517467Y-46467784D01*
X36514222Y-46473404D01*
X36514218Y-46473410D01*
X36426069Y-46626089D01*
X36426066Y-46626094D01*
X36422821Y-46631716D01*
X36420815Y-46637888D01*
X36420813Y-46637894D01*
X36366333Y-46805564D01*
X36366331Y-46805573D01*
X36364326Y-46811744D01*
X36363648Y-46818194D01*
X36363646Y-46818204D01*
X36345962Y-46986464D01*
X36344540Y-47000000D01*
X36345219Y-47006460D01*
X36363646Y-47181795D01*
X36363647Y-47181803D01*
X36364326Y-47188256D01*
X36366331Y-47194428D01*
X36366333Y-47194435D01*
X36403357Y-47308381D01*
X36422821Y-47368284D01*
X36517467Y-47532216D01*
X36521811Y-47537041D01*
X36521813Y-47537043D01*
X36592650Y-47615715D01*
X36616264Y-47654249D01*
X36624500Y-47698687D01*
X36624500Y-51885145D01*
X36611190Y-51941036D01*
X36574116Y-51984928D01*
X36521239Y-52007398D01*
X36463909Y-52003623D01*
X36414435Y-51974413D01*
X36269062Y-51834255D01*
X36269056Y-51834250D01*
X36265795Y-51831106D01*
X36044302Y-51672642D01*
X35975957Y-51637503D01*
X35806132Y-51550189D01*
X35806125Y-51550186D01*
X35802097Y-51548115D01*
X35797812Y-51546653D01*
X35797807Y-51546651D01*
X35548624Y-51461642D01*
X35548622Y-51461641D01*
X35544341Y-51460181D01*
X35522179Y-51456087D01*
X35280989Y-51411537D01*
X35280978Y-51411535D01*
X35276529Y-51410714D01*
X35272000Y-51410548D01*
X35271996Y-51410548D01*
X35008897Y-51400933D01*
X35008890Y-51400933D01*
X35004369Y-51400768D01*
X34999872Y-51401262D01*
X34999866Y-51401263D01*
X34738172Y-51430057D01*
X34738163Y-51430058D01*
X34733661Y-51430554D01*
X34729282Y-51431698D01*
X34729270Y-51431701D01*
X34474549Y-51498294D01*
X34474546Y-51498295D01*
X34470174Y-51499438D01*
X34466024Y-51501201D01*
X34466011Y-51501206D01*
X34223691Y-51604182D01*
X34223683Y-51604185D01*
X34219525Y-51605953D01*
X34215668Y-51608306D01*
X34215658Y-51608312D01*
X33990928Y-51745463D01*
X33990918Y-51745469D01*
X33987056Y-51747827D01*
X33983571Y-51750726D01*
X33983567Y-51750730D01*
X33781206Y-51919136D01*
X33781200Y-51919141D01*
X33777721Y-51922037D01*
X33774703Y-51925404D01*
X33774699Y-51925409D01*
X33598998Y-52121502D01*
X33598992Y-52121508D01*
X33595982Y-52124869D01*
X33593489Y-52128636D01*
X33593486Y-52128641D01*
X33448211Y-52348224D01*
X33448208Y-52348229D01*
X33445712Y-52352002D01*
X33443795Y-52356089D01*
X33443790Y-52356100D01*
X33332033Y-52594499D01*
X33332030Y-52594506D01*
X33330114Y-52598594D01*
X33328814Y-52602912D01*
X33328810Y-52602925D01*
X33252958Y-52855050D01*
X33251653Y-52859389D01*
X33250994Y-52863865D01*
X33250993Y-52863871D01*
X33212658Y-53124354D01*
X33212657Y-53124361D01*
X33212000Y-53128829D01*
X33212000Y-53853000D01*
X33212164Y-53855251D01*
X33212165Y-53855257D01*
X33221302Y-53980093D01*
X33226903Y-54056616D01*
X33227886Y-54061031D01*
X33227888Y-54061041D01*
X33285130Y-54318011D01*
X33285133Y-54318023D01*
X33286118Y-54322442D01*
X33287737Y-54326676D01*
X33287738Y-54326678D01*
X33338283Y-54458834D01*
X33383407Y-54576814D01*
X33385625Y-54580766D01*
X33514478Y-54810359D01*
X33514481Y-54810364D01*
X33516696Y-54814310D01*
X33683145Y-55029868D01*
X33686406Y-55033012D01*
X33875937Y-55215744D01*
X33875942Y-55215748D01*
X33879205Y-55218894D01*
X34100698Y-55377358D01*
X34342903Y-55501885D01*
X34600659Y-55589819D01*
X34868471Y-55639286D01*
X35140631Y-55649232D01*
X35411339Y-55619446D01*
X35674826Y-55550562D01*
X35925475Y-55444047D01*
X36157944Y-55302173D01*
X36367279Y-55127963D01*
X36370308Y-55124583D01*
X36408149Y-55082351D01*
X36457051Y-55048960D01*
X36515862Y-55042054D01*
X36571169Y-55063208D01*
X36610361Y-55107597D01*
X36624500Y-55165099D01*
X36624500Y-68460145D01*
X36611190Y-68516036D01*
X36574116Y-68559928D01*
X36521239Y-68582398D01*
X36463909Y-68578623D01*
X36414435Y-68549413D01*
X36269062Y-68409255D01*
X36269056Y-68409250D01*
X36265795Y-68406106D01*
X36044302Y-68247642D01*
X36015736Y-68232955D01*
X35806132Y-68125189D01*
X35806125Y-68125186D01*
X35802097Y-68123115D01*
X35797812Y-68121653D01*
X35797807Y-68121651D01*
X35548624Y-68036642D01*
X35548622Y-68036641D01*
X35544341Y-68035181D01*
X35522179Y-68031087D01*
X35280989Y-67986537D01*
X35280978Y-67986535D01*
X35276529Y-67985714D01*
X35272000Y-67985548D01*
X35271996Y-67985548D01*
X35008897Y-67975933D01*
X35008890Y-67975933D01*
X35004369Y-67975768D01*
X34999872Y-67976262D01*
X34999866Y-67976263D01*
X34738172Y-68005057D01*
X34738163Y-68005058D01*
X34733661Y-68005554D01*
X34729282Y-68006698D01*
X34729270Y-68006701D01*
X34474549Y-68073294D01*
X34474546Y-68073295D01*
X34470174Y-68074438D01*
X34466024Y-68076201D01*
X34466011Y-68076206D01*
X34223691Y-68179182D01*
X34223683Y-68179185D01*
X34219525Y-68180953D01*
X34215668Y-68183306D01*
X34215658Y-68183312D01*
X33990928Y-68320463D01*
X33990918Y-68320469D01*
X33987056Y-68322827D01*
X33983571Y-68325726D01*
X33983567Y-68325730D01*
X33781206Y-68494136D01*
X33781200Y-68494141D01*
X33777721Y-68497037D01*
X33774703Y-68500404D01*
X33774699Y-68500409D01*
X33598998Y-68696502D01*
X33598992Y-68696508D01*
X33595982Y-68699869D01*
X33593489Y-68703636D01*
X33593486Y-68703641D01*
X33448211Y-68923224D01*
X33448208Y-68923229D01*
X33445712Y-68927002D01*
X33443795Y-68931089D01*
X33443790Y-68931100D01*
X33332033Y-69169499D01*
X33332030Y-69169506D01*
X33330114Y-69173594D01*
X33328814Y-69177912D01*
X33328810Y-69177925D01*
X33252958Y-69430050D01*
X33251653Y-69434389D01*
X33250994Y-69438865D01*
X33250993Y-69438871D01*
X33212658Y-69699354D01*
X33212657Y-69699361D01*
X33212000Y-69703829D01*
X33212000Y-70428000D01*
X33212164Y-70430251D01*
X33212165Y-70430257D01*
X33222538Y-70571979D01*
X33226903Y-70631616D01*
X33227886Y-70636031D01*
X33227888Y-70636041D01*
X33285130Y-70893011D01*
X33285133Y-70893023D01*
X33286118Y-70897442D01*
X33287737Y-70901676D01*
X33287738Y-70901678D01*
X33337008Y-71030500D01*
X33383407Y-71151814D01*
X33385625Y-71155766D01*
X33514478Y-71385359D01*
X33514481Y-71385364D01*
X33516696Y-71389310D01*
X33683145Y-71604868D01*
X33686406Y-71608012D01*
X33875937Y-71790744D01*
X33875942Y-71790748D01*
X33879205Y-71793894D01*
X34100698Y-71952358D01*
X34342903Y-72076885D01*
X34600659Y-72164819D01*
X34868471Y-72214286D01*
X35140631Y-72224232D01*
X35411339Y-72194446D01*
X35674826Y-72125562D01*
X35925475Y-72019047D01*
X36157944Y-71877173D01*
X36367279Y-71702963D01*
X36370308Y-71699583D01*
X36408149Y-71657351D01*
X36457051Y-71623960D01*
X36515862Y-71617054D01*
X36571169Y-71638208D01*
X36610361Y-71682597D01*
X36624500Y-71740099D01*
X36624500Y-78801313D01*
X36616264Y-78845751D01*
X36592650Y-78884285D01*
X36521813Y-78962956D01*
X36521808Y-78962962D01*
X36517467Y-78967784D01*
X36514222Y-78973404D01*
X36514218Y-78973410D01*
X36426069Y-79126089D01*
X36426066Y-79126094D01*
X36422821Y-79131716D01*
X36420815Y-79137888D01*
X36420813Y-79137894D01*
X36366333Y-79305564D01*
X36366331Y-79305573D01*
X36364326Y-79311744D01*
X36363648Y-79318194D01*
X36363646Y-79318204D01*
X36345962Y-79486464D01*
X36344540Y-79500000D01*
X36345219Y-79506460D01*
X36363646Y-79681795D01*
X36363647Y-79681803D01*
X36364326Y-79688256D01*
X36366331Y-79694428D01*
X36366333Y-79694435D01*
X36420813Y-79862105D01*
X36422821Y-79868284D01*
X36517467Y-80032216D01*
X36521811Y-80037041D01*
X36521813Y-80037043D01*
X36592650Y-80115715D01*
X36616264Y-80154249D01*
X36624500Y-80198687D01*
X36624500Y-85035145D01*
X36611190Y-85091036D01*
X36574116Y-85134928D01*
X36521239Y-85157398D01*
X36463909Y-85153623D01*
X36414435Y-85124413D01*
X36269062Y-84984255D01*
X36269056Y-84984250D01*
X36265795Y-84981106D01*
X36044302Y-84822642D01*
X36015736Y-84807955D01*
X35806132Y-84700189D01*
X35806125Y-84700186D01*
X35802097Y-84698115D01*
X35797812Y-84696653D01*
X35797807Y-84696651D01*
X35548624Y-84611642D01*
X35548622Y-84611641D01*
X35544341Y-84610181D01*
X35519177Y-84605533D01*
X35280989Y-84561537D01*
X35280978Y-84561535D01*
X35276529Y-84560714D01*
X35272000Y-84560548D01*
X35271996Y-84560548D01*
X35008897Y-84550933D01*
X35008890Y-84550933D01*
X35004369Y-84550768D01*
X34999872Y-84551262D01*
X34999866Y-84551263D01*
X34738172Y-84580057D01*
X34738163Y-84580058D01*
X34733661Y-84580554D01*
X34729282Y-84581698D01*
X34729270Y-84581701D01*
X34474549Y-84648294D01*
X34474546Y-84648295D01*
X34470174Y-84649438D01*
X34466024Y-84651201D01*
X34466011Y-84651206D01*
X34223691Y-84754182D01*
X34223683Y-84754185D01*
X34219525Y-84755953D01*
X34215668Y-84758306D01*
X34215658Y-84758312D01*
X33990928Y-84895463D01*
X33990918Y-84895469D01*
X33987056Y-84897827D01*
X33983571Y-84900726D01*
X33983567Y-84900730D01*
X33781206Y-85069136D01*
X33781200Y-85069141D01*
X33777721Y-85072037D01*
X33774702Y-85075406D01*
X33774692Y-85075416D01*
X33614266Y-85254461D01*
X33567787Y-85286916D01*
X33511719Y-85295293D01*
X33457783Y-85277840D01*
X33417250Y-85238206D01*
X33398594Y-85184674D01*
X33386353Y-85068204D01*
X33386352Y-85068203D01*
X33385674Y-85061744D01*
X33327179Y-84881716D01*
X33232533Y-84717784D01*
X33189259Y-84669724D01*
X33110220Y-84581942D01*
X33110219Y-84581941D01*
X33105871Y-84577112D01*
X33100613Y-84573292D01*
X33100611Y-84573290D01*
X32957988Y-84469669D01*
X32957987Y-84469668D01*
X32952730Y-84465849D01*
X32930014Y-84455735D01*
X32785745Y-84391501D01*
X32785740Y-84391499D01*
X32779803Y-84388856D01*
X32773444Y-84387504D01*
X32773440Y-84387503D01*
X32601008Y-84350852D01*
X32601005Y-84350851D01*
X32594646Y-84349500D01*
X32405354Y-84349500D01*
X32398995Y-84350851D01*
X32398991Y-84350852D01*
X32226559Y-84387503D01*
X32226552Y-84387505D01*
X32220197Y-84388856D01*
X32214262Y-84391498D01*
X32214254Y-84391501D01*
X32053207Y-84463205D01*
X32053202Y-84463207D01*
X32047270Y-84465849D01*
X32042016Y-84469665D01*
X32042011Y-84469669D01*
X31899388Y-84573290D01*
X31899381Y-84573295D01*
X31894129Y-84577112D01*
X31889784Y-84581937D01*
X31889779Y-84581942D01*
X31771813Y-84712956D01*
X31771808Y-84712962D01*
X31767467Y-84717784D01*
X31764222Y-84723404D01*
X31764218Y-84723410D01*
X31676069Y-84876089D01*
X31676066Y-84876094D01*
X31672821Y-84881716D01*
X31670815Y-84887888D01*
X31670813Y-84887894D01*
X31616333Y-85055564D01*
X31616331Y-85055573D01*
X31614326Y-85061744D01*
X31613647Y-85068203D01*
X31613647Y-85068204D01*
X31596678Y-85229650D01*
X31585278Y-85270072D01*
X31561038Y-85304369D01*
X28587181Y-88278228D01*
X28537818Y-88308478D01*
X28480102Y-88313020D01*
X28426615Y-88290865D01*
X28389015Y-88246842D01*
X28375500Y-88190547D01*
X28375500Y-86198687D01*
X28383736Y-86154249D01*
X28407350Y-86115715D01*
X28422077Y-86099359D01*
X28482533Y-86032216D01*
X28577179Y-85868284D01*
X28635674Y-85688256D01*
X28653321Y-85520345D01*
X28664721Y-85479926D01*
X28688958Y-85445631D01*
X29384811Y-84749778D01*
X29392981Y-84742344D01*
X29399377Y-84738286D01*
X29445418Y-84689256D01*
X29448035Y-84686554D01*
X29467620Y-84666971D01*
X29470085Y-84663792D01*
X29477667Y-84654916D01*
X29481151Y-84651206D01*
X29507562Y-84623082D01*
X29517213Y-84605523D01*
X29527890Y-84589270D01*
X29540173Y-84573436D01*
X29557518Y-84533352D01*
X29562651Y-84522871D01*
X29583697Y-84484592D01*
X29588679Y-84465184D01*
X29594982Y-84446776D01*
X29602937Y-84428396D01*
X29609771Y-84385244D01*
X29612133Y-84373838D01*
X29623000Y-84331519D01*
X29623000Y-84311483D01*
X29624527Y-84292085D01*
X29626439Y-84280013D01*
X29626438Y-84280013D01*
X29627660Y-84272304D01*
X29623550Y-84228824D01*
X29623000Y-84217155D01*
X29623000Y-79031429D01*
X29636749Y-78974678D01*
X29674946Y-78930512D01*
X29729122Y-78908725D01*
X29787262Y-78914147D01*
X29927519Y-78962298D01*
X30156451Y-79000500D01*
X30383416Y-79000500D01*
X30388549Y-79000500D01*
X30617481Y-78962298D01*
X30837003Y-78886936D01*
X31041126Y-78776470D01*
X31218479Y-78638431D01*
X31270904Y-78614579D01*
X31328453Y-78616986D01*
X31378706Y-78645135D01*
X31410820Y-78692952D01*
X31426048Y-78733779D01*
X31434462Y-78749189D01*
X31509998Y-78850092D01*
X31522407Y-78862501D01*
X31623310Y-78938037D01*
X31638722Y-78946452D01*
X31757858Y-78990888D01*
X31772832Y-78994426D01*
X31821385Y-78999646D01*
X31827982Y-79000000D01*
X32506174Y-79000000D01*
X32519049Y-78996549D01*
X32522500Y-78983674D01*
X33022500Y-78983674D01*
X33025950Y-78996549D01*
X33038826Y-79000000D01*
X33717018Y-79000000D01*
X33723614Y-78999646D01*
X33772167Y-78994426D01*
X33787141Y-78990888D01*
X33906277Y-78946452D01*
X33921689Y-78938037D01*
X34022592Y-78862501D01*
X34035001Y-78850092D01*
X34110537Y-78749189D01*
X34118952Y-78733777D01*
X34163388Y-78614641D01*
X34166926Y-78599667D01*
X34172146Y-78551114D01*
X34172500Y-78544518D01*
X34172500Y-77866326D01*
X34169049Y-77853450D01*
X34156174Y-77850000D01*
X33038826Y-77850000D01*
X33025950Y-77853450D01*
X33022500Y-77866326D01*
X33022500Y-78983674D01*
X32522500Y-78983674D01*
X32522500Y-77333674D01*
X33022500Y-77333674D01*
X33025950Y-77346549D01*
X33038826Y-77350000D01*
X34156174Y-77350000D01*
X34169049Y-77346549D01*
X34172500Y-77333674D01*
X34172500Y-76655482D01*
X34172146Y-76648885D01*
X34166926Y-76600332D01*
X34163388Y-76585358D01*
X34118952Y-76466222D01*
X34110537Y-76450810D01*
X34035001Y-76349907D01*
X34022592Y-76337498D01*
X33921689Y-76261962D01*
X33906277Y-76253547D01*
X33787141Y-76209111D01*
X33772167Y-76205573D01*
X33723614Y-76200353D01*
X33717018Y-76200000D01*
X33038826Y-76200000D01*
X33025950Y-76203450D01*
X33022500Y-76216326D01*
X33022500Y-77333674D01*
X32522500Y-77333674D01*
X32522500Y-76216326D01*
X32519049Y-76203450D01*
X32506174Y-76200000D01*
X31827982Y-76200000D01*
X31821385Y-76200353D01*
X31772832Y-76205573D01*
X31757858Y-76209111D01*
X31638722Y-76253547D01*
X31623310Y-76261962D01*
X31522407Y-76337498D01*
X31509998Y-76349907D01*
X31434462Y-76450810D01*
X31426045Y-76466224D01*
X31410819Y-76507048D01*
X31378706Y-76554864D01*
X31328453Y-76583013D01*
X31270904Y-76585420D01*
X31218476Y-76561566D01*
X31045180Y-76426684D01*
X31045169Y-76426676D01*
X31041126Y-76423530D01*
X30905083Y-76349907D01*
X30841507Y-76315501D01*
X30841502Y-76315499D01*
X30837003Y-76313064D01*
X30832157Y-76311400D01*
X30832154Y-76311399D01*
X30622334Y-76239368D01*
X30622333Y-76239367D01*
X30617481Y-76237702D01*
X30612431Y-76236859D01*
X30612422Y-76236857D01*
X30393611Y-76200344D01*
X30393602Y-76200343D01*
X30388549Y-76199500D01*
X30156451Y-76199500D01*
X30151398Y-76200343D01*
X30151388Y-76200344D01*
X29932577Y-76236857D01*
X29932565Y-76236859D01*
X29927519Y-76237702D01*
X29922669Y-76239366D01*
X29922665Y-76239368D01*
X29787263Y-76285852D01*
X29729122Y-76291275D01*
X29674946Y-76269488D01*
X29636749Y-76225322D01*
X29623000Y-76168571D01*
X29623000Y-64060187D01*
X29623521Y-64049131D01*
X29625173Y-64041745D01*
X29623061Y-63974539D01*
X29623000Y-63970644D01*
X29623000Y-63946953D01*
X29623000Y-63943062D01*
X29622498Y-63939089D01*
X29621580Y-63927430D01*
X29620454Y-63891585D01*
X29620209Y-63883785D01*
X29614620Y-63864552D01*
X29610674Y-63845495D01*
X29609141Y-63833356D01*
X29608164Y-63825620D01*
X29592082Y-63785003D01*
X29588303Y-63773963D01*
X29578295Y-63739514D01*
X29578293Y-63739511D01*
X29576118Y-63732022D01*
X29565917Y-63714772D01*
X29557363Y-63697313D01*
X29549986Y-63678680D01*
X29524308Y-63643337D01*
X29517901Y-63633583D01*
X29499642Y-63602708D01*
X29499641Y-63602706D01*
X29495670Y-63595992D01*
X29481505Y-63581827D01*
X29468870Y-63567034D01*
X29457094Y-63550825D01*
X29451083Y-63545852D01*
X29451081Y-63545850D01*
X29423441Y-63522985D01*
X29414800Y-63515122D01*
X28373232Y-62473553D01*
X28343222Y-62424920D01*
X28338209Y-62367994D01*
X28359257Y-62314865D01*
X28401894Y-62276818D01*
X28541126Y-62201470D01*
X28724284Y-62058913D01*
X28881479Y-61888153D01*
X28918690Y-61831196D01*
X28963482Y-61789962D01*
X29022500Y-61775017D01*
X29081518Y-61789962D01*
X29126309Y-61831196D01*
X29160715Y-61883860D01*
X29160722Y-61883869D01*
X29163521Y-61888153D01*
X29320716Y-62058913D01*
X29503874Y-62201470D01*
X29707997Y-62311936D01*
X29927519Y-62387298D01*
X30156451Y-62425500D01*
X30383416Y-62425500D01*
X30388549Y-62425500D01*
X30617481Y-62387298D01*
X30837003Y-62311936D01*
X31041126Y-62201470D01*
X31218479Y-62063431D01*
X31270904Y-62039579D01*
X31328453Y-62041986D01*
X31378706Y-62070135D01*
X31410820Y-62117952D01*
X31426048Y-62158779D01*
X31434462Y-62174189D01*
X31509998Y-62275092D01*
X31522407Y-62287501D01*
X31623310Y-62363037D01*
X31638722Y-62371452D01*
X31757858Y-62415888D01*
X31772832Y-62419426D01*
X31821385Y-62424646D01*
X31827982Y-62425000D01*
X32506174Y-62425000D01*
X32519049Y-62421549D01*
X32522500Y-62408674D01*
X33022500Y-62408674D01*
X33025950Y-62421549D01*
X33038826Y-62425000D01*
X33717018Y-62425000D01*
X33723614Y-62424646D01*
X33772167Y-62419426D01*
X33787141Y-62415888D01*
X33906277Y-62371452D01*
X33921689Y-62363037D01*
X34022592Y-62287501D01*
X34035001Y-62275092D01*
X34110537Y-62174189D01*
X34118952Y-62158777D01*
X34163388Y-62039641D01*
X34166926Y-62024667D01*
X34172146Y-61976114D01*
X34172500Y-61969518D01*
X34172500Y-61291326D01*
X34169049Y-61278450D01*
X34156174Y-61275000D01*
X33038826Y-61275000D01*
X33025950Y-61278450D01*
X33022500Y-61291326D01*
X33022500Y-62408674D01*
X32522500Y-62408674D01*
X32522500Y-60758674D01*
X33022500Y-60758674D01*
X33025950Y-60771549D01*
X33038826Y-60775000D01*
X34156174Y-60775000D01*
X34169049Y-60771549D01*
X34172500Y-60758674D01*
X34172500Y-60080482D01*
X34172146Y-60073885D01*
X34166926Y-60025332D01*
X34163388Y-60010358D01*
X34118952Y-59891222D01*
X34110537Y-59875810D01*
X34035001Y-59774907D01*
X34022592Y-59762498D01*
X33921689Y-59686962D01*
X33906277Y-59678547D01*
X33787141Y-59634111D01*
X33772167Y-59630573D01*
X33723614Y-59625353D01*
X33717018Y-59625000D01*
X33038826Y-59625000D01*
X33025950Y-59628450D01*
X33022500Y-59641326D01*
X33022500Y-60758674D01*
X32522500Y-60758674D01*
X32522500Y-59641326D01*
X32519049Y-59628450D01*
X32506174Y-59625000D01*
X31827982Y-59625000D01*
X31821385Y-59625353D01*
X31772832Y-59630573D01*
X31757858Y-59634111D01*
X31638722Y-59678547D01*
X31623310Y-59686962D01*
X31522407Y-59762498D01*
X31509998Y-59774907D01*
X31434462Y-59875810D01*
X31426045Y-59891224D01*
X31410819Y-59932048D01*
X31378706Y-59979864D01*
X31328453Y-60008013D01*
X31270904Y-60010420D01*
X31218476Y-59986566D01*
X31045180Y-59851684D01*
X31045169Y-59851676D01*
X31041126Y-59848530D01*
X30904331Y-59774500D01*
X30841507Y-59740501D01*
X30841502Y-59740499D01*
X30837003Y-59738064D01*
X30832157Y-59736400D01*
X30832154Y-59736399D01*
X30622334Y-59664368D01*
X30622333Y-59664367D01*
X30617481Y-59662702D01*
X30612431Y-59661859D01*
X30612422Y-59661857D01*
X30393611Y-59625344D01*
X30393602Y-59625343D01*
X30388549Y-59624500D01*
X30156451Y-59624500D01*
X30151398Y-59625343D01*
X30151388Y-59625344D01*
X29932577Y-59661857D01*
X29932565Y-59661859D01*
X29927519Y-59662702D01*
X29922669Y-59664366D01*
X29922665Y-59664368D01*
X29712845Y-59736399D01*
X29712837Y-59736402D01*
X29707997Y-59738064D01*
X29703501Y-59740496D01*
X29703492Y-59740501D01*
X29508382Y-59846090D01*
X29508378Y-59846092D01*
X29503874Y-59848530D01*
X29499834Y-59851674D01*
X29499827Y-59851679D01*
X29324763Y-59987936D01*
X29324755Y-59987943D01*
X29320716Y-59991087D01*
X29317246Y-59994855D01*
X29317242Y-59994860D01*
X29166991Y-60158077D01*
X29166988Y-60158080D01*
X29163521Y-60161847D01*
X29160726Y-60166124D01*
X29160719Y-60166134D01*
X29126309Y-60218804D01*
X29081517Y-60260037D01*
X29022500Y-60274982D01*
X28963483Y-60260037D01*
X28918691Y-60218804D01*
X28884280Y-60166134D01*
X28884278Y-60166132D01*
X28881479Y-60161847D01*
X28724284Y-59991087D01*
X28718475Y-59986566D01*
X28545172Y-59851679D01*
X28545171Y-59851678D01*
X28541126Y-59848530D01*
X28404331Y-59774500D01*
X28341507Y-59740501D01*
X28341502Y-59740499D01*
X28337003Y-59738064D01*
X28332157Y-59736400D01*
X28332154Y-59736399D01*
X28122334Y-59664368D01*
X28122333Y-59664367D01*
X28117481Y-59662702D01*
X28112431Y-59661859D01*
X28112422Y-59661857D01*
X27893611Y-59625344D01*
X27893602Y-59625343D01*
X27888549Y-59624500D01*
X27656451Y-59624500D01*
X27651398Y-59625343D01*
X27651388Y-59625344D01*
X27427519Y-59662702D01*
X27427264Y-59661179D01*
X27366871Y-59659477D01*
X27310331Y-59622400D01*
X27281648Y-59561174D01*
X27289347Y-59494002D01*
X27331138Y-59440857D01*
X27355871Y-59422888D01*
X27482533Y-59282216D01*
X27577179Y-59118284D01*
X27635674Y-58938256D01*
X27653321Y-58770344D01*
X27664721Y-58729925D01*
X27688958Y-58695630D01*
X32387311Y-53997278D01*
X32395481Y-53989844D01*
X32401877Y-53985786D01*
X32447918Y-53936756D01*
X32450535Y-53934054D01*
X32470120Y-53914471D01*
X32472585Y-53911292D01*
X32480167Y-53902416D01*
X32510062Y-53870582D01*
X32519713Y-53853023D01*
X32530390Y-53836770D01*
X32542673Y-53820936D01*
X32560018Y-53780852D01*
X32565151Y-53770371D01*
X32586197Y-53732092D01*
X32591179Y-53712684D01*
X32597482Y-53694276D01*
X32605437Y-53675896D01*
X32612271Y-53632744D01*
X32614633Y-53621338D01*
X32625500Y-53579019D01*
X32625500Y-53558983D01*
X32627027Y-53539585D01*
X32628939Y-53527513D01*
X32628938Y-53527513D01*
X32630160Y-53519804D01*
X32626050Y-53476324D01*
X32625500Y-53464655D01*
X32625500Y-53448687D01*
X32633736Y-53404249D01*
X32657350Y-53365715D01*
X32701392Y-53316801D01*
X32732533Y-53282216D01*
X32827179Y-53118284D01*
X32885674Y-52938256D01*
X32905460Y-52750000D01*
X32885674Y-52561744D01*
X32827179Y-52381716D01*
X32732533Y-52217784D01*
X32605871Y-52077112D01*
X32600613Y-52073292D01*
X32600611Y-52073290D01*
X32457988Y-51969669D01*
X32457987Y-51969668D01*
X32452730Y-51965849D01*
X32446792Y-51963205D01*
X32285745Y-51891501D01*
X32285740Y-51891499D01*
X32279803Y-51888856D01*
X32273444Y-51887504D01*
X32273440Y-51887503D01*
X32101008Y-51850852D01*
X32101005Y-51850851D01*
X32094646Y-51849500D01*
X31905354Y-51849500D01*
X31898995Y-51850851D01*
X31898991Y-51850852D01*
X31726559Y-51887503D01*
X31726552Y-51887505D01*
X31720197Y-51888856D01*
X31714262Y-51891498D01*
X31714254Y-51891501D01*
X31553207Y-51963205D01*
X31553202Y-51963207D01*
X31547270Y-51965849D01*
X31542016Y-51969665D01*
X31542011Y-51969669D01*
X31399388Y-52073290D01*
X31399381Y-52073295D01*
X31394129Y-52077112D01*
X31389784Y-52081937D01*
X31389779Y-52081942D01*
X31271813Y-52212956D01*
X31271808Y-52212962D01*
X31267467Y-52217784D01*
X31264222Y-52223404D01*
X31264218Y-52223410D01*
X31176069Y-52376089D01*
X31176066Y-52376094D01*
X31172821Y-52381716D01*
X31170815Y-52387888D01*
X31170813Y-52387894D01*
X31116333Y-52555564D01*
X31116331Y-52555573D01*
X31114326Y-52561744D01*
X31113648Y-52568194D01*
X31113646Y-52568204D01*
X31101708Y-52681795D01*
X31094540Y-52750000D01*
X31095219Y-52756460D01*
X31113646Y-52931795D01*
X31113647Y-52931803D01*
X31114326Y-52938256D01*
X31116331Y-52944428D01*
X31116333Y-52944435D01*
X31149361Y-53046082D01*
X31172821Y-53118284D01*
X31197687Y-53161353D01*
X31243950Y-53241484D01*
X31260090Y-53292676D01*
X31253084Y-53345894D01*
X31224243Y-53391164D01*
X26862181Y-57753228D01*
X26812818Y-57783478D01*
X26755102Y-57788020D01*
X26701615Y-57765865D01*
X26664015Y-57721842D01*
X26650500Y-57665547D01*
X26650500Y-56845364D01*
X26659939Y-56797911D01*
X26686819Y-56757683D01*
X27103879Y-56340623D01*
X28387306Y-55057194D01*
X28395482Y-55049755D01*
X28401877Y-55045698D01*
X28447933Y-54996652D01*
X28450550Y-54993950D01*
X28470120Y-54974382D01*
X28472565Y-54971228D01*
X28480155Y-54962340D01*
X28510062Y-54930494D01*
X28519713Y-54912935D01*
X28530390Y-54896682D01*
X28542673Y-54880848D01*
X28560022Y-54840753D01*
X28565157Y-54830274D01*
X28571962Y-54817896D01*
X28586197Y-54792004D01*
X28591178Y-54772599D01*
X28597483Y-54754189D01*
X28602339Y-54742968D01*
X28602339Y-54742967D01*
X28605438Y-54735807D01*
X28612269Y-54692668D01*
X28614639Y-54681227D01*
X28623560Y-54646486D01*
X28623559Y-54646486D01*
X28625500Y-54638931D01*
X28625500Y-54618895D01*
X28627025Y-54599509D01*
X28630160Y-54579716D01*
X28626050Y-54536236D01*
X28625500Y-54524567D01*
X28625500Y-53198687D01*
X28633736Y-53154249D01*
X28657350Y-53115715D01*
X28732533Y-53032216D01*
X28827179Y-52868284D01*
X28885674Y-52688256D01*
X28905460Y-52500000D01*
X28885674Y-52311744D01*
X28827179Y-52131716D01*
X28732533Y-51967784D01*
X28660247Y-51887503D01*
X28610220Y-51831942D01*
X28610219Y-51831941D01*
X28605871Y-51827112D01*
X28600613Y-51823292D01*
X28600611Y-51823290D01*
X28457988Y-51719669D01*
X28457987Y-51719668D01*
X28452730Y-51715849D01*
X28446792Y-51713205D01*
X28285745Y-51641501D01*
X28285740Y-51641499D01*
X28279803Y-51638856D01*
X28273444Y-51637504D01*
X28273440Y-51637503D01*
X28101008Y-51600852D01*
X28101005Y-51600851D01*
X28094646Y-51599500D01*
X27905354Y-51599500D01*
X27898995Y-51600851D01*
X27898991Y-51600852D01*
X27726559Y-51637503D01*
X27726552Y-51637505D01*
X27720197Y-51638856D01*
X27714262Y-51641498D01*
X27714254Y-51641501D01*
X27553207Y-51713205D01*
X27553202Y-51713207D01*
X27547270Y-51715849D01*
X27542016Y-51719665D01*
X27542011Y-51719669D01*
X27399388Y-51823290D01*
X27399381Y-51823295D01*
X27394129Y-51827112D01*
X27389784Y-51831937D01*
X27389779Y-51831942D01*
X27271813Y-51962956D01*
X27271808Y-51962962D01*
X27267467Y-51967784D01*
X27264222Y-51973404D01*
X27264218Y-51973410D01*
X27176067Y-52126092D01*
X27176063Y-52126099D01*
X27175016Y-52127912D01*
X27175015Y-52127915D01*
X27172821Y-52131716D01*
X27172233Y-52131376D01*
X27135891Y-52176587D01*
X27077037Y-52199920D01*
X27014337Y-52191158D01*
X26964134Y-52152587D01*
X26864623Y-52023717D01*
X26861855Y-52020132D01*
X26814435Y-51974413D01*
X26669062Y-51834255D01*
X26669056Y-51834250D01*
X26665795Y-51831106D01*
X26444302Y-51672642D01*
X26375957Y-51637503D01*
X26206132Y-51550189D01*
X26206125Y-51550186D01*
X26202097Y-51548115D01*
X26197812Y-51546653D01*
X26197807Y-51546651D01*
X25948624Y-51461642D01*
X25948622Y-51461641D01*
X25944341Y-51460181D01*
X25922179Y-51456087D01*
X25680989Y-51411537D01*
X25680978Y-51411535D01*
X25676529Y-51410714D01*
X25672000Y-51410548D01*
X25671996Y-51410548D01*
X25408897Y-51400933D01*
X25408890Y-51400933D01*
X25404369Y-51400768D01*
X25399872Y-51401262D01*
X25399866Y-51401263D01*
X25138172Y-51430057D01*
X25138163Y-51430058D01*
X25133661Y-51430554D01*
X25129282Y-51431698D01*
X25129270Y-51431701D01*
X24874549Y-51498294D01*
X24874546Y-51498295D01*
X24870174Y-51499438D01*
X24866024Y-51501201D01*
X24866011Y-51501206D01*
X24623691Y-51604182D01*
X24623683Y-51604185D01*
X24619525Y-51605953D01*
X24615668Y-51608306D01*
X24615658Y-51608312D01*
X24390928Y-51745463D01*
X24390918Y-51745469D01*
X24387056Y-51747827D01*
X24383571Y-51750726D01*
X24383567Y-51750730D01*
X24181206Y-51919136D01*
X24181200Y-51919141D01*
X24177721Y-51922037D01*
X24174703Y-51925404D01*
X24174699Y-51925409D01*
X23998998Y-52121502D01*
X23998992Y-52121508D01*
X23995982Y-52124869D01*
X23993489Y-52128636D01*
X23993486Y-52128641D01*
X23848211Y-52348224D01*
X23848208Y-52348229D01*
X23845712Y-52352002D01*
X23843795Y-52356089D01*
X23843790Y-52356100D01*
X23732033Y-52594499D01*
X23732030Y-52594506D01*
X23730114Y-52598594D01*
X23728814Y-52602912D01*
X23728810Y-52602925D01*
X23652958Y-52855050D01*
X23651653Y-52859389D01*
X23650994Y-52863865D01*
X23650993Y-52863871D01*
X23612658Y-53124354D01*
X23612657Y-53124361D01*
X23612000Y-53128829D01*
X23612000Y-53853000D01*
X23612164Y-53855251D01*
X23612165Y-53855257D01*
X23621302Y-53980093D01*
X23626903Y-54056616D01*
X23627886Y-54061031D01*
X23627888Y-54061041D01*
X23685130Y-54318011D01*
X23685133Y-54318023D01*
X23686118Y-54322442D01*
X23687737Y-54326676D01*
X23687738Y-54326678D01*
X23738283Y-54458834D01*
X23783407Y-54576814D01*
X23785625Y-54580766D01*
X23914478Y-54810359D01*
X23914481Y-54810364D01*
X23916696Y-54814310D01*
X24083145Y-55029868D01*
X24086406Y-55033012D01*
X24275937Y-55215744D01*
X24275942Y-55215748D01*
X24279205Y-55218894D01*
X24500698Y-55377358D01*
X24742903Y-55501885D01*
X25000659Y-55589819D01*
X25268471Y-55639286D01*
X25540631Y-55649232D01*
X25735331Y-55627809D01*
X25795297Y-55636075D01*
X25844204Y-55671746D01*
X25870398Y-55726319D01*
X25867634Y-55786789D01*
X25836573Y-55838746D01*
X25637696Y-56037623D01*
X25629511Y-56045071D01*
X25623123Y-56049126D01*
X25617788Y-56054806D01*
X25617783Y-56054811D01*
X25577096Y-56098137D01*
X25574392Y-56100928D01*
X25557628Y-56117692D01*
X25557621Y-56117699D01*
X25554880Y-56120441D01*
X25552500Y-56123508D01*
X25552489Y-56123521D01*
X25552400Y-56123637D01*
X25544842Y-56132482D01*
X25520280Y-56158639D01*
X25520273Y-56158648D01*
X25514938Y-56164330D01*
X25511182Y-56171161D01*
X25511179Y-56171166D01*
X25505285Y-56181887D01*
X25494609Y-56198139D01*
X25487109Y-56207808D01*
X25487101Y-56207819D01*
X25482327Y-56213976D01*
X25479234Y-56221120D01*
X25479229Y-56221131D01*
X25464974Y-56254072D01*
X25459838Y-56264555D01*
X25438803Y-56302820D01*
X25436864Y-56310368D01*
X25436863Y-56310373D01*
X25433822Y-56322219D01*
X25427521Y-56340623D01*
X25422658Y-56351860D01*
X25422656Y-56351864D01*
X25419562Y-56359016D01*
X25418342Y-56366715D01*
X25418342Y-56366717D01*
X25412729Y-56402153D01*
X25410361Y-56413588D01*
X25401438Y-56448340D01*
X25401436Y-56448348D01*
X25399500Y-56455893D01*
X25399500Y-56463689D01*
X25399500Y-56475929D01*
X25397974Y-56495314D01*
X25394840Y-56515108D01*
X25395574Y-56522873D01*
X25395574Y-56522876D01*
X25398950Y-56558588D01*
X25399500Y-56570257D01*
X25399500Y-60932137D01*
X25398978Y-60943192D01*
X25397327Y-60950579D01*
X25397571Y-60958365D01*
X25397571Y-60958373D01*
X25399439Y-61017785D01*
X25399500Y-61021680D01*
X25399500Y-61049262D01*
X25399988Y-61053131D01*
X25399989Y-61053137D01*
X25400004Y-61053255D01*
X25400918Y-61064878D01*
X25402045Y-61100742D01*
X25402046Y-61100749D01*
X25402291Y-61108539D01*
X25404467Y-61116031D01*
X25404468Y-61116033D01*
X25407879Y-61127774D01*
X25411825Y-61146827D01*
X25414336Y-61166704D01*
X25417206Y-61173954D01*
X25417208Y-61173960D01*
X25430414Y-61207316D01*
X25434197Y-61218363D01*
X25446382Y-61260302D01*
X25450353Y-61267017D01*
X25450354Y-61267019D01*
X25456581Y-61277549D01*
X25465136Y-61295011D01*
X25469642Y-61306392D01*
X25469643Y-61306395D01*
X25472514Y-61313644D01*
X25494440Y-61343824D01*
X25498181Y-61348972D01*
X25504593Y-61358734D01*
X25522856Y-61389614D01*
X25522859Y-61389619D01*
X25526830Y-61396332D01*
X25532344Y-61401846D01*
X25532345Y-61401847D01*
X25540990Y-61410492D01*
X25553626Y-61425286D01*
X25560819Y-61435187D01*
X25560823Y-61435191D01*
X25565406Y-61441499D01*
X25571415Y-61446470D01*
X25571416Y-61446471D01*
X25599058Y-61469338D01*
X25607699Y-61477201D01*
X28335681Y-64205184D01*
X28362561Y-64245412D01*
X28372000Y-64292865D01*
X28372000Y-76151406D01*
X28358251Y-76208157D01*
X28320053Y-76252323D01*
X28265878Y-76274110D01*
X28207737Y-76268687D01*
X28160070Y-76252323D01*
X28117481Y-76237702D01*
X28112431Y-76236859D01*
X28112422Y-76236857D01*
X27893611Y-76200344D01*
X27893602Y-76200343D01*
X27888549Y-76199500D01*
X27656451Y-76199500D01*
X27651398Y-76200343D01*
X27651388Y-76200344D01*
X27432577Y-76236857D01*
X27432565Y-76236859D01*
X27427519Y-76237702D01*
X27422669Y-76239366D01*
X27422665Y-76239368D01*
X27212845Y-76311399D01*
X27212837Y-76311402D01*
X27207997Y-76313064D01*
X27203501Y-76315496D01*
X27203492Y-76315501D01*
X27008382Y-76421090D01*
X27008378Y-76421092D01*
X27003874Y-76423530D01*
X26999834Y-76426674D01*
X26999827Y-76426679D01*
X26824763Y-76562936D01*
X26824755Y-76562943D01*
X26820716Y-76566087D01*
X26817246Y-76569855D01*
X26817242Y-76569860D01*
X26666991Y-76733077D01*
X26666988Y-76733080D01*
X26663521Y-76736847D01*
X26660726Y-76741124D01*
X26660719Y-76741134D01*
X26539378Y-76926862D01*
X26536576Y-76931151D01*
X26534521Y-76935835D01*
X26534516Y-76935845D01*
X26445403Y-77139003D01*
X26443343Y-77143700D01*
X26442085Y-77148665D01*
X26442084Y-77148670D01*
X26387625Y-77363720D01*
X26387623Y-77363729D01*
X26386366Y-77368695D01*
X26385942Y-77373802D01*
X26385941Y-77373813D01*
X26367700Y-77593955D01*
X26367200Y-77600000D01*
X26367624Y-77605117D01*
X26385941Y-77826186D01*
X26385942Y-77826195D01*
X26386366Y-77831305D01*
X26387623Y-77836272D01*
X26387625Y-77836279D01*
X26442084Y-78051329D01*
X26443343Y-78056300D01*
X26445403Y-78060996D01*
X26534516Y-78264154D01*
X26534519Y-78264159D01*
X26536576Y-78268849D01*
X26600048Y-78366001D01*
X26660719Y-78458865D01*
X26660722Y-78458869D01*
X26663521Y-78463153D01*
X26820716Y-78633913D01*
X27003874Y-78776470D01*
X27207997Y-78886936D01*
X27427519Y-78962298D01*
X27656451Y-79000500D01*
X27883416Y-79000500D01*
X27888549Y-79000500D01*
X28117481Y-78962298D01*
X28207737Y-78931312D01*
X28265878Y-78925890D01*
X28320053Y-78947677D01*
X28358251Y-78991843D01*
X28372000Y-79048594D01*
X28372000Y-83942047D01*
X28362561Y-83989500D01*
X28335681Y-84029728D01*
X27802228Y-84563181D01*
X27762000Y-84590061D01*
X27714547Y-84599500D01*
X27655354Y-84599500D01*
X27648995Y-84600851D01*
X27648991Y-84600852D01*
X27476559Y-84637503D01*
X27476552Y-84637505D01*
X27470197Y-84638856D01*
X27464262Y-84641498D01*
X27464254Y-84641501D01*
X27303207Y-84713205D01*
X27303202Y-84713207D01*
X27297270Y-84715849D01*
X27292016Y-84719665D01*
X27292011Y-84719669D01*
X27149388Y-84823290D01*
X27149381Y-84823295D01*
X27144129Y-84827112D01*
X27139784Y-84831937D01*
X27139779Y-84831942D01*
X27021813Y-84962956D01*
X27021808Y-84962962D01*
X27017467Y-84967784D01*
X27014221Y-84973405D01*
X27014221Y-84973406D01*
X26966061Y-85056821D01*
X26928034Y-85097607D01*
X26875981Y-85117606D01*
X26820427Y-85112774D01*
X26772609Y-85084088D01*
X26669061Y-84984255D01*
X26665795Y-84981106D01*
X26444302Y-84822642D01*
X26415736Y-84807955D01*
X26206132Y-84700189D01*
X26206125Y-84700186D01*
X26202097Y-84698115D01*
X26197812Y-84696653D01*
X26197807Y-84696651D01*
X25948624Y-84611642D01*
X25948622Y-84611641D01*
X25944341Y-84610181D01*
X25919177Y-84605533D01*
X25680989Y-84561537D01*
X25680978Y-84561535D01*
X25676529Y-84560714D01*
X25672000Y-84560548D01*
X25671996Y-84560548D01*
X25408897Y-84550933D01*
X25408890Y-84550933D01*
X25404369Y-84550768D01*
X25399872Y-84551262D01*
X25399866Y-84551263D01*
X25138172Y-84580057D01*
X25138163Y-84580058D01*
X25133661Y-84580554D01*
X25129282Y-84581698D01*
X25129270Y-84581701D01*
X24874549Y-84648294D01*
X24874546Y-84648295D01*
X24870174Y-84649438D01*
X24866024Y-84651201D01*
X24866011Y-84651206D01*
X24623691Y-84754182D01*
X24623683Y-84754185D01*
X24619525Y-84755953D01*
X24615668Y-84758306D01*
X24615658Y-84758312D01*
X24390928Y-84895463D01*
X24390918Y-84895469D01*
X24387056Y-84897827D01*
X24383571Y-84900726D01*
X24383567Y-84900730D01*
X24181206Y-85069136D01*
X24181200Y-85069141D01*
X24177721Y-85072037D01*
X24174703Y-85075404D01*
X24174699Y-85075409D01*
X23998998Y-85271502D01*
X23998992Y-85271508D01*
X23995982Y-85274869D01*
X23993489Y-85278636D01*
X23993486Y-85278641D01*
X23848211Y-85498224D01*
X23848208Y-85498229D01*
X23845712Y-85502002D01*
X23843795Y-85506089D01*
X23843790Y-85506100D01*
X23732033Y-85744499D01*
X23732030Y-85744506D01*
X23730114Y-85748594D01*
X23728814Y-85752912D01*
X23728810Y-85752925D01*
X23652958Y-86005050D01*
X23651653Y-86009389D01*
X23650994Y-86013865D01*
X23650993Y-86013871D01*
X23612658Y-86274354D01*
X23612657Y-86274361D01*
X23612000Y-86278829D01*
X23612000Y-87003000D01*
X23612164Y-87005251D01*
X23612165Y-87005257D01*
X23622538Y-87146979D01*
X23626903Y-87206616D01*
X23627886Y-87211031D01*
X23627888Y-87211041D01*
X23685130Y-87468011D01*
X23685133Y-87468023D01*
X23686118Y-87472442D01*
X23783407Y-87726814D01*
X23785625Y-87730766D01*
X23914478Y-87960359D01*
X23914481Y-87960364D01*
X23916696Y-87964310D01*
X24083145Y-88179868D01*
X24086406Y-88183012D01*
X24275937Y-88365744D01*
X24275942Y-88365748D01*
X24279205Y-88368894D01*
X24500698Y-88527358D01*
X24742903Y-88651885D01*
X25000659Y-88739819D01*
X25268471Y-88789286D01*
X25540631Y-88799232D01*
X25811339Y-88769446D01*
X26074826Y-88700562D01*
X26325475Y-88594047D01*
X26557944Y-88452173D01*
X26767279Y-88277963D01*
X26908149Y-88120743D01*
X26957051Y-88087353D01*
X27015862Y-88080447D01*
X27071169Y-88101601D01*
X27110361Y-88145990D01*
X27124500Y-88203492D01*
X27124500Y-88664243D01*
X27115061Y-88711696D01*
X27088181Y-88751924D01*
X25387696Y-90452406D01*
X25379511Y-90459854D01*
X25373123Y-90463909D01*
X25367788Y-90469589D01*
X25367783Y-90469594D01*
X25327096Y-90512920D01*
X25324392Y-90515711D01*
X25307628Y-90532475D01*
X25307621Y-90532482D01*
X25304880Y-90535224D01*
X25302500Y-90538291D01*
X25302489Y-90538304D01*
X25302400Y-90538420D01*
X25294842Y-90547265D01*
X25270280Y-90573422D01*
X25270273Y-90573431D01*
X25264938Y-90579113D01*
X25261182Y-90585944D01*
X25261179Y-90585949D01*
X25255285Y-90596670D01*
X25244609Y-90612922D01*
X25237109Y-90622591D01*
X25237101Y-90622602D01*
X25232327Y-90628759D01*
X25229234Y-90635903D01*
X25229229Y-90635914D01*
X25214974Y-90668855D01*
X25209838Y-90679338D01*
X25188803Y-90717603D01*
X25186864Y-90725151D01*
X25186863Y-90725156D01*
X25183822Y-90737002D01*
X25177521Y-90755406D01*
X25172658Y-90766643D01*
X25172656Y-90766647D01*
X25169562Y-90773799D01*
X25168342Y-90781498D01*
X25168342Y-90781500D01*
X25162729Y-90816936D01*
X25160361Y-90828371D01*
X25151438Y-90863123D01*
X25151436Y-90863131D01*
X25149500Y-90870676D01*
X25149500Y-90878472D01*
X25149500Y-90890712D01*
X25147974Y-90910097D01*
X25144840Y-90929891D01*
X25145574Y-90937656D01*
X25145574Y-90937659D01*
X25148950Y-90973371D01*
X25149500Y-90985040D01*
X25149500Y-100831775D01*
X25148978Y-100842830D01*
X25147327Y-100850217D01*
X25147571Y-100858003D01*
X25147571Y-100858011D01*
X25149439Y-100917423D01*
X25149500Y-100921318D01*
X25149500Y-100948900D01*
X25149988Y-100952769D01*
X25149989Y-100952775D01*
X25150004Y-100952893D01*
X25150918Y-100964516D01*
X25152045Y-101000380D01*
X25152046Y-101000387D01*
X25152291Y-101008177D01*
X25154467Y-101015665D01*
X25155227Y-101018281D01*
X25155267Y-101020715D01*
X25155688Y-101023373D01*
X25155311Y-101023432D01*
X25156301Y-101083538D01*
X25124089Y-101140302D01*
X25067515Y-101172846D01*
X24874549Y-101223294D01*
X24874546Y-101223295D01*
X24870174Y-101224438D01*
X24866024Y-101226201D01*
X24866011Y-101226206D01*
X24623691Y-101329182D01*
X24623683Y-101329185D01*
X24619525Y-101330953D01*
X24615668Y-101333306D01*
X24615658Y-101333312D01*
X24390928Y-101470463D01*
X24390918Y-101470469D01*
X24387056Y-101472827D01*
X24383571Y-101475726D01*
X24383567Y-101475730D01*
X24181206Y-101644136D01*
X24181200Y-101644141D01*
X24177721Y-101647037D01*
X24174703Y-101650404D01*
X24174699Y-101650409D01*
X23998998Y-101846502D01*
X23998992Y-101846508D01*
X23995982Y-101849869D01*
X23993489Y-101853636D01*
X23993486Y-101853641D01*
X23848211Y-102073224D01*
X23848208Y-102073229D01*
X23845712Y-102077002D01*
X23843795Y-102081089D01*
X23843790Y-102081100D01*
X23732033Y-102319499D01*
X23732030Y-102319506D01*
X23730114Y-102323594D01*
X23728814Y-102327912D01*
X23728810Y-102327925D01*
X23652958Y-102580050D01*
X23651653Y-102584389D01*
X23650994Y-102588865D01*
X23650993Y-102588871D01*
X23612658Y-102849354D01*
X23612657Y-102849361D01*
X23612000Y-102853829D01*
X23612000Y-103578000D01*
X20000500Y-103578000D01*
X20000500Y-70428000D01*
X23612000Y-70428000D01*
X23612164Y-70430251D01*
X23612165Y-70430257D01*
X23622538Y-70571979D01*
X23626903Y-70631616D01*
X23627886Y-70636031D01*
X23627888Y-70636041D01*
X23685130Y-70893011D01*
X23685133Y-70893023D01*
X23686118Y-70897442D01*
X23687737Y-70901676D01*
X23687738Y-70901678D01*
X23737008Y-71030500D01*
X23783407Y-71151814D01*
X23785625Y-71155766D01*
X23914478Y-71385359D01*
X23914481Y-71385364D01*
X23916696Y-71389310D01*
X24083145Y-71604868D01*
X24086406Y-71608012D01*
X24275937Y-71790744D01*
X24275942Y-71790748D01*
X24279205Y-71793894D01*
X24500698Y-71952358D01*
X24742903Y-72076885D01*
X25000659Y-72164819D01*
X25268471Y-72214286D01*
X25540631Y-72224232D01*
X25811339Y-72194446D01*
X26074826Y-72125562D01*
X26325475Y-72019047D01*
X26557944Y-71877173D01*
X26767279Y-71702963D01*
X26949018Y-71500131D01*
X27099288Y-71272998D01*
X27214886Y-71026406D01*
X27293347Y-70765611D01*
X27333000Y-70496171D01*
X27333000Y-69772000D01*
X27318097Y-69568384D01*
X27289247Y-69438871D01*
X27259869Y-69306988D01*
X27259868Y-69306985D01*
X27258882Y-69302558D01*
X27161593Y-69048186D01*
X27035892Y-68824210D01*
X27030521Y-68814640D01*
X27030519Y-68814638D01*
X27028304Y-68810690D01*
X26861855Y-68595132D01*
X26779816Y-68516036D01*
X26669062Y-68409255D01*
X26669056Y-68409250D01*
X26665795Y-68406106D01*
X26444302Y-68247642D01*
X26415736Y-68232955D01*
X26206132Y-68125189D01*
X26206125Y-68125186D01*
X26202097Y-68123115D01*
X26197812Y-68121653D01*
X26197807Y-68121651D01*
X25948624Y-68036642D01*
X25948622Y-68036641D01*
X25944341Y-68035181D01*
X25922179Y-68031087D01*
X25680989Y-67986537D01*
X25680978Y-67986535D01*
X25676529Y-67985714D01*
X25672000Y-67985548D01*
X25671996Y-67985548D01*
X25408897Y-67975933D01*
X25408890Y-67975933D01*
X25404369Y-67975768D01*
X25399872Y-67976262D01*
X25399866Y-67976263D01*
X25138172Y-68005057D01*
X25138163Y-68005058D01*
X25133661Y-68005554D01*
X25129282Y-68006698D01*
X25129270Y-68006701D01*
X24874549Y-68073294D01*
X24874546Y-68073295D01*
X24870174Y-68074438D01*
X24866024Y-68076201D01*
X24866011Y-68076206D01*
X24623691Y-68179182D01*
X24623683Y-68179185D01*
X24619525Y-68180953D01*
X24615668Y-68183306D01*
X24615658Y-68183312D01*
X24390928Y-68320463D01*
X24390918Y-68320469D01*
X24387056Y-68322827D01*
X24383571Y-68325726D01*
X24383567Y-68325730D01*
X24181206Y-68494136D01*
X24181200Y-68494141D01*
X24177721Y-68497037D01*
X24174703Y-68500404D01*
X24174699Y-68500409D01*
X23998998Y-68696502D01*
X23998992Y-68696508D01*
X23995982Y-68699869D01*
X23993489Y-68703636D01*
X23993486Y-68703641D01*
X23848211Y-68923224D01*
X23848208Y-68923229D01*
X23845712Y-68927002D01*
X23843795Y-68931089D01*
X23843790Y-68931100D01*
X23732033Y-69169499D01*
X23732030Y-69169506D01*
X23730114Y-69173594D01*
X23728814Y-69177912D01*
X23728810Y-69177925D01*
X23652958Y-69430050D01*
X23651653Y-69434389D01*
X23650994Y-69438865D01*
X23650993Y-69438871D01*
X23612658Y-69699354D01*
X23612657Y-69699361D01*
X23612000Y-69703829D01*
X23612000Y-70428000D01*
X20000500Y-70428000D01*
X20000500Y-44475000D01*
X26367200Y-44475000D01*
X26367624Y-44480117D01*
X26385941Y-44701186D01*
X26385942Y-44701195D01*
X26386366Y-44706305D01*
X26387623Y-44711272D01*
X26387625Y-44711279D01*
X26429719Y-44877501D01*
X26443343Y-44931300D01*
X26445403Y-44935996D01*
X26534516Y-45139154D01*
X26534519Y-45139159D01*
X26536576Y-45143849D01*
X26589606Y-45225017D01*
X26660719Y-45333865D01*
X26660722Y-45333869D01*
X26663521Y-45338153D01*
X26820716Y-45508913D01*
X27003874Y-45651470D01*
X27207997Y-45761936D01*
X27427519Y-45837298D01*
X27656451Y-45875500D01*
X27883416Y-45875500D01*
X27888549Y-45875500D01*
X28117481Y-45837298D01*
X28337003Y-45761936D01*
X28541126Y-45651470D01*
X28724284Y-45508913D01*
X28881479Y-45338153D01*
X28918690Y-45281196D01*
X28963482Y-45239962D01*
X29022500Y-45225017D01*
X29081518Y-45239962D01*
X29126309Y-45281196D01*
X29160715Y-45333860D01*
X29160722Y-45333869D01*
X29163521Y-45338153D01*
X29320716Y-45508913D01*
X29503874Y-45651470D01*
X29707997Y-45761936D01*
X29927519Y-45837298D01*
X30156451Y-45875500D01*
X30383416Y-45875500D01*
X30388549Y-45875500D01*
X30617481Y-45837298D01*
X30837003Y-45761936D01*
X31041126Y-45651470D01*
X31218479Y-45513431D01*
X31270904Y-45489579D01*
X31328453Y-45491986D01*
X31378706Y-45520135D01*
X31410820Y-45567952D01*
X31426048Y-45608779D01*
X31434462Y-45624189D01*
X31509998Y-45725092D01*
X31522407Y-45737501D01*
X31623310Y-45813037D01*
X31638722Y-45821452D01*
X31757858Y-45865888D01*
X31772832Y-45869426D01*
X31821385Y-45874646D01*
X31827982Y-45875000D01*
X32506174Y-45875000D01*
X32519049Y-45871549D01*
X32522500Y-45858674D01*
X33022500Y-45858674D01*
X33025950Y-45871549D01*
X33038826Y-45875000D01*
X33717018Y-45875000D01*
X33723614Y-45874646D01*
X33772167Y-45869426D01*
X33787141Y-45865888D01*
X33906277Y-45821452D01*
X33921689Y-45813037D01*
X34022592Y-45737501D01*
X34035001Y-45725092D01*
X34110537Y-45624189D01*
X34118952Y-45608777D01*
X34163388Y-45489641D01*
X34166926Y-45474667D01*
X34172146Y-45426114D01*
X34172500Y-45419518D01*
X34172500Y-44741326D01*
X34169049Y-44728450D01*
X34156174Y-44725000D01*
X33038826Y-44725000D01*
X33025950Y-44728450D01*
X33022500Y-44741326D01*
X33022500Y-45858674D01*
X32522500Y-45858674D01*
X32522500Y-44559518D01*
X41807500Y-44559518D01*
X41807853Y-44566114D01*
X41813073Y-44614667D01*
X41816611Y-44629641D01*
X41861047Y-44748777D01*
X41869462Y-44764189D01*
X41944998Y-44865092D01*
X41957407Y-44877501D01*
X42058310Y-44953037D01*
X42073722Y-44961452D01*
X42192858Y-45005888D01*
X42207832Y-45009426D01*
X42256385Y-45014646D01*
X42262982Y-45015000D01*
X43006174Y-45015000D01*
X43019049Y-45011549D01*
X43022500Y-44998674D01*
X43522500Y-44998674D01*
X43525950Y-45011549D01*
X43538826Y-45015000D01*
X44282018Y-45015000D01*
X44288614Y-45014646D01*
X44337167Y-45009426D01*
X44352141Y-45005888D01*
X44471277Y-44961452D01*
X44486689Y-44953037D01*
X44587592Y-44877501D01*
X44600001Y-44865092D01*
X44675537Y-44764189D01*
X44683952Y-44748777D01*
X44728388Y-44629641D01*
X44731926Y-44614667D01*
X44737146Y-44566114D01*
X44737500Y-44559518D01*
X44737500Y-43866326D01*
X44734049Y-43853450D01*
X44721174Y-43850000D01*
X43538826Y-43850000D01*
X43525950Y-43853450D01*
X43522500Y-43866326D01*
X43522500Y-44998674D01*
X43022500Y-44998674D01*
X43022500Y-43866326D01*
X43019049Y-43853450D01*
X43006174Y-43850000D01*
X41823826Y-43850000D01*
X41810950Y-43853450D01*
X41807500Y-43866326D01*
X41807500Y-44559518D01*
X32522500Y-44559518D01*
X32522500Y-44208674D01*
X33022500Y-44208674D01*
X33025950Y-44221549D01*
X33038826Y-44225000D01*
X34156174Y-44225000D01*
X34169049Y-44221549D01*
X34172500Y-44208674D01*
X34172500Y-43530482D01*
X34172146Y-43523885D01*
X34166926Y-43475332D01*
X34163388Y-43460358D01*
X34118952Y-43341222D01*
X34110537Y-43325810D01*
X34035001Y-43224907D01*
X34022592Y-43212498D01*
X33921689Y-43136962D01*
X33906277Y-43128547D01*
X33787141Y-43084111D01*
X33772167Y-43080573D01*
X33723614Y-43075353D01*
X33717018Y-43075000D01*
X33038826Y-43075000D01*
X33025950Y-43078450D01*
X33022500Y-43091326D01*
X33022500Y-44208674D01*
X32522500Y-44208674D01*
X32522500Y-43091326D01*
X32519049Y-43078450D01*
X32506174Y-43075000D01*
X31827982Y-43075000D01*
X31821385Y-43075353D01*
X31772832Y-43080573D01*
X31757858Y-43084111D01*
X31638722Y-43128547D01*
X31623310Y-43136962D01*
X31522407Y-43212498D01*
X31509998Y-43224907D01*
X31434462Y-43325810D01*
X31426045Y-43341224D01*
X31410819Y-43382048D01*
X31378706Y-43429864D01*
X31328453Y-43458013D01*
X31270904Y-43460420D01*
X31218476Y-43436566D01*
X31045180Y-43301684D01*
X31045169Y-43301676D01*
X31041126Y-43298530D01*
X30905083Y-43224907D01*
X30841507Y-43190501D01*
X30841502Y-43190499D01*
X30837003Y-43188064D01*
X30832157Y-43186400D01*
X30832154Y-43186399D01*
X30622334Y-43114368D01*
X30622333Y-43114367D01*
X30617481Y-43112702D01*
X30612431Y-43111859D01*
X30612422Y-43111857D01*
X30393611Y-43075344D01*
X30393602Y-43075343D01*
X30388549Y-43074500D01*
X30156451Y-43074500D01*
X30151398Y-43075343D01*
X30151388Y-43075344D01*
X29932577Y-43111857D01*
X29932565Y-43111859D01*
X29927519Y-43112702D01*
X29922669Y-43114366D01*
X29922665Y-43114368D01*
X29712845Y-43186399D01*
X29712837Y-43186402D01*
X29707997Y-43188064D01*
X29703501Y-43190496D01*
X29703492Y-43190501D01*
X29508382Y-43296090D01*
X29508378Y-43296092D01*
X29503874Y-43298530D01*
X29499834Y-43301674D01*
X29499827Y-43301679D01*
X29324763Y-43437936D01*
X29324755Y-43437943D01*
X29320716Y-43441087D01*
X29317246Y-43444855D01*
X29317242Y-43444860D01*
X29166991Y-43608077D01*
X29166988Y-43608080D01*
X29163521Y-43611847D01*
X29160726Y-43616124D01*
X29160719Y-43616134D01*
X29126309Y-43668804D01*
X29081517Y-43710037D01*
X29022500Y-43724982D01*
X28963483Y-43710037D01*
X28918691Y-43668804D01*
X28884280Y-43616134D01*
X28884278Y-43616132D01*
X28881479Y-43611847D01*
X28724284Y-43441087D01*
X28718475Y-43436566D01*
X28545172Y-43301679D01*
X28545171Y-43301678D01*
X28541126Y-43298530D01*
X28405083Y-43224907D01*
X28341507Y-43190501D01*
X28341502Y-43190499D01*
X28337003Y-43188064D01*
X28332157Y-43186400D01*
X28332154Y-43186399D01*
X28122334Y-43114368D01*
X28122333Y-43114367D01*
X28117481Y-43112702D01*
X28112431Y-43111859D01*
X28112422Y-43111857D01*
X27893611Y-43075344D01*
X27893602Y-43075343D01*
X27888549Y-43074500D01*
X27656451Y-43074500D01*
X27651398Y-43075343D01*
X27651388Y-43075344D01*
X27432577Y-43111857D01*
X27432565Y-43111859D01*
X27427519Y-43112702D01*
X27422669Y-43114366D01*
X27422665Y-43114368D01*
X27212845Y-43186399D01*
X27212837Y-43186402D01*
X27207997Y-43188064D01*
X27203501Y-43190496D01*
X27203492Y-43190501D01*
X27008382Y-43296090D01*
X27008378Y-43296092D01*
X27003874Y-43298530D01*
X26999834Y-43301674D01*
X26999827Y-43301679D01*
X26824763Y-43437936D01*
X26824755Y-43437943D01*
X26820716Y-43441087D01*
X26817246Y-43444855D01*
X26817242Y-43444860D01*
X26666991Y-43608077D01*
X26666988Y-43608080D01*
X26663521Y-43611847D01*
X26660726Y-43616124D01*
X26660719Y-43616134D01*
X26599370Y-43710037D01*
X26536576Y-43806151D01*
X26534521Y-43810835D01*
X26534516Y-43810845D01*
X26445403Y-44014003D01*
X26443343Y-44018700D01*
X26442085Y-44023665D01*
X26442084Y-44023670D01*
X26387625Y-44238720D01*
X26387623Y-44238729D01*
X26386366Y-44243695D01*
X26385942Y-44248802D01*
X26385941Y-44248813D01*
X26367700Y-44468955D01*
X26367200Y-44475000D01*
X20000500Y-44475000D01*
X20000500Y-40500000D01*
X41702159Y-40500000D01*
X41721493Y-40745655D01*
X41722628Y-40750384D01*
X41722629Y-40750388D01*
X41777879Y-40980525D01*
X41777881Y-40980533D01*
X41779017Y-40985262D01*
X41873316Y-41212920D01*
X42002067Y-41423023D01*
X42005231Y-41426728D01*
X42005235Y-41426733D01*
X42158934Y-41606691D01*
X42162101Y-41610399D01*
X42165808Y-41613565D01*
X42345766Y-41767264D01*
X42345769Y-41767266D01*
X42349477Y-41770433D01*
X42559580Y-41899184D01*
X42673664Y-41946439D01*
X42726529Y-41988115D01*
X42749829Y-42051271D01*
X42736696Y-42117295D01*
X42691001Y-42166727D01*
X42626211Y-42185000D01*
X42262982Y-42185000D01*
X42256385Y-42185353D01*
X42207832Y-42190573D01*
X42192858Y-42194111D01*
X42073722Y-42238547D01*
X42058310Y-42246962D01*
X41957407Y-42322498D01*
X41944998Y-42334907D01*
X41869462Y-42435810D01*
X41861047Y-42451222D01*
X41816611Y-42570358D01*
X41813073Y-42585332D01*
X41807853Y-42633885D01*
X41807500Y-42640482D01*
X41807500Y-43333674D01*
X41810950Y-43346549D01*
X41823826Y-43350000D01*
X44721174Y-43350000D01*
X44734049Y-43346549D01*
X44737500Y-43333674D01*
X44737500Y-42640482D01*
X44737146Y-42633885D01*
X44731926Y-42585332D01*
X44728388Y-42570358D01*
X44683952Y-42451222D01*
X44675537Y-42435810D01*
X44600001Y-42334907D01*
X44587592Y-42322498D01*
X44486689Y-42246962D01*
X44471277Y-42238547D01*
X44352141Y-42194111D01*
X44337167Y-42190573D01*
X44288614Y-42185353D01*
X44282018Y-42185000D01*
X43918789Y-42185000D01*
X43853999Y-42166727D01*
X43808304Y-42117295D01*
X43795171Y-42051271D01*
X43818471Y-41988115D01*
X43871336Y-41946439D01*
X43985420Y-41899184D01*
X44195523Y-41770433D01*
X44382899Y-41610399D01*
X44542933Y-41423023D01*
X44671684Y-41212920D01*
X44765983Y-40985262D01*
X44823507Y-40745655D01*
X44842841Y-40500000D01*
X44823507Y-40254345D01*
X44765983Y-40014738D01*
X44671684Y-39787080D01*
X44542933Y-39576977D01*
X44382899Y-39389601D01*
X44379191Y-39386434D01*
X44199233Y-39232735D01*
X44199228Y-39232731D01*
X44195523Y-39229567D01*
X43985420Y-39100816D01*
X43757762Y-39006517D01*
X43753033Y-39005381D01*
X43753025Y-39005379D01*
X43522888Y-38950129D01*
X43522884Y-38950128D01*
X43518155Y-38948993D01*
X43513302Y-38948611D01*
X43277354Y-38930041D01*
X43272500Y-38929659D01*
X43267646Y-38930041D01*
X43031697Y-38948611D01*
X43031695Y-38948611D01*
X43026845Y-38948993D01*
X43022117Y-38950127D01*
X43022111Y-38950129D01*
X42791974Y-39005379D01*
X42791962Y-39005382D01*
X42787238Y-39006517D01*
X42782741Y-39008379D01*
X42782737Y-39008381D01*
X42564084Y-39098950D01*
X42564079Y-39098952D01*
X42559580Y-39100816D01*
X42555427Y-39103360D01*
X42555421Y-39103364D01*
X42353634Y-39227019D01*
X42353628Y-39227022D01*
X42349477Y-39229567D01*
X42345777Y-39232726D01*
X42345766Y-39232735D01*
X42165808Y-39386434D01*
X42165801Y-39386440D01*
X42162101Y-39389601D01*
X42158940Y-39393301D01*
X42158934Y-39393308D01*
X42005235Y-39573266D01*
X42005226Y-39573277D01*
X42002067Y-39576977D01*
X41999522Y-39581128D01*
X41999519Y-39581134D01*
X41875864Y-39782921D01*
X41875860Y-39782927D01*
X41873316Y-39787080D01*
X41779017Y-40014738D01*
X41777882Y-40019462D01*
X41777879Y-40019474D01*
X41722629Y-40249611D01*
X41722627Y-40249617D01*
X41721493Y-40254345D01*
X41702159Y-40500000D01*
X20000500Y-40500000D01*
X20000500Y-37303000D01*
X23612000Y-37303000D01*
X23612164Y-37305251D01*
X23612165Y-37305257D01*
X23619607Y-37406935D01*
X23626903Y-37506616D01*
X23627886Y-37511031D01*
X23627888Y-37511041D01*
X23685130Y-37768011D01*
X23685133Y-37768023D01*
X23686118Y-37772442D01*
X23687737Y-37776676D01*
X23687738Y-37776678D01*
X23737008Y-37905500D01*
X23783407Y-38026814D01*
X23785625Y-38030766D01*
X23914478Y-38260359D01*
X23914481Y-38260364D01*
X23916696Y-38264310D01*
X24083145Y-38479868D01*
X24086406Y-38483012D01*
X24275937Y-38665744D01*
X24275942Y-38665748D01*
X24279205Y-38668894D01*
X24500698Y-38827358D01*
X24742903Y-38951885D01*
X25000659Y-39039819D01*
X25268471Y-39089286D01*
X25540631Y-39099232D01*
X25811339Y-39069446D01*
X26074826Y-39000562D01*
X26325475Y-38894047D01*
X26557944Y-38752173D01*
X26767279Y-38577963D01*
X26949018Y-38375131D01*
X27099288Y-38147998D01*
X27214886Y-37901406D01*
X27293347Y-37640611D01*
X27333000Y-37371171D01*
X27333000Y-37303000D01*
X33212000Y-37303000D01*
X33212164Y-37305251D01*
X33212165Y-37305257D01*
X33219607Y-37406935D01*
X33226903Y-37506616D01*
X33227886Y-37511031D01*
X33227888Y-37511041D01*
X33285130Y-37768011D01*
X33285133Y-37768023D01*
X33286118Y-37772442D01*
X33287737Y-37776676D01*
X33287738Y-37776678D01*
X33337008Y-37905500D01*
X33383407Y-38026814D01*
X33385625Y-38030766D01*
X33514478Y-38260359D01*
X33514481Y-38260364D01*
X33516696Y-38264310D01*
X33683145Y-38479868D01*
X33686406Y-38483012D01*
X33875937Y-38665744D01*
X33875942Y-38665748D01*
X33879205Y-38668894D01*
X34100698Y-38827358D01*
X34342903Y-38951885D01*
X34600659Y-39039819D01*
X34868471Y-39089286D01*
X35140631Y-39099232D01*
X35411339Y-39069446D01*
X35674826Y-39000562D01*
X35925475Y-38894047D01*
X36157944Y-38752173D01*
X36367279Y-38577963D01*
X36549018Y-38375131D01*
X36699288Y-38147998D01*
X36814886Y-37901406D01*
X36893347Y-37640611D01*
X36933000Y-37371171D01*
X36933000Y-37156774D01*
X41767808Y-37156774D01*
X41768347Y-37161825D01*
X41768348Y-37161833D01*
X41793478Y-37396979D01*
X41793479Y-37396986D01*
X41794019Y-37402035D01*
X41795378Y-37406935D01*
X41848952Y-37600118D01*
X41859936Y-37639722D01*
X41862077Y-37644336D01*
X41862080Y-37644342D01*
X41961644Y-37858834D01*
X41963788Y-37863452D01*
X41966651Y-37867649D01*
X41966655Y-37867656D01*
X41986723Y-37897074D01*
X42102786Y-38067216D01*
X42106299Y-38070892D01*
X42249543Y-38220790D01*
X42273197Y-38245542D01*
X42470446Y-38393640D01*
X42689234Y-38507534D01*
X42923687Y-38584165D01*
X43167507Y-38621475D01*
X43414146Y-38618461D01*
X43656982Y-38575206D01*
X43889492Y-38492869D01*
X44105432Y-38373664D01*
X44299004Y-38220790D01*
X44465008Y-38038355D01*
X44598986Y-37831256D01*
X44697341Y-37605055D01*
X44757430Y-37365829D01*
X44777641Y-37120000D01*
X44775844Y-37046474D01*
X44743649Y-36801926D01*
X44671945Y-36565921D01*
X44562658Y-36344795D01*
X44418723Y-36144488D01*
X44415116Y-36140893D01*
X44415113Y-36140890D01*
X44247609Y-35973970D01*
X44247606Y-35973967D01*
X44244005Y-35970379D01*
X44172301Y-35919233D01*
X44047343Y-35830101D01*
X44047340Y-35830099D01*
X44043197Y-35827144D01*
X43821691Y-35718630D01*
X43816825Y-35717170D01*
X43590305Y-35649210D01*
X43590296Y-35649208D01*
X43585436Y-35647750D01*
X43580404Y-35647105D01*
X43580393Y-35647103D01*
X43345820Y-35617053D01*
X43345809Y-35617052D01*
X43340778Y-35616408D01*
X43335702Y-35616594D01*
X43335699Y-35616594D01*
X43099369Y-35625260D01*
X43099362Y-35625260D01*
X43094285Y-35625447D01*
X43089303Y-35626460D01*
X43089299Y-35626461D01*
X42857564Y-35673608D01*
X42857555Y-35673610D01*
X42852579Y-35674623D01*
X42847830Y-35676436D01*
X42847821Y-35676439D01*
X42626908Y-35760798D01*
X42622150Y-35762615D01*
X42617762Y-35765179D01*
X42617756Y-35765182D01*
X42413582Y-35884492D01*
X42413575Y-35884496D01*
X42409187Y-35887061D01*
X42405277Y-35890306D01*
X42405270Y-35890312D01*
X42223322Y-36041368D01*
X42223318Y-36041371D01*
X42219408Y-36044618D01*
X42216079Y-36048460D01*
X42216077Y-36048463D01*
X42061244Y-36227206D01*
X42061237Y-36227214D01*
X42057911Y-36231055D01*
X42055252Y-36235392D01*
X42055249Y-36235398D01*
X41931693Y-36437022D01*
X41931688Y-36437031D01*
X41929032Y-36441366D01*
X41927121Y-36446071D01*
X41927116Y-36446082D01*
X41838146Y-36665190D01*
X41838142Y-36665200D01*
X41836234Y-36669901D01*
X41835116Y-36674861D01*
X41835115Y-36674865D01*
X41783125Y-36905560D01*
X41783123Y-36905570D01*
X41782007Y-36910525D01*
X41767808Y-37156774D01*
X36933000Y-37156774D01*
X36933000Y-36647000D01*
X36918097Y-36443384D01*
X36889247Y-36313871D01*
X36859869Y-36181988D01*
X36859868Y-36181985D01*
X36858882Y-36177558D01*
X36761593Y-35923186D01*
X36628304Y-35685690D01*
X36461855Y-35470132D01*
X36458593Y-35466987D01*
X36269062Y-35284255D01*
X36269056Y-35284250D01*
X36265795Y-35281106D01*
X36044302Y-35122642D01*
X36015736Y-35107955D01*
X35806132Y-35000189D01*
X35806125Y-35000186D01*
X35802097Y-34998115D01*
X35797812Y-34996653D01*
X35797807Y-34996651D01*
X35548624Y-34911642D01*
X35548622Y-34911641D01*
X35544341Y-34910181D01*
X35522179Y-34906087D01*
X35280989Y-34861537D01*
X35280978Y-34861535D01*
X35276529Y-34860714D01*
X35272000Y-34860548D01*
X35271996Y-34860548D01*
X35008897Y-34850933D01*
X35008890Y-34850933D01*
X35004369Y-34850768D01*
X34999872Y-34851262D01*
X34999866Y-34851263D01*
X34738172Y-34880057D01*
X34738163Y-34880058D01*
X34733661Y-34880554D01*
X34729282Y-34881698D01*
X34729270Y-34881701D01*
X34474549Y-34948294D01*
X34474546Y-34948295D01*
X34470174Y-34949438D01*
X34466024Y-34951201D01*
X34466011Y-34951206D01*
X34223691Y-35054182D01*
X34223683Y-35054185D01*
X34219525Y-35055953D01*
X34215668Y-35058306D01*
X34215658Y-35058312D01*
X33990928Y-35195463D01*
X33990918Y-35195469D01*
X33987056Y-35197827D01*
X33983571Y-35200726D01*
X33983567Y-35200730D01*
X33781206Y-35369136D01*
X33781200Y-35369141D01*
X33777721Y-35372037D01*
X33774703Y-35375404D01*
X33774699Y-35375409D01*
X33598998Y-35571502D01*
X33598992Y-35571508D01*
X33595982Y-35574869D01*
X33593489Y-35578636D01*
X33593486Y-35578641D01*
X33448211Y-35798224D01*
X33448208Y-35798229D01*
X33445712Y-35802002D01*
X33443795Y-35806089D01*
X33443790Y-35806100D01*
X33332033Y-36044499D01*
X33332030Y-36044506D01*
X33330114Y-36048594D01*
X33328814Y-36052912D01*
X33328810Y-36052925D01*
X33273913Y-36235398D01*
X33251653Y-36309389D01*
X33250994Y-36313865D01*
X33250993Y-36313871D01*
X33212658Y-36574354D01*
X33212657Y-36574361D01*
X33212000Y-36578829D01*
X33212000Y-37303000D01*
X27333000Y-37303000D01*
X27333000Y-36647000D01*
X27318097Y-36443384D01*
X27289247Y-36313871D01*
X27259869Y-36181988D01*
X27259868Y-36181985D01*
X27258882Y-36177558D01*
X27161593Y-35923186D01*
X27028304Y-35685690D01*
X26861855Y-35470132D01*
X26858593Y-35466987D01*
X26669062Y-35284255D01*
X26669056Y-35284250D01*
X26665795Y-35281106D01*
X26444302Y-35122642D01*
X26415736Y-35107955D01*
X26206132Y-35000189D01*
X26206125Y-35000186D01*
X26202097Y-34998115D01*
X26197812Y-34996653D01*
X26197807Y-34996651D01*
X25948624Y-34911642D01*
X25948622Y-34911641D01*
X25944341Y-34910181D01*
X25922179Y-34906087D01*
X25680989Y-34861537D01*
X25680978Y-34861535D01*
X25676529Y-34860714D01*
X25672000Y-34860548D01*
X25671996Y-34860548D01*
X25408897Y-34850933D01*
X25408890Y-34850933D01*
X25404369Y-34850768D01*
X25399872Y-34851262D01*
X25399866Y-34851263D01*
X25138172Y-34880057D01*
X25138163Y-34880058D01*
X25133661Y-34880554D01*
X25129282Y-34881698D01*
X25129270Y-34881701D01*
X24874549Y-34948294D01*
X24874546Y-34948295D01*
X24870174Y-34949438D01*
X24866024Y-34951201D01*
X24866011Y-34951206D01*
X24623691Y-35054182D01*
X24623683Y-35054185D01*
X24619525Y-35055953D01*
X24615668Y-35058306D01*
X24615658Y-35058312D01*
X24390928Y-35195463D01*
X24390918Y-35195469D01*
X24387056Y-35197827D01*
X24383571Y-35200726D01*
X24383567Y-35200730D01*
X24181206Y-35369136D01*
X24181200Y-35369141D01*
X24177721Y-35372037D01*
X24174703Y-35375404D01*
X24174699Y-35375409D01*
X23998998Y-35571502D01*
X23998992Y-35571508D01*
X23995982Y-35574869D01*
X23993489Y-35578636D01*
X23993486Y-35578641D01*
X23848211Y-35798224D01*
X23848208Y-35798229D01*
X23845712Y-35802002D01*
X23843795Y-35806089D01*
X23843790Y-35806100D01*
X23732033Y-36044499D01*
X23732030Y-36044506D01*
X23730114Y-36048594D01*
X23728814Y-36052912D01*
X23728810Y-36052925D01*
X23673913Y-36235398D01*
X23651653Y-36309389D01*
X23650994Y-36313865D01*
X23650993Y-36313871D01*
X23612658Y-36574354D01*
X23612657Y-36574361D01*
X23612000Y-36578829D01*
X23612000Y-37303000D01*
X20000500Y-37303000D01*
X20000500Y-32200000D01*
X41702159Y-32200000D01*
X41721493Y-32445655D01*
X41722628Y-32450384D01*
X41722629Y-32450388D01*
X41777879Y-32680525D01*
X41777881Y-32680533D01*
X41779017Y-32685262D01*
X41873316Y-32912920D01*
X42002067Y-33123023D01*
X42005231Y-33126728D01*
X42005235Y-33126733D01*
X42158934Y-33306691D01*
X42162101Y-33310399D01*
X42165808Y-33313565D01*
X42345766Y-33467264D01*
X42345769Y-33467266D01*
X42349477Y-33470433D01*
X42559580Y-33599184D01*
X42787238Y-33693483D01*
X43026845Y-33751007D01*
X43272500Y-33770341D01*
X43518155Y-33751007D01*
X43757762Y-33693483D01*
X43985420Y-33599184D01*
X44195523Y-33470433D01*
X44382899Y-33310399D01*
X44542933Y-33123023D01*
X44671684Y-32912920D01*
X44765983Y-32685262D01*
X44823507Y-32445655D01*
X44842841Y-32200000D01*
X44823507Y-31954345D01*
X44765983Y-31714738D01*
X44671684Y-31487080D01*
X44542933Y-31276977D01*
X44382899Y-31089601D01*
X44379191Y-31086434D01*
X44199233Y-30932735D01*
X44199228Y-30932731D01*
X44195523Y-30929567D01*
X43985420Y-30800816D01*
X43757762Y-30706517D01*
X43753033Y-30705381D01*
X43753025Y-30705379D01*
X43522888Y-30650129D01*
X43522884Y-30650128D01*
X43518155Y-30648993D01*
X43513302Y-30648611D01*
X43277354Y-30630041D01*
X43272500Y-30629659D01*
X43267646Y-30630041D01*
X43031697Y-30648611D01*
X43031695Y-30648611D01*
X43026845Y-30648993D01*
X43022117Y-30650127D01*
X43022111Y-30650129D01*
X42791974Y-30705379D01*
X42791962Y-30705382D01*
X42787238Y-30706517D01*
X42782741Y-30708379D01*
X42782737Y-30708381D01*
X42564084Y-30798950D01*
X42564079Y-30798952D01*
X42559580Y-30800816D01*
X42555427Y-30803360D01*
X42555421Y-30803364D01*
X42353634Y-30927019D01*
X42353628Y-30927022D01*
X42349477Y-30929567D01*
X42345777Y-30932726D01*
X42345766Y-30932735D01*
X42165808Y-31086434D01*
X42165801Y-31086440D01*
X42162101Y-31089601D01*
X42158940Y-31093301D01*
X42158934Y-31093308D01*
X42005235Y-31273266D01*
X42005226Y-31273277D01*
X42002067Y-31276977D01*
X41999522Y-31281128D01*
X41999519Y-31281134D01*
X41875864Y-31482921D01*
X41875860Y-31482927D01*
X41873316Y-31487080D01*
X41779017Y-31714738D01*
X41777882Y-31719462D01*
X41777879Y-31719474D01*
X41722629Y-31949611D01*
X41722627Y-31949617D01*
X41721493Y-31954345D01*
X41702159Y-32200000D01*
X20000500Y-32200000D01*
X20000500Y-29000000D01*
X21499459Y-29000000D01*
X21499617Y-29000383D01*
X21499901Y-29000500D01*
X24487944Y-29000500D01*
X24500099Y-29000500D01*
X24500383Y-29000383D01*
X24500541Y-29000000D01*
X26499459Y-29000000D01*
X26499617Y-29000383D01*
X26499901Y-29000500D01*
X29487944Y-29000500D01*
X29500099Y-29000500D01*
X29500383Y-29000383D01*
X29500541Y-29000000D01*
X31499459Y-29000000D01*
X31499617Y-29000383D01*
X31499901Y-29000500D01*
X34487944Y-29000500D01*
X34500099Y-29000500D01*
X34500383Y-29000383D01*
X34500541Y-29000000D01*
X36499459Y-29000000D01*
X36499617Y-29000383D01*
X36499901Y-29000500D01*
X39487944Y-29000500D01*
X39500099Y-29000500D01*
X39500383Y-29000383D01*
X39500541Y-29000000D01*
X41499459Y-29000000D01*
X41499617Y-29000383D01*
X41499901Y-29000500D01*
X44487944Y-29000500D01*
X44500099Y-29000500D01*
X44500383Y-29000383D01*
X44500541Y-29000000D01*
X46499459Y-29000000D01*
X46499617Y-29000383D01*
X46499901Y-29000500D01*
X49487944Y-29000500D01*
X49500099Y-29000500D01*
X49500383Y-29000383D01*
X49500541Y-29000000D01*
X49500383Y-28999617D01*
X49500099Y-28999500D01*
X46499901Y-28999500D01*
X46499617Y-28999617D01*
X46499459Y-29000000D01*
X44500541Y-29000000D01*
X44500383Y-28999617D01*
X44500099Y-28999500D01*
X41499901Y-28999500D01*
X41499617Y-28999617D01*
X41499459Y-29000000D01*
X39500541Y-29000000D01*
X39500383Y-28999617D01*
X39500099Y-28999500D01*
X36499901Y-28999500D01*
X36499617Y-28999617D01*
X36499459Y-29000000D01*
X34500541Y-29000000D01*
X34500383Y-28999617D01*
X34500099Y-28999500D01*
X31499901Y-28999500D01*
X31499617Y-28999617D01*
X31499459Y-29000000D01*
X29500541Y-29000000D01*
X29500383Y-28999617D01*
X29500099Y-28999500D01*
X26499901Y-28999500D01*
X26499617Y-28999617D01*
X26499459Y-29000000D01*
X24500541Y-29000000D01*
X24500383Y-28999617D01*
X24500099Y-28999500D01*
X21499901Y-28999500D01*
X21499617Y-28999617D01*
X21499459Y-29000000D01*
X20000500Y-29000000D01*
X20000500Y-23000000D01*
X25074551Y-23000000D01*
X25094317Y-23251148D01*
X25095452Y-23255877D01*
X25095453Y-23255881D01*
X25151989Y-23491374D01*
X25151991Y-23491382D01*
X25153127Y-23496111D01*
X25249534Y-23728859D01*
X25252081Y-23733016D01*
X25252082Y-23733017D01*
X25378617Y-23939504D01*
X25378622Y-23939511D01*
X25381164Y-23943659D01*
X25384324Y-23947358D01*
X25384327Y-23947363D01*
X25534845Y-24123596D01*
X25544776Y-24135224D01*
X25548476Y-24138384D01*
X25730705Y-24294023D01*
X25736341Y-24298836D01*
X25740491Y-24301379D01*
X25740495Y-24301382D01*
X25852300Y-24369896D01*
X25951141Y-24430466D01*
X26183889Y-24526873D01*
X26428852Y-24585683D01*
X26680000Y-24605449D01*
X26931148Y-24585683D01*
X27176111Y-24526873D01*
X27408859Y-24430466D01*
X27623659Y-24298836D01*
X27815224Y-24135224D01*
X27978836Y-23943659D01*
X28110466Y-23728859D01*
X28206873Y-23496111D01*
X28265683Y-23251148D01*
X28285449Y-23000000D01*
X42194551Y-23000000D01*
X42214317Y-23251148D01*
X42215452Y-23255877D01*
X42215453Y-23255881D01*
X42271989Y-23491374D01*
X42271991Y-23491382D01*
X42273127Y-23496111D01*
X42369534Y-23728859D01*
X42372081Y-23733016D01*
X42372082Y-23733017D01*
X42498617Y-23939504D01*
X42498622Y-23939511D01*
X42501164Y-23943659D01*
X42504324Y-23947358D01*
X42504327Y-23947363D01*
X42654845Y-24123596D01*
X42664776Y-24135224D01*
X42668476Y-24138384D01*
X42850705Y-24294023D01*
X42856341Y-24298836D01*
X42860491Y-24301379D01*
X42860495Y-24301382D01*
X42972300Y-24369896D01*
X43071141Y-24430466D01*
X43303889Y-24526873D01*
X43548852Y-24585683D01*
X43800000Y-24605449D01*
X44051148Y-24585683D01*
X44296111Y-24526873D01*
X44528859Y-24430466D01*
X44743659Y-24298836D01*
X44935224Y-24135224D01*
X45098836Y-23943659D01*
X45230466Y-23728859D01*
X45326873Y-23496111D01*
X45385683Y-23251148D01*
X45405449Y-23000000D01*
X45385683Y-22748852D01*
X45326873Y-22503889D01*
X45230466Y-22271141D01*
X45098836Y-22056341D01*
X44935224Y-21864776D01*
X44931523Y-21861615D01*
X44747363Y-21704327D01*
X44747358Y-21704324D01*
X44743659Y-21701164D01*
X44739511Y-21698622D01*
X44739504Y-21698617D01*
X44533017Y-21572082D01*
X44533016Y-21572081D01*
X44528859Y-21569534D01*
X44296111Y-21473127D01*
X44291382Y-21471991D01*
X44291374Y-21471989D01*
X44055881Y-21415453D01*
X44055877Y-21415452D01*
X44051148Y-21414317D01*
X44046295Y-21413935D01*
X43804854Y-21394933D01*
X43800000Y-21394551D01*
X43795146Y-21394933D01*
X43553704Y-21413935D01*
X43553702Y-21413935D01*
X43548852Y-21414317D01*
X43544124Y-21415451D01*
X43544118Y-21415453D01*
X43308625Y-21471989D01*
X43308613Y-21471992D01*
X43303889Y-21473127D01*
X43299392Y-21474989D01*
X43299388Y-21474991D01*
X43075645Y-21567668D01*
X43075640Y-21567670D01*
X43071141Y-21569534D01*
X43066988Y-21572078D01*
X43066982Y-21572082D01*
X42860495Y-21698617D01*
X42860482Y-21698626D01*
X42856341Y-21701164D01*
X42852646Y-21704319D01*
X42852636Y-21704327D01*
X42668476Y-21861615D01*
X42668469Y-21861621D01*
X42664776Y-21864776D01*
X42661621Y-21868469D01*
X42661615Y-21868476D01*
X42504327Y-22052636D01*
X42504319Y-22052646D01*
X42501164Y-22056341D01*
X42498626Y-22060482D01*
X42498617Y-22060495D01*
X42372082Y-22266982D01*
X42372078Y-22266988D01*
X42369534Y-22271141D01*
X42367670Y-22275640D01*
X42367668Y-22275645D01*
X42274991Y-22499388D01*
X42273127Y-22503889D01*
X42271992Y-22508613D01*
X42271989Y-22508625D01*
X42215453Y-22744118D01*
X42215451Y-22744124D01*
X42214317Y-22748852D01*
X42194551Y-23000000D01*
X28285449Y-23000000D01*
X28265683Y-22748852D01*
X28206873Y-22503889D01*
X28110466Y-22271141D01*
X27978836Y-22056341D01*
X27815224Y-21864776D01*
X27811523Y-21861615D01*
X27627363Y-21704327D01*
X27627358Y-21704324D01*
X27623659Y-21701164D01*
X27619511Y-21698622D01*
X27619504Y-21698617D01*
X27413017Y-21572082D01*
X27413016Y-21572081D01*
X27408859Y-21569534D01*
X27176111Y-21473127D01*
X27171382Y-21471991D01*
X27171374Y-21471989D01*
X26935881Y-21415453D01*
X26935877Y-21415452D01*
X26931148Y-21414317D01*
X26926295Y-21413935D01*
X26684854Y-21394933D01*
X26680000Y-21394551D01*
X26675146Y-21394933D01*
X26433704Y-21413935D01*
X26433702Y-21413935D01*
X26428852Y-21414317D01*
X26424124Y-21415451D01*
X26424118Y-21415453D01*
X26188625Y-21471989D01*
X26188613Y-21471992D01*
X26183889Y-21473127D01*
X26179392Y-21474989D01*
X26179388Y-21474991D01*
X25955645Y-21567668D01*
X25955640Y-21567670D01*
X25951141Y-21569534D01*
X25946988Y-21572078D01*
X25946982Y-21572082D01*
X25740495Y-21698617D01*
X25740482Y-21698626D01*
X25736341Y-21701164D01*
X25732646Y-21704319D01*
X25732636Y-21704327D01*
X25548476Y-21861615D01*
X25548469Y-21861621D01*
X25544776Y-21864776D01*
X25541621Y-21868469D01*
X25541615Y-21868476D01*
X25384327Y-22052636D01*
X25384319Y-22052646D01*
X25381164Y-22056341D01*
X25378626Y-22060482D01*
X25378617Y-22060495D01*
X25252082Y-22266982D01*
X25252078Y-22266988D01*
X25249534Y-22271141D01*
X25247670Y-22275640D01*
X25247668Y-22275645D01*
X25154991Y-22499388D01*
X25153127Y-22503889D01*
X25151992Y-22508613D01*
X25151989Y-22508625D01*
X25095453Y-22744118D01*
X25095451Y-22744124D01*
X25094317Y-22748852D01*
X25074551Y-23000000D01*
X20000500Y-23000000D01*
X20000500Y-20124500D01*
X20017113Y-20062500D01*
X20062500Y-20017113D01*
X20124500Y-20000500D01*
X50355500Y-20000500D01*
X50417500Y-20017113D01*
G37*
%TD.AperFunction*%
%TD*%
M02*
