%TF.GenerationSoftware,KiCad,Pcbnew,(7.0.0)*%
%TF.CreationDate,2023-03-26T07:24:26-07:00*%
%TF.ProjectId,wyw_extra,7779775f-6578-4747-9261-2e6b69636164,rev?*%
%TF.SameCoordinates,Original*%
%TF.FileFunction,Paste,Top*%
%TF.FilePolarity,Positive*%
%FSLAX46Y46*%
G04 Gerber Fmt 4.6, Leading zero omitted, Abs format (unit mm)*
G04 Created by KiCad (PCBNEW (7.0.0)) date 2023-03-26 07:24:26*
%MOMM*%
%LPD*%
G01*
G04 APERTURE LIST*
G04 Aperture macros list*
%AMRoundRect*
0 Rectangle with rounded corners*
0 $1 Rounding radius*
0 $2 $3 $4 $5 $6 $7 $8 $9 X,Y pos of 4 corners*
0 Add a 4 corners polygon primitive as box body*
4,1,4,$2,$3,$4,$5,$6,$7,$8,$9,$2,$3,0*
0 Add four circle primitives for the rounded corners*
1,1,$1+$1,$2,$3*
1,1,$1+$1,$4,$5*
1,1,$1+$1,$6,$7*
1,1,$1+$1,$8,$9*
0 Add four rect primitives between the rounded corners*
20,1,$1+$1,$2,$3,$4,$5,0*
20,1,$1+$1,$4,$5,$6,$7,0*
20,1,$1+$1,$6,$7,$8,$9,0*
20,1,$1+$1,$8,$9,$2,$3,0*%
G04 Aperture macros list end*
%ADD10RoundRect,0.225000X0.225000X0.250000X-0.225000X0.250000X-0.225000X-0.250000X0.225000X-0.250000X0*%
%ADD11R,3.150000X1.000000*%
%ADD12RoundRect,0.218750X-0.218750X-0.256250X0.218750X-0.256250X0.218750X0.256250X-0.218750X0.256250X0*%
%ADD13R,1.550000X1.300000*%
%ADD14RoundRect,0.150000X0.825000X0.150000X-0.825000X0.150000X-0.825000X-0.150000X0.825000X-0.150000X0*%
%ADD15R,1.000000X3.150000*%
%ADD16R,1.600000X0.550000*%
%ADD17R,0.550000X1.600000*%
%ADD18RoundRect,0.200000X0.200000X0.275000X-0.200000X0.275000X-0.200000X-0.275000X0.200000X-0.275000X0*%
%ADD19RoundRect,0.150000X0.150000X-0.825000X0.150000X0.825000X-0.150000X0.825000X-0.150000X-0.825000X0*%
%ADD20R,1.200000X1.200000*%
%ADD21R,1.500000X1.600000*%
G04 APERTURE END LIST*
D10*
%TO.C,C1*%
X68500000Y-30500000D03*
X66950000Y-30500000D03*
%TD*%
D11*
%TO.C,J2*%
X48249999Y-56709999D03*
X53299999Y-56709999D03*
X48249999Y-59249999D03*
X53299999Y-59249999D03*
X48249999Y-61789999D03*
X53299999Y-61789999D03*
X48249999Y-64329999D03*
X53299999Y-64329999D03*
X48249999Y-66869999D03*
X53299999Y-66869999D03*
%TD*%
D12*
%TO.C,D8*%
X77250000Y-75750000D03*
X78825000Y-75750000D03*
%TD*%
D13*
%TO.C,SW8*%
X22019999Y-86699999D03*
X29979999Y-86699999D03*
X22019999Y-91199999D03*
X29979999Y-91199999D03*
%TD*%
D14*
%TO.C,U5*%
X61700000Y-104945000D03*
X61700000Y-103675000D03*
X61700000Y-102405000D03*
X61700000Y-101135000D03*
X61700000Y-99865000D03*
X61700000Y-98595000D03*
X61700000Y-97325000D03*
X61700000Y-96055000D03*
X56750000Y-96055000D03*
X56750000Y-97325000D03*
X56750000Y-98595000D03*
X56750000Y-99865000D03*
X56750000Y-101135000D03*
X56750000Y-102405000D03*
X56750000Y-103675000D03*
X56750000Y-104945000D03*
%TD*%
D11*
%TO.C,J21*%
X83474999Y-112689999D03*
X88524999Y-112689999D03*
X83474999Y-115229999D03*
X88524999Y-115229999D03*
X83474999Y-117769999D03*
X88524999Y-117769999D03*
%TD*%
%TO.C,J30*%
X46999999Y-110129999D03*
X52049999Y-110129999D03*
X46999999Y-112669999D03*
X52049999Y-112669999D03*
X46999999Y-115209999D03*
X52049999Y-115209999D03*
X46999999Y-117749999D03*
X52049999Y-117749999D03*
X46999999Y-120289999D03*
X52049999Y-120289999D03*
%TD*%
D13*
%TO.C,SW7*%
X22019999Y-78849999D03*
X29979999Y-78849999D03*
X22019999Y-83349999D03*
X29979999Y-83349999D03*
%TD*%
%TO.C,SW2*%
X22019999Y-39599999D03*
X29979999Y-39599999D03*
X22019999Y-44099999D03*
X29979999Y-44099999D03*
%TD*%
%TO.C,SW10*%
X22019999Y-102399999D03*
X29979999Y-102399999D03*
X22019999Y-106899999D03*
X29979999Y-106899999D03*
%TD*%
D15*
%TO.C,J4*%
X35229999Y-104524999D03*
X35229999Y-99474999D03*
X37769999Y-104524999D03*
X37769999Y-99474999D03*
%TD*%
D11*
%TO.C,J18*%
X66499999Y-95749999D03*
X71549999Y-95749999D03*
X66499999Y-98289999D03*
X71549999Y-98289999D03*
X66499999Y-100829999D03*
X71549999Y-100829999D03*
X66499999Y-103369999D03*
X71549999Y-103369999D03*
X66499999Y-105909999D03*
X71549999Y-105909999D03*
%TD*%
D16*
%TO.C,U3*%
X86999999Y-34949999D03*
X86999999Y-35749999D03*
X86999999Y-36549999D03*
X86999999Y-37349999D03*
X86999999Y-38149999D03*
X86999999Y-38949999D03*
X86999999Y-39749999D03*
X86999999Y-40549999D03*
D17*
X88449999Y-41999999D03*
X89249999Y-41999999D03*
X90049999Y-41999999D03*
X90849999Y-41999999D03*
X91649999Y-41999999D03*
X92449999Y-41999999D03*
X93249999Y-41999999D03*
X94049999Y-41999999D03*
D16*
X95499999Y-40549999D03*
X95499999Y-39749999D03*
X95499999Y-38949999D03*
X95499999Y-38149999D03*
X95499999Y-37349999D03*
X95499999Y-36549999D03*
X95499999Y-35749999D03*
X95499999Y-34949999D03*
D17*
X94049999Y-33499999D03*
X93249999Y-33499999D03*
X92449999Y-33499999D03*
X91649999Y-33499999D03*
X90849999Y-33499999D03*
X90049999Y-33499999D03*
X89249999Y-33499999D03*
X88449999Y-33499999D03*
%TD*%
D11*
%TO.C,J13*%
X35724999Y-57129999D03*
X40774999Y-57129999D03*
X35724999Y-59669999D03*
X40774999Y-59669999D03*
X35724999Y-62209999D03*
X40774999Y-62209999D03*
X35724999Y-64749999D03*
X40774999Y-64749999D03*
X35724999Y-67289999D03*
X40774999Y-67289999D03*
%TD*%
D13*
%TO.C,SW1*%
X22019999Y-31749999D03*
X29979999Y-31749999D03*
X22019999Y-36249999D03*
X29979999Y-36249999D03*
%TD*%
D18*
%TO.C,R5*%
X75825000Y-66960000D03*
X74175000Y-66960000D03*
%TD*%
D15*
%TO.C,J26*%
X38229999Y-46024999D03*
X38229999Y-40974999D03*
X40769999Y-46024999D03*
X40769999Y-40974999D03*
%TD*%
D18*
%TO.C,R6*%
X75787500Y-70750000D03*
X74137500Y-70750000D03*
%TD*%
D11*
%TO.C,J15*%
X83474999Y-83439999D03*
X88524999Y-83439999D03*
X83474999Y-85979999D03*
X88524999Y-85979999D03*
X83474999Y-88519999D03*
X88524999Y-88519999D03*
%TD*%
D18*
%TO.C,R2*%
X75825000Y-59080000D03*
X74175000Y-59080000D03*
%TD*%
D11*
%TO.C,J7*%
X83974999Y-126959999D03*
X89024999Y-126959999D03*
X83974999Y-129499999D03*
X89024999Y-129499999D03*
X83974999Y-132039999D03*
X89024999Y-132039999D03*
%TD*%
D18*
%TO.C,R4*%
X75825000Y-64400000D03*
X74175000Y-64400000D03*
%TD*%
D12*
%TO.C,D1*%
X77250000Y-56710000D03*
X78825000Y-56710000D03*
%TD*%
%TO.C,D4*%
X77250000Y-64440000D03*
X78825000Y-64440000D03*
%TD*%
D18*
%TO.C,R9*%
X75825000Y-78150000D03*
X74175000Y-78150000D03*
%TD*%
D12*
%TO.C,D3*%
X77250000Y-61750000D03*
X78825000Y-61750000D03*
%TD*%
D19*
%TO.C,U4*%
X46305000Y-88805000D03*
X47575000Y-88805000D03*
X48845000Y-88805000D03*
X50115000Y-88805000D03*
X51385000Y-88805000D03*
X52655000Y-88805000D03*
X53925000Y-88805000D03*
X55195000Y-88805000D03*
X55195000Y-83855000D03*
X53925000Y-83855000D03*
X52655000Y-83855000D03*
X51385000Y-83855000D03*
X50115000Y-83855000D03*
X48845000Y-83855000D03*
X47575000Y-83855000D03*
X46305000Y-83855000D03*
%TD*%
D11*
%TO.C,J19*%
X83474999Y-93189999D03*
X88524999Y-93189999D03*
X83474999Y-95729999D03*
X88524999Y-95729999D03*
X83474999Y-98269999D03*
X88524999Y-98269999D03*
%TD*%
D18*
%TO.C,R8*%
X75825000Y-75710000D03*
X74175000Y-75710000D03*
%TD*%
D15*
%TO.C,J8*%
X34959999Y-119274999D03*
X34959999Y-114224999D03*
X37499999Y-119274999D03*
X37499999Y-114224999D03*
X40039999Y-119274999D03*
X40039999Y-114224999D03*
%TD*%
D11*
%TO.C,J5*%
X64999999Y-56709999D03*
X70049999Y-56709999D03*
X64999999Y-59249999D03*
X70049999Y-59249999D03*
X64999999Y-61789999D03*
X70049999Y-61789999D03*
X64999999Y-64329999D03*
X70049999Y-64329999D03*
X64999999Y-66869999D03*
X70049999Y-66869999D03*
%TD*%
%TO.C,J27*%
X63724999Y-87229999D03*
X68774999Y-87229999D03*
X63724999Y-89769999D03*
X68774999Y-89769999D03*
%TD*%
%TO.C,J14*%
X35749999Y-71379999D03*
X40799999Y-71379999D03*
X35749999Y-73919999D03*
X40799999Y-73919999D03*
X35749999Y-76459999D03*
X40799999Y-76459999D03*
X35749999Y-78999999D03*
X40799999Y-78999999D03*
X35749999Y-81539999D03*
X40799999Y-81539999D03*
%TD*%
D18*
%TO.C,R1*%
X75825000Y-56710000D03*
X74175000Y-56710000D03*
%TD*%
D11*
%TO.C,J11*%
X48249999Y-70499999D03*
X53299999Y-70499999D03*
X48249999Y-73039999D03*
X53299999Y-73039999D03*
X48249999Y-75579999D03*
X53299999Y-75579999D03*
X48249999Y-78119999D03*
X53299999Y-78119999D03*
X48249999Y-80659999D03*
X53299999Y-80659999D03*
%TD*%
D13*
%TO.C,SW5*%
X22019999Y-63149999D03*
X29979999Y-63149999D03*
X22019999Y-67649999D03*
X29979999Y-67649999D03*
%TD*%
D11*
%TO.C,J25*%
X64949999Y-70669999D03*
X69999999Y-70669999D03*
X64949999Y-73209999D03*
X69999999Y-73209999D03*
X64949999Y-75749999D03*
X69999999Y-75749999D03*
X64949999Y-78289999D03*
X69999999Y-78289999D03*
X64949999Y-80829999D03*
X69999999Y-80829999D03*
%TD*%
D13*
%TO.C,SW9*%
X22019999Y-94549999D03*
X29979999Y-94549999D03*
X22019999Y-99049999D03*
X29979999Y-99049999D03*
%TD*%
D11*
%TO.C,J12*%
X88999999Y-47419999D03*
X94049999Y-47419999D03*
X88999999Y-49959999D03*
X94049999Y-49959999D03*
X88999999Y-52499999D03*
X94049999Y-52499999D03*
X88999999Y-55039999D03*
X94049999Y-55039999D03*
X88999999Y-57579999D03*
X94049999Y-57579999D03*
X88999999Y-60119999D03*
X94049999Y-60119999D03*
X88999999Y-62659999D03*
X94049999Y-62659999D03*
X88999999Y-65199999D03*
X94049999Y-65199999D03*
X88999999Y-67739999D03*
X94049999Y-67739999D03*
X88999999Y-70279999D03*
X94049999Y-70279999D03*
X88999999Y-72819999D03*
X94049999Y-72819999D03*
X88999999Y-75359999D03*
X94049999Y-75359999D03*
%TD*%
D13*
%TO.C,SW6*%
X22019999Y-70999999D03*
X29979999Y-70999999D03*
X22019999Y-75499999D03*
X29979999Y-75499999D03*
%TD*%
%TO.C,SW4*%
X22019999Y-55299999D03*
X29979999Y-55299999D03*
X22019999Y-59799999D03*
X29979999Y-59799999D03*
%TD*%
D11*
%TO.C,J17*%
X43699999Y-95499999D03*
X48749999Y-95499999D03*
X43699999Y-98039999D03*
X48749999Y-98039999D03*
X43699999Y-100579999D03*
X48749999Y-100579999D03*
X43699999Y-103119999D03*
X48749999Y-103119999D03*
X43699999Y-105659999D03*
X48749999Y-105659999D03*
%TD*%
D18*
%TO.C,R3*%
X75825000Y-61710000D03*
X74175000Y-61710000D03*
%TD*%
D13*
%TO.C,SW3*%
X22019999Y-47449999D03*
X29979999Y-47449999D03*
X22019999Y-51949999D03*
X29979999Y-51949999D03*
%TD*%
D12*
%TO.C,D2*%
X77250000Y-59120000D03*
X78825000Y-59120000D03*
%TD*%
D11*
%TO.C,J29*%
X74474999Y-41919999D03*
X79524999Y-41919999D03*
X74474999Y-44459999D03*
X79524999Y-44459999D03*
X74474999Y-46999999D03*
X79524999Y-46999999D03*
X74474999Y-49539999D03*
X79524999Y-49539999D03*
X74474999Y-52079999D03*
X79524999Y-52079999D03*
%TD*%
D20*
%TO.C,RV2*%
X76024999Y-128499999D03*
D21*
X79274999Y-129499999D03*
D20*
X76024999Y-130499999D03*
%TD*%
D11*
%TO.C,J20*%
X83474999Y-102939999D03*
X88524999Y-102939999D03*
X83474999Y-105479999D03*
X88524999Y-105479999D03*
X83474999Y-108019999D03*
X88524999Y-108019999D03*
%TD*%
D12*
%TO.C,D9*%
X77250000Y-78190000D03*
X78825000Y-78190000D03*
%TD*%
%TO.C,D6*%
X77212500Y-70750000D03*
X78787500Y-70750000D03*
%TD*%
%TO.C,D10*%
X77250000Y-80750000D03*
X78825000Y-80750000D03*
%TD*%
D18*
%TO.C,R7*%
X75825000Y-73210000D03*
X74175000Y-73210000D03*
%TD*%
D12*
%TO.C,D5*%
X77250000Y-67000000D03*
X78825000Y-67000000D03*
%TD*%
%TO.C,D7*%
X77250000Y-73250000D03*
X78825000Y-73250000D03*
%TD*%
D15*
%TO.C,J28*%
X63979999Y-49524999D03*
X63979999Y-44474999D03*
X66519999Y-49524999D03*
X66519999Y-44474999D03*
%TD*%
%TO.C,J6*%
X64039999Y-114724999D03*
X64039999Y-119774999D03*
X61499999Y-114724999D03*
X61499999Y-119774999D03*
X58959999Y-114724999D03*
X58959999Y-119774999D03*
%TD*%
D19*
%TO.C,U1*%
X46305000Y-53305000D03*
X47575000Y-53305000D03*
X48845000Y-53305000D03*
X50115000Y-53305000D03*
X51385000Y-53305000D03*
X52655000Y-53305000D03*
X53925000Y-53305000D03*
X55195000Y-53305000D03*
X55195000Y-48355000D03*
X53925000Y-48355000D03*
X52655000Y-48355000D03*
X51385000Y-48355000D03*
X50115000Y-48355000D03*
X48845000Y-48355000D03*
X47575000Y-48355000D03*
X46305000Y-48355000D03*
%TD*%
D14*
%TO.C,U2*%
X98575000Y-104560000D03*
X98575000Y-103290000D03*
X98575000Y-102020000D03*
X98575000Y-100750000D03*
X98575000Y-99480000D03*
X98575000Y-98210000D03*
X98575000Y-96940000D03*
X93625000Y-96940000D03*
X93625000Y-98210000D03*
X93625000Y-99480000D03*
X93625000Y-100750000D03*
X93625000Y-102020000D03*
X93625000Y-103290000D03*
X93625000Y-104560000D03*
%TD*%
D18*
%TO.C,R10*%
X75825000Y-80710000D03*
X74175000Y-80710000D03*
%TD*%
M02*
