%TF.GenerationSoftware,KiCad,Pcbnew,(7.0.0)*%
%TF.CreationDate,2023-03-26T07:24:26-07:00*%
%TF.ProjectId,wyw_extra,7779775f-6578-4747-9261-2e6b69636164,rev?*%
%TF.SameCoordinates,Original*%
%TF.FileFunction,Other,Comment*%
%FSLAX46Y46*%
G04 Gerber Fmt 4.6, Leading zero omitted, Abs format (unit mm)*
G04 Created by KiCad (PCBNEW (7.0.0)) date 2023-03-26 07:24:26*
%MOMM*%
%LPD*%
G01*
G04 APERTURE LIST*
%ADD10C,0.051000*%
%ADD11C,0.020000*%
G04 APERTURE END LIST*
D10*
%TO.C,J9*%
X26011904Y-129516952D02*
X26011904Y-129116952D01*
X26240475Y-129516952D02*
X26069046Y-129288380D01*
X26240475Y-129116952D02*
X26011904Y-129345523D01*
X26411904Y-129307428D02*
X26545237Y-129307428D01*
X26602380Y-129516952D02*
X26411904Y-129516952D01*
X26411904Y-129516952D02*
X26411904Y-129116952D01*
X26411904Y-129116952D02*
X26602380Y-129116952D01*
X26773809Y-129307428D02*
X26907142Y-129307428D01*
X26964285Y-129516952D02*
X26773809Y-129516952D01*
X26773809Y-129516952D02*
X26773809Y-129116952D01*
X26773809Y-129116952D02*
X26964285Y-129116952D01*
X27135714Y-129516952D02*
X27135714Y-129116952D01*
X27135714Y-129116952D02*
X27288095Y-129116952D01*
X27288095Y-129116952D02*
X27326190Y-129136000D01*
X27326190Y-129136000D02*
X27345237Y-129155047D01*
X27345237Y-129155047D02*
X27364285Y-129193142D01*
X27364285Y-129193142D02*
X27364285Y-129250285D01*
X27364285Y-129250285D02*
X27345237Y-129288380D01*
X27345237Y-129288380D02*
X27326190Y-129307428D01*
X27326190Y-129307428D02*
X27288095Y-129326476D01*
X27288095Y-129326476D02*
X27135714Y-129326476D01*
X27611904Y-129116952D02*
X27688095Y-129116952D01*
X27688095Y-129116952D02*
X27726190Y-129136000D01*
X27726190Y-129136000D02*
X27764285Y-129174095D01*
X27764285Y-129174095D02*
X27783333Y-129250285D01*
X27783333Y-129250285D02*
X27783333Y-129383619D01*
X27783333Y-129383619D02*
X27764285Y-129459809D01*
X27764285Y-129459809D02*
X27726190Y-129497904D01*
X27726190Y-129497904D02*
X27688095Y-129516952D01*
X27688095Y-129516952D02*
X27611904Y-129516952D01*
X27611904Y-129516952D02*
X27573809Y-129497904D01*
X27573809Y-129497904D02*
X27535714Y-129459809D01*
X27535714Y-129459809D02*
X27516666Y-129383619D01*
X27516666Y-129383619D02*
X27516666Y-129250285D01*
X27516666Y-129250285D02*
X27535714Y-129174095D01*
X27535714Y-129174095D02*
X27573809Y-129136000D01*
X27573809Y-129136000D02*
X27611904Y-129116952D01*
X27954762Y-129116952D02*
X27954762Y-129440761D01*
X27954762Y-129440761D02*
X27973809Y-129478857D01*
X27973809Y-129478857D02*
X27992857Y-129497904D01*
X27992857Y-129497904D02*
X28030952Y-129516952D01*
X28030952Y-129516952D02*
X28107143Y-129516952D01*
X28107143Y-129516952D02*
X28145238Y-129497904D01*
X28145238Y-129497904D02*
X28164285Y-129478857D01*
X28164285Y-129478857D02*
X28183333Y-129440761D01*
X28183333Y-129440761D02*
X28183333Y-129116952D01*
X28316667Y-129116952D02*
X28545238Y-129116952D01*
X28430952Y-129516952D02*
X28430952Y-129116952D01*
%TO.C,J10*%
X47011904Y-129516952D02*
X47011904Y-129116952D01*
X47240475Y-129516952D02*
X47069046Y-129288380D01*
X47240475Y-129116952D02*
X47011904Y-129345523D01*
X47411904Y-129307428D02*
X47545237Y-129307428D01*
X47602380Y-129516952D02*
X47411904Y-129516952D01*
X47411904Y-129516952D02*
X47411904Y-129116952D01*
X47411904Y-129116952D02*
X47602380Y-129116952D01*
X47773809Y-129307428D02*
X47907142Y-129307428D01*
X47964285Y-129516952D02*
X47773809Y-129516952D01*
X47773809Y-129516952D02*
X47773809Y-129116952D01*
X47773809Y-129116952D02*
X47964285Y-129116952D01*
X48135714Y-129516952D02*
X48135714Y-129116952D01*
X48135714Y-129116952D02*
X48288095Y-129116952D01*
X48288095Y-129116952D02*
X48326190Y-129136000D01*
X48326190Y-129136000D02*
X48345237Y-129155047D01*
X48345237Y-129155047D02*
X48364285Y-129193142D01*
X48364285Y-129193142D02*
X48364285Y-129250285D01*
X48364285Y-129250285D02*
X48345237Y-129288380D01*
X48345237Y-129288380D02*
X48326190Y-129307428D01*
X48326190Y-129307428D02*
X48288095Y-129326476D01*
X48288095Y-129326476D02*
X48135714Y-129326476D01*
X48611904Y-129116952D02*
X48688095Y-129116952D01*
X48688095Y-129116952D02*
X48726190Y-129136000D01*
X48726190Y-129136000D02*
X48764285Y-129174095D01*
X48764285Y-129174095D02*
X48783333Y-129250285D01*
X48783333Y-129250285D02*
X48783333Y-129383619D01*
X48783333Y-129383619D02*
X48764285Y-129459809D01*
X48764285Y-129459809D02*
X48726190Y-129497904D01*
X48726190Y-129497904D02*
X48688095Y-129516952D01*
X48688095Y-129516952D02*
X48611904Y-129516952D01*
X48611904Y-129516952D02*
X48573809Y-129497904D01*
X48573809Y-129497904D02*
X48535714Y-129459809D01*
X48535714Y-129459809D02*
X48516666Y-129383619D01*
X48516666Y-129383619D02*
X48516666Y-129250285D01*
X48516666Y-129250285D02*
X48535714Y-129174095D01*
X48535714Y-129174095D02*
X48573809Y-129136000D01*
X48573809Y-129136000D02*
X48611904Y-129116952D01*
X48954762Y-129116952D02*
X48954762Y-129440761D01*
X48954762Y-129440761D02*
X48973809Y-129478857D01*
X48973809Y-129478857D02*
X48992857Y-129497904D01*
X48992857Y-129497904D02*
X49030952Y-129516952D01*
X49030952Y-129516952D02*
X49107143Y-129516952D01*
X49107143Y-129516952D02*
X49145238Y-129497904D01*
X49145238Y-129497904D02*
X49164285Y-129478857D01*
X49164285Y-129478857D02*
X49183333Y-129440761D01*
X49183333Y-129440761D02*
X49183333Y-129116952D01*
X49316667Y-129116952D02*
X49545238Y-129116952D01*
X49430952Y-129516952D02*
X49430952Y-129116952D01*
D11*
%TO.C,RV2*%
X76949286Y-128362107D02*
X76985000Y-128512107D01*
X76985000Y-128512107D02*
X77013572Y-128404964D01*
X77013572Y-128404964D02*
X77042143Y-128512107D01*
X77042143Y-128512107D02*
X77077858Y-128362107D01*
X77135001Y-128512107D02*
X77135001Y-128412107D01*
X77135001Y-128362107D02*
X77127858Y-128369250D01*
X77127858Y-128369250D02*
X77135001Y-128376392D01*
X77135001Y-128376392D02*
X77142144Y-128369250D01*
X77142144Y-128369250D02*
X77135001Y-128362107D01*
X77135001Y-128362107D02*
X77135001Y-128376392D01*
X77206430Y-128412107D02*
X77206430Y-128562107D01*
X77206430Y-128419250D02*
X77220716Y-128412107D01*
X77220716Y-128412107D02*
X77249287Y-128412107D01*
X77249287Y-128412107D02*
X77263573Y-128419250D01*
X77263573Y-128419250D02*
X77270716Y-128426392D01*
X77270716Y-128426392D02*
X77277858Y-128440678D01*
X77277858Y-128440678D02*
X77277858Y-128483535D01*
X77277858Y-128483535D02*
X77270716Y-128497821D01*
X77270716Y-128497821D02*
X77263573Y-128504964D01*
X77263573Y-128504964D02*
X77249287Y-128512107D01*
X77249287Y-128512107D02*
X77220716Y-128512107D01*
X77220716Y-128512107D02*
X77206430Y-128504964D01*
X77399287Y-128504964D02*
X77385001Y-128512107D01*
X77385001Y-128512107D02*
X77356430Y-128512107D01*
X77356430Y-128512107D02*
X77342144Y-128504964D01*
X77342144Y-128504964D02*
X77335001Y-128490678D01*
X77335001Y-128490678D02*
X77335001Y-128433535D01*
X77335001Y-128433535D02*
X77342144Y-128419250D01*
X77342144Y-128419250D02*
X77356430Y-128412107D01*
X77356430Y-128412107D02*
X77385001Y-128412107D01*
X77385001Y-128412107D02*
X77399287Y-128419250D01*
X77399287Y-128419250D02*
X77406430Y-128433535D01*
X77406430Y-128433535D02*
X77406430Y-128447821D01*
X77406430Y-128447821D02*
X77335001Y-128462107D01*
X77470715Y-128512107D02*
X77470715Y-128412107D01*
X77470715Y-128440678D02*
X77477858Y-128426392D01*
X77477858Y-128426392D02*
X77485001Y-128419250D01*
X77485001Y-128419250D02*
X77499286Y-128412107D01*
X77499286Y-128412107D02*
X77513572Y-128412107D01*
X77653572Y-128512107D02*
X77653572Y-128412107D01*
X77653572Y-128426392D02*
X77660715Y-128419250D01*
X77660715Y-128419250D02*
X77675000Y-128412107D01*
X77675000Y-128412107D02*
X77696429Y-128412107D01*
X77696429Y-128412107D02*
X77710715Y-128419250D01*
X77710715Y-128419250D02*
X77717858Y-128433535D01*
X77717858Y-128433535D02*
X77717858Y-128512107D01*
X77717858Y-128433535D02*
X77725000Y-128419250D01*
X77725000Y-128419250D02*
X77739286Y-128412107D01*
X77739286Y-128412107D02*
X77760715Y-128412107D01*
X77760715Y-128412107D02*
X77775000Y-128419250D01*
X77775000Y-128419250D02*
X77782143Y-128433535D01*
X77782143Y-128433535D02*
X77782143Y-128512107D01*
X77917858Y-128512107D02*
X77917858Y-128433535D01*
X77917858Y-128433535D02*
X77910715Y-128419250D01*
X77910715Y-128419250D02*
X77896429Y-128412107D01*
X77896429Y-128412107D02*
X77867858Y-128412107D01*
X77867858Y-128412107D02*
X77853572Y-128419250D01*
X77917858Y-128504964D02*
X77903572Y-128512107D01*
X77903572Y-128512107D02*
X77867858Y-128512107D01*
X77867858Y-128512107D02*
X77853572Y-128504964D01*
X77853572Y-128504964D02*
X77846429Y-128490678D01*
X77846429Y-128490678D02*
X77846429Y-128476392D01*
X77846429Y-128476392D02*
X77853572Y-128462107D01*
X77853572Y-128462107D02*
X77867858Y-128454964D01*
X77867858Y-128454964D02*
X77903572Y-128454964D01*
X77903572Y-128454964D02*
X77917858Y-128447821D01*
X77975000Y-128412107D02*
X78010714Y-128512107D01*
X78046429Y-128412107D02*
X78010714Y-128512107D01*
X78010714Y-128512107D02*
X77996429Y-128547821D01*
X77996429Y-128547821D02*
X77989286Y-128554964D01*
X77989286Y-128554964D02*
X77975000Y-128562107D01*
X78193572Y-128512107D02*
X78193572Y-128362107D01*
X78193572Y-128419250D02*
X78207858Y-128412107D01*
X78207858Y-128412107D02*
X78236429Y-128412107D01*
X78236429Y-128412107D02*
X78250715Y-128419250D01*
X78250715Y-128419250D02*
X78257858Y-128426392D01*
X78257858Y-128426392D02*
X78265000Y-128440678D01*
X78265000Y-128440678D02*
X78265000Y-128483535D01*
X78265000Y-128483535D02*
X78257858Y-128497821D01*
X78257858Y-128497821D02*
X78250715Y-128504964D01*
X78250715Y-128504964D02*
X78236429Y-128512107D01*
X78236429Y-128512107D02*
X78207858Y-128512107D01*
X78207858Y-128512107D02*
X78193572Y-128504964D01*
X78386429Y-128504964D02*
X78372143Y-128512107D01*
X78372143Y-128512107D02*
X78343572Y-128512107D01*
X78343572Y-128512107D02*
X78329286Y-128504964D01*
X78329286Y-128504964D02*
X78322143Y-128490678D01*
X78322143Y-128490678D02*
X78322143Y-128433535D01*
X78322143Y-128433535D02*
X78329286Y-128419250D01*
X78329286Y-128419250D02*
X78343572Y-128412107D01*
X78343572Y-128412107D02*
X78372143Y-128412107D01*
X78372143Y-128412107D02*
X78386429Y-128419250D01*
X78386429Y-128419250D02*
X78393572Y-128433535D01*
X78393572Y-128433535D02*
X78393572Y-128447821D01*
X78393572Y-128447821D02*
X78322143Y-128462107D01*
X76887144Y-128755107D02*
X76887144Y-128676535D01*
X76887144Y-128676535D02*
X76880001Y-128662250D01*
X76880001Y-128662250D02*
X76865715Y-128655107D01*
X76865715Y-128655107D02*
X76837144Y-128655107D01*
X76837144Y-128655107D02*
X76822858Y-128662250D01*
X76887144Y-128747964D02*
X76872858Y-128755107D01*
X76872858Y-128755107D02*
X76837144Y-128755107D01*
X76837144Y-128755107D02*
X76822858Y-128747964D01*
X76822858Y-128747964D02*
X76815715Y-128733678D01*
X76815715Y-128733678D02*
X76815715Y-128719392D01*
X76815715Y-128719392D02*
X76822858Y-128705107D01*
X76822858Y-128705107D02*
X76837144Y-128697964D01*
X76837144Y-128697964D02*
X76872858Y-128697964D01*
X76872858Y-128697964D02*
X76887144Y-128690821D01*
X76958572Y-128655107D02*
X76958572Y-128755107D01*
X76958572Y-128669392D02*
X76965715Y-128662250D01*
X76965715Y-128662250D02*
X76980000Y-128655107D01*
X76980000Y-128655107D02*
X77001429Y-128655107D01*
X77001429Y-128655107D02*
X77015715Y-128662250D01*
X77015715Y-128662250D02*
X77022858Y-128676535D01*
X77022858Y-128676535D02*
X77022858Y-128755107D01*
X77080000Y-128655107D02*
X77115714Y-128755107D01*
X77151429Y-128655107D02*
X77115714Y-128755107D01*
X77115714Y-128755107D02*
X77101429Y-128790821D01*
X77101429Y-128790821D02*
X77094286Y-128797964D01*
X77094286Y-128797964D02*
X77080000Y-128805107D01*
X77194286Y-128655107D02*
X77222858Y-128755107D01*
X77222858Y-128755107D02*
X77251429Y-128683678D01*
X77251429Y-128683678D02*
X77280000Y-128755107D01*
X77280000Y-128755107D02*
X77308572Y-128655107D01*
X77365715Y-128755107D02*
X77365715Y-128605107D01*
X77430001Y-128755107D02*
X77430001Y-128676535D01*
X77430001Y-128676535D02*
X77422858Y-128662250D01*
X77422858Y-128662250D02*
X77408572Y-128655107D01*
X77408572Y-128655107D02*
X77387143Y-128655107D01*
X77387143Y-128655107D02*
X77372858Y-128662250D01*
X77372858Y-128662250D02*
X77365715Y-128669392D01*
X77558572Y-128747964D02*
X77544286Y-128755107D01*
X77544286Y-128755107D02*
X77515715Y-128755107D01*
X77515715Y-128755107D02*
X77501429Y-128747964D01*
X77501429Y-128747964D02*
X77494286Y-128733678D01*
X77494286Y-128733678D02*
X77494286Y-128676535D01*
X77494286Y-128676535D02*
X77501429Y-128662250D01*
X77501429Y-128662250D02*
X77515715Y-128655107D01*
X77515715Y-128655107D02*
X77544286Y-128655107D01*
X77544286Y-128655107D02*
X77558572Y-128662250D01*
X77558572Y-128662250D02*
X77565715Y-128676535D01*
X77565715Y-128676535D02*
X77565715Y-128690821D01*
X77565715Y-128690821D02*
X77494286Y-128705107D01*
X77630000Y-128755107D02*
X77630000Y-128655107D01*
X77630000Y-128683678D02*
X77637143Y-128669392D01*
X77637143Y-128669392D02*
X77644286Y-128662250D01*
X77644286Y-128662250D02*
X77658571Y-128655107D01*
X77658571Y-128655107D02*
X77672857Y-128655107D01*
X77780000Y-128747964D02*
X77765714Y-128755107D01*
X77765714Y-128755107D02*
X77737143Y-128755107D01*
X77737143Y-128755107D02*
X77722857Y-128747964D01*
X77722857Y-128747964D02*
X77715714Y-128733678D01*
X77715714Y-128733678D02*
X77715714Y-128676535D01*
X77715714Y-128676535D02*
X77722857Y-128662250D01*
X77722857Y-128662250D02*
X77737143Y-128655107D01*
X77737143Y-128655107D02*
X77765714Y-128655107D01*
X77765714Y-128655107D02*
X77780000Y-128662250D01*
X77780000Y-128662250D02*
X77787143Y-128676535D01*
X77787143Y-128676535D02*
X77787143Y-128690821D01*
X77787143Y-128690821D02*
X77715714Y-128705107D01*
X77927142Y-128655107D02*
X77955714Y-128755107D01*
X77955714Y-128755107D02*
X77984285Y-128683678D01*
X77984285Y-128683678D02*
X78012856Y-128755107D01*
X78012856Y-128755107D02*
X78041428Y-128655107D01*
X78098571Y-128755107D02*
X78098571Y-128655107D01*
X78098571Y-128605107D02*
X78091428Y-128612250D01*
X78091428Y-128612250D02*
X78098571Y-128619392D01*
X78098571Y-128619392D02*
X78105714Y-128612250D01*
X78105714Y-128612250D02*
X78098571Y-128605107D01*
X78098571Y-128605107D02*
X78098571Y-128619392D01*
X78148571Y-128655107D02*
X78205714Y-128655107D01*
X78170000Y-128605107D02*
X78170000Y-128733678D01*
X78170000Y-128733678D02*
X78177143Y-128747964D01*
X78177143Y-128747964D02*
X78191428Y-128755107D01*
X78191428Y-128755107D02*
X78205714Y-128755107D01*
X78255714Y-128755107D02*
X78255714Y-128605107D01*
X78320000Y-128755107D02*
X78320000Y-128676535D01*
X78320000Y-128676535D02*
X78312857Y-128662250D01*
X78312857Y-128662250D02*
X78298571Y-128655107D01*
X78298571Y-128655107D02*
X78277142Y-128655107D01*
X78277142Y-128655107D02*
X78262857Y-128662250D01*
X78262857Y-128662250D02*
X78255714Y-128669392D01*
X78391428Y-128755107D02*
X78391428Y-128655107D01*
X78391428Y-128605107D02*
X78384285Y-128612250D01*
X78384285Y-128612250D02*
X78391428Y-128619392D01*
X78391428Y-128619392D02*
X78398571Y-128612250D01*
X78398571Y-128612250D02*
X78391428Y-128605107D01*
X78391428Y-128605107D02*
X78391428Y-128619392D01*
X78462857Y-128655107D02*
X78462857Y-128755107D01*
X78462857Y-128669392D02*
X78470000Y-128662250D01*
X78470000Y-128662250D02*
X78484285Y-128655107D01*
X78484285Y-128655107D02*
X78505714Y-128655107D01*
X78505714Y-128655107D02*
X78520000Y-128662250D01*
X78520000Y-128662250D02*
X78527143Y-128676535D01*
X78527143Y-128676535D02*
X78527143Y-128755107D01*
X77072858Y-128990964D02*
X77058572Y-128998107D01*
X77058572Y-128998107D02*
X77030000Y-128998107D01*
X77030000Y-128998107D02*
X77015715Y-128990964D01*
X77015715Y-128990964D02*
X77008572Y-128983821D01*
X77008572Y-128983821D02*
X77001429Y-128969535D01*
X77001429Y-128969535D02*
X77001429Y-128926678D01*
X77001429Y-128926678D02*
X77008572Y-128912392D01*
X77008572Y-128912392D02*
X77015715Y-128905250D01*
X77015715Y-128905250D02*
X77030000Y-128898107D01*
X77030000Y-128898107D02*
X77058572Y-128898107D01*
X77058572Y-128898107D02*
X77072858Y-128905250D01*
X77137143Y-128998107D02*
X77137143Y-128898107D01*
X77137143Y-128848107D02*
X77130000Y-128855250D01*
X77130000Y-128855250D02*
X77137143Y-128862392D01*
X77137143Y-128862392D02*
X77144286Y-128855250D01*
X77144286Y-128855250D02*
X77137143Y-128848107D01*
X77137143Y-128848107D02*
X77137143Y-128862392D01*
X77208572Y-128998107D02*
X77208572Y-128898107D01*
X77208572Y-128926678D02*
X77215715Y-128912392D01*
X77215715Y-128912392D02*
X77222858Y-128905250D01*
X77222858Y-128905250D02*
X77237143Y-128898107D01*
X77237143Y-128898107D02*
X77251429Y-128898107D01*
X77365715Y-128990964D02*
X77351429Y-128998107D01*
X77351429Y-128998107D02*
X77322857Y-128998107D01*
X77322857Y-128998107D02*
X77308572Y-128990964D01*
X77308572Y-128990964D02*
X77301429Y-128983821D01*
X77301429Y-128983821D02*
X77294286Y-128969535D01*
X77294286Y-128969535D02*
X77294286Y-128926678D01*
X77294286Y-128926678D02*
X77301429Y-128912392D01*
X77301429Y-128912392D02*
X77308572Y-128905250D01*
X77308572Y-128905250D02*
X77322857Y-128898107D01*
X77322857Y-128898107D02*
X77351429Y-128898107D01*
X77351429Y-128898107D02*
X77365715Y-128905250D01*
X77451428Y-128998107D02*
X77437143Y-128990964D01*
X77437143Y-128990964D02*
X77430000Y-128976678D01*
X77430000Y-128976678D02*
X77430000Y-128848107D01*
X77565714Y-128990964D02*
X77551428Y-128998107D01*
X77551428Y-128998107D02*
X77522857Y-128998107D01*
X77522857Y-128998107D02*
X77508571Y-128990964D01*
X77508571Y-128990964D02*
X77501428Y-128976678D01*
X77501428Y-128976678D02*
X77501428Y-128919535D01*
X77501428Y-128919535D02*
X77508571Y-128905250D01*
X77508571Y-128905250D02*
X77522857Y-128898107D01*
X77522857Y-128898107D02*
X77551428Y-128898107D01*
X77551428Y-128898107D02*
X77565714Y-128905250D01*
X77565714Y-128905250D02*
X77572857Y-128919535D01*
X77572857Y-128919535D02*
X77572857Y-128933821D01*
X77572857Y-128933821D02*
X77501428Y-128948107D01*
X77719999Y-128990964D02*
X77734285Y-128998107D01*
X77734285Y-128998107D02*
X77762856Y-128998107D01*
X77762856Y-128998107D02*
X77777142Y-128990964D01*
X77777142Y-128990964D02*
X77784285Y-128976678D01*
X77784285Y-128976678D02*
X77784285Y-128969535D01*
X77784285Y-128969535D02*
X77777142Y-128955250D01*
X77777142Y-128955250D02*
X77762856Y-128948107D01*
X77762856Y-128948107D02*
X77741428Y-128948107D01*
X77741428Y-128948107D02*
X77727142Y-128940964D01*
X77727142Y-128940964D02*
X77719999Y-128926678D01*
X77719999Y-128926678D02*
X77719999Y-128919535D01*
X77719999Y-128919535D02*
X77727142Y-128905250D01*
X77727142Y-128905250D02*
X77741428Y-128898107D01*
X77741428Y-128898107D02*
X77762856Y-128898107D01*
X77762856Y-128898107D02*
X77777142Y-128905250D01*
X77848571Y-128998107D02*
X77848571Y-128848107D01*
X77912857Y-128998107D02*
X77912857Y-128919535D01*
X77912857Y-128919535D02*
X77905714Y-128905250D01*
X77905714Y-128905250D02*
X77891428Y-128898107D01*
X77891428Y-128898107D02*
X77869999Y-128898107D01*
X77869999Y-128898107D02*
X77855714Y-128905250D01*
X77855714Y-128905250D02*
X77848571Y-128912392D01*
X78005713Y-128998107D02*
X77991428Y-128990964D01*
X77991428Y-128990964D02*
X77984285Y-128983821D01*
X77984285Y-128983821D02*
X77977142Y-128969535D01*
X77977142Y-128969535D02*
X77977142Y-128926678D01*
X77977142Y-128926678D02*
X77984285Y-128912392D01*
X77984285Y-128912392D02*
X77991428Y-128905250D01*
X77991428Y-128905250D02*
X78005713Y-128898107D01*
X78005713Y-128898107D02*
X78027142Y-128898107D01*
X78027142Y-128898107D02*
X78041428Y-128905250D01*
X78041428Y-128905250D02*
X78048571Y-128912392D01*
X78048571Y-128912392D02*
X78055713Y-128926678D01*
X78055713Y-128926678D02*
X78055713Y-128969535D01*
X78055713Y-128969535D02*
X78048571Y-128983821D01*
X78048571Y-128983821D02*
X78041428Y-128990964D01*
X78041428Y-128990964D02*
X78027142Y-128998107D01*
X78027142Y-128998107D02*
X78005713Y-128998107D01*
X78105713Y-128898107D02*
X78134285Y-128998107D01*
X78134285Y-128998107D02*
X78162856Y-128926678D01*
X78162856Y-128926678D02*
X78191427Y-128998107D01*
X78191427Y-128998107D02*
X78219999Y-128898107D01*
X78277142Y-128898107D02*
X78277142Y-128998107D01*
X78277142Y-128912392D02*
X78284285Y-128905250D01*
X78284285Y-128905250D02*
X78298570Y-128898107D01*
X78298570Y-128898107D02*
X78319999Y-128898107D01*
X78319999Y-128898107D02*
X78334285Y-128905250D01*
X78334285Y-128905250D02*
X78341428Y-128919535D01*
X78341428Y-128919535D02*
X78341428Y-128998107D01*
D10*
%TO.C,J3*%
X36511904Y-129516952D02*
X36511904Y-129116952D01*
X36740475Y-129516952D02*
X36569046Y-129288380D01*
X36740475Y-129116952D02*
X36511904Y-129345523D01*
X36911904Y-129307428D02*
X37045237Y-129307428D01*
X37102380Y-129516952D02*
X36911904Y-129516952D01*
X36911904Y-129516952D02*
X36911904Y-129116952D01*
X36911904Y-129116952D02*
X37102380Y-129116952D01*
X37273809Y-129307428D02*
X37407142Y-129307428D01*
X37464285Y-129516952D02*
X37273809Y-129516952D01*
X37273809Y-129516952D02*
X37273809Y-129116952D01*
X37273809Y-129116952D02*
X37464285Y-129116952D01*
X37635714Y-129516952D02*
X37635714Y-129116952D01*
X37635714Y-129116952D02*
X37788095Y-129116952D01*
X37788095Y-129116952D02*
X37826190Y-129136000D01*
X37826190Y-129136000D02*
X37845237Y-129155047D01*
X37845237Y-129155047D02*
X37864285Y-129193142D01*
X37864285Y-129193142D02*
X37864285Y-129250285D01*
X37864285Y-129250285D02*
X37845237Y-129288380D01*
X37845237Y-129288380D02*
X37826190Y-129307428D01*
X37826190Y-129307428D02*
X37788095Y-129326476D01*
X37788095Y-129326476D02*
X37635714Y-129326476D01*
X38111904Y-129116952D02*
X38188095Y-129116952D01*
X38188095Y-129116952D02*
X38226190Y-129136000D01*
X38226190Y-129136000D02*
X38264285Y-129174095D01*
X38264285Y-129174095D02*
X38283333Y-129250285D01*
X38283333Y-129250285D02*
X38283333Y-129383619D01*
X38283333Y-129383619D02*
X38264285Y-129459809D01*
X38264285Y-129459809D02*
X38226190Y-129497904D01*
X38226190Y-129497904D02*
X38188095Y-129516952D01*
X38188095Y-129516952D02*
X38111904Y-129516952D01*
X38111904Y-129516952D02*
X38073809Y-129497904D01*
X38073809Y-129497904D02*
X38035714Y-129459809D01*
X38035714Y-129459809D02*
X38016666Y-129383619D01*
X38016666Y-129383619D02*
X38016666Y-129250285D01*
X38016666Y-129250285D02*
X38035714Y-129174095D01*
X38035714Y-129174095D02*
X38073809Y-129136000D01*
X38073809Y-129136000D02*
X38111904Y-129116952D01*
X38454762Y-129116952D02*
X38454762Y-129440761D01*
X38454762Y-129440761D02*
X38473809Y-129478857D01*
X38473809Y-129478857D02*
X38492857Y-129497904D01*
X38492857Y-129497904D02*
X38530952Y-129516952D01*
X38530952Y-129516952D02*
X38607143Y-129516952D01*
X38607143Y-129516952D02*
X38645238Y-129497904D01*
X38645238Y-129497904D02*
X38664285Y-129478857D01*
X38664285Y-129478857D02*
X38683333Y-129440761D01*
X38683333Y-129440761D02*
X38683333Y-129116952D01*
X38816667Y-129116952D02*
X39045238Y-129116952D01*
X38930952Y-129516952D02*
X38930952Y-129116952D01*
%TD*%
M02*
