%TF.GenerationSoftware,KiCad,Pcbnew,(7.0.0)*%
%TF.CreationDate,2023-03-26T07:24:26-07:00*%
%TF.ProjectId,wyw_extra,7779775f-6578-4747-9261-2e6b69636164,rev?*%
%TF.SameCoordinates,Original*%
%TF.FileFunction,Copper,L2,Bot*%
%TF.FilePolarity,Positive*%
%FSLAX46Y46*%
G04 Gerber Fmt 4.6, Leading zero omitted, Abs format (unit mm)*
G04 Created by KiCad (PCBNEW (7.0.0)) date 2023-03-26 07:24:26*
%MOMM*%
%LPD*%
G01*
G04 APERTURE LIST*
G04 Aperture macros list*
%AMRoundRect*
0 Rectangle with rounded corners*
0 $1 Rounding radius*
0 $2 $3 $4 $5 $6 $7 $8 $9 X,Y pos of 4 corners*
0 Add a 4 corners polygon primitive as box body*
4,1,4,$2,$3,$4,$5,$6,$7,$8,$9,$2,$3,0*
0 Add four circle primitives for the rounded corners*
1,1,$1+$1,$2,$3*
1,1,$1+$1,$4,$5*
1,1,$1+$1,$6,$7*
1,1,$1+$1,$8,$9*
0 Add four rect primitives between the rounded corners*
20,1,$1+$1,$2,$3,$4,$5,0*
20,1,$1+$1,$4,$5,$6,$7,0*
20,1,$1+$1,$6,$7,$8,$9,0*
20,1,$1+$1,$8,$9,$2,$3,0*%
G04 Aperture macros list end*
%TA.AperFunction,ComponentPad*%
%ADD10R,1.930000X1.830000*%
%TD*%
%TA.AperFunction,ComponentPad*%
%ADD11C,2.130000*%
%TD*%
%TA.AperFunction,ComponentPad*%
%ADD12R,0.850000X0.850000*%
%TD*%
%TA.AperFunction,ComponentPad*%
%ADD13O,0.850000X0.850000*%
%TD*%
%TA.AperFunction,ComponentPad*%
%ADD14O,2.720000X3.240000*%
%TD*%
%TA.AperFunction,ComponentPad*%
%ADD15R,1.800000X1.800000*%
%TD*%
%TA.AperFunction,ComponentPad*%
%ADD16C,1.800000*%
%TD*%
%TA.AperFunction,ComponentPad*%
%ADD17RoundRect,0.250000X0.600000X-0.600000X0.600000X0.600000X-0.600000X0.600000X-0.600000X-0.600000X0*%
%TD*%
%TA.AperFunction,ComponentPad*%
%ADD18C,1.700000*%
%TD*%
%TA.AperFunction,ViaPad*%
%ADD19C,0.800000*%
%TD*%
%TA.AperFunction,Conductor*%
%ADD20C,0.250000*%
%TD*%
G04 APERTURE END LIST*
D10*
%TO.P,J9,S*%
%TO.N,GND*%
X27249999Y-135849999D03*
D11*
%TO.P,J9,T*%
%TO.N,Net-(J8-Pin_1)*%
X27250000Y-124450000D03*
%TO.P,J9,TN*%
%TO.N,unconnected-(J9-PadTN)*%
X27250000Y-132750000D03*
%TD*%
D12*
%TO.P,J16,1,Pin_1*%
%TO.N,XTAL2*%
X84749999Y-41249999D03*
D13*
%TO.P,J16,2,Pin_2*%
%TO.N,XTAL1*%
X84749999Y-40249999D03*
%TD*%
D14*
%TO.P,RV1,*%
%TO.N,*%
X66259999Y-131974999D03*
X56659999Y-131974999D03*
D15*
%TO.P,RV1,1,1*%
%TO.N,Net-(J6-Pin_1)*%
X63959999Y-124474999D03*
D16*
%TO.P,RV1,2,2*%
%TO.N,Net-(J6-Pin_3)*%
X61460000Y-124475000D03*
%TO.P,RV1,3,3*%
%TO.N,Net-(J6-Pin_5)*%
X58960000Y-124475000D03*
%TD*%
D10*
%TO.P,J10,S*%
%TO.N,GND*%
X48249999Y-135849999D03*
D11*
%TO.P,J10,T*%
%TO.N,Net-(J8-Pin_5)*%
X48250000Y-124450000D03*
%TO.P,J10,TN*%
%TO.N,unconnected-(J10-PadTN)*%
X48250000Y-132750000D03*
%TD*%
D10*
%TO.P,J3,S*%
%TO.N,GND*%
X37749999Y-135849999D03*
D11*
%TO.P,J3,T*%
%TO.N,Net-(J8-Pin_3)*%
X37750000Y-124450000D03*
%TO.P,J3,TN*%
%TO.N,unconnected-(J3-PadTN)*%
X37750000Y-132750000D03*
%TD*%
D17*
%TO.P,J1,1,-12v_R*%
%TO.N,-12V*%
X77870000Y-35540000D03*
D18*
%TO.P,J1,2,-12v_L*%
X77870000Y-33000000D03*
%TO.P,J1,3,GND*%
%TO.N,GND*%
X75330000Y-35540000D03*
%TO.P,J1,4,GND*%
X75330000Y-33000000D03*
%TO.P,J1,5,GND_R3*%
X72790000Y-35540000D03*
%TO.P,J1,6,GND_L3*%
X72790000Y-33000000D03*
%TO.P,J1,7,GND_R2*%
X70250000Y-35540000D03*
%TO.P,J1,8,GND_L2*%
X70250000Y-33000000D03*
%TO.P,J1,9,+12V_R*%
%TO.N,+12V*%
X67710000Y-35540000D03*
%TO.P,J1,10,+12V_L*%
X67710000Y-33000000D03*
%TO.P,J1,11,+5v_R*%
%TO.N,+5V*%
X65170000Y-35540000D03*
%TO.P,J1,12,+5v_L*%
X65170000Y-33000000D03*
%TO.P,J1,13,CV_R*%
%TO.N,Net-(J1-CV_L)*%
X62630000Y-35540000D03*
%TO.P,J1,14,CV_L*%
X62630000Y-33000000D03*
%TO.P,J1,15,GATE_R*%
%TO.N,Net-(J1-GATE_L)*%
X60090000Y-35540000D03*
%TO.P,J1,16,GATE_L*%
X60090000Y-33000000D03*
%TD*%
D19*
%TO.N,GND*%
X26000000Y-49750000D03*
X96000000Y-82750000D03*
X60750000Y-91500000D03*
X26000000Y-81250000D03*
X40500000Y-87250000D03*
X93250000Y-37250000D03*
X38500000Y-52750000D03*
X56500000Y-92750000D03*
X76750000Y-55000000D03*
X86750000Y-64000000D03*
X95500000Y-122000000D03*
X26000000Y-65000000D03*
X54500000Y-90750000D03*
X85000000Y-44500000D03*
X26000000Y-34000000D03*
X26000000Y-57750000D03*
X36500000Y-88250000D03*
X74500000Y-91000000D03*
X54000000Y-51250000D03*
X61500000Y-94500000D03*
X85000000Y-38500000D03*
X26000000Y-73250000D03*
%TO.N,+5V*%
X88500000Y-37425500D03*
X49000000Y-38750000D03*
X71500000Y-52000000D03*
X59000000Y-104250000D03*
X49000000Y-86250000D03*
X88500000Y-39000000D03*
X43500000Y-120000000D03*
%TO.N,-12V*%
X95500000Y-101000000D03*
X55250000Y-110000000D03*
%TO.N,+12V*%
X71500000Y-49500000D03*
X78750000Y-90250000D03*
X78000000Y-110250000D03*
X55000000Y-117750000D03*
X82250000Y-49500000D03*
X96250000Y-99500000D03*
%TO.N,Net-(J2-Pin_2)*%
X55301800Y-60332500D03*
X54411200Y-57821200D03*
%TO.N,Net-(J11-Pin_7)*%
X54025000Y-87221800D03*
X47138800Y-79231200D03*
%TO.N,PD0*%
X88000000Y-45750000D03*
X90250000Y-36250000D03*
%TO.N,PD1*%
X88750000Y-48750000D03*
X89500000Y-35250000D03*
%TO.N,PD2*%
X88500000Y-51250000D03*
X85500000Y-58000000D03*
%TO.N,PD3*%
X86500000Y-54000000D03*
X86000000Y-34224500D03*
%TO.N,ADC6*%
X97250000Y-39000000D03*
X91500000Y-67500000D03*
%TO.N,PC2*%
X96750000Y-65250000D03*
X95500000Y-33250000D03*
%TO.N,ADC7*%
X86250000Y-70250000D03*
X97250000Y-36500000D03*
%TO.N,AREF*%
X91500000Y-72750000D03*
X98250000Y-38500000D03*
%TO.N,Net-(J18-Pin_3)*%
X61700000Y-106017700D03*
X64323800Y-98266500D03*
%TO.N,Net-(J20-Pin_5)*%
X79829200Y-100265800D03*
X96087200Y-96257800D03*
%TD*%
D20*
%TO.N,+5V*%
X59000000Y-104250000D02*
X43500000Y-119750000D01*
X68500000Y-84000000D02*
X60750000Y-84000000D01*
X65170000Y-48670000D02*
X68500000Y-52000000D01*
X43500000Y-119750000D02*
X43500000Y-120000000D01*
X60750000Y-84000000D02*
X58500000Y-86250000D01*
X88500000Y-37425500D02*
X88500000Y-35699200D01*
X58500000Y-86250000D02*
X49000000Y-86250000D01*
X65170000Y-38750000D02*
X49000000Y-38750000D01*
X76750000Y-52000000D02*
X71500000Y-52000000D01*
X68500000Y-52000000D02*
X71500000Y-52000000D01*
X85500500Y-33499500D02*
X76750000Y-42250000D01*
X65170000Y-35540000D02*
X65170000Y-38750000D01*
X76750000Y-42250000D02*
X76750000Y-52000000D01*
X86300300Y-33499500D02*
X85500500Y-33499500D01*
X88500000Y-37425500D02*
X88500000Y-39000000D01*
X88500000Y-35699200D02*
X86300300Y-33499500D01*
X65170000Y-38750000D02*
X65170000Y-48670000D01*
X59000000Y-104250000D02*
X59000000Y-86750000D01*
X59000000Y-86750000D02*
X58500000Y-86250000D01*
X68500000Y-52000000D02*
X68500000Y-84000000D01*
%TO.N,-12V*%
X77870000Y-30880000D02*
X78500000Y-30250000D01*
X95500000Y-101000000D02*
X64250000Y-101000000D01*
X78500000Y-30250000D02*
X99500000Y-30250000D01*
X100500000Y-31250000D02*
X100500000Y-100250000D01*
X100500000Y-100250000D02*
X99750000Y-101000000D01*
X99500000Y-30250000D02*
X100500000Y-31250000D01*
X99750000Y-101000000D02*
X95500000Y-101000000D01*
X64250000Y-101000000D02*
X55250000Y-110000000D01*
X77870000Y-33000000D02*
X77870000Y-30880000D01*
%TO.N,+12V*%
X67710000Y-45710000D02*
X71500000Y-49500000D01*
X67710000Y-35540000D02*
X67710000Y-45710000D01*
X78750000Y-90250000D02*
X82250000Y-86750000D01*
X82250000Y-86750000D02*
X82250000Y-85500000D01*
X82250000Y-85500000D02*
X96250000Y-99500000D01*
X70500000Y-117750000D02*
X78000000Y-110250000D01*
X82250000Y-85250000D02*
X82250000Y-85500000D01*
X82250000Y-49500000D02*
X82250000Y-85250000D01*
X55000000Y-117750000D02*
X70500000Y-117750000D01*
%TO.N,Net-(J2-Pin_2)*%
X54411300Y-59442000D02*
X54411300Y-57821200D01*
X54411300Y-57821200D02*
X54411200Y-57821200D01*
X55301800Y-60332500D02*
X54411300Y-59442000D01*
%TO.N,Net-(J11-Pin_7)*%
X47138800Y-85486900D02*
X48873700Y-87221800D01*
X48873700Y-87221800D02*
X54025000Y-87221800D01*
X47138800Y-79231200D02*
X47138800Y-85486900D01*
%TO.N,PD0*%
X90250000Y-48275300D02*
X89050300Y-49475000D01*
X89050300Y-49475000D02*
X88449700Y-49475000D01*
X90250000Y-36250000D02*
X90250000Y-48275300D01*
X88000000Y-49025300D02*
X88000000Y-45750000D01*
X88449700Y-49475000D02*
X88000000Y-49025300D01*
%TO.N,PD1*%
X89500000Y-35250000D02*
X89500000Y-48000000D01*
X89500000Y-48000000D02*
X88750000Y-48750000D01*
%TO.N,PD2*%
X85500000Y-58000000D02*
X85500000Y-56025300D01*
X85500000Y-56025300D02*
X88500000Y-53025300D01*
X88500000Y-53025300D02*
X88500000Y-51250000D01*
%TO.N,PD3*%
X86500000Y-34724500D02*
X86500000Y-54000000D01*
X86000000Y-34224500D02*
X86500000Y-34724500D01*
%TO.N,ADC6*%
X97250000Y-39000000D02*
X91500000Y-44750000D01*
X91500000Y-44750000D02*
X91500000Y-67500000D01*
%TO.N,PC2*%
X99450000Y-37200000D02*
X95500000Y-33250000D01*
X96750000Y-65250000D02*
X99450000Y-62550000D01*
X99450000Y-62550000D02*
X99450000Y-37200000D01*
%TO.N,ADC7*%
X97275300Y-36500000D02*
X99000000Y-38224700D01*
X93250000Y-73250000D02*
X91500000Y-75000000D01*
X99000000Y-39750000D02*
X93250000Y-45500000D01*
X99000000Y-38224700D02*
X99000000Y-39750000D01*
X93250000Y-45500000D02*
X93250000Y-73250000D01*
X97250000Y-36500000D02*
X97275300Y-36500000D01*
X91500000Y-75000000D02*
X86750000Y-70250000D01*
X86750000Y-70250000D02*
X86250000Y-70250000D01*
%TO.N,AREF*%
X92275300Y-45000000D02*
X92250000Y-45000000D01*
X92250000Y-45000000D02*
X92250000Y-72000000D01*
X98250000Y-39025300D02*
X92275300Y-45000000D01*
X92250000Y-72000000D02*
X91500000Y-72750000D01*
X98250000Y-38500000D02*
X98250000Y-39025300D01*
%TO.N,Net-(J18-Pin_3)*%
X64323800Y-98266500D02*
X64323700Y-98266500D01*
X54477300Y-110293100D02*
X54914200Y-110730000D01*
X54828700Y-109274800D02*
X54477300Y-109626200D01*
X64323700Y-98266500D02*
X64323700Y-100034700D01*
X54914200Y-110730000D02*
X56987700Y-110730000D01*
X54477300Y-109626200D02*
X54477300Y-110293100D01*
X64323700Y-100034700D02*
X55083600Y-109274800D01*
X55083600Y-109274800D02*
X54828700Y-109274800D01*
X56987700Y-110730000D02*
X61700000Y-106017700D01*
%TO.N,Net-(J20-Pin_5)*%
X96087200Y-96257800D02*
X96975200Y-97145800D01*
X79829200Y-100265700D02*
X79829200Y-100265800D01*
X96975200Y-97145800D02*
X96975200Y-99801700D01*
X96975200Y-99801700D02*
X96511200Y-100265700D01*
X96511200Y-100265700D02*
X79829200Y-100265700D01*
%TD*%
%TA.AperFunction,Conductor*%
%TO.N,GND*%
G36*
X101217500Y-20017113D02*
G01*
X101262887Y-20062500D01*
X101279500Y-20124500D01*
X101279500Y-30878287D01*
X101262627Y-30940736D01*
X101216598Y-30986190D01*
X101153942Y-31002277D01*
X101091710Y-30984620D01*
X101053833Y-30945289D01*
X101052486Y-30946269D01*
X101052486Y-30946268D01*
X101026808Y-30910925D01*
X101020401Y-30901171D01*
X101002142Y-30870296D01*
X101002141Y-30870294D01*
X100998170Y-30863580D01*
X100984005Y-30849414D01*
X100971370Y-30834622D01*
X100959594Y-30818413D01*
X100953583Y-30813440D01*
X100953581Y-30813438D01*
X100925941Y-30790573D01*
X100917300Y-30782710D01*
X99997286Y-29862695D01*
X99989842Y-29854514D01*
X99985786Y-29848123D01*
X99936775Y-29802098D01*
X99933978Y-29799387D01*
X99917227Y-29782636D01*
X99917226Y-29782635D01*
X99914471Y-29779880D01*
X99911290Y-29777412D01*
X99902414Y-29769830D01*
X99876269Y-29745278D01*
X99876267Y-29745276D01*
X99870582Y-29739938D01*
X99863749Y-29736182D01*
X99863743Y-29736177D01*
X99853025Y-29730285D01*
X99836766Y-29719606D01*
X99827095Y-29712104D01*
X99827092Y-29712102D01*
X99820936Y-29707327D01*
X99813779Y-29704229D01*
X99813776Y-29704228D01*
X99780849Y-29689978D01*
X99770363Y-29684841D01*
X99738932Y-29667562D01*
X99738923Y-29667558D01*
X99732092Y-29663803D01*
X99724535Y-29661862D01*
X99724531Y-29661861D01*
X99712688Y-29658820D01*
X99694284Y-29652519D01*
X99683057Y-29647660D01*
X99683050Y-29647658D01*
X99675896Y-29644562D01*
X99668192Y-29643341D01*
X99668190Y-29643341D01*
X99632759Y-29637729D01*
X99621324Y-29635361D01*
X99586571Y-29626438D01*
X99586563Y-29626437D01*
X99579019Y-29624500D01*
X99571223Y-29624500D01*
X99558983Y-29624500D01*
X99539597Y-29622974D01*
X99519804Y-29619840D01*
X99512038Y-29620574D01*
X99512035Y-29620574D01*
X99476324Y-29623950D01*
X99464655Y-29624500D01*
X78577775Y-29624500D01*
X78566719Y-29623978D01*
X78559333Y-29622327D01*
X78551545Y-29622571D01*
X78551538Y-29622571D01*
X78492113Y-29624439D01*
X78488219Y-29624500D01*
X78460650Y-29624500D01*
X78456794Y-29624986D01*
X78456791Y-29624987D01*
X78456735Y-29624994D01*
X78456662Y-29625003D01*
X78445044Y-29625917D01*
X78409165Y-29627045D01*
X78409164Y-29627045D01*
X78401373Y-29627290D01*
X78393888Y-29629464D01*
X78393884Y-29629465D01*
X78382125Y-29632881D01*
X78363087Y-29636823D01*
X78350949Y-29638357D01*
X78350941Y-29638358D01*
X78343208Y-29639336D01*
X78335960Y-29642205D01*
X78335954Y-29642207D01*
X78302597Y-29655413D01*
X78291554Y-29659194D01*
X78257100Y-29669205D01*
X78257094Y-29669207D01*
X78249610Y-29671382D01*
X78242898Y-29675351D01*
X78242896Y-29675352D01*
X78232364Y-29681580D01*
X78214904Y-29690134D01*
X78203519Y-29694642D01*
X78203513Y-29694644D01*
X78196268Y-29697514D01*
X78189963Y-29702094D01*
X78189955Y-29702099D01*
X78160932Y-29723185D01*
X78151174Y-29729595D01*
X78120296Y-29747857D01*
X78120290Y-29747861D01*
X78113580Y-29751830D01*
X78108067Y-29757341D01*
X78108060Y-29757348D01*
X78099410Y-29765998D01*
X78084627Y-29778624D01*
X78074726Y-29785817D01*
X78074716Y-29785826D01*
X78068413Y-29790406D01*
X78063444Y-29796411D01*
X78063441Y-29796415D01*
X78040572Y-29824059D01*
X78032711Y-29832697D01*
X77482696Y-30382711D01*
X77474511Y-30390159D01*
X77468123Y-30394214D01*
X77462788Y-30399894D01*
X77462783Y-30399899D01*
X77422096Y-30443225D01*
X77419392Y-30446016D01*
X77402628Y-30462780D01*
X77402621Y-30462787D01*
X77399880Y-30465529D01*
X77397500Y-30468596D01*
X77397489Y-30468609D01*
X77397400Y-30468725D01*
X77389842Y-30477570D01*
X77365280Y-30503727D01*
X77365273Y-30503736D01*
X77359938Y-30509418D01*
X77356182Y-30516249D01*
X77356179Y-30516254D01*
X77350285Y-30526975D01*
X77339609Y-30543227D01*
X77332109Y-30552896D01*
X77332101Y-30552907D01*
X77327327Y-30559064D01*
X77324234Y-30566208D01*
X77324229Y-30566219D01*
X77309974Y-30599160D01*
X77304838Y-30609643D01*
X77283803Y-30647908D01*
X77281864Y-30655456D01*
X77281863Y-30655461D01*
X77278822Y-30667307D01*
X77272521Y-30685711D01*
X77267658Y-30696948D01*
X77267656Y-30696952D01*
X77264562Y-30704104D01*
X77263342Y-30711803D01*
X77263342Y-30711805D01*
X77257729Y-30747241D01*
X77255361Y-30758676D01*
X77246438Y-30793428D01*
X77246436Y-30793436D01*
X77244500Y-30800981D01*
X77244500Y-30808777D01*
X77244500Y-30821017D01*
X77242974Y-30840402D01*
X77239840Y-30860196D01*
X77240574Y-30867961D01*
X77240574Y-30867964D01*
X77243950Y-30903676D01*
X77244500Y-30915345D01*
X77244500Y-31724774D01*
X77230489Y-31782031D01*
X77191625Y-31826347D01*
X77187111Y-31829508D01*
X77003034Y-31958399D01*
X77003029Y-31958402D01*
X76998599Y-31961505D01*
X76994775Y-31965328D01*
X76994769Y-31965334D01*
X76835334Y-32124769D01*
X76835328Y-32124775D01*
X76831505Y-32128599D01*
X76828403Y-32133028D01*
X76828403Y-32133029D01*
X76701269Y-32314596D01*
X76656951Y-32353462D01*
X76599693Y-32367472D01*
X76542436Y-32353461D01*
X76498118Y-32314595D01*
X76452711Y-32249746D01*
X76444603Y-32242316D01*
X76435324Y-32248227D01*
X75695095Y-32988457D01*
X75688431Y-33000000D01*
X75695095Y-33011542D01*
X76435321Y-33751768D01*
X76444603Y-33757681D01*
X76452715Y-33750248D01*
X76498120Y-33685405D01*
X76542438Y-33646539D01*
X76599694Y-33632529D01*
X76656951Y-33646540D01*
X76701269Y-33685405D01*
X76828399Y-33866966D01*
X76828402Y-33866970D01*
X76831505Y-33871401D01*
X76998599Y-34038495D01*
X77000971Y-34040156D01*
X77037612Y-34092894D01*
X77042576Y-34157759D01*
X77014018Y-34216209D01*
X76963877Y-34249454D01*
X76964067Y-34249862D01*
X76961356Y-34251125D01*
X76959800Y-34252158D01*
X76957528Y-34252910D01*
X76957512Y-34252917D01*
X76950666Y-34255186D01*
X76944522Y-34258975D01*
X76944519Y-34258977D01*
X76807488Y-34343497D01*
X76807480Y-34343503D01*
X76801344Y-34347288D01*
X76796242Y-34352389D01*
X76796238Y-34352393D01*
X76682393Y-34466238D01*
X76682389Y-34466242D01*
X76677288Y-34471344D01*
X76673503Y-34477480D01*
X76673497Y-34477488D01*
X76588977Y-34614519D01*
X76585186Y-34620666D01*
X76582915Y-34627517D01*
X76582915Y-34627519D01*
X76560277Y-34695835D01*
X76521584Y-34752396D01*
X76458758Y-34779769D01*
X76445955Y-34781454D01*
X76435324Y-34788227D01*
X75695095Y-35528457D01*
X75688431Y-35539999D01*
X75695095Y-35551542D01*
X76435321Y-36291768D01*
X76445957Y-36298544D01*
X76458755Y-36300229D01*
X76521583Y-36327601D01*
X76560277Y-36384164D01*
X76569302Y-36411401D01*
X76585186Y-36459334D01*
X76588977Y-36465480D01*
X76673497Y-36602511D01*
X76673500Y-36602515D01*
X76677288Y-36608656D01*
X76801344Y-36732712D01*
X76807485Y-36736500D01*
X76807488Y-36736502D01*
X76863826Y-36771251D01*
X76950666Y-36824814D01*
X77117203Y-36879999D01*
X77219991Y-36890500D01*
X78520008Y-36890499D01*
X78622797Y-36879999D01*
X78789334Y-36824814D01*
X78938656Y-36732712D01*
X79062712Y-36608656D01*
X79154814Y-36459334D01*
X79209999Y-36292797D01*
X79220500Y-36190009D01*
X79220499Y-34889992D01*
X79209999Y-34787203D01*
X79154814Y-34620666D01*
X79083677Y-34505334D01*
X79066502Y-34477488D01*
X79066500Y-34477485D01*
X79062712Y-34471344D01*
X78938656Y-34347288D01*
X78932515Y-34343500D01*
X78932511Y-34343497D01*
X78795480Y-34258977D01*
X78789334Y-34255186D01*
X78782478Y-34252914D01*
X78780203Y-34252160D01*
X78778643Y-34251125D01*
X78775933Y-34249862D01*
X78776122Y-34249454D01*
X78725982Y-34216210D01*
X78697423Y-34157757D01*
X78702388Y-34092891D01*
X78739030Y-34040154D01*
X78741401Y-34038495D01*
X78908495Y-33871401D01*
X79044035Y-33677830D01*
X79143903Y-33463663D01*
X79205063Y-33235408D01*
X79225659Y-33000000D01*
X79205063Y-32764592D01*
X79156123Y-32581942D01*
X79145305Y-32541569D01*
X79145304Y-32541567D01*
X79143903Y-32536337D01*
X79044035Y-32322171D01*
X78908495Y-32128599D01*
X78741401Y-31961505D01*
X78736970Y-31958402D01*
X78736966Y-31958399D01*
X78548376Y-31826347D01*
X78509511Y-31782029D01*
X78495500Y-31724772D01*
X78495500Y-31190452D01*
X78504939Y-31142999D01*
X78531819Y-31102771D01*
X78722771Y-30911819D01*
X78762999Y-30884939D01*
X78810452Y-30875500D01*
X99189548Y-30875500D01*
X99237001Y-30884939D01*
X99277229Y-30911819D01*
X99838181Y-31472771D01*
X99865061Y-31512999D01*
X99874500Y-31560452D01*
X99874500Y-36440548D01*
X99860985Y-36496843D01*
X99823385Y-36540866D01*
X99769898Y-36563021D01*
X99712182Y-36558479D01*
X99662819Y-36528229D01*
X98096095Y-34961505D01*
X96438961Y-33304370D01*
X96414721Y-33270072D01*
X96403321Y-33229650D01*
X96386353Y-33068204D01*
X96386352Y-33068203D01*
X96385674Y-33061744D01*
X96327179Y-32881716D01*
X96232533Y-32717784D01*
X96105871Y-32577112D01*
X96100613Y-32573292D01*
X96100611Y-32573290D01*
X95957988Y-32469669D01*
X95957987Y-32469668D01*
X95952730Y-32465849D01*
X95946792Y-32463205D01*
X95785745Y-32391501D01*
X95785740Y-32391499D01*
X95779803Y-32388856D01*
X95773444Y-32387504D01*
X95773440Y-32387503D01*
X95601008Y-32350852D01*
X95601005Y-32350851D01*
X95594646Y-32349500D01*
X95405354Y-32349500D01*
X95398995Y-32350851D01*
X95398991Y-32350852D01*
X95226559Y-32387503D01*
X95226552Y-32387505D01*
X95220197Y-32388856D01*
X95214262Y-32391498D01*
X95214254Y-32391501D01*
X95053207Y-32463205D01*
X95053202Y-32463207D01*
X95047270Y-32465849D01*
X95042016Y-32469665D01*
X95042011Y-32469669D01*
X94899388Y-32573290D01*
X94899381Y-32573295D01*
X94894129Y-32577112D01*
X94889784Y-32581937D01*
X94889779Y-32581942D01*
X94771813Y-32712956D01*
X94771808Y-32712962D01*
X94767467Y-32717784D01*
X94764222Y-32723404D01*
X94764218Y-32723410D01*
X94676069Y-32876089D01*
X94676066Y-32876094D01*
X94672821Y-32881716D01*
X94670815Y-32887888D01*
X94670813Y-32887894D01*
X94616333Y-33055564D01*
X94616331Y-33055573D01*
X94614326Y-33061744D01*
X94613648Y-33068194D01*
X94613646Y-33068204D01*
X94596679Y-33229650D01*
X94594540Y-33250000D01*
X94595219Y-33256460D01*
X94613646Y-33431795D01*
X94613647Y-33431803D01*
X94614326Y-33438256D01*
X94616331Y-33444428D01*
X94616333Y-33444435D01*
X94670813Y-33612105D01*
X94672821Y-33618284D01*
X94676068Y-33623908D01*
X94676069Y-33623910D01*
X94753301Y-33757681D01*
X94767467Y-33782216D01*
X94894129Y-33922888D01*
X95047270Y-34034151D01*
X95220197Y-34111144D01*
X95405354Y-34150500D01*
X95464548Y-34150500D01*
X95512001Y-34159939D01*
X95552229Y-34186819D01*
X96866194Y-35500784D01*
X96896935Y-35551693D01*
X96900437Y-35611061D01*
X96875893Y-35665231D01*
X96828950Y-35701744D01*
X96803205Y-35713206D01*
X96803200Y-35713208D01*
X96797270Y-35715849D01*
X96792016Y-35719665D01*
X96792011Y-35719669D01*
X96649388Y-35823290D01*
X96649381Y-35823295D01*
X96644129Y-35827112D01*
X96639784Y-35831937D01*
X96639779Y-35831942D01*
X96521813Y-35962956D01*
X96521808Y-35962962D01*
X96517467Y-35967784D01*
X96514222Y-35973404D01*
X96514218Y-35973410D01*
X96426069Y-36126089D01*
X96426066Y-36126094D01*
X96422821Y-36131716D01*
X96420815Y-36137888D01*
X96420813Y-36137894D01*
X96366333Y-36305564D01*
X96366331Y-36305573D01*
X96364326Y-36311744D01*
X96363648Y-36318194D01*
X96363646Y-36318204D01*
X96348814Y-36459334D01*
X96344540Y-36500000D01*
X96345219Y-36506460D01*
X96363646Y-36681795D01*
X96363647Y-36681803D01*
X96364326Y-36688256D01*
X96366331Y-36694428D01*
X96366333Y-36694435D01*
X96420813Y-36862105D01*
X96422821Y-36868284D01*
X96426068Y-36873908D01*
X96426069Y-36873910D01*
X96469241Y-36948687D01*
X96517467Y-37032216D01*
X96521811Y-37037041D01*
X96521813Y-37037043D01*
X96539977Y-37057216D01*
X96644129Y-37172888D01*
X96797270Y-37284151D01*
X96970197Y-37361144D01*
X97155354Y-37400500D01*
X97239848Y-37400500D01*
X97287301Y-37409939D01*
X97327529Y-37436819D01*
X97595838Y-37705128D01*
X97627353Y-37758630D01*
X97628979Y-37820703D01*
X97600307Y-37875781D01*
X97521815Y-37962954D01*
X97521810Y-37962959D01*
X97517467Y-37967784D01*
X97514221Y-37973405D01*
X97514216Y-37973413D01*
X97475773Y-38039997D01*
X97444728Y-38075709D01*
X97402566Y-38097191D01*
X97355427Y-38101316D01*
X97351001Y-38100850D01*
X97344646Y-38099500D01*
X97155354Y-38099500D01*
X97148995Y-38100851D01*
X97148991Y-38100852D01*
X96976559Y-38137503D01*
X96976552Y-38137505D01*
X96970197Y-38138856D01*
X96964262Y-38141498D01*
X96964254Y-38141501D01*
X96803207Y-38213205D01*
X96803202Y-38213207D01*
X96797270Y-38215849D01*
X96792016Y-38219665D01*
X96792011Y-38219669D01*
X96649388Y-38323290D01*
X96649381Y-38323295D01*
X96644129Y-38327112D01*
X96639784Y-38331937D01*
X96639779Y-38331942D01*
X96521813Y-38462956D01*
X96521808Y-38462962D01*
X96517467Y-38467784D01*
X96514222Y-38473404D01*
X96514218Y-38473410D01*
X96426069Y-38626089D01*
X96426066Y-38626094D01*
X96422821Y-38631716D01*
X96420815Y-38637888D01*
X96420813Y-38637894D01*
X96366333Y-38805564D01*
X96366331Y-38805573D01*
X96364326Y-38811744D01*
X96363647Y-38818203D01*
X96363647Y-38818204D01*
X96346678Y-38979651D01*
X96335278Y-39020073D01*
X96311038Y-39054370D01*
X91112696Y-44252711D01*
X91104511Y-44260159D01*
X91098123Y-44264214D01*
X91092789Y-44269893D01*
X91092784Y-44269898D01*
X91089891Y-44272980D01*
X91040769Y-44305026D01*
X90982413Y-44310912D01*
X90927881Y-44289321D01*
X90889371Y-44245083D01*
X90875500Y-44188095D01*
X90875500Y-36948687D01*
X90883736Y-36904249D01*
X90907350Y-36865715D01*
X90982533Y-36782216D01*
X91077179Y-36618284D01*
X91135674Y-36438256D01*
X91155460Y-36250000D01*
X91135674Y-36061744D01*
X91077179Y-35881716D01*
X90982533Y-35717784D01*
X90968090Y-35701744D01*
X90860220Y-35581942D01*
X90860219Y-35581941D01*
X90855871Y-35577112D01*
X90850613Y-35573292D01*
X90850611Y-35573290D01*
X90707988Y-35469669D01*
X90707987Y-35469668D01*
X90702730Y-35465849D01*
X90672427Y-35452357D01*
X90535745Y-35391501D01*
X90535740Y-35391499D01*
X90529803Y-35388856D01*
X90523441Y-35387503D01*
X90523439Y-35387503D01*
X90503001Y-35383159D01*
X90452439Y-35359583D01*
X90417331Y-35316227D01*
X90404781Y-35261869D01*
X90404781Y-35256460D01*
X90405460Y-35250000D01*
X90385674Y-35061744D01*
X90327179Y-34881716D01*
X90232533Y-34717784D01*
X90105871Y-34577112D01*
X90100613Y-34573292D01*
X90100611Y-34573290D01*
X89957988Y-34469669D01*
X89957987Y-34469668D01*
X89952730Y-34465849D01*
X89882711Y-34434674D01*
X89785745Y-34391501D01*
X89785740Y-34391499D01*
X89779803Y-34388856D01*
X89773444Y-34387504D01*
X89773440Y-34387503D01*
X89601008Y-34350852D01*
X89601005Y-34350851D01*
X89594646Y-34349500D01*
X89405354Y-34349500D01*
X89398995Y-34350851D01*
X89398991Y-34350852D01*
X89226559Y-34387503D01*
X89226552Y-34387505D01*
X89220197Y-34388856D01*
X89214262Y-34391498D01*
X89214254Y-34391501D01*
X89053207Y-34463205D01*
X89053202Y-34463207D01*
X89047270Y-34465849D01*
X89042016Y-34469665D01*
X89042011Y-34469669D01*
X88899388Y-34573290D01*
X88899381Y-34573295D01*
X88894129Y-34577112D01*
X88889784Y-34581937D01*
X88889779Y-34581942D01*
X88771813Y-34712956D01*
X88771808Y-34712962D01*
X88767467Y-34717784D01*
X88764222Y-34723404D01*
X88764218Y-34723410D01*
X88714926Y-34808787D01*
X88676429Y-34849889D01*
X88623724Y-34869726D01*
X88567680Y-34864206D01*
X88519858Y-34834468D01*
X87715720Y-34030330D01*
X86797586Y-33112195D01*
X86790142Y-33104014D01*
X86786086Y-33097623D01*
X86737075Y-33051598D01*
X86734278Y-33048887D01*
X86717527Y-33032136D01*
X86717526Y-33032135D01*
X86714771Y-33029380D01*
X86711590Y-33026912D01*
X86702714Y-33019330D01*
X86676569Y-32994778D01*
X86676567Y-32994776D01*
X86670882Y-32989438D01*
X86664049Y-32985682D01*
X86664043Y-32985677D01*
X86653325Y-32979785D01*
X86637066Y-32969106D01*
X86627395Y-32961604D01*
X86627392Y-32961602D01*
X86621236Y-32956827D01*
X86614079Y-32953729D01*
X86614076Y-32953728D01*
X86581149Y-32939478D01*
X86570663Y-32934341D01*
X86539232Y-32917062D01*
X86539223Y-32917058D01*
X86532392Y-32913303D01*
X86524835Y-32911362D01*
X86524831Y-32911361D01*
X86512988Y-32908320D01*
X86494584Y-32902019D01*
X86483357Y-32897160D01*
X86483350Y-32897158D01*
X86476196Y-32894062D01*
X86468492Y-32892841D01*
X86468490Y-32892841D01*
X86433059Y-32887229D01*
X86421624Y-32884861D01*
X86386871Y-32875938D01*
X86386863Y-32875937D01*
X86379319Y-32874000D01*
X86371523Y-32874000D01*
X86359283Y-32874000D01*
X86339897Y-32872474D01*
X86320104Y-32869340D01*
X86312338Y-32870074D01*
X86312335Y-32870074D01*
X86276624Y-32873450D01*
X86264955Y-32874000D01*
X85578275Y-32874000D01*
X85567219Y-32873478D01*
X85559833Y-32871827D01*
X85552045Y-32872071D01*
X85552038Y-32872071D01*
X85492613Y-32873939D01*
X85488719Y-32874000D01*
X85461150Y-32874000D01*
X85457294Y-32874486D01*
X85457291Y-32874487D01*
X85457235Y-32874494D01*
X85457162Y-32874503D01*
X85445544Y-32875417D01*
X85409665Y-32876545D01*
X85409664Y-32876545D01*
X85401873Y-32876790D01*
X85394388Y-32878964D01*
X85394384Y-32878965D01*
X85382625Y-32882381D01*
X85363587Y-32886323D01*
X85351449Y-32887857D01*
X85351441Y-32887858D01*
X85343708Y-32888836D01*
X85336460Y-32891705D01*
X85336454Y-32891707D01*
X85303097Y-32904913D01*
X85292054Y-32908694D01*
X85257600Y-32918705D01*
X85257594Y-32918707D01*
X85250110Y-32920882D01*
X85243398Y-32924851D01*
X85243396Y-32924852D01*
X85232864Y-32931080D01*
X85215404Y-32939634D01*
X85204019Y-32944142D01*
X85204013Y-32944144D01*
X85196768Y-32947014D01*
X85190463Y-32951594D01*
X85190455Y-32951599D01*
X85161432Y-32972685D01*
X85151674Y-32979095D01*
X85120796Y-32997357D01*
X85120790Y-32997361D01*
X85114080Y-33001330D01*
X85108567Y-33006841D01*
X85108560Y-33006848D01*
X85099910Y-33015498D01*
X85085127Y-33028124D01*
X85075226Y-33035317D01*
X85075216Y-33035326D01*
X85068913Y-33039906D01*
X85063944Y-33045911D01*
X85063941Y-33045915D01*
X85041072Y-33073559D01*
X85033211Y-33082197D01*
X76362696Y-41752711D01*
X76354511Y-41760159D01*
X76348123Y-41764214D01*
X76342788Y-41769894D01*
X76342783Y-41769899D01*
X76302096Y-41813225D01*
X76299392Y-41816016D01*
X76282628Y-41832780D01*
X76282621Y-41832787D01*
X76279880Y-41835529D01*
X76277500Y-41838596D01*
X76277489Y-41838609D01*
X76277400Y-41838725D01*
X76269842Y-41847570D01*
X76245280Y-41873727D01*
X76245273Y-41873736D01*
X76239938Y-41879418D01*
X76236182Y-41886249D01*
X76236179Y-41886254D01*
X76230285Y-41896975D01*
X76219609Y-41913227D01*
X76212109Y-41922896D01*
X76212101Y-41922907D01*
X76207327Y-41929064D01*
X76204234Y-41936208D01*
X76204229Y-41936219D01*
X76189974Y-41969160D01*
X76184838Y-41979643D01*
X76163803Y-42017908D01*
X76161864Y-42025456D01*
X76161863Y-42025461D01*
X76158822Y-42037307D01*
X76152521Y-42055711D01*
X76147658Y-42066948D01*
X76147656Y-42066952D01*
X76144562Y-42074104D01*
X76143342Y-42081803D01*
X76143342Y-42081805D01*
X76137729Y-42117241D01*
X76135361Y-42128676D01*
X76126438Y-42163428D01*
X76126436Y-42163436D01*
X76124500Y-42170981D01*
X76124500Y-42178777D01*
X76124500Y-42191017D01*
X76122974Y-42210402D01*
X76119840Y-42230196D01*
X76120574Y-42237961D01*
X76120574Y-42237964D01*
X76123950Y-42273676D01*
X76124500Y-42285345D01*
X76124500Y-51250500D01*
X76107887Y-51312500D01*
X76062500Y-51357887D01*
X76000500Y-51374500D01*
X72203748Y-51374500D01*
X72153315Y-51363781D01*
X72115218Y-51336104D01*
X72115050Y-51336291D01*
X72113271Y-51334689D01*
X72111601Y-51333476D01*
X72105871Y-51327112D01*
X72100613Y-51323292D01*
X72100611Y-51323290D01*
X71957988Y-51219669D01*
X71957987Y-51219668D01*
X71952730Y-51215849D01*
X71946792Y-51213205D01*
X71785745Y-51141501D01*
X71785740Y-51141499D01*
X71779803Y-51138856D01*
X71773444Y-51137504D01*
X71773440Y-51137503D01*
X71601008Y-51100852D01*
X71601005Y-51100851D01*
X71594646Y-51099500D01*
X71405354Y-51099500D01*
X71398995Y-51100851D01*
X71398991Y-51100852D01*
X71226559Y-51137503D01*
X71226552Y-51137505D01*
X71220197Y-51138856D01*
X71214262Y-51141498D01*
X71214254Y-51141501D01*
X71053207Y-51213205D01*
X71053202Y-51213207D01*
X71047270Y-51215849D01*
X71042016Y-51219665D01*
X71042011Y-51219669D01*
X70899388Y-51323290D01*
X70899381Y-51323295D01*
X70894129Y-51327112D01*
X70889780Y-51331941D01*
X70889781Y-51331941D01*
X70888399Y-51333476D01*
X70886728Y-51334689D01*
X70884950Y-51336291D01*
X70884781Y-51336104D01*
X70846685Y-51363781D01*
X70796252Y-51374500D01*
X68810453Y-51374500D01*
X68763000Y-51365061D01*
X68722772Y-51338181D01*
X65831819Y-48447228D01*
X65804939Y-48407000D01*
X65795500Y-48359547D01*
X65795500Y-38820849D01*
X65797696Y-38797614D01*
X65797766Y-38797246D01*
X65799227Y-38789588D01*
X65795745Y-38734241D01*
X65795500Y-38726455D01*
X65795500Y-36815228D01*
X65809511Y-36757971D01*
X65848376Y-36713653D01*
X65945964Y-36645321D01*
X66041401Y-36578495D01*
X66208495Y-36411401D01*
X66267173Y-36327601D01*
X66338425Y-36225842D01*
X66382743Y-36186976D01*
X66440000Y-36172965D01*
X66497257Y-36186976D01*
X66541575Y-36225842D01*
X66668395Y-36406961D01*
X66668401Y-36406968D01*
X66671505Y-36411401D01*
X66838599Y-36578495D01*
X66843031Y-36581598D01*
X66843033Y-36581600D01*
X67031624Y-36713653D01*
X67070489Y-36757971D01*
X67084500Y-36815228D01*
X67084500Y-45632225D01*
X67083978Y-45643280D01*
X67082327Y-45650667D01*
X67082571Y-45658453D01*
X67082571Y-45658461D01*
X67084439Y-45717873D01*
X67084500Y-45721768D01*
X67084500Y-45749350D01*
X67084988Y-45753219D01*
X67084989Y-45753225D01*
X67085004Y-45753343D01*
X67085918Y-45764966D01*
X67087045Y-45800830D01*
X67087046Y-45800837D01*
X67087291Y-45808627D01*
X67089467Y-45816119D01*
X67089468Y-45816121D01*
X67092879Y-45827862D01*
X67096825Y-45846915D01*
X67099336Y-45866792D01*
X67102206Y-45874042D01*
X67102208Y-45874048D01*
X67115414Y-45907404D01*
X67119197Y-45918451D01*
X67131382Y-45960390D01*
X67135353Y-45967105D01*
X67135354Y-45967107D01*
X67141581Y-45977637D01*
X67150136Y-45995099D01*
X67154642Y-46006480D01*
X67154643Y-46006483D01*
X67157514Y-46013732D01*
X67179440Y-46043912D01*
X67183181Y-46049060D01*
X67189593Y-46058822D01*
X67207856Y-46089702D01*
X67207859Y-46089707D01*
X67211830Y-46096420D01*
X67217344Y-46101934D01*
X67217345Y-46101935D01*
X67225990Y-46110580D01*
X67238626Y-46125374D01*
X67245819Y-46135275D01*
X67245823Y-46135279D01*
X67250406Y-46141587D01*
X67256415Y-46146558D01*
X67256416Y-46146559D01*
X67284058Y-46169426D01*
X67292699Y-46177289D01*
X70561038Y-49445629D01*
X70585278Y-49479927D01*
X70596678Y-49520348D01*
X70612091Y-49666998D01*
X70614326Y-49688256D01*
X70616331Y-49694428D01*
X70616333Y-49694435D01*
X70670813Y-49862105D01*
X70672821Y-49868284D01*
X70676068Y-49873908D01*
X70676069Y-49873910D01*
X70759070Y-50017673D01*
X70767467Y-50032216D01*
X70771811Y-50037041D01*
X70771813Y-50037043D01*
X70833146Y-50105160D01*
X70894129Y-50172888D01*
X71047270Y-50284151D01*
X71220197Y-50361144D01*
X71405354Y-50400500D01*
X71588143Y-50400500D01*
X71594646Y-50400500D01*
X71779803Y-50361144D01*
X71952730Y-50284151D01*
X72105871Y-50172888D01*
X72232533Y-50032216D01*
X72327179Y-49868284D01*
X72385674Y-49688256D01*
X72405460Y-49500000D01*
X72385674Y-49311744D01*
X72327179Y-49131716D01*
X72232533Y-48967784D01*
X72223814Y-48958101D01*
X72110220Y-48831942D01*
X72110219Y-48831941D01*
X72105871Y-48827112D01*
X72100613Y-48823292D01*
X72100611Y-48823290D01*
X71957988Y-48719669D01*
X71957987Y-48719668D01*
X71952730Y-48715849D01*
X71946792Y-48713205D01*
X71785745Y-48641501D01*
X71785740Y-48641499D01*
X71779803Y-48638856D01*
X71773444Y-48637504D01*
X71773440Y-48637503D01*
X71601008Y-48600852D01*
X71601005Y-48600851D01*
X71594646Y-48599500D01*
X71588143Y-48599500D01*
X71535453Y-48599500D01*
X71488000Y-48590061D01*
X71447772Y-48563181D01*
X68371819Y-45487228D01*
X68344939Y-45447000D01*
X68335500Y-45399547D01*
X68335500Y-36815228D01*
X68349511Y-36757971D01*
X68388376Y-36713653D01*
X68472707Y-36654604D01*
X69492316Y-36654604D01*
X69499747Y-36662713D01*
X69567991Y-36710498D01*
X69577323Y-36715886D01*
X69781602Y-36811143D01*
X69791736Y-36814831D01*
X70009446Y-36873166D01*
X70020077Y-36875041D01*
X70244605Y-36894685D01*
X70255395Y-36894685D01*
X70479922Y-36875041D01*
X70490553Y-36873166D01*
X70708263Y-36814831D01*
X70718397Y-36811143D01*
X70922671Y-36715888D01*
X70932016Y-36710492D01*
X71000248Y-36662715D01*
X71007680Y-36654604D01*
X72032316Y-36654604D01*
X72039747Y-36662713D01*
X72107991Y-36710498D01*
X72117323Y-36715886D01*
X72321602Y-36811143D01*
X72331736Y-36814831D01*
X72549446Y-36873166D01*
X72560077Y-36875041D01*
X72784605Y-36894685D01*
X72795395Y-36894685D01*
X73019922Y-36875041D01*
X73030553Y-36873166D01*
X73248263Y-36814831D01*
X73258397Y-36811143D01*
X73462671Y-36715888D01*
X73472016Y-36710492D01*
X73540248Y-36662715D01*
X73547680Y-36654604D01*
X74572316Y-36654604D01*
X74579747Y-36662713D01*
X74647991Y-36710498D01*
X74657323Y-36715886D01*
X74861602Y-36811143D01*
X74871736Y-36814831D01*
X75089446Y-36873166D01*
X75100077Y-36875041D01*
X75324605Y-36894685D01*
X75335395Y-36894685D01*
X75559922Y-36875041D01*
X75570553Y-36873166D01*
X75788263Y-36814831D01*
X75798397Y-36811143D01*
X76002671Y-36715888D01*
X76012016Y-36710492D01*
X76080248Y-36662715D01*
X76087681Y-36654603D01*
X76081768Y-36645321D01*
X75341542Y-35905095D01*
X75330000Y-35898431D01*
X75318457Y-35905095D01*
X74578230Y-36645321D01*
X74572316Y-36654604D01*
X73547680Y-36654604D01*
X73547681Y-36654603D01*
X73541768Y-36645321D01*
X72801542Y-35905095D01*
X72790000Y-35898431D01*
X72778457Y-35905095D01*
X72038230Y-36645321D01*
X72032316Y-36654604D01*
X71007680Y-36654604D01*
X71007681Y-36654603D01*
X71001768Y-36645321D01*
X70261542Y-35905095D01*
X70250000Y-35898431D01*
X70238457Y-35905095D01*
X69498230Y-36645321D01*
X69492316Y-36654604D01*
X68472707Y-36654604D01*
X68485964Y-36645321D01*
X68581401Y-36578495D01*
X68748495Y-36411401D01*
X68878730Y-36225405D01*
X68923048Y-36186540D01*
X68980305Y-36172529D01*
X69037562Y-36186539D01*
X69081880Y-36225405D01*
X69127286Y-36290251D01*
X69135395Y-36297682D01*
X69144674Y-36291771D01*
X69884904Y-35551542D01*
X69891568Y-35540000D01*
X69891567Y-35539999D01*
X70608431Y-35539999D01*
X70615095Y-35551542D01*
X71355321Y-36291768D01*
X71364603Y-36297681D01*
X71372714Y-36290249D01*
X71418424Y-36224969D01*
X71462742Y-36186103D01*
X71519999Y-36172092D01*
X71577255Y-36186102D01*
X71621574Y-36224968D01*
X71667286Y-36290251D01*
X71675395Y-36297682D01*
X71684674Y-36291771D01*
X72424904Y-35551542D01*
X72431568Y-35540000D01*
X72431567Y-35539999D01*
X73148431Y-35539999D01*
X73155095Y-35551542D01*
X73895321Y-36291768D01*
X73904603Y-36297681D01*
X73912714Y-36290249D01*
X73958424Y-36224969D01*
X74002742Y-36186103D01*
X74059999Y-36172092D01*
X74117255Y-36186102D01*
X74161574Y-36224968D01*
X74207286Y-36290251D01*
X74215395Y-36297682D01*
X74224674Y-36291771D01*
X74964904Y-35551542D01*
X74971568Y-35540000D01*
X74964904Y-35528457D01*
X74224674Y-34788227D01*
X74215396Y-34782316D01*
X74207284Y-34789750D01*
X74161574Y-34855031D01*
X74117256Y-34893896D01*
X74059999Y-34907907D01*
X74002742Y-34893896D01*
X73958424Y-34855030D01*
X73912714Y-34789749D01*
X73904603Y-34782316D01*
X73895324Y-34788227D01*
X73155095Y-35528457D01*
X73148431Y-35539999D01*
X72431567Y-35539999D01*
X72424904Y-35528457D01*
X71684674Y-34788227D01*
X71675396Y-34782316D01*
X71667284Y-34789750D01*
X71621574Y-34855031D01*
X71577256Y-34893896D01*
X71519999Y-34907907D01*
X71462742Y-34893896D01*
X71418424Y-34855030D01*
X71372714Y-34789749D01*
X71364603Y-34782316D01*
X71355324Y-34788227D01*
X70615095Y-35528457D01*
X70608431Y-35539999D01*
X69891567Y-35539999D01*
X69884904Y-35528457D01*
X69144674Y-34788227D01*
X69135396Y-34782316D01*
X69127282Y-34789751D01*
X69081880Y-34854594D01*
X69037562Y-34893460D01*
X68980305Y-34907471D01*
X68923048Y-34893460D01*
X68878730Y-34854594D01*
X68786874Y-34723410D01*
X68748495Y-34668599D01*
X68581401Y-34501505D01*
X68576968Y-34498401D01*
X68576961Y-34498395D01*
X68472707Y-34425396D01*
X69492316Y-34425396D01*
X69498227Y-34434674D01*
X70238457Y-35174904D01*
X70250000Y-35181568D01*
X70261542Y-35174904D01*
X71001771Y-34434674D01*
X71007681Y-34425396D01*
X72032316Y-34425396D01*
X72038227Y-34434674D01*
X72778457Y-35174904D01*
X72790000Y-35181568D01*
X72801542Y-35174904D01*
X73541771Y-34434674D01*
X73547681Y-34425396D01*
X74572316Y-34425396D01*
X74578227Y-34434674D01*
X75318457Y-35174904D01*
X75330000Y-35181568D01*
X75341542Y-35174904D01*
X76081771Y-34434674D01*
X76087682Y-34425395D01*
X76080251Y-34417286D01*
X76014968Y-34371574D01*
X75976102Y-34327255D01*
X75962092Y-34269999D01*
X75976103Y-34212742D01*
X76014969Y-34168424D01*
X76080249Y-34122714D01*
X76087681Y-34114603D01*
X76081768Y-34105321D01*
X75341542Y-33365095D01*
X75330000Y-33358431D01*
X75318457Y-33365095D01*
X74578230Y-34105321D01*
X74572316Y-34114604D01*
X74579749Y-34122715D01*
X74645030Y-34168425D01*
X74683896Y-34212743D01*
X74697907Y-34270000D01*
X74683896Y-34327257D01*
X74645030Y-34371575D01*
X74579751Y-34417282D01*
X74572316Y-34425396D01*
X73547681Y-34425396D01*
X73547682Y-34425395D01*
X73540251Y-34417286D01*
X73474968Y-34371574D01*
X73436102Y-34327255D01*
X73422092Y-34269999D01*
X73436103Y-34212742D01*
X73474969Y-34168424D01*
X73540249Y-34122714D01*
X73547681Y-34114603D01*
X73541768Y-34105321D01*
X72801542Y-33365095D01*
X72790000Y-33358431D01*
X72778457Y-33365095D01*
X72038230Y-34105321D01*
X72032316Y-34114604D01*
X72039749Y-34122715D01*
X72105030Y-34168425D01*
X72143896Y-34212743D01*
X72157907Y-34270000D01*
X72143896Y-34327257D01*
X72105030Y-34371575D01*
X72039751Y-34417282D01*
X72032316Y-34425396D01*
X71007681Y-34425396D01*
X71007682Y-34425395D01*
X71000251Y-34417286D01*
X70934968Y-34371574D01*
X70896102Y-34327255D01*
X70882092Y-34269999D01*
X70896103Y-34212742D01*
X70934969Y-34168424D01*
X71000249Y-34122714D01*
X71007681Y-34114603D01*
X71001768Y-34105321D01*
X70261542Y-33365095D01*
X70250000Y-33358431D01*
X70238457Y-33365095D01*
X69498230Y-34105321D01*
X69492316Y-34114604D01*
X69499749Y-34122715D01*
X69565030Y-34168425D01*
X69603896Y-34212743D01*
X69617907Y-34270000D01*
X69603896Y-34327257D01*
X69565030Y-34371575D01*
X69499751Y-34417282D01*
X69492316Y-34425396D01*
X68472707Y-34425396D01*
X68395842Y-34371575D01*
X68356976Y-34327257D01*
X68342965Y-34270000D01*
X68356976Y-34212743D01*
X68395842Y-34168425D01*
X68576961Y-34041604D01*
X68576961Y-34041603D01*
X68581401Y-34038495D01*
X68748495Y-33871401D01*
X68878730Y-33685405D01*
X68923048Y-33646540D01*
X68980305Y-33632529D01*
X69037562Y-33646539D01*
X69081880Y-33685405D01*
X69127286Y-33750251D01*
X69135395Y-33757682D01*
X69144674Y-33751771D01*
X69884904Y-33011542D01*
X69891568Y-33000000D01*
X70608431Y-33000000D01*
X70615095Y-33011542D01*
X71355321Y-33751768D01*
X71364603Y-33757681D01*
X71372714Y-33750249D01*
X71418424Y-33684969D01*
X71462742Y-33646103D01*
X71519999Y-33632092D01*
X71577255Y-33646102D01*
X71621574Y-33684968D01*
X71667286Y-33750251D01*
X71675395Y-33757682D01*
X71684674Y-33751771D01*
X72424904Y-33011542D01*
X72431568Y-33000000D01*
X73148431Y-33000000D01*
X73155095Y-33011542D01*
X73895321Y-33751768D01*
X73904603Y-33757681D01*
X73912714Y-33750249D01*
X73958424Y-33684969D01*
X74002742Y-33646103D01*
X74059999Y-33632092D01*
X74117255Y-33646102D01*
X74161574Y-33684968D01*
X74207286Y-33750251D01*
X74215395Y-33757682D01*
X74224674Y-33751771D01*
X74964904Y-33011542D01*
X74971568Y-33000000D01*
X74964904Y-32988457D01*
X74224674Y-32248227D01*
X74215396Y-32242316D01*
X74207284Y-32249750D01*
X74161574Y-32315031D01*
X74117256Y-32353896D01*
X74059999Y-32367907D01*
X74002742Y-32353896D01*
X73958424Y-32315030D01*
X73912714Y-32249749D01*
X73904603Y-32242316D01*
X73895324Y-32248227D01*
X73155095Y-32988457D01*
X73148431Y-33000000D01*
X72431568Y-33000000D01*
X72424904Y-32988457D01*
X71684674Y-32248227D01*
X71675396Y-32242316D01*
X71667284Y-32249750D01*
X71621574Y-32315031D01*
X71577256Y-32353896D01*
X71519999Y-32367907D01*
X71462742Y-32353896D01*
X71418424Y-32315030D01*
X71372714Y-32249749D01*
X71364603Y-32242316D01*
X71355324Y-32248227D01*
X70615095Y-32988457D01*
X70608431Y-33000000D01*
X69891568Y-33000000D01*
X69884904Y-32988457D01*
X69144674Y-32248227D01*
X69135396Y-32242316D01*
X69127282Y-32249751D01*
X69081880Y-32314594D01*
X69037562Y-32353460D01*
X68980305Y-32367471D01*
X68923048Y-32353460D01*
X68878730Y-32314594D01*
X68751600Y-32133034D01*
X68748495Y-32128599D01*
X68581401Y-31961505D01*
X68576970Y-31958402D01*
X68576966Y-31958399D01*
X68472707Y-31885396D01*
X69492316Y-31885396D01*
X69498227Y-31894674D01*
X70238457Y-32634904D01*
X70250000Y-32641568D01*
X70261542Y-32634904D01*
X71001771Y-31894674D01*
X71007681Y-31885396D01*
X72032316Y-31885396D01*
X72038227Y-31894674D01*
X72778457Y-32634904D01*
X72790000Y-32641568D01*
X72801542Y-32634904D01*
X73541771Y-31894674D01*
X73547681Y-31885396D01*
X74572316Y-31885396D01*
X74578227Y-31894674D01*
X75318457Y-32634904D01*
X75330000Y-32641568D01*
X75341542Y-32634904D01*
X76081771Y-31894674D01*
X76087682Y-31885395D01*
X76080249Y-31877284D01*
X76012018Y-31829508D01*
X76002668Y-31824110D01*
X75798397Y-31728856D01*
X75788263Y-31725168D01*
X75570553Y-31666833D01*
X75559922Y-31664958D01*
X75335395Y-31645315D01*
X75324605Y-31645315D01*
X75100077Y-31664958D01*
X75089446Y-31666833D01*
X74871736Y-31725168D01*
X74861602Y-31728856D01*
X74657330Y-31824111D01*
X74647986Y-31829505D01*
X74579750Y-31877283D01*
X74572316Y-31885396D01*
X73547681Y-31885396D01*
X73547682Y-31885395D01*
X73540249Y-31877284D01*
X73472018Y-31829508D01*
X73462668Y-31824110D01*
X73258397Y-31728856D01*
X73248263Y-31725168D01*
X73030553Y-31666833D01*
X73019922Y-31664958D01*
X72795395Y-31645315D01*
X72784605Y-31645315D01*
X72560077Y-31664958D01*
X72549446Y-31666833D01*
X72331736Y-31725168D01*
X72321602Y-31728856D01*
X72117330Y-31824111D01*
X72107986Y-31829505D01*
X72039750Y-31877283D01*
X72032316Y-31885396D01*
X71007681Y-31885396D01*
X71007682Y-31885395D01*
X71000249Y-31877284D01*
X70932018Y-31829508D01*
X70922668Y-31824110D01*
X70718397Y-31728856D01*
X70708263Y-31725168D01*
X70490553Y-31666833D01*
X70479922Y-31664958D01*
X70255395Y-31645315D01*
X70244605Y-31645315D01*
X70020077Y-31664958D01*
X70009446Y-31666833D01*
X69791736Y-31725168D01*
X69781602Y-31728856D01*
X69577330Y-31824111D01*
X69567986Y-31829505D01*
X69499750Y-31877283D01*
X69492316Y-31885396D01*
X68472707Y-31885396D01*
X68392259Y-31829066D01*
X68392257Y-31829064D01*
X68387830Y-31825965D01*
X68382933Y-31823681D01*
X68382927Y-31823678D01*
X68178572Y-31728386D01*
X68178570Y-31728385D01*
X68173663Y-31726097D01*
X68168438Y-31724697D01*
X68168430Y-31724694D01*
X67950634Y-31666337D01*
X67950630Y-31666336D01*
X67945408Y-31664937D01*
X67940020Y-31664465D01*
X67940017Y-31664465D01*
X67715395Y-31644813D01*
X67710000Y-31644341D01*
X67704605Y-31644813D01*
X67479982Y-31664465D01*
X67479977Y-31664465D01*
X67474592Y-31664937D01*
X67469371Y-31666335D01*
X67469365Y-31666337D01*
X67251569Y-31724694D01*
X67251557Y-31724698D01*
X67246337Y-31726097D01*
X67241432Y-31728383D01*
X67241427Y-31728386D01*
X67037081Y-31823675D01*
X67037077Y-31823677D01*
X67032171Y-31825965D01*
X67027738Y-31829068D01*
X67027731Y-31829073D01*
X66843034Y-31958399D01*
X66843029Y-31958402D01*
X66838599Y-31961505D01*
X66834775Y-31965328D01*
X66834769Y-31965334D01*
X66675334Y-32124769D01*
X66675328Y-32124775D01*
X66671505Y-32128599D01*
X66668402Y-32133029D01*
X66668399Y-32133034D01*
X66541575Y-32314159D01*
X66497257Y-32353025D01*
X66440000Y-32367036D01*
X66382743Y-32353025D01*
X66338425Y-32314159D01*
X66211600Y-32133034D01*
X66208495Y-32128599D01*
X66041401Y-31961505D01*
X66036970Y-31958402D01*
X66036966Y-31958399D01*
X65852259Y-31829066D01*
X65852257Y-31829064D01*
X65847830Y-31825965D01*
X65842933Y-31823681D01*
X65842927Y-31823678D01*
X65638572Y-31728386D01*
X65638570Y-31728385D01*
X65633663Y-31726097D01*
X65628438Y-31724697D01*
X65628430Y-31724694D01*
X65410634Y-31666337D01*
X65410630Y-31666336D01*
X65405408Y-31664937D01*
X65400020Y-31664465D01*
X65400017Y-31664465D01*
X65175395Y-31644813D01*
X65170000Y-31644341D01*
X65164605Y-31644813D01*
X64939982Y-31664465D01*
X64939977Y-31664465D01*
X64934592Y-31664937D01*
X64929371Y-31666335D01*
X64929365Y-31666337D01*
X64711569Y-31724694D01*
X64711557Y-31724698D01*
X64706337Y-31726097D01*
X64701432Y-31728383D01*
X64701427Y-31728386D01*
X64497081Y-31823675D01*
X64497077Y-31823677D01*
X64492171Y-31825965D01*
X64487738Y-31829068D01*
X64487731Y-31829073D01*
X64303034Y-31958399D01*
X64303029Y-31958402D01*
X64298599Y-31961505D01*
X64294775Y-31965328D01*
X64294769Y-31965334D01*
X64135334Y-32124769D01*
X64135328Y-32124775D01*
X64131505Y-32128599D01*
X64128402Y-32133029D01*
X64128399Y-32133034D01*
X64001575Y-32314159D01*
X63957257Y-32353025D01*
X63900000Y-32367036D01*
X63842743Y-32353025D01*
X63798425Y-32314159D01*
X63671600Y-32133034D01*
X63668495Y-32128599D01*
X63501401Y-31961505D01*
X63496970Y-31958402D01*
X63496966Y-31958399D01*
X63312259Y-31829066D01*
X63312257Y-31829064D01*
X63307830Y-31825965D01*
X63302933Y-31823681D01*
X63302927Y-31823678D01*
X63098572Y-31728386D01*
X63098570Y-31728385D01*
X63093663Y-31726097D01*
X63088438Y-31724697D01*
X63088430Y-31724694D01*
X62870634Y-31666337D01*
X62870630Y-31666336D01*
X62865408Y-31664937D01*
X62860020Y-31664465D01*
X62860017Y-31664465D01*
X62635395Y-31644813D01*
X62630000Y-31644341D01*
X62624605Y-31644813D01*
X62399982Y-31664465D01*
X62399977Y-31664465D01*
X62394592Y-31664937D01*
X62389371Y-31666335D01*
X62389365Y-31666337D01*
X62171569Y-31724694D01*
X62171557Y-31724698D01*
X62166337Y-31726097D01*
X62161432Y-31728383D01*
X62161427Y-31728386D01*
X61957081Y-31823675D01*
X61957077Y-31823677D01*
X61952171Y-31825965D01*
X61947738Y-31829068D01*
X61947731Y-31829073D01*
X61763034Y-31958399D01*
X61763029Y-31958402D01*
X61758599Y-31961505D01*
X61754775Y-31965328D01*
X61754769Y-31965334D01*
X61595334Y-32124769D01*
X61595328Y-32124775D01*
X61591505Y-32128599D01*
X61588402Y-32133029D01*
X61588399Y-32133034D01*
X61461575Y-32314159D01*
X61417257Y-32353025D01*
X61360000Y-32367036D01*
X61302743Y-32353025D01*
X61258425Y-32314159D01*
X61131600Y-32133034D01*
X61128495Y-32128599D01*
X60961401Y-31961505D01*
X60956970Y-31958402D01*
X60956966Y-31958399D01*
X60772259Y-31829066D01*
X60772257Y-31829064D01*
X60767830Y-31825965D01*
X60762933Y-31823681D01*
X60762927Y-31823678D01*
X60558572Y-31728386D01*
X60558570Y-31728385D01*
X60553663Y-31726097D01*
X60548438Y-31724697D01*
X60548430Y-31724694D01*
X60330634Y-31666337D01*
X60330630Y-31666336D01*
X60325408Y-31664937D01*
X60320020Y-31664465D01*
X60320017Y-31664465D01*
X60095395Y-31644813D01*
X60090000Y-31644341D01*
X60084605Y-31644813D01*
X59859982Y-31664465D01*
X59859977Y-31664465D01*
X59854592Y-31664937D01*
X59849371Y-31666335D01*
X59849365Y-31666337D01*
X59631569Y-31724694D01*
X59631557Y-31724698D01*
X59626337Y-31726097D01*
X59621432Y-31728383D01*
X59621427Y-31728386D01*
X59417081Y-31823675D01*
X59417077Y-31823677D01*
X59412171Y-31825965D01*
X59407738Y-31829068D01*
X59407731Y-31829073D01*
X59223034Y-31958399D01*
X59223029Y-31958402D01*
X59218599Y-31961505D01*
X59214775Y-31965328D01*
X59214769Y-31965334D01*
X59055334Y-32124769D01*
X59055328Y-32124775D01*
X59051505Y-32128599D01*
X59048402Y-32133029D01*
X59048399Y-32133034D01*
X58919073Y-32317731D01*
X58919068Y-32317738D01*
X58915965Y-32322171D01*
X58913677Y-32327077D01*
X58913675Y-32327081D01*
X58818386Y-32531427D01*
X58818383Y-32531432D01*
X58816097Y-32536337D01*
X58814698Y-32541557D01*
X58814694Y-32541569D01*
X58756337Y-32759365D01*
X58756335Y-32759371D01*
X58754937Y-32764592D01*
X58754465Y-32769977D01*
X58754465Y-32769982D01*
X58739936Y-32936046D01*
X58734341Y-33000000D01*
X58734813Y-33005395D01*
X58743617Y-33106030D01*
X58754937Y-33235408D01*
X58756336Y-33240630D01*
X58756337Y-33240634D01*
X58814694Y-33458430D01*
X58814697Y-33458438D01*
X58816097Y-33463663D01*
X58818385Y-33468570D01*
X58818386Y-33468572D01*
X58913678Y-33672927D01*
X58913681Y-33672933D01*
X58915965Y-33677830D01*
X58919064Y-33682257D01*
X58919066Y-33682259D01*
X59048399Y-33866966D01*
X59048402Y-33866970D01*
X59051505Y-33871401D01*
X59218599Y-34038495D01*
X59223032Y-34041599D01*
X59223038Y-34041604D01*
X59404158Y-34168425D01*
X59443024Y-34212743D01*
X59457035Y-34270000D01*
X59443024Y-34327257D01*
X59404159Y-34371575D01*
X59223041Y-34498395D01*
X59218599Y-34501505D01*
X59214775Y-34505328D01*
X59214769Y-34505334D01*
X59055334Y-34664769D01*
X59055328Y-34664775D01*
X59051505Y-34668599D01*
X59048402Y-34673029D01*
X59048399Y-34673034D01*
X58919073Y-34857731D01*
X58919068Y-34857738D01*
X58915965Y-34862171D01*
X58913677Y-34867077D01*
X58913675Y-34867081D01*
X58818386Y-35071427D01*
X58818383Y-35071432D01*
X58816097Y-35076337D01*
X58814698Y-35081557D01*
X58814694Y-35081569D01*
X58756337Y-35299365D01*
X58756335Y-35299371D01*
X58754937Y-35304592D01*
X58754465Y-35309977D01*
X58754465Y-35309982D01*
X58740494Y-35469669D01*
X58734341Y-35540000D01*
X58734813Y-35545395D01*
X58750387Y-35723410D01*
X58754937Y-35775408D01*
X58756336Y-35780630D01*
X58756337Y-35780634D01*
X58814694Y-35998430D01*
X58814697Y-35998438D01*
X58816097Y-36003663D01*
X58818385Y-36008570D01*
X58818386Y-36008572D01*
X58913678Y-36212927D01*
X58913681Y-36212933D01*
X58915965Y-36217830D01*
X58919064Y-36222257D01*
X58919066Y-36222259D01*
X59048399Y-36406966D01*
X59048402Y-36406970D01*
X59051505Y-36411401D01*
X59218599Y-36578495D01*
X59223031Y-36581598D01*
X59223033Y-36581600D01*
X59366127Y-36681795D01*
X59412170Y-36714035D01*
X59417070Y-36716320D01*
X59417072Y-36716321D01*
X59471443Y-36741674D01*
X59626337Y-36813903D01*
X59854592Y-36875063D01*
X60090000Y-36895659D01*
X60325408Y-36875063D01*
X60553663Y-36813903D01*
X60767830Y-36714035D01*
X60961401Y-36578495D01*
X61128495Y-36411401D01*
X61187173Y-36327601D01*
X61258425Y-36225842D01*
X61302743Y-36186976D01*
X61360000Y-36172965D01*
X61417257Y-36186976D01*
X61461575Y-36225842D01*
X61588395Y-36406961D01*
X61588401Y-36406968D01*
X61591505Y-36411401D01*
X61758599Y-36578495D01*
X61763031Y-36581598D01*
X61763033Y-36581600D01*
X61906127Y-36681795D01*
X61952170Y-36714035D01*
X61957070Y-36716320D01*
X61957072Y-36716321D01*
X62011443Y-36741674D01*
X62166337Y-36813903D01*
X62394592Y-36875063D01*
X62630000Y-36895659D01*
X62865408Y-36875063D01*
X63093663Y-36813903D01*
X63307830Y-36714035D01*
X63501401Y-36578495D01*
X63668495Y-36411401D01*
X63727173Y-36327601D01*
X63798425Y-36225842D01*
X63842743Y-36186976D01*
X63900000Y-36172965D01*
X63957257Y-36186976D01*
X64001575Y-36225842D01*
X64128395Y-36406961D01*
X64128401Y-36406968D01*
X64131505Y-36411401D01*
X64298599Y-36578495D01*
X64303031Y-36581598D01*
X64303033Y-36581600D01*
X64491624Y-36713653D01*
X64530489Y-36757971D01*
X64544500Y-36815228D01*
X64544500Y-38000500D01*
X64527887Y-38062500D01*
X64482500Y-38107887D01*
X64420500Y-38124500D01*
X49703748Y-38124500D01*
X49653315Y-38113781D01*
X49615218Y-38086104D01*
X49615050Y-38086291D01*
X49613271Y-38084689D01*
X49611601Y-38083476D01*
X49605871Y-38077112D01*
X49600613Y-38073292D01*
X49600611Y-38073290D01*
X49457988Y-37969669D01*
X49457987Y-37969668D01*
X49452730Y-37965849D01*
X49445305Y-37962543D01*
X49285745Y-37891501D01*
X49285740Y-37891499D01*
X49279803Y-37888856D01*
X49273444Y-37887504D01*
X49273440Y-37887503D01*
X49101008Y-37850852D01*
X49101005Y-37850851D01*
X49094646Y-37849500D01*
X48905354Y-37849500D01*
X48898995Y-37850851D01*
X48898991Y-37850852D01*
X48726559Y-37887503D01*
X48726552Y-37887505D01*
X48720197Y-37888856D01*
X48714262Y-37891498D01*
X48714254Y-37891501D01*
X48553207Y-37963205D01*
X48553202Y-37963207D01*
X48547270Y-37965849D01*
X48542016Y-37969665D01*
X48542011Y-37969669D01*
X48399388Y-38073290D01*
X48399381Y-38073295D01*
X48394129Y-38077112D01*
X48389784Y-38081937D01*
X48389779Y-38081942D01*
X48271813Y-38212956D01*
X48271808Y-38212962D01*
X48267467Y-38217784D01*
X48264222Y-38223404D01*
X48264218Y-38223410D01*
X48176069Y-38376089D01*
X48176066Y-38376094D01*
X48172821Y-38381716D01*
X48170815Y-38387888D01*
X48170813Y-38387894D01*
X48116333Y-38555564D01*
X48116331Y-38555573D01*
X48114326Y-38561744D01*
X48113648Y-38568194D01*
X48113646Y-38568204D01*
X48098676Y-38710650D01*
X48094540Y-38750000D01*
X48095219Y-38756460D01*
X48113646Y-38931795D01*
X48113647Y-38931803D01*
X48114326Y-38938256D01*
X48116331Y-38944428D01*
X48116333Y-38944435D01*
X48140524Y-39018885D01*
X48172821Y-39118284D01*
X48267467Y-39282216D01*
X48271811Y-39287041D01*
X48271813Y-39287043D01*
X48361112Y-39386219D01*
X48394129Y-39422888D01*
X48547270Y-39534151D01*
X48720197Y-39611144D01*
X48905354Y-39650500D01*
X49088143Y-39650500D01*
X49094646Y-39650500D01*
X49279803Y-39611144D01*
X49452730Y-39534151D01*
X49605871Y-39422888D01*
X49611601Y-39416523D01*
X49613271Y-39415310D01*
X49615050Y-39413709D01*
X49615218Y-39413895D01*
X49653315Y-39386219D01*
X49703748Y-39375500D01*
X64420500Y-39375500D01*
X64482500Y-39392113D01*
X64527887Y-39437500D01*
X64544500Y-39499500D01*
X64544500Y-48592225D01*
X64543978Y-48603280D01*
X64542327Y-48610667D01*
X64542571Y-48618453D01*
X64542571Y-48618461D01*
X64544439Y-48677873D01*
X64544500Y-48681768D01*
X64544500Y-48709350D01*
X64544988Y-48713219D01*
X64544989Y-48713225D01*
X64545004Y-48713343D01*
X64545918Y-48724966D01*
X64547045Y-48760830D01*
X64547046Y-48760837D01*
X64547291Y-48768627D01*
X64549467Y-48776119D01*
X64549468Y-48776121D01*
X64552879Y-48787862D01*
X64556825Y-48806915D01*
X64559336Y-48826792D01*
X64562206Y-48834042D01*
X64562208Y-48834048D01*
X64575414Y-48867404D01*
X64579197Y-48878451D01*
X64591382Y-48920390D01*
X64595353Y-48927105D01*
X64595354Y-48927107D01*
X64601581Y-48937637D01*
X64610136Y-48955099D01*
X64614642Y-48966480D01*
X64614643Y-48966483D01*
X64617514Y-48973732D01*
X64637581Y-49001352D01*
X64643181Y-49009060D01*
X64649593Y-49018822D01*
X64667856Y-49049702D01*
X64667859Y-49049707D01*
X64671830Y-49056420D01*
X64677345Y-49061935D01*
X64685990Y-49070580D01*
X64698626Y-49085374D01*
X64705819Y-49095275D01*
X64705823Y-49095279D01*
X64710406Y-49101587D01*
X64716415Y-49106558D01*
X64716416Y-49106559D01*
X64744058Y-49129426D01*
X64752699Y-49137289D01*
X67838181Y-52222772D01*
X67865061Y-52263000D01*
X67874500Y-52310453D01*
X67874500Y-83250500D01*
X67857887Y-83312500D01*
X67812500Y-83357887D01*
X67750500Y-83374500D01*
X60827775Y-83374500D01*
X60816719Y-83373978D01*
X60809333Y-83372327D01*
X60801545Y-83372571D01*
X60801538Y-83372571D01*
X60742113Y-83374439D01*
X60738219Y-83374500D01*
X60710650Y-83374500D01*
X60706794Y-83374986D01*
X60706791Y-83374987D01*
X60706735Y-83374994D01*
X60706662Y-83375003D01*
X60695044Y-83375917D01*
X60659165Y-83377045D01*
X60659164Y-83377045D01*
X60651373Y-83377290D01*
X60643888Y-83379464D01*
X60643884Y-83379465D01*
X60632125Y-83382881D01*
X60613087Y-83386823D01*
X60600949Y-83388357D01*
X60600941Y-83388358D01*
X60593208Y-83389336D01*
X60585960Y-83392205D01*
X60585954Y-83392207D01*
X60552597Y-83405413D01*
X60541554Y-83409194D01*
X60507096Y-83419206D01*
X60507089Y-83419208D01*
X60499610Y-83421382D01*
X60492905Y-83425347D01*
X60492896Y-83425351D01*
X60482356Y-83431584D01*
X60464893Y-83440139D01*
X60453522Y-83444641D01*
X60453516Y-83444643D01*
X60446268Y-83447514D01*
X60439963Y-83452094D01*
X60439953Y-83452100D01*
X60410934Y-83473183D01*
X60401178Y-83479592D01*
X60370293Y-83497858D01*
X60370288Y-83497861D01*
X60363580Y-83501829D01*
X60358067Y-83507340D01*
X60358060Y-83507347D01*
X60349407Y-83516000D01*
X60334624Y-83528626D01*
X60324727Y-83535817D01*
X60324720Y-83535823D01*
X60318413Y-83540406D01*
X60313446Y-83546408D01*
X60313435Y-83546420D01*
X60290570Y-83574059D01*
X60282710Y-83582697D01*
X58277228Y-85588181D01*
X58237000Y-85615061D01*
X58189547Y-85624500D01*
X49703748Y-85624500D01*
X49653315Y-85613781D01*
X49615218Y-85586104D01*
X49615050Y-85586291D01*
X49613271Y-85584689D01*
X49611601Y-85583476D01*
X49605871Y-85577112D01*
X49600613Y-85573292D01*
X49600611Y-85573290D01*
X49457988Y-85469669D01*
X49457987Y-85469668D01*
X49452730Y-85465849D01*
X49446792Y-85463205D01*
X49285745Y-85391501D01*
X49285740Y-85391499D01*
X49279803Y-85388856D01*
X49273444Y-85387504D01*
X49273440Y-85387503D01*
X49101008Y-85350852D01*
X49101005Y-85350851D01*
X49094646Y-85349500D01*
X48905354Y-85349500D01*
X48898995Y-85350851D01*
X48898991Y-85350852D01*
X48726559Y-85387503D01*
X48726552Y-85387505D01*
X48720197Y-85388856D01*
X48714262Y-85391498D01*
X48714254Y-85391501D01*
X48553207Y-85463205D01*
X48553202Y-85463207D01*
X48547270Y-85465849D01*
X48542016Y-85469665D01*
X48542011Y-85469669D01*
X48399388Y-85573290D01*
X48399381Y-85573295D01*
X48394129Y-85577112D01*
X48348649Y-85627621D01*
X48292755Y-85663230D01*
X48226503Y-85664965D01*
X48168820Y-85632329D01*
X47800619Y-85264128D01*
X47773739Y-85223900D01*
X47764300Y-85176447D01*
X47764300Y-79929887D01*
X47772536Y-79885449D01*
X47796150Y-79846915D01*
X47871333Y-79763416D01*
X47965979Y-79599484D01*
X48024474Y-79419456D01*
X48044260Y-79231200D01*
X48024474Y-79042944D01*
X47965979Y-78862916D01*
X47871333Y-78698984D01*
X47744671Y-78558312D01*
X47739413Y-78554492D01*
X47739411Y-78554490D01*
X47596788Y-78450869D01*
X47596787Y-78450868D01*
X47591530Y-78447049D01*
X47585592Y-78444405D01*
X47424545Y-78372701D01*
X47424540Y-78372699D01*
X47418603Y-78370056D01*
X47412244Y-78368704D01*
X47412240Y-78368703D01*
X47239808Y-78332052D01*
X47239805Y-78332051D01*
X47233446Y-78330700D01*
X47044154Y-78330700D01*
X47037795Y-78332051D01*
X47037791Y-78332052D01*
X46865359Y-78368703D01*
X46865352Y-78368705D01*
X46858997Y-78370056D01*
X46853062Y-78372698D01*
X46853054Y-78372701D01*
X46692007Y-78444405D01*
X46692002Y-78444407D01*
X46686070Y-78447049D01*
X46680816Y-78450865D01*
X46680811Y-78450869D01*
X46538188Y-78554490D01*
X46538181Y-78554495D01*
X46532929Y-78558312D01*
X46528584Y-78563137D01*
X46528579Y-78563142D01*
X46410613Y-78694156D01*
X46410608Y-78694162D01*
X46406267Y-78698984D01*
X46403022Y-78704604D01*
X46403018Y-78704610D01*
X46314869Y-78857289D01*
X46314866Y-78857294D01*
X46311621Y-78862916D01*
X46309615Y-78869088D01*
X46309613Y-78869094D01*
X46255133Y-79036764D01*
X46255131Y-79036773D01*
X46253126Y-79042944D01*
X46252448Y-79049394D01*
X46252446Y-79049404D01*
X46234762Y-79217664D01*
X46233340Y-79231200D01*
X46234019Y-79237660D01*
X46252446Y-79412995D01*
X46252447Y-79413003D01*
X46253126Y-79419456D01*
X46255131Y-79425628D01*
X46255133Y-79425635D01*
X46309613Y-79593305D01*
X46311621Y-79599484D01*
X46406267Y-79763416D01*
X46410611Y-79768241D01*
X46410613Y-79768243D01*
X46481450Y-79846915D01*
X46505064Y-79885449D01*
X46513300Y-79929887D01*
X46513300Y-85409125D01*
X46512778Y-85420180D01*
X46511127Y-85427567D01*
X46511371Y-85435353D01*
X46511371Y-85435361D01*
X46513239Y-85494773D01*
X46513300Y-85498668D01*
X46513300Y-85526250D01*
X46513788Y-85530119D01*
X46513789Y-85530125D01*
X46513804Y-85530243D01*
X46514718Y-85541866D01*
X46515845Y-85577730D01*
X46515846Y-85577737D01*
X46516091Y-85585527D01*
X46518267Y-85593019D01*
X46518268Y-85593021D01*
X46521679Y-85604762D01*
X46525625Y-85623815D01*
X46526700Y-85632329D01*
X46528136Y-85643692D01*
X46531006Y-85650942D01*
X46531008Y-85650948D01*
X46544214Y-85684304D01*
X46547997Y-85695351D01*
X46560182Y-85737290D01*
X46564153Y-85744005D01*
X46564154Y-85744007D01*
X46570381Y-85754537D01*
X46578936Y-85771999D01*
X46583442Y-85783380D01*
X46583443Y-85783383D01*
X46586314Y-85790632D01*
X46608240Y-85820812D01*
X46611981Y-85825960D01*
X46618393Y-85835722D01*
X46636656Y-85866602D01*
X46636659Y-85866607D01*
X46640630Y-85873320D01*
X46646145Y-85878835D01*
X46654790Y-85887480D01*
X46667426Y-85902274D01*
X46674619Y-85912175D01*
X46674623Y-85912179D01*
X46679206Y-85918487D01*
X46685215Y-85923458D01*
X46685216Y-85923459D01*
X46712858Y-85946326D01*
X46721499Y-85954189D01*
X48376407Y-87609098D01*
X48383859Y-87617287D01*
X48387914Y-87623677D01*
X48436923Y-87669700D01*
X48439720Y-87672411D01*
X48459229Y-87691920D01*
X48462409Y-87694387D01*
X48471271Y-87701955D01*
X48484720Y-87714585D01*
X48497432Y-87726523D01*
X48497434Y-87726524D01*
X48503118Y-87731862D01*
X48509951Y-87735618D01*
X48509952Y-87735619D01*
X48520673Y-87741513D01*
X48536934Y-87752194D01*
X48552764Y-87764473D01*
X48592855Y-87781821D01*
X48603335Y-87786955D01*
X48641608Y-87807997D01*
X48661016Y-87812980D01*
X48679419Y-87819281D01*
X48690644Y-87824139D01*
X48690646Y-87824139D01*
X48697804Y-87827237D01*
X48740958Y-87834071D01*
X48752344Y-87836429D01*
X48794681Y-87847300D01*
X48814717Y-87847300D01*
X48834115Y-87848827D01*
X48846186Y-87850739D01*
X48846187Y-87850739D01*
X48853896Y-87851960D01*
X48891976Y-87848360D01*
X48897376Y-87847850D01*
X48909045Y-87847300D01*
X53321252Y-87847300D01*
X53371685Y-87858019D01*
X53409781Y-87885695D01*
X53409950Y-87885509D01*
X53411728Y-87887110D01*
X53413398Y-87888323D01*
X53419129Y-87894688D01*
X53572270Y-88005951D01*
X53745197Y-88082944D01*
X53930354Y-88122300D01*
X54113143Y-88122300D01*
X54119646Y-88122300D01*
X54304803Y-88082944D01*
X54477730Y-88005951D01*
X54630871Y-87894688D01*
X54757533Y-87754016D01*
X54852179Y-87590084D01*
X54910674Y-87410056D01*
X54930460Y-87221800D01*
X54910674Y-87033544D01*
X54908666Y-87027365D01*
X54908223Y-87025279D01*
X54908940Y-86970551D01*
X54933148Y-86921464D01*
X54976131Y-86887579D01*
X55029514Y-86875500D01*
X58189548Y-86875500D01*
X58237001Y-86884939D01*
X58277229Y-86911819D01*
X58338181Y-86972771D01*
X58365061Y-87012999D01*
X58374500Y-87060452D01*
X58374500Y-103551313D01*
X58366264Y-103595751D01*
X58342650Y-103634285D01*
X58271813Y-103712956D01*
X58271808Y-103712962D01*
X58267467Y-103717784D01*
X58264222Y-103723404D01*
X58264218Y-103723410D01*
X58176069Y-103876089D01*
X58176066Y-103876094D01*
X58172821Y-103881716D01*
X58170815Y-103887888D01*
X58170813Y-103887894D01*
X58116333Y-104055564D01*
X58116331Y-104055573D01*
X58114326Y-104061744D01*
X58113647Y-104068203D01*
X58113647Y-104068204D01*
X58096678Y-104229650D01*
X58085278Y-104270072D01*
X58061038Y-104304369D01*
X43247902Y-119117505D01*
X43210657Y-119143103D01*
X43053208Y-119213205D01*
X43047270Y-119215849D01*
X43042016Y-119219665D01*
X43042011Y-119219669D01*
X42899388Y-119323290D01*
X42899381Y-119323295D01*
X42894129Y-119327112D01*
X42889784Y-119331937D01*
X42889779Y-119331942D01*
X42771813Y-119462956D01*
X42771808Y-119462962D01*
X42767467Y-119467784D01*
X42764222Y-119473404D01*
X42764218Y-119473410D01*
X42676069Y-119626089D01*
X42676066Y-119626094D01*
X42672821Y-119631716D01*
X42670815Y-119637888D01*
X42670813Y-119637894D01*
X42616333Y-119805564D01*
X42616331Y-119805573D01*
X42614326Y-119811744D01*
X42613648Y-119818194D01*
X42613646Y-119818204D01*
X42595962Y-119986464D01*
X42594540Y-120000000D01*
X42595219Y-120006460D01*
X42613646Y-120181795D01*
X42613647Y-120181803D01*
X42614326Y-120188256D01*
X42616331Y-120194428D01*
X42616333Y-120194435D01*
X42670813Y-120362105D01*
X42672821Y-120368284D01*
X42767467Y-120532216D01*
X42894129Y-120672888D01*
X43047270Y-120784151D01*
X43220197Y-120861144D01*
X43405354Y-120900500D01*
X43588143Y-120900500D01*
X43594646Y-120900500D01*
X43779803Y-120861144D01*
X43952730Y-120784151D01*
X44105871Y-120672888D01*
X44232533Y-120532216D01*
X44327179Y-120368284D01*
X44385674Y-120188256D01*
X44405460Y-120000000D01*
X44385880Y-119813707D01*
X44392313Y-119759357D01*
X44421518Y-119713070D01*
X46384588Y-117750000D01*
X54094540Y-117750000D01*
X54095219Y-117756460D01*
X54113646Y-117931795D01*
X54113647Y-117931803D01*
X54114326Y-117938256D01*
X54116331Y-117944428D01*
X54116333Y-117944435D01*
X54170813Y-118112105D01*
X54172821Y-118118284D01*
X54176068Y-118123908D01*
X54176069Y-118123910D01*
X54247810Y-118248170D01*
X54267467Y-118282216D01*
X54271811Y-118287041D01*
X54271813Y-118287043D01*
X54353417Y-118377673D01*
X54394129Y-118422888D01*
X54547270Y-118534151D01*
X54720197Y-118611144D01*
X54905354Y-118650500D01*
X55088143Y-118650500D01*
X55094646Y-118650500D01*
X55279803Y-118611144D01*
X55452730Y-118534151D01*
X55605871Y-118422888D01*
X55611601Y-118416523D01*
X55613271Y-118415310D01*
X55615050Y-118413709D01*
X55615218Y-118413895D01*
X55653315Y-118386219D01*
X55703748Y-118375500D01*
X70422225Y-118375500D01*
X70433280Y-118376021D01*
X70440667Y-118377673D01*
X70507872Y-118375561D01*
X70511768Y-118375500D01*
X70535448Y-118375500D01*
X70539350Y-118375500D01*
X70543313Y-118374999D01*
X70554963Y-118374080D01*
X70598627Y-118372709D01*
X70617861Y-118367119D01*
X70636917Y-118363174D01*
X70656792Y-118360664D01*
X70697395Y-118344587D01*
X70708450Y-118340802D01*
X70750390Y-118328618D01*
X70767629Y-118318422D01*
X70785103Y-118309862D01*
X70796474Y-118305360D01*
X70796476Y-118305358D01*
X70803732Y-118302486D01*
X70839069Y-118276811D01*
X70848824Y-118270403D01*
X70886420Y-118248170D01*
X70900584Y-118234005D01*
X70915379Y-118221368D01*
X70931587Y-118209594D01*
X70959428Y-118175938D01*
X70967279Y-118167309D01*
X77947770Y-111186819D01*
X77987999Y-111159939D01*
X78035452Y-111150500D01*
X78088143Y-111150500D01*
X78094646Y-111150500D01*
X78279803Y-111111144D01*
X78452730Y-111034151D01*
X78605871Y-110922888D01*
X78732533Y-110782216D01*
X78827179Y-110618284D01*
X78885674Y-110438256D01*
X78905460Y-110250000D01*
X78885674Y-110061744D01*
X78827179Y-109881716D01*
X78732533Y-109717784D01*
X78605871Y-109577112D01*
X78600613Y-109573292D01*
X78600611Y-109573290D01*
X78457988Y-109469669D01*
X78457987Y-109469668D01*
X78452730Y-109465849D01*
X78446792Y-109463205D01*
X78285745Y-109391501D01*
X78285740Y-109391499D01*
X78279803Y-109388856D01*
X78273444Y-109387504D01*
X78273440Y-109387503D01*
X78101008Y-109350852D01*
X78101005Y-109350851D01*
X78094646Y-109349500D01*
X77905354Y-109349500D01*
X77898995Y-109350851D01*
X77898991Y-109350852D01*
X77726559Y-109387503D01*
X77726552Y-109387505D01*
X77720197Y-109388856D01*
X77714262Y-109391498D01*
X77714254Y-109391501D01*
X77553207Y-109463205D01*
X77553202Y-109463207D01*
X77547270Y-109465849D01*
X77542016Y-109469665D01*
X77542011Y-109469669D01*
X77399388Y-109573290D01*
X77399381Y-109573295D01*
X77394129Y-109577112D01*
X77389784Y-109581937D01*
X77389779Y-109581942D01*
X77271813Y-109712956D01*
X77271808Y-109712962D01*
X77267467Y-109717784D01*
X77264222Y-109723404D01*
X77264218Y-109723410D01*
X77176069Y-109876089D01*
X77176066Y-109876094D01*
X77172821Y-109881716D01*
X77170815Y-109887888D01*
X77170813Y-109887894D01*
X77116333Y-110055564D01*
X77116331Y-110055573D01*
X77114326Y-110061744D01*
X77113647Y-110068203D01*
X77113647Y-110068204D01*
X77096678Y-110229651D01*
X77085278Y-110270072D01*
X77061038Y-110304370D01*
X70277228Y-117088181D01*
X70237000Y-117115061D01*
X70189547Y-117124500D01*
X55703748Y-117124500D01*
X55653315Y-117113781D01*
X55615218Y-117086104D01*
X55615050Y-117086291D01*
X55613271Y-117084689D01*
X55611601Y-117083476D01*
X55605871Y-117077112D01*
X55600613Y-117073292D01*
X55600611Y-117073290D01*
X55457988Y-116969669D01*
X55457987Y-116969668D01*
X55452730Y-116965849D01*
X55446792Y-116963205D01*
X55285745Y-116891501D01*
X55285740Y-116891499D01*
X55279803Y-116888856D01*
X55273444Y-116887504D01*
X55273440Y-116887503D01*
X55101008Y-116850852D01*
X55101005Y-116850851D01*
X55094646Y-116849500D01*
X54905354Y-116849500D01*
X54898995Y-116850851D01*
X54898991Y-116850852D01*
X54726559Y-116887503D01*
X54726552Y-116887505D01*
X54720197Y-116888856D01*
X54714262Y-116891498D01*
X54714254Y-116891501D01*
X54553207Y-116963205D01*
X54553202Y-116963207D01*
X54547270Y-116965849D01*
X54542016Y-116969665D01*
X54542011Y-116969669D01*
X54399388Y-117073290D01*
X54399381Y-117073295D01*
X54394129Y-117077112D01*
X54389784Y-117081937D01*
X54389779Y-117081942D01*
X54271813Y-117212956D01*
X54271808Y-117212962D01*
X54267467Y-117217784D01*
X54264222Y-117223404D01*
X54264218Y-117223410D01*
X54176069Y-117376089D01*
X54176066Y-117376094D01*
X54172821Y-117381716D01*
X54170815Y-117387888D01*
X54170813Y-117387894D01*
X54116333Y-117555564D01*
X54116331Y-117555573D01*
X54114326Y-117561744D01*
X54113648Y-117568194D01*
X54113646Y-117568204D01*
X54095962Y-117736464D01*
X54094540Y-117750000D01*
X46384588Y-117750000D01*
X53681179Y-110453409D01*
X53736138Y-110421487D01*
X53799695Y-110420988D01*
X53855151Y-110452044D01*
X53887934Y-110506496D01*
X53896504Y-110535996D01*
X53896506Y-110536000D01*
X53898682Y-110543490D01*
X53902653Y-110550205D01*
X53902654Y-110550207D01*
X53908881Y-110560737D01*
X53917436Y-110578199D01*
X53921942Y-110589580D01*
X53921943Y-110589583D01*
X53924814Y-110596832D01*
X53940400Y-110618284D01*
X53950481Y-110632160D01*
X53956893Y-110641922D01*
X53975156Y-110672802D01*
X53975159Y-110672807D01*
X53979130Y-110679520D01*
X53984645Y-110685035D01*
X53993290Y-110693680D01*
X54005926Y-110708474D01*
X54013119Y-110718375D01*
X54013123Y-110718379D01*
X54017706Y-110724687D01*
X54023715Y-110729658D01*
X54023716Y-110729659D01*
X54051358Y-110752526D01*
X54059999Y-110760389D01*
X54416906Y-111117296D01*
X54424358Y-111125485D01*
X54428414Y-111131877D01*
X54434098Y-111137215D01*
X54434100Y-111137217D01*
X54477423Y-111177900D01*
X54480220Y-111180611D01*
X54499729Y-111200120D01*
X54502909Y-111202587D01*
X54511771Y-111210155D01*
X54525080Y-111222654D01*
X54537932Y-111234723D01*
X54537934Y-111234724D01*
X54543618Y-111240062D01*
X54550451Y-111243818D01*
X54550452Y-111243819D01*
X54561173Y-111249713D01*
X54577434Y-111260394D01*
X54593264Y-111272673D01*
X54633354Y-111290021D01*
X54643831Y-111295154D01*
X54682108Y-111316197D01*
X54699157Y-111320574D01*
X54701505Y-111321177D01*
X54719919Y-111327481D01*
X54738304Y-111335438D01*
X54781465Y-111342273D01*
X54792864Y-111344634D01*
X54835181Y-111355500D01*
X54855217Y-111355500D01*
X54874602Y-111357025D01*
X54894396Y-111360160D01*
X54932476Y-111356560D01*
X54937876Y-111356050D01*
X54949545Y-111355500D01*
X56909925Y-111355500D01*
X56920980Y-111356021D01*
X56928367Y-111357673D01*
X56995572Y-111355561D01*
X56999468Y-111355500D01*
X57023148Y-111355500D01*
X57027050Y-111355500D01*
X57031013Y-111354999D01*
X57042663Y-111354080D01*
X57086327Y-111352709D01*
X57105561Y-111347119D01*
X57124617Y-111343174D01*
X57144492Y-111340664D01*
X57185095Y-111324587D01*
X57196150Y-111320802D01*
X57238090Y-111308618D01*
X57255329Y-111298422D01*
X57272803Y-111289862D01*
X57284174Y-111285360D01*
X57284176Y-111285358D01*
X57291432Y-111282486D01*
X57326769Y-111256811D01*
X57336524Y-111250403D01*
X57374120Y-111228170D01*
X57388284Y-111214005D01*
X57403079Y-111201368D01*
X57419287Y-111189594D01*
X57447128Y-111155938D01*
X57454979Y-111147309D01*
X61647770Y-106954519D01*
X61687999Y-106927639D01*
X61735452Y-106918200D01*
X61788143Y-106918200D01*
X61794646Y-106918200D01*
X61979803Y-106878844D01*
X62152730Y-106801851D01*
X62305871Y-106690588D01*
X62432533Y-106549916D01*
X62527179Y-106385984D01*
X62585674Y-106205956D01*
X62605460Y-106017700D01*
X62585674Y-105829444D01*
X62527179Y-105649416D01*
X62432533Y-105485484D01*
X62305871Y-105344812D01*
X62300613Y-105340992D01*
X62300611Y-105340990D01*
X62157988Y-105237369D01*
X62157987Y-105237368D01*
X62152730Y-105233549D01*
X62146792Y-105230905D01*
X61985745Y-105159201D01*
X61985740Y-105159199D01*
X61979803Y-105156556D01*
X61973444Y-105155204D01*
X61973440Y-105155203D01*
X61801008Y-105118552D01*
X61801005Y-105118551D01*
X61794646Y-105117200D01*
X61605354Y-105117200D01*
X61598995Y-105118551D01*
X61598991Y-105118552D01*
X61426559Y-105155203D01*
X61426552Y-105155205D01*
X61420197Y-105156556D01*
X61414262Y-105159198D01*
X61414254Y-105159201D01*
X61253210Y-105230903D01*
X61253200Y-105230908D01*
X61247270Y-105233549D01*
X61242013Y-105237368D01*
X61241908Y-105237429D01*
X61185317Y-105253921D01*
X61127504Y-105242420D01*
X61081535Y-105205523D01*
X61057796Y-105151570D01*
X61061651Y-105092751D01*
X61092229Y-105042361D01*
X64472771Y-101661819D01*
X64513000Y-101634939D01*
X64560453Y-101625500D01*
X94796252Y-101625500D01*
X94846685Y-101636219D01*
X94884781Y-101663895D01*
X94884950Y-101663709D01*
X94886728Y-101665310D01*
X94888398Y-101666523D01*
X94894129Y-101672888D01*
X95047270Y-101784151D01*
X95220197Y-101861144D01*
X95405354Y-101900500D01*
X95588143Y-101900500D01*
X95594646Y-101900500D01*
X95779803Y-101861144D01*
X95952730Y-101784151D01*
X96105871Y-101672888D01*
X96111601Y-101666523D01*
X96113271Y-101665310D01*
X96115050Y-101663709D01*
X96115218Y-101663895D01*
X96153315Y-101636219D01*
X96203748Y-101625500D01*
X99672225Y-101625500D01*
X99683280Y-101626021D01*
X99690667Y-101627673D01*
X99757872Y-101625561D01*
X99761768Y-101625500D01*
X99785448Y-101625500D01*
X99789350Y-101625500D01*
X99793313Y-101624999D01*
X99804963Y-101624080D01*
X99848627Y-101622709D01*
X99867861Y-101617119D01*
X99886917Y-101613174D01*
X99906792Y-101610664D01*
X99947395Y-101594587D01*
X99958450Y-101590802D01*
X100000390Y-101578618D01*
X100017629Y-101568422D01*
X100035103Y-101559862D01*
X100046474Y-101555360D01*
X100046476Y-101555358D01*
X100053732Y-101552486D01*
X100089069Y-101526811D01*
X100098824Y-101520403D01*
X100136420Y-101498170D01*
X100150584Y-101484005D01*
X100165379Y-101471368D01*
X100181587Y-101459594D01*
X100209428Y-101425938D01*
X100217279Y-101417309D01*
X100887311Y-100747278D01*
X100895481Y-100739844D01*
X100901877Y-100735786D01*
X100947918Y-100686756D01*
X100950535Y-100684054D01*
X100970120Y-100664471D01*
X100972585Y-100661292D01*
X100980167Y-100652416D01*
X101010062Y-100620582D01*
X101019713Y-100603023D01*
X101030390Y-100586770D01*
X101042673Y-100570936D01*
X101045772Y-100563773D01*
X101048769Y-100558707D01*
X101094403Y-100513926D01*
X101156280Y-100497832D01*
X101217950Y-100514704D01*
X101263017Y-100560055D01*
X101279500Y-100621830D01*
X101279500Y-148375500D01*
X101262887Y-148437500D01*
X101217500Y-148482887D01*
X101155500Y-148499500D01*
X20124500Y-148499500D01*
X20062500Y-148482887D01*
X20017113Y-148437500D01*
X20000500Y-148375500D01*
X20000500Y-145500000D01*
X25074551Y-145500000D01*
X25094317Y-145751148D01*
X25095452Y-145755877D01*
X25095453Y-145755881D01*
X25151989Y-145991374D01*
X25151991Y-145991382D01*
X25153127Y-145996111D01*
X25249534Y-146228859D01*
X25252081Y-146233016D01*
X25252082Y-146233017D01*
X25378617Y-146439504D01*
X25378622Y-146439511D01*
X25381164Y-146443659D01*
X25384324Y-146447358D01*
X25384327Y-146447363D01*
X25534845Y-146623596D01*
X25544776Y-146635224D01*
X25548476Y-146638384D01*
X25730705Y-146794023D01*
X25736341Y-146798836D01*
X25740491Y-146801379D01*
X25740495Y-146801382D01*
X25852300Y-146869896D01*
X25951141Y-146930466D01*
X26183889Y-147026873D01*
X26428852Y-147085683D01*
X26680000Y-147105449D01*
X26931148Y-147085683D01*
X27176111Y-147026873D01*
X27408859Y-146930466D01*
X27623659Y-146798836D01*
X27815224Y-146635224D01*
X27978836Y-146443659D01*
X28110466Y-146228859D01*
X28206873Y-145996111D01*
X28265683Y-145751148D01*
X28285449Y-145500000D01*
X92994551Y-145500000D01*
X93014317Y-145751148D01*
X93015452Y-145755877D01*
X93015453Y-145755881D01*
X93071989Y-145991374D01*
X93071991Y-145991382D01*
X93073127Y-145996111D01*
X93169534Y-146228859D01*
X93172081Y-146233016D01*
X93172082Y-146233017D01*
X93298617Y-146439504D01*
X93298622Y-146439511D01*
X93301164Y-146443659D01*
X93304324Y-146447358D01*
X93304327Y-146447363D01*
X93454845Y-146623596D01*
X93464776Y-146635224D01*
X93468476Y-146638384D01*
X93650705Y-146794023D01*
X93656341Y-146798836D01*
X93660491Y-146801379D01*
X93660495Y-146801382D01*
X93772300Y-146869896D01*
X93871141Y-146930466D01*
X94103889Y-147026873D01*
X94348852Y-147085683D01*
X94600000Y-147105449D01*
X94851148Y-147085683D01*
X95096111Y-147026873D01*
X95328859Y-146930466D01*
X95543659Y-146798836D01*
X95735224Y-146635224D01*
X95898836Y-146443659D01*
X96030466Y-146228859D01*
X96126873Y-145996111D01*
X96185683Y-145751148D01*
X96205449Y-145500000D01*
X96185683Y-145248852D01*
X96126873Y-145003889D01*
X96030466Y-144771141D01*
X95898836Y-144556341D01*
X95735224Y-144364776D01*
X95731523Y-144361615D01*
X95547363Y-144204327D01*
X95547358Y-144204324D01*
X95543659Y-144201164D01*
X95539511Y-144198622D01*
X95539504Y-144198617D01*
X95333017Y-144072082D01*
X95333016Y-144072081D01*
X95328859Y-144069534D01*
X95096111Y-143973127D01*
X95091382Y-143971991D01*
X95091374Y-143971989D01*
X94855881Y-143915453D01*
X94855877Y-143915452D01*
X94851148Y-143914317D01*
X94846295Y-143913935D01*
X94604854Y-143894933D01*
X94600000Y-143894551D01*
X94595146Y-143894933D01*
X94353704Y-143913935D01*
X94353702Y-143913935D01*
X94348852Y-143914317D01*
X94344124Y-143915451D01*
X94344118Y-143915453D01*
X94108625Y-143971989D01*
X94108613Y-143971992D01*
X94103889Y-143973127D01*
X94099392Y-143974989D01*
X94099388Y-143974991D01*
X93875645Y-144067668D01*
X93875640Y-144067670D01*
X93871141Y-144069534D01*
X93866988Y-144072078D01*
X93866982Y-144072082D01*
X93660495Y-144198617D01*
X93660482Y-144198626D01*
X93656341Y-144201164D01*
X93652646Y-144204319D01*
X93652636Y-144204327D01*
X93468476Y-144361615D01*
X93468469Y-144361621D01*
X93464776Y-144364776D01*
X93461621Y-144368469D01*
X93461615Y-144368476D01*
X93304327Y-144552636D01*
X93304319Y-144552646D01*
X93301164Y-144556341D01*
X93298626Y-144560482D01*
X93298617Y-144560495D01*
X93172082Y-144766982D01*
X93172078Y-144766988D01*
X93169534Y-144771141D01*
X93167670Y-144775640D01*
X93167668Y-144775645D01*
X93074991Y-144999388D01*
X93073127Y-145003889D01*
X93071992Y-145008613D01*
X93071989Y-145008625D01*
X93015453Y-145244118D01*
X93015451Y-145244124D01*
X93014317Y-145248852D01*
X92994551Y-145500000D01*
X28285449Y-145500000D01*
X28265683Y-145248852D01*
X28206873Y-145003889D01*
X28110466Y-144771141D01*
X27978836Y-144556341D01*
X27815224Y-144364776D01*
X27811523Y-144361615D01*
X27627363Y-144204327D01*
X27627358Y-144204324D01*
X27623659Y-144201164D01*
X27619511Y-144198622D01*
X27619504Y-144198617D01*
X27413017Y-144072082D01*
X27413016Y-144072081D01*
X27408859Y-144069534D01*
X27176111Y-143973127D01*
X27171382Y-143971991D01*
X27171374Y-143971989D01*
X26935881Y-143915453D01*
X26935877Y-143915452D01*
X26931148Y-143914317D01*
X26926295Y-143913935D01*
X26684854Y-143894933D01*
X26680000Y-143894551D01*
X26675146Y-143894933D01*
X26433704Y-143913935D01*
X26433702Y-143913935D01*
X26428852Y-143914317D01*
X26424124Y-143915451D01*
X26424118Y-143915453D01*
X26188625Y-143971989D01*
X26188613Y-143971992D01*
X26183889Y-143973127D01*
X26179392Y-143974989D01*
X26179388Y-143974991D01*
X25955645Y-144067668D01*
X25955640Y-144067670D01*
X25951141Y-144069534D01*
X25946988Y-144072078D01*
X25946982Y-144072082D01*
X25740495Y-144198617D01*
X25740482Y-144198626D01*
X25736341Y-144201164D01*
X25732646Y-144204319D01*
X25732636Y-144204327D01*
X25548476Y-144361615D01*
X25548469Y-144361621D01*
X25544776Y-144364776D01*
X25541621Y-144368469D01*
X25541615Y-144368476D01*
X25384327Y-144552636D01*
X25384319Y-144552646D01*
X25381164Y-144556341D01*
X25378626Y-144560482D01*
X25378617Y-144560495D01*
X25252082Y-144766982D01*
X25252078Y-144766988D01*
X25249534Y-144771141D01*
X25247670Y-144775640D01*
X25247668Y-144775645D01*
X25154991Y-144999388D01*
X25153127Y-145003889D01*
X25151992Y-145008613D01*
X25151989Y-145008625D01*
X25095453Y-145244118D01*
X25095451Y-145244124D01*
X25094317Y-145248852D01*
X25074551Y-145500000D01*
X20000500Y-145500000D01*
X20000500Y-138000000D01*
X21499459Y-138000000D01*
X21499617Y-138000383D01*
X21499901Y-138000500D01*
X24487944Y-138000500D01*
X24500099Y-138000500D01*
X24500383Y-138000383D01*
X24500541Y-138000000D01*
X26499459Y-138000000D01*
X26499617Y-138000383D01*
X26499901Y-138000500D01*
X29487944Y-138000500D01*
X29500099Y-138000500D01*
X29500383Y-138000383D01*
X29500541Y-138000000D01*
X31499459Y-138000000D01*
X31499617Y-138000383D01*
X31499901Y-138000500D01*
X34487944Y-138000500D01*
X34500099Y-138000500D01*
X34500383Y-138000383D01*
X34500541Y-138000000D01*
X36499459Y-138000000D01*
X36499617Y-138000383D01*
X36499901Y-138000500D01*
X39487944Y-138000500D01*
X39500099Y-138000500D01*
X39500383Y-138000383D01*
X39500541Y-138000000D01*
X41499459Y-138000000D01*
X41499617Y-138000383D01*
X41499901Y-138000500D01*
X44487944Y-138000500D01*
X44500099Y-138000500D01*
X44500383Y-138000383D01*
X44500541Y-138000000D01*
X46499459Y-138000000D01*
X46499617Y-138000383D01*
X46499901Y-138000500D01*
X49487944Y-138000500D01*
X49500099Y-138000500D01*
X49500383Y-138000383D01*
X49500541Y-138000000D01*
X51499459Y-138000000D01*
X51499617Y-138000383D01*
X51499901Y-138000500D01*
X54487944Y-138000500D01*
X54500099Y-138000500D01*
X54500383Y-138000383D01*
X54500541Y-138000000D01*
X56499459Y-138000000D01*
X56499617Y-138000383D01*
X56499901Y-138000500D01*
X59487944Y-138000500D01*
X59500099Y-138000500D01*
X59500383Y-138000383D01*
X59500541Y-138000000D01*
X61499459Y-138000000D01*
X61499617Y-138000383D01*
X61499901Y-138000500D01*
X64487944Y-138000500D01*
X64500099Y-138000500D01*
X64500383Y-138000383D01*
X64500541Y-138000000D01*
X66499459Y-138000000D01*
X66499617Y-138000383D01*
X66499901Y-138000500D01*
X69487944Y-138000500D01*
X69500099Y-138000500D01*
X69500383Y-138000383D01*
X69500541Y-138000000D01*
X71499459Y-138000000D01*
X71499617Y-138000383D01*
X71499901Y-138000500D01*
X74487944Y-138000500D01*
X74500099Y-138000500D01*
X74500383Y-138000383D01*
X74500541Y-138000000D01*
X76499459Y-138000000D01*
X76499617Y-138000383D01*
X76499901Y-138000500D01*
X79487944Y-138000500D01*
X79500099Y-138000500D01*
X79500383Y-138000383D01*
X79500541Y-138000000D01*
X81499459Y-138000000D01*
X81499617Y-138000383D01*
X81499901Y-138000500D01*
X84487944Y-138000500D01*
X84500099Y-138000500D01*
X84500383Y-138000383D01*
X84500541Y-138000000D01*
X86499459Y-138000000D01*
X86499617Y-138000383D01*
X86499901Y-138000500D01*
X89487944Y-138000500D01*
X89500099Y-138000500D01*
X89500383Y-138000383D01*
X89500541Y-138000000D01*
X91499459Y-138000000D01*
X91499617Y-138000383D01*
X91499901Y-138000500D01*
X94487944Y-138000500D01*
X94500099Y-138000500D01*
X94500383Y-138000383D01*
X94500541Y-138000000D01*
X96499459Y-138000000D01*
X96499617Y-138000383D01*
X96499901Y-138000500D01*
X99487944Y-138000500D01*
X99500099Y-138000500D01*
X99500383Y-138000383D01*
X99500541Y-138000000D01*
X99500383Y-137999617D01*
X99500099Y-137999500D01*
X96499901Y-137999500D01*
X96499617Y-137999617D01*
X96499459Y-138000000D01*
X94500541Y-138000000D01*
X94500383Y-137999617D01*
X94500099Y-137999500D01*
X91499901Y-137999500D01*
X91499617Y-137999617D01*
X91499459Y-138000000D01*
X89500541Y-138000000D01*
X89500383Y-137999617D01*
X89500099Y-137999500D01*
X86499901Y-137999500D01*
X86499617Y-137999617D01*
X86499459Y-138000000D01*
X84500541Y-138000000D01*
X84500383Y-137999617D01*
X84500099Y-137999500D01*
X81499901Y-137999500D01*
X81499617Y-137999617D01*
X81499459Y-138000000D01*
X79500541Y-138000000D01*
X79500383Y-137999617D01*
X79500099Y-137999500D01*
X76499901Y-137999500D01*
X76499617Y-137999617D01*
X76499459Y-138000000D01*
X74500541Y-138000000D01*
X74500383Y-137999617D01*
X74500099Y-137999500D01*
X71499901Y-137999500D01*
X71499617Y-137999617D01*
X71499459Y-138000000D01*
X69500541Y-138000000D01*
X69500383Y-137999617D01*
X69500099Y-137999500D01*
X66499901Y-137999500D01*
X66499617Y-137999617D01*
X66499459Y-138000000D01*
X64500541Y-138000000D01*
X64500383Y-137999617D01*
X64500099Y-137999500D01*
X61499901Y-137999500D01*
X61499617Y-137999617D01*
X61499459Y-138000000D01*
X59500541Y-138000000D01*
X59500383Y-137999617D01*
X59500099Y-137999500D01*
X56499901Y-137999500D01*
X56499617Y-137999617D01*
X56499459Y-138000000D01*
X54500541Y-138000000D01*
X54500383Y-137999617D01*
X54500099Y-137999500D01*
X51499901Y-137999500D01*
X51499617Y-137999617D01*
X51499459Y-138000000D01*
X49500541Y-138000000D01*
X49500383Y-137999617D01*
X49500099Y-137999500D01*
X46499901Y-137999500D01*
X46499617Y-137999617D01*
X46499459Y-138000000D01*
X44500541Y-138000000D01*
X44500383Y-137999617D01*
X44500099Y-137999500D01*
X41499901Y-137999500D01*
X41499617Y-137999617D01*
X41499459Y-138000000D01*
X39500541Y-138000000D01*
X39500383Y-137999617D01*
X39500099Y-137999500D01*
X36499901Y-137999500D01*
X36499617Y-137999617D01*
X36499459Y-138000000D01*
X34500541Y-138000000D01*
X34500383Y-137999617D01*
X34500099Y-137999500D01*
X31499901Y-137999500D01*
X31499617Y-137999617D01*
X31499459Y-138000000D01*
X29500541Y-138000000D01*
X29500383Y-137999617D01*
X29500099Y-137999500D01*
X26499901Y-137999500D01*
X26499617Y-137999617D01*
X26499459Y-138000000D01*
X24500541Y-138000000D01*
X24500383Y-137999617D01*
X24500099Y-137999500D01*
X21499901Y-137999500D01*
X21499617Y-137999617D01*
X21499459Y-138000000D01*
X20000500Y-138000000D01*
X20000500Y-136809518D01*
X25785000Y-136809518D01*
X25785353Y-136816114D01*
X25790573Y-136864667D01*
X25794111Y-136879641D01*
X25838547Y-136998777D01*
X25846962Y-137014189D01*
X25922498Y-137115092D01*
X25934907Y-137127501D01*
X26035810Y-137203037D01*
X26051222Y-137211452D01*
X26170358Y-137255888D01*
X26185332Y-137259426D01*
X26233885Y-137264646D01*
X26240482Y-137265000D01*
X26983674Y-137265000D01*
X26996549Y-137261549D01*
X27000000Y-137248674D01*
X27500000Y-137248674D01*
X27503450Y-137261549D01*
X27516326Y-137265000D01*
X28259518Y-137265000D01*
X28266114Y-137264646D01*
X28314667Y-137259426D01*
X28329641Y-137255888D01*
X28448777Y-137211452D01*
X28464189Y-137203037D01*
X28565092Y-137127501D01*
X28577501Y-137115092D01*
X28653037Y-137014189D01*
X28661452Y-136998777D01*
X28705888Y-136879641D01*
X28709426Y-136864667D01*
X28714646Y-136816114D01*
X28715000Y-136809518D01*
X36285000Y-136809518D01*
X36285353Y-136816114D01*
X36290573Y-136864667D01*
X36294111Y-136879641D01*
X36338547Y-136998777D01*
X36346962Y-137014189D01*
X36422498Y-137115092D01*
X36434907Y-137127501D01*
X36535810Y-137203037D01*
X36551222Y-137211452D01*
X36670358Y-137255888D01*
X36685332Y-137259426D01*
X36733885Y-137264646D01*
X36740482Y-137265000D01*
X37483674Y-137265000D01*
X37496549Y-137261549D01*
X37500000Y-137248674D01*
X38000000Y-137248674D01*
X38003450Y-137261549D01*
X38016326Y-137265000D01*
X38759518Y-137265000D01*
X38766114Y-137264646D01*
X38814667Y-137259426D01*
X38829641Y-137255888D01*
X38948777Y-137211452D01*
X38964189Y-137203037D01*
X39065092Y-137127501D01*
X39077501Y-137115092D01*
X39153037Y-137014189D01*
X39161452Y-136998777D01*
X39205888Y-136879641D01*
X39209426Y-136864667D01*
X39214646Y-136816114D01*
X39215000Y-136809518D01*
X46785000Y-136809518D01*
X46785353Y-136816114D01*
X46790573Y-136864667D01*
X46794111Y-136879641D01*
X46838547Y-136998777D01*
X46846962Y-137014189D01*
X46922498Y-137115092D01*
X46934907Y-137127501D01*
X47035810Y-137203037D01*
X47051222Y-137211452D01*
X47170358Y-137255888D01*
X47185332Y-137259426D01*
X47233885Y-137264646D01*
X47240482Y-137265000D01*
X47983674Y-137265000D01*
X47996549Y-137261549D01*
X48000000Y-137248674D01*
X48500000Y-137248674D01*
X48503450Y-137261549D01*
X48516326Y-137265000D01*
X49259518Y-137265000D01*
X49266114Y-137264646D01*
X49314667Y-137259426D01*
X49329641Y-137255888D01*
X49448777Y-137211452D01*
X49464189Y-137203037D01*
X49565092Y-137127501D01*
X49577501Y-137115092D01*
X49653037Y-137014189D01*
X49661452Y-136998777D01*
X49705888Y-136879641D01*
X49709426Y-136864667D01*
X49714646Y-136816114D01*
X49715000Y-136809518D01*
X49715000Y-136116326D01*
X49711549Y-136103450D01*
X49698674Y-136100000D01*
X48516326Y-136100000D01*
X48503450Y-136103450D01*
X48500000Y-136116326D01*
X48500000Y-137248674D01*
X48000000Y-137248674D01*
X48000000Y-136116326D01*
X47996549Y-136103450D01*
X47983674Y-136100000D01*
X46801326Y-136100000D01*
X46788450Y-136103450D01*
X46785000Y-136116326D01*
X46785000Y-136809518D01*
X39215000Y-136809518D01*
X39215000Y-136116326D01*
X39211549Y-136103450D01*
X39198674Y-136100000D01*
X38016326Y-136100000D01*
X38003450Y-136103450D01*
X38000000Y-136116326D01*
X38000000Y-137248674D01*
X37500000Y-137248674D01*
X37500000Y-136116326D01*
X37496549Y-136103450D01*
X37483674Y-136100000D01*
X36301326Y-136100000D01*
X36288450Y-136103450D01*
X36285000Y-136116326D01*
X36285000Y-136809518D01*
X28715000Y-136809518D01*
X28715000Y-136116326D01*
X28711549Y-136103450D01*
X28698674Y-136100000D01*
X27516326Y-136100000D01*
X27503450Y-136103450D01*
X27500000Y-136116326D01*
X27500000Y-137248674D01*
X27000000Y-137248674D01*
X27000000Y-136116326D01*
X26996549Y-136103450D01*
X26983674Y-136100000D01*
X25801326Y-136100000D01*
X25788450Y-136103450D01*
X25785000Y-136116326D01*
X25785000Y-136809518D01*
X20000500Y-136809518D01*
X20000500Y-132750000D01*
X25679659Y-132750000D01*
X25698993Y-132995655D01*
X25700128Y-133000384D01*
X25700129Y-133000388D01*
X25755379Y-133230525D01*
X25755381Y-133230533D01*
X25756517Y-133235262D01*
X25850816Y-133462920D01*
X25979567Y-133673023D01*
X25982731Y-133676728D01*
X25982735Y-133676733D01*
X26111381Y-133827358D01*
X26139601Y-133860399D01*
X26143308Y-133863565D01*
X26323266Y-134017264D01*
X26323269Y-134017266D01*
X26326977Y-134020433D01*
X26537080Y-134149184D01*
X26651164Y-134196439D01*
X26704029Y-134238115D01*
X26727329Y-134301271D01*
X26714196Y-134367295D01*
X26668501Y-134416727D01*
X26603711Y-134435000D01*
X26240482Y-134435000D01*
X26233885Y-134435353D01*
X26185332Y-134440573D01*
X26170358Y-134444111D01*
X26051222Y-134488547D01*
X26035810Y-134496962D01*
X25934907Y-134572498D01*
X25922498Y-134584907D01*
X25846962Y-134685810D01*
X25838547Y-134701222D01*
X25794111Y-134820358D01*
X25790573Y-134835332D01*
X25785353Y-134883885D01*
X25785000Y-134890482D01*
X25785000Y-135583674D01*
X25788450Y-135596549D01*
X25801326Y-135600000D01*
X28698674Y-135600000D01*
X28711549Y-135596549D01*
X28715000Y-135583674D01*
X28715000Y-134890482D01*
X28714646Y-134883885D01*
X28709426Y-134835332D01*
X28705888Y-134820358D01*
X28661452Y-134701222D01*
X28653037Y-134685810D01*
X28577501Y-134584907D01*
X28565092Y-134572498D01*
X28464189Y-134496962D01*
X28448777Y-134488547D01*
X28329641Y-134444111D01*
X28314667Y-134440573D01*
X28266114Y-134435353D01*
X28259518Y-134435000D01*
X27896289Y-134435000D01*
X27831499Y-134416727D01*
X27785804Y-134367295D01*
X27772671Y-134301271D01*
X27795971Y-134238115D01*
X27848836Y-134196439D01*
X27962920Y-134149184D01*
X28173023Y-134020433D01*
X28360399Y-133860399D01*
X28520433Y-133673023D01*
X28649184Y-133462920D01*
X28743483Y-133235262D01*
X28801007Y-132995655D01*
X28820341Y-132750000D01*
X36179659Y-132750000D01*
X36198993Y-132995655D01*
X36200128Y-133000384D01*
X36200129Y-133000388D01*
X36255379Y-133230525D01*
X36255381Y-133230533D01*
X36256517Y-133235262D01*
X36350816Y-133462920D01*
X36479567Y-133673023D01*
X36482731Y-133676728D01*
X36482735Y-133676733D01*
X36611381Y-133827358D01*
X36639601Y-133860399D01*
X36643308Y-133863565D01*
X36823266Y-134017264D01*
X36823269Y-134017266D01*
X36826977Y-134020433D01*
X37037080Y-134149184D01*
X37151164Y-134196439D01*
X37204029Y-134238115D01*
X37227329Y-134301271D01*
X37214196Y-134367295D01*
X37168501Y-134416727D01*
X37103711Y-134435000D01*
X36740482Y-134435000D01*
X36733885Y-134435353D01*
X36685332Y-134440573D01*
X36670358Y-134444111D01*
X36551222Y-134488547D01*
X36535810Y-134496962D01*
X36434907Y-134572498D01*
X36422498Y-134584907D01*
X36346962Y-134685810D01*
X36338547Y-134701222D01*
X36294111Y-134820358D01*
X36290573Y-134835332D01*
X36285353Y-134883885D01*
X36285000Y-134890482D01*
X36285000Y-135583674D01*
X36288450Y-135596549D01*
X36301326Y-135600000D01*
X39198674Y-135600000D01*
X39211549Y-135596549D01*
X39215000Y-135583674D01*
X39215000Y-134890482D01*
X39214646Y-134883885D01*
X39209426Y-134835332D01*
X39205888Y-134820358D01*
X39161452Y-134701222D01*
X39153037Y-134685810D01*
X39077501Y-134584907D01*
X39065092Y-134572498D01*
X38964189Y-134496962D01*
X38948777Y-134488547D01*
X38829641Y-134444111D01*
X38814667Y-134440573D01*
X38766114Y-134435353D01*
X38759518Y-134435000D01*
X38396289Y-134435000D01*
X38331499Y-134416727D01*
X38285804Y-134367295D01*
X38272671Y-134301271D01*
X38295971Y-134238115D01*
X38348836Y-134196439D01*
X38462920Y-134149184D01*
X38673023Y-134020433D01*
X38860399Y-133860399D01*
X39020433Y-133673023D01*
X39149184Y-133462920D01*
X39243483Y-133235262D01*
X39301007Y-132995655D01*
X39320341Y-132750000D01*
X46679659Y-132750000D01*
X46698993Y-132995655D01*
X46700128Y-133000384D01*
X46700129Y-133000388D01*
X46755379Y-133230525D01*
X46755381Y-133230533D01*
X46756517Y-133235262D01*
X46850816Y-133462920D01*
X46979567Y-133673023D01*
X46982731Y-133676728D01*
X46982735Y-133676733D01*
X47111381Y-133827358D01*
X47139601Y-133860399D01*
X47143308Y-133863565D01*
X47323266Y-134017264D01*
X47323269Y-134017266D01*
X47326977Y-134020433D01*
X47537080Y-134149184D01*
X47651164Y-134196439D01*
X47704029Y-134238115D01*
X47727329Y-134301271D01*
X47714196Y-134367295D01*
X47668501Y-134416727D01*
X47603711Y-134435000D01*
X47240482Y-134435000D01*
X47233885Y-134435353D01*
X47185332Y-134440573D01*
X47170358Y-134444111D01*
X47051222Y-134488547D01*
X47035810Y-134496962D01*
X46934907Y-134572498D01*
X46922498Y-134584907D01*
X46846962Y-134685810D01*
X46838547Y-134701222D01*
X46794111Y-134820358D01*
X46790573Y-134835332D01*
X46785353Y-134883885D01*
X46785000Y-134890482D01*
X46785000Y-135583674D01*
X46788450Y-135596549D01*
X46801326Y-135600000D01*
X49698674Y-135600000D01*
X49711549Y-135596549D01*
X49715000Y-135583674D01*
X49715000Y-134890482D01*
X49714646Y-134883885D01*
X49709426Y-134835332D01*
X49705888Y-134820358D01*
X49661452Y-134701222D01*
X49653037Y-134685810D01*
X49577501Y-134584907D01*
X49565092Y-134572498D01*
X49464189Y-134496962D01*
X49448777Y-134488547D01*
X49329641Y-134444111D01*
X49314667Y-134440573D01*
X49266114Y-134435353D01*
X49259518Y-134435000D01*
X48896289Y-134435000D01*
X48831499Y-134416727D01*
X48785804Y-134367295D01*
X48772671Y-134301271D01*
X48795971Y-134238115D01*
X48848836Y-134196439D01*
X48962920Y-134149184D01*
X49173023Y-134020433D01*
X49360399Y-133860399D01*
X49520433Y-133673023D01*
X49649184Y-133462920D01*
X49743483Y-133235262D01*
X49801007Y-132995655D01*
X49820341Y-132750000D01*
X49801007Y-132504345D01*
X49752669Y-132303000D01*
X54799500Y-132303000D01*
X54799664Y-132305251D01*
X54799665Y-132305257D01*
X54804817Y-132375645D01*
X54814403Y-132506616D01*
X54815386Y-132511031D01*
X54815388Y-132511041D01*
X54872630Y-132768011D01*
X54872633Y-132768023D01*
X54873618Y-132772442D01*
X54875237Y-132776676D01*
X54875238Y-132776678D01*
X54924508Y-132905500D01*
X54970907Y-133026814D01*
X54973125Y-133030766D01*
X55101978Y-133260359D01*
X55101981Y-133260364D01*
X55104196Y-133264310D01*
X55270645Y-133479868D01*
X55273906Y-133483012D01*
X55463437Y-133665744D01*
X55463442Y-133665748D01*
X55466705Y-133668894D01*
X55688198Y-133827358D01*
X55930403Y-133951885D01*
X56188159Y-134039819D01*
X56455971Y-134089286D01*
X56728131Y-134099232D01*
X56998839Y-134069446D01*
X57262326Y-134000562D01*
X57512975Y-133894047D01*
X57745444Y-133752173D01*
X57954779Y-133577963D01*
X58136518Y-133375131D01*
X58286788Y-133147998D01*
X58402386Y-132901406D01*
X58480847Y-132640611D01*
X58520500Y-132371171D01*
X58520500Y-132303000D01*
X64399500Y-132303000D01*
X64399664Y-132305251D01*
X64399665Y-132305257D01*
X64404817Y-132375645D01*
X64414403Y-132506616D01*
X64415386Y-132511031D01*
X64415388Y-132511041D01*
X64472630Y-132768011D01*
X64472633Y-132768023D01*
X64473618Y-132772442D01*
X64475237Y-132776676D01*
X64475238Y-132776678D01*
X64524508Y-132905500D01*
X64570907Y-133026814D01*
X64573125Y-133030766D01*
X64701978Y-133260359D01*
X64701981Y-133260364D01*
X64704196Y-133264310D01*
X64870645Y-133479868D01*
X64873906Y-133483012D01*
X65063437Y-133665744D01*
X65063442Y-133665748D01*
X65066705Y-133668894D01*
X65288198Y-133827358D01*
X65530403Y-133951885D01*
X65788159Y-134039819D01*
X66055971Y-134089286D01*
X66328131Y-134099232D01*
X66598839Y-134069446D01*
X66862326Y-134000562D01*
X67112975Y-133894047D01*
X67345444Y-133752173D01*
X67554779Y-133577963D01*
X67736518Y-133375131D01*
X67886788Y-133147998D01*
X68002386Y-132901406D01*
X68080847Y-132640611D01*
X68120500Y-132371171D01*
X68120500Y-131647000D01*
X68105597Y-131443384D01*
X68076747Y-131313871D01*
X68047369Y-131181988D01*
X68047368Y-131181985D01*
X68046382Y-131177558D01*
X67949093Y-130923186D01*
X67815804Y-130685690D01*
X67649355Y-130470132D01*
X67646093Y-130466987D01*
X67456562Y-130284255D01*
X67456556Y-130284250D01*
X67453295Y-130281106D01*
X67231802Y-130122642D01*
X67203236Y-130107955D01*
X66993632Y-130000189D01*
X66993625Y-130000186D01*
X66989597Y-129998115D01*
X66985312Y-129996653D01*
X66985307Y-129996651D01*
X66736124Y-129911642D01*
X66736122Y-129911641D01*
X66731841Y-129910181D01*
X66709679Y-129906087D01*
X66468489Y-129861537D01*
X66468478Y-129861535D01*
X66464029Y-129860714D01*
X66459500Y-129860548D01*
X66459496Y-129860548D01*
X66196397Y-129850933D01*
X66196390Y-129850933D01*
X66191869Y-129850768D01*
X66187372Y-129851262D01*
X66187366Y-129851263D01*
X65925672Y-129880057D01*
X65925663Y-129880058D01*
X65921161Y-129880554D01*
X65916782Y-129881698D01*
X65916770Y-129881701D01*
X65662049Y-129948294D01*
X65662046Y-129948295D01*
X65657674Y-129949438D01*
X65653524Y-129951201D01*
X65653511Y-129951206D01*
X65411191Y-130054182D01*
X65411183Y-130054185D01*
X65407025Y-130055953D01*
X65403168Y-130058306D01*
X65403158Y-130058312D01*
X65178428Y-130195463D01*
X65178418Y-130195469D01*
X65174556Y-130197827D01*
X65171071Y-130200726D01*
X65171067Y-130200730D01*
X64968706Y-130369136D01*
X64968700Y-130369141D01*
X64965221Y-130372037D01*
X64962203Y-130375404D01*
X64962199Y-130375409D01*
X64786498Y-130571502D01*
X64786492Y-130571508D01*
X64783482Y-130574869D01*
X64780989Y-130578636D01*
X64780986Y-130578641D01*
X64635711Y-130798224D01*
X64635708Y-130798229D01*
X64633212Y-130802002D01*
X64631295Y-130806089D01*
X64631290Y-130806100D01*
X64519533Y-131044499D01*
X64519530Y-131044506D01*
X64517614Y-131048594D01*
X64516314Y-131052912D01*
X64516310Y-131052925D01*
X64440458Y-131305050D01*
X64439153Y-131309389D01*
X64438494Y-131313865D01*
X64438493Y-131313871D01*
X64400158Y-131574354D01*
X64400157Y-131574361D01*
X64399500Y-131578829D01*
X64399500Y-132303000D01*
X58520500Y-132303000D01*
X58520500Y-131647000D01*
X58505597Y-131443384D01*
X58476747Y-131313871D01*
X58447369Y-131181988D01*
X58447368Y-131181985D01*
X58446382Y-131177558D01*
X58349093Y-130923186D01*
X58215804Y-130685690D01*
X58049355Y-130470132D01*
X58046093Y-130466987D01*
X57856562Y-130284255D01*
X57856556Y-130284250D01*
X57853295Y-130281106D01*
X57631802Y-130122642D01*
X57603236Y-130107955D01*
X57393632Y-130000189D01*
X57393625Y-130000186D01*
X57389597Y-129998115D01*
X57385312Y-129996653D01*
X57385307Y-129996651D01*
X57136124Y-129911642D01*
X57136122Y-129911641D01*
X57131841Y-129910181D01*
X57109679Y-129906087D01*
X56868489Y-129861537D01*
X56868478Y-129861535D01*
X56864029Y-129860714D01*
X56859500Y-129860548D01*
X56859496Y-129860548D01*
X56596397Y-129850933D01*
X56596390Y-129850933D01*
X56591869Y-129850768D01*
X56587372Y-129851262D01*
X56587366Y-129851263D01*
X56325672Y-129880057D01*
X56325663Y-129880058D01*
X56321161Y-129880554D01*
X56316782Y-129881698D01*
X56316770Y-129881701D01*
X56062049Y-129948294D01*
X56062046Y-129948295D01*
X56057674Y-129949438D01*
X56053524Y-129951201D01*
X56053511Y-129951206D01*
X55811191Y-130054182D01*
X55811183Y-130054185D01*
X55807025Y-130055953D01*
X55803168Y-130058306D01*
X55803158Y-130058312D01*
X55578428Y-130195463D01*
X55578418Y-130195469D01*
X55574556Y-130197827D01*
X55571071Y-130200726D01*
X55571067Y-130200730D01*
X55368706Y-130369136D01*
X55368700Y-130369141D01*
X55365221Y-130372037D01*
X55362203Y-130375404D01*
X55362199Y-130375409D01*
X55186498Y-130571502D01*
X55186492Y-130571508D01*
X55183482Y-130574869D01*
X55180989Y-130578636D01*
X55180986Y-130578641D01*
X55035711Y-130798224D01*
X55035708Y-130798229D01*
X55033212Y-130802002D01*
X55031295Y-130806089D01*
X55031290Y-130806100D01*
X54919533Y-131044499D01*
X54919530Y-131044506D01*
X54917614Y-131048594D01*
X54916314Y-131052912D01*
X54916310Y-131052925D01*
X54840458Y-131305050D01*
X54839153Y-131309389D01*
X54838494Y-131313865D01*
X54838493Y-131313871D01*
X54800158Y-131574354D01*
X54800157Y-131574361D01*
X54799500Y-131578829D01*
X54799500Y-132303000D01*
X49752669Y-132303000D01*
X49743483Y-132264738D01*
X49649184Y-132037080D01*
X49520433Y-131826977D01*
X49360399Y-131639601D01*
X49289244Y-131578829D01*
X49176733Y-131482735D01*
X49176728Y-131482731D01*
X49173023Y-131479567D01*
X48962920Y-131350816D01*
X48735262Y-131256517D01*
X48730533Y-131255381D01*
X48730525Y-131255379D01*
X48500388Y-131200129D01*
X48500384Y-131200128D01*
X48495655Y-131198993D01*
X48490802Y-131198611D01*
X48254854Y-131180041D01*
X48250000Y-131179659D01*
X48245146Y-131180041D01*
X48009197Y-131198611D01*
X48009195Y-131198611D01*
X48004345Y-131198993D01*
X47999617Y-131200127D01*
X47999611Y-131200129D01*
X47769474Y-131255379D01*
X47769462Y-131255382D01*
X47764738Y-131256517D01*
X47760241Y-131258379D01*
X47760237Y-131258381D01*
X47541584Y-131348950D01*
X47541579Y-131348952D01*
X47537080Y-131350816D01*
X47532927Y-131353360D01*
X47532921Y-131353364D01*
X47331134Y-131477019D01*
X47331128Y-131477022D01*
X47326977Y-131479567D01*
X47323277Y-131482726D01*
X47323266Y-131482735D01*
X47143308Y-131636434D01*
X47143301Y-131636440D01*
X47139601Y-131639601D01*
X47136440Y-131643301D01*
X47136434Y-131643308D01*
X46982735Y-131823266D01*
X46982726Y-131823277D01*
X46979567Y-131826977D01*
X46977022Y-131831128D01*
X46977019Y-131831134D01*
X46853364Y-132032921D01*
X46853360Y-132032927D01*
X46850816Y-132037080D01*
X46756517Y-132264738D01*
X46755382Y-132269462D01*
X46755379Y-132269474D01*
X46700129Y-132499611D01*
X46700127Y-132499617D01*
X46698993Y-132504345D01*
X46679659Y-132750000D01*
X39320341Y-132750000D01*
X39301007Y-132504345D01*
X39243483Y-132264738D01*
X39149184Y-132037080D01*
X39020433Y-131826977D01*
X38860399Y-131639601D01*
X38789244Y-131578829D01*
X38676733Y-131482735D01*
X38676728Y-131482731D01*
X38673023Y-131479567D01*
X38462920Y-131350816D01*
X38235262Y-131256517D01*
X38230533Y-131255381D01*
X38230525Y-131255379D01*
X38000388Y-131200129D01*
X38000384Y-131200128D01*
X37995655Y-131198993D01*
X37990802Y-131198611D01*
X37754854Y-131180041D01*
X37750000Y-131179659D01*
X37745146Y-131180041D01*
X37509197Y-131198611D01*
X37509195Y-131198611D01*
X37504345Y-131198993D01*
X37499617Y-131200127D01*
X37499611Y-131200129D01*
X37269474Y-131255379D01*
X37269462Y-131255382D01*
X37264738Y-131256517D01*
X37260241Y-131258379D01*
X37260237Y-131258381D01*
X37041584Y-131348950D01*
X37041579Y-131348952D01*
X37037080Y-131350816D01*
X37032927Y-131353360D01*
X37032921Y-131353364D01*
X36831134Y-131477019D01*
X36831128Y-131477022D01*
X36826977Y-131479567D01*
X36823277Y-131482726D01*
X36823266Y-131482735D01*
X36643308Y-131636434D01*
X36643301Y-131636440D01*
X36639601Y-131639601D01*
X36636440Y-131643301D01*
X36636434Y-131643308D01*
X36482735Y-131823266D01*
X36482726Y-131823277D01*
X36479567Y-131826977D01*
X36477022Y-131831128D01*
X36477019Y-131831134D01*
X36353364Y-132032921D01*
X36353360Y-132032927D01*
X36350816Y-132037080D01*
X36256517Y-132264738D01*
X36255382Y-132269462D01*
X36255379Y-132269474D01*
X36200129Y-132499611D01*
X36200127Y-132499617D01*
X36198993Y-132504345D01*
X36179659Y-132750000D01*
X28820341Y-132750000D01*
X28801007Y-132504345D01*
X28743483Y-132264738D01*
X28649184Y-132037080D01*
X28520433Y-131826977D01*
X28360399Y-131639601D01*
X28289244Y-131578829D01*
X28176733Y-131482735D01*
X28176728Y-131482731D01*
X28173023Y-131479567D01*
X27962920Y-131350816D01*
X27735262Y-131256517D01*
X27730533Y-131255381D01*
X27730525Y-131255379D01*
X27500388Y-131200129D01*
X27500384Y-131200128D01*
X27495655Y-131198993D01*
X27490802Y-131198611D01*
X27254854Y-131180041D01*
X27250000Y-131179659D01*
X27245146Y-131180041D01*
X27009197Y-131198611D01*
X27009195Y-131198611D01*
X27004345Y-131198993D01*
X26999617Y-131200127D01*
X26999611Y-131200129D01*
X26769474Y-131255379D01*
X26769462Y-131255382D01*
X26764738Y-131256517D01*
X26760241Y-131258379D01*
X26760237Y-131258381D01*
X26541584Y-131348950D01*
X26541579Y-131348952D01*
X26537080Y-131350816D01*
X26532927Y-131353360D01*
X26532921Y-131353364D01*
X26331134Y-131477019D01*
X26331128Y-131477022D01*
X26326977Y-131479567D01*
X26323277Y-131482726D01*
X26323266Y-131482735D01*
X26143308Y-131636434D01*
X26143301Y-131636440D01*
X26139601Y-131639601D01*
X26136440Y-131643301D01*
X26136434Y-131643308D01*
X25982735Y-131823266D01*
X25982726Y-131823277D01*
X25979567Y-131826977D01*
X25977022Y-131831128D01*
X25977019Y-131831134D01*
X25853364Y-132032921D01*
X25853360Y-132032927D01*
X25850816Y-132037080D01*
X25756517Y-132264738D01*
X25755382Y-132269462D01*
X25755379Y-132269474D01*
X25700129Y-132499611D01*
X25700127Y-132499617D01*
X25698993Y-132504345D01*
X25679659Y-132750000D01*
X20000500Y-132750000D01*
X20000500Y-124450000D01*
X25679659Y-124450000D01*
X25698993Y-124695655D01*
X25700128Y-124700384D01*
X25700129Y-124700388D01*
X25755379Y-124930525D01*
X25755381Y-124930533D01*
X25756517Y-124935262D01*
X25850816Y-125162920D01*
X25979567Y-125373023D01*
X25982731Y-125376728D01*
X25982735Y-125376733D01*
X26095628Y-125508913D01*
X26139601Y-125560399D01*
X26166598Y-125583457D01*
X26323266Y-125717264D01*
X26323269Y-125717266D01*
X26326977Y-125720433D01*
X26537080Y-125849184D01*
X26764738Y-125943483D01*
X27004345Y-126001007D01*
X27250000Y-126020341D01*
X27495655Y-126001007D01*
X27735262Y-125943483D01*
X27962920Y-125849184D01*
X28173023Y-125720433D01*
X28360399Y-125560399D01*
X28520433Y-125373023D01*
X28649184Y-125162920D01*
X28743483Y-124935262D01*
X28801007Y-124695655D01*
X28820341Y-124450000D01*
X36179659Y-124450000D01*
X36198993Y-124695655D01*
X36200128Y-124700384D01*
X36200129Y-124700388D01*
X36255379Y-124930525D01*
X36255381Y-124930533D01*
X36256517Y-124935262D01*
X36350816Y-125162920D01*
X36479567Y-125373023D01*
X36482731Y-125376728D01*
X36482735Y-125376733D01*
X36595628Y-125508913D01*
X36639601Y-125560399D01*
X36666598Y-125583457D01*
X36823266Y-125717264D01*
X36823269Y-125717266D01*
X36826977Y-125720433D01*
X37037080Y-125849184D01*
X37264738Y-125943483D01*
X37504345Y-126001007D01*
X37750000Y-126020341D01*
X37995655Y-126001007D01*
X38235262Y-125943483D01*
X38462920Y-125849184D01*
X38673023Y-125720433D01*
X38860399Y-125560399D01*
X39020433Y-125373023D01*
X39149184Y-125162920D01*
X39243483Y-124935262D01*
X39301007Y-124695655D01*
X39320341Y-124450000D01*
X46679659Y-124450000D01*
X46698993Y-124695655D01*
X46700128Y-124700384D01*
X46700129Y-124700388D01*
X46755379Y-124930525D01*
X46755381Y-124930533D01*
X46756517Y-124935262D01*
X46850816Y-125162920D01*
X46979567Y-125373023D01*
X46982731Y-125376728D01*
X46982735Y-125376733D01*
X47095628Y-125508913D01*
X47139601Y-125560399D01*
X47166598Y-125583457D01*
X47323266Y-125717264D01*
X47323269Y-125717266D01*
X47326977Y-125720433D01*
X47537080Y-125849184D01*
X47764738Y-125943483D01*
X48004345Y-126001007D01*
X48250000Y-126020341D01*
X48495655Y-126001007D01*
X48735262Y-125943483D01*
X48962920Y-125849184D01*
X49173023Y-125720433D01*
X49360399Y-125560399D01*
X49520433Y-125373023D01*
X49649184Y-125162920D01*
X49743483Y-124935262D01*
X49801007Y-124695655D01*
X49818373Y-124475000D01*
X57554700Y-124475000D01*
X57555124Y-124480117D01*
X57573441Y-124701186D01*
X57573442Y-124701195D01*
X57573866Y-124706305D01*
X57575123Y-124711272D01*
X57575125Y-124711279D01*
X57629584Y-124926329D01*
X57630843Y-124931300D01*
X57632903Y-124935996D01*
X57722016Y-125139154D01*
X57722019Y-125139159D01*
X57724076Y-125143849D01*
X57777106Y-125225017D01*
X57848219Y-125333865D01*
X57848222Y-125333869D01*
X57851021Y-125338153D01*
X58008216Y-125508913D01*
X58191374Y-125651470D01*
X58395497Y-125761936D01*
X58615019Y-125837298D01*
X58843951Y-125875500D01*
X59070916Y-125875500D01*
X59076049Y-125875500D01*
X59304981Y-125837298D01*
X59524503Y-125761936D01*
X59728626Y-125651470D01*
X59911784Y-125508913D01*
X60068979Y-125338153D01*
X60106191Y-125281194D01*
X60150980Y-125239963D01*
X60209997Y-125225017D01*
X60269015Y-125239962D01*
X60313807Y-125281195D01*
X60348213Y-125333857D01*
X60348221Y-125333867D01*
X60351021Y-125338153D01*
X60508216Y-125508913D01*
X60691374Y-125651470D01*
X60895497Y-125761936D01*
X61115019Y-125837298D01*
X61343951Y-125875500D01*
X61570916Y-125875500D01*
X61576049Y-125875500D01*
X61804981Y-125837298D01*
X62024503Y-125761936D01*
X62228626Y-125651470D01*
X62405564Y-125513753D01*
X62457991Y-125489901D01*
X62515540Y-125492308D01*
X62565793Y-125520457D01*
X62597906Y-125568273D01*
X62616204Y-125617331D01*
X62702454Y-125732546D01*
X62817669Y-125818796D01*
X62952517Y-125869091D01*
X63012127Y-125875500D01*
X64907872Y-125875499D01*
X64967483Y-125869091D01*
X65102331Y-125818796D01*
X65217546Y-125732546D01*
X65303796Y-125617331D01*
X65354091Y-125482483D01*
X65360500Y-125422873D01*
X65360499Y-123527128D01*
X65354091Y-123467517D01*
X65303796Y-123332669D01*
X65217546Y-123217454D01*
X65181541Y-123190501D01*
X65109431Y-123136519D01*
X65109430Y-123136518D01*
X65102331Y-123131204D01*
X64967483Y-123080909D01*
X64959770Y-123080079D01*
X64959767Y-123080079D01*
X64911180Y-123074855D01*
X64911169Y-123074854D01*
X64907873Y-123074500D01*
X64904550Y-123074500D01*
X63015439Y-123074500D01*
X63015420Y-123074500D01*
X63012128Y-123074501D01*
X63008850Y-123074853D01*
X63008838Y-123074854D01*
X62960231Y-123080079D01*
X62960225Y-123080080D01*
X62952517Y-123080909D01*
X62945252Y-123083618D01*
X62945246Y-123083620D01*
X62825980Y-123128104D01*
X62825978Y-123128104D01*
X62817669Y-123131204D01*
X62810572Y-123136516D01*
X62810568Y-123136519D01*
X62709550Y-123212141D01*
X62709546Y-123212144D01*
X62702454Y-123217454D01*
X62697144Y-123224546D01*
X62697141Y-123224550D01*
X62621519Y-123325568D01*
X62621516Y-123325572D01*
X62616204Y-123332669D01*
X62613106Y-123340974D01*
X62613101Y-123340984D01*
X62597906Y-123381725D01*
X62565793Y-123429542D01*
X62515540Y-123457691D01*
X62457991Y-123460098D01*
X62405563Y-123436245D01*
X62232672Y-123301679D01*
X62232671Y-123301678D01*
X62228626Y-123298530D01*
X62174497Y-123269237D01*
X62029007Y-123190501D01*
X62029002Y-123190499D01*
X62024503Y-123188064D01*
X62019657Y-123186400D01*
X62019654Y-123186399D01*
X61809834Y-123114368D01*
X61809833Y-123114367D01*
X61804981Y-123112702D01*
X61799931Y-123111859D01*
X61799922Y-123111857D01*
X61581111Y-123075344D01*
X61581102Y-123075343D01*
X61576049Y-123074500D01*
X61343951Y-123074500D01*
X61338898Y-123075343D01*
X61338888Y-123075344D01*
X61120077Y-123111857D01*
X61120065Y-123111859D01*
X61115019Y-123112702D01*
X61110169Y-123114366D01*
X61110165Y-123114368D01*
X60900345Y-123186399D01*
X60900337Y-123186402D01*
X60895497Y-123188064D01*
X60891001Y-123190496D01*
X60890992Y-123190501D01*
X60695882Y-123296090D01*
X60695878Y-123296092D01*
X60691374Y-123298530D01*
X60687334Y-123301674D01*
X60687327Y-123301679D01*
X60512263Y-123437936D01*
X60512255Y-123437943D01*
X60508216Y-123441087D01*
X60504746Y-123444855D01*
X60504742Y-123444860D01*
X60354491Y-123608077D01*
X60354488Y-123608080D01*
X60351021Y-123611847D01*
X60348224Y-123616127D01*
X60348217Y-123616137D01*
X60313807Y-123668805D01*
X60269015Y-123710038D01*
X60209997Y-123724982D01*
X60150980Y-123710036D01*
X60106190Y-123668802D01*
X60071787Y-123616144D01*
X60071782Y-123616137D01*
X60068979Y-123611847D01*
X59911784Y-123441087D01*
X59835515Y-123381725D01*
X59732672Y-123301679D01*
X59732671Y-123301678D01*
X59728626Y-123298530D01*
X59674497Y-123269237D01*
X59529007Y-123190501D01*
X59529002Y-123190499D01*
X59524503Y-123188064D01*
X59519657Y-123186400D01*
X59519654Y-123186399D01*
X59309834Y-123114368D01*
X59309833Y-123114367D01*
X59304981Y-123112702D01*
X59299931Y-123111859D01*
X59299922Y-123111857D01*
X59081111Y-123075344D01*
X59081102Y-123075343D01*
X59076049Y-123074500D01*
X58843951Y-123074500D01*
X58838898Y-123075343D01*
X58838888Y-123075344D01*
X58620077Y-123111857D01*
X58620065Y-123111859D01*
X58615019Y-123112702D01*
X58610169Y-123114366D01*
X58610165Y-123114368D01*
X58400345Y-123186399D01*
X58400337Y-123186402D01*
X58395497Y-123188064D01*
X58391001Y-123190496D01*
X58390992Y-123190501D01*
X58195882Y-123296090D01*
X58195878Y-123296092D01*
X58191374Y-123298530D01*
X58187334Y-123301674D01*
X58187327Y-123301679D01*
X58012263Y-123437936D01*
X58012255Y-123437943D01*
X58008216Y-123441087D01*
X58004746Y-123444855D01*
X58004742Y-123444860D01*
X57854491Y-123608077D01*
X57854488Y-123608080D01*
X57851021Y-123611847D01*
X57848226Y-123616124D01*
X57848219Y-123616134D01*
X57726878Y-123801862D01*
X57724076Y-123806151D01*
X57722021Y-123810835D01*
X57722016Y-123810845D01*
X57632903Y-124014003D01*
X57630843Y-124018700D01*
X57629585Y-124023665D01*
X57629584Y-124023670D01*
X57575125Y-124238720D01*
X57575123Y-124238729D01*
X57573866Y-124243695D01*
X57573442Y-124248802D01*
X57573441Y-124248813D01*
X57556369Y-124454854D01*
X57554700Y-124475000D01*
X49818373Y-124475000D01*
X49820341Y-124450000D01*
X49801007Y-124204345D01*
X49743483Y-123964738D01*
X49649184Y-123737080D01*
X49520433Y-123526977D01*
X49469649Y-123467517D01*
X49363565Y-123343308D01*
X49360399Y-123339601D01*
X49352283Y-123332669D01*
X49176733Y-123182735D01*
X49176728Y-123182731D01*
X49173023Y-123179567D01*
X49002147Y-123074854D01*
X48967078Y-123053364D01*
X48967077Y-123053363D01*
X48962920Y-123050816D01*
X48735262Y-122956517D01*
X48730533Y-122955381D01*
X48730525Y-122955379D01*
X48500388Y-122900129D01*
X48500384Y-122900128D01*
X48495655Y-122898993D01*
X48490802Y-122898611D01*
X48254854Y-122880041D01*
X48250000Y-122879659D01*
X48245146Y-122880041D01*
X48009197Y-122898611D01*
X48009195Y-122898611D01*
X48004345Y-122898993D01*
X47999617Y-122900127D01*
X47999611Y-122900129D01*
X47769474Y-122955379D01*
X47769462Y-122955382D01*
X47764738Y-122956517D01*
X47760241Y-122958379D01*
X47760237Y-122958381D01*
X47541584Y-123048950D01*
X47541579Y-123048952D01*
X47537080Y-123050816D01*
X47532927Y-123053360D01*
X47532921Y-123053364D01*
X47331134Y-123177019D01*
X47331128Y-123177022D01*
X47326977Y-123179567D01*
X47323277Y-123182726D01*
X47323266Y-123182735D01*
X47143308Y-123336434D01*
X47143301Y-123336440D01*
X47139601Y-123339601D01*
X47136440Y-123343301D01*
X47136434Y-123343308D01*
X46982735Y-123523266D01*
X46982726Y-123523277D01*
X46979567Y-123526977D01*
X46977022Y-123531128D01*
X46977019Y-123531134D01*
X46853364Y-123732921D01*
X46853360Y-123732927D01*
X46850816Y-123737080D01*
X46848952Y-123741579D01*
X46848950Y-123741584D01*
X46808914Y-123838240D01*
X46756517Y-123964738D01*
X46755382Y-123969462D01*
X46755379Y-123969474D01*
X46700129Y-124199611D01*
X46700127Y-124199617D01*
X46698993Y-124204345D01*
X46698611Y-124209195D01*
X46698611Y-124209197D01*
X46695896Y-124243695D01*
X46679659Y-124450000D01*
X39320341Y-124450000D01*
X39301007Y-124204345D01*
X39243483Y-123964738D01*
X39149184Y-123737080D01*
X39020433Y-123526977D01*
X38969649Y-123467517D01*
X38863565Y-123343308D01*
X38860399Y-123339601D01*
X38852283Y-123332669D01*
X38676733Y-123182735D01*
X38676728Y-123182731D01*
X38673023Y-123179567D01*
X38502147Y-123074854D01*
X38467078Y-123053364D01*
X38467077Y-123053363D01*
X38462920Y-123050816D01*
X38235262Y-122956517D01*
X38230533Y-122955381D01*
X38230525Y-122955379D01*
X38000388Y-122900129D01*
X38000384Y-122900128D01*
X37995655Y-122898993D01*
X37990802Y-122898611D01*
X37754854Y-122880041D01*
X37750000Y-122879659D01*
X37745146Y-122880041D01*
X37509197Y-122898611D01*
X37509195Y-122898611D01*
X37504345Y-122898993D01*
X37499617Y-122900127D01*
X37499611Y-122900129D01*
X37269474Y-122955379D01*
X37269462Y-122955382D01*
X37264738Y-122956517D01*
X37260241Y-122958379D01*
X37260237Y-122958381D01*
X37041584Y-123048950D01*
X37041579Y-123048952D01*
X37037080Y-123050816D01*
X37032927Y-123053360D01*
X37032921Y-123053364D01*
X36831134Y-123177019D01*
X36831128Y-123177022D01*
X36826977Y-123179567D01*
X36823277Y-123182726D01*
X36823266Y-123182735D01*
X36643308Y-123336434D01*
X36643301Y-123336440D01*
X36639601Y-123339601D01*
X36636440Y-123343301D01*
X36636434Y-123343308D01*
X36482735Y-123523266D01*
X36482726Y-123523277D01*
X36479567Y-123526977D01*
X36477022Y-123531128D01*
X36477019Y-123531134D01*
X36353364Y-123732921D01*
X36353360Y-123732927D01*
X36350816Y-123737080D01*
X36348952Y-123741579D01*
X36348950Y-123741584D01*
X36308914Y-123838240D01*
X36256517Y-123964738D01*
X36255382Y-123969462D01*
X36255379Y-123969474D01*
X36200129Y-124199611D01*
X36200127Y-124199617D01*
X36198993Y-124204345D01*
X36198611Y-124209195D01*
X36198611Y-124209197D01*
X36195896Y-124243695D01*
X36179659Y-124450000D01*
X28820341Y-124450000D01*
X28801007Y-124204345D01*
X28743483Y-123964738D01*
X28649184Y-123737080D01*
X28520433Y-123526977D01*
X28469649Y-123467517D01*
X28363565Y-123343308D01*
X28360399Y-123339601D01*
X28352283Y-123332669D01*
X28176733Y-123182735D01*
X28176728Y-123182731D01*
X28173023Y-123179567D01*
X28002147Y-123074854D01*
X27967078Y-123053364D01*
X27967077Y-123053363D01*
X27962920Y-123050816D01*
X27735262Y-122956517D01*
X27730533Y-122955381D01*
X27730525Y-122955379D01*
X27500388Y-122900129D01*
X27500384Y-122900128D01*
X27495655Y-122898993D01*
X27490802Y-122898611D01*
X27254854Y-122880041D01*
X27250000Y-122879659D01*
X27245146Y-122880041D01*
X27009197Y-122898611D01*
X27009195Y-122898611D01*
X27004345Y-122898993D01*
X26999617Y-122900127D01*
X26999611Y-122900129D01*
X26769474Y-122955379D01*
X26769462Y-122955382D01*
X26764738Y-122956517D01*
X26760241Y-122958379D01*
X26760237Y-122958381D01*
X26541584Y-123048950D01*
X26541579Y-123048952D01*
X26537080Y-123050816D01*
X26532927Y-123053360D01*
X26532921Y-123053364D01*
X26331134Y-123177019D01*
X26331128Y-123177022D01*
X26326977Y-123179567D01*
X26323277Y-123182726D01*
X26323266Y-123182735D01*
X26143308Y-123336434D01*
X26143301Y-123336440D01*
X26139601Y-123339601D01*
X26136440Y-123343301D01*
X26136434Y-123343308D01*
X25982735Y-123523266D01*
X25982726Y-123523277D01*
X25979567Y-123526977D01*
X25977022Y-123531128D01*
X25977019Y-123531134D01*
X25853364Y-123732921D01*
X25853360Y-123732927D01*
X25850816Y-123737080D01*
X25848952Y-123741579D01*
X25848950Y-123741584D01*
X25808914Y-123838240D01*
X25756517Y-123964738D01*
X25755382Y-123969462D01*
X25755379Y-123969474D01*
X25700129Y-124199611D01*
X25700127Y-124199617D01*
X25698993Y-124204345D01*
X25698611Y-124209195D01*
X25698611Y-124209197D01*
X25695896Y-124243695D01*
X25679659Y-124450000D01*
X20000500Y-124450000D01*
X20000500Y-57821200D01*
X53505740Y-57821200D01*
X53506419Y-57827660D01*
X53524846Y-58002995D01*
X53524847Y-58003003D01*
X53525526Y-58009456D01*
X53527531Y-58015628D01*
X53527533Y-58015635D01*
X53582013Y-58183305D01*
X53584021Y-58189484D01*
X53678667Y-58353416D01*
X53683011Y-58358241D01*
X53683013Y-58358243D01*
X53753950Y-58437026D01*
X53777564Y-58475560D01*
X53785800Y-58519998D01*
X53785800Y-59364225D01*
X53785278Y-59375280D01*
X53783627Y-59382667D01*
X53783871Y-59390453D01*
X53783871Y-59390461D01*
X53785739Y-59449873D01*
X53785800Y-59453768D01*
X53785800Y-59481350D01*
X53786288Y-59485219D01*
X53786289Y-59485225D01*
X53786304Y-59485343D01*
X53787218Y-59496966D01*
X53788345Y-59532830D01*
X53788346Y-59532837D01*
X53788591Y-59540627D01*
X53790767Y-59548119D01*
X53790768Y-59548121D01*
X53794179Y-59559862D01*
X53798125Y-59578915D01*
X53800636Y-59598792D01*
X53803506Y-59606042D01*
X53803508Y-59606048D01*
X53816714Y-59639404D01*
X53820497Y-59650451D01*
X53832682Y-59692390D01*
X53836653Y-59699105D01*
X53836654Y-59699107D01*
X53842881Y-59709637D01*
X53851436Y-59727099D01*
X53855942Y-59738480D01*
X53855943Y-59738483D01*
X53858814Y-59745732D01*
X53880740Y-59775912D01*
X53884481Y-59781060D01*
X53890893Y-59790822D01*
X53909156Y-59821702D01*
X53909159Y-59821707D01*
X53913130Y-59828420D01*
X53918645Y-59833935D01*
X53927290Y-59842580D01*
X53939926Y-59857374D01*
X53947119Y-59867275D01*
X53947123Y-59867279D01*
X53951706Y-59873587D01*
X53957715Y-59878558D01*
X53957716Y-59878559D01*
X53985358Y-59901426D01*
X53993999Y-59909289D01*
X54362838Y-60278129D01*
X54387078Y-60312427D01*
X54398478Y-60352848D01*
X54413891Y-60499498D01*
X54416126Y-60520756D01*
X54418131Y-60526928D01*
X54418133Y-60526935D01*
X54472613Y-60694605D01*
X54474621Y-60700784D01*
X54569267Y-60864716D01*
X54695929Y-61005388D01*
X54849070Y-61116651D01*
X55021997Y-61193644D01*
X55207154Y-61233000D01*
X55389943Y-61233000D01*
X55396446Y-61233000D01*
X55581603Y-61193644D01*
X55754530Y-61116651D01*
X55907671Y-61005388D01*
X56034333Y-60864716D01*
X56128979Y-60700784D01*
X56187474Y-60520756D01*
X56207260Y-60332500D01*
X56187474Y-60144244D01*
X56128979Y-59964216D01*
X56034333Y-59800284D01*
X56025813Y-59790822D01*
X55912020Y-59664442D01*
X55912019Y-59664441D01*
X55907671Y-59659612D01*
X55902413Y-59655792D01*
X55902411Y-59655790D01*
X55759788Y-59552169D01*
X55759787Y-59552168D01*
X55754530Y-59548349D01*
X55748592Y-59545705D01*
X55587545Y-59474001D01*
X55587540Y-59473999D01*
X55581603Y-59471356D01*
X55575244Y-59470004D01*
X55575240Y-59470003D01*
X55402808Y-59433352D01*
X55402805Y-59433351D01*
X55396446Y-59432000D01*
X55389943Y-59432000D01*
X55337253Y-59432000D01*
X55289800Y-59422561D01*
X55249572Y-59395681D01*
X55073119Y-59219228D01*
X55046239Y-59179000D01*
X55036800Y-59131547D01*
X55036800Y-58519776D01*
X55045036Y-58475338D01*
X55068650Y-58436804D01*
X55143733Y-58353416D01*
X55238379Y-58189484D01*
X55296874Y-58009456D01*
X55316660Y-57821200D01*
X55296874Y-57632944D01*
X55238379Y-57452916D01*
X55143733Y-57288984D01*
X55017071Y-57148312D01*
X55011813Y-57144492D01*
X55011811Y-57144490D01*
X54869188Y-57040869D01*
X54869187Y-57040868D01*
X54863930Y-57037049D01*
X54857992Y-57034405D01*
X54696945Y-56962701D01*
X54696940Y-56962699D01*
X54691003Y-56960056D01*
X54684644Y-56958704D01*
X54684640Y-56958703D01*
X54512208Y-56922052D01*
X54512205Y-56922051D01*
X54505846Y-56920700D01*
X54316554Y-56920700D01*
X54310195Y-56922051D01*
X54310191Y-56922052D01*
X54137759Y-56958703D01*
X54137752Y-56958705D01*
X54131397Y-56960056D01*
X54125462Y-56962698D01*
X54125454Y-56962701D01*
X53964407Y-57034405D01*
X53964402Y-57034407D01*
X53958470Y-57037049D01*
X53953216Y-57040865D01*
X53953211Y-57040869D01*
X53810588Y-57144490D01*
X53810581Y-57144495D01*
X53805329Y-57148312D01*
X53800984Y-57153137D01*
X53800979Y-57153142D01*
X53683013Y-57284156D01*
X53683008Y-57284162D01*
X53678667Y-57288984D01*
X53675422Y-57294604D01*
X53675418Y-57294610D01*
X53587269Y-57447289D01*
X53587266Y-57447294D01*
X53584021Y-57452916D01*
X53582015Y-57459088D01*
X53582013Y-57459094D01*
X53527533Y-57626764D01*
X53527531Y-57626773D01*
X53525526Y-57632944D01*
X53524848Y-57639394D01*
X53524846Y-57639404D01*
X53507383Y-57805564D01*
X53505740Y-57821200D01*
X20000500Y-57821200D01*
X20000500Y-29000000D01*
X21499459Y-29000000D01*
X21499617Y-29000383D01*
X21499901Y-29000500D01*
X24487944Y-29000500D01*
X24500099Y-29000500D01*
X24500383Y-29000383D01*
X24500541Y-29000000D01*
X26499459Y-29000000D01*
X26499617Y-29000383D01*
X26499901Y-29000500D01*
X29487944Y-29000500D01*
X29500099Y-29000500D01*
X29500383Y-29000383D01*
X29500541Y-29000000D01*
X31499459Y-29000000D01*
X31499617Y-29000383D01*
X31499901Y-29000500D01*
X34487944Y-29000500D01*
X34500099Y-29000500D01*
X34500383Y-29000383D01*
X34500541Y-29000000D01*
X36499459Y-29000000D01*
X36499617Y-29000383D01*
X36499901Y-29000500D01*
X39487944Y-29000500D01*
X39500099Y-29000500D01*
X39500383Y-29000383D01*
X39500541Y-29000000D01*
X41499459Y-29000000D01*
X41499617Y-29000383D01*
X41499901Y-29000500D01*
X44487944Y-29000500D01*
X44500099Y-29000500D01*
X44500383Y-29000383D01*
X44500541Y-29000000D01*
X46499459Y-29000000D01*
X46499617Y-29000383D01*
X46499901Y-29000500D01*
X49487944Y-29000500D01*
X49500099Y-29000500D01*
X49500383Y-29000383D01*
X49500541Y-29000000D01*
X51499459Y-29000000D01*
X51499617Y-29000383D01*
X51499901Y-29000500D01*
X54487944Y-29000500D01*
X54500099Y-29000500D01*
X54500383Y-29000383D01*
X54500541Y-29000000D01*
X56499459Y-29000000D01*
X56499617Y-29000383D01*
X56499901Y-29000500D01*
X59487944Y-29000500D01*
X59500099Y-29000500D01*
X59500383Y-29000383D01*
X59500541Y-29000000D01*
X61499459Y-29000000D01*
X61499617Y-29000383D01*
X61499901Y-29000500D01*
X64487944Y-29000500D01*
X64500099Y-29000500D01*
X64500383Y-29000383D01*
X64500541Y-29000000D01*
X66499459Y-29000000D01*
X66499617Y-29000383D01*
X66499901Y-29000500D01*
X69487944Y-29000500D01*
X69500099Y-29000500D01*
X69500383Y-29000383D01*
X69500541Y-29000000D01*
X71499459Y-29000000D01*
X71499617Y-29000383D01*
X71499901Y-29000500D01*
X74487944Y-29000500D01*
X74500099Y-29000500D01*
X74500383Y-29000383D01*
X74500541Y-29000000D01*
X76499459Y-29000000D01*
X76499617Y-29000383D01*
X76499901Y-29000500D01*
X79487944Y-29000500D01*
X79500099Y-29000500D01*
X79500383Y-29000383D01*
X79500541Y-29000000D01*
X81499459Y-29000000D01*
X81499617Y-29000383D01*
X81499901Y-29000500D01*
X84487944Y-29000500D01*
X84500099Y-29000500D01*
X84500383Y-29000383D01*
X84500541Y-29000000D01*
X86499459Y-29000000D01*
X86499617Y-29000383D01*
X86499901Y-29000500D01*
X89487944Y-29000500D01*
X89500099Y-29000500D01*
X89500383Y-29000383D01*
X89500541Y-29000000D01*
X91499459Y-29000000D01*
X91499617Y-29000383D01*
X91499901Y-29000500D01*
X94487944Y-29000500D01*
X94500099Y-29000500D01*
X94500383Y-29000383D01*
X94500541Y-29000000D01*
X96499459Y-29000000D01*
X96499617Y-29000383D01*
X96499901Y-29000500D01*
X99487944Y-29000500D01*
X99500099Y-29000500D01*
X99500383Y-29000383D01*
X99500541Y-29000000D01*
X99500383Y-28999617D01*
X99500099Y-28999500D01*
X96499901Y-28999500D01*
X96499617Y-28999617D01*
X96499459Y-29000000D01*
X94500541Y-29000000D01*
X94500383Y-28999617D01*
X94500099Y-28999500D01*
X91499901Y-28999500D01*
X91499617Y-28999617D01*
X91499459Y-29000000D01*
X89500541Y-29000000D01*
X89500383Y-28999617D01*
X89500099Y-28999500D01*
X86499901Y-28999500D01*
X86499617Y-28999617D01*
X86499459Y-29000000D01*
X84500541Y-29000000D01*
X84500383Y-28999617D01*
X84500099Y-28999500D01*
X81499901Y-28999500D01*
X81499617Y-28999617D01*
X81499459Y-29000000D01*
X79500541Y-29000000D01*
X79500383Y-28999617D01*
X79500099Y-28999500D01*
X76499901Y-28999500D01*
X76499617Y-28999617D01*
X76499459Y-29000000D01*
X74500541Y-29000000D01*
X74500383Y-28999617D01*
X74500099Y-28999500D01*
X71499901Y-28999500D01*
X71499617Y-28999617D01*
X71499459Y-29000000D01*
X69500541Y-29000000D01*
X69500383Y-28999617D01*
X69500099Y-28999500D01*
X66499901Y-28999500D01*
X66499617Y-28999617D01*
X66499459Y-29000000D01*
X64500541Y-29000000D01*
X64500383Y-28999617D01*
X64500099Y-28999500D01*
X61499901Y-28999500D01*
X61499617Y-28999617D01*
X61499459Y-29000000D01*
X59500541Y-29000000D01*
X59500383Y-28999617D01*
X59500099Y-28999500D01*
X56499901Y-28999500D01*
X56499617Y-28999617D01*
X56499459Y-29000000D01*
X54500541Y-29000000D01*
X54500383Y-28999617D01*
X54500099Y-28999500D01*
X51499901Y-28999500D01*
X51499617Y-28999617D01*
X51499459Y-29000000D01*
X49500541Y-29000000D01*
X49500383Y-28999617D01*
X49500099Y-28999500D01*
X46499901Y-28999500D01*
X46499617Y-28999617D01*
X46499459Y-29000000D01*
X44500541Y-29000000D01*
X44500383Y-28999617D01*
X44500099Y-28999500D01*
X41499901Y-28999500D01*
X41499617Y-28999617D01*
X41499459Y-29000000D01*
X39500541Y-29000000D01*
X39500383Y-28999617D01*
X39500099Y-28999500D01*
X36499901Y-28999500D01*
X36499617Y-28999617D01*
X36499459Y-29000000D01*
X34500541Y-29000000D01*
X34500383Y-28999617D01*
X34500099Y-28999500D01*
X31499901Y-28999500D01*
X31499617Y-28999617D01*
X31499459Y-29000000D01*
X29500541Y-29000000D01*
X29500383Y-28999617D01*
X29500099Y-28999500D01*
X26499901Y-28999500D01*
X26499617Y-28999617D01*
X26499459Y-29000000D01*
X24500541Y-29000000D01*
X24500383Y-28999617D01*
X24500099Y-28999500D01*
X21499901Y-28999500D01*
X21499617Y-28999617D01*
X21499459Y-29000000D01*
X20000500Y-29000000D01*
X20000500Y-23000000D01*
X25074551Y-23000000D01*
X25094317Y-23251148D01*
X25095452Y-23255877D01*
X25095453Y-23255881D01*
X25151989Y-23491374D01*
X25151991Y-23491382D01*
X25153127Y-23496111D01*
X25249534Y-23728859D01*
X25252081Y-23733016D01*
X25252082Y-23733017D01*
X25378617Y-23939504D01*
X25378622Y-23939511D01*
X25381164Y-23943659D01*
X25384324Y-23947358D01*
X25384327Y-23947363D01*
X25534845Y-24123596D01*
X25544776Y-24135224D01*
X25548476Y-24138384D01*
X25730705Y-24294023D01*
X25736341Y-24298836D01*
X25740491Y-24301379D01*
X25740495Y-24301382D01*
X25852300Y-24369896D01*
X25951141Y-24430466D01*
X26183889Y-24526873D01*
X26428852Y-24585683D01*
X26680000Y-24605449D01*
X26931148Y-24585683D01*
X27176111Y-24526873D01*
X27408859Y-24430466D01*
X27623659Y-24298836D01*
X27815224Y-24135224D01*
X27978836Y-23943659D01*
X28110466Y-23728859D01*
X28206873Y-23496111D01*
X28265683Y-23251148D01*
X28285449Y-23000000D01*
X92994551Y-23000000D01*
X93014317Y-23251148D01*
X93015452Y-23255877D01*
X93015453Y-23255881D01*
X93071989Y-23491374D01*
X93071991Y-23491382D01*
X93073127Y-23496111D01*
X93169534Y-23728859D01*
X93172081Y-23733016D01*
X93172082Y-23733017D01*
X93298617Y-23939504D01*
X93298622Y-23939511D01*
X93301164Y-23943659D01*
X93304324Y-23947358D01*
X93304327Y-23947363D01*
X93454845Y-24123596D01*
X93464776Y-24135224D01*
X93468476Y-24138384D01*
X93650705Y-24294023D01*
X93656341Y-24298836D01*
X93660491Y-24301379D01*
X93660495Y-24301382D01*
X93772300Y-24369896D01*
X93871141Y-24430466D01*
X94103889Y-24526873D01*
X94348852Y-24585683D01*
X94600000Y-24605449D01*
X94851148Y-24585683D01*
X95096111Y-24526873D01*
X95328859Y-24430466D01*
X95543659Y-24298836D01*
X95735224Y-24135224D01*
X95898836Y-23943659D01*
X96030466Y-23728859D01*
X96126873Y-23496111D01*
X96185683Y-23251148D01*
X96205449Y-23000000D01*
X96185683Y-22748852D01*
X96126873Y-22503889D01*
X96030466Y-22271141D01*
X95898836Y-22056341D01*
X95735224Y-21864776D01*
X95731523Y-21861615D01*
X95547363Y-21704327D01*
X95547358Y-21704324D01*
X95543659Y-21701164D01*
X95539511Y-21698622D01*
X95539504Y-21698617D01*
X95333017Y-21572082D01*
X95333016Y-21572081D01*
X95328859Y-21569534D01*
X95096111Y-21473127D01*
X95091382Y-21471991D01*
X95091374Y-21471989D01*
X94855881Y-21415453D01*
X94855877Y-21415452D01*
X94851148Y-21414317D01*
X94846295Y-21413935D01*
X94604854Y-21394933D01*
X94600000Y-21394551D01*
X94595146Y-21394933D01*
X94353704Y-21413935D01*
X94353702Y-21413935D01*
X94348852Y-21414317D01*
X94344124Y-21415451D01*
X94344118Y-21415453D01*
X94108625Y-21471989D01*
X94108613Y-21471992D01*
X94103889Y-21473127D01*
X94099392Y-21474989D01*
X94099388Y-21474991D01*
X93875645Y-21567668D01*
X93875640Y-21567670D01*
X93871141Y-21569534D01*
X93866988Y-21572078D01*
X93866982Y-21572082D01*
X93660495Y-21698617D01*
X93660482Y-21698626D01*
X93656341Y-21701164D01*
X93652646Y-21704319D01*
X93652636Y-21704327D01*
X93468476Y-21861615D01*
X93468469Y-21861621D01*
X93464776Y-21864776D01*
X93461621Y-21868469D01*
X93461615Y-21868476D01*
X93304327Y-22052636D01*
X93304319Y-22052646D01*
X93301164Y-22056341D01*
X93298626Y-22060482D01*
X93298617Y-22060495D01*
X93172082Y-22266982D01*
X93172078Y-22266988D01*
X93169534Y-22271141D01*
X93167670Y-22275640D01*
X93167668Y-22275645D01*
X93074991Y-22499388D01*
X93073127Y-22503889D01*
X93071992Y-22508613D01*
X93071989Y-22508625D01*
X93015453Y-22744118D01*
X93015451Y-22744124D01*
X93014317Y-22748852D01*
X92994551Y-23000000D01*
X28285449Y-23000000D01*
X28265683Y-22748852D01*
X28206873Y-22503889D01*
X28110466Y-22271141D01*
X27978836Y-22056341D01*
X27815224Y-21864776D01*
X27811523Y-21861615D01*
X27627363Y-21704327D01*
X27627358Y-21704324D01*
X27623659Y-21701164D01*
X27619511Y-21698622D01*
X27619504Y-21698617D01*
X27413017Y-21572082D01*
X27413016Y-21572081D01*
X27408859Y-21569534D01*
X27176111Y-21473127D01*
X27171382Y-21471991D01*
X27171374Y-21471989D01*
X26935881Y-21415453D01*
X26935877Y-21415452D01*
X26931148Y-21414317D01*
X26926295Y-21413935D01*
X26684854Y-21394933D01*
X26680000Y-21394551D01*
X26675146Y-21394933D01*
X26433704Y-21413935D01*
X26433702Y-21413935D01*
X26428852Y-21414317D01*
X26424124Y-21415451D01*
X26424118Y-21415453D01*
X26188625Y-21471989D01*
X26188613Y-21471992D01*
X26183889Y-21473127D01*
X26179392Y-21474989D01*
X26179388Y-21474991D01*
X25955645Y-21567668D01*
X25955640Y-21567670D01*
X25951141Y-21569534D01*
X25946988Y-21572078D01*
X25946982Y-21572082D01*
X25740495Y-21698617D01*
X25740482Y-21698626D01*
X25736341Y-21701164D01*
X25732646Y-21704319D01*
X25732636Y-21704327D01*
X25548476Y-21861615D01*
X25548469Y-21861621D01*
X25544776Y-21864776D01*
X25541621Y-21868469D01*
X25541615Y-21868476D01*
X25384327Y-22052636D01*
X25384319Y-22052646D01*
X25381164Y-22056341D01*
X25378626Y-22060482D01*
X25378617Y-22060495D01*
X25252082Y-22266982D01*
X25252078Y-22266988D01*
X25249534Y-22271141D01*
X25247670Y-22275640D01*
X25247668Y-22275645D01*
X25154991Y-22499388D01*
X25153127Y-22503889D01*
X25151992Y-22508613D01*
X25151989Y-22508625D01*
X25095453Y-22744118D01*
X25095451Y-22744124D01*
X25094317Y-22748852D01*
X25074551Y-23000000D01*
X20000500Y-23000000D01*
X20000500Y-20124500D01*
X20017113Y-20062500D01*
X20062500Y-20017113D01*
X20124500Y-20000500D01*
X101155500Y-20000500D01*
X101217500Y-20017113D01*
G37*
%TD.AperFunction*%
%TA.AperFunction,Conductor*%
G36*
X85232866Y-34744756D02*
G01*
X85288761Y-34780365D01*
X85358422Y-34857731D01*
X85387469Y-34889992D01*
X85394129Y-34897388D01*
X85547270Y-35008651D01*
X85699293Y-35076337D01*
X85711044Y-35081569D01*
X85720197Y-35085644D01*
X85773022Y-35096872D01*
X85776281Y-35097565D01*
X85826842Y-35121142D01*
X85861950Y-35164497D01*
X85874500Y-35218855D01*
X85874500Y-39932969D01*
X85855197Y-39999412D01*
X85803296Y-40045168D01*
X85734958Y-40055991D01*
X85671459Y-40028512D01*
X85632569Y-39971287D01*
X85609569Y-39900500D01*
X85600144Y-39871492D01*
X85502870Y-39703008D01*
X85455591Y-39650500D01*
X85377041Y-39563261D01*
X85377040Y-39563260D01*
X85372692Y-39558431D01*
X85367434Y-39554610D01*
X85367432Y-39554609D01*
X85220557Y-39447898D01*
X85220555Y-39447897D01*
X85215299Y-39444078D01*
X85150685Y-39415310D01*
X85043509Y-39367592D01*
X85043502Y-39367589D01*
X85037571Y-39364949D01*
X85031218Y-39363598D01*
X85031210Y-39363596D01*
X84853636Y-39325852D01*
X84853633Y-39325851D01*
X84847274Y-39324500D01*
X84652726Y-39324500D01*
X84646367Y-39325851D01*
X84646363Y-39325852D01*
X84468789Y-39363596D01*
X84468778Y-39363599D01*
X84462429Y-39364949D01*
X84456499Y-39367588D01*
X84456490Y-39367592D01*
X84290637Y-39441435D01*
X84284701Y-39444078D01*
X84279448Y-39447894D01*
X84279442Y-39447898D01*
X84132567Y-39554609D01*
X84132560Y-39554614D01*
X84127308Y-39558431D01*
X84122963Y-39563256D01*
X84122958Y-39563261D01*
X84001476Y-39698180D01*
X84001471Y-39698186D01*
X83997130Y-39703008D01*
X83993885Y-39708628D01*
X83993881Y-39708634D01*
X83903104Y-39865865D01*
X83903101Y-39865870D01*
X83899856Y-39871492D01*
X83897850Y-39877664D01*
X83897848Y-39877670D01*
X83841746Y-40050336D01*
X83841744Y-40050341D01*
X83839738Y-40056518D01*
X83839059Y-40062970D01*
X83839058Y-40062979D01*
X83820471Y-40239822D01*
X83819402Y-40250000D01*
X83820081Y-40256460D01*
X83839058Y-40437018D01*
X83839059Y-40437023D01*
X83839738Y-40443482D01*
X83841746Y-40449663D01*
X83841747Y-40449666D01*
X83869848Y-40536154D01*
X83875889Y-40577127D01*
X83868099Y-40617804D01*
X83833620Y-40710247D01*
X83833619Y-40710250D01*
X83830909Y-40717517D01*
X83830079Y-40725227D01*
X83830079Y-40725232D01*
X83824855Y-40773819D01*
X83824854Y-40773831D01*
X83824500Y-40777127D01*
X83824500Y-40780448D01*
X83824500Y-40780449D01*
X83824500Y-41719560D01*
X83824500Y-41719578D01*
X83824501Y-41722872D01*
X83824853Y-41726150D01*
X83824854Y-41726161D01*
X83830079Y-41774768D01*
X83830080Y-41774773D01*
X83830909Y-41782483D01*
X83833619Y-41789749D01*
X83833620Y-41789753D01*
X83851886Y-41838725D01*
X83881204Y-41917331D01*
X83886518Y-41924430D01*
X83886519Y-41924431D01*
X83895343Y-41936219D01*
X83967454Y-42032546D01*
X84082669Y-42118796D01*
X84217517Y-42169091D01*
X84277127Y-42175500D01*
X85222872Y-42175499D01*
X85282483Y-42169091D01*
X85417331Y-42118796D01*
X85532546Y-42032546D01*
X85618796Y-41917331D01*
X85634318Y-41875713D01*
X85674779Y-41820852D01*
X85738125Y-41795666D01*
X85805211Y-41807769D01*
X85855762Y-41853504D01*
X85874500Y-41919047D01*
X85874500Y-53301313D01*
X85866264Y-53345751D01*
X85842650Y-53384285D01*
X85771813Y-53462956D01*
X85771808Y-53462962D01*
X85767467Y-53467784D01*
X85764222Y-53473404D01*
X85764218Y-53473410D01*
X85676069Y-53626089D01*
X85676066Y-53626094D01*
X85672821Y-53631716D01*
X85670815Y-53637888D01*
X85670813Y-53637894D01*
X85616333Y-53805564D01*
X85616331Y-53805573D01*
X85614326Y-53811744D01*
X85613648Y-53818194D01*
X85613646Y-53818204D01*
X85595962Y-53986464D01*
X85594540Y-54000000D01*
X85595219Y-54006460D01*
X85613646Y-54181795D01*
X85613647Y-54181803D01*
X85614326Y-54188256D01*
X85616331Y-54194428D01*
X85616333Y-54194435D01*
X85670813Y-54362105D01*
X85672821Y-54368284D01*
X85767467Y-54532216D01*
X85832916Y-54604904D01*
X85850306Y-54624218D01*
X85878978Y-54679296D01*
X85877352Y-54741369D01*
X85845837Y-54794871D01*
X85112696Y-55528011D01*
X85104511Y-55535459D01*
X85098123Y-55539514D01*
X85092788Y-55545194D01*
X85092783Y-55545199D01*
X85052096Y-55588525D01*
X85049392Y-55591316D01*
X85032628Y-55608080D01*
X85032621Y-55608087D01*
X85029880Y-55610829D01*
X85027500Y-55613896D01*
X85027489Y-55613909D01*
X85027400Y-55614025D01*
X85019842Y-55622870D01*
X84995280Y-55649027D01*
X84995273Y-55649036D01*
X84989938Y-55654718D01*
X84986182Y-55661549D01*
X84986179Y-55661554D01*
X84980285Y-55672275D01*
X84969609Y-55688527D01*
X84962109Y-55698196D01*
X84962101Y-55698207D01*
X84957327Y-55704364D01*
X84954234Y-55711508D01*
X84954229Y-55711519D01*
X84939974Y-55744460D01*
X84934838Y-55754943D01*
X84913803Y-55793208D01*
X84911864Y-55800756D01*
X84911863Y-55800761D01*
X84908822Y-55812607D01*
X84902521Y-55831011D01*
X84897658Y-55842248D01*
X84897656Y-55842252D01*
X84894562Y-55849404D01*
X84893342Y-55857103D01*
X84893342Y-55857105D01*
X84887729Y-55892541D01*
X84885361Y-55903976D01*
X84876438Y-55938728D01*
X84876436Y-55938736D01*
X84874500Y-55946281D01*
X84874500Y-55954077D01*
X84874500Y-55966317D01*
X84872974Y-55985702D01*
X84869840Y-56005496D01*
X84870574Y-56013261D01*
X84870574Y-56013264D01*
X84873950Y-56048976D01*
X84874500Y-56060645D01*
X84874500Y-57301313D01*
X84866264Y-57345751D01*
X84842650Y-57384285D01*
X84771813Y-57462956D01*
X84771808Y-57462962D01*
X84767467Y-57467784D01*
X84764222Y-57473404D01*
X84764218Y-57473410D01*
X84676069Y-57626089D01*
X84676066Y-57626094D01*
X84672821Y-57631716D01*
X84670815Y-57637888D01*
X84670813Y-57637894D01*
X84616333Y-57805564D01*
X84616331Y-57805573D01*
X84614326Y-57811744D01*
X84613648Y-57818194D01*
X84613646Y-57818204D01*
X84595962Y-57986464D01*
X84594540Y-58000000D01*
X84595219Y-58006460D01*
X84613646Y-58181795D01*
X84613647Y-58181803D01*
X84614326Y-58188256D01*
X84616331Y-58194428D01*
X84616333Y-58194435D01*
X84667990Y-58353416D01*
X84672821Y-58368284D01*
X84676068Y-58373908D01*
X84676069Y-58373910D01*
X84734756Y-58475560D01*
X84767467Y-58532216D01*
X84894129Y-58672888D01*
X85047270Y-58784151D01*
X85220197Y-58861144D01*
X85405354Y-58900500D01*
X85588143Y-58900500D01*
X85594646Y-58900500D01*
X85779803Y-58861144D01*
X85952730Y-58784151D01*
X86105871Y-58672888D01*
X86232533Y-58532216D01*
X86327179Y-58368284D01*
X86385674Y-58188256D01*
X86405460Y-58000000D01*
X86385674Y-57811744D01*
X86327179Y-57631716D01*
X86232533Y-57467784D01*
X86224708Y-57459094D01*
X86157350Y-57384285D01*
X86133736Y-57345751D01*
X86125500Y-57301313D01*
X86125500Y-56335752D01*
X86134939Y-56288299D01*
X86161819Y-56248071D01*
X86821365Y-55588525D01*
X88887306Y-53522582D01*
X88895482Y-53515143D01*
X88901877Y-53511086D01*
X88947933Y-53462040D01*
X88950550Y-53459338D01*
X88970120Y-53439770D01*
X88972565Y-53436616D01*
X88980155Y-53427728D01*
X89010062Y-53395882D01*
X89019709Y-53378332D01*
X89030393Y-53362066D01*
X89042674Y-53346236D01*
X89060018Y-53306151D01*
X89065160Y-53295656D01*
X89086197Y-53257392D01*
X89091179Y-53237989D01*
X89097480Y-53219583D01*
X89105438Y-53201195D01*
X89112269Y-53158056D01*
X89114639Y-53146615D01*
X89123560Y-53111874D01*
X89123559Y-53111874D01*
X89125500Y-53104319D01*
X89125500Y-53084283D01*
X89127025Y-53064897D01*
X89130160Y-53045104D01*
X89126050Y-53001624D01*
X89125500Y-52989955D01*
X89125500Y-51948687D01*
X89133736Y-51904249D01*
X89157350Y-51865715D01*
X89232533Y-51782216D01*
X89327179Y-51618284D01*
X89385674Y-51438256D01*
X89405460Y-51250000D01*
X89385674Y-51061744D01*
X89327179Y-50881716D01*
X89232533Y-50717784D01*
X89105871Y-50577112D01*
X89100613Y-50573292D01*
X89100611Y-50573290D01*
X88957988Y-50469669D01*
X88957987Y-50469668D01*
X88952730Y-50465849D01*
X88946792Y-50463205D01*
X88785745Y-50391501D01*
X88785740Y-50391499D01*
X88779803Y-50388856D01*
X88773444Y-50387504D01*
X88773440Y-50387503D01*
X88601008Y-50350852D01*
X88601005Y-50350851D01*
X88594646Y-50349500D01*
X88474466Y-50349500D01*
X88438721Y-50340222D01*
X88413319Y-50349345D01*
X88411844Y-50349500D01*
X88405354Y-50349500D01*
X88399007Y-50350849D01*
X88398998Y-50350850D01*
X88226559Y-50387503D01*
X88226552Y-50387505D01*
X88220197Y-50388856D01*
X88214262Y-50391498D01*
X88214254Y-50391501D01*
X88053207Y-50463205D01*
X88053202Y-50463207D01*
X88047270Y-50465849D01*
X88042016Y-50469665D01*
X88042011Y-50469669D01*
X87899388Y-50573290D01*
X87899381Y-50573295D01*
X87894129Y-50577112D01*
X87889784Y-50581937D01*
X87889779Y-50581942D01*
X87771813Y-50712956D01*
X87771808Y-50712962D01*
X87767467Y-50717784D01*
X87764222Y-50723404D01*
X87764218Y-50723410D01*
X87676069Y-50876089D01*
X87676066Y-50876094D01*
X87672821Y-50881716D01*
X87670815Y-50887888D01*
X87670813Y-50887894D01*
X87616333Y-51055564D01*
X87616331Y-51055573D01*
X87614326Y-51061744D01*
X87613648Y-51068194D01*
X87613646Y-51068204D01*
X87606221Y-51138856D01*
X87594540Y-51250000D01*
X87595219Y-51256460D01*
X87613646Y-51431795D01*
X87613647Y-51431803D01*
X87614326Y-51438256D01*
X87616331Y-51444428D01*
X87616333Y-51444435D01*
X87670813Y-51612105D01*
X87672821Y-51618284D01*
X87767467Y-51782216D01*
X87771811Y-51787041D01*
X87771813Y-51787043D01*
X87842650Y-51865715D01*
X87866264Y-51904249D01*
X87874500Y-51948687D01*
X87874500Y-52714848D01*
X87865061Y-52762301D01*
X87838181Y-52802529D01*
X87337181Y-53303528D01*
X87287818Y-53333778D01*
X87230102Y-53338320D01*
X87176615Y-53316165D01*
X87139015Y-53272142D01*
X87125500Y-53215847D01*
X87125500Y-49005247D01*
X87131683Y-48981925D01*
X87125500Y-48958101D01*
X87125500Y-46447576D01*
X87139613Y-46390123D01*
X87178739Y-46345749D01*
X87233971Y-46324552D01*
X87292739Y-46331359D01*
X87341664Y-46364620D01*
X87342664Y-46365731D01*
X87366268Y-46404259D01*
X87374500Y-46448687D01*
X87374500Y-48947525D01*
X87373978Y-48958580D01*
X87372327Y-48965967D01*
X87372486Y-48971047D01*
X87368039Y-48983298D01*
X87373439Y-49001352D01*
X87374439Y-49033173D01*
X87374500Y-49037068D01*
X87374500Y-49064650D01*
X87374988Y-49068519D01*
X87374989Y-49068525D01*
X87375004Y-49068643D01*
X87375918Y-49080266D01*
X87377045Y-49116130D01*
X87377046Y-49116137D01*
X87377291Y-49123927D01*
X87379467Y-49131419D01*
X87379468Y-49131421D01*
X87382879Y-49143162D01*
X87386825Y-49162215D01*
X87389336Y-49182092D01*
X87392206Y-49189342D01*
X87392208Y-49189348D01*
X87405414Y-49222704D01*
X87409197Y-49233751D01*
X87421382Y-49275690D01*
X87425353Y-49282405D01*
X87425354Y-49282407D01*
X87431581Y-49292937D01*
X87440136Y-49310399D01*
X87444642Y-49321780D01*
X87444643Y-49321783D01*
X87447514Y-49329032D01*
X87469440Y-49359212D01*
X87473181Y-49364360D01*
X87479593Y-49374122D01*
X87497856Y-49405002D01*
X87497859Y-49405007D01*
X87501830Y-49411720D01*
X87507344Y-49417234D01*
X87507345Y-49417235D01*
X87515990Y-49425880D01*
X87528626Y-49440674D01*
X87535819Y-49450575D01*
X87535823Y-49450579D01*
X87540406Y-49456887D01*
X87546415Y-49461858D01*
X87546416Y-49461859D01*
X87574058Y-49484726D01*
X87582699Y-49492589D01*
X87952406Y-49862296D01*
X87959858Y-49870485D01*
X87963914Y-49876877D01*
X87969598Y-49882215D01*
X87969600Y-49882217D01*
X88012923Y-49922900D01*
X88015720Y-49925611D01*
X88035229Y-49945120D01*
X88038409Y-49947587D01*
X88047271Y-49955155D01*
X88060580Y-49967654D01*
X88073432Y-49979723D01*
X88073434Y-49979724D01*
X88079118Y-49985062D01*
X88085951Y-49988818D01*
X88085952Y-49988819D01*
X88096673Y-49994713D01*
X88112934Y-50005394D01*
X88128764Y-50017673D01*
X88168854Y-50035021D01*
X88179331Y-50040154D01*
X88217608Y-50061197D01*
X88234657Y-50065574D01*
X88237005Y-50066177D01*
X88255419Y-50072481D01*
X88273804Y-50080438D01*
X88316965Y-50087273D01*
X88328364Y-50089634D01*
X88370681Y-50100500D01*
X88390717Y-50100500D01*
X88410099Y-50102024D01*
X88419742Y-50103551D01*
X88437801Y-50111122D01*
X88462797Y-50102050D01*
X88473376Y-50101050D01*
X88485045Y-50100500D01*
X88972525Y-50100500D01*
X88983580Y-50101021D01*
X88990967Y-50102673D01*
X89058172Y-50100561D01*
X89062068Y-50100500D01*
X89085748Y-50100500D01*
X89089650Y-50100500D01*
X89093613Y-50099999D01*
X89105263Y-50099080D01*
X89148927Y-50097709D01*
X89168161Y-50092119D01*
X89187217Y-50088174D01*
X89207092Y-50085664D01*
X89247695Y-50069587D01*
X89258750Y-50065802D01*
X89300690Y-50053618D01*
X89317929Y-50043422D01*
X89335403Y-50034862D01*
X89346774Y-50030360D01*
X89346776Y-50030358D01*
X89354032Y-50027486D01*
X89389369Y-50001811D01*
X89399124Y-49995403D01*
X89436720Y-49973170D01*
X89450884Y-49959005D01*
X89465679Y-49946368D01*
X89481887Y-49934594D01*
X89509728Y-49900938D01*
X89517579Y-49892309D01*
X90637311Y-48772578D01*
X90645481Y-48765144D01*
X90651877Y-48761086D01*
X90660109Y-48752318D01*
X90709231Y-48720273D01*
X90767587Y-48714387D01*
X90822119Y-48735978D01*
X90860629Y-48780216D01*
X90874500Y-48837204D01*
X90874500Y-66801313D01*
X90866264Y-66845751D01*
X90842650Y-66884285D01*
X90771813Y-66962956D01*
X90771808Y-66962962D01*
X90767467Y-66967784D01*
X90764222Y-66973404D01*
X90764218Y-66973410D01*
X90676069Y-67126089D01*
X90676066Y-67126094D01*
X90672821Y-67131716D01*
X90670815Y-67137888D01*
X90670813Y-67137894D01*
X90616333Y-67305564D01*
X90616331Y-67305573D01*
X90614326Y-67311744D01*
X90613648Y-67318194D01*
X90613646Y-67318204D01*
X90595962Y-67486464D01*
X90594540Y-67500000D01*
X90595219Y-67506460D01*
X90613646Y-67681795D01*
X90613647Y-67681803D01*
X90614326Y-67688256D01*
X90616331Y-67694428D01*
X90616333Y-67694435D01*
X90670813Y-67862105D01*
X90672821Y-67868284D01*
X90767467Y-68032216D01*
X90894129Y-68172888D01*
X91047270Y-68284151D01*
X91220197Y-68361144D01*
X91405354Y-68400500D01*
X91411857Y-68400500D01*
X91500500Y-68400500D01*
X91562500Y-68417113D01*
X91607887Y-68462500D01*
X91624500Y-68524500D01*
X91624500Y-71689547D01*
X91615061Y-71737000D01*
X91588181Y-71777228D01*
X91552228Y-71813181D01*
X91512000Y-71840061D01*
X91464547Y-71849500D01*
X91405354Y-71849500D01*
X91398995Y-71850851D01*
X91398991Y-71850852D01*
X91226559Y-71887503D01*
X91226552Y-71887505D01*
X91220197Y-71888856D01*
X91214262Y-71891498D01*
X91214254Y-71891501D01*
X91053207Y-71963205D01*
X91053202Y-71963207D01*
X91047270Y-71965849D01*
X91042016Y-71969665D01*
X91042011Y-71969669D01*
X90899388Y-72073290D01*
X90899381Y-72073295D01*
X90894129Y-72077112D01*
X90889784Y-72081937D01*
X90889779Y-72081942D01*
X90771813Y-72212956D01*
X90771808Y-72212962D01*
X90767467Y-72217784D01*
X90764222Y-72223404D01*
X90764218Y-72223410D01*
X90676069Y-72376089D01*
X90676066Y-72376094D01*
X90672821Y-72381716D01*
X90670815Y-72387888D01*
X90670813Y-72387894D01*
X90616333Y-72555564D01*
X90616331Y-72555573D01*
X90614326Y-72561744D01*
X90613648Y-72568194D01*
X90613646Y-72568204D01*
X90596525Y-72731115D01*
X90594540Y-72750000D01*
X90595219Y-72756460D01*
X90595219Y-72756461D01*
X90611957Y-72915722D01*
X90603444Y-72975536D01*
X90567676Y-73024227D01*
X90513145Y-73050237D01*
X90452796Y-73047391D01*
X90400955Y-73016364D01*
X87247286Y-69862695D01*
X87239842Y-69854514D01*
X87235786Y-69848123D01*
X87186775Y-69802098D01*
X87183978Y-69799387D01*
X87167227Y-69782636D01*
X87164471Y-69779880D01*
X87161290Y-69777412D01*
X87152414Y-69769830D01*
X87126269Y-69745278D01*
X87126267Y-69745276D01*
X87120582Y-69739938D01*
X87113749Y-69736182D01*
X87113743Y-69736177D01*
X87103025Y-69730285D01*
X87086766Y-69719606D01*
X87077095Y-69712104D01*
X87077092Y-69712102D01*
X87070936Y-69707327D01*
X87063779Y-69704229D01*
X87063776Y-69704228D01*
X87030849Y-69689978D01*
X87020363Y-69684841D01*
X86988932Y-69667562D01*
X86988923Y-69667558D01*
X86982092Y-69663803D01*
X86974535Y-69661862D01*
X86974531Y-69661861D01*
X86962688Y-69658820D01*
X86944279Y-69652517D01*
X86935480Y-69648709D01*
X86892581Y-69617882D01*
X86860221Y-69581943D01*
X86860220Y-69581942D01*
X86855871Y-69577112D01*
X86850613Y-69573292D01*
X86850611Y-69573290D01*
X86707988Y-69469669D01*
X86707987Y-69469668D01*
X86702730Y-69465849D01*
X86696792Y-69463205D01*
X86535745Y-69391501D01*
X86535740Y-69391499D01*
X86529803Y-69388856D01*
X86523444Y-69387504D01*
X86523440Y-69387503D01*
X86351008Y-69350852D01*
X86351005Y-69350851D01*
X86344646Y-69349500D01*
X86155354Y-69349500D01*
X86148995Y-69350851D01*
X86148991Y-69350852D01*
X85976559Y-69387503D01*
X85976552Y-69387505D01*
X85970197Y-69388856D01*
X85964262Y-69391498D01*
X85964254Y-69391501D01*
X85803207Y-69463205D01*
X85803202Y-69463207D01*
X85797270Y-69465849D01*
X85792016Y-69469665D01*
X85792011Y-69469669D01*
X85649388Y-69573290D01*
X85649381Y-69573295D01*
X85644129Y-69577112D01*
X85639784Y-69581937D01*
X85639779Y-69581942D01*
X85521813Y-69712956D01*
X85521808Y-69712962D01*
X85517467Y-69717784D01*
X85514222Y-69723404D01*
X85514218Y-69723410D01*
X85426069Y-69876089D01*
X85426066Y-69876094D01*
X85422821Y-69881716D01*
X85420815Y-69887888D01*
X85420813Y-69887894D01*
X85366333Y-70055564D01*
X85366331Y-70055573D01*
X85364326Y-70061744D01*
X85363648Y-70068194D01*
X85363646Y-70068204D01*
X85345962Y-70236464D01*
X85344540Y-70250000D01*
X85345219Y-70256460D01*
X85363646Y-70431795D01*
X85363647Y-70431803D01*
X85364326Y-70438256D01*
X85366331Y-70444428D01*
X85366333Y-70444435D01*
X85420813Y-70612105D01*
X85422821Y-70618284D01*
X85517467Y-70782216D01*
X85644129Y-70922888D01*
X85797270Y-71034151D01*
X85970197Y-71111144D01*
X86155354Y-71150500D01*
X86338143Y-71150500D01*
X86344646Y-71150500D01*
X86529803Y-71111144D01*
X86588084Y-71085194D01*
X86636355Y-71074492D01*
X86684971Y-71083502D01*
X86726201Y-71110791D01*
X88877444Y-73262035D01*
X91007607Y-75392198D01*
X91022480Y-75410176D01*
X91027076Y-75416938D01*
X91043394Y-75431324D01*
X91068677Y-75453614D01*
X91074355Y-75458946D01*
X91085529Y-75470120D01*
X91088600Y-75472502D01*
X91088601Y-75472503D01*
X91089286Y-75473034D01*
X91098026Y-75479813D01*
X91103990Y-75484747D01*
X91145622Y-75521450D01*
X91152574Y-75524992D01*
X91152898Y-75525157D01*
X91172609Y-75537666D01*
X91179064Y-75542673D01*
X91229257Y-75564393D01*
X91229964Y-75564699D01*
X91237010Y-75568014D01*
X91286435Y-75593198D01*
X91294401Y-75594978D01*
X91316604Y-75602191D01*
X91324104Y-75605437D01*
X91378903Y-75614115D01*
X91386528Y-75615570D01*
X91440667Y-75627673D01*
X91448834Y-75627416D01*
X91472124Y-75628881D01*
X91480196Y-75630160D01*
X91500462Y-75628243D01*
X91535414Y-75624940D01*
X91543180Y-75624450D01*
X91598627Y-75622709D01*
X91606464Y-75620431D01*
X91629410Y-75616054D01*
X91637533Y-75615287D01*
X91689719Y-75596498D01*
X91697109Y-75594097D01*
X91750390Y-75578618D01*
X91757420Y-75574460D01*
X91778537Y-75564522D01*
X91786228Y-75561754D01*
X91832103Y-75530575D01*
X91838654Y-75526417D01*
X91886420Y-75498170D01*
X91892193Y-75492396D01*
X91910186Y-75477510D01*
X91916937Y-75472923D01*
X91953627Y-75431305D01*
X91958928Y-75425660D01*
X93637306Y-73747282D01*
X93645482Y-73739843D01*
X93651877Y-73735786D01*
X93697933Y-73686740D01*
X93700550Y-73684038D01*
X93720120Y-73664470D01*
X93722565Y-73661316D01*
X93730155Y-73652428D01*
X93760062Y-73620582D01*
X93765251Y-73611144D01*
X93769710Y-73603032D01*
X93780393Y-73586766D01*
X93792674Y-73570936D01*
X93810018Y-73530851D01*
X93815160Y-73520356D01*
X93836197Y-73482092D01*
X93841179Y-73462689D01*
X93847480Y-73444283D01*
X93855438Y-73425895D01*
X93862269Y-73382756D01*
X93864639Y-73371315D01*
X93873560Y-73336574D01*
X93873559Y-73336574D01*
X93875500Y-73329019D01*
X93875500Y-73308983D01*
X93877025Y-73289597D01*
X93880160Y-73269804D01*
X93876050Y-73226324D01*
X93875500Y-73214655D01*
X93875500Y-45810452D01*
X93884939Y-45762999D01*
X93911819Y-45722771D01*
X98612819Y-41021772D01*
X98662182Y-40991522D01*
X98719898Y-40986980D01*
X98773385Y-41009135D01*
X98810985Y-41053158D01*
X98824500Y-41109453D01*
X98824500Y-62239548D01*
X98815061Y-62287001D01*
X98788181Y-62327229D01*
X96802228Y-64313181D01*
X96762000Y-64340061D01*
X96714547Y-64349500D01*
X96655354Y-64349500D01*
X96648995Y-64350851D01*
X96648991Y-64350852D01*
X96476559Y-64387503D01*
X96476552Y-64387505D01*
X96470197Y-64388856D01*
X96464262Y-64391498D01*
X96464254Y-64391501D01*
X96303207Y-64463205D01*
X96303202Y-64463207D01*
X96297270Y-64465849D01*
X96292016Y-64469665D01*
X96292011Y-64469669D01*
X96149388Y-64573290D01*
X96149381Y-64573295D01*
X96144129Y-64577112D01*
X96139784Y-64581937D01*
X96139779Y-64581942D01*
X96021813Y-64712956D01*
X96021808Y-64712962D01*
X96017467Y-64717784D01*
X96014222Y-64723404D01*
X96014218Y-64723410D01*
X95926069Y-64876089D01*
X95926066Y-64876094D01*
X95922821Y-64881716D01*
X95920815Y-64887888D01*
X95920813Y-64887894D01*
X95866333Y-65055564D01*
X95866331Y-65055573D01*
X95864326Y-65061744D01*
X95863648Y-65068194D01*
X95863646Y-65068204D01*
X95846650Y-65229925D01*
X95844540Y-65250000D01*
X95845219Y-65256460D01*
X95863646Y-65431795D01*
X95863647Y-65431803D01*
X95864326Y-65438256D01*
X95866331Y-65444428D01*
X95866333Y-65444435D01*
X95920813Y-65612105D01*
X95922821Y-65618284D01*
X96017467Y-65782216D01*
X96144129Y-65922888D01*
X96297270Y-66034151D01*
X96470197Y-66111144D01*
X96655354Y-66150500D01*
X96838143Y-66150500D01*
X96844646Y-66150500D01*
X97029803Y-66111144D01*
X97202730Y-66034151D01*
X97355871Y-65922888D01*
X97482533Y-65782216D01*
X97577179Y-65618284D01*
X97635674Y-65438256D01*
X97653321Y-65270344D01*
X97664721Y-65229925D01*
X97688958Y-65195630D01*
X99662819Y-63221770D01*
X99712182Y-63191520D01*
X99769898Y-63186978D01*
X99823385Y-63209133D01*
X99860985Y-63253156D01*
X99874500Y-63309451D01*
X99874500Y-99939547D01*
X99865061Y-99987000D01*
X99838181Y-100027228D01*
X99527228Y-100338181D01*
X99487000Y-100365061D01*
X99439547Y-100374500D01*
X97580497Y-100374500D01*
X97515708Y-100356228D01*
X97470013Y-100306796D01*
X97456879Y-100240772D01*
X97480129Y-100177747D01*
X97485262Y-100172282D01*
X97494913Y-100154723D01*
X97505590Y-100138470D01*
X97517873Y-100122636D01*
X97535218Y-100082552D01*
X97540351Y-100072071D01*
X97561397Y-100033792D01*
X97566379Y-100014384D01*
X97572682Y-99995976D01*
X97580637Y-99977596D01*
X97587471Y-99934444D01*
X97589833Y-99923038D01*
X97600700Y-99880719D01*
X97600700Y-99860683D01*
X97602227Y-99841285D01*
X97604139Y-99829213D01*
X97604138Y-99829213D01*
X97605360Y-99821504D01*
X97601250Y-99778024D01*
X97600700Y-99766355D01*
X97600700Y-97223575D01*
X97601221Y-97212519D01*
X97602873Y-97205133D01*
X97600761Y-97137913D01*
X97600700Y-97134019D01*
X97600700Y-97110342D01*
X97600700Y-97106450D01*
X97600198Y-97102483D01*
X97599281Y-97090826D01*
X97597910Y-97047173D01*
X97592318Y-97027928D01*
X97588374Y-97008883D01*
X97585864Y-96989008D01*
X97569779Y-96948383D01*
X97566006Y-96937362D01*
X97553818Y-96895410D01*
X97543617Y-96878160D01*
X97535063Y-96860701D01*
X97527686Y-96842068D01*
X97502008Y-96806725D01*
X97495601Y-96796971D01*
X97477342Y-96766096D01*
X97477341Y-96766094D01*
X97473370Y-96759380D01*
X97459204Y-96745214D01*
X97446570Y-96730422D01*
X97434794Y-96714213D01*
X97428783Y-96709240D01*
X97428781Y-96709238D01*
X97401141Y-96686373D01*
X97392500Y-96678510D01*
X97026161Y-96312170D01*
X97001921Y-96277872D01*
X96990521Y-96237450D01*
X96973553Y-96076004D01*
X96973552Y-96076003D01*
X96972874Y-96069544D01*
X96914379Y-95889516D01*
X96819733Y-95725584D01*
X96693071Y-95584912D01*
X96687813Y-95581092D01*
X96687811Y-95581090D01*
X96545188Y-95477469D01*
X96545187Y-95477468D01*
X96539930Y-95473649D01*
X96533992Y-95471005D01*
X96372945Y-95399301D01*
X96372940Y-95399299D01*
X96367003Y-95396656D01*
X96360644Y-95395304D01*
X96360640Y-95395303D01*
X96188208Y-95358652D01*
X96188205Y-95358651D01*
X96181846Y-95357300D01*
X95992554Y-95357300D01*
X95986195Y-95358651D01*
X95986191Y-95358652D01*
X95813759Y-95395303D01*
X95813752Y-95395305D01*
X95807397Y-95396656D01*
X95801462Y-95399298D01*
X95801454Y-95399301D01*
X95640407Y-95471005D01*
X95640402Y-95471007D01*
X95634470Y-95473649D01*
X95629216Y-95477465D01*
X95629211Y-95477469D01*
X95486588Y-95581090D01*
X95486581Y-95581095D01*
X95481329Y-95584912D01*
X95476984Y-95589737D01*
X95476979Y-95589742D01*
X95359013Y-95720756D01*
X95359008Y-95720762D01*
X95354667Y-95725584D01*
X95351422Y-95731204D01*
X95351418Y-95731210D01*
X95263269Y-95883889D01*
X95263266Y-95883894D01*
X95260021Y-95889516D01*
X95258015Y-95895688D01*
X95258013Y-95895694D01*
X95203533Y-96063364D01*
X95203531Y-96063373D01*
X95201526Y-96069544D01*
X95200848Y-96075994D01*
X95200846Y-96076004D01*
X95183879Y-96237450D01*
X95181740Y-96257800D01*
X95182419Y-96264260D01*
X95200846Y-96439595D01*
X95200847Y-96439603D01*
X95201526Y-96446056D01*
X95203531Y-96452228D01*
X95203533Y-96452235D01*
X95258013Y-96619905D01*
X95260021Y-96626084D01*
X95263268Y-96631708D01*
X95263269Y-96631710D01*
X95292677Y-96682647D01*
X95354667Y-96790016D01*
X95481329Y-96930688D01*
X95486587Y-96934508D01*
X95486588Y-96934509D01*
X95551616Y-96981754D01*
X95634470Y-97041951D01*
X95807397Y-97118944D01*
X95992554Y-97158300D01*
X96051748Y-97158300D01*
X96099201Y-97167739D01*
X96139429Y-97194619D01*
X96313381Y-97368571D01*
X96340261Y-97408799D01*
X96349700Y-97456252D01*
X96349700Y-98415748D01*
X96336185Y-98472043D01*
X96298585Y-98516066D01*
X96245098Y-98538221D01*
X96187382Y-98533679D01*
X96138019Y-98503429D01*
X82911819Y-85277228D01*
X82884939Y-85237000D01*
X82875500Y-85189547D01*
X82875500Y-50198687D01*
X82883736Y-50154249D01*
X82907350Y-50115715D01*
X82919654Y-50102050D01*
X82982533Y-50032216D01*
X83077179Y-49868284D01*
X83135674Y-49688256D01*
X83155460Y-49500000D01*
X83135674Y-49311744D01*
X83077179Y-49131716D01*
X82982533Y-48967784D01*
X82973814Y-48958101D01*
X82860220Y-48831942D01*
X82860219Y-48831941D01*
X82855871Y-48827112D01*
X82850613Y-48823292D01*
X82850611Y-48823290D01*
X82707988Y-48719669D01*
X82707987Y-48719668D01*
X82702730Y-48715849D01*
X82696792Y-48713205D01*
X82535745Y-48641501D01*
X82535740Y-48641499D01*
X82529803Y-48638856D01*
X82523444Y-48637504D01*
X82523440Y-48637503D01*
X82351008Y-48600852D01*
X82351005Y-48600851D01*
X82344646Y-48599500D01*
X82155354Y-48599500D01*
X82148995Y-48600851D01*
X82148991Y-48600852D01*
X81976559Y-48637503D01*
X81976552Y-48637505D01*
X81970197Y-48638856D01*
X81964262Y-48641498D01*
X81964254Y-48641501D01*
X81803207Y-48713205D01*
X81803202Y-48713207D01*
X81797270Y-48715849D01*
X81792016Y-48719665D01*
X81792011Y-48719669D01*
X81649388Y-48823290D01*
X81649381Y-48823295D01*
X81644129Y-48827112D01*
X81639784Y-48831937D01*
X81639779Y-48831942D01*
X81521813Y-48962956D01*
X81521808Y-48962962D01*
X81517467Y-48967784D01*
X81514222Y-48973404D01*
X81514218Y-48973410D01*
X81426069Y-49126089D01*
X81426066Y-49126094D01*
X81422821Y-49131716D01*
X81420815Y-49137888D01*
X81420813Y-49137894D01*
X81366333Y-49305564D01*
X81366331Y-49305573D01*
X81364326Y-49311744D01*
X81363648Y-49318194D01*
X81363646Y-49318204D01*
X81349071Y-49456887D01*
X81344540Y-49500000D01*
X81345219Y-49506460D01*
X81363646Y-49681795D01*
X81363647Y-49681803D01*
X81364326Y-49688256D01*
X81366331Y-49694428D01*
X81366333Y-49694435D01*
X81420813Y-49862105D01*
X81422821Y-49868284D01*
X81426068Y-49873908D01*
X81426069Y-49873910D01*
X81509070Y-50017673D01*
X81517467Y-50032216D01*
X81521811Y-50037041D01*
X81521813Y-50037043D01*
X81592650Y-50115715D01*
X81616264Y-50154249D01*
X81624500Y-50198687D01*
X81624500Y-85422225D01*
X81623978Y-85433280D01*
X81622327Y-85440667D01*
X81622571Y-85448453D01*
X81622571Y-85448461D01*
X81624439Y-85507873D01*
X81624500Y-85511768D01*
X81624500Y-86439547D01*
X81615061Y-86487000D01*
X81588181Y-86527228D01*
X78802228Y-89313181D01*
X78762000Y-89340061D01*
X78714547Y-89349500D01*
X78655354Y-89349500D01*
X78648995Y-89350851D01*
X78648991Y-89350852D01*
X78476559Y-89387503D01*
X78476552Y-89387505D01*
X78470197Y-89388856D01*
X78464262Y-89391498D01*
X78464254Y-89391501D01*
X78303207Y-89463205D01*
X78303202Y-89463207D01*
X78297270Y-89465849D01*
X78292016Y-89469665D01*
X78292011Y-89469669D01*
X78149388Y-89573290D01*
X78149381Y-89573295D01*
X78144129Y-89577112D01*
X78139784Y-89581937D01*
X78139779Y-89581942D01*
X78021813Y-89712956D01*
X78021808Y-89712962D01*
X78017467Y-89717784D01*
X78014222Y-89723404D01*
X78014218Y-89723410D01*
X77926069Y-89876089D01*
X77926066Y-89876094D01*
X77922821Y-89881716D01*
X77920815Y-89887888D01*
X77920813Y-89887894D01*
X77866333Y-90055564D01*
X77866331Y-90055573D01*
X77864326Y-90061744D01*
X77863648Y-90068194D01*
X77863646Y-90068204D01*
X77846650Y-90229925D01*
X77844540Y-90250000D01*
X77845219Y-90256460D01*
X77863646Y-90431795D01*
X77863647Y-90431803D01*
X77864326Y-90438256D01*
X77866331Y-90444428D01*
X77866333Y-90444435D01*
X77920813Y-90612105D01*
X77922821Y-90618284D01*
X78017467Y-90782216D01*
X78144129Y-90922888D01*
X78297270Y-91034151D01*
X78470197Y-91111144D01*
X78655354Y-91150500D01*
X78838143Y-91150500D01*
X78844646Y-91150500D01*
X79029803Y-91111144D01*
X79202730Y-91034151D01*
X79355871Y-90922888D01*
X79482533Y-90782216D01*
X79577179Y-90618284D01*
X79635674Y-90438256D01*
X79653321Y-90270344D01*
X79664721Y-90229925D01*
X79688958Y-90195630D01*
X82637311Y-87247278D01*
X82645481Y-87239844D01*
X82651877Y-87235786D01*
X82697918Y-87186756D01*
X82700535Y-87184054D01*
X82720120Y-87164471D01*
X82722585Y-87161292D01*
X82730167Y-87152416D01*
X82760062Y-87120582D01*
X82763824Y-87113738D01*
X82768407Y-87107431D01*
X82770312Y-87108815D01*
X82798800Y-87077255D01*
X82851831Y-87056497D01*
X82908548Y-87061632D01*
X82956988Y-87091578D01*
X95293928Y-99428519D01*
X95324178Y-99477882D01*
X95328720Y-99535598D01*
X95306565Y-99589085D01*
X95262542Y-99626685D01*
X95206247Y-99640200D01*
X80532857Y-99640200D01*
X80482419Y-99629478D01*
X80444438Y-99601881D01*
X80444250Y-99602091D01*
X80442260Y-99600299D01*
X80440705Y-99599169D01*
X80435071Y-99592912D01*
X80429813Y-99589092D01*
X80429811Y-99589090D01*
X80287188Y-99485469D01*
X80287187Y-99485468D01*
X80281930Y-99481649D01*
X80275992Y-99479005D01*
X80114945Y-99407301D01*
X80114940Y-99407299D01*
X80109003Y-99404656D01*
X80102644Y-99403304D01*
X80102640Y-99403303D01*
X79930208Y-99366652D01*
X79930205Y-99366651D01*
X79923846Y-99365300D01*
X79734554Y-99365300D01*
X79728195Y-99366651D01*
X79728191Y-99366652D01*
X79555759Y-99403303D01*
X79555752Y-99403305D01*
X79549397Y-99404656D01*
X79543462Y-99407298D01*
X79543454Y-99407301D01*
X79382407Y-99479005D01*
X79382402Y-99479007D01*
X79376470Y-99481649D01*
X79371216Y-99485465D01*
X79371211Y-99485469D01*
X79228588Y-99589090D01*
X79228581Y-99589095D01*
X79223329Y-99592912D01*
X79218984Y-99597737D01*
X79218979Y-99597742D01*
X79101013Y-99728756D01*
X79101008Y-99728762D01*
X79096667Y-99733584D01*
X79093422Y-99739204D01*
X79093418Y-99739210D01*
X79005269Y-99891889D01*
X79005266Y-99891894D01*
X79002021Y-99897516D01*
X79000015Y-99903688D01*
X79000013Y-99903694D01*
X78945533Y-100071364D01*
X78945531Y-100071373D01*
X78943526Y-100077544D01*
X78942848Y-100083994D01*
X78942846Y-100084004D01*
X78923986Y-100263461D01*
X78903466Y-100319840D01*
X78858880Y-100359985D01*
X78800665Y-100374500D01*
X65045653Y-100374500D01*
X64990227Y-100361423D01*
X64946492Y-100324951D01*
X64923670Y-100272777D01*
X64926541Y-100216594D01*
X64929138Y-100210595D01*
X64935969Y-100167456D01*
X64938339Y-100156015D01*
X64947260Y-100121274D01*
X64947259Y-100121274D01*
X64949200Y-100113719D01*
X64949200Y-100093683D01*
X64950725Y-100074297D01*
X64953860Y-100054504D01*
X64949750Y-100011024D01*
X64949200Y-99999355D01*
X64949200Y-98965298D01*
X64957436Y-98920860D01*
X64981050Y-98882326D01*
X64981250Y-98882104D01*
X65056333Y-98798716D01*
X65150979Y-98634784D01*
X65209474Y-98454756D01*
X65229260Y-98266500D01*
X65209474Y-98078244D01*
X65150979Y-97898216D01*
X65056333Y-97734284D01*
X64929671Y-97593612D01*
X64924413Y-97589792D01*
X64924411Y-97589790D01*
X64781788Y-97486169D01*
X64781787Y-97486168D01*
X64776530Y-97482349D01*
X64770592Y-97479705D01*
X64609545Y-97408001D01*
X64609540Y-97407999D01*
X64603603Y-97405356D01*
X64597244Y-97404004D01*
X64597240Y-97404003D01*
X64424808Y-97367352D01*
X64424805Y-97367351D01*
X64418446Y-97366000D01*
X64229154Y-97366000D01*
X64222795Y-97367351D01*
X64222791Y-97367352D01*
X64050359Y-97404003D01*
X64050352Y-97404005D01*
X64043997Y-97405356D01*
X64038062Y-97407998D01*
X64038054Y-97408001D01*
X63877007Y-97479705D01*
X63877002Y-97479707D01*
X63871070Y-97482349D01*
X63865816Y-97486165D01*
X63865811Y-97486169D01*
X63723188Y-97589790D01*
X63723181Y-97589795D01*
X63717929Y-97593612D01*
X63713584Y-97598437D01*
X63713579Y-97598442D01*
X63595613Y-97729456D01*
X63595608Y-97729462D01*
X63591267Y-97734284D01*
X63588022Y-97739904D01*
X63588018Y-97739910D01*
X63499869Y-97892589D01*
X63499866Y-97892594D01*
X63496621Y-97898216D01*
X63494615Y-97904388D01*
X63494613Y-97904394D01*
X63440133Y-98072064D01*
X63440131Y-98072073D01*
X63438126Y-98078244D01*
X63437448Y-98084694D01*
X63437446Y-98084704D01*
X63419762Y-98252964D01*
X63418340Y-98266500D01*
X63419019Y-98272960D01*
X63437446Y-98448295D01*
X63437447Y-98448303D01*
X63438126Y-98454756D01*
X63440131Y-98460928D01*
X63440133Y-98460935D01*
X63485156Y-98599500D01*
X63496621Y-98634784D01*
X63591267Y-98798716D01*
X63595611Y-98803541D01*
X63595613Y-98803543D01*
X63666350Y-98882104D01*
X63689964Y-98920638D01*
X63698200Y-98965076D01*
X63698200Y-99724248D01*
X63688761Y-99771701D01*
X63661881Y-99811929D01*
X59837181Y-103636627D01*
X59787818Y-103666877D01*
X59730102Y-103671419D01*
X59676615Y-103649264D01*
X59639015Y-103605241D01*
X59625500Y-103548946D01*
X59625500Y-86827775D01*
X59626021Y-86816719D01*
X59627673Y-86809333D01*
X59625561Y-86742127D01*
X59625500Y-86738232D01*
X59625500Y-86714541D01*
X59625500Y-86710650D01*
X59624998Y-86706677D01*
X59624080Y-86695018D01*
X59622954Y-86659173D01*
X59622709Y-86651373D01*
X59617120Y-86632140D01*
X59613174Y-86613083D01*
X59611641Y-86600944D01*
X59610664Y-86593208D01*
X59594582Y-86552591D01*
X59590803Y-86541551D01*
X59580795Y-86507102D01*
X59580793Y-86507099D01*
X59578618Y-86499610D01*
X59568417Y-86482360D01*
X59559863Y-86464901D01*
X59552486Y-86446268D01*
X59526808Y-86410925D01*
X59520401Y-86401171D01*
X59502142Y-86370296D01*
X59502141Y-86370294D01*
X59498170Y-86363580D01*
X59484005Y-86349415D01*
X59471366Y-86334616D01*
X59461490Y-86321022D01*
X59439336Y-86267535D01*
X59443879Y-86209821D01*
X59474127Y-86160461D01*
X60972770Y-84661819D01*
X61012999Y-84634939D01*
X61060452Y-84625500D01*
X68429151Y-84625500D01*
X68452386Y-84627696D01*
X68460412Y-84629227D01*
X68515758Y-84625745D01*
X68523545Y-84625500D01*
X68535458Y-84625500D01*
X68539350Y-84625500D01*
X68555042Y-84623517D01*
X68562769Y-84622786D01*
X68618138Y-84619304D01*
X68625898Y-84616782D01*
X68648687Y-84611688D01*
X68648805Y-84611672D01*
X68656792Y-84610664D01*
X68664046Y-84607791D01*
X68664049Y-84607791D01*
X68708377Y-84590240D01*
X68715700Y-84587603D01*
X68768441Y-84570467D01*
X68775329Y-84566094D01*
X68796133Y-84555494D01*
X68803732Y-84552486D01*
X68848631Y-84519864D01*
X68855026Y-84515517D01*
X68901877Y-84485786D01*
X68907458Y-84479841D01*
X68924983Y-84464391D01*
X68931587Y-84459594D01*
X68966941Y-84416857D01*
X68972078Y-84411029D01*
X69010062Y-84370582D01*
X69013996Y-84363426D01*
X69027122Y-84344109D01*
X69032324Y-84337823D01*
X69055948Y-84287618D01*
X69059460Y-84280724D01*
X69086197Y-84232092D01*
X69088226Y-84224185D01*
X69096139Y-84202209D01*
X69099614Y-84194826D01*
X69110010Y-84140325D01*
X69111698Y-84132768D01*
X69125500Y-84079019D01*
X69125500Y-84070849D01*
X69127696Y-84047614D01*
X69127766Y-84047246D01*
X69129227Y-84039588D01*
X69125745Y-83984241D01*
X69125500Y-83976455D01*
X69125500Y-52749500D01*
X69142113Y-52687500D01*
X69187500Y-52642113D01*
X69249500Y-52625500D01*
X70796252Y-52625500D01*
X70846685Y-52636219D01*
X70884781Y-52663895D01*
X70884950Y-52663709D01*
X70886728Y-52665310D01*
X70888398Y-52666523D01*
X70894129Y-52672888D01*
X71047270Y-52784151D01*
X71220197Y-52861144D01*
X71405354Y-52900500D01*
X71588143Y-52900500D01*
X71594646Y-52900500D01*
X71779803Y-52861144D01*
X71952730Y-52784151D01*
X72105871Y-52672888D01*
X72111601Y-52666523D01*
X72113271Y-52665310D01*
X72115050Y-52663709D01*
X72115218Y-52663895D01*
X72153315Y-52636219D01*
X72203748Y-52625500D01*
X76679151Y-52625500D01*
X76702386Y-52627696D01*
X76710412Y-52629227D01*
X76765758Y-52625745D01*
X76773545Y-52625500D01*
X76785458Y-52625500D01*
X76789350Y-52625500D01*
X76805042Y-52623517D01*
X76812769Y-52622786D01*
X76868138Y-52619304D01*
X76875898Y-52616782D01*
X76898687Y-52611688D01*
X76898805Y-52611672D01*
X76906792Y-52610664D01*
X76914046Y-52607791D01*
X76914049Y-52607791D01*
X76958377Y-52590240D01*
X76965700Y-52587603D01*
X77018441Y-52570467D01*
X77025329Y-52566094D01*
X77046133Y-52555494D01*
X77053732Y-52552486D01*
X77098631Y-52519864D01*
X77105026Y-52515517D01*
X77151877Y-52485786D01*
X77157458Y-52479841D01*
X77174983Y-52464391D01*
X77181587Y-52459594D01*
X77216941Y-52416857D01*
X77222078Y-52411029D01*
X77260062Y-52370582D01*
X77263996Y-52363426D01*
X77277122Y-52344109D01*
X77282324Y-52337823D01*
X77305948Y-52287618D01*
X77309460Y-52280724D01*
X77336197Y-52232092D01*
X77338226Y-52224185D01*
X77346139Y-52202209D01*
X77349614Y-52194826D01*
X77360010Y-52140325D01*
X77361698Y-52132768D01*
X77375500Y-52079019D01*
X77375500Y-52070849D01*
X77377696Y-52047614D01*
X77377766Y-52047246D01*
X77379227Y-52039588D01*
X77375745Y-51984241D01*
X77375500Y-51976455D01*
X77375500Y-42560452D01*
X77384939Y-42512999D01*
X77411819Y-42472771D01*
X79307463Y-40577127D01*
X85108933Y-34775655D01*
X85166614Y-34743021D01*
X85232866Y-34744756D01*
G37*
%TD.AperFunction*%
%TD*%
M02*
