M48
; DRILL file {KiCad (7.0.0)} date Sun Mar 26 07:24:26 2023
; FORMAT={-:-/ absolute / inch / decimal}
; #@! TF.CreationDate,2023-03-26T07:24:26-07:00
; #@! TF.GenerationSoftware,Kicad,Pcbnew,(7.0.0)
; #@! TF.FileFunction,Plated,1,2,PTH
FMAT,2
INCH
; #@! TA.AperFunction,Plated,PTH,ViaDrill
T1C0.0157
; #@! TA.AperFunction,Plated,PTH,ComponentDrill
T2C0.0197
; #@! TA.AperFunction,Plated,PTH,ComponentDrill
T3C0.0394
; #@! TA.AperFunction,Plated,PTH,ComponentDrill
T4C0.0433
; #@! TA.AperFunction,Plated,PTH,ComponentDrill
T5C0.0480
; #@! TA.AperFunction,Plated,PTH,ComponentDrill
T6C0.0559
; #@! TA.AperFunction,Plated,PTH,ComponentDrill
T7C0.0563
%
G90
G05
T1
X1.0236Y-1.3386
X1.0236Y-1.9587
X1.0236Y-2.2736
X1.0236Y-2.5591
X1.0236Y-2.8839
X1.0236Y-3.1988
X1.437Y-3.4744
X1.5157Y-2.0768
X1.5945Y-3.435
X1.7126Y-4.7244
X1.8559Y-3.1193
X1.9291Y-1.5256
X1.9291Y-3.3957
X2.126Y-2.0177
X2.127Y-3.4339
X2.1422Y-2.2764
X2.1457Y-3.5728
X2.1654Y-4.6358
X2.1752Y-4.3307
X2.1772Y-2.3753
X2.2244Y-3.6516
X2.3228Y-4.1043
X2.3917Y-3.6024
X2.4213Y-3.7205
X2.4291Y-4.1739
X2.5324Y-3.8688
X2.815Y-1.9488
X2.815Y-2.0472
X2.9331Y-3.5827
X3.0217Y-2.1654
X3.0709Y-4.3406
X3.1004Y-3.5531
X3.1429Y-3.9475
X3.2382Y-1.9488
X3.3465Y-1.5157
X3.3465Y-1.752
X3.3661Y-2.2835
X3.3858Y-1.3474
X3.3957Y-2.7657
X3.4055Y-2.126
X3.4154Y-2.5197
X3.4646Y-1.8012
X3.4843Y-1.4734
X3.4843Y-1.5354
X3.4843Y-2.0177
X3.4941Y-1.9193
X3.5236Y-1.3878
X3.5531Y-1.4272
X3.6024Y-2.6575
X3.6024Y-2.8642
X3.6713Y-1.4665
X3.7598Y-1.3091
X3.7598Y-3.9764
X3.7598Y-4.8031
X3.7795Y-3.2579
X3.783Y-3.7897
X3.7894Y-3.9173
X3.8091Y-2.5689
X3.8287Y-1.437
X3.8287Y-1.5354
X3.8681Y-1.5157
T2
X3.3366Y-1.5846
X3.3366Y-1.624
T3
X2.3213Y-4.9006
X2.3657Y-1.2992
X2.3657Y-1.3992
X2.4197Y-4.9006
X2.4657Y-1.2992
X2.4657Y-1.3992
X2.5181Y-4.9006
X2.5657Y-1.2992
X2.5657Y-1.3992
X2.6657Y-1.2992
X2.6657Y-1.3992
X2.7657Y-1.2992
X2.7657Y-1.3992
X2.8657Y-1.2992
X2.8657Y-1.3992
X2.9657Y-1.2992
X2.9657Y-1.3992
X3.0657Y-1.2992
X3.0657Y-1.3992
T5
X1.0728Y-5.3484
X1.4862Y-5.3484
X1.8996Y-5.3484
T6
X1.0728Y-5.2264
X1.4862Y-5.2264
X1.8996Y-5.2264
T7
X1.0728Y-4.8996
X1.4862Y-4.8996
X1.8996Y-4.8996
T4
G00X2.2307Y-5.1821
M15
G01X2.2307Y-5.2096
M16
G05
G00X2.6087Y-5.1821
M15
G01X2.6087Y-5.2096
M16
G05
T0
M30
