%TF.GenerationSoftware,KiCad,Pcbnew,(7.0.0)*%
%TF.CreationDate,2023-03-06T17:55:23-08:00*%
%TF.ProjectId,my active mult,6d792061-6374-4697-9665-206d756c742e,rev?*%
%TF.SameCoordinates,Original*%
%TF.FileFunction,Legend,Top*%
%TF.FilePolarity,Positive*%
%FSLAX46Y46*%
G04 Gerber Fmt 4.6, Leading zero omitted, Abs format (unit mm)*
G04 Created by KiCad (PCBNEW (7.0.0)) date 2023-03-06 17:55:23*
%MOMM*%
%LPD*%
G01*
G04 APERTURE LIST*
G04 Aperture macros list*
%AMRoundRect*
0 Rectangle with rounded corners*
0 $1 Rounding radius*
0 $2 $3 $4 $5 $6 $7 $8 $9 X,Y pos of 4 corners*
0 Add a 4 corners polygon primitive as box body*
4,1,4,$2,$3,$4,$5,$6,$7,$8,$9,$2,$3,0*
0 Add four circle primitives for the rounded corners*
1,1,$1+$1,$2,$3*
1,1,$1+$1,$4,$5*
1,1,$1+$1,$6,$7*
1,1,$1+$1,$8,$9*
0 Add four rect primitives between the rounded corners*
20,1,$1+$1,$2,$3,$4,$5,0*
20,1,$1+$1,$4,$5,$6,$7,0*
20,1,$1+$1,$6,$7,$8,$9,0*
20,1,$1+$1,$8,$9,$2,$3,0*%
G04 Aperture macros list end*
%ADD10C,0.150000*%
%ADD11C,0.120000*%
%ADD12R,1.830000X1.930000*%
%ADD13C,2.130000*%
%ADD14RoundRect,0.255000X0.255000X-2.245000X0.255000X2.245000X-0.255000X2.245000X-0.255000X-2.245000X0*%
%ADD15RoundRect,0.150000X-0.825000X-0.150000X0.825000X-0.150000X0.825000X0.150000X-0.825000X0.150000X0*%
%ADD16RoundRect,0.200000X-0.200000X-0.275000X0.200000X-0.275000X0.200000X0.275000X-0.200000X0.275000X0*%
%ADD17RoundRect,0.200000X0.275000X-0.200000X0.275000X0.200000X-0.275000X0.200000X-0.275000X-0.200000X0*%
%ADD18RoundRect,0.218750X-0.256250X0.218750X-0.256250X-0.218750X0.256250X-0.218750X0.256250X0.218750X0*%
G04 APERTURE END LIST*
D10*
X20892857Y-133912380D02*
X21130952Y-134912380D01*
X21130952Y-134912380D02*
X21321428Y-134198095D01*
X21321428Y-134198095D02*
X21511904Y-134912380D01*
X21511904Y-134912380D02*
X21750000Y-133912380D01*
X22130952Y-134912380D02*
X22130952Y-134245714D01*
X22130952Y-133912380D02*
X22083333Y-133960000D01*
X22083333Y-133960000D02*
X22130952Y-134007619D01*
X22130952Y-134007619D02*
X22178571Y-133960000D01*
X22178571Y-133960000D02*
X22130952Y-133912380D01*
X22130952Y-133912380D02*
X22130952Y-134007619D01*
X22559523Y-134864761D02*
X22654761Y-134912380D01*
X22654761Y-134912380D02*
X22845237Y-134912380D01*
X22845237Y-134912380D02*
X22940475Y-134864761D01*
X22940475Y-134864761D02*
X22988094Y-134769523D01*
X22988094Y-134769523D02*
X22988094Y-134721904D01*
X22988094Y-134721904D02*
X22940475Y-134626666D01*
X22940475Y-134626666D02*
X22845237Y-134579047D01*
X22845237Y-134579047D02*
X22702380Y-134579047D01*
X22702380Y-134579047D02*
X22607142Y-134531428D01*
X22607142Y-134531428D02*
X22559523Y-134436190D01*
X22559523Y-134436190D02*
X22559523Y-134388571D01*
X22559523Y-134388571D02*
X22607142Y-134293333D01*
X22607142Y-134293333D02*
X22702380Y-134245714D01*
X22702380Y-134245714D02*
X22845237Y-134245714D01*
X22845237Y-134245714D02*
X22940475Y-134293333D01*
X23969047Y-134626666D02*
X24445237Y-134626666D01*
X23873809Y-134912380D02*
X24207142Y-133912380D01*
X24207142Y-133912380D02*
X24540475Y-134912380D01*
X24873809Y-134912380D02*
X24873809Y-134245714D01*
X24873809Y-134340952D02*
X24921428Y-134293333D01*
X24921428Y-134293333D02*
X25016666Y-134245714D01*
X25016666Y-134245714D02*
X25159523Y-134245714D01*
X25159523Y-134245714D02*
X25254761Y-134293333D01*
X25254761Y-134293333D02*
X25302380Y-134388571D01*
X25302380Y-134388571D02*
X25302380Y-134912380D01*
X25302380Y-134388571D02*
X25349999Y-134293333D01*
X25349999Y-134293333D02*
X25445237Y-134245714D01*
X25445237Y-134245714D02*
X25588094Y-134245714D01*
X25588094Y-134245714D02*
X25683333Y-134293333D01*
X25683333Y-134293333D02*
X25730952Y-134388571D01*
X25730952Y-134388571D02*
X25730952Y-134912380D01*
X26635713Y-134245714D02*
X26635713Y-134912380D01*
X26207142Y-134245714D02*
X26207142Y-134769523D01*
X26207142Y-134769523D02*
X26254761Y-134864761D01*
X26254761Y-134864761D02*
X26349999Y-134912380D01*
X26349999Y-134912380D02*
X26492856Y-134912380D01*
X26492856Y-134912380D02*
X26588094Y-134864761D01*
X26588094Y-134864761D02*
X26635713Y-134817142D01*
X27254761Y-134912380D02*
X27159523Y-134864761D01*
X27159523Y-134864761D02*
X27111904Y-134769523D01*
X27111904Y-134769523D02*
X27111904Y-133912380D01*
X27492857Y-134245714D02*
X27873809Y-134245714D01*
X27635714Y-133912380D02*
X27635714Y-134769523D01*
X27635714Y-134769523D02*
X27683333Y-134864761D01*
X27683333Y-134864761D02*
X27778571Y-134912380D01*
X27778571Y-134912380D02*
X27873809Y-134912380D01*
X20892857Y-135532380D02*
X21130952Y-136532380D01*
X21130952Y-136532380D02*
X21321428Y-135818095D01*
X21321428Y-135818095D02*
X21511904Y-136532380D01*
X21511904Y-136532380D02*
X21750000Y-135532380D01*
X22130952Y-136532380D02*
X22130952Y-135865714D01*
X22130952Y-135532380D02*
X22083333Y-135580000D01*
X22083333Y-135580000D02*
X22130952Y-135627619D01*
X22130952Y-135627619D02*
X22178571Y-135580000D01*
X22178571Y-135580000D02*
X22130952Y-135532380D01*
X22130952Y-135532380D02*
X22130952Y-135627619D01*
X22559523Y-136484761D02*
X22654761Y-136532380D01*
X22654761Y-136532380D02*
X22845237Y-136532380D01*
X22845237Y-136532380D02*
X22940475Y-136484761D01*
X22940475Y-136484761D02*
X22988094Y-136389523D01*
X22988094Y-136389523D02*
X22988094Y-136341904D01*
X22988094Y-136341904D02*
X22940475Y-136246666D01*
X22940475Y-136246666D02*
X22845237Y-136199047D01*
X22845237Y-136199047D02*
X22702380Y-136199047D01*
X22702380Y-136199047D02*
X22607142Y-136151428D01*
X22607142Y-136151428D02*
X22559523Y-136056190D01*
X22559523Y-136056190D02*
X22559523Y-136008571D01*
X22559523Y-136008571D02*
X22607142Y-135913333D01*
X22607142Y-135913333D02*
X22702380Y-135865714D01*
X22702380Y-135865714D02*
X22845237Y-135865714D01*
X22845237Y-135865714D02*
X22940475Y-135913333D01*
X24016666Y-136532380D02*
X24016666Y-135532380D01*
X24016666Y-135532380D02*
X24254761Y-135532380D01*
X24254761Y-135532380D02*
X24397618Y-135580000D01*
X24397618Y-135580000D02*
X24492856Y-135675238D01*
X24492856Y-135675238D02*
X24540475Y-135770476D01*
X24540475Y-135770476D02*
X24588094Y-135960952D01*
X24588094Y-135960952D02*
X24588094Y-136103809D01*
X24588094Y-136103809D02*
X24540475Y-136294285D01*
X24540475Y-136294285D02*
X24492856Y-136389523D01*
X24492856Y-136389523D02*
X24397618Y-136484761D01*
X24397618Y-136484761D02*
X24254761Y-136532380D01*
X24254761Y-136532380D02*
X24016666Y-136532380D01*
X25397618Y-136484761D02*
X25302380Y-136532380D01*
X25302380Y-136532380D02*
X25111904Y-136532380D01*
X25111904Y-136532380D02*
X25016666Y-136484761D01*
X25016666Y-136484761D02*
X24969047Y-136389523D01*
X24969047Y-136389523D02*
X24969047Y-136008571D01*
X24969047Y-136008571D02*
X25016666Y-135913333D01*
X25016666Y-135913333D02*
X25111904Y-135865714D01*
X25111904Y-135865714D02*
X25302380Y-135865714D01*
X25302380Y-135865714D02*
X25397618Y-135913333D01*
X25397618Y-135913333D02*
X25445237Y-136008571D01*
X25445237Y-136008571D02*
X25445237Y-136103809D01*
X25445237Y-136103809D02*
X24969047Y-136199047D01*
X25826190Y-136484761D02*
X25921428Y-136532380D01*
X25921428Y-136532380D02*
X26111904Y-136532380D01*
X26111904Y-136532380D02*
X26207142Y-136484761D01*
X26207142Y-136484761D02*
X26254761Y-136389523D01*
X26254761Y-136389523D02*
X26254761Y-136341904D01*
X26254761Y-136341904D02*
X26207142Y-136246666D01*
X26207142Y-136246666D02*
X26111904Y-136199047D01*
X26111904Y-136199047D02*
X25969047Y-136199047D01*
X25969047Y-136199047D02*
X25873809Y-136151428D01*
X25873809Y-136151428D02*
X25826190Y-136056190D01*
X25826190Y-136056190D02*
X25826190Y-136008571D01*
X25826190Y-136008571D02*
X25873809Y-135913333D01*
X25873809Y-135913333D02*
X25969047Y-135865714D01*
X25969047Y-135865714D02*
X26111904Y-135865714D01*
X26111904Y-135865714D02*
X26207142Y-135913333D01*
X26683333Y-136532380D02*
X26683333Y-135865714D01*
X26683333Y-135532380D02*
X26635714Y-135580000D01*
X26635714Y-135580000D02*
X26683333Y-135627619D01*
X26683333Y-135627619D02*
X26730952Y-135580000D01*
X26730952Y-135580000D02*
X26683333Y-135532380D01*
X26683333Y-135532380D02*
X26683333Y-135627619D01*
X27588094Y-135865714D02*
X27588094Y-136675238D01*
X27588094Y-136675238D02*
X27540475Y-136770476D01*
X27540475Y-136770476D02*
X27492856Y-136818095D01*
X27492856Y-136818095D02*
X27397618Y-136865714D01*
X27397618Y-136865714D02*
X27254761Y-136865714D01*
X27254761Y-136865714D02*
X27159523Y-136818095D01*
X27588094Y-136484761D02*
X27492856Y-136532380D01*
X27492856Y-136532380D02*
X27302380Y-136532380D01*
X27302380Y-136532380D02*
X27207142Y-136484761D01*
X27207142Y-136484761D02*
X27159523Y-136437142D01*
X27159523Y-136437142D02*
X27111904Y-136341904D01*
X27111904Y-136341904D02*
X27111904Y-136056190D01*
X27111904Y-136056190D02*
X27159523Y-135960952D01*
X27159523Y-135960952D02*
X27207142Y-135913333D01*
X27207142Y-135913333D02*
X27302380Y-135865714D01*
X27302380Y-135865714D02*
X27492856Y-135865714D01*
X27492856Y-135865714D02*
X27588094Y-135913333D01*
X28064285Y-135865714D02*
X28064285Y-136532380D01*
X28064285Y-135960952D02*
X28111904Y-135913333D01*
X28111904Y-135913333D02*
X28207142Y-135865714D01*
X28207142Y-135865714D02*
X28349999Y-135865714D01*
X28349999Y-135865714D02*
X28445237Y-135913333D01*
X28445237Y-135913333D02*
X28492856Y-136008571D01*
X28492856Y-136008571D02*
X28492856Y-136532380D01*
X28921428Y-136484761D02*
X29016666Y-136532380D01*
X29016666Y-136532380D02*
X29207142Y-136532380D01*
X29207142Y-136532380D02*
X29302380Y-136484761D01*
X29302380Y-136484761D02*
X29349999Y-136389523D01*
X29349999Y-136389523D02*
X29349999Y-136341904D01*
X29349999Y-136341904D02*
X29302380Y-136246666D01*
X29302380Y-136246666D02*
X29207142Y-136199047D01*
X29207142Y-136199047D02*
X29064285Y-136199047D01*
X29064285Y-136199047D02*
X28969047Y-136151428D01*
X28969047Y-136151428D02*
X28921428Y-136056190D01*
X28921428Y-136056190D02*
X28921428Y-136008571D01*
X28921428Y-136008571D02*
X28969047Y-135913333D01*
X28969047Y-135913333D02*
X29064285Y-135865714D01*
X29064285Y-135865714D02*
X29207142Y-135865714D01*
X29207142Y-135865714D02*
X29302380Y-135913333D01*
X30330952Y-135627619D02*
X30378571Y-135580000D01*
X30378571Y-135580000D02*
X30473809Y-135532380D01*
X30473809Y-135532380D02*
X30711904Y-135532380D01*
X30711904Y-135532380D02*
X30807142Y-135580000D01*
X30807142Y-135580000D02*
X30854761Y-135627619D01*
X30854761Y-135627619D02*
X30902380Y-135722857D01*
X30902380Y-135722857D02*
X30902380Y-135818095D01*
X30902380Y-135818095D02*
X30854761Y-135960952D01*
X30854761Y-135960952D02*
X30283333Y-136532380D01*
X30283333Y-136532380D02*
X30902380Y-136532380D01*
X31521428Y-135532380D02*
X31616666Y-135532380D01*
X31616666Y-135532380D02*
X31711904Y-135580000D01*
X31711904Y-135580000D02*
X31759523Y-135627619D01*
X31759523Y-135627619D02*
X31807142Y-135722857D01*
X31807142Y-135722857D02*
X31854761Y-135913333D01*
X31854761Y-135913333D02*
X31854761Y-136151428D01*
X31854761Y-136151428D02*
X31807142Y-136341904D01*
X31807142Y-136341904D02*
X31759523Y-136437142D01*
X31759523Y-136437142D02*
X31711904Y-136484761D01*
X31711904Y-136484761D02*
X31616666Y-136532380D01*
X31616666Y-136532380D02*
X31521428Y-136532380D01*
X31521428Y-136532380D02*
X31426190Y-136484761D01*
X31426190Y-136484761D02*
X31378571Y-136437142D01*
X31378571Y-136437142D02*
X31330952Y-136341904D01*
X31330952Y-136341904D02*
X31283333Y-136151428D01*
X31283333Y-136151428D02*
X31283333Y-135913333D01*
X31283333Y-135913333D02*
X31330952Y-135722857D01*
X31330952Y-135722857D02*
X31378571Y-135627619D01*
X31378571Y-135627619D02*
X31426190Y-135580000D01*
X31426190Y-135580000D02*
X31521428Y-135532380D01*
X32235714Y-135627619D02*
X32283333Y-135580000D01*
X32283333Y-135580000D02*
X32378571Y-135532380D01*
X32378571Y-135532380D02*
X32616666Y-135532380D01*
X32616666Y-135532380D02*
X32711904Y-135580000D01*
X32711904Y-135580000D02*
X32759523Y-135627619D01*
X32759523Y-135627619D02*
X32807142Y-135722857D01*
X32807142Y-135722857D02*
X32807142Y-135818095D01*
X32807142Y-135818095D02*
X32759523Y-135960952D01*
X32759523Y-135960952D02*
X32188095Y-136532380D01*
X32188095Y-136532380D02*
X32807142Y-136532380D01*
X33140476Y-135532380D02*
X33759523Y-135532380D01*
X33759523Y-135532380D02*
X33426190Y-135913333D01*
X33426190Y-135913333D02*
X33569047Y-135913333D01*
X33569047Y-135913333D02*
X33664285Y-135960952D01*
X33664285Y-135960952D02*
X33711904Y-136008571D01*
X33711904Y-136008571D02*
X33759523Y-136103809D01*
X33759523Y-136103809D02*
X33759523Y-136341904D01*
X33759523Y-136341904D02*
X33711904Y-136437142D01*
X33711904Y-136437142D02*
X33664285Y-136484761D01*
X33664285Y-136484761D02*
X33569047Y-136532380D01*
X33569047Y-136532380D02*
X33283333Y-136532380D01*
X33283333Y-136532380D02*
X33188095Y-136484761D01*
X33188095Y-136484761D02*
X33140476Y-136437142D01*
%TO.C,J14*%
X19507380Y-100059523D02*
X20221666Y-100059523D01*
X20221666Y-100059523D02*
X20364523Y-100107142D01*
X20364523Y-100107142D02*
X20459761Y-100202380D01*
X20459761Y-100202380D02*
X20507380Y-100345237D01*
X20507380Y-100345237D02*
X20507380Y-100440475D01*
X20507380Y-99059523D02*
X20507380Y-99630951D01*
X20507380Y-99345237D02*
X19507380Y-99345237D01*
X19507380Y-99345237D02*
X19650238Y-99440475D01*
X19650238Y-99440475D02*
X19745476Y-99535713D01*
X19745476Y-99535713D02*
X19793095Y-99630951D01*
X19840714Y-98202380D02*
X20507380Y-98202380D01*
X19459761Y-98440475D02*
X20174047Y-98678570D01*
X20174047Y-98678570D02*
X20174047Y-98059523D01*
%TO.C,U2*%
X34988095Y-60967380D02*
X34988095Y-61776904D01*
X34988095Y-61776904D02*
X35035714Y-61872142D01*
X35035714Y-61872142D02*
X35083333Y-61919761D01*
X35083333Y-61919761D02*
X35178571Y-61967380D01*
X35178571Y-61967380D02*
X35369047Y-61967380D01*
X35369047Y-61967380D02*
X35464285Y-61919761D01*
X35464285Y-61919761D02*
X35511904Y-61872142D01*
X35511904Y-61872142D02*
X35559523Y-61776904D01*
X35559523Y-61776904D02*
X35559523Y-60967380D01*
X35988095Y-61062619D02*
X36035714Y-61015000D01*
X36035714Y-61015000D02*
X36130952Y-60967380D01*
X36130952Y-60967380D02*
X36369047Y-60967380D01*
X36369047Y-60967380D02*
X36464285Y-61015000D01*
X36464285Y-61015000D02*
X36511904Y-61062619D01*
X36511904Y-61062619D02*
X36559523Y-61157857D01*
X36559523Y-61157857D02*
X36559523Y-61253095D01*
X36559523Y-61253095D02*
X36511904Y-61395952D01*
X36511904Y-61395952D02*
X35940476Y-61967380D01*
X35940476Y-61967380D02*
X36559523Y-61967380D01*
%TO.C,U1*%
X34963095Y-30312380D02*
X34963095Y-31121904D01*
X34963095Y-31121904D02*
X35010714Y-31217142D01*
X35010714Y-31217142D02*
X35058333Y-31264761D01*
X35058333Y-31264761D02*
X35153571Y-31312380D01*
X35153571Y-31312380D02*
X35344047Y-31312380D01*
X35344047Y-31312380D02*
X35439285Y-31264761D01*
X35439285Y-31264761D02*
X35486904Y-31217142D01*
X35486904Y-31217142D02*
X35534523Y-31121904D01*
X35534523Y-31121904D02*
X35534523Y-30312380D01*
X36534523Y-31312380D02*
X35963095Y-31312380D01*
X36248809Y-31312380D02*
X36248809Y-30312380D01*
X36248809Y-30312380D02*
X36153571Y-30455238D01*
X36153571Y-30455238D02*
X36058333Y-30550476D01*
X36058333Y-30550476D02*
X35963095Y-30598095D01*
%TO.C,R12*%
X29282142Y-125437380D02*
X28948809Y-124961190D01*
X28710714Y-125437380D02*
X28710714Y-124437380D01*
X28710714Y-124437380D02*
X29091666Y-124437380D01*
X29091666Y-124437380D02*
X29186904Y-124485000D01*
X29186904Y-124485000D02*
X29234523Y-124532619D01*
X29234523Y-124532619D02*
X29282142Y-124627857D01*
X29282142Y-124627857D02*
X29282142Y-124770714D01*
X29282142Y-124770714D02*
X29234523Y-124865952D01*
X29234523Y-124865952D02*
X29186904Y-124913571D01*
X29186904Y-124913571D02*
X29091666Y-124961190D01*
X29091666Y-124961190D02*
X28710714Y-124961190D01*
X30234523Y-125437380D02*
X29663095Y-125437380D01*
X29948809Y-125437380D02*
X29948809Y-124437380D01*
X29948809Y-124437380D02*
X29853571Y-124580238D01*
X29853571Y-124580238D02*
X29758333Y-124675476D01*
X29758333Y-124675476D02*
X29663095Y-124723095D01*
X30615476Y-124532619D02*
X30663095Y-124485000D01*
X30663095Y-124485000D02*
X30758333Y-124437380D01*
X30758333Y-124437380D02*
X30996428Y-124437380D01*
X30996428Y-124437380D02*
X31091666Y-124485000D01*
X31091666Y-124485000D02*
X31139285Y-124532619D01*
X31139285Y-124532619D02*
X31186904Y-124627857D01*
X31186904Y-124627857D02*
X31186904Y-124723095D01*
X31186904Y-124723095D02*
X31139285Y-124865952D01*
X31139285Y-124865952D02*
X30567857Y-125437380D01*
X30567857Y-125437380D02*
X31186904Y-125437380D01*
%TO.C,R11*%
X29282142Y-115187380D02*
X28948809Y-114711190D01*
X28710714Y-115187380D02*
X28710714Y-114187380D01*
X28710714Y-114187380D02*
X29091666Y-114187380D01*
X29091666Y-114187380D02*
X29186904Y-114235000D01*
X29186904Y-114235000D02*
X29234523Y-114282619D01*
X29234523Y-114282619D02*
X29282142Y-114377857D01*
X29282142Y-114377857D02*
X29282142Y-114520714D01*
X29282142Y-114520714D02*
X29234523Y-114615952D01*
X29234523Y-114615952D02*
X29186904Y-114663571D01*
X29186904Y-114663571D02*
X29091666Y-114711190D01*
X29091666Y-114711190D02*
X28710714Y-114711190D01*
X30234523Y-115187380D02*
X29663095Y-115187380D01*
X29948809Y-115187380D02*
X29948809Y-114187380D01*
X29948809Y-114187380D02*
X29853571Y-114330238D01*
X29853571Y-114330238D02*
X29758333Y-114425476D01*
X29758333Y-114425476D02*
X29663095Y-114473095D01*
X31186904Y-115187380D02*
X30615476Y-115187380D01*
X30901190Y-115187380D02*
X30901190Y-114187380D01*
X30901190Y-114187380D02*
X30805952Y-114330238D01*
X30805952Y-114330238D02*
X30710714Y-114425476D01*
X30710714Y-114425476D02*
X30615476Y-114473095D01*
%TO.C,R10*%
X44032142Y-125687380D02*
X43698809Y-125211190D01*
X43460714Y-125687380D02*
X43460714Y-124687380D01*
X43460714Y-124687380D02*
X43841666Y-124687380D01*
X43841666Y-124687380D02*
X43936904Y-124735000D01*
X43936904Y-124735000D02*
X43984523Y-124782619D01*
X43984523Y-124782619D02*
X44032142Y-124877857D01*
X44032142Y-124877857D02*
X44032142Y-125020714D01*
X44032142Y-125020714D02*
X43984523Y-125115952D01*
X43984523Y-125115952D02*
X43936904Y-125163571D01*
X43936904Y-125163571D02*
X43841666Y-125211190D01*
X43841666Y-125211190D02*
X43460714Y-125211190D01*
X44984523Y-125687380D02*
X44413095Y-125687380D01*
X44698809Y-125687380D02*
X44698809Y-124687380D01*
X44698809Y-124687380D02*
X44603571Y-124830238D01*
X44603571Y-124830238D02*
X44508333Y-124925476D01*
X44508333Y-124925476D02*
X44413095Y-124973095D01*
X45603571Y-124687380D02*
X45698809Y-124687380D01*
X45698809Y-124687380D02*
X45794047Y-124735000D01*
X45794047Y-124735000D02*
X45841666Y-124782619D01*
X45841666Y-124782619D02*
X45889285Y-124877857D01*
X45889285Y-124877857D02*
X45936904Y-125068333D01*
X45936904Y-125068333D02*
X45936904Y-125306428D01*
X45936904Y-125306428D02*
X45889285Y-125496904D01*
X45889285Y-125496904D02*
X45841666Y-125592142D01*
X45841666Y-125592142D02*
X45794047Y-125639761D01*
X45794047Y-125639761D02*
X45698809Y-125687380D01*
X45698809Y-125687380D02*
X45603571Y-125687380D01*
X45603571Y-125687380D02*
X45508333Y-125639761D01*
X45508333Y-125639761D02*
X45460714Y-125592142D01*
X45460714Y-125592142D02*
X45413095Y-125496904D01*
X45413095Y-125496904D02*
X45365476Y-125306428D01*
X45365476Y-125306428D02*
X45365476Y-125068333D01*
X45365476Y-125068333D02*
X45413095Y-124877857D01*
X45413095Y-124877857D02*
X45460714Y-124782619D01*
X45460714Y-124782619D02*
X45508333Y-124735000D01*
X45508333Y-124735000D02*
X45603571Y-124687380D01*
%TO.C,R9*%
X47687380Y-109279166D02*
X47211190Y-109612499D01*
X47687380Y-109850594D02*
X46687380Y-109850594D01*
X46687380Y-109850594D02*
X46687380Y-109469642D01*
X46687380Y-109469642D02*
X46735000Y-109374404D01*
X46735000Y-109374404D02*
X46782619Y-109326785D01*
X46782619Y-109326785D02*
X46877857Y-109279166D01*
X46877857Y-109279166D02*
X47020714Y-109279166D01*
X47020714Y-109279166D02*
X47115952Y-109326785D01*
X47115952Y-109326785D02*
X47163571Y-109374404D01*
X47163571Y-109374404D02*
X47211190Y-109469642D01*
X47211190Y-109469642D02*
X47211190Y-109850594D01*
X47687380Y-108802975D02*
X47687380Y-108612499D01*
X47687380Y-108612499D02*
X47639761Y-108517261D01*
X47639761Y-108517261D02*
X47592142Y-108469642D01*
X47592142Y-108469642D02*
X47449285Y-108374404D01*
X47449285Y-108374404D02*
X47258809Y-108326785D01*
X47258809Y-108326785D02*
X46877857Y-108326785D01*
X46877857Y-108326785D02*
X46782619Y-108374404D01*
X46782619Y-108374404D02*
X46735000Y-108422023D01*
X46735000Y-108422023D02*
X46687380Y-108517261D01*
X46687380Y-108517261D02*
X46687380Y-108707737D01*
X46687380Y-108707737D02*
X46735000Y-108802975D01*
X46735000Y-108802975D02*
X46782619Y-108850594D01*
X46782619Y-108850594D02*
X46877857Y-108898213D01*
X46877857Y-108898213D02*
X47115952Y-108898213D01*
X47115952Y-108898213D02*
X47211190Y-108850594D01*
X47211190Y-108850594D02*
X47258809Y-108802975D01*
X47258809Y-108802975D02*
X47306428Y-108707737D01*
X47306428Y-108707737D02*
X47306428Y-108517261D01*
X47306428Y-108517261D02*
X47258809Y-108422023D01*
X47258809Y-108422023D02*
X47211190Y-108374404D01*
X47211190Y-108374404D02*
X47115952Y-108326785D01*
%TO.C,R8*%
X29508333Y-86437380D02*
X29175000Y-85961190D01*
X28936905Y-86437380D02*
X28936905Y-85437380D01*
X28936905Y-85437380D02*
X29317857Y-85437380D01*
X29317857Y-85437380D02*
X29413095Y-85485000D01*
X29413095Y-85485000D02*
X29460714Y-85532619D01*
X29460714Y-85532619D02*
X29508333Y-85627857D01*
X29508333Y-85627857D02*
X29508333Y-85770714D01*
X29508333Y-85770714D02*
X29460714Y-85865952D01*
X29460714Y-85865952D02*
X29413095Y-85913571D01*
X29413095Y-85913571D02*
X29317857Y-85961190D01*
X29317857Y-85961190D02*
X28936905Y-85961190D01*
X30079762Y-85865952D02*
X29984524Y-85818333D01*
X29984524Y-85818333D02*
X29936905Y-85770714D01*
X29936905Y-85770714D02*
X29889286Y-85675476D01*
X29889286Y-85675476D02*
X29889286Y-85627857D01*
X29889286Y-85627857D02*
X29936905Y-85532619D01*
X29936905Y-85532619D02*
X29984524Y-85485000D01*
X29984524Y-85485000D02*
X30079762Y-85437380D01*
X30079762Y-85437380D02*
X30270238Y-85437380D01*
X30270238Y-85437380D02*
X30365476Y-85485000D01*
X30365476Y-85485000D02*
X30413095Y-85532619D01*
X30413095Y-85532619D02*
X30460714Y-85627857D01*
X30460714Y-85627857D02*
X30460714Y-85675476D01*
X30460714Y-85675476D02*
X30413095Y-85770714D01*
X30413095Y-85770714D02*
X30365476Y-85818333D01*
X30365476Y-85818333D02*
X30270238Y-85865952D01*
X30270238Y-85865952D02*
X30079762Y-85865952D01*
X30079762Y-85865952D02*
X29984524Y-85913571D01*
X29984524Y-85913571D02*
X29936905Y-85961190D01*
X29936905Y-85961190D02*
X29889286Y-86056428D01*
X29889286Y-86056428D02*
X29889286Y-86246904D01*
X29889286Y-86246904D02*
X29936905Y-86342142D01*
X29936905Y-86342142D02*
X29984524Y-86389761D01*
X29984524Y-86389761D02*
X30079762Y-86437380D01*
X30079762Y-86437380D02*
X30270238Y-86437380D01*
X30270238Y-86437380D02*
X30365476Y-86389761D01*
X30365476Y-86389761D02*
X30413095Y-86342142D01*
X30413095Y-86342142D02*
X30460714Y-86246904D01*
X30460714Y-86246904D02*
X30460714Y-86056428D01*
X30460714Y-86056428D02*
X30413095Y-85961190D01*
X30413095Y-85961190D02*
X30365476Y-85913571D01*
X30365476Y-85913571D02*
X30270238Y-85865952D01*
%TO.C,R7*%
X29508333Y-75937380D02*
X29175000Y-75461190D01*
X28936905Y-75937380D02*
X28936905Y-74937380D01*
X28936905Y-74937380D02*
X29317857Y-74937380D01*
X29317857Y-74937380D02*
X29413095Y-74985000D01*
X29413095Y-74985000D02*
X29460714Y-75032619D01*
X29460714Y-75032619D02*
X29508333Y-75127857D01*
X29508333Y-75127857D02*
X29508333Y-75270714D01*
X29508333Y-75270714D02*
X29460714Y-75365952D01*
X29460714Y-75365952D02*
X29413095Y-75413571D01*
X29413095Y-75413571D02*
X29317857Y-75461190D01*
X29317857Y-75461190D02*
X28936905Y-75461190D01*
X29841667Y-74937380D02*
X30508333Y-74937380D01*
X30508333Y-74937380D02*
X30079762Y-75937380D01*
%TO.C,R6*%
X44508333Y-86187380D02*
X44175000Y-85711190D01*
X43936905Y-86187380D02*
X43936905Y-85187380D01*
X43936905Y-85187380D02*
X44317857Y-85187380D01*
X44317857Y-85187380D02*
X44413095Y-85235000D01*
X44413095Y-85235000D02*
X44460714Y-85282619D01*
X44460714Y-85282619D02*
X44508333Y-85377857D01*
X44508333Y-85377857D02*
X44508333Y-85520714D01*
X44508333Y-85520714D02*
X44460714Y-85615952D01*
X44460714Y-85615952D02*
X44413095Y-85663571D01*
X44413095Y-85663571D02*
X44317857Y-85711190D01*
X44317857Y-85711190D02*
X43936905Y-85711190D01*
X45365476Y-85187380D02*
X45175000Y-85187380D01*
X45175000Y-85187380D02*
X45079762Y-85235000D01*
X45079762Y-85235000D02*
X45032143Y-85282619D01*
X45032143Y-85282619D02*
X44936905Y-85425476D01*
X44936905Y-85425476D02*
X44889286Y-85615952D01*
X44889286Y-85615952D02*
X44889286Y-85996904D01*
X44889286Y-85996904D02*
X44936905Y-86092142D01*
X44936905Y-86092142D02*
X44984524Y-86139761D01*
X44984524Y-86139761D02*
X45079762Y-86187380D01*
X45079762Y-86187380D02*
X45270238Y-86187380D01*
X45270238Y-86187380D02*
X45365476Y-86139761D01*
X45365476Y-86139761D02*
X45413095Y-86092142D01*
X45413095Y-86092142D02*
X45460714Y-85996904D01*
X45460714Y-85996904D02*
X45460714Y-85758809D01*
X45460714Y-85758809D02*
X45413095Y-85663571D01*
X45413095Y-85663571D02*
X45365476Y-85615952D01*
X45365476Y-85615952D02*
X45270238Y-85568333D01*
X45270238Y-85568333D02*
X45079762Y-85568333D01*
X45079762Y-85568333D02*
X44984524Y-85615952D01*
X44984524Y-85615952D02*
X44936905Y-85663571D01*
X44936905Y-85663571D02*
X44889286Y-85758809D01*
%TO.C,R5*%
X46687380Y-70029166D02*
X46211190Y-70362499D01*
X46687380Y-70600594D02*
X45687380Y-70600594D01*
X45687380Y-70600594D02*
X45687380Y-70219642D01*
X45687380Y-70219642D02*
X45735000Y-70124404D01*
X45735000Y-70124404D02*
X45782619Y-70076785D01*
X45782619Y-70076785D02*
X45877857Y-70029166D01*
X45877857Y-70029166D02*
X46020714Y-70029166D01*
X46020714Y-70029166D02*
X46115952Y-70076785D01*
X46115952Y-70076785D02*
X46163571Y-70124404D01*
X46163571Y-70124404D02*
X46211190Y-70219642D01*
X46211190Y-70219642D02*
X46211190Y-70600594D01*
X45687380Y-69124404D02*
X45687380Y-69600594D01*
X45687380Y-69600594D02*
X46163571Y-69648213D01*
X46163571Y-69648213D02*
X46115952Y-69600594D01*
X46115952Y-69600594D02*
X46068333Y-69505356D01*
X46068333Y-69505356D02*
X46068333Y-69267261D01*
X46068333Y-69267261D02*
X46115952Y-69172023D01*
X46115952Y-69172023D02*
X46163571Y-69124404D01*
X46163571Y-69124404D02*
X46258809Y-69076785D01*
X46258809Y-69076785D02*
X46496904Y-69076785D01*
X46496904Y-69076785D02*
X46592142Y-69124404D01*
X46592142Y-69124404D02*
X46639761Y-69172023D01*
X46639761Y-69172023D02*
X46687380Y-69267261D01*
X46687380Y-69267261D02*
X46687380Y-69505356D01*
X46687380Y-69505356D02*
X46639761Y-69600594D01*
X46639761Y-69600594D02*
X46592142Y-69648213D01*
%TO.C,R4*%
X29258333Y-52937380D02*
X28925000Y-52461190D01*
X28686905Y-52937380D02*
X28686905Y-51937380D01*
X28686905Y-51937380D02*
X29067857Y-51937380D01*
X29067857Y-51937380D02*
X29163095Y-51985000D01*
X29163095Y-51985000D02*
X29210714Y-52032619D01*
X29210714Y-52032619D02*
X29258333Y-52127857D01*
X29258333Y-52127857D02*
X29258333Y-52270714D01*
X29258333Y-52270714D02*
X29210714Y-52365952D01*
X29210714Y-52365952D02*
X29163095Y-52413571D01*
X29163095Y-52413571D02*
X29067857Y-52461190D01*
X29067857Y-52461190D02*
X28686905Y-52461190D01*
X30115476Y-52270714D02*
X30115476Y-52937380D01*
X29877381Y-51889761D02*
X29639286Y-52604047D01*
X29639286Y-52604047D02*
X30258333Y-52604047D01*
%TO.C,R3*%
X29508333Y-42687380D02*
X29175000Y-42211190D01*
X28936905Y-42687380D02*
X28936905Y-41687380D01*
X28936905Y-41687380D02*
X29317857Y-41687380D01*
X29317857Y-41687380D02*
X29413095Y-41735000D01*
X29413095Y-41735000D02*
X29460714Y-41782619D01*
X29460714Y-41782619D02*
X29508333Y-41877857D01*
X29508333Y-41877857D02*
X29508333Y-42020714D01*
X29508333Y-42020714D02*
X29460714Y-42115952D01*
X29460714Y-42115952D02*
X29413095Y-42163571D01*
X29413095Y-42163571D02*
X29317857Y-42211190D01*
X29317857Y-42211190D02*
X28936905Y-42211190D01*
X29841667Y-41687380D02*
X30460714Y-41687380D01*
X30460714Y-41687380D02*
X30127381Y-42068333D01*
X30127381Y-42068333D02*
X30270238Y-42068333D01*
X30270238Y-42068333D02*
X30365476Y-42115952D01*
X30365476Y-42115952D02*
X30413095Y-42163571D01*
X30413095Y-42163571D02*
X30460714Y-42258809D01*
X30460714Y-42258809D02*
X30460714Y-42496904D01*
X30460714Y-42496904D02*
X30413095Y-42592142D01*
X30413095Y-42592142D02*
X30365476Y-42639761D01*
X30365476Y-42639761D02*
X30270238Y-42687380D01*
X30270238Y-42687380D02*
X29984524Y-42687380D01*
X29984524Y-42687380D02*
X29889286Y-42639761D01*
X29889286Y-42639761D02*
X29841667Y-42592142D01*
%TO.C,R2*%
X44508333Y-52937380D02*
X44175000Y-52461190D01*
X43936905Y-52937380D02*
X43936905Y-51937380D01*
X43936905Y-51937380D02*
X44317857Y-51937380D01*
X44317857Y-51937380D02*
X44413095Y-51985000D01*
X44413095Y-51985000D02*
X44460714Y-52032619D01*
X44460714Y-52032619D02*
X44508333Y-52127857D01*
X44508333Y-52127857D02*
X44508333Y-52270714D01*
X44508333Y-52270714D02*
X44460714Y-52365952D01*
X44460714Y-52365952D02*
X44413095Y-52413571D01*
X44413095Y-52413571D02*
X44317857Y-52461190D01*
X44317857Y-52461190D02*
X43936905Y-52461190D01*
X44889286Y-52032619D02*
X44936905Y-51985000D01*
X44936905Y-51985000D02*
X45032143Y-51937380D01*
X45032143Y-51937380D02*
X45270238Y-51937380D01*
X45270238Y-51937380D02*
X45365476Y-51985000D01*
X45365476Y-51985000D02*
X45413095Y-52032619D01*
X45413095Y-52032619D02*
X45460714Y-52127857D01*
X45460714Y-52127857D02*
X45460714Y-52223095D01*
X45460714Y-52223095D02*
X45413095Y-52365952D01*
X45413095Y-52365952D02*
X44841667Y-52937380D01*
X44841667Y-52937380D02*
X45460714Y-52937380D01*
%TO.C,R1*%
X46937380Y-36529166D02*
X46461190Y-36862499D01*
X46937380Y-37100594D02*
X45937380Y-37100594D01*
X45937380Y-37100594D02*
X45937380Y-36719642D01*
X45937380Y-36719642D02*
X45985000Y-36624404D01*
X45985000Y-36624404D02*
X46032619Y-36576785D01*
X46032619Y-36576785D02*
X46127857Y-36529166D01*
X46127857Y-36529166D02*
X46270714Y-36529166D01*
X46270714Y-36529166D02*
X46365952Y-36576785D01*
X46365952Y-36576785D02*
X46413571Y-36624404D01*
X46413571Y-36624404D02*
X46461190Y-36719642D01*
X46461190Y-36719642D02*
X46461190Y-37100594D01*
X46937380Y-35576785D02*
X46937380Y-36148213D01*
X46937380Y-35862499D02*
X45937380Y-35862499D01*
X45937380Y-35862499D02*
X46080238Y-35957737D01*
X46080238Y-35957737D02*
X46175476Y-36052975D01*
X46175476Y-36052975D02*
X46223095Y-36148213D01*
%TO.C,D3*%
X48547380Y-109775594D02*
X47547380Y-109775594D01*
X47547380Y-109775594D02*
X47547380Y-109537499D01*
X47547380Y-109537499D02*
X47595000Y-109394642D01*
X47595000Y-109394642D02*
X47690238Y-109299404D01*
X47690238Y-109299404D02*
X47785476Y-109251785D01*
X47785476Y-109251785D02*
X47975952Y-109204166D01*
X47975952Y-109204166D02*
X48118809Y-109204166D01*
X48118809Y-109204166D02*
X48309285Y-109251785D01*
X48309285Y-109251785D02*
X48404523Y-109299404D01*
X48404523Y-109299404D02*
X48499761Y-109394642D01*
X48499761Y-109394642D02*
X48547380Y-109537499D01*
X48547380Y-109537499D02*
X48547380Y-109775594D01*
X47547380Y-108870832D02*
X47547380Y-108251785D01*
X47547380Y-108251785D02*
X47928333Y-108585118D01*
X47928333Y-108585118D02*
X47928333Y-108442261D01*
X47928333Y-108442261D02*
X47975952Y-108347023D01*
X47975952Y-108347023D02*
X48023571Y-108299404D01*
X48023571Y-108299404D02*
X48118809Y-108251785D01*
X48118809Y-108251785D02*
X48356904Y-108251785D01*
X48356904Y-108251785D02*
X48452142Y-108299404D01*
X48452142Y-108299404D02*
X48499761Y-108347023D01*
X48499761Y-108347023D02*
X48547380Y-108442261D01*
X48547380Y-108442261D02*
X48547380Y-108727975D01*
X48547380Y-108727975D02*
X48499761Y-108823213D01*
X48499761Y-108823213D02*
X48452142Y-108870832D01*
%TO.C,D2*%
X47797380Y-70488094D02*
X46797380Y-70488094D01*
X46797380Y-70488094D02*
X46797380Y-70249999D01*
X46797380Y-70249999D02*
X46845000Y-70107142D01*
X46845000Y-70107142D02*
X46940238Y-70011904D01*
X46940238Y-70011904D02*
X47035476Y-69964285D01*
X47035476Y-69964285D02*
X47225952Y-69916666D01*
X47225952Y-69916666D02*
X47368809Y-69916666D01*
X47368809Y-69916666D02*
X47559285Y-69964285D01*
X47559285Y-69964285D02*
X47654523Y-70011904D01*
X47654523Y-70011904D02*
X47749761Y-70107142D01*
X47749761Y-70107142D02*
X47797380Y-70249999D01*
X47797380Y-70249999D02*
X47797380Y-70488094D01*
X46892619Y-69535713D02*
X46845000Y-69488094D01*
X46845000Y-69488094D02*
X46797380Y-69392856D01*
X46797380Y-69392856D02*
X46797380Y-69154761D01*
X46797380Y-69154761D02*
X46845000Y-69059523D01*
X46845000Y-69059523D02*
X46892619Y-69011904D01*
X46892619Y-69011904D02*
X46987857Y-68964285D01*
X46987857Y-68964285D02*
X47083095Y-68964285D01*
X47083095Y-68964285D02*
X47225952Y-69011904D01*
X47225952Y-69011904D02*
X47797380Y-69583332D01*
X47797380Y-69583332D02*
X47797380Y-68964285D01*
%TO.C,D1*%
X48047380Y-36988094D02*
X47047380Y-36988094D01*
X47047380Y-36988094D02*
X47047380Y-36749999D01*
X47047380Y-36749999D02*
X47095000Y-36607142D01*
X47095000Y-36607142D02*
X47190238Y-36511904D01*
X47190238Y-36511904D02*
X47285476Y-36464285D01*
X47285476Y-36464285D02*
X47475952Y-36416666D01*
X47475952Y-36416666D02*
X47618809Y-36416666D01*
X47618809Y-36416666D02*
X47809285Y-36464285D01*
X47809285Y-36464285D02*
X47904523Y-36511904D01*
X47904523Y-36511904D02*
X47999761Y-36607142D01*
X47999761Y-36607142D02*
X48047380Y-36749999D01*
X48047380Y-36749999D02*
X48047380Y-36988094D01*
X48047380Y-35464285D02*
X48047380Y-36035713D01*
X48047380Y-35749999D02*
X47047380Y-35749999D01*
X47047380Y-35749999D02*
X47190238Y-35845237D01*
X47190238Y-35845237D02*
X47285476Y-35940475D01*
X47285476Y-35940475D02*
X47333095Y-36035713D01*
D11*
%TO.C,J14*%
X25210000Y-103835000D02*
X21030000Y-103835000D01*
X21030000Y-103835000D02*
X21030000Y-94665000D01*
X21030000Y-94665000D02*
X25210000Y-94665000D01*
X45010000Y-103835000D02*
X49190000Y-103835000D01*
X49190000Y-103835000D02*
X49190000Y-94665000D01*
X49190000Y-94665000D02*
X45010000Y-94665000D01*
X25210000Y-103835000D02*
X25210000Y-105335000D01*
%TO.C,U2*%
X35750000Y-67560000D02*
X33800000Y-67560000D01*
X35750000Y-62440000D02*
X32300000Y-62440000D01*
X35750000Y-67560000D02*
X37700000Y-67560000D01*
X35750000Y-62440000D02*
X37700000Y-62440000D01*
%TO.C,U1*%
X35725000Y-36905000D02*
X33775000Y-36905000D01*
X35725000Y-31785000D02*
X32275000Y-31785000D01*
X35725000Y-36905000D02*
X37675000Y-36905000D01*
X35725000Y-31785000D02*
X37675000Y-31785000D01*
%TO.C,R12*%
X29687742Y-125977500D02*
X30162258Y-125977500D01*
X29687742Y-127022500D02*
X30162258Y-127022500D01*
%TO.C,R11*%
X29687742Y-115727500D02*
X30162258Y-115727500D01*
X29687742Y-116772500D02*
X30162258Y-116772500D01*
%TO.C,R10*%
X44437742Y-126227500D02*
X44912258Y-126227500D01*
X44437742Y-127272500D02*
X44912258Y-127272500D01*
%TO.C,R9*%
X48227500Y-109349758D02*
X48227500Y-108875242D01*
X49272500Y-109349758D02*
X49272500Y-108875242D01*
%TO.C,R8*%
X29437742Y-86977500D02*
X29912258Y-86977500D01*
X29437742Y-88022500D02*
X29912258Y-88022500D01*
%TO.C,R7*%
X29437742Y-76477500D02*
X29912258Y-76477500D01*
X29437742Y-77522500D02*
X29912258Y-77522500D01*
%TO.C,R6*%
X44437742Y-86727500D02*
X44912258Y-86727500D01*
X44437742Y-87772500D02*
X44912258Y-87772500D01*
%TO.C,R5*%
X47227500Y-70099758D02*
X47227500Y-69625242D01*
X48272500Y-70099758D02*
X48272500Y-69625242D01*
%TO.C,R4*%
X29187742Y-53477500D02*
X29662258Y-53477500D01*
X29187742Y-54522500D02*
X29662258Y-54522500D01*
%TO.C,R3*%
X29437742Y-43227500D02*
X29912258Y-43227500D01*
X29437742Y-44272500D02*
X29912258Y-44272500D01*
%TO.C,R2*%
X44437742Y-53477500D02*
X44912258Y-53477500D01*
X44437742Y-54522500D02*
X44912258Y-54522500D01*
%TO.C,R1*%
X47477500Y-36599758D02*
X47477500Y-36125242D01*
X48522500Y-36599758D02*
X48522500Y-36125242D01*
%TO.C,D3*%
X47485000Y-109837500D02*
X47485000Y-107552500D01*
X47485000Y-107552500D02*
X46015000Y-107552500D01*
X46015000Y-107552500D02*
X46015000Y-109837500D01*
%TO.C,D2*%
X46735000Y-70550000D02*
X46735000Y-68265000D01*
X46735000Y-68265000D02*
X45265000Y-68265000D01*
X45265000Y-68265000D02*
X45265000Y-70550000D01*
%TO.C,D1*%
X46985000Y-37050000D02*
X46985000Y-34765000D01*
X46985000Y-34765000D02*
X45515000Y-34765000D01*
X45515000Y-34765000D02*
X45515000Y-37050000D01*
%TD*%
%LPC*%
D12*
%TO.C,J3*%
X36719999Y-53999999D03*
D13*
X48120000Y-54000000D03*
X39820000Y-54000000D03*
%TD*%
D14*
%TO.C,J14*%
X26220000Y-103050000D03*
X28760000Y-103050000D03*
X31300000Y-103050000D03*
X33840000Y-103050000D03*
X36380000Y-103050000D03*
X38920000Y-103050000D03*
X41460000Y-103050000D03*
X44000000Y-103050000D03*
X26220000Y-95450000D03*
X28760000Y-95450000D03*
X31300000Y-95450000D03*
X33840000Y-95450000D03*
X36380000Y-95450000D03*
X38920000Y-95450000D03*
X41460000Y-95450000D03*
X44000000Y-95450000D03*
%TD*%
D15*
%TO.C,U2*%
X38225000Y-63095000D03*
X38225000Y-64365000D03*
X38225000Y-65635000D03*
X38225000Y-66905000D03*
X33275000Y-66905000D03*
X33275000Y-65635000D03*
X33275000Y-64365000D03*
X33275000Y-63095000D03*
%TD*%
%TO.C,U1*%
X38200000Y-32440000D03*
X38200000Y-33710000D03*
X38200000Y-34980000D03*
X38200000Y-36250000D03*
X33250000Y-36250000D03*
X33250000Y-34980000D03*
X33250000Y-33710000D03*
X33250000Y-32440000D03*
%TD*%
D16*
%TO.C,R12*%
X30750000Y-126500000D03*
X29100000Y-126500000D03*
%TD*%
%TO.C,R11*%
X30750000Y-116250000D03*
X29100000Y-116250000D03*
%TD*%
%TO.C,R10*%
X45500000Y-126750000D03*
X43850000Y-126750000D03*
%TD*%
D17*
%TO.C,R9*%
X48750000Y-108287500D03*
X48750000Y-109937500D03*
%TD*%
D16*
%TO.C,R8*%
X30500000Y-87500000D03*
X28850000Y-87500000D03*
%TD*%
%TO.C,R7*%
X30500000Y-77000000D03*
X28850000Y-77000000D03*
%TD*%
%TO.C,R6*%
X45500000Y-87250000D03*
X43850000Y-87250000D03*
%TD*%
D17*
%TO.C,R5*%
X47750000Y-69037500D03*
X47750000Y-70687500D03*
%TD*%
D16*
%TO.C,R4*%
X30250000Y-54000000D03*
X28600000Y-54000000D03*
%TD*%
%TO.C,R3*%
X30500000Y-43750000D03*
X28850000Y-43750000D03*
%TD*%
%TO.C,R2*%
X45500000Y-54000000D03*
X43850000Y-54000000D03*
%TD*%
D17*
%TO.C,R1*%
X48000000Y-35537500D03*
X48000000Y-37187500D03*
%TD*%
D13*
%TO.C,J13*%
X25200000Y-126500000D03*
X33500000Y-126500000D03*
D12*
X22099999Y-126499999D03*
%TD*%
D13*
%TO.C,J12*%
X25200000Y-116250000D03*
X33500000Y-116250000D03*
D12*
X22099999Y-116249999D03*
%TD*%
D13*
%TO.C,J11*%
X39820000Y-126500000D03*
X48120000Y-126500000D03*
D12*
X36719999Y-126499999D03*
%TD*%
D13*
%TO.C,J10*%
X39820000Y-116250000D03*
X48120000Y-116250000D03*
D12*
X36719999Y-116249999D03*
%TD*%
D13*
%TO.C,J9*%
X25200000Y-87500000D03*
X33500000Y-87500000D03*
D12*
X22099999Y-87499999D03*
%TD*%
D13*
%TO.C,J8*%
X25200000Y-77250000D03*
X33500000Y-77250000D03*
D12*
X22099999Y-77249999D03*
%TD*%
D13*
%TO.C,J7*%
X39830000Y-87450000D03*
X48130000Y-87450000D03*
D12*
X36729999Y-87449999D03*
%TD*%
D13*
%TO.C,J6*%
X39830000Y-77200000D03*
X48130000Y-77200000D03*
D12*
X36729999Y-77199999D03*
%TD*%
D13*
%TO.C,J5*%
X25170000Y-53950000D03*
X33470000Y-53950000D03*
D12*
X22069999Y-53949999D03*
%TD*%
D13*
%TO.C,J4*%
X25170000Y-43700000D03*
X33470000Y-43700000D03*
D12*
X22069999Y-43699999D03*
%TD*%
D13*
%TO.C,J2*%
X39820000Y-43750000D03*
X48120000Y-43750000D03*
D12*
X36719999Y-43749999D03*
%TD*%
D18*
%TO.C,D3*%
X46750000Y-109825000D03*
X46750000Y-108250000D03*
%TD*%
%TO.C,D2*%
X46000000Y-70537500D03*
X46000000Y-68962500D03*
%TD*%
%TO.C,D1*%
X46250000Y-37037500D03*
X46250000Y-35462500D03*
%TD*%
M02*
