%TF.GenerationSoftware,KiCad,Pcbnew,(7.0.0)*%
%TF.CreationDate,2023-03-06T17:55:23-08:00*%
%TF.ProjectId,my active mult,6d792061-6374-4697-9665-206d756c742e,rev?*%
%TF.SameCoordinates,Original*%
%TF.FileFunction,Profile,NP*%
%FSLAX46Y46*%
G04 Gerber Fmt 4.6, Leading zero omitted, Abs format (unit mm)*
G04 Created by KiCad (PCBNEW (7.0.0)) date 2023-03-06 17:55:23*
%MOMM*%
%LPD*%
G01*
G04 APERTURE LIST*
%TA.AperFunction,Profile*%
%ADD10C,0.100000*%
%TD*%
%TA.AperFunction,Profile*%
%ADD11C,0.500000*%
%TD*%
G04 APERTURE END LIST*
D10*
X45500000Y-109000000D02*
G75*
G03*
X45500000Y-109000000I-1000000J0D01*
G01*
X44750000Y-69750000D02*
G75*
G03*
X44750000Y-69750000I-1000000J0D01*
G01*
X45000000Y-36250000D02*
G75*
G03*
X45000000Y-36250000I-1000000J0D01*
G01*
D11*
X46500000Y-138000000D02*
X49500000Y-138000000D01*
X41500000Y-138000000D02*
X44500000Y-138000000D01*
X36500000Y-138000000D02*
X39500000Y-138000000D01*
X31500000Y-138000000D02*
X34500000Y-138000000D01*
X26500000Y-138000000D02*
X29500000Y-138000000D01*
X21500000Y-138000000D02*
X24500000Y-138000000D01*
X46500000Y-29000000D02*
X49500000Y-29000000D01*
X41500000Y-29000000D02*
X44500000Y-29000000D01*
X36500000Y-29000000D02*
X39500000Y-29000000D01*
X31500000Y-29000000D02*
X34500000Y-29000000D01*
X26500000Y-29000000D02*
X29500000Y-29000000D01*
X21500000Y-29000000D02*
X24500000Y-29000000D01*
X45400000Y-145500000D02*
G75*
G03*
X45400000Y-145500000I-1600000J0D01*
G01*
X28280000Y-145500000D02*
G75*
G03*
X28280000Y-145500000I-1600000J0D01*
G01*
X45400000Y-23000000D02*
G75*
G03*
X45400000Y-23000000I-1600000J0D01*
G01*
X28280000Y-23000000D02*
G75*
G03*
X28280000Y-23000000I-1600000J0D01*
G01*
X20000000Y-20000000D02*
X50480000Y-20000000D01*
X50480000Y-20000000D02*
X50480000Y-148500000D01*
X50480000Y-148500000D02*
X20000000Y-148500000D01*
X20000000Y-148500000D02*
X20000000Y-20000000D01*
M02*
