%TF.GenerationSoftware,KiCad,Pcbnew,(7.0.0)*%
%TF.CreationDate,2023-03-06T17:55:23-08:00*%
%TF.ProjectId,my active mult,6d792061-6374-4697-9665-206d756c742e,rev?*%
%TF.SameCoordinates,Original*%
%TF.FileFunction,Copper,L2,Bot*%
%TF.FilePolarity,Positive*%
%FSLAX46Y46*%
G04 Gerber Fmt 4.6, Leading zero omitted, Abs format (unit mm)*
G04 Created by KiCad (PCBNEW (7.0.0)) date 2023-03-06 17:55:23*
%MOMM*%
%LPD*%
G01*
G04 APERTURE LIST*
%TA.AperFunction,ComponentPad*%
%ADD10R,1.830000X1.930000*%
%TD*%
%TA.AperFunction,ComponentPad*%
%ADD11C,2.130000*%
%TD*%
%TA.AperFunction,ViaPad*%
%ADD12C,0.800000*%
%TD*%
%TA.AperFunction,Conductor*%
%ADD13C,0.250000*%
%TD*%
G04 APERTURE END LIST*
D10*
%TO.P,J3,S*%
%TO.N,GND*%
X36719999Y-53999999D03*
D11*
%TO.P,J3,T*%
%TO.N,Net-(J3-PadT)*%
X48120000Y-54000000D03*
%TO.P,J3,TN*%
%TO.N,unconnected-(J3-PadTN)*%
X39820000Y-54000000D03*
%TD*%
%TO.P,J13,TN*%
%TO.N,unconnected-(J13-PadTN)*%
X25200000Y-126500000D03*
%TO.P,J13,T*%
%TO.N,Net-(J13-PadT)*%
X33500000Y-126500000D03*
D10*
%TO.P,J13,S*%
%TO.N,GND*%
X22099999Y-126499999D03*
%TD*%
D11*
%TO.P,J12,TN*%
%TO.N,unconnected-(J12-PadTN)*%
X25200000Y-116250000D03*
%TO.P,J12,T*%
%TO.N,Net-(J12-PadT)*%
X33500000Y-116250000D03*
D10*
%TO.P,J12,S*%
%TO.N,GND*%
X22099999Y-116249999D03*
%TD*%
D11*
%TO.P,J11,TN*%
%TO.N,unconnected-(J11-PadTN)*%
X39820000Y-126500000D03*
%TO.P,J11,T*%
%TO.N,Net-(J11-PadT)*%
X48120000Y-126500000D03*
D10*
%TO.P,J11,S*%
%TO.N,GND*%
X36719999Y-126499999D03*
%TD*%
D11*
%TO.P,J10,TN*%
%TO.N,unconnected-(J10-PadTN)*%
X39820000Y-116250000D03*
%TO.P,J10,T*%
%TO.N,Net-(U2A-+)*%
X48120000Y-116250000D03*
D10*
%TO.P,J10,S*%
%TO.N,GND*%
X36719999Y-116249999D03*
%TD*%
D11*
%TO.P,J9,TN*%
%TO.N,unconnected-(J9-PadTN)*%
X25200000Y-87500000D03*
%TO.P,J9,T*%
%TO.N,Net-(J9-PadT)*%
X33500000Y-87500000D03*
D10*
%TO.P,J9,S*%
%TO.N,GND*%
X22099999Y-87499999D03*
%TD*%
D11*
%TO.P,J8,TN*%
%TO.N,unconnected-(J8-PadTN)*%
X25200000Y-77250000D03*
%TO.P,J8,T*%
%TO.N,Net-(J8-PadT)*%
X33500000Y-77250000D03*
D10*
%TO.P,J8,S*%
%TO.N,GND*%
X22099999Y-77249999D03*
%TD*%
D11*
%TO.P,J7,TN*%
%TO.N,unconnected-(J7-PadTN)*%
X39830000Y-87450000D03*
%TO.P,J7,T*%
%TO.N,Net-(J7-PadT)*%
X48130000Y-87450000D03*
D10*
%TO.P,J7,S*%
%TO.N,GND*%
X36729999Y-87449999D03*
%TD*%
D11*
%TO.P,J6,TN*%
%TO.N,unconnected-(J6-PadTN)*%
X39830000Y-77200000D03*
%TO.P,J6,T*%
%TO.N,Net-(U1B-+)*%
X48130000Y-77200000D03*
D10*
%TO.P,J6,S*%
%TO.N,GND*%
X36729999Y-77199999D03*
%TD*%
D11*
%TO.P,J5,TN*%
%TO.N,unconnected-(J5-PadTN)*%
X25170000Y-53950000D03*
%TO.P,J5,T*%
%TO.N,Net-(J5-PadT)*%
X33470000Y-53950000D03*
D10*
%TO.P,J5,S*%
%TO.N,GND*%
X22069999Y-53949999D03*
%TD*%
D11*
%TO.P,J4,TN*%
%TO.N,unconnected-(J4-PadTN)*%
X25170000Y-43700000D03*
%TO.P,J4,T*%
%TO.N,Net-(J4-PadT)*%
X33470000Y-43700000D03*
D10*
%TO.P,J4,S*%
%TO.N,GND*%
X22069999Y-43699999D03*
%TD*%
D11*
%TO.P,J2,TN*%
%TO.N,unconnected-(J2-PadTN)*%
X39820000Y-43750000D03*
%TO.P,J2,T*%
%TO.N,Net-(U1A-+)*%
X48120000Y-43750000D03*
D10*
%TO.P,J2,S*%
%TO.N,GND*%
X36719999Y-43749999D03*
%TD*%
D12*
%TO.N,Net-(D2-A)*%
X46000000Y-47000000D03*
X46000000Y-57500000D03*
X32750000Y-74500000D03*
X39000000Y-69750000D03*
%TO.N,+12V*%
X40250000Y-32250000D03*
X40500000Y-63000000D03*
X36500000Y-91500000D03*
%TO.N,-12V*%
X31000000Y-36250000D03*
X31000000Y-67000000D03*
X22500000Y-93000000D03*
%TO.N,Net-(U1A-+)*%
X35250000Y-35000000D03*
X40500000Y-36500000D03*
%TD*%
D13*
%TO.N,Net-(D2-A)*%
X46000000Y-57500000D02*
X46000000Y-47000000D01*
X37500000Y-69750000D02*
X32750000Y-74500000D01*
X39000000Y-69750000D02*
X37500000Y-69750000D01*
%TO.N,+12V*%
X41225000Y-33225000D02*
X40250000Y-32250000D01*
X41225000Y-62275000D02*
X41225000Y-33225000D01*
X40500000Y-63000000D02*
X41225000Y-62275000D01*
X40500000Y-73000000D02*
X40500000Y-63000000D01*
X38000000Y-90000000D02*
X38000000Y-75500000D01*
X38000000Y-75500000D02*
X39750000Y-73750000D01*
X39750000Y-73750000D02*
X40500000Y-73000000D01*
X36500000Y-91500000D02*
X38000000Y-90000000D01*
%TO.N,-12V*%
X31000000Y-67000000D02*
X31000000Y-36250000D01*
X31000000Y-87378513D02*
X31000000Y-67000000D01*
X25378513Y-93000000D02*
X31000000Y-87378513D01*
X22500000Y-93000000D02*
X25378513Y-93000000D01*
%TO.N,Net-(U1A-+)*%
X39000000Y-35000000D02*
X40500000Y-36500000D01*
X35250000Y-35000000D02*
X39000000Y-35000000D01*
%TD*%
%TA.AperFunction,Conductor*%
%TO.N,GND*%
G36*
X50417500Y-20017113D02*
G01*
X50462887Y-20062500D01*
X50479500Y-20124500D01*
X50479500Y-148375500D01*
X50462887Y-148437500D01*
X50417500Y-148482887D01*
X50355500Y-148499500D01*
X20124500Y-148499500D01*
X20062500Y-148482887D01*
X20017113Y-148437500D01*
X20000500Y-148375500D01*
X20000500Y-145500000D01*
X25074551Y-145500000D01*
X25094317Y-145751148D01*
X25095452Y-145755877D01*
X25095453Y-145755881D01*
X25151989Y-145991374D01*
X25151991Y-145991382D01*
X25153127Y-145996111D01*
X25249534Y-146228859D01*
X25252081Y-146233016D01*
X25252082Y-146233017D01*
X25378617Y-146439504D01*
X25378622Y-146439511D01*
X25381164Y-146443659D01*
X25384324Y-146447358D01*
X25384327Y-146447363D01*
X25534845Y-146623596D01*
X25544776Y-146635224D01*
X25548476Y-146638384D01*
X25730705Y-146794023D01*
X25736341Y-146798836D01*
X25740491Y-146801379D01*
X25740495Y-146801382D01*
X25852300Y-146869896D01*
X25951141Y-146930466D01*
X26183889Y-147026873D01*
X26428852Y-147085683D01*
X26680000Y-147105449D01*
X26931148Y-147085683D01*
X27176111Y-147026873D01*
X27408859Y-146930466D01*
X27623659Y-146798836D01*
X27815224Y-146635224D01*
X27978836Y-146443659D01*
X28110466Y-146228859D01*
X28206873Y-145996111D01*
X28265683Y-145751148D01*
X28285449Y-145500000D01*
X42194551Y-145500000D01*
X42214317Y-145751148D01*
X42215452Y-145755877D01*
X42215453Y-145755881D01*
X42271989Y-145991374D01*
X42271991Y-145991382D01*
X42273127Y-145996111D01*
X42369534Y-146228859D01*
X42372081Y-146233016D01*
X42372082Y-146233017D01*
X42498617Y-146439504D01*
X42498622Y-146439511D01*
X42501164Y-146443659D01*
X42504324Y-146447358D01*
X42504327Y-146447363D01*
X42654845Y-146623596D01*
X42664776Y-146635224D01*
X42668476Y-146638384D01*
X42850705Y-146794023D01*
X42856341Y-146798836D01*
X42860491Y-146801379D01*
X42860495Y-146801382D01*
X42972300Y-146869896D01*
X43071141Y-146930466D01*
X43303889Y-147026873D01*
X43548852Y-147085683D01*
X43800000Y-147105449D01*
X44051148Y-147085683D01*
X44296111Y-147026873D01*
X44528859Y-146930466D01*
X44743659Y-146798836D01*
X44935224Y-146635224D01*
X45098836Y-146443659D01*
X45230466Y-146228859D01*
X45326873Y-145996111D01*
X45385683Y-145751148D01*
X45405449Y-145500000D01*
X45385683Y-145248852D01*
X45326873Y-145003889D01*
X45230466Y-144771141D01*
X45098836Y-144556341D01*
X44935224Y-144364776D01*
X44931523Y-144361615D01*
X44747363Y-144204327D01*
X44747358Y-144204324D01*
X44743659Y-144201164D01*
X44739511Y-144198622D01*
X44739504Y-144198617D01*
X44533017Y-144072082D01*
X44533016Y-144072081D01*
X44528859Y-144069534D01*
X44296111Y-143973127D01*
X44291382Y-143971991D01*
X44291374Y-143971989D01*
X44055881Y-143915453D01*
X44055877Y-143915452D01*
X44051148Y-143914317D01*
X44046295Y-143913935D01*
X43804854Y-143894933D01*
X43800000Y-143894551D01*
X43795146Y-143894933D01*
X43553704Y-143913935D01*
X43553702Y-143913935D01*
X43548852Y-143914317D01*
X43544124Y-143915451D01*
X43544118Y-143915453D01*
X43308625Y-143971989D01*
X43308613Y-143971992D01*
X43303889Y-143973127D01*
X43299392Y-143974989D01*
X43299388Y-143974991D01*
X43075645Y-144067668D01*
X43075640Y-144067670D01*
X43071141Y-144069534D01*
X43066988Y-144072078D01*
X43066982Y-144072082D01*
X42860495Y-144198617D01*
X42860482Y-144198626D01*
X42856341Y-144201164D01*
X42852646Y-144204319D01*
X42852636Y-144204327D01*
X42668476Y-144361615D01*
X42668469Y-144361621D01*
X42664776Y-144364776D01*
X42661621Y-144368469D01*
X42661615Y-144368476D01*
X42504327Y-144552636D01*
X42504319Y-144552646D01*
X42501164Y-144556341D01*
X42498626Y-144560482D01*
X42498617Y-144560495D01*
X42372082Y-144766982D01*
X42372078Y-144766988D01*
X42369534Y-144771141D01*
X42367670Y-144775640D01*
X42367668Y-144775645D01*
X42274991Y-144999388D01*
X42273127Y-145003889D01*
X42271992Y-145008613D01*
X42271989Y-145008625D01*
X42215453Y-145244118D01*
X42215451Y-145244124D01*
X42214317Y-145248852D01*
X42194551Y-145500000D01*
X28285449Y-145500000D01*
X28265683Y-145248852D01*
X28206873Y-145003889D01*
X28110466Y-144771141D01*
X27978836Y-144556341D01*
X27815224Y-144364776D01*
X27811523Y-144361615D01*
X27627363Y-144204327D01*
X27627358Y-144204324D01*
X27623659Y-144201164D01*
X27619511Y-144198622D01*
X27619504Y-144198617D01*
X27413017Y-144072082D01*
X27413016Y-144072081D01*
X27408859Y-144069534D01*
X27176111Y-143973127D01*
X27171382Y-143971991D01*
X27171374Y-143971989D01*
X26935881Y-143915453D01*
X26935877Y-143915452D01*
X26931148Y-143914317D01*
X26926295Y-143913935D01*
X26684854Y-143894933D01*
X26680000Y-143894551D01*
X26675146Y-143894933D01*
X26433704Y-143913935D01*
X26433702Y-143913935D01*
X26428852Y-143914317D01*
X26424124Y-143915451D01*
X26424118Y-143915453D01*
X26188625Y-143971989D01*
X26188613Y-143971992D01*
X26183889Y-143973127D01*
X26179392Y-143974989D01*
X26179388Y-143974991D01*
X25955645Y-144067668D01*
X25955640Y-144067670D01*
X25951141Y-144069534D01*
X25946988Y-144072078D01*
X25946982Y-144072082D01*
X25740495Y-144198617D01*
X25740482Y-144198626D01*
X25736341Y-144201164D01*
X25732646Y-144204319D01*
X25732636Y-144204327D01*
X25548476Y-144361615D01*
X25548469Y-144361621D01*
X25544776Y-144364776D01*
X25541621Y-144368469D01*
X25541615Y-144368476D01*
X25384327Y-144552636D01*
X25384319Y-144552646D01*
X25381164Y-144556341D01*
X25378626Y-144560482D01*
X25378617Y-144560495D01*
X25252082Y-144766982D01*
X25252078Y-144766988D01*
X25249534Y-144771141D01*
X25247670Y-144775640D01*
X25247668Y-144775645D01*
X25154991Y-144999388D01*
X25153127Y-145003889D01*
X25151992Y-145008613D01*
X25151989Y-145008625D01*
X25095453Y-145244118D01*
X25095451Y-145244124D01*
X25094317Y-145248852D01*
X25074551Y-145500000D01*
X20000500Y-145500000D01*
X20000500Y-138000000D01*
X21499459Y-138000000D01*
X21499617Y-138000383D01*
X21499901Y-138000500D01*
X24487944Y-138000500D01*
X24500099Y-138000500D01*
X24500383Y-138000383D01*
X24500541Y-138000000D01*
X26499459Y-138000000D01*
X26499617Y-138000383D01*
X26499901Y-138000500D01*
X29487944Y-138000500D01*
X29500099Y-138000500D01*
X29500383Y-138000383D01*
X29500541Y-138000000D01*
X31499459Y-138000000D01*
X31499617Y-138000383D01*
X31499901Y-138000500D01*
X34487944Y-138000500D01*
X34500099Y-138000500D01*
X34500383Y-138000383D01*
X34500541Y-138000000D01*
X36499459Y-138000000D01*
X36499617Y-138000383D01*
X36499901Y-138000500D01*
X39487944Y-138000500D01*
X39500099Y-138000500D01*
X39500383Y-138000383D01*
X39500541Y-138000000D01*
X41499459Y-138000000D01*
X41499617Y-138000383D01*
X41499901Y-138000500D01*
X44487944Y-138000500D01*
X44500099Y-138000500D01*
X44500383Y-138000383D01*
X44500541Y-138000000D01*
X46499459Y-138000000D01*
X46499617Y-138000383D01*
X46499901Y-138000500D01*
X49487944Y-138000500D01*
X49500099Y-138000500D01*
X49500383Y-138000383D01*
X49500541Y-138000000D01*
X49500383Y-137999617D01*
X49500099Y-137999500D01*
X46499901Y-137999500D01*
X46499617Y-137999617D01*
X46499459Y-138000000D01*
X44500541Y-138000000D01*
X44500383Y-137999617D01*
X44500099Y-137999500D01*
X41499901Y-137999500D01*
X41499617Y-137999617D01*
X41499459Y-138000000D01*
X39500541Y-138000000D01*
X39500383Y-137999617D01*
X39500099Y-137999500D01*
X36499901Y-137999500D01*
X36499617Y-137999617D01*
X36499459Y-138000000D01*
X34500541Y-138000000D01*
X34500383Y-137999617D01*
X34500099Y-137999500D01*
X31499901Y-137999500D01*
X31499617Y-137999617D01*
X31499459Y-138000000D01*
X29500541Y-138000000D01*
X29500383Y-137999617D01*
X29500099Y-137999500D01*
X26499901Y-137999500D01*
X26499617Y-137999617D01*
X26499459Y-138000000D01*
X24500541Y-138000000D01*
X24500383Y-137999617D01*
X24500099Y-137999500D01*
X21499901Y-137999500D01*
X21499617Y-137999617D01*
X21499459Y-138000000D01*
X20000500Y-138000000D01*
X20000500Y-127509518D01*
X20685000Y-127509518D01*
X20685353Y-127516114D01*
X20690573Y-127564667D01*
X20694111Y-127579641D01*
X20738547Y-127698777D01*
X20746962Y-127714189D01*
X20822498Y-127815092D01*
X20834907Y-127827501D01*
X20935810Y-127903037D01*
X20951222Y-127911452D01*
X21070358Y-127955888D01*
X21085332Y-127959426D01*
X21133885Y-127964646D01*
X21140482Y-127965000D01*
X21833674Y-127965000D01*
X21846549Y-127961549D01*
X21850000Y-127948674D01*
X22350000Y-127948674D01*
X22353450Y-127961549D01*
X22366326Y-127965000D01*
X23059518Y-127965000D01*
X23066114Y-127964646D01*
X23114667Y-127959426D01*
X23129641Y-127955888D01*
X23248777Y-127911452D01*
X23264189Y-127903037D01*
X23365092Y-127827501D01*
X23377501Y-127815092D01*
X23453037Y-127714189D01*
X23461452Y-127698777D01*
X23505888Y-127579641D01*
X23509426Y-127564667D01*
X23514646Y-127516114D01*
X23515000Y-127509518D01*
X23515000Y-127146289D01*
X23533273Y-127081499D01*
X23582705Y-127035804D01*
X23648729Y-127022671D01*
X23711885Y-127045971D01*
X23753560Y-127098835D01*
X23800816Y-127212920D01*
X23929567Y-127423023D01*
X23932731Y-127426728D01*
X23932735Y-127426733D01*
X24009074Y-127516114D01*
X24089601Y-127610399D01*
X24093308Y-127613565D01*
X24273266Y-127767264D01*
X24273269Y-127767266D01*
X24276977Y-127770433D01*
X24487080Y-127899184D01*
X24714738Y-127993483D01*
X24954345Y-128051007D01*
X25200000Y-128070341D01*
X25445655Y-128051007D01*
X25685262Y-127993483D01*
X25912920Y-127899184D01*
X26123023Y-127770433D01*
X26310399Y-127610399D01*
X26470433Y-127423023D01*
X26599184Y-127212920D01*
X26693483Y-126985262D01*
X26751007Y-126745655D01*
X26770341Y-126500000D01*
X26762078Y-126395007D01*
X27078525Y-126395007D01*
X27078587Y-126400094D01*
X27078587Y-126400097D01*
X27081476Y-126636561D01*
X27081476Y-126636571D01*
X27081539Y-126641646D01*
X27082430Y-126646651D01*
X27082431Y-126646656D01*
X27123900Y-126879468D01*
X27123902Y-126879478D01*
X27124794Y-126884482D01*
X27126494Y-126889282D01*
X27205430Y-127112190D01*
X27205432Y-127112195D01*
X27207131Y-127116992D01*
X27209590Y-127121446D01*
X27291980Y-127270697D01*
X27326336Y-127332932D01*
X27479210Y-127526504D01*
X27482965Y-127529920D01*
X27482968Y-127529924D01*
X27614047Y-127649197D01*
X27661645Y-127692508D01*
X27695159Y-127714189D01*
X27851131Y-127815092D01*
X27868744Y-127826486D01*
X28094945Y-127924841D01*
X28334171Y-127984930D01*
X28580000Y-128005141D01*
X28653526Y-128003344D01*
X28898074Y-127971149D01*
X29134079Y-127899445D01*
X29355205Y-127790158D01*
X29555512Y-127646223D01*
X29729621Y-127471505D01*
X29872856Y-127270697D01*
X29981370Y-127049191D01*
X30052250Y-126812936D01*
X30083592Y-126568278D01*
X30081088Y-126500000D01*
X31929659Y-126500000D01*
X31948993Y-126745655D01*
X31950128Y-126750384D01*
X31950129Y-126750388D01*
X32005379Y-126980525D01*
X32005381Y-126980533D01*
X32006517Y-126985262D01*
X32100816Y-127212920D01*
X32229567Y-127423023D01*
X32232731Y-127426728D01*
X32232735Y-127426733D01*
X32309074Y-127516114D01*
X32389601Y-127610399D01*
X32393308Y-127613565D01*
X32573266Y-127767264D01*
X32573269Y-127767266D01*
X32576977Y-127770433D01*
X32787080Y-127899184D01*
X33014738Y-127993483D01*
X33254345Y-128051007D01*
X33500000Y-128070341D01*
X33745655Y-128051007D01*
X33985262Y-127993483D01*
X34212920Y-127899184D01*
X34423023Y-127770433D01*
X34610399Y-127610399D01*
X34770433Y-127423023D01*
X34899184Y-127212920D01*
X34993483Y-126985262D01*
X35051007Y-126745655D01*
X35057382Y-126664654D01*
X35077898Y-126605493D01*
X35124705Y-126563899D01*
X35185868Y-126550480D01*
X35245790Y-126568657D01*
X35289190Y-126613795D01*
X35305000Y-126674384D01*
X35305000Y-127509518D01*
X35305353Y-127516114D01*
X35310573Y-127564667D01*
X35314111Y-127579641D01*
X35358547Y-127698777D01*
X35366962Y-127714189D01*
X35442498Y-127815092D01*
X35454907Y-127827501D01*
X35555810Y-127903037D01*
X35571222Y-127911452D01*
X35690358Y-127955888D01*
X35705332Y-127959426D01*
X35753885Y-127964646D01*
X35760482Y-127965000D01*
X36453674Y-127965000D01*
X36466549Y-127961549D01*
X36470000Y-127948674D01*
X36970000Y-127948674D01*
X36973450Y-127961549D01*
X36986326Y-127965000D01*
X37679518Y-127965000D01*
X37686114Y-127964646D01*
X37734667Y-127959426D01*
X37749641Y-127955888D01*
X37868777Y-127911452D01*
X37884189Y-127903037D01*
X37985092Y-127827501D01*
X37997501Y-127815092D01*
X38073037Y-127714189D01*
X38081452Y-127698777D01*
X38125888Y-127579641D01*
X38129426Y-127564667D01*
X38134646Y-127516114D01*
X38135000Y-127509518D01*
X38135000Y-127146289D01*
X38153273Y-127081499D01*
X38202705Y-127035804D01*
X38268729Y-127022671D01*
X38331885Y-127045971D01*
X38373560Y-127098835D01*
X38420816Y-127212920D01*
X38549567Y-127423023D01*
X38552731Y-127426728D01*
X38552735Y-127426733D01*
X38629074Y-127516114D01*
X38709601Y-127610399D01*
X38713308Y-127613565D01*
X38893266Y-127767264D01*
X38893269Y-127767266D01*
X38896977Y-127770433D01*
X39107080Y-127899184D01*
X39334738Y-127993483D01*
X39574345Y-128051007D01*
X39820000Y-128070341D01*
X40065655Y-128051007D01*
X40305262Y-127993483D01*
X40532920Y-127899184D01*
X40743023Y-127770433D01*
X40930399Y-127610399D01*
X41090433Y-127423023D01*
X41219184Y-127212920D01*
X41313483Y-126985262D01*
X41371007Y-126745655D01*
X41390341Y-126500000D01*
X41382078Y-126395007D01*
X41698525Y-126395007D01*
X41698587Y-126400094D01*
X41698587Y-126400097D01*
X41701476Y-126636561D01*
X41701476Y-126636571D01*
X41701539Y-126641646D01*
X41702430Y-126646651D01*
X41702431Y-126646656D01*
X41743900Y-126879468D01*
X41743902Y-126879478D01*
X41744794Y-126884482D01*
X41746494Y-126889282D01*
X41825430Y-127112190D01*
X41825432Y-127112195D01*
X41827131Y-127116992D01*
X41829590Y-127121446D01*
X41911980Y-127270697D01*
X41946336Y-127332932D01*
X42099210Y-127526504D01*
X42102965Y-127529920D01*
X42102968Y-127529924D01*
X42234047Y-127649197D01*
X42281645Y-127692508D01*
X42315159Y-127714189D01*
X42471131Y-127815092D01*
X42488744Y-127826486D01*
X42714945Y-127924841D01*
X42954171Y-127984930D01*
X43200000Y-128005141D01*
X43273526Y-128003344D01*
X43518074Y-127971149D01*
X43754079Y-127899445D01*
X43975205Y-127790158D01*
X44175512Y-127646223D01*
X44349621Y-127471505D01*
X44492856Y-127270697D01*
X44601370Y-127049191D01*
X44672250Y-126812936D01*
X44703592Y-126568278D01*
X44701088Y-126500000D01*
X46549659Y-126500000D01*
X46568993Y-126745655D01*
X46570128Y-126750384D01*
X46570129Y-126750388D01*
X46625379Y-126980525D01*
X46625381Y-126980533D01*
X46626517Y-126985262D01*
X46720816Y-127212920D01*
X46849567Y-127423023D01*
X46852731Y-127426728D01*
X46852735Y-127426733D01*
X46929074Y-127516114D01*
X47009601Y-127610399D01*
X47013308Y-127613565D01*
X47193266Y-127767264D01*
X47193269Y-127767266D01*
X47196977Y-127770433D01*
X47407080Y-127899184D01*
X47634738Y-127993483D01*
X47874345Y-128051007D01*
X48120000Y-128070341D01*
X48365655Y-128051007D01*
X48605262Y-127993483D01*
X48832920Y-127899184D01*
X49043023Y-127770433D01*
X49230399Y-127610399D01*
X49390433Y-127423023D01*
X49519184Y-127212920D01*
X49613483Y-126985262D01*
X49671007Y-126745655D01*
X49690341Y-126500000D01*
X49671007Y-126254345D01*
X49613483Y-126014738D01*
X49519184Y-125787080D01*
X49390433Y-125576977D01*
X49316559Y-125490482D01*
X49233565Y-125393308D01*
X49230399Y-125389601D01*
X49160950Y-125330286D01*
X49046733Y-125232735D01*
X49046728Y-125232731D01*
X49043023Y-125229567D01*
X48832920Y-125100816D01*
X48605262Y-125006517D01*
X48600533Y-125005381D01*
X48600525Y-125005379D01*
X48370388Y-124950129D01*
X48370384Y-124950128D01*
X48365655Y-124948993D01*
X48360802Y-124948611D01*
X48124854Y-124930041D01*
X48120000Y-124929659D01*
X48115146Y-124930041D01*
X47879197Y-124948611D01*
X47879195Y-124948611D01*
X47874345Y-124948993D01*
X47869617Y-124950127D01*
X47869611Y-124950129D01*
X47639474Y-125005379D01*
X47639462Y-125005382D01*
X47634738Y-125006517D01*
X47630241Y-125008379D01*
X47630237Y-125008381D01*
X47411584Y-125098950D01*
X47411579Y-125098952D01*
X47407080Y-125100816D01*
X47402927Y-125103360D01*
X47402921Y-125103364D01*
X47201134Y-125227019D01*
X47201128Y-125227022D01*
X47196977Y-125229567D01*
X47193277Y-125232726D01*
X47193266Y-125232735D01*
X47013308Y-125386434D01*
X47013301Y-125386440D01*
X47009601Y-125389601D01*
X47006440Y-125393301D01*
X47006434Y-125393308D01*
X46852735Y-125573266D01*
X46852726Y-125573277D01*
X46849567Y-125576977D01*
X46847022Y-125581128D01*
X46847019Y-125581134D01*
X46723364Y-125782921D01*
X46723360Y-125782927D01*
X46720816Y-125787080D01*
X46718952Y-125791579D01*
X46718950Y-125791584D01*
X46651663Y-125954029D01*
X46626517Y-126014738D01*
X46625382Y-126019462D01*
X46625379Y-126019474D01*
X46570129Y-126249611D01*
X46570127Y-126249617D01*
X46568993Y-126254345D01*
X46549659Y-126500000D01*
X44701088Y-126500000D01*
X44694553Y-126321785D01*
X44645377Y-126080079D01*
X44557385Y-125849650D01*
X44432939Y-125636687D01*
X44275382Y-125446908D01*
X44140750Y-125330286D01*
X44092793Y-125288744D01*
X44092791Y-125288742D01*
X44088945Y-125285411D01*
X43924938Y-125184907D01*
X43882977Y-125159193D01*
X43882973Y-125159191D01*
X43878634Y-125156532D01*
X43873923Y-125154619D01*
X43873917Y-125154616D01*
X43654809Y-125065646D01*
X43654803Y-125065644D01*
X43650099Y-125063734D01*
X43645134Y-125062615D01*
X43414439Y-125010625D01*
X43414430Y-125010623D01*
X43409475Y-125009507D01*
X43404394Y-125009214D01*
X43168307Y-124995601D01*
X43163226Y-124995308D01*
X43158175Y-124995847D01*
X43158166Y-124995848D01*
X42923020Y-125020978D01*
X42923010Y-125020979D01*
X42917965Y-125021519D01*
X42913066Y-125022877D01*
X42913064Y-125022878D01*
X42685183Y-125086075D01*
X42685175Y-125086077D01*
X42680278Y-125087436D01*
X42675667Y-125089576D01*
X42675657Y-125089580D01*
X42461165Y-125189144D01*
X42461156Y-125189148D01*
X42456548Y-125191288D01*
X42452355Y-125194147D01*
X42452343Y-125194155D01*
X42313682Y-125288744D01*
X42252784Y-125330286D01*
X42249112Y-125333794D01*
X42249107Y-125333799D01*
X42078138Y-125497179D01*
X42078130Y-125497187D01*
X42074458Y-125500697D01*
X42071408Y-125504758D01*
X42071401Y-125504767D01*
X41929415Y-125693876D01*
X41929410Y-125693882D01*
X41926360Y-125697946D01*
X41924012Y-125702455D01*
X41924009Y-125702461D01*
X41814815Y-125912220D01*
X41814811Y-125912228D01*
X41812466Y-125916734D01*
X41810888Y-125921561D01*
X41810885Y-125921569D01*
X41737416Y-126146348D01*
X41737414Y-126146355D01*
X41735835Y-126151187D01*
X41735065Y-126156212D01*
X41735064Y-126156221D01*
X41699295Y-126389971D01*
X41699294Y-126389978D01*
X41698525Y-126395007D01*
X41382078Y-126395007D01*
X41371007Y-126254345D01*
X41313483Y-126014738D01*
X41219184Y-125787080D01*
X41090433Y-125576977D01*
X41016559Y-125490482D01*
X40933565Y-125393308D01*
X40930399Y-125389601D01*
X40860950Y-125330286D01*
X40746733Y-125232735D01*
X40746728Y-125232731D01*
X40743023Y-125229567D01*
X40532920Y-125100816D01*
X40305262Y-125006517D01*
X40300533Y-125005381D01*
X40300525Y-125005379D01*
X40070388Y-124950129D01*
X40070384Y-124950128D01*
X40065655Y-124948993D01*
X40060802Y-124948611D01*
X39824854Y-124930041D01*
X39820000Y-124929659D01*
X39815146Y-124930041D01*
X39579197Y-124948611D01*
X39579195Y-124948611D01*
X39574345Y-124948993D01*
X39569617Y-124950127D01*
X39569611Y-124950129D01*
X39339474Y-125005379D01*
X39339462Y-125005382D01*
X39334738Y-125006517D01*
X39330241Y-125008379D01*
X39330237Y-125008381D01*
X39111584Y-125098950D01*
X39111579Y-125098952D01*
X39107080Y-125100816D01*
X39102927Y-125103360D01*
X39102921Y-125103364D01*
X38901134Y-125227019D01*
X38901128Y-125227022D01*
X38896977Y-125229567D01*
X38893277Y-125232726D01*
X38893266Y-125232735D01*
X38713308Y-125386434D01*
X38713301Y-125386440D01*
X38709601Y-125389601D01*
X38706440Y-125393301D01*
X38706434Y-125393308D01*
X38552735Y-125573266D01*
X38552726Y-125573277D01*
X38549567Y-125576977D01*
X38547022Y-125581128D01*
X38547019Y-125581134D01*
X38423364Y-125782921D01*
X38423360Y-125782927D01*
X38420816Y-125787080D01*
X38418952Y-125791579D01*
X38418950Y-125791584D01*
X38373561Y-125901164D01*
X38331885Y-125954029D01*
X38268729Y-125977329D01*
X38202705Y-125964196D01*
X38153273Y-125918501D01*
X38135000Y-125853711D01*
X38135000Y-125490482D01*
X38134646Y-125483885D01*
X38129426Y-125435332D01*
X38125888Y-125420358D01*
X38081452Y-125301222D01*
X38073037Y-125285810D01*
X37997501Y-125184907D01*
X37985092Y-125172498D01*
X37884189Y-125096962D01*
X37868777Y-125088547D01*
X37749641Y-125044111D01*
X37734667Y-125040573D01*
X37686114Y-125035353D01*
X37679518Y-125035000D01*
X36986326Y-125035000D01*
X36973450Y-125038450D01*
X36970000Y-125051326D01*
X36970000Y-127948674D01*
X36470000Y-127948674D01*
X36470000Y-125051326D01*
X36466549Y-125038450D01*
X36453674Y-125035000D01*
X35760482Y-125035000D01*
X35753885Y-125035353D01*
X35705332Y-125040573D01*
X35690358Y-125044111D01*
X35571222Y-125088547D01*
X35555810Y-125096962D01*
X35454907Y-125172498D01*
X35442498Y-125184907D01*
X35366962Y-125285810D01*
X35358547Y-125301222D01*
X35314111Y-125420358D01*
X35310573Y-125435332D01*
X35305353Y-125483885D01*
X35305000Y-125490482D01*
X35305000Y-126325616D01*
X35289190Y-126386205D01*
X35245790Y-126431343D01*
X35185868Y-126449520D01*
X35124705Y-126436101D01*
X35077898Y-126394507D01*
X35057382Y-126335345D01*
X35055922Y-126316799D01*
X35051007Y-126254345D01*
X34993483Y-126014738D01*
X34899184Y-125787080D01*
X34770433Y-125576977D01*
X34696559Y-125490482D01*
X34613565Y-125393308D01*
X34610399Y-125389601D01*
X34540950Y-125330286D01*
X34426733Y-125232735D01*
X34426728Y-125232731D01*
X34423023Y-125229567D01*
X34212920Y-125100816D01*
X33985262Y-125006517D01*
X33980533Y-125005381D01*
X33980525Y-125005379D01*
X33750388Y-124950129D01*
X33750384Y-124950128D01*
X33745655Y-124948993D01*
X33740802Y-124948611D01*
X33504854Y-124930041D01*
X33500000Y-124929659D01*
X33495146Y-124930041D01*
X33259197Y-124948611D01*
X33259195Y-124948611D01*
X33254345Y-124948993D01*
X33249617Y-124950127D01*
X33249611Y-124950129D01*
X33019474Y-125005379D01*
X33019462Y-125005382D01*
X33014738Y-125006517D01*
X33010241Y-125008379D01*
X33010237Y-125008381D01*
X32791584Y-125098950D01*
X32791579Y-125098952D01*
X32787080Y-125100816D01*
X32782927Y-125103360D01*
X32782921Y-125103364D01*
X32581134Y-125227019D01*
X32581128Y-125227022D01*
X32576977Y-125229567D01*
X32573277Y-125232726D01*
X32573266Y-125232735D01*
X32393308Y-125386434D01*
X32393301Y-125386440D01*
X32389601Y-125389601D01*
X32386440Y-125393301D01*
X32386434Y-125393308D01*
X32232735Y-125573266D01*
X32232726Y-125573277D01*
X32229567Y-125576977D01*
X32227022Y-125581128D01*
X32227019Y-125581134D01*
X32103364Y-125782921D01*
X32103360Y-125782927D01*
X32100816Y-125787080D01*
X32098952Y-125791579D01*
X32098950Y-125791584D01*
X32031663Y-125954029D01*
X32006517Y-126014738D01*
X32005382Y-126019462D01*
X32005379Y-126019474D01*
X31950129Y-126249611D01*
X31950127Y-126249617D01*
X31948993Y-126254345D01*
X31929659Y-126500000D01*
X30081088Y-126500000D01*
X30074553Y-126321785D01*
X30025377Y-126080079D01*
X29937385Y-125849650D01*
X29812939Y-125636687D01*
X29655382Y-125446908D01*
X29520750Y-125330286D01*
X29472793Y-125288744D01*
X29472791Y-125288742D01*
X29468945Y-125285411D01*
X29304938Y-125184907D01*
X29262977Y-125159193D01*
X29262973Y-125159191D01*
X29258634Y-125156532D01*
X29253923Y-125154619D01*
X29253917Y-125154616D01*
X29034809Y-125065646D01*
X29034803Y-125065644D01*
X29030099Y-125063734D01*
X29025134Y-125062615D01*
X28794439Y-125010625D01*
X28794430Y-125010623D01*
X28789475Y-125009507D01*
X28784394Y-125009214D01*
X28548307Y-124995601D01*
X28543226Y-124995308D01*
X28538175Y-124995847D01*
X28538166Y-124995848D01*
X28303020Y-125020978D01*
X28303010Y-125020979D01*
X28297965Y-125021519D01*
X28293066Y-125022877D01*
X28293064Y-125022878D01*
X28065183Y-125086075D01*
X28065175Y-125086077D01*
X28060278Y-125087436D01*
X28055667Y-125089576D01*
X28055657Y-125089580D01*
X27841165Y-125189144D01*
X27841156Y-125189148D01*
X27836548Y-125191288D01*
X27832355Y-125194147D01*
X27832343Y-125194155D01*
X27693682Y-125288744D01*
X27632784Y-125330286D01*
X27629112Y-125333794D01*
X27629107Y-125333799D01*
X27458138Y-125497179D01*
X27458130Y-125497187D01*
X27454458Y-125500697D01*
X27451408Y-125504758D01*
X27451401Y-125504767D01*
X27309415Y-125693876D01*
X27309410Y-125693882D01*
X27306360Y-125697946D01*
X27304012Y-125702455D01*
X27304009Y-125702461D01*
X27194815Y-125912220D01*
X27194811Y-125912228D01*
X27192466Y-125916734D01*
X27190888Y-125921561D01*
X27190885Y-125921569D01*
X27117416Y-126146348D01*
X27117414Y-126146355D01*
X27115835Y-126151187D01*
X27115065Y-126156212D01*
X27115064Y-126156221D01*
X27079295Y-126389971D01*
X27079294Y-126389978D01*
X27078525Y-126395007D01*
X26762078Y-126395007D01*
X26751007Y-126254345D01*
X26693483Y-126014738D01*
X26599184Y-125787080D01*
X26470433Y-125576977D01*
X26396559Y-125490482D01*
X26313565Y-125393308D01*
X26310399Y-125389601D01*
X26240950Y-125330286D01*
X26126733Y-125232735D01*
X26126728Y-125232731D01*
X26123023Y-125229567D01*
X25912920Y-125100816D01*
X25685262Y-125006517D01*
X25680533Y-125005381D01*
X25680525Y-125005379D01*
X25450388Y-124950129D01*
X25450384Y-124950128D01*
X25445655Y-124948993D01*
X25440802Y-124948611D01*
X25204854Y-124930041D01*
X25200000Y-124929659D01*
X25195146Y-124930041D01*
X24959197Y-124948611D01*
X24959195Y-124948611D01*
X24954345Y-124948993D01*
X24949617Y-124950127D01*
X24949611Y-124950129D01*
X24719474Y-125005379D01*
X24719462Y-125005382D01*
X24714738Y-125006517D01*
X24710241Y-125008379D01*
X24710237Y-125008381D01*
X24491584Y-125098950D01*
X24491579Y-125098952D01*
X24487080Y-125100816D01*
X24482927Y-125103360D01*
X24482921Y-125103364D01*
X24281134Y-125227019D01*
X24281128Y-125227022D01*
X24276977Y-125229567D01*
X24273277Y-125232726D01*
X24273266Y-125232735D01*
X24093308Y-125386434D01*
X24093301Y-125386440D01*
X24089601Y-125389601D01*
X24086440Y-125393301D01*
X24086434Y-125393308D01*
X23932735Y-125573266D01*
X23932726Y-125573277D01*
X23929567Y-125576977D01*
X23927022Y-125581128D01*
X23927019Y-125581134D01*
X23803364Y-125782921D01*
X23803360Y-125782927D01*
X23800816Y-125787080D01*
X23798952Y-125791579D01*
X23798950Y-125791584D01*
X23753561Y-125901164D01*
X23711885Y-125954029D01*
X23648729Y-125977329D01*
X23582705Y-125964196D01*
X23533273Y-125918501D01*
X23515000Y-125853711D01*
X23515000Y-125490482D01*
X23514646Y-125483885D01*
X23509426Y-125435332D01*
X23505888Y-125420358D01*
X23461452Y-125301222D01*
X23453037Y-125285810D01*
X23377501Y-125184907D01*
X23365092Y-125172498D01*
X23264189Y-125096962D01*
X23248777Y-125088547D01*
X23129641Y-125044111D01*
X23114667Y-125040573D01*
X23066114Y-125035353D01*
X23059518Y-125035000D01*
X22366326Y-125035000D01*
X22353450Y-125038450D01*
X22350000Y-125051326D01*
X22350000Y-127948674D01*
X21850000Y-127948674D01*
X21850000Y-126766326D01*
X21846549Y-126753450D01*
X21833674Y-126750000D01*
X20701326Y-126750000D01*
X20688450Y-126753450D01*
X20685000Y-126766326D01*
X20685000Y-127509518D01*
X20000500Y-127509518D01*
X20000500Y-126233674D01*
X20685000Y-126233674D01*
X20688450Y-126246549D01*
X20701326Y-126250000D01*
X21833674Y-126250000D01*
X21846549Y-126246549D01*
X21850000Y-126233674D01*
X21850000Y-125051326D01*
X21846549Y-125038450D01*
X21833674Y-125035000D01*
X21140482Y-125035000D01*
X21133885Y-125035353D01*
X21085332Y-125040573D01*
X21070358Y-125044111D01*
X20951222Y-125088547D01*
X20935810Y-125096962D01*
X20834907Y-125172498D01*
X20822498Y-125184907D01*
X20746962Y-125285810D01*
X20738547Y-125301222D01*
X20694111Y-125420358D01*
X20690573Y-125435332D01*
X20685353Y-125483885D01*
X20685000Y-125490482D01*
X20685000Y-126233674D01*
X20000500Y-126233674D01*
X20000500Y-117259518D01*
X20685000Y-117259518D01*
X20685353Y-117266114D01*
X20690573Y-117314667D01*
X20694111Y-117329641D01*
X20738547Y-117448777D01*
X20746962Y-117464189D01*
X20822498Y-117565092D01*
X20834907Y-117577501D01*
X20935810Y-117653037D01*
X20951222Y-117661452D01*
X21070358Y-117705888D01*
X21085332Y-117709426D01*
X21133885Y-117714646D01*
X21140482Y-117715000D01*
X21833674Y-117715000D01*
X21846549Y-117711549D01*
X21850000Y-117698674D01*
X22350000Y-117698674D01*
X22353450Y-117711549D01*
X22366326Y-117715000D01*
X23059518Y-117715000D01*
X23066114Y-117714646D01*
X23114667Y-117709426D01*
X23129641Y-117705888D01*
X23248777Y-117661452D01*
X23264189Y-117653037D01*
X23365092Y-117577501D01*
X23377501Y-117565092D01*
X23453037Y-117464189D01*
X23461452Y-117448777D01*
X23505888Y-117329641D01*
X23509426Y-117314667D01*
X23514646Y-117266114D01*
X23515000Y-117259518D01*
X23515000Y-116896289D01*
X23533273Y-116831499D01*
X23582705Y-116785804D01*
X23648729Y-116772671D01*
X23711885Y-116795971D01*
X23753560Y-116848835D01*
X23800816Y-116962920D01*
X23929567Y-117173023D01*
X23932731Y-117176728D01*
X23932735Y-117176733D01*
X24009074Y-117266114D01*
X24089601Y-117360399D01*
X24093308Y-117363565D01*
X24273266Y-117517264D01*
X24273269Y-117517266D01*
X24276977Y-117520433D01*
X24487080Y-117649184D01*
X24714738Y-117743483D01*
X24954345Y-117801007D01*
X25200000Y-117820341D01*
X25445655Y-117801007D01*
X25685262Y-117743483D01*
X25912920Y-117649184D01*
X26123023Y-117520433D01*
X26310399Y-117360399D01*
X26470433Y-117173023D01*
X26599184Y-116962920D01*
X26693483Y-116735262D01*
X26751007Y-116495655D01*
X26770341Y-116250000D01*
X26762078Y-116145007D01*
X27078525Y-116145007D01*
X27078587Y-116150094D01*
X27078587Y-116150097D01*
X27081476Y-116386561D01*
X27081476Y-116386571D01*
X27081539Y-116391646D01*
X27082430Y-116396651D01*
X27082431Y-116396656D01*
X27123900Y-116629468D01*
X27123902Y-116629478D01*
X27124794Y-116634482D01*
X27126494Y-116639282D01*
X27205430Y-116862190D01*
X27205432Y-116862195D01*
X27207131Y-116866992D01*
X27209590Y-116871446D01*
X27291980Y-117020697D01*
X27326336Y-117082932D01*
X27479210Y-117276504D01*
X27482965Y-117279920D01*
X27482968Y-117279924D01*
X27614047Y-117399197D01*
X27661645Y-117442508D01*
X27695159Y-117464189D01*
X27851131Y-117565092D01*
X27868744Y-117576486D01*
X28094945Y-117674841D01*
X28334171Y-117734930D01*
X28580000Y-117755141D01*
X28653526Y-117753344D01*
X28898074Y-117721149D01*
X29134079Y-117649445D01*
X29355205Y-117540158D01*
X29555512Y-117396223D01*
X29729621Y-117221505D01*
X29872856Y-117020697D01*
X29981370Y-116799191D01*
X30052250Y-116562936D01*
X30083592Y-116318278D01*
X30081088Y-116250000D01*
X31929659Y-116250000D01*
X31948993Y-116495655D01*
X31950128Y-116500384D01*
X31950129Y-116500388D01*
X32005379Y-116730525D01*
X32005381Y-116730533D01*
X32006517Y-116735262D01*
X32100816Y-116962920D01*
X32229567Y-117173023D01*
X32232731Y-117176728D01*
X32232735Y-117176733D01*
X32309074Y-117266114D01*
X32389601Y-117360399D01*
X32393308Y-117363565D01*
X32573266Y-117517264D01*
X32573269Y-117517266D01*
X32576977Y-117520433D01*
X32787080Y-117649184D01*
X33014738Y-117743483D01*
X33254345Y-117801007D01*
X33500000Y-117820341D01*
X33745655Y-117801007D01*
X33985262Y-117743483D01*
X34212920Y-117649184D01*
X34423023Y-117520433D01*
X34610399Y-117360399D01*
X34770433Y-117173023D01*
X34899184Y-116962920D01*
X34993483Y-116735262D01*
X35051007Y-116495655D01*
X35057382Y-116414654D01*
X35077898Y-116355493D01*
X35124705Y-116313899D01*
X35185868Y-116300480D01*
X35245790Y-116318657D01*
X35289190Y-116363795D01*
X35305000Y-116424384D01*
X35305000Y-117259518D01*
X35305353Y-117266114D01*
X35310573Y-117314667D01*
X35314111Y-117329641D01*
X35358547Y-117448777D01*
X35366962Y-117464189D01*
X35442498Y-117565092D01*
X35454907Y-117577501D01*
X35555810Y-117653037D01*
X35571222Y-117661452D01*
X35690358Y-117705888D01*
X35705332Y-117709426D01*
X35753885Y-117714646D01*
X35760482Y-117715000D01*
X36453674Y-117715000D01*
X36466549Y-117711549D01*
X36470000Y-117698674D01*
X36970000Y-117698674D01*
X36973450Y-117711549D01*
X36986326Y-117715000D01*
X37679518Y-117715000D01*
X37686114Y-117714646D01*
X37734667Y-117709426D01*
X37749641Y-117705888D01*
X37868777Y-117661452D01*
X37884189Y-117653037D01*
X37985092Y-117577501D01*
X37997501Y-117565092D01*
X38073037Y-117464189D01*
X38081452Y-117448777D01*
X38125888Y-117329641D01*
X38129426Y-117314667D01*
X38134646Y-117266114D01*
X38135000Y-117259518D01*
X38135000Y-116896289D01*
X38153273Y-116831499D01*
X38202705Y-116785804D01*
X38268729Y-116772671D01*
X38331885Y-116795971D01*
X38373560Y-116848835D01*
X38420816Y-116962920D01*
X38549567Y-117173023D01*
X38552731Y-117176728D01*
X38552735Y-117176733D01*
X38629074Y-117266114D01*
X38709601Y-117360399D01*
X38713308Y-117363565D01*
X38893266Y-117517264D01*
X38893269Y-117517266D01*
X38896977Y-117520433D01*
X39107080Y-117649184D01*
X39334738Y-117743483D01*
X39574345Y-117801007D01*
X39820000Y-117820341D01*
X40065655Y-117801007D01*
X40305262Y-117743483D01*
X40532920Y-117649184D01*
X40743023Y-117520433D01*
X40930399Y-117360399D01*
X41090433Y-117173023D01*
X41219184Y-116962920D01*
X41313483Y-116735262D01*
X41371007Y-116495655D01*
X41390341Y-116250000D01*
X41382078Y-116145007D01*
X41698525Y-116145007D01*
X41698587Y-116150094D01*
X41698587Y-116150097D01*
X41701476Y-116386561D01*
X41701476Y-116386571D01*
X41701539Y-116391646D01*
X41702430Y-116396651D01*
X41702431Y-116396656D01*
X41743900Y-116629468D01*
X41743902Y-116629478D01*
X41744794Y-116634482D01*
X41746494Y-116639282D01*
X41825430Y-116862190D01*
X41825432Y-116862195D01*
X41827131Y-116866992D01*
X41829590Y-116871446D01*
X41911980Y-117020697D01*
X41946336Y-117082932D01*
X42099210Y-117276504D01*
X42102965Y-117279920D01*
X42102968Y-117279924D01*
X42234047Y-117399197D01*
X42281645Y-117442508D01*
X42315159Y-117464189D01*
X42471131Y-117565092D01*
X42488744Y-117576486D01*
X42714945Y-117674841D01*
X42954171Y-117734930D01*
X43200000Y-117755141D01*
X43273526Y-117753344D01*
X43518074Y-117721149D01*
X43754079Y-117649445D01*
X43975205Y-117540158D01*
X44175512Y-117396223D01*
X44349621Y-117221505D01*
X44492856Y-117020697D01*
X44601370Y-116799191D01*
X44672250Y-116562936D01*
X44703592Y-116318278D01*
X44701088Y-116250000D01*
X46549659Y-116250000D01*
X46568993Y-116495655D01*
X46570128Y-116500384D01*
X46570129Y-116500388D01*
X46625379Y-116730525D01*
X46625381Y-116730533D01*
X46626517Y-116735262D01*
X46720816Y-116962920D01*
X46849567Y-117173023D01*
X46852731Y-117176728D01*
X46852735Y-117176733D01*
X46929074Y-117266114D01*
X47009601Y-117360399D01*
X47013308Y-117363565D01*
X47193266Y-117517264D01*
X47193269Y-117517266D01*
X47196977Y-117520433D01*
X47407080Y-117649184D01*
X47634738Y-117743483D01*
X47874345Y-117801007D01*
X48120000Y-117820341D01*
X48365655Y-117801007D01*
X48605262Y-117743483D01*
X48832920Y-117649184D01*
X49043023Y-117520433D01*
X49230399Y-117360399D01*
X49390433Y-117173023D01*
X49519184Y-116962920D01*
X49613483Y-116735262D01*
X49671007Y-116495655D01*
X49690341Y-116250000D01*
X49671007Y-116004345D01*
X49613483Y-115764738D01*
X49519184Y-115537080D01*
X49390433Y-115326977D01*
X49316559Y-115240482D01*
X49233565Y-115143308D01*
X49230399Y-115139601D01*
X49160950Y-115080286D01*
X49046733Y-114982735D01*
X49046728Y-114982731D01*
X49043023Y-114979567D01*
X48832920Y-114850816D01*
X48605262Y-114756517D01*
X48600533Y-114755381D01*
X48600525Y-114755379D01*
X48370388Y-114700129D01*
X48370384Y-114700128D01*
X48365655Y-114698993D01*
X48360802Y-114698611D01*
X48124854Y-114680041D01*
X48120000Y-114679659D01*
X48115146Y-114680041D01*
X47879197Y-114698611D01*
X47879195Y-114698611D01*
X47874345Y-114698993D01*
X47869617Y-114700127D01*
X47869611Y-114700129D01*
X47639474Y-114755379D01*
X47639462Y-114755382D01*
X47634738Y-114756517D01*
X47630241Y-114758379D01*
X47630237Y-114758381D01*
X47411584Y-114848950D01*
X47411579Y-114848952D01*
X47407080Y-114850816D01*
X47402927Y-114853360D01*
X47402921Y-114853364D01*
X47201134Y-114977019D01*
X47201128Y-114977022D01*
X47196977Y-114979567D01*
X47193277Y-114982726D01*
X47193266Y-114982735D01*
X47013308Y-115136434D01*
X47013301Y-115136440D01*
X47009601Y-115139601D01*
X47006440Y-115143301D01*
X47006434Y-115143308D01*
X46852735Y-115323266D01*
X46852726Y-115323277D01*
X46849567Y-115326977D01*
X46847022Y-115331128D01*
X46847019Y-115331134D01*
X46723364Y-115532921D01*
X46723360Y-115532927D01*
X46720816Y-115537080D01*
X46718952Y-115541579D01*
X46718950Y-115541584D01*
X46651663Y-115704029D01*
X46626517Y-115764738D01*
X46625382Y-115769462D01*
X46625379Y-115769474D01*
X46570129Y-115999611D01*
X46570127Y-115999617D01*
X46568993Y-116004345D01*
X46549659Y-116250000D01*
X44701088Y-116250000D01*
X44694553Y-116071785D01*
X44645377Y-115830079D01*
X44557385Y-115599650D01*
X44432939Y-115386687D01*
X44275382Y-115196908D01*
X44140750Y-115080286D01*
X44092793Y-115038744D01*
X44092791Y-115038742D01*
X44088945Y-115035411D01*
X43924938Y-114934907D01*
X43882977Y-114909193D01*
X43882973Y-114909191D01*
X43878634Y-114906532D01*
X43873923Y-114904619D01*
X43873917Y-114904616D01*
X43654809Y-114815646D01*
X43654803Y-114815644D01*
X43650099Y-114813734D01*
X43645134Y-114812615D01*
X43414439Y-114760625D01*
X43414430Y-114760623D01*
X43409475Y-114759507D01*
X43404394Y-114759214D01*
X43168307Y-114745601D01*
X43163226Y-114745308D01*
X43158175Y-114745847D01*
X43158166Y-114745848D01*
X42923020Y-114770978D01*
X42923010Y-114770979D01*
X42917965Y-114771519D01*
X42913066Y-114772877D01*
X42913064Y-114772878D01*
X42685183Y-114836075D01*
X42685175Y-114836077D01*
X42680278Y-114837436D01*
X42675667Y-114839576D01*
X42675657Y-114839580D01*
X42461165Y-114939144D01*
X42461156Y-114939148D01*
X42456548Y-114941288D01*
X42452355Y-114944147D01*
X42452343Y-114944155D01*
X42313682Y-115038744D01*
X42252784Y-115080286D01*
X42249112Y-115083794D01*
X42249107Y-115083799D01*
X42078138Y-115247179D01*
X42078130Y-115247187D01*
X42074458Y-115250697D01*
X42071408Y-115254758D01*
X42071401Y-115254767D01*
X41929415Y-115443876D01*
X41929410Y-115443882D01*
X41926360Y-115447946D01*
X41924012Y-115452455D01*
X41924009Y-115452461D01*
X41814815Y-115662220D01*
X41814811Y-115662228D01*
X41812466Y-115666734D01*
X41810888Y-115671561D01*
X41810885Y-115671569D01*
X41737416Y-115896348D01*
X41737414Y-115896355D01*
X41735835Y-115901187D01*
X41735065Y-115906212D01*
X41735064Y-115906221D01*
X41699295Y-116139971D01*
X41699294Y-116139978D01*
X41698525Y-116145007D01*
X41382078Y-116145007D01*
X41371007Y-116004345D01*
X41313483Y-115764738D01*
X41219184Y-115537080D01*
X41090433Y-115326977D01*
X41016559Y-115240482D01*
X40933565Y-115143308D01*
X40930399Y-115139601D01*
X40860950Y-115080286D01*
X40746733Y-114982735D01*
X40746728Y-114982731D01*
X40743023Y-114979567D01*
X40532920Y-114850816D01*
X40305262Y-114756517D01*
X40300533Y-114755381D01*
X40300525Y-114755379D01*
X40070388Y-114700129D01*
X40070384Y-114700128D01*
X40065655Y-114698993D01*
X40060802Y-114698611D01*
X39824854Y-114680041D01*
X39820000Y-114679659D01*
X39815146Y-114680041D01*
X39579197Y-114698611D01*
X39579195Y-114698611D01*
X39574345Y-114698993D01*
X39569617Y-114700127D01*
X39569611Y-114700129D01*
X39339474Y-114755379D01*
X39339462Y-114755382D01*
X39334738Y-114756517D01*
X39330241Y-114758379D01*
X39330237Y-114758381D01*
X39111584Y-114848950D01*
X39111579Y-114848952D01*
X39107080Y-114850816D01*
X39102927Y-114853360D01*
X39102921Y-114853364D01*
X38901134Y-114977019D01*
X38901128Y-114977022D01*
X38896977Y-114979567D01*
X38893277Y-114982726D01*
X38893266Y-114982735D01*
X38713308Y-115136434D01*
X38713301Y-115136440D01*
X38709601Y-115139601D01*
X38706440Y-115143301D01*
X38706434Y-115143308D01*
X38552735Y-115323266D01*
X38552726Y-115323277D01*
X38549567Y-115326977D01*
X38547022Y-115331128D01*
X38547019Y-115331134D01*
X38423364Y-115532921D01*
X38423360Y-115532927D01*
X38420816Y-115537080D01*
X38418952Y-115541579D01*
X38418950Y-115541584D01*
X38373561Y-115651164D01*
X38331885Y-115704029D01*
X38268729Y-115727329D01*
X38202705Y-115714196D01*
X38153273Y-115668501D01*
X38135000Y-115603711D01*
X38135000Y-115240482D01*
X38134646Y-115233885D01*
X38129426Y-115185332D01*
X38125888Y-115170358D01*
X38081452Y-115051222D01*
X38073037Y-115035810D01*
X37997501Y-114934907D01*
X37985092Y-114922498D01*
X37884189Y-114846962D01*
X37868777Y-114838547D01*
X37749641Y-114794111D01*
X37734667Y-114790573D01*
X37686114Y-114785353D01*
X37679518Y-114785000D01*
X36986326Y-114785000D01*
X36973450Y-114788450D01*
X36970000Y-114801326D01*
X36970000Y-117698674D01*
X36470000Y-117698674D01*
X36470000Y-114801326D01*
X36466549Y-114788450D01*
X36453674Y-114785000D01*
X35760482Y-114785000D01*
X35753885Y-114785353D01*
X35705332Y-114790573D01*
X35690358Y-114794111D01*
X35571222Y-114838547D01*
X35555810Y-114846962D01*
X35454907Y-114922498D01*
X35442498Y-114934907D01*
X35366962Y-115035810D01*
X35358547Y-115051222D01*
X35314111Y-115170358D01*
X35310573Y-115185332D01*
X35305353Y-115233885D01*
X35305000Y-115240482D01*
X35305000Y-116075616D01*
X35289190Y-116136205D01*
X35245790Y-116181343D01*
X35185868Y-116199520D01*
X35124705Y-116186101D01*
X35077898Y-116144507D01*
X35057382Y-116085345D01*
X35055922Y-116066799D01*
X35051007Y-116004345D01*
X34993483Y-115764738D01*
X34899184Y-115537080D01*
X34770433Y-115326977D01*
X34696559Y-115240482D01*
X34613565Y-115143308D01*
X34610399Y-115139601D01*
X34540950Y-115080286D01*
X34426733Y-114982735D01*
X34426728Y-114982731D01*
X34423023Y-114979567D01*
X34212920Y-114850816D01*
X33985262Y-114756517D01*
X33980533Y-114755381D01*
X33980525Y-114755379D01*
X33750388Y-114700129D01*
X33750384Y-114700128D01*
X33745655Y-114698993D01*
X33740802Y-114698611D01*
X33504854Y-114680041D01*
X33500000Y-114679659D01*
X33495146Y-114680041D01*
X33259197Y-114698611D01*
X33259195Y-114698611D01*
X33254345Y-114698993D01*
X33249617Y-114700127D01*
X33249611Y-114700129D01*
X33019474Y-114755379D01*
X33019462Y-114755382D01*
X33014738Y-114756517D01*
X33010241Y-114758379D01*
X33010237Y-114758381D01*
X32791584Y-114848950D01*
X32791579Y-114848952D01*
X32787080Y-114850816D01*
X32782927Y-114853360D01*
X32782921Y-114853364D01*
X32581134Y-114977019D01*
X32581128Y-114977022D01*
X32576977Y-114979567D01*
X32573277Y-114982726D01*
X32573266Y-114982735D01*
X32393308Y-115136434D01*
X32393301Y-115136440D01*
X32389601Y-115139601D01*
X32386440Y-115143301D01*
X32386434Y-115143308D01*
X32232735Y-115323266D01*
X32232726Y-115323277D01*
X32229567Y-115326977D01*
X32227022Y-115331128D01*
X32227019Y-115331134D01*
X32103364Y-115532921D01*
X32103360Y-115532927D01*
X32100816Y-115537080D01*
X32098952Y-115541579D01*
X32098950Y-115541584D01*
X32031663Y-115704029D01*
X32006517Y-115764738D01*
X32005382Y-115769462D01*
X32005379Y-115769474D01*
X31950129Y-115999611D01*
X31950127Y-115999617D01*
X31948993Y-116004345D01*
X31929659Y-116250000D01*
X30081088Y-116250000D01*
X30074553Y-116071785D01*
X30025377Y-115830079D01*
X29937385Y-115599650D01*
X29812939Y-115386687D01*
X29655382Y-115196908D01*
X29520750Y-115080286D01*
X29472793Y-115038744D01*
X29472791Y-115038742D01*
X29468945Y-115035411D01*
X29304938Y-114934907D01*
X29262977Y-114909193D01*
X29262973Y-114909191D01*
X29258634Y-114906532D01*
X29253923Y-114904619D01*
X29253917Y-114904616D01*
X29034809Y-114815646D01*
X29034803Y-114815644D01*
X29030099Y-114813734D01*
X29025134Y-114812615D01*
X28794439Y-114760625D01*
X28794430Y-114760623D01*
X28789475Y-114759507D01*
X28784394Y-114759214D01*
X28548307Y-114745601D01*
X28543226Y-114745308D01*
X28538175Y-114745847D01*
X28538166Y-114745848D01*
X28303020Y-114770978D01*
X28303010Y-114770979D01*
X28297965Y-114771519D01*
X28293066Y-114772877D01*
X28293064Y-114772878D01*
X28065183Y-114836075D01*
X28065175Y-114836077D01*
X28060278Y-114837436D01*
X28055667Y-114839576D01*
X28055657Y-114839580D01*
X27841165Y-114939144D01*
X27841156Y-114939148D01*
X27836548Y-114941288D01*
X27832355Y-114944147D01*
X27832343Y-114944155D01*
X27693682Y-115038744D01*
X27632784Y-115080286D01*
X27629112Y-115083794D01*
X27629107Y-115083799D01*
X27458138Y-115247179D01*
X27458130Y-115247187D01*
X27454458Y-115250697D01*
X27451408Y-115254758D01*
X27451401Y-115254767D01*
X27309415Y-115443876D01*
X27309410Y-115443882D01*
X27306360Y-115447946D01*
X27304012Y-115452455D01*
X27304009Y-115452461D01*
X27194815Y-115662220D01*
X27194811Y-115662228D01*
X27192466Y-115666734D01*
X27190888Y-115671561D01*
X27190885Y-115671569D01*
X27117416Y-115896348D01*
X27117414Y-115896355D01*
X27115835Y-115901187D01*
X27115065Y-115906212D01*
X27115064Y-115906221D01*
X27079295Y-116139971D01*
X27079294Y-116139978D01*
X27078525Y-116145007D01*
X26762078Y-116145007D01*
X26751007Y-116004345D01*
X26693483Y-115764738D01*
X26599184Y-115537080D01*
X26470433Y-115326977D01*
X26396559Y-115240482D01*
X26313565Y-115143308D01*
X26310399Y-115139601D01*
X26240950Y-115080286D01*
X26126733Y-114982735D01*
X26126728Y-114982731D01*
X26123023Y-114979567D01*
X25912920Y-114850816D01*
X25685262Y-114756517D01*
X25680533Y-114755381D01*
X25680525Y-114755379D01*
X25450388Y-114700129D01*
X25450384Y-114700128D01*
X25445655Y-114698993D01*
X25440802Y-114698611D01*
X25204854Y-114680041D01*
X25200000Y-114679659D01*
X25195146Y-114680041D01*
X24959197Y-114698611D01*
X24959195Y-114698611D01*
X24954345Y-114698993D01*
X24949617Y-114700127D01*
X24949611Y-114700129D01*
X24719474Y-114755379D01*
X24719462Y-114755382D01*
X24714738Y-114756517D01*
X24710241Y-114758379D01*
X24710237Y-114758381D01*
X24491584Y-114848950D01*
X24491579Y-114848952D01*
X24487080Y-114850816D01*
X24482927Y-114853360D01*
X24482921Y-114853364D01*
X24281134Y-114977019D01*
X24281128Y-114977022D01*
X24276977Y-114979567D01*
X24273277Y-114982726D01*
X24273266Y-114982735D01*
X24093308Y-115136434D01*
X24093301Y-115136440D01*
X24089601Y-115139601D01*
X24086440Y-115143301D01*
X24086434Y-115143308D01*
X23932735Y-115323266D01*
X23932726Y-115323277D01*
X23929567Y-115326977D01*
X23927022Y-115331128D01*
X23927019Y-115331134D01*
X23803364Y-115532921D01*
X23803360Y-115532927D01*
X23800816Y-115537080D01*
X23798952Y-115541579D01*
X23798950Y-115541584D01*
X23753561Y-115651164D01*
X23711885Y-115704029D01*
X23648729Y-115727329D01*
X23582705Y-115714196D01*
X23533273Y-115668501D01*
X23515000Y-115603711D01*
X23515000Y-115240482D01*
X23514646Y-115233885D01*
X23509426Y-115185332D01*
X23505888Y-115170358D01*
X23461452Y-115051222D01*
X23453037Y-115035810D01*
X23377501Y-114934907D01*
X23365092Y-114922498D01*
X23264189Y-114846962D01*
X23248777Y-114838547D01*
X23129641Y-114794111D01*
X23114667Y-114790573D01*
X23066114Y-114785353D01*
X23059518Y-114785000D01*
X22366326Y-114785000D01*
X22353450Y-114788450D01*
X22350000Y-114801326D01*
X22350000Y-117698674D01*
X21850000Y-117698674D01*
X21850000Y-116516326D01*
X21846549Y-116503450D01*
X21833674Y-116500000D01*
X20701326Y-116500000D01*
X20688450Y-116503450D01*
X20685000Y-116516326D01*
X20685000Y-117259518D01*
X20000500Y-117259518D01*
X20000500Y-115983674D01*
X20685000Y-115983674D01*
X20688450Y-115996549D01*
X20701326Y-116000000D01*
X21833674Y-116000000D01*
X21846549Y-115996549D01*
X21850000Y-115983674D01*
X21850000Y-114801326D01*
X21846549Y-114788450D01*
X21833674Y-114785000D01*
X21140482Y-114785000D01*
X21133885Y-114785353D01*
X21085332Y-114790573D01*
X21070358Y-114794111D01*
X20951222Y-114838547D01*
X20935810Y-114846962D01*
X20834907Y-114922498D01*
X20822498Y-114934907D01*
X20746962Y-115035810D01*
X20738547Y-115051222D01*
X20694111Y-115170358D01*
X20690573Y-115185332D01*
X20685353Y-115233885D01*
X20685000Y-115240482D01*
X20685000Y-115983674D01*
X20000500Y-115983674D01*
X20000500Y-109000000D01*
X43494659Y-109000000D01*
X43495256Y-109006062D01*
X43513378Y-109190067D01*
X43513379Y-109190073D01*
X43513976Y-109196132D01*
X43515743Y-109201957D01*
X43515744Y-109201962D01*
X43517175Y-109206678D01*
X43571186Y-109384727D01*
X43574055Y-109390095D01*
X43574057Y-109390099D01*
X43661215Y-109553161D01*
X43661219Y-109553167D01*
X43664090Y-109558538D01*
X43667956Y-109563249D01*
X43667957Y-109563250D01*
X43785254Y-109706176D01*
X43789117Y-109710883D01*
X43941462Y-109835910D01*
X43946834Y-109838781D01*
X43946838Y-109838784D01*
X44088839Y-109914684D01*
X44115273Y-109928814D01*
X44303868Y-109986024D01*
X44500000Y-110005341D01*
X44696132Y-109986024D01*
X44884727Y-109928814D01*
X45058538Y-109835910D01*
X45210883Y-109710883D01*
X45335910Y-109558538D01*
X45428814Y-109384727D01*
X45486024Y-109196132D01*
X45505341Y-109000000D01*
X45486024Y-108803868D01*
X45428814Y-108615273D01*
X45414684Y-108588839D01*
X45338784Y-108446838D01*
X45338781Y-108446834D01*
X45335910Y-108441462D01*
X45210883Y-108289117D01*
X45058538Y-108164090D01*
X45053167Y-108161219D01*
X45053161Y-108161215D01*
X44890099Y-108074057D01*
X44890095Y-108074055D01*
X44884727Y-108071186D01*
X44878899Y-108069418D01*
X44701962Y-108015744D01*
X44701957Y-108015743D01*
X44696132Y-108013976D01*
X44690073Y-108013379D01*
X44690067Y-108013378D01*
X44506062Y-107995256D01*
X44500000Y-107994659D01*
X44493938Y-107995256D01*
X44309932Y-108013378D01*
X44309924Y-108013379D01*
X44303868Y-108013976D01*
X44298044Y-108015742D01*
X44298037Y-108015744D01*
X44121100Y-108069418D01*
X44121096Y-108069419D01*
X44115273Y-108071186D01*
X44109907Y-108074053D01*
X44109900Y-108074057D01*
X43946838Y-108161215D01*
X43946827Y-108161222D01*
X43941462Y-108164090D01*
X43936754Y-108167953D01*
X43936749Y-108167957D01*
X43793823Y-108285254D01*
X43793818Y-108285258D01*
X43789117Y-108289117D01*
X43785258Y-108293818D01*
X43785254Y-108293823D01*
X43667957Y-108436749D01*
X43667953Y-108436754D01*
X43664090Y-108441462D01*
X43661222Y-108446827D01*
X43661215Y-108446838D01*
X43574057Y-108609900D01*
X43574053Y-108609907D01*
X43571186Y-108615273D01*
X43569419Y-108621096D01*
X43569418Y-108621100D01*
X43515744Y-108798037D01*
X43515742Y-108798044D01*
X43513976Y-108803868D01*
X43513379Y-108809924D01*
X43513378Y-108809932D01*
X43495856Y-108987845D01*
X43494659Y-109000000D01*
X20000500Y-109000000D01*
X20000500Y-93000000D01*
X21594540Y-93000000D01*
X21595219Y-93006460D01*
X21613646Y-93181795D01*
X21613647Y-93181803D01*
X21614326Y-93188256D01*
X21616331Y-93194428D01*
X21616333Y-93194435D01*
X21670813Y-93362105D01*
X21672821Y-93368284D01*
X21676068Y-93373908D01*
X21676069Y-93373910D01*
X21747810Y-93498170D01*
X21767467Y-93532216D01*
X21771811Y-93537041D01*
X21771813Y-93537043D01*
X21853417Y-93627673D01*
X21894129Y-93672888D01*
X22047270Y-93784151D01*
X22220197Y-93861144D01*
X22405354Y-93900500D01*
X22588143Y-93900500D01*
X22594646Y-93900500D01*
X22779803Y-93861144D01*
X22952730Y-93784151D01*
X23105871Y-93672888D01*
X23111601Y-93666523D01*
X23113271Y-93665310D01*
X23115050Y-93663709D01*
X23115218Y-93663895D01*
X23153315Y-93636219D01*
X23203748Y-93625500D01*
X25300738Y-93625500D01*
X25311793Y-93626021D01*
X25319180Y-93627673D01*
X25386385Y-93625561D01*
X25390281Y-93625500D01*
X25413961Y-93625500D01*
X25417863Y-93625500D01*
X25421826Y-93624999D01*
X25433476Y-93624080D01*
X25477140Y-93622709D01*
X25496374Y-93617119D01*
X25515430Y-93613174D01*
X25535305Y-93610664D01*
X25575908Y-93594587D01*
X25586963Y-93590802D01*
X25628903Y-93578618D01*
X25646142Y-93568422D01*
X25663616Y-93559862D01*
X25674987Y-93555360D01*
X25674989Y-93555358D01*
X25682245Y-93552486D01*
X25717582Y-93526811D01*
X25727337Y-93520403D01*
X25764933Y-93498170D01*
X25779097Y-93484005D01*
X25793892Y-93471368D01*
X25810100Y-93459594D01*
X25837941Y-93425938D01*
X25845792Y-93417309D01*
X31387311Y-87875791D01*
X31395481Y-87868357D01*
X31401877Y-87864299D01*
X31447918Y-87815269D01*
X31450535Y-87812567D01*
X31470120Y-87792984D01*
X31472585Y-87789805D01*
X31480167Y-87780929D01*
X31510062Y-87749095D01*
X31519713Y-87731536D01*
X31530390Y-87715283D01*
X31542673Y-87699449D01*
X31560018Y-87659365D01*
X31565151Y-87648884D01*
X31586197Y-87610605D01*
X31591179Y-87591197D01*
X31597482Y-87572789D01*
X31605437Y-87554409D01*
X31612271Y-87511257D01*
X31614602Y-87500000D01*
X31929659Y-87500000D01*
X31948993Y-87745655D01*
X31950128Y-87750384D01*
X31950129Y-87750388D01*
X32005379Y-87980525D01*
X32005381Y-87980533D01*
X32006517Y-87985262D01*
X32100816Y-88212920D01*
X32229567Y-88423023D01*
X32232731Y-88426728D01*
X32232735Y-88426733D01*
X32380034Y-88599197D01*
X32389601Y-88610399D01*
X32393308Y-88613565D01*
X32573266Y-88767264D01*
X32573269Y-88767266D01*
X32576977Y-88770433D01*
X32787080Y-88899184D01*
X33014738Y-88993483D01*
X33254345Y-89051007D01*
X33500000Y-89070341D01*
X33745655Y-89051007D01*
X33985262Y-88993483D01*
X34212920Y-88899184D01*
X34423023Y-88770433D01*
X34610399Y-88610399D01*
X34739263Y-88459518D01*
X35315000Y-88459518D01*
X35315353Y-88466114D01*
X35320573Y-88514667D01*
X35324111Y-88529641D01*
X35368547Y-88648777D01*
X35376962Y-88664189D01*
X35452498Y-88765092D01*
X35464907Y-88777501D01*
X35565810Y-88853037D01*
X35581222Y-88861452D01*
X35700358Y-88905888D01*
X35715332Y-88909426D01*
X35763885Y-88914646D01*
X35770482Y-88915000D01*
X36463674Y-88915000D01*
X36476549Y-88911549D01*
X36480000Y-88898674D01*
X36480000Y-87716326D01*
X36476549Y-87703450D01*
X36463674Y-87700000D01*
X35331326Y-87700000D01*
X35318450Y-87703450D01*
X35315000Y-87716326D01*
X35315000Y-88459518D01*
X34739263Y-88459518D01*
X34770433Y-88423023D01*
X34899184Y-88212920D01*
X34993483Y-87985262D01*
X35051007Y-87745655D01*
X35070341Y-87500000D01*
X35051007Y-87254345D01*
X35034041Y-87183674D01*
X35315000Y-87183674D01*
X35318450Y-87196549D01*
X35331326Y-87200000D01*
X36463674Y-87200000D01*
X36476549Y-87196549D01*
X36480000Y-87183674D01*
X36480000Y-86001326D01*
X36476549Y-85988450D01*
X36463674Y-85985000D01*
X35770482Y-85985000D01*
X35763885Y-85985353D01*
X35715332Y-85990573D01*
X35700358Y-85994111D01*
X35581222Y-86038547D01*
X35565810Y-86046962D01*
X35464907Y-86122498D01*
X35452498Y-86134907D01*
X35376962Y-86235810D01*
X35368547Y-86251222D01*
X35324111Y-86370358D01*
X35320573Y-86385332D01*
X35315353Y-86433885D01*
X35315000Y-86440482D01*
X35315000Y-87183674D01*
X35034041Y-87183674D01*
X34993483Y-87014738D01*
X34899184Y-86787080D01*
X34770433Y-86576977D01*
X34731279Y-86531134D01*
X34613565Y-86393308D01*
X34610399Y-86389601D01*
X34556197Y-86343308D01*
X34426733Y-86232735D01*
X34426728Y-86232731D01*
X34423023Y-86229567D01*
X34212920Y-86100816D01*
X33985262Y-86006517D01*
X33980533Y-86005381D01*
X33980525Y-86005379D01*
X33750388Y-85950129D01*
X33750384Y-85950128D01*
X33745655Y-85948993D01*
X33740802Y-85948611D01*
X33504854Y-85930041D01*
X33500000Y-85929659D01*
X33495146Y-85930041D01*
X33259197Y-85948611D01*
X33259195Y-85948611D01*
X33254345Y-85948993D01*
X33249617Y-85950127D01*
X33249611Y-85950129D01*
X33019474Y-86005379D01*
X33019462Y-86005382D01*
X33014738Y-86006517D01*
X33010241Y-86008379D01*
X33010237Y-86008381D01*
X32791584Y-86098950D01*
X32791579Y-86098952D01*
X32787080Y-86100816D01*
X32782927Y-86103360D01*
X32782921Y-86103364D01*
X32581134Y-86227019D01*
X32581128Y-86227022D01*
X32576977Y-86229567D01*
X32573277Y-86232726D01*
X32573266Y-86232735D01*
X32393308Y-86386434D01*
X32393301Y-86386440D01*
X32389601Y-86389601D01*
X32386440Y-86393301D01*
X32386434Y-86393308D01*
X32232735Y-86573266D01*
X32232726Y-86573277D01*
X32229567Y-86576977D01*
X32227022Y-86581128D01*
X32227019Y-86581134D01*
X32103364Y-86782921D01*
X32103360Y-86782927D01*
X32100816Y-86787080D01*
X32098952Y-86791579D01*
X32098950Y-86791584D01*
X32025266Y-86969474D01*
X32006517Y-87014738D01*
X32005382Y-87019462D01*
X32005379Y-87019474D01*
X31950129Y-87249611D01*
X31950127Y-87249617D01*
X31948993Y-87254345D01*
X31948611Y-87259195D01*
X31948611Y-87259197D01*
X31941542Y-87349020D01*
X31929659Y-87500000D01*
X31614602Y-87500000D01*
X31614633Y-87499851D01*
X31625500Y-87457532D01*
X31625500Y-87437496D01*
X31627027Y-87418098D01*
X31628939Y-87406026D01*
X31628938Y-87406026D01*
X31630160Y-87398317D01*
X31626050Y-87354837D01*
X31625500Y-87343168D01*
X31625500Y-77250000D01*
X31929659Y-77250000D01*
X31948993Y-77495655D01*
X31950128Y-77500384D01*
X31950129Y-77500388D01*
X32005379Y-77730525D01*
X32005381Y-77730533D01*
X32006517Y-77735262D01*
X32100816Y-77962920D01*
X32229567Y-78173023D01*
X32232731Y-78176728D01*
X32232735Y-78176733D01*
X32380034Y-78349197D01*
X32389601Y-78360399D01*
X32393308Y-78363565D01*
X32573266Y-78517264D01*
X32573269Y-78517266D01*
X32576977Y-78520433D01*
X32787080Y-78649184D01*
X33014738Y-78743483D01*
X33254345Y-78801007D01*
X33500000Y-78820341D01*
X33745655Y-78801007D01*
X33985262Y-78743483D01*
X34212920Y-78649184D01*
X34423023Y-78520433D01*
X34610399Y-78360399D01*
X34739263Y-78209518D01*
X35315000Y-78209518D01*
X35315353Y-78216114D01*
X35320573Y-78264667D01*
X35324111Y-78279641D01*
X35368547Y-78398777D01*
X35376962Y-78414189D01*
X35452498Y-78515092D01*
X35464907Y-78527501D01*
X35565810Y-78603037D01*
X35581222Y-78611452D01*
X35700358Y-78655888D01*
X35715332Y-78659426D01*
X35763885Y-78664646D01*
X35770482Y-78665000D01*
X36463674Y-78665000D01*
X36476549Y-78661549D01*
X36480000Y-78648674D01*
X36480000Y-77466326D01*
X36476549Y-77453450D01*
X36463674Y-77450000D01*
X35331326Y-77450000D01*
X35318450Y-77453450D01*
X35315000Y-77466326D01*
X35315000Y-78209518D01*
X34739263Y-78209518D01*
X34770433Y-78173023D01*
X34899184Y-77962920D01*
X34993483Y-77735262D01*
X35051007Y-77495655D01*
X35070341Y-77250000D01*
X35051007Y-77004345D01*
X35034041Y-76933674D01*
X35315000Y-76933674D01*
X35318450Y-76946549D01*
X35331326Y-76950000D01*
X36463674Y-76950000D01*
X36476549Y-76946549D01*
X36480000Y-76933674D01*
X36480000Y-75751326D01*
X36476549Y-75738450D01*
X36463674Y-75735000D01*
X35770482Y-75735000D01*
X35763885Y-75735353D01*
X35715332Y-75740573D01*
X35700358Y-75744111D01*
X35581222Y-75788547D01*
X35565810Y-75796962D01*
X35464907Y-75872498D01*
X35452498Y-75884907D01*
X35376962Y-75985810D01*
X35368547Y-76001222D01*
X35324111Y-76120358D01*
X35320573Y-76135332D01*
X35315353Y-76183885D01*
X35315000Y-76190482D01*
X35315000Y-76933674D01*
X35034041Y-76933674D01*
X34993483Y-76764738D01*
X34899184Y-76537080D01*
X34770433Y-76326977D01*
X34731279Y-76281134D01*
X34613565Y-76143308D01*
X34610399Y-76139601D01*
X34556197Y-76093308D01*
X34426733Y-75982735D01*
X34426728Y-75982731D01*
X34423023Y-75979567D01*
X34212920Y-75850816D01*
X33985262Y-75756517D01*
X33980533Y-75755381D01*
X33980525Y-75755379D01*
X33750388Y-75700129D01*
X33750384Y-75700128D01*
X33745655Y-75698993D01*
X33740802Y-75698611D01*
X33504854Y-75680041D01*
X33500000Y-75679659D01*
X33495146Y-75680041D01*
X33259197Y-75698611D01*
X33259195Y-75698611D01*
X33254345Y-75698993D01*
X33249617Y-75700127D01*
X33249611Y-75700129D01*
X33019474Y-75755379D01*
X33019462Y-75755382D01*
X33014738Y-75756517D01*
X33010241Y-75758379D01*
X33010237Y-75758381D01*
X32791584Y-75848950D01*
X32791579Y-75848952D01*
X32787080Y-75850816D01*
X32782927Y-75853360D01*
X32782921Y-75853364D01*
X32581134Y-75977019D01*
X32581128Y-75977022D01*
X32576977Y-75979567D01*
X32573277Y-75982726D01*
X32573266Y-75982735D01*
X32393308Y-76136434D01*
X32393301Y-76136440D01*
X32389601Y-76139601D01*
X32386440Y-76143301D01*
X32386434Y-76143308D01*
X32232735Y-76323266D01*
X32232726Y-76323277D01*
X32229567Y-76326977D01*
X32227022Y-76331128D01*
X32227019Y-76331134D01*
X32103364Y-76532921D01*
X32103360Y-76532927D01*
X32100816Y-76537080D01*
X32098952Y-76541579D01*
X32098950Y-76541584D01*
X32025266Y-76719474D01*
X32006517Y-76764738D01*
X32005382Y-76769462D01*
X32005379Y-76769474D01*
X31950129Y-76999611D01*
X31950127Y-76999617D01*
X31948993Y-77004345D01*
X31948611Y-77009195D01*
X31948611Y-77009197D01*
X31941457Y-77100097D01*
X31929659Y-77250000D01*
X31625500Y-77250000D01*
X31625500Y-74736130D01*
X31644803Y-74669688D01*
X31696703Y-74623931D01*
X31765041Y-74613108D01*
X31828540Y-74640586D01*
X31867430Y-74697811D01*
X31922821Y-74868284D01*
X31926068Y-74873908D01*
X31926069Y-74873910D01*
X32007073Y-75014214D01*
X32017467Y-75032216D01*
X32021811Y-75037041D01*
X32021813Y-75037043D01*
X32120797Y-75146975D01*
X32144129Y-75172888D01*
X32149387Y-75176708D01*
X32149388Y-75176709D01*
X32207817Y-75219160D01*
X32297270Y-75284151D01*
X32470197Y-75361144D01*
X32655354Y-75400500D01*
X32838143Y-75400500D01*
X32844646Y-75400500D01*
X33029803Y-75361144D01*
X33202730Y-75284151D01*
X33355871Y-75172888D01*
X33482533Y-75032216D01*
X33577179Y-74868284D01*
X33635674Y-74688256D01*
X33653321Y-74520344D01*
X33664721Y-74479925D01*
X33688958Y-74445630D01*
X37722771Y-70411819D01*
X37763000Y-70384939D01*
X37810453Y-70375500D01*
X38296252Y-70375500D01*
X38346685Y-70386219D01*
X38384781Y-70413895D01*
X38384950Y-70413709D01*
X38386728Y-70415310D01*
X38388398Y-70416523D01*
X38394129Y-70422888D01*
X38547270Y-70534151D01*
X38720197Y-70611144D01*
X38905354Y-70650500D01*
X39088143Y-70650500D01*
X39094646Y-70650500D01*
X39279803Y-70611144D01*
X39452730Y-70534151D01*
X39605871Y-70422888D01*
X39658350Y-70364603D01*
X39707277Y-70331353D01*
X39766041Y-70324554D01*
X39821268Y-70345753D01*
X39860389Y-70390127D01*
X39874500Y-70447576D01*
X39874500Y-72689547D01*
X39865061Y-72737000D01*
X39838181Y-72777228D01*
X39279876Y-73335533D01*
X37612696Y-75002711D01*
X37604511Y-75010159D01*
X37598123Y-75014214D01*
X37592788Y-75019894D01*
X37592783Y-75019899D01*
X37552096Y-75063225D01*
X37549392Y-75066016D01*
X37532628Y-75082780D01*
X37532621Y-75082787D01*
X37529880Y-75085529D01*
X37527500Y-75088596D01*
X37527489Y-75088609D01*
X37527400Y-75088725D01*
X37519842Y-75097570D01*
X37495280Y-75123727D01*
X37495273Y-75123736D01*
X37489938Y-75129418D01*
X37486182Y-75136249D01*
X37486179Y-75136254D01*
X37480285Y-75146975D01*
X37469609Y-75163227D01*
X37462109Y-75172896D01*
X37462101Y-75172907D01*
X37457327Y-75179064D01*
X37454234Y-75186208D01*
X37454229Y-75186219D01*
X37439974Y-75219160D01*
X37434838Y-75229643D01*
X37413803Y-75267908D01*
X37411864Y-75275456D01*
X37411863Y-75275461D01*
X37408822Y-75287307D01*
X37402521Y-75305711D01*
X37397658Y-75316948D01*
X37397656Y-75316952D01*
X37394562Y-75324104D01*
X37393342Y-75331803D01*
X37393342Y-75331805D01*
X37387729Y-75367241D01*
X37385361Y-75378676D01*
X37376438Y-75413428D01*
X37376436Y-75413436D01*
X37374500Y-75420981D01*
X37374500Y-75428777D01*
X37374500Y-75441017D01*
X37372974Y-75460402D01*
X37369840Y-75480196D01*
X37370574Y-75487961D01*
X37370574Y-75487964D01*
X37373950Y-75523676D01*
X37374500Y-75535345D01*
X37374500Y-75611000D01*
X37357887Y-75673000D01*
X37312500Y-75718387D01*
X37250500Y-75735000D01*
X36996326Y-75735000D01*
X36983450Y-75738450D01*
X36980000Y-75751326D01*
X36980000Y-78648674D01*
X36983450Y-78661549D01*
X36996326Y-78665000D01*
X37250500Y-78665000D01*
X37312500Y-78681613D01*
X37357887Y-78727000D01*
X37374500Y-78789000D01*
X37374500Y-85861000D01*
X37357887Y-85923000D01*
X37312500Y-85968387D01*
X37250500Y-85985000D01*
X36996326Y-85985000D01*
X36983450Y-85988450D01*
X36980000Y-86001326D01*
X36980000Y-88898674D01*
X36983450Y-88911549D01*
X36996326Y-88915000D01*
X37250500Y-88915000D01*
X37312500Y-88931613D01*
X37357887Y-88977000D01*
X37374500Y-89039000D01*
X37374500Y-89689547D01*
X37365061Y-89737000D01*
X37338181Y-89777228D01*
X36552228Y-90563181D01*
X36512000Y-90590061D01*
X36464547Y-90599500D01*
X36405354Y-90599500D01*
X36398995Y-90600851D01*
X36398991Y-90600852D01*
X36226559Y-90637503D01*
X36226552Y-90637505D01*
X36220197Y-90638856D01*
X36214262Y-90641498D01*
X36214254Y-90641501D01*
X36053207Y-90713205D01*
X36053202Y-90713207D01*
X36047270Y-90715849D01*
X36042016Y-90719665D01*
X36042011Y-90719669D01*
X35899388Y-90823290D01*
X35899381Y-90823295D01*
X35894129Y-90827112D01*
X35889784Y-90831937D01*
X35889779Y-90831942D01*
X35771813Y-90962956D01*
X35771808Y-90962962D01*
X35767467Y-90967784D01*
X35764222Y-90973404D01*
X35764218Y-90973410D01*
X35676069Y-91126089D01*
X35676066Y-91126094D01*
X35672821Y-91131716D01*
X35670815Y-91137888D01*
X35670813Y-91137894D01*
X35616333Y-91305564D01*
X35616331Y-91305573D01*
X35614326Y-91311744D01*
X35613648Y-91318194D01*
X35613646Y-91318204D01*
X35596650Y-91479926D01*
X35594540Y-91500000D01*
X35595219Y-91506460D01*
X35613646Y-91681795D01*
X35613647Y-91681803D01*
X35614326Y-91688256D01*
X35616331Y-91694428D01*
X35616333Y-91694435D01*
X35670813Y-91862105D01*
X35672821Y-91868284D01*
X35767467Y-92032216D01*
X35894129Y-92172888D01*
X36047270Y-92284151D01*
X36220197Y-92361144D01*
X36405354Y-92400500D01*
X36588143Y-92400500D01*
X36594646Y-92400500D01*
X36779803Y-92361144D01*
X36952730Y-92284151D01*
X37105871Y-92172888D01*
X37232533Y-92032216D01*
X37327179Y-91868284D01*
X37385674Y-91688256D01*
X37403321Y-91520345D01*
X37414721Y-91479926D01*
X37438958Y-91445631D01*
X38387311Y-90497278D01*
X38395481Y-90489844D01*
X38401877Y-90485786D01*
X38447918Y-90436756D01*
X38450535Y-90434054D01*
X38470120Y-90414471D01*
X38472585Y-90411292D01*
X38480167Y-90402416D01*
X38510062Y-90370582D01*
X38519713Y-90353023D01*
X38530390Y-90336770D01*
X38542673Y-90320936D01*
X38560018Y-90280852D01*
X38565151Y-90270371D01*
X38586197Y-90232092D01*
X38591179Y-90212684D01*
X38597482Y-90194276D01*
X38605437Y-90175896D01*
X38612271Y-90132744D01*
X38614633Y-90121338D01*
X38625500Y-90079019D01*
X38625500Y-90058983D01*
X38627027Y-90039585D01*
X38628939Y-90027513D01*
X38628938Y-90027513D01*
X38630160Y-90019804D01*
X38626050Y-89976324D01*
X38625500Y-89964655D01*
X38625500Y-88749005D01*
X38645065Y-88682152D01*
X38697586Y-88636395D01*
X38766489Y-88626174D01*
X38830031Y-88654715D01*
X38903266Y-88717264D01*
X38903269Y-88717266D01*
X38906977Y-88720433D01*
X39117080Y-88849184D01*
X39344738Y-88943483D01*
X39584345Y-89001007D01*
X39830000Y-89020341D01*
X40075655Y-89001007D01*
X40315262Y-88943483D01*
X40542920Y-88849184D01*
X40753023Y-88720433D01*
X40940399Y-88560399D01*
X41100433Y-88373023D01*
X41229184Y-88162920D01*
X41323483Y-87935262D01*
X41381007Y-87695655D01*
X41400341Y-87450000D01*
X41392078Y-87345007D01*
X41708525Y-87345007D01*
X41708587Y-87350094D01*
X41708587Y-87350097D01*
X41711476Y-87586561D01*
X41711476Y-87586571D01*
X41711539Y-87591646D01*
X41712430Y-87596651D01*
X41712431Y-87596656D01*
X41753900Y-87829468D01*
X41753902Y-87829478D01*
X41754794Y-87834482D01*
X41756494Y-87839282D01*
X41835430Y-88062190D01*
X41835432Y-88062195D01*
X41837131Y-88066992D01*
X41867191Y-88121446D01*
X41921980Y-88220697D01*
X41956336Y-88282932D01*
X42109210Y-88476504D01*
X42112965Y-88479920D01*
X42112968Y-88479924D01*
X42244047Y-88599197D01*
X42291645Y-88642508D01*
X42363642Y-88689085D01*
X42493324Y-88772980D01*
X42498744Y-88776486D01*
X42724945Y-88874841D01*
X42964171Y-88934930D01*
X43210000Y-88955141D01*
X43283526Y-88953344D01*
X43528074Y-88921149D01*
X43764079Y-88849445D01*
X43985205Y-88740158D01*
X44185512Y-88596223D01*
X44359621Y-88421505D01*
X44502856Y-88220697D01*
X44611370Y-87999191D01*
X44682250Y-87762936D01*
X44713592Y-87518278D01*
X44711088Y-87450000D01*
X46559659Y-87450000D01*
X46578993Y-87695655D01*
X46580128Y-87700384D01*
X46580129Y-87700388D01*
X46635379Y-87930525D01*
X46635381Y-87930533D01*
X46636517Y-87935262D01*
X46730816Y-88162920D01*
X46859567Y-88373023D01*
X46862731Y-88376728D01*
X46862735Y-88376733D01*
X46980542Y-88514667D01*
X47019601Y-88560399D01*
X47023308Y-88563565D01*
X47203266Y-88717264D01*
X47203269Y-88717266D01*
X47206977Y-88720433D01*
X47417080Y-88849184D01*
X47644738Y-88943483D01*
X47884345Y-89001007D01*
X48130000Y-89020341D01*
X48375655Y-89001007D01*
X48615262Y-88943483D01*
X48842920Y-88849184D01*
X49053023Y-88720433D01*
X49240399Y-88560399D01*
X49400433Y-88373023D01*
X49529184Y-88162920D01*
X49623483Y-87935262D01*
X49681007Y-87695655D01*
X49700341Y-87450000D01*
X49681007Y-87204345D01*
X49623483Y-86964738D01*
X49529184Y-86737080D01*
X49400433Y-86526977D01*
X49374983Y-86497179D01*
X49243565Y-86343308D01*
X49240399Y-86339601D01*
X49170950Y-86280286D01*
X49056733Y-86182735D01*
X49056728Y-86182731D01*
X49053023Y-86179567D01*
X48842920Y-86050816D01*
X48615262Y-85956517D01*
X48610533Y-85955381D01*
X48610525Y-85955379D01*
X48380388Y-85900129D01*
X48380384Y-85900128D01*
X48375655Y-85898993D01*
X48370802Y-85898611D01*
X48134854Y-85880041D01*
X48130000Y-85879659D01*
X48125146Y-85880041D01*
X47889197Y-85898611D01*
X47889195Y-85898611D01*
X47884345Y-85898993D01*
X47879617Y-85900127D01*
X47879611Y-85900129D01*
X47649474Y-85955379D01*
X47649462Y-85955382D01*
X47644738Y-85956517D01*
X47640241Y-85958379D01*
X47640237Y-85958381D01*
X47421584Y-86048950D01*
X47421579Y-86048952D01*
X47417080Y-86050816D01*
X47412927Y-86053360D01*
X47412921Y-86053364D01*
X47211134Y-86177019D01*
X47211128Y-86177022D01*
X47206977Y-86179567D01*
X47203277Y-86182726D01*
X47203266Y-86182735D01*
X47023308Y-86336434D01*
X47023301Y-86336440D01*
X47019601Y-86339601D01*
X47016440Y-86343301D01*
X47016434Y-86343308D01*
X46862735Y-86523266D01*
X46862726Y-86523277D01*
X46859567Y-86526977D01*
X46857022Y-86531128D01*
X46857019Y-86531134D01*
X46733364Y-86732921D01*
X46733360Y-86732927D01*
X46730816Y-86737080D01*
X46728952Y-86741579D01*
X46728950Y-86741584D01*
X46638381Y-86960237D01*
X46636517Y-86964738D01*
X46635382Y-86969462D01*
X46635379Y-86969474D01*
X46580129Y-87199611D01*
X46580127Y-87199617D01*
X46578993Y-87204345D01*
X46578611Y-87209195D01*
X46578611Y-87209197D01*
X46564338Y-87390548D01*
X46559659Y-87450000D01*
X44711088Y-87450000D01*
X44704553Y-87271785D01*
X44655377Y-87030079D01*
X44567385Y-86799650D01*
X44442939Y-86586687D01*
X44285382Y-86396908D01*
X44150750Y-86280286D01*
X44102793Y-86238744D01*
X44102791Y-86238742D01*
X44098945Y-86235411D01*
X44070285Y-86217848D01*
X43892977Y-86109193D01*
X43892973Y-86109191D01*
X43888634Y-86106532D01*
X43883923Y-86104619D01*
X43883917Y-86104616D01*
X43664809Y-86015646D01*
X43664803Y-86015644D01*
X43660099Y-86013734D01*
X43655134Y-86012615D01*
X43424439Y-85960625D01*
X43424430Y-85960623D01*
X43419475Y-85959507D01*
X43414394Y-85959214D01*
X43178307Y-85945601D01*
X43173226Y-85945308D01*
X43168175Y-85945847D01*
X43168166Y-85945848D01*
X42933020Y-85970978D01*
X42933010Y-85970979D01*
X42927965Y-85971519D01*
X42923066Y-85972877D01*
X42923064Y-85972878D01*
X42695183Y-86036075D01*
X42695175Y-86036077D01*
X42690278Y-86037436D01*
X42685667Y-86039576D01*
X42685657Y-86039580D01*
X42471165Y-86139144D01*
X42471156Y-86139148D01*
X42466548Y-86141288D01*
X42462355Y-86144147D01*
X42462343Y-86144155D01*
X42305390Y-86251222D01*
X42262784Y-86280286D01*
X42259112Y-86283794D01*
X42259107Y-86283799D01*
X42088138Y-86447179D01*
X42088130Y-86447187D01*
X42084458Y-86450697D01*
X42081408Y-86454758D01*
X42081401Y-86454767D01*
X41939415Y-86643876D01*
X41939410Y-86643882D01*
X41936360Y-86647946D01*
X41934012Y-86652455D01*
X41934009Y-86652461D01*
X41824815Y-86862220D01*
X41824811Y-86862228D01*
X41822466Y-86866734D01*
X41820888Y-86871561D01*
X41820885Y-86871569D01*
X41747416Y-87096348D01*
X41747414Y-87096355D01*
X41745835Y-87101187D01*
X41745065Y-87106212D01*
X41745064Y-87106221D01*
X41709295Y-87339971D01*
X41709294Y-87339978D01*
X41708525Y-87345007D01*
X41392078Y-87345007D01*
X41381007Y-87204345D01*
X41323483Y-86964738D01*
X41229184Y-86737080D01*
X41100433Y-86526977D01*
X41074983Y-86497179D01*
X40943565Y-86343308D01*
X40940399Y-86339601D01*
X40870950Y-86280286D01*
X40756733Y-86182735D01*
X40756728Y-86182731D01*
X40753023Y-86179567D01*
X40542920Y-86050816D01*
X40315262Y-85956517D01*
X40310533Y-85955381D01*
X40310525Y-85955379D01*
X40080388Y-85900129D01*
X40080384Y-85900128D01*
X40075655Y-85898993D01*
X40070802Y-85898611D01*
X39834854Y-85880041D01*
X39830000Y-85879659D01*
X39825146Y-85880041D01*
X39589197Y-85898611D01*
X39589195Y-85898611D01*
X39584345Y-85898993D01*
X39579617Y-85900127D01*
X39579611Y-85900129D01*
X39349474Y-85955379D01*
X39349462Y-85955382D01*
X39344738Y-85956517D01*
X39340241Y-85958379D01*
X39340237Y-85958381D01*
X39121584Y-86048950D01*
X39121579Y-86048952D01*
X39117080Y-86050816D01*
X39112927Y-86053360D01*
X39112921Y-86053364D01*
X38911134Y-86177019D01*
X38911128Y-86177022D01*
X38906977Y-86179567D01*
X38903277Y-86182726D01*
X38903266Y-86182735D01*
X38830031Y-86245285D01*
X38766489Y-86273826D01*
X38697586Y-86263605D01*
X38645065Y-86217848D01*
X38625500Y-86150995D01*
X38625500Y-78499005D01*
X38645065Y-78432152D01*
X38697586Y-78386395D01*
X38766489Y-78376174D01*
X38830031Y-78404715D01*
X38903266Y-78467264D01*
X38903269Y-78467266D01*
X38906977Y-78470433D01*
X39117080Y-78599184D01*
X39344738Y-78693483D01*
X39584345Y-78751007D01*
X39830000Y-78770341D01*
X40075655Y-78751007D01*
X40315262Y-78693483D01*
X40542920Y-78599184D01*
X40753023Y-78470433D01*
X40940399Y-78310399D01*
X41100433Y-78123023D01*
X41229184Y-77912920D01*
X41323483Y-77685262D01*
X41381007Y-77445655D01*
X41400341Y-77200000D01*
X41392078Y-77095007D01*
X41708525Y-77095007D01*
X41708587Y-77100094D01*
X41708587Y-77100097D01*
X41711476Y-77336561D01*
X41711476Y-77336571D01*
X41711539Y-77341646D01*
X41712430Y-77346651D01*
X41712431Y-77346656D01*
X41753900Y-77579468D01*
X41753902Y-77579478D01*
X41754794Y-77584482D01*
X41756494Y-77589282D01*
X41835430Y-77812190D01*
X41835432Y-77812195D01*
X41837131Y-77816992D01*
X41867191Y-77871446D01*
X41951870Y-78024843D01*
X41956336Y-78032932D01*
X42109210Y-78226504D01*
X42112965Y-78229920D01*
X42112968Y-78229924D01*
X42244047Y-78349197D01*
X42291645Y-78392508D01*
X42363642Y-78439085D01*
X42493324Y-78522980D01*
X42498744Y-78526486D01*
X42724945Y-78624841D01*
X42964171Y-78684930D01*
X43210000Y-78705141D01*
X43283526Y-78703344D01*
X43528074Y-78671149D01*
X43764079Y-78599445D01*
X43985205Y-78490158D01*
X44185512Y-78346223D01*
X44359621Y-78171505D01*
X44502856Y-77970697D01*
X44611370Y-77749191D01*
X44682250Y-77512936D01*
X44713592Y-77268278D01*
X44711088Y-77200000D01*
X46559659Y-77200000D01*
X46578993Y-77445655D01*
X46580128Y-77450384D01*
X46580129Y-77450388D01*
X46635379Y-77680525D01*
X46635381Y-77680533D01*
X46636517Y-77685262D01*
X46730816Y-77912920D01*
X46859567Y-78123023D01*
X46862731Y-78126728D01*
X46862735Y-78126733D01*
X46980542Y-78264667D01*
X47019601Y-78310399D01*
X47023308Y-78313565D01*
X47203266Y-78467264D01*
X47203269Y-78467266D01*
X47206977Y-78470433D01*
X47417080Y-78599184D01*
X47644738Y-78693483D01*
X47884345Y-78751007D01*
X48130000Y-78770341D01*
X48375655Y-78751007D01*
X48615262Y-78693483D01*
X48842920Y-78599184D01*
X49053023Y-78470433D01*
X49240399Y-78310399D01*
X49400433Y-78123023D01*
X49529184Y-77912920D01*
X49623483Y-77685262D01*
X49681007Y-77445655D01*
X49700341Y-77200000D01*
X49681007Y-76954345D01*
X49623483Y-76714738D01*
X49529184Y-76487080D01*
X49400433Y-76276977D01*
X49374983Y-76247179D01*
X49243565Y-76093308D01*
X49240399Y-76089601D01*
X49170950Y-76030286D01*
X49056733Y-75932735D01*
X49056728Y-75932731D01*
X49053023Y-75929567D01*
X48842920Y-75800816D01*
X48615262Y-75706517D01*
X48610533Y-75705381D01*
X48610525Y-75705379D01*
X48380388Y-75650129D01*
X48380384Y-75650128D01*
X48375655Y-75648993D01*
X48370802Y-75648611D01*
X48134854Y-75630041D01*
X48130000Y-75629659D01*
X48125146Y-75630041D01*
X47889197Y-75648611D01*
X47889195Y-75648611D01*
X47884345Y-75648993D01*
X47879617Y-75650127D01*
X47879611Y-75650129D01*
X47649474Y-75705379D01*
X47649462Y-75705382D01*
X47644738Y-75706517D01*
X47640241Y-75708379D01*
X47640237Y-75708381D01*
X47421584Y-75798950D01*
X47421579Y-75798952D01*
X47417080Y-75800816D01*
X47412927Y-75803360D01*
X47412921Y-75803364D01*
X47211134Y-75927019D01*
X47211128Y-75927022D01*
X47206977Y-75929567D01*
X47203277Y-75932726D01*
X47203266Y-75932735D01*
X47023308Y-76086434D01*
X47023301Y-76086440D01*
X47019601Y-76089601D01*
X47016440Y-76093301D01*
X47016434Y-76093308D01*
X46862735Y-76273266D01*
X46862726Y-76273277D01*
X46859567Y-76276977D01*
X46857022Y-76281128D01*
X46857019Y-76281134D01*
X46733364Y-76482921D01*
X46733360Y-76482927D01*
X46730816Y-76487080D01*
X46728952Y-76491579D01*
X46728950Y-76491584D01*
X46638381Y-76710237D01*
X46636517Y-76714738D01*
X46635382Y-76719462D01*
X46635379Y-76719474D01*
X46580129Y-76949611D01*
X46580127Y-76949617D01*
X46578993Y-76954345D01*
X46578611Y-76959195D01*
X46578611Y-76959197D01*
X46563987Y-77145007D01*
X46559659Y-77200000D01*
X44711088Y-77200000D01*
X44704553Y-77021785D01*
X44655377Y-76780079D01*
X44567385Y-76549650D01*
X44442939Y-76336687D01*
X44285382Y-76146908D01*
X44150750Y-76030286D01*
X44102793Y-75988744D01*
X44102791Y-75988742D01*
X44098945Y-75985411D01*
X44070285Y-75967848D01*
X43892977Y-75859193D01*
X43892973Y-75859191D01*
X43888634Y-75856532D01*
X43883923Y-75854619D01*
X43883917Y-75854616D01*
X43664809Y-75765646D01*
X43664803Y-75765644D01*
X43660099Y-75763734D01*
X43655134Y-75762615D01*
X43424439Y-75710625D01*
X43424430Y-75710623D01*
X43419475Y-75709507D01*
X43414394Y-75709214D01*
X43178307Y-75695601D01*
X43173226Y-75695308D01*
X43168175Y-75695847D01*
X43168166Y-75695848D01*
X42933020Y-75720978D01*
X42933010Y-75720979D01*
X42927965Y-75721519D01*
X42923066Y-75722877D01*
X42923064Y-75722878D01*
X42695183Y-75786075D01*
X42695175Y-75786077D01*
X42690278Y-75787436D01*
X42685667Y-75789576D01*
X42685657Y-75789580D01*
X42471165Y-75889144D01*
X42471156Y-75889148D01*
X42466548Y-75891288D01*
X42462355Y-75894147D01*
X42462343Y-75894155D01*
X42305390Y-76001222D01*
X42262784Y-76030286D01*
X42259112Y-76033794D01*
X42259107Y-76033799D01*
X42088138Y-76197179D01*
X42088130Y-76197187D01*
X42084458Y-76200697D01*
X42081408Y-76204758D01*
X42081401Y-76204767D01*
X41939415Y-76393876D01*
X41939410Y-76393882D01*
X41936360Y-76397946D01*
X41934012Y-76402455D01*
X41934009Y-76402461D01*
X41824815Y-76612220D01*
X41824811Y-76612228D01*
X41822466Y-76616734D01*
X41820888Y-76621561D01*
X41820885Y-76621569D01*
X41747416Y-76846348D01*
X41747414Y-76846355D01*
X41745835Y-76851187D01*
X41745065Y-76856212D01*
X41745064Y-76856221D01*
X41709295Y-77089971D01*
X41709294Y-77089978D01*
X41708525Y-77095007D01*
X41392078Y-77095007D01*
X41381007Y-76954345D01*
X41323483Y-76714738D01*
X41229184Y-76487080D01*
X41100433Y-76276977D01*
X41074983Y-76247179D01*
X40943565Y-76093308D01*
X40940399Y-76089601D01*
X40870950Y-76030286D01*
X40756733Y-75932735D01*
X40756728Y-75932731D01*
X40753023Y-75929567D01*
X40542920Y-75800816D01*
X40315262Y-75706517D01*
X40310533Y-75705381D01*
X40310525Y-75705379D01*
X40080388Y-75650129D01*
X40080384Y-75650128D01*
X40075655Y-75648993D01*
X40070802Y-75648611D01*
X39834854Y-75630041D01*
X39830000Y-75629659D01*
X39825146Y-75630041D01*
X39589197Y-75648611D01*
X39589195Y-75648611D01*
X39584345Y-75648993D01*
X39579617Y-75650127D01*
X39579611Y-75650129D01*
X39349474Y-75705379D01*
X39349462Y-75705382D01*
X39344738Y-75706517D01*
X39340241Y-75708379D01*
X39340237Y-75708381D01*
X39121584Y-75798950D01*
X39121579Y-75798952D01*
X39117080Y-75800816D01*
X39112927Y-75803360D01*
X39112921Y-75803364D01*
X38911134Y-75927019D01*
X38911128Y-75927022D01*
X38906977Y-75929567D01*
X38903277Y-75932726D01*
X38903266Y-75932735D01*
X38830031Y-75995285D01*
X38766489Y-76023826D01*
X38697586Y-76013605D01*
X38645065Y-75967848D01*
X38625500Y-75900995D01*
X38625500Y-75810452D01*
X38634939Y-75762999D01*
X38661819Y-75722771D01*
X39381879Y-75002711D01*
X40220120Y-74164470D01*
X40220119Y-74164470D01*
X40887311Y-73497278D01*
X40895481Y-73489844D01*
X40901877Y-73485786D01*
X40947918Y-73436756D01*
X40950535Y-73434054D01*
X40970120Y-73414471D01*
X40972585Y-73411292D01*
X40980167Y-73402416D01*
X41010062Y-73370582D01*
X41019713Y-73353023D01*
X41030390Y-73336770D01*
X41042673Y-73320936D01*
X41060018Y-73280852D01*
X41065151Y-73270371D01*
X41086197Y-73232092D01*
X41091179Y-73212684D01*
X41097482Y-73194276D01*
X41105437Y-73175896D01*
X41112271Y-73132744D01*
X41114633Y-73121338D01*
X41125500Y-73079019D01*
X41125500Y-73058983D01*
X41127027Y-73039585D01*
X41128939Y-73027513D01*
X41128938Y-73027513D01*
X41130160Y-73019804D01*
X41126050Y-72976324D01*
X41125500Y-72964655D01*
X41125500Y-69750000D01*
X42744659Y-69750000D01*
X42745256Y-69756062D01*
X42763378Y-69940067D01*
X42763379Y-69940073D01*
X42763976Y-69946132D01*
X42765743Y-69951957D01*
X42765744Y-69951962D01*
X42767175Y-69956678D01*
X42821186Y-70134727D01*
X42824055Y-70140095D01*
X42824057Y-70140099D01*
X42911215Y-70303161D01*
X42911219Y-70303167D01*
X42914090Y-70308538D01*
X42917956Y-70313249D01*
X42917957Y-70313250D01*
X43028196Y-70447576D01*
X43039117Y-70460883D01*
X43191462Y-70585910D01*
X43196834Y-70588781D01*
X43196838Y-70588784D01*
X43309770Y-70649147D01*
X43365273Y-70678814D01*
X43553868Y-70736024D01*
X43750000Y-70755341D01*
X43946132Y-70736024D01*
X44134727Y-70678814D01*
X44308538Y-70585910D01*
X44460883Y-70460883D01*
X44585910Y-70308538D01*
X44678814Y-70134727D01*
X44736024Y-69946132D01*
X44755341Y-69750000D01*
X44736024Y-69553868D01*
X44678814Y-69365273D01*
X44629438Y-69272897D01*
X44588784Y-69196838D01*
X44588781Y-69196834D01*
X44585910Y-69191462D01*
X44460883Y-69039117D01*
X44371606Y-68965849D01*
X44313250Y-68917957D01*
X44313249Y-68917956D01*
X44308538Y-68914090D01*
X44303167Y-68911219D01*
X44303161Y-68911215D01*
X44140099Y-68824057D01*
X44140095Y-68824055D01*
X44134727Y-68821186D01*
X44128899Y-68819418D01*
X43951962Y-68765744D01*
X43951957Y-68765743D01*
X43946132Y-68763976D01*
X43940073Y-68763379D01*
X43940067Y-68763378D01*
X43756062Y-68745256D01*
X43750000Y-68744659D01*
X43743938Y-68745256D01*
X43559932Y-68763378D01*
X43559924Y-68763379D01*
X43553868Y-68763976D01*
X43548044Y-68765742D01*
X43548037Y-68765744D01*
X43371100Y-68819418D01*
X43371096Y-68819419D01*
X43365273Y-68821186D01*
X43359907Y-68824053D01*
X43359900Y-68824057D01*
X43196838Y-68911215D01*
X43196827Y-68911222D01*
X43191462Y-68914090D01*
X43186754Y-68917953D01*
X43186749Y-68917957D01*
X43043823Y-69035254D01*
X43043818Y-69035258D01*
X43039117Y-69039117D01*
X43035258Y-69043818D01*
X43035254Y-69043823D01*
X42917957Y-69186749D01*
X42917953Y-69186754D01*
X42914090Y-69191462D01*
X42911222Y-69196827D01*
X42911215Y-69196838D01*
X42824057Y-69359900D01*
X42824053Y-69359907D01*
X42821186Y-69365273D01*
X42819419Y-69371096D01*
X42819418Y-69371100D01*
X42765744Y-69548037D01*
X42765742Y-69548044D01*
X42763976Y-69553868D01*
X42763379Y-69559924D01*
X42763378Y-69559932D01*
X42745856Y-69737845D01*
X42744659Y-69750000D01*
X41125500Y-69750000D01*
X41125500Y-63698687D01*
X41133736Y-63654249D01*
X41157350Y-63615715D01*
X41232533Y-63532216D01*
X41327179Y-63368284D01*
X41385674Y-63188256D01*
X41403321Y-63020345D01*
X41414721Y-62979926D01*
X41438958Y-62945631D01*
X41612311Y-62772278D01*
X41620481Y-62764844D01*
X41626877Y-62760786D01*
X41672918Y-62711756D01*
X41675535Y-62709054D01*
X41695120Y-62689471D01*
X41697585Y-62686292D01*
X41705167Y-62677416D01*
X41735062Y-62645582D01*
X41744713Y-62628023D01*
X41755390Y-62611770D01*
X41767673Y-62595936D01*
X41785026Y-62555832D01*
X41790158Y-62545361D01*
X41807435Y-62513935D01*
X41807435Y-62513934D01*
X41811197Y-62507092D01*
X41816177Y-62487691D01*
X41822481Y-62469281D01*
X41823129Y-62467784D01*
X41830438Y-62450896D01*
X41837272Y-62407741D01*
X41839638Y-62396321D01*
X41848560Y-62361574D01*
X41850500Y-62354019D01*
X41850500Y-62333983D01*
X41852025Y-62314597D01*
X41855160Y-62294804D01*
X41851050Y-62251324D01*
X41850500Y-62239655D01*
X41850500Y-57500000D01*
X45094540Y-57500000D01*
X45095219Y-57506460D01*
X45113646Y-57681795D01*
X45113647Y-57681803D01*
X45114326Y-57688256D01*
X45116331Y-57694428D01*
X45116333Y-57694435D01*
X45170813Y-57862105D01*
X45172821Y-57868284D01*
X45267467Y-58032216D01*
X45394129Y-58172888D01*
X45547270Y-58284151D01*
X45720197Y-58361144D01*
X45905354Y-58400500D01*
X46088143Y-58400500D01*
X46094646Y-58400500D01*
X46279803Y-58361144D01*
X46452730Y-58284151D01*
X46605871Y-58172888D01*
X46732533Y-58032216D01*
X46827179Y-57868284D01*
X46885674Y-57688256D01*
X46905460Y-57500000D01*
X46885674Y-57311744D01*
X46827179Y-57131716D01*
X46732533Y-56967784D01*
X46657349Y-56884284D01*
X46633736Y-56845751D01*
X46625500Y-56801313D01*
X46625500Y-54995603D01*
X46640838Y-54935866D01*
X46683057Y-54890907D01*
X46741712Y-54871848D01*
X46802295Y-54883404D01*
X46848927Y-54921978D01*
X46849567Y-54923023D01*
X47009601Y-55110399D01*
X47013308Y-55113565D01*
X47193266Y-55267264D01*
X47193269Y-55267266D01*
X47196977Y-55270433D01*
X47407080Y-55399184D01*
X47634738Y-55493483D01*
X47874345Y-55551007D01*
X48120000Y-55570341D01*
X48365655Y-55551007D01*
X48605262Y-55493483D01*
X48832920Y-55399184D01*
X49043023Y-55270433D01*
X49230399Y-55110399D01*
X49390433Y-54923023D01*
X49519184Y-54712920D01*
X49613483Y-54485262D01*
X49671007Y-54245655D01*
X49690341Y-54000000D01*
X49671007Y-53754345D01*
X49613483Y-53514738D01*
X49519184Y-53287080D01*
X49390433Y-53076977D01*
X49387259Y-53073261D01*
X49233565Y-52893308D01*
X49230399Y-52889601D01*
X49176197Y-52843308D01*
X49046733Y-52732735D01*
X49046728Y-52732731D01*
X49043023Y-52729567D01*
X48832920Y-52600816D01*
X48605262Y-52506517D01*
X48600533Y-52505381D01*
X48600525Y-52505379D01*
X48370388Y-52450129D01*
X48370384Y-52450128D01*
X48365655Y-52448993D01*
X48360802Y-52448611D01*
X48124854Y-52430041D01*
X48120000Y-52429659D01*
X48115146Y-52430041D01*
X47879197Y-52448611D01*
X47879195Y-52448611D01*
X47874345Y-52448993D01*
X47869617Y-52450127D01*
X47869611Y-52450129D01*
X47639474Y-52505379D01*
X47639462Y-52505382D01*
X47634738Y-52506517D01*
X47630241Y-52508379D01*
X47630237Y-52508381D01*
X47411584Y-52598950D01*
X47411579Y-52598952D01*
X47407080Y-52600816D01*
X47402927Y-52603360D01*
X47402921Y-52603364D01*
X47201134Y-52727019D01*
X47201128Y-52727022D01*
X47196977Y-52729567D01*
X47193277Y-52732726D01*
X47193266Y-52732735D01*
X47013308Y-52886434D01*
X47013301Y-52886440D01*
X47009601Y-52889601D01*
X47006440Y-52893301D01*
X47006434Y-52893308D01*
X46852740Y-53073261D01*
X46852735Y-53073266D01*
X46849567Y-53076977D01*
X46848927Y-53078021D01*
X46802295Y-53116596D01*
X46741712Y-53128152D01*
X46683057Y-53109093D01*
X46640838Y-53064134D01*
X46625500Y-53004397D01*
X46625500Y-47698687D01*
X46633736Y-47654249D01*
X46657350Y-47615715D01*
X46732533Y-47532216D01*
X46827179Y-47368284D01*
X46885674Y-47188256D01*
X46905460Y-47000000D01*
X46885674Y-46811744D01*
X46827179Y-46631716D01*
X46732533Y-46467784D01*
X46605871Y-46327112D01*
X46600613Y-46323292D01*
X46600611Y-46323290D01*
X46457988Y-46219669D01*
X46457987Y-46219668D01*
X46452730Y-46215849D01*
X46446792Y-46213205D01*
X46285745Y-46141501D01*
X46285740Y-46141499D01*
X46279803Y-46138856D01*
X46273444Y-46137504D01*
X46273440Y-46137503D01*
X46101008Y-46100852D01*
X46101005Y-46100851D01*
X46094646Y-46099500D01*
X45905354Y-46099500D01*
X45898995Y-46100851D01*
X45898991Y-46100852D01*
X45726559Y-46137503D01*
X45726552Y-46137505D01*
X45720197Y-46138856D01*
X45714262Y-46141498D01*
X45714254Y-46141501D01*
X45553207Y-46213205D01*
X45553202Y-46213207D01*
X45547270Y-46215849D01*
X45542016Y-46219665D01*
X45542011Y-46219669D01*
X45399388Y-46323290D01*
X45399381Y-46323295D01*
X45394129Y-46327112D01*
X45389784Y-46331937D01*
X45389779Y-46331942D01*
X45271813Y-46462956D01*
X45271808Y-46462962D01*
X45267467Y-46467784D01*
X45264222Y-46473404D01*
X45264218Y-46473410D01*
X45176069Y-46626089D01*
X45176066Y-46626094D01*
X45172821Y-46631716D01*
X45170815Y-46637888D01*
X45170813Y-46637894D01*
X45116333Y-46805564D01*
X45116331Y-46805573D01*
X45114326Y-46811744D01*
X45113648Y-46818194D01*
X45113646Y-46818204D01*
X45095962Y-46986464D01*
X45094540Y-47000000D01*
X45095219Y-47006460D01*
X45113646Y-47181795D01*
X45113647Y-47181803D01*
X45114326Y-47188256D01*
X45116331Y-47194428D01*
X45116333Y-47194435D01*
X45170813Y-47362105D01*
X45172821Y-47368284D01*
X45267467Y-47532216D01*
X45271811Y-47537041D01*
X45271813Y-47537043D01*
X45342650Y-47615715D01*
X45366264Y-47654249D01*
X45374500Y-47698687D01*
X45374500Y-56801313D01*
X45366264Y-56845751D01*
X45342650Y-56884285D01*
X45271813Y-56962956D01*
X45271808Y-56962962D01*
X45267467Y-56967784D01*
X45264222Y-56973404D01*
X45264218Y-56973410D01*
X45176069Y-57126089D01*
X45176066Y-57126094D01*
X45172821Y-57131716D01*
X45170815Y-57137888D01*
X45170813Y-57137894D01*
X45116333Y-57305564D01*
X45116331Y-57305573D01*
X45114326Y-57311744D01*
X45113648Y-57318194D01*
X45113646Y-57318204D01*
X45095962Y-57486464D01*
X45094540Y-57500000D01*
X41850500Y-57500000D01*
X41850500Y-55068665D01*
X41865362Y-55009802D01*
X41906385Y-54965049D01*
X41963736Y-54945133D01*
X42023667Y-54954829D01*
X42071812Y-54991813D01*
X42096055Y-55022510D01*
X42096059Y-55022515D01*
X42099210Y-55026504D01*
X42102965Y-55029920D01*
X42102968Y-55029924D01*
X42234047Y-55149197D01*
X42281645Y-55192508D01*
X42315159Y-55214189D01*
X42471131Y-55315092D01*
X42488744Y-55326486D01*
X42714945Y-55424841D01*
X42954171Y-55484930D01*
X43200000Y-55505141D01*
X43273526Y-55503344D01*
X43518074Y-55471149D01*
X43754079Y-55399445D01*
X43975205Y-55290158D01*
X44175512Y-55146223D01*
X44349621Y-54971505D01*
X44492856Y-54770697D01*
X44601370Y-54549191D01*
X44672250Y-54312936D01*
X44703592Y-54068278D01*
X44694553Y-53821785D01*
X44645377Y-53580079D01*
X44557385Y-53349650D01*
X44432939Y-53136687D01*
X44275382Y-52946908D01*
X44150715Y-52838918D01*
X44092793Y-52788744D01*
X44092791Y-52788742D01*
X44088945Y-52785411D01*
X43924938Y-52684907D01*
X43882977Y-52659193D01*
X43882973Y-52659191D01*
X43878634Y-52656532D01*
X43873923Y-52654619D01*
X43873917Y-52654616D01*
X43654809Y-52565646D01*
X43654803Y-52565644D01*
X43650099Y-52563734D01*
X43645134Y-52562615D01*
X43414439Y-52510625D01*
X43414430Y-52510623D01*
X43409475Y-52509507D01*
X43404394Y-52509214D01*
X43168307Y-52495601D01*
X43163226Y-52495308D01*
X43158175Y-52495847D01*
X43158166Y-52495848D01*
X42923020Y-52520978D01*
X42923010Y-52520979D01*
X42917965Y-52521519D01*
X42913066Y-52522877D01*
X42913064Y-52522878D01*
X42685183Y-52586075D01*
X42685175Y-52586077D01*
X42680278Y-52587436D01*
X42675667Y-52589576D01*
X42675657Y-52589580D01*
X42461165Y-52689144D01*
X42461156Y-52689148D01*
X42456548Y-52691288D01*
X42452355Y-52694147D01*
X42452343Y-52694155D01*
X42313682Y-52788744D01*
X42252784Y-52830286D01*
X42249112Y-52833794D01*
X42249107Y-52833799D01*
X42078138Y-52997179D01*
X42078130Y-52997187D01*
X42074458Y-53000697D01*
X42071404Y-53004764D01*
X42068023Y-53008573D01*
X42066670Y-53007371D01*
X42025903Y-53040151D01*
X41965565Y-53050985D01*
X41907410Y-53031590D01*
X41865654Y-52986708D01*
X41850500Y-52927307D01*
X41850500Y-44818665D01*
X41865362Y-44759802D01*
X41906385Y-44715049D01*
X41963736Y-44695133D01*
X42023667Y-44704829D01*
X42071812Y-44741813D01*
X42096055Y-44772510D01*
X42096059Y-44772515D01*
X42099210Y-44776504D01*
X42102965Y-44779920D01*
X42102968Y-44779924D01*
X42234047Y-44899197D01*
X42281645Y-44942508D01*
X42315159Y-44964189D01*
X42471131Y-45065092D01*
X42488744Y-45076486D01*
X42714945Y-45174841D01*
X42954171Y-45234930D01*
X43200000Y-45255141D01*
X43273526Y-45253344D01*
X43518074Y-45221149D01*
X43754079Y-45149445D01*
X43975205Y-45040158D01*
X44175512Y-44896223D01*
X44349621Y-44721505D01*
X44492856Y-44520697D01*
X44601370Y-44299191D01*
X44672250Y-44062936D01*
X44703592Y-43818278D01*
X44701088Y-43750000D01*
X46549659Y-43750000D01*
X46568993Y-43995655D01*
X46570128Y-44000384D01*
X46570129Y-44000388D01*
X46625379Y-44230525D01*
X46625381Y-44230533D01*
X46626517Y-44235262D01*
X46720816Y-44462920D01*
X46849567Y-44673023D01*
X46852731Y-44676728D01*
X46852735Y-44676733D01*
X47000034Y-44849197D01*
X47009601Y-44860399D01*
X47013308Y-44863565D01*
X47193266Y-45017264D01*
X47193269Y-45017266D01*
X47196977Y-45020433D01*
X47407080Y-45149184D01*
X47634738Y-45243483D01*
X47874345Y-45301007D01*
X48120000Y-45320341D01*
X48365655Y-45301007D01*
X48605262Y-45243483D01*
X48832920Y-45149184D01*
X49043023Y-45020433D01*
X49230399Y-44860399D01*
X49390433Y-44673023D01*
X49519184Y-44462920D01*
X49613483Y-44235262D01*
X49671007Y-43995655D01*
X49690341Y-43750000D01*
X49671007Y-43504345D01*
X49613483Y-43264738D01*
X49519184Y-43037080D01*
X49390433Y-42826977D01*
X49351279Y-42781134D01*
X49233565Y-42643308D01*
X49230399Y-42639601D01*
X49176197Y-42593308D01*
X49046733Y-42482735D01*
X49046728Y-42482731D01*
X49043023Y-42479567D01*
X48832920Y-42350816D01*
X48605262Y-42256517D01*
X48600533Y-42255381D01*
X48600525Y-42255379D01*
X48370388Y-42200129D01*
X48370384Y-42200128D01*
X48365655Y-42198993D01*
X48360802Y-42198611D01*
X48124854Y-42180041D01*
X48120000Y-42179659D01*
X48115146Y-42180041D01*
X47879197Y-42198611D01*
X47879195Y-42198611D01*
X47874345Y-42198993D01*
X47869617Y-42200127D01*
X47869611Y-42200129D01*
X47639474Y-42255379D01*
X47639462Y-42255382D01*
X47634738Y-42256517D01*
X47630241Y-42258379D01*
X47630237Y-42258381D01*
X47411584Y-42348950D01*
X47411579Y-42348952D01*
X47407080Y-42350816D01*
X47402927Y-42353360D01*
X47402921Y-42353364D01*
X47201134Y-42477019D01*
X47201128Y-42477022D01*
X47196977Y-42479567D01*
X47193277Y-42482726D01*
X47193266Y-42482735D01*
X47013308Y-42636434D01*
X47013301Y-42636440D01*
X47009601Y-42639601D01*
X47006440Y-42643301D01*
X47006434Y-42643308D01*
X46852735Y-42823266D01*
X46852726Y-42823277D01*
X46849567Y-42826977D01*
X46847022Y-42831128D01*
X46847019Y-42831134D01*
X46723364Y-43032921D01*
X46723360Y-43032927D01*
X46720816Y-43037080D01*
X46718952Y-43041579D01*
X46718950Y-43041584D01*
X46645266Y-43219474D01*
X46626517Y-43264738D01*
X46625382Y-43269462D01*
X46625379Y-43269474D01*
X46570129Y-43499611D01*
X46570127Y-43499617D01*
X46568993Y-43504345D01*
X46568611Y-43509195D01*
X46568611Y-43509197D01*
X46561457Y-43600097D01*
X46549659Y-43750000D01*
X44701088Y-43750000D01*
X44694553Y-43571785D01*
X44645377Y-43330079D01*
X44557385Y-43099650D01*
X44432939Y-42886687D01*
X44275382Y-42696908D01*
X44150715Y-42588918D01*
X44092793Y-42538744D01*
X44092791Y-42538742D01*
X44088945Y-42535411D01*
X43924938Y-42434907D01*
X43882977Y-42409193D01*
X43882973Y-42409191D01*
X43878634Y-42406532D01*
X43873923Y-42404619D01*
X43873917Y-42404616D01*
X43654809Y-42315646D01*
X43654803Y-42315644D01*
X43650099Y-42313734D01*
X43645134Y-42312615D01*
X43414439Y-42260625D01*
X43414430Y-42260623D01*
X43409475Y-42259507D01*
X43404394Y-42259214D01*
X43168307Y-42245601D01*
X43163226Y-42245308D01*
X43158175Y-42245847D01*
X43158166Y-42245848D01*
X42923020Y-42270978D01*
X42923010Y-42270979D01*
X42917965Y-42271519D01*
X42913066Y-42272877D01*
X42913064Y-42272878D01*
X42685183Y-42336075D01*
X42685175Y-42336077D01*
X42680278Y-42337436D01*
X42675667Y-42339576D01*
X42675657Y-42339580D01*
X42461165Y-42439144D01*
X42461156Y-42439148D01*
X42456548Y-42441288D01*
X42452355Y-42444147D01*
X42452343Y-42444155D01*
X42313682Y-42538744D01*
X42252784Y-42580286D01*
X42249112Y-42583794D01*
X42249107Y-42583799D01*
X42078138Y-42747179D01*
X42078130Y-42747187D01*
X42074458Y-42750697D01*
X42071404Y-42754764D01*
X42068023Y-42758573D01*
X42066670Y-42757371D01*
X42025903Y-42790151D01*
X41965565Y-42800985D01*
X41907410Y-42781590D01*
X41865654Y-42736708D01*
X41850500Y-42677307D01*
X41850500Y-36250000D01*
X42994659Y-36250000D01*
X42995256Y-36256062D01*
X43013378Y-36440067D01*
X43013379Y-36440073D01*
X43013976Y-36446132D01*
X43015743Y-36451957D01*
X43015744Y-36451962D01*
X43036489Y-36520348D01*
X43071186Y-36634727D01*
X43074055Y-36640095D01*
X43074057Y-36640099D01*
X43161215Y-36803161D01*
X43161219Y-36803167D01*
X43164090Y-36808538D01*
X43167956Y-36813249D01*
X43167957Y-36813250D01*
X43279108Y-36948687D01*
X43289117Y-36960883D01*
X43441462Y-37085910D01*
X43446834Y-37088781D01*
X43446838Y-37088784D01*
X43588839Y-37164684D01*
X43615273Y-37178814D01*
X43803868Y-37236024D01*
X44000000Y-37255341D01*
X44196132Y-37236024D01*
X44384727Y-37178814D01*
X44558538Y-37085910D01*
X44710883Y-36960883D01*
X44835910Y-36808538D01*
X44928814Y-36634727D01*
X44986024Y-36446132D01*
X45005341Y-36250000D01*
X44986024Y-36053868D01*
X44928814Y-35865273D01*
X44886866Y-35786794D01*
X44838784Y-35696838D01*
X44838781Y-35696834D01*
X44835910Y-35691462D01*
X44710883Y-35539117D01*
X44621606Y-35465849D01*
X44563250Y-35417957D01*
X44563249Y-35417956D01*
X44558538Y-35414090D01*
X44553167Y-35411219D01*
X44553161Y-35411215D01*
X44390099Y-35324057D01*
X44390095Y-35324055D01*
X44384727Y-35321186D01*
X44378899Y-35319418D01*
X44201962Y-35265744D01*
X44201957Y-35265743D01*
X44196132Y-35263976D01*
X44190073Y-35263379D01*
X44190067Y-35263378D01*
X44006062Y-35245256D01*
X44000000Y-35244659D01*
X43993938Y-35245256D01*
X43809932Y-35263378D01*
X43809924Y-35263379D01*
X43803868Y-35263976D01*
X43798044Y-35265742D01*
X43798037Y-35265744D01*
X43621100Y-35319418D01*
X43621096Y-35319419D01*
X43615273Y-35321186D01*
X43609907Y-35324053D01*
X43609900Y-35324057D01*
X43446838Y-35411215D01*
X43446827Y-35411222D01*
X43441462Y-35414090D01*
X43436754Y-35417953D01*
X43436749Y-35417957D01*
X43293823Y-35535254D01*
X43293818Y-35535258D01*
X43289117Y-35539117D01*
X43285258Y-35543818D01*
X43285254Y-35543823D01*
X43167957Y-35686749D01*
X43167953Y-35686754D01*
X43164090Y-35691462D01*
X43161222Y-35696827D01*
X43161215Y-35696838D01*
X43074057Y-35859900D01*
X43074053Y-35859907D01*
X43071186Y-35865273D01*
X43069419Y-35871096D01*
X43069418Y-35871100D01*
X43015744Y-36048037D01*
X43015742Y-36048044D01*
X43013976Y-36053868D01*
X43013379Y-36059924D01*
X43013378Y-36059932D01*
X42995856Y-36237845D01*
X42994659Y-36250000D01*
X41850500Y-36250000D01*
X41850500Y-33302771D01*
X41851020Y-33291718D01*
X41852672Y-33284332D01*
X41850561Y-33217144D01*
X41850500Y-33213250D01*
X41850500Y-33189545D01*
X41850500Y-33185650D01*
X41849998Y-33181681D01*
X41849080Y-33170024D01*
X41848763Y-33159939D01*
X41847709Y-33126373D01*
X41842120Y-33107140D01*
X41838174Y-33088083D01*
X41836641Y-33075944D01*
X41835664Y-33068208D01*
X41819582Y-33027591D01*
X41815803Y-33016551D01*
X41805795Y-32982102D01*
X41805793Y-32982099D01*
X41803618Y-32974610D01*
X41799647Y-32967896D01*
X41799645Y-32967891D01*
X41793421Y-32957368D01*
X41784858Y-32939890D01*
X41777486Y-32921268D01*
X41772902Y-32914959D01*
X41772899Y-32914953D01*
X41751817Y-32885937D01*
X41745401Y-32876170D01*
X41727143Y-32845296D01*
X41727140Y-32845292D01*
X41723170Y-32838579D01*
X41709006Y-32824415D01*
X41696368Y-32809618D01*
X41689184Y-32799729D01*
X41689178Y-32799723D01*
X41684594Y-32793413D01*
X41650946Y-32765577D01*
X41642305Y-32757714D01*
X41188961Y-32304370D01*
X41164721Y-32270072D01*
X41153321Y-32229650D01*
X41136353Y-32068204D01*
X41136352Y-32068203D01*
X41135674Y-32061744D01*
X41077179Y-31881716D01*
X40982533Y-31717784D01*
X40855871Y-31577112D01*
X40850613Y-31573292D01*
X40850611Y-31573290D01*
X40707988Y-31469669D01*
X40707987Y-31469668D01*
X40702730Y-31465849D01*
X40696792Y-31463205D01*
X40535745Y-31391501D01*
X40535740Y-31391499D01*
X40529803Y-31388856D01*
X40523444Y-31387504D01*
X40523440Y-31387503D01*
X40351008Y-31350852D01*
X40351005Y-31350851D01*
X40344646Y-31349500D01*
X40155354Y-31349500D01*
X40148995Y-31350851D01*
X40148991Y-31350852D01*
X39976559Y-31387503D01*
X39976552Y-31387505D01*
X39970197Y-31388856D01*
X39964262Y-31391498D01*
X39964254Y-31391501D01*
X39803207Y-31463205D01*
X39803202Y-31463207D01*
X39797270Y-31465849D01*
X39792016Y-31469665D01*
X39792011Y-31469669D01*
X39649388Y-31573290D01*
X39649381Y-31573295D01*
X39644129Y-31577112D01*
X39639784Y-31581937D01*
X39639779Y-31581942D01*
X39521813Y-31712956D01*
X39521808Y-31712962D01*
X39517467Y-31717784D01*
X39514222Y-31723404D01*
X39514218Y-31723410D01*
X39426069Y-31876089D01*
X39426066Y-31876094D01*
X39422821Y-31881716D01*
X39420815Y-31887888D01*
X39420813Y-31887894D01*
X39366333Y-32055564D01*
X39366331Y-32055573D01*
X39364326Y-32061744D01*
X39363648Y-32068194D01*
X39363646Y-32068204D01*
X39346679Y-32229650D01*
X39344540Y-32250000D01*
X39345219Y-32256460D01*
X39363646Y-32431795D01*
X39363647Y-32431803D01*
X39364326Y-32438256D01*
X39366331Y-32444428D01*
X39366333Y-32444435D01*
X39420813Y-32612105D01*
X39422821Y-32618284D01*
X39517467Y-32782216D01*
X39521811Y-32787041D01*
X39521813Y-32787043D01*
X39602064Y-32876170D01*
X39644129Y-32922888D01*
X39649387Y-32926708D01*
X39649388Y-32926709D01*
X39720699Y-32978519D01*
X39797270Y-33034151D01*
X39970197Y-33111144D01*
X40155354Y-33150500D01*
X40214548Y-33150500D01*
X40262001Y-33159939D01*
X40302229Y-33186819D01*
X40563181Y-33447772D01*
X40590061Y-33488000D01*
X40599500Y-33535453D01*
X40599500Y-35415547D01*
X40585985Y-35471842D01*
X40548385Y-35515865D01*
X40494898Y-35538020D01*
X40437182Y-35533478D01*
X40387819Y-35503228D01*
X39497286Y-34612695D01*
X39489842Y-34604514D01*
X39485786Y-34598123D01*
X39436775Y-34552098D01*
X39433978Y-34549387D01*
X39417227Y-34532636D01*
X39417226Y-34532635D01*
X39414471Y-34529880D01*
X39411290Y-34527412D01*
X39402414Y-34519830D01*
X39376269Y-34495278D01*
X39376267Y-34495276D01*
X39370582Y-34489938D01*
X39363749Y-34486182D01*
X39363743Y-34486177D01*
X39353025Y-34480285D01*
X39336766Y-34469606D01*
X39327095Y-34462104D01*
X39327092Y-34462102D01*
X39320936Y-34457327D01*
X39313779Y-34454229D01*
X39313776Y-34454228D01*
X39280849Y-34439978D01*
X39270363Y-34434841D01*
X39238932Y-34417562D01*
X39238923Y-34417558D01*
X39232092Y-34413803D01*
X39224535Y-34411862D01*
X39224531Y-34411861D01*
X39212688Y-34408820D01*
X39194284Y-34402519D01*
X39183057Y-34397660D01*
X39183050Y-34397658D01*
X39175896Y-34394562D01*
X39168192Y-34393341D01*
X39168190Y-34393341D01*
X39132759Y-34387729D01*
X39121324Y-34385361D01*
X39086571Y-34376438D01*
X39086563Y-34376437D01*
X39079019Y-34374500D01*
X39071223Y-34374500D01*
X39058983Y-34374500D01*
X39039597Y-34372974D01*
X39019804Y-34369840D01*
X39012038Y-34370574D01*
X39012035Y-34370574D01*
X38976324Y-34373950D01*
X38964655Y-34374500D01*
X35953748Y-34374500D01*
X35903315Y-34363781D01*
X35865218Y-34336104D01*
X35865050Y-34336291D01*
X35863271Y-34334689D01*
X35861601Y-34333476D01*
X35855871Y-34327112D01*
X35850613Y-34323292D01*
X35850611Y-34323290D01*
X35707988Y-34219669D01*
X35707987Y-34219668D01*
X35702730Y-34215849D01*
X35696792Y-34213205D01*
X35535745Y-34141501D01*
X35535740Y-34141499D01*
X35529803Y-34138856D01*
X35523444Y-34137504D01*
X35523440Y-34137503D01*
X35351008Y-34100852D01*
X35351005Y-34100851D01*
X35344646Y-34099500D01*
X35155354Y-34099500D01*
X35148995Y-34100851D01*
X35148991Y-34100852D01*
X34976559Y-34137503D01*
X34976552Y-34137505D01*
X34970197Y-34138856D01*
X34964262Y-34141498D01*
X34964254Y-34141501D01*
X34803207Y-34213205D01*
X34803202Y-34213207D01*
X34797270Y-34215849D01*
X34792016Y-34219665D01*
X34792011Y-34219669D01*
X34649388Y-34323290D01*
X34649381Y-34323295D01*
X34644129Y-34327112D01*
X34639784Y-34331937D01*
X34639779Y-34331942D01*
X34521813Y-34462956D01*
X34521808Y-34462962D01*
X34517467Y-34467784D01*
X34514222Y-34473404D01*
X34514218Y-34473410D01*
X34426069Y-34626089D01*
X34426066Y-34626094D01*
X34422821Y-34631716D01*
X34420815Y-34637888D01*
X34420813Y-34637894D01*
X34366333Y-34805564D01*
X34366331Y-34805573D01*
X34364326Y-34811744D01*
X34363648Y-34818194D01*
X34363646Y-34818204D01*
X34345962Y-34986464D01*
X34344540Y-35000000D01*
X34345219Y-35006460D01*
X34363646Y-35181795D01*
X34363647Y-35181803D01*
X34364326Y-35188256D01*
X34366331Y-35194428D01*
X34366333Y-35194435D01*
X34417157Y-35350852D01*
X34422821Y-35368284D01*
X34426068Y-35373908D01*
X34426069Y-35373910D01*
X34481355Y-35469669D01*
X34517467Y-35532216D01*
X34521811Y-35537041D01*
X34521813Y-35537043D01*
X34609959Y-35634939D01*
X34644129Y-35672888D01*
X34797270Y-35784151D01*
X34970197Y-35861144D01*
X35155354Y-35900500D01*
X35338143Y-35900500D01*
X35344646Y-35900500D01*
X35529803Y-35861144D01*
X35702730Y-35784151D01*
X35855871Y-35672888D01*
X35861601Y-35666523D01*
X35863271Y-35665310D01*
X35865050Y-35663709D01*
X35865218Y-35663895D01*
X35903315Y-35636219D01*
X35953748Y-35625500D01*
X38689548Y-35625500D01*
X38737001Y-35634939D01*
X38777229Y-35661819D01*
X39561038Y-36445629D01*
X39585278Y-36479927D01*
X39596678Y-36520348D01*
X39606322Y-36612105D01*
X39614326Y-36688256D01*
X39616331Y-36694428D01*
X39616333Y-36694435D01*
X39653408Y-36808538D01*
X39672821Y-36868284D01*
X39676068Y-36873908D01*
X39676069Y-36873910D01*
X39728512Y-36964745D01*
X39767467Y-37032216D01*
X39771811Y-37037041D01*
X39771813Y-37037043D01*
X39818401Y-37088784D01*
X39894129Y-37172888D01*
X39899387Y-37176708D01*
X39899388Y-37176709D01*
X39968264Y-37226750D01*
X40047270Y-37284151D01*
X40220197Y-37361144D01*
X40405354Y-37400500D01*
X40411857Y-37400500D01*
X40475500Y-37400500D01*
X40537500Y-37417113D01*
X40582887Y-37462500D01*
X40599500Y-37524500D01*
X40599500Y-42192815D01*
X40584858Y-42251268D01*
X40544391Y-42295917D01*
X40487654Y-42316218D01*
X40428047Y-42307376D01*
X40315180Y-42260625D01*
X40305262Y-42256517D01*
X40300533Y-42255381D01*
X40300525Y-42255379D01*
X40070388Y-42200129D01*
X40070384Y-42200128D01*
X40065655Y-42198993D01*
X40060802Y-42198611D01*
X39824854Y-42180041D01*
X39820000Y-42179659D01*
X39815146Y-42180041D01*
X39579197Y-42198611D01*
X39579195Y-42198611D01*
X39574345Y-42198993D01*
X39569617Y-42200127D01*
X39569611Y-42200129D01*
X39339474Y-42255379D01*
X39339462Y-42255382D01*
X39334738Y-42256517D01*
X39330241Y-42258379D01*
X39330237Y-42258381D01*
X39111584Y-42348950D01*
X39111579Y-42348952D01*
X39107080Y-42350816D01*
X39102927Y-42353360D01*
X39102921Y-42353364D01*
X38901134Y-42477019D01*
X38901128Y-42477022D01*
X38896977Y-42479567D01*
X38893277Y-42482726D01*
X38893266Y-42482735D01*
X38713308Y-42636434D01*
X38713301Y-42636440D01*
X38709601Y-42639601D01*
X38706440Y-42643301D01*
X38706434Y-42643308D01*
X38552735Y-42823266D01*
X38552726Y-42823277D01*
X38549567Y-42826977D01*
X38547022Y-42831128D01*
X38547019Y-42831134D01*
X38423364Y-43032921D01*
X38423360Y-43032927D01*
X38420816Y-43037080D01*
X38418952Y-43041579D01*
X38418950Y-43041584D01*
X38373561Y-43151164D01*
X38331885Y-43204029D01*
X38268729Y-43227329D01*
X38202705Y-43214196D01*
X38153273Y-43168501D01*
X38135000Y-43103711D01*
X38135000Y-42740482D01*
X38134646Y-42733885D01*
X38129426Y-42685332D01*
X38125888Y-42670358D01*
X38081452Y-42551222D01*
X38073037Y-42535810D01*
X37997501Y-42434907D01*
X37985092Y-42422498D01*
X37884189Y-42346962D01*
X37868777Y-42338547D01*
X37749641Y-42294111D01*
X37734667Y-42290573D01*
X37686114Y-42285353D01*
X37679518Y-42285000D01*
X36986326Y-42285000D01*
X36973450Y-42288450D01*
X36970000Y-42301326D01*
X36970000Y-45198674D01*
X36973450Y-45211549D01*
X36986326Y-45215000D01*
X37679518Y-45215000D01*
X37686114Y-45214646D01*
X37734667Y-45209426D01*
X37749641Y-45205888D01*
X37868777Y-45161452D01*
X37884189Y-45153037D01*
X37985092Y-45077501D01*
X37997501Y-45065092D01*
X38073037Y-44964189D01*
X38081452Y-44948777D01*
X38125888Y-44829641D01*
X38129426Y-44814667D01*
X38134646Y-44766114D01*
X38135000Y-44759518D01*
X38135000Y-44396289D01*
X38153273Y-44331499D01*
X38202705Y-44285804D01*
X38268729Y-44272671D01*
X38331885Y-44295971D01*
X38373560Y-44348835D01*
X38420816Y-44462920D01*
X38549567Y-44673023D01*
X38552731Y-44676728D01*
X38552735Y-44676733D01*
X38700034Y-44849197D01*
X38709601Y-44860399D01*
X38713308Y-44863565D01*
X38893266Y-45017264D01*
X38893269Y-45017266D01*
X38896977Y-45020433D01*
X39107080Y-45149184D01*
X39334738Y-45243483D01*
X39574345Y-45301007D01*
X39820000Y-45320341D01*
X40065655Y-45301007D01*
X40305262Y-45243483D01*
X40428046Y-45192624D01*
X40487654Y-45183782D01*
X40544391Y-45204083D01*
X40584858Y-45248732D01*
X40599500Y-45307185D01*
X40599500Y-52442815D01*
X40584858Y-52501268D01*
X40544391Y-52545917D01*
X40487654Y-52566218D01*
X40428047Y-52557376D01*
X40315180Y-52510625D01*
X40305262Y-52506517D01*
X40300533Y-52505381D01*
X40300525Y-52505379D01*
X40070388Y-52450129D01*
X40070384Y-52450128D01*
X40065655Y-52448993D01*
X40060802Y-52448611D01*
X39824854Y-52430041D01*
X39820000Y-52429659D01*
X39815146Y-52430041D01*
X39579197Y-52448611D01*
X39579195Y-52448611D01*
X39574345Y-52448993D01*
X39569617Y-52450127D01*
X39569611Y-52450129D01*
X39339474Y-52505379D01*
X39339462Y-52505382D01*
X39334738Y-52506517D01*
X39330241Y-52508379D01*
X39330237Y-52508381D01*
X39111584Y-52598950D01*
X39111579Y-52598952D01*
X39107080Y-52600816D01*
X39102927Y-52603360D01*
X39102921Y-52603364D01*
X38901134Y-52727019D01*
X38901128Y-52727022D01*
X38896977Y-52729567D01*
X38893277Y-52732726D01*
X38893266Y-52732735D01*
X38713308Y-52886434D01*
X38713301Y-52886440D01*
X38709601Y-52889601D01*
X38706440Y-52893301D01*
X38706434Y-52893308D01*
X38552735Y-53073266D01*
X38552726Y-53073277D01*
X38549567Y-53076977D01*
X38547022Y-53081128D01*
X38547019Y-53081134D01*
X38423364Y-53282921D01*
X38423360Y-53282927D01*
X38420816Y-53287080D01*
X38418952Y-53291579D01*
X38418950Y-53291584D01*
X38373561Y-53401164D01*
X38331885Y-53454029D01*
X38268729Y-53477329D01*
X38202705Y-53464196D01*
X38153273Y-53418501D01*
X38135000Y-53353711D01*
X38135000Y-52990482D01*
X38134646Y-52983885D01*
X38129426Y-52935332D01*
X38125888Y-52920358D01*
X38081452Y-52801222D01*
X38073037Y-52785810D01*
X37997501Y-52684907D01*
X37985092Y-52672498D01*
X37884189Y-52596962D01*
X37868777Y-52588547D01*
X37749641Y-52544111D01*
X37734667Y-52540573D01*
X37686114Y-52535353D01*
X37679518Y-52535000D01*
X36986326Y-52535000D01*
X36973450Y-52538450D01*
X36970000Y-52551326D01*
X36970000Y-55448674D01*
X36973450Y-55461549D01*
X36986326Y-55465000D01*
X37679518Y-55465000D01*
X37686114Y-55464646D01*
X37734667Y-55459426D01*
X37749641Y-55455888D01*
X37868777Y-55411452D01*
X37884189Y-55403037D01*
X37985092Y-55327501D01*
X37997501Y-55315092D01*
X38073037Y-55214189D01*
X38081452Y-55198777D01*
X38125888Y-55079641D01*
X38129426Y-55064667D01*
X38134646Y-55016114D01*
X38135000Y-55009518D01*
X38135000Y-54646289D01*
X38153273Y-54581499D01*
X38202705Y-54535804D01*
X38268729Y-54522671D01*
X38331885Y-54545971D01*
X38373560Y-54598835D01*
X38420816Y-54712920D01*
X38549567Y-54923023D01*
X38552731Y-54926728D01*
X38552735Y-54926733D01*
X38700034Y-55099197D01*
X38709601Y-55110399D01*
X38713308Y-55113565D01*
X38893266Y-55267264D01*
X38893269Y-55267266D01*
X38896977Y-55270433D01*
X39107080Y-55399184D01*
X39334738Y-55493483D01*
X39574345Y-55551007D01*
X39820000Y-55570341D01*
X40065655Y-55551007D01*
X40305262Y-55493483D01*
X40428046Y-55442624D01*
X40487654Y-55433782D01*
X40544391Y-55454083D01*
X40584858Y-55498732D01*
X40599500Y-55557185D01*
X40599500Y-61964548D01*
X40590061Y-62012001D01*
X40563181Y-62052229D01*
X40552229Y-62063181D01*
X40512001Y-62090061D01*
X40464548Y-62099500D01*
X40405354Y-62099500D01*
X40398995Y-62100851D01*
X40398991Y-62100852D01*
X40226559Y-62137503D01*
X40226552Y-62137505D01*
X40220197Y-62138856D01*
X40214262Y-62141498D01*
X40214254Y-62141501D01*
X40053207Y-62213205D01*
X40053202Y-62213207D01*
X40047270Y-62215849D01*
X40042016Y-62219665D01*
X40042011Y-62219669D01*
X39899388Y-62323290D01*
X39899381Y-62323295D01*
X39894129Y-62327112D01*
X39889784Y-62331937D01*
X39889779Y-62331942D01*
X39771813Y-62462956D01*
X39771808Y-62462962D01*
X39767467Y-62467784D01*
X39764222Y-62473404D01*
X39764218Y-62473410D01*
X39676069Y-62626089D01*
X39676066Y-62626094D01*
X39672821Y-62631716D01*
X39670815Y-62637888D01*
X39670813Y-62637894D01*
X39616333Y-62805564D01*
X39616331Y-62805573D01*
X39614326Y-62811744D01*
X39613648Y-62818194D01*
X39613646Y-62818204D01*
X39596650Y-62979926D01*
X39594540Y-63000000D01*
X39595219Y-63006460D01*
X39613646Y-63181795D01*
X39613647Y-63181803D01*
X39614326Y-63188256D01*
X39616331Y-63194428D01*
X39616333Y-63194435D01*
X39670813Y-63362105D01*
X39672821Y-63368284D01*
X39767467Y-63532216D01*
X39771811Y-63537041D01*
X39771813Y-63537043D01*
X39842650Y-63615715D01*
X39866264Y-63654249D01*
X39874500Y-63698687D01*
X39874500Y-69052424D01*
X39860389Y-69109873D01*
X39821268Y-69154247D01*
X39766041Y-69175446D01*
X39707277Y-69168647D01*
X39658350Y-69135396D01*
X39656085Y-69132881D01*
X39605871Y-69077112D01*
X39600613Y-69073292D01*
X39600611Y-69073290D01*
X39457988Y-68969669D01*
X39457987Y-68969668D01*
X39452730Y-68965849D01*
X39446792Y-68963205D01*
X39285745Y-68891501D01*
X39285740Y-68891499D01*
X39279803Y-68888856D01*
X39273444Y-68887504D01*
X39273440Y-68887503D01*
X39101008Y-68850852D01*
X39101005Y-68850851D01*
X39094646Y-68849500D01*
X38905354Y-68849500D01*
X38898995Y-68850851D01*
X38898991Y-68850852D01*
X38726559Y-68887503D01*
X38726552Y-68887505D01*
X38720197Y-68888856D01*
X38714262Y-68891498D01*
X38714254Y-68891501D01*
X38553207Y-68963205D01*
X38553202Y-68963207D01*
X38547270Y-68965849D01*
X38542016Y-68969665D01*
X38542011Y-68969669D01*
X38399388Y-69073290D01*
X38399381Y-69073295D01*
X38394129Y-69077112D01*
X38389780Y-69081941D01*
X38389781Y-69081941D01*
X38388399Y-69083476D01*
X38386728Y-69084689D01*
X38384950Y-69086291D01*
X38384781Y-69086104D01*
X38346685Y-69113781D01*
X38296252Y-69124500D01*
X37577771Y-69124500D01*
X37566718Y-69123979D01*
X37559332Y-69122328D01*
X37551534Y-69122573D01*
X37492144Y-69124439D01*
X37488250Y-69124500D01*
X37460650Y-69124500D01*
X37456799Y-69124986D01*
X37456768Y-69124988D01*
X37456640Y-69125005D01*
X37445029Y-69125918D01*
X37409171Y-69127045D01*
X37409164Y-69127046D01*
X37401372Y-69127291D01*
X37393888Y-69129465D01*
X37393877Y-69129467D01*
X37382128Y-69132881D01*
X37363083Y-69136825D01*
X37350947Y-69138358D01*
X37350944Y-69138358D01*
X37343208Y-69139336D01*
X37335960Y-69142205D01*
X37335950Y-69142208D01*
X37302592Y-69155415D01*
X37291550Y-69159196D01*
X37257097Y-69169207D01*
X37257092Y-69169208D01*
X37249610Y-69171383D01*
X37242902Y-69175349D01*
X37242897Y-69175352D01*
X37232364Y-69181581D01*
X37214900Y-69190136D01*
X37203524Y-69194640D01*
X37203517Y-69194643D01*
X37196268Y-69197514D01*
X37189962Y-69202094D01*
X37189957Y-69202098D01*
X37160927Y-69223189D01*
X37151169Y-69229598D01*
X37120298Y-69247856D01*
X37113579Y-69251830D01*
X37108063Y-69257344D01*
X37108056Y-69257351D01*
X37099407Y-69266000D01*
X37084624Y-69278626D01*
X37074727Y-69285817D01*
X37074720Y-69285823D01*
X37068413Y-69290406D01*
X37063446Y-69296408D01*
X37063435Y-69296420D01*
X37040570Y-69324059D01*
X37032710Y-69332697D01*
X32802228Y-73563181D01*
X32762000Y-73590061D01*
X32714547Y-73599500D01*
X32655354Y-73599500D01*
X32648995Y-73600851D01*
X32648991Y-73600852D01*
X32476559Y-73637503D01*
X32476552Y-73637505D01*
X32470197Y-73638856D01*
X32464262Y-73641498D01*
X32464254Y-73641501D01*
X32303207Y-73713205D01*
X32303202Y-73713207D01*
X32297270Y-73715849D01*
X32292016Y-73719665D01*
X32292011Y-73719669D01*
X32149388Y-73823290D01*
X32149381Y-73823295D01*
X32144129Y-73827112D01*
X32139784Y-73831937D01*
X32139779Y-73831942D01*
X32021813Y-73962956D01*
X32021808Y-73962962D01*
X32017467Y-73967784D01*
X32014222Y-73973404D01*
X32014218Y-73973410D01*
X31926069Y-74126089D01*
X31926066Y-74126094D01*
X31922821Y-74131716D01*
X31920815Y-74137888D01*
X31920813Y-74137894D01*
X31867431Y-74302188D01*
X31828540Y-74359414D01*
X31765041Y-74386892D01*
X31696703Y-74376069D01*
X31644803Y-74330312D01*
X31625500Y-74263870D01*
X31625500Y-67698687D01*
X31633736Y-67654249D01*
X31657350Y-67615715D01*
X31732533Y-67532216D01*
X31827179Y-67368284D01*
X31885674Y-67188256D01*
X31905460Y-67000000D01*
X31885674Y-66811744D01*
X31827179Y-66631716D01*
X31732533Y-66467784D01*
X31657349Y-66384284D01*
X31633736Y-66345751D01*
X31625500Y-66301313D01*
X31625500Y-53950000D01*
X31899659Y-53950000D01*
X31918993Y-54195655D01*
X31920128Y-54200384D01*
X31920129Y-54200388D01*
X31975379Y-54430525D01*
X31975381Y-54430533D01*
X31976517Y-54435262D01*
X32070816Y-54662920D01*
X32199567Y-54873023D01*
X32202731Y-54876728D01*
X32202735Y-54876733D01*
X32316387Y-55009802D01*
X32359601Y-55060399D01*
X32363308Y-55063565D01*
X32543266Y-55217264D01*
X32543269Y-55217266D01*
X32546977Y-55220433D01*
X32757080Y-55349184D01*
X32984738Y-55443483D01*
X33224345Y-55501007D01*
X33470000Y-55520341D01*
X33715655Y-55501007D01*
X33955262Y-55443483D01*
X34182920Y-55349184D01*
X34393023Y-55220433D01*
X34580399Y-55060399D01*
X34623855Y-55009518D01*
X35305000Y-55009518D01*
X35305353Y-55016114D01*
X35310573Y-55064667D01*
X35314111Y-55079641D01*
X35358547Y-55198777D01*
X35366962Y-55214189D01*
X35442498Y-55315092D01*
X35454907Y-55327501D01*
X35555810Y-55403037D01*
X35571222Y-55411452D01*
X35690358Y-55455888D01*
X35705332Y-55459426D01*
X35753885Y-55464646D01*
X35760482Y-55465000D01*
X36453674Y-55465000D01*
X36466549Y-55461549D01*
X36470000Y-55448674D01*
X36470000Y-54266326D01*
X36466549Y-54253450D01*
X36453674Y-54250000D01*
X35321326Y-54250000D01*
X35308450Y-54253450D01*
X35305000Y-54266326D01*
X35305000Y-55009518D01*
X34623855Y-55009518D01*
X34740433Y-54873023D01*
X34869184Y-54662920D01*
X34963483Y-54435262D01*
X35021007Y-54195655D01*
X35040341Y-53950000D01*
X35023315Y-53733674D01*
X35305000Y-53733674D01*
X35308450Y-53746549D01*
X35321326Y-53750000D01*
X36453674Y-53750000D01*
X36466549Y-53746549D01*
X36470000Y-53733674D01*
X36470000Y-52551326D01*
X36466549Y-52538450D01*
X36453674Y-52535000D01*
X35760482Y-52535000D01*
X35753885Y-52535353D01*
X35705332Y-52540573D01*
X35690358Y-52544111D01*
X35571222Y-52588547D01*
X35555810Y-52596962D01*
X35454907Y-52672498D01*
X35442498Y-52684907D01*
X35366962Y-52785810D01*
X35358547Y-52801222D01*
X35314111Y-52920358D01*
X35310573Y-52935332D01*
X35305353Y-52983885D01*
X35305000Y-52990482D01*
X35305000Y-53733674D01*
X35023315Y-53733674D01*
X35021007Y-53704345D01*
X34963483Y-53464738D01*
X34869184Y-53237080D01*
X34740433Y-53026977D01*
X34714983Y-52997179D01*
X34583565Y-52843308D01*
X34580399Y-52839601D01*
X34510950Y-52780286D01*
X34396733Y-52682735D01*
X34396728Y-52682731D01*
X34393023Y-52679567D01*
X34182920Y-52550816D01*
X33955262Y-52456517D01*
X33950533Y-52455381D01*
X33950525Y-52455379D01*
X33720388Y-52400129D01*
X33720384Y-52400128D01*
X33715655Y-52398993D01*
X33710802Y-52398611D01*
X33474854Y-52380041D01*
X33470000Y-52379659D01*
X33465146Y-52380041D01*
X33229197Y-52398611D01*
X33229195Y-52398611D01*
X33224345Y-52398993D01*
X33219617Y-52400127D01*
X33219611Y-52400129D01*
X32989474Y-52455379D01*
X32989462Y-52455382D01*
X32984738Y-52456517D01*
X32980241Y-52458379D01*
X32980237Y-52458381D01*
X32761584Y-52548950D01*
X32761579Y-52548952D01*
X32757080Y-52550816D01*
X32752927Y-52553360D01*
X32752921Y-52553364D01*
X32551134Y-52677019D01*
X32551128Y-52677022D01*
X32546977Y-52679567D01*
X32543277Y-52682726D01*
X32543266Y-52682735D01*
X32363308Y-52836434D01*
X32363301Y-52836440D01*
X32359601Y-52839601D01*
X32356440Y-52843301D01*
X32356434Y-52843308D01*
X32202735Y-53023266D01*
X32202726Y-53023277D01*
X32199567Y-53026977D01*
X32197022Y-53031128D01*
X32197019Y-53031134D01*
X32073364Y-53232921D01*
X32073360Y-53232927D01*
X32070816Y-53237080D01*
X32068952Y-53241579D01*
X32068950Y-53241584D01*
X31978381Y-53460237D01*
X31976517Y-53464738D01*
X31975382Y-53469462D01*
X31975379Y-53469474D01*
X31920129Y-53699611D01*
X31920127Y-53699617D01*
X31918993Y-53704345D01*
X31899659Y-53950000D01*
X31625500Y-53950000D01*
X31625500Y-43700000D01*
X31899659Y-43700000D01*
X31918993Y-43945655D01*
X31920128Y-43950384D01*
X31920129Y-43950388D01*
X31975379Y-44180525D01*
X31975381Y-44180533D01*
X31976517Y-44185262D01*
X32070816Y-44412920D01*
X32199567Y-44623023D01*
X32202731Y-44626728D01*
X32202735Y-44626733D01*
X32316387Y-44759802D01*
X32359601Y-44810399D01*
X32363308Y-44813565D01*
X32543266Y-44967264D01*
X32543269Y-44967266D01*
X32546977Y-44970433D01*
X32757080Y-45099184D01*
X32984738Y-45193483D01*
X33224345Y-45251007D01*
X33470000Y-45270341D01*
X33715655Y-45251007D01*
X33955262Y-45193483D01*
X34182920Y-45099184D01*
X34393023Y-44970433D01*
X34580399Y-44810399D01*
X34623855Y-44759518D01*
X35305000Y-44759518D01*
X35305353Y-44766114D01*
X35310573Y-44814667D01*
X35314111Y-44829641D01*
X35358547Y-44948777D01*
X35366962Y-44964189D01*
X35442498Y-45065092D01*
X35454907Y-45077501D01*
X35555810Y-45153037D01*
X35571222Y-45161452D01*
X35690358Y-45205888D01*
X35705332Y-45209426D01*
X35753885Y-45214646D01*
X35760482Y-45215000D01*
X36453674Y-45215000D01*
X36466549Y-45211549D01*
X36470000Y-45198674D01*
X36470000Y-44016326D01*
X36466549Y-44003450D01*
X36453674Y-44000000D01*
X35321326Y-44000000D01*
X35308450Y-44003450D01*
X35305000Y-44016326D01*
X35305000Y-44759518D01*
X34623855Y-44759518D01*
X34740433Y-44623023D01*
X34869184Y-44412920D01*
X34963483Y-44185262D01*
X35021007Y-43945655D01*
X35040341Y-43700000D01*
X35023315Y-43483674D01*
X35305000Y-43483674D01*
X35308450Y-43496549D01*
X35321326Y-43500000D01*
X36453674Y-43500000D01*
X36466549Y-43496549D01*
X36470000Y-43483674D01*
X36470000Y-42301326D01*
X36466549Y-42288450D01*
X36453674Y-42285000D01*
X35760482Y-42285000D01*
X35753885Y-42285353D01*
X35705332Y-42290573D01*
X35690358Y-42294111D01*
X35571222Y-42338547D01*
X35555810Y-42346962D01*
X35454907Y-42422498D01*
X35442498Y-42434907D01*
X35366962Y-42535810D01*
X35358547Y-42551222D01*
X35314111Y-42670358D01*
X35310573Y-42685332D01*
X35305353Y-42733885D01*
X35305000Y-42740482D01*
X35305000Y-43483674D01*
X35023315Y-43483674D01*
X35021007Y-43454345D01*
X34963483Y-43214738D01*
X34869184Y-42987080D01*
X34740433Y-42776977D01*
X34714983Y-42747179D01*
X34583565Y-42593308D01*
X34580399Y-42589601D01*
X34510950Y-42530286D01*
X34396733Y-42432735D01*
X34396728Y-42432731D01*
X34393023Y-42429567D01*
X34182920Y-42300816D01*
X33955262Y-42206517D01*
X33950533Y-42205381D01*
X33950525Y-42205379D01*
X33720388Y-42150129D01*
X33720384Y-42150128D01*
X33715655Y-42148993D01*
X33710802Y-42148611D01*
X33474854Y-42130041D01*
X33470000Y-42129659D01*
X33465146Y-42130041D01*
X33229197Y-42148611D01*
X33229195Y-42148611D01*
X33224345Y-42148993D01*
X33219617Y-42150127D01*
X33219611Y-42150129D01*
X32989474Y-42205379D01*
X32989462Y-42205382D01*
X32984738Y-42206517D01*
X32980241Y-42208379D01*
X32980237Y-42208381D01*
X32761584Y-42298950D01*
X32761579Y-42298952D01*
X32757080Y-42300816D01*
X32752927Y-42303360D01*
X32752921Y-42303364D01*
X32551134Y-42427019D01*
X32551128Y-42427022D01*
X32546977Y-42429567D01*
X32543277Y-42432726D01*
X32543266Y-42432735D01*
X32363308Y-42586434D01*
X32363301Y-42586440D01*
X32359601Y-42589601D01*
X32356440Y-42593301D01*
X32356434Y-42593308D01*
X32202735Y-42773266D01*
X32202726Y-42773277D01*
X32199567Y-42776977D01*
X32197022Y-42781128D01*
X32197019Y-42781134D01*
X32073364Y-42982921D01*
X32073360Y-42982927D01*
X32070816Y-42987080D01*
X32068952Y-42991579D01*
X32068950Y-42991584D01*
X31978381Y-43210237D01*
X31976517Y-43214738D01*
X31975382Y-43219462D01*
X31975379Y-43219474D01*
X31920129Y-43449611D01*
X31920127Y-43449617D01*
X31918993Y-43454345D01*
X31899659Y-43700000D01*
X31625500Y-43700000D01*
X31625500Y-36948687D01*
X31633736Y-36904249D01*
X31657350Y-36865715D01*
X31732533Y-36782216D01*
X31827179Y-36618284D01*
X31885674Y-36438256D01*
X31905460Y-36250000D01*
X31885674Y-36061744D01*
X31827179Y-35881716D01*
X31732533Y-35717784D01*
X31721453Y-35705479D01*
X31610220Y-35581942D01*
X31610219Y-35581941D01*
X31605871Y-35577112D01*
X31600613Y-35573292D01*
X31600611Y-35573290D01*
X31457988Y-35469669D01*
X31457987Y-35469668D01*
X31452730Y-35465849D01*
X31446792Y-35463205D01*
X31285745Y-35391501D01*
X31285740Y-35391499D01*
X31279803Y-35388856D01*
X31273444Y-35387504D01*
X31273440Y-35387503D01*
X31101008Y-35350852D01*
X31101005Y-35350851D01*
X31094646Y-35349500D01*
X30905354Y-35349500D01*
X30898995Y-35350851D01*
X30898991Y-35350852D01*
X30726559Y-35387503D01*
X30726552Y-35387505D01*
X30720197Y-35388856D01*
X30714262Y-35391498D01*
X30714254Y-35391501D01*
X30553207Y-35463205D01*
X30553202Y-35463207D01*
X30547270Y-35465849D01*
X30542016Y-35469665D01*
X30542011Y-35469669D01*
X30399388Y-35573290D01*
X30399381Y-35573295D01*
X30394129Y-35577112D01*
X30389784Y-35581937D01*
X30389779Y-35581942D01*
X30271813Y-35712956D01*
X30271808Y-35712962D01*
X30267467Y-35717784D01*
X30264222Y-35723404D01*
X30264218Y-35723410D01*
X30176069Y-35876089D01*
X30176066Y-35876094D01*
X30172821Y-35881716D01*
X30170815Y-35887888D01*
X30170813Y-35887894D01*
X30116333Y-36055564D01*
X30116331Y-36055573D01*
X30114326Y-36061744D01*
X30113648Y-36068194D01*
X30113646Y-36068204D01*
X30095962Y-36236464D01*
X30094540Y-36250000D01*
X30095219Y-36256460D01*
X30113646Y-36431795D01*
X30113647Y-36431803D01*
X30114326Y-36438256D01*
X30116331Y-36444428D01*
X30116333Y-36444435D01*
X30140999Y-36520348D01*
X30172821Y-36618284D01*
X30176068Y-36623908D01*
X30176069Y-36623910D01*
X30178949Y-36628899D01*
X30267467Y-36782216D01*
X30271811Y-36787041D01*
X30271813Y-36787043D01*
X30286326Y-36803161D01*
X30339399Y-36862105D01*
X30342650Y-36865715D01*
X30366264Y-36904249D01*
X30374500Y-36948687D01*
X30374500Y-66301313D01*
X30366264Y-66345751D01*
X30342650Y-66384285D01*
X30271813Y-66462956D01*
X30271808Y-66462962D01*
X30267467Y-66467784D01*
X30264222Y-66473404D01*
X30264218Y-66473410D01*
X30176069Y-66626089D01*
X30176066Y-66626094D01*
X30172821Y-66631716D01*
X30170815Y-66637888D01*
X30170813Y-66637894D01*
X30116333Y-66805564D01*
X30116331Y-66805573D01*
X30114326Y-66811744D01*
X30113648Y-66818194D01*
X30113646Y-66818204D01*
X30095962Y-66986464D01*
X30094540Y-67000000D01*
X30095219Y-67006460D01*
X30113646Y-67181795D01*
X30113647Y-67181803D01*
X30114326Y-67188256D01*
X30116331Y-67194428D01*
X30116333Y-67194435D01*
X30170813Y-67362105D01*
X30172821Y-67368284D01*
X30267467Y-67532216D01*
X30271811Y-67537041D01*
X30271813Y-67537043D01*
X30342650Y-67615715D01*
X30366264Y-67654249D01*
X30374500Y-67698687D01*
X30374500Y-87068060D01*
X30365061Y-87115513D01*
X30338180Y-87155742D01*
X30254231Y-87239689D01*
X30196810Y-87272258D01*
X30130814Y-87270746D01*
X30074945Y-87235580D01*
X30045041Y-87176729D01*
X30025377Y-87080079D01*
X29937385Y-86849650D01*
X29812939Y-86636687D01*
X29655382Y-86446908D01*
X29530715Y-86338918D01*
X29472793Y-86288744D01*
X29472791Y-86288742D01*
X29468945Y-86285411D01*
X29413154Y-86251222D01*
X29262977Y-86159193D01*
X29262973Y-86159191D01*
X29258634Y-86156532D01*
X29253923Y-86154619D01*
X29253917Y-86154616D01*
X29034809Y-86065646D01*
X29034803Y-86065644D01*
X29030099Y-86063734D01*
X29025134Y-86062615D01*
X28794439Y-86010625D01*
X28794430Y-86010623D01*
X28789475Y-86009507D01*
X28784394Y-86009214D01*
X28548307Y-85995601D01*
X28543226Y-85995308D01*
X28538175Y-85995847D01*
X28538166Y-85995848D01*
X28303020Y-86020978D01*
X28303010Y-86020979D01*
X28297965Y-86021519D01*
X28293066Y-86022877D01*
X28293064Y-86022878D01*
X28065183Y-86086075D01*
X28065175Y-86086077D01*
X28060278Y-86087436D01*
X28055667Y-86089576D01*
X28055657Y-86089580D01*
X27841165Y-86189144D01*
X27841156Y-86189148D01*
X27836548Y-86191288D01*
X27832355Y-86194147D01*
X27832343Y-86194155D01*
X27693682Y-86288744D01*
X27632784Y-86330286D01*
X27629112Y-86333794D01*
X27629107Y-86333799D01*
X27458138Y-86497179D01*
X27458130Y-86497187D01*
X27454458Y-86500697D01*
X27451408Y-86504758D01*
X27451401Y-86504767D01*
X27309415Y-86693876D01*
X27309410Y-86693882D01*
X27306360Y-86697946D01*
X27304012Y-86702455D01*
X27304009Y-86702461D01*
X27194815Y-86912220D01*
X27194811Y-86912228D01*
X27192466Y-86916734D01*
X27190888Y-86921561D01*
X27190885Y-86921569D01*
X27117416Y-87146348D01*
X27117414Y-87146355D01*
X27115835Y-87151187D01*
X27115065Y-87156212D01*
X27115064Y-87156221D01*
X27079295Y-87389971D01*
X27079294Y-87389978D01*
X27078525Y-87395007D01*
X27078587Y-87400094D01*
X27078587Y-87400097D01*
X27081476Y-87636561D01*
X27081476Y-87636571D01*
X27081539Y-87641646D01*
X27082430Y-87646651D01*
X27082431Y-87646656D01*
X27123900Y-87879468D01*
X27123902Y-87879478D01*
X27124794Y-87884482D01*
X27126494Y-87889282D01*
X27205430Y-88112190D01*
X27205432Y-88112195D01*
X27207131Y-88116992D01*
X27209590Y-88121446D01*
X27298734Y-88282932D01*
X27326336Y-88332932D01*
X27479210Y-88526504D01*
X27482965Y-88529920D01*
X27482968Y-88529924D01*
X27620111Y-88654715D01*
X27661645Y-88692508D01*
X27695159Y-88714189D01*
X27851131Y-88815092D01*
X27868744Y-88826486D01*
X28094945Y-88924841D01*
X28254826Y-88965000D01*
X28261761Y-88966742D01*
X28318195Y-88998298D01*
X28351072Y-89053973D01*
X28351453Y-89118629D01*
X28319234Y-89174687D01*
X25155741Y-92338181D01*
X25115513Y-92365061D01*
X25068060Y-92374500D01*
X23203748Y-92374500D01*
X23153315Y-92363781D01*
X23115218Y-92336104D01*
X23115050Y-92336291D01*
X23113271Y-92334689D01*
X23111601Y-92333476D01*
X23105871Y-92327112D01*
X23100613Y-92323292D01*
X23100611Y-92323290D01*
X22957988Y-92219669D01*
X22957987Y-92219668D01*
X22952730Y-92215849D01*
X22946792Y-92213205D01*
X22785745Y-92141501D01*
X22785740Y-92141499D01*
X22779803Y-92138856D01*
X22773444Y-92137504D01*
X22773440Y-92137503D01*
X22601008Y-92100852D01*
X22601005Y-92100851D01*
X22594646Y-92099500D01*
X22405354Y-92099500D01*
X22398995Y-92100851D01*
X22398991Y-92100852D01*
X22226559Y-92137503D01*
X22226552Y-92137505D01*
X22220197Y-92138856D01*
X22214262Y-92141498D01*
X22214254Y-92141501D01*
X22053207Y-92213205D01*
X22053202Y-92213207D01*
X22047270Y-92215849D01*
X22042016Y-92219665D01*
X22042011Y-92219669D01*
X21899388Y-92323290D01*
X21899381Y-92323295D01*
X21894129Y-92327112D01*
X21889784Y-92331937D01*
X21889779Y-92331942D01*
X21771813Y-92462956D01*
X21771808Y-92462962D01*
X21767467Y-92467784D01*
X21764222Y-92473404D01*
X21764218Y-92473410D01*
X21676069Y-92626089D01*
X21676066Y-92626094D01*
X21672821Y-92631716D01*
X21670815Y-92637888D01*
X21670813Y-92637894D01*
X21616333Y-92805564D01*
X21616331Y-92805573D01*
X21614326Y-92811744D01*
X21613648Y-92818194D01*
X21613646Y-92818204D01*
X21595962Y-92986464D01*
X21594540Y-93000000D01*
X20000500Y-93000000D01*
X20000500Y-88509518D01*
X20685000Y-88509518D01*
X20685353Y-88516114D01*
X20690573Y-88564667D01*
X20694111Y-88579641D01*
X20738547Y-88698777D01*
X20746962Y-88714189D01*
X20822498Y-88815092D01*
X20834907Y-88827501D01*
X20935810Y-88903037D01*
X20951222Y-88911452D01*
X21070358Y-88955888D01*
X21085332Y-88959426D01*
X21133885Y-88964646D01*
X21140482Y-88965000D01*
X21833674Y-88965000D01*
X21846549Y-88961549D01*
X21850000Y-88948674D01*
X22350000Y-88948674D01*
X22353450Y-88961549D01*
X22366326Y-88965000D01*
X23059518Y-88965000D01*
X23066114Y-88964646D01*
X23114667Y-88959426D01*
X23129641Y-88955888D01*
X23248777Y-88911452D01*
X23264189Y-88903037D01*
X23365092Y-88827501D01*
X23377501Y-88815092D01*
X23453037Y-88714189D01*
X23461452Y-88698777D01*
X23505888Y-88579641D01*
X23509426Y-88564667D01*
X23514646Y-88516114D01*
X23515000Y-88509518D01*
X23515000Y-88146289D01*
X23533273Y-88081499D01*
X23582705Y-88035804D01*
X23648729Y-88022671D01*
X23711885Y-88045971D01*
X23753560Y-88098835D01*
X23800816Y-88212920D01*
X23929567Y-88423023D01*
X23932731Y-88426728D01*
X23932735Y-88426733D01*
X24080034Y-88599197D01*
X24089601Y-88610399D01*
X24093308Y-88613565D01*
X24273266Y-88767264D01*
X24273269Y-88767266D01*
X24276977Y-88770433D01*
X24487080Y-88899184D01*
X24714738Y-88993483D01*
X24954345Y-89051007D01*
X25200000Y-89070341D01*
X25445655Y-89051007D01*
X25685262Y-88993483D01*
X25912920Y-88899184D01*
X26123023Y-88770433D01*
X26310399Y-88610399D01*
X26470433Y-88423023D01*
X26599184Y-88212920D01*
X26693483Y-87985262D01*
X26751007Y-87745655D01*
X26770341Y-87500000D01*
X26751007Y-87254345D01*
X26693483Y-87014738D01*
X26599184Y-86787080D01*
X26470433Y-86576977D01*
X26431279Y-86531134D01*
X26313565Y-86393308D01*
X26310399Y-86389601D01*
X26256197Y-86343308D01*
X26126733Y-86232735D01*
X26126728Y-86232731D01*
X26123023Y-86229567D01*
X25912920Y-86100816D01*
X25685262Y-86006517D01*
X25680533Y-86005381D01*
X25680525Y-86005379D01*
X25450388Y-85950129D01*
X25450384Y-85950128D01*
X25445655Y-85948993D01*
X25440802Y-85948611D01*
X25204854Y-85930041D01*
X25200000Y-85929659D01*
X25195146Y-85930041D01*
X24959197Y-85948611D01*
X24959195Y-85948611D01*
X24954345Y-85948993D01*
X24949617Y-85950127D01*
X24949611Y-85950129D01*
X24719474Y-86005379D01*
X24719462Y-86005382D01*
X24714738Y-86006517D01*
X24710241Y-86008379D01*
X24710237Y-86008381D01*
X24491584Y-86098950D01*
X24491579Y-86098952D01*
X24487080Y-86100816D01*
X24482927Y-86103360D01*
X24482921Y-86103364D01*
X24281134Y-86227019D01*
X24281128Y-86227022D01*
X24276977Y-86229567D01*
X24273277Y-86232726D01*
X24273266Y-86232735D01*
X24093308Y-86386434D01*
X24093301Y-86386440D01*
X24089601Y-86389601D01*
X24086440Y-86393301D01*
X24086434Y-86393308D01*
X23932735Y-86573266D01*
X23932726Y-86573277D01*
X23929567Y-86576977D01*
X23927022Y-86581128D01*
X23927019Y-86581134D01*
X23803364Y-86782921D01*
X23803360Y-86782927D01*
X23800816Y-86787080D01*
X23798952Y-86791579D01*
X23798950Y-86791584D01*
X23753561Y-86901164D01*
X23711885Y-86954029D01*
X23648729Y-86977329D01*
X23582705Y-86964196D01*
X23533273Y-86918501D01*
X23515000Y-86853711D01*
X23515000Y-86490482D01*
X23514646Y-86483885D01*
X23509426Y-86435332D01*
X23505888Y-86420358D01*
X23461452Y-86301222D01*
X23453037Y-86285810D01*
X23377501Y-86184907D01*
X23365092Y-86172498D01*
X23264189Y-86096962D01*
X23248777Y-86088547D01*
X23129641Y-86044111D01*
X23114667Y-86040573D01*
X23066114Y-86035353D01*
X23059518Y-86035000D01*
X22366326Y-86035000D01*
X22353450Y-86038450D01*
X22350000Y-86051326D01*
X22350000Y-88948674D01*
X21850000Y-88948674D01*
X21850000Y-87766326D01*
X21846549Y-87753450D01*
X21833674Y-87750000D01*
X20701326Y-87750000D01*
X20688450Y-87753450D01*
X20685000Y-87766326D01*
X20685000Y-88509518D01*
X20000500Y-88509518D01*
X20000500Y-87233674D01*
X20685000Y-87233674D01*
X20688450Y-87246549D01*
X20701326Y-87250000D01*
X21833674Y-87250000D01*
X21846549Y-87246549D01*
X21850000Y-87233674D01*
X21850000Y-86051326D01*
X21846549Y-86038450D01*
X21833674Y-86035000D01*
X21140482Y-86035000D01*
X21133885Y-86035353D01*
X21085332Y-86040573D01*
X21070358Y-86044111D01*
X20951222Y-86088547D01*
X20935810Y-86096962D01*
X20834907Y-86172498D01*
X20822498Y-86184907D01*
X20746962Y-86285810D01*
X20738547Y-86301222D01*
X20694111Y-86420358D01*
X20690573Y-86435332D01*
X20685353Y-86483885D01*
X20685000Y-86490482D01*
X20685000Y-87233674D01*
X20000500Y-87233674D01*
X20000500Y-78259518D01*
X20685000Y-78259518D01*
X20685353Y-78266114D01*
X20690573Y-78314667D01*
X20694111Y-78329641D01*
X20738547Y-78448777D01*
X20746962Y-78464189D01*
X20822498Y-78565092D01*
X20834907Y-78577501D01*
X20935810Y-78653037D01*
X20951222Y-78661452D01*
X21070358Y-78705888D01*
X21085332Y-78709426D01*
X21133885Y-78714646D01*
X21140482Y-78715000D01*
X21833674Y-78715000D01*
X21846549Y-78711549D01*
X21850000Y-78698674D01*
X22350000Y-78698674D01*
X22353450Y-78711549D01*
X22366326Y-78715000D01*
X23059518Y-78715000D01*
X23066114Y-78714646D01*
X23114667Y-78709426D01*
X23129641Y-78705888D01*
X23248777Y-78661452D01*
X23264189Y-78653037D01*
X23365092Y-78577501D01*
X23377501Y-78565092D01*
X23453037Y-78464189D01*
X23461452Y-78448777D01*
X23505888Y-78329641D01*
X23509426Y-78314667D01*
X23514646Y-78266114D01*
X23515000Y-78259518D01*
X23515000Y-77896289D01*
X23533273Y-77831499D01*
X23582705Y-77785804D01*
X23648729Y-77772671D01*
X23711885Y-77795971D01*
X23753560Y-77848835D01*
X23800816Y-77962920D01*
X23929567Y-78173023D01*
X23932731Y-78176728D01*
X23932735Y-78176733D01*
X24080034Y-78349197D01*
X24089601Y-78360399D01*
X24093308Y-78363565D01*
X24273266Y-78517264D01*
X24273269Y-78517266D01*
X24276977Y-78520433D01*
X24487080Y-78649184D01*
X24714738Y-78743483D01*
X24954345Y-78801007D01*
X25200000Y-78820341D01*
X25445655Y-78801007D01*
X25685262Y-78743483D01*
X25912920Y-78649184D01*
X26123023Y-78520433D01*
X26310399Y-78360399D01*
X26470433Y-78173023D01*
X26599184Y-77962920D01*
X26693483Y-77735262D01*
X26751007Y-77495655D01*
X26770341Y-77250000D01*
X26762078Y-77145007D01*
X27078525Y-77145007D01*
X27078587Y-77150094D01*
X27078587Y-77150097D01*
X27081476Y-77386561D01*
X27081476Y-77386571D01*
X27081539Y-77391646D01*
X27082430Y-77396651D01*
X27082431Y-77396656D01*
X27123900Y-77629468D01*
X27123902Y-77629478D01*
X27124794Y-77634482D01*
X27126494Y-77639282D01*
X27205430Y-77862190D01*
X27205432Y-77862195D01*
X27207131Y-77866992D01*
X27209590Y-77871446D01*
X27298734Y-78032932D01*
X27326336Y-78082932D01*
X27479210Y-78276504D01*
X27482965Y-78279920D01*
X27482968Y-78279924D01*
X27614047Y-78399197D01*
X27661645Y-78442508D01*
X27695159Y-78464189D01*
X27851131Y-78565092D01*
X27868744Y-78576486D01*
X28094945Y-78674841D01*
X28334171Y-78734930D01*
X28580000Y-78755141D01*
X28653526Y-78753344D01*
X28898074Y-78721149D01*
X29134079Y-78649445D01*
X29355205Y-78540158D01*
X29555512Y-78396223D01*
X29729621Y-78221505D01*
X29872856Y-78020697D01*
X29981370Y-77799191D01*
X30052250Y-77562936D01*
X30083592Y-77318278D01*
X30074553Y-77071785D01*
X30025377Y-76830079D01*
X29937385Y-76599650D01*
X29812939Y-76386687D01*
X29655382Y-76196908D01*
X29530715Y-76088918D01*
X29472793Y-76038744D01*
X29472791Y-76038742D01*
X29468945Y-76035411D01*
X29413154Y-76001222D01*
X29262977Y-75909193D01*
X29262973Y-75909191D01*
X29258634Y-75906532D01*
X29253923Y-75904619D01*
X29253917Y-75904616D01*
X29034809Y-75815646D01*
X29034803Y-75815644D01*
X29030099Y-75813734D01*
X29015536Y-75810452D01*
X28794439Y-75760625D01*
X28794430Y-75760623D01*
X28789475Y-75759507D01*
X28784394Y-75759214D01*
X28548307Y-75745601D01*
X28543226Y-75745308D01*
X28538175Y-75745847D01*
X28538166Y-75745848D01*
X28303020Y-75770978D01*
X28303010Y-75770979D01*
X28297965Y-75771519D01*
X28293066Y-75772877D01*
X28293064Y-75772878D01*
X28065183Y-75836075D01*
X28065175Y-75836077D01*
X28060278Y-75837436D01*
X28055667Y-75839576D01*
X28055657Y-75839580D01*
X27841165Y-75939144D01*
X27841156Y-75939148D01*
X27836548Y-75941288D01*
X27832355Y-75944147D01*
X27832343Y-75944155D01*
X27693682Y-76038744D01*
X27632784Y-76080286D01*
X27629112Y-76083794D01*
X27629107Y-76083799D01*
X27458138Y-76247179D01*
X27458130Y-76247187D01*
X27454458Y-76250697D01*
X27451408Y-76254758D01*
X27451401Y-76254767D01*
X27309415Y-76443876D01*
X27309410Y-76443882D01*
X27306360Y-76447946D01*
X27304012Y-76452455D01*
X27304009Y-76452461D01*
X27194815Y-76662220D01*
X27194811Y-76662228D01*
X27192466Y-76666734D01*
X27190888Y-76671561D01*
X27190885Y-76671569D01*
X27117416Y-76896348D01*
X27117414Y-76896355D01*
X27115835Y-76901187D01*
X27115065Y-76906212D01*
X27115064Y-76906221D01*
X27079295Y-77139971D01*
X27079294Y-77139978D01*
X27078525Y-77145007D01*
X26762078Y-77145007D01*
X26751007Y-77004345D01*
X26693483Y-76764738D01*
X26599184Y-76537080D01*
X26470433Y-76326977D01*
X26431279Y-76281134D01*
X26313565Y-76143308D01*
X26310399Y-76139601D01*
X26256197Y-76093308D01*
X26126733Y-75982735D01*
X26126728Y-75982731D01*
X26123023Y-75979567D01*
X25912920Y-75850816D01*
X25685262Y-75756517D01*
X25680533Y-75755381D01*
X25680525Y-75755379D01*
X25450388Y-75700129D01*
X25450384Y-75700128D01*
X25445655Y-75698993D01*
X25440802Y-75698611D01*
X25204854Y-75680041D01*
X25200000Y-75679659D01*
X25195146Y-75680041D01*
X24959197Y-75698611D01*
X24959195Y-75698611D01*
X24954345Y-75698993D01*
X24949617Y-75700127D01*
X24949611Y-75700129D01*
X24719474Y-75755379D01*
X24719462Y-75755382D01*
X24714738Y-75756517D01*
X24710241Y-75758379D01*
X24710237Y-75758381D01*
X24491584Y-75848950D01*
X24491579Y-75848952D01*
X24487080Y-75850816D01*
X24482927Y-75853360D01*
X24482921Y-75853364D01*
X24281134Y-75977019D01*
X24281128Y-75977022D01*
X24276977Y-75979567D01*
X24273277Y-75982726D01*
X24273266Y-75982735D01*
X24093308Y-76136434D01*
X24093301Y-76136440D01*
X24089601Y-76139601D01*
X24086440Y-76143301D01*
X24086434Y-76143308D01*
X23932735Y-76323266D01*
X23932726Y-76323277D01*
X23929567Y-76326977D01*
X23927022Y-76331128D01*
X23927019Y-76331134D01*
X23803364Y-76532921D01*
X23803360Y-76532927D01*
X23800816Y-76537080D01*
X23798952Y-76541579D01*
X23798950Y-76541584D01*
X23753561Y-76651164D01*
X23711885Y-76704029D01*
X23648729Y-76727329D01*
X23582705Y-76714196D01*
X23533273Y-76668501D01*
X23515000Y-76603711D01*
X23515000Y-76240482D01*
X23514646Y-76233885D01*
X23509426Y-76185332D01*
X23505888Y-76170358D01*
X23461452Y-76051222D01*
X23453037Y-76035810D01*
X23377501Y-75934907D01*
X23365092Y-75922498D01*
X23264189Y-75846962D01*
X23248777Y-75838547D01*
X23129641Y-75794111D01*
X23114667Y-75790573D01*
X23066114Y-75785353D01*
X23059518Y-75785000D01*
X22366326Y-75785000D01*
X22353450Y-75788450D01*
X22350000Y-75801326D01*
X22350000Y-78698674D01*
X21850000Y-78698674D01*
X21850000Y-77516326D01*
X21846549Y-77503450D01*
X21833674Y-77500000D01*
X20701326Y-77500000D01*
X20688450Y-77503450D01*
X20685000Y-77516326D01*
X20685000Y-78259518D01*
X20000500Y-78259518D01*
X20000500Y-76983674D01*
X20685000Y-76983674D01*
X20688450Y-76996549D01*
X20701326Y-77000000D01*
X21833674Y-77000000D01*
X21846549Y-76996549D01*
X21850000Y-76983674D01*
X21850000Y-75801326D01*
X21846549Y-75788450D01*
X21833674Y-75785000D01*
X21140482Y-75785000D01*
X21133885Y-75785353D01*
X21085332Y-75790573D01*
X21070358Y-75794111D01*
X20951222Y-75838547D01*
X20935810Y-75846962D01*
X20834907Y-75922498D01*
X20822498Y-75934907D01*
X20746962Y-76035810D01*
X20738547Y-76051222D01*
X20694111Y-76170358D01*
X20690573Y-76185332D01*
X20685353Y-76233885D01*
X20685000Y-76240482D01*
X20685000Y-76983674D01*
X20000500Y-76983674D01*
X20000500Y-54959518D01*
X20655000Y-54959518D01*
X20655353Y-54966114D01*
X20660573Y-55014667D01*
X20664111Y-55029641D01*
X20708547Y-55148777D01*
X20716962Y-55164189D01*
X20792498Y-55265092D01*
X20804907Y-55277501D01*
X20905810Y-55353037D01*
X20921222Y-55361452D01*
X21040358Y-55405888D01*
X21055332Y-55409426D01*
X21103885Y-55414646D01*
X21110482Y-55415000D01*
X21803674Y-55415000D01*
X21816549Y-55411549D01*
X21820000Y-55398674D01*
X22320000Y-55398674D01*
X22323450Y-55411549D01*
X22336326Y-55415000D01*
X23029518Y-55415000D01*
X23036114Y-55414646D01*
X23084667Y-55409426D01*
X23099641Y-55405888D01*
X23218777Y-55361452D01*
X23234189Y-55353037D01*
X23335092Y-55277501D01*
X23347501Y-55265092D01*
X23423037Y-55164189D01*
X23431452Y-55148777D01*
X23475888Y-55029641D01*
X23479426Y-55014667D01*
X23484646Y-54966114D01*
X23485000Y-54959518D01*
X23485000Y-54596289D01*
X23503273Y-54531499D01*
X23552705Y-54485804D01*
X23618729Y-54472671D01*
X23681885Y-54495971D01*
X23723560Y-54548835D01*
X23770816Y-54662920D01*
X23899567Y-54873023D01*
X23902731Y-54876728D01*
X23902735Y-54876733D01*
X24016387Y-55009802D01*
X24059601Y-55060399D01*
X24063308Y-55063565D01*
X24243266Y-55217264D01*
X24243269Y-55217266D01*
X24246977Y-55220433D01*
X24457080Y-55349184D01*
X24684738Y-55443483D01*
X24924345Y-55501007D01*
X25170000Y-55520341D01*
X25415655Y-55501007D01*
X25655262Y-55443483D01*
X25882920Y-55349184D01*
X26093023Y-55220433D01*
X26280399Y-55060399D01*
X26440433Y-54873023D01*
X26569184Y-54662920D01*
X26663483Y-54435262D01*
X26721007Y-54195655D01*
X26740341Y-53950000D01*
X26732078Y-53845007D01*
X27048525Y-53845007D01*
X27048587Y-53850094D01*
X27048587Y-53850097D01*
X27051476Y-54086561D01*
X27051476Y-54086571D01*
X27051539Y-54091646D01*
X27052430Y-54096651D01*
X27052431Y-54096656D01*
X27093900Y-54329468D01*
X27093902Y-54329478D01*
X27094794Y-54334482D01*
X27096494Y-54339282D01*
X27175430Y-54562190D01*
X27175432Y-54562195D01*
X27177131Y-54566992D01*
X27193304Y-54596289D01*
X27291870Y-54774843D01*
X27296336Y-54782932D01*
X27449210Y-54976504D01*
X27452965Y-54979920D01*
X27452968Y-54979924D01*
X27584047Y-55099197D01*
X27631645Y-55142508D01*
X27641985Y-55149197D01*
X27833324Y-55272980D01*
X27838744Y-55276486D01*
X28064945Y-55374841D01*
X28304171Y-55434930D01*
X28550000Y-55455141D01*
X28623526Y-55453344D01*
X28868074Y-55421149D01*
X29104079Y-55349445D01*
X29325205Y-55240158D01*
X29525512Y-55096223D01*
X29699621Y-54921505D01*
X29842856Y-54720697D01*
X29951370Y-54499191D01*
X30022250Y-54262936D01*
X30053592Y-54018278D01*
X30044553Y-53771785D01*
X29995377Y-53530079D01*
X29907385Y-53299650D01*
X29782939Y-53086687D01*
X29625382Y-52896908D01*
X29490750Y-52780286D01*
X29442793Y-52738744D01*
X29442791Y-52738742D01*
X29438945Y-52735411D01*
X29425251Y-52727019D01*
X29232977Y-52609193D01*
X29232973Y-52609191D01*
X29228634Y-52606532D01*
X29223923Y-52604619D01*
X29223917Y-52604616D01*
X29004809Y-52515646D01*
X29004803Y-52515644D01*
X29000099Y-52513734D01*
X28995134Y-52512615D01*
X28764439Y-52460625D01*
X28764430Y-52460623D01*
X28759475Y-52459507D01*
X28754394Y-52459214D01*
X28518307Y-52445601D01*
X28513226Y-52445308D01*
X28508175Y-52445847D01*
X28508166Y-52445848D01*
X28273020Y-52470978D01*
X28273010Y-52470979D01*
X28267965Y-52471519D01*
X28263066Y-52472877D01*
X28263064Y-52472878D01*
X28035183Y-52536075D01*
X28035175Y-52536077D01*
X28030278Y-52537436D01*
X28025667Y-52539576D01*
X28025657Y-52539580D01*
X27811165Y-52639144D01*
X27811156Y-52639148D01*
X27806548Y-52641288D01*
X27802355Y-52644147D01*
X27802343Y-52644155D01*
X27663682Y-52738744D01*
X27602784Y-52780286D01*
X27599112Y-52783794D01*
X27599107Y-52783799D01*
X27428138Y-52947179D01*
X27428130Y-52947187D01*
X27424458Y-52950697D01*
X27421408Y-52954758D01*
X27421401Y-52954767D01*
X27279415Y-53143876D01*
X27279410Y-53143882D01*
X27276360Y-53147946D01*
X27274012Y-53152455D01*
X27274009Y-53152461D01*
X27164815Y-53362220D01*
X27164811Y-53362228D01*
X27162466Y-53366734D01*
X27160888Y-53371561D01*
X27160885Y-53371569D01*
X27087416Y-53596348D01*
X27087414Y-53596355D01*
X27085835Y-53601187D01*
X27085065Y-53606212D01*
X27085064Y-53606221D01*
X27049295Y-53839971D01*
X27049294Y-53839978D01*
X27048525Y-53845007D01*
X26732078Y-53845007D01*
X26721007Y-53704345D01*
X26663483Y-53464738D01*
X26569184Y-53237080D01*
X26440433Y-53026977D01*
X26414983Y-52997179D01*
X26283565Y-52843308D01*
X26280399Y-52839601D01*
X26210950Y-52780286D01*
X26096733Y-52682735D01*
X26096728Y-52682731D01*
X26093023Y-52679567D01*
X25882920Y-52550816D01*
X25655262Y-52456517D01*
X25650533Y-52455381D01*
X25650525Y-52455379D01*
X25420388Y-52400129D01*
X25420384Y-52400128D01*
X25415655Y-52398993D01*
X25410802Y-52398611D01*
X25174854Y-52380041D01*
X25170000Y-52379659D01*
X25165146Y-52380041D01*
X24929197Y-52398611D01*
X24929195Y-52398611D01*
X24924345Y-52398993D01*
X24919617Y-52400127D01*
X24919611Y-52400129D01*
X24689474Y-52455379D01*
X24689462Y-52455382D01*
X24684738Y-52456517D01*
X24680241Y-52458379D01*
X24680237Y-52458381D01*
X24461584Y-52548950D01*
X24461579Y-52548952D01*
X24457080Y-52550816D01*
X24452927Y-52553360D01*
X24452921Y-52553364D01*
X24251134Y-52677019D01*
X24251128Y-52677022D01*
X24246977Y-52679567D01*
X24243277Y-52682726D01*
X24243266Y-52682735D01*
X24063308Y-52836434D01*
X24063301Y-52836440D01*
X24059601Y-52839601D01*
X24056440Y-52843301D01*
X24056434Y-52843308D01*
X23902735Y-53023266D01*
X23902726Y-53023277D01*
X23899567Y-53026977D01*
X23897022Y-53031128D01*
X23897019Y-53031134D01*
X23773364Y-53232921D01*
X23773360Y-53232927D01*
X23770816Y-53237080D01*
X23768952Y-53241579D01*
X23768950Y-53241584D01*
X23723561Y-53351164D01*
X23681885Y-53404029D01*
X23618729Y-53427329D01*
X23552705Y-53414196D01*
X23503273Y-53368501D01*
X23485000Y-53303711D01*
X23485000Y-52940482D01*
X23484646Y-52933885D01*
X23479426Y-52885332D01*
X23475888Y-52870358D01*
X23431452Y-52751222D01*
X23423037Y-52735810D01*
X23347501Y-52634907D01*
X23335092Y-52622498D01*
X23234189Y-52546962D01*
X23218777Y-52538547D01*
X23099641Y-52494111D01*
X23084667Y-52490573D01*
X23036114Y-52485353D01*
X23029518Y-52485000D01*
X22336326Y-52485000D01*
X22323450Y-52488450D01*
X22320000Y-52501326D01*
X22320000Y-55398674D01*
X21820000Y-55398674D01*
X21820000Y-54216326D01*
X21816549Y-54203450D01*
X21803674Y-54200000D01*
X20671326Y-54200000D01*
X20658450Y-54203450D01*
X20655000Y-54216326D01*
X20655000Y-54959518D01*
X20000500Y-54959518D01*
X20000500Y-53683674D01*
X20655000Y-53683674D01*
X20658450Y-53696549D01*
X20671326Y-53700000D01*
X21803674Y-53700000D01*
X21816549Y-53696549D01*
X21820000Y-53683674D01*
X21820000Y-52501326D01*
X21816549Y-52488450D01*
X21803674Y-52485000D01*
X21110482Y-52485000D01*
X21103885Y-52485353D01*
X21055332Y-52490573D01*
X21040358Y-52494111D01*
X20921222Y-52538547D01*
X20905810Y-52546962D01*
X20804907Y-52622498D01*
X20792498Y-52634907D01*
X20716962Y-52735810D01*
X20708547Y-52751222D01*
X20664111Y-52870358D01*
X20660573Y-52885332D01*
X20655353Y-52933885D01*
X20655000Y-52940482D01*
X20655000Y-53683674D01*
X20000500Y-53683674D01*
X20000500Y-44709518D01*
X20655000Y-44709518D01*
X20655353Y-44716114D01*
X20660573Y-44764667D01*
X20664111Y-44779641D01*
X20708547Y-44898777D01*
X20716962Y-44914189D01*
X20792498Y-45015092D01*
X20804907Y-45027501D01*
X20905810Y-45103037D01*
X20921222Y-45111452D01*
X21040358Y-45155888D01*
X21055332Y-45159426D01*
X21103885Y-45164646D01*
X21110482Y-45165000D01*
X21803674Y-45165000D01*
X21816549Y-45161549D01*
X21820000Y-45148674D01*
X22320000Y-45148674D01*
X22323450Y-45161549D01*
X22336326Y-45165000D01*
X23029518Y-45165000D01*
X23036114Y-45164646D01*
X23084667Y-45159426D01*
X23099641Y-45155888D01*
X23218777Y-45111452D01*
X23234189Y-45103037D01*
X23335092Y-45027501D01*
X23347501Y-45015092D01*
X23423037Y-44914189D01*
X23431452Y-44898777D01*
X23475888Y-44779641D01*
X23479426Y-44764667D01*
X23484646Y-44716114D01*
X23485000Y-44709518D01*
X23485000Y-44346289D01*
X23503273Y-44281499D01*
X23552705Y-44235804D01*
X23618729Y-44222671D01*
X23681885Y-44245971D01*
X23723560Y-44298835D01*
X23770816Y-44412920D01*
X23899567Y-44623023D01*
X23902731Y-44626728D01*
X23902735Y-44626733D01*
X24016387Y-44759802D01*
X24059601Y-44810399D01*
X24063308Y-44813565D01*
X24243266Y-44967264D01*
X24243269Y-44967266D01*
X24246977Y-44970433D01*
X24457080Y-45099184D01*
X24684738Y-45193483D01*
X24924345Y-45251007D01*
X25170000Y-45270341D01*
X25415655Y-45251007D01*
X25655262Y-45193483D01*
X25882920Y-45099184D01*
X26093023Y-44970433D01*
X26280399Y-44810399D01*
X26440433Y-44623023D01*
X26569184Y-44412920D01*
X26663483Y-44185262D01*
X26721007Y-43945655D01*
X26740341Y-43700000D01*
X26732078Y-43595007D01*
X27048525Y-43595007D01*
X27048587Y-43600094D01*
X27048587Y-43600097D01*
X27051476Y-43836561D01*
X27051476Y-43836571D01*
X27051539Y-43841646D01*
X27052430Y-43846651D01*
X27052431Y-43846656D01*
X27093900Y-44079468D01*
X27093902Y-44079478D01*
X27094794Y-44084482D01*
X27096494Y-44089282D01*
X27175430Y-44312190D01*
X27175432Y-44312195D01*
X27177131Y-44316992D01*
X27193304Y-44346289D01*
X27291870Y-44524843D01*
X27296336Y-44532932D01*
X27449210Y-44726504D01*
X27452965Y-44729920D01*
X27452968Y-44729924D01*
X27584047Y-44849197D01*
X27631645Y-44892508D01*
X27641985Y-44899197D01*
X27833324Y-45022980D01*
X27838744Y-45026486D01*
X28064945Y-45124841D01*
X28304171Y-45184930D01*
X28550000Y-45205141D01*
X28623526Y-45203344D01*
X28868074Y-45171149D01*
X29104079Y-45099445D01*
X29325205Y-44990158D01*
X29525512Y-44846223D01*
X29699621Y-44671505D01*
X29842856Y-44470697D01*
X29951370Y-44249191D01*
X30022250Y-44012936D01*
X30053592Y-43768278D01*
X30044553Y-43521785D01*
X29995377Y-43280079D01*
X29907385Y-43049650D01*
X29782939Y-42836687D01*
X29625382Y-42646908D01*
X29490750Y-42530286D01*
X29442793Y-42488744D01*
X29442791Y-42488742D01*
X29438945Y-42485411D01*
X29425251Y-42477019D01*
X29232977Y-42359193D01*
X29232973Y-42359191D01*
X29228634Y-42356532D01*
X29223923Y-42354619D01*
X29223917Y-42354616D01*
X29004809Y-42265646D01*
X29004803Y-42265644D01*
X29000099Y-42263734D01*
X28995134Y-42262615D01*
X28764439Y-42210625D01*
X28764430Y-42210623D01*
X28759475Y-42209507D01*
X28754394Y-42209214D01*
X28518307Y-42195601D01*
X28513226Y-42195308D01*
X28508175Y-42195847D01*
X28508166Y-42195848D01*
X28273020Y-42220978D01*
X28273010Y-42220979D01*
X28267965Y-42221519D01*
X28263066Y-42222877D01*
X28263064Y-42222878D01*
X28035183Y-42286075D01*
X28035175Y-42286077D01*
X28030278Y-42287436D01*
X28025667Y-42289576D01*
X28025657Y-42289580D01*
X27811165Y-42389144D01*
X27811156Y-42389148D01*
X27806548Y-42391288D01*
X27802355Y-42394147D01*
X27802343Y-42394155D01*
X27663682Y-42488744D01*
X27602784Y-42530286D01*
X27599112Y-42533794D01*
X27599107Y-42533799D01*
X27428138Y-42697179D01*
X27428130Y-42697187D01*
X27424458Y-42700697D01*
X27421408Y-42704758D01*
X27421401Y-42704767D01*
X27279415Y-42893876D01*
X27279410Y-42893882D01*
X27276360Y-42897946D01*
X27274012Y-42902455D01*
X27274009Y-42902461D01*
X27164815Y-43112220D01*
X27164811Y-43112228D01*
X27162466Y-43116734D01*
X27160888Y-43121561D01*
X27160885Y-43121569D01*
X27087416Y-43346348D01*
X27087414Y-43346355D01*
X27085835Y-43351187D01*
X27085065Y-43356212D01*
X27085064Y-43356221D01*
X27049295Y-43589971D01*
X27049294Y-43589978D01*
X27048525Y-43595007D01*
X26732078Y-43595007D01*
X26721007Y-43454345D01*
X26663483Y-43214738D01*
X26569184Y-42987080D01*
X26440433Y-42776977D01*
X26414983Y-42747179D01*
X26283565Y-42593308D01*
X26280399Y-42589601D01*
X26210950Y-42530286D01*
X26096733Y-42432735D01*
X26096728Y-42432731D01*
X26093023Y-42429567D01*
X25882920Y-42300816D01*
X25655262Y-42206517D01*
X25650533Y-42205381D01*
X25650525Y-42205379D01*
X25420388Y-42150129D01*
X25420384Y-42150128D01*
X25415655Y-42148993D01*
X25410802Y-42148611D01*
X25174854Y-42130041D01*
X25170000Y-42129659D01*
X25165146Y-42130041D01*
X24929197Y-42148611D01*
X24929195Y-42148611D01*
X24924345Y-42148993D01*
X24919617Y-42150127D01*
X24919611Y-42150129D01*
X24689474Y-42205379D01*
X24689462Y-42205382D01*
X24684738Y-42206517D01*
X24680241Y-42208379D01*
X24680237Y-42208381D01*
X24461584Y-42298950D01*
X24461579Y-42298952D01*
X24457080Y-42300816D01*
X24452927Y-42303360D01*
X24452921Y-42303364D01*
X24251134Y-42427019D01*
X24251128Y-42427022D01*
X24246977Y-42429567D01*
X24243277Y-42432726D01*
X24243266Y-42432735D01*
X24063308Y-42586434D01*
X24063301Y-42586440D01*
X24059601Y-42589601D01*
X24056440Y-42593301D01*
X24056434Y-42593308D01*
X23902735Y-42773266D01*
X23902726Y-42773277D01*
X23899567Y-42776977D01*
X23897022Y-42781128D01*
X23897019Y-42781134D01*
X23773364Y-42982921D01*
X23773360Y-42982927D01*
X23770816Y-42987080D01*
X23768952Y-42991579D01*
X23768950Y-42991584D01*
X23723561Y-43101164D01*
X23681885Y-43154029D01*
X23618729Y-43177329D01*
X23552705Y-43164196D01*
X23503273Y-43118501D01*
X23485000Y-43053711D01*
X23485000Y-42690482D01*
X23484646Y-42683885D01*
X23479426Y-42635332D01*
X23475888Y-42620358D01*
X23431452Y-42501222D01*
X23423037Y-42485810D01*
X23347501Y-42384907D01*
X23335092Y-42372498D01*
X23234189Y-42296962D01*
X23218777Y-42288547D01*
X23099641Y-42244111D01*
X23084667Y-42240573D01*
X23036114Y-42235353D01*
X23029518Y-42235000D01*
X22336326Y-42235000D01*
X22323450Y-42238450D01*
X22320000Y-42251326D01*
X22320000Y-45148674D01*
X21820000Y-45148674D01*
X21820000Y-43966326D01*
X21816549Y-43953450D01*
X21803674Y-43950000D01*
X20671326Y-43950000D01*
X20658450Y-43953450D01*
X20655000Y-43966326D01*
X20655000Y-44709518D01*
X20000500Y-44709518D01*
X20000500Y-43433674D01*
X20655000Y-43433674D01*
X20658450Y-43446549D01*
X20671326Y-43450000D01*
X21803674Y-43450000D01*
X21816549Y-43446549D01*
X21820000Y-43433674D01*
X21820000Y-42251326D01*
X21816549Y-42238450D01*
X21803674Y-42235000D01*
X21110482Y-42235000D01*
X21103885Y-42235353D01*
X21055332Y-42240573D01*
X21040358Y-42244111D01*
X20921222Y-42288547D01*
X20905810Y-42296962D01*
X20804907Y-42372498D01*
X20792498Y-42384907D01*
X20716962Y-42485810D01*
X20708547Y-42501222D01*
X20664111Y-42620358D01*
X20660573Y-42635332D01*
X20655353Y-42683885D01*
X20655000Y-42690482D01*
X20655000Y-43433674D01*
X20000500Y-43433674D01*
X20000500Y-29000000D01*
X21499459Y-29000000D01*
X21499617Y-29000383D01*
X21499901Y-29000500D01*
X24487944Y-29000500D01*
X24500099Y-29000500D01*
X24500383Y-29000383D01*
X24500541Y-29000000D01*
X26499459Y-29000000D01*
X26499617Y-29000383D01*
X26499901Y-29000500D01*
X29487944Y-29000500D01*
X29500099Y-29000500D01*
X29500383Y-29000383D01*
X29500541Y-29000000D01*
X31499459Y-29000000D01*
X31499617Y-29000383D01*
X31499901Y-29000500D01*
X34487944Y-29000500D01*
X34500099Y-29000500D01*
X34500383Y-29000383D01*
X34500541Y-29000000D01*
X36499459Y-29000000D01*
X36499617Y-29000383D01*
X36499901Y-29000500D01*
X39487944Y-29000500D01*
X39500099Y-29000500D01*
X39500383Y-29000383D01*
X39500541Y-29000000D01*
X41499459Y-29000000D01*
X41499617Y-29000383D01*
X41499901Y-29000500D01*
X44487944Y-29000500D01*
X44500099Y-29000500D01*
X44500383Y-29000383D01*
X44500541Y-29000000D01*
X46499459Y-29000000D01*
X46499617Y-29000383D01*
X46499901Y-29000500D01*
X49487944Y-29000500D01*
X49500099Y-29000500D01*
X49500383Y-29000383D01*
X49500541Y-29000000D01*
X49500383Y-28999617D01*
X49500099Y-28999500D01*
X46499901Y-28999500D01*
X46499617Y-28999617D01*
X46499459Y-29000000D01*
X44500541Y-29000000D01*
X44500383Y-28999617D01*
X44500099Y-28999500D01*
X41499901Y-28999500D01*
X41499617Y-28999617D01*
X41499459Y-29000000D01*
X39500541Y-29000000D01*
X39500383Y-28999617D01*
X39500099Y-28999500D01*
X36499901Y-28999500D01*
X36499617Y-28999617D01*
X36499459Y-29000000D01*
X34500541Y-29000000D01*
X34500383Y-28999617D01*
X34500099Y-28999500D01*
X31499901Y-28999500D01*
X31499617Y-28999617D01*
X31499459Y-29000000D01*
X29500541Y-29000000D01*
X29500383Y-28999617D01*
X29500099Y-28999500D01*
X26499901Y-28999500D01*
X26499617Y-28999617D01*
X26499459Y-29000000D01*
X24500541Y-29000000D01*
X24500383Y-28999617D01*
X24500099Y-28999500D01*
X21499901Y-28999500D01*
X21499617Y-28999617D01*
X21499459Y-29000000D01*
X20000500Y-29000000D01*
X20000500Y-23000000D01*
X25074551Y-23000000D01*
X25094317Y-23251148D01*
X25095452Y-23255877D01*
X25095453Y-23255881D01*
X25151989Y-23491374D01*
X25151991Y-23491382D01*
X25153127Y-23496111D01*
X25249534Y-23728859D01*
X25252081Y-23733016D01*
X25252082Y-23733017D01*
X25378617Y-23939504D01*
X25378622Y-23939511D01*
X25381164Y-23943659D01*
X25384324Y-23947358D01*
X25384327Y-23947363D01*
X25534845Y-24123596D01*
X25544776Y-24135224D01*
X25548476Y-24138384D01*
X25730705Y-24294023D01*
X25736341Y-24298836D01*
X25740491Y-24301379D01*
X25740495Y-24301382D01*
X25852300Y-24369896D01*
X25951141Y-24430466D01*
X26183889Y-24526873D01*
X26428852Y-24585683D01*
X26680000Y-24605449D01*
X26931148Y-24585683D01*
X27176111Y-24526873D01*
X27408859Y-24430466D01*
X27623659Y-24298836D01*
X27815224Y-24135224D01*
X27978836Y-23943659D01*
X28110466Y-23728859D01*
X28206873Y-23496111D01*
X28265683Y-23251148D01*
X28285449Y-23000000D01*
X42194551Y-23000000D01*
X42214317Y-23251148D01*
X42215452Y-23255877D01*
X42215453Y-23255881D01*
X42271989Y-23491374D01*
X42271991Y-23491382D01*
X42273127Y-23496111D01*
X42369534Y-23728859D01*
X42372081Y-23733016D01*
X42372082Y-23733017D01*
X42498617Y-23939504D01*
X42498622Y-23939511D01*
X42501164Y-23943659D01*
X42504324Y-23947358D01*
X42504327Y-23947363D01*
X42654845Y-24123596D01*
X42664776Y-24135224D01*
X42668476Y-24138384D01*
X42850705Y-24294023D01*
X42856341Y-24298836D01*
X42860491Y-24301379D01*
X42860495Y-24301382D01*
X42972300Y-24369896D01*
X43071141Y-24430466D01*
X43303889Y-24526873D01*
X43548852Y-24585683D01*
X43800000Y-24605449D01*
X44051148Y-24585683D01*
X44296111Y-24526873D01*
X44528859Y-24430466D01*
X44743659Y-24298836D01*
X44935224Y-24135224D01*
X45098836Y-23943659D01*
X45230466Y-23728859D01*
X45326873Y-23496111D01*
X45385683Y-23251148D01*
X45405449Y-23000000D01*
X45385683Y-22748852D01*
X45326873Y-22503889D01*
X45230466Y-22271141D01*
X45098836Y-22056341D01*
X44935224Y-21864776D01*
X44931523Y-21861615D01*
X44747363Y-21704327D01*
X44747358Y-21704324D01*
X44743659Y-21701164D01*
X44739511Y-21698622D01*
X44739504Y-21698617D01*
X44533017Y-21572082D01*
X44533016Y-21572081D01*
X44528859Y-21569534D01*
X44296111Y-21473127D01*
X44291382Y-21471991D01*
X44291374Y-21471989D01*
X44055881Y-21415453D01*
X44055877Y-21415452D01*
X44051148Y-21414317D01*
X44046295Y-21413935D01*
X43804854Y-21394933D01*
X43800000Y-21394551D01*
X43795146Y-21394933D01*
X43553704Y-21413935D01*
X43553702Y-21413935D01*
X43548852Y-21414317D01*
X43544124Y-21415451D01*
X43544118Y-21415453D01*
X43308625Y-21471989D01*
X43308613Y-21471992D01*
X43303889Y-21473127D01*
X43299392Y-21474989D01*
X43299388Y-21474991D01*
X43075645Y-21567668D01*
X43075640Y-21567670D01*
X43071141Y-21569534D01*
X43066988Y-21572078D01*
X43066982Y-21572082D01*
X42860495Y-21698617D01*
X42860482Y-21698626D01*
X42856341Y-21701164D01*
X42852646Y-21704319D01*
X42852636Y-21704327D01*
X42668476Y-21861615D01*
X42668469Y-21861621D01*
X42664776Y-21864776D01*
X42661621Y-21868469D01*
X42661615Y-21868476D01*
X42504327Y-22052636D01*
X42504319Y-22052646D01*
X42501164Y-22056341D01*
X42498626Y-22060482D01*
X42498617Y-22060495D01*
X42372082Y-22266982D01*
X42372078Y-22266988D01*
X42369534Y-22271141D01*
X42367670Y-22275640D01*
X42367668Y-22275645D01*
X42274991Y-22499388D01*
X42273127Y-22503889D01*
X42271992Y-22508613D01*
X42271989Y-22508625D01*
X42215453Y-22744118D01*
X42215451Y-22744124D01*
X42214317Y-22748852D01*
X42194551Y-23000000D01*
X28285449Y-23000000D01*
X28265683Y-22748852D01*
X28206873Y-22503889D01*
X28110466Y-22271141D01*
X27978836Y-22056341D01*
X27815224Y-21864776D01*
X27811523Y-21861615D01*
X27627363Y-21704327D01*
X27627358Y-21704324D01*
X27623659Y-21701164D01*
X27619511Y-21698622D01*
X27619504Y-21698617D01*
X27413017Y-21572082D01*
X27413016Y-21572081D01*
X27408859Y-21569534D01*
X27176111Y-21473127D01*
X27171382Y-21471991D01*
X27171374Y-21471989D01*
X26935881Y-21415453D01*
X26935877Y-21415452D01*
X26931148Y-21414317D01*
X26926295Y-21413935D01*
X26684854Y-21394933D01*
X26680000Y-21394551D01*
X26675146Y-21394933D01*
X26433704Y-21413935D01*
X26433702Y-21413935D01*
X26428852Y-21414317D01*
X26424124Y-21415451D01*
X26424118Y-21415453D01*
X26188625Y-21471989D01*
X26188613Y-21471992D01*
X26183889Y-21473127D01*
X26179392Y-21474989D01*
X26179388Y-21474991D01*
X25955645Y-21567668D01*
X25955640Y-21567670D01*
X25951141Y-21569534D01*
X25946988Y-21572078D01*
X25946982Y-21572082D01*
X25740495Y-21698617D01*
X25740482Y-21698626D01*
X25736341Y-21701164D01*
X25732646Y-21704319D01*
X25732636Y-21704327D01*
X25548476Y-21861615D01*
X25548469Y-21861621D01*
X25544776Y-21864776D01*
X25541621Y-21868469D01*
X25541615Y-21868476D01*
X25384327Y-22052636D01*
X25384319Y-22052646D01*
X25381164Y-22056341D01*
X25378626Y-22060482D01*
X25378617Y-22060495D01*
X25252082Y-22266982D01*
X25252078Y-22266988D01*
X25249534Y-22271141D01*
X25247670Y-22275640D01*
X25247668Y-22275645D01*
X25154991Y-22499388D01*
X25153127Y-22503889D01*
X25151992Y-22508613D01*
X25151989Y-22508625D01*
X25095453Y-22744118D01*
X25095451Y-22744124D01*
X25094317Y-22748852D01*
X25074551Y-23000000D01*
X20000500Y-23000000D01*
X20000500Y-20124500D01*
X20017113Y-20062500D01*
X20062500Y-20017113D01*
X20124500Y-20000500D01*
X50355500Y-20000500D01*
X50417500Y-20017113D01*
G37*
%TD.AperFunction*%
%TD*%
M02*
