%TF.GenerationSoftware,KiCad,Pcbnew,(7.0.0)*%
%TF.CreationDate,2023-03-06T17:55:23-08:00*%
%TF.ProjectId,my active mult,6d792061-6374-4697-9665-206d756c742e,rev?*%
%TF.SameCoordinates,Original*%
%TF.FileFunction,Paste,Top*%
%TF.FilePolarity,Positive*%
%FSLAX46Y46*%
G04 Gerber Fmt 4.6, Leading zero omitted, Abs format (unit mm)*
G04 Created by KiCad (PCBNEW (7.0.0)) date 2023-03-06 17:55:23*
%MOMM*%
%LPD*%
G01*
G04 APERTURE LIST*
G04 Aperture macros list*
%AMRoundRect*
0 Rectangle with rounded corners*
0 $1 Rounding radius*
0 $2 $3 $4 $5 $6 $7 $8 $9 X,Y pos of 4 corners*
0 Add a 4 corners polygon primitive as box body*
4,1,4,$2,$3,$4,$5,$6,$7,$8,$9,$2,$3,0*
0 Add four circle primitives for the rounded corners*
1,1,$1+$1,$2,$3*
1,1,$1+$1,$4,$5*
1,1,$1+$1,$6,$7*
1,1,$1+$1,$8,$9*
0 Add four rect primitives between the rounded corners*
20,1,$1+$1,$2,$3,$4,$5,0*
20,1,$1+$1,$4,$5,$6,$7,0*
20,1,$1+$1,$6,$7,$8,$9,0*
20,1,$1+$1,$8,$9,$2,$3,0*%
G04 Aperture macros list end*
%ADD10RoundRect,0.255000X0.255000X-2.245000X0.255000X2.245000X-0.255000X2.245000X-0.255000X-2.245000X0*%
%ADD11RoundRect,0.150000X-0.825000X-0.150000X0.825000X-0.150000X0.825000X0.150000X-0.825000X0.150000X0*%
%ADD12RoundRect,0.200000X-0.200000X-0.275000X0.200000X-0.275000X0.200000X0.275000X-0.200000X0.275000X0*%
%ADD13RoundRect,0.200000X0.275000X-0.200000X0.275000X0.200000X-0.275000X0.200000X-0.275000X-0.200000X0*%
%ADD14RoundRect,0.218750X-0.256250X0.218750X-0.256250X-0.218750X0.256250X-0.218750X0.256250X0.218750X0*%
G04 APERTURE END LIST*
D10*
%TO.C,J14*%
X26220000Y-103050000D03*
X28760000Y-103050000D03*
X31300000Y-103050000D03*
X33840000Y-103050000D03*
X36380000Y-103050000D03*
X38920000Y-103050000D03*
X41460000Y-103050000D03*
X44000000Y-103050000D03*
X26220000Y-95450000D03*
X28760000Y-95450000D03*
X31300000Y-95450000D03*
X33840000Y-95450000D03*
X36380000Y-95450000D03*
X38920000Y-95450000D03*
X41460000Y-95450000D03*
X44000000Y-95450000D03*
%TD*%
D11*
%TO.C,U2*%
X38225000Y-63095000D03*
X38225000Y-64365000D03*
X38225000Y-65635000D03*
X38225000Y-66905000D03*
X33275000Y-66905000D03*
X33275000Y-65635000D03*
X33275000Y-64365000D03*
X33275000Y-63095000D03*
%TD*%
%TO.C,U1*%
X38200000Y-32440000D03*
X38200000Y-33710000D03*
X38200000Y-34980000D03*
X38200000Y-36250000D03*
X33250000Y-36250000D03*
X33250000Y-34980000D03*
X33250000Y-33710000D03*
X33250000Y-32440000D03*
%TD*%
D12*
%TO.C,R12*%
X30750000Y-126500000D03*
X29100000Y-126500000D03*
%TD*%
%TO.C,R11*%
X30750000Y-116250000D03*
X29100000Y-116250000D03*
%TD*%
%TO.C,R10*%
X45500000Y-126750000D03*
X43850000Y-126750000D03*
%TD*%
D13*
%TO.C,R9*%
X48750000Y-108287500D03*
X48750000Y-109937500D03*
%TD*%
D12*
%TO.C,R8*%
X30500000Y-87500000D03*
X28850000Y-87500000D03*
%TD*%
%TO.C,R7*%
X30500000Y-77000000D03*
X28850000Y-77000000D03*
%TD*%
%TO.C,R6*%
X45500000Y-87250000D03*
X43850000Y-87250000D03*
%TD*%
D13*
%TO.C,R5*%
X47750000Y-69037500D03*
X47750000Y-70687500D03*
%TD*%
D12*
%TO.C,R4*%
X30250000Y-54000000D03*
X28600000Y-54000000D03*
%TD*%
%TO.C,R3*%
X30500000Y-43750000D03*
X28850000Y-43750000D03*
%TD*%
%TO.C,R2*%
X45500000Y-54000000D03*
X43850000Y-54000000D03*
%TD*%
D13*
%TO.C,R1*%
X48000000Y-35537500D03*
X48000000Y-37187500D03*
%TD*%
D14*
%TO.C,D3*%
X46750000Y-109825000D03*
X46750000Y-108250000D03*
%TD*%
%TO.C,D2*%
X46000000Y-70537500D03*
X46000000Y-68962500D03*
%TD*%
%TO.C,D1*%
X46250000Y-37037500D03*
X46250000Y-35462500D03*
%TD*%
M02*
