M48
; DRILL file {KiCad (7.0.0)} date Mon Mar  6 17:55:23 2023
; FORMAT={-:-/ absolute / inch / decimal}
; #@! TF.CreationDate,2023-03-06T17:55:23-08:00
; #@! TF.GenerationSoftware,Kicad,Pcbnew,(7.0.0)
; #@! TF.FileFunction,Plated,1,2,PTH
FMAT,2
INCH
; #@! TA.AperFunction,Plated,PTH,ViaDrill
T1C0.0157
; #@! TA.AperFunction,Plated,PTH,ComponentDrill
T2C0.0480
; #@! TA.AperFunction,Plated,PTH,ComponentDrill
T3C0.0559
; #@! TA.AperFunction,Plated,PTH,ComponentDrill
T4C0.0563
%
G90
G05
T1
X0.8858Y-3.6614
X1.2205Y-1.4272
X1.2205Y-2.6378
X1.2894Y-2.9331
X1.3878Y-1.378
X1.437Y-3.6024
X1.5354Y-2.7461
X1.5846Y-1.2697
X1.5945Y-1.437
X1.5945Y-2.4803
X1.811Y-1.8504
X1.811Y-2.2638
T2
X0.8689Y-1.7205
X0.8689Y-2.124
X0.8701Y-3.0413
X0.8701Y-3.4449
X0.8701Y-4.5768
X0.8701Y-4.9803
X1.4457Y-1.7224
X1.4457Y-2.126
X1.4457Y-4.5768
X1.4457Y-4.9803
X1.4461Y-3.0394
X1.4461Y-3.4429
T3
X0.9909Y-1.7205
X0.9909Y-2.124
X0.9921Y-3.0413
X0.9921Y-3.4449
X0.9921Y-4.5768
X0.9921Y-4.9803
X1.5677Y-1.7224
X1.5677Y-2.126
X1.5677Y-4.5768
X1.5677Y-4.9803
X1.5681Y-3.0394
X1.5681Y-3.4429
T4
X1.3177Y-1.7205
X1.3177Y-2.124
X1.3189Y-3.0413
X1.3189Y-3.4449
X1.3189Y-4.5768
X1.3189Y-4.9803
X1.8945Y-1.7224
X1.8945Y-2.126
X1.8945Y-4.5768
X1.8945Y-4.9803
X1.8949Y-3.0394
X1.8949Y-3.4429
T0
M30
