%TF.GenerationSoftware,KiCad,Pcbnew,(7.0.0)*%
%TF.CreationDate,2023-03-06T17:55:23-08:00*%
%TF.ProjectId,my active mult,6d792061-6374-4697-9665-206d756c742e,rev?*%
%TF.SameCoordinates,Original*%
%TF.FileFunction,Legend,Bot*%
%TF.FilePolarity,Positive*%
%FSLAX46Y46*%
G04 Gerber Fmt 4.6, Leading zero omitted, Abs format (unit mm)*
G04 Created by KiCad (PCBNEW (7.0.0)) date 2023-03-06 17:55:23*
%MOMM*%
%LPD*%
G01*
G04 APERTURE LIST*
%ADD10C,0.150000*%
%ADD11C,0.120000*%
%ADD12R,1.830000X1.930000*%
%ADD13C,2.130000*%
G04 APERTURE END LIST*
D10*
X22717619Y-105607142D02*
X21717619Y-105369047D01*
X21717619Y-105369047D02*
X22431904Y-105178571D01*
X22431904Y-105178571D02*
X21717619Y-104988095D01*
X21717619Y-104988095D02*
X22717619Y-104750000D01*
X21717619Y-104369047D02*
X22384285Y-104369047D01*
X22717619Y-104369047D02*
X22670000Y-104416666D01*
X22670000Y-104416666D02*
X22622380Y-104369047D01*
X22622380Y-104369047D02*
X22670000Y-104321428D01*
X22670000Y-104321428D02*
X22717619Y-104369047D01*
X22717619Y-104369047D02*
X22622380Y-104369047D01*
X21765238Y-103940476D02*
X21717619Y-103845238D01*
X21717619Y-103845238D02*
X21717619Y-103654762D01*
X21717619Y-103654762D02*
X21765238Y-103559524D01*
X21765238Y-103559524D02*
X21860476Y-103511905D01*
X21860476Y-103511905D02*
X21908095Y-103511905D01*
X21908095Y-103511905D02*
X22003333Y-103559524D01*
X22003333Y-103559524D02*
X22050952Y-103654762D01*
X22050952Y-103654762D02*
X22050952Y-103797619D01*
X22050952Y-103797619D02*
X22098571Y-103892857D01*
X22098571Y-103892857D02*
X22193809Y-103940476D01*
X22193809Y-103940476D02*
X22241428Y-103940476D01*
X22241428Y-103940476D02*
X22336666Y-103892857D01*
X22336666Y-103892857D02*
X22384285Y-103797619D01*
X22384285Y-103797619D02*
X22384285Y-103654762D01*
X22384285Y-103654762D02*
X22336666Y-103559524D01*
X22003333Y-102530952D02*
X22003333Y-102054762D01*
X21717619Y-102626190D02*
X22717619Y-102292857D01*
X22717619Y-102292857D02*
X21717619Y-101959524D01*
X21717619Y-101626190D02*
X22717619Y-101626190D01*
X22717619Y-101626190D02*
X22003333Y-101292857D01*
X22003333Y-101292857D02*
X22717619Y-100959524D01*
X22717619Y-100959524D02*
X21717619Y-100959524D01*
X22384285Y-100054762D02*
X21717619Y-100054762D01*
X22384285Y-100483333D02*
X21860476Y-100483333D01*
X21860476Y-100483333D02*
X21765238Y-100435714D01*
X21765238Y-100435714D02*
X21717619Y-100340476D01*
X21717619Y-100340476D02*
X21717619Y-100197619D01*
X21717619Y-100197619D02*
X21765238Y-100102381D01*
X21765238Y-100102381D02*
X21812857Y-100054762D01*
X21717619Y-99435714D02*
X21765238Y-99530952D01*
X21765238Y-99530952D02*
X21860476Y-99578571D01*
X21860476Y-99578571D02*
X22717619Y-99578571D01*
X22384285Y-99197618D02*
X22384285Y-98816666D01*
X22717619Y-99054761D02*
X21860476Y-99054761D01*
X21860476Y-99054761D02*
X21765238Y-99007142D01*
X21765238Y-99007142D02*
X21717619Y-98911904D01*
X21717619Y-98911904D02*
X21717619Y-98816666D01*
%TO.C,J3*%
X37167380Y-49636666D02*
X37881666Y-49636666D01*
X37881666Y-49636666D02*
X38024523Y-49589047D01*
X38024523Y-49589047D02*
X38119761Y-49493809D01*
X38119761Y-49493809D02*
X38167380Y-49350952D01*
X38167380Y-49350952D02*
X38167380Y-49255714D01*
X37167380Y-50017619D02*
X37167380Y-50636666D01*
X37167380Y-50636666D02*
X37548333Y-50303333D01*
X37548333Y-50303333D02*
X37548333Y-50446190D01*
X37548333Y-50446190D02*
X37595952Y-50541428D01*
X37595952Y-50541428D02*
X37643571Y-50589047D01*
X37643571Y-50589047D02*
X37738809Y-50636666D01*
X37738809Y-50636666D02*
X37976904Y-50636666D01*
X37976904Y-50636666D02*
X38072142Y-50589047D01*
X38072142Y-50589047D02*
X38119761Y-50541428D01*
X38119761Y-50541428D02*
X38167380Y-50446190D01*
X38167380Y-50446190D02*
X38167380Y-50160476D01*
X38167380Y-50160476D02*
X38119761Y-50065238D01*
X38119761Y-50065238D02*
X38072142Y-50017619D01*
%TO.C,J13*%
X22547380Y-121660476D02*
X23261666Y-121660476D01*
X23261666Y-121660476D02*
X23404523Y-121612857D01*
X23404523Y-121612857D02*
X23499761Y-121517619D01*
X23499761Y-121517619D02*
X23547380Y-121374762D01*
X23547380Y-121374762D02*
X23547380Y-121279524D01*
X23547380Y-122660476D02*
X23547380Y-122089048D01*
X23547380Y-122374762D02*
X22547380Y-122374762D01*
X22547380Y-122374762D02*
X22690238Y-122279524D01*
X22690238Y-122279524D02*
X22785476Y-122184286D01*
X22785476Y-122184286D02*
X22833095Y-122089048D01*
X22547380Y-122993810D02*
X22547380Y-123612857D01*
X22547380Y-123612857D02*
X22928333Y-123279524D01*
X22928333Y-123279524D02*
X22928333Y-123422381D01*
X22928333Y-123422381D02*
X22975952Y-123517619D01*
X22975952Y-123517619D02*
X23023571Y-123565238D01*
X23023571Y-123565238D02*
X23118809Y-123612857D01*
X23118809Y-123612857D02*
X23356904Y-123612857D01*
X23356904Y-123612857D02*
X23452142Y-123565238D01*
X23452142Y-123565238D02*
X23499761Y-123517619D01*
X23499761Y-123517619D02*
X23547380Y-123422381D01*
X23547380Y-123422381D02*
X23547380Y-123136667D01*
X23547380Y-123136667D02*
X23499761Y-123041429D01*
X23499761Y-123041429D02*
X23452142Y-122993810D01*
%TO.C,J12*%
X22547380Y-111410476D02*
X23261666Y-111410476D01*
X23261666Y-111410476D02*
X23404523Y-111362857D01*
X23404523Y-111362857D02*
X23499761Y-111267619D01*
X23499761Y-111267619D02*
X23547380Y-111124762D01*
X23547380Y-111124762D02*
X23547380Y-111029524D01*
X23547380Y-112410476D02*
X23547380Y-111839048D01*
X23547380Y-112124762D02*
X22547380Y-112124762D01*
X22547380Y-112124762D02*
X22690238Y-112029524D01*
X22690238Y-112029524D02*
X22785476Y-111934286D01*
X22785476Y-111934286D02*
X22833095Y-111839048D01*
X22642619Y-112791429D02*
X22595000Y-112839048D01*
X22595000Y-112839048D02*
X22547380Y-112934286D01*
X22547380Y-112934286D02*
X22547380Y-113172381D01*
X22547380Y-113172381D02*
X22595000Y-113267619D01*
X22595000Y-113267619D02*
X22642619Y-113315238D01*
X22642619Y-113315238D02*
X22737857Y-113362857D01*
X22737857Y-113362857D02*
X22833095Y-113362857D01*
X22833095Y-113362857D02*
X22975952Y-113315238D01*
X22975952Y-113315238D02*
X23547380Y-112743810D01*
X23547380Y-112743810D02*
X23547380Y-113362857D01*
%TO.C,J11*%
X37167380Y-121660476D02*
X37881666Y-121660476D01*
X37881666Y-121660476D02*
X38024523Y-121612857D01*
X38024523Y-121612857D02*
X38119761Y-121517619D01*
X38119761Y-121517619D02*
X38167380Y-121374762D01*
X38167380Y-121374762D02*
X38167380Y-121279524D01*
X38167380Y-122660476D02*
X38167380Y-122089048D01*
X38167380Y-122374762D02*
X37167380Y-122374762D01*
X37167380Y-122374762D02*
X37310238Y-122279524D01*
X37310238Y-122279524D02*
X37405476Y-122184286D01*
X37405476Y-122184286D02*
X37453095Y-122089048D01*
X38167380Y-123612857D02*
X38167380Y-123041429D01*
X38167380Y-123327143D02*
X37167380Y-123327143D01*
X37167380Y-123327143D02*
X37310238Y-123231905D01*
X37310238Y-123231905D02*
X37405476Y-123136667D01*
X37405476Y-123136667D02*
X37453095Y-123041429D01*
%TO.C,J10*%
X37167380Y-111410476D02*
X37881666Y-111410476D01*
X37881666Y-111410476D02*
X38024523Y-111362857D01*
X38024523Y-111362857D02*
X38119761Y-111267619D01*
X38119761Y-111267619D02*
X38167380Y-111124762D01*
X38167380Y-111124762D02*
X38167380Y-111029524D01*
X38167380Y-112410476D02*
X38167380Y-111839048D01*
X38167380Y-112124762D02*
X37167380Y-112124762D01*
X37167380Y-112124762D02*
X37310238Y-112029524D01*
X37310238Y-112029524D02*
X37405476Y-111934286D01*
X37405476Y-111934286D02*
X37453095Y-111839048D01*
X37167380Y-113029524D02*
X37167380Y-113124762D01*
X37167380Y-113124762D02*
X37215000Y-113220000D01*
X37215000Y-113220000D02*
X37262619Y-113267619D01*
X37262619Y-113267619D02*
X37357857Y-113315238D01*
X37357857Y-113315238D02*
X37548333Y-113362857D01*
X37548333Y-113362857D02*
X37786428Y-113362857D01*
X37786428Y-113362857D02*
X37976904Y-113315238D01*
X37976904Y-113315238D02*
X38072142Y-113267619D01*
X38072142Y-113267619D02*
X38119761Y-113220000D01*
X38119761Y-113220000D02*
X38167380Y-113124762D01*
X38167380Y-113124762D02*
X38167380Y-113029524D01*
X38167380Y-113029524D02*
X38119761Y-112934286D01*
X38119761Y-112934286D02*
X38072142Y-112886667D01*
X38072142Y-112886667D02*
X37976904Y-112839048D01*
X37976904Y-112839048D02*
X37786428Y-112791429D01*
X37786428Y-112791429D02*
X37548333Y-112791429D01*
X37548333Y-112791429D02*
X37357857Y-112839048D01*
X37357857Y-112839048D02*
X37262619Y-112886667D01*
X37262619Y-112886667D02*
X37215000Y-112934286D01*
X37215000Y-112934286D02*
X37167380Y-113029524D01*
%TO.C,J9*%
X22547380Y-83136666D02*
X23261666Y-83136666D01*
X23261666Y-83136666D02*
X23404523Y-83089047D01*
X23404523Y-83089047D02*
X23499761Y-82993809D01*
X23499761Y-82993809D02*
X23547380Y-82850952D01*
X23547380Y-82850952D02*
X23547380Y-82755714D01*
X23547380Y-83660476D02*
X23547380Y-83850952D01*
X23547380Y-83850952D02*
X23499761Y-83946190D01*
X23499761Y-83946190D02*
X23452142Y-83993809D01*
X23452142Y-83993809D02*
X23309285Y-84089047D01*
X23309285Y-84089047D02*
X23118809Y-84136666D01*
X23118809Y-84136666D02*
X22737857Y-84136666D01*
X22737857Y-84136666D02*
X22642619Y-84089047D01*
X22642619Y-84089047D02*
X22595000Y-84041428D01*
X22595000Y-84041428D02*
X22547380Y-83946190D01*
X22547380Y-83946190D02*
X22547380Y-83755714D01*
X22547380Y-83755714D02*
X22595000Y-83660476D01*
X22595000Y-83660476D02*
X22642619Y-83612857D01*
X22642619Y-83612857D02*
X22737857Y-83565238D01*
X22737857Y-83565238D02*
X22975952Y-83565238D01*
X22975952Y-83565238D02*
X23071190Y-83612857D01*
X23071190Y-83612857D02*
X23118809Y-83660476D01*
X23118809Y-83660476D02*
X23166428Y-83755714D01*
X23166428Y-83755714D02*
X23166428Y-83946190D01*
X23166428Y-83946190D02*
X23118809Y-84041428D01*
X23118809Y-84041428D02*
X23071190Y-84089047D01*
X23071190Y-84089047D02*
X22975952Y-84136666D01*
%TO.C,J8*%
X22547380Y-72886666D02*
X23261666Y-72886666D01*
X23261666Y-72886666D02*
X23404523Y-72839047D01*
X23404523Y-72839047D02*
X23499761Y-72743809D01*
X23499761Y-72743809D02*
X23547380Y-72600952D01*
X23547380Y-72600952D02*
X23547380Y-72505714D01*
X22975952Y-73505714D02*
X22928333Y-73410476D01*
X22928333Y-73410476D02*
X22880714Y-73362857D01*
X22880714Y-73362857D02*
X22785476Y-73315238D01*
X22785476Y-73315238D02*
X22737857Y-73315238D01*
X22737857Y-73315238D02*
X22642619Y-73362857D01*
X22642619Y-73362857D02*
X22595000Y-73410476D01*
X22595000Y-73410476D02*
X22547380Y-73505714D01*
X22547380Y-73505714D02*
X22547380Y-73696190D01*
X22547380Y-73696190D02*
X22595000Y-73791428D01*
X22595000Y-73791428D02*
X22642619Y-73839047D01*
X22642619Y-73839047D02*
X22737857Y-73886666D01*
X22737857Y-73886666D02*
X22785476Y-73886666D01*
X22785476Y-73886666D02*
X22880714Y-73839047D01*
X22880714Y-73839047D02*
X22928333Y-73791428D01*
X22928333Y-73791428D02*
X22975952Y-73696190D01*
X22975952Y-73696190D02*
X22975952Y-73505714D01*
X22975952Y-73505714D02*
X23023571Y-73410476D01*
X23023571Y-73410476D02*
X23071190Y-73362857D01*
X23071190Y-73362857D02*
X23166428Y-73315238D01*
X23166428Y-73315238D02*
X23356904Y-73315238D01*
X23356904Y-73315238D02*
X23452142Y-73362857D01*
X23452142Y-73362857D02*
X23499761Y-73410476D01*
X23499761Y-73410476D02*
X23547380Y-73505714D01*
X23547380Y-73505714D02*
X23547380Y-73696190D01*
X23547380Y-73696190D02*
X23499761Y-73791428D01*
X23499761Y-73791428D02*
X23452142Y-73839047D01*
X23452142Y-73839047D02*
X23356904Y-73886666D01*
X23356904Y-73886666D02*
X23166428Y-73886666D01*
X23166428Y-73886666D02*
X23071190Y-73839047D01*
X23071190Y-73839047D02*
X23023571Y-73791428D01*
X23023571Y-73791428D02*
X22975952Y-73696190D01*
%TO.C,J7*%
X37177380Y-83086666D02*
X37891666Y-83086666D01*
X37891666Y-83086666D02*
X38034523Y-83039047D01*
X38034523Y-83039047D02*
X38129761Y-82943809D01*
X38129761Y-82943809D02*
X38177380Y-82800952D01*
X38177380Y-82800952D02*
X38177380Y-82705714D01*
X37177380Y-83467619D02*
X37177380Y-84134285D01*
X37177380Y-84134285D02*
X38177380Y-83705714D01*
%TO.C,J6*%
X37177380Y-72836666D02*
X37891666Y-72836666D01*
X37891666Y-72836666D02*
X38034523Y-72789047D01*
X38034523Y-72789047D02*
X38129761Y-72693809D01*
X38129761Y-72693809D02*
X38177380Y-72550952D01*
X38177380Y-72550952D02*
X38177380Y-72455714D01*
X37177380Y-73741428D02*
X37177380Y-73550952D01*
X37177380Y-73550952D02*
X37225000Y-73455714D01*
X37225000Y-73455714D02*
X37272619Y-73408095D01*
X37272619Y-73408095D02*
X37415476Y-73312857D01*
X37415476Y-73312857D02*
X37605952Y-73265238D01*
X37605952Y-73265238D02*
X37986904Y-73265238D01*
X37986904Y-73265238D02*
X38082142Y-73312857D01*
X38082142Y-73312857D02*
X38129761Y-73360476D01*
X38129761Y-73360476D02*
X38177380Y-73455714D01*
X38177380Y-73455714D02*
X38177380Y-73646190D01*
X38177380Y-73646190D02*
X38129761Y-73741428D01*
X38129761Y-73741428D02*
X38082142Y-73789047D01*
X38082142Y-73789047D02*
X37986904Y-73836666D01*
X37986904Y-73836666D02*
X37748809Y-73836666D01*
X37748809Y-73836666D02*
X37653571Y-73789047D01*
X37653571Y-73789047D02*
X37605952Y-73741428D01*
X37605952Y-73741428D02*
X37558333Y-73646190D01*
X37558333Y-73646190D02*
X37558333Y-73455714D01*
X37558333Y-73455714D02*
X37605952Y-73360476D01*
X37605952Y-73360476D02*
X37653571Y-73312857D01*
X37653571Y-73312857D02*
X37748809Y-73265238D01*
%TO.C,J5*%
X22517380Y-49586666D02*
X23231666Y-49586666D01*
X23231666Y-49586666D02*
X23374523Y-49539047D01*
X23374523Y-49539047D02*
X23469761Y-49443809D01*
X23469761Y-49443809D02*
X23517380Y-49300952D01*
X23517380Y-49300952D02*
X23517380Y-49205714D01*
X22517380Y-50539047D02*
X22517380Y-50062857D01*
X22517380Y-50062857D02*
X22993571Y-50015238D01*
X22993571Y-50015238D02*
X22945952Y-50062857D01*
X22945952Y-50062857D02*
X22898333Y-50158095D01*
X22898333Y-50158095D02*
X22898333Y-50396190D01*
X22898333Y-50396190D02*
X22945952Y-50491428D01*
X22945952Y-50491428D02*
X22993571Y-50539047D01*
X22993571Y-50539047D02*
X23088809Y-50586666D01*
X23088809Y-50586666D02*
X23326904Y-50586666D01*
X23326904Y-50586666D02*
X23422142Y-50539047D01*
X23422142Y-50539047D02*
X23469761Y-50491428D01*
X23469761Y-50491428D02*
X23517380Y-50396190D01*
X23517380Y-50396190D02*
X23517380Y-50158095D01*
X23517380Y-50158095D02*
X23469761Y-50062857D01*
X23469761Y-50062857D02*
X23422142Y-50015238D01*
%TO.C,J4*%
X22517380Y-39336666D02*
X23231666Y-39336666D01*
X23231666Y-39336666D02*
X23374523Y-39289047D01*
X23374523Y-39289047D02*
X23469761Y-39193809D01*
X23469761Y-39193809D02*
X23517380Y-39050952D01*
X23517380Y-39050952D02*
X23517380Y-38955714D01*
X22850714Y-40241428D02*
X23517380Y-40241428D01*
X22469761Y-40003333D02*
X23184047Y-39765238D01*
X23184047Y-39765238D02*
X23184047Y-40384285D01*
%TO.C,J2*%
X37167380Y-39386666D02*
X37881666Y-39386666D01*
X37881666Y-39386666D02*
X38024523Y-39339047D01*
X38024523Y-39339047D02*
X38119761Y-39243809D01*
X38119761Y-39243809D02*
X38167380Y-39100952D01*
X38167380Y-39100952D02*
X38167380Y-39005714D01*
X37262619Y-39815238D02*
X37215000Y-39862857D01*
X37215000Y-39862857D02*
X37167380Y-39958095D01*
X37167380Y-39958095D02*
X37167380Y-40196190D01*
X37167380Y-40196190D02*
X37215000Y-40291428D01*
X37215000Y-40291428D02*
X37262619Y-40339047D01*
X37262619Y-40339047D02*
X37357857Y-40386666D01*
X37357857Y-40386666D02*
X37453095Y-40386666D01*
X37453095Y-40386666D02*
X37595952Y-40339047D01*
X37595952Y-40339047D02*
X38167380Y-39767619D01*
X38167380Y-39767619D02*
X38167380Y-40386666D01*
D11*
%TO.C,J3*%
X38700000Y-49500000D02*
X49200000Y-49500000D01*
X38700000Y-53280000D02*
X38700000Y-49500000D01*
X49200000Y-58500000D02*
X49200000Y-54800000D01*
X38700000Y-58500000D02*
X38700000Y-54720000D01*
X38700000Y-58500000D02*
X49200000Y-58500000D01*
X35550000Y-52770000D02*
X36350000Y-52770000D01*
X35550000Y-52770000D02*
X35550000Y-53630000D01*
X49200000Y-53200000D02*
X49200000Y-49500000D01*
X45000000Y-54000000D02*
G75*
G03*
X45000000Y-54000000I-1800000J0D01*
G01*
%TO.C,J13*%
X30380000Y-126500000D02*
G75*
G03*
X30380000Y-126500000I-1800000J0D01*
G01*
X34580000Y-125700000D02*
X34580000Y-122000000D01*
X20930000Y-125270000D02*
X20930000Y-126130000D01*
X20930000Y-125270000D02*
X21730000Y-125270000D01*
X24080000Y-131000000D02*
X34580000Y-131000000D01*
X24080000Y-131000000D02*
X24080000Y-127220000D01*
X34580000Y-131000000D02*
X34580000Y-127300000D01*
X24080000Y-125780000D02*
X24080000Y-122000000D01*
X24080000Y-122000000D02*
X34580000Y-122000000D01*
%TO.C,J12*%
X30380000Y-116250000D02*
G75*
G03*
X30380000Y-116250000I-1800000J0D01*
G01*
X34580000Y-115450000D02*
X34580000Y-111750000D01*
X20930000Y-115020000D02*
X20930000Y-115880000D01*
X20930000Y-115020000D02*
X21730000Y-115020000D01*
X24080000Y-120750000D02*
X34580000Y-120750000D01*
X24080000Y-120750000D02*
X24080000Y-116970000D01*
X34580000Y-120750000D02*
X34580000Y-117050000D01*
X24080000Y-115530000D02*
X24080000Y-111750000D01*
X24080000Y-111750000D02*
X34580000Y-111750000D01*
%TO.C,J11*%
X45000000Y-126500000D02*
G75*
G03*
X45000000Y-126500000I-1800000J0D01*
G01*
X49200000Y-125700000D02*
X49200000Y-122000000D01*
X35550000Y-125270000D02*
X35550000Y-126130000D01*
X35550000Y-125270000D02*
X36350000Y-125270000D01*
X38700000Y-131000000D02*
X49200000Y-131000000D01*
X38700000Y-131000000D02*
X38700000Y-127220000D01*
X49200000Y-131000000D02*
X49200000Y-127300000D01*
X38700000Y-125780000D02*
X38700000Y-122000000D01*
X38700000Y-122000000D02*
X49200000Y-122000000D01*
%TO.C,J10*%
X45000000Y-116250000D02*
G75*
G03*
X45000000Y-116250000I-1800000J0D01*
G01*
X49200000Y-115450000D02*
X49200000Y-111750000D01*
X35550000Y-115020000D02*
X35550000Y-115880000D01*
X35550000Y-115020000D02*
X36350000Y-115020000D01*
X38700000Y-120750000D02*
X49200000Y-120750000D01*
X38700000Y-120750000D02*
X38700000Y-116970000D01*
X49200000Y-120750000D02*
X49200000Y-117050000D01*
X38700000Y-115530000D02*
X38700000Y-111750000D01*
X38700000Y-111750000D02*
X49200000Y-111750000D01*
%TO.C,J9*%
X30380000Y-87500000D02*
G75*
G03*
X30380000Y-87500000I-1800000J0D01*
G01*
X34580000Y-86700000D02*
X34580000Y-83000000D01*
X20930000Y-86270000D02*
X20930000Y-87130000D01*
X20930000Y-86270000D02*
X21730000Y-86270000D01*
X24080000Y-92000000D02*
X34580000Y-92000000D01*
X24080000Y-92000000D02*
X24080000Y-88220000D01*
X34580000Y-92000000D02*
X34580000Y-88300000D01*
X24080000Y-86780000D02*
X24080000Y-83000000D01*
X24080000Y-83000000D02*
X34580000Y-83000000D01*
%TO.C,J8*%
X30380000Y-77250000D02*
G75*
G03*
X30380000Y-77250000I-1800000J0D01*
G01*
X34580000Y-76450000D02*
X34580000Y-72750000D01*
X20930000Y-76020000D02*
X20930000Y-76880000D01*
X20930000Y-76020000D02*
X21730000Y-76020000D01*
X24080000Y-81750000D02*
X34580000Y-81750000D01*
X24080000Y-81750000D02*
X24080000Y-77970000D01*
X34580000Y-81750000D02*
X34580000Y-78050000D01*
X24080000Y-76530000D02*
X24080000Y-72750000D01*
X24080000Y-72750000D02*
X34580000Y-72750000D01*
%TO.C,J7*%
X45010000Y-87450000D02*
G75*
G03*
X45010000Y-87450000I-1800000J0D01*
G01*
X49210000Y-86650000D02*
X49210000Y-82950000D01*
X35560000Y-86220000D02*
X35560000Y-87080000D01*
X35560000Y-86220000D02*
X36360000Y-86220000D01*
X38710000Y-91950000D02*
X49210000Y-91950000D01*
X38710000Y-91950000D02*
X38710000Y-88170000D01*
X49210000Y-91950000D02*
X49210000Y-88250000D01*
X38710000Y-86730000D02*
X38710000Y-82950000D01*
X38710000Y-82950000D02*
X49210000Y-82950000D01*
%TO.C,J6*%
X45010000Y-77200000D02*
G75*
G03*
X45010000Y-77200000I-1800000J0D01*
G01*
X49210000Y-76400000D02*
X49210000Y-72700000D01*
X35560000Y-75970000D02*
X35560000Y-76830000D01*
X35560000Y-75970000D02*
X36360000Y-75970000D01*
X38710000Y-81700000D02*
X49210000Y-81700000D01*
X38710000Y-81700000D02*
X38710000Y-77920000D01*
X49210000Y-81700000D02*
X49210000Y-78000000D01*
X38710000Y-76480000D02*
X38710000Y-72700000D01*
X38710000Y-72700000D02*
X49210000Y-72700000D01*
%TO.C,J5*%
X30350000Y-53950000D02*
G75*
G03*
X30350000Y-53950000I-1800000J0D01*
G01*
X34550000Y-53150000D02*
X34550000Y-49450000D01*
X20900000Y-52720000D02*
X20900000Y-53580000D01*
X20900000Y-52720000D02*
X21700000Y-52720000D01*
X24050000Y-58450000D02*
X34550000Y-58450000D01*
X24050000Y-58450000D02*
X24050000Y-54670000D01*
X34550000Y-58450000D02*
X34550000Y-54750000D01*
X24050000Y-53230000D02*
X24050000Y-49450000D01*
X24050000Y-49450000D02*
X34550000Y-49450000D01*
%TO.C,J4*%
X30350000Y-43700000D02*
G75*
G03*
X30350000Y-43700000I-1800000J0D01*
G01*
X34550000Y-42900000D02*
X34550000Y-39200000D01*
X20900000Y-42470000D02*
X20900000Y-43330000D01*
X20900000Y-42470000D02*
X21700000Y-42470000D01*
X24050000Y-48200000D02*
X34550000Y-48200000D01*
X24050000Y-48200000D02*
X24050000Y-44420000D01*
X34550000Y-48200000D02*
X34550000Y-44500000D01*
X24050000Y-42980000D02*
X24050000Y-39200000D01*
X24050000Y-39200000D02*
X34550000Y-39200000D01*
%TO.C,J2*%
X45000000Y-43750000D02*
G75*
G03*
X45000000Y-43750000I-1800000J0D01*
G01*
X49200000Y-42950000D02*
X49200000Y-39250000D01*
X35550000Y-42520000D02*
X35550000Y-43380000D01*
X35550000Y-42520000D02*
X36350000Y-42520000D01*
X38700000Y-48250000D02*
X49200000Y-48250000D01*
X38700000Y-48250000D02*
X38700000Y-44470000D01*
X49200000Y-48250000D02*
X49200000Y-44550000D01*
X38700000Y-43030000D02*
X38700000Y-39250000D01*
X38700000Y-39250000D02*
X49200000Y-39250000D01*
%TD*%
%LPC*%
D12*
%TO.C,J3*%
X36719999Y-53999999D03*
D13*
X48120000Y-54000000D03*
X39820000Y-54000000D03*
%TD*%
%TO.C,J13*%
X25200000Y-126500000D03*
X33500000Y-126500000D03*
D12*
X22099999Y-126499999D03*
%TD*%
D13*
%TO.C,J12*%
X25200000Y-116250000D03*
X33500000Y-116250000D03*
D12*
X22099999Y-116249999D03*
%TD*%
D13*
%TO.C,J11*%
X39820000Y-126500000D03*
X48120000Y-126500000D03*
D12*
X36719999Y-126499999D03*
%TD*%
D13*
%TO.C,J10*%
X39820000Y-116250000D03*
X48120000Y-116250000D03*
D12*
X36719999Y-116249999D03*
%TD*%
D13*
%TO.C,J9*%
X25200000Y-87500000D03*
X33500000Y-87500000D03*
D12*
X22099999Y-87499999D03*
%TD*%
D13*
%TO.C,J8*%
X25200000Y-77250000D03*
X33500000Y-77250000D03*
D12*
X22099999Y-77249999D03*
%TD*%
D13*
%TO.C,J7*%
X39830000Y-87450000D03*
X48130000Y-87450000D03*
D12*
X36729999Y-87449999D03*
%TD*%
D13*
%TO.C,J6*%
X39830000Y-77200000D03*
X48130000Y-77200000D03*
D12*
X36729999Y-77199999D03*
%TD*%
D13*
%TO.C,J5*%
X25170000Y-53950000D03*
X33470000Y-53950000D03*
D12*
X22069999Y-53949999D03*
%TD*%
D13*
%TO.C,J4*%
X25170000Y-43700000D03*
X33470000Y-43700000D03*
D12*
X22069999Y-43699999D03*
%TD*%
D13*
%TO.C,J2*%
X39820000Y-43750000D03*
X48120000Y-43750000D03*
D12*
X36719999Y-43749999D03*
%TD*%
M02*
