M48
; DRILL file {KiCad (7.0.0)} date Sun Mar 26 07:08:49 2023
; FORMAT={-:-/ absolute / inch / decimal}
; #@! TF.CreationDate,2023-03-26T07:08:49-07:00
; #@! TF.GenerationSoftware,Kicad,Pcbnew,(7.0.0)
; #@! TF.FileFunction,Plated,1,2,PTH
FMAT,2
INCH
; #@! TA.AperFunction,Plated,PTH,ViaDrill
T1C0.0157
; #@! TA.AperFunction,Plated,PTH,ComponentDrill
T2C0.0394
; #@! TA.AperFunction,Plated,PTH,ComponentDrill
T3C0.0433
; #@! TA.AperFunction,Plated,PTH,ComponentDrill
T4C0.0480
; #@! TA.AperFunction,Plated,PTH,ComponentDrill
T5C0.0559
; #@! TA.AperFunction,Plated,PTH,ComponentDrill
T6C0.0563
%
G90
G05
T1
X0.9252Y-1.7126
X1.1024Y-2.4409
X1.1614Y-3.248
X1.2205Y-2.4311
X1.2205Y-5.0984
X1.2303Y-4.4783
X1.2894Y-2.3622
X1.3386Y-2.0768
X1.3681Y-3.1299
X1.437Y-2.0768
X1.4469Y-3.3661
X1.5059Y-2.6969
X1.5059Y-3.2677
X1.5748Y-2.1358
X1.5748Y-2.372
X1.5748Y-4.4783
X1.6043Y-4.8622
X1.6732Y-3.3465
X1.7421Y-2.6476
X1.7913Y-2.3031
X1.939Y-2.687
T2
X1.0039Y-1.8691
X1.1024Y-1.8691
X1.2008Y-1.8691
X1.5945Y-1.4665
X1.6945Y-1.4665
X1.7945Y-1.4665
X1.8799Y-5.1476
X1.8799Y-5.2476
X1.8799Y-5.3476
T4
X1.122Y-4.1969
X1.122Y-4.8118
X1.6732Y-4.1969
T5
X1.122Y-4.3189
X1.122Y-4.9339
X1.6732Y-4.3189
T6
X1.122Y-4.6457
X1.122Y-5.2606
X1.6732Y-4.6457
T3
G00X0.9134Y-1.56
M15
G01X0.9134Y-1.5876
M16
G05
G00X1.2913Y-1.56
M15
G01X1.2913Y-1.5876
M16
G05
T0
M30
