%TF.GenerationSoftware,KiCad,Pcbnew,(7.0.0)*%
%TF.CreationDate,2023-03-26T07:08:48-07:00*%
%TF.ProjectId,electricdruid_vca,656c6563-7472-4696-9364-727569645f76,rev?*%
%TF.SameCoordinates,Original*%
%TF.FileFunction,Paste,Top*%
%TF.FilePolarity,Positive*%
%FSLAX46Y46*%
G04 Gerber Fmt 4.6, Leading zero omitted, Abs format (unit mm)*
G04 Created by KiCad (PCBNEW (7.0.0)) date 2023-03-26 07:08:48*
%MOMM*%
%LPD*%
G01*
G04 APERTURE LIST*
G04 Aperture macros list*
%AMRoundRect*
0 Rectangle with rounded corners*
0 $1 Rounding radius*
0 $2 $3 $4 $5 $6 $7 $8 $9 X,Y pos of 4 corners*
0 Add a 4 corners polygon primitive as box body*
4,1,4,$2,$3,$4,$5,$6,$7,$8,$9,$2,$3,0*
0 Add four circle primitives for the rounded corners*
1,1,$1+$1,$2,$3*
1,1,$1+$1,$4,$5*
1,1,$1+$1,$6,$7*
1,1,$1+$1,$8,$9*
0 Add four rect primitives between the rounded corners*
20,1,$1+$1,$2,$3,$4,$5,0*
20,1,$1+$1,$4,$5,$6,$7,0*
20,1,$1+$1,$6,$7,$8,$9,0*
20,1,$1+$1,$8,$9,$2,$3,0*%
G04 Aperture macros list end*
%ADD10RoundRect,0.200000X-0.275000X0.200000X-0.275000X-0.200000X0.275000X-0.200000X0.275000X0.200000X0*%
%ADD11RoundRect,0.200000X0.200000X0.275000X-0.200000X0.275000X-0.200000X-0.275000X0.200000X-0.275000X0*%
%ADD12RoundRect,0.200000X-0.200000X-0.275000X0.200000X-0.275000X0.200000X0.275000X-0.200000X0.275000X0*%
%ADD13RoundRect,0.150000X-0.850000X-0.150000X0.850000X-0.150000X0.850000X0.150000X-0.850000X0.150000X0*%
%ADD14RoundRect,0.225000X0.225000X0.250000X-0.225000X0.250000X-0.225000X-0.250000X0.225000X-0.250000X0*%
%ADD15RoundRect,0.255000X0.255000X-2.245000X0.255000X2.245000X-0.255000X2.245000X-0.255000X-2.245000X0*%
%ADD16RoundRect,0.150000X-0.825000X-0.150000X0.825000X-0.150000X0.825000X0.150000X-0.825000X0.150000X0*%
%ADD17RoundRect,0.200000X0.275000X-0.200000X0.275000X0.200000X-0.275000X0.200000X-0.275000X-0.200000X0*%
G04 APERTURE END LIST*
D10*
%TO.C,R12*%
X28500000Y-129425000D03*
X28500000Y-131075000D03*
%TD*%
D11*
%TO.C,R9*%
X33000000Y-63240000D03*
X31350000Y-63240000D03*
%TD*%
D12*
%TO.C,R2*%
X38175000Y-64250000D03*
X39825000Y-64250000D03*
%TD*%
D13*
%TO.C,U4*%
X42250000Y-62110000D03*
X42250000Y-63380000D03*
X42250000Y-64650000D03*
X42250000Y-65920000D03*
X42250000Y-67190000D03*
X42250000Y-68460000D03*
X42250000Y-69730000D03*
X42250000Y-71000000D03*
X47250000Y-71000000D03*
X47250000Y-69730000D03*
X47250000Y-68460000D03*
X47250000Y-67190000D03*
X47250000Y-65920000D03*
X47250000Y-64650000D03*
X47250000Y-63380000D03*
X47250000Y-62110000D03*
%TD*%
D14*
%TO.C,C3*%
X28635000Y-101550000D03*
X27085000Y-101550000D03*
%TD*%
D15*
%TO.C,J1*%
X26470000Y-97350000D03*
X26470000Y-89750000D03*
X29010000Y-97350000D03*
X29010000Y-89750000D03*
X31550000Y-97350000D03*
X31550000Y-89750000D03*
X34090000Y-97350000D03*
X34090000Y-89750000D03*
X36630000Y-97350000D03*
X36630000Y-89750000D03*
X39170000Y-97350000D03*
X39170000Y-89750000D03*
X41710000Y-97350000D03*
X41710000Y-89750000D03*
X44250000Y-97350000D03*
X44250000Y-89750000D03*
%TD*%
D14*
%TO.C,C2*%
X36135000Y-101550000D03*
X34585000Y-101550000D03*
%TD*%
D16*
%TO.C,U3*%
X39275000Y-124595000D03*
X39275000Y-125865000D03*
X39275000Y-127135000D03*
X39275000Y-128405000D03*
X44225000Y-128405000D03*
X44225000Y-127135000D03*
X44225000Y-125865000D03*
X44225000Y-124595000D03*
%TD*%
D17*
%TO.C,R11*%
X40250000Y-57575000D03*
X40250000Y-55925000D03*
%TD*%
D10*
%TO.C,R1*%
X29750000Y-53925000D03*
X29750000Y-55575000D03*
%TD*%
D16*
%TO.C,U1*%
X32775000Y-54670000D03*
X32775000Y-55940000D03*
X32775000Y-57210000D03*
X32775000Y-58480000D03*
X37725000Y-58480000D03*
X37725000Y-57210000D03*
X37725000Y-55940000D03*
X37725000Y-54670000D03*
%TD*%
D12*
%TO.C,R10*%
X31350000Y-65750000D03*
X33000000Y-65750000D03*
%TD*%
D17*
%TO.C,R5*%
X28000000Y-45075000D03*
X28000000Y-43425000D03*
%TD*%
D12*
%TO.C,R8*%
X46425000Y-126000000D03*
X48075000Y-126000000D03*
%TD*%
D11*
%TO.C,R6*%
X37075000Y-124500000D03*
X35425000Y-124500000D03*
%TD*%
D12*
%TO.C,R7*%
X38175000Y-66000000D03*
X39825000Y-66000000D03*
%TD*%
M02*
