%TF.GenerationSoftware,KiCad,Pcbnew,(7.0.0)*%
%TF.CreationDate,2023-03-26T07:08:49-07:00*%
%TF.ProjectId,electricdruid_vca,656c6563-7472-4696-9364-727569645f76,rev?*%
%TF.SameCoordinates,Original*%
%TF.FileFunction,Other,Comment*%
%FSLAX46Y46*%
G04 Gerber Fmt 4.6, Leading zero omitted, Abs format (unit mm)*
G04 Created by KiCad (PCBNEW (7.0.0)) date 2023-03-26 07:08:49*
%MOMM*%
%LPD*%
G01*
G04 APERTURE LIST*
%ADD10C,0.051000*%
G04 APERTURE END LIST*
D10*
%TO.C,JOUT1*%
X27261904Y-128846952D02*
X27261904Y-128446952D01*
X27490475Y-128846952D02*
X27319046Y-128618380D01*
X27490475Y-128446952D02*
X27261904Y-128675523D01*
X27661904Y-128637428D02*
X27795237Y-128637428D01*
X27852380Y-128846952D02*
X27661904Y-128846952D01*
X27661904Y-128846952D02*
X27661904Y-128446952D01*
X27661904Y-128446952D02*
X27852380Y-128446952D01*
X28023809Y-128637428D02*
X28157142Y-128637428D01*
X28214285Y-128846952D02*
X28023809Y-128846952D01*
X28023809Y-128846952D02*
X28023809Y-128446952D01*
X28023809Y-128446952D02*
X28214285Y-128446952D01*
X28385714Y-128846952D02*
X28385714Y-128446952D01*
X28385714Y-128446952D02*
X28538095Y-128446952D01*
X28538095Y-128446952D02*
X28576190Y-128466000D01*
X28576190Y-128466000D02*
X28595237Y-128485047D01*
X28595237Y-128485047D02*
X28614285Y-128523142D01*
X28614285Y-128523142D02*
X28614285Y-128580285D01*
X28614285Y-128580285D02*
X28595237Y-128618380D01*
X28595237Y-128618380D02*
X28576190Y-128637428D01*
X28576190Y-128637428D02*
X28538095Y-128656476D01*
X28538095Y-128656476D02*
X28385714Y-128656476D01*
X28861904Y-128446952D02*
X28938095Y-128446952D01*
X28938095Y-128446952D02*
X28976190Y-128466000D01*
X28976190Y-128466000D02*
X29014285Y-128504095D01*
X29014285Y-128504095D02*
X29033333Y-128580285D01*
X29033333Y-128580285D02*
X29033333Y-128713619D01*
X29033333Y-128713619D02*
X29014285Y-128789809D01*
X29014285Y-128789809D02*
X28976190Y-128827904D01*
X28976190Y-128827904D02*
X28938095Y-128846952D01*
X28938095Y-128846952D02*
X28861904Y-128846952D01*
X28861904Y-128846952D02*
X28823809Y-128827904D01*
X28823809Y-128827904D02*
X28785714Y-128789809D01*
X28785714Y-128789809D02*
X28766666Y-128713619D01*
X28766666Y-128713619D02*
X28766666Y-128580285D01*
X28766666Y-128580285D02*
X28785714Y-128504095D01*
X28785714Y-128504095D02*
X28823809Y-128466000D01*
X28823809Y-128466000D02*
X28861904Y-128446952D01*
X29204762Y-128446952D02*
X29204762Y-128770761D01*
X29204762Y-128770761D02*
X29223809Y-128808857D01*
X29223809Y-128808857D02*
X29242857Y-128827904D01*
X29242857Y-128827904D02*
X29280952Y-128846952D01*
X29280952Y-128846952D02*
X29357143Y-128846952D01*
X29357143Y-128846952D02*
X29395238Y-128827904D01*
X29395238Y-128827904D02*
X29414285Y-128808857D01*
X29414285Y-128808857D02*
X29433333Y-128770761D01*
X29433333Y-128770761D02*
X29433333Y-128446952D01*
X29566667Y-128446952D02*
X29795238Y-128446952D01*
X29680952Y-128846952D02*
X29680952Y-128446952D01*
%TO.C,JSIG1*%
X41261904Y-113226952D02*
X41261904Y-112826952D01*
X41490475Y-113226952D02*
X41319046Y-112998380D01*
X41490475Y-112826952D02*
X41261904Y-113055523D01*
X41661904Y-113017428D02*
X41795237Y-113017428D01*
X41852380Y-113226952D02*
X41661904Y-113226952D01*
X41661904Y-113226952D02*
X41661904Y-112826952D01*
X41661904Y-112826952D02*
X41852380Y-112826952D01*
X42023809Y-113017428D02*
X42157142Y-113017428D01*
X42214285Y-113226952D02*
X42023809Y-113226952D01*
X42023809Y-113226952D02*
X42023809Y-112826952D01*
X42023809Y-112826952D02*
X42214285Y-112826952D01*
X42385714Y-113226952D02*
X42385714Y-112826952D01*
X42385714Y-112826952D02*
X42538095Y-112826952D01*
X42538095Y-112826952D02*
X42576190Y-112846000D01*
X42576190Y-112846000D02*
X42595237Y-112865047D01*
X42595237Y-112865047D02*
X42614285Y-112903142D01*
X42614285Y-112903142D02*
X42614285Y-112960285D01*
X42614285Y-112960285D02*
X42595237Y-112998380D01*
X42595237Y-112998380D02*
X42576190Y-113017428D01*
X42576190Y-113017428D02*
X42538095Y-113036476D01*
X42538095Y-113036476D02*
X42385714Y-113036476D01*
X42861904Y-112826952D02*
X42938095Y-112826952D01*
X42938095Y-112826952D02*
X42976190Y-112846000D01*
X42976190Y-112846000D02*
X43014285Y-112884095D01*
X43014285Y-112884095D02*
X43033333Y-112960285D01*
X43033333Y-112960285D02*
X43033333Y-113093619D01*
X43033333Y-113093619D02*
X43014285Y-113169809D01*
X43014285Y-113169809D02*
X42976190Y-113207904D01*
X42976190Y-113207904D02*
X42938095Y-113226952D01*
X42938095Y-113226952D02*
X42861904Y-113226952D01*
X42861904Y-113226952D02*
X42823809Y-113207904D01*
X42823809Y-113207904D02*
X42785714Y-113169809D01*
X42785714Y-113169809D02*
X42766666Y-113093619D01*
X42766666Y-113093619D02*
X42766666Y-112960285D01*
X42766666Y-112960285D02*
X42785714Y-112884095D01*
X42785714Y-112884095D02*
X42823809Y-112846000D01*
X42823809Y-112846000D02*
X42861904Y-112826952D01*
X43204762Y-112826952D02*
X43204762Y-113150761D01*
X43204762Y-113150761D02*
X43223809Y-113188857D01*
X43223809Y-113188857D02*
X43242857Y-113207904D01*
X43242857Y-113207904D02*
X43280952Y-113226952D01*
X43280952Y-113226952D02*
X43357143Y-113226952D01*
X43357143Y-113226952D02*
X43395238Y-113207904D01*
X43395238Y-113207904D02*
X43414285Y-113188857D01*
X43414285Y-113188857D02*
X43433333Y-113150761D01*
X43433333Y-113150761D02*
X43433333Y-112826952D01*
X43566667Y-112826952D02*
X43795238Y-112826952D01*
X43680952Y-113226952D02*
X43680952Y-112826952D01*
%TO.C,JENV1*%
X27261904Y-113226952D02*
X27261904Y-112826952D01*
X27490475Y-113226952D02*
X27319046Y-112998380D01*
X27490475Y-112826952D02*
X27261904Y-113055523D01*
X27661904Y-113017428D02*
X27795237Y-113017428D01*
X27852380Y-113226952D02*
X27661904Y-113226952D01*
X27661904Y-113226952D02*
X27661904Y-112826952D01*
X27661904Y-112826952D02*
X27852380Y-112826952D01*
X28023809Y-113017428D02*
X28157142Y-113017428D01*
X28214285Y-113226952D02*
X28023809Y-113226952D01*
X28023809Y-113226952D02*
X28023809Y-112826952D01*
X28023809Y-112826952D02*
X28214285Y-112826952D01*
X28385714Y-113226952D02*
X28385714Y-112826952D01*
X28385714Y-112826952D02*
X28538095Y-112826952D01*
X28538095Y-112826952D02*
X28576190Y-112846000D01*
X28576190Y-112846000D02*
X28595237Y-112865047D01*
X28595237Y-112865047D02*
X28614285Y-112903142D01*
X28614285Y-112903142D02*
X28614285Y-112960285D01*
X28614285Y-112960285D02*
X28595237Y-112998380D01*
X28595237Y-112998380D02*
X28576190Y-113017428D01*
X28576190Y-113017428D02*
X28538095Y-113036476D01*
X28538095Y-113036476D02*
X28385714Y-113036476D01*
X28861904Y-112826952D02*
X28938095Y-112826952D01*
X28938095Y-112826952D02*
X28976190Y-112846000D01*
X28976190Y-112846000D02*
X29014285Y-112884095D01*
X29014285Y-112884095D02*
X29033333Y-112960285D01*
X29033333Y-112960285D02*
X29033333Y-113093619D01*
X29033333Y-113093619D02*
X29014285Y-113169809D01*
X29014285Y-113169809D02*
X28976190Y-113207904D01*
X28976190Y-113207904D02*
X28938095Y-113226952D01*
X28938095Y-113226952D02*
X28861904Y-113226952D01*
X28861904Y-113226952D02*
X28823809Y-113207904D01*
X28823809Y-113207904D02*
X28785714Y-113169809D01*
X28785714Y-113169809D02*
X28766666Y-113093619D01*
X28766666Y-113093619D02*
X28766666Y-112960285D01*
X28766666Y-112960285D02*
X28785714Y-112884095D01*
X28785714Y-112884095D02*
X28823809Y-112846000D01*
X28823809Y-112846000D02*
X28861904Y-112826952D01*
X29204762Y-112826952D02*
X29204762Y-113150761D01*
X29204762Y-113150761D02*
X29223809Y-113188857D01*
X29223809Y-113188857D02*
X29242857Y-113207904D01*
X29242857Y-113207904D02*
X29280952Y-113226952D01*
X29280952Y-113226952D02*
X29357143Y-113226952D01*
X29357143Y-113226952D02*
X29395238Y-113207904D01*
X29395238Y-113207904D02*
X29414285Y-113188857D01*
X29414285Y-113188857D02*
X29433333Y-113150761D01*
X29433333Y-113150761D02*
X29433333Y-112826952D01*
X29566667Y-112826952D02*
X29795238Y-112826952D01*
X29680952Y-113226952D02*
X29680952Y-112826952D01*
%TD*%
M02*
