%TF.GenerationSoftware,KiCad,Pcbnew,(7.0.0)*%
%TF.CreationDate,2023-03-26T07:08:48-07:00*%
%TF.ProjectId,electricdruid_vca,656c6563-7472-4696-9364-727569645f76,rev?*%
%TF.SameCoordinates,Original*%
%TF.FileFunction,Legend,Top*%
%TF.FilePolarity,Positive*%
%FSLAX46Y46*%
G04 Gerber Fmt 4.6, Leading zero omitted, Abs format (unit mm)*
G04 Created by KiCad (PCBNEW (7.0.0)) date 2023-03-26 07:08:48*
%MOMM*%
%LPD*%
G01*
G04 APERTURE LIST*
G04 Aperture macros list*
%AMRoundRect*
0 Rectangle with rounded corners*
0 $1 Rounding radius*
0 $2 $3 $4 $5 $6 $7 $8 $9 X,Y pos of 4 corners*
0 Add a 4 corners polygon primitive as box body*
4,1,4,$2,$3,$4,$5,$6,$7,$8,$9,$2,$3,0*
0 Add four circle primitives for the rounded corners*
1,1,$1+$1,$2,$3*
1,1,$1+$1,$4,$5*
1,1,$1+$1,$6,$7*
1,1,$1+$1,$8,$9*
0 Add four rect primitives between the rounded corners*
20,1,$1+$1,$2,$3,$4,$5,0*
20,1,$1+$1,$4,$5,$6,$7,0*
20,1,$1+$1,$6,$7,$8,$9,0*
20,1,$1+$1,$8,$9,$2,$3,0*%
%AMFreePoly0*
4,1,6,1.000000,0.000000,0.500000,-0.750000,-0.500000,-0.750000,-0.500000,0.750000,0.500000,0.750000,1.000000,0.000000,1.000000,0.000000,$1*%
%AMFreePoly1*
4,1,6,0.500000,-0.750000,-0.650000,-0.750000,-0.150000,0.000000,-0.650000,0.750000,0.500000,0.750000,0.500000,-0.750000,0.500000,-0.750000,$1*%
G04 Aperture macros list end*
%ADD10C,0.150000*%
%ADD11C,0.125000*%
%ADD12C,0.120000*%
%ADD13RoundRect,0.200000X-0.275000X0.200000X-0.275000X-0.200000X0.275000X-0.200000X0.275000X0.200000X0*%
%ADD14RoundRect,0.200000X0.200000X0.275000X-0.200000X0.275000X-0.200000X-0.275000X0.200000X-0.275000X0*%
%ADD15FreePoly0,0.000000*%
%ADD16FreePoly1,0.000000*%
%ADD17RoundRect,0.200000X-0.200000X-0.275000X0.200000X-0.275000X0.200000X0.275000X-0.200000X0.275000X0*%
%ADD18RoundRect,0.150000X-0.850000X-0.150000X0.850000X-0.150000X0.850000X0.150000X-0.850000X0.150000X0*%
%ADD19RoundRect,0.225000X0.225000X0.250000X-0.225000X0.250000X-0.225000X-0.250000X0.225000X-0.250000X0*%
%ADD20RoundRect,0.255000X0.255000X-2.245000X0.255000X2.245000X-0.255000X2.245000X-0.255000X-2.245000X0*%
%ADD21RoundRect,0.150000X-0.825000X-0.150000X0.825000X-0.150000X0.825000X0.150000X-0.825000X0.150000X0*%
%ADD22RoundRect,0.200000X0.275000X-0.200000X0.275000X0.200000X-0.275000X0.200000X-0.275000X-0.200000X0*%
%ADD23R,1.700000X1.700000*%
%ADD24O,1.700000X1.700000*%
%ADD25R,1.930000X1.830000*%
%ADD26C,2.130000*%
%ADD27O,2.720000X3.240000*%
%ADD28R,1.800000X1.800000*%
%ADD29C,1.800000*%
G04 APERTURE END LIST*
D10*
X45600000Y-34300000D02*
X45600000Y-37300000D01*
X40500000Y-133250000D02*
X39625000Y-133250000D01*
X41800000Y-33400000D02*
X41800000Y-34200000D01*
X48750000Y-31750000D02*
X47750000Y-31500000D01*
X48250000Y-36250000D02*
X47750000Y-35500000D01*
X48750000Y-30750000D02*
X48250000Y-30500000D01*
X48250000Y-35000000D02*
X47750000Y-34750000D01*
X48250000Y-32250000D02*
X47750000Y-32000000D01*
X44000000Y-33400000D02*
X44000000Y-34300000D01*
X49825000Y-133125000D02*
X47025000Y-133125000D01*
X39625000Y-133250000D02*
X38000000Y-133250000D01*
X45750000Y-32750000D02*
X45600000Y-34300000D01*
X43000000Y-131000000D02*
X43000000Y-135250000D01*
X48750000Y-33500000D02*
X48250000Y-33250000D01*
X37500000Y-31750000D02*
X35750000Y-31750000D01*
X44000000Y-34300000D02*
X45600000Y-34300000D01*
X48250000Y-32750000D02*
X45750000Y-32750000D01*
X47750000Y-34750000D02*
X48750000Y-34500000D01*
X40400000Y-34200000D02*
X40400000Y-37200000D01*
X48750000Y-31250000D02*
X47750000Y-31000000D01*
X43950000Y-130500000D02*
X46950000Y-130500000D01*
X41650000Y-32900000D02*
X41950000Y-32900000D01*
X43950000Y-132100000D02*
X43950000Y-130500000D01*
X43050000Y-134300000D02*
X43850000Y-134300000D01*
X47750000Y-32000000D02*
X48750000Y-31750000D01*
X42550000Y-134450000D02*
X42550000Y-134150000D01*
X43000000Y-135250000D02*
X40500000Y-133250000D01*
X43850000Y-134300000D02*
X43850000Y-135700000D01*
X47750000Y-31000000D02*
X48750000Y-30750000D01*
X43850000Y-135700000D02*
X46850000Y-135700000D01*
X37500000Y-40250000D02*
X42975000Y-40175000D01*
X47750000Y-31500000D02*
X48750000Y-31250000D01*
X48250000Y-35500000D02*
X48250000Y-35000000D01*
X44000000Y-32700000D02*
X44000000Y-33100000D01*
X41800000Y-34200000D02*
X40400000Y-34200000D01*
X38750000Y-34250000D02*
X38750000Y-33250000D01*
X42975000Y-40175000D02*
X42975000Y-37375000D01*
X48250000Y-30500000D02*
X48250000Y-30000000D01*
X45100000Y-33350000D02*
X40850000Y-33350000D01*
X37500000Y-30000000D02*
X37500000Y-40250000D01*
X48250000Y-30000000D02*
X42850000Y-29975000D01*
X42550000Y-132300000D02*
X42550000Y-131900000D01*
X39625000Y-133250000D02*
X39650000Y-138600000D01*
X48750000Y-34500000D02*
X47750000Y-34250000D01*
X42850000Y-30850000D02*
X45100000Y-33350000D01*
X43850000Y-135700000D02*
X43900000Y-137350000D01*
X47750000Y-33750000D02*
X48750000Y-33500000D01*
X49900000Y-138600000D02*
X49825000Y-133125000D01*
X48250000Y-32750000D02*
X48250000Y-32250000D01*
X40500000Y-133250000D02*
X43000000Y-131000000D01*
X48750000Y-34000000D02*
X47750000Y-33750000D01*
X48250000Y-33250000D02*
X48250000Y-32750000D01*
X43900000Y-137350000D02*
X42900000Y-137350000D01*
X47750000Y-35500000D02*
X48750000Y-35500000D01*
X47750000Y-34250000D02*
X48750000Y-34000000D01*
X42850000Y-30850000D02*
X42850000Y-29975000D01*
X40400000Y-34200000D02*
X38750000Y-34250000D01*
X42350000Y-134300000D02*
X42750000Y-134300000D01*
X39650000Y-138600000D02*
X49900000Y-138600000D01*
X43800000Y-32900000D02*
X44200000Y-32900000D01*
X43050000Y-132100000D02*
X43950000Y-132100000D01*
X40850000Y-33350000D02*
X42850000Y-30850000D01*
X42850000Y-29975000D02*
X37500000Y-30000000D01*
X48750000Y-35500000D02*
X48250000Y-36250000D01*
D11*
X38083333Y-32867380D02*
X38035714Y-32891190D01*
X38035714Y-32891190D02*
X37940476Y-32891190D01*
X37940476Y-32891190D02*
X37892857Y-32867380D01*
X37892857Y-32867380D02*
X37869047Y-32843571D01*
X37869047Y-32843571D02*
X37845238Y-32795952D01*
X37845238Y-32795952D02*
X37845238Y-32653095D01*
X37845238Y-32653095D02*
X37869047Y-32605476D01*
X37869047Y-32605476D02*
X37892857Y-32581666D01*
X37892857Y-32581666D02*
X37940476Y-32557857D01*
X37940476Y-32557857D02*
X38035714Y-32557857D01*
X38035714Y-32557857D02*
X38083333Y-32581666D01*
X38249999Y-32557857D02*
X38369047Y-32891190D01*
X38369047Y-32891190D02*
X38488094Y-32557857D01*
X38954761Y-32867380D02*
X39002380Y-32891190D01*
X39002380Y-32891190D02*
X39097618Y-32891190D01*
X39097618Y-32891190D02*
X39145237Y-32867380D01*
X39145237Y-32867380D02*
X39169046Y-32819761D01*
X39169046Y-32819761D02*
X39169046Y-32795952D01*
X39169046Y-32795952D02*
X39145237Y-32748333D01*
X39145237Y-32748333D02*
X39097618Y-32724523D01*
X39097618Y-32724523D02*
X39026189Y-32724523D01*
X39026189Y-32724523D02*
X38978570Y-32700714D01*
X38978570Y-32700714D02*
X38954761Y-32653095D01*
X38954761Y-32653095D02*
X38954761Y-32629285D01*
X38954761Y-32629285D02*
X38978570Y-32581666D01*
X38978570Y-32581666D02*
X39026189Y-32557857D01*
X39026189Y-32557857D02*
X39097618Y-32557857D01*
X39097618Y-32557857D02*
X39145237Y-32581666D01*
X39383332Y-32891190D02*
X39383332Y-32557857D01*
X39383332Y-32391190D02*
X39359523Y-32415000D01*
X39359523Y-32415000D02*
X39383332Y-32438809D01*
X39383332Y-32438809D02*
X39407142Y-32415000D01*
X39407142Y-32415000D02*
X39383332Y-32391190D01*
X39383332Y-32391190D02*
X39383332Y-32438809D01*
X39835713Y-32557857D02*
X39835713Y-32962619D01*
X39835713Y-32962619D02*
X39811903Y-33010238D01*
X39811903Y-33010238D02*
X39788094Y-33034047D01*
X39788094Y-33034047D02*
X39740475Y-33057857D01*
X39740475Y-33057857D02*
X39669046Y-33057857D01*
X39669046Y-33057857D02*
X39621427Y-33034047D01*
X39835713Y-32867380D02*
X39788094Y-32891190D01*
X39788094Y-32891190D02*
X39692856Y-32891190D01*
X39692856Y-32891190D02*
X39645237Y-32867380D01*
X39645237Y-32867380D02*
X39621427Y-32843571D01*
X39621427Y-32843571D02*
X39597618Y-32795952D01*
X39597618Y-32795952D02*
X39597618Y-32653095D01*
X39597618Y-32653095D02*
X39621427Y-32605476D01*
X39621427Y-32605476D02*
X39645237Y-32581666D01*
X39645237Y-32581666D02*
X39692856Y-32557857D01*
X39692856Y-32557857D02*
X39788094Y-32557857D01*
X39788094Y-32557857D02*
X39835713Y-32581666D01*
X35869047Y-129807857D02*
X35869047Y-130307857D01*
X35869047Y-129831666D02*
X35916666Y-129807857D01*
X35916666Y-129807857D02*
X36011904Y-129807857D01*
X36011904Y-129807857D02*
X36059523Y-129831666D01*
X36059523Y-129831666D02*
X36083333Y-129855476D01*
X36083333Y-129855476D02*
X36107142Y-129903095D01*
X36107142Y-129903095D02*
X36107142Y-130045952D01*
X36107142Y-130045952D02*
X36083333Y-130093571D01*
X36083333Y-130093571D02*
X36059523Y-130117380D01*
X36059523Y-130117380D02*
X36011904Y-130141190D01*
X36011904Y-130141190D02*
X35916666Y-130141190D01*
X35916666Y-130141190D02*
X35869047Y-130117380D01*
X36321428Y-130141190D02*
X36321428Y-129807857D01*
X36321428Y-129903095D02*
X36345238Y-129855476D01*
X36345238Y-129855476D02*
X36369047Y-129831666D01*
X36369047Y-129831666D02*
X36416666Y-129807857D01*
X36416666Y-129807857D02*
X36464285Y-129807857D01*
X36702381Y-130141190D02*
X36654762Y-130117380D01*
X36654762Y-130117380D02*
X36630952Y-130093571D01*
X36630952Y-130093571D02*
X36607143Y-130045952D01*
X36607143Y-130045952D02*
X36607143Y-129903095D01*
X36607143Y-129903095D02*
X36630952Y-129855476D01*
X36630952Y-129855476D02*
X36654762Y-129831666D01*
X36654762Y-129831666D02*
X36702381Y-129807857D01*
X36702381Y-129807857D02*
X36773809Y-129807857D01*
X36773809Y-129807857D02*
X36821428Y-129831666D01*
X36821428Y-129831666D02*
X36845238Y-129855476D01*
X36845238Y-129855476D02*
X36869047Y-129903095D01*
X36869047Y-129903095D02*
X36869047Y-130045952D01*
X36869047Y-130045952D02*
X36845238Y-130093571D01*
X36845238Y-130093571D02*
X36821428Y-130117380D01*
X36821428Y-130117380D02*
X36773809Y-130141190D01*
X36773809Y-130141190D02*
X36702381Y-130141190D01*
X37083333Y-130141190D02*
X37083333Y-129641190D01*
X37083333Y-129831666D02*
X37130952Y-129807857D01*
X37130952Y-129807857D02*
X37226190Y-129807857D01*
X37226190Y-129807857D02*
X37273809Y-129831666D01*
X37273809Y-129831666D02*
X37297619Y-129855476D01*
X37297619Y-129855476D02*
X37321428Y-129903095D01*
X37321428Y-129903095D02*
X37321428Y-130045952D01*
X37321428Y-130045952D02*
X37297619Y-130093571D01*
X37297619Y-130093571D02*
X37273809Y-130117380D01*
X37273809Y-130117380D02*
X37226190Y-130141190D01*
X37226190Y-130141190D02*
X37130952Y-130141190D01*
X37130952Y-130141190D02*
X37083333Y-130117380D01*
X37750000Y-130141190D02*
X37750000Y-129879285D01*
X37750000Y-129879285D02*
X37726190Y-129831666D01*
X37726190Y-129831666D02*
X37678571Y-129807857D01*
X37678571Y-129807857D02*
X37583333Y-129807857D01*
X37583333Y-129807857D02*
X37535714Y-129831666D01*
X37750000Y-130117380D02*
X37702381Y-130141190D01*
X37702381Y-130141190D02*
X37583333Y-130141190D01*
X37583333Y-130141190D02*
X37535714Y-130117380D01*
X37535714Y-130117380D02*
X37511905Y-130069761D01*
X37511905Y-130069761D02*
X37511905Y-130022142D01*
X37511905Y-130022142D02*
X37535714Y-129974523D01*
X37535714Y-129974523D02*
X37583333Y-129950714D01*
X37583333Y-129950714D02*
X37702381Y-129950714D01*
X37702381Y-129950714D02*
X37750000Y-129926904D01*
X37988095Y-130141190D02*
X37988095Y-129641190D01*
X37988095Y-129831666D02*
X38035714Y-129807857D01*
X38035714Y-129807857D02*
X38130952Y-129807857D01*
X38130952Y-129807857D02*
X38178571Y-129831666D01*
X38178571Y-129831666D02*
X38202381Y-129855476D01*
X38202381Y-129855476D02*
X38226190Y-129903095D01*
X38226190Y-129903095D02*
X38226190Y-130045952D01*
X38226190Y-130045952D02*
X38202381Y-130093571D01*
X38202381Y-130093571D02*
X38178571Y-130117380D01*
X38178571Y-130117380D02*
X38130952Y-130141190D01*
X38130952Y-130141190D02*
X38035714Y-130141190D01*
X38035714Y-130141190D02*
X37988095Y-130117380D01*
X38511905Y-130141190D02*
X38464286Y-130117380D01*
X38464286Y-130117380D02*
X38440476Y-130069761D01*
X38440476Y-130069761D02*
X38440476Y-129641190D01*
X38654762Y-129807857D02*
X38773810Y-130141190D01*
X38892857Y-129807857D02*
X38773810Y-130141190D01*
X38773810Y-130141190D02*
X38726191Y-130260238D01*
X38726191Y-130260238D02*
X38702381Y-130284047D01*
X38702381Y-130284047D02*
X38654762Y-130307857D01*
X39383333Y-130141190D02*
X39383333Y-129641190D01*
X39383333Y-129831666D02*
X39430952Y-129807857D01*
X39430952Y-129807857D02*
X39526190Y-129807857D01*
X39526190Y-129807857D02*
X39573809Y-129831666D01*
X39573809Y-129831666D02*
X39597619Y-129855476D01*
X39597619Y-129855476D02*
X39621428Y-129903095D01*
X39621428Y-129903095D02*
X39621428Y-130045952D01*
X39621428Y-130045952D02*
X39597619Y-130093571D01*
X39597619Y-130093571D02*
X39573809Y-130117380D01*
X39573809Y-130117380D02*
X39526190Y-130141190D01*
X39526190Y-130141190D02*
X39430952Y-130141190D01*
X39430952Y-130141190D02*
X39383333Y-130117380D01*
X39835714Y-130141190D02*
X39835714Y-129807857D01*
X39835714Y-129903095D02*
X39859524Y-129855476D01*
X39859524Y-129855476D02*
X39883333Y-129831666D01*
X39883333Y-129831666D02*
X39930952Y-129807857D01*
X39930952Y-129807857D02*
X39978571Y-129807857D01*
X40145238Y-130141190D02*
X40145238Y-129807857D01*
X40145238Y-129641190D02*
X40121429Y-129665000D01*
X40121429Y-129665000D02*
X40145238Y-129688809D01*
X40145238Y-129688809D02*
X40169048Y-129665000D01*
X40169048Y-129665000D02*
X40145238Y-129641190D01*
X40145238Y-129641190D02*
X40145238Y-129688809D01*
X40597619Y-130141190D02*
X40597619Y-129641190D01*
X40597619Y-130117380D02*
X40550000Y-130141190D01*
X40550000Y-130141190D02*
X40454762Y-130141190D01*
X40454762Y-130141190D02*
X40407143Y-130117380D01*
X40407143Y-130117380D02*
X40383333Y-130093571D01*
X40383333Y-130093571D02*
X40359524Y-130045952D01*
X40359524Y-130045952D02*
X40359524Y-129903095D01*
X40359524Y-129903095D02*
X40383333Y-129855476D01*
X40383333Y-129855476D02*
X40407143Y-129831666D01*
X40407143Y-129831666D02*
X40454762Y-129807857D01*
X40454762Y-129807857D02*
X40550000Y-129807857D01*
X40550000Y-129807857D02*
X40597619Y-129831666D01*
X41050000Y-129807857D02*
X41050000Y-130212619D01*
X41050000Y-130212619D02*
X41026190Y-130260238D01*
X41026190Y-130260238D02*
X41002381Y-130284047D01*
X41002381Y-130284047D02*
X40954762Y-130307857D01*
X40954762Y-130307857D02*
X40883333Y-130307857D01*
X40883333Y-130307857D02*
X40835714Y-130284047D01*
X41050000Y-130117380D02*
X41002381Y-130141190D01*
X41002381Y-130141190D02*
X40907143Y-130141190D01*
X40907143Y-130141190D02*
X40859524Y-130117380D01*
X40859524Y-130117380D02*
X40835714Y-130093571D01*
X40835714Y-130093571D02*
X40811905Y-130045952D01*
X40811905Y-130045952D02*
X40811905Y-129903095D01*
X40811905Y-129903095D02*
X40835714Y-129855476D01*
X40835714Y-129855476D02*
X40859524Y-129831666D01*
X40859524Y-129831666D02*
X40907143Y-129807857D01*
X40907143Y-129807857D02*
X41002381Y-129807857D01*
X41002381Y-129807857D02*
X41050000Y-129831666D01*
X41478571Y-130117380D02*
X41430952Y-130141190D01*
X41430952Y-130141190D02*
X41335714Y-130141190D01*
X41335714Y-130141190D02*
X41288095Y-130117380D01*
X41288095Y-130117380D02*
X41264286Y-130069761D01*
X41264286Y-130069761D02*
X41264286Y-129879285D01*
X41264286Y-129879285D02*
X41288095Y-129831666D01*
X41288095Y-129831666D02*
X41335714Y-129807857D01*
X41335714Y-129807857D02*
X41430952Y-129807857D01*
X41430952Y-129807857D02*
X41478571Y-129831666D01*
X41478571Y-129831666D02*
X41502381Y-129879285D01*
X41502381Y-129879285D02*
X41502381Y-129926904D01*
X41502381Y-129926904D02*
X41264286Y-129974523D01*
X42016666Y-129950714D02*
X42397619Y-129950714D01*
X43150000Y-130141190D02*
X43150000Y-129879285D01*
X43150000Y-129879285D02*
X43126190Y-129831666D01*
X43126190Y-129831666D02*
X43078571Y-129807857D01*
X43078571Y-129807857D02*
X42983333Y-129807857D01*
X42983333Y-129807857D02*
X42935714Y-129831666D01*
X43150000Y-130117380D02*
X43102381Y-130141190D01*
X43102381Y-130141190D02*
X42983333Y-130141190D01*
X42983333Y-130141190D02*
X42935714Y-130117380D01*
X42935714Y-130117380D02*
X42911905Y-130069761D01*
X42911905Y-130069761D02*
X42911905Y-130022142D01*
X42911905Y-130022142D02*
X42935714Y-129974523D01*
X42935714Y-129974523D02*
X42983333Y-129950714D01*
X42983333Y-129950714D02*
X43102381Y-129950714D01*
X43102381Y-129950714D02*
X43150000Y-129926904D01*
X43388095Y-129807857D02*
X43388095Y-130141190D01*
X43388095Y-129855476D02*
X43411905Y-129831666D01*
X43411905Y-129831666D02*
X43459524Y-129807857D01*
X43459524Y-129807857D02*
X43530952Y-129807857D01*
X43530952Y-129807857D02*
X43578571Y-129831666D01*
X43578571Y-129831666D02*
X43602381Y-129879285D01*
X43602381Y-129879285D02*
X43602381Y-130141190D01*
X44054762Y-130141190D02*
X44054762Y-129641190D01*
X44054762Y-130117380D02*
X44007143Y-130141190D01*
X44007143Y-130141190D02*
X43911905Y-130141190D01*
X43911905Y-130141190D02*
X43864286Y-130117380D01*
X43864286Y-130117380D02*
X43840476Y-130093571D01*
X43840476Y-130093571D02*
X43816667Y-130045952D01*
X43816667Y-130045952D02*
X43816667Y-129903095D01*
X43816667Y-129903095D02*
X43840476Y-129855476D01*
X43840476Y-129855476D02*
X43864286Y-129831666D01*
X43864286Y-129831666D02*
X43911905Y-129807857D01*
X43911905Y-129807857D02*
X44007143Y-129807857D01*
X44007143Y-129807857D02*
X44054762Y-129831666D01*
X44664286Y-130141190D02*
X44616667Y-130117380D01*
X44616667Y-130117380D02*
X44592857Y-130093571D01*
X44592857Y-130093571D02*
X44569048Y-130045952D01*
X44569048Y-130045952D02*
X44569048Y-129903095D01*
X44569048Y-129903095D02*
X44592857Y-129855476D01*
X44592857Y-129855476D02*
X44616667Y-129831666D01*
X44616667Y-129831666D02*
X44664286Y-129807857D01*
X44664286Y-129807857D02*
X44735714Y-129807857D01*
X44735714Y-129807857D02*
X44783333Y-129831666D01*
X44783333Y-129831666D02*
X44807143Y-129855476D01*
X44807143Y-129855476D02*
X44830952Y-129903095D01*
X44830952Y-129903095D02*
X44830952Y-130045952D01*
X44830952Y-130045952D02*
X44807143Y-130093571D01*
X44807143Y-130093571D02*
X44783333Y-130117380D01*
X44783333Y-130117380D02*
X44735714Y-130141190D01*
X44735714Y-130141190D02*
X44664286Y-130141190D01*
X45259524Y-129807857D02*
X45259524Y-130141190D01*
X45045238Y-129807857D02*
X45045238Y-130069761D01*
X45045238Y-130069761D02*
X45069048Y-130117380D01*
X45069048Y-130117380D02*
X45116667Y-130141190D01*
X45116667Y-130141190D02*
X45188095Y-130141190D01*
X45188095Y-130141190D02*
X45235714Y-130117380D01*
X45235714Y-130117380D02*
X45259524Y-130093571D01*
X45426191Y-129807857D02*
X45616667Y-129807857D01*
X45497619Y-129641190D02*
X45497619Y-130069761D01*
X45497619Y-130069761D02*
X45521429Y-130117380D01*
X45521429Y-130117380D02*
X45569048Y-130141190D01*
X45569048Y-130141190D02*
X45616667Y-130141190D01*
X47391190Y-34619047D02*
X47391190Y-34904761D01*
X47391190Y-34761904D02*
X46891190Y-34761904D01*
X46891190Y-34761904D02*
X46962619Y-34809523D01*
X46962619Y-34809523D02*
X47010238Y-34857142D01*
X47010238Y-34857142D02*
X47034047Y-34904761D01*
X46891190Y-34309524D02*
X46891190Y-34261905D01*
X46891190Y-34261905D02*
X46915000Y-34214286D01*
X46915000Y-34214286D02*
X46938809Y-34190476D01*
X46938809Y-34190476D02*
X46986428Y-34166667D01*
X46986428Y-34166667D02*
X47081666Y-34142857D01*
X47081666Y-34142857D02*
X47200714Y-34142857D01*
X47200714Y-34142857D02*
X47295952Y-34166667D01*
X47295952Y-34166667D02*
X47343571Y-34190476D01*
X47343571Y-34190476D02*
X47367380Y-34214286D01*
X47367380Y-34214286D02*
X47391190Y-34261905D01*
X47391190Y-34261905D02*
X47391190Y-34309524D01*
X47391190Y-34309524D02*
X47367380Y-34357143D01*
X47367380Y-34357143D02*
X47343571Y-34380952D01*
X47343571Y-34380952D02*
X47295952Y-34404762D01*
X47295952Y-34404762D02*
X47200714Y-34428571D01*
X47200714Y-34428571D02*
X47081666Y-34428571D01*
X47081666Y-34428571D02*
X46986428Y-34404762D01*
X46986428Y-34404762D02*
X46938809Y-34380952D01*
X46938809Y-34380952D02*
X46915000Y-34357143D01*
X46915000Y-34357143D02*
X46891190Y-34309524D01*
X46891190Y-33833334D02*
X46891190Y-33785715D01*
X46891190Y-33785715D02*
X46915000Y-33738096D01*
X46915000Y-33738096D02*
X46938809Y-33714286D01*
X46938809Y-33714286D02*
X46986428Y-33690477D01*
X46986428Y-33690477D02*
X47081666Y-33666667D01*
X47081666Y-33666667D02*
X47200714Y-33666667D01*
X47200714Y-33666667D02*
X47295952Y-33690477D01*
X47295952Y-33690477D02*
X47343571Y-33714286D01*
X47343571Y-33714286D02*
X47367380Y-33738096D01*
X47367380Y-33738096D02*
X47391190Y-33785715D01*
X47391190Y-33785715D02*
X47391190Y-33833334D01*
X47391190Y-33833334D02*
X47367380Y-33880953D01*
X47367380Y-33880953D02*
X47343571Y-33904762D01*
X47343571Y-33904762D02*
X47295952Y-33928572D01*
X47295952Y-33928572D02*
X47200714Y-33952381D01*
X47200714Y-33952381D02*
X47081666Y-33952381D01*
X47081666Y-33952381D02*
X46986428Y-33928572D01*
X46986428Y-33928572D02*
X46938809Y-33904762D01*
X46938809Y-33904762D02*
X46915000Y-33880953D01*
X46915000Y-33880953D02*
X46891190Y-33833334D01*
X47391190Y-33452382D02*
X46891190Y-33452382D01*
X47200714Y-33404763D02*
X47391190Y-33261906D01*
X47057857Y-33261906D02*
X47248333Y-33452382D01*
X34940476Y-133391190D02*
X34892857Y-133367380D01*
X34892857Y-133367380D02*
X34869047Y-133343571D01*
X34869047Y-133343571D02*
X34845238Y-133295952D01*
X34845238Y-133295952D02*
X34845238Y-133153095D01*
X34845238Y-133153095D02*
X34869047Y-133105476D01*
X34869047Y-133105476D02*
X34892857Y-133081666D01*
X34892857Y-133081666D02*
X34940476Y-133057857D01*
X34940476Y-133057857D02*
X35011904Y-133057857D01*
X35011904Y-133057857D02*
X35059523Y-133081666D01*
X35059523Y-133081666D02*
X35083333Y-133105476D01*
X35083333Y-133105476D02*
X35107142Y-133153095D01*
X35107142Y-133153095D02*
X35107142Y-133295952D01*
X35107142Y-133295952D02*
X35083333Y-133343571D01*
X35083333Y-133343571D02*
X35059523Y-133367380D01*
X35059523Y-133367380D02*
X35011904Y-133391190D01*
X35011904Y-133391190D02*
X34940476Y-133391190D01*
X35250000Y-133057857D02*
X35440476Y-133057857D01*
X35321428Y-132891190D02*
X35321428Y-133319761D01*
X35321428Y-133319761D02*
X35345238Y-133367380D01*
X35345238Y-133367380D02*
X35392857Y-133391190D01*
X35392857Y-133391190D02*
X35440476Y-133391190D01*
X35821428Y-133391190D02*
X35821428Y-133129285D01*
X35821428Y-133129285D02*
X35797618Y-133081666D01*
X35797618Y-133081666D02*
X35749999Y-133057857D01*
X35749999Y-133057857D02*
X35654761Y-133057857D01*
X35654761Y-133057857D02*
X35607142Y-133081666D01*
X35821428Y-133367380D02*
X35773809Y-133391190D01*
X35773809Y-133391190D02*
X35654761Y-133391190D01*
X35654761Y-133391190D02*
X35607142Y-133367380D01*
X35607142Y-133367380D02*
X35583333Y-133319761D01*
X35583333Y-133319761D02*
X35583333Y-133272142D01*
X35583333Y-133272142D02*
X35607142Y-133224523D01*
X35607142Y-133224523D02*
X35654761Y-133200714D01*
X35654761Y-133200714D02*
X35773809Y-133200714D01*
X35773809Y-133200714D02*
X35821428Y-133176904D01*
X36359523Y-133391190D02*
X36359523Y-133057857D01*
X36359523Y-132891190D02*
X36335714Y-132915000D01*
X36335714Y-132915000D02*
X36359523Y-132938809D01*
X36359523Y-132938809D02*
X36383333Y-132915000D01*
X36383333Y-132915000D02*
X36359523Y-132891190D01*
X36359523Y-132891190D02*
X36359523Y-132938809D01*
X36597618Y-133057857D02*
X36597618Y-133391190D01*
X36597618Y-133105476D02*
X36621428Y-133081666D01*
X36621428Y-133081666D02*
X36669047Y-133057857D01*
X36669047Y-133057857D02*
X36740475Y-133057857D01*
X36740475Y-133057857D02*
X36788094Y-133081666D01*
X36788094Y-133081666D02*
X36811904Y-133129285D01*
X36811904Y-133129285D02*
X36811904Y-133391190D01*
X37049999Y-133200714D02*
X37430952Y-133200714D01*
X42517380Y-137754761D02*
X42541190Y-137707142D01*
X42541190Y-137707142D02*
X42541190Y-137611904D01*
X42541190Y-137611904D02*
X42517380Y-137564285D01*
X42517380Y-137564285D02*
X42469761Y-137540476D01*
X42469761Y-137540476D02*
X42445952Y-137540476D01*
X42445952Y-137540476D02*
X42398333Y-137564285D01*
X42398333Y-137564285D02*
X42374523Y-137611904D01*
X42374523Y-137611904D02*
X42374523Y-137683333D01*
X42374523Y-137683333D02*
X42350714Y-137730952D01*
X42350714Y-137730952D02*
X42303095Y-137754761D01*
X42303095Y-137754761D02*
X42279285Y-137754761D01*
X42279285Y-137754761D02*
X42231666Y-137730952D01*
X42231666Y-137730952D02*
X42207857Y-137683333D01*
X42207857Y-137683333D02*
X42207857Y-137611904D01*
X42207857Y-137611904D02*
X42231666Y-137564285D01*
X42541190Y-137326190D02*
X42207857Y-137326190D01*
X42041190Y-137326190D02*
X42065000Y-137349999D01*
X42065000Y-137349999D02*
X42088809Y-137326190D01*
X42088809Y-137326190D02*
X42065000Y-137302380D01*
X42065000Y-137302380D02*
X42041190Y-137326190D01*
X42041190Y-137326190D02*
X42088809Y-137326190D01*
X42207857Y-136873809D02*
X42612619Y-136873809D01*
X42612619Y-136873809D02*
X42660238Y-136897619D01*
X42660238Y-136897619D02*
X42684047Y-136921428D01*
X42684047Y-136921428D02*
X42707857Y-136969047D01*
X42707857Y-136969047D02*
X42707857Y-137040476D01*
X42707857Y-137040476D02*
X42684047Y-137088095D01*
X42517380Y-136873809D02*
X42541190Y-136921428D01*
X42541190Y-136921428D02*
X42541190Y-137016666D01*
X42541190Y-137016666D02*
X42517380Y-137064285D01*
X42517380Y-137064285D02*
X42493571Y-137088095D01*
X42493571Y-137088095D02*
X42445952Y-137111904D01*
X42445952Y-137111904D02*
X42303095Y-137111904D01*
X42303095Y-137111904D02*
X42255476Y-137088095D01*
X42255476Y-137088095D02*
X42231666Y-137064285D01*
X42231666Y-137064285D02*
X42207857Y-137016666D01*
X42207857Y-137016666D02*
X42207857Y-136921428D01*
X42207857Y-136921428D02*
X42231666Y-136873809D01*
X30690476Y-31891190D02*
X30642857Y-31867380D01*
X30642857Y-31867380D02*
X30619047Y-31843571D01*
X30619047Y-31843571D02*
X30595238Y-31795952D01*
X30595238Y-31795952D02*
X30595238Y-31653095D01*
X30595238Y-31653095D02*
X30619047Y-31605476D01*
X30619047Y-31605476D02*
X30642857Y-31581666D01*
X30642857Y-31581666D02*
X30690476Y-31557857D01*
X30690476Y-31557857D02*
X30761904Y-31557857D01*
X30761904Y-31557857D02*
X30809523Y-31581666D01*
X30809523Y-31581666D02*
X30833333Y-31605476D01*
X30833333Y-31605476D02*
X30857142Y-31653095D01*
X30857142Y-31653095D02*
X30857142Y-31795952D01*
X30857142Y-31795952D02*
X30833333Y-31843571D01*
X30833333Y-31843571D02*
X30809523Y-31867380D01*
X30809523Y-31867380D02*
X30761904Y-31891190D01*
X30761904Y-31891190D02*
X30690476Y-31891190D01*
X31000000Y-31557857D02*
X31190476Y-31557857D01*
X31071428Y-31391190D02*
X31071428Y-31819761D01*
X31071428Y-31819761D02*
X31095238Y-31867380D01*
X31095238Y-31867380D02*
X31142857Y-31891190D01*
X31142857Y-31891190D02*
X31190476Y-31891190D01*
X31571428Y-31891190D02*
X31571428Y-31629285D01*
X31571428Y-31629285D02*
X31547618Y-31581666D01*
X31547618Y-31581666D02*
X31499999Y-31557857D01*
X31499999Y-31557857D02*
X31404761Y-31557857D01*
X31404761Y-31557857D02*
X31357142Y-31581666D01*
X31571428Y-31867380D02*
X31523809Y-31891190D01*
X31523809Y-31891190D02*
X31404761Y-31891190D01*
X31404761Y-31891190D02*
X31357142Y-31867380D01*
X31357142Y-31867380D02*
X31333333Y-31819761D01*
X31333333Y-31819761D02*
X31333333Y-31772142D01*
X31333333Y-31772142D02*
X31357142Y-31724523D01*
X31357142Y-31724523D02*
X31404761Y-31700714D01*
X31404761Y-31700714D02*
X31523809Y-31700714D01*
X31523809Y-31700714D02*
X31571428Y-31676904D01*
X32323809Y-31891190D02*
X32323809Y-31629285D01*
X32323809Y-31629285D02*
X32299999Y-31581666D01*
X32299999Y-31581666D02*
X32252380Y-31557857D01*
X32252380Y-31557857D02*
X32157142Y-31557857D01*
X32157142Y-31557857D02*
X32109523Y-31581666D01*
X32323809Y-31867380D02*
X32276190Y-31891190D01*
X32276190Y-31891190D02*
X32157142Y-31891190D01*
X32157142Y-31891190D02*
X32109523Y-31867380D01*
X32109523Y-31867380D02*
X32085714Y-31819761D01*
X32085714Y-31819761D02*
X32085714Y-31772142D01*
X32085714Y-31772142D02*
X32109523Y-31724523D01*
X32109523Y-31724523D02*
X32157142Y-31700714D01*
X32157142Y-31700714D02*
X32276190Y-31700714D01*
X32276190Y-31700714D02*
X32323809Y-31676904D01*
X32561904Y-31891190D02*
X32561904Y-31557857D01*
X32561904Y-31605476D02*
X32585714Y-31581666D01*
X32585714Y-31581666D02*
X32633333Y-31557857D01*
X32633333Y-31557857D02*
X32704761Y-31557857D01*
X32704761Y-31557857D02*
X32752380Y-31581666D01*
X32752380Y-31581666D02*
X32776190Y-31629285D01*
X32776190Y-31629285D02*
X32776190Y-31891190D01*
X32776190Y-31629285D02*
X32799999Y-31581666D01*
X32799999Y-31581666D02*
X32847618Y-31557857D01*
X32847618Y-31557857D02*
X32919047Y-31557857D01*
X32919047Y-31557857D02*
X32966666Y-31581666D01*
X32966666Y-31581666D02*
X32990476Y-31629285D01*
X32990476Y-31629285D02*
X32990476Y-31891190D01*
X33228571Y-31557857D02*
X33228571Y-32057857D01*
X33228571Y-31581666D02*
X33276190Y-31557857D01*
X33276190Y-31557857D02*
X33371428Y-31557857D01*
X33371428Y-31557857D02*
X33419047Y-31581666D01*
X33419047Y-31581666D02*
X33442857Y-31605476D01*
X33442857Y-31605476D02*
X33466666Y-31653095D01*
X33466666Y-31653095D02*
X33466666Y-31795952D01*
X33466666Y-31795952D02*
X33442857Y-31843571D01*
X33442857Y-31843571D02*
X33419047Y-31867380D01*
X33419047Y-31867380D02*
X33371428Y-31891190D01*
X33371428Y-31891190D02*
X33276190Y-31891190D01*
X33276190Y-31891190D02*
X33228571Y-31867380D01*
X33980952Y-31891190D02*
X33980952Y-31391190D01*
X33980952Y-31581666D02*
X34028571Y-31557857D01*
X34028571Y-31557857D02*
X34123809Y-31557857D01*
X34123809Y-31557857D02*
X34171428Y-31581666D01*
X34171428Y-31581666D02*
X34195238Y-31605476D01*
X34195238Y-31605476D02*
X34219047Y-31653095D01*
X34219047Y-31653095D02*
X34219047Y-31795952D01*
X34219047Y-31795952D02*
X34195238Y-31843571D01*
X34195238Y-31843571D02*
X34171428Y-31867380D01*
X34171428Y-31867380D02*
X34123809Y-31891190D01*
X34123809Y-31891190D02*
X34028571Y-31891190D01*
X34028571Y-31891190D02*
X33980952Y-31867380D01*
X34433333Y-31891190D02*
X34433333Y-31557857D01*
X34433333Y-31391190D02*
X34409524Y-31415000D01*
X34409524Y-31415000D02*
X34433333Y-31438809D01*
X34433333Y-31438809D02*
X34457143Y-31415000D01*
X34457143Y-31415000D02*
X34433333Y-31391190D01*
X34433333Y-31391190D02*
X34433333Y-31438809D01*
X34885714Y-31891190D02*
X34885714Y-31629285D01*
X34885714Y-31629285D02*
X34861904Y-31581666D01*
X34861904Y-31581666D02*
X34814285Y-31557857D01*
X34814285Y-31557857D02*
X34719047Y-31557857D01*
X34719047Y-31557857D02*
X34671428Y-31581666D01*
X34885714Y-31867380D02*
X34838095Y-31891190D01*
X34838095Y-31891190D02*
X34719047Y-31891190D01*
X34719047Y-31891190D02*
X34671428Y-31867380D01*
X34671428Y-31867380D02*
X34647619Y-31819761D01*
X34647619Y-31819761D02*
X34647619Y-31772142D01*
X34647619Y-31772142D02*
X34671428Y-31724523D01*
X34671428Y-31724523D02*
X34719047Y-31700714D01*
X34719047Y-31700714D02*
X34838095Y-31700714D01*
X34838095Y-31700714D02*
X34885714Y-31676904D01*
X35100000Y-31867380D02*
X35147619Y-31891190D01*
X35147619Y-31891190D02*
X35242857Y-31891190D01*
X35242857Y-31891190D02*
X35290476Y-31867380D01*
X35290476Y-31867380D02*
X35314285Y-31819761D01*
X35314285Y-31819761D02*
X35314285Y-31795952D01*
X35314285Y-31795952D02*
X35290476Y-31748333D01*
X35290476Y-31748333D02*
X35242857Y-31724523D01*
X35242857Y-31724523D02*
X35171428Y-31724523D01*
X35171428Y-31724523D02*
X35123809Y-31700714D01*
X35123809Y-31700714D02*
X35100000Y-31653095D01*
X35100000Y-31653095D02*
X35100000Y-31629285D01*
X35100000Y-31629285D02*
X35123809Y-31581666D01*
X35123809Y-31581666D02*
X35171428Y-31557857D01*
X35171428Y-31557857D02*
X35242857Y-31557857D01*
X35242857Y-31557857D02*
X35290476Y-31581666D01*
X47391190Y-31869047D02*
X47391190Y-32154761D01*
X47391190Y-32011904D02*
X46891190Y-32011904D01*
X46891190Y-32011904D02*
X46962619Y-32059523D01*
X46962619Y-32059523D02*
X47010238Y-32107142D01*
X47010238Y-32107142D02*
X47034047Y-32154761D01*
X46891190Y-31559524D02*
X46891190Y-31511905D01*
X46891190Y-31511905D02*
X46915000Y-31464286D01*
X46915000Y-31464286D02*
X46938809Y-31440476D01*
X46938809Y-31440476D02*
X46986428Y-31416667D01*
X46986428Y-31416667D02*
X47081666Y-31392857D01*
X47081666Y-31392857D02*
X47200714Y-31392857D01*
X47200714Y-31392857D02*
X47295952Y-31416667D01*
X47295952Y-31416667D02*
X47343571Y-31440476D01*
X47343571Y-31440476D02*
X47367380Y-31464286D01*
X47367380Y-31464286D02*
X47391190Y-31511905D01*
X47391190Y-31511905D02*
X47391190Y-31559524D01*
X47391190Y-31559524D02*
X47367380Y-31607143D01*
X47367380Y-31607143D02*
X47343571Y-31630952D01*
X47343571Y-31630952D02*
X47295952Y-31654762D01*
X47295952Y-31654762D02*
X47200714Y-31678571D01*
X47200714Y-31678571D02*
X47081666Y-31678571D01*
X47081666Y-31678571D02*
X46986428Y-31654762D01*
X46986428Y-31654762D02*
X46938809Y-31630952D01*
X46938809Y-31630952D02*
X46915000Y-31607143D01*
X46915000Y-31607143D02*
X46891190Y-31559524D01*
X46891190Y-31083334D02*
X46891190Y-31035715D01*
X46891190Y-31035715D02*
X46915000Y-30988096D01*
X46915000Y-30988096D02*
X46938809Y-30964286D01*
X46938809Y-30964286D02*
X46986428Y-30940477D01*
X46986428Y-30940477D02*
X47081666Y-30916667D01*
X47081666Y-30916667D02*
X47200714Y-30916667D01*
X47200714Y-30916667D02*
X47295952Y-30940477D01*
X47295952Y-30940477D02*
X47343571Y-30964286D01*
X47343571Y-30964286D02*
X47367380Y-30988096D01*
X47367380Y-30988096D02*
X47391190Y-31035715D01*
X47391190Y-31035715D02*
X47391190Y-31083334D01*
X47391190Y-31083334D02*
X47367380Y-31130953D01*
X47367380Y-31130953D02*
X47343571Y-31154762D01*
X47343571Y-31154762D02*
X47295952Y-31178572D01*
X47295952Y-31178572D02*
X47200714Y-31202381D01*
X47200714Y-31202381D02*
X47081666Y-31202381D01*
X47081666Y-31202381D02*
X46986428Y-31178572D01*
X46986428Y-31178572D02*
X46938809Y-31154762D01*
X46938809Y-31154762D02*
X46915000Y-31130953D01*
X46915000Y-31130953D02*
X46891190Y-31083334D01*
X47391190Y-30702382D02*
X46891190Y-30702382D01*
X47200714Y-30654763D02*
X47391190Y-30511906D01*
X47057857Y-30511906D02*
X47248333Y-30702382D01*
D10*
%TO.C,R12*%
X30297380Y-130892857D02*
X29821190Y-131226190D01*
X30297380Y-131464285D02*
X29297380Y-131464285D01*
X29297380Y-131464285D02*
X29297380Y-131083333D01*
X29297380Y-131083333D02*
X29345000Y-130988095D01*
X29345000Y-130988095D02*
X29392619Y-130940476D01*
X29392619Y-130940476D02*
X29487857Y-130892857D01*
X29487857Y-130892857D02*
X29630714Y-130892857D01*
X29630714Y-130892857D02*
X29725952Y-130940476D01*
X29725952Y-130940476D02*
X29773571Y-130988095D01*
X29773571Y-130988095D02*
X29821190Y-131083333D01*
X29821190Y-131083333D02*
X29821190Y-131464285D01*
X30297380Y-129940476D02*
X30297380Y-130511904D01*
X30297380Y-130226190D02*
X29297380Y-130226190D01*
X29297380Y-130226190D02*
X29440238Y-130321428D01*
X29440238Y-130321428D02*
X29535476Y-130416666D01*
X29535476Y-130416666D02*
X29583095Y-130511904D01*
X29392619Y-129559523D02*
X29345000Y-129511904D01*
X29345000Y-129511904D02*
X29297380Y-129416666D01*
X29297380Y-129416666D02*
X29297380Y-129178571D01*
X29297380Y-129178571D02*
X29345000Y-129083333D01*
X29345000Y-129083333D02*
X29392619Y-129035714D01*
X29392619Y-129035714D02*
X29487857Y-128988095D01*
X29487857Y-128988095D02*
X29583095Y-128988095D01*
X29583095Y-128988095D02*
X29725952Y-129035714D01*
X29725952Y-129035714D02*
X30297380Y-129607142D01*
X30297380Y-129607142D02*
X30297380Y-128988095D01*
%TO.C,R9*%
X32008333Y-65037380D02*
X31675000Y-64561190D01*
X31436905Y-65037380D02*
X31436905Y-64037380D01*
X31436905Y-64037380D02*
X31817857Y-64037380D01*
X31817857Y-64037380D02*
X31913095Y-64085000D01*
X31913095Y-64085000D02*
X31960714Y-64132619D01*
X31960714Y-64132619D02*
X32008333Y-64227857D01*
X32008333Y-64227857D02*
X32008333Y-64370714D01*
X32008333Y-64370714D02*
X31960714Y-64465952D01*
X31960714Y-64465952D02*
X31913095Y-64513571D01*
X31913095Y-64513571D02*
X31817857Y-64561190D01*
X31817857Y-64561190D02*
X31436905Y-64561190D01*
X32484524Y-65037380D02*
X32675000Y-65037380D01*
X32675000Y-65037380D02*
X32770238Y-64989761D01*
X32770238Y-64989761D02*
X32817857Y-64942142D01*
X32817857Y-64942142D02*
X32913095Y-64799285D01*
X32913095Y-64799285D02*
X32960714Y-64608809D01*
X32960714Y-64608809D02*
X32960714Y-64227857D01*
X32960714Y-64227857D02*
X32913095Y-64132619D01*
X32913095Y-64132619D02*
X32865476Y-64085000D01*
X32865476Y-64085000D02*
X32770238Y-64037380D01*
X32770238Y-64037380D02*
X32579762Y-64037380D01*
X32579762Y-64037380D02*
X32484524Y-64085000D01*
X32484524Y-64085000D02*
X32436905Y-64132619D01*
X32436905Y-64132619D02*
X32389286Y-64227857D01*
X32389286Y-64227857D02*
X32389286Y-64465952D01*
X32389286Y-64465952D02*
X32436905Y-64561190D01*
X32436905Y-64561190D02*
X32484524Y-64608809D01*
X32484524Y-64608809D02*
X32579762Y-64656428D01*
X32579762Y-64656428D02*
X32770238Y-64656428D01*
X32770238Y-64656428D02*
X32865476Y-64608809D01*
X32865476Y-64608809D02*
X32913095Y-64561190D01*
X32913095Y-64561190D02*
X32960714Y-64465952D01*
%TO.C,JP1*%
X42266666Y-47817380D02*
X42266666Y-48531666D01*
X42266666Y-48531666D02*
X42219047Y-48674523D01*
X42219047Y-48674523D02*
X42123809Y-48769761D01*
X42123809Y-48769761D02*
X41980952Y-48817380D01*
X41980952Y-48817380D02*
X41885714Y-48817380D01*
X42742857Y-48817380D02*
X42742857Y-47817380D01*
X42742857Y-47817380D02*
X43123809Y-47817380D01*
X43123809Y-47817380D02*
X43219047Y-47865000D01*
X43219047Y-47865000D02*
X43266666Y-47912619D01*
X43266666Y-47912619D02*
X43314285Y-48007857D01*
X43314285Y-48007857D02*
X43314285Y-48150714D01*
X43314285Y-48150714D02*
X43266666Y-48245952D01*
X43266666Y-48245952D02*
X43219047Y-48293571D01*
X43219047Y-48293571D02*
X43123809Y-48341190D01*
X43123809Y-48341190D02*
X42742857Y-48341190D01*
X44266666Y-48817380D02*
X43695238Y-48817380D01*
X43980952Y-48817380D02*
X43980952Y-47817380D01*
X43980952Y-47817380D02*
X43885714Y-47960238D01*
X43885714Y-47960238D02*
X43790476Y-48055476D01*
X43790476Y-48055476D02*
X43695238Y-48103095D01*
%TO.C,R2*%
X38833333Y-63187380D02*
X38500000Y-62711190D01*
X38261905Y-63187380D02*
X38261905Y-62187380D01*
X38261905Y-62187380D02*
X38642857Y-62187380D01*
X38642857Y-62187380D02*
X38738095Y-62235000D01*
X38738095Y-62235000D02*
X38785714Y-62282619D01*
X38785714Y-62282619D02*
X38833333Y-62377857D01*
X38833333Y-62377857D02*
X38833333Y-62520714D01*
X38833333Y-62520714D02*
X38785714Y-62615952D01*
X38785714Y-62615952D02*
X38738095Y-62663571D01*
X38738095Y-62663571D02*
X38642857Y-62711190D01*
X38642857Y-62711190D02*
X38261905Y-62711190D01*
X39214286Y-62282619D02*
X39261905Y-62235000D01*
X39261905Y-62235000D02*
X39357143Y-62187380D01*
X39357143Y-62187380D02*
X39595238Y-62187380D01*
X39595238Y-62187380D02*
X39690476Y-62235000D01*
X39690476Y-62235000D02*
X39738095Y-62282619D01*
X39738095Y-62282619D02*
X39785714Y-62377857D01*
X39785714Y-62377857D02*
X39785714Y-62473095D01*
X39785714Y-62473095D02*
X39738095Y-62615952D01*
X39738095Y-62615952D02*
X39166667Y-63187380D01*
X39166667Y-63187380D02*
X39785714Y-63187380D01*
%TO.C,U4*%
X43988095Y-60022380D02*
X43988095Y-60831904D01*
X43988095Y-60831904D02*
X44035714Y-60927142D01*
X44035714Y-60927142D02*
X44083333Y-60974761D01*
X44083333Y-60974761D02*
X44178571Y-61022380D01*
X44178571Y-61022380D02*
X44369047Y-61022380D01*
X44369047Y-61022380D02*
X44464285Y-60974761D01*
X44464285Y-60974761D02*
X44511904Y-60927142D01*
X44511904Y-60927142D02*
X44559523Y-60831904D01*
X44559523Y-60831904D02*
X44559523Y-60022380D01*
X45464285Y-60355714D02*
X45464285Y-61022380D01*
X45226190Y-59974761D02*
X44988095Y-60689047D01*
X44988095Y-60689047D02*
X45607142Y-60689047D01*
%TO.C,C3*%
X27693333Y-103252142D02*
X27645714Y-103299761D01*
X27645714Y-103299761D02*
X27502857Y-103347380D01*
X27502857Y-103347380D02*
X27407619Y-103347380D01*
X27407619Y-103347380D02*
X27264762Y-103299761D01*
X27264762Y-103299761D02*
X27169524Y-103204523D01*
X27169524Y-103204523D02*
X27121905Y-103109285D01*
X27121905Y-103109285D02*
X27074286Y-102918809D01*
X27074286Y-102918809D02*
X27074286Y-102775952D01*
X27074286Y-102775952D02*
X27121905Y-102585476D01*
X27121905Y-102585476D02*
X27169524Y-102490238D01*
X27169524Y-102490238D02*
X27264762Y-102395000D01*
X27264762Y-102395000D02*
X27407619Y-102347380D01*
X27407619Y-102347380D02*
X27502857Y-102347380D01*
X27502857Y-102347380D02*
X27645714Y-102395000D01*
X27645714Y-102395000D02*
X27693333Y-102442619D01*
X28026667Y-102347380D02*
X28645714Y-102347380D01*
X28645714Y-102347380D02*
X28312381Y-102728333D01*
X28312381Y-102728333D02*
X28455238Y-102728333D01*
X28455238Y-102728333D02*
X28550476Y-102775952D01*
X28550476Y-102775952D02*
X28598095Y-102823571D01*
X28598095Y-102823571D02*
X28645714Y-102918809D01*
X28645714Y-102918809D02*
X28645714Y-103156904D01*
X28645714Y-103156904D02*
X28598095Y-103252142D01*
X28598095Y-103252142D02*
X28550476Y-103299761D01*
X28550476Y-103299761D02*
X28455238Y-103347380D01*
X28455238Y-103347380D02*
X28169524Y-103347380D01*
X28169524Y-103347380D02*
X28074286Y-103299761D01*
X28074286Y-103299761D02*
X28026667Y-103252142D01*
%TO.C,J1*%
X19757380Y-93883333D02*
X20471666Y-93883333D01*
X20471666Y-93883333D02*
X20614523Y-93930952D01*
X20614523Y-93930952D02*
X20709761Y-94026190D01*
X20709761Y-94026190D02*
X20757380Y-94169047D01*
X20757380Y-94169047D02*
X20757380Y-94264285D01*
X20757380Y-92883333D02*
X20757380Y-93454761D01*
X20757380Y-93169047D02*
X19757380Y-93169047D01*
X19757380Y-93169047D02*
X19900238Y-93264285D01*
X19900238Y-93264285D02*
X19995476Y-93359523D01*
X19995476Y-93359523D02*
X20043095Y-93454761D01*
%TO.C,C2*%
X35193333Y-103252142D02*
X35145714Y-103299761D01*
X35145714Y-103299761D02*
X35002857Y-103347380D01*
X35002857Y-103347380D02*
X34907619Y-103347380D01*
X34907619Y-103347380D02*
X34764762Y-103299761D01*
X34764762Y-103299761D02*
X34669524Y-103204523D01*
X34669524Y-103204523D02*
X34621905Y-103109285D01*
X34621905Y-103109285D02*
X34574286Y-102918809D01*
X34574286Y-102918809D02*
X34574286Y-102775952D01*
X34574286Y-102775952D02*
X34621905Y-102585476D01*
X34621905Y-102585476D02*
X34669524Y-102490238D01*
X34669524Y-102490238D02*
X34764762Y-102395000D01*
X34764762Y-102395000D02*
X34907619Y-102347380D01*
X34907619Y-102347380D02*
X35002857Y-102347380D01*
X35002857Y-102347380D02*
X35145714Y-102395000D01*
X35145714Y-102395000D02*
X35193333Y-102442619D01*
X35574286Y-102442619D02*
X35621905Y-102395000D01*
X35621905Y-102395000D02*
X35717143Y-102347380D01*
X35717143Y-102347380D02*
X35955238Y-102347380D01*
X35955238Y-102347380D02*
X36050476Y-102395000D01*
X36050476Y-102395000D02*
X36098095Y-102442619D01*
X36098095Y-102442619D02*
X36145714Y-102537857D01*
X36145714Y-102537857D02*
X36145714Y-102633095D01*
X36145714Y-102633095D02*
X36098095Y-102775952D01*
X36098095Y-102775952D02*
X35526667Y-103347380D01*
X35526667Y-103347380D02*
X36145714Y-103347380D01*
%TO.C,U3*%
X40988095Y-122467380D02*
X40988095Y-123276904D01*
X40988095Y-123276904D02*
X41035714Y-123372142D01*
X41035714Y-123372142D02*
X41083333Y-123419761D01*
X41083333Y-123419761D02*
X41178571Y-123467380D01*
X41178571Y-123467380D02*
X41369047Y-123467380D01*
X41369047Y-123467380D02*
X41464285Y-123419761D01*
X41464285Y-123419761D02*
X41511904Y-123372142D01*
X41511904Y-123372142D02*
X41559523Y-123276904D01*
X41559523Y-123276904D02*
X41559523Y-122467380D01*
X41940476Y-122467380D02*
X42559523Y-122467380D01*
X42559523Y-122467380D02*
X42226190Y-122848333D01*
X42226190Y-122848333D02*
X42369047Y-122848333D01*
X42369047Y-122848333D02*
X42464285Y-122895952D01*
X42464285Y-122895952D02*
X42511904Y-122943571D01*
X42511904Y-122943571D02*
X42559523Y-123038809D01*
X42559523Y-123038809D02*
X42559523Y-123276904D01*
X42559523Y-123276904D02*
X42511904Y-123372142D01*
X42511904Y-123372142D02*
X42464285Y-123419761D01*
X42464285Y-123419761D02*
X42369047Y-123467380D01*
X42369047Y-123467380D02*
X42083333Y-123467380D01*
X42083333Y-123467380D02*
X41988095Y-123419761D01*
X41988095Y-123419761D02*
X41940476Y-123372142D01*
%TO.C,R11*%
X39187380Y-57392857D02*
X38711190Y-57726190D01*
X39187380Y-57964285D02*
X38187380Y-57964285D01*
X38187380Y-57964285D02*
X38187380Y-57583333D01*
X38187380Y-57583333D02*
X38235000Y-57488095D01*
X38235000Y-57488095D02*
X38282619Y-57440476D01*
X38282619Y-57440476D02*
X38377857Y-57392857D01*
X38377857Y-57392857D02*
X38520714Y-57392857D01*
X38520714Y-57392857D02*
X38615952Y-57440476D01*
X38615952Y-57440476D02*
X38663571Y-57488095D01*
X38663571Y-57488095D02*
X38711190Y-57583333D01*
X38711190Y-57583333D02*
X38711190Y-57964285D01*
X39187380Y-56440476D02*
X39187380Y-57011904D01*
X39187380Y-56726190D02*
X38187380Y-56726190D01*
X38187380Y-56726190D02*
X38330238Y-56821428D01*
X38330238Y-56821428D02*
X38425476Y-56916666D01*
X38425476Y-56916666D02*
X38473095Y-57011904D01*
X39187380Y-55488095D02*
X39187380Y-56059523D01*
X39187380Y-55773809D02*
X38187380Y-55773809D01*
X38187380Y-55773809D02*
X38330238Y-55869047D01*
X38330238Y-55869047D02*
X38425476Y-55964285D01*
X38425476Y-55964285D02*
X38473095Y-56059523D01*
%TO.C,R1*%
X31547380Y-54916666D02*
X31071190Y-55249999D01*
X31547380Y-55488094D02*
X30547380Y-55488094D01*
X30547380Y-55488094D02*
X30547380Y-55107142D01*
X30547380Y-55107142D02*
X30595000Y-55011904D01*
X30595000Y-55011904D02*
X30642619Y-54964285D01*
X30642619Y-54964285D02*
X30737857Y-54916666D01*
X30737857Y-54916666D02*
X30880714Y-54916666D01*
X30880714Y-54916666D02*
X30975952Y-54964285D01*
X30975952Y-54964285D02*
X31023571Y-55011904D01*
X31023571Y-55011904D02*
X31071190Y-55107142D01*
X31071190Y-55107142D02*
X31071190Y-55488094D01*
X31547380Y-53964285D02*
X31547380Y-54535713D01*
X31547380Y-54249999D02*
X30547380Y-54249999D01*
X30547380Y-54249999D02*
X30690238Y-54345237D01*
X30690238Y-54345237D02*
X30785476Y-54440475D01*
X30785476Y-54440475D02*
X30833095Y-54535713D01*
%TO.C,U1*%
X34488095Y-52542380D02*
X34488095Y-53351904D01*
X34488095Y-53351904D02*
X34535714Y-53447142D01*
X34535714Y-53447142D02*
X34583333Y-53494761D01*
X34583333Y-53494761D02*
X34678571Y-53542380D01*
X34678571Y-53542380D02*
X34869047Y-53542380D01*
X34869047Y-53542380D02*
X34964285Y-53494761D01*
X34964285Y-53494761D02*
X35011904Y-53447142D01*
X35011904Y-53447142D02*
X35059523Y-53351904D01*
X35059523Y-53351904D02*
X35059523Y-52542380D01*
X36059523Y-53542380D02*
X35488095Y-53542380D01*
X35773809Y-53542380D02*
X35773809Y-52542380D01*
X35773809Y-52542380D02*
X35678571Y-52685238D01*
X35678571Y-52685238D02*
X35583333Y-52780476D01*
X35583333Y-52780476D02*
X35488095Y-52828095D01*
%TO.C,R10*%
X31532142Y-64687380D02*
X31198809Y-64211190D01*
X30960714Y-64687380D02*
X30960714Y-63687380D01*
X30960714Y-63687380D02*
X31341666Y-63687380D01*
X31341666Y-63687380D02*
X31436904Y-63735000D01*
X31436904Y-63735000D02*
X31484523Y-63782619D01*
X31484523Y-63782619D02*
X31532142Y-63877857D01*
X31532142Y-63877857D02*
X31532142Y-64020714D01*
X31532142Y-64020714D02*
X31484523Y-64115952D01*
X31484523Y-64115952D02*
X31436904Y-64163571D01*
X31436904Y-64163571D02*
X31341666Y-64211190D01*
X31341666Y-64211190D02*
X30960714Y-64211190D01*
X32484523Y-64687380D02*
X31913095Y-64687380D01*
X32198809Y-64687380D02*
X32198809Y-63687380D01*
X32198809Y-63687380D02*
X32103571Y-63830238D01*
X32103571Y-63830238D02*
X32008333Y-63925476D01*
X32008333Y-63925476D02*
X31913095Y-63973095D01*
X33103571Y-63687380D02*
X33198809Y-63687380D01*
X33198809Y-63687380D02*
X33294047Y-63735000D01*
X33294047Y-63735000D02*
X33341666Y-63782619D01*
X33341666Y-63782619D02*
X33389285Y-63877857D01*
X33389285Y-63877857D02*
X33436904Y-64068333D01*
X33436904Y-64068333D02*
X33436904Y-64306428D01*
X33436904Y-64306428D02*
X33389285Y-64496904D01*
X33389285Y-64496904D02*
X33341666Y-64592142D01*
X33341666Y-64592142D02*
X33294047Y-64639761D01*
X33294047Y-64639761D02*
X33198809Y-64687380D01*
X33198809Y-64687380D02*
X33103571Y-64687380D01*
X33103571Y-64687380D02*
X33008333Y-64639761D01*
X33008333Y-64639761D02*
X32960714Y-64592142D01*
X32960714Y-64592142D02*
X32913095Y-64496904D01*
X32913095Y-64496904D02*
X32865476Y-64306428D01*
X32865476Y-64306428D02*
X32865476Y-64068333D01*
X32865476Y-64068333D02*
X32913095Y-63877857D01*
X32913095Y-63877857D02*
X32960714Y-63782619D01*
X32960714Y-63782619D02*
X33008333Y-63735000D01*
X33008333Y-63735000D02*
X33103571Y-63687380D01*
%TO.C,R5*%
X26937380Y-44416666D02*
X26461190Y-44749999D01*
X26937380Y-44988094D02*
X25937380Y-44988094D01*
X25937380Y-44988094D02*
X25937380Y-44607142D01*
X25937380Y-44607142D02*
X25985000Y-44511904D01*
X25985000Y-44511904D02*
X26032619Y-44464285D01*
X26032619Y-44464285D02*
X26127857Y-44416666D01*
X26127857Y-44416666D02*
X26270714Y-44416666D01*
X26270714Y-44416666D02*
X26365952Y-44464285D01*
X26365952Y-44464285D02*
X26413571Y-44511904D01*
X26413571Y-44511904D02*
X26461190Y-44607142D01*
X26461190Y-44607142D02*
X26461190Y-44988094D01*
X25937380Y-43511904D02*
X25937380Y-43988094D01*
X25937380Y-43988094D02*
X26413571Y-44035713D01*
X26413571Y-44035713D02*
X26365952Y-43988094D01*
X26365952Y-43988094D02*
X26318333Y-43892856D01*
X26318333Y-43892856D02*
X26318333Y-43654761D01*
X26318333Y-43654761D02*
X26365952Y-43559523D01*
X26365952Y-43559523D02*
X26413571Y-43511904D01*
X26413571Y-43511904D02*
X26508809Y-43464285D01*
X26508809Y-43464285D02*
X26746904Y-43464285D01*
X26746904Y-43464285D02*
X26842142Y-43511904D01*
X26842142Y-43511904D02*
X26889761Y-43559523D01*
X26889761Y-43559523D02*
X26937380Y-43654761D01*
X26937380Y-43654761D02*
X26937380Y-43892856D01*
X26937380Y-43892856D02*
X26889761Y-43988094D01*
X26889761Y-43988094D02*
X26842142Y-44035713D01*
%TO.C,R8*%
X47083333Y-124937380D02*
X46750000Y-124461190D01*
X46511905Y-124937380D02*
X46511905Y-123937380D01*
X46511905Y-123937380D02*
X46892857Y-123937380D01*
X46892857Y-123937380D02*
X46988095Y-123985000D01*
X46988095Y-123985000D02*
X47035714Y-124032619D01*
X47035714Y-124032619D02*
X47083333Y-124127857D01*
X47083333Y-124127857D02*
X47083333Y-124270714D01*
X47083333Y-124270714D02*
X47035714Y-124365952D01*
X47035714Y-124365952D02*
X46988095Y-124413571D01*
X46988095Y-124413571D02*
X46892857Y-124461190D01*
X46892857Y-124461190D02*
X46511905Y-124461190D01*
X47654762Y-124365952D02*
X47559524Y-124318333D01*
X47559524Y-124318333D02*
X47511905Y-124270714D01*
X47511905Y-124270714D02*
X47464286Y-124175476D01*
X47464286Y-124175476D02*
X47464286Y-124127857D01*
X47464286Y-124127857D02*
X47511905Y-124032619D01*
X47511905Y-124032619D02*
X47559524Y-123985000D01*
X47559524Y-123985000D02*
X47654762Y-123937380D01*
X47654762Y-123937380D02*
X47845238Y-123937380D01*
X47845238Y-123937380D02*
X47940476Y-123985000D01*
X47940476Y-123985000D02*
X47988095Y-124032619D01*
X47988095Y-124032619D02*
X48035714Y-124127857D01*
X48035714Y-124127857D02*
X48035714Y-124175476D01*
X48035714Y-124175476D02*
X47988095Y-124270714D01*
X47988095Y-124270714D02*
X47940476Y-124318333D01*
X47940476Y-124318333D02*
X47845238Y-124365952D01*
X47845238Y-124365952D02*
X47654762Y-124365952D01*
X47654762Y-124365952D02*
X47559524Y-124413571D01*
X47559524Y-124413571D02*
X47511905Y-124461190D01*
X47511905Y-124461190D02*
X47464286Y-124556428D01*
X47464286Y-124556428D02*
X47464286Y-124746904D01*
X47464286Y-124746904D02*
X47511905Y-124842142D01*
X47511905Y-124842142D02*
X47559524Y-124889761D01*
X47559524Y-124889761D02*
X47654762Y-124937380D01*
X47654762Y-124937380D02*
X47845238Y-124937380D01*
X47845238Y-124937380D02*
X47940476Y-124889761D01*
X47940476Y-124889761D02*
X47988095Y-124842142D01*
X47988095Y-124842142D02*
X48035714Y-124746904D01*
X48035714Y-124746904D02*
X48035714Y-124556428D01*
X48035714Y-124556428D02*
X47988095Y-124461190D01*
X47988095Y-124461190D02*
X47940476Y-124413571D01*
X47940476Y-124413571D02*
X47845238Y-124365952D01*
%TO.C,R6*%
X36083333Y-126297380D02*
X35750000Y-125821190D01*
X35511905Y-126297380D02*
X35511905Y-125297380D01*
X35511905Y-125297380D02*
X35892857Y-125297380D01*
X35892857Y-125297380D02*
X35988095Y-125345000D01*
X35988095Y-125345000D02*
X36035714Y-125392619D01*
X36035714Y-125392619D02*
X36083333Y-125487857D01*
X36083333Y-125487857D02*
X36083333Y-125630714D01*
X36083333Y-125630714D02*
X36035714Y-125725952D01*
X36035714Y-125725952D02*
X35988095Y-125773571D01*
X35988095Y-125773571D02*
X35892857Y-125821190D01*
X35892857Y-125821190D02*
X35511905Y-125821190D01*
X36940476Y-125297380D02*
X36750000Y-125297380D01*
X36750000Y-125297380D02*
X36654762Y-125345000D01*
X36654762Y-125345000D02*
X36607143Y-125392619D01*
X36607143Y-125392619D02*
X36511905Y-125535476D01*
X36511905Y-125535476D02*
X36464286Y-125725952D01*
X36464286Y-125725952D02*
X36464286Y-126106904D01*
X36464286Y-126106904D02*
X36511905Y-126202142D01*
X36511905Y-126202142D02*
X36559524Y-126249761D01*
X36559524Y-126249761D02*
X36654762Y-126297380D01*
X36654762Y-126297380D02*
X36845238Y-126297380D01*
X36845238Y-126297380D02*
X36940476Y-126249761D01*
X36940476Y-126249761D02*
X36988095Y-126202142D01*
X36988095Y-126202142D02*
X37035714Y-126106904D01*
X37035714Y-126106904D02*
X37035714Y-125868809D01*
X37035714Y-125868809D02*
X36988095Y-125773571D01*
X36988095Y-125773571D02*
X36940476Y-125725952D01*
X36940476Y-125725952D02*
X36845238Y-125678333D01*
X36845238Y-125678333D02*
X36654762Y-125678333D01*
X36654762Y-125678333D02*
X36559524Y-125725952D01*
X36559524Y-125725952D02*
X36511905Y-125773571D01*
X36511905Y-125773571D02*
X36464286Y-125868809D01*
%TO.C,R7*%
X38833333Y-64937380D02*
X38500000Y-64461190D01*
X38261905Y-64937380D02*
X38261905Y-63937380D01*
X38261905Y-63937380D02*
X38642857Y-63937380D01*
X38642857Y-63937380D02*
X38738095Y-63985000D01*
X38738095Y-63985000D02*
X38785714Y-64032619D01*
X38785714Y-64032619D02*
X38833333Y-64127857D01*
X38833333Y-64127857D02*
X38833333Y-64270714D01*
X38833333Y-64270714D02*
X38785714Y-64365952D01*
X38785714Y-64365952D02*
X38738095Y-64413571D01*
X38738095Y-64413571D02*
X38642857Y-64461190D01*
X38642857Y-64461190D02*
X38261905Y-64461190D01*
X39166667Y-63937380D02*
X39833333Y-63937380D01*
X39833333Y-63937380D02*
X39404762Y-64937380D01*
D12*
%TO.C,R12*%
X29022500Y-130012742D02*
X29022500Y-130487258D01*
X27977500Y-130012742D02*
X27977500Y-130487258D01*
%TO.C,R9*%
X32412258Y-63762500D02*
X31937742Y-63762500D01*
X32412258Y-62717500D02*
X31937742Y-62717500D01*
%TO.C,JP1*%
X41700000Y-49250000D02*
X44500000Y-49250000D01*
X41700000Y-51250000D02*
X41700000Y-49250000D01*
X44500000Y-49250000D02*
X44500000Y-51250000D01*
X44500000Y-51250000D02*
X41700000Y-51250000D01*
%TO.C,R2*%
X38762742Y-63727500D02*
X39237258Y-63727500D01*
X38762742Y-64772500D02*
X39237258Y-64772500D01*
%TO.C,U4*%
X44750000Y-61495000D02*
X41250000Y-61495000D01*
X44750000Y-61495000D02*
X46700000Y-61495000D01*
X44750000Y-71615000D02*
X42800000Y-71615000D01*
X44750000Y-71615000D02*
X46700000Y-71615000D01*
%TO.C,C3*%
X28000580Y-102060000D02*
X27719420Y-102060000D01*
X28000580Y-101040000D02*
X27719420Y-101040000D01*
%TO.C,J1*%
X21280000Y-98135000D02*
X21280000Y-88965000D01*
X25460000Y-98135000D02*
X25460000Y-99635000D01*
X25460000Y-98135000D02*
X21280000Y-98135000D01*
X45260000Y-98135000D02*
X49440000Y-98135000D01*
X49440000Y-98135000D02*
X49440000Y-88965000D01*
X21280000Y-88965000D02*
X25460000Y-88965000D01*
X49440000Y-88965000D02*
X45260000Y-88965000D01*
%TO.C,C2*%
X35500580Y-102060000D02*
X35219420Y-102060000D01*
X35500580Y-101040000D02*
X35219420Y-101040000D01*
%TO.C,U3*%
X41750000Y-123940000D02*
X38300000Y-123940000D01*
X41750000Y-123940000D02*
X43700000Y-123940000D01*
X41750000Y-129060000D02*
X39800000Y-129060000D01*
X41750000Y-129060000D02*
X43700000Y-129060000D01*
%TO.C,R11*%
X39727500Y-56987258D02*
X39727500Y-56512742D01*
X40772500Y-56987258D02*
X40772500Y-56512742D01*
%TO.C,J2*%
X46910000Y-35920000D02*
X46910000Y-37250000D01*
X45580000Y-35920000D02*
X46910000Y-35920000D01*
X44310000Y-35920000D02*
X39170000Y-35920000D01*
X44310000Y-35920000D02*
X44310000Y-38580000D01*
X39170000Y-35920000D02*
X39170000Y-38580000D01*
X44310000Y-38580000D02*
X39170000Y-38580000D01*
%TO.C,J3*%
X46420000Y-129420000D02*
X47750000Y-129420000D01*
X46420000Y-130750000D02*
X46420000Y-129420000D01*
X46420000Y-132020000D02*
X46420000Y-137160000D01*
X46420000Y-132020000D02*
X49080000Y-132020000D01*
X46420000Y-137160000D02*
X49080000Y-137160000D01*
X49080000Y-132020000D02*
X49080000Y-137160000D01*
%TO.C,R1*%
X30272500Y-54512742D02*
X30272500Y-54987258D01*
X29227500Y-54512742D02*
X29227500Y-54987258D01*
%TO.C,U1*%
X35250000Y-54015000D02*
X31800000Y-54015000D01*
X35250000Y-54015000D02*
X37200000Y-54015000D01*
X35250000Y-59135000D02*
X33300000Y-59135000D01*
X35250000Y-59135000D02*
X37200000Y-59135000D01*
%TO.C,R10*%
X31937742Y-65227500D02*
X32412258Y-65227500D01*
X31937742Y-66272500D02*
X32412258Y-66272500D01*
%TO.C,R5*%
X27477500Y-44487258D02*
X27477500Y-44012742D01*
X28522500Y-44487258D02*
X28522500Y-44012742D01*
%TO.C,R8*%
X47012742Y-125477500D02*
X47487258Y-125477500D01*
X47012742Y-126522500D02*
X47487258Y-126522500D01*
%TO.C,R6*%
X36487258Y-125022500D02*
X36012742Y-125022500D01*
X36487258Y-123977500D02*
X36012742Y-123977500D01*
%TO.C,R7*%
X38762742Y-65477500D02*
X39237258Y-65477500D01*
X38762742Y-66522500D02*
X39237258Y-66522500D01*
%TD*%
%LPC*%
D13*
%TO.C,R12*%
X28500000Y-129425000D03*
X28500000Y-131075000D03*
%TD*%
D14*
%TO.C,R9*%
X33000000Y-63240000D03*
X31350000Y-63240000D03*
%TD*%
D15*
%TO.C,JP1*%
X42375000Y-50250000D03*
D16*
X43825000Y-50250000D03*
%TD*%
D17*
%TO.C,R2*%
X38175000Y-64250000D03*
X39825000Y-64250000D03*
%TD*%
D18*
%TO.C,U4*%
X42250000Y-62110000D03*
X42250000Y-63380000D03*
X42250000Y-64650000D03*
X42250000Y-65920000D03*
X42250000Y-67190000D03*
X42250000Y-68460000D03*
X42250000Y-69730000D03*
X42250000Y-71000000D03*
X47250000Y-71000000D03*
X47250000Y-69730000D03*
X47250000Y-68460000D03*
X47250000Y-67190000D03*
X47250000Y-65920000D03*
X47250000Y-64650000D03*
X47250000Y-63380000D03*
X47250000Y-62110000D03*
%TD*%
D19*
%TO.C,C3*%
X28635000Y-101550000D03*
X27085000Y-101550000D03*
%TD*%
D20*
%TO.C,J1*%
X26470000Y-97350000D03*
X26470000Y-89750000D03*
X29010000Y-97350000D03*
X29010000Y-89750000D03*
X31550000Y-97350000D03*
X31550000Y-89750000D03*
X34090000Y-97350000D03*
X34090000Y-89750000D03*
X36630000Y-97350000D03*
X36630000Y-89750000D03*
X39170000Y-97350000D03*
X39170000Y-89750000D03*
X41710000Y-97350000D03*
X41710000Y-89750000D03*
X44250000Y-97350000D03*
X44250000Y-89750000D03*
%TD*%
D19*
%TO.C,C2*%
X36135000Y-101550000D03*
X34585000Y-101550000D03*
%TD*%
D21*
%TO.C,U3*%
X39275000Y-124595000D03*
X39275000Y-125865000D03*
X39275000Y-127135000D03*
X39275000Y-128405000D03*
X44225000Y-128405000D03*
X44225000Y-127135000D03*
X44225000Y-125865000D03*
X44225000Y-124595000D03*
%TD*%
D22*
%TO.C,R11*%
X40250000Y-57575000D03*
X40250000Y-55925000D03*
%TD*%
D23*
%TO.C,J2*%
X45579999Y-37249999D03*
D24*
X43039999Y-37249999D03*
X40499999Y-37249999D03*
%TD*%
D23*
%TO.C,J3*%
X47749999Y-130749999D03*
D24*
X47749999Y-133289999D03*
X47749999Y-135829999D03*
%TD*%
D13*
%TO.C,R1*%
X29750000Y-53925000D03*
X29750000Y-55575000D03*
%TD*%
D21*
%TO.C,U1*%
X32775000Y-54670000D03*
X32775000Y-55940000D03*
X32775000Y-57210000D03*
X32775000Y-58480000D03*
X37725000Y-58480000D03*
X37725000Y-57210000D03*
X37725000Y-55940000D03*
X37725000Y-54670000D03*
%TD*%
D17*
%TO.C,R10*%
X31350000Y-65750000D03*
X33000000Y-65750000D03*
%TD*%
D22*
%TO.C,R5*%
X28000000Y-45075000D03*
X28000000Y-43425000D03*
%TD*%
D17*
%TO.C,R8*%
X46425000Y-126000000D03*
X48075000Y-126000000D03*
%TD*%
D14*
%TO.C,R6*%
X37075000Y-124500000D03*
X35425000Y-124500000D03*
%TD*%
D17*
%TO.C,R7*%
X38175000Y-66000000D03*
X39825000Y-66000000D03*
%TD*%
D25*
%TO.C,JOUT1*%
X28499999Y-122219999D03*
D26*
X28500000Y-133620000D03*
X28500000Y-125320000D03*
%TD*%
D25*
%TO.C,JSIG1*%
X42499999Y-106599999D03*
D26*
X42500000Y-118000000D03*
X42500000Y-109700000D03*
%TD*%
D25*
%TO.C,JENV1*%
X28499999Y-106599999D03*
D26*
X28500000Y-118000000D03*
X28500000Y-109700000D03*
%TD*%
D27*
%TO.C,RVBIAS1*%
X23199999Y-39974999D03*
X32799999Y-39974999D03*
D28*
X30499999Y-47474999D03*
D29*
X28000000Y-47475000D03*
X25500000Y-47475000D03*
%TD*%
M02*
