%TF.GenerationSoftware,KiCad,Pcbnew,(7.0.0)*%
%TF.CreationDate,2023-03-26T07:08:49-07:00*%
%TF.ProjectId,electricdruid_vca,656c6563-7472-4696-9364-727569645f76,rev?*%
%TF.SameCoordinates,Original*%
%TF.FileFunction,Legend,Bot*%
%TF.FilePolarity,Positive*%
%FSLAX46Y46*%
G04 Gerber Fmt 4.6, Leading zero omitted, Abs format (unit mm)*
G04 Created by KiCad (PCBNEW (7.0.0)) date 2023-03-26 07:08:49*
%MOMM*%
%LPD*%
G01*
G04 APERTURE LIST*
%ADD10C,0.195932*%
%ADD11C,0.150000*%
%ADD12C,0.010651*%
%ADD13C,0.032217*%
%ADD14C,0.300000*%
%ADD15C,0.125000*%
%ADD16C,0.120000*%
%ADD17R,1.700000X1.700000*%
%ADD18O,1.700000X1.700000*%
%ADD19R,1.930000X1.830000*%
%ADD20C,2.130000*%
%ADD21O,2.720000X3.240000*%
%ADD22R,1.800000X1.800000*%
%ADD23C,1.800000*%
G04 APERTURE END LIST*
D10*
G36*
X39106857Y-65746154D02*
G01*
X39131672Y-65748767D01*
X39156766Y-65753123D01*
X39182280Y-65759220D01*
X39208353Y-65767059D01*
X39235124Y-65776641D01*
X39262734Y-65787965D01*
X39291323Y-65801030D01*
X39351993Y-65832388D01*
X39418253Y-65870714D01*
X39491221Y-65916009D01*
X39572015Y-65968271D01*
X39625653Y-66005005D01*
X39676067Y-66042778D01*
X39723252Y-66081548D01*
X39767206Y-66121273D01*
X39807926Y-66161911D01*
X39845410Y-66203421D01*
X39879654Y-66245760D01*
X39910656Y-66288886D01*
X39938412Y-66332759D01*
X39962920Y-66377335D01*
X39984177Y-66422573D01*
X40002179Y-66468432D01*
X40016925Y-66514868D01*
X40028411Y-66561841D01*
X40036634Y-66609309D01*
X40041591Y-66657229D01*
X40043280Y-66705559D01*
X40041698Y-66754259D01*
X40036841Y-66803286D01*
X40028707Y-66852598D01*
X40017293Y-66902153D01*
X40002596Y-66951909D01*
X39984613Y-67001825D01*
X39963341Y-67051858D01*
X39938778Y-67101967D01*
X39910920Y-67152110D01*
X39879765Y-67202245D01*
X39845309Y-67252330D01*
X39807550Y-67302324D01*
X39766485Y-67352183D01*
X39722111Y-67401867D01*
X39674424Y-67451334D01*
X39674421Y-67451380D01*
X39602557Y-67518254D01*
X39566348Y-67548202D01*
X39529928Y-67575822D01*
X39493278Y-67601115D01*
X39456379Y-67624078D01*
X39419213Y-67644713D01*
X39381760Y-67663017D01*
X39344001Y-67678990D01*
X39305918Y-67692631D01*
X39267490Y-67703940D01*
X39228700Y-67712917D01*
X39189529Y-67719559D01*
X39149956Y-67723866D01*
X39109963Y-67725839D01*
X39069532Y-67725475D01*
X39028643Y-67722775D01*
X38987277Y-67717738D01*
X38945415Y-67710362D01*
X38903039Y-67700647D01*
X38860128Y-67688593D01*
X38816664Y-67674199D01*
X38772629Y-67657463D01*
X38728003Y-67638386D01*
X38636901Y-67593203D01*
X38543207Y-67538644D01*
X38446770Y-67474704D01*
X38347436Y-67401377D01*
X38310204Y-67370055D01*
X38276140Y-67336277D01*
X38245215Y-67300202D01*
X38217403Y-67261988D01*
X38192677Y-67221795D01*
X38171010Y-67179780D01*
X38152374Y-67136103D01*
X38136743Y-67090922D01*
X38124088Y-67044396D01*
X38114384Y-66996685D01*
X38107603Y-66947946D01*
X38103718Y-66898338D01*
X38102701Y-66848021D01*
X38104526Y-66797152D01*
X38109165Y-66745891D01*
X38116592Y-66694397D01*
X38126779Y-66642828D01*
X38139698Y-66591343D01*
X38155324Y-66540101D01*
X38173629Y-66489260D01*
X38194585Y-66438979D01*
X38218165Y-66389417D01*
X38244344Y-66340733D01*
X38273092Y-66293086D01*
X38304383Y-66246634D01*
X38338191Y-66201536D01*
X38374487Y-66157950D01*
X38413245Y-66116036D01*
X38454437Y-66075953D01*
X38498037Y-66037858D01*
X38544018Y-66001912D01*
X38592351Y-65968271D01*
X38673145Y-65916009D01*
X38746112Y-65870714D01*
X38812372Y-65832388D01*
X38873042Y-65801030D01*
X38901630Y-65787965D01*
X38929240Y-65776641D01*
X38956011Y-65767059D01*
X38982083Y-65759220D01*
X39007597Y-65753123D01*
X39032692Y-65748767D01*
X39057507Y-65746154D01*
X39082182Y-65745283D01*
X39106857Y-65746154D01*
G37*
X39106857Y-65746154D02*
X39131672Y-65748767D01*
X39156766Y-65753123D01*
X39182280Y-65759220D01*
X39208353Y-65767059D01*
X39235124Y-65776641D01*
X39262734Y-65787965D01*
X39291323Y-65801030D01*
X39351993Y-65832388D01*
X39418253Y-65870714D01*
X39491221Y-65916009D01*
X39572015Y-65968271D01*
X39625653Y-66005005D01*
X39676067Y-66042778D01*
X39723252Y-66081548D01*
X39767206Y-66121273D01*
X39807926Y-66161911D01*
X39845410Y-66203421D01*
X39879654Y-66245760D01*
X39910656Y-66288886D01*
X39938412Y-66332759D01*
X39962920Y-66377335D01*
X39984177Y-66422573D01*
X40002179Y-66468432D01*
X40016925Y-66514868D01*
X40028411Y-66561841D01*
X40036634Y-66609309D01*
X40041591Y-66657229D01*
X40043280Y-66705559D01*
X40041698Y-66754259D01*
X40036841Y-66803286D01*
X40028707Y-66852598D01*
X40017293Y-66902153D01*
X40002596Y-66951909D01*
X39984613Y-67001825D01*
X39963341Y-67051858D01*
X39938778Y-67101967D01*
X39910920Y-67152110D01*
X39879765Y-67202245D01*
X39845309Y-67252330D01*
X39807550Y-67302324D01*
X39766485Y-67352183D01*
X39722111Y-67401867D01*
X39674424Y-67451334D01*
X39674421Y-67451380D01*
X39602557Y-67518254D01*
X39566348Y-67548202D01*
X39529928Y-67575822D01*
X39493278Y-67601115D01*
X39456379Y-67624078D01*
X39419213Y-67644713D01*
X39381760Y-67663017D01*
X39344001Y-67678990D01*
X39305918Y-67692631D01*
X39267490Y-67703940D01*
X39228700Y-67712917D01*
X39189529Y-67719559D01*
X39149956Y-67723866D01*
X39109963Y-67725839D01*
X39069532Y-67725475D01*
X39028643Y-67722775D01*
X38987277Y-67717738D01*
X38945415Y-67710362D01*
X38903039Y-67700647D01*
X38860128Y-67688593D01*
X38816664Y-67674199D01*
X38772629Y-67657463D01*
X38728003Y-67638386D01*
X38636901Y-67593203D01*
X38543207Y-67538644D01*
X38446770Y-67474704D01*
X38347436Y-67401377D01*
X38310204Y-67370055D01*
X38276140Y-67336277D01*
X38245215Y-67300202D01*
X38217403Y-67261988D01*
X38192677Y-67221795D01*
X38171010Y-67179780D01*
X38152374Y-67136103D01*
X38136743Y-67090922D01*
X38124088Y-67044396D01*
X38114384Y-66996685D01*
X38107603Y-66947946D01*
X38103718Y-66898338D01*
X38102701Y-66848021D01*
X38104526Y-66797152D01*
X38109165Y-66745891D01*
X38116592Y-66694397D01*
X38126779Y-66642828D01*
X38139698Y-66591343D01*
X38155324Y-66540101D01*
X38173629Y-66489260D01*
X38194585Y-66438979D01*
X38218165Y-66389417D01*
X38244344Y-66340733D01*
X38273092Y-66293086D01*
X38304383Y-66246634D01*
X38338191Y-66201536D01*
X38374487Y-66157950D01*
X38413245Y-66116036D01*
X38454437Y-66075953D01*
X38498037Y-66037858D01*
X38544018Y-66001912D01*
X38592351Y-65968271D01*
X38673145Y-65916009D01*
X38746112Y-65870714D01*
X38812372Y-65832388D01*
X38873042Y-65801030D01*
X38901630Y-65787965D01*
X38929240Y-65776641D01*
X38956011Y-65767059D01*
X38982083Y-65759220D01*
X39007597Y-65753123D01*
X39032692Y-65748767D01*
X39057507Y-65746154D01*
X39082182Y-65745283D01*
X39106857Y-65746154D01*
D11*
X34455037Y-93133537D02*
X27455037Y-100633537D01*
D12*
G36*
X39315281Y-91242426D02*
G01*
X40563164Y-91242426D01*
X40563258Y-91244999D01*
X40563627Y-91245638D01*
X40564335Y-91246426D01*
X40566732Y-91248435D01*
X40570381Y-91250987D01*
X40575209Y-91254044D01*
X40581149Y-91257568D01*
X40588128Y-91261521D01*
X40604929Y-91270563D01*
X40625052Y-91280866D01*
X40647936Y-91292126D01*
X40673021Y-91304040D01*
X40699748Y-91316303D01*
X40762191Y-91344997D01*
X40819217Y-91372379D01*
X40872117Y-91399169D01*
X40922185Y-91426086D01*
X40970714Y-91453849D01*
X41018996Y-91483175D01*
X41068324Y-91514785D01*
X41119990Y-91549396D01*
X41191828Y-91599917D01*
X41262965Y-91652932D01*
X41333364Y-91708403D01*
X41402988Y-91766291D01*
X41471801Y-91826559D01*
X41539764Y-91889167D01*
X41606843Y-91954078D01*
X41672999Y-92021253D01*
X41738196Y-92090655D01*
X41802397Y-92162244D01*
X41865565Y-92235983D01*
X41927663Y-92311832D01*
X41988655Y-92389755D01*
X42048503Y-92469713D01*
X42107171Y-92551666D01*
X42164622Y-92635578D01*
X42204426Y-92694518D01*
X42237679Y-92742779D01*
X42260905Y-92775383D01*
X42267670Y-92784260D01*
X42269651Y-92786570D01*
X42270625Y-92787357D01*
X42271464Y-92787102D01*
X42273052Y-92786355D01*
X42278311Y-92783483D01*
X42286073Y-92778942D01*
X42296008Y-92772934D01*
X42307787Y-92765660D01*
X42321080Y-92757321D01*
X42335559Y-92748119D01*
X42350894Y-92738254D01*
X42350886Y-92738315D01*
X42388163Y-92715475D01*
X42430806Y-92691678D01*
X42478604Y-92667006D01*
X42531349Y-92641541D01*
X42588831Y-92615363D01*
X42650840Y-92588554D01*
X42787607Y-92533363D01*
X42939974Y-92476618D01*
X43106268Y-92418965D01*
X43284815Y-92361054D01*
X43473940Y-92303531D01*
X43798808Y-92208027D01*
X43933314Y-92168069D01*
X43978195Y-92154138D01*
X44010680Y-92143354D01*
X44032658Y-92135054D01*
X44046017Y-92128575D01*
X44050056Y-92125811D01*
X44052648Y-92123254D01*
X44054030Y-92120820D01*
X44054438Y-92118427D01*
X44053879Y-92114547D01*
X44052236Y-92109601D01*
X44045890Y-92096743D01*
X44035792Y-92080311D01*
X44022331Y-92060765D01*
X44005898Y-92038563D01*
X43986884Y-92014163D01*
X43965680Y-91988025D01*
X43942677Y-91960605D01*
X43918265Y-91932365D01*
X43892834Y-91903760D01*
X43866776Y-91875252D01*
X43840482Y-91847297D01*
X43814341Y-91820354D01*
X43788744Y-91794882D01*
X43764083Y-91771341D01*
X43740748Y-91750187D01*
X43639772Y-91665684D01*
X43535307Y-91586545D01*
X43427390Y-91512785D01*
X43316058Y-91444414D01*
X43201347Y-91381447D01*
X43083295Y-91323895D01*
X42961938Y-91271773D01*
X42837314Y-91225092D01*
X42709459Y-91183865D01*
X42578410Y-91148105D01*
X42444204Y-91117826D01*
X42306879Y-91093039D01*
X42166470Y-91073758D01*
X42023015Y-91059995D01*
X41876551Y-91051763D01*
X41727114Y-91049076D01*
X41612355Y-91050693D01*
X41501158Y-91055539D01*
X41391970Y-91063813D01*
X41283235Y-91075710D01*
X41173400Y-91091430D01*
X41060910Y-91111170D01*
X40944212Y-91135128D01*
X40821749Y-91163502D01*
X40751369Y-91180837D01*
X40693906Y-91195485D01*
X40648340Y-91207770D01*
X40613651Y-91218012D01*
X40588818Y-91226534D01*
X40579779Y-91230250D01*
X40572822Y-91233657D01*
X40567819Y-91236796D01*
X40564642Y-91239705D01*
X40563164Y-91242426D01*
X39315281Y-91242426D01*
X39305293Y-91224598D01*
X39263751Y-91150044D01*
X39220484Y-91070959D01*
X39180611Y-90996775D01*
X39149249Y-90936924D01*
X39129579Y-90898336D01*
X39114806Y-90868392D01*
X39109095Y-90856130D01*
X39104415Y-90845393D01*
X39100702Y-90835967D01*
X39097891Y-90827640D01*
X39095918Y-90820201D01*
X39094719Y-90813436D01*
X39094229Y-90807133D01*
X39094383Y-90801080D01*
X39095118Y-90795064D01*
X39096369Y-90788874D01*
X39100161Y-90775120D01*
X39101667Y-90770567D01*
X39103470Y-90765936D01*
X39107919Y-90756488D01*
X39113397Y-90746880D01*
X39119796Y-90737212D01*
X39127007Y-90727590D01*
X39134923Y-90718114D01*
X39143432Y-90708887D01*
X39152428Y-90700012D01*
X39161801Y-90691592D01*
X39171442Y-90683729D01*
X39181243Y-90676525D01*
X39191094Y-90670084D01*
X39200888Y-90664508D01*
X39210514Y-90659900D01*
X39215231Y-90657990D01*
X39219865Y-90656361D01*
X39224403Y-90655025D01*
X39228831Y-90653995D01*
X39235416Y-90652914D01*
X39242392Y-90652287D01*
X39249706Y-90652098D01*
X39257303Y-90652332D01*
X39265129Y-90652976D01*
X39273132Y-90654012D01*
X39281256Y-90655427D01*
X39289448Y-90657205D01*
X39297655Y-90659332D01*
X39305821Y-90661791D01*
X39313894Y-90664569D01*
X39321820Y-90667649D01*
X39329544Y-90671017D01*
X39337013Y-90674658D01*
X39344173Y-90678556D01*
X39350970Y-90682697D01*
X39353219Y-90684309D01*
X39355643Y-90686324D01*
X39361066Y-90691642D01*
X39367335Y-90698808D01*
X39374548Y-90707974D01*
X39382804Y-90719297D01*
X39392199Y-90732931D01*
X39402832Y-90749030D01*
X39414800Y-90767750D01*
X39428201Y-90789245D01*
X39443133Y-90813669D01*
X39477979Y-90871928D01*
X39520120Y-90943764D01*
X39570338Y-91030414D01*
X39606204Y-91092316D01*
X39634071Y-91139404D01*
X39655425Y-91173577D01*
X39664122Y-91186414D01*
X39671749Y-91196733D01*
X39678489Y-91204773D01*
X39684528Y-91210771D01*
X39690053Y-91214963D01*
X39695248Y-91217588D01*
X39700300Y-91218881D01*
X39705393Y-91219082D01*
X39710714Y-91218426D01*
X39716448Y-91217151D01*
X39725709Y-91213970D01*
X39741973Y-91207669D01*
X39764339Y-91198616D01*
X39791905Y-91187179D01*
X39859035Y-91158628D01*
X39936152Y-91124958D01*
X40094898Y-91058138D01*
X40256894Y-90996773D01*
X40421502Y-90941043D01*
X40588089Y-90891125D01*
X40756017Y-90847198D01*
X40924652Y-90809440D01*
X41093358Y-90778030D01*
X41261500Y-90753147D01*
X41378531Y-90741938D01*
X41516428Y-90734999D01*
X41668146Y-90732194D01*
X41826640Y-90733383D01*
X41984865Y-90738431D01*
X42135776Y-90747199D01*
X42272328Y-90759551D01*
X42387476Y-90775349D01*
X42540541Y-90804946D01*
X42690270Y-90840722D01*
X42836466Y-90882561D01*
X42978936Y-90930346D01*
X43117483Y-90983962D01*
X43251914Y-91043293D01*
X43382032Y-91108224D01*
X43507642Y-91178638D01*
X43628550Y-91254421D01*
X43744561Y-91335455D01*
X43855478Y-91421627D01*
X43961108Y-91512819D01*
X44061255Y-91608916D01*
X44155723Y-91709802D01*
X44244319Y-91815362D01*
X44326846Y-91925480D01*
X44365460Y-91981947D01*
X44404832Y-92042786D01*
X44443141Y-92104830D01*
X44478568Y-92164913D01*
X44509291Y-92219869D01*
X44533489Y-92266532D01*
X44542574Y-92285765D01*
X44549344Y-92301736D01*
X44553573Y-92314052D01*
X44555033Y-92322315D01*
X44554742Y-92323733D01*
X44553850Y-92325253D01*
X44552332Y-92326883D01*
X44550161Y-92328633D01*
X44547311Y-92330510D01*
X44543757Y-92332522D01*
X44534428Y-92336985D01*
X44521967Y-92342088D01*
X44506164Y-92347895D01*
X44486810Y-92354474D01*
X44463695Y-92361889D01*
X44436611Y-92370206D01*
X44405349Y-92379490D01*
X44369700Y-92389807D01*
X44329454Y-92401223D01*
X44234337Y-92427614D01*
X44118327Y-92459186D01*
X43838002Y-92537428D01*
X43546879Y-92622965D01*
X43273864Y-92707102D01*
X43047862Y-92781147D01*
X42950628Y-92815206D01*
X42865637Y-92846686D01*
X42790861Y-92876519D01*
X42724276Y-92905638D01*
X42663855Y-92934974D01*
X42607572Y-92965462D01*
X42553401Y-92998032D01*
X42499316Y-93033619D01*
X42433224Y-93080833D01*
X42357095Y-93138702D01*
X42182466Y-93279437D01*
X41990917Y-93441901D01*
X41797932Y-93612169D01*
X41618999Y-93776317D01*
X41469603Y-93920419D01*
X41410821Y-93980602D01*
X41365230Y-94030553D01*
X41334767Y-94068529D01*
X41321368Y-94092792D01*
X41321075Y-94095969D01*
X41321556Y-94100332D01*
X41322876Y-94106006D01*
X41325104Y-94113113D01*
X41332551Y-94132127D01*
X41344433Y-94158364D01*
X41361290Y-94192816D01*
X41383658Y-94236475D01*
X41412075Y-94290331D01*
X41447080Y-94355377D01*
X41539002Y-94523001D01*
X41663726Y-94747277D01*
X41825554Y-95036137D01*
X42028788Y-95397510D01*
X42190485Y-95685093D01*
X42444680Y-96138214D01*
X42574053Y-96366779D01*
X42593795Y-96401234D01*
X42617841Y-96443840D01*
X42643150Y-96489187D01*
X42666682Y-96531864D01*
X42796997Y-96765388D01*
X43036677Y-97192249D01*
X43470562Y-97964638D01*
X43545359Y-98099647D01*
X43575099Y-98156193D01*
X43579048Y-98164768D01*
X43582268Y-98172754D01*
X43587611Y-98187039D01*
X43590280Y-98193381D01*
X43593310Y-98199217D01*
X43596975Y-98204568D01*
X43599131Y-98207068D01*
X43601547Y-98209455D01*
X43604259Y-98211731D01*
X43607299Y-98213899D01*
X43610703Y-98215962D01*
X43614504Y-98217922D01*
X43618736Y-98219781D01*
X43623434Y-98221544D01*
X43634362Y-98224786D01*
X43647560Y-98227669D01*
X43663303Y-98230215D01*
X43681861Y-98232445D01*
X43703508Y-98234379D01*
X43728517Y-98236038D01*
X43757160Y-98237444D01*
X43789710Y-98238618D01*
X43826439Y-98239580D01*
X43913529Y-98240954D01*
X44020610Y-98241736D01*
X44149865Y-98242093D01*
X44303474Y-98242193D01*
X44692484Y-98242298D01*
X45753306Y-98243168D01*
X45803668Y-98300770D01*
X45813932Y-98312929D01*
X45823790Y-98325402D01*
X45833006Y-98337836D01*
X45841345Y-98349878D01*
X45848572Y-98361176D01*
X45851694Y-98366435D01*
X45854449Y-98371376D01*
X45856809Y-98375954D01*
X45858743Y-98380126D01*
X45860222Y-98383847D01*
X45861216Y-98387073D01*
X45861962Y-98390676D01*
X45862440Y-98394466D01*
X45862655Y-98398433D01*
X45862613Y-98402567D01*
X45862319Y-98406857D01*
X45861779Y-98411294D01*
X45859979Y-98420569D01*
X45857255Y-98430309D01*
X45853649Y-98440436D01*
X45849203Y-98450869D01*
X45843959Y-98461527D01*
X45837960Y-98472330D01*
X45831246Y-98483197D01*
X45823860Y-98494049D01*
X45815845Y-98504805D01*
X45807241Y-98515385D01*
X45798092Y-98525707D01*
X45788438Y-98535693D01*
X45778323Y-98545261D01*
X45737261Y-98582355D01*
X37467333Y-98582355D01*
X37411402Y-98522617D01*
X37396331Y-98506127D01*
X37383265Y-98490572D01*
X37377484Y-98483100D01*
X37372204Y-98475807D01*
X37367426Y-98468674D01*
X37363149Y-98461685D01*
X37359373Y-98454819D01*
X37356098Y-98448060D01*
X37353324Y-98441389D01*
X37351051Y-98434787D01*
X37349278Y-98428237D01*
X37348007Y-98421720D01*
X37347236Y-98415219D01*
X37346966Y-98408714D01*
X37347197Y-98402188D01*
X37347928Y-98395622D01*
X37349160Y-98388999D01*
X37350892Y-98382299D01*
X37353125Y-98375505D01*
X37355858Y-98368599D01*
X37359091Y-98361562D01*
X37362824Y-98354376D01*
X37367058Y-98347023D01*
X37371792Y-98339485D01*
X37377025Y-98331743D01*
X37382759Y-98323779D01*
X37395726Y-98307113D01*
X37410693Y-98289341D01*
X37447291Y-98247242D01*
X39416773Y-98239246D01*
X42310259Y-98231251D01*
X43005892Y-98228065D01*
X43177499Y-98224509D01*
X43220113Y-98222178D01*
X43234263Y-98219456D01*
X43226293Y-98203085D01*
X43203452Y-98160401D01*
X43119562Y-98007669D01*
X42995404Y-97784416D01*
X42843791Y-97513798D01*
X42334101Y-96606022D01*
X41812990Y-95681143D01*
X41367541Y-94896488D01*
X41327853Y-94827289D01*
X41188998Y-94587635D01*
X41035578Y-94322941D01*
X41002795Y-94265934D01*
X40944827Y-94272938D01*
X40892406Y-94281340D01*
X40823746Y-94295977D01*
X40646847Y-94341059D01*
X40432413Y-94402395D01*
X40198723Y-94474195D01*
X39964060Y-94550672D01*
X39746705Y-94626034D01*
X39564940Y-94694495D01*
X39493116Y-94724327D01*
X39437045Y-94750263D01*
X39384695Y-94778050D01*
X39328866Y-94810761D01*
X39269427Y-94848505D01*
X39206247Y-94891389D01*
X39139194Y-94939522D01*
X39068139Y-94993010D01*
X38992951Y-95051963D01*
X38913499Y-95116487D01*
X38829653Y-95186691D01*
X38741281Y-95262683D01*
X38550438Y-95432460D01*
X38339926Y-95626682D01*
X38108698Y-95846210D01*
X38017973Y-95932488D01*
X37941899Y-96003145D01*
X37911849Y-96030337D01*
X37888453Y-96050889D01*
X37872707Y-96063888D01*
X37868016Y-96067271D01*
X37865611Y-96068424D01*
X37863222Y-96068264D01*
X37860510Y-96067791D01*
X37854194Y-96065959D01*
X37846812Y-96063031D01*
X37838516Y-96059109D01*
X37829456Y-96054295D01*
X37819785Y-96048692D01*
X37809652Y-96042402D01*
X37799209Y-96035526D01*
X37788607Y-96028168D01*
X37777997Y-96020429D01*
X37767531Y-96012412D01*
X37757358Y-96004218D01*
X37747630Y-95995951D01*
X37738499Y-95987713D01*
X37730114Y-95979604D01*
X37722628Y-95971729D01*
X37704482Y-95949067D01*
X37685037Y-95920046D01*
X37664532Y-95885269D01*
X37643207Y-95845342D01*
X37621302Y-95800869D01*
X37599057Y-95752456D01*
X37576711Y-95700706D01*
X37554504Y-95646225D01*
X37532676Y-95589617D01*
X37511466Y-95531487D01*
X37491115Y-95472439D01*
X37471862Y-95413079D01*
X37453947Y-95354010D01*
X37437609Y-95295839D01*
X37423088Y-95239169D01*
X37410624Y-95184604D01*
X37401475Y-95140527D01*
X37397748Y-95120871D01*
X37394533Y-95101907D01*
X37391792Y-95082964D01*
X37389488Y-95063369D01*
X37387582Y-95042451D01*
X37386035Y-95019539D01*
X37384808Y-94993959D01*
X37383864Y-94965041D01*
X37382669Y-94894501D01*
X37382142Y-94802544D01*
X37381976Y-94683796D01*
X37382096Y-94647167D01*
X37693498Y-94647167D01*
X37694767Y-94762900D01*
X37699947Y-94873411D01*
X37709059Y-94975100D01*
X37715096Y-95021510D01*
X37722125Y-95064365D01*
X37736147Y-95134169D01*
X37753153Y-95208611D01*
X37772080Y-95283956D01*
X37791866Y-95356466D01*
X37811447Y-95422405D01*
X37829762Y-95478037D01*
X37845747Y-95519624D01*
X37852534Y-95533983D01*
X37858340Y-95543430D01*
X37859762Y-95545130D01*
X37861307Y-95546707D01*
X37862970Y-95548159D01*
X37864747Y-95549489D01*
X37866633Y-95550694D01*
X37868623Y-95551777D01*
X37870713Y-95552737D01*
X37872899Y-95553574D01*
X37875175Y-95554289D01*
X37877539Y-95554881D01*
X37879984Y-95555352D01*
X37882507Y-95555700D01*
X37885103Y-95555927D01*
X37887767Y-95556033D01*
X37890495Y-95556018D01*
X37893283Y-95555881D01*
X37896126Y-95555624D01*
X37899020Y-95555247D01*
X37901959Y-95554749D01*
X37904940Y-95554131D01*
X37907958Y-95553394D01*
X37911008Y-95552536D01*
X37914087Y-95551560D01*
X37917189Y-95550464D01*
X37920309Y-95549249D01*
X37923445Y-95547916D01*
X37926590Y-95546464D01*
X37929741Y-95544893D01*
X37932893Y-95543205D01*
X37936041Y-95541399D01*
X37939181Y-95539475D01*
X37942309Y-95537433D01*
X37942286Y-95537922D01*
X37946244Y-95535041D01*
X37952188Y-95530333D01*
X37969553Y-95515855D01*
X37993419Y-95495334D01*
X38022824Y-95469616D01*
X38094408Y-95405970D01*
X38176615Y-95331684D01*
X38414192Y-95118608D01*
X38634275Y-94927408D01*
X38733572Y-94843582D01*
X38823475Y-94769508D01*
X38902309Y-94706615D01*
X38968401Y-94656330D01*
X39029484Y-94611566D01*
X39056681Y-94591923D01*
X39056611Y-94590815D01*
X39055787Y-94587909D01*
X39052023Y-94577072D01*
X39045681Y-94560157D01*
X39037055Y-94537906D01*
X39014116Y-94480373D01*
X38985545Y-94410419D01*
X38950340Y-94323504D01*
X38918103Y-94240428D01*
X38888577Y-94160434D01*
X38861506Y-94082767D01*
X38836635Y-94006671D01*
X38813710Y-93931390D01*
X38792473Y-93856167D01*
X38772669Y-93780247D01*
X38748070Y-93679751D01*
X38728971Y-93594386D01*
X38721274Y-93555505D01*
X38714699Y-93518158D01*
X38709162Y-93481598D01*
X38704579Y-93445074D01*
X38700865Y-93407838D01*
X38697937Y-93369141D01*
X38695710Y-93328233D01*
X38694100Y-93284366D01*
X38692393Y-93184757D01*
X38692141Y-93064319D01*
X38692324Y-93032398D01*
X39021693Y-93032398D01*
X39022475Y-93207506D01*
X39024947Y-93338465D01*
X39026859Y-93388727D01*
X39029244Y-93429560D01*
X39032119Y-93461499D01*
X39035502Y-93485081D01*
X39053585Y-93573970D01*
X39075603Y-93667884D01*
X39100866Y-93764512D01*
X39128683Y-93861543D01*
X39158361Y-93956669D01*
X39189211Y-94047578D01*
X39220540Y-94131961D01*
X39251658Y-94207508D01*
X39288733Y-94292974D01*
X39317820Y-94361149D01*
X39322593Y-94372298D01*
X39327074Y-94382069D01*
X39331382Y-94390503D01*
X39333508Y-94394229D01*
X39335636Y-94397636D01*
X39337781Y-94400728D01*
X39339957Y-94403509D01*
X39342180Y-94405984D01*
X39344465Y-94408159D01*
X39346826Y-94410038D01*
X39349279Y-94411626D01*
X39351838Y-94412928D01*
X39354518Y-94413948D01*
X39357336Y-94414692D01*
X39360304Y-94415164D01*
X39363439Y-94415369D01*
X39366755Y-94415312D01*
X39370268Y-94414998D01*
X39373992Y-94414432D01*
X39377942Y-94413618D01*
X39382134Y-94412561D01*
X39386582Y-94411267D01*
X39391301Y-94409740D01*
X39401613Y-94406005D01*
X39413189Y-94401397D01*
X39426150Y-94395954D01*
X39426135Y-94395893D01*
X39505102Y-94364927D01*
X39618697Y-94324298D01*
X39758635Y-94276688D01*
X39916630Y-94224779D01*
X40253648Y-94118791D01*
X40416099Y-94070076D01*
X40563464Y-94027790D01*
X40834572Y-93952187D01*
X40914682Y-93928952D01*
X40967672Y-93911970D01*
X41000923Y-93898645D01*
X41012454Y-93892543D01*
X41021818Y-93886382D01*
X41037737Y-93872586D01*
X41056063Y-93854664D01*
X41307590Y-93618967D01*
X41550440Y-93396408D01*
X41764651Y-93205063D01*
X41854779Y-93126744D01*
X41930262Y-93063007D01*
X41960979Y-93037269D01*
X41986133Y-93015570D01*
X41995813Y-93006947D01*
X42003129Y-93000190D01*
X42007757Y-92995583D01*
X42008961Y-92994175D01*
X42009371Y-92993412D01*
X42008919Y-92992360D01*
X42007592Y-92990000D01*
X42002494Y-92981637D01*
X41994434Y-92968888D01*
X41983769Y-92952314D01*
X41956058Y-92909948D01*
X41922221Y-92859043D01*
X41854240Y-92760575D01*
X41783451Y-92663930D01*
X41710168Y-92569407D01*
X41634702Y-92477302D01*
X41557367Y-92387913D01*
X41478473Y-92301538D01*
X41398335Y-92218475D01*
X41317264Y-92139021D01*
X41235573Y-92063474D01*
X41153575Y-91992131D01*
X41071581Y-91925291D01*
X40989905Y-91863250D01*
X40908859Y-91806307D01*
X40828755Y-91754760D01*
X40749907Y-91708905D01*
X40672625Y-91669041D01*
X40630349Y-91649110D01*
X40589673Y-91630821D01*
X40550400Y-91614124D01*
X40512333Y-91598969D01*
X40475274Y-91585306D01*
X40439025Y-91573086D01*
X40403388Y-91562258D01*
X40368166Y-91552772D01*
X40333162Y-91544580D01*
X40298176Y-91537630D01*
X40263012Y-91531874D01*
X40227473Y-91527261D01*
X40191359Y-91523742D01*
X40154475Y-91521266D01*
X40116621Y-91519783D01*
X40077601Y-91519245D01*
X40023329Y-91519620D01*
X39977037Y-91521155D01*
X39956375Y-91522439D01*
X39937098Y-91524109D01*
X39919001Y-91526198D01*
X39901882Y-91528738D01*
X39885536Y-91531761D01*
X39869760Y-91535298D01*
X39854351Y-91539384D01*
X39839104Y-91544048D01*
X39823817Y-91549324D01*
X39808286Y-91555243D01*
X39775675Y-91569141D01*
X39748858Y-91582328D01*
X39720582Y-91598091D01*
X39691089Y-91616221D01*
X39660622Y-91636511D01*
X39629420Y-91658753D01*
X39597727Y-91682739D01*
X39565783Y-91708262D01*
X39533829Y-91735113D01*
X39502108Y-91763085D01*
X39470861Y-91791971D01*
X39440329Y-91821562D01*
X39410753Y-91851651D01*
X39382376Y-91882030D01*
X39355439Y-91912490D01*
X39330183Y-91942826D01*
X39306849Y-91972828D01*
X39287627Y-91999452D01*
X39268717Y-92027555D01*
X39250147Y-92057079D01*
X39231939Y-92087968D01*
X39214121Y-92120166D01*
X39196717Y-92153616D01*
X39179752Y-92188262D01*
X39163252Y-92224047D01*
X39147242Y-92260914D01*
X39131748Y-92298808D01*
X39116793Y-92337672D01*
X39102405Y-92377449D01*
X39088607Y-92418082D01*
X39075426Y-92459516D01*
X39062886Y-92501694D01*
X39051013Y-92544559D01*
X39021723Y-92654285D01*
X39021693Y-93032398D01*
X38692324Y-93032398D01*
X38692798Y-92949497D01*
X38694518Y-92853117D01*
X38697639Y-92771282D01*
X38702501Y-92700098D01*
X38709441Y-92635667D01*
X38718797Y-92574095D01*
X38730908Y-92511486D01*
X38746111Y-92443943D01*
X38751470Y-92420728D01*
X38756315Y-92398601D01*
X38760550Y-92378082D01*
X38764081Y-92359690D01*
X38766814Y-92343943D01*
X38768654Y-92331361D01*
X38769505Y-92322463D01*
X38769531Y-92319558D01*
X38769274Y-92317768D01*
X38767851Y-92316491D01*
X38765062Y-92316945D01*
X38760968Y-92319066D01*
X38755627Y-92322785D01*
X38741440Y-92334752D01*
X38722974Y-92352313D01*
X38700700Y-92374933D01*
X38675089Y-92402078D01*
X38615747Y-92467806D01*
X38548721Y-92545223D01*
X38477786Y-92630056D01*
X38406715Y-92718031D01*
X38372307Y-92761861D01*
X38339282Y-92804874D01*
X38323033Y-92826808D01*
X38305143Y-92851826D01*
X38286197Y-92879055D01*
X38266784Y-92907623D01*
X38247490Y-92936660D01*
X38228902Y-92965292D01*
X38211607Y-92992648D01*
X38196192Y-93017856D01*
X38158180Y-93084019D01*
X38114143Y-93165058D01*
X38066655Y-93255829D01*
X38018287Y-93351185D01*
X37971612Y-93445980D01*
X37929202Y-93535068D01*
X37893629Y-93613304D01*
X37867465Y-93675541D01*
X37847419Y-93729815D01*
X37827375Y-93790142D01*
X37807690Y-93855180D01*
X37788719Y-93923584D01*
X37770820Y-93994012D01*
X37754349Y-94065122D01*
X37739664Y-94135570D01*
X37727122Y-94204014D01*
X37719560Y-94252952D01*
X37712953Y-94304634D01*
X37702612Y-94414434D01*
X37696120Y-94529811D01*
X37693498Y-94647167D01*
X37382096Y-94647167D01*
X37382441Y-94541570D01*
X37384393Y-94423262D01*
X37388344Y-94323579D01*
X37394807Y-94237230D01*
X37404298Y-94158923D01*
X37417328Y-94083365D01*
X37434413Y-94005265D01*
X37456065Y-93919330D01*
X37481274Y-93827733D01*
X37508337Y-93737616D01*
X37537312Y-93648858D01*
X37568257Y-93561339D01*
X37601231Y-93474940D01*
X37636293Y-93389542D01*
X37673499Y-93305023D01*
X37712908Y-93221264D01*
X37754579Y-93138145D01*
X37798571Y-93055546D01*
X37844940Y-92973348D01*
X37893745Y-92891431D01*
X37945046Y-92809674D01*
X37998899Y-92727957D01*
X38055363Y-92646162D01*
X38114497Y-92564167D01*
X38160181Y-92503220D01*
X38205062Y-92445727D01*
X38250448Y-92390196D01*
X38297650Y-92335134D01*
X38347976Y-92279049D01*
X38402738Y-92220447D01*
X38463243Y-92157837D01*
X38530802Y-92089725D01*
X38621870Y-92000478D01*
X38708779Y-91918858D01*
X38793597Y-91843174D01*
X38878389Y-91771738D01*
X38965222Y-91702859D01*
X39056162Y-91634846D01*
X39153277Y-91566011D01*
X39258631Y-91494663D01*
X39313429Y-91457901D01*
X39358304Y-91427160D01*
X39388624Y-91405646D01*
X39396879Y-91399351D01*
X39399028Y-91397494D01*
X39399760Y-91396564D01*
X39397832Y-91392381D01*
X39392306Y-91381812D01*
X39372010Y-91344393D01*
X39341972Y-91290068D01*
X39315281Y-91242426D01*
G37*
X39315281Y-91242426D02*
X40563164Y-91242426D01*
X40563258Y-91244999D01*
X40563627Y-91245638D01*
X40564335Y-91246426D01*
X40566732Y-91248435D01*
X40570381Y-91250987D01*
X40575209Y-91254044D01*
X40581149Y-91257568D01*
X40588128Y-91261521D01*
X40604929Y-91270563D01*
X40625052Y-91280866D01*
X40647936Y-91292126D01*
X40673021Y-91304040D01*
X40699748Y-91316303D01*
X40762191Y-91344997D01*
X40819217Y-91372379D01*
X40872117Y-91399169D01*
X40922185Y-91426086D01*
X40970714Y-91453849D01*
X41018996Y-91483175D01*
X41068324Y-91514785D01*
X41119990Y-91549396D01*
X41191828Y-91599917D01*
X41262965Y-91652932D01*
X41333364Y-91708403D01*
X41402988Y-91766291D01*
X41471801Y-91826559D01*
X41539764Y-91889167D01*
X41606843Y-91954078D01*
X41672999Y-92021253D01*
X41738196Y-92090655D01*
X41802397Y-92162244D01*
X41865565Y-92235983D01*
X41927663Y-92311832D01*
X41988655Y-92389755D01*
X42048503Y-92469713D01*
X42107171Y-92551666D01*
X42164622Y-92635578D01*
X42204426Y-92694518D01*
X42237679Y-92742779D01*
X42260905Y-92775383D01*
X42267670Y-92784260D01*
X42269651Y-92786570D01*
X42270625Y-92787357D01*
X42271464Y-92787102D01*
X42273052Y-92786355D01*
X42278311Y-92783483D01*
X42286073Y-92778942D01*
X42296008Y-92772934D01*
X42307787Y-92765660D01*
X42321080Y-92757321D01*
X42335559Y-92748119D01*
X42350894Y-92738254D01*
X42350886Y-92738315D01*
X42388163Y-92715475D01*
X42430806Y-92691678D01*
X42478604Y-92667006D01*
X42531349Y-92641541D01*
X42588831Y-92615363D01*
X42650840Y-92588554D01*
X42787607Y-92533363D01*
X42939974Y-92476618D01*
X43106268Y-92418965D01*
X43284815Y-92361054D01*
X43473940Y-92303531D01*
X43798808Y-92208027D01*
X43933314Y-92168069D01*
X43978195Y-92154138D01*
X44010680Y-92143354D01*
X44032658Y-92135054D01*
X44046017Y-92128575D01*
X44050056Y-92125811D01*
X44052648Y-92123254D01*
X44054030Y-92120820D01*
X44054438Y-92118427D01*
X44053879Y-92114547D01*
X44052236Y-92109601D01*
X44045890Y-92096743D01*
X44035792Y-92080311D01*
X44022331Y-92060765D01*
X44005898Y-92038563D01*
X43986884Y-92014163D01*
X43965680Y-91988025D01*
X43942677Y-91960605D01*
X43918265Y-91932365D01*
X43892834Y-91903760D01*
X43866776Y-91875252D01*
X43840482Y-91847297D01*
X43814341Y-91820354D01*
X43788744Y-91794882D01*
X43764083Y-91771341D01*
X43740748Y-91750187D01*
X43639772Y-91665684D01*
X43535307Y-91586545D01*
X43427390Y-91512785D01*
X43316058Y-91444414D01*
X43201347Y-91381447D01*
X43083295Y-91323895D01*
X42961938Y-91271773D01*
X42837314Y-91225092D01*
X42709459Y-91183865D01*
X42578410Y-91148105D01*
X42444204Y-91117826D01*
X42306879Y-91093039D01*
X42166470Y-91073758D01*
X42023015Y-91059995D01*
X41876551Y-91051763D01*
X41727114Y-91049076D01*
X41612355Y-91050693D01*
X41501158Y-91055539D01*
X41391970Y-91063813D01*
X41283235Y-91075710D01*
X41173400Y-91091430D01*
X41060910Y-91111170D01*
X40944212Y-91135128D01*
X40821749Y-91163502D01*
X40751369Y-91180837D01*
X40693906Y-91195485D01*
X40648340Y-91207770D01*
X40613651Y-91218012D01*
X40588818Y-91226534D01*
X40579779Y-91230250D01*
X40572822Y-91233657D01*
X40567819Y-91236796D01*
X40564642Y-91239705D01*
X40563164Y-91242426D01*
X39315281Y-91242426D01*
X39305293Y-91224598D01*
X39263751Y-91150044D01*
X39220484Y-91070959D01*
X39180611Y-90996775D01*
X39149249Y-90936924D01*
X39129579Y-90898336D01*
X39114806Y-90868392D01*
X39109095Y-90856130D01*
X39104415Y-90845393D01*
X39100702Y-90835967D01*
X39097891Y-90827640D01*
X39095918Y-90820201D01*
X39094719Y-90813436D01*
X39094229Y-90807133D01*
X39094383Y-90801080D01*
X39095118Y-90795064D01*
X39096369Y-90788874D01*
X39100161Y-90775120D01*
X39101667Y-90770567D01*
X39103470Y-90765936D01*
X39107919Y-90756488D01*
X39113397Y-90746880D01*
X39119796Y-90737212D01*
X39127007Y-90727590D01*
X39134923Y-90718114D01*
X39143432Y-90708887D01*
X39152428Y-90700012D01*
X39161801Y-90691592D01*
X39171442Y-90683729D01*
X39181243Y-90676525D01*
X39191094Y-90670084D01*
X39200888Y-90664508D01*
X39210514Y-90659900D01*
X39215231Y-90657990D01*
X39219865Y-90656361D01*
X39224403Y-90655025D01*
X39228831Y-90653995D01*
X39235416Y-90652914D01*
X39242392Y-90652287D01*
X39249706Y-90652098D01*
X39257303Y-90652332D01*
X39265129Y-90652976D01*
X39273132Y-90654012D01*
X39281256Y-90655427D01*
X39289448Y-90657205D01*
X39297655Y-90659332D01*
X39305821Y-90661791D01*
X39313894Y-90664569D01*
X39321820Y-90667649D01*
X39329544Y-90671017D01*
X39337013Y-90674658D01*
X39344173Y-90678556D01*
X39350970Y-90682697D01*
X39353219Y-90684309D01*
X39355643Y-90686324D01*
X39361066Y-90691642D01*
X39367335Y-90698808D01*
X39374548Y-90707974D01*
X39382804Y-90719297D01*
X39392199Y-90732931D01*
X39402832Y-90749030D01*
X39414800Y-90767750D01*
X39428201Y-90789245D01*
X39443133Y-90813669D01*
X39477979Y-90871928D01*
X39520120Y-90943764D01*
X39570338Y-91030414D01*
X39606204Y-91092316D01*
X39634071Y-91139404D01*
X39655425Y-91173577D01*
X39664122Y-91186414D01*
X39671749Y-91196733D01*
X39678489Y-91204773D01*
X39684528Y-91210771D01*
X39690053Y-91214963D01*
X39695248Y-91217588D01*
X39700300Y-91218881D01*
X39705393Y-91219082D01*
X39710714Y-91218426D01*
X39716448Y-91217151D01*
X39725709Y-91213970D01*
X39741973Y-91207669D01*
X39764339Y-91198616D01*
X39791905Y-91187179D01*
X39859035Y-91158628D01*
X39936152Y-91124958D01*
X40094898Y-91058138D01*
X40256894Y-90996773D01*
X40421502Y-90941043D01*
X40588089Y-90891125D01*
X40756017Y-90847198D01*
X40924652Y-90809440D01*
X41093358Y-90778030D01*
X41261500Y-90753147D01*
X41378531Y-90741938D01*
X41516428Y-90734999D01*
X41668146Y-90732194D01*
X41826640Y-90733383D01*
X41984865Y-90738431D01*
X42135776Y-90747199D01*
X42272328Y-90759551D01*
X42387476Y-90775349D01*
X42540541Y-90804946D01*
X42690270Y-90840722D01*
X42836466Y-90882561D01*
X42978936Y-90930346D01*
X43117483Y-90983962D01*
X43251914Y-91043293D01*
X43382032Y-91108224D01*
X43507642Y-91178638D01*
X43628550Y-91254421D01*
X43744561Y-91335455D01*
X43855478Y-91421627D01*
X43961108Y-91512819D01*
X44061255Y-91608916D01*
X44155723Y-91709802D01*
X44244319Y-91815362D01*
X44326846Y-91925480D01*
X44365460Y-91981947D01*
X44404832Y-92042786D01*
X44443141Y-92104830D01*
X44478568Y-92164913D01*
X44509291Y-92219869D01*
X44533489Y-92266532D01*
X44542574Y-92285765D01*
X44549344Y-92301736D01*
X44553573Y-92314052D01*
X44555033Y-92322315D01*
X44554742Y-92323733D01*
X44553850Y-92325253D01*
X44552332Y-92326883D01*
X44550161Y-92328633D01*
X44547311Y-92330510D01*
X44543757Y-92332522D01*
X44534428Y-92336985D01*
X44521967Y-92342088D01*
X44506164Y-92347895D01*
X44486810Y-92354474D01*
X44463695Y-92361889D01*
X44436611Y-92370206D01*
X44405349Y-92379490D01*
X44369700Y-92389807D01*
X44329454Y-92401223D01*
X44234337Y-92427614D01*
X44118327Y-92459186D01*
X43838002Y-92537428D01*
X43546879Y-92622965D01*
X43273864Y-92707102D01*
X43047862Y-92781147D01*
X42950628Y-92815206D01*
X42865637Y-92846686D01*
X42790861Y-92876519D01*
X42724276Y-92905638D01*
X42663855Y-92934974D01*
X42607572Y-92965462D01*
X42553401Y-92998032D01*
X42499316Y-93033619D01*
X42433224Y-93080833D01*
X42357095Y-93138702D01*
X42182466Y-93279437D01*
X41990917Y-93441901D01*
X41797932Y-93612169D01*
X41618999Y-93776317D01*
X41469603Y-93920419D01*
X41410821Y-93980602D01*
X41365230Y-94030553D01*
X41334767Y-94068529D01*
X41321368Y-94092792D01*
X41321075Y-94095969D01*
X41321556Y-94100332D01*
X41322876Y-94106006D01*
X41325104Y-94113113D01*
X41332551Y-94132127D01*
X41344433Y-94158364D01*
X41361290Y-94192816D01*
X41383658Y-94236475D01*
X41412075Y-94290331D01*
X41447080Y-94355377D01*
X41539002Y-94523001D01*
X41663726Y-94747277D01*
X41825554Y-95036137D01*
X42028788Y-95397510D01*
X42190485Y-95685093D01*
X42444680Y-96138214D01*
X42574053Y-96366779D01*
X42593795Y-96401234D01*
X42617841Y-96443840D01*
X42643150Y-96489187D01*
X42666682Y-96531864D01*
X42796997Y-96765388D01*
X43036677Y-97192249D01*
X43470562Y-97964638D01*
X43545359Y-98099647D01*
X43575099Y-98156193D01*
X43579048Y-98164768D01*
X43582268Y-98172754D01*
X43587611Y-98187039D01*
X43590280Y-98193381D01*
X43593310Y-98199217D01*
X43596975Y-98204568D01*
X43599131Y-98207068D01*
X43601547Y-98209455D01*
X43604259Y-98211731D01*
X43607299Y-98213899D01*
X43610703Y-98215962D01*
X43614504Y-98217922D01*
X43618736Y-98219781D01*
X43623434Y-98221544D01*
X43634362Y-98224786D01*
X43647560Y-98227669D01*
X43663303Y-98230215D01*
X43681861Y-98232445D01*
X43703508Y-98234379D01*
X43728517Y-98236038D01*
X43757160Y-98237444D01*
X43789710Y-98238618D01*
X43826439Y-98239580D01*
X43913529Y-98240954D01*
X44020610Y-98241736D01*
X44149865Y-98242093D01*
X44303474Y-98242193D01*
X44692484Y-98242298D01*
X45753306Y-98243168D01*
X45803668Y-98300770D01*
X45813932Y-98312929D01*
X45823790Y-98325402D01*
X45833006Y-98337836D01*
X45841345Y-98349878D01*
X45848572Y-98361176D01*
X45851694Y-98366435D01*
X45854449Y-98371376D01*
X45856809Y-98375954D01*
X45858743Y-98380126D01*
X45860222Y-98383847D01*
X45861216Y-98387073D01*
X45861962Y-98390676D01*
X45862440Y-98394466D01*
X45862655Y-98398433D01*
X45862613Y-98402567D01*
X45862319Y-98406857D01*
X45861779Y-98411294D01*
X45859979Y-98420569D01*
X45857255Y-98430309D01*
X45853649Y-98440436D01*
X45849203Y-98450869D01*
X45843959Y-98461527D01*
X45837960Y-98472330D01*
X45831246Y-98483197D01*
X45823860Y-98494049D01*
X45815845Y-98504805D01*
X45807241Y-98515385D01*
X45798092Y-98525707D01*
X45788438Y-98535693D01*
X45778323Y-98545261D01*
X45737261Y-98582355D01*
X37467333Y-98582355D01*
X37411402Y-98522617D01*
X37396331Y-98506127D01*
X37383265Y-98490572D01*
X37377484Y-98483100D01*
X37372204Y-98475807D01*
X37367426Y-98468674D01*
X37363149Y-98461685D01*
X37359373Y-98454819D01*
X37356098Y-98448060D01*
X37353324Y-98441389D01*
X37351051Y-98434787D01*
X37349278Y-98428237D01*
X37348007Y-98421720D01*
X37347236Y-98415219D01*
X37346966Y-98408714D01*
X37347197Y-98402188D01*
X37347928Y-98395622D01*
X37349160Y-98388999D01*
X37350892Y-98382299D01*
X37353125Y-98375505D01*
X37355858Y-98368599D01*
X37359091Y-98361562D01*
X37362824Y-98354376D01*
X37367058Y-98347023D01*
X37371792Y-98339485D01*
X37377025Y-98331743D01*
X37382759Y-98323779D01*
X37395726Y-98307113D01*
X37410693Y-98289341D01*
X37447291Y-98247242D01*
X39416773Y-98239246D01*
X42310259Y-98231251D01*
X43005892Y-98228065D01*
X43177499Y-98224509D01*
X43220113Y-98222178D01*
X43234263Y-98219456D01*
X43226293Y-98203085D01*
X43203452Y-98160401D01*
X43119562Y-98007669D01*
X42995404Y-97784416D01*
X42843791Y-97513798D01*
X42334101Y-96606022D01*
X41812990Y-95681143D01*
X41367541Y-94896488D01*
X41327853Y-94827289D01*
X41188998Y-94587635D01*
X41035578Y-94322941D01*
X41002795Y-94265934D01*
X40944827Y-94272938D01*
X40892406Y-94281340D01*
X40823746Y-94295977D01*
X40646847Y-94341059D01*
X40432413Y-94402395D01*
X40198723Y-94474195D01*
X39964060Y-94550672D01*
X39746705Y-94626034D01*
X39564940Y-94694495D01*
X39493116Y-94724327D01*
X39437045Y-94750263D01*
X39384695Y-94778050D01*
X39328866Y-94810761D01*
X39269427Y-94848505D01*
X39206247Y-94891389D01*
X39139194Y-94939522D01*
X39068139Y-94993010D01*
X38992951Y-95051963D01*
X38913499Y-95116487D01*
X38829653Y-95186691D01*
X38741281Y-95262683D01*
X38550438Y-95432460D01*
X38339926Y-95626682D01*
X38108698Y-95846210D01*
X38017973Y-95932488D01*
X37941899Y-96003145D01*
X37911849Y-96030337D01*
X37888453Y-96050889D01*
X37872707Y-96063888D01*
X37868016Y-96067271D01*
X37865611Y-96068424D01*
X37863222Y-96068264D01*
X37860510Y-96067791D01*
X37854194Y-96065959D01*
X37846812Y-96063031D01*
X37838516Y-96059109D01*
X37829456Y-96054295D01*
X37819785Y-96048692D01*
X37809652Y-96042402D01*
X37799209Y-96035526D01*
X37788607Y-96028168D01*
X37777997Y-96020429D01*
X37767531Y-96012412D01*
X37757358Y-96004218D01*
X37747630Y-95995951D01*
X37738499Y-95987713D01*
X37730114Y-95979604D01*
X37722628Y-95971729D01*
X37704482Y-95949067D01*
X37685037Y-95920046D01*
X37664532Y-95885269D01*
X37643207Y-95845342D01*
X37621302Y-95800869D01*
X37599057Y-95752456D01*
X37576711Y-95700706D01*
X37554504Y-95646225D01*
X37532676Y-95589617D01*
X37511466Y-95531487D01*
X37491115Y-95472439D01*
X37471862Y-95413079D01*
X37453947Y-95354010D01*
X37437609Y-95295839D01*
X37423088Y-95239169D01*
X37410624Y-95184604D01*
X37401475Y-95140527D01*
X37397748Y-95120871D01*
X37394533Y-95101907D01*
X37391792Y-95082964D01*
X37389488Y-95063369D01*
X37387582Y-95042451D01*
X37386035Y-95019539D01*
X37384808Y-94993959D01*
X37383864Y-94965041D01*
X37382669Y-94894501D01*
X37382142Y-94802544D01*
X37381976Y-94683796D01*
X37382096Y-94647167D01*
X37693498Y-94647167D01*
X37694767Y-94762900D01*
X37699947Y-94873411D01*
X37709059Y-94975100D01*
X37715096Y-95021510D01*
X37722125Y-95064365D01*
X37736147Y-95134169D01*
X37753153Y-95208611D01*
X37772080Y-95283956D01*
X37791866Y-95356466D01*
X37811447Y-95422405D01*
X37829762Y-95478037D01*
X37845747Y-95519624D01*
X37852534Y-95533983D01*
X37858340Y-95543430D01*
X37859762Y-95545130D01*
X37861307Y-95546707D01*
X37862970Y-95548159D01*
X37864747Y-95549489D01*
X37866633Y-95550694D01*
X37868623Y-95551777D01*
X37870713Y-95552737D01*
X37872899Y-95553574D01*
X37875175Y-95554289D01*
X37877539Y-95554881D01*
X37879984Y-95555352D01*
X37882507Y-95555700D01*
X37885103Y-95555927D01*
X37887767Y-95556033D01*
X37890495Y-95556018D01*
X37893283Y-95555881D01*
X37896126Y-95555624D01*
X37899020Y-95555247D01*
X37901959Y-95554749D01*
X37904940Y-95554131D01*
X37907958Y-95553394D01*
X37911008Y-95552536D01*
X37914087Y-95551560D01*
X37917189Y-95550464D01*
X37920309Y-95549249D01*
X37923445Y-95547916D01*
X37926590Y-95546464D01*
X37929741Y-95544893D01*
X37932893Y-95543205D01*
X37936041Y-95541399D01*
X37939181Y-95539475D01*
X37942309Y-95537433D01*
X37942286Y-95537922D01*
X37946244Y-95535041D01*
X37952188Y-95530333D01*
X37969553Y-95515855D01*
X37993419Y-95495334D01*
X38022824Y-95469616D01*
X38094408Y-95405970D01*
X38176615Y-95331684D01*
X38414192Y-95118608D01*
X38634275Y-94927408D01*
X38733572Y-94843582D01*
X38823475Y-94769508D01*
X38902309Y-94706615D01*
X38968401Y-94656330D01*
X39029484Y-94611566D01*
X39056681Y-94591923D01*
X39056611Y-94590815D01*
X39055787Y-94587909D01*
X39052023Y-94577072D01*
X39045681Y-94560157D01*
X39037055Y-94537906D01*
X39014116Y-94480373D01*
X38985545Y-94410419D01*
X38950340Y-94323504D01*
X38918103Y-94240428D01*
X38888577Y-94160434D01*
X38861506Y-94082767D01*
X38836635Y-94006671D01*
X38813710Y-93931390D01*
X38792473Y-93856167D01*
X38772669Y-93780247D01*
X38748070Y-93679751D01*
X38728971Y-93594386D01*
X38721274Y-93555505D01*
X38714699Y-93518158D01*
X38709162Y-93481598D01*
X38704579Y-93445074D01*
X38700865Y-93407838D01*
X38697937Y-93369141D01*
X38695710Y-93328233D01*
X38694100Y-93284366D01*
X38692393Y-93184757D01*
X38692141Y-93064319D01*
X38692324Y-93032398D01*
X39021693Y-93032398D01*
X39022475Y-93207506D01*
X39024947Y-93338465D01*
X39026859Y-93388727D01*
X39029244Y-93429560D01*
X39032119Y-93461499D01*
X39035502Y-93485081D01*
X39053585Y-93573970D01*
X39075603Y-93667884D01*
X39100866Y-93764512D01*
X39128683Y-93861543D01*
X39158361Y-93956669D01*
X39189211Y-94047578D01*
X39220540Y-94131961D01*
X39251658Y-94207508D01*
X39288733Y-94292974D01*
X39317820Y-94361149D01*
X39322593Y-94372298D01*
X39327074Y-94382069D01*
X39331382Y-94390503D01*
X39333508Y-94394229D01*
X39335636Y-94397636D01*
X39337781Y-94400728D01*
X39339957Y-94403509D01*
X39342180Y-94405984D01*
X39344465Y-94408159D01*
X39346826Y-94410038D01*
X39349279Y-94411626D01*
X39351838Y-94412928D01*
X39354518Y-94413948D01*
X39357336Y-94414692D01*
X39360304Y-94415164D01*
X39363439Y-94415369D01*
X39366755Y-94415312D01*
X39370268Y-94414998D01*
X39373992Y-94414432D01*
X39377942Y-94413618D01*
X39382134Y-94412561D01*
X39386582Y-94411267D01*
X39391301Y-94409740D01*
X39401613Y-94406005D01*
X39413189Y-94401397D01*
X39426150Y-94395954D01*
X39426135Y-94395893D01*
X39505102Y-94364927D01*
X39618697Y-94324298D01*
X39758635Y-94276688D01*
X39916630Y-94224779D01*
X40253648Y-94118791D01*
X40416099Y-94070076D01*
X40563464Y-94027790D01*
X40834572Y-93952187D01*
X40914682Y-93928952D01*
X40967672Y-93911970D01*
X41000923Y-93898645D01*
X41012454Y-93892543D01*
X41021818Y-93886382D01*
X41037737Y-93872586D01*
X41056063Y-93854664D01*
X41307590Y-93618967D01*
X41550440Y-93396408D01*
X41764651Y-93205063D01*
X41854779Y-93126744D01*
X41930262Y-93063007D01*
X41960979Y-93037269D01*
X41986133Y-93015570D01*
X41995813Y-93006947D01*
X42003129Y-93000190D01*
X42007757Y-92995583D01*
X42008961Y-92994175D01*
X42009371Y-92993412D01*
X42008919Y-92992360D01*
X42007592Y-92990000D01*
X42002494Y-92981637D01*
X41994434Y-92968888D01*
X41983769Y-92952314D01*
X41956058Y-92909948D01*
X41922221Y-92859043D01*
X41854240Y-92760575D01*
X41783451Y-92663930D01*
X41710168Y-92569407D01*
X41634702Y-92477302D01*
X41557367Y-92387913D01*
X41478473Y-92301538D01*
X41398335Y-92218475D01*
X41317264Y-92139021D01*
X41235573Y-92063474D01*
X41153575Y-91992131D01*
X41071581Y-91925291D01*
X40989905Y-91863250D01*
X40908859Y-91806307D01*
X40828755Y-91754760D01*
X40749907Y-91708905D01*
X40672625Y-91669041D01*
X40630349Y-91649110D01*
X40589673Y-91630821D01*
X40550400Y-91614124D01*
X40512333Y-91598969D01*
X40475274Y-91585306D01*
X40439025Y-91573086D01*
X40403388Y-91562258D01*
X40368166Y-91552772D01*
X40333162Y-91544580D01*
X40298176Y-91537630D01*
X40263012Y-91531874D01*
X40227473Y-91527261D01*
X40191359Y-91523742D01*
X40154475Y-91521266D01*
X40116621Y-91519783D01*
X40077601Y-91519245D01*
X40023329Y-91519620D01*
X39977037Y-91521155D01*
X39956375Y-91522439D01*
X39937098Y-91524109D01*
X39919001Y-91526198D01*
X39901882Y-91528738D01*
X39885536Y-91531761D01*
X39869760Y-91535298D01*
X39854351Y-91539384D01*
X39839104Y-91544048D01*
X39823817Y-91549324D01*
X39808286Y-91555243D01*
X39775675Y-91569141D01*
X39748858Y-91582328D01*
X39720582Y-91598091D01*
X39691089Y-91616221D01*
X39660622Y-91636511D01*
X39629420Y-91658753D01*
X39597727Y-91682739D01*
X39565783Y-91708262D01*
X39533829Y-91735113D01*
X39502108Y-91763085D01*
X39470861Y-91791971D01*
X39440329Y-91821562D01*
X39410753Y-91851651D01*
X39382376Y-91882030D01*
X39355439Y-91912490D01*
X39330183Y-91942826D01*
X39306849Y-91972828D01*
X39287627Y-91999452D01*
X39268717Y-92027555D01*
X39250147Y-92057079D01*
X39231939Y-92087968D01*
X39214121Y-92120166D01*
X39196717Y-92153616D01*
X39179752Y-92188262D01*
X39163252Y-92224047D01*
X39147242Y-92260914D01*
X39131748Y-92298808D01*
X39116793Y-92337672D01*
X39102405Y-92377449D01*
X39088607Y-92418082D01*
X39075426Y-92459516D01*
X39062886Y-92501694D01*
X39051013Y-92544559D01*
X39021723Y-92654285D01*
X39021693Y-93032398D01*
X38692324Y-93032398D01*
X38692798Y-92949497D01*
X38694518Y-92853117D01*
X38697639Y-92771282D01*
X38702501Y-92700098D01*
X38709441Y-92635667D01*
X38718797Y-92574095D01*
X38730908Y-92511486D01*
X38746111Y-92443943D01*
X38751470Y-92420728D01*
X38756315Y-92398601D01*
X38760550Y-92378082D01*
X38764081Y-92359690D01*
X38766814Y-92343943D01*
X38768654Y-92331361D01*
X38769505Y-92322463D01*
X38769531Y-92319558D01*
X38769274Y-92317768D01*
X38767851Y-92316491D01*
X38765062Y-92316945D01*
X38760968Y-92319066D01*
X38755627Y-92322785D01*
X38741440Y-92334752D01*
X38722974Y-92352313D01*
X38700700Y-92374933D01*
X38675089Y-92402078D01*
X38615747Y-92467806D01*
X38548721Y-92545223D01*
X38477786Y-92630056D01*
X38406715Y-92718031D01*
X38372307Y-92761861D01*
X38339282Y-92804874D01*
X38323033Y-92826808D01*
X38305143Y-92851826D01*
X38286197Y-92879055D01*
X38266784Y-92907623D01*
X38247490Y-92936660D01*
X38228902Y-92965292D01*
X38211607Y-92992648D01*
X38196192Y-93017856D01*
X38158180Y-93084019D01*
X38114143Y-93165058D01*
X38066655Y-93255829D01*
X38018287Y-93351185D01*
X37971612Y-93445980D01*
X37929202Y-93535068D01*
X37893629Y-93613304D01*
X37867465Y-93675541D01*
X37847419Y-93729815D01*
X37827375Y-93790142D01*
X37807690Y-93855180D01*
X37788719Y-93923584D01*
X37770820Y-93994012D01*
X37754349Y-94065122D01*
X37739664Y-94135570D01*
X37727122Y-94204014D01*
X37719560Y-94252952D01*
X37712953Y-94304634D01*
X37702612Y-94414434D01*
X37696120Y-94529811D01*
X37693498Y-94647167D01*
X37382096Y-94647167D01*
X37382441Y-94541570D01*
X37384393Y-94423262D01*
X37388344Y-94323579D01*
X37394807Y-94237230D01*
X37404298Y-94158923D01*
X37417328Y-94083365D01*
X37434413Y-94005265D01*
X37456065Y-93919330D01*
X37481274Y-93827733D01*
X37508337Y-93737616D01*
X37537312Y-93648858D01*
X37568257Y-93561339D01*
X37601231Y-93474940D01*
X37636293Y-93389542D01*
X37673499Y-93305023D01*
X37712908Y-93221264D01*
X37754579Y-93138145D01*
X37798571Y-93055546D01*
X37844940Y-92973348D01*
X37893745Y-92891431D01*
X37945046Y-92809674D01*
X37998899Y-92727957D01*
X38055363Y-92646162D01*
X38114497Y-92564167D01*
X38160181Y-92503220D01*
X38205062Y-92445727D01*
X38250448Y-92390196D01*
X38297650Y-92335134D01*
X38347976Y-92279049D01*
X38402738Y-92220447D01*
X38463243Y-92157837D01*
X38530802Y-92089725D01*
X38621870Y-92000478D01*
X38708779Y-91918858D01*
X38793597Y-91843174D01*
X38878389Y-91771738D01*
X38965222Y-91702859D01*
X39056162Y-91634846D01*
X39153277Y-91566011D01*
X39258631Y-91494663D01*
X39313429Y-91457901D01*
X39358304Y-91427160D01*
X39388624Y-91405646D01*
X39396879Y-91399351D01*
X39399028Y-91397494D01*
X39399760Y-91396564D01*
X39397832Y-91392381D01*
X39392306Y-91381812D01*
X39372010Y-91344393D01*
X39341972Y-91290068D01*
X39315281Y-91242426D01*
D13*
G36*
X23248308Y-85074342D02*
G01*
X23379623Y-85081272D01*
X23509662Y-85094615D01*
X23638181Y-85114291D01*
X23764933Y-85140214D01*
X23889672Y-85172301D01*
X24012152Y-85210468D01*
X24132127Y-85254633D01*
X24249350Y-85304711D01*
X24363576Y-85360620D01*
X24474558Y-85422274D01*
X24582050Y-85489592D01*
X24685806Y-85562488D01*
X24785580Y-85640881D01*
X24881126Y-85724686D01*
X24915017Y-85756007D01*
X24944945Y-85783440D01*
X24971155Y-85807112D01*
X24993892Y-85827151D01*
X25013401Y-85843684D01*
X25022022Y-85850676D01*
X25029928Y-85856839D01*
X25037149Y-85862190D01*
X25043717Y-85866743D01*
X25049661Y-85870516D01*
X25055013Y-85873524D01*
X25059804Y-85875783D01*
X25064063Y-85877308D01*
X25067822Y-85878117D01*
X25069523Y-85878258D01*
X25071111Y-85878225D01*
X25072588Y-85878021D01*
X25073960Y-85877647D01*
X25075230Y-85877107D01*
X25076401Y-85876400D01*
X25077478Y-85875531D01*
X25078464Y-85874500D01*
X25079364Y-85873310D01*
X25080180Y-85871963D01*
X25081580Y-85868803D01*
X25082693Y-85865039D01*
X25083551Y-85860685D01*
X25084184Y-85855757D01*
X25084623Y-85850271D01*
X25084899Y-85844244D01*
X25085083Y-85830627D01*
X25083854Y-85813526D01*
X25080309Y-85790176D01*
X25067121Y-85727651D01*
X25047218Y-85648897D01*
X25022299Y-85559759D01*
X24994065Y-85466083D01*
X24964213Y-85373714D01*
X24934443Y-85288497D01*
X24906456Y-85216278D01*
X24903078Y-85207592D01*
X24900783Y-85200260D01*
X24899643Y-85194304D01*
X24899529Y-85191850D01*
X24899731Y-85189749D01*
X24900259Y-85188003D01*
X24901121Y-85186615D01*
X24902326Y-85185589D01*
X24903885Y-85184928D01*
X24905805Y-85184633D01*
X24908096Y-85184708D01*
X24910768Y-85185156D01*
X24913829Y-85185980D01*
X24921155Y-85188766D01*
X24930148Y-85193088D01*
X24940881Y-85198971D01*
X24953428Y-85206435D01*
X24967860Y-85215506D01*
X24984253Y-85226205D01*
X25023208Y-85252579D01*
X25082145Y-85295418D01*
X25139759Y-85341796D01*
X25195858Y-85391445D01*
X25250251Y-85444092D01*
X25302748Y-85499467D01*
X25353156Y-85557300D01*
X25401285Y-85617319D01*
X25446943Y-85679255D01*
X25489940Y-85742835D01*
X25530084Y-85807790D01*
X25567184Y-85873849D01*
X25601048Y-85940741D01*
X25631487Y-86008196D01*
X25658308Y-86075942D01*
X25681320Y-86143710D01*
X25700332Y-86211227D01*
X25706334Y-86234579D01*
X25711977Y-86255364D01*
X25717357Y-86273702D01*
X25719977Y-86281990D01*
X25722567Y-86289710D01*
X25725138Y-86296877D01*
X25727703Y-86303506D01*
X25730273Y-86309611D01*
X25732860Y-86315208D01*
X25735476Y-86320311D01*
X25738133Y-86324934D01*
X25740842Y-86329093D01*
X25743616Y-86332802D01*
X25746466Y-86336076D01*
X25749404Y-86338929D01*
X25752442Y-86341377D01*
X25755592Y-86343435D01*
X25758866Y-86345116D01*
X25762275Y-86346436D01*
X25765832Y-86347409D01*
X25769548Y-86348050D01*
X25773436Y-86348374D01*
X25777506Y-86348396D01*
X25781771Y-86348130D01*
X25786243Y-86347592D01*
X25790933Y-86346795D01*
X25795854Y-86345754D01*
X25806434Y-86343002D01*
X25879403Y-86323740D01*
X25953269Y-86307440D01*
X26027868Y-86294095D01*
X26103037Y-86283700D01*
X26178611Y-86276248D01*
X26254428Y-86271733D01*
X26330322Y-86270150D01*
X26406130Y-86271492D01*
X26481689Y-86275753D01*
X26556834Y-86282927D01*
X26631402Y-86293007D01*
X26705229Y-86305988D01*
X26778150Y-86321863D01*
X26850002Y-86340627D01*
X26920622Y-86362273D01*
X26989845Y-86386795D01*
X27025157Y-86401305D01*
X27064095Y-86419281D01*
X27105844Y-86440197D01*
X27149590Y-86463524D01*
X27194517Y-86488734D01*
X27239811Y-86515300D01*
X27284658Y-86542693D01*
X27328243Y-86570385D01*
X27369751Y-86597849D01*
X27408368Y-86624556D01*
X27443278Y-86649979D01*
X27473668Y-86673590D01*
X27498723Y-86694860D01*
X27517628Y-86713262D01*
X27524519Y-86721222D01*
X27529568Y-86728268D01*
X27532672Y-86734332D01*
X27533729Y-86739349D01*
X27533487Y-86740560D01*
X27532768Y-86741699D01*
X27529948Y-86743756D01*
X27525364Y-86745521D01*
X27519111Y-86746992D01*
X27511284Y-86748168D01*
X27501978Y-86749048D01*
X27479310Y-86749916D01*
X27451865Y-86749589D01*
X27420404Y-86748057D01*
X27385686Y-86745313D01*
X27348472Y-86741348D01*
X27286571Y-86735209D01*
X27223734Y-86731477D01*
X27160048Y-86730136D01*
X27095596Y-86731173D01*
X27030463Y-86734572D01*
X26964735Y-86740320D01*
X26898495Y-86748401D01*
X26831829Y-86758801D01*
X26764821Y-86771504D01*
X26697555Y-86786498D01*
X26630117Y-86803766D01*
X26562591Y-86823295D01*
X26495063Y-86845070D01*
X26427615Y-86869075D01*
X26360334Y-86895297D01*
X26293304Y-86923721D01*
X26164428Y-86980621D01*
X26502723Y-87019821D01*
X26616048Y-87034782D01*
X26726362Y-87053124D01*
X26833757Y-87074888D01*
X26938322Y-87100113D01*
X27040149Y-87128841D01*
X27139329Y-87161111D01*
X27235952Y-87196963D01*
X27330109Y-87236439D01*
X27421891Y-87279577D01*
X27511388Y-87326419D01*
X27598692Y-87377005D01*
X27683892Y-87431375D01*
X27767080Y-87489569D01*
X27848347Y-87551628D01*
X27927782Y-87617591D01*
X28005478Y-87687500D01*
X28063631Y-87743478D01*
X28119345Y-87800359D01*
X28172687Y-87858247D01*
X28223721Y-87917248D01*
X28272516Y-87977464D01*
X28319136Y-88039000D01*
X28363647Y-88101960D01*
X28406117Y-88166449D01*
X28446611Y-88232570D01*
X28485196Y-88300429D01*
X28521936Y-88370129D01*
X28556900Y-88441774D01*
X28590153Y-88515469D01*
X28621760Y-88591317D01*
X28651789Y-88669424D01*
X28680305Y-88749893D01*
X28695774Y-88797826D01*
X28710809Y-88849169D01*
X28725305Y-88903292D01*
X28739157Y-88959564D01*
X28764512Y-89076035D01*
X28786033Y-89193533D01*
X28802885Y-89307014D01*
X28809297Y-89360671D01*
X28814227Y-89411431D01*
X28817570Y-89458664D01*
X28819222Y-89501739D01*
X28819077Y-89540025D01*
X28817032Y-89572891D01*
X28806373Y-89678177D01*
X28664306Y-89495728D01*
X28581872Y-89392608D01*
X28497114Y-89291880D01*
X28410435Y-89193889D01*
X28322240Y-89098979D01*
X28232932Y-89007494D01*
X28142915Y-88919780D01*
X28052593Y-88836179D01*
X27962370Y-88757038D01*
X27872649Y-88682700D01*
X27783835Y-88613510D01*
X27696331Y-88549812D01*
X27610542Y-88491951D01*
X27526870Y-88440270D01*
X27445720Y-88395115D01*
X27367497Y-88356830D01*
X27292602Y-88325760D01*
X27240646Y-88306668D01*
X27195353Y-88290865D01*
X27156676Y-88278490D01*
X27124566Y-88269678D01*
X27110959Y-88266652D01*
X27098975Y-88264568D01*
X27088609Y-88263445D01*
X27079853Y-88263297D01*
X27072704Y-88264144D01*
X27067153Y-88266003D01*
X27063195Y-88268889D01*
X27060825Y-88272821D01*
X27060036Y-88277816D01*
X27060821Y-88283891D01*
X27063175Y-88291063D01*
X27067092Y-88299349D01*
X27072566Y-88308767D01*
X27079590Y-88319333D01*
X27098267Y-88343980D01*
X27123072Y-88373427D01*
X27153959Y-88407811D01*
X27190877Y-88447271D01*
X27233780Y-88491943D01*
X27391546Y-88666175D01*
X27531963Y-88845397D01*
X27655009Y-89029445D01*
X27760662Y-89218155D01*
X27848901Y-89411361D01*
X27919704Y-89608899D01*
X27973050Y-89810605D01*
X28008917Y-90016314D01*
X28027283Y-90225860D01*
X28028128Y-90439081D01*
X28011429Y-90655810D01*
X27977166Y-90875884D01*
X27925316Y-91099138D01*
X27855858Y-91325407D01*
X27768770Y-91554526D01*
X27664032Y-91786331D01*
X27647464Y-91819704D01*
X27630231Y-91853227D01*
X27594316Y-91919840D01*
X27557388Y-91984415D01*
X27520546Y-92045193D01*
X27502500Y-92073608D01*
X27484887Y-92100416D01*
X27467846Y-92125395D01*
X27451513Y-92148326D01*
X27436025Y-92168990D01*
X27421521Y-92187167D01*
X27408137Y-92202637D01*
X27396011Y-92215179D01*
X27284973Y-92321854D01*
X27314979Y-92150742D01*
X27324423Y-92088517D01*
X27332362Y-92018879D01*
X27343792Y-91861783D01*
X27349408Y-91688291D01*
X27349350Y-91507240D01*
X27343755Y-91327469D01*
X27332763Y-91157814D01*
X27325287Y-91079541D01*
X27316513Y-91007112D01*
X27306459Y-90941630D01*
X27295143Y-90884201D01*
X27280436Y-90822731D01*
X27263627Y-90759477D01*
X27224142Y-90628686D01*
X27177562Y-90493977D01*
X27124761Y-90357498D01*
X27066614Y-90221397D01*
X27003994Y-90087821D01*
X26937777Y-89958919D01*
X26903592Y-89896891D01*
X26868835Y-89836838D01*
X26838228Y-89786193D01*
X26807277Y-89736730D01*
X26776249Y-89688787D01*
X26745415Y-89642704D01*
X26715043Y-89598818D01*
X26685401Y-89557467D01*
X26656758Y-89518990D01*
X26629383Y-89483725D01*
X26603544Y-89452010D01*
X26579510Y-89424184D01*
X26557550Y-89400585D01*
X26537932Y-89381551D01*
X26529086Y-89373852D01*
X26520925Y-89367421D01*
X26513485Y-89362300D01*
X26506798Y-89358532D01*
X26500899Y-89356159D01*
X26495820Y-89355224D01*
X26491595Y-89355768D01*
X26488258Y-89357834D01*
X26486347Y-89360951D01*
X26484828Y-89366072D01*
X26483695Y-89373080D01*
X26482942Y-89381861D01*
X26482549Y-89404275D01*
X26483595Y-89432390D01*
X26486027Y-89465281D01*
X26489794Y-89502023D01*
X26494843Y-89541691D01*
X26501121Y-89583359D01*
X26510300Y-89645460D01*
X26517968Y-89709065D01*
X26524132Y-89773877D01*
X26528802Y-89839596D01*
X26531988Y-89905923D01*
X26533696Y-89972560D01*
X26533937Y-90039209D01*
X26532719Y-90105570D01*
X26530051Y-90171344D01*
X26525942Y-90236234D01*
X26520400Y-90299940D01*
X26513435Y-90362163D01*
X26505054Y-90422605D01*
X26495268Y-90480967D01*
X26484084Y-90536950D01*
X26471512Y-90590256D01*
X26433757Y-90719812D01*
X26387276Y-90847824D01*
X26332325Y-90974000D01*
X26269159Y-91098048D01*
X26198034Y-91219677D01*
X26119204Y-91338593D01*
X26032926Y-91454505D01*
X25939455Y-91567122D01*
X25839045Y-91676150D01*
X25731954Y-91781299D01*
X25618435Y-91882275D01*
X25498745Y-91978788D01*
X25373139Y-92070545D01*
X25241872Y-92157254D01*
X25105200Y-92238624D01*
X24963379Y-92314362D01*
X24922917Y-92333902D01*
X24875581Y-92355276D01*
X24765005Y-92401814D01*
X24641091Y-92450560D01*
X24513277Y-92498100D01*
X24391002Y-92541020D01*
X24283707Y-92575905D01*
X24200829Y-92599340D01*
X24171497Y-92605696D01*
X24151809Y-92607910D01*
X24150123Y-92607605D01*
X24148952Y-92606698D01*
X24148287Y-92605206D01*
X24148116Y-92603143D01*
X24149223Y-92597363D01*
X24152195Y-92589478D01*
X24156952Y-92579609D01*
X24163417Y-92567876D01*
X24181156Y-92539293D01*
X24204784Y-92504689D01*
X24233675Y-92465021D01*
X24267200Y-92421249D01*
X24304733Y-92374329D01*
X24416691Y-92232354D01*
X24520304Y-92090792D01*
X24615726Y-91949206D01*
X24703113Y-91807158D01*
X24782621Y-91664211D01*
X24854405Y-91519929D01*
X24918620Y-91373872D01*
X24975422Y-91225605D01*
X25024966Y-91074690D01*
X25067408Y-90920688D01*
X25102903Y-90763165D01*
X25131607Y-90601680D01*
X25153674Y-90435799D01*
X25169262Y-90265082D01*
X25178524Y-90089093D01*
X25181617Y-89907394D01*
X25178797Y-89754811D01*
X25170610Y-89591368D01*
X25157607Y-89421922D01*
X25140339Y-89251331D01*
X25119355Y-89084453D01*
X25095207Y-88926144D01*
X25068445Y-88781261D01*
X25039619Y-88654663D01*
X25000000Y-88500000D01*
X24807831Y-88693314D01*
X24609911Y-88910280D01*
X24419065Y-89155069D01*
X24235921Y-89425833D01*
X24061107Y-89720729D01*
X23895251Y-90037909D01*
X23738982Y-90375528D01*
X23592927Y-90731740D01*
X23457716Y-91104700D01*
X23333975Y-91492562D01*
X23222334Y-91893480D01*
X23123420Y-92305608D01*
X23037862Y-92727101D01*
X22966288Y-93156112D01*
X22909326Y-93590797D01*
X22867604Y-94029309D01*
X22841751Y-94469803D01*
X22836770Y-94688309D01*
X22837660Y-94937781D01*
X22844037Y-95210139D01*
X22855516Y-95497303D01*
X22871712Y-95791192D01*
X22892241Y-96083725D01*
X22916717Y-96366821D01*
X22944755Y-96632401D01*
X22958376Y-96752264D01*
X22963710Y-96802680D01*
X22968057Y-96847375D01*
X22971415Y-96886814D01*
X22973780Y-96921464D01*
X22975151Y-96951791D01*
X22975526Y-96978262D01*
X22975338Y-96990197D01*
X22974901Y-97001343D01*
X22974213Y-97011759D01*
X22973275Y-97021501D01*
X22972085Y-97030630D01*
X22970644Y-97039202D01*
X22968952Y-97047277D01*
X22967008Y-97054913D01*
X22964812Y-97062167D01*
X22962363Y-97069099D01*
X22959661Y-97075767D01*
X22956707Y-97082228D01*
X22953499Y-97088541D01*
X22950037Y-97094765D01*
X22942352Y-97107178D01*
X22929917Y-97124942D01*
X22916207Y-97142255D01*
X22901287Y-97159073D01*
X22885225Y-97175352D01*
X22868086Y-97191048D01*
X22849937Y-97206119D01*
X22830846Y-97220519D01*
X22810877Y-97234207D01*
X22790099Y-97247138D01*
X22768577Y-97259269D01*
X22746378Y-97270556D01*
X22723569Y-97280955D01*
X22700215Y-97290423D01*
X22676384Y-97298917D01*
X22652142Y-97306392D01*
X22627556Y-97312805D01*
X22627594Y-97312668D01*
X22573456Y-97323798D01*
X22518830Y-97331663D01*
X22463974Y-97336321D01*
X22409144Y-97337832D01*
X22354599Y-97336256D01*
X22300594Y-97331651D01*
X22247387Y-97324078D01*
X22195235Y-97313595D01*
X22144395Y-97300262D01*
X22095124Y-97284139D01*
X22047680Y-97265285D01*
X22002318Y-97243759D01*
X21959297Y-97219620D01*
X21918874Y-97192929D01*
X21881305Y-97163745D01*
X21863671Y-97148236D01*
X21846847Y-97132126D01*
X21734329Y-97019608D01*
X21734451Y-96625992D01*
X21739058Y-96344005D01*
X21752303Y-96033784D01*
X21773589Y-95701862D01*
X21802317Y-95354771D01*
X21837890Y-94999043D01*
X21879710Y-94641213D01*
X21927178Y-94287812D01*
X21979698Y-93945374D01*
X22054622Y-93520612D01*
X22138881Y-93103416D01*
X22232234Y-92694394D01*
X22334443Y-92294154D01*
X22445267Y-91903306D01*
X22564467Y-91522459D01*
X22691803Y-91152221D01*
X22827035Y-90793201D01*
X22969922Y-90446009D01*
X23120227Y-90111252D01*
X23277708Y-89789541D01*
X23442125Y-89481483D01*
X23613240Y-89187687D01*
X23790811Y-88908763D01*
X23974601Y-88645319D01*
X24164367Y-88397965D01*
X24206934Y-88344821D01*
X24246646Y-88294627D01*
X24282633Y-88248533D01*
X24314026Y-88207691D01*
X24339955Y-88173254D01*
X24359553Y-88146373D01*
X24366705Y-88136127D01*
X24371949Y-88128201D01*
X24375174Y-88122740D01*
X24375997Y-88120979D01*
X24376274Y-88119888D01*
X24375353Y-88116110D01*
X24372636Y-88112301D01*
X24362078Y-88104628D01*
X24345136Y-88096950D01*
X24322344Y-88089345D01*
X24294238Y-88081894D01*
X24261350Y-88074674D01*
X24183374Y-88061249D01*
X24092694Y-88049703D01*
X23993589Y-88040671D01*
X23890337Y-88034787D01*
X23787216Y-88032684D01*
X23663486Y-88035630D01*
X23541861Y-88044477D01*
X23422313Y-88059237D01*
X23304811Y-88079923D01*
X23189323Y-88106550D01*
X23075821Y-88139131D01*
X22964274Y-88177678D01*
X22854651Y-88222204D01*
X22746923Y-88272724D01*
X22641058Y-88329250D01*
X22537027Y-88391795D01*
X22434800Y-88460372D01*
X22334346Y-88534996D01*
X22235634Y-88615678D01*
X22138636Y-88702433D01*
X22043319Y-88795273D01*
X22001353Y-88839112D01*
X21957900Y-88886878D01*
X21867741Y-88992527D01*
X21775254Y-89108894D01*
X21682851Y-89232651D01*
X21592942Y-89360470D01*
X21507941Y-89489025D01*
X21430258Y-89614988D01*
X21394914Y-89675957D01*
X21362304Y-89735031D01*
X21340855Y-89773954D01*
X21321693Y-89806193D01*
X21304689Y-89831410D01*
X21289713Y-89849266D01*
X21282946Y-89855327D01*
X21276637Y-89859421D01*
X21270770Y-89861505D01*
X21265329Y-89861537D01*
X21260299Y-89859474D01*
X21255662Y-89855274D01*
X21251403Y-89848895D01*
X21247505Y-89840294D01*
X21240729Y-89816257D01*
X21235204Y-89782825D01*
X21230800Y-89739657D01*
X21227389Y-89686417D01*
X21223026Y-89548358D01*
X21221077Y-89365936D01*
X21222091Y-89228241D01*
X21226682Y-89094974D01*
X21234915Y-88965888D01*
X21246855Y-88840735D01*
X21262570Y-88719264D01*
X21282126Y-88601229D01*
X21305588Y-88486380D01*
X21333024Y-88374470D01*
X21364498Y-88265249D01*
X21400078Y-88158470D01*
X21439829Y-88053883D01*
X21483818Y-87951241D01*
X21532111Y-87850294D01*
X21584774Y-87750795D01*
X21641874Y-87652495D01*
X21703476Y-87555145D01*
X21787116Y-87435095D01*
X21874700Y-87322851D01*
X21966184Y-87218436D01*
X22061523Y-87121876D01*
X22160674Y-87033194D01*
X22263592Y-86952413D01*
X22370233Y-86879558D01*
X22480552Y-86814653D01*
X22594507Y-86757722D01*
X22712051Y-86708789D01*
X22833142Y-86667878D01*
X22957735Y-86635012D01*
X23085785Y-86610217D01*
X23217249Y-86593515D01*
X23352083Y-86584930D01*
X23490242Y-86584488D01*
X23612417Y-86587569D01*
X23661151Y-86588420D01*
X23702156Y-86588565D01*
X23719881Y-86588315D01*
X23735816Y-86587818D01*
X23750009Y-86587052D01*
X23762509Y-86585993D01*
X23773362Y-86584618D01*
X23782617Y-86582905D01*
X23790321Y-86580829D01*
X23796522Y-86578367D01*
X23799073Y-86576985D01*
X23801267Y-86575497D01*
X23803108Y-86573902D01*
X23804604Y-86572195D01*
X23805759Y-86570375D01*
X23806580Y-86568439D01*
X23807073Y-86566382D01*
X23807244Y-86564203D01*
X23807099Y-86561899D01*
X23806643Y-86559467D01*
X23804824Y-86554206D01*
X23801835Y-86548397D01*
X23797724Y-86542017D01*
X23792538Y-86535043D01*
X23786325Y-86527451D01*
X23771009Y-86510323D01*
X23730148Y-86467636D01*
X23700506Y-86438363D01*
X23666725Y-86407639D01*
X23629297Y-86375788D01*
X23588715Y-86343138D01*
X23545471Y-86310014D01*
X23500058Y-86276742D01*
X23404691Y-86211056D01*
X23306555Y-86148687D01*
X23257679Y-86119562D01*
X23209587Y-86092243D01*
X23162772Y-86067057D01*
X23117726Y-86044329D01*
X23074942Y-86024386D01*
X23034912Y-86007553D01*
X22959100Y-85979649D01*
X22879785Y-85954256D01*
X22797242Y-85931398D01*
X22711748Y-85911099D01*
X22623579Y-85893386D01*
X22533011Y-85878281D01*
X22440322Y-85865811D01*
X22345787Y-85855999D01*
X22249682Y-85848870D01*
X22152285Y-85844450D01*
X22053871Y-85842762D01*
X21954718Y-85843831D01*
X21855100Y-85847682D01*
X21755295Y-85854340D01*
X21655579Y-85863830D01*
X21556228Y-85876175D01*
X21506267Y-85882782D01*
X21459061Y-85888323D01*
X21415686Y-85892732D01*
X21377219Y-85895943D01*
X21344735Y-85897889D01*
X21331073Y-85898367D01*
X21319311Y-85898504D01*
X21309582Y-85898292D01*
X21302022Y-85897722D01*
X21296765Y-85896787D01*
X21295042Y-85896179D01*
X21293945Y-85895477D01*
X21293010Y-85892347D01*
X21294601Y-85887497D01*
X21304879Y-85873015D01*
X21323808Y-85852786D01*
X21350419Y-85827568D01*
X21422805Y-85765183D01*
X21514279Y-85691906D01*
X21617082Y-85613784D01*
X21723454Y-85536864D01*
X21825636Y-85467191D01*
X21872732Y-85436962D01*
X21915870Y-85410812D01*
X21972808Y-85378925D01*
X22032626Y-85348045D01*
X22094984Y-85318275D01*
X22159546Y-85289722D01*
X22225971Y-85262489D01*
X22293922Y-85236681D01*
X22363059Y-85212404D01*
X22433045Y-85189762D01*
X22503541Y-85168860D01*
X22574207Y-85149802D01*
X22644707Y-85132694D01*
X22714700Y-85117641D01*
X22783848Y-85104746D01*
X22851814Y-85094115D01*
X22918258Y-85085852D01*
X22982841Y-85080063D01*
X23115966Y-85073912D01*
X23248308Y-85074342D01*
G37*
X23248308Y-85074342D02*
X23379623Y-85081272D01*
X23509662Y-85094615D01*
X23638181Y-85114291D01*
X23764933Y-85140214D01*
X23889672Y-85172301D01*
X24012152Y-85210468D01*
X24132127Y-85254633D01*
X24249350Y-85304711D01*
X24363576Y-85360620D01*
X24474558Y-85422274D01*
X24582050Y-85489592D01*
X24685806Y-85562488D01*
X24785580Y-85640881D01*
X24881126Y-85724686D01*
X24915017Y-85756007D01*
X24944945Y-85783440D01*
X24971155Y-85807112D01*
X24993892Y-85827151D01*
X25013401Y-85843684D01*
X25022022Y-85850676D01*
X25029928Y-85856839D01*
X25037149Y-85862190D01*
X25043717Y-85866743D01*
X25049661Y-85870516D01*
X25055013Y-85873524D01*
X25059804Y-85875783D01*
X25064063Y-85877308D01*
X25067822Y-85878117D01*
X25069523Y-85878258D01*
X25071111Y-85878225D01*
X25072588Y-85878021D01*
X25073960Y-85877647D01*
X25075230Y-85877107D01*
X25076401Y-85876400D01*
X25077478Y-85875531D01*
X25078464Y-85874500D01*
X25079364Y-85873310D01*
X25080180Y-85871963D01*
X25081580Y-85868803D01*
X25082693Y-85865039D01*
X25083551Y-85860685D01*
X25084184Y-85855757D01*
X25084623Y-85850271D01*
X25084899Y-85844244D01*
X25085083Y-85830627D01*
X25083854Y-85813526D01*
X25080309Y-85790176D01*
X25067121Y-85727651D01*
X25047218Y-85648897D01*
X25022299Y-85559759D01*
X24994065Y-85466083D01*
X24964213Y-85373714D01*
X24934443Y-85288497D01*
X24906456Y-85216278D01*
X24903078Y-85207592D01*
X24900783Y-85200260D01*
X24899643Y-85194304D01*
X24899529Y-85191850D01*
X24899731Y-85189749D01*
X24900259Y-85188003D01*
X24901121Y-85186615D01*
X24902326Y-85185589D01*
X24903885Y-85184928D01*
X24905805Y-85184633D01*
X24908096Y-85184708D01*
X24910768Y-85185156D01*
X24913829Y-85185980D01*
X24921155Y-85188766D01*
X24930148Y-85193088D01*
X24940881Y-85198971D01*
X24953428Y-85206435D01*
X24967860Y-85215506D01*
X24984253Y-85226205D01*
X25023208Y-85252579D01*
X25082145Y-85295418D01*
X25139759Y-85341796D01*
X25195858Y-85391445D01*
X25250251Y-85444092D01*
X25302748Y-85499467D01*
X25353156Y-85557300D01*
X25401285Y-85617319D01*
X25446943Y-85679255D01*
X25489940Y-85742835D01*
X25530084Y-85807790D01*
X25567184Y-85873849D01*
X25601048Y-85940741D01*
X25631487Y-86008196D01*
X25658308Y-86075942D01*
X25681320Y-86143710D01*
X25700332Y-86211227D01*
X25706334Y-86234579D01*
X25711977Y-86255364D01*
X25717357Y-86273702D01*
X25719977Y-86281990D01*
X25722567Y-86289710D01*
X25725138Y-86296877D01*
X25727703Y-86303506D01*
X25730273Y-86309611D01*
X25732860Y-86315208D01*
X25735476Y-86320311D01*
X25738133Y-86324934D01*
X25740842Y-86329093D01*
X25743616Y-86332802D01*
X25746466Y-86336076D01*
X25749404Y-86338929D01*
X25752442Y-86341377D01*
X25755592Y-86343435D01*
X25758866Y-86345116D01*
X25762275Y-86346436D01*
X25765832Y-86347409D01*
X25769548Y-86348050D01*
X25773436Y-86348374D01*
X25777506Y-86348396D01*
X25781771Y-86348130D01*
X25786243Y-86347592D01*
X25790933Y-86346795D01*
X25795854Y-86345754D01*
X25806434Y-86343002D01*
X25879403Y-86323740D01*
X25953269Y-86307440D01*
X26027868Y-86294095D01*
X26103037Y-86283700D01*
X26178611Y-86276248D01*
X26254428Y-86271733D01*
X26330322Y-86270150D01*
X26406130Y-86271492D01*
X26481689Y-86275753D01*
X26556834Y-86282927D01*
X26631402Y-86293007D01*
X26705229Y-86305988D01*
X26778150Y-86321863D01*
X26850002Y-86340627D01*
X26920622Y-86362273D01*
X26989845Y-86386795D01*
X27025157Y-86401305D01*
X27064095Y-86419281D01*
X27105844Y-86440197D01*
X27149590Y-86463524D01*
X27194517Y-86488734D01*
X27239811Y-86515300D01*
X27284658Y-86542693D01*
X27328243Y-86570385D01*
X27369751Y-86597849D01*
X27408368Y-86624556D01*
X27443278Y-86649979D01*
X27473668Y-86673590D01*
X27498723Y-86694860D01*
X27517628Y-86713262D01*
X27524519Y-86721222D01*
X27529568Y-86728268D01*
X27532672Y-86734332D01*
X27533729Y-86739349D01*
X27533487Y-86740560D01*
X27532768Y-86741699D01*
X27529948Y-86743756D01*
X27525364Y-86745521D01*
X27519111Y-86746992D01*
X27511284Y-86748168D01*
X27501978Y-86749048D01*
X27479310Y-86749916D01*
X27451865Y-86749589D01*
X27420404Y-86748057D01*
X27385686Y-86745313D01*
X27348472Y-86741348D01*
X27286571Y-86735209D01*
X27223734Y-86731477D01*
X27160048Y-86730136D01*
X27095596Y-86731173D01*
X27030463Y-86734572D01*
X26964735Y-86740320D01*
X26898495Y-86748401D01*
X26831829Y-86758801D01*
X26764821Y-86771504D01*
X26697555Y-86786498D01*
X26630117Y-86803766D01*
X26562591Y-86823295D01*
X26495063Y-86845070D01*
X26427615Y-86869075D01*
X26360334Y-86895297D01*
X26293304Y-86923721D01*
X26164428Y-86980621D01*
X26502723Y-87019821D01*
X26616048Y-87034782D01*
X26726362Y-87053124D01*
X26833757Y-87074888D01*
X26938322Y-87100113D01*
X27040149Y-87128841D01*
X27139329Y-87161111D01*
X27235952Y-87196963D01*
X27330109Y-87236439D01*
X27421891Y-87279577D01*
X27511388Y-87326419D01*
X27598692Y-87377005D01*
X27683892Y-87431375D01*
X27767080Y-87489569D01*
X27848347Y-87551628D01*
X27927782Y-87617591D01*
X28005478Y-87687500D01*
X28063631Y-87743478D01*
X28119345Y-87800359D01*
X28172687Y-87858247D01*
X28223721Y-87917248D01*
X28272516Y-87977464D01*
X28319136Y-88039000D01*
X28363647Y-88101960D01*
X28406117Y-88166449D01*
X28446611Y-88232570D01*
X28485196Y-88300429D01*
X28521936Y-88370129D01*
X28556900Y-88441774D01*
X28590153Y-88515469D01*
X28621760Y-88591317D01*
X28651789Y-88669424D01*
X28680305Y-88749893D01*
X28695774Y-88797826D01*
X28710809Y-88849169D01*
X28725305Y-88903292D01*
X28739157Y-88959564D01*
X28764512Y-89076035D01*
X28786033Y-89193533D01*
X28802885Y-89307014D01*
X28809297Y-89360671D01*
X28814227Y-89411431D01*
X28817570Y-89458664D01*
X28819222Y-89501739D01*
X28819077Y-89540025D01*
X28817032Y-89572891D01*
X28806373Y-89678177D01*
X28664306Y-89495728D01*
X28581872Y-89392608D01*
X28497114Y-89291880D01*
X28410435Y-89193889D01*
X28322240Y-89098979D01*
X28232932Y-89007494D01*
X28142915Y-88919780D01*
X28052593Y-88836179D01*
X27962370Y-88757038D01*
X27872649Y-88682700D01*
X27783835Y-88613510D01*
X27696331Y-88549812D01*
X27610542Y-88491951D01*
X27526870Y-88440270D01*
X27445720Y-88395115D01*
X27367497Y-88356830D01*
X27292602Y-88325760D01*
X27240646Y-88306668D01*
X27195353Y-88290865D01*
X27156676Y-88278490D01*
X27124566Y-88269678D01*
X27110959Y-88266652D01*
X27098975Y-88264568D01*
X27088609Y-88263445D01*
X27079853Y-88263297D01*
X27072704Y-88264144D01*
X27067153Y-88266003D01*
X27063195Y-88268889D01*
X27060825Y-88272821D01*
X27060036Y-88277816D01*
X27060821Y-88283891D01*
X27063175Y-88291063D01*
X27067092Y-88299349D01*
X27072566Y-88308767D01*
X27079590Y-88319333D01*
X27098267Y-88343980D01*
X27123072Y-88373427D01*
X27153959Y-88407811D01*
X27190877Y-88447271D01*
X27233780Y-88491943D01*
X27391546Y-88666175D01*
X27531963Y-88845397D01*
X27655009Y-89029445D01*
X27760662Y-89218155D01*
X27848901Y-89411361D01*
X27919704Y-89608899D01*
X27973050Y-89810605D01*
X28008917Y-90016314D01*
X28027283Y-90225860D01*
X28028128Y-90439081D01*
X28011429Y-90655810D01*
X27977166Y-90875884D01*
X27925316Y-91099138D01*
X27855858Y-91325407D01*
X27768770Y-91554526D01*
X27664032Y-91786331D01*
X27647464Y-91819704D01*
X27630231Y-91853227D01*
X27594316Y-91919840D01*
X27557388Y-91984415D01*
X27520546Y-92045193D01*
X27502500Y-92073608D01*
X27484887Y-92100416D01*
X27467846Y-92125395D01*
X27451513Y-92148326D01*
X27436025Y-92168990D01*
X27421521Y-92187167D01*
X27408137Y-92202637D01*
X27396011Y-92215179D01*
X27284973Y-92321854D01*
X27314979Y-92150742D01*
X27324423Y-92088517D01*
X27332362Y-92018879D01*
X27343792Y-91861783D01*
X27349408Y-91688291D01*
X27349350Y-91507240D01*
X27343755Y-91327469D01*
X27332763Y-91157814D01*
X27325287Y-91079541D01*
X27316513Y-91007112D01*
X27306459Y-90941630D01*
X27295143Y-90884201D01*
X27280436Y-90822731D01*
X27263627Y-90759477D01*
X27224142Y-90628686D01*
X27177562Y-90493977D01*
X27124761Y-90357498D01*
X27066614Y-90221397D01*
X27003994Y-90087821D01*
X26937777Y-89958919D01*
X26903592Y-89896891D01*
X26868835Y-89836838D01*
X26838228Y-89786193D01*
X26807277Y-89736730D01*
X26776249Y-89688787D01*
X26745415Y-89642704D01*
X26715043Y-89598818D01*
X26685401Y-89557467D01*
X26656758Y-89518990D01*
X26629383Y-89483725D01*
X26603544Y-89452010D01*
X26579510Y-89424184D01*
X26557550Y-89400585D01*
X26537932Y-89381551D01*
X26529086Y-89373852D01*
X26520925Y-89367421D01*
X26513485Y-89362300D01*
X26506798Y-89358532D01*
X26500899Y-89356159D01*
X26495820Y-89355224D01*
X26491595Y-89355768D01*
X26488258Y-89357834D01*
X26486347Y-89360951D01*
X26484828Y-89366072D01*
X26483695Y-89373080D01*
X26482942Y-89381861D01*
X26482549Y-89404275D01*
X26483595Y-89432390D01*
X26486027Y-89465281D01*
X26489794Y-89502023D01*
X26494843Y-89541691D01*
X26501121Y-89583359D01*
X26510300Y-89645460D01*
X26517968Y-89709065D01*
X26524132Y-89773877D01*
X26528802Y-89839596D01*
X26531988Y-89905923D01*
X26533696Y-89972560D01*
X26533937Y-90039209D01*
X26532719Y-90105570D01*
X26530051Y-90171344D01*
X26525942Y-90236234D01*
X26520400Y-90299940D01*
X26513435Y-90362163D01*
X26505054Y-90422605D01*
X26495268Y-90480967D01*
X26484084Y-90536950D01*
X26471512Y-90590256D01*
X26433757Y-90719812D01*
X26387276Y-90847824D01*
X26332325Y-90974000D01*
X26269159Y-91098048D01*
X26198034Y-91219677D01*
X26119204Y-91338593D01*
X26032926Y-91454505D01*
X25939455Y-91567122D01*
X25839045Y-91676150D01*
X25731954Y-91781299D01*
X25618435Y-91882275D01*
X25498745Y-91978788D01*
X25373139Y-92070545D01*
X25241872Y-92157254D01*
X25105200Y-92238624D01*
X24963379Y-92314362D01*
X24922917Y-92333902D01*
X24875581Y-92355276D01*
X24765005Y-92401814D01*
X24641091Y-92450560D01*
X24513277Y-92498100D01*
X24391002Y-92541020D01*
X24283707Y-92575905D01*
X24200829Y-92599340D01*
X24171497Y-92605696D01*
X24151809Y-92607910D01*
X24150123Y-92607605D01*
X24148952Y-92606698D01*
X24148287Y-92605206D01*
X24148116Y-92603143D01*
X24149223Y-92597363D01*
X24152195Y-92589478D01*
X24156952Y-92579609D01*
X24163417Y-92567876D01*
X24181156Y-92539293D01*
X24204784Y-92504689D01*
X24233675Y-92465021D01*
X24267200Y-92421249D01*
X24304733Y-92374329D01*
X24416691Y-92232354D01*
X24520304Y-92090792D01*
X24615726Y-91949206D01*
X24703113Y-91807158D01*
X24782621Y-91664211D01*
X24854405Y-91519929D01*
X24918620Y-91373872D01*
X24975422Y-91225605D01*
X25024966Y-91074690D01*
X25067408Y-90920688D01*
X25102903Y-90763165D01*
X25131607Y-90601680D01*
X25153674Y-90435799D01*
X25169262Y-90265082D01*
X25178524Y-90089093D01*
X25181617Y-89907394D01*
X25178797Y-89754811D01*
X25170610Y-89591368D01*
X25157607Y-89421922D01*
X25140339Y-89251331D01*
X25119355Y-89084453D01*
X25095207Y-88926144D01*
X25068445Y-88781261D01*
X25039619Y-88654663D01*
X25000000Y-88500000D01*
X24807831Y-88693314D01*
X24609911Y-88910280D01*
X24419065Y-89155069D01*
X24235921Y-89425833D01*
X24061107Y-89720729D01*
X23895251Y-90037909D01*
X23738982Y-90375528D01*
X23592927Y-90731740D01*
X23457716Y-91104700D01*
X23333975Y-91492562D01*
X23222334Y-91893480D01*
X23123420Y-92305608D01*
X23037862Y-92727101D01*
X22966288Y-93156112D01*
X22909326Y-93590797D01*
X22867604Y-94029309D01*
X22841751Y-94469803D01*
X22836770Y-94688309D01*
X22837660Y-94937781D01*
X22844037Y-95210139D01*
X22855516Y-95497303D01*
X22871712Y-95791192D01*
X22892241Y-96083725D01*
X22916717Y-96366821D01*
X22944755Y-96632401D01*
X22958376Y-96752264D01*
X22963710Y-96802680D01*
X22968057Y-96847375D01*
X22971415Y-96886814D01*
X22973780Y-96921464D01*
X22975151Y-96951791D01*
X22975526Y-96978262D01*
X22975338Y-96990197D01*
X22974901Y-97001343D01*
X22974213Y-97011759D01*
X22973275Y-97021501D01*
X22972085Y-97030630D01*
X22970644Y-97039202D01*
X22968952Y-97047277D01*
X22967008Y-97054913D01*
X22964812Y-97062167D01*
X22962363Y-97069099D01*
X22959661Y-97075767D01*
X22956707Y-97082228D01*
X22953499Y-97088541D01*
X22950037Y-97094765D01*
X22942352Y-97107178D01*
X22929917Y-97124942D01*
X22916207Y-97142255D01*
X22901287Y-97159073D01*
X22885225Y-97175352D01*
X22868086Y-97191048D01*
X22849937Y-97206119D01*
X22830846Y-97220519D01*
X22810877Y-97234207D01*
X22790099Y-97247138D01*
X22768577Y-97259269D01*
X22746378Y-97270556D01*
X22723569Y-97280955D01*
X22700215Y-97290423D01*
X22676384Y-97298917D01*
X22652142Y-97306392D01*
X22627556Y-97312805D01*
X22627594Y-97312668D01*
X22573456Y-97323798D01*
X22518830Y-97331663D01*
X22463974Y-97336321D01*
X22409144Y-97337832D01*
X22354599Y-97336256D01*
X22300594Y-97331651D01*
X22247387Y-97324078D01*
X22195235Y-97313595D01*
X22144395Y-97300262D01*
X22095124Y-97284139D01*
X22047680Y-97265285D01*
X22002318Y-97243759D01*
X21959297Y-97219620D01*
X21918874Y-97192929D01*
X21881305Y-97163745D01*
X21863671Y-97148236D01*
X21846847Y-97132126D01*
X21734329Y-97019608D01*
X21734451Y-96625992D01*
X21739058Y-96344005D01*
X21752303Y-96033784D01*
X21773589Y-95701862D01*
X21802317Y-95354771D01*
X21837890Y-94999043D01*
X21879710Y-94641213D01*
X21927178Y-94287812D01*
X21979698Y-93945374D01*
X22054622Y-93520612D01*
X22138881Y-93103416D01*
X22232234Y-92694394D01*
X22334443Y-92294154D01*
X22445267Y-91903306D01*
X22564467Y-91522459D01*
X22691803Y-91152221D01*
X22827035Y-90793201D01*
X22969922Y-90446009D01*
X23120227Y-90111252D01*
X23277708Y-89789541D01*
X23442125Y-89481483D01*
X23613240Y-89187687D01*
X23790811Y-88908763D01*
X23974601Y-88645319D01*
X24164367Y-88397965D01*
X24206934Y-88344821D01*
X24246646Y-88294627D01*
X24282633Y-88248533D01*
X24314026Y-88207691D01*
X24339955Y-88173254D01*
X24359553Y-88146373D01*
X24366705Y-88136127D01*
X24371949Y-88128201D01*
X24375174Y-88122740D01*
X24375997Y-88120979D01*
X24376274Y-88119888D01*
X24375353Y-88116110D01*
X24372636Y-88112301D01*
X24362078Y-88104628D01*
X24345136Y-88096950D01*
X24322344Y-88089345D01*
X24294238Y-88081894D01*
X24261350Y-88074674D01*
X24183374Y-88061249D01*
X24092694Y-88049703D01*
X23993589Y-88040671D01*
X23890337Y-88034787D01*
X23787216Y-88032684D01*
X23663486Y-88035630D01*
X23541861Y-88044477D01*
X23422313Y-88059237D01*
X23304811Y-88079923D01*
X23189323Y-88106550D01*
X23075821Y-88139131D01*
X22964274Y-88177678D01*
X22854651Y-88222204D01*
X22746923Y-88272724D01*
X22641058Y-88329250D01*
X22537027Y-88391795D01*
X22434800Y-88460372D01*
X22334346Y-88534996D01*
X22235634Y-88615678D01*
X22138636Y-88702433D01*
X22043319Y-88795273D01*
X22001353Y-88839112D01*
X21957900Y-88886878D01*
X21867741Y-88992527D01*
X21775254Y-89108894D01*
X21682851Y-89232651D01*
X21592942Y-89360470D01*
X21507941Y-89489025D01*
X21430258Y-89614988D01*
X21394914Y-89675957D01*
X21362304Y-89735031D01*
X21340855Y-89773954D01*
X21321693Y-89806193D01*
X21304689Y-89831410D01*
X21289713Y-89849266D01*
X21282946Y-89855327D01*
X21276637Y-89859421D01*
X21270770Y-89861505D01*
X21265329Y-89861537D01*
X21260299Y-89859474D01*
X21255662Y-89855274D01*
X21251403Y-89848895D01*
X21247505Y-89840294D01*
X21240729Y-89816257D01*
X21235204Y-89782825D01*
X21230800Y-89739657D01*
X21227389Y-89686417D01*
X21223026Y-89548358D01*
X21221077Y-89365936D01*
X21222091Y-89228241D01*
X21226682Y-89094974D01*
X21234915Y-88965888D01*
X21246855Y-88840735D01*
X21262570Y-88719264D01*
X21282126Y-88601229D01*
X21305588Y-88486380D01*
X21333024Y-88374470D01*
X21364498Y-88265249D01*
X21400078Y-88158470D01*
X21439829Y-88053883D01*
X21483818Y-87951241D01*
X21532111Y-87850294D01*
X21584774Y-87750795D01*
X21641874Y-87652495D01*
X21703476Y-87555145D01*
X21787116Y-87435095D01*
X21874700Y-87322851D01*
X21966184Y-87218436D01*
X22061523Y-87121876D01*
X22160674Y-87033194D01*
X22263592Y-86952413D01*
X22370233Y-86879558D01*
X22480552Y-86814653D01*
X22594507Y-86757722D01*
X22712051Y-86708789D01*
X22833142Y-86667878D01*
X22957735Y-86635012D01*
X23085785Y-86610217D01*
X23217249Y-86593515D01*
X23352083Y-86584930D01*
X23490242Y-86584488D01*
X23612417Y-86587569D01*
X23661151Y-86588420D01*
X23702156Y-86588565D01*
X23719881Y-86588315D01*
X23735816Y-86587818D01*
X23750009Y-86587052D01*
X23762509Y-86585993D01*
X23773362Y-86584618D01*
X23782617Y-86582905D01*
X23790321Y-86580829D01*
X23796522Y-86578367D01*
X23799073Y-86576985D01*
X23801267Y-86575497D01*
X23803108Y-86573902D01*
X23804604Y-86572195D01*
X23805759Y-86570375D01*
X23806580Y-86568439D01*
X23807073Y-86566382D01*
X23807244Y-86564203D01*
X23807099Y-86561899D01*
X23806643Y-86559467D01*
X23804824Y-86554206D01*
X23801835Y-86548397D01*
X23797724Y-86542017D01*
X23792538Y-86535043D01*
X23786325Y-86527451D01*
X23771009Y-86510323D01*
X23730148Y-86467636D01*
X23700506Y-86438363D01*
X23666725Y-86407639D01*
X23629297Y-86375788D01*
X23588715Y-86343138D01*
X23545471Y-86310014D01*
X23500058Y-86276742D01*
X23404691Y-86211056D01*
X23306555Y-86148687D01*
X23257679Y-86119562D01*
X23209587Y-86092243D01*
X23162772Y-86067057D01*
X23117726Y-86044329D01*
X23074942Y-86024386D01*
X23034912Y-86007553D01*
X22959100Y-85979649D01*
X22879785Y-85954256D01*
X22797242Y-85931398D01*
X22711748Y-85911099D01*
X22623579Y-85893386D01*
X22533011Y-85878281D01*
X22440322Y-85865811D01*
X22345787Y-85855999D01*
X22249682Y-85848870D01*
X22152285Y-85844450D01*
X22053871Y-85842762D01*
X21954718Y-85843831D01*
X21855100Y-85847682D01*
X21755295Y-85854340D01*
X21655579Y-85863830D01*
X21556228Y-85876175D01*
X21506267Y-85882782D01*
X21459061Y-85888323D01*
X21415686Y-85892732D01*
X21377219Y-85895943D01*
X21344735Y-85897889D01*
X21331073Y-85898367D01*
X21319311Y-85898504D01*
X21309582Y-85898292D01*
X21302022Y-85897722D01*
X21296765Y-85896787D01*
X21295042Y-85896179D01*
X21293945Y-85895477D01*
X21293010Y-85892347D01*
X21294601Y-85887497D01*
X21304879Y-85873015D01*
X21323808Y-85852786D01*
X21350419Y-85827568D01*
X21422805Y-85765183D01*
X21514279Y-85691906D01*
X21617082Y-85613784D01*
X21723454Y-85536864D01*
X21825636Y-85467191D01*
X21872732Y-85436962D01*
X21915870Y-85410812D01*
X21972808Y-85378925D01*
X22032626Y-85348045D01*
X22094984Y-85318275D01*
X22159546Y-85289722D01*
X22225971Y-85262489D01*
X22293922Y-85236681D01*
X22363059Y-85212404D01*
X22433045Y-85189762D01*
X22503541Y-85168860D01*
X22574207Y-85149802D01*
X22644707Y-85132694D01*
X22714700Y-85117641D01*
X22783848Y-85104746D01*
X22851814Y-85094115D01*
X22918258Y-85085852D01*
X22982841Y-85080063D01*
X23115966Y-85073912D01*
X23248308Y-85074342D01*
D11*
X34455037Y-93133537D02*
X44955037Y-101383537D01*
X34705037Y-75133537D02*
X34455037Y-93133537D01*
D10*
G36*
X46139018Y-67749628D02*
G01*
X46183128Y-67759551D01*
X46250427Y-67777112D01*
X46314663Y-67796385D01*
X46375808Y-67817343D01*
X46433831Y-67839961D01*
X46488701Y-67864210D01*
X46540388Y-67890064D01*
X46588861Y-67917497D01*
X46634090Y-67946480D01*
X46676044Y-67976987D01*
X46714694Y-68008991D01*
X46750009Y-68042466D01*
X46781958Y-68077384D01*
X46810511Y-68113719D01*
X46835637Y-68151442D01*
X46857307Y-68190529D01*
X46875489Y-68230951D01*
X46890154Y-68272682D01*
X46901270Y-68315694D01*
X46908808Y-68359962D01*
X46912737Y-68405457D01*
X46913026Y-68452153D01*
X46909646Y-68500024D01*
X46902566Y-68549041D01*
X46891755Y-68599179D01*
X46877183Y-68650410D01*
X46858819Y-68702707D01*
X46839001Y-68746241D01*
X46814105Y-68786054D01*
X46783665Y-68822272D01*
X46747214Y-68855020D01*
X46704286Y-68884426D01*
X46654416Y-68910614D01*
X46597135Y-68933711D01*
X46531978Y-68953842D01*
X46458479Y-68971134D01*
X46376171Y-68985711D01*
X46284588Y-68997701D01*
X46183263Y-69007228D01*
X46071729Y-69014419D01*
X45949521Y-69019400D01*
X45671216Y-69023234D01*
X45493468Y-69023735D01*
X45336065Y-69025713D01*
X45197461Y-69029879D01*
X45076111Y-69036944D01*
X45021423Y-69041786D01*
X44970469Y-69047620D01*
X44923056Y-69054533D01*
X44878991Y-69062616D01*
X44838080Y-69071957D01*
X44800130Y-69082645D01*
X44764949Y-69094769D01*
X44732343Y-69108418D01*
X44702118Y-69123680D01*
X44674082Y-69140645D01*
X44648041Y-69159401D01*
X44623803Y-69180038D01*
X44601174Y-69202644D01*
X44579960Y-69227308D01*
X44559970Y-69254119D01*
X44541009Y-69283165D01*
X44522885Y-69314537D01*
X44505403Y-69348322D01*
X44488372Y-69384610D01*
X44471598Y-69423490D01*
X44438048Y-69509378D01*
X44403207Y-69606699D01*
X44363074Y-69724093D01*
X44330184Y-69827946D01*
X44305554Y-69919393D01*
X44290199Y-69999567D01*
X44286319Y-70035781D01*
X44285138Y-70069603D01*
X44286785Y-70101175D01*
X44291386Y-70130637D01*
X44299069Y-70158132D01*
X44309960Y-70183802D01*
X44324187Y-70207789D01*
X44341877Y-70230234D01*
X44363157Y-70251280D01*
X44388154Y-70271067D01*
X44416995Y-70289738D01*
X44449807Y-70307436D01*
X44486717Y-70324300D01*
X44527853Y-70340474D01*
X44623308Y-70371318D01*
X44737190Y-70401100D01*
X44870514Y-70430957D01*
X45199559Y-70495432D01*
X45355692Y-70528124D01*
X45429193Y-70546166D01*
X45499652Y-70565339D01*
X45567067Y-70585642D01*
X45631439Y-70607077D01*
X45692768Y-70629641D01*
X45751053Y-70653336D01*
X45806295Y-70678162D01*
X45858494Y-70704118D01*
X45907649Y-70731204D01*
X45953760Y-70759420D01*
X45996827Y-70788766D01*
X46036851Y-70819242D01*
X46073830Y-70850848D01*
X46107765Y-70883583D01*
X46138657Y-70917449D01*
X46166504Y-70952444D01*
X46191307Y-70988568D01*
X46213065Y-71025822D01*
X46231780Y-71064205D01*
X46247449Y-71103718D01*
X46260074Y-71144360D01*
X46269655Y-71186131D01*
X46276190Y-71229031D01*
X46279681Y-71273060D01*
X46280127Y-71318218D01*
X46277528Y-71364505D01*
X46271884Y-71411920D01*
X46263195Y-71460464D01*
X46251460Y-71510137D01*
X46236680Y-71560938D01*
X46206751Y-71643434D01*
X46171900Y-71715642D01*
X46131067Y-71777647D01*
X46108075Y-71804851D01*
X46083189Y-71829535D01*
X46056276Y-71851712D01*
X46027204Y-71871391D01*
X45995839Y-71888583D01*
X45962049Y-71903299D01*
X45925701Y-71915549D01*
X45886662Y-71925344D01*
X45799982Y-71937611D01*
X45700945Y-71940185D01*
X45588490Y-71933151D01*
X45461554Y-71916594D01*
X45319076Y-71890599D01*
X45159992Y-71855250D01*
X44983241Y-71810633D01*
X44787760Y-71756833D01*
X44572488Y-71693934D01*
X43695012Y-71431605D01*
X42835405Y-72387705D01*
X42632974Y-72605378D01*
X42426377Y-72812600D01*
X42215237Y-73009594D01*
X41999181Y-73196584D01*
X41777831Y-73373794D01*
X41550812Y-73541448D01*
X41317750Y-73699769D01*
X41078267Y-73848982D01*
X40831990Y-73989310D01*
X40578542Y-74120978D01*
X40317548Y-74244209D01*
X40048632Y-74359227D01*
X39771420Y-74466256D01*
X39485534Y-74565520D01*
X39190600Y-74657243D01*
X38886243Y-74741648D01*
X38886239Y-74741602D01*
X38568987Y-74815230D01*
X38211857Y-74881275D01*
X37820491Y-74939158D01*
X37400531Y-74988297D01*
X36957618Y-75028111D01*
X36497394Y-75058019D01*
X36025500Y-75077441D01*
X35547578Y-75085795D01*
X34973663Y-75080599D01*
X34419393Y-75058345D01*
X33883453Y-75018624D01*
X33364528Y-74961025D01*
X32861303Y-74885138D01*
X32372462Y-74790552D01*
X31896691Y-74676857D01*
X31432674Y-74543642D01*
X30979097Y-74390498D01*
X30534644Y-74217013D01*
X30098000Y-74022777D01*
X29667850Y-73807381D01*
X29242880Y-73570413D01*
X28821773Y-73311463D01*
X28403215Y-73030121D01*
X27985891Y-72725977D01*
X26784185Y-71816569D01*
X25765287Y-72404825D01*
X25602493Y-72498172D01*
X25456696Y-72580099D01*
X25326547Y-72650899D01*
X25210699Y-72710867D01*
X25157717Y-72736880D01*
X25107805Y-72760295D01*
X25060795Y-72781149D01*
X25016519Y-72799478D01*
X24974807Y-72815319D01*
X24935492Y-72828708D01*
X24898406Y-72839683D01*
X24863379Y-72848280D01*
X24830243Y-72854536D01*
X24798831Y-72858487D01*
X24768973Y-72860170D01*
X24740501Y-72859621D01*
X24713248Y-72856879D01*
X24687044Y-72851978D01*
X24661720Y-72844956D01*
X24637110Y-72835850D01*
X24613044Y-72824696D01*
X24589353Y-72811531D01*
X24565871Y-72796391D01*
X24542427Y-72779314D01*
X24518854Y-72760336D01*
X24494984Y-72739493D01*
X24470647Y-72716823D01*
X24445676Y-72692362D01*
X24376772Y-72617271D01*
X24348003Y-72580609D01*
X24323086Y-72544459D01*
X24302065Y-72508760D01*
X24284988Y-72473453D01*
X24271901Y-72438479D01*
X24262849Y-72403779D01*
X24257879Y-72369294D01*
X24257037Y-72334964D01*
X24260370Y-72300729D01*
X24267923Y-72266532D01*
X24279743Y-72232312D01*
X24295876Y-72198011D01*
X24316368Y-72163568D01*
X24341265Y-72128925D01*
X24370614Y-72094023D01*
X24404461Y-72058803D01*
X24442852Y-72023204D01*
X24485833Y-71987168D01*
X24585750Y-71913548D01*
X24704583Y-71837469D01*
X24842701Y-71758456D01*
X25000474Y-71676036D01*
X25178271Y-71589735D01*
X25376462Y-71499079D01*
X26315015Y-71080485D01*
X25807309Y-70224467D01*
X25299604Y-69368464D01*
X24304616Y-69513178D01*
X24007107Y-69555338D01*
X23736598Y-69591166D01*
X23491640Y-69620582D01*
X23270785Y-69643505D01*
X23072588Y-69659852D01*
X22981532Y-69665535D01*
X22895598Y-69669543D01*
X22814605Y-69671867D01*
X22738371Y-69672497D01*
X22666715Y-69671422D01*
X22599456Y-69668633D01*
X22536414Y-69664118D01*
X22477408Y-69657869D01*
X22422256Y-69649874D01*
X22370777Y-69640124D01*
X22322792Y-69628609D01*
X22278118Y-69615318D01*
X22236575Y-69600241D01*
X22197981Y-69583368D01*
X22162157Y-69564689D01*
X22128920Y-69544195D01*
X22098091Y-69521873D01*
X22069487Y-69497716D01*
X22042929Y-69471711D01*
X22018234Y-69443850D01*
X21995223Y-69414122D01*
X21973714Y-69382517D01*
X21916050Y-69278987D01*
X21894987Y-69229279D01*
X21879125Y-69180928D01*
X21868480Y-69133924D01*
X21863068Y-69088258D01*
X21862905Y-69043918D01*
X21868007Y-69000895D01*
X21878390Y-68959178D01*
X21894070Y-68918756D01*
X21915063Y-68879621D01*
X21941386Y-68841761D01*
X21973054Y-68805167D01*
X22010083Y-68769827D01*
X22052490Y-68735732D01*
X22100290Y-68702871D01*
X22212134Y-68640813D01*
X22345745Y-68583570D01*
X22501250Y-68531060D01*
X22678779Y-68483200D01*
X22878459Y-68439910D01*
X23100419Y-68401107D01*
X23344787Y-68366709D01*
X23611692Y-68336634D01*
X24975049Y-68199717D01*
X24982871Y-67282160D01*
X25954740Y-67282160D01*
X25957728Y-67435134D01*
X25967505Y-67573337D01*
X25985290Y-67697724D01*
X25997567Y-67755034D01*
X26012303Y-67809248D01*
X26029652Y-67860486D01*
X26049764Y-67908865D01*
X26072794Y-67954507D01*
X26098892Y-67997530D01*
X26128213Y-68038053D01*
X26160907Y-68076195D01*
X26197128Y-68112077D01*
X26237028Y-68145817D01*
X26280760Y-68177535D01*
X26328475Y-68207349D01*
X26380327Y-68235380D01*
X26436468Y-68261747D01*
X26562225Y-68309964D01*
X26706967Y-68352956D01*
X26871914Y-68391676D01*
X27058284Y-68427080D01*
X27267297Y-68460121D01*
X27500173Y-68491755D01*
X27589348Y-68504515D01*
X27679167Y-68520062D01*
X27769032Y-68538182D01*
X27858342Y-68558660D01*
X27946499Y-68581281D01*
X28032905Y-68605831D01*
X28116958Y-68632095D01*
X28198061Y-68659859D01*
X28275615Y-68688908D01*
X28349019Y-68719027D01*
X28417676Y-68750003D01*
X28480985Y-68781620D01*
X28538348Y-68813664D01*
X28589165Y-68845920D01*
X28632838Y-68878174D01*
X28668767Y-68910212D01*
X28717095Y-68960042D01*
X28755950Y-69004257D01*
X28784361Y-69043188D01*
X28801352Y-69077166D01*
X28805261Y-69092402D01*
X28805950Y-69106523D01*
X28803298Y-69119571D01*
X28797182Y-69131589D01*
X28787481Y-69142616D01*
X28774073Y-69152695D01*
X28756837Y-69161867D01*
X28735650Y-69170174D01*
X28680940Y-69184356D01*
X28608968Y-69195572D01*
X28518760Y-69204154D01*
X28409344Y-69210432D01*
X28128989Y-69217406D01*
X27760114Y-69219141D01*
X27636082Y-69219784D01*
X27515527Y-69221669D01*
X27399075Y-69224733D01*
X27287350Y-69228912D01*
X27180975Y-69234144D01*
X27080575Y-69240364D01*
X26986774Y-69247509D01*
X26900196Y-69255516D01*
X26821467Y-69264321D01*
X26751209Y-69273860D01*
X26690047Y-69284071D01*
X26638606Y-69294889D01*
X26597510Y-69306251D01*
X26581036Y-69312116D01*
X26567382Y-69318093D01*
X26556627Y-69324175D01*
X26548848Y-69330353D01*
X26544123Y-69336619D01*
X26542531Y-69342966D01*
X26544647Y-69359003D01*
X26550856Y-69381308D01*
X26560947Y-69409480D01*
X26574713Y-69443116D01*
X26612431Y-69525174D01*
X26662337Y-69624268D01*
X26722757Y-69737183D01*
X26792019Y-69860703D01*
X26868449Y-69991615D01*
X26950376Y-70126703D01*
X27016104Y-70231034D01*
X27077815Y-70323914D01*
X27136767Y-70405995D01*
X27194216Y-70477928D01*
X27251419Y-70540364D01*
X27280322Y-70568224D01*
X27309634Y-70593955D01*
X27339513Y-70617636D01*
X27370117Y-70639351D01*
X27401602Y-70659180D01*
X27434125Y-70677204D01*
X27467844Y-70693506D01*
X27502916Y-70708165D01*
X27539497Y-70721265D01*
X27577745Y-70732886D01*
X27659871Y-70752016D01*
X27750550Y-70766209D01*
X27851038Y-70776113D01*
X27962594Y-70782382D01*
X28086474Y-70785666D01*
X28223935Y-70786616D01*
X28396053Y-70789775D01*
X28475145Y-70793630D01*
X28549536Y-70798918D01*
X28619184Y-70805574D01*
X28684045Y-70813537D01*
X28744078Y-70822742D01*
X28799239Y-70833126D01*
X28849486Y-70844626D01*
X28894776Y-70857180D01*
X28935067Y-70870723D01*
X28970316Y-70885192D01*
X29000480Y-70900525D01*
X29025517Y-70916657D01*
X29045384Y-70933527D01*
X29060039Y-70951069D01*
X29069438Y-70969222D01*
X29073540Y-70987921D01*
X29072302Y-71007105D01*
X29065680Y-71026708D01*
X29053633Y-71046669D01*
X29036117Y-71066924D01*
X29013091Y-71087409D01*
X28984511Y-71108062D01*
X28950335Y-71128819D01*
X28910521Y-71149617D01*
X28865025Y-71170393D01*
X28813805Y-71191083D01*
X28756818Y-71211624D01*
X28694022Y-71231954D01*
X28625374Y-71252008D01*
X28550832Y-71271723D01*
X28012021Y-71407465D01*
X28501851Y-71812082D01*
X28669487Y-71940547D01*
X28864392Y-72072275D01*
X29083888Y-72206165D01*
X29325296Y-72341117D01*
X29585937Y-72476029D01*
X29863131Y-72609800D01*
X30154200Y-72741330D01*
X30456464Y-72869517D01*
X31083863Y-73111457D01*
X31403640Y-73223009D01*
X31723897Y-73326814D01*
X32041954Y-73421771D01*
X32355132Y-73506778D01*
X32660752Y-73580736D01*
X32956136Y-73642542D01*
X32956151Y-73642542D01*
X33588649Y-73748585D01*
X34215896Y-73824100D01*
X34836316Y-73869414D01*
X35448334Y-73884852D01*
X36050373Y-73870742D01*
X36640857Y-73827410D01*
X37218211Y-73755183D01*
X37780858Y-73654387D01*
X38327223Y-73525348D01*
X38855730Y-73368394D01*
X39364802Y-73183851D01*
X39852864Y-72972046D01*
X40318339Y-72733304D01*
X40759653Y-72467953D01*
X41175228Y-72176319D01*
X41563489Y-71858729D01*
X42315076Y-71194788D01*
X41629316Y-71183588D01*
X41352647Y-71172224D01*
X41230031Y-71161872D01*
X41117823Y-71148602D01*
X41015971Y-71132561D01*
X40924421Y-71113894D01*
X40843121Y-71092750D01*
X40772019Y-71069275D01*
X40711061Y-71043614D01*
X40660194Y-71015916D01*
X40619367Y-70986325D01*
X40588526Y-70954990D01*
X40567619Y-70922057D01*
X40556592Y-70887672D01*
X40555394Y-70851982D01*
X40563970Y-70815134D01*
X40582270Y-70777274D01*
X40610239Y-70738549D01*
X40647825Y-70699106D01*
X40694975Y-70659090D01*
X40751637Y-70618650D01*
X40817757Y-70577931D01*
X40893284Y-70537080D01*
X40978164Y-70496243D01*
X41175773Y-70415201D01*
X41410162Y-70335977D01*
X41680909Y-70259745D01*
X41987592Y-70187678D01*
X42106001Y-70160864D01*
X42219613Y-70132271D01*
X42328249Y-70101986D01*
X42431727Y-70070099D01*
X42529869Y-70036695D01*
X42622493Y-70001863D01*
X42709421Y-69965691D01*
X42790471Y-69928267D01*
X42865464Y-69889677D01*
X42934220Y-69850011D01*
X42996558Y-69809355D01*
X43025265Y-69788684D01*
X43052300Y-69767798D01*
X43077640Y-69746709D01*
X43101264Y-69725427D01*
X43123148Y-69703964D01*
X43143270Y-69682330D01*
X43161608Y-69660537D01*
X43178139Y-69638595D01*
X43192840Y-69616515D01*
X43205690Y-69594309D01*
X43237585Y-69532650D01*
X43262621Y-69478105D01*
X43279778Y-69430242D01*
X43288038Y-69388626D01*
X43288512Y-69370027D01*
X43286379Y-69352827D01*
X43281513Y-69336973D01*
X43273784Y-69322411D01*
X43263066Y-69309086D01*
X43249231Y-69296945D01*
X43232153Y-69285934D01*
X43211703Y-69275997D01*
X43160178Y-69259134D01*
X43093637Y-69245924D01*
X43011062Y-69235932D01*
X42911431Y-69228728D01*
X42793726Y-69223878D01*
X42656927Y-69220950D01*
X42321969Y-69219126D01*
X42202903Y-69218136D01*
X42089149Y-69215209D01*
X41981034Y-69210408D01*
X41878884Y-69203799D01*
X41783027Y-69195444D01*
X41693790Y-69185408D01*
X41611499Y-69173755D01*
X41536483Y-69160549D01*
X41469067Y-69145854D01*
X41409579Y-69129735D01*
X41382910Y-69121160D01*
X41358345Y-69112254D01*
X41335927Y-69103023D01*
X41315694Y-69093476D01*
X41297689Y-69083621D01*
X41281952Y-69073466D01*
X41268523Y-69063018D01*
X41257445Y-69052287D01*
X41248757Y-69041279D01*
X41242501Y-69030003D01*
X41238717Y-69018466D01*
X41237447Y-69006678D01*
X41239011Y-68995104D01*
X41243651Y-68982326D01*
X41261855Y-68953340D01*
X41291446Y-68920097D01*
X41331810Y-68882974D01*
X41382335Y-68842347D01*
X41442407Y-68798592D01*
X41511413Y-68752088D01*
X41588741Y-68703209D01*
X41765906Y-68599837D01*
X41968998Y-68491490D01*
X42193112Y-68381180D01*
X42433343Y-68271921D01*
X43629232Y-67749628D01*
X43542470Y-66361582D01*
X43528619Y-66164546D01*
X43512149Y-65977805D01*
X43492698Y-65800061D01*
X43469900Y-65630013D01*
X43443394Y-65466360D01*
X43412815Y-65307803D01*
X43377801Y-65153042D01*
X43337988Y-65000776D01*
X43293013Y-64849706D01*
X43242511Y-64698532D01*
X43186120Y-64545953D01*
X43123477Y-64390669D01*
X43054218Y-64231381D01*
X42977979Y-64066787D01*
X42894397Y-63895589D01*
X42803109Y-63716486D01*
X41566415Y-61330210D01*
X41486102Y-61171287D01*
X41412191Y-61017070D01*
X41344393Y-60866457D01*
X41282421Y-60718344D01*
X41225985Y-60571626D01*
X41174798Y-60425199D01*
X41128571Y-60277960D01*
X41087017Y-60128805D01*
X41049846Y-59976630D01*
X41016771Y-59820331D01*
X40987503Y-59658803D01*
X40961755Y-59490944D01*
X40939237Y-59315649D01*
X40919661Y-59131814D01*
X40888185Y-58734110D01*
X40877865Y-58584684D01*
X40866401Y-58439448D01*
X40853914Y-58299155D01*
X40840525Y-58164556D01*
X40826354Y-58036404D01*
X40811520Y-57915451D01*
X40796146Y-57802448D01*
X40780350Y-57698147D01*
X40764254Y-57603301D01*
X40747978Y-57518661D01*
X40731642Y-57444979D01*
X40715367Y-57383008D01*
X40699273Y-57333500D01*
X40683481Y-57297205D01*
X40675736Y-57284248D01*
X40668111Y-57274877D01*
X40660622Y-57269186D01*
X40653283Y-57267267D01*
X40630571Y-57270302D01*
X40601228Y-57279205D01*
X40524263Y-57313409D01*
X40425612Y-57367464D01*
X40308497Y-57438957D01*
X40176142Y-57525473D01*
X40031770Y-57624598D01*
X39719867Y-57851017D01*
X39398571Y-58098900D01*
X39093667Y-58348934D01*
X38955420Y-58468721D01*
X38830940Y-58581802D01*
X38723451Y-58685765D01*
X38636174Y-58778193D01*
X38576933Y-58845968D01*
X38526695Y-58907001D01*
X38486186Y-58962800D01*
X38469806Y-58989208D01*
X38456131Y-59014872D01*
X38445251Y-59039981D01*
X38437256Y-59064723D01*
X38432238Y-59089287D01*
X38430286Y-59113861D01*
X38431493Y-59138634D01*
X38435947Y-59163794D01*
X38443741Y-59189529D01*
X38454964Y-59216028D01*
X38469708Y-59243480D01*
X38488063Y-59272071D01*
X38510120Y-59301992D01*
X38535969Y-59333430D01*
X38599408Y-59401612D01*
X38679105Y-59478125D01*
X38775786Y-59564475D01*
X38890176Y-59662170D01*
X39174985Y-59897623D01*
X39265329Y-59973111D01*
X39353139Y-60049339D01*
X39437962Y-60125792D01*
X39519341Y-60201954D01*
X39596823Y-60277307D01*
X39669953Y-60351336D01*
X39738276Y-60423523D01*
X39801337Y-60493353D01*
X39858682Y-60560308D01*
X39909857Y-60623873D01*
X39954405Y-60683530D01*
X39991874Y-60738764D01*
X40021808Y-60789057D01*
X40033807Y-60812190D01*
X40043752Y-60833894D01*
X40051586Y-60854104D01*
X40057252Y-60872757D01*
X40060693Y-60889787D01*
X40061853Y-60905131D01*
X40061273Y-60971129D01*
X40058529Y-61027716D01*
X40052112Y-61074479D01*
X40040515Y-61111006D01*
X40032302Y-61125303D01*
X40022228Y-61136886D01*
X40010105Y-61145705D01*
X39995745Y-61151707D01*
X39978958Y-61154842D01*
X39959556Y-61155057D01*
X39937350Y-61152302D01*
X39912153Y-61146525D01*
X39852029Y-61125697D01*
X39777675Y-61092164D01*
X39687583Y-61045512D01*
X39580244Y-60985331D01*
X39307797Y-60822730D01*
X38948266Y-60601069D01*
X38845134Y-60539770D01*
X38731156Y-60476814D01*
X38475367Y-60347811D01*
X38190305Y-60217817D01*
X37885375Y-60090592D01*
X37569985Y-59969895D01*
X37253538Y-59859485D01*
X36945442Y-59763122D01*
X36655103Y-59684565D01*
X36343130Y-59614839D01*
X36036617Y-59560376D01*
X35735445Y-59521194D01*
X35439498Y-59497313D01*
X35148659Y-59488753D01*
X34862811Y-59495533D01*
X34581836Y-59517671D01*
X34305618Y-59555187D01*
X34034038Y-59608101D01*
X33766982Y-59676432D01*
X33504330Y-59760199D01*
X33245966Y-59859421D01*
X32991773Y-59974118D01*
X32741634Y-60104309D01*
X32495432Y-60250013D01*
X32253049Y-60411249D01*
X32166806Y-60470876D01*
X32082979Y-60526843D01*
X32001568Y-60579152D01*
X31922572Y-60627801D01*
X31845988Y-60672791D01*
X31771817Y-60714123D01*
X31700056Y-60751796D01*
X31630704Y-60785810D01*
X31563761Y-60816165D01*
X31499224Y-60842862D01*
X31437093Y-60865901D01*
X31377367Y-60885281D01*
X31320044Y-60901003D01*
X31265123Y-60913067D01*
X31212602Y-60921473D01*
X31162482Y-60926220D01*
X31114759Y-60927310D01*
X31069433Y-60924742D01*
X31026504Y-60918515D01*
X30985968Y-60908632D01*
X30947827Y-60895090D01*
X30912077Y-60877891D01*
X30878718Y-60857035D01*
X30847749Y-60832521D01*
X30819168Y-60804350D01*
X30792974Y-60772522D01*
X30769166Y-60737037D01*
X30747743Y-60697894D01*
X30728703Y-60655095D01*
X30712046Y-60608638D01*
X30697769Y-60558525D01*
X30685872Y-60504755D01*
X30682041Y-60480651D01*
X30679751Y-60456117D01*
X30679000Y-60431154D01*
X30679789Y-60405763D01*
X30682117Y-60379944D01*
X30685985Y-60353697D01*
X30698335Y-60299924D01*
X30716837Y-60244448D01*
X30741489Y-60187273D01*
X30772287Y-60128402D01*
X30809229Y-60067841D01*
X30852313Y-60005593D01*
X30901535Y-59941662D01*
X30956892Y-59876053D01*
X31018384Y-59808769D01*
X31086005Y-59739815D01*
X31159755Y-59669196D01*
X31239630Y-59596914D01*
X31325628Y-59522974D01*
X32039098Y-58923975D01*
X30686437Y-57712916D01*
X29333768Y-56501841D01*
X29240567Y-58109141D01*
X29214696Y-58469703D01*
X29179152Y-58820554D01*
X29133377Y-59163331D01*
X29076809Y-59499674D01*
X29008888Y-59831223D01*
X28929053Y-60159616D01*
X28836744Y-60486492D01*
X28731400Y-60813490D01*
X28612460Y-61142250D01*
X28479363Y-61474410D01*
X28331550Y-61811609D01*
X28168460Y-62155487D01*
X27989531Y-62507682D01*
X27794203Y-62869834D01*
X27581916Y-63243582D01*
X27352109Y-63630564D01*
X27156251Y-63957438D01*
X26978178Y-64262493D01*
X26817180Y-64547586D01*
X26672547Y-64814575D01*
X26543568Y-65065316D01*
X26429532Y-65301665D01*
X26329729Y-65525481D01*
X26243449Y-65738619D01*
X26169980Y-65942937D01*
X26108612Y-66140290D01*
X26058635Y-66332538D01*
X26019338Y-66521535D01*
X25990010Y-66709139D01*
X25969942Y-66897206D01*
X25958422Y-67087594D01*
X25954740Y-67282160D01*
X24982871Y-67282160D01*
X24983648Y-67190958D01*
X24989094Y-66956000D01*
X25001983Y-66729813D01*
X25023279Y-66509735D01*
X25053945Y-66293102D01*
X25094946Y-66077251D01*
X25147247Y-65859519D01*
X25211812Y-65637243D01*
X25289604Y-65407761D01*
X25381589Y-65168408D01*
X25488731Y-64916523D01*
X25611994Y-64649441D01*
X25752342Y-64364500D01*
X25910740Y-64059037D01*
X26088151Y-63730389D01*
X26503873Y-62992884D01*
X26777257Y-62501002D01*
X27025714Y-62018192D01*
X27249521Y-61543100D01*
X27448952Y-61074372D01*
X27624286Y-60610655D01*
X27775796Y-60150597D01*
X27903761Y-59692843D01*
X28008455Y-59236040D01*
X28090154Y-58778836D01*
X28149135Y-58319876D01*
X28185674Y-57857807D01*
X28200046Y-57391277D01*
X28192529Y-56918931D01*
X28163397Y-56439417D01*
X28112927Y-55951381D01*
X28041394Y-55453470D01*
X28001434Y-55176706D01*
X27979711Y-54941402D01*
X27978217Y-54748262D01*
X27985679Y-54667724D01*
X27998946Y-54597991D01*
X28018267Y-54539152D01*
X28043891Y-54491293D01*
X28076068Y-54454503D01*
X28115046Y-54428871D01*
X28161075Y-54414483D01*
X28214404Y-54411429D01*
X28275281Y-54419795D01*
X28343957Y-54439671D01*
X28420680Y-54471143D01*
X28505700Y-54514301D01*
X28701624Y-54636023D01*
X28933724Y-54805541D01*
X29203993Y-55023559D01*
X29514423Y-55290781D01*
X29867008Y-55607911D01*
X30263742Y-55975652D01*
X30706617Y-56394709D01*
X32915807Y-58501352D01*
X34872381Y-58540751D01*
X35274411Y-58551728D01*
X35666864Y-58567893D01*
X36039905Y-58588467D01*
X36383703Y-58612675D01*
X36688424Y-58639738D01*
X36944234Y-58668881D01*
X37050725Y-58683989D01*
X37141301Y-58699326D01*
X37214733Y-58714793D01*
X37269792Y-58730295D01*
X37297877Y-58739637D01*
X37324979Y-58748190D01*
X37351103Y-58755953D01*
X37376257Y-58762923D01*
X37400445Y-58769101D01*
X37423674Y-58774484D01*
X37445950Y-58779071D01*
X37467278Y-58782861D01*
X37487666Y-58785852D01*
X37507118Y-58788044D01*
X37525641Y-58789435D01*
X37543241Y-58790023D01*
X37559924Y-58789807D01*
X37575696Y-58788786D01*
X37590562Y-58786958D01*
X37604530Y-58784323D01*
X37617604Y-58780878D01*
X37629791Y-58776623D01*
X37641098Y-58771556D01*
X37651529Y-58765675D01*
X37661091Y-58758980D01*
X37669790Y-58751470D01*
X37677632Y-58743141D01*
X37684623Y-58733995D01*
X37690770Y-58724028D01*
X37696077Y-58713240D01*
X37700551Y-58701629D01*
X37704198Y-58689195D01*
X37707024Y-58675935D01*
X37709036Y-58661848D01*
X37710238Y-58646933D01*
X37710637Y-58631190D01*
X37719545Y-58556000D01*
X37745623Y-58470891D01*
X37787900Y-58376668D01*
X37845409Y-58274140D01*
X38002238Y-58047395D01*
X38208355Y-57797113D01*
X38456002Y-57529748D01*
X38737425Y-57251759D01*
X39044865Y-56969602D01*
X39370567Y-56689734D01*
X39706775Y-56418610D01*
X40045731Y-56162688D01*
X40379680Y-55928425D01*
X40700865Y-55722276D01*
X41001530Y-55550699D01*
X41273919Y-55420150D01*
X41397085Y-55372278D01*
X41510274Y-55337085D01*
X41612516Y-55315378D01*
X41702840Y-55307963D01*
X41752010Y-55309666D01*
X41798846Y-55314765D01*
X41843344Y-55323239D01*
X41885498Y-55335071D01*
X41925304Y-55350241D01*
X41962758Y-55368730D01*
X41997856Y-55390520D01*
X42030592Y-55415592D01*
X42060963Y-55443927D01*
X42088963Y-55475506D01*
X42114589Y-55510311D01*
X42137835Y-55548322D01*
X42158698Y-55589520D01*
X42177172Y-55633888D01*
X42206939Y-55732054D01*
X42227098Y-55842669D01*
X42237614Y-55965584D01*
X42238451Y-56100646D01*
X42229573Y-56247706D01*
X42210944Y-56406612D01*
X42182527Y-56577215D01*
X42144288Y-56759363D01*
X42096189Y-56952906D01*
X42015259Y-57274929D01*
X41947977Y-57583146D01*
X41894476Y-57878932D01*
X41854892Y-58163662D01*
X41829359Y-58438709D01*
X41818013Y-58705450D01*
X41820987Y-58965258D01*
X41838418Y-59219507D01*
X41870439Y-59469574D01*
X41917185Y-59716831D01*
X41978792Y-59962654D01*
X42055394Y-60208417D01*
X42147126Y-60455495D01*
X42254122Y-60705262D01*
X42376518Y-60959093D01*
X42514447Y-61218363D01*
X42997668Y-62103483D01*
X43405382Y-62885164D01*
X43582990Y-63242146D01*
X43744198Y-63579187D01*
X43889833Y-63898260D01*
X44020721Y-64201336D01*
X44137688Y-64490389D01*
X44241558Y-64767392D01*
X44333159Y-65034318D01*
X44413316Y-65293138D01*
X44482854Y-65545827D01*
X44542600Y-65794357D01*
X44593380Y-66040700D01*
X44636018Y-66286829D01*
X44848092Y-67633661D01*
X45716748Y-67691660D01*
X45801777Y-67698380D01*
X45883927Y-67706973D01*
X45963168Y-67717414D01*
X46039468Y-67729676D01*
X46112799Y-67743730D01*
X46139018Y-67749628D01*
G37*
X46139018Y-67749628D02*
X46183128Y-67759551D01*
X46250427Y-67777112D01*
X46314663Y-67796385D01*
X46375808Y-67817343D01*
X46433831Y-67839961D01*
X46488701Y-67864210D01*
X46540388Y-67890064D01*
X46588861Y-67917497D01*
X46634090Y-67946480D01*
X46676044Y-67976987D01*
X46714694Y-68008991D01*
X46750009Y-68042466D01*
X46781958Y-68077384D01*
X46810511Y-68113719D01*
X46835637Y-68151442D01*
X46857307Y-68190529D01*
X46875489Y-68230951D01*
X46890154Y-68272682D01*
X46901270Y-68315694D01*
X46908808Y-68359962D01*
X46912737Y-68405457D01*
X46913026Y-68452153D01*
X46909646Y-68500024D01*
X46902566Y-68549041D01*
X46891755Y-68599179D01*
X46877183Y-68650410D01*
X46858819Y-68702707D01*
X46839001Y-68746241D01*
X46814105Y-68786054D01*
X46783665Y-68822272D01*
X46747214Y-68855020D01*
X46704286Y-68884426D01*
X46654416Y-68910614D01*
X46597135Y-68933711D01*
X46531978Y-68953842D01*
X46458479Y-68971134D01*
X46376171Y-68985711D01*
X46284588Y-68997701D01*
X46183263Y-69007228D01*
X46071729Y-69014419D01*
X45949521Y-69019400D01*
X45671216Y-69023234D01*
X45493468Y-69023735D01*
X45336065Y-69025713D01*
X45197461Y-69029879D01*
X45076111Y-69036944D01*
X45021423Y-69041786D01*
X44970469Y-69047620D01*
X44923056Y-69054533D01*
X44878991Y-69062616D01*
X44838080Y-69071957D01*
X44800130Y-69082645D01*
X44764949Y-69094769D01*
X44732343Y-69108418D01*
X44702118Y-69123680D01*
X44674082Y-69140645D01*
X44648041Y-69159401D01*
X44623803Y-69180038D01*
X44601174Y-69202644D01*
X44579960Y-69227308D01*
X44559970Y-69254119D01*
X44541009Y-69283165D01*
X44522885Y-69314537D01*
X44505403Y-69348322D01*
X44488372Y-69384610D01*
X44471598Y-69423490D01*
X44438048Y-69509378D01*
X44403207Y-69606699D01*
X44363074Y-69724093D01*
X44330184Y-69827946D01*
X44305554Y-69919393D01*
X44290199Y-69999567D01*
X44286319Y-70035781D01*
X44285138Y-70069603D01*
X44286785Y-70101175D01*
X44291386Y-70130637D01*
X44299069Y-70158132D01*
X44309960Y-70183802D01*
X44324187Y-70207789D01*
X44341877Y-70230234D01*
X44363157Y-70251280D01*
X44388154Y-70271067D01*
X44416995Y-70289738D01*
X44449807Y-70307436D01*
X44486717Y-70324300D01*
X44527853Y-70340474D01*
X44623308Y-70371318D01*
X44737190Y-70401100D01*
X44870514Y-70430957D01*
X45199559Y-70495432D01*
X45355692Y-70528124D01*
X45429193Y-70546166D01*
X45499652Y-70565339D01*
X45567067Y-70585642D01*
X45631439Y-70607077D01*
X45692768Y-70629641D01*
X45751053Y-70653336D01*
X45806295Y-70678162D01*
X45858494Y-70704118D01*
X45907649Y-70731204D01*
X45953760Y-70759420D01*
X45996827Y-70788766D01*
X46036851Y-70819242D01*
X46073830Y-70850848D01*
X46107765Y-70883583D01*
X46138657Y-70917449D01*
X46166504Y-70952444D01*
X46191307Y-70988568D01*
X46213065Y-71025822D01*
X46231780Y-71064205D01*
X46247449Y-71103718D01*
X46260074Y-71144360D01*
X46269655Y-71186131D01*
X46276190Y-71229031D01*
X46279681Y-71273060D01*
X46280127Y-71318218D01*
X46277528Y-71364505D01*
X46271884Y-71411920D01*
X46263195Y-71460464D01*
X46251460Y-71510137D01*
X46236680Y-71560938D01*
X46206751Y-71643434D01*
X46171900Y-71715642D01*
X46131067Y-71777647D01*
X46108075Y-71804851D01*
X46083189Y-71829535D01*
X46056276Y-71851712D01*
X46027204Y-71871391D01*
X45995839Y-71888583D01*
X45962049Y-71903299D01*
X45925701Y-71915549D01*
X45886662Y-71925344D01*
X45799982Y-71937611D01*
X45700945Y-71940185D01*
X45588490Y-71933151D01*
X45461554Y-71916594D01*
X45319076Y-71890599D01*
X45159992Y-71855250D01*
X44983241Y-71810633D01*
X44787760Y-71756833D01*
X44572488Y-71693934D01*
X43695012Y-71431605D01*
X42835405Y-72387705D01*
X42632974Y-72605378D01*
X42426377Y-72812600D01*
X42215237Y-73009594D01*
X41999181Y-73196584D01*
X41777831Y-73373794D01*
X41550812Y-73541448D01*
X41317750Y-73699769D01*
X41078267Y-73848982D01*
X40831990Y-73989310D01*
X40578542Y-74120978D01*
X40317548Y-74244209D01*
X40048632Y-74359227D01*
X39771420Y-74466256D01*
X39485534Y-74565520D01*
X39190600Y-74657243D01*
X38886243Y-74741648D01*
X38886239Y-74741602D01*
X38568987Y-74815230D01*
X38211857Y-74881275D01*
X37820491Y-74939158D01*
X37400531Y-74988297D01*
X36957618Y-75028111D01*
X36497394Y-75058019D01*
X36025500Y-75077441D01*
X35547578Y-75085795D01*
X34973663Y-75080599D01*
X34419393Y-75058345D01*
X33883453Y-75018624D01*
X33364528Y-74961025D01*
X32861303Y-74885138D01*
X32372462Y-74790552D01*
X31896691Y-74676857D01*
X31432674Y-74543642D01*
X30979097Y-74390498D01*
X30534644Y-74217013D01*
X30098000Y-74022777D01*
X29667850Y-73807381D01*
X29242880Y-73570413D01*
X28821773Y-73311463D01*
X28403215Y-73030121D01*
X27985891Y-72725977D01*
X26784185Y-71816569D01*
X25765287Y-72404825D01*
X25602493Y-72498172D01*
X25456696Y-72580099D01*
X25326547Y-72650899D01*
X25210699Y-72710867D01*
X25157717Y-72736880D01*
X25107805Y-72760295D01*
X25060795Y-72781149D01*
X25016519Y-72799478D01*
X24974807Y-72815319D01*
X24935492Y-72828708D01*
X24898406Y-72839683D01*
X24863379Y-72848280D01*
X24830243Y-72854536D01*
X24798831Y-72858487D01*
X24768973Y-72860170D01*
X24740501Y-72859621D01*
X24713248Y-72856879D01*
X24687044Y-72851978D01*
X24661720Y-72844956D01*
X24637110Y-72835850D01*
X24613044Y-72824696D01*
X24589353Y-72811531D01*
X24565871Y-72796391D01*
X24542427Y-72779314D01*
X24518854Y-72760336D01*
X24494984Y-72739493D01*
X24470647Y-72716823D01*
X24445676Y-72692362D01*
X24376772Y-72617271D01*
X24348003Y-72580609D01*
X24323086Y-72544459D01*
X24302065Y-72508760D01*
X24284988Y-72473453D01*
X24271901Y-72438479D01*
X24262849Y-72403779D01*
X24257879Y-72369294D01*
X24257037Y-72334964D01*
X24260370Y-72300729D01*
X24267923Y-72266532D01*
X24279743Y-72232312D01*
X24295876Y-72198011D01*
X24316368Y-72163568D01*
X24341265Y-72128925D01*
X24370614Y-72094023D01*
X24404461Y-72058803D01*
X24442852Y-72023204D01*
X24485833Y-71987168D01*
X24585750Y-71913548D01*
X24704583Y-71837469D01*
X24842701Y-71758456D01*
X25000474Y-71676036D01*
X25178271Y-71589735D01*
X25376462Y-71499079D01*
X26315015Y-71080485D01*
X25807309Y-70224467D01*
X25299604Y-69368464D01*
X24304616Y-69513178D01*
X24007107Y-69555338D01*
X23736598Y-69591166D01*
X23491640Y-69620582D01*
X23270785Y-69643505D01*
X23072588Y-69659852D01*
X22981532Y-69665535D01*
X22895598Y-69669543D01*
X22814605Y-69671867D01*
X22738371Y-69672497D01*
X22666715Y-69671422D01*
X22599456Y-69668633D01*
X22536414Y-69664118D01*
X22477408Y-69657869D01*
X22422256Y-69649874D01*
X22370777Y-69640124D01*
X22322792Y-69628609D01*
X22278118Y-69615318D01*
X22236575Y-69600241D01*
X22197981Y-69583368D01*
X22162157Y-69564689D01*
X22128920Y-69544195D01*
X22098091Y-69521873D01*
X22069487Y-69497716D01*
X22042929Y-69471711D01*
X22018234Y-69443850D01*
X21995223Y-69414122D01*
X21973714Y-69382517D01*
X21916050Y-69278987D01*
X21894987Y-69229279D01*
X21879125Y-69180928D01*
X21868480Y-69133924D01*
X21863068Y-69088258D01*
X21862905Y-69043918D01*
X21868007Y-69000895D01*
X21878390Y-68959178D01*
X21894070Y-68918756D01*
X21915063Y-68879621D01*
X21941386Y-68841761D01*
X21973054Y-68805167D01*
X22010083Y-68769827D01*
X22052490Y-68735732D01*
X22100290Y-68702871D01*
X22212134Y-68640813D01*
X22345745Y-68583570D01*
X22501250Y-68531060D01*
X22678779Y-68483200D01*
X22878459Y-68439910D01*
X23100419Y-68401107D01*
X23344787Y-68366709D01*
X23611692Y-68336634D01*
X24975049Y-68199717D01*
X24982871Y-67282160D01*
X25954740Y-67282160D01*
X25957728Y-67435134D01*
X25967505Y-67573337D01*
X25985290Y-67697724D01*
X25997567Y-67755034D01*
X26012303Y-67809248D01*
X26029652Y-67860486D01*
X26049764Y-67908865D01*
X26072794Y-67954507D01*
X26098892Y-67997530D01*
X26128213Y-68038053D01*
X26160907Y-68076195D01*
X26197128Y-68112077D01*
X26237028Y-68145817D01*
X26280760Y-68177535D01*
X26328475Y-68207349D01*
X26380327Y-68235380D01*
X26436468Y-68261747D01*
X26562225Y-68309964D01*
X26706967Y-68352956D01*
X26871914Y-68391676D01*
X27058284Y-68427080D01*
X27267297Y-68460121D01*
X27500173Y-68491755D01*
X27589348Y-68504515D01*
X27679167Y-68520062D01*
X27769032Y-68538182D01*
X27858342Y-68558660D01*
X27946499Y-68581281D01*
X28032905Y-68605831D01*
X28116958Y-68632095D01*
X28198061Y-68659859D01*
X28275615Y-68688908D01*
X28349019Y-68719027D01*
X28417676Y-68750003D01*
X28480985Y-68781620D01*
X28538348Y-68813664D01*
X28589165Y-68845920D01*
X28632838Y-68878174D01*
X28668767Y-68910212D01*
X28717095Y-68960042D01*
X28755950Y-69004257D01*
X28784361Y-69043188D01*
X28801352Y-69077166D01*
X28805261Y-69092402D01*
X28805950Y-69106523D01*
X28803298Y-69119571D01*
X28797182Y-69131589D01*
X28787481Y-69142616D01*
X28774073Y-69152695D01*
X28756837Y-69161867D01*
X28735650Y-69170174D01*
X28680940Y-69184356D01*
X28608968Y-69195572D01*
X28518760Y-69204154D01*
X28409344Y-69210432D01*
X28128989Y-69217406D01*
X27760114Y-69219141D01*
X27636082Y-69219784D01*
X27515527Y-69221669D01*
X27399075Y-69224733D01*
X27287350Y-69228912D01*
X27180975Y-69234144D01*
X27080575Y-69240364D01*
X26986774Y-69247509D01*
X26900196Y-69255516D01*
X26821467Y-69264321D01*
X26751209Y-69273860D01*
X26690047Y-69284071D01*
X26638606Y-69294889D01*
X26597510Y-69306251D01*
X26581036Y-69312116D01*
X26567382Y-69318093D01*
X26556627Y-69324175D01*
X26548848Y-69330353D01*
X26544123Y-69336619D01*
X26542531Y-69342966D01*
X26544647Y-69359003D01*
X26550856Y-69381308D01*
X26560947Y-69409480D01*
X26574713Y-69443116D01*
X26612431Y-69525174D01*
X26662337Y-69624268D01*
X26722757Y-69737183D01*
X26792019Y-69860703D01*
X26868449Y-69991615D01*
X26950376Y-70126703D01*
X27016104Y-70231034D01*
X27077815Y-70323914D01*
X27136767Y-70405995D01*
X27194216Y-70477928D01*
X27251419Y-70540364D01*
X27280322Y-70568224D01*
X27309634Y-70593955D01*
X27339513Y-70617636D01*
X27370117Y-70639351D01*
X27401602Y-70659180D01*
X27434125Y-70677204D01*
X27467844Y-70693506D01*
X27502916Y-70708165D01*
X27539497Y-70721265D01*
X27577745Y-70732886D01*
X27659871Y-70752016D01*
X27750550Y-70766209D01*
X27851038Y-70776113D01*
X27962594Y-70782382D01*
X28086474Y-70785666D01*
X28223935Y-70786616D01*
X28396053Y-70789775D01*
X28475145Y-70793630D01*
X28549536Y-70798918D01*
X28619184Y-70805574D01*
X28684045Y-70813537D01*
X28744078Y-70822742D01*
X28799239Y-70833126D01*
X28849486Y-70844626D01*
X28894776Y-70857180D01*
X28935067Y-70870723D01*
X28970316Y-70885192D01*
X29000480Y-70900525D01*
X29025517Y-70916657D01*
X29045384Y-70933527D01*
X29060039Y-70951069D01*
X29069438Y-70969222D01*
X29073540Y-70987921D01*
X29072302Y-71007105D01*
X29065680Y-71026708D01*
X29053633Y-71046669D01*
X29036117Y-71066924D01*
X29013091Y-71087409D01*
X28984511Y-71108062D01*
X28950335Y-71128819D01*
X28910521Y-71149617D01*
X28865025Y-71170393D01*
X28813805Y-71191083D01*
X28756818Y-71211624D01*
X28694022Y-71231954D01*
X28625374Y-71252008D01*
X28550832Y-71271723D01*
X28012021Y-71407465D01*
X28501851Y-71812082D01*
X28669487Y-71940547D01*
X28864392Y-72072275D01*
X29083888Y-72206165D01*
X29325296Y-72341117D01*
X29585937Y-72476029D01*
X29863131Y-72609800D01*
X30154200Y-72741330D01*
X30456464Y-72869517D01*
X31083863Y-73111457D01*
X31403640Y-73223009D01*
X31723897Y-73326814D01*
X32041954Y-73421771D01*
X32355132Y-73506778D01*
X32660752Y-73580736D01*
X32956136Y-73642542D01*
X32956151Y-73642542D01*
X33588649Y-73748585D01*
X34215896Y-73824100D01*
X34836316Y-73869414D01*
X35448334Y-73884852D01*
X36050373Y-73870742D01*
X36640857Y-73827410D01*
X37218211Y-73755183D01*
X37780858Y-73654387D01*
X38327223Y-73525348D01*
X38855730Y-73368394D01*
X39364802Y-73183851D01*
X39852864Y-72972046D01*
X40318339Y-72733304D01*
X40759653Y-72467953D01*
X41175228Y-72176319D01*
X41563489Y-71858729D01*
X42315076Y-71194788D01*
X41629316Y-71183588D01*
X41352647Y-71172224D01*
X41230031Y-71161872D01*
X41117823Y-71148602D01*
X41015971Y-71132561D01*
X40924421Y-71113894D01*
X40843121Y-71092750D01*
X40772019Y-71069275D01*
X40711061Y-71043614D01*
X40660194Y-71015916D01*
X40619367Y-70986325D01*
X40588526Y-70954990D01*
X40567619Y-70922057D01*
X40556592Y-70887672D01*
X40555394Y-70851982D01*
X40563970Y-70815134D01*
X40582270Y-70777274D01*
X40610239Y-70738549D01*
X40647825Y-70699106D01*
X40694975Y-70659090D01*
X40751637Y-70618650D01*
X40817757Y-70577931D01*
X40893284Y-70537080D01*
X40978164Y-70496243D01*
X41175773Y-70415201D01*
X41410162Y-70335977D01*
X41680909Y-70259745D01*
X41987592Y-70187678D01*
X42106001Y-70160864D01*
X42219613Y-70132271D01*
X42328249Y-70101986D01*
X42431727Y-70070099D01*
X42529869Y-70036695D01*
X42622493Y-70001863D01*
X42709421Y-69965691D01*
X42790471Y-69928267D01*
X42865464Y-69889677D01*
X42934220Y-69850011D01*
X42996558Y-69809355D01*
X43025265Y-69788684D01*
X43052300Y-69767798D01*
X43077640Y-69746709D01*
X43101264Y-69725427D01*
X43123148Y-69703964D01*
X43143270Y-69682330D01*
X43161608Y-69660537D01*
X43178139Y-69638595D01*
X43192840Y-69616515D01*
X43205690Y-69594309D01*
X43237585Y-69532650D01*
X43262621Y-69478105D01*
X43279778Y-69430242D01*
X43288038Y-69388626D01*
X43288512Y-69370027D01*
X43286379Y-69352827D01*
X43281513Y-69336973D01*
X43273784Y-69322411D01*
X43263066Y-69309086D01*
X43249231Y-69296945D01*
X43232153Y-69285934D01*
X43211703Y-69275997D01*
X43160178Y-69259134D01*
X43093637Y-69245924D01*
X43011062Y-69235932D01*
X42911431Y-69228728D01*
X42793726Y-69223878D01*
X42656927Y-69220950D01*
X42321969Y-69219126D01*
X42202903Y-69218136D01*
X42089149Y-69215209D01*
X41981034Y-69210408D01*
X41878884Y-69203799D01*
X41783027Y-69195444D01*
X41693790Y-69185408D01*
X41611499Y-69173755D01*
X41536483Y-69160549D01*
X41469067Y-69145854D01*
X41409579Y-69129735D01*
X41382910Y-69121160D01*
X41358345Y-69112254D01*
X41335927Y-69103023D01*
X41315694Y-69093476D01*
X41297689Y-69083621D01*
X41281952Y-69073466D01*
X41268523Y-69063018D01*
X41257445Y-69052287D01*
X41248757Y-69041279D01*
X41242501Y-69030003D01*
X41238717Y-69018466D01*
X41237447Y-69006678D01*
X41239011Y-68995104D01*
X41243651Y-68982326D01*
X41261855Y-68953340D01*
X41291446Y-68920097D01*
X41331810Y-68882974D01*
X41382335Y-68842347D01*
X41442407Y-68798592D01*
X41511413Y-68752088D01*
X41588741Y-68703209D01*
X41765906Y-68599837D01*
X41968998Y-68491490D01*
X42193112Y-68381180D01*
X42433343Y-68271921D01*
X43629232Y-67749628D01*
X43542470Y-66361582D01*
X43528619Y-66164546D01*
X43512149Y-65977805D01*
X43492698Y-65800061D01*
X43469900Y-65630013D01*
X43443394Y-65466360D01*
X43412815Y-65307803D01*
X43377801Y-65153042D01*
X43337988Y-65000776D01*
X43293013Y-64849706D01*
X43242511Y-64698532D01*
X43186120Y-64545953D01*
X43123477Y-64390669D01*
X43054218Y-64231381D01*
X42977979Y-64066787D01*
X42894397Y-63895589D01*
X42803109Y-63716486D01*
X41566415Y-61330210D01*
X41486102Y-61171287D01*
X41412191Y-61017070D01*
X41344393Y-60866457D01*
X41282421Y-60718344D01*
X41225985Y-60571626D01*
X41174798Y-60425199D01*
X41128571Y-60277960D01*
X41087017Y-60128805D01*
X41049846Y-59976630D01*
X41016771Y-59820331D01*
X40987503Y-59658803D01*
X40961755Y-59490944D01*
X40939237Y-59315649D01*
X40919661Y-59131814D01*
X40888185Y-58734110D01*
X40877865Y-58584684D01*
X40866401Y-58439448D01*
X40853914Y-58299155D01*
X40840525Y-58164556D01*
X40826354Y-58036404D01*
X40811520Y-57915451D01*
X40796146Y-57802448D01*
X40780350Y-57698147D01*
X40764254Y-57603301D01*
X40747978Y-57518661D01*
X40731642Y-57444979D01*
X40715367Y-57383008D01*
X40699273Y-57333500D01*
X40683481Y-57297205D01*
X40675736Y-57284248D01*
X40668111Y-57274877D01*
X40660622Y-57269186D01*
X40653283Y-57267267D01*
X40630571Y-57270302D01*
X40601228Y-57279205D01*
X40524263Y-57313409D01*
X40425612Y-57367464D01*
X40308497Y-57438957D01*
X40176142Y-57525473D01*
X40031770Y-57624598D01*
X39719867Y-57851017D01*
X39398571Y-58098900D01*
X39093667Y-58348934D01*
X38955420Y-58468721D01*
X38830940Y-58581802D01*
X38723451Y-58685765D01*
X38636174Y-58778193D01*
X38576933Y-58845968D01*
X38526695Y-58907001D01*
X38486186Y-58962800D01*
X38469806Y-58989208D01*
X38456131Y-59014872D01*
X38445251Y-59039981D01*
X38437256Y-59064723D01*
X38432238Y-59089287D01*
X38430286Y-59113861D01*
X38431493Y-59138634D01*
X38435947Y-59163794D01*
X38443741Y-59189529D01*
X38454964Y-59216028D01*
X38469708Y-59243480D01*
X38488063Y-59272071D01*
X38510120Y-59301992D01*
X38535969Y-59333430D01*
X38599408Y-59401612D01*
X38679105Y-59478125D01*
X38775786Y-59564475D01*
X38890176Y-59662170D01*
X39174985Y-59897623D01*
X39265329Y-59973111D01*
X39353139Y-60049339D01*
X39437962Y-60125792D01*
X39519341Y-60201954D01*
X39596823Y-60277307D01*
X39669953Y-60351336D01*
X39738276Y-60423523D01*
X39801337Y-60493353D01*
X39858682Y-60560308D01*
X39909857Y-60623873D01*
X39954405Y-60683530D01*
X39991874Y-60738764D01*
X40021808Y-60789057D01*
X40033807Y-60812190D01*
X40043752Y-60833894D01*
X40051586Y-60854104D01*
X40057252Y-60872757D01*
X40060693Y-60889787D01*
X40061853Y-60905131D01*
X40061273Y-60971129D01*
X40058529Y-61027716D01*
X40052112Y-61074479D01*
X40040515Y-61111006D01*
X40032302Y-61125303D01*
X40022228Y-61136886D01*
X40010105Y-61145705D01*
X39995745Y-61151707D01*
X39978958Y-61154842D01*
X39959556Y-61155057D01*
X39937350Y-61152302D01*
X39912153Y-61146525D01*
X39852029Y-61125697D01*
X39777675Y-61092164D01*
X39687583Y-61045512D01*
X39580244Y-60985331D01*
X39307797Y-60822730D01*
X38948266Y-60601069D01*
X38845134Y-60539770D01*
X38731156Y-60476814D01*
X38475367Y-60347811D01*
X38190305Y-60217817D01*
X37885375Y-60090592D01*
X37569985Y-59969895D01*
X37253538Y-59859485D01*
X36945442Y-59763122D01*
X36655103Y-59684565D01*
X36343130Y-59614839D01*
X36036617Y-59560376D01*
X35735445Y-59521194D01*
X35439498Y-59497313D01*
X35148659Y-59488753D01*
X34862811Y-59495533D01*
X34581836Y-59517671D01*
X34305618Y-59555187D01*
X34034038Y-59608101D01*
X33766982Y-59676432D01*
X33504330Y-59760199D01*
X33245966Y-59859421D01*
X32991773Y-59974118D01*
X32741634Y-60104309D01*
X32495432Y-60250013D01*
X32253049Y-60411249D01*
X32166806Y-60470876D01*
X32082979Y-60526843D01*
X32001568Y-60579152D01*
X31922572Y-60627801D01*
X31845988Y-60672791D01*
X31771817Y-60714123D01*
X31700056Y-60751796D01*
X31630704Y-60785810D01*
X31563761Y-60816165D01*
X31499224Y-60842862D01*
X31437093Y-60865901D01*
X31377367Y-60885281D01*
X31320044Y-60901003D01*
X31265123Y-60913067D01*
X31212602Y-60921473D01*
X31162482Y-60926220D01*
X31114759Y-60927310D01*
X31069433Y-60924742D01*
X31026504Y-60918515D01*
X30985968Y-60908632D01*
X30947827Y-60895090D01*
X30912077Y-60877891D01*
X30878718Y-60857035D01*
X30847749Y-60832521D01*
X30819168Y-60804350D01*
X30792974Y-60772522D01*
X30769166Y-60737037D01*
X30747743Y-60697894D01*
X30728703Y-60655095D01*
X30712046Y-60608638D01*
X30697769Y-60558525D01*
X30685872Y-60504755D01*
X30682041Y-60480651D01*
X30679751Y-60456117D01*
X30679000Y-60431154D01*
X30679789Y-60405763D01*
X30682117Y-60379944D01*
X30685985Y-60353697D01*
X30698335Y-60299924D01*
X30716837Y-60244448D01*
X30741489Y-60187273D01*
X30772287Y-60128402D01*
X30809229Y-60067841D01*
X30852313Y-60005593D01*
X30901535Y-59941662D01*
X30956892Y-59876053D01*
X31018384Y-59808769D01*
X31086005Y-59739815D01*
X31159755Y-59669196D01*
X31239630Y-59596914D01*
X31325628Y-59522974D01*
X32039098Y-58923975D01*
X30686437Y-57712916D01*
X29333768Y-56501841D01*
X29240567Y-58109141D01*
X29214696Y-58469703D01*
X29179152Y-58820554D01*
X29133377Y-59163331D01*
X29076809Y-59499674D01*
X29008888Y-59831223D01*
X28929053Y-60159616D01*
X28836744Y-60486492D01*
X28731400Y-60813490D01*
X28612460Y-61142250D01*
X28479363Y-61474410D01*
X28331550Y-61811609D01*
X28168460Y-62155487D01*
X27989531Y-62507682D01*
X27794203Y-62869834D01*
X27581916Y-63243582D01*
X27352109Y-63630564D01*
X27156251Y-63957438D01*
X26978178Y-64262493D01*
X26817180Y-64547586D01*
X26672547Y-64814575D01*
X26543568Y-65065316D01*
X26429532Y-65301665D01*
X26329729Y-65525481D01*
X26243449Y-65738619D01*
X26169980Y-65942937D01*
X26108612Y-66140290D01*
X26058635Y-66332538D01*
X26019338Y-66521535D01*
X25990010Y-66709139D01*
X25969942Y-66897206D01*
X25958422Y-67087594D01*
X25954740Y-67282160D01*
X24982871Y-67282160D01*
X24983648Y-67190958D01*
X24989094Y-66956000D01*
X25001983Y-66729813D01*
X25023279Y-66509735D01*
X25053945Y-66293102D01*
X25094946Y-66077251D01*
X25147247Y-65859519D01*
X25211812Y-65637243D01*
X25289604Y-65407761D01*
X25381589Y-65168408D01*
X25488731Y-64916523D01*
X25611994Y-64649441D01*
X25752342Y-64364500D01*
X25910740Y-64059037D01*
X26088151Y-63730389D01*
X26503873Y-62992884D01*
X26777257Y-62501002D01*
X27025714Y-62018192D01*
X27249521Y-61543100D01*
X27448952Y-61074372D01*
X27624286Y-60610655D01*
X27775796Y-60150597D01*
X27903761Y-59692843D01*
X28008455Y-59236040D01*
X28090154Y-58778836D01*
X28149135Y-58319876D01*
X28185674Y-57857807D01*
X28200046Y-57391277D01*
X28192529Y-56918931D01*
X28163397Y-56439417D01*
X28112927Y-55951381D01*
X28041394Y-55453470D01*
X28001434Y-55176706D01*
X27979711Y-54941402D01*
X27978217Y-54748262D01*
X27985679Y-54667724D01*
X27998946Y-54597991D01*
X28018267Y-54539152D01*
X28043891Y-54491293D01*
X28076068Y-54454503D01*
X28115046Y-54428871D01*
X28161075Y-54414483D01*
X28214404Y-54411429D01*
X28275281Y-54419795D01*
X28343957Y-54439671D01*
X28420680Y-54471143D01*
X28505700Y-54514301D01*
X28701624Y-54636023D01*
X28933724Y-54805541D01*
X29203993Y-55023559D01*
X29514423Y-55290781D01*
X29867008Y-55607911D01*
X30263742Y-55975652D01*
X30706617Y-56394709D01*
X32915807Y-58501352D01*
X34872381Y-58540751D01*
X35274411Y-58551728D01*
X35666864Y-58567893D01*
X36039905Y-58588467D01*
X36383703Y-58612675D01*
X36688424Y-58639738D01*
X36944234Y-58668881D01*
X37050725Y-58683989D01*
X37141301Y-58699326D01*
X37214733Y-58714793D01*
X37269792Y-58730295D01*
X37297877Y-58739637D01*
X37324979Y-58748190D01*
X37351103Y-58755953D01*
X37376257Y-58762923D01*
X37400445Y-58769101D01*
X37423674Y-58774484D01*
X37445950Y-58779071D01*
X37467278Y-58782861D01*
X37487666Y-58785852D01*
X37507118Y-58788044D01*
X37525641Y-58789435D01*
X37543241Y-58790023D01*
X37559924Y-58789807D01*
X37575696Y-58788786D01*
X37590562Y-58786958D01*
X37604530Y-58784323D01*
X37617604Y-58780878D01*
X37629791Y-58776623D01*
X37641098Y-58771556D01*
X37651529Y-58765675D01*
X37661091Y-58758980D01*
X37669790Y-58751470D01*
X37677632Y-58743141D01*
X37684623Y-58733995D01*
X37690770Y-58724028D01*
X37696077Y-58713240D01*
X37700551Y-58701629D01*
X37704198Y-58689195D01*
X37707024Y-58675935D01*
X37709036Y-58661848D01*
X37710238Y-58646933D01*
X37710637Y-58631190D01*
X37719545Y-58556000D01*
X37745623Y-58470891D01*
X37787900Y-58376668D01*
X37845409Y-58274140D01*
X38002238Y-58047395D01*
X38208355Y-57797113D01*
X38456002Y-57529748D01*
X38737425Y-57251759D01*
X39044865Y-56969602D01*
X39370567Y-56689734D01*
X39706775Y-56418610D01*
X40045731Y-56162688D01*
X40379680Y-55928425D01*
X40700865Y-55722276D01*
X41001530Y-55550699D01*
X41273919Y-55420150D01*
X41397085Y-55372278D01*
X41510274Y-55337085D01*
X41612516Y-55315378D01*
X41702840Y-55307963D01*
X41752010Y-55309666D01*
X41798846Y-55314765D01*
X41843344Y-55323239D01*
X41885498Y-55335071D01*
X41925304Y-55350241D01*
X41962758Y-55368730D01*
X41997856Y-55390520D01*
X42030592Y-55415592D01*
X42060963Y-55443927D01*
X42088963Y-55475506D01*
X42114589Y-55510311D01*
X42137835Y-55548322D01*
X42158698Y-55589520D01*
X42177172Y-55633888D01*
X42206939Y-55732054D01*
X42227098Y-55842669D01*
X42237614Y-55965584D01*
X42238451Y-56100646D01*
X42229573Y-56247706D01*
X42210944Y-56406612D01*
X42182527Y-56577215D01*
X42144288Y-56759363D01*
X42096189Y-56952906D01*
X42015259Y-57274929D01*
X41947977Y-57583146D01*
X41894476Y-57878932D01*
X41854892Y-58163662D01*
X41829359Y-58438709D01*
X41818013Y-58705450D01*
X41820987Y-58965258D01*
X41838418Y-59219507D01*
X41870439Y-59469574D01*
X41917185Y-59716831D01*
X41978792Y-59962654D01*
X42055394Y-60208417D01*
X42147126Y-60455495D01*
X42254122Y-60705262D01*
X42376518Y-60959093D01*
X42514447Y-61218363D01*
X42997668Y-62103483D01*
X43405382Y-62885164D01*
X43582990Y-63242146D01*
X43744198Y-63579187D01*
X43889833Y-63898260D01*
X44020721Y-64201336D01*
X44137688Y-64490389D01*
X44241558Y-64767392D01*
X44333159Y-65034318D01*
X44413316Y-65293138D01*
X44482854Y-65545827D01*
X44542600Y-65794357D01*
X44593380Y-66040700D01*
X44636018Y-66286829D01*
X44848092Y-67633661D01*
X45716748Y-67691660D01*
X45801777Y-67698380D01*
X45883927Y-67706973D01*
X45963168Y-67717414D01*
X46039468Y-67729676D01*
X46112799Y-67743730D01*
X46139018Y-67749628D01*
D11*
X34705037Y-80883537D02*
X42955037Y-85883537D01*
D10*
G36*
X35472512Y-69124994D02*
G01*
X35503566Y-69132476D01*
X35534106Y-69143568D01*
X35564070Y-69158177D01*
X35593392Y-69176212D01*
X35622009Y-69197580D01*
X35649857Y-69222191D01*
X35676870Y-69249952D01*
X35702985Y-69280771D01*
X35728137Y-69314556D01*
X35775298Y-69390659D01*
X35817838Y-69477527D01*
X35855243Y-69574423D01*
X35887000Y-69680614D01*
X35912594Y-69795366D01*
X35931512Y-69917943D01*
X35943240Y-70047610D01*
X35947263Y-70183634D01*
X35948483Y-70258254D01*
X35952062Y-70333176D01*
X35957880Y-70407908D01*
X35965816Y-70481962D01*
X35975750Y-70554847D01*
X35987561Y-70626073D01*
X36001128Y-70695151D01*
X36016331Y-70761589D01*
X36033050Y-70824899D01*
X36051163Y-70884590D01*
X36070550Y-70940173D01*
X36091092Y-70991157D01*
X36112666Y-71037052D01*
X36135153Y-71077369D01*
X36158432Y-71111617D01*
X36170330Y-71126313D01*
X36182382Y-71139307D01*
X36217823Y-71171987D01*
X36256057Y-71202069D01*
X36296901Y-71229571D01*
X36340178Y-71254509D01*
X36385706Y-71276901D01*
X36433307Y-71296765D01*
X36482799Y-71314118D01*
X36534003Y-71328977D01*
X36586739Y-71341360D01*
X36640827Y-71351283D01*
X36752340Y-71363822D01*
X36867101Y-71366732D01*
X36983672Y-71360153D01*
X37100612Y-71344224D01*
X37216483Y-71319082D01*
X37329845Y-71284867D01*
X37439257Y-71241718D01*
X37492032Y-71216837D01*
X37543281Y-71189774D01*
X37592822Y-71160546D01*
X37640477Y-71129172D01*
X37686064Y-71095668D01*
X37729405Y-71060052D01*
X37770318Y-71022342D01*
X37808625Y-70982554D01*
X37844779Y-70944498D01*
X37882655Y-70908208D01*
X37922064Y-70873717D01*
X37962820Y-70841057D01*
X38004733Y-70810258D01*
X38047616Y-70781354D01*
X38091280Y-70754377D01*
X38135537Y-70729358D01*
X38180199Y-70706329D01*
X38225077Y-70685322D01*
X38269983Y-70666369D01*
X38314730Y-70649503D01*
X38359129Y-70634755D01*
X38402991Y-70622157D01*
X38446129Y-70611741D01*
X38488354Y-70603539D01*
X38529479Y-70597583D01*
X38569314Y-70593905D01*
X38607672Y-70592537D01*
X38644364Y-70593511D01*
X38679202Y-70596859D01*
X38711999Y-70602613D01*
X38742565Y-70610805D01*
X38770713Y-70621466D01*
X38796254Y-70634629D01*
X38819001Y-70650327D01*
X38838764Y-70668589D01*
X38855356Y-70689450D01*
X38868588Y-70712940D01*
X38878273Y-70739092D01*
X38884222Y-70767938D01*
X38886247Y-70799509D01*
X38884385Y-70858212D01*
X38878855Y-70917212D01*
X38869739Y-70976419D01*
X38857119Y-71035745D01*
X38841079Y-71095101D01*
X38821700Y-71154397D01*
X38799066Y-71213544D01*
X38773259Y-71272454D01*
X38712456Y-71389205D01*
X38639953Y-71503938D01*
X38556410Y-71615939D01*
X38462488Y-71724497D01*
X38358848Y-71828899D01*
X38246150Y-71928434D01*
X38125056Y-72022388D01*
X37996226Y-72110049D01*
X37860320Y-72190706D01*
X37718000Y-72263646D01*
X37569927Y-72328156D01*
X37416761Y-72383524D01*
X37416765Y-72383463D01*
X37305037Y-72418966D01*
X37203221Y-72449114D01*
X37109722Y-72473708D01*
X37022952Y-72492550D01*
X36941318Y-72505442D01*
X36863228Y-72512185D01*
X36787093Y-72512581D01*
X36711319Y-72506432D01*
X36634317Y-72493539D01*
X36554495Y-72473704D01*
X36470261Y-72446729D01*
X36380024Y-72412416D01*
X36282194Y-72370565D01*
X36175178Y-72320980D01*
X36057385Y-72263461D01*
X35927224Y-72197809D01*
X35817455Y-72142755D01*
X35717172Y-72094732D01*
X35625060Y-72053661D01*
X35539805Y-72019464D01*
X35460091Y-71992062D01*
X35384604Y-71971375D01*
X35348034Y-71963525D01*
X35312027Y-71957325D01*
X35276420Y-71952764D01*
X35241048Y-71949833D01*
X35205745Y-71948522D01*
X35170349Y-71948820D01*
X35134695Y-71950719D01*
X35098617Y-71954207D01*
X35024537Y-71965915D01*
X34946793Y-71983866D01*
X34864070Y-72007979D01*
X34775054Y-72038177D01*
X34678429Y-72074381D01*
X34572881Y-72116511D01*
X34470140Y-72154852D01*
X34364393Y-72187463D01*
X34256049Y-72214482D01*
X34145520Y-72236049D01*
X34033217Y-72252301D01*
X33919552Y-72263379D01*
X33804934Y-72269422D01*
X33689777Y-72270567D01*
X33574489Y-72266954D01*
X33459484Y-72258723D01*
X33345171Y-72246011D01*
X33231962Y-72228959D01*
X33120268Y-72207704D01*
X33010500Y-72182386D01*
X32903069Y-72153144D01*
X32798387Y-72120117D01*
X32696864Y-72083444D01*
X32598911Y-72043263D01*
X32504940Y-71999714D01*
X32415362Y-71952936D01*
X32330587Y-71903067D01*
X32251027Y-71850247D01*
X32177094Y-71794615D01*
X32109197Y-71736309D01*
X32047749Y-71675468D01*
X31993159Y-71612231D01*
X31945841Y-71546738D01*
X31906204Y-71479128D01*
X31874659Y-71409538D01*
X31851618Y-71338109D01*
X31837492Y-71264979D01*
X31832692Y-71190287D01*
X31833795Y-71143371D01*
X31837103Y-71099001D01*
X31842615Y-71057175D01*
X31850333Y-71017895D01*
X31860255Y-70981160D01*
X31872382Y-70946970D01*
X31886714Y-70915325D01*
X31903250Y-70886226D01*
X31921990Y-70859672D01*
X31942935Y-70835663D01*
X31966084Y-70814199D01*
X31991436Y-70795281D01*
X32018993Y-70778909D01*
X32048753Y-70765082D01*
X32080717Y-70753800D01*
X32114885Y-70745064D01*
X32151256Y-70738873D01*
X32189830Y-70735228D01*
X32230607Y-70734129D01*
X32273588Y-70735575D01*
X32318772Y-70739567D01*
X32366158Y-70746105D01*
X32467539Y-70766818D01*
X32577730Y-70797713D01*
X32696731Y-70838792D01*
X32824540Y-70890055D01*
X32961156Y-70951502D01*
X33050783Y-70991916D01*
X33138803Y-71027845D01*
X33225181Y-71059303D01*
X33309883Y-71086307D01*
X33392874Y-71108872D01*
X33474119Y-71127014D01*
X33553585Y-71140747D01*
X33631237Y-71150088D01*
X33707040Y-71155053D01*
X33780960Y-71155655D01*
X33852961Y-71151912D01*
X33923011Y-71143839D01*
X33991074Y-71131451D01*
X34057115Y-71114763D01*
X34121101Y-71093792D01*
X34182996Y-71068552D01*
X34242766Y-71039060D01*
X34300378Y-71005330D01*
X34355795Y-70967379D01*
X34408984Y-70925222D01*
X34459909Y-70878874D01*
X34508538Y-70828351D01*
X34554835Y-70773668D01*
X34598765Y-70714841D01*
X34640294Y-70651886D01*
X34679388Y-70584817D01*
X34716012Y-70513651D01*
X34750132Y-70438404D01*
X34781712Y-70359089D01*
X34810719Y-70275724D01*
X34837119Y-70188324D01*
X34860875Y-70096903D01*
X34880971Y-70016764D01*
X34902520Y-69937489D01*
X34925324Y-69859549D01*
X34949187Y-69783412D01*
X34973910Y-69709548D01*
X34999296Y-69638427D01*
X35025148Y-69570519D01*
X35051268Y-69506293D01*
X35077458Y-69446218D01*
X35103522Y-69390765D01*
X35129261Y-69340402D01*
X35154477Y-69295601D01*
X35178975Y-69256829D01*
X35202555Y-69224557D01*
X35225021Y-69199254D01*
X35235775Y-69189363D01*
X35246175Y-69181391D01*
X35279019Y-69161037D01*
X35311801Y-69144935D01*
X35344455Y-69132994D01*
X35376917Y-69125121D01*
X35409124Y-69121224D01*
X35441010Y-69121213D01*
X35472512Y-69124994D01*
G37*
X35472512Y-69124994D02*
X35503566Y-69132476D01*
X35534106Y-69143568D01*
X35564070Y-69158177D01*
X35593392Y-69176212D01*
X35622009Y-69197580D01*
X35649857Y-69222191D01*
X35676870Y-69249952D01*
X35702985Y-69280771D01*
X35728137Y-69314556D01*
X35775298Y-69390659D01*
X35817838Y-69477527D01*
X35855243Y-69574423D01*
X35887000Y-69680614D01*
X35912594Y-69795366D01*
X35931512Y-69917943D01*
X35943240Y-70047610D01*
X35947263Y-70183634D01*
X35948483Y-70258254D01*
X35952062Y-70333176D01*
X35957880Y-70407908D01*
X35965816Y-70481962D01*
X35975750Y-70554847D01*
X35987561Y-70626073D01*
X36001128Y-70695151D01*
X36016331Y-70761589D01*
X36033050Y-70824899D01*
X36051163Y-70884590D01*
X36070550Y-70940173D01*
X36091092Y-70991157D01*
X36112666Y-71037052D01*
X36135153Y-71077369D01*
X36158432Y-71111617D01*
X36170330Y-71126313D01*
X36182382Y-71139307D01*
X36217823Y-71171987D01*
X36256057Y-71202069D01*
X36296901Y-71229571D01*
X36340178Y-71254509D01*
X36385706Y-71276901D01*
X36433307Y-71296765D01*
X36482799Y-71314118D01*
X36534003Y-71328977D01*
X36586739Y-71341360D01*
X36640827Y-71351283D01*
X36752340Y-71363822D01*
X36867101Y-71366732D01*
X36983672Y-71360153D01*
X37100612Y-71344224D01*
X37216483Y-71319082D01*
X37329845Y-71284867D01*
X37439257Y-71241718D01*
X37492032Y-71216837D01*
X37543281Y-71189774D01*
X37592822Y-71160546D01*
X37640477Y-71129172D01*
X37686064Y-71095668D01*
X37729405Y-71060052D01*
X37770318Y-71022342D01*
X37808625Y-70982554D01*
X37844779Y-70944498D01*
X37882655Y-70908208D01*
X37922064Y-70873717D01*
X37962820Y-70841057D01*
X38004733Y-70810258D01*
X38047616Y-70781354D01*
X38091280Y-70754377D01*
X38135537Y-70729358D01*
X38180199Y-70706329D01*
X38225077Y-70685322D01*
X38269983Y-70666369D01*
X38314730Y-70649503D01*
X38359129Y-70634755D01*
X38402991Y-70622157D01*
X38446129Y-70611741D01*
X38488354Y-70603539D01*
X38529479Y-70597583D01*
X38569314Y-70593905D01*
X38607672Y-70592537D01*
X38644364Y-70593511D01*
X38679202Y-70596859D01*
X38711999Y-70602613D01*
X38742565Y-70610805D01*
X38770713Y-70621466D01*
X38796254Y-70634629D01*
X38819001Y-70650327D01*
X38838764Y-70668589D01*
X38855356Y-70689450D01*
X38868588Y-70712940D01*
X38878273Y-70739092D01*
X38884222Y-70767938D01*
X38886247Y-70799509D01*
X38884385Y-70858212D01*
X38878855Y-70917212D01*
X38869739Y-70976419D01*
X38857119Y-71035745D01*
X38841079Y-71095101D01*
X38821700Y-71154397D01*
X38799066Y-71213544D01*
X38773259Y-71272454D01*
X38712456Y-71389205D01*
X38639953Y-71503938D01*
X38556410Y-71615939D01*
X38462488Y-71724497D01*
X38358848Y-71828899D01*
X38246150Y-71928434D01*
X38125056Y-72022388D01*
X37996226Y-72110049D01*
X37860320Y-72190706D01*
X37718000Y-72263646D01*
X37569927Y-72328156D01*
X37416761Y-72383524D01*
X37416765Y-72383463D01*
X37305037Y-72418966D01*
X37203221Y-72449114D01*
X37109722Y-72473708D01*
X37022952Y-72492550D01*
X36941318Y-72505442D01*
X36863228Y-72512185D01*
X36787093Y-72512581D01*
X36711319Y-72506432D01*
X36634317Y-72493539D01*
X36554495Y-72473704D01*
X36470261Y-72446729D01*
X36380024Y-72412416D01*
X36282194Y-72370565D01*
X36175178Y-72320980D01*
X36057385Y-72263461D01*
X35927224Y-72197809D01*
X35817455Y-72142755D01*
X35717172Y-72094732D01*
X35625060Y-72053661D01*
X35539805Y-72019464D01*
X35460091Y-71992062D01*
X35384604Y-71971375D01*
X35348034Y-71963525D01*
X35312027Y-71957325D01*
X35276420Y-71952764D01*
X35241048Y-71949833D01*
X35205745Y-71948522D01*
X35170349Y-71948820D01*
X35134695Y-71950719D01*
X35098617Y-71954207D01*
X35024537Y-71965915D01*
X34946793Y-71983866D01*
X34864070Y-72007979D01*
X34775054Y-72038177D01*
X34678429Y-72074381D01*
X34572881Y-72116511D01*
X34470140Y-72154852D01*
X34364393Y-72187463D01*
X34256049Y-72214482D01*
X34145520Y-72236049D01*
X34033217Y-72252301D01*
X33919552Y-72263379D01*
X33804934Y-72269422D01*
X33689777Y-72270567D01*
X33574489Y-72266954D01*
X33459484Y-72258723D01*
X33345171Y-72246011D01*
X33231962Y-72228959D01*
X33120268Y-72207704D01*
X33010500Y-72182386D01*
X32903069Y-72153144D01*
X32798387Y-72120117D01*
X32696864Y-72083444D01*
X32598911Y-72043263D01*
X32504940Y-71999714D01*
X32415362Y-71952936D01*
X32330587Y-71903067D01*
X32251027Y-71850247D01*
X32177094Y-71794615D01*
X32109197Y-71736309D01*
X32047749Y-71675468D01*
X31993159Y-71612231D01*
X31945841Y-71546738D01*
X31906204Y-71479128D01*
X31874659Y-71409538D01*
X31851618Y-71338109D01*
X31837492Y-71264979D01*
X31832692Y-71190287D01*
X31833795Y-71143371D01*
X31837103Y-71099001D01*
X31842615Y-71057175D01*
X31850333Y-71017895D01*
X31860255Y-70981160D01*
X31872382Y-70946970D01*
X31886714Y-70915325D01*
X31903250Y-70886226D01*
X31921990Y-70859672D01*
X31942935Y-70835663D01*
X31966084Y-70814199D01*
X31991436Y-70795281D01*
X32018993Y-70778909D01*
X32048753Y-70765082D01*
X32080717Y-70753800D01*
X32114885Y-70745064D01*
X32151256Y-70738873D01*
X32189830Y-70735228D01*
X32230607Y-70734129D01*
X32273588Y-70735575D01*
X32318772Y-70739567D01*
X32366158Y-70746105D01*
X32467539Y-70766818D01*
X32577730Y-70797713D01*
X32696731Y-70838792D01*
X32824540Y-70890055D01*
X32961156Y-70951502D01*
X33050783Y-70991916D01*
X33138803Y-71027845D01*
X33225181Y-71059303D01*
X33309883Y-71086307D01*
X33392874Y-71108872D01*
X33474119Y-71127014D01*
X33553585Y-71140747D01*
X33631237Y-71150088D01*
X33707040Y-71155053D01*
X33780960Y-71155655D01*
X33852961Y-71151912D01*
X33923011Y-71143839D01*
X33991074Y-71131451D01*
X34057115Y-71114763D01*
X34121101Y-71093792D01*
X34182996Y-71068552D01*
X34242766Y-71039060D01*
X34300378Y-71005330D01*
X34355795Y-70967379D01*
X34408984Y-70925222D01*
X34459909Y-70878874D01*
X34508538Y-70828351D01*
X34554835Y-70773668D01*
X34598765Y-70714841D01*
X34640294Y-70651886D01*
X34679388Y-70584817D01*
X34716012Y-70513651D01*
X34750132Y-70438404D01*
X34781712Y-70359089D01*
X34810719Y-70275724D01*
X34837119Y-70188324D01*
X34860875Y-70096903D01*
X34880971Y-70016764D01*
X34902520Y-69937489D01*
X34925324Y-69859549D01*
X34949187Y-69783412D01*
X34973910Y-69709548D01*
X34999296Y-69638427D01*
X35025148Y-69570519D01*
X35051268Y-69506293D01*
X35077458Y-69446218D01*
X35103522Y-69390765D01*
X35129261Y-69340402D01*
X35154477Y-69295601D01*
X35178975Y-69256829D01*
X35202555Y-69224557D01*
X35225021Y-69199254D01*
X35235775Y-69189363D01*
X35246175Y-69181391D01*
X35279019Y-69161037D01*
X35311801Y-69144935D01*
X35344455Y-69132994D01*
X35376917Y-69125121D01*
X35409124Y-69121224D01*
X35441010Y-69121213D01*
X35472512Y-69124994D01*
D11*
X34705037Y-80883537D02*
X25455037Y-78883537D01*
D10*
G36*
X35979301Y-60814422D02*
G01*
X36144214Y-60826165D01*
X36294018Y-60845104D01*
X36425447Y-60871607D01*
X36491513Y-60889217D01*
X36552636Y-60907580D01*
X36608844Y-60926611D01*
X36660170Y-60946222D01*
X36706645Y-60966329D01*
X36748299Y-60986844D01*
X36785164Y-61007683D01*
X36817271Y-61028758D01*
X36844650Y-61049984D01*
X36867334Y-61071275D01*
X36885353Y-61092544D01*
X36898737Y-61113707D01*
X36907519Y-61134675D01*
X36911730Y-61155365D01*
X36911399Y-61175688D01*
X36906559Y-61195561D01*
X36897241Y-61214895D01*
X36883475Y-61233606D01*
X36865293Y-61251607D01*
X36842725Y-61268812D01*
X36815803Y-61285136D01*
X36784558Y-61300491D01*
X36749021Y-61314792D01*
X36709223Y-61327954D01*
X36665196Y-61339889D01*
X36616969Y-61350512D01*
X36564575Y-61359737D01*
X36508043Y-61367478D01*
X36447407Y-61373648D01*
X36382696Y-61378162D01*
X36313941Y-61380933D01*
X36241174Y-61381876D01*
X36074933Y-61384757D01*
X35933266Y-61393453D01*
X35816204Y-61408046D01*
X35766910Y-61417580D01*
X35723780Y-61428619D01*
X35686816Y-61441173D01*
X35656024Y-61455253D01*
X35631407Y-61470868D01*
X35612969Y-61488029D01*
X35600714Y-61506746D01*
X35594646Y-61527030D01*
X35594769Y-61548890D01*
X35601087Y-61572336D01*
X35613604Y-61597380D01*
X35632324Y-61624031D01*
X35657251Y-61652300D01*
X35688389Y-61682196D01*
X35725742Y-61713730D01*
X35769313Y-61746912D01*
X35875128Y-61818261D01*
X36005866Y-61896325D01*
X36161558Y-61981186D01*
X36342237Y-62072926D01*
X36547933Y-62171625D01*
X36756683Y-62270226D01*
X36940516Y-62359274D01*
X37100335Y-62439883D01*
X37171523Y-62477372D01*
X37237046Y-62513170D01*
X37297019Y-62547416D01*
X37351554Y-62580249D01*
X37400765Y-62611810D01*
X37444765Y-62642237D01*
X37483666Y-62671670D01*
X37517582Y-62700248D01*
X37546626Y-62728111D01*
X37570911Y-62755398D01*
X37590550Y-62782249D01*
X37605657Y-62808802D01*
X37616344Y-62835198D01*
X37620065Y-62848381D01*
X37622725Y-62861576D01*
X37624335Y-62874802D01*
X37624912Y-62888075D01*
X37623019Y-62914835D01*
X37617160Y-62941995D01*
X37607446Y-62969694D01*
X37593992Y-62998072D01*
X37576910Y-63027269D01*
X37556313Y-63057423D01*
X37532316Y-63088675D01*
X37505029Y-63121163D01*
X37474568Y-63155028D01*
X37404573Y-63227442D01*
X37362483Y-63265324D01*
X37314470Y-63300689D01*
X37260490Y-63333546D01*
X37200494Y-63363907D01*
X37134438Y-63391780D01*
X37062276Y-63417176D01*
X36983959Y-63440105D01*
X36899444Y-63460577D01*
X36808683Y-63478603D01*
X36711630Y-63494193D01*
X36608239Y-63507356D01*
X36498464Y-63518103D01*
X36382258Y-63526445D01*
X36259575Y-63532390D01*
X36130370Y-63535950D01*
X35994596Y-63537134D01*
X34894307Y-63537134D01*
X35420785Y-64086664D01*
X35473137Y-64142031D01*
X35522653Y-64195886D01*
X35569336Y-64248239D01*
X35613188Y-64299100D01*
X35654212Y-64348479D01*
X35692411Y-64396385D01*
X35727787Y-64442829D01*
X35760342Y-64487821D01*
X35790080Y-64531370D01*
X35817003Y-64573486D01*
X35841113Y-64614180D01*
X35862414Y-64653460D01*
X35880907Y-64691338D01*
X35896595Y-64727822D01*
X35909482Y-64762924D01*
X35919569Y-64796652D01*
X35926859Y-64829017D01*
X35931355Y-64860028D01*
X35933059Y-64889696D01*
X35931974Y-64918030D01*
X35928103Y-64945040D01*
X35921448Y-64970737D01*
X35912011Y-64995129D01*
X35899796Y-65018228D01*
X35884805Y-65040042D01*
X35867040Y-65060582D01*
X35846505Y-65079858D01*
X35823201Y-65097879D01*
X35797132Y-65114656D01*
X35768299Y-65130198D01*
X35736706Y-65144515D01*
X35702356Y-65157618D01*
X35702348Y-65157618D01*
X35652416Y-65172007D01*
X35601465Y-65179967D01*
X35548486Y-65180905D01*
X35492472Y-65174229D01*
X35432412Y-65159346D01*
X35367300Y-65135663D01*
X35296127Y-65102589D01*
X35217885Y-65059530D01*
X35131565Y-65005895D01*
X35036158Y-64941090D01*
X34930657Y-64864523D01*
X34814054Y-64775603D01*
X34543504Y-64558327D01*
X34216443Y-64284525D01*
X34037896Y-64125238D01*
X33959746Y-64049097D01*
X33889025Y-63975264D01*
X33825744Y-63903715D01*
X33769914Y-63834432D01*
X33721545Y-63767391D01*
X33680647Y-63702573D01*
X33647231Y-63639956D01*
X33621307Y-63579518D01*
X33602885Y-63521239D01*
X33591977Y-63465097D01*
X33588592Y-63411072D01*
X33592741Y-63359141D01*
X33604434Y-63309285D01*
X33623682Y-63261480D01*
X33650496Y-63215708D01*
X33684884Y-63171945D01*
X33726859Y-63130172D01*
X33776431Y-63090366D01*
X33833609Y-63052507D01*
X33898405Y-63016574D01*
X33970828Y-62982545D01*
X34050890Y-62950399D01*
X34138600Y-62920114D01*
X34233970Y-62891671D01*
X34447727Y-62840221D01*
X34692246Y-62795880D01*
X34967611Y-62758478D01*
X35849305Y-62655436D01*
X34795285Y-62004847D01*
X34663658Y-61922410D01*
X34542974Y-61844318D01*
X34433131Y-61770469D01*
X34334029Y-61700760D01*
X34245565Y-61635089D01*
X34205290Y-61603736D01*
X34167638Y-61573354D01*
X34132594Y-61543930D01*
X34100146Y-61515453D01*
X34070281Y-61487908D01*
X34042987Y-61461283D01*
X34018251Y-61435565D01*
X33996061Y-61410742D01*
X33976403Y-61386801D01*
X33959264Y-61363729D01*
X33944633Y-61341513D01*
X33932497Y-61320140D01*
X33922842Y-61299598D01*
X33915656Y-61279874D01*
X33910927Y-61260954D01*
X33908641Y-61242827D01*
X33908786Y-61225480D01*
X33911349Y-61208899D01*
X33916318Y-61193073D01*
X33923680Y-61177987D01*
X33933422Y-61163630D01*
X33945531Y-61149988D01*
X33974073Y-61125469D01*
X34009853Y-61101513D01*
X34101496Y-61055471D01*
X34217197Y-61012229D01*
X34353691Y-60972153D01*
X34507715Y-60935611D01*
X34676005Y-60902967D01*
X34855297Y-60874589D01*
X35042326Y-60850844D01*
X35233829Y-60832096D01*
X35426543Y-60818714D01*
X35617202Y-60811064D01*
X35802542Y-60809511D01*
X35979301Y-60814422D01*
G37*
X35979301Y-60814422D02*
X36144214Y-60826165D01*
X36294018Y-60845104D01*
X36425447Y-60871607D01*
X36491513Y-60889217D01*
X36552636Y-60907580D01*
X36608844Y-60926611D01*
X36660170Y-60946222D01*
X36706645Y-60966329D01*
X36748299Y-60986844D01*
X36785164Y-61007683D01*
X36817271Y-61028758D01*
X36844650Y-61049984D01*
X36867334Y-61071275D01*
X36885353Y-61092544D01*
X36898737Y-61113707D01*
X36907519Y-61134675D01*
X36911730Y-61155365D01*
X36911399Y-61175688D01*
X36906559Y-61195561D01*
X36897241Y-61214895D01*
X36883475Y-61233606D01*
X36865293Y-61251607D01*
X36842725Y-61268812D01*
X36815803Y-61285136D01*
X36784558Y-61300491D01*
X36749021Y-61314792D01*
X36709223Y-61327954D01*
X36665196Y-61339889D01*
X36616969Y-61350512D01*
X36564575Y-61359737D01*
X36508043Y-61367478D01*
X36447407Y-61373648D01*
X36382696Y-61378162D01*
X36313941Y-61380933D01*
X36241174Y-61381876D01*
X36074933Y-61384757D01*
X35933266Y-61393453D01*
X35816204Y-61408046D01*
X35766910Y-61417580D01*
X35723780Y-61428619D01*
X35686816Y-61441173D01*
X35656024Y-61455253D01*
X35631407Y-61470868D01*
X35612969Y-61488029D01*
X35600714Y-61506746D01*
X35594646Y-61527030D01*
X35594769Y-61548890D01*
X35601087Y-61572336D01*
X35613604Y-61597380D01*
X35632324Y-61624031D01*
X35657251Y-61652300D01*
X35688389Y-61682196D01*
X35725742Y-61713730D01*
X35769313Y-61746912D01*
X35875128Y-61818261D01*
X36005866Y-61896325D01*
X36161558Y-61981186D01*
X36342237Y-62072926D01*
X36547933Y-62171625D01*
X36756683Y-62270226D01*
X36940516Y-62359274D01*
X37100335Y-62439883D01*
X37171523Y-62477372D01*
X37237046Y-62513170D01*
X37297019Y-62547416D01*
X37351554Y-62580249D01*
X37400765Y-62611810D01*
X37444765Y-62642237D01*
X37483666Y-62671670D01*
X37517582Y-62700248D01*
X37546626Y-62728111D01*
X37570911Y-62755398D01*
X37590550Y-62782249D01*
X37605657Y-62808802D01*
X37616344Y-62835198D01*
X37620065Y-62848381D01*
X37622725Y-62861576D01*
X37624335Y-62874802D01*
X37624912Y-62888075D01*
X37623019Y-62914835D01*
X37617160Y-62941995D01*
X37607446Y-62969694D01*
X37593992Y-62998072D01*
X37576910Y-63027269D01*
X37556313Y-63057423D01*
X37532316Y-63088675D01*
X37505029Y-63121163D01*
X37474568Y-63155028D01*
X37404573Y-63227442D01*
X37362483Y-63265324D01*
X37314470Y-63300689D01*
X37260490Y-63333546D01*
X37200494Y-63363907D01*
X37134438Y-63391780D01*
X37062276Y-63417176D01*
X36983959Y-63440105D01*
X36899444Y-63460577D01*
X36808683Y-63478603D01*
X36711630Y-63494193D01*
X36608239Y-63507356D01*
X36498464Y-63518103D01*
X36382258Y-63526445D01*
X36259575Y-63532390D01*
X36130370Y-63535950D01*
X35994596Y-63537134D01*
X34894307Y-63537134D01*
X35420785Y-64086664D01*
X35473137Y-64142031D01*
X35522653Y-64195886D01*
X35569336Y-64248239D01*
X35613188Y-64299100D01*
X35654212Y-64348479D01*
X35692411Y-64396385D01*
X35727787Y-64442829D01*
X35760342Y-64487821D01*
X35790080Y-64531370D01*
X35817003Y-64573486D01*
X35841113Y-64614180D01*
X35862414Y-64653460D01*
X35880907Y-64691338D01*
X35896595Y-64727822D01*
X35909482Y-64762924D01*
X35919569Y-64796652D01*
X35926859Y-64829017D01*
X35931355Y-64860028D01*
X35933059Y-64889696D01*
X35931974Y-64918030D01*
X35928103Y-64945040D01*
X35921448Y-64970737D01*
X35912011Y-64995129D01*
X35899796Y-65018228D01*
X35884805Y-65040042D01*
X35867040Y-65060582D01*
X35846505Y-65079858D01*
X35823201Y-65097879D01*
X35797132Y-65114656D01*
X35768299Y-65130198D01*
X35736706Y-65144515D01*
X35702356Y-65157618D01*
X35702348Y-65157618D01*
X35652416Y-65172007D01*
X35601465Y-65179967D01*
X35548486Y-65180905D01*
X35492472Y-65174229D01*
X35432412Y-65159346D01*
X35367300Y-65135663D01*
X35296127Y-65102589D01*
X35217885Y-65059530D01*
X35131565Y-65005895D01*
X35036158Y-64941090D01*
X34930657Y-64864523D01*
X34814054Y-64775603D01*
X34543504Y-64558327D01*
X34216443Y-64284525D01*
X34037896Y-64125238D01*
X33959746Y-64049097D01*
X33889025Y-63975264D01*
X33825744Y-63903715D01*
X33769914Y-63834432D01*
X33721545Y-63767391D01*
X33680647Y-63702573D01*
X33647231Y-63639956D01*
X33621307Y-63579518D01*
X33602885Y-63521239D01*
X33591977Y-63465097D01*
X33588592Y-63411072D01*
X33592741Y-63359141D01*
X33604434Y-63309285D01*
X33623682Y-63261480D01*
X33650496Y-63215708D01*
X33684884Y-63171945D01*
X33726859Y-63130172D01*
X33776431Y-63090366D01*
X33833609Y-63052507D01*
X33898405Y-63016574D01*
X33970828Y-62982545D01*
X34050890Y-62950399D01*
X34138600Y-62920114D01*
X34233970Y-62891671D01*
X34447727Y-62840221D01*
X34692246Y-62795880D01*
X34967611Y-62758478D01*
X35849305Y-62655436D01*
X34795285Y-62004847D01*
X34663658Y-61922410D01*
X34542974Y-61844318D01*
X34433131Y-61770469D01*
X34334029Y-61700760D01*
X34245565Y-61635089D01*
X34205290Y-61603736D01*
X34167638Y-61573354D01*
X34132594Y-61543930D01*
X34100146Y-61515453D01*
X34070281Y-61487908D01*
X34042987Y-61461283D01*
X34018251Y-61435565D01*
X33996061Y-61410742D01*
X33976403Y-61386801D01*
X33959264Y-61363729D01*
X33944633Y-61341513D01*
X33932497Y-61320140D01*
X33922842Y-61299598D01*
X33915656Y-61279874D01*
X33910927Y-61260954D01*
X33908641Y-61242827D01*
X33908786Y-61225480D01*
X33911349Y-61208899D01*
X33916318Y-61193073D01*
X33923680Y-61177987D01*
X33933422Y-61163630D01*
X33945531Y-61149988D01*
X33974073Y-61125469D01*
X34009853Y-61101513D01*
X34101496Y-61055471D01*
X34217197Y-61012229D01*
X34353691Y-60972153D01*
X34507715Y-60935611D01*
X34676005Y-60902967D01*
X34855297Y-60874589D01*
X35042326Y-60850844D01*
X35233829Y-60832096D01*
X35426543Y-60818714D01*
X35617202Y-60811064D01*
X35802542Y-60809511D01*
X35979301Y-60814422D01*
G36*
X31073646Y-65746154D02*
G01*
X31098461Y-65748767D01*
X31123555Y-65753123D01*
X31149069Y-65759220D01*
X31175142Y-65767059D01*
X31201913Y-65776641D01*
X31229523Y-65787965D01*
X31258111Y-65801030D01*
X31318781Y-65832388D01*
X31385041Y-65870714D01*
X31458008Y-65916009D01*
X31538801Y-65968271D01*
X31592439Y-66005005D01*
X31642853Y-66042778D01*
X31690039Y-66081548D01*
X31733993Y-66121273D01*
X31774714Y-66161911D01*
X31812198Y-66203421D01*
X31846442Y-66245760D01*
X31877444Y-66288886D01*
X31905200Y-66332759D01*
X31929708Y-66377335D01*
X31950964Y-66422573D01*
X31968967Y-66468432D01*
X31983713Y-66514868D01*
X31995198Y-66561841D01*
X32003421Y-66609309D01*
X32008378Y-66657229D01*
X32010067Y-66705559D01*
X32008484Y-66754259D01*
X32003627Y-66803286D01*
X31995493Y-66852598D01*
X31984079Y-66902153D01*
X31969381Y-66951909D01*
X31951398Y-67001825D01*
X31930126Y-67051858D01*
X31905563Y-67101967D01*
X31877705Y-67152110D01*
X31846549Y-67202245D01*
X31812093Y-67252330D01*
X31774335Y-67302324D01*
X31733270Y-67352183D01*
X31688896Y-67401867D01*
X31641210Y-67451334D01*
X31641210Y-67451380D01*
X31569346Y-67518254D01*
X31533136Y-67548202D01*
X31496716Y-67575822D01*
X31460065Y-67601115D01*
X31423167Y-67624078D01*
X31386000Y-67644713D01*
X31348547Y-67663017D01*
X31310788Y-67678990D01*
X31272704Y-67692631D01*
X31234277Y-67703940D01*
X31195487Y-67712917D01*
X31156315Y-67719559D01*
X31116742Y-67723866D01*
X31076749Y-67725839D01*
X31036318Y-67725475D01*
X30995429Y-67722775D01*
X30954063Y-67717738D01*
X30912201Y-67710362D01*
X30869824Y-67700647D01*
X30826914Y-67688593D01*
X30783450Y-67674199D01*
X30739415Y-67657463D01*
X30694788Y-67638386D01*
X30603686Y-67593203D01*
X30509993Y-67538644D01*
X30413555Y-67474704D01*
X30314222Y-67401377D01*
X30276991Y-67370055D01*
X30242927Y-67336277D01*
X30212003Y-67300202D01*
X30184192Y-67261988D01*
X30159467Y-67221795D01*
X30137800Y-67179780D01*
X30119164Y-67136103D01*
X30103533Y-67090922D01*
X30090879Y-67044396D01*
X30081175Y-66996685D01*
X30074394Y-66947946D01*
X30070508Y-66898338D01*
X30069491Y-66848021D01*
X30071316Y-66797152D01*
X30075955Y-66745891D01*
X30083382Y-66694397D01*
X30093569Y-66642828D01*
X30106488Y-66591343D01*
X30122114Y-66540101D01*
X30140418Y-66489260D01*
X30161374Y-66438979D01*
X30184954Y-66389417D01*
X30211132Y-66340733D01*
X30239880Y-66293086D01*
X30271172Y-66246634D01*
X30304979Y-66201536D01*
X30341275Y-66157950D01*
X30380033Y-66116036D01*
X30421226Y-66075953D01*
X30464826Y-66037858D01*
X30510807Y-66001912D01*
X30559140Y-65968271D01*
X30639933Y-65916009D01*
X30712900Y-65870714D01*
X30779160Y-65832388D01*
X30839830Y-65801030D01*
X30868418Y-65787965D01*
X30896028Y-65776641D01*
X30922799Y-65767059D01*
X30948872Y-65759220D01*
X30974386Y-65753123D01*
X30999480Y-65748767D01*
X31024295Y-65746154D01*
X31048970Y-65745283D01*
X31073646Y-65746154D01*
G37*
X31073646Y-65746154D02*
X31098461Y-65748767D01*
X31123555Y-65753123D01*
X31149069Y-65759220D01*
X31175142Y-65767059D01*
X31201913Y-65776641D01*
X31229523Y-65787965D01*
X31258111Y-65801030D01*
X31318781Y-65832388D01*
X31385041Y-65870714D01*
X31458008Y-65916009D01*
X31538801Y-65968271D01*
X31592439Y-66005005D01*
X31642853Y-66042778D01*
X31690039Y-66081548D01*
X31733993Y-66121273D01*
X31774714Y-66161911D01*
X31812198Y-66203421D01*
X31846442Y-66245760D01*
X31877444Y-66288886D01*
X31905200Y-66332759D01*
X31929708Y-66377335D01*
X31950964Y-66422573D01*
X31968967Y-66468432D01*
X31983713Y-66514868D01*
X31995198Y-66561841D01*
X32003421Y-66609309D01*
X32008378Y-66657229D01*
X32010067Y-66705559D01*
X32008484Y-66754259D01*
X32003627Y-66803286D01*
X31995493Y-66852598D01*
X31984079Y-66902153D01*
X31969381Y-66951909D01*
X31951398Y-67001825D01*
X31930126Y-67051858D01*
X31905563Y-67101967D01*
X31877705Y-67152110D01*
X31846549Y-67202245D01*
X31812093Y-67252330D01*
X31774335Y-67302324D01*
X31733270Y-67352183D01*
X31688896Y-67401867D01*
X31641210Y-67451334D01*
X31641210Y-67451380D01*
X31569346Y-67518254D01*
X31533136Y-67548202D01*
X31496716Y-67575822D01*
X31460065Y-67601115D01*
X31423167Y-67624078D01*
X31386000Y-67644713D01*
X31348547Y-67663017D01*
X31310788Y-67678990D01*
X31272704Y-67692631D01*
X31234277Y-67703940D01*
X31195487Y-67712917D01*
X31156315Y-67719559D01*
X31116742Y-67723866D01*
X31076749Y-67725839D01*
X31036318Y-67725475D01*
X30995429Y-67722775D01*
X30954063Y-67717738D01*
X30912201Y-67710362D01*
X30869824Y-67700647D01*
X30826914Y-67688593D01*
X30783450Y-67674199D01*
X30739415Y-67657463D01*
X30694788Y-67638386D01*
X30603686Y-67593203D01*
X30509993Y-67538644D01*
X30413555Y-67474704D01*
X30314222Y-67401377D01*
X30276991Y-67370055D01*
X30242927Y-67336277D01*
X30212003Y-67300202D01*
X30184192Y-67261988D01*
X30159467Y-67221795D01*
X30137800Y-67179780D01*
X30119164Y-67136103D01*
X30103533Y-67090922D01*
X30090879Y-67044396D01*
X30081175Y-66996685D01*
X30074394Y-66947946D01*
X30070508Y-66898338D01*
X30069491Y-66848021D01*
X30071316Y-66797152D01*
X30075955Y-66745891D01*
X30083382Y-66694397D01*
X30093569Y-66642828D01*
X30106488Y-66591343D01*
X30122114Y-66540101D01*
X30140418Y-66489260D01*
X30161374Y-66438979D01*
X30184954Y-66389417D01*
X30211132Y-66340733D01*
X30239880Y-66293086D01*
X30271172Y-66246634D01*
X30304979Y-66201536D01*
X30341275Y-66157950D01*
X30380033Y-66116036D01*
X30421226Y-66075953D01*
X30464826Y-66037858D01*
X30510807Y-66001912D01*
X30559140Y-65968271D01*
X30639933Y-65916009D01*
X30712900Y-65870714D01*
X30779160Y-65832388D01*
X30839830Y-65801030D01*
X30868418Y-65787965D01*
X30896028Y-65776641D01*
X30922799Y-65767059D01*
X30948872Y-65759220D01*
X30974386Y-65753123D01*
X30999480Y-65748767D01*
X31024295Y-65746154D01*
X31048970Y-65745283D01*
X31073646Y-65746154D01*
D14*
X47173571Y-87964285D02*
X48673571Y-88321428D01*
X48673571Y-88321428D02*
X47602142Y-88607142D01*
X47602142Y-88607142D02*
X48673571Y-88892857D01*
X48673571Y-88892857D02*
X47173571Y-89250000D01*
X48673571Y-89821428D02*
X47673571Y-89821428D01*
X47173571Y-89821428D02*
X47245000Y-89750000D01*
X47245000Y-89750000D02*
X47316428Y-89821428D01*
X47316428Y-89821428D02*
X47245000Y-89892857D01*
X47245000Y-89892857D02*
X47173571Y-89821428D01*
X47173571Y-89821428D02*
X47316428Y-89821428D01*
X48602142Y-90464286D02*
X48673571Y-90607143D01*
X48673571Y-90607143D02*
X48673571Y-90892857D01*
X48673571Y-90892857D02*
X48602142Y-91035714D01*
X48602142Y-91035714D02*
X48459285Y-91107143D01*
X48459285Y-91107143D02*
X48387857Y-91107143D01*
X48387857Y-91107143D02*
X48245000Y-91035714D01*
X48245000Y-91035714D02*
X48173571Y-90892857D01*
X48173571Y-90892857D02*
X48173571Y-90678572D01*
X48173571Y-90678572D02*
X48102142Y-90535714D01*
X48102142Y-90535714D02*
X47959285Y-90464286D01*
X47959285Y-90464286D02*
X47887857Y-90464286D01*
X47887857Y-90464286D02*
X47745000Y-90535714D01*
X47745000Y-90535714D02*
X47673571Y-90678572D01*
X47673571Y-90678572D02*
X47673571Y-90892857D01*
X47673571Y-90892857D02*
X47745000Y-91035714D01*
X48530714Y-93507143D02*
X48602142Y-93435715D01*
X48602142Y-93435715D02*
X48673571Y-93221429D01*
X48673571Y-93221429D02*
X48673571Y-93078572D01*
X48673571Y-93078572D02*
X48602142Y-92864286D01*
X48602142Y-92864286D02*
X48459285Y-92721429D01*
X48459285Y-92721429D02*
X48316428Y-92650000D01*
X48316428Y-92650000D02*
X48030714Y-92578572D01*
X48030714Y-92578572D02*
X47816428Y-92578572D01*
X47816428Y-92578572D02*
X47530714Y-92650000D01*
X47530714Y-92650000D02*
X47387857Y-92721429D01*
X47387857Y-92721429D02*
X47245000Y-92864286D01*
X47245000Y-92864286D02*
X47173571Y-93078572D01*
X47173571Y-93078572D02*
X47173571Y-93221429D01*
X47173571Y-93221429D02*
X47245000Y-93435715D01*
X47245000Y-93435715D02*
X47316428Y-93507143D01*
X48673571Y-94792858D02*
X47887857Y-94792858D01*
X47887857Y-94792858D02*
X47745000Y-94721429D01*
X47745000Y-94721429D02*
X47673571Y-94578572D01*
X47673571Y-94578572D02*
X47673571Y-94292858D01*
X47673571Y-94292858D02*
X47745000Y-94150000D01*
X48602142Y-94792858D02*
X48673571Y-94650000D01*
X48673571Y-94650000D02*
X48673571Y-94292858D01*
X48673571Y-94292858D02*
X48602142Y-94150000D01*
X48602142Y-94150000D02*
X48459285Y-94078572D01*
X48459285Y-94078572D02*
X48316428Y-94078572D01*
X48316428Y-94078572D02*
X48173571Y-94150000D01*
X48173571Y-94150000D02*
X48102142Y-94292858D01*
X48102142Y-94292858D02*
X48102142Y-94650000D01*
X48102142Y-94650000D02*
X48030714Y-94792858D01*
X47673571Y-95292858D02*
X47673571Y-95864286D01*
X47173571Y-95507143D02*
X48459285Y-95507143D01*
X48459285Y-95507143D02*
X48602142Y-95578572D01*
X48602142Y-95578572D02*
X48673571Y-95721429D01*
X48673571Y-95721429D02*
X48673571Y-95864286D01*
X47173571Y-97050001D02*
X48673571Y-97550001D01*
X48673571Y-97550001D02*
X47173571Y-98050001D01*
X48673571Y-99192858D02*
X47887857Y-99192858D01*
X47887857Y-99192858D02*
X47745000Y-99121429D01*
X47745000Y-99121429D02*
X47673571Y-98978572D01*
X47673571Y-98978572D02*
X47673571Y-98692858D01*
X47673571Y-98692858D02*
X47745000Y-98550000D01*
X48602142Y-99192858D02*
X48673571Y-99050000D01*
X48673571Y-99050000D02*
X48673571Y-98692858D01*
X48673571Y-98692858D02*
X48602142Y-98550000D01*
X48602142Y-98550000D02*
X48459285Y-98478572D01*
X48459285Y-98478572D02*
X48316428Y-98478572D01*
X48316428Y-98478572D02*
X48173571Y-98550000D01*
X48173571Y-98550000D02*
X48102142Y-98692858D01*
X48102142Y-98692858D02*
X48102142Y-99050000D01*
X48102142Y-99050000D02*
X48030714Y-99192858D01*
X48602142Y-100550001D02*
X48673571Y-100407143D01*
X48673571Y-100407143D02*
X48673571Y-100121429D01*
X48673571Y-100121429D02*
X48602142Y-99978572D01*
X48602142Y-99978572D02*
X48530714Y-99907143D01*
X48530714Y-99907143D02*
X48387857Y-99835715D01*
X48387857Y-99835715D02*
X47959285Y-99835715D01*
X47959285Y-99835715D02*
X47816428Y-99907143D01*
X47816428Y-99907143D02*
X47745000Y-99978572D01*
X47745000Y-99978572D02*
X47673571Y-100121429D01*
X47673571Y-100121429D02*
X47673571Y-100407143D01*
X47673571Y-100407143D02*
X47745000Y-100550001D01*
X48673571Y-101835715D02*
X47887857Y-101835715D01*
X47887857Y-101835715D02*
X47745000Y-101764286D01*
X47745000Y-101764286D02*
X47673571Y-101621429D01*
X47673571Y-101621429D02*
X47673571Y-101335715D01*
X47673571Y-101335715D02*
X47745000Y-101192857D01*
X48602142Y-101835715D02*
X48673571Y-101692857D01*
X48673571Y-101692857D02*
X48673571Y-101335715D01*
X48673571Y-101335715D02*
X48602142Y-101192857D01*
X48602142Y-101192857D02*
X48459285Y-101121429D01*
X48459285Y-101121429D02*
X48316428Y-101121429D01*
X48316428Y-101121429D02*
X48173571Y-101192857D01*
X48173571Y-101192857D02*
X48102142Y-101335715D01*
X48102142Y-101335715D02*
X48102142Y-101692857D01*
X48102142Y-101692857D02*
X48030714Y-101835715D01*
X47673571Y-102407143D02*
X48673571Y-102764286D01*
X47673571Y-103121429D02*
X48673571Y-102764286D01*
X48673571Y-102764286D02*
X49030714Y-102621429D01*
X49030714Y-102621429D02*
X49102142Y-102550000D01*
X49102142Y-102550000D02*
X49173571Y-102407143D01*
D15*
X48557857Y-103821428D02*
X48891190Y-103940476D01*
X48891190Y-103940476D02*
X48557857Y-104059523D01*
X48391190Y-104345237D02*
X48391190Y-104392856D01*
X48391190Y-104392856D02*
X48415000Y-104440475D01*
X48415000Y-104440475D02*
X48438809Y-104464285D01*
X48438809Y-104464285D02*
X48486428Y-104488094D01*
X48486428Y-104488094D02*
X48581666Y-104511904D01*
X48581666Y-104511904D02*
X48700714Y-104511904D01*
X48700714Y-104511904D02*
X48795952Y-104488094D01*
X48795952Y-104488094D02*
X48843571Y-104464285D01*
X48843571Y-104464285D02*
X48867380Y-104440475D01*
X48867380Y-104440475D02*
X48891190Y-104392856D01*
X48891190Y-104392856D02*
X48891190Y-104345237D01*
X48891190Y-104345237D02*
X48867380Y-104297618D01*
X48867380Y-104297618D02*
X48843571Y-104273809D01*
X48843571Y-104273809D02*
X48795952Y-104249999D01*
X48795952Y-104249999D02*
X48700714Y-104226190D01*
X48700714Y-104226190D02*
X48581666Y-104226190D01*
X48581666Y-104226190D02*
X48486428Y-104249999D01*
X48486428Y-104249999D02*
X48438809Y-104273809D01*
X48438809Y-104273809D02*
X48415000Y-104297618D01*
X48415000Y-104297618D02*
X48391190Y-104345237D01*
X48843571Y-104726189D02*
X48867380Y-104749999D01*
X48867380Y-104749999D02*
X48891190Y-104726189D01*
X48891190Y-104726189D02*
X48867380Y-104702380D01*
X48867380Y-104702380D02*
X48843571Y-104726189D01*
X48843571Y-104726189D02*
X48891190Y-104726189D01*
X48438809Y-104940475D02*
X48415000Y-104964284D01*
X48415000Y-104964284D02*
X48391190Y-105011903D01*
X48391190Y-105011903D02*
X48391190Y-105130951D01*
X48391190Y-105130951D02*
X48415000Y-105178570D01*
X48415000Y-105178570D02*
X48438809Y-105202379D01*
X48438809Y-105202379D02*
X48486428Y-105226189D01*
X48486428Y-105226189D02*
X48534047Y-105226189D01*
X48534047Y-105226189D02*
X48605476Y-105202379D01*
X48605476Y-105202379D02*
X48891190Y-104916665D01*
X48891190Y-104916665D02*
X48891190Y-105226189D01*
D11*
%TO.C,JOUT1*%
X34291904Y-122667380D02*
X34291904Y-123381666D01*
X34291904Y-123381666D02*
X34339523Y-123524523D01*
X34339523Y-123524523D02*
X34434761Y-123619761D01*
X34434761Y-123619761D02*
X34577618Y-123667380D01*
X34577618Y-123667380D02*
X34672856Y-123667380D01*
X33625237Y-122667380D02*
X33434761Y-122667380D01*
X33434761Y-122667380D02*
X33339523Y-122715000D01*
X33339523Y-122715000D02*
X33244285Y-122810238D01*
X33244285Y-122810238D02*
X33196666Y-123000714D01*
X33196666Y-123000714D02*
X33196666Y-123334047D01*
X33196666Y-123334047D02*
X33244285Y-123524523D01*
X33244285Y-123524523D02*
X33339523Y-123619761D01*
X33339523Y-123619761D02*
X33434761Y-123667380D01*
X33434761Y-123667380D02*
X33625237Y-123667380D01*
X33625237Y-123667380D02*
X33720475Y-123619761D01*
X33720475Y-123619761D02*
X33815713Y-123524523D01*
X33815713Y-123524523D02*
X33863332Y-123334047D01*
X33863332Y-123334047D02*
X33863332Y-123000714D01*
X33863332Y-123000714D02*
X33815713Y-122810238D01*
X33815713Y-122810238D02*
X33720475Y-122715000D01*
X33720475Y-122715000D02*
X33625237Y-122667380D01*
X32768094Y-122667380D02*
X32768094Y-123476904D01*
X32768094Y-123476904D02*
X32720475Y-123572142D01*
X32720475Y-123572142D02*
X32672856Y-123619761D01*
X32672856Y-123619761D02*
X32577618Y-123667380D01*
X32577618Y-123667380D02*
X32387142Y-123667380D01*
X32387142Y-123667380D02*
X32291904Y-123619761D01*
X32291904Y-123619761D02*
X32244285Y-123572142D01*
X32244285Y-123572142D02*
X32196666Y-123476904D01*
X32196666Y-123476904D02*
X32196666Y-122667380D01*
X31863332Y-122667380D02*
X31291904Y-122667380D01*
X31577618Y-123667380D02*
X31577618Y-122667380D01*
X30434761Y-123667380D02*
X31006189Y-123667380D01*
X30720475Y-123667380D02*
X30720475Y-122667380D01*
X30720475Y-122667380D02*
X30815713Y-122810238D01*
X30815713Y-122810238D02*
X30910951Y-122905476D01*
X30910951Y-122905476D02*
X31006189Y-122953095D01*
%TO.C,JSIG1*%
X44047618Y-103617380D02*
X44047618Y-104331666D01*
X44047618Y-104331666D02*
X44095237Y-104474523D01*
X44095237Y-104474523D02*
X44190475Y-104569761D01*
X44190475Y-104569761D02*
X44333332Y-104617380D01*
X44333332Y-104617380D02*
X44428570Y-104617380D01*
X43619046Y-104569761D02*
X43476189Y-104617380D01*
X43476189Y-104617380D02*
X43238094Y-104617380D01*
X43238094Y-104617380D02*
X43142856Y-104569761D01*
X43142856Y-104569761D02*
X43095237Y-104522142D01*
X43095237Y-104522142D02*
X43047618Y-104426904D01*
X43047618Y-104426904D02*
X43047618Y-104331666D01*
X43047618Y-104331666D02*
X43095237Y-104236428D01*
X43095237Y-104236428D02*
X43142856Y-104188809D01*
X43142856Y-104188809D02*
X43238094Y-104141190D01*
X43238094Y-104141190D02*
X43428570Y-104093571D01*
X43428570Y-104093571D02*
X43523808Y-104045952D01*
X43523808Y-104045952D02*
X43571427Y-103998333D01*
X43571427Y-103998333D02*
X43619046Y-103903095D01*
X43619046Y-103903095D02*
X43619046Y-103807857D01*
X43619046Y-103807857D02*
X43571427Y-103712619D01*
X43571427Y-103712619D02*
X43523808Y-103665000D01*
X43523808Y-103665000D02*
X43428570Y-103617380D01*
X43428570Y-103617380D02*
X43190475Y-103617380D01*
X43190475Y-103617380D02*
X43047618Y-103665000D01*
X42619046Y-104617380D02*
X42619046Y-103617380D01*
X41619047Y-103665000D02*
X41714285Y-103617380D01*
X41714285Y-103617380D02*
X41857142Y-103617380D01*
X41857142Y-103617380D02*
X41999999Y-103665000D01*
X41999999Y-103665000D02*
X42095237Y-103760238D01*
X42095237Y-103760238D02*
X42142856Y-103855476D01*
X42142856Y-103855476D02*
X42190475Y-104045952D01*
X42190475Y-104045952D02*
X42190475Y-104188809D01*
X42190475Y-104188809D02*
X42142856Y-104379285D01*
X42142856Y-104379285D02*
X42095237Y-104474523D01*
X42095237Y-104474523D02*
X41999999Y-104569761D01*
X41999999Y-104569761D02*
X41857142Y-104617380D01*
X41857142Y-104617380D02*
X41761904Y-104617380D01*
X41761904Y-104617380D02*
X41619047Y-104569761D01*
X41619047Y-104569761D02*
X41571428Y-104522142D01*
X41571428Y-104522142D02*
X41571428Y-104188809D01*
X41571428Y-104188809D02*
X41761904Y-104188809D01*
X40619047Y-104617380D02*
X41190475Y-104617380D01*
X40904761Y-104617380D02*
X40904761Y-103617380D01*
X40904761Y-103617380D02*
X40999999Y-103760238D01*
X40999999Y-103760238D02*
X41095237Y-103855476D01*
X41095237Y-103855476D02*
X41190475Y-103903095D01*
%TO.C,JENV1*%
X34268095Y-107047380D02*
X34268095Y-107761666D01*
X34268095Y-107761666D02*
X34315714Y-107904523D01*
X34315714Y-107904523D02*
X34410952Y-107999761D01*
X34410952Y-107999761D02*
X34553809Y-108047380D01*
X34553809Y-108047380D02*
X34649047Y-108047380D01*
X33791904Y-107523571D02*
X33458571Y-107523571D01*
X33315714Y-108047380D02*
X33791904Y-108047380D01*
X33791904Y-108047380D02*
X33791904Y-107047380D01*
X33791904Y-107047380D02*
X33315714Y-107047380D01*
X32887142Y-108047380D02*
X32887142Y-107047380D01*
X32887142Y-107047380D02*
X32315714Y-108047380D01*
X32315714Y-108047380D02*
X32315714Y-107047380D01*
X31982380Y-107047380D02*
X31649047Y-108047380D01*
X31649047Y-108047380D02*
X31315714Y-107047380D01*
X30458571Y-108047380D02*
X31029999Y-108047380D01*
X30744285Y-108047380D02*
X30744285Y-107047380D01*
X30744285Y-107047380D02*
X30839523Y-107190238D01*
X30839523Y-107190238D02*
X30934761Y-107285476D01*
X30934761Y-107285476D02*
X31029999Y-107333095D01*
%TO.C,RVBIAS1*%
X28867380Y-41011904D02*
X28391190Y-40678571D01*
X28867380Y-40440476D02*
X27867380Y-40440476D01*
X27867380Y-40440476D02*
X27867380Y-40821428D01*
X27867380Y-40821428D02*
X27915000Y-40916666D01*
X27915000Y-40916666D02*
X27962619Y-40964285D01*
X27962619Y-40964285D02*
X28057857Y-41011904D01*
X28057857Y-41011904D02*
X28200714Y-41011904D01*
X28200714Y-41011904D02*
X28295952Y-40964285D01*
X28295952Y-40964285D02*
X28343571Y-40916666D01*
X28343571Y-40916666D02*
X28391190Y-40821428D01*
X28391190Y-40821428D02*
X28391190Y-40440476D01*
X27867380Y-41297619D02*
X28867380Y-41630952D01*
X28867380Y-41630952D02*
X27867380Y-41964285D01*
X28343571Y-42630952D02*
X28391190Y-42773809D01*
X28391190Y-42773809D02*
X28438809Y-42821428D01*
X28438809Y-42821428D02*
X28534047Y-42869047D01*
X28534047Y-42869047D02*
X28676904Y-42869047D01*
X28676904Y-42869047D02*
X28772142Y-42821428D01*
X28772142Y-42821428D02*
X28819761Y-42773809D01*
X28819761Y-42773809D02*
X28867380Y-42678571D01*
X28867380Y-42678571D02*
X28867380Y-42297619D01*
X28867380Y-42297619D02*
X27867380Y-42297619D01*
X27867380Y-42297619D02*
X27867380Y-42630952D01*
X27867380Y-42630952D02*
X27915000Y-42726190D01*
X27915000Y-42726190D02*
X27962619Y-42773809D01*
X27962619Y-42773809D02*
X28057857Y-42821428D01*
X28057857Y-42821428D02*
X28153095Y-42821428D01*
X28153095Y-42821428D02*
X28248333Y-42773809D01*
X28248333Y-42773809D02*
X28295952Y-42726190D01*
X28295952Y-42726190D02*
X28343571Y-42630952D01*
X28343571Y-42630952D02*
X28343571Y-42297619D01*
X28867380Y-43297619D02*
X27867380Y-43297619D01*
X28581666Y-43726190D02*
X28581666Y-44202380D01*
X28867380Y-43630952D02*
X27867380Y-43964285D01*
X27867380Y-43964285D02*
X28867380Y-44297618D01*
X28819761Y-44583333D02*
X28867380Y-44726190D01*
X28867380Y-44726190D02*
X28867380Y-44964285D01*
X28867380Y-44964285D02*
X28819761Y-45059523D01*
X28819761Y-45059523D02*
X28772142Y-45107142D01*
X28772142Y-45107142D02*
X28676904Y-45154761D01*
X28676904Y-45154761D02*
X28581666Y-45154761D01*
X28581666Y-45154761D02*
X28486428Y-45107142D01*
X28486428Y-45107142D02*
X28438809Y-45059523D01*
X28438809Y-45059523D02*
X28391190Y-44964285D01*
X28391190Y-44964285D02*
X28343571Y-44773809D01*
X28343571Y-44773809D02*
X28295952Y-44678571D01*
X28295952Y-44678571D02*
X28248333Y-44630952D01*
X28248333Y-44630952D02*
X28153095Y-44583333D01*
X28153095Y-44583333D02*
X28057857Y-44583333D01*
X28057857Y-44583333D02*
X27962619Y-44630952D01*
X27962619Y-44630952D02*
X27915000Y-44678571D01*
X27915000Y-44678571D02*
X27867380Y-44773809D01*
X27867380Y-44773809D02*
X27867380Y-45011904D01*
X27867380Y-45011904D02*
X27915000Y-45154761D01*
X28867380Y-46107142D02*
X28867380Y-45535714D01*
X28867380Y-45821428D02*
X27867380Y-45821428D01*
X27867380Y-45821428D02*
X28010238Y-45726190D01*
X28010238Y-45726190D02*
X28105476Y-45630952D01*
X28105476Y-45630952D02*
X28153095Y-45535714D01*
D16*
%TO.C,JOUT1*%
X33000000Y-124200000D02*
X33000000Y-134700000D01*
X29730000Y-121050000D02*
X29730000Y-121850000D01*
X29730000Y-121050000D02*
X28870000Y-121050000D01*
X29300000Y-134700000D02*
X33000000Y-134700000D01*
X29220000Y-124200000D02*
X33000000Y-124200000D01*
X24000000Y-134700000D02*
X27700000Y-134700000D01*
X24000000Y-124200000D02*
X27780000Y-124200000D01*
X24000000Y-124200000D02*
X24000000Y-134700000D01*
X30300000Y-128700000D02*
G75*
G03*
X30300000Y-128700000I-1800000J0D01*
G01*
%TO.C,JSIG1*%
X47000000Y-108580000D02*
X47000000Y-119080000D01*
X43730000Y-105430000D02*
X43730000Y-106230000D01*
X43730000Y-105430000D02*
X42870000Y-105430000D01*
X43300000Y-119080000D02*
X47000000Y-119080000D01*
X43220000Y-108580000D02*
X47000000Y-108580000D01*
X38000000Y-119080000D02*
X41700000Y-119080000D01*
X38000000Y-108580000D02*
X41780000Y-108580000D01*
X38000000Y-108580000D02*
X38000000Y-119080000D01*
X44300000Y-113080000D02*
G75*
G03*
X44300000Y-113080000I-1800000J0D01*
G01*
%TO.C,JENV1*%
X33000000Y-108580000D02*
X33000000Y-119080000D01*
X29730000Y-105430000D02*
X29730000Y-106230000D01*
X29730000Y-105430000D02*
X28870000Y-105430000D01*
X29300000Y-119080000D02*
X33000000Y-119080000D01*
X29220000Y-108580000D02*
X33000000Y-108580000D01*
X24000000Y-119080000D02*
X27700000Y-119080000D01*
X24000000Y-108580000D02*
X27780000Y-108580000D01*
X24000000Y-108580000D02*
X24000000Y-119080000D01*
X30300000Y-113080000D02*
G75*
G03*
X30300000Y-113080000I-1800000J0D01*
G01*
%TO.C,RVBIAS1*%
X23130000Y-46595000D02*
X24620000Y-46595000D01*
X23130000Y-46595000D02*
X23130000Y-41875000D01*
X26340000Y-46595000D02*
X27170000Y-46595000D01*
X28790000Y-46595000D02*
X29320000Y-46595000D01*
X31690000Y-46595000D02*
X32870000Y-46595000D01*
X32880000Y-46595000D02*
X32880000Y-41875000D01*
X23130000Y-38065000D02*
X23130000Y-35005000D01*
X32870000Y-38065000D02*
X32870000Y-35005000D01*
X23130000Y-35005000D02*
X32870000Y-35005000D01*
%TD*%
%LPC*%
D17*
%TO.C,J2*%
X45579999Y-37249999D03*
D18*
X43039999Y-37249999D03*
X40499999Y-37249999D03*
%TD*%
D17*
%TO.C,J3*%
X47749999Y-130749999D03*
D18*
X47749999Y-133289999D03*
X47749999Y-135829999D03*
%TD*%
D19*
%TO.C,JOUT1*%
X28499999Y-122219999D03*
D20*
X28500000Y-133620000D03*
X28500000Y-125320000D03*
%TD*%
D19*
%TO.C,JSIG1*%
X42499999Y-106599999D03*
D20*
X42500000Y-118000000D03*
X42500000Y-109700000D03*
%TD*%
D19*
%TO.C,JENV1*%
X28499999Y-106599999D03*
D20*
X28500000Y-118000000D03*
X28500000Y-109700000D03*
%TD*%
D21*
%TO.C,RVBIAS1*%
X23199999Y-39974999D03*
X32799999Y-39974999D03*
D22*
X30499999Y-47474999D03*
D23*
X28000000Y-47475000D03*
X25500000Y-47475000D03*
%TD*%
M02*
