M48
; DRILL file {KiCad (7.0.0)} date Sun Mar 26 16:47:37 2023
; FORMAT={-:-/ absolute / inch / decimal}
; #@! TF.CreationDate,2023-03-26T16:47:37-07:00
; #@! TF.GenerationSoftware,Kicad,Pcbnew,(7.0.0)
; #@! TF.FileFunction,Plated,1,2,PTH
FMAT,2
INCH
; #@! TA.AperFunction,Plated,PTH,ViaDrill
T1C0.0157
; #@! TA.AperFunction,Plated,PTH,ComponentDrill
T2C0.0315
; #@! TA.AperFunction,Plated,PTH,ComponentDrill
T3C0.0394
; #@! TA.AperFunction,Plated,PTH,ComponentDrill
T4C0.0433
; #@! TA.AperFunction,Plated,PTH,ComponentDrill
T5C0.0480
; #@! TA.AperFunction,Plated,PTH,ComponentDrill
T6C0.0559
; #@! TA.AperFunction,Plated,PTH,ComponentDrill
T7C0.0563
%
G90
G05
T1
X0.84Y-4.3769
X0.9055Y-4.1339
X0.9134Y-3.7953
X0.9317Y-2.893
X0.9371Y-4.0528
X0.9646Y-2.9567
X0.9772Y-3.9309
X1.0057Y-4.1052
X1.0827Y-2.6732
X1.0866Y-4.1654
X1.126Y-2.9606
X1.1276Y-4.2076
X1.1693Y-3.122
X1.1813Y-2.7169
X1.2222Y-2.9146
X1.2354Y-2.6569
X1.4055Y-2.374
X1.4576Y-4.9483
X1.461Y-2.0197
X1.4957Y-4.4118
X1.5118Y-4.6339
X1.5394Y-2.7717
T2
X1.1026Y-3.5039
X1.201Y-3.5039
T3
X1.0787Y-1.7598
X1.0787Y-2.4724
X1.1772Y-1.7598
X1.1772Y-2.4724
X1.2756Y-1.7598
X1.2756Y-2.4724
X1.4488Y-2.7685
X1.4488Y-2.8685
X1.4488Y-2.9685
X1.4488Y-3.0685
X1.4488Y-3.1685
X1.4488Y-3.2685
X1.4488Y-3.3685
T5
X0.8937Y-5.1457
X0.8945Y-4.7402
T6
X1.0157Y-5.1457
X1.0165Y-4.7402
T7
X1.3425Y-5.1457
X1.3433Y-4.7402
T4
G00X0.9882Y-1.4783
M15
G01X0.9882Y-1.4508
M16
G05
G00X0.9882Y-2.1909
M15
G01X0.9882Y-2.1634
M16
G05
G00X1.3661Y-1.4783
M15
G01X1.3661Y-1.4508
M16
G05
G00X1.3661Y-2.1909
M15
G01X1.3661Y-2.1634
M16
G05
T0
M30
