%TF.GenerationSoftware,KiCad,Pcbnew,(7.0.0)*%
%TF.CreationDate,2023-03-26T16:47:36-07:00*%
%TF.ProjectId,followbuttons,666f6c6c-6f77-4627-9574-746f6e732e6b,rev?*%
%TF.SameCoordinates,Original*%
%TF.FileFunction,Copper,L2,Bot*%
%TF.FilePolarity,Positive*%
%FSLAX46Y46*%
G04 Gerber Fmt 4.6, Leading zero omitted, Abs format (unit mm)*
G04 Created by KiCad (PCBNEW (7.0.0)) date 2023-03-26 16:47:36*
%MOMM*%
%LPD*%
G01*
G04 APERTURE LIST*
%TA.AperFunction,ComponentPad*%
%ADD10R,1.700000X1.700000*%
%TD*%
%TA.AperFunction,ComponentPad*%
%ADD11O,1.700000X1.700000*%
%TD*%
%TA.AperFunction,ComponentPad*%
%ADD12R,1.830000X1.930000*%
%TD*%
%TA.AperFunction,ComponentPad*%
%ADD13C,2.130000*%
%TD*%
%TA.AperFunction,ComponentPad*%
%ADD14O,2.720000X3.240000*%
%TD*%
%TA.AperFunction,ComponentPad*%
%ADD15R,1.800000X1.800000*%
%TD*%
%TA.AperFunction,ComponentPad*%
%ADD16C,1.800000*%
%TD*%
%TA.AperFunction,ComponentPad*%
%ADD17R,1.600000X1.600000*%
%TD*%
%TA.AperFunction,ComponentPad*%
%ADD18C,1.600000*%
%TD*%
%TA.AperFunction,ViaPad*%
%ADD19C,0.800000*%
%TD*%
%TA.AperFunction,Conductor*%
%ADD20C,0.250000*%
%TD*%
G04 APERTURE END LIST*
D10*
%TO.P,J1,1,-12v_R*%
%TO.N,-12V*%
X36799999Y-70319999D03*
D11*
%TO.P,J1,2,-12v_L*%
%TO.N,GND*%
X36799999Y-72859999D03*
%TO.P,J1,3,GND*%
X36799999Y-75399999D03*
%TO.P,J1,4,GND*%
X36799999Y-77939999D03*
%TO.P,J1,5,GND_R3*%
%TO.N,+12V*%
X36799999Y-80479999D03*
%TO.P,J1,6,GND_L3*%
%TO.N,unconnected-(J1-GND_L3-Pad6)*%
X36799999Y-83019999D03*
%TO.P,J1,7*%
%TO.N,N/C*%
X36799999Y-85559999D03*
%TD*%
D12*
%TO.P,J3,S*%
%TO.N,GND*%
X22719999Y-120399999D03*
D13*
%TO.P,J3,T*%
%TO.N,Net-(J3-PadT)*%
X34120000Y-120400000D03*
%TO.P,J3,TN*%
%TO.N,unconnected-(J3-PadTN)*%
X25820000Y-120400000D03*
%TD*%
D14*
%TO.P,RV2,*%
%TO.N,*%
X25099999Y-55299999D03*
X34699999Y-55299999D03*
D15*
%TO.P,RV2,1,1*%
%TO.N,Net-(U2A-+)*%
X27399999Y-62799999D03*
D16*
%TO.P,RV2,2,2*%
%TO.N,Net-(D2-A)*%
X29900000Y-62800000D03*
%TO.P,RV2,3,3*%
X32400000Y-62800000D03*
%TD*%
D12*
%TO.P,J2,S*%
%TO.N,GND*%
X22699999Y-130699999D03*
D13*
%TO.P,J2,T*%
%TO.N,Net-(U1A-+)*%
X34100000Y-130700000D03*
%TO.P,J2,TN*%
%TO.N,unconnected-(J2-PadTN)*%
X25800000Y-130700000D03*
%TD*%
D14*
%TO.P,RV1,*%
%TO.N,*%
X25099999Y-37199999D03*
X34699999Y-37199999D03*
D15*
%TO.P,RV1,1,1*%
%TO.N,Net-(D1-K)*%
X27399999Y-44699999D03*
D16*
%TO.P,RV1,2,2*%
%TO.N,Net-(U2A-+)*%
X29900000Y-44700000D03*
%TO.P,RV1,3,3*%
X32400000Y-44700000D03*
%TD*%
D17*
%TO.P,C1,1*%
%TO.N,Net-(U2A-+)*%
X30505099Y-88999999D03*
D18*
%TO.P,C1,2*%
%TO.N,GND*%
X28005100Y-89000000D03*
%TD*%
D19*
%TO.N,GND*%
X35700000Y-60300000D03*
X28600000Y-75200000D03*
X24500000Y-75100000D03*
X27600000Y-105800000D03*
X23000000Y-105000000D03*
X23200000Y-96400000D03*
X29700000Y-79300000D03*
X27500000Y-67900000D03*
%TO.N,Net-(D6-K)*%
X37109500Y-51300000D03*
X39100000Y-70400000D03*
%TO.N,Net-(D11-K)*%
X37023200Y-125688000D03*
X38400000Y-117700000D03*
%TO.N,Net-(D9-A)*%
X25545500Y-104271000D03*
X37990300Y-112059000D03*
%TO.N,Net-(D3-A)*%
X30004200Y-69010000D03*
%TO.N,Net-(U1B--)*%
X31043400Y-74030800D03*
X31378800Y-67485300D03*
%TO.N,Net-(U1A-+)*%
X21335800Y-111174000D03*
%TO.N,+12V*%
X28642100Y-106872000D03*
%TO.N,-12V*%
X23802500Y-102942000D03*
%TO.N,Net-(D2-A)*%
X23664300Y-73481100D03*
%TO.N,Net-(U2A-+)*%
X24820300Y-99845900D03*
%TD*%
D20*
%TO.N,Net-(D11-K)*%
X37837500Y-124874000D02*
X37023200Y-125688000D01*
X37837500Y-118262500D02*
X37837500Y-124874000D01*
X38400000Y-117700000D02*
X37837500Y-118262500D01*
%TO.N,Net-(D2-A)*%
X29900000Y-62800000D02*
X29900000Y-67245400D01*
%TO.N,Net-(D6-K)*%
X39100000Y-70400000D02*
X39100000Y-53290500D01*
X39100000Y-53290500D02*
X37109500Y-51300000D01*
%TO.N,Net-(D9-A)*%
X30202300Y-104271000D02*
X25545500Y-104271000D01*
X37990300Y-112059000D02*
X30202300Y-104271000D01*
%TO.N,Net-(U1B--)*%
X31043400Y-67820700D02*
X31043400Y-74030800D01*
X31378800Y-67485300D02*
X31043400Y-67820700D01*
%TO.N,Net-(U1A-+)*%
X34100000Y-123938000D02*
X21335800Y-111174000D01*
X34100000Y-130700000D02*
X34100000Y-123938000D01*
%TO.N,+12V*%
X36434700Y-81655100D02*
X36800000Y-81655100D01*
X35465400Y-82624400D02*
X36434700Y-81655100D01*
X35465400Y-93325600D02*
X35465400Y-82624400D01*
X24770800Y-104020200D02*
X35465400Y-93325600D01*
X24770800Y-104521800D02*
X24770800Y-104020200D01*
X27121000Y-106872000D02*
X24770800Y-104521800D01*
X28642100Y-106872000D02*
X27121000Y-106872000D01*
X36800000Y-80480000D02*
X36800000Y-81655100D01*
%TO.N,-12V*%
X36800000Y-70320000D02*
X36800000Y-71495100D01*
X34706200Y-92038300D02*
X23802500Y-102942000D01*
X34706200Y-73221700D02*
X34706200Y-92038300D01*
X36432800Y-71495100D02*
X34706200Y-73221700D01*
X36800000Y-71495100D02*
X36432800Y-71495100D01*
%TO.N,Net-(D2-A)*%
X32400000Y-62800000D02*
X29900000Y-62800000D01*
X29900000Y-67245400D02*
X23664300Y-73481100D01*
%TO.N,Net-(U2A-+)*%
X32400000Y-44700000D02*
X29900000Y-44700000D01*
X27400000Y-61574900D02*
X27400000Y-62800000D01*
X29900000Y-59074900D02*
X27400000Y-61574900D01*
X29900000Y-44700000D02*
X29900000Y-59074900D01*
X27400000Y-64025100D02*
X27400000Y-62800000D01*
X22936900Y-68488200D02*
X27400000Y-64025100D01*
X22936900Y-80306700D02*
X22936900Y-68488200D01*
X30505100Y-87874900D02*
X22936900Y-80306700D01*
X30505100Y-89000000D02*
X30505100Y-87874900D01*
X24820300Y-95809900D02*
X24820300Y-99845900D01*
X30505100Y-90125100D02*
X24820300Y-95809900D01*
X30505100Y-89000000D02*
X30505100Y-90125100D01*
%TD*%
%TA.AperFunction,Conductor*%
%TO.N,GND*%
G36*
X28954435Y-63838753D02*
G01*
X29131374Y-63976470D01*
X29194898Y-64010847D01*
X29209517Y-64018759D01*
X29257023Y-64064340D01*
X29274500Y-64127814D01*
X29274500Y-66934947D01*
X29265061Y-66982400D01*
X29238181Y-67022628D01*
X23774081Y-72486728D01*
X23724718Y-72516978D01*
X23667002Y-72521520D01*
X23613515Y-72499365D01*
X23575915Y-72455342D01*
X23562400Y-72399047D01*
X23562400Y-68798652D01*
X23571839Y-68751199D01*
X23598719Y-68710971D01*
X24642595Y-67667095D01*
X27787306Y-64522382D01*
X27795482Y-64514943D01*
X27801877Y-64510886D01*
X27847933Y-64461840D01*
X27850550Y-64459138D01*
X27870120Y-64439570D01*
X27872565Y-64436416D01*
X27880155Y-64427528D01*
X27910062Y-64395682D01*
X27919709Y-64378132D01*
X27930393Y-64361866D01*
X27942674Y-64346036D01*
X27960018Y-64305951D01*
X27965161Y-64295455D01*
X27982038Y-64264758D01*
X28027578Y-64217766D01*
X28090698Y-64200499D01*
X28344561Y-64200499D01*
X28347872Y-64200499D01*
X28407483Y-64194091D01*
X28542331Y-64143796D01*
X28657546Y-64057546D01*
X28743796Y-63942331D01*
X28762092Y-63893274D01*
X28794204Y-63845458D01*
X28844457Y-63817308D01*
X28902007Y-63814900D01*
X28954435Y-63838753D01*
G37*
%TD.AperFunction*%
%TA.AperFunction,Conductor*%
G36*
X40257500Y-20017113D02*
G01*
X40302887Y-20062500D01*
X40319500Y-20124500D01*
X40319500Y-148375500D01*
X40302887Y-148437500D01*
X40257500Y-148482887D01*
X40195500Y-148499500D01*
X20124500Y-148499500D01*
X20062500Y-148482887D01*
X20017113Y-148437500D01*
X20000500Y-148375500D01*
X20000500Y-145500000D01*
X25074551Y-145500000D01*
X25094317Y-145751148D01*
X25095452Y-145755877D01*
X25095453Y-145755881D01*
X25151989Y-145991374D01*
X25151991Y-145991382D01*
X25153127Y-145996111D01*
X25249534Y-146228859D01*
X25252081Y-146233016D01*
X25252082Y-146233017D01*
X25378617Y-146439504D01*
X25378622Y-146439511D01*
X25381164Y-146443659D01*
X25384324Y-146447358D01*
X25384327Y-146447363D01*
X25534845Y-146623596D01*
X25544776Y-146635224D01*
X25548476Y-146638384D01*
X25730705Y-146794023D01*
X25736341Y-146798836D01*
X25740491Y-146801379D01*
X25740495Y-146801382D01*
X25852300Y-146869896D01*
X25951141Y-146930466D01*
X26183889Y-147026873D01*
X26428852Y-147085683D01*
X26680000Y-147105449D01*
X26931148Y-147085683D01*
X27176111Y-147026873D01*
X27408859Y-146930466D01*
X27623659Y-146798836D01*
X27815224Y-146635224D01*
X27978836Y-146443659D01*
X28110466Y-146228859D01*
X28206873Y-145996111D01*
X28265683Y-145751148D01*
X28285449Y-145500000D01*
X32034551Y-145500000D01*
X32054317Y-145751148D01*
X32055452Y-145755877D01*
X32055453Y-145755881D01*
X32111989Y-145991374D01*
X32111991Y-145991382D01*
X32113127Y-145996111D01*
X32209534Y-146228859D01*
X32212081Y-146233016D01*
X32212082Y-146233017D01*
X32338617Y-146439504D01*
X32338622Y-146439511D01*
X32341164Y-146443659D01*
X32344324Y-146447358D01*
X32344327Y-146447363D01*
X32494845Y-146623596D01*
X32504776Y-146635224D01*
X32508476Y-146638384D01*
X32690705Y-146794023D01*
X32696341Y-146798836D01*
X32700491Y-146801379D01*
X32700495Y-146801382D01*
X32812300Y-146869896D01*
X32911141Y-146930466D01*
X33143889Y-147026873D01*
X33388852Y-147085683D01*
X33640000Y-147105449D01*
X33891148Y-147085683D01*
X34136111Y-147026873D01*
X34368859Y-146930466D01*
X34583659Y-146798836D01*
X34775224Y-146635224D01*
X34938836Y-146443659D01*
X35070466Y-146228859D01*
X35166873Y-145996111D01*
X35225683Y-145751148D01*
X35245449Y-145500000D01*
X35225683Y-145248852D01*
X35166873Y-145003889D01*
X35070466Y-144771141D01*
X34938836Y-144556341D01*
X34775224Y-144364776D01*
X34771523Y-144361615D01*
X34587363Y-144204327D01*
X34587358Y-144204324D01*
X34583659Y-144201164D01*
X34579511Y-144198622D01*
X34579504Y-144198617D01*
X34373017Y-144072082D01*
X34373016Y-144072081D01*
X34368859Y-144069534D01*
X34136111Y-143973127D01*
X34131382Y-143971991D01*
X34131374Y-143971989D01*
X33895881Y-143915453D01*
X33895877Y-143915452D01*
X33891148Y-143914317D01*
X33886295Y-143913935D01*
X33644854Y-143894933D01*
X33640000Y-143894551D01*
X33635146Y-143894933D01*
X33393704Y-143913935D01*
X33393702Y-143913935D01*
X33388852Y-143914317D01*
X33384124Y-143915451D01*
X33384118Y-143915453D01*
X33148625Y-143971989D01*
X33148613Y-143971992D01*
X33143889Y-143973127D01*
X33139392Y-143974989D01*
X33139388Y-143974991D01*
X32915645Y-144067668D01*
X32915640Y-144067670D01*
X32911141Y-144069534D01*
X32906988Y-144072078D01*
X32906982Y-144072082D01*
X32700495Y-144198617D01*
X32700482Y-144198626D01*
X32696341Y-144201164D01*
X32692646Y-144204319D01*
X32692636Y-144204327D01*
X32508476Y-144361615D01*
X32508469Y-144361621D01*
X32504776Y-144364776D01*
X32501621Y-144368469D01*
X32501615Y-144368476D01*
X32344327Y-144552636D01*
X32344319Y-144552646D01*
X32341164Y-144556341D01*
X32338626Y-144560482D01*
X32338617Y-144560495D01*
X32212082Y-144766982D01*
X32212078Y-144766988D01*
X32209534Y-144771141D01*
X32207670Y-144775640D01*
X32207668Y-144775645D01*
X32114991Y-144999388D01*
X32113127Y-145003889D01*
X32111992Y-145008613D01*
X32111989Y-145008625D01*
X32055453Y-145244118D01*
X32055451Y-145244124D01*
X32054317Y-145248852D01*
X32034551Y-145500000D01*
X28285449Y-145500000D01*
X28265683Y-145248852D01*
X28206873Y-145003889D01*
X28110466Y-144771141D01*
X27978836Y-144556341D01*
X27815224Y-144364776D01*
X27811523Y-144361615D01*
X27627363Y-144204327D01*
X27627358Y-144204324D01*
X27623659Y-144201164D01*
X27619511Y-144198622D01*
X27619504Y-144198617D01*
X27413017Y-144072082D01*
X27413016Y-144072081D01*
X27408859Y-144069534D01*
X27176111Y-143973127D01*
X27171382Y-143971991D01*
X27171374Y-143971989D01*
X26935881Y-143915453D01*
X26935877Y-143915452D01*
X26931148Y-143914317D01*
X26926295Y-143913935D01*
X26684854Y-143894933D01*
X26680000Y-143894551D01*
X26675146Y-143894933D01*
X26433704Y-143913935D01*
X26433702Y-143913935D01*
X26428852Y-143914317D01*
X26424124Y-143915451D01*
X26424118Y-143915453D01*
X26188625Y-143971989D01*
X26188613Y-143971992D01*
X26183889Y-143973127D01*
X26179392Y-143974989D01*
X26179388Y-143974991D01*
X25955645Y-144067668D01*
X25955640Y-144067670D01*
X25951141Y-144069534D01*
X25946988Y-144072078D01*
X25946982Y-144072082D01*
X25740495Y-144198617D01*
X25740482Y-144198626D01*
X25736341Y-144201164D01*
X25732646Y-144204319D01*
X25732636Y-144204327D01*
X25548476Y-144361615D01*
X25548469Y-144361621D01*
X25544776Y-144364776D01*
X25541621Y-144368469D01*
X25541615Y-144368476D01*
X25384327Y-144552636D01*
X25384319Y-144552646D01*
X25381164Y-144556341D01*
X25378626Y-144560482D01*
X25378617Y-144560495D01*
X25252082Y-144766982D01*
X25252078Y-144766988D01*
X25249534Y-144771141D01*
X25247670Y-144775640D01*
X25247668Y-144775645D01*
X25154991Y-144999388D01*
X25153127Y-145003889D01*
X25151992Y-145008613D01*
X25151989Y-145008625D01*
X25095453Y-145244118D01*
X25095451Y-145244124D01*
X25094317Y-145248852D01*
X25074551Y-145500000D01*
X20000500Y-145500000D01*
X20000500Y-138000000D01*
X21499459Y-138000000D01*
X21499617Y-138000383D01*
X21499901Y-138000500D01*
X24487944Y-138000500D01*
X24500099Y-138000500D01*
X24500383Y-138000383D01*
X24500541Y-138000000D01*
X26499459Y-138000000D01*
X26499617Y-138000383D01*
X26499901Y-138000500D01*
X29487944Y-138000500D01*
X29500099Y-138000500D01*
X29500383Y-138000383D01*
X29500541Y-138000000D01*
X31499459Y-138000000D01*
X31499617Y-138000383D01*
X31499901Y-138000500D01*
X34487944Y-138000500D01*
X34500099Y-138000500D01*
X34500383Y-138000383D01*
X34500541Y-138000000D01*
X36499459Y-138000000D01*
X36499617Y-138000383D01*
X36499901Y-138000500D01*
X39487944Y-138000500D01*
X39500099Y-138000500D01*
X39500383Y-138000383D01*
X39500541Y-138000000D01*
X39500383Y-137999617D01*
X39500099Y-137999500D01*
X36499901Y-137999500D01*
X36499617Y-137999617D01*
X36499459Y-138000000D01*
X34500541Y-138000000D01*
X34500383Y-137999617D01*
X34500099Y-137999500D01*
X31499901Y-137999500D01*
X31499617Y-137999617D01*
X31499459Y-138000000D01*
X29500541Y-138000000D01*
X29500383Y-137999617D01*
X29500099Y-137999500D01*
X26499901Y-137999500D01*
X26499617Y-137999617D01*
X26499459Y-138000000D01*
X24500541Y-138000000D01*
X24500383Y-137999617D01*
X24500099Y-137999500D01*
X21499901Y-137999500D01*
X21499617Y-137999617D01*
X21499459Y-138000000D01*
X20000500Y-138000000D01*
X20000500Y-131709518D01*
X21285000Y-131709518D01*
X21285353Y-131716114D01*
X21290573Y-131764667D01*
X21294111Y-131779641D01*
X21338547Y-131898777D01*
X21346962Y-131914189D01*
X21422498Y-132015092D01*
X21434907Y-132027501D01*
X21535810Y-132103037D01*
X21551222Y-132111452D01*
X21670358Y-132155888D01*
X21685332Y-132159426D01*
X21733885Y-132164646D01*
X21740482Y-132165000D01*
X22433674Y-132165000D01*
X22446549Y-132161549D01*
X22450000Y-132148674D01*
X22950000Y-132148674D01*
X22953450Y-132161549D01*
X22966326Y-132165000D01*
X23659518Y-132165000D01*
X23666114Y-132164646D01*
X23714667Y-132159426D01*
X23729641Y-132155888D01*
X23848777Y-132111452D01*
X23864189Y-132103037D01*
X23965092Y-132027501D01*
X23977501Y-132015092D01*
X24053037Y-131914189D01*
X24061452Y-131898777D01*
X24105888Y-131779641D01*
X24109426Y-131764667D01*
X24114646Y-131716114D01*
X24115000Y-131709518D01*
X24115000Y-131346289D01*
X24133273Y-131281499D01*
X24182705Y-131235804D01*
X24248729Y-131222671D01*
X24311885Y-131245971D01*
X24353560Y-131298835D01*
X24400816Y-131412920D01*
X24529567Y-131623023D01*
X24532731Y-131626728D01*
X24532735Y-131626733D01*
X24609074Y-131716114D01*
X24689601Y-131810399D01*
X24693308Y-131813565D01*
X24873266Y-131967264D01*
X24873269Y-131967266D01*
X24876977Y-131970433D01*
X25087080Y-132099184D01*
X25314738Y-132193483D01*
X25554345Y-132251007D01*
X25800000Y-132270341D01*
X26045655Y-132251007D01*
X26285262Y-132193483D01*
X26512920Y-132099184D01*
X26723023Y-131970433D01*
X26910399Y-131810399D01*
X27070433Y-131623023D01*
X27199184Y-131412920D01*
X27293483Y-131185262D01*
X27351007Y-130945655D01*
X27370341Y-130700000D01*
X27351007Y-130454345D01*
X27293483Y-130214738D01*
X27199184Y-129987080D01*
X27070433Y-129776977D01*
X26996559Y-129690482D01*
X26913565Y-129593308D01*
X26910399Y-129589601D01*
X26906691Y-129586434D01*
X26726733Y-129432735D01*
X26726728Y-129432731D01*
X26723023Y-129429567D01*
X26512920Y-129300816D01*
X26285262Y-129206517D01*
X26280533Y-129205381D01*
X26280525Y-129205379D01*
X26050388Y-129150129D01*
X26050384Y-129150128D01*
X26045655Y-129148993D01*
X26040802Y-129148611D01*
X25804854Y-129130041D01*
X25800000Y-129129659D01*
X25795146Y-129130041D01*
X25559197Y-129148611D01*
X25559195Y-129148611D01*
X25554345Y-129148993D01*
X25549617Y-129150127D01*
X25549611Y-129150129D01*
X25319474Y-129205379D01*
X25319462Y-129205382D01*
X25314738Y-129206517D01*
X25310241Y-129208379D01*
X25310237Y-129208381D01*
X25091584Y-129298950D01*
X25091579Y-129298952D01*
X25087080Y-129300816D01*
X25082927Y-129303360D01*
X25082921Y-129303364D01*
X24881134Y-129427019D01*
X24881128Y-129427022D01*
X24876977Y-129429567D01*
X24873277Y-129432726D01*
X24873266Y-129432735D01*
X24693308Y-129586434D01*
X24693301Y-129586440D01*
X24689601Y-129589601D01*
X24686440Y-129593301D01*
X24686434Y-129593308D01*
X24532735Y-129773266D01*
X24532726Y-129773277D01*
X24529567Y-129776977D01*
X24527022Y-129781128D01*
X24527019Y-129781134D01*
X24403364Y-129982921D01*
X24403360Y-129982927D01*
X24400816Y-129987080D01*
X24398952Y-129991579D01*
X24398950Y-129991584D01*
X24353561Y-130101164D01*
X24311885Y-130154029D01*
X24248729Y-130177329D01*
X24182705Y-130164196D01*
X24133273Y-130118501D01*
X24115000Y-130053711D01*
X24115000Y-129690482D01*
X24114646Y-129683885D01*
X24109426Y-129635332D01*
X24105888Y-129620358D01*
X24061452Y-129501222D01*
X24053037Y-129485810D01*
X23977501Y-129384907D01*
X23965092Y-129372498D01*
X23864189Y-129296962D01*
X23848777Y-129288547D01*
X23729641Y-129244111D01*
X23714667Y-129240573D01*
X23666114Y-129235353D01*
X23659518Y-129235000D01*
X22966326Y-129235000D01*
X22953450Y-129238450D01*
X22950000Y-129251326D01*
X22950000Y-132148674D01*
X22450000Y-132148674D01*
X22450000Y-130966326D01*
X22446549Y-130953450D01*
X22433674Y-130950000D01*
X21301326Y-130950000D01*
X21288450Y-130953450D01*
X21285000Y-130966326D01*
X21285000Y-131709518D01*
X20000500Y-131709518D01*
X20000500Y-130433674D01*
X21285000Y-130433674D01*
X21288450Y-130446549D01*
X21301326Y-130450000D01*
X22433674Y-130450000D01*
X22446549Y-130446549D01*
X22450000Y-130433674D01*
X22450000Y-129251326D01*
X22446549Y-129238450D01*
X22433674Y-129235000D01*
X21740482Y-129235000D01*
X21733885Y-129235353D01*
X21685332Y-129240573D01*
X21670358Y-129244111D01*
X21551222Y-129288547D01*
X21535810Y-129296962D01*
X21434907Y-129372498D01*
X21422498Y-129384907D01*
X21346962Y-129485810D01*
X21338547Y-129501222D01*
X21294111Y-129620358D01*
X21290573Y-129635332D01*
X21285353Y-129683885D01*
X21285000Y-129690482D01*
X21285000Y-130433674D01*
X20000500Y-130433674D01*
X20000500Y-121409518D01*
X21305000Y-121409518D01*
X21305353Y-121416114D01*
X21310573Y-121464667D01*
X21314111Y-121479641D01*
X21358547Y-121598777D01*
X21366962Y-121614189D01*
X21442498Y-121715092D01*
X21454907Y-121727501D01*
X21555810Y-121803037D01*
X21571222Y-121811452D01*
X21690358Y-121855888D01*
X21705332Y-121859426D01*
X21753885Y-121864646D01*
X21760482Y-121865000D01*
X22453674Y-121865000D01*
X22466549Y-121861549D01*
X22470000Y-121848674D01*
X22970000Y-121848674D01*
X22973450Y-121861549D01*
X22986326Y-121865000D01*
X23679518Y-121865000D01*
X23686114Y-121864646D01*
X23734667Y-121859426D01*
X23749641Y-121855888D01*
X23868777Y-121811452D01*
X23884189Y-121803037D01*
X23985092Y-121727501D01*
X23997501Y-121715092D01*
X24073037Y-121614189D01*
X24081452Y-121598777D01*
X24125888Y-121479641D01*
X24129426Y-121464667D01*
X24134646Y-121416114D01*
X24135000Y-121409518D01*
X24135000Y-121046289D01*
X24153273Y-120981499D01*
X24202705Y-120935804D01*
X24268729Y-120922671D01*
X24331885Y-120945971D01*
X24373560Y-120998835D01*
X24420816Y-121112920D01*
X24549567Y-121323023D01*
X24552731Y-121326728D01*
X24552735Y-121326733D01*
X24629074Y-121416114D01*
X24709601Y-121510399D01*
X24713308Y-121513565D01*
X24893266Y-121667264D01*
X24893269Y-121667266D01*
X24896977Y-121670433D01*
X25107080Y-121799184D01*
X25334738Y-121893483D01*
X25574345Y-121951007D01*
X25820000Y-121970341D01*
X26065655Y-121951007D01*
X26305262Y-121893483D01*
X26532920Y-121799184D01*
X26743023Y-121670433D01*
X26930399Y-121510399D01*
X27090433Y-121323023D01*
X27219184Y-121112920D01*
X27313483Y-120885262D01*
X27371007Y-120645655D01*
X27390341Y-120400000D01*
X27371007Y-120154345D01*
X27313483Y-119914738D01*
X27219184Y-119687080D01*
X27090433Y-119476977D01*
X27016559Y-119390482D01*
X26933565Y-119293308D01*
X26930399Y-119289601D01*
X26926691Y-119286434D01*
X26746733Y-119132735D01*
X26746728Y-119132731D01*
X26743023Y-119129567D01*
X26532920Y-119000816D01*
X26305262Y-118906517D01*
X26300533Y-118905381D01*
X26300525Y-118905379D01*
X26070388Y-118850129D01*
X26070384Y-118850128D01*
X26065655Y-118848993D01*
X26060802Y-118848611D01*
X25824854Y-118830041D01*
X25820000Y-118829659D01*
X25815146Y-118830041D01*
X25579197Y-118848611D01*
X25579195Y-118848611D01*
X25574345Y-118848993D01*
X25569617Y-118850127D01*
X25569611Y-118850129D01*
X25339474Y-118905379D01*
X25339462Y-118905382D01*
X25334738Y-118906517D01*
X25330241Y-118908379D01*
X25330237Y-118908381D01*
X25111584Y-118998950D01*
X25111579Y-118998952D01*
X25107080Y-119000816D01*
X25102927Y-119003360D01*
X25102921Y-119003364D01*
X24901134Y-119127019D01*
X24901128Y-119127022D01*
X24896977Y-119129567D01*
X24893277Y-119132726D01*
X24893266Y-119132735D01*
X24713308Y-119286434D01*
X24713301Y-119286440D01*
X24709601Y-119289601D01*
X24706440Y-119293301D01*
X24706434Y-119293308D01*
X24552735Y-119473266D01*
X24552726Y-119473277D01*
X24549567Y-119476977D01*
X24547022Y-119481128D01*
X24547019Y-119481134D01*
X24423364Y-119682921D01*
X24423360Y-119682927D01*
X24420816Y-119687080D01*
X24418952Y-119691579D01*
X24418950Y-119691584D01*
X24373561Y-119801164D01*
X24331885Y-119854029D01*
X24268729Y-119877329D01*
X24202705Y-119864196D01*
X24153273Y-119818501D01*
X24135000Y-119753711D01*
X24135000Y-119390482D01*
X24134646Y-119383885D01*
X24129426Y-119335332D01*
X24125888Y-119320358D01*
X24081452Y-119201222D01*
X24073037Y-119185810D01*
X23997501Y-119084907D01*
X23985092Y-119072498D01*
X23884189Y-118996962D01*
X23868777Y-118988547D01*
X23749641Y-118944111D01*
X23734667Y-118940573D01*
X23686114Y-118935353D01*
X23679518Y-118935000D01*
X22986326Y-118935000D01*
X22973450Y-118938450D01*
X22970000Y-118951326D01*
X22970000Y-121848674D01*
X22470000Y-121848674D01*
X22470000Y-120666326D01*
X22466549Y-120653450D01*
X22453674Y-120650000D01*
X21321326Y-120650000D01*
X21308450Y-120653450D01*
X21305000Y-120666326D01*
X21305000Y-121409518D01*
X20000500Y-121409518D01*
X20000500Y-120133674D01*
X21305000Y-120133674D01*
X21308450Y-120146549D01*
X21321326Y-120150000D01*
X22453674Y-120150000D01*
X22466549Y-120146549D01*
X22470000Y-120133674D01*
X22470000Y-118951326D01*
X22466549Y-118938450D01*
X22453674Y-118935000D01*
X21760482Y-118935000D01*
X21753885Y-118935353D01*
X21705332Y-118940573D01*
X21690358Y-118944111D01*
X21571222Y-118988547D01*
X21555810Y-118996962D01*
X21454907Y-119072498D01*
X21442498Y-119084907D01*
X21366962Y-119185810D01*
X21358547Y-119201222D01*
X21314111Y-119320358D01*
X21310573Y-119335332D01*
X21305353Y-119383885D01*
X21305000Y-119390482D01*
X21305000Y-120133674D01*
X20000500Y-120133674D01*
X20000500Y-111174000D01*
X20430340Y-111174000D01*
X20431019Y-111180460D01*
X20449446Y-111355795D01*
X20449447Y-111355803D01*
X20450126Y-111362256D01*
X20452131Y-111368428D01*
X20452133Y-111368435D01*
X20506613Y-111536105D01*
X20508621Y-111542284D01*
X20603267Y-111706216D01*
X20729929Y-111846888D01*
X20735187Y-111850708D01*
X20735188Y-111850709D01*
X20806499Y-111902519D01*
X20883070Y-111958151D01*
X21055997Y-112035144D01*
X21241154Y-112074500D01*
X21300355Y-112074500D01*
X21347807Y-112083939D01*
X21388034Y-112110817D01*
X27128417Y-117851109D01*
X33438181Y-124160775D01*
X33465061Y-124201004D01*
X33474500Y-124248457D01*
X33474500Y-129181751D01*
X33465061Y-129229203D01*
X33438182Y-129269431D01*
X33397955Y-129296311D01*
X33391587Y-129298948D01*
X33391575Y-129298953D01*
X33387080Y-129300816D01*
X33382927Y-129303360D01*
X33382921Y-129303364D01*
X33181134Y-129427019D01*
X33181128Y-129427022D01*
X33176977Y-129429567D01*
X33173277Y-129432726D01*
X33173266Y-129432735D01*
X32993308Y-129586434D01*
X32993301Y-129586440D01*
X32989601Y-129589601D01*
X32986440Y-129593301D01*
X32986434Y-129593308D01*
X32832735Y-129773266D01*
X32832726Y-129773277D01*
X32829567Y-129776977D01*
X32827022Y-129781128D01*
X32827019Y-129781134D01*
X32703364Y-129982921D01*
X32703360Y-129982927D01*
X32700816Y-129987080D01*
X32698952Y-129991579D01*
X32698950Y-129991584D01*
X32631663Y-130154029D01*
X32606517Y-130214738D01*
X32605382Y-130219462D01*
X32605379Y-130219474D01*
X32550129Y-130449611D01*
X32550127Y-130449617D01*
X32548993Y-130454345D01*
X32529659Y-130700000D01*
X32548993Y-130945655D01*
X32550128Y-130950384D01*
X32550129Y-130950388D01*
X32605379Y-131180525D01*
X32605381Y-131180533D01*
X32606517Y-131185262D01*
X32700816Y-131412920D01*
X32829567Y-131623023D01*
X32832731Y-131626728D01*
X32832735Y-131626733D01*
X32909074Y-131716114D01*
X32989601Y-131810399D01*
X32993308Y-131813565D01*
X33173266Y-131967264D01*
X33173269Y-131967266D01*
X33176977Y-131970433D01*
X33387080Y-132099184D01*
X33614738Y-132193483D01*
X33854345Y-132251007D01*
X34100000Y-132270341D01*
X34345655Y-132251007D01*
X34585262Y-132193483D01*
X34812920Y-132099184D01*
X35023023Y-131970433D01*
X35210399Y-131810399D01*
X35370433Y-131623023D01*
X35499184Y-131412920D01*
X35593483Y-131185262D01*
X35651007Y-130945655D01*
X35670341Y-130700000D01*
X35651007Y-130454345D01*
X35593483Y-130214738D01*
X35499184Y-129987080D01*
X35370433Y-129776977D01*
X35296559Y-129690482D01*
X35213565Y-129593308D01*
X35210399Y-129589601D01*
X35206691Y-129586434D01*
X35026733Y-129432735D01*
X35026728Y-129432731D01*
X35023023Y-129429567D01*
X34812920Y-129300816D01*
X34808419Y-129298951D01*
X34808412Y-129298948D01*
X34802045Y-129296311D01*
X34761818Y-129269431D01*
X34734939Y-129229203D01*
X34725500Y-129181751D01*
X34725500Y-125688000D01*
X36117740Y-125688000D01*
X36118419Y-125694460D01*
X36136846Y-125869795D01*
X36136847Y-125869803D01*
X36137526Y-125876256D01*
X36139531Y-125882428D01*
X36139533Y-125882435D01*
X36194013Y-126050105D01*
X36196021Y-126056284D01*
X36290667Y-126220216D01*
X36417329Y-126360888D01*
X36570470Y-126472151D01*
X36743397Y-126549144D01*
X36928554Y-126588500D01*
X37111343Y-126588500D01*
X37117846Y-126588500D01*
X37303003Y-126549144D01*
X37475930Y-126472151D01*
X37629071Y-126360888D01*
X37755733Y-126220216D01*
X37850379Y-126056284D01*
X37908874Y-125876256D01*
X37926500Y-125708548D01*
X37937904Y-125668121D01*
X37962152Y-125633820D01*
X38224706Y-125371362D01*
X38232945Y-125363867D01*
X38239377Y-125359786D01*
X38285405Y-125310769D01*
X38288008Y-125308084D01*
X38307544Y-125288557D01*
X38310030Y-125285352D01*
X38317621Y-125276465D01*
X38342220Y-125250270D01*
X38347562Y-125244582D01*
X38357183Y-125227080D01*
X38367870Y-125210813D01*
X38380114Y-125195036D01*
X38397502Y-125154872D01*
X38402619Y-125144430D01*
X38423697Y-125106092D01*
X38428660Y-125086757D01*
X38434970Y-125068331D01*
X38442905Y-125050007D01*
X38449755Y-125006806D01*
X38452118Y-124995396D01*
X38463000Y-124953019D01*
X38463000Y-124933053D01*
X38464530Y-124913632D01*
X38467656Y-124893920D01*
X38463547Y-124850376D01*
X38463000Y-124838730D01*
X38463000Y-118707640D01*
X38475550Y-118653282D01*
X38510658Y-118609927D01*
X38561219Y-118586350D01*
X38612401Y-118575470D01*
X38679803Y-118561144D01*
X38852730Y-118484151D01*
X39005871Y-118372888D01*
X39132533Y-118232216D01*
X39227179Y-118068284D01*
X39285674Y-117888256D01*
X39305460Y-117700000D01*
X39285674Y-117511744D01*
X39227179Y-117331716D01*
X39132533Y-117167784D01*
X39005871Y-117027112D01*
X39000613Y-117023292D01*
X39000611Y-117023290D01*
X38857988Y-116919669D01*
X38857987Y-116919668D01*
X38852730Y-116915849D01*
X38846792Y-116913205D01*
X38685745Y-116841501D01*
X38685740Y-116841499D01*
X38679803Y-116838856D01*
X38673444Y-116837504D01*
X38673440Y-116837503D01*
X38501008Y-116800852D01*
X38501005Y-116800851D01*
X38494646Y-116799500D01*
X38305354Y-116799500D01*
X38298995Y-116800851D01*
X38298991Y-116800852D01*
X38126559Y-116837503D01*
X38126552Y-116837505D01*
X38120197Y-116838856D01*
X38114262Y-116841498D01*
X38114254Y-116841501D01*
X37953207Y-116913205D01*
X37953202Y-116913207D01*
X37947270Y-116915849D01*
X37942016Y-116919665D01*
X37942011Y-116919669D01*
X37799388Y-117023290D01*
X37799381Y-117023295D01*
X37794129Y-117027112D01*
X37789784Y-117031937D01*
X37789779Y-117031942D01*
X37671813Y-117162956D01*
X37671808Y-117162962D01*
X37667467Y-117167784D01*
X37664222Y-117173404D01*
X37664218Y-117173410D01*
X37576069Y-117326089D01*
X37576066Y-117326094D01*
X37572821Y-117331716D01*
X37570815Y-117337888D01*
X37570813Y-117337894D01*
X37516333Y-117505564D01*
X37516331Y-117505573D01*
X37514326Y-117511744D01*
X37513647Y-117518203D01*
X37513647Y-117518204D01*
X37496678Y-117679650D01*
X37485278Y-117720072D01*
X37461038Y-117754369D01*
X37450196Y-117765211D01*
X37442011Y-117772659D01*
X37435623Y-117776714D01*
X37430288Y-117782394D01*
X37430283Y-117782399D01*
X37389596Y-117825725D01*
X37386892Y-117828516D01*
X37370128Y-117845280D01*
X37370121Y-117845287D01*
X37367380Y-117848029D01*
X37365000Y-117851096D01*
X37364989Y-117851109D01*
X37364900Y-117851225D01*
X37357342Y-117860070D01*
X37332780Y-117886227D01*
X37332773Y-117886236D01*
X37327438Y-117891918D01*
X37323682Y-117898749D01*
X37323679Y-117898754D01*
X37317785Y-117909475D01*
X37307109Y-117925727D01*
X37299609Y-117935396D01*
X37299601Y-117935407D01*
X37294827Y-117941564D01*
X37291734Y-117948708D01*
X37291729Y-117948719D01*
X37277474Y-117981660D01*
X37272338Y-117992143D01*
X37251303Y-118030408D01*
X37249364Y-118037956D01*
X37249363Y-118037961D01*
X37246322Y-118049807D01*
X37240021Y-118068211D01*
X37235158Y-118079448D01*
X37235156Y-118079452D01*
X37232062Y-118086604D01*
X37230842Y-118094303D01*
X37230842Y-118094305D01*
X37225229Y-118129741D01*
X37222861Y-118141176D01*
X37213938Y-118175928D01*
X37213936Y-118175936D01*
X37212000Y-118183481D01*
X37212000Y-118191277D01*
X37212000Y-118203517D01*
X37210474Y-118222902D01*
X37207340Y-118242696D01*
X37208074Y-118250461D01*
X37208074Y-118250464D01*
X37211450Y-118286176D01*
X37212000Y-118297845D01*
X37212000Y-124563467D01*
X37202557Y-124610931D01*
X37175667Y-124651160D01*
X37075592Y-124751199D01*
X37035371Y-124778066D01*
X36987929Y-124787500D01*
X36928554Y-124787500D01*
X36922195Y-124788851D01*
X36922191Y-124788852D01*
X36749759Y-124825503D01*
X36749752Y-124825505D01*
X36743397Y-124826856D01*
X36737462Y-124829498D01*
X36737454Y-124829501D01*
X36576407Y-124901205D01*
X36576402Y-124901207D01*
X36570470Y-124903849D01*
X36565216Y-124907665D01*
X36565211Y-124907669D01*
X36422588Y-125011290D01*
X36422581Y-125011295D01*
X36417329Y-125015112D01*
X36412984Y-125019937D01*
X36412979Y-125019942D01*
X36295013Y-125150956D01*
X36295008Y-125150962D01*
X36290667Y-125155784D01*
X36287422Y-125161404D01*
X36287418Y-125161410D01*
X36199269Y-125314089D01*
X36199266Y-125314094D01*
X36196021Y-125319716D01*
X36194015Y-125325888D01*
X36194013Y-125325894D01*
X36139533Y-125493564D01*
X36139531Y-125493573D01*
X36137526Y-125499744D01*
X36136848Y-125506194D01*
X36136846Y-125506204D01*
X36119829Y-125668121D01*
X36117740Y-125688000D01*
X34725500Y-125688000D01*
X34725500Y-124015774D01*
X34726021Y-124004717D01*
X34727673Y-123997327D01*
X34725560Y-123930134D01*
X34725500Y-123926239D01*
X34725500Y-123902551D01*
X34725500Y-123898650D01*
X34724997Y-123894670D01*
X34724079Y-123883017D01*
X34722708Y-123839368D01*
X34717121Y-123820139D01*
X34713173Y-123801074D01*
X34711641Y-123788946D01*
X34710664Y-123781208D01*
X34694577Y-123740578D01*
X34690804Y-123729557D01*
X34678616Y-123687605D01*
X34668419Y-123670364D01*
X34659860Y-123652893D01*
X34655355Y-123641515D01*
X34652486Y-123634268D01*
X34626806Y-123598922D01*
X34620406Y-123589179D01*
X34598167Y-123551575D01*
X34584003Y-123537411D01*
X34571362Y-123522611D01*
X34564180Y-123512725D01*
X34564178Y-123512723D01*
X34559594Y-123506413D01*
X34553582Y-123501440D01*
X34553579Y-123501436D01*
X34525944Y-123478574D01*
X34517304Y-123470713D01*
X31446543Y-120400000D01*
X32549659Y-120400000D01*
X32568993Y-120645655D01*
X32570128Y-120650384D01*
X32570129Y-120650388D01*
X32625379Y-120880525D01*
X32625381Y-120880533D01*
X32626517Y-120885262D01*
X32720816Y-121112920D01*
X32849567Y-121323023D01*
X32852731Y-121326728D01*
X32852735Y-121326733D01*
X32929074Y-121416114D01*
X33009601Y-121510399D01*
X33013308Y-121513565D01*
X33193266Y-121667264D01*
X33193269Y-121667266D01*
X33196977Y-121670433D01*
X33407080Y-121799184D01*
X33634738Y-121893483D01*
X33874345Y-121951007D01*
X34120000Y-121970341D01*
X34365655Y-121951007D01*
X34605262Y-121893483D01*
X34832920Y-121799184D01*
X35043023Y-121670433D01*
X35230399Y-121510399D01*
X35390433Y-121323023D01*
X35519184Y-121112920D01*
X35613483Y-120885262D01*
X35671007Y-120645655D01*
X35690341Y-120400000D01*
X35671007Y-120154345D01*
X35613483Y-119914738D01*
X35519184Y-119687080D01*
X35390433Y-119476977D01*
X35316559Y-119390482D01*
X35233565Y-119293308D01*
X35230399Y-119289601D01*
X35226691Y-119286434D01*
X35046733Y-119132735D01*
X35046728Y-119132731D01*
X35043023Y-119129567D01*
X34832920Y-119000816D01*
X34605262Y-118906517D01*
X34600533Y-118905381D01*
X34600525Y-118905379D01*
X34370388Y-118850129D01*
X34370384Y-118850128D01*
X34365655Y-118848993D01*
X34360802Y-118848611D01*
X34124854Y-118830041D01*
X34120000Y-118829659D01*
X34115146Y-118830041D01*
X33879197Y-118848611D01*
X33879195Y-118848611D01*
X33874345Y-118848993D01*
X33869617Y-118850127D01*
X33869611Y-118850129D01*
X33639474Y-118905379D01*
X33639462Y-118905382D01*
X33634738Y-118906517D01*
X33630241Y-118908379D01*
X33630237Y-118908381D01*
X33411584Y-118998950D01*
X33411579Y-118998952D01*
X33407080Y-119000816D01*
X33402927Y-119003360D01*
X33402921Y-119003364D01*
X33201134Y-119127019D01*
X33201128Y-119127022D01*
X33196977Y-119129567D01*
X33193277Y-119132726D01*
X33193266Y-119132735D01*
X33013308Y-119286434D01*
X33013301Y-119286440D01*
X33009601Y-119289601D01*
X33006440Y-119293301D01*
X33006434Y-119293308D01*
X32852735Y-119473266D01*
X32852726Y-119473277D01*
X32849567Y-119476977D01*
X32847022Y-119481128D01*
X32847019Y-119481134D01*
X32723364Y-119682921D01*
X32723360Y-119682927D01*
X32720816Y-119687080D01*
X32718952Y-119691579D01*
X32718950Y-119691584D01*
X32651663Y-119854029D01*
X32626517Y-119914738D01*
X32625382Y-119919462D01*
X32625379Y-119919474D01*
X32570129Y-120149611D01*
X32570127Y-120149617D01*
X32568993Y-120154345D01*
X32549659Y-120400000D01*
X31446543Y-120400000D01*
X22274760Y-111228362D01*
X22250521Y-111194064D01*
X22239120Y-111153641D01*
X22222153Y-110992204D01*
X22222152Y-110992203D01*
X22221474Y-110985744D01*
X22162979Y-110805716D01*
X22068333Y-110641784D01*
X21941671Y-110501112D01*
X21936413Y-110497292D01*
X21936411Y-110497290D01*
X21793788Y-110393669D01*
X21793787Y-110393668D01*
X21788530Y-110389849D01*
X21782592Y-110387205D01*
X21621545Y-110315501D01*
X21621540Y-110315499D01*
X21615603Y-110312856D01*
X21609244Y-110311504D01*
X21609240Y-110311503D01*
X21436808Y-110274852D01*
X21436805Y-110274851D01*
X21430446Y-110273500D01*
X21241154Y-110273500D01*
X21234795Y-110274851D01*
X21234791Y-110274852D01*
X21062359Y-110311503D01*
X21062352Y-110311505D01*
X21055997Y-110312856D01*
X21050062Y-110315498D01*
X21050054Y-110315501D01*
X20889007Y-110387205D01*
X20889002Y-110387207D01*
X20883070Y-110389849D01*
X20877816Y-110393665D01*
X20877811Y-110393669D01*
X20735188Y-110497290D01*
X20735181Y-110497295D01*
X20729929Y-110501112D01*
X20725584Y-110505937D01*
X20725579Y-110505942D01*
X20607613Y-110636956D01*
X20607608Y-110636962D01*
X20603267Y-110641784D01*
X20600022Y-110647404D01*
X20600018Y-110647410D01*
X20511869Y-110800089D01*
X20511866Y-110800094D01*
X20508621Y-110805716D01*
X20506615Y-110811888D01*
X20506613Y-110811894D01*
X20452133Y-110979564D01*
X20452131Y-110979573D01*
X20450126Y-110985744D01*
X20449448Y-110992194D01*
X20449446Y-110992204D01*
X20435786Y-111122181D01*
X20430340Y-111174000D01*
X20000500Y-111174000D01*
X20000500Y-90078703D01*
X27283317Y-90078703D01*
X27290750Y-90086814D01*
X27348177Y-90127025D01*
X27357527Y-90132423D01*
X27553868Y-90223979D01*
X27564002Y-90227667D01*
X27773262Y-90283739D01*
X27783893Y-90285613D01*
X27999705Y-90304494D01*
X28010495Y-90304494D01*
X28226306Y-90285613D01*
X28236937Y-90283739D01*
X28446197Y-90227667D01*
X28456331Y-90223979D01*
X28652675Y-90132422D01*
X28662020Y-90127026D01*
X28719448Y-90086814D01*
X28726880Y-90078703D01*
X28720967Y-90069421D01*
X28016642Y-89365095D01*
X28005100Y-89358431D01*
X27993557Y-89365095D01*
X27289228Y-90069424D01*
X27283317Y-90078703D01*
X20000500Y-90078703D01*
X20000500Y-89005395D01*
X26700606Y-89005395D01*
X26719486Y-89221206D01*
X26721360Y-89231837D01*
X26777432Y-89441097D01*
X26781120Y-89451231D01*
X26872676Y-89647572D01*
X26878074Y-89656922D01*
X26918284Y-89714348D01*
X26926395Y-89721781D01*
X26935674Y-89715870D01*
X27640003Y-89011542D01*
X27646667Y-89000000D01*
X27640003Y-88988457D01*
X26935674Y-88284128D01*
X26926396Y-88278217D01*
X26918283Y-88285651D01*
X26878071Y-88343081D01*
X26872677Y-88352425D01*
X26781120Y-88548768D01*
X26777432Y-88558902D01*
X26721360Y-88768162D01*
X26719486Y-88778793D01*
X26700606Y-88994605D01*
X26700606Y-89005395D01*
X20000500Y-89005395D01*
X20000500Y-87921296D01*
X27283317Y-87921296D01*
X27289228Y-87930574D01*
X27993557Y-88634903D01*
X28005100Y-88641567D01*
X28016642Y-88634903D01*
X28720970Y-87930574D01*
X28726881Y-87921295D01*
X28719448Y-87913184D01*
X28662022Y-87872974D01*
X28652672Y-87867576D01*
X28456331Y-87776020D01*
X28446197Y-87772332D01*
X28236937Y-87716260D01*
X28226306Y-87714386D01*
X28010495Y-87695506D01*
X27999705Y-87695506D01*
X27783893Y-87714386D01*
X27773262Y-87716260D01*
X27564002Y-87772332D01*
X27553868Y-87776020D01*
X27357525Y-87867577D01*
X27348181Y-87872971D01*
X27290751Y-87913183D01*
X27283317Y-87921296D01*
X20000500Y-87921296D01*
X20000500Y-68468396D01*
X22306740Y-68468396D01*
X22307474Y-68476161D01*
X22307474Y-68476164D01*
X22310850Y-68511876D01*
X22311400Y-68523545D01*
X22311400Y-80228925D01*
X22310878Y-80239980D01*
X22309227Y-80247367D01*
X22309471Y-80255153D01*
X22309471Y-80255161D01*
X22311339Y-80314573D01*
X22311400Y-80318468D01*
X22311400Y-80346050D01*
X22311888Y-80349919D01*
X22311889Y-80349925D01*
X22311904Y-80350043D01*
X22312818Y-80361666D01*
X22313945Y-80397530D01*
X22313946Y-80397537D01*
X22314191Y-80405327D01*
X22316367Y-80412819D01*
X22316368Y-80412821D01*
X22319779Y-80424562D01*
X22323725Y-80443615D01*
X22326236Y-80463492D01*
X22329106Y-80470742D01*
X22329108Y-80470748D01*
X22342314Y-80504104D01*
X22346097Y-80515151D01*
X22358282Y-80557090D01*
X22362253Y-80563805D01*
X22362254Y-80563807D01*
X22368481Y-80574337D01*
X22377036Y-80591799D01*
X22381542Y-80603180D01*
X22381543Y-80603183D01*
X22384414Y-80610432D01*
X22406340Y-80640612D01*
X22410081Y-80645760D01*
X22416493Y-80655522D01*
X22434756Y-80686402D01*
X22434759Y-80686407D01*
X22438730Y-80693120D01*
X22444245Y-80698635D01*
X22452890Y-80707280D01*
X22465526Y-80722074D01*
X22472719Y-80731975D01*
X22472723Y-80731979D01*
X22477306Y-80738287D01*
X22483315Y-80743258D01*
X22483316Y-80743259D01*
X22510958Y-80766126D01*
X22519599Y-80773989D01*
X29383908Y-87638299D01*
X29417393Y-87699620D01*
X29412410Y-87769311D01*
X29370541Y-87825244D01*
X29354654Y-87837137D01*
X29354646Y-87837144D01*
X29347554Y-87842454D01*
X29342244Y-87849546D01*
X29342241Y-87849550D01*
X29266619Y-87950568D01*
X29266616Y-87950572D01*
X29261304Y-87957669D01*
X29258204Y-87965978D01*
X29258204Y-87965980D01*
X29213720Y-88085247D01*
X29213719Y-88085250D01*
X29211009Y-88092517D01*
X29210179Y-88100227D01*
X29210179Y-88100232D01*
X29204955Y-88148819D01*
X29204954Y-88148831D01*
X29204600Y-88152127D01*
X29204600Y-88155439D01*
X29204422Y-88158768D01*
X29203176Y-88158701D01*
X29190589Y-88210143D01*
X29151723Y-88254461D01*
X29096785Y-88275825D01*
X29085155Y-88277356D01*
X29074524Y-88284128D01*
X28370195Y-88988457D01*
X28363531Y-89000000D01*
X28370195Y-89011542D01*
X29074521Y-89715867D01*
X29085157Y-89722643D01*
X29096784Y-89724174D01*
X29151678Y-89745507D01*
X29190539Y-89789759D01*
X29203211Y-89841302D01*
X29204423Y-89841238D01*
X29204600Y-89844564D01*
X29204601Y-89847872D01*
X29204953Y-89851150D01*
X29204954Y-89851161D01*
X29210179Y-89899768D01*
X29210180Y-89899773D01*
X29211009Y-89907483D01*
X29213719Y-89914749D01*
X29213720Y-89914753D01*
X29247317Y-90004831D01*
X29261304Y-90042331D01*
X29266618Y-90049430D01*
X29266619Y-90049431D01*
X29281583Y-90069421D01*
X29347554Y-90157546D01*
X29354650Y-90162858D01*
X29354651Y-90162859D01*
X29370536Y-90174750D01*
X29405058Y-90214590D01*
X29419911Y-90265171D01*
X29412409Y-90317351D01*
X29383908Y-90361699D01*
X24432996Y-95312611D01*
X24424811Y-95320059D01*
X24418423Y-95324114D01*
X24413088Y-95329794D01*
X24413083Y-95329799D01*
X24372396Y-95373125D01*
X24369692Y-95375916D01*
X24352928Y-95392680D01*
X24352921Y-95392687D01*
X24350180Y-95395429D01*
X24347800Y-95398496D01*
X24347789Y-95398509D01*
X24347700Y-95398625D01*
X24340142Y-95407470D01*
X24315580Y-95433627D01*
X24315573Y-95433636D01*
X24310238Y-95439318D01*
X24306482Y-95446149D01*
X24306479Y-95446154D01*
X24300585Y-95456875D01*
X24289909Y-95473127D01*
X24282409Y-95482796D01*
X24282401Y-95482807D01*
X24277627Y-95488964D01*
X24274534Y-95496108D01*
X24274529Y-95496119D01*
X24260274Y-95529060D01*
X24255138Y-95539543D01*
X24234103Y-95577808D01*
X24232164Y-95585356D01*
X24232163Y-95585361D01*
X24229122Y-95597207D01*
X24222821Y-95615611D01*
X24217958Y-95626848D01*
X24217956Y-95626852D01*
X24214862Y-95634004D01*
X24213642Y-95641703D01*
X24213642Y-95641705D01*
X24208029Y-95677141D01*
X24205661Y-95688576D01*
X24196738Y-95723328D01*
X24196736Y-95723336D01*
X24194800Y-95730881D01*
X24194800Y-95738677D01*
X24194800Y-95750917D01*
X24193274Y-95770302D01*
X24190140Y-95790096D01*
X24190874Y-95797861D01*
X24190874Y-95797864D01*
X24194250Y-95833576D01*
X24194800Y-95845245D01*
X24194800Y-99147213D01*
X24186564Y-99191651D01*
X24162950Y-99230185D01*
X24092113Y-99308856D01*
X24092108Y-99308862D01*
X24087767Y-99313684D01*
X24084522Y-99319304D01*
X24084518Y-99319310D01*
X23996369Y-99471989D01*
X23996366Y-99471994D01*
X23993121Y-99477616D01*
X23991115Y-99483788D01*
X23991113Y-99483794D01*
X23936633Y-99651464D01*
X23936631Y-99651473D01*
X23934626Y-99657644D01*
X23933948Y-99664094D01*
X23933946Y-99664104D01*
X23916262Y-99832364D01*
X23914840Y-99845900D01*
X23915519Y-99852360D01*
X23933946Y-100027695D01*
X23933947Y-100027703D01*
X23934626Y-100034156D01*
X23936631Y-100040328D01*
X23936633Y-100040335D01*
X23991113Y-100208005D01*
X23993121Y-100214184D01*
X24087767Y-100378116D01*
X24214429Y-100518788D01*
X24367570Y-100630051D01*
X24540497Y-100707044D01*
X24725654Y-100746400D01*
X24732157Y-100746400D01*
X24814146Y-100746400D01*
X24870441Y-100759915D01*
X24914464Y-100797515D01*
X24936619Y-100851002D01*
X24932077Y-100908718D01*
X24901827Y-100958081D01*
X23854728Y-102005181D01*
X23814500Y-102032061D01*
X23767047Y-102041500D01*
X23707854Y-102041500D01*
X23701495Y-102042851D01*
X23701491Y-102042852D01*
X23529059Y-102079503D01*
X23529052Y-102079505D01*
X23522697Y-102080856D01*
X23516762Y-102083498D01*
X23516754Y-102083501D01*
X23355707Y-102155205D01*
X23355702Y-102155207D01*
X23349770Y-102157849D01*
X23344516Y-102161665D01*
X23344511Y-102161669D01*
X23201888Y-102265290D01*
X23201881Y-102265295D01*
X23196629Y-102269112D01*
X23192284Y-102273937D01*
X23192279Y-102273942D01*
X23074313Y-102404956D01*
X23074308Y-102404962D01*
X23069967Y-102409784D01*
X23066722Y-102415404D01*
X23066718Y-102415410D01*
X22978569Y-102568089D01*
X22978566Y-102568094D01*
X22975321Y-102573716D01*
X22973315Y-102579888D01*
X22973313Y-102579894D01*
X22918833Y-102747564D01*
X22918831Y-102747573D01*
X22916826Y-102753744D01*
X22916148Y-102760194D01*
X22916146Y-102760204D01*
X22899025Y-102923114D01*
X22897040Y-102942000D01*
X22897719Y-102948460D01*
X22916146Y-103123795D01*
X22916147Y-103123803D01*
X22916826Y-103130256D01*
X22918831Y-103136428D01*
X22918833Y-103136435D01*
X22959171Y-103260580D01*
X22975321Y-103310284D01*
X23069967Y-103474216D01*
X23074311Y-103479041D01*
X23074313Y-103479043D01*
X23178168Y-103594385D01*
X23196629Y-103614888D01*
X23349770Y-103726151D01*
X23522697Y-103803144D01*
X23707854Y-103842500D01*
X23890643Y-103842500D01*
X23897146Y-103842500D01*
X23995520Y-103821590D01*
X24050247Y-103822306D01*
X24099336Y-103846514D01*
X24133221Y-103889497D01*
X24145300Y-103942880D01*
X24145300Y-103961217D01*
X24143774Y-103980602D01*
X24140640Y-104000396D01*
X24141374Y-104008161D01*
X24141374Y-104008164D01*
X24144750Y-104043876D01*
X24145300Y-104055545D01*
X24145300Y-104444025D01*
X24144778Y-104455080D01*
X24143127Y-104462467D01*
X24143371Y-104470253D01*
X24143371Y-104470261D01*
X24145239Y-104529673D01*
X24145300Y-104533568D01*
X24145300Y-104561150D01*
X24145788Y-104565019D01*
X24145789Y-104565025D01*
X24145804Y-104565143D01*
X24146718Y-104576766D01*
X24147845Y-104612630D01*
X24147846Y-104612637D01*
X24148091Y-104620427D01*
X24150267Y-104627919D01*
X24150268Y-104627921D01*
X24153679Y-104639662D01*
X24157625Y-104658715D01*
X24160136Y-104678592D01*
X24163006Y-104685842D01*
X24163008Y-104685848D01*
X24176214Y-104719204D01*
X24179997Y-104730251D01*
X24192182Y-104772190D01*
X24196153Y-104778905D01*
X24196154Y-104778907D01*
X24202381Y-104789437D01*
X24210936Y-104806899D01*
X24215442Y-104818280D01*
X24215443Y-104818283D01*
X24218314Y-104825532D01*
X24240240Y-104855712D01*
X24243981Y-104860860D01*
X24250393Y-104870622D01*
X24268656Y-104901502D01*
X24268659Y-104901507D01*
X24272630Y-104908220D01*
X24278145Y-104913735D01*
X24286790Y-104922380D01*
X24299426Y-104937174D01*
X24306619Y-104947075D01*
X24306623Y-104947079D01*
X24311206Y-104953387D01*
X24317215Y-104958358D01*
X24317216Y-104958359D01*
X24344858Y-104981226D01*
X24353499Y-104989089D01*
X26623707Y-107259297D01*
X26631156Y-107267483D01*
X26635214Y-107273877D01*
X26640899Y-107279215D01*
X26640901Y-107279218D01*
X26684239Y-107319915D01*
X26687036Y-107322626D01*
X26706530Y-107342120D01*
X26709615Y-107344513D01*
X26709701Y-107344580D01*
X26718573Y-107352158D01*
X26750418Y-107382062D01*
X26757248Y-107385817D01*
X26757251Y-107385819D01*
X26767971Y-107391712D01*
X26784222Y-107402386D01*
X26800064Y-107414674D01*
X26807221Y-107417771D01*
X26807223Y-107417772D01*
X26840155Y-107432022D01*
X26850650Y-107437164D01*
X26888908Y-107458197D01*
X26908312Y-107463179D01*
X26926714Y-107469480D01*
X26937941Y-107474338D01*
X26945105Y-107477438D01*
X26982697Y-107483391D01*
X26988239Y-107484269D01*
X26999682Y-107486639D01*
X27034425Y-107495560D01*
X27034426Y-107495560D01*
X27041981Y-107497500D01*
X27062017Y-107497500D01*
X27081402Y-107499025D01*
X27101196Y-107502160D01*
X27139276Y-107498560D01*
X27144676Y-107498050D01*
X27156345Y-107497500D01*
X27938352Y-107497500D01*
X27988785Y-107508219D01*
X28026881Y-107535895D01*
X28027050Y-107535709D01*
X28028828Y-107537310D01*
X28030498Y-107538523D01*
X28036229Y-107544888D01*
X28189370Y-107656151D01*
X28362297Y-107733144D01*
X28547454Y-107772500D01*
X28730243Y-107772500D01*
X28736746Y-107772500D01*
X28921903Y-107733144D01*
X29094830Y-107656151D01*
X29247971Y-107544888D01*
X29374633Y-107404216D01*
X29469279Y-107240284D01*
X29527774Y-107060256D01*
X29547560Y-106872000D01*
X29527774Y-106683744D01*
X29469279Y-106503716D01*
X29374633Y-106339784D01*
X29290639Y-106246500D01*
X29252320Y-106203942D01*
X29252319Y-106203941D01*
X29247971Y-106199112D01*
X29242713Y-106195292D01*
X29242711Y-106195290D01*
X29100088Y-106091669D01*
X29100087Y-106091668D01*
X29094830Y-106087849D01*
X29088892Y-106085205D01*
X28927845Y-106013501D01*
X28927840Y-106013499D01*
X28921903Y-106010856D01*
X28915544Y-106009504D01*
X28915540Y-106009503D01*
X28743108Y-105972852D01*
X28743105Y-105972851D01*
X28736746Y-105971500D01*
X28547454Y-105971500D01*
X28541095Y-105972851D01*
X28541091Y-105972852D01*
X28368659Y-106009503D01*
X28368652Y-106009505D01*
X28362297Y-106010856D01*
X28356362Y-106013498D01*
X28356354Y-106013501D01*
X28195307Y-106085205D01*
X28195302Y-106085207D01*
X28189370Y-106087849D01*
X28184116Y-106091665D01*
X28184111Y-106091669D01*
X28041488Y-106195290D01*
X28041481Y-106195295D01*
X28036229Y-106199112D01*
X28031880Y-106203941D01*
X28031881Y-106203941D01*
X28030499Y-106205476D01*
X28028828Y-106206689D01*
X28027050Y-106208291D01*
X28026881Y-106208104D01*
X27988785Y-106235781D01*
X27938352Y-106246500D01*
X27431452Y-106246500D01*
X27383999Y-106237061D01*
X27343771Y-106210181D01*
X26241772Y-105108181D01*
X26211522Y-105058818D01*
X26206980Y-105001102D01*
X26229135Y-104947615D01*
X26273158Y-104910015D01*
X26329453Y-104896500D01*
X29891848Y-104896500D01*
X29939301Y-104905939D01*
X29979529Y-104932819D01*
X37051338Y-112004629D01*
X37075578Y-112038927D01*
X37086978Y-112079348D01*
X37087461Y-112083939D01*
X37104626Y-112247256D01*
X37106631Y-112253428D01*
X37106633Y-112253435D01*
X37161113Y-112421105D01*
X37163121Y-112427284D01*
X37257767Y-112591216D01*
X37384429Y-112731888D01*
X37537570Y-112843151D01*
X37710497Y-112920144D01*
X37895654Y-112959500D01*
X38078443Y-112959500D01*
X38084946Y-112959500D01*
X38270103Y-112920144D01*
X38443030Y-112843151D01*
X38596171Y-112731888D01*
X38722833Y-112591216D01*
X38817479Y-112427284D01*
X38875974Y-112247256D01*
X38895760Y-112059000D01*
X38875974Y-111870744D01*
X38817479Y-111690716D01*
X38722833Y-111526784D01*
X38596171Y-111386112D01*
X38590913Y-111382292D01*
X38590911Y-111382290D01*
X38448288Y-111278669D01*
X38448287Y-111278668D01*
X38443030Y-111274849D01*
X38437092Y-111272205D01*
X38276045Y-111200501D01*
X38276040Y-111200499D01*
X38270103Y-111197856D01*
X38263744Y-111196504D01*
X38263740Y-111196503D01*
X38091308Y-111159852D01*
X38091305Y-111159851D01*
X38084946Y-111158500D01*
X38078443Y-111158500D01*
X38025753Y-111158500D01*
X37978300Y-111149061D01*
X37938072Y-111122181D01*
X30699586Y-103883695D01*
X30692142Y-103875514D01*
X30688086Y-103869123D01*
X30639075Y-103823098D01*
X30636278Y-103820387D01*
X30619527Y-103803636D01*
X30616771Y-103800880D01*
X30613590Y-103798412D01*
X30604714Y-103790830D01*
X30578569Y-103766278D01*
X30578567Y-103766276D01*
X30572882Y-103760938D01*
X30566049Y-103757182D01*
X30566043Y-103757177D01*
X30555325Y-103751285D01*
X30539066Y-103740606D01*
X30529395Y-103733104D01*
X30529392Y-103733102D01*
X30523236Y-103728327D01*
X30516079Y-103725229D01*
X30516076Y-103725228D01*
X30483149Y-103710978D01*
X30472663Y-103705841D01*
X30441232Y-103688562D01*
X30441223Y-103688558D01*
X30434392Y-103684803D01*
X30426835Y-103682862D01*
X30426831Y-103682861D01*
X30414988Y-103679820D01*
X30396584Y-103673519D01*
X30385357Y-103668660D01*
X30385350Y-103668658D01*
X30378196Y-103665562D01*
X30370492Y-103664341D01*
X30370490Y-103664341D01*
X30335059Y-103658729D01*
X30323624Y-103656361D01*
X30288871Y-103647438D01*
X30288863Y-103647437D01*
X30281319Y-103645500D01*
X30273523Y-103645500D01*
X30261283Y-103645500D01*
X30241897Y-103643974D01*
X30222104Y-103640840D01*
X30214338Y-103641574D01*
X30214335Y-103641574D01*
X30178624Y-103644950D01*
X30166955Y-103645500D01*
X26329451Y-103645500D01*
X26273156Y-103631985D01*
X26229133Y-103594385D01*
X26206978Y-103540898D01*
X26211520Y-103483182D01*
X26241770Y-103433819D01*
X30528376Y-99147213D01*
X35852711Y-93822878D01*
X35860881Y-93815444D01*
X35867277Y-93811386D01*
X35913318Y-93762356D01*
X35915935Y-93759654D01*
X35935520Y-93740071D01*
X35937985Y-93736892D01*
X35945567Y-93728016D01*
X35975462Y-93696182D01*
X35985113Y-93678623D01*
X35995790Y-93662370D01*
X36008073Y-93646536D01*
X36025418Y-93606452D01*
X36030551Y-93595971D01*
X36051597Y-93557692D01*
X36056579Y-93538284D01*
X36062882Y-93519876D01*
X36070837Y-93501496D01*
X36077671Y-93458344D01*
X36080033Y-93446938D01*
X36090900Y-93404619D01*
X36090900Y-93384583D01*
X36092427Y-93365185D01*
X36094339Y-93353113D01*
X36094338Y-93353113D01*
X36095560Y-93345404D01*
X36091450Y-93301924D01*
X36090900Y-93290255D01*
X36090900Y-86914095D01*
X36106186Y-86854452D01*
X36148275Y-86809515D01*
X36206790Y-86790361D01*
X36267304Y-86801713D01*
X36324113Y-86828203D01*
X36336337Y-86833903D01*
X36564592Y-86895063D01*
X36800000Y-86915659D01*
X37035408Y-86895063D01*
X37263663Y-86833903D01*
X37477830Y-86734035D01*
X37671401Y-86598495D01*
X37838495Y-86431401D01*
X37974035Y-86237830D01*
X38073903Y-86023663D01*
X38135063Y-85795408D01*
X38155659Y-85560000D01*
X38135063Y-85324592D01*
X38073903Y-85096337D01*
X37974035Y-84882171D01*
X37838495Y-84688599D01*
X37671401Y-84521505D01*
X37666968Y-84518401D01*
X37666961Y-84518395D01*
X37485842Y-84391575D01*
X37446976Y-84347257D01*
X37432965Y-84290000D01*
X37446976Y-84232743D01*
X37485842Y-84188425D01*
X37666961Y-84061604D01*
X37666961Y-84061603D01*
X37671401Y-84058495D01*
X37838495Y-83891401D01*
X37974035Y-83697830D01*
X38073903Y-83483663D01*
X38135063Y-83255408D01*
X38155659Y-83020000D01*
X38135063Y-82784592D01*
X38073903Y-82556337D01*
X37974035Y-82342171D01*
X37838495Y-82148599D01*
X37671401Y-81981505D01*
X37666968Y-81978401D01*
X37666961Y-81978395D01*
X37485842Y-81851575D01*
X37446976Y-81807257D01*
X37432965Y-81750000D01*
X37446976Y-81692743D01*
X37485842Y-81648425D01*
X37666961Y-81521604D01*
X37666961Y-81521603D01*
X37671401Y-81518495D01*
X37838495Y-81351401D01*
X37974035Y-81157830D01*
X38073903Y-80943663D01*
X38135063Y-80715408D01*
X38155659Y-80480000D01*
X38135063Y-80244592D01*
X38073903Y-80016337D01*
X37974035Y-79802171D01*
X37838495Y-79608599D01*
X37671401Y-79441505D01*
X37666970Y-79438402D01*
X37666966Y-79438399D01*
X37485405Y-79311269D01*
X37446540Y-79266951D01*
X37432529Y-79209694D01*
X37446540Y-79152437D01*
X37485406Y-79108119D01*
X37666638Y-78981219D01*
X37674909Y-78974278D01*
X37834278Y-78814909D01*
X37841215Y-78806643D01*
X37970498Y-78622008D01*
X37975886Y-78612676D01*
X38071143Y-78408397D01*
X38074831Y-78398263D01*
X38126943Y-78203780D01*
X38127311Y-78192551D01*
X38116369Y-78190000D01*
X36674000Y-78190000D01*
X36612000Y-78173387D01*
X36566613Y-78128000D01*
X36550000Y-78066000D01*
X36550000Y-77673674D01*
X37050000Y-77673674D01*
X37053450Y-77686549D01*
X37066326Y-77690000D01*
X38116369Y-77690000D01*
X38127311Y-77687448D01*
X38126943Y-77676219D01*
X38074831Y-77481736D01*
X38071143Y-77471602D01*
X37975889Y-77267332D01*
X37970491Y-77257982D01*
X37841215Y-77073357D01*
X37834280Y-77065092D01*
X37674909Y-76905721D01*
X37666643Y-76898784D01*
X37484969Y-76771575D01*
X37446104Y-76727257D01*
X37432093Y-76670000D01*
X37446104Y-76612743D01*
X37484969Y-76568425D01*
X37666643Y-76441215D01*
X37674909Y-76434278D01*
X37834278Y-76274909D01*
X37841215Y-76266643D01*
X37970498Y-76082008D01*
X37975886Y-76072676D01*
X38071143Y-75868397D01*
X38074831Y-75858263D01*
X38126943Y-75663780D01*
X38127311Y-75652551D01*
X38116369Y-75650000D01*
X37066326Y-75650000D01*
X37053450Y-75653450D01*
X37050000Y-75666326D01*
X37050000Y-77673674D01*
X36550000Y-77673674D01*
X36550000Y-75133674D01*
X37050000Y-75133674D01*
X37053450Y-75146549D01*
X37066326Y-75150000D01*
X38116369Y-75150000D01*
X38127311Y-75147448D01*
X38126943Y-75136219D01*
X38074831Y-74941736D01*
X38071143Y-74931602D01*
X37975889Y-74727332D01*
X37970491Y-74717982D01*
X37841215Y-74533357D01*
X37834280Y-74525092D01*
X37674909Y-74365721D01*
X37666643Y-74358784D01*
X37484969Y-74231575D01*
X37446104Y-74187257D01*
X37432093Y-74130000D01*
X37446104Y-74072743D01*
X37484969Y-74028425D01*
X37666643Y-73901215D01*
X37674909Y-73894278D01*
X37834278Y-73734909D01*
X37841215Y-73726643D01*
X37970498Y-73542008D01*
X37975886Y-73532676D01*
X38071143Y-73328397D01*
X38074831Y-73318263D01*
X38126943Y-73123780D01*
X38127311Y-73112551D01*
X38116369Y-73110000D01*
X37066326Y-73110000D01*
X37053450Y-73113450D01*
X37050000Y-73126326D01*
X37050000Y-75133674D01*
X36550000Y-75133674D01*
X36550000Y-72734000D01*
X36566613Y-72672000D01*
X36612000Y-72626613D01*
X36674000Y-72610000D01*
X38116369Y-72610000D01*
X38127311Y-72607448D01*
X38126943Y-72596219D01*
X38074831Y-72401736D01*
X38071143Y-72391602D01*
X37975889Y-72187332D01*
X37970491Y-72177982D01*
X37841215Y-71993357D01*
X37834280Y-71985092D01*
X37716053Y-71866865D01*
X37684757Y-71814119D01*
X37682568Y-71752825D01*
X37710022Y-71697981D01*
X37760398Y-71663003D01*
X37892331Y-71613796D01*
X38007546Y-71527546D01*
X38093796Y-71412331D01*
X38144091Y-71277483D01*
X38150500Y-71217873D01*
X38150499Y-71014060D01*
X38165832Y-70954334D01*
X38208041Y-70909376D01*
X38266685Y-70890309D01*
X38327262Y-70901849D01*
X38365805Y-70933712D01*
X38367467Y-70932216D01*
X38494129Y-71072888D01*
X38647270Y-71184151D01*
X38820197Y-71261144D01*
X39005354Y-71300500D01*
X39188143Y-71300500D01*
X39194646Y-71300500D01*
X39379803Y-71261144D01*
X39552730Y-71184151D01*
X39705871Y-71072888D01*
X39832533Y-70932216D01*
X39927179Y-70768284D01*
X39985674Y-70588256D01*
X40005460Y-70400000D01*
X39985674Y-70211744D01*
X39927179Y-70031716D01*
X39832533Y-69867784D01*
X39757349Y-69784284D01*
X39733736Y-69745751D01*
X39725500Y-69701313D01*
X39725500Y-53368272D01*
X39726020Y-53357219D01*
X39727672Y-53349833D01*
X39725561Y-53282645D01*
X39725500Y-53278751D01*
X39725500Y-53255045D01*
X39725500Y-53251150D01*
X39724998Y-53247181D01*
X39724080Y-53235524D01*
X39724069Y-53235181D01*
X39722709Y-53191873D01*
X39717120Y-53172640D01*
X39713174Y-53153583D01*
X39711641Y-53141444D01*
X39710664Y-53133708D01*
X39694582Y-53093091D01*
X39690803Y-53082051D01*
X39680795Y-53047602D01*
X39680793Y-53047599D01*
X39678618Y-53040110D01*
X39668417Y-53022860D01*
X39659863Y-53005401D01*
X39652486Y-52986768D01*
X39626808Y-52951425D01*
X39620401Y-52941671D01*
X39602142Y-52910796D01*
X39602141Y-52910794D01*
X39598170Y-52904080D01*
X39584004Y-52889914D01*
X39571370Y-52875122D01*
X39559594Y-52858913D01*
X39553583Y-52853940D01*
X39553581Y-52853938D01*
X39525941Y-52831073D01*
X39517300Y-52823210D01*
X38048461Y-51354370D01*
X38024221Y-51320072D01*
X38012821Y-51279650D01*
X37995853Y-51118204D01*
X37995852Y-51118203D01*
X37995174Y-51111744D01*
X37936679Y-50931716D01*
X37842033Y-50767784D01*
X37715371Y-50627112D01*
X37710113Y-50623292D01*
X37710111Y-50623290D01*
X37567488Y-50519669D01*
X37567487Y-50519668D01*
X37562230Y-50515849D01*
X37556292Y-50513205D01*
X37395245Y-50441501D01*
X37395240Y-50441499D01*
X37389303Y-50438856D01*
X37382944Y-50437504D01*
X37382940Y-50437503D01*
X37210508Y-50400852D01*
X37210505Y-50400851D01*
X37204146Y-50399500D01*
X37014854Y-50399500D01*
X37008495Y-50400851D01*
X37008491Y-50400852D01*
X36836059Y-50437503D01*
X36836052Y-50437505D01*
X36829697Y-50438856D01*
X36823762Y-50441498D01*
X36823754Y-50441501D01*
X36662707Y-50513205D01*
X36662702Y-50513207D01*
X36656770Y-50515849D01*
X36651516Y-50519665D01*
X36651511Y-50519669D01*
X36508888Y-50623290D01*
X36508881Y-50623295D01*
X36503629Y-50627112D01*
X36499284Y-50631937D01*
X36499279Y-50631942D01*
X36381313Y-50762956D01*
X36381308Y-50762962D01*
X36376967Y-50767784D01*
X36373722Y-50773404D01*
X36373718Y-50773410D01*
X36285569Y-50926089D01*
X36285566Y-50926094D01*
X36282321Y-50931716D01*
X36280315Y-50937888D01*
X36280313Y-50937894D01*
X36225833Y-51105564D01*
X36225831Y-51105573D01*
X36223826Y-51111744D01*
X36223148Y-51118194D01*
X36223146Y-51118204D01*
X36206179Y-51279650D01*
X36204040Y-51300000D01*
X36204719Y-51306460D01*
X36223146Y-51481795D01*
X36223147Y-51481803D01*
X36223826Y-51488256D01*
X36225831Y-51494428D01*
X36225833Y-51494435D01*
X36280313Y-51662105D01*
X36282321Y-51668284D01*
X36376967Y-51832216D01*
X36503629Y-51972888D01*
X36656770Y-52084151D01*
X36829697Y-52161144D01*
X37014854Y-52200500D01*
X37074048Y-52200500D01*
X37121501Y-52209939D01*
X37161729Y-52236819D01*
X38438181Y-53513272D01*
X38465061Y-53553500D01*
X38474500Y-53600953D01*
X38474500Y-69701313D01*
X38466264Y-69745751D01*
X38442650Y-69784284D01*
X38367467Y-69867784D01*
X38365805Y-69866287D01*
X38327262Y-69898151D01*
X38266685Y-69909691D01*
X38208041Y-69890624D01*
X38165833Y-69845666D01*
X38150499Y-69785937D01*
X38150499Y-69425439D01*
X38150499Y-69422128D01*
X38144091Y-69362517D01*
X38093796Y-69227669D01*
X38007546Y-69112454D01*
X37892331Y-69026204D01*
X37757483Y-68975909D01*
X37749770Y-68975079D01*
X37749767Y-68975079D01*
X37701180Y-68969855D01*
X37701169Y-68969854D01*
X37697873Y-68969500D01*
X37694550Y-68969500D01*
X35905439Y-68969500D01*
X35905420Y-68969500D01*
X35902128Y-68969501D01*
X35898850Y-68969853D01*
X35898838Y-68969854D01*
X35850231Y-68975079D01*
X35850225Y-68975080D01*
X35842517Y-68975909D01*
X35835252Y-68978618D01*
X35835246Y-68978620D01*
X35715980Y-69023104D01*
X35715978Y-69023104D01*
X35707669Y-69026204D01*
X35700572Y-69031516D01*
X35700568Y-69031519D01*
X35599550Y-69107141D01*
X35599546Y-69107144D01*
X35592454Y-69112454D01*
X35587144Y-69119546D01*
X35587141Y-69119550D01*
X35511519Y-69220568D01*
X35511516Y-69220572D01*
X35506204Y-69227669D01*
X35503104Y-69235978D01*
X35503104Y-69235980D01*
X35458620Y-69355247D01*
X35458619Y-69355250D01*
X35455909Y-69362517D01*
X35455079Y-69370227D01*
X35455079Y-69370232D01*
X35449855Y-69418819D01*
X35449854Y-69418831D01*
X35449500Y-69422127D01*
X35449500Y-69425448D01*
X35449500Y-69425449D01*
X35449500Y-71214560D01*
X35449500Y-71214578D01*
X35449501Y-71217872D01*
X35449853Y-71221150D01*
X35449854Y-71221161D01*
X35455079Y-71269768D01*
X35455080Y-71269773D01*
X35455909Y-71277483D01*
X35458619Y-71284749D01*
X35458620Y-71284753D01*
X35503104Y-71404019D01*
X35506204Y-71412331D01*
X35507866Y-71414551D01*
X35521567Y-71461220D01*
X35514064Y-71513397D01*
X35485564Y-71557743D01*
X34318896Y-72724411D01*
X34310711Y-72731859D01*
X34304323Y-72735914D01*
X34298988Y-72741594D01*
X34298983Y-72741599D01*
X34258296Y-72784925D01*
X34255592Y-72787716D01*
X34238828Y-72804480D01*
X34238821Y-72804487D01*
X34236080Y-72807229D01*
X34233700Y-72810296D01*
X34233689Y-72810309D01*
X34233600Y-72810425D01*
X34226042Y-72819270D01*
X34201480Y-72845427D01*
X34201473Y-72845436D01*
X34196138Y-72851118D01*
X34192382Y-72857949D01*
X34192379Y-72857954D01*
X34186485Y-72868675D01*
X34175809Y-72884927D01*
X34168309Y-72894596D01*
X34168301Y-72894607D01*
X34163527Y-72900764D01*
X34160434Y-72907908D01*
X34160429Y-72907919D01*
X34146174Y-72940860D01*
X34141038Y-72951343D01*
X34120003Y-72989608D01*
X34118064Y-72997156D01*
X34118063Y-72997161D01*
X34115022Y-73009007D01*
X34108721Y-73027411D01*
X34103858Y-73038648D01*
X34103856Y-73038652D01*
X34100762Y-73045804D01*
X34099542Y-73053503D01*
X34099542Y-73053505D01*
X34093929Y-73088941D01*
X34091561Y-73100376D01*
X34082638Y-73135128D01*
X34082636Y-73135136D01*
X34080700Y-73142681D01*
X34080700Y-73150477D01*
X34080700Y-73162717D01*
X34079174Y-73182102D01*
X34076040Y-73201896D01*
X34076774Y-73209661D01*
X34076774Y-73209664D01*
X34080150Y-73245376D01*
X34080700Y-73257045D01*
X34080700Y-91727847D01*
X34071261Y-91775300D01*
X34044381Y-91815528D01*
X25936762Y-99923146D01*
X25887399Y-99953396D01*
X25829683Y-99957938D01*
X25776196Y-99935783D01*
X25738596Y-99891760D01*
X25727541Y-99845712D01*
X25725760Y-99845900D01*
X25706653Y-99664104D01*
X25706652Y-99664103D01*
X25705974Y-99657644D01*
X25647479Y-99477616D01*
X25552833Y-99313684D01*
X25477649Y-99230184D01*
X25454036Y-99191651D01*
X25445800Y-99147213D01*
X25445800Y-96120352D01*
X25455239Y-96072899D01*
X25482119Y-96032671D01*
X28177155Y-93337635D01*
X30892411Y-90622378D01*
X30900581Y-90614944D01*
X30906977Y-90610886D01*
X30953018Y-90561856D01*
X30955635Y-90559154D01*
X30975220Y-90539571D01*
X30977685Y-90536392D01*
X30985267Y-90527516D01*
X31015162Y-90495682D01*
X31024813Y-90478123D01*
X31035490Y-90461870D01*
X31047773Y-90446036D01*
X31065118Y-90405952D01*
X31070260Y-90395456D01*
X31087136Y-90364760D01*
X31132677Y-90317766D01*
X31195797Y-90300499D01*
X31349661Y-90300499D01*
X31352972Y-90300499D01*
X31412583Y-90294091D01*
X31547431Y-90243796D01*
X31662646Y-90157546D01*
X31748896Y-90042331D01*
X31799191Y-89907483D01*
X31805600Y-89847873D01*
X31805599Y-88152128D01*
X31799191Y-88092517D01*
X31748896Y-87957669D01*
X31662646Y-87842454D01*
X31655543Y-87837137D01*
X31554531Y-87761519D01*
X31554530Y-87761518D01*
X31547431Y-87756204D01*
X31477065Y-87729959D01*
X31419852Y-87708620D01*
X31419850Y-87708619D01*
X31412583Y-87705909D01*
X31404870Y-87705079D01*
X31404867Y-87705079D01*
X31356280Y-87699855D01*
X31356269Y-87699854D01*
X31352973Y-87699500D01*
X31349651Y-87699500D01*
X31196557Y-87699500D01*
X31149707Y-87690309D01*
X31109802Y-87664098D01*
X31084542Y-87627349D01*
X31083718Y-87624510D01*
X31073517Y-87607260D01*
X31064963Y-87589801D01*
X31057586Y-87571168D01*
X31031908Y-87535825D01*
X31025501Y-87526071D01*
X31007242Y-87495196D01*
X31007241Y-87495194D01*
X31003270Y-87488480D01*
X30989104Y-87474314D01*
X30976470Y-87459522D01*
X30964694Y-87443313D01*
X30958683Y-87438340D01*
X30958681Y-87438338D01*
X30931041Y-87415473D01*
X30922400Y-87407610D01*
X23598719Y-80083928D01*
X23571839Y-80043700D01*
X23562400Y-79996247D01*
X23562400Y-74505600D01*
X23579013Y-74443600D01*
X23624400Y-74398213D01*
X23686400Y-74381600D01*
X23752443Y-74381600D01*
X23758946Y-74381600D01*
X23944103Y-74342244D01*
X24117030Y-74265251D01*
X24270171Y-74153988D01*
X24396833Y-74013316D01*
X24491479Y-73849384D01*
X24549974Y-73669356D01*
X24567621Y-73501444D01*
X24579021Y-73461025D01*
X24603258Y-73426730D01*
X28907424Y-69122564D01*
X28967735Y-69089305D01*
X29036492Y-69093358D01*
X29092479Y-69133476D01*
X29113836Y-69186000D01*
X29116495Y-69185435D01*
X29117847Y-69191797D01*
X29118526Y-69198256D01*
X29120531Y-69204428D01*
X29120533Y-69204435D01*
X29175013Y-69372105D01*
X29177021Y-69378284D01*
X29180268Y-69383908D01*
X29180269Y-69383910D01*
X29204251Y-69425449D01*
X29271667Y-69542216D01*
X29398329Y-69682888D01*
X29551470Y-69794151D01*
X29724397Y-69871144D01*
X29909554Y-69910500D01*
X30092343Y-69910500D01*
X30098846Y-69910500D01*
X30268119Y-69874520D01*
X30322847Y-69875236D01*
X30371936Y-69899444D01*
X30405821Y-69942427D01*
X30417900Y-69995810D01*
X30417900Y-73332113D01*
X30409664Y-73376551D01*
X30386050Y-73415085D01*
X30315213Y-73493756D01*
X30315208Y-73493762D01*
X30310867Y-73498584D01*
X30307622Y-73504204D01*
X30307618Y-73504210D01*
X30219469Y-73656889D01*
X30219466Y-73656894D01*
X30216221Y-73662516D01*
X30214215Y-73668688D01*
X30214213Y-73668694D01*
X30159733Y-73836364D01*
X30159731Y-73836373D01*
X30157726Y-73842544D01*
X30157048Y-73848994D01*
X30157046Y-73849004D01*
X30140369Y-74007689D01*
X30137940Y-74030800D01*
X30138619Y-74037260D01*
X30157046Y-74212595D01*
X30157047Y-74212603D01*
X30157726Y-74219056D01*
X30159731Y-74225228D01*
X30159733Y-74225235D01*
X30210039Y-74380058D01*
X30216221Y-74399084D01*
X30219468Y-74404708D01*
X30219469Y-74404710D01*
X30288971Y-74525092D01*
X30310867Y-74563016D01*
X30437529Y-74703688D01*
X30590670Y-74814951D01*
X30763597Y-74891944D01*
X30948754Y-74931300D01*
X31131543Y-74931300D01*
X31138046Y-74931300D01*
X31323203Y-74891944D01*
X31496130Y-74814951D01*
X31649271Y-74703688D01*
X31775933Y-74563016D01*
X31870579Y-74399084D01*
X31929074Y-74219056D01*
X31948860Y-74030800D01*
X31929074Y-73842544D01*
X31870579Y-73662516D01*
X31775933Y-73498584D01*
X31739720Y-73458366D01*
X31700750Y-73415085D01*
X31677136Y-73376551D01*
X31668900Y-73332113D01*
X31668900Y-68422386D01*
X31677929Y-68375935D01*
X31703702Y-68336249D01*
X31742464Y-68309106D01*
X31776592Y-68293911D01*
X31831530Y-68269451D01*
X31984671Y-68158188D01*
X32111333Y-68017516D01*
X32205979Y-67853584D01*
X32264474Y-67673556D01*
X32284260Y-67485300D01*
X32264474Y-67297044D01*
X32205979Y-67117016D01*
X32111333Y-66953084D01*
X31984671Y-66812412D01*
X31979413Y-66808592D01*
X31979411Y-66808590D01*
X31836788Y-66704969D01*
X31836787Y-66704968D01*
X31831530Y-66701149D01*
X31825592Y-66698505D01*
X31664545Y-66626801D01*
X31664540Y-66626799D01*
X31658603Y-66624156D01*
X31652244Y-66622804D01*
X31652240Y-66622803D01*
X31479808Y-66586152D01*
X31479805Y-66586151D01*
X31473446Y-66584800D01*
X31284154Y-66584800D01*
X31277795Y-66586151D01*
X31277791Y-66586152D01*
X31105359Y-66622803D01*
X31105352Y-66622805D01*
X31098997Y-66624156D01*
X31093062Y-66626798D01*
X31093054Y-66626801D01*
X30932007Y-66698505D01*
X30932002Y-66698507D01*
X30926070Y-66701149D01*
X30920816Y-66704965D01*
X30920811Y-66704969D01*
X30778188Y-66808590D01*
X30778181Y-66808595D01*
X30772929Y-66812412D01*
X30768584Y-66817237D01*
X30768579Y-66817242D01*
X30741650Y-66847151D01*
X30692723Y-66880402D01*
X30633959Y-66887201D01*
X30578732Y-66866002D01*
X30539611Y-66821628D01*
X30525500Y-66764179D01*
X30525500Y-64127814D01*
X30542977Y-64064340D01*
X30590483Y-64018759D01*
X30596645Y-64015424D01*
X30668626Y-63976470D01*
X30851784Y-63833913D01*
X31008979Y-63663153D01*
X31046191Y-63606194D01*
X31090980Y-63564963D01*
X31149997Y-63550017D01*
X31209015Y-63564962D01*
X31253807Y-63606195D01*
X31288213Y-63658857D01*
X31288221Y-63658867D01*
X31291021Y-63663153D01*
X31448216Y-63833913D01*
X31631374Y-63976470D01*
X31835497Y-64086936D01*
X32055019Y-64162298D01*
X32283951Y-64200500D01*
X32510916Y-64200500D01*
X32516049Y-64200500D01*
X32744981Y-64162298D01*
X32964503Y-64086936D01*
X33168626Y-63976470D01*
X33351784Y-63833913D01*
X33508979Y-63663153D01*
X33635924Y-63468849D01*
X33729157Y-63256300D01*
X33786134Y-63031305D01*
X33805300Y-62800000D01*
X33786134Y-62568695D01*
X33729157Y-62343700D01*
X33635924Y-62131151D01*
X33508979Y-61936847D01*
X33351784Y-61766087D01*
X33168626Y-61623530D01*
X33114497Y-61594237D01*
X32969007Y-61515501D01*
X32969002Y-61515499D01*
X32964503Y-61513064D01*
X32959657Y-61511400D01*
X32959654Y-61511399D01*
X32749834Y-61439368D01*
X32749833Y-61439367D01*
X32744981Y-61437702D01*
X32739931Y-61436859D01*
X32739922Y-61436857D01*
X32521111Y-61400344D01*
X32521102Y-61400343D01*
X32516049Y-61399500D01*
X32283951Y-61399500D01*
X32278898Y-61400343D01*
X32278888Y-61400344D01*
X32060077Y-61436857D01*
X32060065Y-61436859D01*
X32055019Y-61437702D01*
X32050169Y-61439366D01*
X32050165Y-61439368D01*
X31840345Y-61511399D01*
X31840337Y-61511402D01*
X31835497Y-61513064D01*
X31831001Y-61515496D01*
X31830992Y-61515501D01*
X31635882Y-61621090D01*
X31635878Y-61621092D01*
X31631374Y-61623530D01*
X31627334Y-61626674D01*
X31627327Y-61626679D01*
X31452263Y-61762936D01*
X31452255Y-61762943D01*
X31448216Y-61766087D01*
X31444746Y-61769855D01*
X31444742Y-61769860D01*
X31294491Y-61933077D01*
X31294488Y-61933080D01*
X31291021Y-61936847D01*
X31288226Y-61941124D01*
X31288219Y-61941134D01*
X31253809Y-61993804D01*
X31209017Y-62035037D01*
X31150000Y-62049982D01*
X31090983Y-62035037D01*
X31046191Y-61993804D01*
X31011780Y-61941134D01*
X31011778Y-61941132D01*
X31008979Y-61936847D01*
X30851784Y-61766087D01*
X30668626Y-61623530D01*
X30614497Y-61594237D01*
X30469007Y-61515501D01*
X30469002Y-61515499D01*
X30464503Y-61513064D01*
X30459657Y-61511400D01*
X30459654Y-61511399D01*
X30249834Y-61439368D01*
X30249833Y-61439367D01*
X30244981Y-61437702D01*
X30239931Y-61436859D01*
X30239922Y-61436857D01*
X30021111Y-61400344D01*
X30021102Y-61400343D01*
X30016049Y-61399500D01*
X29783951Y-61399500D01*
X29778898Y-61400343D01*
X29778888Y-61400344D01*
X29560077Y-61436857D01*
X29560065Y-61436859D01*
X29555019Y-61437702D01*
X29550169Y-61439366D01*
X29550165Y-61439368D01*
X29340345Y-61511399D01*
X29340337Y-61511402D01*
X29335497Y-61513064D01*
X29331001Y-61515496D01*
X29330992Y-61515501D01*
X29135882Y-61621090D01*
X29135878Y-61621092D01*
X29131374Y-61623530D01*
X29127334Y-61626674D01*
X29127327Y-61626679D01*
X28954436Y-61761245D01*
X28902007Y-61785099D01*
X28844458Y-61782691D01*
X28794205Y-61754541D01*
X28762092Y-61706723D01*
X28746896Y-61665981D01*
X28743796Y-61657669D01*
X28657546Y-61542454D01*
X28621541Y-61515501D01*
X28577371Y-61482435D01*
X28535500Y-61426501D01*
X28530516Y-61356810D01*
X28563999Y-61295489D01*
X30287311Y-59572178D01*
X30295481Y-59564744D01*
X30301877Y-59560686D01*
X30347918Y-59511656D01*
X30350535Y-59508954D01*
X30370120Y-59489371D01*
X30372585Y-59486192D01*
X30380167Y-59477316D01*
X30410062Y-59445482D01*
X30419713Y-59427923D01*
X30430390Y-59411670D01*
X30442673Y-59395836D01*
X30460026Y-59355732D01*
X30465158Y-59345261D01*
X30482435Y-59313835D01*
X30482435Y-59313834D01*
X30486197Y-59306992D01*
X30491177Y-59287591D01*
X30497481Y-59269181D01*
X30505438Y-59250796D01*
X30512272Y-59207641D01*
X30514638Y-59196221D01*
X30523560Y-59161474D01*
X30525500Y-59153919D01*
X30525500Y-59133883D01*
X30527025Y-59114497D01*
X30530160Y-59094704D01*
X30526050Y-59051224D01*
X30525500Y-59039555D01*
X30525500Y-55628000D01*
X32839500Y-55628000D01*
X32839664Y-55630251D01*
X32839665Y-55630257D01*
X32844817Y-55700645D01*
X32854403Y-55831616D01*
X32855386Y-55836031D01*
X32855388Y-55836041D01*
X32912630Y-56093011D01*
X32912633Y-56093023D01*
X32913618Y-56097442D01*
X32915237Y-56101676D01*
X32915238Y-56101678D01*
X32964508Y-56230500D01*
X33010907Y-56351814D01*
X33013125Y-56355766D01*
X33141978Y-56585359D01*
X33141981Y-56585364D01*
X33144196Y-56589310D01*
X33310645Y-56804868D01*
X33313906Y-56808012D01*
X33503437Y-56990744D01*
X33503442Y-56990748D01*
X33506705Y-56993894D01*
X33728198Y-57152358D01*
X33970403Y-57276885D01*
X34228159Y-57364819D01*
X34495971Y-57414286D01*
X34768131Y-57424232D01*
X35038839Y-57394446D01*
X35302326Y-57325562D01*
X35552975Y-57219047D01*
X35785444Y-57077173D01*
X35994779Y-56902963D01*
X36176518Y-56700131D01*
X36326788Y-56472998D01*
X36442386Y-56226406D01*
X36520847Y-55965611D01*
X36560500Y-55696171D01*
X36560500Y-54972000D01*
X36545597Y-54768384D01*
X36516747Y-54638871D01*
X36487369Y-54506988D01*
X36487368Y-54506985D01*
X36486382Y-54502558D01*
X36389093Y-54248186D01*
X36255804Y-54010690D01*
X36089355Y-53795132D01*
X36086093Y-53791987D01*
X35896562Y-53609255D01*
X35896556Y-53609250D01*
X35893295Y-53606106D01*
X35671802Y-53447642D01*
X35643236Y-53432955D01*
X35433632Y-53325189D01*
X35433625Y-53325186D01*
X35429597Y-53323115D01*
X35425312Y-53321653D01*
X35425307Y-53321651D01*
X35176124Y-53236642D01*
X35176122Y-53236641D01*
X35171841Y-53235181D01*
X35149679Y-53231087D01*
X34908489Y-53186537D01*
X34908478Y-53186535D01*
X34904029Y-53185714D01*
X34899500Y-53185548D01*
X34899496Y-53185548D01*
X34636397Y-53175933D01*
X34636390Y-53175933D01*
X34631869Y-53175768D01*
X34627372Y-53176262D01*
X34627366Y-53176263D01*
X34365672Y-53205057D01*
X34365663Y-53205058D01*
X34361161Y-53205554D01*
X34356782Y-53206698D01*
X34356770Y-53206701D01*
X34102049Y-53273294D01*
X34102046Y-53273295D01*
X34097674Y-53274438D01*
X34093524Y-53276201D01*
X34093511Y-53276206D01*
X33851191Y-53379182D01*
X33851183Y-53379185D01*
X33847025Y-53380953D01*
X33843168Y-53383306D01*
X33843158Y-53383312D01*
X33618428Y-53520463D01*
X33618418Y-53520469D01*
X33614556Y-53522827D01*
X33611071Y-53525726D01*
X33611067Y-53525730D01*
X33408706Y-53694136D01*
X33408700Y-53694141D01*
X33405221Y-53697037D01*
X33402203Y-53700404D01*
X33402199Y-53700409D01*
X33226498Y-53896502D01*
X33226492Y-53896508D01*
X33223482Y-53899869D01*
X33220989Y-53903636D01*
X33220986Y-53903641D01*
X33075711Y-54123224D01*
X33075708Y-54123229D01*
X33073212Y-54127002D01*
X33071295Y-54131089D01*
X33071290Y-54131100D01*
X32959533Y-54369499D01*
X32959530Y-54369506D01*
X32957614Y-54373594D01*
X32956314Y-54377912D01*
X32956310Y-54377925D01*
X32880458Y-54630050D01*
X32879153Y-54634389D01*
X32878494Y-54638865D01*
X32878493Y-54638871D01*
X32840158Y-54899354D01*
X32840157Y-54899361D01*
X32839500Y-54903829D01*
X32839500Y-55628000D01*
X30525500Y-55628000D01*
X30525500Y-46027814D01*
X30542977Y-45964340D01*
X30590483Y-45918759D01*
X30596645Y-45915424D01*
X30668626Y-45876470D01*
X30851784Y-45733913D01*
X31008979Y-45563153D01*
X31046190Y-45506196D01*
X31090982Y-45464962D01*
X31150000Y-45450017D01*
X31209018Y-45464962D01*
X31253809Y-45506196D01*
X31288215Y-45558860D01*
X31288222Y-45558869D01*
X31291021Y-45563153D01*
X31448216Y-45733913D01*
X31631374Y-45876470D01*
X31835497Y-45986936D01*
X32055019Y-46062298D01*
X32283951Y-46100500D01*
X32510916Y-46100500D01*
X32516049Y-46100500D01*
X32744981Y-46062298D01*
X32964503Y-45986936D01*
X33168626Y-45876470D01*
X33351784Y-45733913D01*
X33508979Y-45563153D01*
X33635924Y-45368849D01*
X33729157Y-45156300D01*
X33786134Y-44931305D01*
X33805300Y-44700000D01*
X33786134Y-44468695D01*
X33729157Y-44243700D01*
X33635924Y-44031151D01*
X33508979Y-43836847D01*
X33351784Y-43666087D01*
X33168626Y-43523530D01*
X33114497Y-43494237D01*
X32969007Y-43415501D01*
X32969002Y-43415499D01*
X32964503Y-43413064D01*
X32959657Y-43411400D01*
X32959654Y-43411399D01*
X32749834Y-43339368D01*
X32749833Y-43339367D01*
X32744981Y-43337702D01*
X32739931Y-43336859D01*
X32739922Y-43336857D01*
X32521111Y-43300344D01*
X32521102Y-43300343D01*
X32516049Y-43299500D01*
X32283951Y-43299500D01*
X32278898Y-43300343D01*
X32278888Y-43300344D01*
X32060077Y-43336857D01*
X32060065Y-43336859D01*
X32055019Y-43337702D01*
X32050169Y-43339366D01*
X32050165Y-43339368D01*
X31840345Y-43411399D01*
X31840337Y-43411402D01*
X31835497Y-43413064D01*
X31831001Y-43415496D01*
X31830992Y-43415501D01*
X31635882Y-43521090D01*
X31635878Y-43521092D01*
X31631374Y-43523530D01*
X31627334Y-43526674D01*
X31627327Y-43526679D01*
X31452263Y-43662936D01*
X31452255Y-43662943D01*
X31448216Y-43666087D01*
X31444746Y-43669855D01*
X31444742Y-43669860D01*
X31294491Y-43833077D01*
X31294488Y-43833080D01*
X31291021Y-43836847D01*
X31288226Y-43841124D01*
X31288219Y-43841134D01*
X31253809Y-43893804D01*
X31209017Y-43935037D01*
X31150000Y-43949982D01*
X31090983Y-43935037D01*
X31046191Y-43893804D01*
X31011780Y-43841134D01*
X31011778Y-43841132D01*
X31008979Y-43836847D01*
X30851784Y-43666087D01*
X30668626Y-43523530D01*
X30614497Y-43494237D01*
X30469007Y-43415501D01*
X30469002Y-43415499D01*
X30464503Y-43413064D01*
X30459657Y-43411400D01*
X30459654Y-43411399D01*
X30249834Y-43339368D01*
X30249833Y-43339367D01*
X30244981Y-43337702D01*
X30239931Y-43336859D01*
X30239922Y-43336857D01*
X30021111Y-43300344D01*
X30021102Y-43300343D01*
X30016049Y-43299500D01*
X29783951Y-43299500D01*
X29778898Y-43300343D01*
X29778888Y-43300344D01*
X29560077Y-43336857D01*
X29560065Y-43336859D01*
X29555019Y-43337702D01*
X29550169Y-43339366D01*
X29550165Y-43339368D01*
X29340345Y-43411399D01*
X29340337Y-43411402D01*
X29335497Y-43413064D01*
X29331001Y-43415496D01*
X29330992Y-43415501D01*
X29135882Y-43521090D01*
X29135878Y-43521092D01*
X29131374Y-43523530D01*
X29127334Y-43526674D01*
X29127327Y-43526679D01*
X28954436Y-43661245D01*
X28902007Y-43685099D01*
X28844458Y-43682691D01*
X28794205Y-43654541D01*
X28762092Y-43606723D01*
X28746896Y-43565981D01*
X28743796Y-43557669D01*
X28657546Y-43442454D01*
X28621541Y-43415501D01*
X28549431Y-43361519D01*
X28549430Y-43361518D01*
X28542331Y-43356204D01*
X28407483Y-43305909D01*
X28399770Y-43305079D01*
X28399767Y-43305079D01*
X28351180Y-43299855D01*
X28351169Y-43299854D01*
X28347873Y-43299500D01*
X28344550Y-43299500D01*
X26455439Y-43299500D01*
X26455420Y-43299500D01*
X26452128Y-43299501D01*
X26448850Y-43299853D01*
X26448838Y-43299854D01*
X26400231Y-43305079D01*
X26400225Y-43305080D01*
X26392517Y-43305909D01*
X26385252Y-43308618D01*
X26385246Y-43308620D01*
X26265980Y-43353104D01*
X26265978Y-43353104D01*
X26257669Y-43356204D01*
X26250572Y-43361516D01*
X26250568Y-43361519D01*
X26149550Y-43437141D01*
X26149546Y-43437144D01*
X26142454Y-43442454D01*
X26137144Y-43449546D01*
X26137141Y-43449550D01*
X26061519Y-43550568D01*
X26061516Y-43550572D01*
X26056204Y-43557669D01*
X26053104Y-43565978D01*
X26053104Y-43565980D01*
X26008620Y-43685247D01*
X26008619Y-43685250D01*
X26005909Y-43692517D01*
X26005079Y-43700227D01*
X26005079Y-43700232D01*
X25999855Y-43748819D01*
X25999854Y-43748831D01*
X25999500Y-43752127D01*
X25999500Y-43755448D01*
X25999500Y-43755449D01*
X25999500Y-45644560D01*
X25999500Y-45644578D01*
X25999501Y-45647872D01*
X25999853Y-45651150D01*
X25999854Y-45651161D01*
X26005079Y-45699768D01*
X26005080Y-45699773D01*
X26005909Y-45707483D01*
X26008619Y-45714749D01*
X26008620Y-45714753D01*
X26037908Y-45793276D01*
X26056204Y-45842331D01*
X26061518Y-45849430D01*
X26061519Y-45849431D01*
X26083588Y-45878912D01*
X26142454Y-45957546D01*
X26257669Y-46043796D01*
X26392517Y-46094091D01*
X26452127Y-46100500D01*
X28347872Y-46100499D01*
X28407483Y-46094091D01*
X28542331Y-46043796D01*
X28657546Y-45957546D01*
X28743796Y-45842331D01*
X28762092Y-45793274D01*
X28794204Y-45745458D01*
X28844457Y-45717308D01*
X28902007Y-45714900D01*
X28954435Y-45738753D01*
X29131374Y-45876470D01*
X29194898Y-45910847D01*
X29209517Y-45918759D01*
X29257023Y-45964340D01*
X29274500Y-46027814D01*
X29274500Y-58764448D01*
X29265061Y-58811901D01*
X29238181Y-58852129D01*
X27012696Y-61077611D01*
X27004511Y-61085059D01*
X26998123Y-61089114D01*
X26992788Y-61094794D01*
X26992783Y-61094799D01*
X26952096Y-61138125D01*
X26949392Y-61140916D01*
X26932628Y-61157680D01*
X26932621Y-61157687D01*
X26929880Y-61160429D01*
X26927500Y-61163496D01*
X26927489Y-61163509D01*
X26927400Y-61163625D01*
X26919842Y-61172470D01*
X26895280Y-61198627D01*
X26895273Y-61198636D01*
X26889938Y-61204318D01*
X26886182Y-61211149D01*
X26886179Y-61211154D01*
X26880285Y-61221875D01*
X26869609Y-61238127D01*
X26862109Y-61247796D01*
X26862101Y-61247807D01*
X26857327Y-61253964D01*
X26854234Y-61261108D01*
X26854229Y-61261119D01*
X26839974Y-61294060D01*
X26834837Y-61304545D01*
X26817965Y-61335236D01*
X26772424Y-61382231D01*
X26709302Y-61399500D01*
X26455439Y-61399500D01*
X26455420Y-61399500D01*
X26452128Y-61399501D01*
X26448850Y-61399853D01*
X26448838Y-61399854D01*
X26400231Y-61405079D01*
X26400225Y-61405080D01*
X26392517Y-61405909D01*
X26385252Y-61408618D01*
X26385246Y-61408620D01*
X26265980Y-61453104D01*
X26265978Y-61453104D01*
X26257669Y-61456204D01*
X26250572Y-61461516D01*
X26250568Y-61461519D01*
X26149550Y-61537141D01*
X26149546Y-61537144D01*
X26142454Y-61542454D01*
X26137144Y-61549546D01*
X26137141Y-61549550D01*
X26061519Y-61650568D01*
X26061516Y-61650572D01*
X26056204Y-61657669D01*
X26053104Y-61665978D01*
X26053104Y-61665980D01*
X26008620Y-61785247D01*
X26008619Y-61785250D01*
X26005909Y-61792517D01*
X26005079Y-61800227D01*
X26005079Y-61800232D01*
X25999855Y-61848819D01*
X25999854Y-61848831D01*
X25999500Y-61852127D01*
X25999500Y-61855448D01*
X25999500Y-61855449D01*
X25999500Y-63744560D01*
X25999500Y-63744578D01*
X25999501Y-63747872D01*
X25999853Y-63751150D01*
X25999854Y-63751161D01*
X26005079Y-63799768D01*
X26005080Y-63799773D01*
X26005909Y-63807483D01*
X26008619Y-63814749D01*
X26008620Y-63814753D01*
X26037908Y-63893276D01*
X26056204Y-63942331D01*
X26061518Y-63949430D01*
X26061519Y-63949431D01*
X26083588Y-63978912D01*
X26142454Y-64057546D01*
X26222627Y-64117564D01*
X26264498Y-64173497D01*
X26269482Y-64243188D01*
X26235997Y-64304511D01*
X22549596Y-67990911D01*
X22541411Y-67998359D01*
X22535023Y-68002414D01*
X22529688Y-68008094D01*
X22529683Y-68008099D01*
X22488996Y-68051425D01*
X22486292Y-68054216D01*
X22469528Y-68070980D01*
X22469521Y-68070987D01*
X22466780Y-68073729D01*
X22464400Y-68076796D01*
X22464389Y-68076809D01*
X22464300Y-68076925D01*
X22456742Y-68085770D01*
X22432180Y-68111927D01*
X22432173Y-68111936D01*
X22426838Y-68117618D01*
X22423082Y-68124449D01*
X22423079Y-68124454D01*
X22417185Y-68135175D01*
X22406509Y-68151427D01*
X22399009Y-68161096D01*
X22399001Y-68161107D01*
X22394227Y-68167264D01*
X22391134Y-68174408D01*
X22391129Y-68174419D01*
X22376874Y-68207360D01*
X22371738Y-68217843D01*
X22350703Y-68256108D01*
X22348764Y-68263656D01*
X22348763Y-68263661D01*
X22345722Y-68275507D01*
X22339421Y-68293911D01*
X22334558Y-68305148D01*
X22334556Y-68305152D01*
X22331462Y-68312304D01*
X22330242Y-68320003D01*
X22330242Y-68320005D01*
X22324629Y-68355441D01*
X22322261Y-68366876D01*
X22313338Y-68401628D01*
X22313336Y-68401636D01*
X22311400Y-68409181D01*
X22311400Y-68416977D01*
X22311400Y-68429217D01*
X22309874Y-68448602D01*
X22306740Y-68468396D01*
X20000500Y-68468396D01*
X20000500Y-55628000D01*
X23239500Y-55628000D01*
X23239664Y-55630251D01*
X23239665Y-55630257D01*
X23244817Y-55700645D01*
X23254403Y-55831616D01*
X23255386Y-55836031D01*
X23255388Y-55836041D01*
X23312630Y-56093011D01*
X23312633Y-56093023D01*
X23313618Y-56097442D01*
X23315237Y-56101676D01*
X23315238Y-56101678D01*
X23364508Y-56230500D01*
X23410907Y-56351814D01*
X23413125Y-56355766D01*
X23541978Y-56585359D01*
X23541981Y-56585364D01*
X23544196Y-56589310D01*
X23710645Y-56804868D01*
X23713906Y-56808012D01*
X23903437Y-56990744D01*
X23903442Y-56990748D01*
X23906705Y-56993894D01*
X24128198Y-57152358D01*
X24370403Y-57276885D01*
X24628159Y-57364819D01*
X24895971Y-57414286D01*
X25168131Y-57424232D01*
X25438839Y-57394446D01*
X25702326Y-57325562D01*
X25952975Y-57219047D01*
X26185444Y-57077173D01*
X26394779Y-56902963D01*
X26576518Y-56700131D01*
X26726788Y-56472998D01*
X26842386Y-56226406D01*
X26920847Y-55965611D01*
X26960500Y-55696171D01*
X26960500Y-54972000D01*
X26945597Y-54768384D01*
X26916747Y-54638871D01*
X26887369Y-54506988D01*
X26887368Y-54506985D01*
X26886382Y-54502558D01*
X26789093Y-54248186D01*
X26655804Y-54010690D01*
X26489355Y-53795132D01*
X26486093Y-53791987D01*
X26296562Y-53609255D01*
X26296556Y-53609250D01*
X26293295Y-53606106D01*
X26071802Y-53447642D01*
X26043236Y-53432955D01*
X25833632Y-53325189D01*
X25833625Y-53325186D01*
X25829597Y-53323115D01*
X25825312Y-53321653D01*
X25825307Y-53321651D01*
X25576124Y-53236642D01*
X25576122Y-53236641D01*
X25571841Y-53235181D01*
X25549679Y-53231087D01*
X25308489Y-53186537D01*
X25308478Y-53186535D01*
X25304029Y-53185714D01*
X25299500Y-53185548D01*
X25299496Y-53185548D01*
X25036397Y-53175933D01*
X25036390Y-53175933D01*
X25031869Y-53175768D01*
X25027372Y-53176262D01*
X25027366Y-53176263D01*
X24765672Y-53205057D01*
X24765663Y-53205058D01*
X24761161Y-53205554D01*
X24756782Y-53206698D01*
X24756770Y-53206701D01*
X24502049Y-53273294D01*
X24502046Y-53273295D01*
X24497674Y-53274438D01*
X24493524Y-53276201D01*
X24493511Y-53276206D01*
X24251191Y-53379182D01*
X24251183Y-53379185D01*
X24247025Y-53380953D01*
X24243168Y-53383306D01*
X24243158Y-53383312D01*
X24018428Y-53520463D01*
X24018418Y-53520469D01*
X24014556Y-53522827D01*
X24011071Y-53525726D01*
X24011067Y-53525730D01*
X23808706Y-53694136D01*
X23808700Y-53694141D01*
X23805221Y-53697037D01*
X23802203Y-53700404D01*
X23802199Y-53700409D01*
X23626498Y-53896502D01*
X23626492Y-53896508D01*
X23623482Y-53899869D01*
X23620989Y-53903636D01*
X23620986Y-53903641D01*
X23475711Y-54123224D01*
X23475708Y-54123229D01*
X23473212Y-54127002D01*
X23471295Y-54131089D01*
X23471290Y-54131100D01*
X23359533Y-54369499D01*
X23359530Y-54369506D01*
X23357614Y-54373594D01*
X23356314Y-54377912D01*
X23356310Y-54377925D01*
X23280458Y-54630050D01*
X23279153Y-54634389D01*
X23278494Y-54638865D01*
X23278493Y-54638871D01*
X23240158Y-54899354D01*
X23240157Y-54899361D01*
X23239500Y-54903829D01*
X23239500Y-55628000D01*
X20000500Y-55628000D01*
X20000500Y-37528000D01*
X23239500Y-37528000D01*
X23239664Y-37530251D01*
X23239665Y-37530257D01*
X23244817Y-37600645D01*
X23254403Y-37731616D01*
X23255386Y-37736031D01*
X23255388Y-37736041D01*
X23312630Y-37993011D01*
X23312633Y-37993023D01*
X23313618Y-37997442D01*
X23315237Y-38001676D01*
X23315238Y-38001678D01*
X23364508Y-38130500D01*
X23410907Y-38251814D01*
X23413125Y-38255766D01*
X23541978Y-38485359D01*
X23541981Y-38485364D01*
X23544196Y-38489310D01*
X23710645Y-38704868D01*
X23713906Y-38708012D01*
X23903437Y-38890744D01*
X23903442Y-38890748D01*
X23906705Y-38893894D01*
X24128198Y-39052358D01*
X24370403Y-39176885D01*
X24628159Y-39264819D01*
X24895971Y-39314286D01*
X25168131Y-39324232D01*
X25438839Y-39294446D01*
X25702326Y-39225562D01*
X25952975Y-39119047D01*
X26185444Y-38977173D01*
X26394779Y-38802963D01*
X26576518Y-38600131D01*
X26726788Y-38372998D01*
X26842386Y-38126406D01*
X26920847Y-37865611D01*
X26960500Y-37596171D01*
X26960500Y-37528000D01*
X32839500Y-37528000D01*
X32839664Y-37530251D01*
X32839665Y-37530257D01*
X32844817Y-37600645D01*
X32854403Y-37731616D01*
X32855386Y-37736031D01*
X32855388Y-37736041D01*
X32912630Y-37993011D01*
X32912633Y-37993023D01*
X32913618Y-37997442D01*
X32915237Y-38001676D01*
X32915238Y-38001678D01*
X32964508Y-38130500D01*
X33010907Y-38251814D01*
X33013125Y-38255766D01*
X33141978Y-38485359D01*
X33141981Y-38485364D01*
X33144196Y-38489310D01*
X33310645Y-38704868D01*
X33313906Y-38708012D01*
X33503437Y-38890744D01*
X33503442Y-38890748D01*
X33506705Y-38893894D01*
X33728198Y-39052358D01*
X33970403Y-39176885D01*
X34228159Y-39264819D01*
X34495971Y-39314286D01*
X34768131Y-39324232D01*
X35038839Y-39294446D01*
X35302326Y-39225562D01*
X35552975Y-39119047D01*
X35785444Y-38977173D01*
X35994779Y-38802963D01*
X36176518Y-38600131D01*
X36326788Y-38372998D01*
X36442386Y-38126406D01*
X36520847Y-37865611D01*
X36560500Y-37596171D01*
X36560500Y-36872000D01*
X36545597Y-36668384D01*
X36516747Y-36538871D01*
X36487369Y-36406988D01*
X36487368Y-36406985D01*
X36486382Y-36402558D01*
X36389093Y-36148186D01*
X36255804Y-35910690D01*
X36089355Y-35695132D01*
X36086093Y-35691987D01*
X35896562Y-35509255D01*
X35896556Y-35509250D01*
X35893295Y-35506106D01*
X35671802Y-35347642D01*
X35643236Y-35332955D01*
X35433632Y-35225189D01*
X35433625Y-35225186D01*
X35429597Y-35223115D01*
X35425312Y-35221653D01*
X35425307Y-35221651D01*
X35176124Y-35136642D01*
X35176122Y-35136641D01*
X35171841Y-35135181D01*
X35149679Y-35131087D01*
X34908489Y-35086537D01*
X34908478Y-35086535D01*
X34904029Y-35085714D01*
X34899500Y-35085548D01*
X34899496Y-35085548D01*
X34636397Y-35075933D01*
X34636390Y-35075933D01*
X34631869Y-35075768D01*
X34627372Y-35076262D01*
X34627366Y-35076263D01*
X34365672Y-35105057D01*
X34365663Y-35105058D01*
X34361161Y-35105554D01*
X34356782Y-35106698D01*
X34356770Y-35106701D01*
X34102049Y-35173294D01*
X34102046Y-35173295D01*
X34097674Y-35174438D01*
X34093524Y-35176201D01*
X34093511Y-35176206D01*
X33851191Y-35279182D01*
X33851183Y-35279185D01*
X33847025Y-35280953D01*
X33843168Y-35283306D01*
X33843158Y-35283312D01*
X33618428Y-35420463D01*
X33618418Y-35420469D01*
X33614556Y-35422827D01*
X33611071Y-35425726D01*
X33611067Y-35425730D01*
X33408706Y-35594136D01*
X33408700Y-35594141D01*
X33405221Y-35597037D01*
X33402203Y-35600404D01*
X33402199Y-35600409D01*
X33226498Y-35796502D01*
X33226492Y-35796508D01*
X33223482Y-35799869D01*
X33220989Y-35803636D01*
X33220986Y-35803641D01*
X33075711Y-36023224D01*
X33075708Y-36023229D01*
X33073212Y-36027002D01*
X33071295Y-36031089D01*
X33071290Y-36031100D01*
X32959533Y-36269499D01*
X32959530Y-36269506D01*
X32957614Y-36273594D01*
X32956314Y-36277912D01*
X32956310Y-36277925D01*
X32880458Y-36530050D01*
X32879153Y-36534389D01*
X32878494Y-36538865D01*
X32878493Y-36538871D01*
X32840158Y-36799354D01*
X32840157Y-36799361D01*
X32839500Y-36803829D01*
X32839500Y-37528000D01*
X26960500Y-37528000D01*
X26960500Y-36872000D01*
X26945597Y-36668384D01*
X26916747Y-36538871D01*
X26887369Y-36406988D01*
X26887368Y-36406985D01*
X26886382Y-36402558D01*
X26789093Y-36148186D01*
X26655804Y-35910690D01*
X26489355Y-35695132D01*
X26486093Y-35691987D01*
X26296562Y-35509255D01*
X26296556Y-35509250D01*
X26293295Y-35506106D01*
X26071802Y-35347642D01*
X26043236Y-35332955D01*
X25833632Y-35225189D01*
X25833625Y-35225186D01*
X25829597Y-35223115D01*
X25825312Y-35221653D01*
X25825307Y-35221651D01*
X25576124Y-35136642D01*
X25576122Y-35136641D01*
X25571841Y-35135181D01*
X25549679Y-35131087D01*
X25308489Y-35086537D01*
X25308478Y-35086535D01*
X25304029Y-35085714D01*
X25299500Y-35085548D01*
X25299496Y-35085548D01*
X25036397Y-35075933D01*
X25036390Y-35075933D01*
X25031869Y-35075768D01*
X25027372Y-35076262D01*
X25027366Y-35076263D01*
X24765672Y-35105057D01*
X24765663Y-35105058D01*
X24761161Y-35105554D01*
X24756782Y-35106698D01*
X24756770Y-35106701D01*
X24502049Y-35173294D01*
X24502046Y-35173295D01*
X24497674Y-35174438D01*
X24493524Y-35176201D01*
X24493511Y-35176206D01*
X24251191Y-35279182D01*
X24251183Y-35279185D01*
X24247025Y-35280953D01*
X24243168Y-35283306D01*
X24243158Y-35283312D01*
X24018428Y-35420463D01*
X24018418Y-35420469D01*
X24014556Y-35422827D01*
X24011071Y-35425726D01*
X24011067Y-35425730D01*
X23808706Y-35594136D01*
X23808700Y-35594141D01*
X23805221Y-35597037D01*
X23802203Y-35600404D01*
X23802199Y-35600409D01*
X23626498Y-35796502D01*
X23626492Y-35796508D01*
X23623482Y-35799869D01*
X23620989Y-35803636D01*
X23620986Y-35803641D01*
X23475711Y-36023224D01*
X23475708Y-36023229D01*
X23473212Y-36027002D01*
X23471295Y-36031089D01*
X23471290Y-36031100D01*
X23359533Y-36269499D01*
X23359530Y-36269506D01*
X23357614Y-36273594D01*
X23356314Y-36277912D01*
X23356310Y-36277925D01*
X23280458Y-36530050D01*
X23279153Y-36534389D01*
X23278494Y-36538865D01*
X23278493Y-36538871D01*
X23240158Y-36799354D01*
X23240157Y-36799361D01*
X23239500Y-36803829D01*
X23239500Y-37528000D01*
X20000500Y-37528000D01*
X20000500Y-29000000D01*
X21499459Y-29000000D01*
X21499617Y-29000383D01*
X21499901Y-29000500D01*
X24487944Y-29000500D01*
X24500099Y-29000500D01*
X24500383Y-29000383D01*
X24500541Y-29000000D01*
X26499459Y-29000000D01*
X26499617Y-29000383D01*
X26499901Y-29000500D01*
X29487944Y-29000500D01*
X29500099Y-29000500D01*
X29500383Y-29000383D01*
X29500541Y-29000000D01*
X31499459Y-29000000D01*
X31499617Y-29000383D01*
X31499901Y-29000500D01*
X34487944Y-29000500D01*
X34500099Y-29000500D01*
X34500383Y-29000383D01*
X34500541Y-29000000D01*
X36499459Y-29000000D01*
X36499617Y-29000383D01*
X36499901Y-29000500D01*
X39487944Y-29000500D01*
X39500099Y-29000500D01*
X39500383Y-29000383D01*
X39500541Y-29000000D01*
X39500383Y-28999617D01*
X39500099Y-28999500D01*
X36499901Y-28999500D01*
X36499617Y-28999617D01*
X36499459Y-29000000D01*
X34500541Y-29000000D01*
X34500383Y-28999617D01*
X34500099Y-28999500D01*
X31499901Y-28999500D01*
X31499617Y-28999617D01*
X31499459Y-29000000D01*
X29500541Y-29000000D01*
X29500383Y-28999617D01*
X29500099Y-28999500D01*
X26499901Y-28999500D01*
X26499617Y-28999617D01*
X26499459Y-29000000D01*
X24500541Y-29000000D01*
X24500383Y-28999617D01*
X24500099Y-28999500D01*
X21499901Y-28999500D01*
X21499617Y-28999617D01*
X21499459Y-29000000D01*
X20000500Y-29000000D01*
X20000500Y-23000000D01*
X25074551Y-23000000D01*
X25094317Y-23251148D01*
X25095452Y-23255877D01*
X25095453Y-23255881D01*
X25151989Y-23491374D01*
X25151991Y-23491382D01*
X25153127Y-23496111D01*
X25249534Y-23728859D01*
X25252081Y-23733016D01*
X25252082Y-23733017D01*
X25378617Y-23939504D01*
X25378622Y-23939511D01*
X25381164Y-23943659D01*
X25384324Y-23947358D01*
X25384327Y-23947363D01*
X25534845Y-24123596D01*
X25544776Y-24135224D01*
X25548476Y-24138384D01*
X25730705Y-24294023D01*
X25736341Y-24298836D01*
X25740491Y-24301379D01*
X25740495Y-24301382D01*
X25852300Y-24369896D01*
X25951141Y-24430466D01*
X26183889Y-24526873D01*
X26428852Y-24585683D01*
X26680000Y-24605449D01*
X26931148Y-24585683D01*
X27176111Y-24526873D01*
X27408859Y-24430466D01*
X27623659Y-24298836D01*
X27815224Y-24135224D01*
X27978836Y-23943659D01*
X28110466Y-23728859D01*
X28206873Y-23496111D01*
X28265683Y-23251148D01*
X28285449Y-23000000D01*
X32034551Y-23000000D01*
X32054317Y-23251148D01*
X32055452Y-23255877D01*
X32055453Y-23255881D01*
X32111989Y-23491374D01*
X32111991Y-23491382D01*
X32113127Y-23496111D01*
X32209534Y-23728859D01*
X32212081Y-23733016D01*
X32212082Y-23733017D01*
X32338617Y-23939504D01*
X32338622Y-23939511D01*
X32341164Y-23943659D01*
X32344324Y-23947358D01*
X32344327Y-23947363D01*
X32494845Y-24123596D01*
X32504776Y-24135224D01*
X32508476Y-24138384D01*
X32690705Y-24294023D01*
X32696341Y-24298836D01*
X32700491Y-24301379D01*
X32700495Y-24301382D01*
X32812300Y-24369896D01*
X32911141Y-24430466D01*
X33143889Y-24526873D01*
X33388852Y-24585683D01*
X33640000Y-24605449D01*
X33891148Y-24585683D01*
X34136111Y-24526873D01*
X34368859Y-24430466D01*
X34583659Y-24298836D01*
X34775224Y-24135224D01*
X34938836Y-23943659D01*
X35070466Y-23728859D01*
X35166873Y-23496111D01*
X35225683Y-23251148D01*
X35245449Y-23000000D01*
X35225683Y-22748852D01*
X35166873Y-22503889D01*
X35070466Y-22271141D01*
X34938836Y-22056341D01*
X34775224Y-21864776D01*
X34771523Y-21861615D01*
X34587363Y-21704327D01*
X34587358Y-21704324D01*
X34583659Y-21701164D01*
X34579511Y-21698622D01*
X34579504Y-21698617D01*
X34373017Y-21572082D01*
X34373016Y-21572081D01*
X34368859Y-21569534D01*
X34136111Y-21473127D01*
X34131382Y-21471991D01*
X34131374Y-21471989D01*
X33895881Y-21415453D01*
X33895877Y-21415452D01*
X33891148Y-21414317D01*
X33886295Y-21413935D01*
X33644854Y-21394933D01*
X33640000Y-21394551D01*
X33635146Y-21394933D01*
X33393704Y-21413935D01*
X33393702Y-21413935D01*
X33388852Y-21414317D01*
X33384124Y-21415451D01*
X33384118Y-21415453D01*
X33148625Y-21471989D01*
X33148613Y-21471992D01*
X33143889Y-21473127D01*
X33139392Y-21474989D01*
X33139388Y-21474991D01*
X32915645Y-21567668D01*
X32915640Y-21567670D01*
X32911141Y-21569534D01*
X32906988Y-21572078D01*
X32906982Y-21572082D01*
X32700495Y-21698617D01*
X32700482Y-21698626D01*
X32696341Y-21701164D01*
X32692646Y-21704319D01*
X32692636Y-21704327D01*
X32508476Y-21861615D01*
X32508469Y-21861621D01*
X32504776Y-21864776D01*
X32501621Y-21868469D01*
X32501615Y-21868476D01*
X32344327Y-22052636D01*
X32344319Y-22052646D01*
X32341164Y-22056341D01*
X32338626Y-22060482D01*
X32338617Y-22060495D01*
X32212082Y-22266982D01*
X32212078Y-22266988D01*
X32209534Y-22271141D01*
X32207670Y-22275640D01*
X32207668Y-22275645D01*
X32114991Y-22499388D01*
X32113127Y-22503889D01*
X32111992Y-22508613D01*
X32111989Y-22508625D01*
X32055453Y-22744118D01*
X32055451Y-22744124D01*
X32054317Y-22748852D01*
X32034551Y-23000000D01*
X28285449Y-23000000D01*
X28265683Y-22748852D01*
X28206873Y-22503889D01*
X28110466Y-22271141D01*
X27978836Y-22056341D01*
X27815224Y-21864776D01*
X27811523Y-21861615D01*
X27627363Y-21704327D01*
X27627358Y-21704324D01*
X27623659Y-21701164D01*
X27619511Y-21698622D01*
X27619504Y-21698617D01*
X27413017Y-21572082D01*
X27413016Y-21572081D01*
X27408859Y-21569534D01*
X27176111Y-21473127D01*
X27171382Y-21471991D01*
X27171374Y-21471989D01*
X26935881Y-21415453D01*
X26935877Y-21415452D01*
X26931148Y-21414317D01*
X26926295Y-21413935D01*
X26684854Y-21394933D01*
X26680000Y-21394551D01*
X26675146Y-21394933D01*
X26433704Y-21413935D01*
X26433702Y-21413935D01*
X26428852Y-21414317D01*
X26424124Y-21415451D01*
X26424118Y-21415453D01*
X26188625Y-21471989D01*
X26188613Y-21471992D01*
X26183889Y-21473127D01*
X26179392Y-21474989D01*
X26179388Y-21474991D01*
X25955645Y-21567668D01*
X25955640Y-21567670D01*
X25951141Y-21569534D01*
X25946988Y-21572078D01*
X25946982Y-21572082D01*
X25740495Y-21698617D01*
X25740482Y-21698626D01*
X25736341Y-21701164D01*
X25732646Y-21704319D01*
X25732636Y-21704327D01*
X25548476Y-21861615D01*
X25548469Y-21861621D01*
X25544776Y-21864776D01*
X25541621Y-21868469D01*
X25541615Y-21868476D01*
X25384327Y-22052636D01*
X25384319Y-22052646D01*
X25381164Y-22056341D01*
X25378626Y-22060482D01*
X25378617Y-22060495D01*
X25252082Y-22266982D01*
X25252078Y-22266988D01*
X25249534Y-22271141D01*
X25247670Y-22275640D01*
X25247668Y-22275645D01*
X25154991Y-22499388D01*
X25153127Y-22503889D01*
X25151992Y-22508613D01*
X25151989Y-22508625D01*
X25095453Y-22744118D01*
X25095451Y-22744124D01*
X25094317Y-22748852D01*
X25074551Y-23000000D01*
X20000500Y-23000000D01*
X20000500Y-20124500D01*
X20017113Y-20062500D01*
X20062500Y-20017113D01*
X20124500Y-20000500D01*
X40195500Y-20000500D01*
X40257500Y-20017113D01*
G37*
%TD.AperFunction*%
%TD*%
M02*
