%TF.GenerationSoftware,KiCad,Pcbnew,(7.0.0)*%
%TF.CreationDate,2023-03-26T16:47:36-07:00*%
%TF.ProjectId,followbuttons,666f6c6c-6f77-4627-9574-746f6e732e6b,rev?*%
%TF.SameCoordinates,Original*%
%TF.FileFunction,Soldermask,Top*%
%TF.FilePolarity,Negative*%
%FSLAX46Y46*%
G04 Gerber Fmt 4.6, Leading zero omitted, Abs format (unit mm)*
G04 Created by KiCad (PCBNEW (7.0.0)) date 2023-03-26 16:47:36*
%MOMM*%
%LPD*%
G01*
G04 APERTURE LIST*
G04 Aperture macros list*
%AMRoundRect*
0 Rectangle with rounded corners*
0 $1 Rounding radius*
0 $2 $3 $4 $5 $6 $7 $8 $9 X,Y pos of 4 corners*
0 Add a 4 corners polygon primitive as box body*
4,1,4,$2,$3,$4,$5,$6,$7,$8,$9,$2,$3,0*
0 Add four circle primitives for the rounded corners*
1,1,$1+$1,$2,$3*
1,1,$1+$1,$4,$5*
1,1,$1+$1,$6,$7*
1,1,$1+$1,$8,$9*
0 Add four rect primitives between the rounded corners*
20,1,$1+$1,$2,$3,$4,$5,0*
20,1,$1+$1,$4,$5,$6,$7,0*
20,1,$1+$1,$6,$7,$8,$9,0*
20,1,$1+$1,$8,$9,$2,$3,0*%
G04 Aperture macros list end*
%ADD10R,1.700000X1.700000*%
%ADD11O,1.700000X1.700000*%
%ADD12RoundRect,0.200000X-0.200000X-0.275000X0.200000X-0.275000X0.200000X0.275000X-0.200000X0.275000X0*%
%ADD13RoundRect,0.218750X-0.256250X0.218750X-0.256250X-0.218750X0.256250X-0.218750X0.256250X0.218750X0*%
%ADD14R,1.550000X1.300000*%
%ADD15RoundRect,0.150000X-0.825000X-0.150000X0.825000X-0.150000X0.825000X0.150000X-0.825000X0.150000X0*%
%ADD16R,1.830000X1.930000*%
%ADD17C,2.130000*%
%ADD18RoundRect,0.200000X0.275000X-0.200000X0.275000X0.200000X-0.275000X0.200000X-0.275000X-0.200000X0*%
%ADD19RoundRect,0.112500X0.112500X-0.187500X0.112500X0.187500X-0.112500X0.187500X-0.112500X-0.187500X0*%
%ADD20O,2.720000X3.240000*%
%ADD21R,1.800000X1.800000*%
%ADD22C,1.800000*%
%ADD23RoundRect,0.200000X0.200000X0.275000X-0.200000X0.275000X-0.200000X-0.275000X0.200000X-0.275000X0*%
%ADD24RoundRect,0.112500X-0.112500X0.187500X-0.112500X-0.187500X0.112500X-0.187500X0.112500X0.187500X0*%
%ADD25RoundRect,0.200000X-0.275000X0.200000X-0.275000X-0.200000X0.275000X-0.200000X0.275000X0.200000X0*%
%ADD26R,1.600000X1.600000*%
%ADD27C,1.600000*%
G04 APERTURE END LIST*
D10*
%TO.C,J1*%
X36799999Y-70319999D03*
D11*
X36799999Y-72859999D03*
X36799999Y-75399999D03*
X36799999Y-77939999D03*
X36799999Y-80479999D03*
X36799999Y-83019999D03*
X36799999Y-85559999D03*
%TD*%
D12*
%TO.C,R12*%
X36975000Y-123200000D03*
X38625000Y-123200000D03*
%TD*%
D13*
%TO.C,D9*%
X38100000Y-135287500D03*
X38100000Y-133712500D03*
%TD*%
D14*
%TO.C,SW1*%
X25819999Y-68627499D03*
X33779999Y-68627499D03*
X25819999Y-73127499D03*
X33779999Y-73127499D03*
%TD*%
D15*
%TO.C,U2*%
X23225000Y-98195000D03*
X23225000Y-99465000D03*
X23225000Y-100735000D03*
X23225000Y-102005000D03*
X28175000Y-102005000D03*
X28175000Y-100735000D03*
X28175000Y-99465000D03*
X28175000Y-98195000D03*
%TD*%
D16*
%TO.C,J3*%
X22719999Y-120399999D03*
D17*
X34120000Y-120400000D03*
X25820000Y-120400000D03*
%TD*%
D15*
%TO.C,U1*%
X22925000Y-107795000D03*
X22925000Y-109065000D03*
X22925000Y-110335000D03*
X22925000Y-111605000D03*
X27875000Y-111605000D03*
X27875000Y-110335000D03*
X27875000Y-109065000D03*
X27875000Y-107795000D03*
%TD*%
D13*
%TO.C,D5*%
X38400000Y-33212500D03*
X38400000Y-34787500D03*
%TD*%
D18*
%TO.C,R6*%
X38700000Y-48725000D03*
X38700000Y-47075000D03*
%TD*%
D19*
%TO.C,D2*%
X23100000Y-80527500D03*
X23100000Y-78427500D03*
%TD*%
D12*
%TO.C,R11*%
X36900000Y-121100000D03*
X38550000Y-121100000D03*
%TD*%
%TO.C,R1*%
X32475000Y-75200000D03*
X34125000Y-75200000D03*
%TD*%
D14*
%TO.C,SW2*%
X25719999Y-77249999D03*
X33679999Y-77249999D03*
X25719999Y-81749999D03*
X33679999Y-81749999D03*
%TD*%
D20*
%TO.C,RV2*%
X25099999Y-55299999D03*
X34699999Y-55299999D03*
D21*
X27399999Y-62799999D03*
D22*
X29900000Y-62800000D03*
X32400000Y-62800000D03*
%TD*%
D13*
%TO.C,D3*%
X38400000Y-42412500D03*
X38400000Y-43987500D03*
%TD*%
D18*
%TO.C,R8*%
X37600000Y-66425000D03*
X37600000Y-64775000D03*
%TD*%
%TO.C,R7*%
X36000000Y-66425000D03*
X36000000Y-64775000D03*
%TD*%
%TO.C,R9*%
X39200000Y-66425000D03*
X39200000Y-64775000D03*
%TD*%
D16*
%TO.C,J2*%
X22699999Y-130699999D03*
D17*
X34100000Y-130700000D03*
X25800000Y-130700000D03*
%TD*%
D13*
%TO.C,D7*%
X38390000Y-55932500D03*
X38390000Y-57507500D03*
%TD*%
%TO.C,D10*%
X38100000Y-129812500D03*
X38100000Y-131387500D03*
%TD*%
%TO.C,D6*%
X38500000Y-51352500D03*
X38500000Y-52927500D03*
%TD*%
D18*
%TO.C,R4*%
X35500000Y-48725000D03*
X35500000Y-47075000D03*
%TD*%
D13*
%TO.C,D8*%
X38400000Y-60512500D03*
X38400000Y-62087500D03*
%TD*%
D23*
%TO.C,R2*%
X32825000Y-66400000D03*
X31175000Y-66400000D03*
%TD*%
D13*
%TO.C,D11*%
X38100000Y-125912500D03*
X38100000Y-127487500D03*
%TD*%
D24*
%TO.C,D1*%
X23300000Y-69850000D03*
X23300000Y-71950000D03*
%TD*%
D25*
%TO.C,R3*%
X37900000Y-113075000D03*
X37900000Y-114725000D03*
%TD*%
D13*
%TO.C,D4*%
X38400000Y-37812500D03*
X38400000Y-39387500D03*
%TD*%
D18*
%TO.C,R5*%
X37100000Y-48725000D03*
X37100000Y-47075000D03*
%TD*%
D12*
%TO.C,R10*%
X36975000Y-119200000D03*
X38625000Y-119200000D03*
%TD*%
D20*
%TO.C,RV1*%
X25099999Y-37199999D03*
X34699999Y-37199999D03*
D21*
X27399999Y-44699999D03*
D22*
X29900000Y-44700000D03*
X32400000Y-44700000D03*
%TD*%
D26*
%TO.C,C1*%
X30505099Y-88999999D03*
D27*
X28005100Y-89000000D03*
%TD*%
M02*
