%TF.GenerationSoftware,KiCad,Pcbnew,(7.0.0)*%
%TF.CreationDate,2023-03-26T16:47:36-07:00*%
%TF.ProjectId,followbuttons,666f6c6c-6f77-4627-9574-746f6e732e6b,rev?*%
%TF.SameCoordinates,Original*%
%TF.FileFunction,Copper,L1,Top*%
%TF.FilePolarity,Positive*%
%FSLAX46Y46*%
G04 Gerber Fmt 4.6, Leading zero omitted, Abs format (unit mm)*
G04 Created by KiCad (PCBNEW (7.0.0)) date 2023-03-26 16:47:36*
%MOMM*%
%LPD*%
G01*
G04 APERTURE LIST*
G04 Aperture macros list*
%AMRoundRect*
0 Rectangle with rounded corners*
0 $1 Rounding radius*
0 $2 $3 $4 $5 $6 $7 $8 $9 X,Y pos of 4 corners*
0 Add a 4 corners polygon primitive as box body*
4,1,4,$2,$3,$4,$5,$6,$7,$8,$9,$2,$3,0*
0 Add four circle primitives for the rounded corners*
1,1,$1+$1,$2,$3*
1,1,$1+$1,$4,$5*
1,1,$1+$1,$6,$7*
1,1,$1+$1,$8,$9*
0 Add four rect primitives between the rounded corners*
20,1,$1+$1,$2,$3,$4,$5,0*
20,1,$1+$1,$4,$5,$6,$7,0*
20,1,$1+$1,$6,$7,$8,$9,0*
20,1,$1+$1,$8,$9,$2,$3,0*%
G04 Aperture macros list end*
%TA.AperFunction,ComponentPad*%
%ADD10R,1.700000X1.700000*%
%TD*%
%TA.AperFunction,ComponentPad*%
%ADD11O,1.700000X1.700000*%
%TD*%
%TA.AperFunction,SMDPad,CuDef*%
%ADD12RoundRect,0.200000X-0.200000X-0.275000X0.200000X-0.275000X0.200000X0.275000X-0.200000X0.275000X0*%
%TD*%
%TA.AperFunction,SMDPad,CuDef*%
%ADD13RoundRect,0.218750X-0.256250X0.218750X-0.256250X-0.218750X0.256250X-0.218750X0.256250X0.218750X0*%
%TD*%
%TA.AperFunction,SMDPad,CuDef*%
%ADD14R,1.550000X1.300000*%
%TD*%
%TA.AperFunction,SMDPad,CuDef*%
%ADD15RoundRect,0.150000X-0.825000X-0.150000X0.825000X-0.150000X0.825000X0.150000X-0.825000X0.150000X0*%
%TD*%
%TA.AperFunction,ComponentPad*%
%ADD16R,1.830000X1.930000*%
%TD*%
%TA.AperFunction,ComponentPad*%
%ADD17C,2.130000*%
%TD*%
%TA.AperFunction,SMDPad,CuDef*%
%ADD18RoundRect,0.200000X0.275000X-0.200000X0.275000X0.200000X-0.275000X0.200000X-0.275000X-0.200000X0*%
%TD*%
%TA.AperFunction,SMDPad,CuDef*%
%ADD19RoundRect,0.112500X0.112500X-0.187500X0.112500X0.187500X-0.112500X0.187500X-0.112500X-0.187500X0*%
%TD*%
%TA.AperFunction,ComponentPad*%
%ADD20O,2.720000X3.240000*%
%TD*%
%TA.AperFunction,ComponentPad*%
%ADD21R,1.800000X1.800000*%
%TD*%
%TA.AperFunction,ComponentPad*%
%ADD22C,1.800000*%
%TD*%
%TA.AperFunction,SMDPad,CuDef*%
%ADD23RoundRect,0.200000X0.200000X0.275000X-0.200000X0.275000X-0.200000X-0.275000X0.200000X-0.275000X0*%
%TD*%
%TA.AperFunction,SMDPad,CuDef*%
%ADD24RoundRect,0.112500X-0.112500X0.187500X-0.112500X-0.187500X0.112500X-0.187500X0.112500X0.187500X0*%
%TD*%
%TA.AperFunction,SMDPad,CuDef*%
%ADD25RoundRect,0.200000X-0.275000X0.200000X-0.275000X-0.200000X0.275000X-0.200000X0.275000X0.200000X0*%
%TD*%
%TA.AperFunction,ComponentPad*%
%ADD26R,1.600000X1.600000*%
%TD*%
%TA.AperFunction,ComponentPad*%
%ADD27C,1.600000*%
%TD*%
%TA.AperFunction,ViaPad*%
%ADD28C,0.800000*%
%TD*%
%TA.AperFunction,Conductor*%
%ADD29C,0.250000*%
%TD*%
G04 APERTURE END LIST*
D10*
%TO.P,J1,1,-12v_R*%
%TO.N,-12V*%
X36799999Y-70319999D03*
D11*
%TO.P,J1,2,-12v_L*%
%TO.N,GND*%
X36799999Y-72859999D03*
%TO.P,J1,3,GND*%
X36799999Y-75399999D03*
%TO.P,J1,4,GND*%
X36799999Y-77939999D03*
%TO.P,J1,5,GND_R3*%
%TO.N,+12V*%
X36799999Y-80479999D03*
%TO.P,J1,6,GND_L3*%
%TO.N,unconnected-(J1-GND_L3-Pad6)*%
X36799999Y-83019999D03*
%TO.P,J1,7*%
%TO.N,N/C*%
X36799999Y-85559999D03*
%TD*%
D12*
%TO.P,R12,1*%
%TO.N,GND*%
X36975000Y-123200000D03*
%TO.P,R12,2*%
%TO.N,Net-(D10-A)*%
X38625000Y-123200000D03*
%TD*%
D13*
%TO.P,D9,2,A*%
%TO.N,Net-(D9-A)*%
X38100000Y-135287500D03*
%TO.P,D9,1,K*%
%TO.N,Net-(D10-A)*%
X38100000Y-133712500D03*
%TD*%
D14*
%TO.P,SW1,1,A*%
%TO.N,Net-(D3-A)*%
X25819999Y-68627499D03*
X33779999Y-68627499D03*
%TO.P,SW1,2,B*%
%TO.N,Net-(D1-A)*%
X25819999Y-73127499D03*
X33779999Y-73127499D03*
%TD*%
D15*
%TO.P,U2,1*%
%TO.N,Net-(D9-A)*%
X23225000Y-98195000D03*
%TO.P,U2,2,-*%
X23225000Y-99465000D03*
%TO.P,U2,3,+*%
%TO.N,Net-(U2A-+)*%
X23225000Y-100735000D03*
%TO.P,U2,4,V-*%
%TO.N,-12V*%
X23225000Y-102005000D03*
%TO.P,U2,5,+*%
%TO.N,unconnected-(U2B-+-Pad5)*%
X28175000Y-102005000D03*
%TO.P,U2,6,-*%
%TO.N,unconnected-(U2B---Pad6)*%
X28175000Y-100735000D03*
%TO.P,U2,7*%
%TO.N,unconnected-(U2-Pad7)*%
X28175000Y-99465000D03*
%TO.P,U2,8,V+*%
%TO.N,+12V*%
X28175000Y-98195000D03*
%TD*%
D16*
%TO.P,J3,S*%
%TO.N,GND*%
X22719999Y-120399999D03*
D17*
%TO.P,J3,T*%
%TO.N,Net-(J3-PadT)*%
X34120000Y-120400000D03*
%TO.P,J3,TN*%
%TO.N,unconnected-(J3-PadTN)*%
X25820000Y-120400000D03*
%TD*%
D15*
%TO.P,U1,1*%
%TO.N,Net-(D3-A)*%
X22925000Y-107795000D03*
%TO.P,U1,2,-*%
X22925000Y-109065000D03*
%TO.P,U1,3,+*%
%TO.N,Net-(U1A-+)*%
X22925000Y-110335000D03*
%TO.P,U1,4,V-*%
%TO.N,-12V*%
X22925000Y-111605000D03*
%TO.P,U1,5,+*%
%TO.N,GND*%
X27875000Y-111605000D03*
%TO.P,U1,6,-*%
%TO.N,Net-(U1B--)*%
X27875000Y-110335000D03*
%TO.P,U1,7*%
%TO.N,Net-(D6-K)*%
X27875000Y-109065000D03*
%TO.P,U1,8,V+*%
%TO.N,+12V*%
X27875000Y-107795000D03*
%TD*%
D13*
%TO.P,D5,1,K*%
%TO.N,Net-(D5-K)*%
X38400000Y-33212500D03*
%TO.P,D5,2,A*%
%TO.N,Net-(D4-K)*%
X38400000Y-34787500D03*
%TD*%
D18*
%TO.P,R6,1*%
%TO.N,GND*%
X38700000Y-48725000D03*
%TO.P,R6,2*%
%TO.N,Net-(D5-K)*%
X38700000Y-47075000D03*
%TD*%
D19*
%TO.P,D2,1,K*%
%TO.N,Net-(D2-K)*%
X23100000Y-80527500D03*
%TO.P,D2,2,A*%
%TO.N,Net-(D2-A)*%
X23100000Y-78427500D03*
%TD*%
D12*
%TO.P,R11,1*%
%TO.N,GND*%
X36900000Y-121100000D03*
%TO.P,R11,2*%
%TO.N,Net-(D10-K)*%
X38550000Y-121100000D03*
%TD*%
%TO.P,R1,1*%
%TO.N,Net-(U1B--)*%
X32475000Y-75200000D03*
%TO.P,R1,2*%
%TO.N,Net-(D6-K)*%
X34125000Y-75200000D03*
%TD*%
D14*
%TO.P,SW2,1,A*%
%TO.N,Net-(D6-K)*%
X25719999Y-77249999D03*
X33679999Y-77249999D03*
%TO.P,SW2,2,B*%
%TO.N,Net-(D2-K)*%
X25719999Y-81749999D03*
X33679999Y-81749999D03*
%TD*%
D20*
%TO.P,RV2,*%
%TO.N,*%
X25099999Y-55299999D03*
X34699999Y-55299999D03*
D21*
%TO.P,RV2,1,1*%
%TO.N,Net-(U2A-+)*%
X27399999Y-62799999D03*
D22*
%TO.P,RV2,2,2*%
%TO.N,Net-(D2-A)*%
X29900000Y-62800000D03*
%TO.P,RV2,3,3*%
X32400000Y-62800000D03*
%TD*%
D13*
%TO.P,D3,1,K*%
%TO.N,Net-(D3-K)*%
X38400000Y-42412500D03*
%TO.P,D3,2,A*%
%TO.N,Net-(D3-A)*%
X38400000Y-43987500D03*
%TD*%
D18*
%TO.P,R8,1*%
%TO.N,GND*%
X37600000Y-66425000D03*
%TO.P,R8,2*%
%TO.N,Net-(D7-A)*%
X37600000Y-64775000D03*
%TD*%
%TO.P,R7,1*%
%TO.N,GND*%
X36000000Y-66425000D03*
%TO.P,R7,2*%
%TO.N,Net-(D8-A)*%
X36000000Y-64775000D03*
%TD*%
%TO.P,R9,1*%
%TO.N,GND*%
X39200000Y-66425000D03*
%TO.P,R9,2*%
%TO.N,Net-(D6-A)*%
X39200000Y-64775000D03*
%TD*%
D16*
%TO.P,J2,S*%
%TO.N,GND*%
X22699999Y-130699999D03*
D17*
%TO.P,J2,T*%
%TO.N,Net-(U1A-+)*%
X34100000Y-130700000D03*
%TO.P,J2,TN*%
%TO.N,unconnected-(J2-PadTN)*%
X25800000Y-130700000D03*
%TD*%
D13*
%TO.P,D7,1,K*%
%TO.N,Net-(D6-A)*%
X38390000Y-55932500D03*
%TO.P,D7,2,A*%
%TO.N,Net-(D7-A)*%
X38390000Y-57507500D03*
%TD*%
%TO.P,D10,1,K*%
%TO.N,Net-(D10-K)*%
X38100000Y-129812500D03*
%TO.P,D10,2,A*%
%TO.N,Net-(D10-A)*%
X38100000Y-131387500D03*
%TD*%
%TO.P,D6,1,K*%
%TO.N,Net-(D6-K)*%
X38500000Y-51352500D03*
%TO.P,D6,2,A*%
%TO.N,Net-(D6-A)*%
X38500000Y-52927500D03*
%TD*%
D18*
%TO.P,R4,1*%
%TO.N,GND*%
X35500000Y-48725000D03*
%TO.P,R4,2*%
%TO.N,Net-(D3-K)*%
X35500000Y-47075000D03*
%TD*%
D13*
%TO.P,D8,1,K*%
%TO.N,Net-(D7-A)*%
X38400000Y-60512500D03*
%TO.P,D8,2,A*%
%TO.N,Net-(D8-A)*%
X38400000Y-62087500D03*
%TD*%
D23*
%TO.P,R2,1*%
%TO.N,Net-(D3-A)*%
X32825000Y-66400000D03*
%TO.P,R2,2*%
%TO.N,Net-(U1B--)*%
X31175000Y-66400000D03*
%TD*%
D13*
%TO.P,D11,1,K*%
%TO.N,Net-(D11-K)*%
X38100000Y-125912500D03*
%TO.P,D11,2,A*%
%TO.N,Net-(D10-K)*%
X38100000Y-127487500D03*
%TD*%
D24*
%TO.P,D1,1,K*%
%TO.N,Net-(D1-K)*%
X23300000Y-69850000D03*
%TO.P,D1,2,A*%
%TO.N,Net-(D1-A)*%
X23300000Y-71950000D03*
%TD*%
D25*
%TO.P,R3,1*%
%TO.N,Net-(D9-A)*%
X37900000Y-113075000D03*
%TO.P,R3,2*%
%TO.N,Net-(J3-PadT)*%
X37900000Y-114725000D03*
%TD*%
D13*
%TO.P,D4,1,K*%
%TO.N,Net-(D4-K)*%
X38400000Y-37812500D03*
%TO.P,D4,2,A*%
%TO.N,Net-(D3-K)*%
X38400000Y-39387500D03*
%TD*%
D18*
%TO.P,R5,1*%
%TO.N,GND*%
X37100000Y-48725000D03*
%TO.P,R5,2*%
%TO.N,Net-(D4-K)*%
X37100000Y-47075000D03*
%TD*%
D12*
%TO.P,R10,1*%
%TO.N,GND*%
X36975000Y-119200000D03*
%TO.P,R10,2*%
%TO.N,Net-(D11-K)*%
X38625000Y-119200000D03*
%TD*%
D20*
%TO.P,RV1,*%
%TO.N,*%
X25099999Y-37199999D03*
X34699999Y-37199999D03*
D21*
%TO.P,RV1,1,1*%
%TO.N,Net-(D1-K)*%
X27399999Y-44699999D03*
D22*
%TO.P,RV1,2,2*%
%TO.N,Net-(U2A-+)*%
X29900000Y-44700000D03*
%TO.P,RV1,3,3*%
X32400000Y-44700000D03*
%TD*%
D26*
%TO.P,C1,1*%
%TO.N,Net-(U2A-+)*%
X30505099Y-88999999D03*
D27*
%TO.P,C1,2*%
%TO.N,GND*%
X28005100Y-89000000D03*
%TD*%
D28*
%TO.N,GND*%
X35700000Y-60300000D03*
X28600000Y-75200000D03*
X24500000Y-75100000D03*
X27600000Y-105800000D03*
X23000000Y-105000000D03*
X23200000Y-96400000D03*
X29700000Y-79300000D03*
X27500000Y-67900000D03*
%TO.N,Net-(D6-K)*%
X37109500Y-51300000D03*
X39100000Y-70400000D03*
%TO.N,Net-(D11-K)*%
X37023200Y-125688000D03*
X38400000Y-117700000D03*
%TO.N,Net-(D9-A)*%
X25545500Y-104271000D03*
X37990300Y-112059000D03*
%TO.N,Net-(D3-A)*%
X30004200Y-69010000D03*
%TO.N,Net-(U1B--)*%
X31043400Y-74030800D03*
X31378800Y-67485300D03*
%TO.N,Net-(U1A-+)*%
X21335800Y-111174000D03*
%TO.N,+12V*%
X28642100Y-106872000D03*
%TO.N,-12V*%
X23802500Y-102942000D03*
%TO.N,Net-(D2-A)*%
X23664300Y-73481100D03*
%TO.N,Net-(U2A-+)*%
X24820300Y-99845900D03*
%TD*%
D29*
%TO.N,Net-(D11-K)*%
X38400000Y-118975000D02*
X38625000Y-119200000D01*
X38400000Y-117700000D02*
X38400000Y-118975000D01*
%TO.N,GND*%
X36975000Y-119200000D02*
X36975000Y-123200000D01*
%TO.N,Net-(D6-A)*%
X39660400Y-57202900D02*
X39660400Y-64314600D01*
%TO.N,Net-(D3-A)*%
X39501000Y-45088500D02*
X38400000Y-43987500D01*
X39501000Y-49187600D02*
X39501000Y-45088500D01*
X38488600Y-50200000D02*
X39501000Y-49187600D01*
X36100000Y-50900000D02*
X36800000Y-50200000D01*
X36700000Y-52257902D02*
X36100000Y-51657902D01*
X36100000Y-51657902D02*
X36100000Y-50900000D01*
X36800000Y-50200000D02*
X38488600Y-50200000D01*
X36700000Y-56377100D02*
X36700000Y-52257902D01*
X34330100Y-66213700D02*
X34330100Y-58747000D01*
X34330100Y-58747000D02*
X36700000Y-56377100D01*
%TO.N,Net-(D6-K)*%
X37109500Y-51300000D02*
X38447500Y-51300000D01*
X38447500Y-51300000D02*
X38500000Y-51352500D01*
X39200000Y-70400000D02*
X39100000Y-70400000D01*
X39200000Y-72121701D02*
X39200000Y-70400000D01*
X37000000Y-74168000D02*
X37153701Y-74168000D01*
X37153701Y-74168000D02*
X39200000Y-72121701D01*
X35157000Y-74168000D02*
X37000000Y-74168000D01*
X37000000Y-74168000D02*
X37159700Y-74168000D01*
%TO.N,Net-(D11-K)*%
X38100000Y-125912000D02*
X38099500Y-125912000D01*
X37247900Y-125912000D02*
X37023200Y-125688000D01*
X38099500Y-125912000D02*
X37247900Y-125912000D01*
X38099500Y-125912000D02*
X38100000Y-125912500D01*
%TO.N,Net-(D10-K)*%
X37797500Y-127488000D02*
X38099500Y-127488000D01*
X36266000Y-125956000D02*
X37797500Y-127488000D01*
X36266000Y-125193000D02*
X36266000Y-125956000D01*
X37800000Y-123659000D02*
X36266000Y-125193000D01*
X37800000Y-121850000D02*
X37800000Y-123659000D01*
X38550000Y-121100000D02*
X37800000Y-121850000D01*
X38099500Y-127488000D02*
X38100000Y-127487500D01*
X38100000Y-127488000D02*
X38100000Y-129812000D01*
X38099500Y-127488000D02*
X38100000Y-127488000D01*
X38100000Y-129812000D02*
X38100000Y-129812500D01*
%TO.N,Net-(D9-A)*%
X25545500Y-99529000D02*
X25545500Y-104271000D01*
X25084600Y-99068100D02*
X25545500Y-99529000D01*
X23225000Y-99068100D02*
X25084600Y-99068100D01*
X37990300Y-112985000D02*
X37900000Y-113075000D01*
X37990300Y-112059000D02*
X37990300Y-112985000D01*
X23225000Y-99465000D02*
X23225000Y-99068100D01*
X23225000Y-99068100D02*
X23225000Y-98195000D01*
X38100000Y-135287500D02*
X38100200Y-135287700D01*
X39364100Y-134023000D02*
X38100200Y-135287700D01*
X39364100Y-114539000D02*
X39364100Y-134023000D01*
X37900000Y-113075000D02*
X39364100Y-114539000D01*
X38100200Y-135287700D02*
X38100000Y-135288000D01*
%TO.N,Net-(D10-A)*%
X38100000Y-133712000D02*
X38100000Y-133712500D01*
X38100000Y-131388000D02*
X38503800Y-130984000D01*
X38100000Y-133712000D02*
X38100000Y-131388000D01*
X38503500Y-130984000D02*
X38100000Y-131387500D01*
X38503800Y-130984000D02*
X38503500Y-130984000D01*
X38907500Y-123482000D02*
X38625000Y-123200000D01*
X38907500Y-130580000D02*
X38907500Y-123482000D01*
X38503800Y-130984000D02*
X38907500Y-130580000D01*
%TO.N,Net-(D8-A)*%
X36000000Y-64487500D02*
X36000000Y-64775000D01*
X38400000Y-62087500D02*
X36000000Y-64487500D01*
%TO.N,Net-(D7-A)*%
X38390000Y-60502500D02*
X38400000Y-60512500D01*
X38390000Y-57507500D02*
X38390000Y-60502500D01*
X39201000Y-61313500D02*
X38400000Y-60512500D01*
X39201000Y-63174000D02*
X39201000Y-61313500D01*
X37600000Y-64775000D02*
X39201000Y-63174000D01*
%TO.N,Net-(D6-A)*%
X38390000Y-53037500D02*
X38390000Y-55932500D01*
X38500000Y-52927500D02*
X38390000Y-53037500D01*
X39660400Y-64314600D02*
X39200000Y-64775000D01*
X38390000Y-55932500D02*
X39660400Y-57202900D01*
%TO.N,Net-(D6-K)*%
X28273600Y-109065000D02*
X35175900Y-102163000D01*
X27875000Y-109065000D02*
X28273600Y-109065000D01*
X33546100Y-77250000D02*
X25720000Y-77250000D01*
X33546100Y-75778900D02*
X34125000Y-75200000D01*
X33546100Y-77250000D02*
X33546100Y-75778900D01*
X34125000Y-75200000D02*
X35157000Y-74168000D01*
X33680000Y-77250000D02*
X33613100Y-77250000D01*
X33613100Y-77250000D02*
X33546100Y-77250000D01*
X35175900Y-78812800D02*
X35175900Y-102163000D01*
X33613100Y-77250000D02*
X35175900Y-78812800D01*
%TO.N,Net-(D5-K)*%
X37948500Y-47826500D02*
X38700000Y-47075000D01*
X35029800Y-47826500D02*
X37948500Y-47826500D01*
X34679500Y-47476200D02*
X35029800Y-47826500D01*
X34679500Y-44153200D02*
X34679500Y-47476200D01*
X36579000Y-42253700D02*
X34679500Y-44153200D01*
X36579000Y-35033500D02*
X36579000Y-42253700D01*
X38400000Y-33212500D02*
X36579000Y-35033500D01*
%TO.N,Net-(D4-K)*%
X38400000Y-34787500D02*
X38400000Y-37812500D01*
X37100000Y-44023200D02*
X37100000Y-47075000D01*
X37923200Y-43200000D02*
X37100000Y-44023200D01*
X38867200Y-43200000D02*
X37923200Y-43200000D01*
X39201000Y-42866200D02*
X38867200Y-43200000D01*
X39201000Y-38613500D02*
X39201000Y-42866200D01*
X38400000Y-37812500D02*
X39201000Y-38613500D01*
%TO.N,Net-(D3-A)*%
X27302600Y-69010000D02*
X30004200Y-69010000D01*
X26920100Y-68627500D02*
X27302600Y-69010000D01*
X25820000Y-68627500D02*
X26920100Y-68627500D01*
X21877400Y-106747000D02*
X22925000Y-107795000D01*
X21877400Y-72408600D02*
X21877400Y-106747000D01*
X24719900Y-69566100D02*
X21877400Y-72408600D01*
X24719900Y-68627500D02*
X24719900Y-69566100D01*
X25820000Y-68627500D02*
X24719900Y-68627500D01*
X22925000Y-107795000D02*
X22925000Y-109065000D01*
X30386700Y-68627500D02*
X30004200Y-69010000D01*
X33780000Y-68627500D02*
X30386700Y-68627500D01*
X34330100Y-68627500D02*
X34330100Y-66213700D01*
X33780000Y-68627500D02*
X34330100Y-68627500D01*
X33011300Y-66213700D02*
X32825000Y-66400000D01*
X34330100Y-66213700D02*
X33011300Y-66213700D01*
%TO.N,Net-(D3-K)*%
X38400000Y-39387500D02*
X38400000Y-42412500D01*
X35500000Y-44976100D02*
X35500000Y-47075000D01*
X38063600Y-42412500D02*
X35500000Y-44976100D01*
X38400000Y-42412500D02*
X38063600Y-42412500D01*
%TO.N,Net-(U1B--)*%
X28306600Y-110335000D02*
X36100000Y-102542000D01*
X27875000Y-110335000D02*
X28306600Y-110335000D01*
X26986700Y-74030800D02*
X31043400Y-74030800D01*
X24360200Y-76657300D02*
X26986700Y-74030800D01*
X24360200Y-78314900D02*
X24360200Y-76657300D01*
X22539800Y-80135300D02*
X24360200Y-78314900D01*
X22539800Y-83086500D02*
X22539800Y-80135300D01*
X26514700Y-87061400D02*
X22539800Y-83086500D01*
X26514700Y-109364700D02*
X26514700Y-87061400D01*
X27485000Y-110335000D02*
X26514700Y-109364700D01*
X27875000Y-110335000D02*
X27485000Y-110335000D01*
X31305800Y-74030800D02*
X32475000Y-75200000D01*
X31043400Y-74030800D02*
X31305800Y-74030800D01*
X31175000Y-67281500D02*
X31175000Y-66400000D01*
X31378800Y-67485300D02*
X31175000Y-67281500D01*
%TO.N,Net-(J3-PadT)*%
X37900000Y-116620000D02*
X37900000Y-114725000D01*
X34120000Y-120400000D02*
X37900000Y-116620000D01*
%TO.N,Net-(U1A-+)*%
X22174800Y-110335000D02*
X22925000Y-110335000D01*
X21335800Y-111174000D02*
X22174800Y-110335000D01*
%TO.N,+12V*%
X27875000Y-107639000D02*
X28642100Y-106872000D01*
X27875000Y-107795000D02*
X27875000Y-107639000D01*
X28571000Y-98195000D02*
X28175000Y-98195000D01*
X29483200Y-99107200D02*
X28571000Y-98195000D01*
X29483200Y-106031000D02*
X29483200Y-99107200D01*
X28642100Y-106872000D02*
X29483200Y-106031000D01*
%TO.N,-12V*%
X23225000Y-102364000D02*
X23225000Y-102005000D01*
X23802500Y-102942000D02*
X23225000Y-102364000D01*
X24247800Y-103387000D02*
X23802500Y-102942000D01*
X24247800Y-110689000D02*
X24247800Y-103387000D01*
X23331800Y-111605000D02*
X24247800Y-110689000D01*
X22925000Y-111605000D02*
X23331800Y-111605000D01*
%TO.N,Net-(D2-A)*%
X23100000Y-74045400D02*
X23100000Y-78427500D01*
X23664300Y-73481100D02*
X23100000Y-74045400D01*
%TO.N,Net-(D2-K)*%
X25720000Y-81750000D02*
X25720000Y-81262400D01*
X32092300Y-81262400D02*
X25720000Y-81262400D01*
X32579900Y-81750000D02*
X32092300Y-81262400D01*
X33680000Y-81750000D02*
X32579900Y-81750000D01*
X24985100Y-80527500D02*
X25720000Y-81262400D01*
X23100000Y-80527500D02*
X24985100Y-80527500D01*
%TO.N,Net-(D1-A)*%
X25820000Y-73127500D02*
X25820000Y-72639900D01*
X32192300Y-72639900D02*
X25820000Y-72639900D01*
X32679900Y-73127500D02*
X32192300Y-72639900D01*
X33780000Y-73127500D02*
X32679900Y-73127500D01*
X25130100Y-71950000D02*
X25820000Y-72639900D01*
X23300000Y-71950000D02*
X25130100Y-71950000D01*
%TO.N,Net-(D1-K)*%
X23300000Y-50025100D02*
X23300000Y-69850000D01*
X27400000Y-45925100D02*
X23300000Y-50025100D01*
X27400000Y-44700000D02*
X27400000Y-45925100D01*
%TO.N,Net-(U2A-+)*%
X23931200Y-100735000D02*
X23225000Y-100735000D01*
X24820300Y-99845900D02*
X23931200Y-100735000D01*
%TD*%
%TA.AperFunction,Conductor*%
%TO.N,GND*%
G36*
X40257500Y-20017113D02*
G01*
X40302887Y-20062500D01*
X40319500Y-20124500D01*
X40319500Y-44796132D01*
X40301431Y-44860589D01*
X40252488Y-44906261D01*
X40186937Y-44919836D01*
X40123882Y-44897359D01*
X40081747Y-44845439D01*
X40079618Y-44838110D01*
X40075647Y-44831396D01*
X40075645Y-44831391D01*
X40069421Y-44820868D01*
X40060858Y-44803390D01*
X40053486Y-44784768D01*
X40048902Y-44778459D01*
X40048899Y-44778453D01*
X40027817Y-44749437D01*
X40021401Y-44739670D01*
X40003143Y-44708796D01*
X40003140Y-44708792D01*
X39999170Y-44702079D01*
X39985005Y-44687914D01*
X39972368Y-44673118D01*
X39965184Y-44663229D01*
X39965178Y-44663223D01*
X39960594Y-44656913D01*
X39926946Y-44629077D01*
X39918305Y-44621214D01*
X39411819Y-44114728D01*
X39384939Y-44074500D01*
X39375500Y-44027047D01*
X39375500Y-43723975D01*
X39375500Y-43720826D01*
X39368090Y-43648303D01*
X39374622Y-43594139D01*
X39403766Y-43548022D01*
X39588312Y-43363476D01*
X39596480Y-43356044D01*
X39602877Y-43351986D01*
X39648904Y-43302971D01*
X39651551Y-43300238D01*
X39671120Y-43280671D01*
X39673585Y-43277492D01*
X39681167Y-43268616D01*
X39711062Y-43236782D01*
X39720713Y-43219223D01*
X39731390Y-43202970D01*
X39743673Y-43187136D01*
X39761018Y-43147052D01*
X39766151Y-43136571D01*
X39787197Y-43098292D01*
X39792179Y-43078884D01*
X39798482Y-43060476D01*
X39806437Y-43042096D01*
X39813271Y-42998944D01*
X39815633Y-42987538D01*
X39826500Y-42945219D01*
X39826500Y-42925183D01*
X39828027Y-42905785D01*
X39829939Y-42893712D01*
X39831160Y-42886004D01*
X39827049Y-42842528D01*
X39826500Y-42830858D01*
X39826500Y-38691272D01*
X39827020Y-38680219D01*
X39828672Y-38672833D01*
X39826561Y-38605645D01*
X39826500Y-38601751D01*
X39826500Y-38578045D01*
X39826500Y-38574150D01*
X39825998Y-38570181D01*
X39825080Y-38558524D01*
X39823954Y-38522673D01*
X39823709Y-38514873D01*
X39818120Y-38495640D01*
X39814174Y-38476583D01*
X39812641Y-38464444D01*
X39811664Y-38456708D01*
X39795582Y-38416091D01*
X39791803Y-38405051D01*
X39781795Y-38370602D01*
X39781793Y-38370599D01*
X39779618Y-38363110D01*
X39769417Y-38345860D01*
X39760863Y-38328401D01*
X39753486Y-38309768D01*
X39727808Y-38274425D01*
X39721401Y-38264671D01*
X39703142Y-38233796D01*
X39703141Y-38233794D01*
X39699170Y-38227080D01*
X39685004Y-38212914D01*
X39672370Y-38198122D01*
X39660594Y-38181913D01*
X39654583Y-38176940D01*
X39654581Y-38176938D01*
X39626941Y-38154073D01*
X39618300Y-38146210D01*
X39411819Y-37939729D01*
X39384939Y-37899501D01*
X39375500Y-37852048D01*
X39375500Y-37548975D01*
X39375500Y-37545826D01*
X39365436Y-37447315D01*
X39312549Y-37287713D01*
X39224281Y-37144609D01*
X39105391Y-37025719D01*
X39099246Y-37021928D01*
X39099244Y-37021927D01*
X39084404Y-37012774D01*
X39041223Y-36967667D01*
X39025500Y-36907235D01*
X39025500Y-35692765D01*
X39041223Y-35632333D01*
X39084404Y-35587226D01*
X39105391Y-35574281D01*
X39224281Y-35455391D01*
X39312549Y-35312287D01*
X39365436Y-35152685D01*
X39375500Y-35054174D01*
X39375500Y-34520826D01*
X39365436Y-34422315D01*
X39312549Y-34262713D01*
X39224281Y-34119609D01*
X39192353Y-34087681D01*
X39160259Y-34032094D01*
X39160259Y-33967906D01*
X39192353Y-33912319D01*
X39192352Y-33912319D01*
X39224281Y-33880391D01*
X39312549Y-33737287D01*
X39365436Y-33577685D01*
X39375500Y-33479174D01*
X39375500Y-32945826D01*
X39365436Y-32847315D01*
X39312549Y-32687713D01*
X39224281Y-32544609D01*
X39105391Y-32425719D01*
X39099241Y-32421925D01*
X39099239Y-32421924D01*
X38968435Y-32341243D01*
X38968434Y-32341242D01*
X38962287Y-32337451D01*
X38802685Y-32284564D01*
X38795952Y-32283876D01*
X38795947Y-32283875D01*
X38707305Y-32274819D01*
X38707288Y-32274818D01*
X38704174Y-32274500D01*
X38095826Y-32274500D01*
X38092712Y-32274818D01*
X38092694Y-32274819D01*
X38004052Y-32283875D01*
X38004045Y-32283876D01*
X37997315Y-32284564D01*
X37990889Y-32286693D01*
X37990886Y-32286694D01*
X37844568Y-32335179D01*
X37844564Y-32335180D01*
X37837713Y-32337451D01*
X37831569Y-32341240D01*
X37831564Y-32341243D01*
X37700760Y-32421924D01*
X37700754Y-32421928D01*
X37694609Y-32425719D01*
X37689502Y-32430825D01*
X37689498Y-32430829D01*
X37580829Y-32539498D01*
X37580825Y-32539502D01*
X37575719Y-32544609D01*
X37571928Y-32550754D01*
X37571924Y-32550760D01*
X37491243Y-32681564D01*
X37491240Y-32681569D01*
X37487451Y-32687713D01*
X37434564Y-32847315D01*
X37433876Y-32854045D01*
X37433875Y-32854052D01*
X37424819Y-32942694D01*
X37424818Y-32942712D01*
X37424500Y-32945826D01*
X37424500Y-32948975D01*
X37424500Y-33252048D01*
X37415061Y-33299501D01*
X37388181Y-33339729D01*
X36191696Y-34536211D01*
X36183511Y-34543659D01*
X36177123Y-34547714D01*
X36171788Y-34553394D01*
X36171783Y-34553399D01*
X36131096Y-34596725D01*
X36128392Y-34599516D01*
X36111628Y-34616280D01*
X36111621Y-34616287D01*
X36108880Y-34619029D01*
X36106500Y-34622096D01*
X36106489Y-34622109D01*
X36106400Y-34622225D01*
X36098842Y-34631070D01*
X36074280Y-34657227D01*
X36074273Y-34657236D01*
X36068938Y-34662918D01*
X36065182Y-34669749D01*
X36065179Y-34669754D01*
X36059285Y-34680475D01*
X36048609Y-34696727D01*
X36041109Y-34706396D01*
X36041101Y-34706407D01*
X36036327Y-34712564D01*
X36033234Y-34719708D01*
X36033229Y-34719719D01*
X36018974Y-34752660D01*
X36013838Y-34763143D01*
X35992803Y-34801408D01*
X35990864Y-34808956D01*
X35990863Y-34808961D01*
X35987822Y-34820807D01*
X35981521Y-34839211D01*
X35976658Y-34850448D01*
X35976656Y-34850452D01*
X35973562Y-34857604D01*
X35972342Y-34865303D01*
X35972342Y-34865305D01*
X35966729Y-34900741D01*
X35964361Y-34912176D01*
X35955438Y-34946928D01*
X35955436Y-34946936D01*
X35953500Y-34954481D01*
X35953500Y-34962277D01*
X35953500Y-34974517D01*
X35951974Y-34993902D01*
X35948840Y-35013696D01*
X35949574Y-35021461D01*
X35949574Y-35021464D01*
X35952950Y-35057176D01*
X35953500Y-35068845D01*
X35953500Y-35307998D01*
X35935346Y-35372595D01*
X35886198Y-35418276D01*
X35820449Y-35431667D01*
X35757350Y-35408846D01*
X35675491Y-35350281D01*
X35675488Y-35350279D01*
X35671802Y-35347642D01*
X35643236Y-35332955D01*
X35433632Y-35225189D01*
X35433625Y-35225186D01*
X35429597Y-35223115D01*
X35425312Y-35221653D01*
X35425307Y-35221651D01*
X35176124Y-35136642D01*
X35176122Y-35136641D01*
X35171841Y-35135181D01*
X35149679Y-35131087D01*
X34908489Y-35086537D01*
X34908478Y-35086535D01*
X34904029Y-35085714D01*
X34899500Y-35085548D01*
X34899496Y-35085548D01*
X34636397Y-35075933D01*
X34636390Y-35075933D01*
X34631869Y-35075768D01*
X34627372Y-35076262D01*
X34627366Y-35076263D01*
X34365672Y-35105057D01*
X34365663Y-35105058D01*
X34361161Y-35105554D01*
X34356782Y-35106698D01*
X34356770Y-35106701D01*
X34102049Y-35173294D01*
X34102046Y-35173295D01*
X34097674Y-35174438D01*
X34093524Y-35176201D01*
X34093511Y-35176206D01*
X33851191Y-35279182D01*
X33851183Y-35279185D01*
X33847025Y-35280953D01*
X33843168Y-35283306D01*
X33843158Y-35283312D01*
X33618428Y-35420463D01*
X33618418Y-35420469D01*
X33614556Y-35422827D01*
X33611071Y-35425726D01*
X33611067Y-35425730D01*
X33408706Y-35594136D01*
X33408700Y-35594141D01*
X33405221Y-35597037D01*
X33402203Y-35600404D01*
X33402199Y-35600409D01*
X33226498Y-35796502D01*
X33226492Y-35796508D01*
X33223482Y-35799869D01*
X33220989Y-35803636D01*
X33220986Y-35803641D01*
X33075711Y-36023224D01*
X33075708Y-36023229D01*
X33073212Y-36027002D01*
X33071295Y-36031089D01*
X33071290Y-36031100D01*
X32959533Y-36269499D01*
X32959530Y-36269506D01*
X32957614Y-36273594D01*
X32956314Y-36277912D01*
X32956310Y-36277925D01*
X32880458Y-36530050D01*
X32879153Y-36534389D01*
X32878494Y-36538865D01*
X32878493Y-36538871D01*
X32840158Y-36799354D01*
X32840157Y-36799361D01*
X32839500Y-36803829D01*
X32839500Y-37528000D01*
X32839664Y-37530251D01*
X32839665Y-37530257D01*
X32844817Y-37600645D01*
X32854403Y-37731616D01*
X32855386Y-37736031D01*
X32855388Y-37736041D01*
X32912630Y-37993011D01*
X32912633Y-37993023D01*
X32913618Y-37997442D01*
X32915237Y-38001676D01*
X32915238Y-38001678D01*
X32964508Y-38130500D01*
X33010907Y-38251814D01*
X33013125Y-38255766D01*
X33141978Y-38485359D01*
X33141981Y-38485364D01*
X33144196Y-38489310D01*
X33146964Y-38492895D01*
X33146965Y-38492896D01*
X33158148Y-38507378D01*
X33310645Y-38704868D01*
X33313906Y-38708012D01*
X33503437Y-38890744D01*
X33503442Y-38890748D01*
X33506705Y-38893894D01*
X33728198Y-39052358D01*
X33970403Y-39176885D01*
X34228159Y-39264819D01*
X34495971Y-39314286D01*
X34768131Y-39324232D01*
X35038839Y-39294446D01*
X35302326Y-39225562D01*
X35552975Y-39119047D01*
X35764903Y-38989708D01*
X35827235Y-38971575D01*
X35890188Y-38987420D01*
X35936508Y-39032901D01*
X35953500Y-39095554D01*
X35953500Y-41943248D01*
X35944061Y-41990701D01*
X35917181Y-42030929D01*
X34292196Y-43655911D01*
X34284011Y-43663359D01*
X34277623Y-43667414D01*
X34272288Y-43673094D01*
X34272283Y-43673099D01*
X34231596Y-43716425D01*
X34228892Y-43719216D01*
X34212128Y-43735980D01*
X34212121Y-43735987D01*
X34209380Y-43738729D01*
X34207000Y-43741796D01*
X34206989Y-43741809D01*
X34206900Y-43741925D01*
X34199342Y-43750770D01*
X34174780Y-43776927D01*
X34174773Y-43776936D01*
X34169438Y-43782618D01*
X34165682Y-43789449D01*
X34165679Y-43789454D01*
X34159785Y-43800175D01*
X34149109Y-43816427D01*
X34141609Y-43826096D01*
X34141601Y-43826107D01*
X34136827Y-43832264D01*
X34133734Y-43839408D01*
X34133729Y-43839419D01*
X34119474Y-43872360D01*
X34114338Y-43882843D01*
X34097060Y-43914273D01*
X34093303Y-43921108D01*
X34091364Y-43928656D01*
X34091363Y-43928661D01*
X34088322Y-43940507D01*
X34082021Y-43958911D01*
X34077158Y-43970148D01*
X34077156Y-43970152D01*
X34074062Y-43977304D01*
X34072842Y-43985003D01*
X34072842Y-43985005D01*
X34067229Y-44020441D01*
X34064861Y-44031876D01*
X34055938Y-44066628D01*
X34055936Y-44066636D01*
X34054000Y-44074181D01*
X34054000Y-44081977D01*
X34054000Y-44094217D01*
X34052474Y-44113602D01*
X34049340Y-44133396D01*
X34050074Y-44141161D01*
X34050074Y-44141164D01*
X34053450Y-44176876D01*
X34054000Y-44188545D01*
X34054000Y-47398425D01*
X34053478Y-47409480D01*
X34051827Y-47416867D01*
X34052071Y-47424653D01*
X34052071Y-47424661D01*
X34053939Y-47484073D01*
X34054000Y-47487968D01*
X34054000Y-47515550D01*
X34054488Y-47519419D01*
X34054489Y-47519425D01*
X34054504Y-47519543D01*
X34055418Y-47531166D01*
X34056545Y-47567030D01*
X34056546Y-47567037D01*
X34056791Y-47574827D01*
X34058967Y-47582319D01*
X34058968Y-47582321D01*
X34062379Y-47594062D01*
X34066325Y-47613115D01*
X34068836Y-47632992D01*
X34071706Y-47640242D01*
X34071708Y-47640248D01*
X34084914Y-47673604D01*
X34088697Y-47684651D01*
X34100882Y-47726590D01*
X34104853Y-47733305D01*
X34104854Y-47733307D01*
X34111081Y-47743837D01*
X34119636Y-47761299D01*
X34124142Y-47772680D01*
X34124143Y-47772683D01*
X34127014Y-47779932D01*
X34148940Y-47810112D01*
X34152681Y-47815260D01*
X34159093Y-47825022D01*
X34177356Y-47855902D01*
X34177359Y-47855907D01*
X34181330Y-47862620D01*
X34186845Y-47868135D01*
X34195490Y-47876780D01*
X34208126Y-47891574D01*
X34215319Y-47901475D01*
X34215323Y-47901479D01*
X34219906Y-47907787D01*
X34225916Y-47912759D01*
X34225917Y-47912760D01*
X34253556Y-47935625D01*
X34262196Y-47943487D01*
X34522402Y-48203692D01*
X34555118Y-48261697D01*
X34553107Y-48328262D01*
X34533360Y-48391632D01*
X34530815Y-48404431D01*
X34525661Y-48461143D01*
X34528450Y-48471549D01*
X34541326Y-48475000D01*
X38751500Y-48475000D01*
X38813500Y-48491613D01*
X38858887Y-48537000D01*
X38875500Y-48599000D01*
X38875500Y-48851000D01*
X38858887Y-48913000D01*
X38813500Y-48958387D01*
X38751500Y-48975000D01*
X35766326Y-48975000D01*
X35753450Y-48978450D01*
X35750000Y-48991326D01*
X35750000Y-49608673D01*
X35753450Y-49621548D01*
X35766326Y-49624999D01*
X35828753Y-49624999D01*
X35834386Y-49624743D01*
X35895570Y-49619184D01*
X35908369Y-49616638D01*
X36057232Y-49570251D01*
X36070820Y-49564135D01*
X36203456Y-49483954D01*
X36221080Y-49470147D01*
X36222388Y-49471816D01*
X36267906Y-49445536D01*
X36332094Y-49445536D01*
X36377611Y-49471816D01*
X36378920Y-49470147D01*
X36396543Y-49483954D01*
X36410337Y-49492293D01*
X36452381Y-49534388D01*
X36469978Y-49591221D01*
X36459078Y-49649709D01*
X36422190Y-49696387D01*
X36420288Y-49697862D01*
X36413579Y-49701830D01*
X36408068Y-49707339D01*
X36408061Y-49707346D01*
X36399407Y-49716000D01*
X36384624Y-49728626D01*
X36374727Y-49735817D01*
X36374720Y-49735823D01*
X36368413Y-49740406D01*
X36363446Y-49746408D01*
X36363435Y-49746420D01*
X36340570Y-49774059D01*
X36332710Y-49782697D01*
X35712696Y-50402711D01*
X35704511Y-50410159D01*
X35698123Y-50414214D01*
X35692788Y-50419894D01*
X35692783Y-50419899D01*
X35652096Y-50463225D01*
X35649392Y-50466016D01*
X35632628Y-50482780D01*
X35632621Y-50482787D01*
X35629880Y-50485529D01*
X35627500Y-50488596D01*
X35627489Y-50488609D01*
X35627400Y-50488725D01*
X35619842Y-50497570D01*
X35595280Y-50523727D01*
X35595273Y-50523736D01*
X35589938Y-50529418D01*
X35586182Y-50536249D01*
X35586179Y-50536254D01*
X35580285Y-50546975D01*
X35569609Y-50563227D01*
X35562109Y-50572896D01*
X35562101Y-50572907D01*
X35557327Y-50579064D01*
X35554234Y-50586208D01*
X35554229Y-50586219D01*
X35539974Y-50619160D01*
X35534838Y-50629643D01*
X35513803Y-50667908D01*
X35511864Y-50675456D01*
X35511863Y-50675461D01*
X35508822Y-50687307D01*
X35502521Y-50705711D01*
X35497658Y-50716948D01*
X35497656Y-50716952D01*
X35494562Y-50724104D01*
X35493342Y-50731803D01*
X35493342Y-50731805D01*
X35487729Y-50767241D01*
X35485361Y-50778676D01*
X35476438Y-50813428D01*
X35476436Y-50813436D01*
X35474500Y-50820981D01*
X35474500Y-50828777D01*
X35474500Y-50841017D01*
X35472974Y-50860402D01*
X35469840Y-50880196D01*
X35470574Y-50887961D01*
X35470574Y-50887964D01*
X35473950Y-50923676D01*
X35474500Y-50935345D01*
X35474500Y-51580127D01*
X35473978Y-51591182D01*
X35472327Y-51598569D01*
X35472571Y-51606355D01*
X35472571Y-51606363D01*
X35474439Y-51665775D01*
X35474500Y-51669670D01*
X35474500Y-51697252D01*
X35474988Y-51701121D01*
X35474989Y-51701127D01*
X35475004Y-51701245D01*
X35475918Y-51712868D01*
X35477045Y-51748732D01*
X35477046Y-51748739D01*
X35477291Y-51756529D01*
X35479467Y-51764021D01*
X35479468Y-51764023D01*
X35482879Y-51775764D01*
X35486825Y-51794817D01*
X35489336Y-51814694D01*
X35492206Y-51821944D01*
X35492208Y-51821950D01*
X35505414Y-51855306D01*
X35509197Y-51866353D01*
X35521382Y-51908292D01*
X35525353Y-51915007D01*
X35525354Y-51915009D01*
X35531581Y-51925539D01*
X35540136Y-51943001D01*
X35544642Y-51954382D01*
X35544643Y-51954385D01*
X35547514Y-51961634D01*
X35569440Y-51991814D01*
X35573181Y-51996962D01*
X35579593Y-52006724D01*
X35597856Y-52037604D01*
X35597859Y-52037609D01*
X35601830Y-52044322D01*
X35607345Y-52049837D01*
X35615990Y-52058482D01*
X35628626Y-52073276D01*
X35635819Y-52083177D01*
X35635823Y-52083181D01*
X35640406Y-52089489D01*
X35646415Y-52094460D01*
X35646416Y-52094461D01*
X35674058Y-52117328D01*
X35682699Y-52125191D01*
X36038181Y-52480674D01*
X36065061Y-52520902D01*
X36074500Y-52568355D01*
X36074500Y-53494566D01*
X36056346Y-53559163D01*
X36007198Y-53604844D01*
X35941449Y-53618235D01*
X35878350Y-53595414D01*
X35675491Y-53450281D01*
X35675488Y-53450279D01*
X35671802Y-53447642D01*
X35562007Y-53391192D01*
X35433632Y-53325189D01*
X35433625Y-53325186D01*
X35429597Y-53323115D01*
X35425312Y-53321653D01*
X35425307Y-53321651D01*
X35176124Y-53236642D01*
X35176122Y-53236641D01*
X35171841Y-53235181D01*
X35149679Y-53231087D01*
X34908489Y-53186537D01*
X34908478Y-53186535D01*
X34904029Y-53185714D01*
X34899500Y-53185548D01*
X34899496Y-53185548D01*
X34636397Y-53175933D01*
X34636390Y-53175933D01*
X34631869Y-53175768D01*
X34627372Y-53176262D01*
X34627366Y-53176263D01*
X34365672Y-53205057D01*
X34365663Y-53205058D01*
X34361161Y-53205554D01*
X34356782Y-53206698D01*
X34356770Y-53206701D01*
X34102049Y-53273294D01*
X34102046Y-53273295D01*
X34097674Y-53274438D01*
X34093524Y-53276201D01*
X34093511Y-53276206D01*
X33851191Y-53379182D01*
X33851183Y-53379185D01*
X33847025Y-53380953D01*
X33843168Y-53383306D01*
X33843158Y-53383312D01*
X33618428Y-53520463D01*
X33618418Y-53520469D01*
X33614556Y-53522827D01*
X33611071Y-53525726D01*
X33611067Y-53525730D01*
X33408706Y-53694136D01*
X33408700Y-53694141D01*
X33405221Y-53697037D01*
X33402203Y-53700404D01*
X33402199Y-53700409D01*
X33226498Y-53896502D01*
X33226492Y-53896508D01*
X33223482Y-53899869D01*
X33220989Y-53903636D01*
X33220986Y-53903641D01*
X33075711Y-54123224D01*
X33075708Y-54123229D01*
X33073212Y-54127002D01*
X33071295Y-54131089D01*
X33071290Y-54131100D01*
X32959533Y-54369499D01*
X32959530Y-54369506D01*
X32957614Y-54373594D01*
X32956314Y-54377912D01*
X32956310Y-54377925D01*
X32880458Y-54630050D01*
X32879153Y-54634389D01*
X32878494Y-54638865D01*
X32878493Y-54638871D01*
X32840158Y-54899354D01*
X32840157Y-54899361D01*
X32839500Y-54903829D01*
X32839500Y-55628000D01*
X32839664Y-55630251D01*
X32839665Y-55630257D01*
X32844817Y-55700645D01*
X32854403Y-55831616D01*
X32855386Y-55836031D01*
X32855388Y-55836041D01*
X32912630Y-56093011D01*
X32912633Y-56093023D01*
X32913618Y-56097442D01*
X32915237Y-56101676D01*
X32915238Y-56101678D01*
X32964508Y-56230500D01*
X33010907Y-56351814D01*
X33013125Y-56355766D01*
X33141978Y-56585359D01*
X33141981Y-56585364D01*
X33144196Y-56589310D01*
X33310645Y-56804868D01*
X33313906Y-56808012D01*
X33503437Y-56990744D01*
X33503442Y-56990748D01*
X33506705Y-56993894D01*
X33728198Y-57152358D01*
X33970403Y-57276885D01*
X34228159Y-57364819D01*
X34494461Y-57414007D01*
X34495971Y-57414286D01*
X34495912Y-57414604D01*
X34557295Y-57439857D01*
X34597167Y-57495848D01*
X34601092Y-57564473D01*
X34567863Y-57624644D01*
X33942796Y-58249711D01*
X33934611Y-58257159D01*
X33928223Y-58261214D01*
X33922888Y-58266894D01*
X33922883Y-58266899D01*
X33882196Y-58310225D01*
X33879492Y-58313016D01*
X33862728Y-58329780D01*
X33862721Y-58329787D01*
X33859980Y-58332529D01*
X33857600Y-58335596D01*
X33857589Y-58335609D01*
X33857500Y-58335725D01*
X33849942Y-58344570D01*
X33825380Y-58370727D01*
X33825373Y-58370736D01*
X33820038Y-58376418D01*
X33816282Y-58383249D01*
X33816279Y-58383254D01*
X33810385Y-58393975D01*
X33799709Y-58410227D01*
X33792209Y-58419896D01*
X33792201Y-58419907D01*
X33787427Y-58426064D01*
X33784334Y-58433208D01*
X33784329Y-58433219D01*
X33770074Y-58466160D01*
X33764938Y-58476643D01*
X33743903Y-58514908D01*
X33741964Y-58522456D01*
X33741963Y-58522461D01*
X33738922Y-58534307D01*
X33732621Y-58552711D01*
X33727758Y-58563948D01*
X33727756Y-58563952D01*
X33724662Y-58571104D01*
X33723442Y-58578803D01*
X33723442Y-58578805D01*
X33717829Y-58614241D01*
X33715461Y-58625676D01*
X33706538Y-58660428D01*
X33706536Y-58660436D01*
X33704600Y-58667981D01*
X33704600Y-58675777D01*
X33704600Y-58688017D01*
X33703074Y-58707402D01*
X33699940Y-58727196D01*
X33700674Y-58734961D01*
X33700674Y-58734964D01*
X33704050Y-58770676D01*
X33704600Y-58782345D01*
X33704600Y-61831563D01*
X33690616Y-61888769D01*
X33651817Y-61933073D01*
X33596954Y-61954480D01*
X33538403Y-61948163D01*
X33489370Y-61915546D01*
X33427944Y-61848819D01*
X33351784Y-61766087D01*
X33304201Y-61729052D01*
X33172672Y-61626679D01*
X33172671Y-61626678D01*
X33168626Y-61623530D01*
X33068913Y-61569568D01*
X32969007Y-61515501D01*
X32969002Y-61515499D01*
X32964503Y-61513064D01*
X32959657Y-61511400D01*
X32959654Y-61511399D01*
X32749834Y-61439368D01*
X32749833Y-61439367D01*
X32744981Y-61437702D01*
X32739931Y-61436859D01*
X32739922Y-61436857D01*
X32521111Y-61400344D01*
X32521102Y-61400343D01*
X32516049Y-61399500D01*
X32283951Y-61399500D01*
X32278898Y-61400343D01*
X32278888Y-61400344D01*
X32060077Y-61436857D01*
X32060065Y-61436859D01*
X32055019Y-61437702D01*
X32050169Y-61439366D01*
X32050165Y-61439368D01*
X31840345Y-61511399D01*
X31840337Y-61511402D01*
X31835497Y-61513064D01*
X31831001Y-61515496D01*
X31830992Y-61515501D01*
X31635882Y-61621090D01*
X31635878Y-61621092D01*
X31631374Y-61623530D01*
X31627334Y-61626674D01*
X31627327Y-61626679D01*
X31452263Y-61762936D01*
X31452255Y-61762943D01*
X31448216Y-61766087D01*
X31444746Y-61769855D01*
X31444742Y-61769860D01*
X31310630Y-61915546D01*
X31291021Y-61936847D01*
X31288226Y-61941124D01*
X31288219Y-61941134D01*
X31253809Y-61993804D01*
X31209017Y-62035037D01*
X31150000Y-62049982D01*
X31090983Y-62035037D01*
X31046191Y-61993804D01*
X31011780Y-61941134D01*
X31011778Y-61941132D01*
X31008979Y-61936847D01*
X30851784Y-61766087D01*
X30804201Y-61729052D01*
X30672672Y-61626679D01*
X30672671Y-61626678D01*
X30668626Y-61623530D01*
X30568913Y-61569568D01*
X30469007Y-61515501D01*
X30469002Y-61515499D01*
X30464503Y-61513064D01*
X30459657Y-61511400D01*
X30459654Y-61511399D01*
X30249834Y-61439368D01*
X30249833Y-61439367D01*
X30244981Y-61437702D01*
X30239931Y-61436859D01*
X30239922Y-61436857D01*
X30021111Y-61400344D01*
X30021102Y-61400343D01*
X30016049Y-61399500D01*
X29783951Y-61399500D01*
X29778898Y-61400343D01*
X29778888Y-61400344D01*
X29560077Y-61436857D01*
X29560065Y-61436859D01*
X29555019Y-61437702D01*
X29550169Y-61439366D01*
X29550165Y-61439368D01*
X29340345Y-61511399D01*
X29340337Y-61511402D01*
X29335497Y-61513064D01*
X29331001Y-61515496D01*
X29330992Y-61515501D01*
X29135882Y-61621090D01*
X29135878Y-61621092D01*
X29131374Y-61623530D01*
X29127334Y-61626674D01*
X29127327Y-61626679D01*
X28954436Y-61761245D01*
X28902007Y-61785099D01*
X28844458Y-61782691D01*
X28794205Y-61754541D01*
X28762092Y-61706723D01*
X28746896Y-61665981D01*
X28743796Y-61657669D01*
X28657546Y-61542454D01*
X28621541Y-61515501D01*
X28549431Y-61461519D01*
X28549430Y-61461518D01*
X28542331Y-61456204D01*
X28444215Y-61419609D01*
X28414752Y-61408620D01*
X28414750Y-61408619D01*
X28407483Y-61405909D01*
X28399770Y-61405079D01*
X28399767Y-61405079D01*
X28351180Y-61399855D01*
X28351169Y-61399854D01*
X28347873Y-61399500D01*
X28344550Y-61399500D01*
X26455439Y-61399500D01*
X26455420Y-61399500D01*
X26452128Y-61399501D01*
X26448850Y-61399853D01*
X26448838Y-61399854D01*
X26400231Y-61405079D01*
X26400225Y-61405080D01*
X26392517Y-61405909D01*
X26385252Y-61408618D01*
X26385246Y-61408620D01*
X26265980Y-61453104D01*
X26265978Y-61453104D01*
X26257669Y-61456204D01*
X26250572Y-61461516D01*
X26250568Y-61461519D01*
X26149550Y-61537141D01*
X26149546Y-61537144D01*
X26142454Y-61542454D01*
X26137144Y-61549546D01*
X26137141Y-61549550D01*
X26061519Y-61650568D01*
X26061516Y-61650572D01*
X26056204Y-61657669D01*
X26053104Y-61665978D01*
X26053104Y-61665980D01*
X26008620Y-61785247D01*
X26008619Y-61785250D01*
X26005909Y-61792517D01*
X26005079Y-61800227D01*
X26005079Y-61800232D01*
X25999855Y-61848819D01*
X25999854Y-61848831D01*
X25999500Y-61852127D01*
X25999500Y-61855448D01*
X25999500Y-61855449D01*
X25999500Y-63744560D01*
X25999500Y-63744578D01*
X25999501Y-63747872D01*
X25999853Y-63751150D01*
X25999854Y-63751161D01*
X26005079Y-63799768D01*
X26005080Y-63799773D01*
X26005909Y-63807483D01*
X26008619Y-63814749D01*
X26008620Y-63814753D01*
X26027384Y-63865061D01*
X26056204Y-63942331D01*
X26061518Y-63949430D01*
X26061519Y-63949431D01*
X26117963Y-64024831D01*
X26142454Y-64057546D01*
X26257669Y-64143796D01*
X26392517Y-64194091D01*
X26452127Y-64200500D01*
X28347872Y-64200499D01*
X28407483Y-64194091D01*
X28542331Y-64143796D01*
X28657546Y-64057546D01*
X28743796Y-63942331D01*
X28762092Y-63893274D01*
X28794204Y-63845458D01*
X28844457Y-63817308D01*
X28902007Y-63814900D01*
X28954435Y-63838753D01*
X29131374Y-63976470D01*
X29335497Y-64086936D01*
X29555019Y-64162298D01*
X29783951Y-64200500D01*
X30010916Y-64200500D01*
X30016049Y-64200500D01*
X30244981Y-64162298D01*
X30464503Y-64086936D01*
X30668626Y-63976470D01*
X30851784Y-63833913D01*
X31008979Y-63663153D01*
X31046191Y-63606194D01*
X31090980Y-63564963D01*
X31149997Y-63550017D01*
X31209015Y-63564962D01*
X31253807Y-63606195D01*
X31288213Y-63658857D01*
X31288218Y-63658863D01*
X31291021Y-63663153D01*
X31448216Y-63833913D01*
X31452262Y-63837062D01*
X31452263Y-63837063D01*
X31524486Y-63893276D01*
X31631374Y-63976470D01*
X31835497Y-64086936D01*
X32055019Y-64162298D01*
X32283951Y-64200500D01*
X32510916Y-64200500D01*
X32516049Y-64200500D01*
X32744981Y-64162298D01*
X32964503Y-64086936D01*
X33168626Y-63976470D01*
X33351784Y-63833913D01*
X33489370Y-63684453D01*
X33538403Y-63651837D01*
X33596954Y-63645520D01*
X33651817Y-63666927D01*
X33690616Y-63711231D01*
X33704600Y-63768437D01*
X33704600Y-65464200D01*
X33687987Y-65526200D01*
X33642600Y-65571587D01*
X33580600Y-65588200D01*
X33525342Y-65588200D01*
X33484890Y-65581416D01*
X33460893Y-65568355D01*
X33460185Y-65569528D01*
X33321021Y-65485400D01*
X33321020Y-65485399D01*
X33314606Y-65481522D01*
X33259017Y-65464200D01*
X33158457Y-65432864D01*
X33158448Y-65432862D01*
X33152196Y-65430914D01*
X33145662Y-65430320D01*
X33145661Y-65430320D01*
X33084425Y-65424755D01*
X33084419Y-65424754D01*
X33081616Y-65424500D01*
X32568384Y-65424500D01*
X32565581Y-65424754D01*
X32565574Y-65424755D01*
X32504338Y-65430320D01*
X32504335Y-65430320D01*
X32497804Y-65430914D01*
X32491553Y-65432861D01*
X32491542Y-65432864D01*
X32342550Y-65479292D01*
X32335394Y-65481522D01*
X32328982Y-65485398D01*
X32328978Y-65485400D01*
X32196232Y-65565648D01*
X32196227Y-65565651D01*
X32189815Y-65569528D01*
X32184515Y-65574827D01*
X32184511Y-65574831D01*
X32087681Y-65671662D01*
X32032094Y-65703756D01*
X31967906Y-65703756D01*
X31912319Y-65671662D01*
X31815488Y-65574831D01*
X31810185Y-65569528D01*
X31664606Y-65481522D01*
X31609017Y-65464200D01*
X31508457Y-65432864D01*
X31508448Y-65432862D01*
X31502196Y-65430914D01*
X31495662Y-65430320D01*
X31495661Y-65430320D01*
X31434425Y-65424755D01*
X31434419Y-65424754D01*
X31431616Y-65424500D01*
X30918384Y-65424500D01*
X30915581Y-65424754D01*
X30915574Y-65424755D01*
X30854338Y-65430320D01*
X30854335Y-65430320D01*
X30847804Y-65430914D01*
X30841553Y-65432861D01*
X30841542Y-65432864D01*
X30692550Y-65479292D01*
X30685394Y-65481522D01*
X30678982Y-65485398D01*
X30678978Y-65485400D01*
X30546232Y-65565648D01*
X30546227Y-65565651D01*
X30539815Y-65569528D01*
X30534515Y-65574827D01*
X30534511Y-65574831D01*
X30424831Y-65684511D01*
X30424827Y-65684515D01*
X30419528Y-65689815D01*
X30415651Y-65696227D01*
X30415648Y-65696232D01*
X30335400Y-65828978D01*
X30335398Y-65828982D01*
X30331522Y-65835394D01*
X30329292Y-65842548D01*
X30329292Y-65842550D01*
X30282864Y-65991542D01*
X30282861Y-65991553D01*
X30280914Y-65997804D01*
X30274500Y-66068384D01*
X30274500Y-66731616D01*
X30280914Y-66802196D01*
X30282862Y-66808448D01*
X30282864Y-66808457D01*
X30316857Y-66917545D01*
X30331522Y-66964606D01*
X30335399Y-66971020D01*
X30335400Y-66971021D01*
X30392319Y-67065177D01*
X30419528Y-67110185D01*
X30424830Y-67115487D01*
X30424831Y-67115488D01*
X30467170Y-67157827D01*
X30500062Y-67216556D01*
X30497423Y-67283817D01*
X30495135Y-67290860D01*
X30493126Y-67297044D01*
X30492447Y-67303500D01*
X30492446Y-67303507D01*
X30475066Y-67468876D01*
X30473340Y-67485300D01*
X30474019Y-67491760D01*
X30492446Y-67667095D01*
X30492447Y-67667103D01*
X30493126Y-67673556D01*
X30495131Y-67679728D01*
X30495133Y-67679735D01*
X30546555Y-67837994D01*
X30551246Y-67894747D01*
X30530075Y-67947612D01*
X30487507Y-67985440D01*
X30432520Y-68000251D01*
X30382978Y-68001808D01*
X30378811Y-68001939D01*
X30374919Y-68002000D01*
X30347350Y-68002000D01*
X30343494Y-68002486D01*
X30343491Y-68002487D01*
X30343435Y-68002494D01*
X30343362Y-68002503D01*
X30331744Y-68003417D01*
X30295865Y-68004545D01*
X30295864Y-68004545D01*
X30288073Y-68004790D01*
X30280588Y-68006964D01*
X30280584Y-68006965D01*
X30268825Y-68010381D01*
X30249787Y-68014323D01*
X30237649Y-68015857D01*
X30237641Y-68015858D01*
X30229908Y-68016836D01*
X30222660Y-68019705D01*
X30222654Y-68019707D01*
X30189297Y-68032913D01*
X30178254Y-68036694D01*
X30143800Y-68046705D01*
X30143794Y-68046707D01*
X30136310Y-68048882D01*
X30129598Y-68052851D01*
X30129596Y-68052852D01*
X30119064Y-68059080D01*
X30101604Y-68067634D01*
X30090219Y-68072142D01*
X30090213Y-68072144D01*
X30082968Y-68075014D01*
X30068092Y-68085821D01*
X30033530Y-68103431D01*
X29995212Y-68109500D01*
X29909554Y-68109500D01*
X29903195Y-68110851D01*
X29903191Y-68110852D01*
X29730759Y-68147503D01*
X29730752Y-68147505D01*
X29724397Y-68148856D01*
X29718462Y-68151498D01*
X29718454Y-68151501D01*
X29557407Y-68223205D01*
X29557402Y-68223207D01*
X29551470Y-68225849D01*
X29546216Y-68229665D01*
X29546211Y-68229669D01*
X29403588Y-68333290D01*
X29403581Y-68333295D01*
X29398329Y-68337112D01*
X29393980Y-68341941D01*
X29393981Y-68341941D01*
X29392599Y-68343476D01*
X29390928Y-68344689D01*
X29389150Y-68346291D01*
X29388981Y-68346104D01*
X29350885Y-68373781D01*
X29300452Y-68384500D01*
X27613054Y-68384500D01*
X27565602Y-68375061D01*
X27525373Y-68348182D01*
X27417386Y-68240196D01*
X27409940Y-68232013D01*
X27405886Y-68225623D01*
X27356875Y-68179598D01*
X27354078Y-68176887D01*
X27337327Y-68160136D01*
X27334571Y-68157380D01*
X27331390Y-68154912D01*
X27322514Y-68147330D01*
X27296369Y-68122778D01*
X27296367Y-68122776D01*
X27290682Y-68117438D01*
X27283849Y-68113682D01*
X27283843Y-68113677D01*
X27273125Y-68107785D01*
X27256866Y-68097106D01*
X27247195Y-68089604D01*
X27247192Y-68089602D01*
X27241036Y-68084827D01*
X27233879Y-68081729D01*
X27233876Y-68081728D01*
X27200949Y-68067478D01*
X27190463Y-68062341D01*
X27159764Y-68045465D01*
X27112768Y-67999924D01*
X27095499Y-67936802D01*
X27095499Y-67932939D01*
X27095499Y-67929628D01*
X27089091Y-67870017D01*
X27038796Y-67735169D01*
X26952546Y-67619954D01*
X26945443Y-67614637D01*
X26844431Y-67539019D01*
X26844430Y-67539018D01*
X26837331Y-67533704D01*
X26766965Y-67507459D01*
X26709752Y-67486120D01*
X26709750Y-67486119D01*
X26702483Y-67483409D01*
X26694770Y-67482579D01*
X26694767Y-67482579D01*
X26646180Y-67477355D01*
X26646169Y-67477354D01*
X26642873Y-67477000D01*
X26639550Y-67477000D01*
X25000439Y-67477000D01*
X25000420Y-67477000D01*
X24997128Y-67477001D01*
X24993850Y-67477353D01*
X24993838Y-67477354D01*
X24945231Y-67482579D01*
X24945225Y-67482580D01*
X24937517Y-67483409D01*
X24930252Y-67486118D01*
X24930246Y-67486120D01*
X24810980Y-67530604D01*
X24810978Y-67530604D01*
X24802669Y-67533704D01*
X24795572Y-67539016D01*
X24795568Y-67539019D01*
X24694550Y-67614641D01*
X24694546Y-67614644D01*
X24687454Y-67619954D01*
X24682144Y-67627046D01*
X24682141Y-67627050D01*
X24606519Y-67728068D01*
X24606516Y-67728072D01*
X24601204Y-67735169D01*
X24598104Y-67743478D01*
X24598104Y-67743480D01*
X24553620Y-67862747D01*
X24553619Y-67862750D01*
X24550909Y-67870017D01*
X24550079Y-67877727D01*
X24550079Y-67877732D01*
X24544855Y-67926319D01*
X24544854Y-67926331D01*
X24544500Y-67929627D01*
X24544500Y-67932949D01*
X24544500Y-67936711D01*
X24533780Y-67987145D01*
X24503474Y-68028859D01*
X24465648Y-68050699D01*
X24465933Y-68051303D01*
X24458878Y-68054622D01*
X24451459Y-68057033D01*
X24444876Y-68061209D01*
X24444870Y-68061213D01*
X24444550Y-68061417D01*
X24423780Y-68071999D01*
X24423423Y-68072140D01*
X24423415Y-68072143D01*
X24416168Y-68075014D01*
X24409862Y-68079595D01*
X24409859Y-68079597D01*
X24371289Y-68107619D01*
X24364851Y-68111994D01*
X24324609Y-68137533D01*
X24324602Y-68137538D01*
X24318023Y-68141714D01*
X24312686Y-68147396D01*
X24312680Y-68147402D01*
X24312426Y-68147673D01*
X24294932Y-68163096D01*
X24294627Y-68163317D01*
X24294619Y-68163323D01*
X24288313Y-68167906D01*
X24283344Y-68173912D01*
X24283339Y-68173917D01*
X24252952Y-68210647D01*
X24247806Y-68216484D01*
X24215177Y-68251231D01*
X24215172Y-68251237D01*
X24209838Y-68256918D01*
X24206083Y-68263747D01*
X24206077Y-68263756D01*
X24205893Y-68264092D01*
X24192791Y-68283372D01*
X24192546Y-68283667D01*
X24192540Y-68283674D01*
X24187576Y-68289677D01*
X24184258Y-68296726D01*
X24184257Y-68296729D01*
X24163961Y-68339860D01*
X24160429Y-68346792D01*
X24158166Y-68350909D01*
X24113296Y-68397508D01*
X24051063Y-68415168D01*
X23988405Y-68399082D01*
X23942374Y-68353629D01*
X23925500Y-68291178D01*
X23925500Y-57248521D01*
X23943655Y-57183924D01*
X23992804Y-57138242D01*
X24058554Y-57124852D01*
X24121650Y-57147673D01*
X24128198Y-57152358D01*
X24370403Y-57276885D01*
X24628159Y-57364819D01*
X24895971Y-57414286D01*
X25168131Y-57424232D01*
X25438839Y-57394446D01*
X25702326Y-57325562D01*
X25952975Y-57219047D01*
X26185444Y-57077173D01*
X26394779Y-56902963D01*
X26576518Y-56700131D01*
X26726788Y-56472998D01*
X26842386Y-56226406D01*
X26920847Y-55965611D01*
X26960500Y-55696171D01*
X26960500Y-54972000D01*
X26945597Y-54768384D01*
X26916747Y-54638871D01*
X26887369Y-54506988D01*
X26887368Y-54506985D01*
X26886382Y-54502558D01*
X26789093Y-54248186D01*
X26655804Y-54010690D01*
X26489355Y-53795132D01*
X26474500Y-53780810D01*
X26296562Y-53609255D01*
X26296556Y-53609250D01*
X26293295Y-53606106D01*
X26117327Y-53480212D01*
X26075491Y-53450281D01*
X26075488Y-53450279D01*
X26071802Y-53447642D01*
X25962007Y-53391192D01*
X25833632Y-53325189D01*
X25833625Y-53325186D01*
X25829597Y-53323115D01*
X25825312Y-53321653D01*
X25825307Y-53321651D01*
X25576124Y-53236642D01*
X25576122Y-53236641D01*
X25571841Y-53235181D01*
X25549679Y-53231087D01*
X25308489Y-53186537D01*
X25308478Y-53186535D01*
X25304029Y-53185714D01*
X25299500Y-53185548D01*
X25299496Y-53185548D01*
X25036397Y-53175933D01*
X25036390Y-53175933D01*
X25031869Y-53175768D01*
X25027372Y-53176262D01*
X25027366Y-53176263D01*
X24765672Y-53205057D01*
X24765663Y-53205058D01*
X24761161Y-53205554D01*
X24756782Y-53206698D01*
X24756770Y-53206701D01*
X24502049Y-53273294D01*
X24502046Y-53273295D01*
X24497674Y-53274438D01*
X24493524Y-53276201D01*
X24493511Y-53276206D01*
X24251191Y-53379182D01*
X24251183Y-53379185D01*
X24247025Y-53380953D01*
X24243168Y-53383306D01*
X24243158Y-53383312D01*
X24114097Y-53462078D01*
X24051765Y-53480212D01*
X23988812Y-53464367D01*
X23942492Y-53418886D01*
X23925500Y-53356233D01*
X23925500Y-50335552D01*
X23934939Y-50288099D01*
X23961819Y-50247871D01*
X24895109Y-49314581D01*
X25220834Y-48988856D01*
X34525662Y-48988856D01*
X34530815Y-49045570D01*
X34533361Y-49058369D01*
X34579748Y-49207232D01*
X34585864Y-49220820D01*
X34666045Y-49353456D01*
X34675228Y-49365177D01*
X34784822Y-49474771D01*
X34796543Y-49483954D01*
X34929179Y-49564135D01*
X34942767Y-49570251D01*
X35091627Y-49616638D01*
X35104431Y-49619184D01*
X35165615Y-49624744D01*
X35171244Y-49625000D01*
X35233674Y-49625000D01*
X35246549Y-49621549D01*
X35250000Y-49608674D01*
X35250000Y-48991326D01*
X35246549Y-48978450D01*
X35233674Y-48975000D01*
X34541327Y-48975000D01*
X34528451Y-48978450D01*
X34525662Y-48988856D01*
X25220834Y-48988856D01*
X27787306Y-46422382D01*
X27795482Y-46414943D01*
X27801877Y-46410886D01*
X27847933Y-46361840D01*
X27850550Y-46359138D01*
X27870120Y-46339570D01*
X27872565Y-46336416D01*
X27880155Y-46327528D01*
X27910062Y-46295682D01*
X27919709Y-46278132D01*
X27930393Y-46261866D01*
X27942674Y-46246036D01*
X27960018Y-46205951D01*
X27965161Y-46195455D01*
X27982038Y-46164758D01*
X28027578Y-46117766D01*
X28090698Y-46100499D01*
X28344561Y-46100499D01*
X28347872Y-46100499D01*
X28407483Y-46094091D01*
X28542331Y-46043796D01*
X28657546Y-45957546D01*
X28743796Y-45842331D01*
X28762092Y-45793274D01*
X28794204Y-45745458D01*
X28844457Y-45717308D01*
X28902007Y-45714900D01*
X28954435Y-45738753D01*
X29131374Y-45876470D01*
X29335497Y-45986936D01*
X29555019Y-46062298D01*
X29783951Y-46100500D01*
X30010916Y-46100500D01*
X30016049Y-46100500D01*
X30244981Y-46062298D01*
X30464503Y-45986936D01*
X30668626Y-45876470D01*
X30851784Y-45733913D01*
X31008979Y-45563153D01*
X31046190Y-45506196D01*
X31090982Y-45464962D01*
X31150000Y-45450017D01*
X31209018Y-45464962D01*
X31253809Y-45506196D01*
X31288215Y-45558860D01*
X31288222Y-45558869D01*
X31291021Y-45563153D01*
X31448216Y-45733913D01*
X31631374Y-45876470D01*
X31835497Y-45986936D01*
X32055019Y-46062298D01*
X32283951Y-46100500D01*
X32510916Y-46100500D01*
X32516049Y-46100500D01*
X32744981Y-46062298D01*
X32964503Y-45986936D01*
X33168626Y-45876470D01*
X33351784Y-45733913D01*
X33508979Y-45563153D01*
X33635924Y-45368849D01*
X33729157Y-45156300D01*
X33786134Y-44931305D01*
X33805300Y-44700000D01*
X33786134Y-44468695D01*
X33729157Y-44243700D01*
X33635924Y-44031151D01*
X33508979Y-43836847D01*
X33351784Y-43666087D01*
X33346633Y-43662078D01*
X33172672Y-43526679D01*
X33172671Y-43526678D01*
X33168626Y-43523530D01*
X33114497Y-43494237D01*
X32969007Y-43415501D01*
X32969002Y-43415499D01*
X32964503Y-43413064D01*
X32959657Y-43411400D01*
X32959654Y-43411399D01*
X32749834Y-43339368D01*
X32749833Y-43339367D01*
X32744981Y-43337702D01*
X32739931Y-43336859D01*
X32739922Y-43336857D01*
X32521111Y-43300344D01*
X32521102Y-43300343D01*
X32516049Y-43299500D01*
X32283951Y-43299500D01*
X32278898Y-43300343D01*
X32278888Y-43300344D01*
X32060077Y-43336857D01*
X32060065Y-43336859D01*
X32055019Y-43337702D01*
X32050169Y-43339366D01*
X32050165Y-43339368D01*
X31840345Y-43411399D01*
X31840337Y-43411402D01*
X31835497Y-43413064D01*
X31831001Y-43415496D01*
X31830992Y-43415501D01*
X31635882Y-43521090D01*
X31635878Y-43521092D01*
X31631374Y-43523530D01*
X31627334Y-43526674D01*
X31627327Y-43526679D01*
X31452263Y-43662936D01*
X31452255Y-43662943D01*
X31448216Y-43666087D01*
X31444746Y-43669855D01*
X31444742Y-43669860D01*
X31294491Y-43833077D01*
X31294488Y-43833080D01*
X31291021Y-43836847D01*
X31288226Y-43841124D01*
X31288219Y-43841134D01*
X31253809Y-43893804D01*
X31209017Y-43935037D01*
X31150000Y-43949982D01*
X31090983Y-43935037D01*
X31046191Y-43893804D01*
X31011780Y-43841134D01*
X31011778Y-43841132D01*
X31008979Y-43836847D01*
X30851784Y-43666087D01*
X30846633Y-43662078D01*
X30672672Y-43526679D01*
X30672671Y-43526678D01*
X30668626Y-43523530D01*
X30614497Y-43494237D01*
X30469007Y-43415501D01*
X30469002Y-43415499D01*
X30464503Y-43413064D01*
X30459657Y-43411400D01*
X30459654Y-43411399D01*
X30249834Y-43339368D01*
X30249833Y-43339367D01*
X30244981Y-43337702D01*
X30239931Y-43336859D01*
X30239922Y-43336857D01*
X30021111Y-43300344D01*
X30021102Y-43300343D01*
X30016049Y-43299500D01*
X29783951Y-43299500D01*
X29778898Y-43300343D01*
X29778888Y-43300344D01*
X29560077Y-43336857D01*
X29560065Y-43336859D01*
X29555019Y-43337702D01*
X29550169Y-43339366D01*
X29550165Y-43339368D01*
X29340345Y-43411399D01*
X29340337Y-43411402D01*
X29335497Y-43413064D01*
X29331001Y-43415496D01*
X29330992Y-43415501D01*
X29135882Y-43521090D01*
X29135878Y-43521092D01*
X29131374Y-43523530D01*
X29127334Y-43526674D01*
X29127327Y-43526679D01*
X28954436Y-43661245D01*
X28902007Y-43685099D01*
X28844458Y-43682691D01*
X28794205Y-43654541D01*
X28762092Y-43606723D01*
X28746896Y-43565981D01*
X28743796Y-43557669D01*
X28657546Y-43442454D01*
X28621541Y-43415501D01*
X28549431Y-43361519D01*
X28549430Y-43361518D01*
X28542331Y-43356204D01*
X28407483Y-43305909D01*
X28399770Y-43305079D01*
X28399767Y-43305079D01*
X28351180Y-43299855D01*
X28351169Y-43299854D01*
X28347873Y-43299500D01*
X28344550Y-43299500D01*
X26455439Y-43299500D01*
X26455420Y-43299500D01*
X26452128Y-43299501D01*
X26448850Y-43299853D01*
X26448838Y-43299854D01*
X26400231Y-43305079D01*
X26400225Y-43305080D01*
X26392517Y-43305909D01*
X26385252Y-43308618D01*
X26385246Y-43308620D01*
X26265980Y-43353104D01*
X26265978Y-43353104D01*
X26257669Y-43356204D01*
X26250572Y-43361516D01*
X26250568Y-43361519D01*
X26149550Y-43437141D01*
X26149546Y-43437144D01*
X26142454Y-43442454D01*
X26137144Y-43449546D01*
X26137141Y-43449550D01*
X26061519Y-43550568D01*
X26061516Y-43550572D01*
X26056204Y-43557669D01*
X26053104Y-43565978D01*
X26053104Y-43565980D01*
X26008620Y-43685247D01*
X26008619Y-43685250D01*
X26005909Y-43692517D01*
X26005079Y-43700227D01*
X26005079Y-43700232D01*
X25999855Y-43748819D01*
X25999854Y-43748831D01*
X25999500Y-43752127D01*
X25999500Y-43755448D01*
X25999500Y-43755449D01*
X25999500Y-45644560D01*
X25999500Y-45644578D01*
X25999501Y-45647872D01*
X25999853Y-45651150D01*
X25999854Y-45651161D01*
X26005079Y-45699768D01*
X26005080Y-45699773D01*
X26005909Y-45707483D01*
X26008619Y-45714749D01*
X26008620Y-45714753D01*
X26037908Y-45793276D01*
X26056204Y-45842331D01*
X26142454Y-45957546D01*
X26222627Y-46017564D01*
X26264498Y-46073497D01*
X26269482Y-46143188D01*
X26235997Y-46204511D01*
X22912696Y-49527811D01*
X22904511Y-49535259D01*
X22898123Y-49539314D01*
X22892788Y-49544994D01*
X22892783Y-49544999D01*
X22852096Y-49588325D01*
X22849392Y-49591116D01*
X22832628Y-49607880D01*
X22832621Y-49607887D01*
X22829880Y-49610629D01*
X22827500Y-49613696D01*
X22827489Y-49613709D01*
X22827400Y-49613825D01*
X22819842Y-49622670D01*
X22795280Y-49648827D01*
X22795273Y-49648836D01*
X22789938Y-49654518D01*
X22786182Y-49661349D01*
X22786179Y-49661354D01*
X22780285Y-49672075D01*
X22769609Y-49688327D01*
X22762109Y-49697996D01*
X22762101Y-49698007D01*
X22757327Y-49704164D01*
X22754234Y-49711308D01*
X22754229Y-49711319D01*
X22739974Y-49744260D01*
X22734838Y-49754743D01*
X22721747Y-49778557D01*
X22713803Y-49793008D01*
X22711864Y-49800556D01*
X22711863Y-49800561D01*
X22708822Y-49812407D01*
X22702521Y-49830811D01*
X22697658Y-49842048D01*
X22697656Y-49842052D01*
X22694562Y-49849204D01*
X22693342Y-49856903D01*
X22693342Y-49856905D01*
X22687729Y-49892341D01*
X22685361Y-49903776D01*
X22676438Y-49938528D01*
X22676436Y-49938536D01*
X22674500Y-49946081D01*
X22674500Y-49953877D01*
X22674500Y-49966117D01*
X22672974Y-49985502D01*
X22669840Y-50005296D01*
X22670574Y-50013061D01*
X22670574Y-50013064D01*
X22673950Y-50048776D01*
X22674500Y-50060445D01*
X22674500Y-69291789D01*
X22657232Y-69354909D01*
X22620445Y-69417113D01*
X22618269Y-69424602D01*
X22618268Y-69424605D01*
X22579003Y-69559755D01*
X22579001Y-69559764D01*
X22577235Y-69565844D01*
X22576738Y-69572152D01*
X22576737Y-69572161D01*
X22574691Y-69598160D01*
X22574690Y-69598176D01*
X22574500Y-69600595D01*
X22574500Y-69603039D01*
X22574500Y-69603040D01*
X22574500Y-70096980D01*
X22574500Y-70097005D01*
X22574501Y-70099404D01*
X22577235Y-70134156D01*
X22579000Y-70140233D01*
X22579002Y-70140241D01*
X22599776Y-70211744D01*
X22620445Y-70282887D01*
X22699285Y-70416198D01*
X22704803Y-70421716D01*
X22754566Y-70471479D01*
X22786660Y-70527066D01*
X22786660Y-70591254D01*
X22754566Y-70646841D01*
X21490096Y-71911311D01*
X21481911Y-71918759D01*
X21475523Y-71922814D01*
X21470188Y-71928494D01*
X21470183Y-71928499D01*
X21429496Y-71971825D01*
X21426792Y-71974616D01*
X21410028Y-71991380D01*
X21410021Y-71991387D01*
X21407280Y-71994129D01*
X21404900Y-71997196D01*
X21404889Y-71997209D01*
X21404800Y-71997325D01*
X21397242Y-72006170D01*
X21372680Y-72032327D01*
X21372673Y-72032336D01*
X21367338Y-72038018D01*
X21363582Y-72044849D01*
X21363579Y-72044854D01*
X21357685Y-72055575D01*
X21347009Y-72071827D01*
X21339509Y-72081496D01*
X21339501Y-72081507D01*
X21334727Y-72087664D01*
X21331634Y-72094808D01*
X21331629Y-72094819D01*
X21317374Y-72127760D01*
X21312238Y-72138243D01*
X21299570Y-72161287D01*
X21291203Y-72176508D01*
X21289264Y-72184056D01*
X21289263Y-72184061D01*
X21286222Y-72195907D01*
X21279921Y-72214311D01*
X21275058Y-72225548D01*
X21275056Y-72225552D01*
X21271962Y-72232704D01*
X21270742Y-72240403D01*
X21270742Y-72240405D01*
X21265129Y-72275841D01*
X21262761Y-72287276D01*
X21253838Y-72322028D01*
X21253836Y-72322036D01*
X21251900Y-72329581D01*
X21251900Y-72337377D01*
X21251900Y-72349617D01*
X21250374Y-72369002D01*
X21247240Y-72388796D01*
X21247974Y-72396561D01*
X21247974Y-72396564D01*
X21251350Y-72432276D01*
X21251900Y-72443945D01*
X21251900Y-106669245D01*
X21251381Y-106680205D01*
X21249739Y-106687548D01*
X21249982Y-106695339D01*
X21249982Y-106695343D01*
X21251840Y-106754825D01*
X21251900Y-106758696D01*
X21251900Y-106786350D01*
X21252387Y-106790205D01*
X21252388Y-106790221D01*
X21252395Y-106790271D01*
X21253310Y-106801918D01*
X21254428Y-106837709D01*
X21254672Y-106845508D01*
X21260278Y-106864819D01*
X21264215Y-106883839D01*
X21266736Y-106903792D01*
X21269608Y-106911045D01*
X21282788Y-106944336D01*
X21286577Y-106955407D01*
X21296557Y-106989781D01*
X21296559Y-106989786D01*
X21298735Y-106997280D01*
X21302705Y-107003996D01*
X21302707Y-107004000D01*
X21308961Y-107014579D01*
X21317510Y-107032034D01*
X21322041Y-107043479D01*
X21322045Y-107043487D01*
X21324914Y-107050732D01*
X21350545Y-107086011D01*
X21356963Y-107095783D01*
X21379156Y-107133325D01*
X21384666Y-107138837D01*
X21384670Y-107138842D01*
X21393373Y-107147548D01*
X21405989Y-107162323D01*
X21411890Y-107170445D01*
X21417806Y-107178587D01*
X21451409Y-107206386D01*
X21460051Y-107214252D01*
X21478633Y-107232841D01*
X21479366Y-107233574D01*
X21508304Y-107279144D01*
X21515137Y-107332692D01*
X21503172Y-107369793D01*
X21505326Y-107370725D01*
X21502225Y-107377889D01*
X21498256Y-107384602D01*
X21496080Y-107392091D01*
X21496079Y-107392094D01*
X21454170Y-107536342D01*
X21454168Y-107536351D01*
X21452402Y-107542431D01*
X21451905Y-107548739D01*
X21451904Y-107548748D01*
X21449691Y-107576871D01*
X21449690Y-107576886D01*
X21449500Y-107579306D01*
X21449500Y-108010694D01*
X21449690Y-108013114D01*
X21449691Y-108013128D01*
X21451904Y-108041251D01*
X21451905Y-108041258D01*
X21452402Y-108047569D01*
X21454168Y-108053650D01*
X21454170Y-108053657D01*
X21496079Y-108197905D01*
X21498256Y-108205398D01*
X21581919Y-108346865D01*
X21587432Y-108352378D01*
X21588691Y-108354001D01*
X21611725Y-108402951D01*
X21611725Y-108457049D01*
X21588691Y-108505999D01*
X21587432Y-108507621D01*
X21581919Y-108513135D01*
X21577951Y-108519844D01*
X21577949Y-108519847D01*
X21502227Y-108647886D01*
X21502224Y-108647891D01*
X21498256Y-108654602D01*
X21496080Y-108662091D01*
X21496079Y-108662094D01*
X21454170Y-108806342D01*
X21454168Y-108806351D01*
X21452402Y-108812431D01*
X21451905Y-108818739D01*
X21451904Y-108818748D01*
X21449691Y-108846871D01*
X21449690Y-108846886D01*
X21449500Y-108849306D01*
X21449500Y-109280694D01*
X21449690Y-109283114D01*
X21449691Y-109283128D01*
X21451904Y-109311251D01*
X21451905Y-109311258D01*
X21452402Y-109317569D01*
X21454168Y-109323650D01*
X21454170Y-109323657D01*
X21482064Y-109419666D01*
X21498256Y-109475398D01*
X21502226Y-109482111D01*
X21502227Y-109482113D01*
X21520938Y-109513751D01*
X21581919Y-109616865D01*
X21587432Y-109622378D01*
X21588691Y-109624001D01*
X21611725Y-109672951D01*
X21611725Y-109727049D01*
X21588691Y-109775999D01*
X21587432Y-109777621D01*
X21581919Y-109783135D01*
X21577951Y-109789844D01*
X21577949Y-109789847D01*
X21502227Y-109917886D01*
X21502224Y-109917891D01*
X21498256Y-109924602D01*
X21496080Y-109932091D01*
X21496079Y-109932094D01*
X21454170Y-110076342D01*
X21454168Y-110076351D01*
X21452402Y-110082431D01*
X21451905Y-110088739D01*
X21451904Y-110088748D01*
X21449691Y-110116871D01*
X21449690Y-110116886D01*
X21449500Y-110119306D01*
X21449500Y-110121751D01*
X21449500Y-110124347D01*
X21440061Y-110171800D01*
X21413181Y-110212028D01*
X21388028Y-110237181D01*
X21347800Y-110264061D01*
X21300347Y-110273500D01*
X21241154Y-110273500D01*
X21234795Y-110274851D01*
X21234791Y-110274852D01*
X21062359Y-110311503D01*
X21062352Y-110311505D01*
X21055997Y-110312856D01*
X21050062Y-110315498D01*
X21050054Y-110315501D01*
X20889007Y-110387205D01*
X20889002Y-110387207D01*
X20883070Y-110389849D01*
X20877816Y-110393665D01*
X20877811Y-110393669D01*
X20735188Y-110497290D01*
X20735181Y-110497295D01*
X20729929Y-110501112D01*
X20725584Y-110505937D01*
X20725579Y-110505942D01*
X20607613Y-110636956D01*
X20607608Y-110636962D01*
X20603267Y-110641784D01*
X20600022Y-110647404D01*
X20600018Y-110647410D01*
X20511869Y-110800089D01*
X20511866Y-110800094D01*
X20508621Y-110805716D01*
X20506615Y-110811888D01*
X20506613Y-110811894D01*
X20452133Y-110979564D01*
X20452131Y-110979573D01*
X20450126Y-110985744D01*
X20449448Y-110992194D01*
X20449446Y-110992204D01*
X20435408Y-111125777D01*
X20430340Y-111174000D01*
X20431019Y-111180460D01*
X20449446Y-111355795D01*
X20449447Y-111355803D01*
X20450126Y-111362256D01*
X20452131Y-111368428D01*
X20452133Y-111368435D01*
X20506613Y-111536105D01*
X20508621Y-111542284D01*
X20603267Y-111706216D01*
X20729929Y-111846888D01*
X20735187Y-111850708D01*
X20735188Y-111850709D01*
X20806499Y-111902519D01*
X20883070Y-111958151D01*
X21055997Y-112035144D01*
X21241154Y-112074500D01*
X21423943Y-112074500D01*
X21430446Y-112074500D01*
X21436808Y-112073147D01*
X21443264Y-112072469D01*
X21443383Y-112073609D01*
X21485698Y-112073528D01*
X21532535Y-112094082D01*
X21567088Y-112131788D01*
X21581919Y-112156865D01*
X21698135Y-112273081D01*
X21839602Y-112356744D01*
X21997431Y-112402598D01*
X22034306Y-112405500D01*
X23813249Y-112405500D01*
X23815694Y-112405500D01*
X23852569Y-112402598D01*
X24010398Y-112356744D01*
X24151865Y-112273081D01*
X24268081Y-112156865D01*
X24351744Y-112015398D01*
X24395214Y-111865776D01*
X26405307Y-111865776D01*
X26446541Y-112007705D01*
X26452689Y-112021912D01*
X26528344Y-112149838D01*
X26537835Y-112162074D01*
X26642925Y-112267164D01*
X26655161Y-112276655D01*
X26783087Y-112352310D01*
X26797294Y-112358458D01*
X26941420Y-112400331D01*
X26953826Y-112402597D01*
X26981923Y-112404808D01*
X26986803Y-112405000D01*
X27608674Y-112405000D01*
X27621549Y-112401549D01*
X27625000Y-112388674D01*
X28125000Y-112388674D01*
X28128450Y-112401549D01*
X28141326Y-112405000D01*
X28763197Y-112405000D01*
X28768076Y-112404808D01*
X28796173Y-112402597D01*
X28808579Y-112400331D01*
X28952705Y-112358458D01*
X28966912Y-112352310D01*
X29094838Y-112276655D01*
X29107074Y-112267164D01*
X29212164Y-112162074D01*
X29221655Y-112149838D01*
X29297310Y-112021912D01*
X29303458Y-112007705D01*
X29344692Y-111865776D01*
X29343286Y-111858706D01*
X29330144Y-111855000D01*
X28141326Y-111855000D01*
X28128450Y-111858450D01*
X28125000Y-111871326D01*
X28125000Y-112388674D01*
X27625000Y-112388674D01*
X27625000Y-111871326D01*
X27621549Y-111858450D01*
X27608674Y-111855000D01*
X26419856Y-111855000D01*
X26406713Y-111858706D01*
X26405307Y-111865776D01*
X24395214Y-111865776D01*
X24397598Y-111857569D01*
X24400500Y-111820694D01*
X24400500Y-111472252D01*
X24409939Y-111424800D01*
X24436816Y-111384573D01*
X24635116Y-111186272D01*
X24643281Y-111178843D01*
X24649677Y-111174786D01*
X24695733Y-111125740D01*
X24698350Y-111123038D01*
X24717920Y-111103470D01*
X24720365Y-111100316D01*
X24727955Y-111091428D01*
X24757862Y-111059582D01*
X24767509Y-111042032D01*
X24778193Y-111025766D01*
X24790474Y-111009936D01*
X24807818Y-110969851D01*
X24812960Y-110959356D01*
X24821754Y-110943360D01*
X24833997Y-110921092D01*
X24838979Y-110901689D01*
X24845280Y-110883283D01*
X24853238Y-110864895D01*
X24860069Y-110821756D01*
X24862439Y-110810315D01*
X24871360Y-110775574D01*
X24871359Y-110775574D01*
X24873300Y-110768019D01*
X24873300Y-110747983D01*
X24874825Y-110728597D01*
X24877960Y-110708804D01*
X24873850Y-110665324D01*
X24873300Y-110653655D01*
X24873300Y-105139060D01*
X24891573Y-105074270D01*
X24941005Y-105028575D01*
X25007029Y-105015442D01*
X25070184Y-105038741D01*
X25092770Y-105055151D01*
X25265697Y-105132144D01*
X25450854Y-105171500D01*
X25633643Y-105171500D01*
X25640146Y-105171500D01*
X25739419Y-105150399D01*
X25794147Y-105151115D01*
X25843236Y-105175323D01*
X25877121Y-105218306D01*
X25889200Y-105271689D01*
X25889200Y-109286925D01*
X25888678Y-109297980D01*
X25887027Y-109305367D01*
X25887271Y-109313153D01*
X25887271Y-109313161D01*
X25889139Y-109372573D01*
X25889200Y-109376468D01*
X25889200Y-109404050D01*
X25889688Y-109407919D01*
X25889689Y-109407925D01*
X25889704Y-109408043D01*
X25890618Y-109419666D01*
X25891745Y-109455530D01*
X25891746Y-109455537D01*
X25891991Y-109463327D01*
X25894167Y-109470819D01*
X25894168Y-109470821D01*
X25897579Y-109482562D01*
X25901525Y-109501615D01*
X25904036Y-109521492D01*
X25906906Y-109528742D01*
X25906908Y-109528748D01*
X25920114Y-109562104D01*
X25923897Y-109573151D01*
X25936082Y-109615090D01*
X25940053Y-109621805D01*
X25940054Y-109621807D01*
X25946281Y-109632337D01*
X25954836Y-109649799D01*
X25959342Y-109661180D01*
X25959343Y-109661183D01*
X25962214Y-109668432D01*
X25984140Y-109698612D01*
X25987881Y-109703760D01*
X25994293Y-109713522D01*
X26012556Y-109744402D01*
X26012559Y-109744407D01*
X26016530Y-109751120D01*
X26022044Y-109756634D01*
X26022045Y-109756635D01*
X26030690Y-109765280D01*
X26043326Y-109780074D01*
X26050519Y-109789975D01*
X26050523Y-109789979D01*
X26055106Y-109796287D01*
X26061115Y-109801258D01*
X26061116Y-109801259D01*
X26088758Y-109824126D01*
X26097399Y-109831989D01*
X26363181Y-110097771D01*
X26390061Y-110137999D01*
X26399500Y-110185452D01*
X26399500Y-110550694D01*
X26399690Y-110553114D01*
X26399691Y-110553128D01*
X26401904Y-110581251D01*
X26401905Y-110581258D01*
X26402402Y-110587569D01*
X26404168Y-110593650D01*
X26404170Y-110593657D01*
X26423302Y-110659507D01*
X26448256Y-110745398D01*
X26452226Y-110752111D01*
X26452227Y-110752113D01*
X26461634Y-110768019D01*
X26531919Y-110886865D01*
X26537438Y-110892384D01*
X26539008Y-110894408D01*
X26562043Y-110943358D01*
X26562044Y-110997456D01*
X26539012Y-111046407D01*
X26528346Y-111060158D01*
X26452689Y-111188087D01*
X26446541Y-111202294D01*
X26405307Y-111344223D01*
X26406713Y-111351293D01*
X26419856Y-111355000D01*
X29330144Y-111355000D01*
X29343286Y-111351293D01*
X29344692Y-111344223D01*
X29303458Y-111202294D01*
X29297310Y-111188087D01*
X29221657Y-111060164D01*
X29210991Y-111046414D01*
X29187955Y-110997462D01*
X29187956Y-110943360D01*
X29210992Y-110894408D01*
X29212561Y-110892384D01*
X29218081Y-110886865D01*
X29301744Y-110745398D01*
X29347598Y-110587569D01*
X29350500Y-110550694D01*
X29350500Y-110227086D01*
X29359940Y-110179632D01*
X29386821Y-110139403D01*
X31013172Y-108513135D01*
X36570109Y-102956483D01*
X36642665Y-102862950D01*
X36705433Y-102717911D01*
X36730160Y-102561820D01*
X36715290Y-102404483D01*
X36661761Y-102255786D01*
X36572934Y-102125074D01*
X36454391Y-102020559D01*
X36342170Y-101963376D01*
X36320532Y-101952350D01*
X36320529Y-101952348D01*
X36313580Y-101948808D01*
X36248321Y-101934219D01*
X36166959Y-101916030D01*
X36166957Y-101916029D01*
X36159349Y-101914329D01*
X36151559Y-101914573D01*
X36151554Y-101914573D01*
X36009189Y-101919043D01*
X36009188Y-101919043D01*
X36001389Y-101919288D01*
X35993897Y-101921464D01*
X35993893Y-101921465D01*
X35959992Y-101931314D01*
X35903120Y-101934219D01*
X35850947Y-101911397D01*
X35814476Y-101867662D01*
X35801400Y-101812237D01*
X35801400Y-86747632D01*
X35819391Y-86683304D01*
X35868143Y-86637643D01*
X35933510Y-86623897D01*
X35996523Y-86646057D01*
X36117734Y-86730930D01*
X36117743Y-86730935D01*
X36122170Y-86734035D01*
X36336337Y-86833903D01*
X36564592Y-86895063D01*
X36800000Y-86915659D01*
X37035408Y-86895063D01*
X37263663Y-86833903D01*
X37477830Y-86734035D01*
X37671401Y-86598495D01*
X37838495Y-86431401D01*
X37974035Y-86237830D01*
X38073903Y-86023663D01*
X38135063Y-85795408D01*
X38155659Y-85560000D01*
X38135063Y-85324592D01*
X38073903Y-85096337D01*
X37974035Y-84882171D01*
X37838495Y-84688599D01*
X37671401Y-84521505D01*
X37666968Y-84518401D01*
X37666961Y-84518395D01*
X37485842Y-84391575D01*
X37446976Y-84347257D01*
X37432965Y-84290000D01*
X37446976Y-84232743D01*
X37485842Y-84188425D01*
X37666961Y-84061604D01*
X37666961Y-84061603D01*
X37671401Y-84058495D01*
X37838495Y-83891401D01*
X37974035Y-83697830D01*
X38073903Y-83483663D01*
X38135063Y-83255408D01*
X38155659Y-83020000D01*
X38135063Y-82784592D01*
X38073903Y-82556337D01*
X37974035Y-82342171D01*
X37838495Y-82148599D01*
X37671401Y-81981505D01*
X37666968Y-81978401D01*
X37666961Y-81978395D01*
X37485842Y-81851575D01*
X37446976Y-81807257D01*
X37432965Y-81750000D01*
X37446976Y-81692743D01*
X37485842Y-81648425D01*
X37666961Y-81521604D01*
X37666961Y-81521603D01*
X37671401Y-81518495D01*
X37838495Y-81351401D01*
X37974035Y-81157830D01*
X38073903Y-80943663D01*
X38135063Y-80715408D01*
X38155659Y-80480000D01*
X38135063Y-80244592D01*
X38073903Y-80016337D01*
X37974035Y-79802171D01*
X37838495Y-79608599D01*
X37671401Y-79441505D01*
X37666970Y-79438402D01*
X37666966Y-79438399D01*
X37485405Y-79311269D01*
X37446540Y-79266951D01*
X37432529Y-79209694D01*
X37446540Y-79152437D01*
X37485406Y-79108119D01*
X37666638Y-78981219D01*
X37674909Y-78974278D01*
X37834278Y-78814909D01*
X37841215Y-78806643D01*
X37970498Y-78622008D01*
X37975886Y-78612676D01*
X38071143Y-78408397D01*
X38074831Y-78398263D01*
X38126943Y-78203780D01*
X38127311Y-78192551D01*
X38116369Y-78190000D01*
X35489052Y-78190000D01*
X35441599Y-78180561D01*
X35401371Y-78153681D01*
X34991818Y-77744128D01*
X34964938Y-77703900D01*
X34961665Y-77687448D01*
X35472688Y-77687448D01*
X35483631Y-77690000D01*
X36533674Y-77690000D01*
X36546549Y-77686549D01*
X36550000Y-77673674D01*
X37050000Y-77673674D01*
X37053450Y-77686549D01*
X37066326Y-77690000D01*
X38116369Y-77690000D01*
X38127311Y-77687448D01*
X38126943Y-77676219D01*
X38074831Y-77481736D01*
X38071143Y-77471602D01*
X37975889Y-77267332D01*
X37970491Y-77257982D01*
X37841215Y-77073357D01*
X37834280Y-77065092D01*
X37674909Y-76905721D01*
X37666643Y-76898784D01*
X37484969Y-76771575D01*
X37446104Y-76727257D01*
X37432093Y-76670000D01*
X37446104Y-76612743D01*
X37484969Y-76568425D01*
X37666643Y-76441215D01*
X37674909Y-76434278D01*
X37834278Y-76274909D01*
X37841215Y-76266643D01*
X37970498Y-76082008D01*
X37975886Y-76072676D01*
X38071143Y-75868397D01*
X38074831Y-75858263D01*
X38126943Y-75663780D01*
X38127311Y-75652551D01*
X38116369Y-75650000D01*
X37066326Y-75650000D01*
X37053450Y-75653450D01*
X37050000Y-75666326D01*
X37050000Y-77673674D01*
X36550000Y-77673674D01*
X36550000Y-75666326D01*
X36546549Y-75653450D01*
X36533674Y-75650000D01*
X35483631Y-75650000D01*
X35472688Y-75652551D01*
X35473056Y-75663780D01*
X35525168Y-75858263D01*
X35528856Y-75868397D01*
X35624113Y-76072676D01*
X35629501Y-76082008D01*
X35758784Y-76266643D01*
X35765721Y-76274909D01*
X35925090Y-76434278D01*
X35933356Y-76441215D01*
X36115031Y-76568425D01*
X36153896Y-76612743D01*
X36167907Y-76670000D01*
X36153896Y-76727257D01*
X36115031Y-76771575D01*
X35933352Y-76898788D01*
X35925092Y-76905719D01*
X35765719Y-77065092D01*
X35758784Y-77073357D01*
X35629508Y-77257982D01*
X35624110Y-77267332D01*
X35528856Y-77471602D01*
X35525168Y-77481736D01*
X35473056Y-77676219D01*
X35472688Y-77687448D01*
X34961665Y-77687448D01*
X34955499Y-77656447D01*
X34955499Y-76555439D01*
X34955499Y-76552128D01*
X34949091Y-76492517D01*
X34898796Y-76357669D01*
X34812546Y-76242454D01*
X34805449Y-76237141D01*
X34805446Y-76237138D01*
X34775929Y-76215041D01*
X34734059Y-76159108D01*
X34729076Y-76089417D01*
X34762558Y-76028098D01*
X34880472Y-75910185D01*
X34968478Y-75764606D01*
X35019086Y-75602196D01*
X35025500Y-75531616D01*
X35025500Y-75235452D01*
X35034939Y-75187999D01*
X35061819Y-75147771D01*
X35172347Y-75037243D01*
X35292123Y-74917466D01*
X35347707Y-74885375D01*
X35411894Y-74885375D01*
X35467482Y-74917468D01*
X35499576Y-74973056D01*
X35499576Y-75037243D01*
X35473056Y-75136218D01*
X35472688Y-75147448D01*
X35483631Y-75150000D01*
X36533674Y-75150000D01*
X36546549Y-75146549D01*
X36550000Y-75133674D01*
X36550000Y-74917500D01*
X36566613Y-74855500D01*
X36612000Y-74810113D01*
X36674000Y-74793500D01*
X36920981Y-74793500D01*
X36926000Y-74793500D01*
X36988000Y-74810113D01*
X37033387Y-74855500D01*
X37050000Y-74917500D01*
X37050000Y-75133674D01*
X37053450Y-75146549D01*
X37066326Y-75150000D01*
X38116369Y-75150000D01*
X38127311Y-75147448D01*
X38126943Y-75136219D01*
X38074831Y-74941736D01*
X38071143Y-74931602D01*
X37975889Y-74727332D01*
X37970491Y-74717982D01*
X37841215Y-74533356D01*
X37837473Y-74528897D01*
X37811023Y-74474266D01*
X37813670Y-74413627D01*
X37844778Y-74361511D01*
X39587306Y-72618983D01*
X39595482Y-72611544D01*
X39601877Y-72607487D01*
X39647933Y-72558441D01*
X39650550Y-72555739D01*
X39670120Y-72536171D01*
X39672565Y-72533017D01*
X39680155Y-72524129D01*
X39710062Y-72492283D01*
X39719713Y-72474724D01*
X39730390Y-72458471D01*
X39742673Y-72442637D01*
X39760022Y-72402542D01*
X39765157Y-72392063D01*
X39786197Y-72353793D01*
X39791178Y-72334388D01*
X39797483Y-72315978D01*
X39802339Y-72304757D01*
X39802339Y-72304756D01*
X39805438Y-72297596D01*
X39812269Y-72254457D01*
X39814639Y-72243016D01*
X39815310Y-72240405D01*
X39825500Y-72200720D01*
X39825500Y-72180684D01*
X39827025Y-72161298D01*
X39830160Y-72141505D01*
X39826548Y-72103293D01*
X39826050Y-72098025D01*
X39825500Y-72086356D01*
X39825500Y-70977623D01*
X39842113Y-70915623D01*
X39856728Y-70890309D01*
X39927179Y-70768284D01*
X39985674Y-70588256D01*
X40005460Y-70400000D01*
X39985674Y-70211744D01*
X39927179Y-70031716D01*
X39832533Y-69867784D01*
X39758837Y-69785937D01*
X39710220Y-69731942D01*
X39710219Y-69731941D01*
X39705871Y-69727112D01*
X39700613Y-69723292D01*
X39700611Y-69723290D01*
X39557988Y-69619669D01*
X39557987Y-69619668D01*
X39552730Y-69615849D01*
X39546792Y-69613205D01*
X39385745Y-69541501D01*
X39385740Y-69541499D01*
X39379803Y-69538856D01*
X39373444Y-69537504D01*
X39373440Y-69537503D01*
X39201008Y-69500852D01*
X39201005Y-69500851D01*
X39194646Y-69499500D01*
X39005354Y-69499500D01*
X38998995Y-69500851D01*
X38998991Y-69500852D01*
X38826559Y-69537503D01*
X38826552Y-69537505D01*
X38820197Y-69538856D01*
X38814262Y-69541498D01*
X38814254Y-69541501D01*
X38653207Y-69613205D01*
X38653202Y-69613207D01*
X38647270Y-69615849D01*
X38642016Y-69619665D01*
X38642011Y-69619669D01*
X38499388Y-69723290D01*
X38499381Y-69723295D01*
X38494129Y-69727112D01*
X38489784Y-69731937D01*
X38489779Y-69731942D01*
X38367467Y-69867784D01*
X38365805Y-69866287D01*
X38327262Y-69898151D01*
X38266685Y-69909691D01*
X38208041Y-69890624D01*
X38165833Y-69845666D01*
X38150499Y-69785937D01*
X38150499Y-69425439D01*
X38150499Y-69422128D01*
X38144091Y-69362517D01*
X38093796Y-69227669D01*
X38007546Y-69112454D01*
X37892331Y-69026204D01*
X37757483Y-68975909D01*
X37749770Y-68975079D01*
X37749767Y-68975079D01*
X37701180Y-68969855D01*
X37701169Y-68969854D01*
X37697873Y-68969500D01*
X37694550Y-68969500D01*
X35905439Y-68969500D01*
X35905420Y-68969500D01*
X35902128Y-68969501D01*
X35898850Y-68969853D01*
X35898838Y-68969854D01*
X35850231Y-68975079D01*
X35850225Y-68975080D01*
X35842517Y-68975909D01*
X35835252Y-68978618D01*
X35835246Y-68978620D01*
X35715980Y-69023104D01*
X35715978Y-69023104D01*
X35707669Y-69026204D01*
X35700572Y-69031516D01*
X35700568Y-69031519D01*
X35599550Y-69107141D01*
X35599546Y-69107144D01*
X35592454Y-69112454D01*
X35587144Y-69119546D01*
X35587141Y-69119550D01*
X35511519Y-69220568D01*
X35511516Y-69220572D01*
X35506204Y-69227669D01*
X35503104Y-69235978D01*
X35503104Y-69235980D01*
X35458620Y-69355247D01*
X35458619Y-69355250D01*
X35455909Y-69362517D01*
X35455079Y-69370227D01*
X35455079Y-69370232D01*
X35449855Y-69418819D01*
X35449854Y-69418831D01*
X35449500Y-69422127D01*
X35449500Y-69425448D01*
X35449500Y-69425449D01*
X35449500Y-71214560D01*
X35449500Y-71214578D01*
X35449501Y-71217872D01*
X35449853Y-71221150D01*
X35449854Y-71221161D01*
X35455079Y-71269768D01*
X35455080Y-71269773D01*
X35455909Y-71277483D01*
X35458619Y-71284749D01*
X35458620Y-71284753D01*
X35485341Y-71356395D01*
X35506204Y-71412331D01*
X35511518Y-71419430D01*
X35511519Y-71419431D01*
X35573403Y-71502098D01*
X35592454Y-71527546D01*
X35707669Y-71613796D01*
X35839598Y-71663002D01*
X35889977Y-71697981D01*
X35917431Y-71752825D01*
X35915242Y-71814118D01*
X35883947Y-71866865D01*
X35765714Y-71985098D01*
X35758784Y-71993357D01*
X35629508Y-72177982D01*
X35624110Y-72187332D01*
X35528856Y-72391602D01*
X35525168Y-72401736D01*
X35473056Y-72596219D01*
X35472688Y-72607448D01*
X35483631Y-72610000D01*
X36926000Y-72610000D01*
X36988000Y-72626613D01*
X37033387Y-72672000D01*
X37050000Y-72734000D01*
X37050000Y-73335748D01*
X37040561Y-73383201D01*
X37013681Y-73423429D01*
X36930929Y-73506181D01*
X36890701Y-73533061D01*
X36843248Y-73542500D01*
X36674000Y-73542500D01*
X36612000Y-73525887D01*
X36566613Y-73480500D01*
X36550000Y-73418500D01*
X36550000Y-73126326D01*
X36546549Y-73113450D01*
X36533674Y-73110000D01*
X35483631Y-73110000D01*
X35472688Y-73112551D01*
X35473056Y-73123780D01*
X35525168Y-73318263D01*
X35528855Y-73328392D01*
X35546436Y-73366094D01*
X35557789Y-73426609D01*
X35538635Y-73485125D01*
X35493697Y-73527214D01*
X35434054Y-73542500D01*
X35234771Y-73542500D01*
X35223718Y-73541979D01*
X35216332Y-73540328D01*
X35183392Y-73541362D01*
X35119761Y-73526086D01*
X35072767Y-73480545D01*
X35055499Y-73417424D01*
X35055499Y-72432939D01*
X35055499Y-72429628D01*
X35049091Y-72370017D01*
X34998796Y-72235169D01*
X34912546Y-72119954D01*
X34859011Y-72079878D01*
X34804431Y-72039019D01*
X34804430Y-72039018D01*
X34797331Y-72033704D01*
X34689155Y-71993357D01*
X34669752Y-71986120D01*
X34669750Y-71986119D01*
X34662483Y-71983409D01*
X34654770Y-71982579D01*
X34654767Y-71982579D01*
X34606180Y-71977355D01*
X34606169Y-71977354D01*
X34602873Y-71977000D01*
X34599550Y-71977000D01*
X32960439Y-71977000D01*
X32960420Y-71977000D01*
X32957128Y-71977001D01*
X32953850Y-71977353D01*
X32953838Y-71977354D01*
X32905231Y-71982579D01*
X32905225Y-71982580D01*
X32897517Y-71983409D01*
X32890252Y-71986118D01*
X32890246Y-71986120D01*
X32770980Y-72030604D01*
X32770978Y-72030604D01*
X32762669Y-72033704D01*
X32755572Y-72039016D01*
X32755564Y-72039021D01*
X32669707Y-72103293D01*
X32621063Y-72125341D01*
X32567658Y-72124883D01*
X32526479Y-72105363D01*
X32526115Y-72105979D01*
X32519402Y-72102009D01*
X32519398Y-72102007D01*
X32519395Y-72102004D01*
X32519392Y-72102002D01*
X32513236Y-72097227D01*
X32506079Y-72094129D01*
X32506076Y-72094128D01*
X32473149Y-72079878D01*
X32462663Y-72074741D01*
X32431232Y-72057462D01*
X32431223Y-72057458D01*
X32424392Y-72053703D01*
X32416835Y-72051762D01*
X32416831Y-72051761D01*
X32404988Y-72048720D01*
X32386584Y-72042419D01*
X32375357Y-72037560D01*
X32375350Y-72037558D01*
X32368196Y-72034462D01*
X32360492Y-72033241D01*
X32360490Y-72033241D01*
X32325059Y-72027629D01*
X32313624Y-72025261D01*
X32278871Y-72016338D01*
X32278863Y-72016337D01*
X32271319Y-72014400D01*
X32263523Y-72014400D01*
X32251283Y-72014400D01*
X32231897Y-72012874D01*
X32212104Y-72009740D01*
X32204338Y-72010474D01*
X32204335Y-72010474D01*
X32168624Y-72013850D01*
X32156955Y-72014400D01*
X26807946Y-72014400D01*
X26764613Y-72006582D01*
X26709752Y-71986120D01*
X26709750Y-71986119D01*
X26702483Y-71983409D01*
X26694770Y-71982579D01*
X26694767Y-71982579D01*
X26646180Y-71977355D01*
X26646169Y-71977354D01*
X26642873Y-71977000D01*
X26639551Y-71977000D01*
X26093052Y-71977000D01*
X26045599Y-71967561D01*
X26005371Y-71940681D01*
X25817515Y-71752825D01*
X25627386Y-71562695D01*
X25619942Y-71554514D01*
X25615886Y-71548123D01*
X25566875Y-71502098D01*
X25564078Y-71499387D01*
X25547327Y-71482636D01*
X25547326Y-71482635D01*
X25544571Y-71479880D01*
X25541390Y-71477412D01*
X25532514Y-71469830D01*
X25506369Y-71445278D01*
X25506367Y-71445276D01*
X25500682Y-71439938D01*
X25493849Y-71436182D01*
X25493843Y-71436177D01*
X25483125Y-71430285D01*
X25466866Y-71419606D01*
X25457195Y-71412104D01*
X25457192Y-71412102D01*
X25451036Y-71407327D01*
X25443879Y-71404229D01*
X25443876Y-71404228D01*
X25410949Y-71389978D01*
X25400463Y-71384841D01*
X25369032Y-71367562D01*
X25369023Y-71367558D01*
X25362192Y-71363803D01*
X25354635Y-71361862D01*
X25354631Y-71361861D01*
X25342788Y-71358820D01*
X25324384Y-71352519D01*
X25313157Y-71347660D01*
X25313150Y-71347658D01*
X25305996Y-71344562D01*
X25298292Y-71343341D01*
X25298290Y-71343341D01*
X25262859Y-71337729D01*
X25251424Y-71335361D01*
X25216671Y-71326438D01*
X25216663Y-71326437D01*
X25209119Y-71324500D01*
X25201323Y-71324500D01*
X25189083Y-71324500D01*
X25169697Y-71322974D01*
X25149904Y-71319840D01*
X25142138Y-71320574D01*
X25142135Y-71320574D01*
X25106424Y-71323950D01*
X25094755Y-71324500D01*
X24145453Y-71324500D01*
X24089158Y-71310985D01*
X24045135Y-71273385D01*
X24022980Y-71219898D01*
X24027522Y-71162182D01*
X24057772Y-71112819D01*
X24280282Y-70890309D01*
X25107211Y-70063378D01*
X25115381Y-70055944D01*
X25121777Y-70051886D01*
X25167818Y-70002856D01*
X25170435Y-70000154D01*
X25190020Y-69980571D01*
X25192485Y-69977392D01*
X25200067Y-69968516D01*
X25229962Y-69936682D01*
X25239613Y-69919123D01*
X25250290Y-69902870D01*
X25262573Y-69887036D01*
X25277408Y-69852751D01*
X25304452Y-69813405D01*
X25344358Y-69787191D01*
X25391210Y-69777999D01*
X26639561Y-69777999D01*
X26642872Y-69777999D01*
X26702483Y-69771591D01*
X26837331Y-69721296D01*
X26952546Y-69635046D01*
X26956896Y-69629233D01*
X27011083Y-69597759D01*
X27074640Y-69597258D01*
X27089908Y-69601178D01*
X27108314Y-69607480D01*
X27119541Y-69612338D01*
X27126705Y-69615438D01*
X27153422Y-69619669D01*
X27169839Y-69622269D01*
X27181282Y-69624639D01*
X27216025Y-69633560D01*
X27216026Y-69633560D01*
X27223581Y-69635500D01*
X27243617Y-69635500D01*
X27263002Y-69637025D01*
X27282796Y-69640160D01*
X27320876Y-69636560D01*
X27326276Y-69636050D01*
X27337945Y-69635500D01*
X29300452Y-69635500D01*
X29350885Y-69646219D01*
X29388981Y-69673895D01*
X29389150Y-69673709D01*
X29390928Y-69675310D01*
X29392598Y-69676523D01*
X29398329Y-69682888D01*
X29551470Y-69794151D01*
X29724397Y-69871144D01*
X29909554Y-69910500D01*
X30092343Y-69910500D01*
X30098846Y-69910500D01*
X30284003Y-69871144D01*
X30456930Y-69794151D01*
X30610071Y-69682888D01*
X30736733Y-69542216D01*
X30831379Y-69378284D01*
X30844246Y-69338682D01*
X30870026Y-69294028D01*
X30911741Y-69263721D01*
X30962177Y-69253000D01*
X32385336Y-69253000D01*
X32443464Y-69267468D01*
X32488027Y-69307497D01*
X32508626Y-69363746D01*
X32510079Y-69377268D01*
X32510080Y-69377273D01*
X32510909Y-69384983D01*
X32513619Y-69392249D01*
X32513620Y-69392253D01*
X32547217Y-69482331D01*
X32561204Y-69519831D01*
X32566518Y-69526930D01*
X32566519Y-69526931D01*
X32618371Y-69596197D01*
X32647454Y-69635046D01*
X32762669Y-69721296D01*
X32897517Y-69771591D01*
X32957127Y-69778000D01*
X34602872Y-69777999D01*
X34662483Y-69771591D01*
X34797331Y-69721296D01*
X34912546Y-69635046D01*
X34998796Y-69519831D01*
X35049091Y-69384983D01*
X35055500Y-69325373D01*
X35055499Y-67929628D01*
X35049091Y-67870017D01*
X34998796Y-67735169D01*
X34980330Y-67710502D01*
X34961946Y-67675356D01*
X34955600Y-67636196D01*
X34955600Y-67144180D01*
X34970508Y-67085231D01*
X35011648Y-67040457D01*
X35069126Y-67020623D01*
X35129124Y-67030499D01*
X35168687Y-67061111D01*
X35169925Y-67059874D01*
X35284822Y-67174771D01*
X35296543Y-67183954D01*
X35429179Y-67264135D01*
X35442767Y-67270251D01*
X35591627Y-67316638D01*
X35604431Y-67319184D01*
X35665615Y-67324744D01*
X35671244Y-67325000D01*
X35733674Y-67325000D01*
X35746549Y-67321549D01*
X35750000Y-67308674D01*
X35750000Y-67308673D01*
X36250000Y-67308673D01*
X36253450Y-67321548D01*
X36266326Y-67324999D01*
X36328753Y-67324999D01*
X36334386Y-67324743D01*
X36395570Y-67319184D01*
X36408369Y-67316638D01*
X36557232Y-67270251D01*
X36570820Y-67264135D01*
X36703456Y-67183954D01*
X36721080Y-67170147D01*
X36722388Y-67171816D01*
X36767906Y-67145536D01*
X36832094Y-67145536D01*
X36877611Y-67171816D01*
X36878920Y-67170147D01*
X36896543Y-67183954D01*
X37029179Y-67264135D01*
X37042767Y-67270251D01*
X37191627Y-67316638D01*
X37204431Y-67319184D01*
X37265615Y-67324744D01*
X37271244Y-67325000D01*
X37333674Y-67325000D01*
X37346549Y-67321549D01*
X37350000Y-67308674D01*
X37350000Y-67308673D01*
X37850000Y-67308673D01*
X37853450Y-67321548D01*
X37866326Y-67324999D01*
X37928753Y-67324999D01*
X37934386Y-67324743D01*
X37995570Y-67319184D01*
X38008369Y-67316638D01*
X38157232Y-67270251D01*
X38170820Y-67264135D01*
X38303456Y-67183954D01*
X38321080Y-67170147D01*
X38322388Y-67171816D01*
X38367906Y-67145536D01*
X38432094Y-67145536D01*
X38477611Y-67171816D01*
X38478920Y-67170147D01*
X38496543Y-67183954D01*
X38629179Y-67264135D01*
X38642767Y-67270251D01*
X38791627Y-67316638D01*
X38804431Y-67319184D01*
X38865615Y-67324744D01*
X38871244Y-67325000D01*
X38933674Y-67325000D01*
X38946549Y-67321549D01*
X38950000Y-67308674D01*
X38950000Y-66691326D01*
X38946549Y-66678450D01*
X38933674Y-66675000D01*
X37866326Y-66675000D01*
X37853450Y-66678450D01*
X37850000Y-66691326D01*
X37850000Y-67308673D01*
X37350000Y-67308673D01*
X37350000Y-66691326D01*
X37346549Y-66678450D01*
X37333674Y-66675000D01*
X36266326Y-66675000D01*
X36253450Y-66678450D01*
X36250000Y-66691326D01*
X36250000Y-67308673D01*
X35750000Y-67308673D01*
X35750000Y-66299000D01*
X35766613Y-66237000D01*
X35812000Y-66191613D01*
X35874000Y-66175000D01*
X39326000Y-66175000D01*
X39388000Y-66191613D01*
X39433387Y-66237000D01*
X39450000Y-66299000D01*
X39450000Y-67308673D01*
X39453450Y-67321548D01*
X39466326Y-67324999D01*
X39528753Y-67324999D01*
X39534386Y-67324743D01*
X39595570Y-67319184D01*
X39608369Y-67316638D01*
X39757232Y-67270251D01*
X39770820Y-67264135D01*
X39903456Y-67183954D01*
X39915177Y-67174771D01*
X40024771Y-67065177D01*
X40033954Y-67053456D01*
X40089383Y-66961767D01*
X40135238Y-66917545D01*
X40196998Y-66901926D01*
X40258363Y-66919033D01*
X40303136Y-66964350D01*
X40319500Y-67025917D01*
X40319500Y-148375500D01*
X40302887Y-148437500D01*
X40257500Y-148482887D01*
X40195500Y-148499500D01*
X20124500Y-148499500D01*
X20062500Y-148482887D01*
X20017113Y-148437500D01*
X20000500Y-148375500D01*
X20000500Y-145500000D01*
X25074551Y-145500000D01*
X25094317Y-145751148D01*
X25095452Y-145755877D01*
X25095453Y-145755881D01*
X25151989Y-145991374D01*
X25151991Y-145991382D01*
X25153127Y-145996111D01*
X25249534Y-146228859D01*
X25252081Y-146233016D01*
X25252082Y-146233017D01*
X25378617Y-146439504D01*
X25378622Y-146439511D01*
X25381164Y-146443659D01*
X25384324Y-146447358D01*
X25384327Y-146447363D01*
X25534845Y-146623596D01*
X25544776Y-146635224D01*
X25548476Y-146638384D01*
X25730705Y-146794023D01*
X25736341Y-146798836D01*
X25740491Y-146801379D01*
X25740495Y-146801382D01*
X25852300Y-146869896D01*
X25951141Y-146930466D01*
X26183889Y-147026873D01*
X26428852Y-147085683D01*
X26680000Y-147105449D01*
X26931148Y-147085683D01*
X27176111Y-147026873D01*
X27408859Y-146930466D01*
X27623659Y-146798836D01*
X27815224Y-146635224D01*
X27978836Y-146443659D01*
X28110466Y-146228859D01*
X28206873Y-145996111D01*
X28265683Y-145751148D01*
X28285449Y-145500000D01*
X32034551Y-145500000D01*
X32054317Y-145751148D01*
X32055452Y-145755877D01*
X32055453Y-145755881D01*
X32111989Y-145991374D01*
X32111991Y-145991382D01*
X32113127Y-145996111D01*
X32209534Y-146228859D01*
X32212081Y-146233016D01*
X32212082Y-146233017D01*
X32338617Y-146439504D01*
X32338622Y-146439511D01*
X32341164Y-146443659D01*
X32344324Y-146447358D01*
X32344327Y-146447363D01*
X32494845Y-146623596D01*
X32504776Y-146635224D01*
X32508476Y-146638384D01*
X32690705Y-146794023D01*
X32696341Y-146798836D01*
X32700491Y-146801379D01*
X32700495Y-146801382D01*
X32812300Y-146869896D01*
X32911141Y-146930466D01*
X33143889Y-147026873D01*
X33388852Y-147085683D01*
X33640000Y-147105449D01*
X33891148Y-147085683D01*
X34136111Y-147026873D01*
X34368859Y-146930466D01*
X34583659Y-146798836D01*
X34775224Y-146635224D01*
X34938836Y-146443659D01*
X35070466Y-146228859D01*
X35166873Y-145996111D01*
X35225683Y-145751148D01*
X35245449Y-145500000D01*
X35225683Y-145248852D01*
X35166873Y-145003889D01*
X35070466Y-144771141D01*
X34938836Y-144556341D01*
X34775224Y-144364776D01*
X34771523Y-144361615D01*
X34587363Y-144204327D01*
X34587358Y-144204324D01*
X34583659Y-144201164D01*
X34579511Y-144198622D01*
X34579504Y-144198617D01*
X34373017Y-144072082D01*
X34373016Y-144072081D01*
X34368859Y-144069534D01*
X34136111Y-143973127D01*
X34131382Y-143971991D01*
X34131374Y-143971989D01*
X33895881Y-143915453D01*
X33895877Y-143915452D01*
X33891148Y-143914317D01*
X33886295Y-143913935D01*
X33644854Y-143894933D01*
X33640000Y-143894551D01*
X33635146Y-143894933D01*
X33393704Y-143913935D01*
X33393702Y-143913935D01*
X33388852Y-143914317D01*
X33384124Y-143915451D01*
X33384118Y-143915453D01*
X33148625Y-143971989D01*
X33148613Y-143971992D01*
X33143889Y-143973127D01*
X33139392Y-143974989D01*
X33139388Y-143974991D01*
X32915645Y-144067668D01*
X32915640Y-144067670D01*
X32911141Y-144069534D01*
X32906988Y-144072078D01*
X32906982Y-144072082D01*
X32700495Y-144198617D01*
X32700482Y-144198626D01*
X32696341Y-144201164D01*
X32692646Y-144204319D01*
X32692636Y-144204327D01*
X32508476Y-144361615D01*
X32508469Y-144361621D01*
X32504776Y-144364776D01*
X32501621Y-144368469D01*
X32501615Y-144368476D01*
X32344327Y-144552636D01*
X32344319Y-144552646D01*
X32341164Y-144556341D01*
X32338626Y-144560482D01*
X32338617Y-144560495D01*
X32212082Y-144766982D01*
X32212078Y-144766988D01*
X32209534Y-144771141D01*
X32207670Y-144775640D01*
X32207668Y-144775645D01*
X32114991Y-144999388D01*
X32113127Y-145003889D01*
X32111992Y-145008613D01*
X32111989Y-145008625D01*
X32055453Y-145244118D01*
X32055451Y-145244124D01*
X32054317Y-145248852D01*
X32034551Y-145500000D01*
X28285449Y-145500000D01*
X28265683Y-145248852D01*
X28206873Y-145003889D01*
X28110466Y-144771141D01*
X27978836Y-144556341D01*
X27815224Y-144364776D01*
X27811523Y-144361615D01*
X27627363Y-144204327D01*
X27627358Y-144204324D01*
X27623659Y-144201164D01*
X27619511Y-144198622D01*
X27619504Y-144198617D01*
X27413017Y-144072082D01*
X27413016Y-144072081D01*
X27408859Y-144069534D01*
X27176111Y-143973127D01*
X27171382Y-143971991D01*
X27171374Y-143971989D01*
X26935881Y-143915453D01*
X26935877Y-143915452D01*
X26931148Y-143914317D01*
X26926295Y-143913935D01*
X26684854Y-143894933D01*
X26680000Y-143894551D01*
X26675146Y-143894933D01*
X26433704Y-143913935D01*
X26433702Y-143913935D01*
X26428852Y-143914317D01*
X26424124Y-143915451D01*
X26424118Y-143915453D01*
X26188625Y-143971989D01*
X26188613Y-143971992D01*
X26183889Y-143973127D01*
X26179392Y-143974989D01*
X26179388Y-143974991D01*
X25955645Y-144067668D01*
X25955640Y-144067670D01*
X25951141Y-144069534D01*
X25946988Y-144072078D01*
X25946982Y-144072082D01*
X25740495Y-144198617D01*
X25740482Y-144198626D01*
X25736341Y-144201164D01*
X25732646Y-144204319D01*
X25732636Y-144204327D01*
X25548476Y-144361615D01*
X25548469Y-144361621D01*
X25544776Y-144364776D01*
X25541621Y-144368469D01*
X25541615Y-144368476D01*
X25384327Y-144552636D01*
X25384319Y-144552646D01*
X25381164Y-144556341D01*
X25378626Y-144560482D01*
X25378617Y-144560495D01*
X25252082Y-144766982D01*
X25252078Y-144766988D01*
X25249534Y-144771141D01*
X25247670Y-144775640D01*
X25247668Y-144775645D01*
X25154991Y-144999388D01*
X25153127Y-145003889D01*
X25151992Y-145008613D01*
X25151989Y-145008625D01*
X25095453Y-145244118D01*
X25095451Y-145244124D01*
X25094317Y-145248852D01*
X25074551Y-145500000D01*
X20000500Y-145500000D01*
X20000500Y-138000000D01*
X21499459Y-138000000D01*
X21499617Y-138000383D01*
X21499901Y-138000500D01*
X24487944Y-138000500D01*
X24500099Y-138000500D01*
X24500383Y-138000383D01*
X24500541Y-138000000D01*
X26499459Y-138000000D01*
X26499617Y-138000383D01*
X26499901Y-138000500D01*
X29487944Y-138000500D01*
X29500099Y-138000500D01*
X29500383Y-138000383D01*
X29500541Y-138000000D01*
X31499459Y-138000000D01*
X31499617Y-138000383D01*
X31499901Y-138000500D01*
X34487944Y-138000500D01*
X34500099Y-138000500D01*
X34500383Y-138000383D01*
X34500541Y-138000000D01*
X36499459Y-138000000D01*
X36499617Y-138000383D01*
X36499901Y-138000500D01*
X39487944Y-138000500D01*
X39500099Y-138000500D01*
X39500383Y-138000383D01*
X39500541Y-138000000D01*
X39500383Y-137999617D01*
X39500099Y-137999500D01*
X36499901Y-137999500D01*
X36499617Y-137999617D01*
X36499459Y-138000000D01*
X34500541Y-138000000D01*
X34500383Y-137999617D01*
X34500099Y-137999500D01*
X31499901Y-137999500D01*
X31499617Y-137999617D01*
X31499459Y-138000000D01*
X29500541Y-138000000D01*
X29500383Y-137999617D01*
X29500099Y-137999500D01*
X26499901Y-137999500D01*
X26499617Y-137999617D01*
X26499459Y-138000000D01*
X24500541Y-138000000D01*
X24500383Y-137999617D01*
X24500099Y-137999500D01*
X21499901Y-137999500D01*
X21499617Y-137999617D01*
X21499459Y-138000000D01*
X20000500Y-138000000D01*
X20000500Y-131709518D01*
X21285000Y-131709518D01*
X21285353Y-131716114D01*
X21290573Y-131764667D01*
X21294111Y-131779641D01*
X21338547Y-131898777D01*
X21346962Y-131914189D01*
X21422498Y-132015092D01*
X21434907Y-132027501D01*
X21535810Y-132103037D01*
X21551222Y-132111452D01*
X21670358Y-132155888D01*
X21685332Y-132159426D01*
X21733885Y-132164646D01*
X21740482Y-132165000D01*
X22433674Y-132165000D01*
X22446549Y-132161549D01*
X22450000Y-132148674D01*
X22950000Y-132148674D01*
X22953450Y-132161549D01*
X22966326Y-132165000D01*
X23659518Y-132165000D01*
X23666114Y-132164646D01*
X23714667Y-132159426D01*
X23729641Y-132155888D01*
X23848777Y-132111452D01*
X23864189Y-132103037D01*
X23965092Y-132027501D01*
X23977501Y-132015092D01*
X24053037Y-131914189D01*
X24061452Y-131898777D01*
X24105888Y-131779641D01*
X24109426Y-131764667D01*
X24114646Y-131716114D01*
X24115000Y-131709518D01*
X24115000Y-131346289D01*
X24133273Y-131281499D01*
X24182705Y-131235804D01*
X24248729Y-131222671D01*
X24311885Y-131245971D01*
X24353560Y-131298835D01*
X24400816Y-131412920D01*
X24529567Y-131623023D01*
X24532731Y-131626728D01*
X24532735Y-131626733D01*
X24650542Y-131764667D01*
X24689601Y-131810399D01*
X24693308Y-131813565D01*
X24873266Y-131967264D01*
X24873269Y-131967266D01*
X24876977Y-131970433D01*
X25087080Y-132099184D01*
X25314738Y-132193483D01*
X25554345Y-132251007D01*
X25800000Y-132270341D01*
X26045655Y-132251007D01*
X26285262Y-132193483D01*
X26512920Y-132099184D01*
X26723023Y-131970433D01*
X26910399Y-131810399D01*
X27070433Y-131623023D01*
X27199184Y-131412920D01*
X27293483Y-131185262D01*
X27351007Y-130945655D01*
X27362078Y-130804993D01*
X27678525Y-130804993D01*
X27679294Y-130810022D01*
X27679295Y-130810028D01*
X27715064Y-131043778D01*
X27715065Y-131043784D01*
X27715835Y-131048813D01*
X27717415Y-131053647D01*
X27717416Y-131053651D01*
X27772660Y-131222671D01*
X27792466Y-131283266D01*
X27794813Y-131287775D01*
X27794815Y-131287779D01*
X27859960Y-131412920D01*
X27906360Y-131502054D01*
X27909414Y-131506122D01*
X27909415Y-131506123D01*
X27997185Y-131623023D01*
X28054458Y-131699303D01*
X28232784Y-131869714D01*
X28304207Y-131918435D01*
X28432343Y-132005844D01*
X28432346Y-132005846D01*
X28436548Y-132008712D01*
X28660278Y-132112564D01*
X28897965Y-132178481D01*
X29143226Y-132204692D01*
X29389475Y-132190493D01*
X29630099Y-132136266D01*
X29858634Y-132043468D01*
X30068945Y-131914589D01*
X30255382Y-131753092D01*
X30412939Y-131563313D01*
X30537385Y-131350350D01*
X30625377Y-131119921D01*
X30674553Y-130878215D01*
X30681088Y-130700000D01*
X32529659Y-130700000D01*
X32548993Y-130945655D01*
X32550128Y-130950384D01*
X32550129Y-130950388D01*
X32605379Y-131180525D01*
X32605381Y-131180533D01*
X32606517Y-131185262D01*
X32700816Y-131412920D01*
X32829567Y-131623023D01*
X32832731Y-131626728D01*
X32832735Y-131626733D01*
X32950542Y-131764667D01*
X32989601Y-131810399D01*
X32993308Y-131813565D01*
X33173266Y-131967264D01*
X33173269Y-131967266D01*
X33176977Y-131970433D01*
X33387080Y-132099184D01*
X33614738Y-132193483D01*
X33854345Y-132251007D01*
X34100000Y-132270341D01*
X34345655Y-132251007D01*
X34585262Y-132193483D01*
X34812920Y-132099184D01*
X35023023Y-131970433D01*
X35210399Y-131810399D01*
X35370433Y-131623023D01*
X35499184Y-131412920D01*
X35593483Y-131185262D01*
X35651007Y-130945655D01*
X35670341Y-130700000D01*
X35651007Y-130454345D01*
X35593483Y-130214738D01*
X35499184Y-129987080D01*
X35370433Y-129776977D01*
X35296559Y-129690482D01*
X35213565Y-129593308D01*
X35210399Y-129589601D01*
X35172680Y-129557386D01*
X35026733Y-129432735D01*
X35026728Y-129432731D01*
X35023023Y-129429567D01*
X34812920Y-129300816D01*
X34585262Y-129206517D01*
X34580533Y-129205381D01*
X34580525Y-129205379D01*
X34350388Y-129150129D01*
X34350384Y-129150128D01*
X34345655Y-129148993D01*
X34340802Y-129148611D01*
X34104854Y-129130041D01*
X34100000Y-129129659D01*
X34095146Y-129130041D01*
X33859197Y-129148611D01*
X33859195Y-129148611D01*
X33854345Y-129148993D01*
X33849617Y-129150127D01*
X33849611Y-129150129D01*
X33619474Y-129205379D01*
X33619462Y-129205382D01*
X33614738Y-129206517D01*
X33610241Y-129208379D01*
X33610237Y-129208381D01*
X33391584Y-129298950D01*
X33391579Y-129298952D01*
X33387080Y-129300816D01*
X33382927Y-129303360D01*
X33382921Y-129303364D01*
X33181134Y-129427019D01*
X33181128Y-129427022D01*
X33176977Y-129429567D01*
X33173277Y-129432726D01*
X33173266Y-129432735D01*
X32993308Y-129586434D01*
X32993301Y-129586440D01*
X32989601Y-129589601D01*
X32986440Y-129593301D01*
X32986434Y-129593308D01*
X32832735Y-129773266D01*
X32832726Y-129773277D01*
X32829567Y-129776977D01*
X32827022Y-129781128D01*
X32827019Y-129781134D01*
X32703364Y-129982921D01*
X32703360Y-129982927D01*
X32700816Y-129987080D01*
X32698952Y-129991579D01*
X32698950Y-129991584D01*
X32619202Y-130184113D01*
X32606517Y-130214738D01*
X32605382Y-130219462D01*
X32605379Y-130219474D01*
X32550129Y-130449611D01*
X32550127Y-130449617D01*
X32548993Y-130454345D01*
X32529659Y-130700000D01*
X30681088Y-130700000D01*
X30683592Y-130631722D01*
X30675417Y-130567906D01*
X30652896Y-130392106D01*
X30652895Y-130392104D01*
X30652250Y-130387064D01*
X30581370Y-130150809D01*
X30472856Y-129929303D01*
X30329621Y-129728495D01*
X30326029Y-129724890D01*
X30159109Y-129557386D01*
X30159105Y-129557382D01*
X30155512Y-129553777D01*
X30144447Y-129545826D01*
X29959340Y-129412813D01*
X29959337Y-129412811D01*
X29955205Y-129409842D01*
X29734079Y-129300555D01*
X29729211Y-129299075D01*
X29729206Y-129299074D01*
X29548300Y-129244111D01*
X29498074Y-129228851D01*
X29493033Y-129228187D01*
X29493027Y-129228186D01*
X29256800Y-129197087D01*
X29256799Y-129197086D01*
X29253526Y-129196656D01*
X29250232Y-129196575D01*
X29250226Y-129196575D01*
X29183308Y-129194939D01*
X29183292Y-129194939D01*
X29180000Y-129194859D01*
X29176705Y-129195129D01*
X29176701Y-129195130D01*
X28939245Y-129214652D01*
X28939234Y-129214653D01*
X28934171Y-129215070D01*
X28929240Y-129216308D01*
X28929231Y-129216310D01*
X28699881Y-129273919D01*
X28699879Y-129273919D01*
X28694945Y-129275159D01*
X28690277Y-129277188D01*
X28690276Y-129277189D01*
X28473408Y-129371485D01*
X28473397Y-129371490D01*
X28468744Y-129373514D01*
X28464485Y-129376268D01*
X28464476Y-129376274D01*
X28265913Y-129504730D01*
X28265905Y-129504735D01*
X28261645Y-129507492D01*
X28257891Y-129510907D01*
X28257883Y-129510914D01*
X28082968Y-129670075D01*
X28082958Y-129670084D01*
X28079210Y-129673496D01*
X28076063Y-129677480D01*
X28076060Y-129677484D01*
X27929487Y-129863077D01*
X27929482Y-129863084D01*
X27926336Y-129867068D01*
X27923885Y-129871507D01*
X27923879Y-129871517D01*
X27810986Y-130076025D01*
X27807131Y-130083008D01*
X27805434Y-130087799D01*
X27805430Y-130087809D01*
X27771327Y-130184113D01*
X27724794Y-130315518D01*
X27723903Y-130320518D01*
X27723900Y-130320531D01*
X27682431Y-130553343D01*
X27682430Y-130553349D01*
X27681539Y-130558354D01*
X27681477Y-130563427D01*
X27681476Y-130563438D01*
X27679568Y-130719609D01*
X27678525Y-130804993D01*
X27362078Y-130804993D01*
X27370341Y-130700000D01*
X27351007Y-130454345D01*
X27293483Y-130214738D01*
X27199184Y-129987080D01*
X27070433Y-129776977D01*
X26996559Y-129690482D01*
X26913565Y-129593308D01*
X26910399Y-129589601D01*
X26872680Y-129557386D01*
X26726733Y-129432735D01*
X26726728Y-129432731D01*
X26723023Y-129429567D01*
X26512920Y-129300816D01*
X26285262Y-129206517D01*
X26280533Y-129205381D01*
X26280525Y-129205379D01*
X26050388Y-129150129D01*
X26050384Y-129150128D01*
X26045655Y-129148993D01*
X26040802Y-129148611D01*
X25804854Y-129130041D01*
X25800000Y-129129659D01*
X25795146Y-129130041D01*
X25559197Y-129148611D01*
X25559195Y-129148611D01*
X25554345Y-129148993D01*
X25549617Y-129150127D01*
X25549611Y-129150129D01*
X25319474Y-129205379D01*
X25319462Y-129205382D01*
X25314738Y-129206517D01*
X25310241Y-129208379D01*
X25310237Y-129208381D01*
X25091584Y-129298950D01*
X25091579Y-129298952D01*
X25087080Y-129300816D01*
X25082927Y-129303360D01*
X25082921Y-129303364D01*
X24881134Y-129427019D01*
X24881128Y-129427022D01*
X24876977Y-129429567D01*
X24873277Y-129432726D01*
X24873266Y-129432735D01*
X24693308Y-129586434D01*
X24693301Y-129586440D01*
X24689601Y-129589601D01*
X24686440Y-129593301D01*
X24686434Y-129593308D01*
X24532735Y-129773266D01*
X24532726Y-129773277D01*
X24529567Y-129776977D01*
X24527022Y-129781128D01*
X24527019Y-129781134D01*
X24403364Y-129982921D01*
X24403360Y-129982927D01*
X24400816Y-129987080D01*
X24398952Y-129991579D01*
X24398950Y-129991584D01*
X24353561Y-130101164D01*
X24311885Y-130154029D01*
X24248729Y-130177329D01*
X24182705Y-130164196D01*
X24133273Y-130118501D01*
X24115000Y-130053711D01*
X24115000Y-129690482D01*
X24114646Y-129683885D01*
X24109426Y-129635332D01*
X24105888Y-129620358D01*
X24061452Y-129501222D01*
X24053037Y-129485810D01*
X23977501Y-129384907D01*
X23965092Y-129372498D01*
X23864189Y-129296962D01*
X23848777Y-129288547D01*
X23729641Y-129244111D01*
X23714667Y-129240573D01*
X23666114Y-129235353D01*
X23659518Y-129235000D01*
X22966326Y-129235000D01*
X22953450Y-129238450D01*
X22950000Y-129251326D01*
X22950000Y-132148674D01*
X22450000Y-132148674D01*
X22450000Y-130966326D01*
X22446549Y-130953450D01*
X22433674Y-130950000D01*
X21301326Y-130950000D01*
X21288450Y-130953450D01*
X21285000Y-130966326D01*
X21285000Y-131709518D01*
X20000500Y-131709518D01*
X20000500Y-130433674D01*
X21285000Y-130433674D01*
X21288450Y-130446549D01*
X21301326Y-130450000D01*
X22433674Y-130450000D01*
X22446549Y-130446549D01*
X22450000Y-130433674D01*
X22450000Y-129251326D01*
X22446549Y-129238450D01*
X22433674Y-129235000D01*
X21740482Y-129235000D01*
X21733885Y-129235353D01*
X21685332Y-129240573D01*
X21670358Y-129244111D01*
X21551222Y-129288547D01*
X21535810Y-129296962D01*
X21434907Y-129372498D01*
X21422498Y-129384907D01*
X21346962Y-129485810D01*
X21338547Y-129501222D01*
X21294111Y-129620358D01*
X21290573Y-129635332D01*
X21285353Y-129683885D01*
X21285000Y-129690482D01*
X21285000Y-130433674D01*
X20000500Y-130433674D01*
X20000500Y-121409518D01*
X21305000Y-121409518D01*
X21305353Y-121416114D01*
X21310573Y-121464667D01*
X21314111Y-121479641D01*
X21358547Y-121598777D01*
X21366962Y-121614189D01*
X21442498Y-121715092D01*
X21454907Y-121727501D01*
X21555810Y-121803037D01*
X21571222Y-121811452D01*
X21690358Y-121855888D01*
X21705332Y-121859426D01*
X21753885Y-121864646D01*
X21760482Y-121865000D01*
X22453674Y-121865000D01*
X22466549Y-121861549D01*
X22470000Y-121848674D01*
X22970000Y-121848674D01*
X22973450Y-121861549D01*
X22986326Y-121865000D01*
X23679518Y-121865000D01*
X23686114Y-121864646D01*
X23734667Y-121859426D01*
X23749641Y-121855888D01*
X23868777Y-121811452D01*
X23884189Y-121803037D01*
X23985092Y-121727501D01*
X23997501Y-121715092D01*
X24073037Y-121614189D01*
X24081452Y-121598777D01*
X24125888Y-121479641D01*
X24129426Y-121464667D01*
X24134646Y-121416114D01*
X24135000Y-121409518D01*
X24135000Y-121046289D01*
X24153273Y-120981499D01*
X24202705Y-120935804D01*
X24268729Y-120922671D01*
X24331885Y-120945971D01*
X24373560Y-120998835D01*
X24420816Y-121112920D01*
X24549567Y-121323023D01*
X24552731Y-121326728D01*
X24552735Y-121326733D01*
X24660656Y-121453092D01*
X24709601Y-121510399D01*
X24713308Y-121513565D01*
X24893266Y-121667264D01*
X24893269Y-121667266D01*
X24896977Y-121670433D01*
X25107080Y-121799184D01*
X25334738Y-121893483D01*
X25574345Y-121951007D01*
X25820000Y-121970341D01*
X26065655Y-121951007D01*
X26305262Y-121893483D01*
X26532920Y-121799184D01*
X26743023Y-121670433D01*
X26930399Y-121510399D01*
X27090433Y-121323023D01*
X27219184Y-121112920D01*
X27313483Y-120885262D01*
X27371007Y-120645655D01*
X27382078Y-120504993D01*
X27698525Y-120504993D01*
X27699294Y-120510022D01*
X27699295Y-120510028D01*
X27735064Y-120743778D01*
X27735065Y-120743784D01*
X27735835Y-120748813D01*
X27737415Y-120753647D01*
X27737416Y-120753651D01*
X27792660Y-120922671D01*
X27812466Y-120983266D01*
X27814813Y-120987775D01*
X27814815Y-120987779D01*
X27882124Y-121117078D01*
X27926360Y-121202054D01*
X27929414Y-121206122D01*
X27929415Y-121206123D01*
X28048112Y-121364214D01*
X28074458Y-121399303D01*
X28078136Y-121402817D01*
X28078138Y-121402820D01*
X28120518Y-121443319D01*
X28252784Y-121569714D01*
X28323434Y-121617908D01*
X28452343Y-121705844D01*
X28452346Y-121705846D01*
X28456548Y-121708712D01*
X28680278Y-121812564D01*
X28917965Y-121878481D01*
X29163226Y-121904692D01*
X29409475Y-121890493D01*
X29650099Y-121836266D01*
X29878634Y-121743468D01*
X30088945Y-121614589D01*
X30275382Y-121453092D01*
X30432939Y-121263313D01*
X30557385Y-121050350D01*
X30645377Y-120819921D01*
X30694553Y-120578215D01*
X30701088Y-120400000D01*
X32549659Y-120400000D01*
X32568993Y-120645655D01*
X32570128Y-120650384D01*
X32570129Y-120650388D01*
X32625379Y-120880525D01*
X32625381Y-120880533D01*
X32626517Y-120885262D01*
X32720816Y-121112920D01*
X32849567Y-121323023D01*
X32852731Y-121326728D01*
X32852735Y-121326733D01*
X32960656Y-121453092D01*
X33009601Y-121510399D01*
X33013308Y-121513565D01*
X33193266Y-121667264D01*
X33193269Y-121667266D01*
X33196977Y-121670433D01*
X33407080Y-121799184D01*
X33634738Y-121893483D01*
X33874345Y-121951007D01*
X34120000Y-121970341D01*
X34365655Y-121951007D01*
X34605262Y-121893483D01*
X34832920Y-121799184D01*
X35043023Y-121670433D01*
X35230399Y-121510399D01*
X35390433Y-121323023D01*
X35519184Y-121112920D01*
X35613483Y-120885262D01*
X35671007Y-120645655D01*
X35690341Y-120400000D01*
X35671007Y-120154345D01*
X35613483Y-119914738D01*
X35608980Y-119903867D01*
X35599539Y-119856417D01*
X35608977Y-119808961D01*
X35635855Y-119768733D01*
X35871685Y-119532903D01*
X35929232Y-119500303D01*
X35995356Y-119501926D01*
X36051239Y-119537312D01*
X36080979Y-119596393D01*
X36083362Y-119608373D01*
X36129748Y-119757232D01*
X36135864Y-119770820D01*
X36216045Y-119903456D01*
X36225228Y-119915177D01*
X36334820Y-120024769D01*
X36339677Y-120028574D01*
X36376281Y-120075293D01*
X36386981Y-120133671D01*
X36369325Y-120190335D01*
X36327358Y-120232303D01*
X36271545Y-120266043D01*
X36259822Y-120275228D01*
X36150228Y-120384822D01*
X36141045Y-120396543D01*
X36060864Y-120529179D01*
X36054748Y-120542767D01*
X36008361Y-120691627D01*
X36005815Y-120704431D01*
X36000255Y-120765615D01*
X36000000Y-120771244D01*
X36000000Y-120833674D01*
X36003450Y-120846549D01*
X36016326Y-120850000D01*
X36633674Y-120850000D01*
X36646549Y-120846549D01*
X36650000Y-120833674D01*
X36650000Y-120195870D01*
X36661618Y-120143464D01*
X36694296Y-120100879D01*
X36712754Y-120091270D01*
X36721211Y-120082813D01*
X36725000Y-120068674D01*
X36725000Y-119074000D01*
X36741613Y-119012000D01*
X36787000Y-118966613D01*
X36849000Y-118950000D01*
X37101000Y-118950000D01*
X37163000Y-118966613D01*
X37208387Y-119012000D01*
X37225000Y-119074000D01*
X37225000Y-120104130D01*
X37213382Y-120156536D01*
X37180704Y-120199121D01*
X37162245Y-120208729D01*
X37153788Y-120217186D01*
X37150000Y-120231326D01*
X37150000Y-121226000D01*
X37133387Y-121288000D01*
X37088000Y-121333387D01*
X37026000Y-121350000D01*
X36016327Y-121350000D01*
X36003451Y-121353450D01*
X36000001Y-121366326D01*
X36000001Y-121428753D01*
X36000256Y-121434386D01*
X36005815Y-121495570D01*
X36008361Y-121508369D01*
X36054748Y-121657232D01*
X36060864Y-121670820D01*
X36141045Y-121803456D01*
X36150228Y-121815177D01*
X36259822Y-121924771D01*
X36271543Y-121933954D01*
X36404179Y-122014135D01*
X36417760Y-122020247D01*
X36491735Y-122043299D01*
X36544618Y-122076146D01*
X36574873Y-122130553D01*
X36574876Y-122192806D01*
X36544625Y-122247216D01*
X36499077Y-122275512D01*
X36499600Y-122276674D01*
X36479179Y-122285864D01*
X36346543Y-122366045D01*
X36334822Y-122375228D01*
X36225228Y-122484822D01*
X36216045Y-122496543D01*
X36135864Y-122629179D01*
X36129748Y-122642767D01*
X36083361Y-122791627D01*
X36080815Y-122804431D01*
X36075255Y-122865615D01*
X36075000Y-122871244D01*
X36075000Y-122933674D01*
X36078450Y-122946549D01*
X36091326Y-122950000D01*
X37050500Y-122950000D01*
X37112500Y-122966613D01*
X37157887Y-123012000D01*
X37174500Y-123074000D01*
X37174500Y-123326000D01*
X37157887Y-123388000D01*
X37112500Y-123433387D01*
X37050500Y-123450000D01*
X36091327Y-123450000D01*
X36078451Y-123453450D01*
X36075001Y-123466326D01*
X36075001Y-123528753D01*
X36075256Y-123534386D01*
X36080815Y-123595570D01*
X36083361Y-123608369D01*
X36129748Y-123757232D01*
X36135864Y-123770820D01*
X36216045Y-123903456D01*
X36225228Y-123915177D01*
X36334821Y-124024770D01*
X36345092Y-124032817D01*
X36385422Y-124088800D01*
X36389588Y-124157672D01*
X36356299Y-124218108D01*
X35878696Y-124695711D01*
X35870511Y-124703159D01*
X35864123Y-124707214D01*
X35858788Y-124712894D01*
X35858783Y-124712899D01*
X35818096Y-124756225D01*
X35815392Y-124759016D01*
X35798628Y-124775780D01*
X35798621Y-124775787D01*
X35795880Y-124778529D01*
X35793500Y-124781596D01*
X35793489Y-124781609D01*
X35793400Y-124781725D01*
X35785842Y-124790570D01*
X35761280Y-124816727D01*
X35761273Y-124816736D01*
X35755938Y-124822418D01*
X35752182Y-124829249D01*
X35752179Y-124829254D01*
X35746285Y-124839975D01*
X35735609Y-124856227D01*
X35728109Y-124865896D01*
X35728101Y-124865907D01*
X35723327Y-124872064D01*
X35720234Y-124879208D01*
X35720229Y-124879219D01*
X35705974Y-124912160D01*
X35700838Y-124922643D01*
X35679803Y-124960908D01*
X35677864Y-124968456D01*
X35677863Y-124968461D01*
X35674822Y-124980307D01*
X35668521Y-124998711D01*
X35663658Y-125009948D01*
X35663656Y-125009952D01*
X35660562Y-125017104D01*
X35659342Y-125024803D01*
X35659342Y-125024805D01*
X35653729Y-125060241D01*
X35651361Y-125071676D01*
X35642438Y-125106428D01*
X35642436Y-125106436D01*
X35640500Y-125113981D01*
X35640500Y-125121777D01*
X35640500Y-125134017D01*
X35638974Y-125153402D01*
X35635840Y-125173196D01*
X35636574Y-125180961D01*
X35636574Y-125180964D01*
X35639950Y-125216676D01*
X35640500Y-125228345D01*
X35640500Y-125878240D01*
X35639981Y-125889212D01*
X35638337Y-125896565D01*
X35638580Y-125904359D01*
X35638580Y-125904366D01*
X35640439Y-125963806D01*
X35640500Y-125967680D01*
X35640500Y-125995350D01*
X35640987Y-125999209D01*
X35640988Y-125999218D01*
X35640997Y-125999285D01*
X35641912Y-126010940D01*
X35643275Y-126054526D01*
X35645449Y-126062015D01*
X35645450Y-126062019D01*
X35648878Y-126073828D01*
X35652815Y-126092848D01*
X35654356Y-126105046D01*
X35654358Y-126105056D01*
X35655336Y-126112792D01*
X35658205Y-126120039D01*
X35658207Y-126120045D01*
X35671391Y-126153343D01*
X35675180Y-126164412D01*
X35687341Y-126206296D01*
X35691311Y-126213012D01*
X35691313Y-126213016D01*
X35697568Y-126223596D01*
X35706114Y-126241043D01*
X35713514Y-126259732D01*
X35739152Y-126295019D01*
X35745569Y-126304791D01*
X35767767Y-126342339D01*
X35773279Y-126347853D01*
X35773281Y-126347855D01*
X35781972Y-126356548D01*
X35794597Y-126371333D01*
X35801819Y-126381274D01*
X35801821Y-126381276D01*
X35806406Y-126387587D01*
X35840009Y-126415385D01*
X35848659Y-126423257D01*
X37088196Y-127663200D01*
X37115065Y-127703424D01*
X37123907Y-127747886D01*
X37124339Y-127747865D01*
X37124489Y-127750812D01*
X37124500Y-127750867D01*
X37124500Y-127754174D01*
X37124818Y-127757288D01*
X37124819Y-127757305D01*
X37133875Y-127845947D01*
X37133876Y-127845952D01*
X37134564Y-127852685D01*
X37187451Y-128012287D01*
X37275719Y-128155391D01*
X37394609Y-128274281D01*
X37400754Y-128278071D01*
X37400755Y-128278072D01*
X37415596Y-128287226D01*
X37458777Y-128332333D01*
X37474500Y-128392765D01*
X37474500Y-128907235D01*
X37458777Y-128967667D01*
X37415596Y-129012774D01*
X37400755Y-129021927D01*
X37400748Y-129021931D01*
X37394609Y-129025719D01*
X37389505Y-129030822D01*
X37389501Y-129030826D01*
X37280829Y-129139498D01*
X37280825Y-129139502D01*
X37275719Y-129144609D01*
X37271928Y-129150754D01*
X37271924Y-129150760D01*
X37191243Y-129281564D01*
X37191240Y-129281569D01*
X37187451Y-129287713D01*
X37185180Y-129294564D01*
X37185179Y-129294568D01*
X37141289Y-129427019D01*
X37134564Y-129447315D01*
X37133876Y-129454045D01*
X37133875Y-129454052D01*
X37124819Y-129542694D01*
X37124818Y-129542712D01*
X37124500Y-129545826D01*
X37124500Y-130079174D01*
X37124818Y-130082288D01*
X37124819Y-130082305D01*
X37133875Y-130170947D01*
X37133876Y-130170952D01*
X37134564Y-130177685D01*
X37136693Y-130184112D01*
X37136694Y-130184113D01*
X37181898Y-130320531D01*
X37187451Y-130337287D01*
X37191242Y-130343434D01*
X37191243Y-130343435D01*
X37259653Y-130454345D01*
X37275719Y-130480391D01*
X37280829Y-130485501D01*
X37307647Y-130512319D01*
X37339741Y-130567906D01*
X37339741Y-130632094D01*
X37307647Y-130687681D01*
X37280829Y-130714498D01*
X37280825Y-130714502D01*
X37275719Y-130719609D01*
X37271928Y-130725754D01*
X37271924Y-130725760D01*
X37191243Y-130856564D01*
X37191240Y-130856569D01*
X37187451Y-130862713D01*
X37185180Y-130869564D01*
X37185179Y-130869568D01*
X37153117Y-130966326D01*
X37134564Y-131022315D01*
X37133876Y-131029045D01*
X37133875Y-131029052D01*
X37124819Y-131117694D01*
X37124818Y-131117712D01*
X37124500Y-131120826D01*
X37124500Y-131654174D01*
X37124818Y-131657288D01*
X37124819Y-131657305D01*
X37133875Y-131745947D01*
X37133876Y-131745952D01*
X37134564Y-131752685D01*
X37187451Y-131912287D01*
X37191242Y-131918434D01*
X37191243Y-131918435D01*
X37268364Y-132043468D01*
X37275719Y-132055391D01*
X37394609Y-132174281D01*
X37400754Y-132178071D01*
X37400755Y-132178072D01*
X37415596Y-132187226D01*
X37458777Y-132232333D01*
X37474500Y-132292765D01*
X37474500Y-132807235D01*
X37458777Y-132867667D01*
X37415596Y-132912774D01*
X37400755Y-132921927D01*
X37400748Y-132921931D01*
X37394609Y-132925719D01*
X37389505Y-132930822D01*
X37389501Y-132930826D01*
X37280829Y-133039498D01*
X37280825Y-133039502D01*
X37275719Y-133044609D01*
X37271928Y-133050754D01*
X37271924Y-133050760D01*
X37191243Y-133181564D01*
X37191240Y-133181569D01*
X37187451Y-133187713D01*
X37134564Y-133347315D01*
X37133876Y-133354045D01*
X37133875Y-133354052D01*
X37124819Y-133442694D01*
X37124818Y-133442712D01*
X37124500Y-133445826D01*
X37124500Y-133979174D01*
X37124818Y-133982288D01*
X37124819Y-133982305D01*
X37133875Y-134070947D01*
X37133876Y-134070952D01*
X37134564Y-134077685D01*
X37136693Y-134084112D01*
X37136694Y-134084113D01*
X37142627Y-134102019D01*
X37187451Y-134237287D01*
X37191242Y-134243434D01*
X37191243Y-134243435D01*
X37267698Y-134367388D01*
X37275719Y-134380391D01*
X37280829Y-134385501D01*
X37307647Y-134412319D01*
X37339741Y-134467906D01*
X37339741Y-134532094D01*
X37307647Y-134587681D01*
X37280829Y-134614498D01*
X37280825Y-134614502D01*
X37275719Y-134619609D01*
X37271928Y-134625754D01*
X37271924Y-134625760D01*
X37191243Y-134756564D01*
X37191240Y-134756569D01*
X37187451Y-134762713D01*
X37134564Y-134922315D01*
X37133876Y-134929045D01*
X37133875Y-134929052D01*
X37124819Y-135017694D01*
X37124818Y-135017712D01*
X37124500Y-135020826D01*
X37124500Y-135554174D01*
X37124818Y-135557288D01*
X37124819Y-135557305D01*
X37133875Y-135645947D01*
X37133876Y-135645952D01*
X37134564Y-135652685D01*
X37187451Y-135812287D01*
X37275719Y-135955391D01*
X37394609Y-136074281D01*
X37537713Y-136162549D01*
X37697315Y-136215436D01*
X37795826Y-136225500D01*
X38401025Y-136225500D01*
X38404174Y-136225500D01*
X38502685Y-136215436D01*
X38662287Y-136162549D01*
X38805391Y-136074281D01*
X38924281Y-135955391D01*
X39012549Y-135812287D01*
X39065436Y-135652685D01*
X39075500Y-135554174D01*
X39075500Y-135247992D01*
X39084931Y-135200557D01*
X39111791Y-135160339D01*
X39502314Y-134769568D01*
X39751578Y-134520145D01*
X39759644Y-134512803D01*
X39765977Y-134508786D01*
X39812092Y-134459676D01*
X39814734Y-134456949D01*
X39834351Y-134437322D01*
X39836750Y-134434225D01*
X39836784Y-134434188D01*
X39844350Y-134425327D01*
X39874162Y-134393582D01*
X39883869Y-134375923D01*
X39894527Y-134359692D01*
X39906875Y-134343764D01*
X39924160Y-134303785D01*
X39929317Y-134293254D01*
X39946537Y-134261931D01*
X39950297Y-134255092D01*
X39955308Y-134235571D01*
X39961595Y-134217199D01*
X39969593Y-134198704D01*
X39976393Y-134155679D01*
X39978764Y-134144217D01*
X39989600Y-134102019D01*
X39989600Y-134081861D01*
X39991121Y-134062501D01*
X39994266Y-134042605D01*
X39990153Y-133999252D01*
X39989600Y-133987544D01*
X39989600Y-114616773D01*
X39990121Y-114605703D01*
X39991774Y-114598311D01*
X39989660Y-114531127D01*
X39989600Y-114527230D01*
X39989600Y-114503545D01*
X39989600Y-114499650D01*
X39989096Y-114495660D01*
X39988179Y-114484019D01*
X39987687Y-114468384D01*
X39986806Y-114440351D01*
X39981219Y-114421122D01*
X39977272Y-114402063D01*
X39975741Y-114389945D01*
X39974764Y-114382208D01*
X39958679Y-114341581D01*
X39954896Y-114330532D01*
X39944886Y-114296082D01*
X39944885Y-114296081D01*
X39942709Y-114288590D01*
X39932519Y-114271361D01*
X39923956Y-114253882D01*
X39919458Y-114242522D01*
X39919457Y-114242521D01*
X39916586Y-114235268D01*
X39911998Y-114228954D01*
X39911997Y-114228951D01*
X39890909Y-114199926D01*
X39884495Y-114190163D01*
X39862257Y-114152562D01*
X39856739Y-114147045D01*
X39856738Y-114147043D01*
X39852901Y-114143207D01*
X39848097Y-114138403D01*
X39835464Y-114123614D01*
X39823694Y-114107413D01*
X39817683Y-114102440D01*
X39817681Y-114102438D01*
X39790037Y-114079569D01*
X39781400Y-114071710D01*
X38911822Y-113202192D01*
X38884940Y-113161963D01*
X38875500Y-113114508D01*
X38875500Y-112821203D01*
X38875500Y-112818384D01*
X38869086Y-112747804D01*
X38818478Y-112585394D01*
X38809177Y-112570009D01*
X38791301Y-112507106D01*
X38807909Y-112443859D01*
X38817479Y-112427284D01*
X38875974Y-112247256D01*
X38895760Y-112059000D01*
X38875974Y-111870744D01*
X38817479Y-111690716D01*
X38722833Y-111526784D01*
X38596171Y-111386112D01*
X38590913Y-111382292D01*
X38590911Y-111382290D01*
X38448288Y-111278669D01*
X38448287Y-111278668D01*
X38443030Y-111274849D01*
X38437092Y-111272205D01*
X38276045Y-111200501D01*
X38276040Y-111200499D01*
X38270103Y-111197856D01*
X38263744Y-111196504D01*
X38263740Y-111196503D01*
X38091308Y-111159852D01*
X38091305Y-111159851D01*
X38084946Y-111158500D01*
X37895654Y-111158500D01*
X37889295Y-111159851D01*
X37889291Y-111159852D01*
X37716859Y-111196503D01*
X37716852Y-111196505D01*
X37710497Y-111197856D01*
X37704562Y-111200498D01*
X37704554Y-111200501D01*
X37543507Y-111272205D01*
X37543502Y-111272207D01*
X37537570Y-111274849D01*
X37532316Y-111278665D01*
X37532311Y-111278669D01*
X37389688Y-111382290D01*
X37389681Y-111382295D01*
X37384429Y-111386112D01*
X37380084Y-111390937D01*
X37380079Y-111390942D01*
X37262113Y-111521956D01*
X37262108Y-111521962D01*
X37257767Y-111526784D01*
X37254522Y-111532404D01*
X37254518Y-111532410D01*
X37166369Y-111685089D01*
X37166366Y-111685094D01*
X37163121Y-111690716D01*
X37161115Y-111696888D01*
X37161113Y-111696894D01*
X37106633Y-111864564D01*
X37106631Y-111864573D01*
X37104626Y-111870744D01*
X37103948Y-111877194D01*
X37103946Y-111877204D01*
X37088738Y-112021912D01*
X37084840Y-112059000D01*
X37085519Y-112065460D01*
X37103946Y-112240795D01*
X37103947Y-112240803D01*
X37104626Y-112247256D01*
X37106632Y-112253432D01*
X37106634Y-112253438D01*
X37119759Y-112293833D01*
X37122402Y-112361095D01*
X37089514Y-112419827D01*
X37074828Y-112434514D01*
X37074824Y-112434518D01*
X37069528Y-112439815D01*
X37065655Y-112446221D01*
X37065650Y-112446228D01*
X36985400Y-112578978D01*
X36985398Y-112578982D01*
X36981522Y-112585394D01*
X36979292Y-112592548D01*
X36979292Y-112592550D01*
X36932864Y-112741542D01*
X36932861Y-112741553D01*
X36930914Y-112747804D01*
X36924500Y-112818384D01*
X36924500Y-113331616D01*
X36930914Y-113402196D01*
X36932862Y-113408448D01*
X36932864Y-113408457D01*
X36972452Y-113535500D01*
X36981522Y-113564606D01*
X37069528Y-113710185D01*
X37074831Y-113715488D01*
X37171662Y-113812319D01*
X37203756Y-113867906D01*
X37203756Y-113932094D01*
X37171662Y-113987681D01*
X37074831Y-114084511D01*
X37074827Y-114084515D01*
X37069528Y-114089815D01*
X37065651Y-114096227D01*
X37065648Y-114096232D01*
X36985400Y-114228978D01*
X36985398Y-114228982D01*
X36981522Y-114235394D01*
X36979292Y-114242548D01*
X36979292Y-114242550D01*
X36932864Y-114391542D01*
X36932861Y-114391553D01*
X36930914Y-114397804D01*
X36930320Y-114404335D01*
X36930320Y-114404338D01*
X36926339Y-114448150D01*
X36924500Y-114468384D01*
X36924500Y-114981616D01*
X36930914Y-115052196D01*
X36932862Y-115058448D01*
X36932864Y-115058457D01*
X36972452Y-115185500D01*
X36981522Y-115214606D01*
X37069528Y-115360185D01*
X37189815Y-115480472D01*
X37196230Y-115484350D01*
X37196234Y-115484353D01*
X37214649Y-115495485D01*
X37258506Y-115540686D01*
X37274500Y-115601602D01*
X37274500Y-116309547D01*
X37265061Y-116357000D01*
X37238181Y-116397228D01*
X34751267Y-118884140D01*
X34711038Y-118911020D01*
X34663585Y-118920459D01*
X34616134Y-118911020D01*
X34605262Y-118906517D01*
X34600533Y-118905381D01*
X34600525Y-118905379D01*
X34370388Y-118850129D01*
X34370384Y-118850128D01*
X34365655Y-118848993D01*
X34360802Y-118848611D01*
X34124854Y-118830041D01*
X34120000Y-118829659D01*
X34115146Y-118830041D01*
X33879197Y-118848611D01*
X33879195Y-118848611D01*
X33874345Y-118848993D01*
X33869617Y-118850127D01*
X33869611Y-118850129D01*
X33639474Y-118905379D01*
X33639462Y-118905382D01*
X33634738Y-118906517D01*
X33630241Y-118908379D01*
X33630237Y-118908381D01*
X33411584Y-118998950D01*
X33411579Y-118998952D01*
X33407080Y-119000816D01*
X33402927Y-119003360D01*
X33402921Y-119003364D01*
X33201134Y-119127019D01*
X33201128Y-119127022D01*
X33196977Y-119129567D01*
X33193277Y-119132726D01*
X33193266Y-119132735D01*
X33013308Y-119286434D01*
X33013301Y-119286440D01*
X33009601Y-119289601D01*
X33006440Y-119293301D01*
X33006434Y-119293308D01*
X32852735Y-119473266D01*
X32852726Y-119473277D01*
X32849567Y-119476977D01*
X32847022Y-119481128D01*
X32847019Y-119481134D01*
X32723364Y-119682921D01*
X32723360Y-119682927D01*
X32720816Y-119687080D01*
X32718952Y-119691579D01*
X32718950Y-119691584D01*
X32662728Y-119827317D01*
X32626517Y-119914738D01*
X32625382Y-119919462D01*
X32625379Y-119919474D01*
X32570129Y-120149611D01*
X32570127Y-120149617D01*
X32568993Y-120154345D01*
X32549659Y-120400000D01*
X30701088Y-120400000D01*
X30703592Y-120331722D01*
X30702946Y-120326679D01*
X30672896Y-120092106D01*
X30672895Y-120092104D01*
X30672250Y-120087064D01*
X30601370Y-119850809D01*
X30492856Y-119629303D01*
X30349621Y-119428495D01*
X30346029Y-119424890D01*
X30179109Y-119257386D01*
X30179105Y-119257382D01*
X30175512Y-119253777D01*
X30007064Y-119132735D01*
X29979340Y-119112813D01*
X29979337Y-119112811D01*
X29975205Y-119109842D01*
X29754079Y-119000555D01*
X29749211Y-118999075D01*
X29749206Y-118999074D01*
X29563745Y-118942727D01*
X29518074Y-118928851D01*
X29513033Y-118928187D01*
X29513027Y-118928186D01*
X29276800Y-118897087D01*
X29276799Y-118897086D01*
X29273526Y-118896656D01*
X29270232Y-118896575D01*
X29270226Y-118896575D01*
X29203308Y-118894939D01*
X29203292Y-118894939D01*
X29200000Y-118894859D01*
X29196705Y-118895129D01*
X29196701Y-118895130D01*
X28959245Y-118914652D01*
X28959234Y-118914653D01*
X28954171Y-118915070D01*
X28949240Y-118916308D01*
X28949231Y-118916310D01*
X28719881Y-118973919D01*
X28719879Y-118973919D01*
X28714945Y-118975159D01*
X28710277Y-118977188D01*
X28710276Y-118977189D01*
X28493408Y-119071485D01*
X28493397Y-119071490D01*
X28488744Y-119073514D01*
X28484485Y-119076268D01*
X28484476Y-119076274D01*
X28285913Y-119204730D01*
X28285905Y-119204735D01*
X28281645Y-119207492D01*
X28277891Y-119210907D01*
X28277883Y-119210914D01*
X28102968Y-119370075D01*
X28102958Y-119370084D01*
X28099210Y-119373496D01*
X28096063Y-119377480D01*
X28096060Y-119377484D01*
X27949487Y-119563077D01*
X27949482Y-119563084D01*
X27946336Y-119567068D01*
X27943885Y-119571507D01*
X27943879Y-119571517D01*
X27841360Y-119757232D01*
X27827131Y-119783008D01*
X27825434Y-119787799D01*
X27825430Y-119787809D01*
X27746494Y-120010717D01*
X27744794Y-120015518D01*
X27743903Y-120020518D01*
X27743900Y-120020531D01*
X27702431Y-120253343D01*
X27702430Y-120253349D01*
X27701539Y-120258354D01*
X27701477Y-120263427D01*
X27701476Y-120263438D01*
X27698587Y-120499902D01*
X27698525Y-120504993D01*
X27382078Y-120504993D01*
X27390341Y-120400000D01*
X27371007Y-120154345D01*
X27313483Y-119914738D01*
X27219184Y-119687080D01*
X27090433Y-119476977D01*
X27016559Y-119390482D01*
X26933565Y-119293308D01*
X26930399Y-119289601D01*
X26892680Y-119257386D01*
X26746733Y-119132735D01*
X26746728Y-119132731D01*
X26743023Y-119129567D01*
X26532920Y-119000816D01*
X26305262Y-118906517D01*
X26300533Y-118905381D01*
X26300525Y-118905379D01*
X26070388Y-118850129D01*
X26070384Y-118850128D01*
X26065655Y-118848993D01*
X26060802Y-118848611D01*
X25824854Y-118830041D01*
X25820000Y-118829659D01*
X25815146Y-118830041D01*
X25579197Y-118848611D01*
X25579195Y-118848611D01*
X25574345Y-118848993D01*
X25569617Y-118850127D01*
X25569611Y-118850129D01*
X25339474Y-118905379D01*
X25339462Y-118905382D01*
X25334738Y-118906517D01*
X25330241Y-118908379D01*
X25330237Y-118908381D01*
X25111584Y-118998950D01*
X25111579Y-118998952D01*
X25107080Y-119000816D01*
X25102927Y-119003360D01*
X25102921Y-119003364D01*
X24901134Y-119127019D01*
X24901128Y-119127022D01*
X24896977Y-119129567D01*
X24893277Y-119132726D01*
X24893266Y-119132735D01*
X24713308Y-119286434D01*
X24713301Y-119286440D01*
X24709601Y-119289601D01*
X24706440Y-119293301D01*
X24706434Y-119293308D01*
X24552735Y-119473266D01*
X24552726Y-119473277D01*
X24549567Y-119476977D01*
X24547022Y-119481128D01*
X24547019Y-119481134D01*
X24423364Y-119682921D01*
X24423360Y-119682927D01*
X24420816Y-119687080D01*
X24418952Y-119691579D01*
X24418950Y-119691584D01*
X24373561Y-119801164D01*
X24331885Y-119854029D01*
X24268729Y-119877329D01*
X24202705Y-119864196D01*
X24153273Y-119818501D01*
X24135000Y-119753711D01*
X24135000Y-119390482D01*
X24134646Y-119383885D01*
X24129426Y-119335332D01*
X24125888Y-119320358D01*
X24081452Y-119201222D01*
X24073037Y-119185810D01*
X23997501Y-119084907D01*
X23985092Y-119072498D01*
X23884189Y-118996962D01*
X23868777Y-118988547D01*
X23749641Y-118944111D01*
X23734667Y-118940573D01*
X23686114Y-118935353D01*
X23679518Y-118935000D01*
X22986326Y-118935000D01*
X22973450Y-118938450D01*
X22970000Y-118951326D01*
X22970000Y-121848674D01*
X22470000Y-121848674D01*
X22470000Y-120666326D01*
X22466549Y-120653450D01*
X22453674Y-120650000D01*
X21321326Y-120650000D01*
X21308450Y-120653450D01*
X21305000Y-120666326D01*
X21305000Y-121409518D01*
X20000500Y-121409518D01*
X20000500Y-120133674D01*
X21305000Y-120133674D01*
X21308450Y-120146549D01*
X21321326Y-120150000D01*
X22453674Y-120150000D01*
X22466549Y-120146549D01*
X22470000Y-120133674D01*
X22470000Y-118951326D01*
X22466549Y-118938450D01*
X22453674Y-118935000D01*
X21760482Y-118935000D01*
X21753885Y-118935353D01*
X21705332Y-118940573D01*
X21690358Y-118944111D01*
X21571222Y-118988547D01*
X21555810Y-118996962D01*
X21454907Y-119072498D01*
X21442498Y-119084907D01*
X21366962Y-119185810D01*
X21358547Y-119201222D01*
X21314111Y-119320358D01*
X21310573Y-119335332D01*
X21305353Y-119383885D01*
X21305000Y-119390482D01*
X21305000Y-120133674D01*
X20000500Y-120133674D01*
X20000500Y-37528000D01*
X23239500Y-37528000D01*
X23239664Y-37530251D01*
X23239665Y-37530257D01*
X23244817Y-37600645D01*
X23254403Y-37731616D01*
X23255386Y-37736031D01*
X23255388Y-37736041D01*
X23312630Y-37993011D01*
X23312633Y-37993023D01*
X23313618Y-37997442D01*
X23315237Y-38001676D01*
X23315238Y-38001678D01*
X23364508Y-38130500D01*
X23410907Y-38251814D01*
X23413125Y-38255766D01*
X23541978Y-38485359D01*
X23541981Y-38485364D01*
X23544196Y-38489310D01*
X23546964Y-38492895D01*
X23546965Y-38492896D01*
X23558148Y-38507378D01*
X23710645Y-38704868D01*
X23713906Y-38708012D01*
X23903437Y-38890744D01*
X23903442Y-38890748D01*
X23906705Y-38893894D01*
X24128198Y-39052358D01*
X24370403Y-39176885D01*
X24628159Y-39264819D01*
X24895971Y-39314286D01*
X25168131Y-39324232D01*
X25438839Y-39294446D01*
X25702326Y-39225562D01*
X25952975Y-39119047D01*
X26185444Y-38977173D01*
X26394779Y-38802963D01*
X26576518Y-38600131D01*
X26726788Y-38372998D01*
X26842386Y-38126406D01*
X26920847Y-37865611D01*
X26960500Y-37596171D01*
X26960500Y-36872000D01*
X26945597Y-36668384D01*
X26916747Y-36538871D01*
X26887369Y-36406988D01*
X26887368Y-36406985D01*
X26886382Y-36402558D01*
X26789093Y-36148186D01*
X26655804Y-35910690D01*
X26489355Y-35695132D01*
X26415119Y-35623559D01*
X26296562Y-35509255D01*
X26296556Y-35509250D01*
X26293295Y-35506106D01*
X26071802Y-35347642D01*
X26043236Y-35332955D01*
X25833632Y-35225189D01*
X25833625Y-35225186D01*
X25829597Y-35223115D01*
X25825312Y-35221653D01*
X25825307Y-35221651D01*
X25576124Y-35136642D01*
X25576122Y-35136641D01*
X25571841Y-35135181D01*
X25549679Y-35131087D01*
X25308489Y-35086537D01*
X25308478Y-35086535D01*
X25304029Y-35085714D01*
X25299500Y-35085548D01*
X25299496Y-35085548D01*
X25036397Y-35075933D01*
X25036390Y-35075933D01*
X25031869Y-35075768D01*
X25027372Y-35076262D01*
X25027366Y-35076263D01*
X24765672Y-35105057D01*
X24765663Y-35105058D01*
X24761161Y-35105554D01*
X24756782Y-35106698D01*
X24756770Y-35106701D01*
X24502049Y-35173294D01*
X24502046Y-35173295D01*
X24497674Y-35174438D01*
X24493524Y-35176201D01*
X24493511Y-35176206D01*
X24251191Y-35279182D01*
X24251183Y-35279185D01*
X24247025Y-35280953D01*
X24243168Y-35283306D01*
X24243158Y-35283312D01*
X24018428Y-35420463D01*
X24018418Y-35420469D01*
X24014556Y-35422827D01*
X24011071Y-35425726D01*
X24011067Y-35425730D01*
X23808706Y-35594136D01*
X23808700Y-35594141D01*
X23805221Y-35597037D01*
X23802203Y-35600404D01*
X23802199Y-35600409D01*
X23626498Y-35796502D01*
X23626492Y-35796508D01*
X23623482Y-35799869D01*
X23620989Y-35803636D01*
X23620986Y-35803641D01*
X23475711Y-36023224D01*
X23475708Y-36023229D01*
X23473212Y-36027002D01*
X23471295Y-36031089D01*
X23471290Y-36031100D01*
X23359533Y-36269499D01*
X23359530Y-36269506D01*
X23357614Y-36273594D01*
X23356314Y-36277912D01*
X23356310Y-36277925D01*
X23280458Y-36530050D01*
X23279153Y-36534389D01*
X23278494Y-36538865D01*
X23278493Y-36538871D01*
X23240158Y-36799354D01*
X23240157Y-36799361D01*
X23239500Y-36803829D01*
X23239500Y-37528000D01*
X20000500Y-37528000D01*
X20000500Y-29000000D01*
X21499459Y-29000000D01*
X21499617Y-29000383D01*
X21499901Y-29000500D01*
X24487944Y-29000500D01*
X24500099Y-29000500D01*
X24500383Y-29000383D01*
X24500541Y-29000000D01*
X26499459Y-29000000D01*
X26499617Y-29000383D01*
X26499901Y-29000500D01*
X29487944Y-29000500D01*
X29500099Y-29000500D01*
X29500383Y-29000383D01*
X29500541Y-29000000D01*
X31499459Y-29000000D01*
X31499617Y-29000383D01*
X31499901Y-29000500D01*
X34487944Y-29000500D01*
X34500099Y-29000500D01*
X34500383Y-29000383D01*
X34500541Y-29000000D01*
X36499459Y-29000000D01*
X36499617Y-29000383D01*
X36499901Y-29000500D01*
X39487944Y-29000500D01*
X39500099Y-29000500D01*
X39500383Y-29000383D01*
X39500541Y-29000000D01*
X39500383Y-28999617D01*
X39500099Y-28999500D01*
X36499901Y-28999500D01*
X36499617Y-28999617D01*
X36499459Y-29000000D01*
X34500541Y-29000000D01*
X34500383Y-28999617D01*
X34500099Y-28999500D01*
X31499901Y-28999500D01*
X31499617Y-28999617D01*
X31499459Y-29000000D01*
X29500541Y-29000000D01*
X29500383Y-28999617D01*
X29500099Y-28999500D01*
X26499901Y-28999500D01*
X26499617Y-28999617D01*
X26499459Y-29000000D01*
X24500541Y-29000000D01*
X24500383Y-28999617D01*
X24500099Y-28999500D01*
X21499901Y-28999500D01*
X21499617Y-28999617D01*
X21499459Y-29000000D01*
X20000500Y-29000000D01*
X20000500Y-23000000D01*
X25074551Y-23000000D01*
X25094317Y-23251148D01*
X25095452Y-23255877D01*
X25095453Y-23255881D01*
X25151989Y-23491374D01*
X25151991Y-23491382D01*
X25153127Y-23496111D01*
X25249534Y-23728859D01*
X25252081Y-23733016D01*
X25252082Y-23733017D01*
X25378617Y-23939504D01*
X25378622Y-23939511D01*
X25381164Y-23943659D01*
X25384324Y-23947358D01*
X25384327Y-23947363D01*
X25534845Y-24123596D01*
X25544776Y-24135224D01*
X25548476Y-24138384D01*
X25730705Y-24294023D01*
X25736341Y-24298836D01*
X25740491Y-24301379D01*
X25740495Y-24301382D01*
X25852300Y-24369896D01*
X25951141Y-24430466D01*
X26183889Y-24526873D01*
X26428852Y-24585683D01*
X26680000Y-24605449D01*
X26931148Y-24585683D01*
X27176111Y-24526873D01*
X27408859Y-24430466D01*
X27623659Y-24298836D01*
X27815224Y-24135224D01*
X27978836Y-23943659D01*
X28110466Y-23728859D01*
X28206873Y-23496111D01*
X28265683Y-23251148D01*
X28285449Y-23000000D01*
X32034551Y-23000000D01*
X32054317Y-23251148D01*
X32055452Y-23255877D01*
X32055453Y-23255881D01*
X32111989Y-23491374D01*
X32111991Y-23491382D01*
X32113127Y-23496111D01*
X32209534Y-23728859D01*
X32212081Y-23733016D01*
X32212082Y-23733017D01*
X32338617Y-23939504D01*
X32338622Y-23939511D01*
X32341164Y-23943659D01*
X32344324Y-23947358D01*
X32344327Y-23947363D01*
X32494845Y-24123596D01*
X32504776Y-24135224D01*
X32508476Y-24138384D01*
X32690705Y-24294023D01*
X32696341Y-24298836D01*
X32700491Y-24301379D01*
X32700495Y-24301382D01*
X32812300Y-24369896D01*
X32911141Y-24430466D01*
X33143889Y-24526873D01*
X33388852Y-24585683D01*
X33640000Y-24605449D01*
X33891148Y-24585683D01*
X34136111Y-24526873D01*
X34368859Y-24430466D01*
X34583659Y-24298836D01*
X34775224Y-24135224D01*
X34938836Y-23943659D01*
X35070466Y-23728859D01*
X35166873Y-23496111D01*
X35225683Y-23251148D01*
X35245449Y-23000000D01*
X35225683Y-22748852D01*
X35166873Y-22503889D01*
X35070466Y-22271141D01*
X34938836Y-22056341D01*
X34775224Y-21864776D01*
X34771523Y-21861615D01*
X34587363Y-21704327D01*
X34587358Y-21704324D01*
X34583659Y-21701164D01*
X34579511Y-21698622D01*
X34579504Y-21698617D01*
X34373017Y-21572082D01*
X34373016Y-21572081D01*
X34368859Y-21569534D01*
X34136111Y-21473127D01*
X34131382Y-21471991D01*
X34131374Y-21471989D01*
X33895881Y-21415453D01*
X33895877Y-21415452D01*
X33891148Y-21414317D01*
X33886295Y-21413935D01*
X33644854Y-21394933D01*
X33640000Y-21394551D01*
X33635146Y-21394933D01*
X33393704Y-21413935D01*
X33393702Y-21413935D01*
X33388852Y-21414317D01*
X33384124Y-21415451D01*
X33384118Y-21415453D01*
X33148625Y-21471989D01*
X33148613Y-21471992D01*
X33143889Y-21473127D01*
X33139392Y-21474989D01*
X33139388Y-21474991D01*
X32915645Y-21567668D01*
X32915640Y-21567670D01*
X32911141Y-21569534D01*
X32906988Y-21572078D01*
X32906982Y-21572082D01*
X32700495Y-21698617D01*
X32700482Y-21698626D01*
X32696341Y-21701164D01*
X32692646Y-21704319D01*
X32692636Y-21704327D01*
X32508476Y-21861615D01*
X32508469Y-21861621D01*
X32504776Y-21864776D01*
X32501621Y-21868469D01*
X32501615Y-21868476D01*
X32344327Y-22052636D01*
X32344319Y-22052646D01*
X32341164Y-22056341D01*
X32338626Y-22060482D01*
X32338617Y-22060495D01*
X32212082Y-22266982D01*
X32212078Y-22266988D01*
X32209534Y-22271141D01*
X32207670Y-22275640D01*
X32207668Y-22275645D01*
X32114991Y-22499388D01*
X32113127Y-22503889D01*
X32111992Y-22508613D01*
X32111989Y-22508625D01*
X32055453Y-22744118D01*
X32055451Y-22744124D01*
X32054317Y-22748852D01*
X32034551Y-23000000D01*
X28285449Y-23000000D01*
X28265683Y-22748852D01*
X28206873Y-22503889D01*
X28110466Y-22271141D01*
X27978836Y-22056341D01*
X27815224Y-21864776D01*
X27811523Y-21861615D01*
X27627363Y-21704327D01*
X27627358Y-21704324D01*
X27623659Y-21701164D01*
X27619511Y-21698622D01*
X27619504Y-21698617D01*
X27413017Y-21572082D01*
X27413016Y-21572081D01*
X27408859Y-21569534D01*
X27176111Y-21473127D01*
X27171382Y-21471991D01*
X27171374Y-21471989D01*
X26935881Y-21415453D01*
X26935877Y-21415452D01*
X26931148Y-21414317D01*
X26926295Y-21413935D01*
X26684854Y-21394933D01*
X26680000Y-21394551D01*
X26675146Y-21394933D01*
X26433704Y-21413935D01*
X26433702Y-21413935D01*
X26428852Y-21414317D01*
X26424124Y-21415451D01*
X26424118Y-21415453D01*
X26188625Y-21471989D01*
X26188613Y-21471992D01*
X26183889Y-21473127D01*
X26179392Y-21474989D01*
X26179388Y-21474991D01*
X25955645Y-21567668D01*
X25955640Y-21567670D01*
X25951141Y-21569534D01*
X25946988Y-21572078D01*
X25946982Y-21572082D01*
X25740495Y-21698617D01*
X25740482Y-21698626D01*
X25736341Y-21701164D01*
X25732646Y-21704319D01*
X25732636Y-21704327D01*
X25548476Y-21861615D01*
X25548469Y-21861621D01*
X25544776Y-21864776D01*
X25541621Y-21868469D01*
X25541615Y-21868476D01*
X25384327Y-22052636D01*
X25384319Y-22052646D01*
X25381164Y-22056341D01*
X25378626Y-22060482D01*
X25378617Y-22060495D01*
X25252082Y-22266982D01*
X25252078Y-22266988D01*
X25249534Y-22271141D01*
X25247670Y-22275640D01*
X25247668Y-22275645D01*
X25154991Y-22499388D01*
X25153127Y-22503889D01*
X25151992Y-22508613D01*
X25151989Y-22508625D01*
X25095453Y-22744118D01*
X25095451Y-22744124D01*
X25094317Y-22748852D01*
X25074551Y-23000000D01*
X20000500Y-23000000D01*
X20000500Y-20124500D01*
X20017113Y-20062500D01*
X20062500Y-20017113D01*
X20124500Y-20000500D01*
X40195500Y-20000500D01*
X40257500Y-20017113D01*
G37*
%TD.AperFunction*%
%TA.AperFunction,Conductor*%
G36*
X27279901Y-102805153D02*
G01*
X27284306Y-102805500D01*
X28733700Y-102805500D01*
X28795700Y-102822113D01*
X28841087Y-102867500D01*
X28857700Y-102929500D01*
X28857700Y-105720521D01*
X28848260Y-105767977D01*
X28821376Y-105808208D01*
X28694381Y-105935187D01*
X28654154Y-105962063D01*
X28606705Y-105971500D01*
X28547454Y-105971500D01*
X28541095Y-105972851D01*
X28541091Y-105972852D01*
X28368659Y-106009503D01*
X28368652Y-106009505D01*
X28362297Y-106010856D01*
X28356362Y-106013498D01*
X28356354Y-106013501D01*
X28195307Y-106085205D01*
X28195302Y-106085207D01*
X28189370Y-106087849D01*
X28184116Y-106091665D01*
X28184111Y-106091669D01*
X28041488Y-106195290D01*
X28041481Y-106195295D01*
X28036229Y-106199112D01*
X28031884Y-106203937D01*
X28031879Y-106203942D01*
X27913913Y-106334956D01*
X27913908Y-106334962D01*
X27909567Y-106339784D01*
X27906322Y-106345404D01*
X27906318Y-106345410D01*
X27818169Y-106498089D01*
X27818166Y-106498094D01*
X27814921Y-106503716D01*
X27812915Y-106509888D01*
X27812913Y-106509894D01*
X27758433Y-106677564D01*
X27758431Y-106677573D01*
X27756426Y-106683744D01*
X27755747Y-106690201D01*
X27755747Y-106690203D01*
X27738786Y-106851578D01*
X27727384Y-106892002D01*
X27703142Y-106926301D01*
X27671255Y-106958185D01*
X27631028Y-106985062D01*
X27583578Y-106994500D01*
X27264200Y-106994500D01*
X27202200Y-106977887D01*
X27156813Y-106932500D01*
X27140200Y-106870500D01*
X27140200Y-102928301D01*
X27158473Y-102863510D01*
X27207907Y-102817815D01*
X27273933Y-102804684D01*
X27279901Y-102805153D01*
G37*
%TD.AperFunction*%
%TA.AperFunction,Conductor*%
G36*
X22777993Y-102814949D02*
G01*
X22818235Y-102841857D01*
X22863526Y-102887187D01*
X22887739Y-102921471D01*
X22899128Y-102961869D01*
X22916146Y-103123795D01*
X22916147Y-103123803D01*
X22916826Y-103130256D01*
X22918831Y-103136428D01*
X22918833Y-103136435D01*
X22968133Y-103288163D01*
X22975321Y-103310284D01*
X23069967Y-103474216D01*
X23196629Y-103614888D01*
X23349770Y-103726151D01*
X23522697Y-103803144D01*
X23529059Y-103804496D01*
X23535235Y-103806503D01*
X23534631Y-103808360D01*
X23574634Y-103827008D01*
X23609748Y-103870365D01*
X23622300Y-103924728D01*
X23622300Y-106870500D01*
X23605687Y-106932500D01*
X23560300Y-106977887D01*
X23498300Y-106994500D01*
X23060604Y-106994500D01*
X23013140Y-106985057D01*
X22972906Y-106958165D01*
X22539202Y-106524296D01*
X22512334Y-106484073D01*
X22502900Y-106436631D01*
X22502900Y-102929500D01*
X22519513Y-102867500D01*
X22564900Y-102822113D01*
X22626900Y-102805500D01*
X22730516Y-102805500D01*
X22777993Y-102814949D01*
G37*
%TD.AperFunction*%
%TA.AperFunction,Conductor*%
G36*
X24382500Y-81169613D02*
G01*
X24427887Y-81215000D01*
X24444500Y-81277000D01*
X24444500Y-82444560D01*
X24444500Y-82444578D01*
X24444501Y-82447872D01*
X24444853Y-82451150D01*
X24444854Y-82451161D01*
X24450079Y-82499768D01*
X24450080Y-82499773D01*
X24450909Y-82507483D01*
X24453619Y-82514749D01*
X24453620Y-82514753D01*
X24487217Y-82604831D01*
X24501204Y-82642331D01*
X24587454Y-82757546D01*
X24702669Y-82843796D01*
X24837517Y-82894091D01*
X24897127Y-82900500D01*
X26542872Y-82900499D01*
X26602483Y-82894091D01*
X26737331Y-82843796D01*
X26852546Y-82757546D01*
X26938796Y-82642331D01*
X26989091Y-82507483D01*
X26995500Y-82447873D01*
X26995500Y-82011900D01*
X27012113Y-81949900D01*
X27057500Y-81904513D01*
X27119500Y-81887900D01*
X31781848Y-81887900D01*
X31829301Y-81897339D01*
X31869529Y-81924219D01*
X32082607Y-82137297D01*
X32090056Y-82145483D01*
X32094114Y-82151877D01*
X32099799Y-82157215D01*
X32099801Y-82157218D01*
X32143139Y-82197915D01*
X32145935Y-82200625D01*
X32165430Y-82220120D01*
X32168515Y-82222513D01*
X32168601Y-82222580D01*
X32177473Y-82230158D01*
X32209318Y-82260062D01*
X32216148Y-82263817D01*
X32216151Y-82263819D01*
X32226871Y-82269712D01*
X32243122Y-82280386D01*
X32258964Y-82292674D01*
X32266121Y-82295771D01*
X32266123Y-82295772D01*
X32299055Y-82310022D01*
X32309550Y-82315164D01*
X32340239Y-82332036D01*
X32387228Y-82377569D01*
X32404500Y-82440680D01*
X32404500Y-82444552D01*
X32404500Y-82444570D01*
X32404501Y-82447872D01*
X32404853Y-82451150D01*
X32404854Y-82451161D01*
X32410079Y-82499768D01*
X32410080Y-82499773D01*
X32410909Y-82507483D01*
X32413619Y-82514749D01*
X32413620Y-82514753D01*
X32447217Y-82604831D01*
X32461204Y-82642331D01*
X32547454Y-82757546D01*
X32662669Y-82843796D01*
X32797517Y-82894091D01*
X32857127Y-82900500D01*
X34426400Y-82900499D01*
X34488400Y-82917112D01*
X34533787Y-82962499D01*
X34550400Y-83024499D01*
X34550400Y-101852538D01*
X34540961Y-101899992D01*
X34514079Y-101940221D01*
X30324398Y-106129719D01*
X30274292Y-106160207D01*
X30215778Y-106164255D01*
X30161950Y-106140958D01*
X30124851Y-106095529D01*
X30115412Y-106050648D01*
X30113359Y-106050842D01*
X30109249Y-106007347D01*
X30108700Y-105995685D01*
X30108700Y-99184975D01*
X30109221Y-99173919D01*
X30110873Y-99166533D01*
X30108761Y-99099313D01*
X30108700Y-99095419D01*
X30108700Y-99071742D01*
X30108700Y-99067850D01*
X30108198Y-99063883D01*
X30107281Y-99052226D01*
X30105910Y-99008573D01*
X30100318Y-98989328D01*
X30096374Y-98970283D01*
X30093864Y-98950408D01*
X30077779Y-98909783D01*
X30074006Y-98898762D01*
X30061818Y-98856810D01*
X30051617Y-98839560D01*
X30043063Y-98822101D01*
X30035686Y-98803468D01*
X30010008Y-98768125D01*
X30003601Y-98758371D01*
X29985342Y-98727496D01*
X29985341Y-98727494D01*
X29981370Y-98720780D01*
X29967205Y-98706615D01*
X29954570Y-98691822D01*
X29942794Y-98675613D01*
X29936783Y-98670640D01*
X29936781Y-98670638D01*
X29909141Y-98647773D01*
X29900500Y-98639910D01*
X29686819Y-98426229D01*
X29659939Y-98386001D01*
X29650500Y-98338548D01*
X29650500Y-97981751D01*
X29650500Y-97979306D01*
X29647598Y-97942431D01*
X29601744Y-97784602D01*
X29518081Y-97643135D01*
X29401865Y-97526919D01*
X29395151Y-97522948D01*
X29395148Y-97522946D01*
X29267113Y-97447227D01*
X29267111Y-97447226D01*
X29260398Y-97443256D01*
X29252905Y-97441079D01*
X29108657Y-97399170D01*
X29108650Y-97399168D01*
X29102569Y-97397402D01*
X29096258Y-97396905D01*
X29096251Y-97396904D01*
X29068128Y-97394691D01*
X29068114Y-97394690D01*
X29065694Y-97394500D01*
X27284306Y-97394500D01*
X27281877Y-97394691D01*
X27281855Y-97394692D01*
X27273933Y-97395316D01*
X27207907Y-97382185D01*
X27158473Y-97336490D01*
X27140200Y-97271699D01*
X27140200Y-90219600D01*
X27158191Y-90155272D01*
X27206944Y-90109610D01*
X27272311Y-90095866D01*
X27335325Y-90118026D01*
X27348185Y-90127031D01*
X27357519Y-90132420D01*
X27553868Y-90223979D01*
X27564002Y-90227667D01*
X27773262Y-90283739D01*
X27783893Y-90285613D01*
X27999705Y-90304494D01*
X28010495Y-90304494D01*
X28226306Y-90285613D01*
X28236937Y-90283739D01*
X28446197Y-90227667D01*
X28456331Y-90223979D01*
X28652675Y-90132422D01*
X28662020Y-90127026D01*
X28719448Y-90086814D01*
X28726880Y-90078703D01*
X28720967Y-90069421D01*
X27739227Y-89087681D01*
X27707133Y-89032093D01*
X27707133Y-89000000D01*
X28363531Y-89000000D01*
X28370195Y-89011542D01*
X29074521Y-89715867D01*
X29085157Y-89722643D01*
X29096784Y-89724174D01*
X29151678Y-89745507D01*
X29190539Y-89789759D01*
X29203211Y-89841302D01*
X29204423Y-89841238D01*
X29204600Y-89844564D01*
X29204601Y-89847872D01*
X29204953Y-89851150D01*
X29204954Y-89851161D01*
X29210179Y-89899768D01*
X29210180Y-89899773D01*
X29211009Y-89907483D01*
X29213719Y-89914749D01*
X29213720Y-89914753D01*
X29247317Y-90004831D01*
X29261304Y-90042331D01*
X29266618Y-90049430D01*
X29266619Y-90049431D01*
X29281583Y-90069421D01*
X29347554Y-90157546D01*
X29462769Y-90243796D01*
X29597617Y-90294091D01*
X29657227Y-90300500D01*
X31352972Y-90300499D01*
X31412583Y-90294091D01*
X31547431Y-90243796D01*
X31662646Y-90157546D01*
X31748896Y-90042331D01*
X31799191Y-89907483D01*
X31805600Y-89847873D01*
X31805599Y-88152128D01*
X31799191Y-88092517D01*
X31748896Y-87957669D01*
X31662646Y-87842454D01*
X31547431Y-87756204D01*
X31477065Y-87729959D01*
X31419852Y-87708620D01*
X31419850Y-87708619D01*
X31412583Y-87705909D01*
X31404870Y-87705079D01*
X31404867Y-87705079D01*
X31356280Y-87699855D01*
X31356269Y-87699854D01*
X31352973Y-87699500D01*
X31349650Y-87699500D01*
X29660539Y-87699500D01*
X29660520Y-87699500D01*
X29657228Y-87699501D01*
X29653950Y-87699853D01*
X29653938Y-87699854D01*
X29605331Y-87705079D01*
X29605325Y-87705080D01*
X29597617Y-87705909D01*
X29590352Y-87708618D01*
X29590346Y-87708620D01*
X29471080Y-87753104D01*
X29471078Y-87753104D01*
X29462769Y-87756204D01*
X29455672Y-87761516D01*
X29455668Y-87761519D01*
X29354650Y-87837141D01*
X29354646Y-87837144D01*
X29347554Y-87842454D01*
X29342244Y-87849546D01*
X29342241Y-87849550D01*
X29266619Y-87950568D01*
X29266616Y-87950572D01*
X29261304Y-87957669D01*
X29258204Y-87965978D01*
X29258204Y-87965980D01*
X29213720Y-88085247D01*
X29213719Y-88085250D01*
X29211009Y-88092517D01*
X29210179Y-88100227D01*
X29210179Y-88100232D01*
X29204955Y-88148819D01*
X29204954Y-88148831D01*
X29204600Y-88152127D01*
X29204600Y-88155439D01*
X29204422Y-88158768D01*
X29203176Y-88158701D01*
X29190589Y-88210143D01*
X29151723Y-88254461D01*
X29096785Y-88275825D01*
X29085155Y-88277356D01*
X29074524Y-88284128D01*
X28370195Y-88988457D01*
X28363531Y-89000000D01*
X27707133Y-89000000D01*
X27707133Y-88967906D01*
X27739227Y-88912319D01*
X28005100Y-88646447D01*
X28720970Y-87930574D01*
X28726881Y-87921295D01*
X28719448Y-87913184D01*
X28662022Y-87872974D01*
X28652672Y-87867576D01*
X28456331Y-87776020D01*
X28446197Y-87772332D01*
X28236937Y-87716260D01*
X28226306Y-87714386D01*
X28010495Y-87695506D01*
X27999705Y-87695506D01*
X27783893Y-87714386D01*
X27773262Y-87716260D01*
X27564002Y-87772332D01*
X27553868Y-87776020D01*
X27357519Y-87867579D01*
X27348185Y-87872968D01*
X27335325Y-87881974D01*
X27272311Y-87904134D01*
X27206944Y-87890390D01*
X27158191Y-87844728D01*
X27140200Y-87780400D01*
X27140200Y-87139171D01*
X27140720Y-87128118D01*
X27142372Y-87120732D01*
X27140261Y-87053544D01*
X27140200Y-87049650D01*
X27140200Y-87025945D01*
X27140200Y-87022050D01*
X27139698Y-87018081D01*
X27138780Y-87006424D01*
X27137654Y-86970572D01*
X27137409Y-86962772D01*
X27131820Y-86943539D01*
X27127874Y-86924482D01*
X27125364Y-86904608D01*
X27109281Y-86863987D01*
X27105499Y-86852940D01*
X27093317Y-86811010D01*
X27089344Y-86804292D01*
X27083122Y-86793770D01*
X27074560Y-86776292D01*
X27070060Y-86764927D01*
X27070059Y-86764926D01*
X27067186Y-86757668D01*
X27059894Y-86747632D01*
X27041513Y-86722332D01*
X27035109Y-86712584D01*
X27012870Y-86674979D01*
X26998705Y-86660814D01*
X26986068Y-86646018D01*
X26978884Y-86636129D01*
X26978878Y-86636123D01*
X26974294Y-86629813D01*
X26940646Y-86601977D01*
X26932005Y-86594114D01*
X23201619Y-82863728D01*
X23174739Y-82823500D01*
X23165300Y-82776047D01*
X23165300Y-81451210D01*
X23180327Y-81392041D01*
X23221767Y-81347213D01*
X23279575Y-81327592D01*
X23309156Y-81325265D01*
X23457887Y-81282055D01*
X23591198Y-81203215D01*
X23605093Y-81189319D01*
X23645322Y-81162439D01*
X23692775Y-81153000D01*
X24320500Y-81153000D01*
X24382500Y-81169613D01*
G37*
%TD.AperFunction*%
%TA.AperFunction,Conductor*%
G36*
X22665218Y-84115621D02*
G01*
X22714581Y-84145871D01*
X25852881Y-87284172D01*
X25879761Y-87324400D01*
X25889200Y-87371853D01*
X25889200Y-98688748D01*
X25875685Y-98745043D01*
X25838085Y-98789066D01*
X25784598Y-98811221D01*
X25726882Y-98806679D01*
X25677519Y-98776429D01*
X25581891Y-98680801D01*
X25574441Y-98672614D01*
X25570386Y-98666223D01*
X25521375Y-98620198D01*
X25518578Y-98617487D01*
X25501827Y-98600736D01*
X25499071Y-98597980D01*
X25495890Y-98595512D01*
X25487014Y-98587930D01*
X25460869Y-98563378D01*
X25460867Y-98563376D01*
X25455182Y-98558038D01*
X25448349Y-98554282D01*
X25448343Y-98554277D01*
X25437625Y-98548385D01*
X25421366Y-98537706D01*
X25411695Y-98530204D01*
X25411692Y-98530202D01*
X25405536Y-98525427D01*
X25398379Y-98522329D01*
X25398376Y-98522328D01*
X25365449Y-98508078D01*
X25354963Y-98502941D01*
X25323532Y-98485662D01*
X25323523Y-98485658D01*
X25316692Y-98481903D01*
X25309135Y-98479962D01*
X25309131Y-98479961D01*
X25297288Y-98476920D01*
X25278884Y-98470619D01*
X25267657Y-98465760D01*
X25267650Y-98465758D01*
X25260496Y-98462662D01*
X25252792Y-98461441D01*
X25252790Y-98461441D01*
X25217359Y-98455829D01*
X25205924Y-98453461D01*
X25171171Y-98444538D01*
X25171163Y-98444537D01*
X25163619Y-98442600D01*
X25155823Y-98442600D01*
X25143583Y-98442600D01*
X25124197Y-98441074D01*
X25104404Y-98437940D01*
X25096638Y-98438674D01*
X25096635Y-98438674D01*
X25060924Y-98442050D01*
X25049255Y-98442600D01*
X24824500Y-98442600D01*
X24762500Y-98425987D01*
X24717113Y-98380600D01*
X24700500Y-98318600D01*
X24700500Y-97981751D01*
X24700500Y-97979306D01*
X24697598Y-97942431D01*
X24651744Y-97784602D01*
X24568081Y-97643135D01*
X24451865Y-97526919D01*
X24445151Y-97522948D01*
X24445148Y-97522946D01*
X24317113Y-97447227D01*
X24317111Y-97447226D01*
X24310398Y-97443256D01*
X24302905Y-97441079D01*
X24158657Y-97399170D01*
X24158650Y-97399168D01*
X24152569Y-97397402D01*
X24146258Y-97396905D01*
X24146251Y-97396904D01*
X24118128Y-97394691D01*
X24118114Y-97394690D01*
X24115694Y-97394500D01*
X24113249Y-97394500D01*
X22626900Y-97394500D01*
X22564900Y-97377887D01*
X22519513Y-97332500D01*
X22502900Y-97270500D01*
X22502900Y-84233552D01*
X22516415Y-84177257D01*
X22554015Y-84133234D01*
X22607502Y-84111079D01*
X22665218Y-84115621D01*
G37*
%TD.AperFunction*%
%TA.AperFunction,Conductor*%
G36*
X32343464Y-77889968D02*
G01*
X32388027Y-77929997D01*
X32408626Y-77986246D01*
X32410079Y-77999768D01*
X32410080Y-77999773D01*
X32410909Y-78007483D01*
X32413619Y-78014749D01*
X32413620Y-78014753D01*
X32447217Y-78104831D01*
X32461204Y-78142331D01*
X32547454Y-78257546D01*
X32662669Y-78343796D01*
X32797517Y-78394091D01*
X32857127Y-78400500D01*
X33827646Y-78400499D01*
X33875099Y-78409938D01*
X33915327Y-78436818D01*
X34514081Y-79035572D01*
X34540961Y-79075800D01*
X34550400Y-79123253D01*
X34550400Y-80475500D01*
X34533787Y-80537500D01*
X34488400Y-80582887D01*
X34426400Y-80599500D01*
X32860439Y-80599500D01*
X32860420Y-80599500D01*
X32857128Y-80599501D01*
X32853850Y-80599853D01*
X32853838Y-80599854D01*
X32805231Y-80605079D01*
X32805225Y-80605080D01*
X32797517Y-80605909D01*
X32790252Y-80608618D01*
X32790246Y-80608620D01*
X32670980Y-80653104D01*
X32670978Y-80653104D01*
X32662669Y-80656204D01*
X32655572Y-80661516D01*
X32655564Y-80661521D01*
X32569707Y-80725793D01*
X32521063Y-80747841D01*
X32467658Y-80747383D01*
X32426479Y-80727863D01*
X32426115Y-80728479D01*
X32419402Y-80724509D01*
X32419398Y-80724507D01*
X32419395Y-80724504D01*
X32419392Y-80724502D01*
X32413236Y-80719727D01*
X32406079Y-80716629D01*
X32406076Y-80716628D01*
X32373149Y-80702378D01*
X32362663Y-80697241D01*
X32331232Y-80679962D01*
X32331223Y-80679958D01*
X32324392Y-80676203D01*
X32316835Y-80674262D01*
X32316831Y-80674261D01*
X32304988Y-80671220D01*
X32286584Y-80664919D01*
X32275357Y-80660060D01*
X32275350Y-80660058D01*
X32268196Y-80656962D01*
X32260492Y-80655741D01*
X32260490Y-80655741D01*
X32225059Y-80650129D01*
X32213624Y-80647761D01*
X32178871Y-80638838D01*
X32178863Y-80638837D01*
X32171319Y-80636900D01*
X32163523Y-80636900D01*
X32151283Y-80636900D01*
X32131897Y-80635374D01*
X32112104Y-80632240D01*
X32104338Y-80632974D01*
X32104335Y-80632974D01*
X32068624Y-80636350D01*
X32056955Y-80636900D01*
X26707946Y-80636900D01*
X26664613Y-80629082D01*
X26609752Y-80608620D01*
X26609750Y-80608619D01*
X26602483Y-80605909D01*
X26594770Y-80605079D01*
X26594767Y-80605079D01*
X26546180Y-80599855D01*
X26546169Y-80599854D01*
X26542873Y-80599500D01*
X26539551Y-80599500D01*
X25993052Y-80599500D01*
X25945599Y-80590061D01*
X25905371Y-80563181D01*
X25482386Y-80140195D01*
X25474942Y-80132014D01*
X25470886Y-80125623D01*
X25421875Y-80079598D01*
X25419078Y-80076887D01*
X25402327Y-80060136D01*
X25402326Y-80060135D01*
X25399571Y-80057380D01*
X25396390Y-80054912D01*
X25387514Y-80047330D01*
X25361369Y-80022778D01*
X25361367Y-80022776D01*
X25355682Y-80017438D01*
X25348849Y-80013682D01*
X25348843Y-80013677D01*
X25338125Y-80007785D01*
X25321866Y-79997106D01*
X25312195Y-79989604D01*
X25312192Y-79989602D01*
X25306036Y-79984827D01*
X25298879Y-79981729D01*
X25298876Y-79981728D01*
X25265949Y-79967478D01*
X25255463Y-79962341D01*
X25224032Y-79945062D01*
X25224023Y-79945058D01*
X25217192Y-79941303D01*
X25209635Y-79939362D01*
X25209631Y-79939361D01*
X25197788Y-79936320D01*
X25179384Y-79930019D01*
X25168157Y-79925160D01*
X25168150Y-79925158D01*
X25160996Y-79922062D01*
X25153292Y-79920841D01*
X25153290Y-79920841D01*
X25117859Y-79915229D01*
X25106424Y-79912861D01*
X25071671Y-79903938D01*
X25071663Y-79903937D01*
X25064119Y-79902000D01*
X25056323Y-79902000D01*
X25044083Y-79902000D01*
X25024697Y-79900474D01*
X25004904Y-79897340D01*
X24997138Y-79898074D01*
X24997135Y-79898074D01*
X24961424Y-79901450D01*
X24949755Y-79902000D01*
X23957052Y-79902000D01*
X23900757Y-79888485D01*
X23856734Y-79850885D01*
X23834579Y-79797398D01*
X23839121Y-79739682D01*
X23869371Y-79690319D01*
X24292739Y-79266951D01*
X24747511Y-78812178D01*
X24755681Y-78804744D01*
X24762077Y-78800686D01*
X24808118Y-78751656D01*
X24810735Y-78748954D01*
X24830320Y-78729371D01*
X24832785Y-78726192D01*
X24840367Y-78717316D01*
X24870262Y-78685482D01*
X24879913Y-78667923D01*
X24890590Y-78651670D01*
X24902873Y-78635836D01*
X24920218Y-78595752D01*
X24925351Y-78585271D01*
X24946397Y-78546992D01*
X24951379Y-78527584D01*
X24957682Y-78509176D01*
X24965637Y-78490796D01*
X24966149Y-78487563D01*
X24990086Y-78443476D01*
X25032335Y-78411754D01*
X25083954Y-78400499D01*
X26539561Y-78400499D01*
X26542872Y-78400499D01*
X26602483Y-78394091D01*
X26737331Y-78343796D01*
X26852546Y-78257546D01*
X26938796Y-78142331D01*
X26989091Y-78007483D01*
X26990926Y-77990412D01*
X26991375Y-77986242D01*
X27011975Y-77929995D01*
X27056537Y-77889968D01*
X27114664Y-77875500D01*
X32285336Y-77875500D01*
X32343464Y-77889968D01*
G37*
%TD.AperFunction*%
%TA.AperFunction,Conductor*%
G36*
X30390085Y-74667019D02*
G01*
X30428181Y-74694695D01*
X30428350Y-74694509D01*
X30430128Y-74696110D01*
X30431798Y-74697323D01*
X30437529Y-74703688D01*
X30442787Y-74707508D01*
X30442788Y-74707509D01*
X30470072Y-74727332D01*
X30590670Y-74814951D01*
X30763597Y-74891944D01*
X30948754Y-74931300D01*
X31131543Y-74931300D01*
X31138046Y-74931300D01*
X31223659Y-74913102D01*
X31284656Y-74915498D01*
X31337120Y-74946711D01*
X31538181Y-75147772D01*
X31565061Y-75188000D01*
X31574500Y-75235452D01*
X31574500Y-75531616D01*
X31580914Y-75602196D01*
X31582862Y-75608448D01*
X31582864Y-75608457D01*
X31600897Y-75666326D01*
X31631522Y-75764606D01*
X31719528Y-75910185D01*
X31839815Y-76030472D01*
X31985394Y-76118478D01*
X32096515Y-76153104D01*
X32141542Y-76167135D01*
X32141544Y-76167135D01*
X32147804Y-76169086D01*
X32218384Y-76175500D01*
X32353123Y-76175500D01*
X32414483Y-76191746D01*
X32459765Y-76236226D01*
X32477103Y-76297286D01*
X32462781Y-76355561D01*
X32461204Y-76357669D01*
X32458107Y-76365971D01*
X32458106Y-76365974D01*
X32413620Y-76485247D01*
X32413619Y-76485250D01*
X32410909Y-76492517D01*
X32410079Y-76500227D01*
X32410079Y-76500232D01*
X32408625Y-76513758D01*
X32388025Y-76570005D01*
X32343463Y-76610032D01*
X32285336Y-76624500D01*
X27114664Y-76624500D01*
X27056536Y-76610032D01*
X27011973Y-76570003D01*
X26991374Y-76513754D01*
X26989920Y-76500231D01*
X26989091Y-76492517D01*
X26938796Y-76357669D01*
X26852546Y-76242454D01*
X26844226Y-76236226D01*
X26744431Y-76161519D01*
X26744430Y-76161518D01*
X26737331Y-76156204D01*
X26602483Y-76105909D01*
X26594770Y-76105079D01*
X26594767Y-76105079D01*
X26546180Y-76099855D01*
X26546169Y-76099854D01*
X26542873Y-76099500D01*
X26539551Y-76099500D01*
X26101951Y-76099500D01*
X26045656Y-76085985D01*
X26001633Y-76048385D01*
X25979478Y-75994898D01*
X25984020Y-75937182D01*
X26014270Y-75887819D01*
X26235764Y-75666326D01*
X27209471Y-74692619D01*
X27249700Y-74665739D01*
X27297153Y-74656300D01*
X30339652Y-74656300D01*
X30390085Y-74667019D01*
G37*
%TD.AperFunction*%
%TA.AperFunction,Conductor*%
G36*
X24563710Y-73980631D02*
G01*
X24600695Y-74020211D01*
X24601204Y-74019831D01*
X24687454Y-74135046D01*
X24802669Y-74221296D01*
X24937517Y-74271591D01*
X24997127Y-74278000D01*
X25555548Y-74277999D01*
X25611842Y-74291514D01*
X25655865Y-74329114D01*
X25678020Y-74382601D01*
X25673478Y-74440317D01*
X25643228Y-74489680D01*
X23972896Y-76160011D01*
X23964711Y-76167459D01*
X23958323Y-76171514D01*
X23952988Y-76177194D01*
X23952983Y-76177199D01*
X23939890Y-76191142D01*
X23890767Y-76223188D01*
X23832412Y-76229073D01*
X23777880Y-76207481D01*
X23739371Y-76163243D01*
X23725500Y-76106256D01*
X23725500Y-74489122D01*
X23738050Y-74434764D01*
X23773158Y-74391409D01*
X23823718Y-74367832D01*
X23944103Y-74342244D01*
X24117030Y-74265251D01*
X24270171Y-74153988D01*
X24396833Y-74013316D01*
X24398044Y-74011217D01*
X24444323Y-73972954D01*
X24505004Y-73961443D01*
X24563710Y-73980631D01*
G37*
%TD.AperFunction*%
%TA.AperFunction,Conductor*%
G36*
X37485391Y-56494845D02*
G01*
X37525395Y-56535016D01*
X37559179Y-56589789D01*
X37565719Y-56600391D01*
X37570829Y-56605501D01*
X37597647Y-56632319D01*
X37629741Y-56687906D01*
X37629741Y-56752094D01*
X37597647Y-56807681D01*
X37570829Y-56834498D01*
X37570825Y-56834502D01*
X37565719Y-56839609D01*
X37561928Y-56845754D01*
X37561924Y-56845760D01*
X37481243Y-56976564D01*
X37481240Y-56976569D01*
X37477451Y-56982713D01*
X37475180Y-56989564D01*
X37475179Y-56989568D01*
X37426694Y-57135886D01*
X37424564Y-57142315D01*
X37423876Y-57149045D01*
X37423875Y-57149052D01*
X37414819Y-57237694D01*
X37414818Y-57237712D01*
X37414500Y-57240826D01*
X37414500Y-57774174D01*
X37414818Y-57777288D01*
X37414819Y-57777305D01*
X37423875Y-57865947D01*
X37423876Y-57865952D01*
X37424564Y-57872685D01*
X37477451Y-58032287D01*
X37565719Y-58175391D01*
X37684609Y-58294281D01*
X37690754Y-58298071D01*
X37690755Y-58298072D01*
X37705596Y-58307226D01*
X37748777Y-58352333D01*
X37764500Y-58412765D01*
X37764500Y-59613403D01*
X37748777Y-59673836D01*
X37705595Y-59718942D01*
X37703941Y-59719962D01*
X37700755Y-59721927D01*
X37700748Y-59721932D01*
X37694609Y-59725719D01*
X37689501Y-59730826D01*
X37689497Y-59730830D01*
X37580829Y-59839498D01*
X37580825Y-59839502D01*
X37575719Y-59844609D01*
X37571928Y-59850754D01*
X37571924Y-59850760D01*
X37491243Y-59981564D01*
X37491240Y-59981569D01*
X37487451Y-59987713D01*
X37434564Y-60147315D01*
X37433876Y-60154045D01*
X37433875Y-60154052D01*
X37424819Y-60242694D01*
X37424818Y-60242712D01*
X37424500Y-60245826D01*
X37424500Y-60779174D01*
X37424818Y-60782288D01*
X37424819Y-60782305D01*
X37433875Y-60870947D01*
X37433876Y-60870952D01*
X37434564Y-60877685D01*
X37487451Y-61037287D01*
X37575719Y-61180391D01*
X37580829Y-61185501D01*
X37607647Y-61212319D01*
X37639741Y-61267906D01*
X37639741Y-61332094D01*
X37607647Y-61387681D01*
X37580829Y-61414498D01*
X37580825Y-61414502D01*
X37575719Y-61419609D01*
X37571928Y-61425754D01*
X37571924Y-61425760D01*
X37491243Y-61556564D01*
X37491240Y-61556569D01*
X37487451Y-61562713D01*
X37485180Y-61569564D01*
X37485179Y-61569568D01*
X37436694Y-61715886D01*
X37434564Y-61722315D01*
X37433876Y-61729045D01*
X37433875Y-61729052D01*
X37424819Y-61817694D01*
X37424818Y-61817712D01*
X37424500Y-61820826D01*
X37424500Y-61823975D01*
X37424500Y-62127048D01*
X37415061Y-62174501D01*
X37388181Y-62214729D01*
X35764728Y-63838181D01*
X35724500Y-63865061D01*
X35677047Y-63874500D01*
X35668384Y-63874500D01*
X35665581Y-63874754D01*
X35665574Y-63874755D01*
X35604338Y-63880320D01*
X35604335Y-63880320D01*
X35597804Y-63880914D01*
X35591553Y-63882861D01*
X35591542Y-63882864D01*
X35442550Y-63929292D01*
X35435394Y-63931522D01*
X35428982Y-63935398D01*
X35428978Y-63935400D01*
X35296232Y-64015648D01*
X35296227Y-64015651D01*
X35289815Y-64019528D01*
X35284515Y-64024827D01*
X35284511Y-64024831D01*
X35169528Y-64139815D01*
X35168178Y-64138465D01*
X35129120Y-64168685D01*
X35069123Y-64178559D01*
X35011646Y-64158724D01*
X34970508Y-64113950D01*
X34955600Y-64055002D01*
X34955600Y-59057452D01*
X34965039Y-59009999D01*
X34991919Y-58969771D01*
X35495530Y-58466160D01*
X37087306Y-56874382D01*
X37095482Y-56866943D01*
X37101877Y-56862886D01*
X37147933Y-56813840D01*
X37150550Y-56811138D01*
X37170120Y-56791570D01*
X37172565Y-56788416D01*
X37180155Y-56779528D01*
X37210062Y-56747682D01*
X37216699Y-56735610D01*
X37219710Y-56730132D01*
X37230393Y-56713866D01*
X37242674Y-56698036D01*
X37260018Y-56657951D01*
X37265160Y-56647456D01*
X37273482Y-56632319D01*
X37286197Y-56609192D01*
X37291179Y-56589789D01*
X37297480Y-56571383D01*
X37305438Y-56552995D01*
X37305438Y-56552994D01*
X37307373Y-56553831D01*
X37328605Y-56516155D01*
X37375511Y-56484314D01*
X37431687Y-56476679D01*
X37485391Y-56494845D01*
G37*
%TD.AperFunction*%
%TD*%
M02*
