%TF.GenerationSoftware,KiCad,Pcbnew,(7.0.0)*%
%TF.CreationDate,2023-03-26T18:05:45-07:00*%
%TF.ProjectId,frontpanel,66726f6e-7470-4616-9e65-6c2e6b696361,rev?*%
%TF.SameCoordinates,Original*%
%TF.FileFunction,Copper,L1,Top*%
%TF.FilePolarity,Positive*%
%FSLAX46Y46*%
G04 Gerber Fmt 4.6, Leading zero omitted, Abs format (unit mm)*
G04 Created by KiCad (PCBNEW (7.0.0)) date 2023-03-26 18:05:45*
%MOMM*%
%LPD*%
G01*
G04 APERTURE LIST*
%TA.AperFunction,Conductor*%
%ADD10C,0.250000*%
%TD*%
G04 APERTURE END LIST*
D10*
%TO.N,Net-(D1-K)*%
X27400000Y-44700000D02*
X27400000Y-45925100D01*
%TD*%
%TA.AperFunction,Conductor*%
%TO.N,GND*%
G36*
X40258000Y-20016613D02*
G01*
X40303387Y-20062000D01*
X40320000Y-20124000D01*
X40320000Y-20802016D01*
X40302979Y-20864717D01*
X40256589Y-20910205D01*
X40193566Y-20925992D01*
X40131211Y-20907744D01*
X40073013Y-20872080D01*
X40073011Y-20872079D01*
X40068858Y-20869534D01*
X39836110Y-20773127D01*
X39831381Y-20771991D01*
X39831373Y-20771989D01*
X39595880Y-20715453D01*
X39595876Y-20715452D01*
X39591147Y-20714317D01*
X39586294Y-20713935D01*
X39344853Y-20694933D01*
X39339999Y-20694551D01*
X39335145Y-20694933D01*
X39093703Y-20713935D01*
X39093701Y-20713935D01*
X39088851Y-20714317D01*
X39084123Y-20715451D01*
X39084117Y-20715453D01*
X38848624Y-20771989D01*
X38848612Y-20771992D01*
X38843888Y-20773127D01*
X38839391Y-20774989D01*
X38839387Y-20774991D01*
X38615644Y-20867668D01*
X38615639Y-20867670D01*
X38611140Y-20869534D01*
X38606987Y-20872078D01*
X38606981Y-20872082D01*
X38400494Y-20998617D01*
X38400481Y-20998626D01*
X38396340Y-21001164D01*
X38392645Y-21004319D01*
X38392635Y-21004327D01*
X38208475Y-21161615D01*
X38208468Y-21161621D01*
X38204775Y-21164776D01*
X38201620Y-21168469D01*
X38201614Y-21168476D01*
X38044326Y-21352636D01*
X38044318Y-21352646D01*
X38041163Y-21356341D01*
X38038625Y-21360482D01*
X38038616Y-21360495D01*
X37912081Y-21566982D01*
X37912077Y-21566988D01*
X37909533Y-21571141D01*
X37813126Y-21803889D01*
X37811991Y-21808613D01*
X37811988Y-21808625D01*
X37755452Y-22044118D01*
X37755450Y-22044124D01*
X37754316Y-22048852D01*
X37734550Y-22300000D01*
X37754316Y-22551148D01*
X37755451Y-22555877D01*
X37755452Y-22555881D01*
X37811988Y-22791374D01*
X37811990Y-22791382D01*
X37813126Y-22796111D01*
X37909533Y-23028859D01*
X37912080Y-23033016D01*
X37912081Y-23033017D01*
X38038616Y-23239504D01*
X38038621Y-23239511D01*
X38041163Y-23243659D01*
X38044323Y-23247358D01*
X38044326Y-23247363D01*
X38201182Y-23431017D01*
X38204775Y-23435224D01*
X38208475Y-23438384D01*
X38390704Y-23594023D01*
X38396340Y-23598836D01*
X38400490Y-23601379D01*
X38400494Y-23601382D01*
X38512299Y-23669896D01*
X38611140Y-23730466D01*
X38843888Y-23826873D01*
X39088851Y-23885683D01*
X39339999Y-23905449D01*
X39591147Y-23885683D01*
X39836110Y-23826873D01*
X40068858Y-23730466D01*
X40131210Y-23692256D01*
X40193566Y-23674008D01*
X40256589Y-23689795D01*
X40302979Y-23735283D01*
X40320000Y-23797984D01*
X40320000Y-46485510D01*
X40302289Y-46549375D01*
X40254215Y-46594995D01*
X40189511Y-46609340D01*
X40104137Y-46604866D01*
X40104136Y-46604866D01*
X40100892Y-46604696D01*
X40097648Y-46604866D01*
X39737725Y-46623728D01*
X39737718Y-46623728D01*
X39734488Y-46623898D01*
X39731296Y-46624403D01*
X39731282Y-46624405D01*
X39375315Y-46680785D01*
X39375306Y-46680786D01*
X39372098Y-46681295D01*
X39368972Y-46682132D01*
X39368956Y-46682136D01*
X39020835Y-46775415D01*
X39020815Y-46775421D01*
X39017693Y-46776258D01*
X39014668Y-46777418D01*
X39014650Y-46777425D01*
X38678179Y-46906584D01*
X38678169Y-46906588D01*
X38675156Y-46907745D01*
X38672281Y-46909209D01*
X38672274Y-46909213D01*
X38351133Y-47072843D01*
X38351119Y-47072850D01*
X38348240Y-47074318D01*
X38345520Y-47076084D01*
X38345512Y-47076089D01*
X38043254Y-47272377D01*
X38043248Y-47272380D01*
X38040526Y-47274149D01*
X38038006Y-47276189D01*
X38038000Y-47276194D01*
X37757904Y-47503011D01*
X37757893Y-47503020D01*
X37755386Y-47505051D01*
X37753101Y-47507335D01*
X37753091Y-47507345D01*
X37498237Y-47762199D01*
X37498227Y-47762209D01*
X37495943Y-47764494D01*
X37493912Y-47767001D01*
X37493903Y-47767012D01*
X37267086Y-48047108D01*
X37267081Y-48047114D01*
X37265041Y-48049634D01*
X37263272Y-48052356D01*
X37263269Y-48052362D01*
X37066981Y-48354620D01*
X37066976Y-48354628D01*
X37065210Y-48357348D01*
X37063742Y-48360227D01*
X37063735Y-48360241D01*
X36900105Y-48681382D01*
X36898637Y-48684264D01*
X36897480Y-48687277D01*
X36897476Y-48687287D01*
X36768317Y-49023758D01*
X36768310Y-49023776D01*
X36767150Y-49026801D01*
X36766313Y-49029923D01*
X36766307Y-49029943D01*
X36673028Y-49378064D01*
X36673024Y-49378080D01*
X36672187Y-49381206D01*
X36671678Y-49384414D01*
X36671677Y-49384423D01*
X36615297Y-49740390D01*
X36615295Y-49740404D01*
X36614790Y-49743596D01*
X36595588Y-50110000D01*
X36614790Y-50476404D01*
X36615295Y-50479597D01*
X36615297Y-50479609D01*
X36671677Y-50835576D01*
X36672187Y-50838794D01*
X36673025Y-50841923D01*
X36673028Y-50841935D01*
X36766307Y-51190056D01*
X36766311Y-51190070D01*
X36767150Y-51193199D01*
X36768313Y-51196228D01*
X36768317Y-51196241D01*
X36897476Y-51532712D01*
X36898637Y-51535736D01*
X37065210Y-51862652D01*
X37265041Y-52170366D01*
X37267086Y-52172891D01*
X37492798Y-52451623D01*
X37495943Y-52455506D01*
X37755386Y-52714949D01*
X38040526Y-52945851D01*
X38348240Y-53145682D01*
X38675156Y-53312255D01*
X39017693Y-53443742D01*
X39372098Y-53538705D01*
X39734488Y-53596102D01*
X40100892Y-53615304D01*
X40104136Y-53615134D01*
X40104137Y-53615134D01*
X40189511Y-53610660D01*
X40254215Y-53625005D01*
X40302289Y-53670625D01*
X40320000Y-53734490D01*
X40320000Y-74461076D01*
X40306485Y-74517371D01*
X40268885Y-74561394D01*
X40215398Y-74583549D01*
X40157682Y-74579007D01*
X40108319Y-74548757D01*
X39946907Y-74387345D01*
X39946906Y-74387344D01*
X39944613Y-74385051D01*
X39659473Y-74154149D01*
X39351759Y-73954318D01*
X39348871Y-73952846D01*
X39348865Y-73952843D01*
X39027724Y-73789213D01*
X39024843Y-73787745D01*
X39021822Y-73786585D01*
X39021819Y-73786584D01*
X38685348Y-73657425D01*
X38685335Y-73657421D01*
X38682306Y-73656258D01*
X38679177Y-73655419D01*
X38679163Y-73655415D01*
X38331042Y-73562136D01*
X38331030Y-73562133D01*
X38327901Y-73561295D01*
X38324688Y-73560786D01*
X38324683Y-73560785D01*
X37968716Y-73504405D01*
X37968704Y-73504403D01*
X37965511Y-73503898D01*
X37962278Y-73503728D01*
X37962273Y-73503728D01*
X37602351Y-73484866D01*
X37599107Y-73484696D01*
X37595863Y-73484866D01*
X37235940Y-73503728D01*
X37235933Y-73503728D01*
X37232703Y-73503898D01*
X37229511Y-73504403D01*
X37229497Y-73504405D01*
X36873530Y-73560785D01*
X36873521Y-73560786D01*
X36870313Y-73561295D01*
X36867187Y-73562132D01*
X36867171Y-73562136D01*
X36519050Y-73655415D01*
X36519030Y-73655421D01*
X36515908Y-73656258D01*
X36512883Y-73657418D01*
X36512865Y-73657425D01*
X36176394Y-73786584D01*
X36176384Y-73786588D01*
X36173371Y-73787745D01*
X36170496Y-73789209D01*
X36170489Y-73789213D01*
X35849348Y-73952843D01*
X35849334Y-73952850D01*
X35846455Y-73954318D01*
X35843735Y-73956084D01*
X35843727Y-73956089D01*
X35541469Y-74152377D01*
X35541463Y-74152380D01*
X35538741Y-74154149D01*
X35536221Y-74156189D01*
X35536215Y-74156194D01*
X35256119Y-74383011D01*
X35256108Y-74383020D01*
X35253601Y-74385051D01*
X35251316Y-74387335D01*
X35251306Y-74387345D01*
X34996452Y-74642199D01*
X34996442Y-74642209D01*
X34994158Y-74644494D01*
X34992127Y-74647001D01*
X34992118Y-74647012D01*
X34765301Y-74927108D01*
X34765296Y-74927114D01*
X34763256Y-74929634D01*
X34761487Y-74932356D01*
X34761484Y-74932362D01*
X34565196Y-75234620D01*
X34565191Y-75234628D01*
X34563425Y-75237348D01*
X34561957Y-75240227D01*
X34561950Y-75240241D01*
X34398320Y-75561382D01*
X34396852Y-75564264D01*
X34395695Y-75567277D01*
X34395691Y-75567287D01*
X34266532Y-75903758D01*
X34266525Y-75903776D01*
X34265365Y-75906801D01*
X34264528Y-75909923D01*
X34264522Y-75909943D01*
X34171243Y-76258064D01*
X34171239Y-76258080D01*
X34170402Y-76261206D01*
X34169893Y-76264414D01*
X34169892Y-76264423D01*
X34113512Y-76620390D01*
X34113510Y-76620404D01*
X34113005Y-76623596D01*
X34093803Y-76990000D01*
X34113005Y-77356404D01*
X34113510Y-77359597D01*
X34113512Y-77359609D01*
X34169892Y-77715576D01*
X34170402Y-77718794D01*
X34171240Y-77721923D01*
X34171243Y-77721935D01*
X34264522Y-78070056D01*
X34264526Y-78070070D01*
X34265365Y-78073199D01*
X34266528Y-78076228D01*
X34266532Y-78076241D01*
X34395691Y-78412712D01*
X34396852Y-78415736D01*
X34563425Y-78742652D01*
X34763256Y-79050366D01*
X34765301Y-79052891D01*
X34991013Y-79331623D01*
X34994158Y-79335506D01*
X35253601Y-79594949D01*
X35538741Y-79825851D01*
X35846455Y-80025682D01*
X36173371Y-80192255D01*
X36515908Y-80323742D01*
X36870313Y-80418705D01*
X37232703Y-80476102D01*
X37599107Y-80495304D01*
X37965511Y-80476102D01*
X38327901Y-80418705D01*
X38682306Y-80323742D01*
X39024843Y-80192255D01*
X39351759Y-80025682D01*
X39659473Y-79825851D01*
X39944613Y-79594949D01*
X40108319Y-79431242D01*
X40157682Y-79400993D01*
X40215398Y-79396451D01*
X40268885Y-79418606D01*
X40306485Y-79462629D01*
X40320000Y-79518924D01*
X40320000Y-88273777D01*
X40309802Y-88323023D01*
X40280884Y-88364169D01*
X40176447Y-88462241D01*
X40176440Y-88462248D01*
X40173610Y-88464906D01*
X40171135Y-88467897D01*
X40171131Y-88467902D01*
X39975536Y-88704334D01*
X39975526Y-88704346D01*
X39973053Y-88707337D01*
X39970971Y-88710616D01*
X39970962Y-88710630D01*
X39806548Y-88969706D01*
X39806541Y-88969717D01*
X39804463Y-88972993D01*
X39802810Y-88976504D01*
X39802807Y-88976511D01*
X39672153Y-89254165D01*
X39670497Y-89257685D01*
X39669295Y-89261382D01*
X39669293Y-89261389D01*
X39595346Y-89488975D01*
X39573269Y-89556921D01*
X39572540Y-89560741D01*
X39572538Y-89560750D01*
X39515041Y-89862158D01*
X39515038Y-89862174D01*
X39514312Y-89865985D01*
X39494556Y-90180000D01*
X39514312Y-90494015D01*
X39515039Y-90497827D01*
X39515041Y-90497841D01*
X39572538Y-90799249D01*
X39573269Y-90803079D01*
X39670497Y-91102315D01*
X39804463Y-91387007D01*
X39806545Y-91390288D01*
X39806548Y-91390293D01*
X39970962Y-91649369D01*
X39970966Y-91649375D01*
X39973053Y-91652663D01*
X40173610Y-91895094D01*
X40176447Y-91897758D01*
X40280884Y-91995831D01*
X40309802Y-92036977D01*
X40320000Y-92086223D01*
X40320000Y-113849412D01*
X40302732Y-113912533D01*
X40255737Y-113958074D01*
X40210929Y-113982706D01*
X40210909Y-113982718D01*
X40207516Y-113984584D01*
X40204372Y-113986867D01*
X40204366Y-113986872D01*
X39956126Y-114167228D01*
X39956115Y-114167236D01*
X39952970Y-114169522D01*
X39950135Y-114172183D01*
X39950128Y-114172190D01*
X39726447Y-114382241D01*
X39726440Y-114382248D01*
X39723610Y-114384906D01*
X39721135Y-114387897D01*
X39721131Y-114387902D01*
X39525536Y-114624334D01*
X39525526Y-114624346D01*
X39523053Y-114627337D01*
X39520971Y-114630616D01*
X39520962Y-114630630D01*
X39356548Y-114889706D01*
X39356541Y-114889717D01*
X39354463Y-114892993D01*
X39352810Y-114896504D01*
X39352807Y-114896511D01*
X39256399Y-115101389D01*
X39220497Y-115177685D01*
X39219295Y-115181382D01*
X39219293Y-115181389D01*
X39124474Y-115473211D01*
X39123269Y-115476921D01*
X39122540Y-115480741D01*
X39122538Y-115480750D01*
X39065041Y-115782158D01*
X39065038Y-115782174D01*
X39064312Y-115785985D01*
X39044556Y-116100000D01*
X39064312Y-116414015D01*
X39065039Y-116417827D01*
X39065041Y-116417841D01*
X39122538Y-116719249D01*
X39123269Y-116723079D01*
X39124473Y-116726786D01*
X39124474Y-116726788D01*
X39193299Y-116938610D01*
X39220497Y-117022315D01*
X39354463Y-117307007D01*
X39356545Y-117310288D01*
X39356548Y-117310293D01*
X39520962Y-117569369D01*
X39520966Y-117569375D01*
X39523053Y-117572663D01*
X39723610Y-117815094D01*
X39952970Y-118030478D01*
X40207516Y-118215416D01*
X40210921Y-118217287D01*
X40210929Y-118217293D01*
X40255737Y-118241926D01*
X40302732Y-118287467D01*
X40320000Y-118350588D01*
X40320000Y-143302016D01*
X40302979Y-143364717D01*
X40256589Y-143410205D01*
X40193566Y-143425992D01*
X40131211Y-143407744D01*
X40073013Y-143372080D01*
X40073011Y-143372079D01*
X40068858Y-143369534D01*
X39836110Y-143273127D01*
X39831381Y-143271991D01*
X39831373Y-143271989D01*
X39595880Y-143215453D01*
X39595876Y-143215452D01*
X39591147Y-143214317D01*
X39586294Y-143213935D01*
X39344853Y-143194933D01*
X39339999Y-143194551D01*
X39335145Y-143194933D01*
X39093703Y-143213935D01*
X39093701Y-143213935D01*
X39088851Y-143214317D01*
X39084123Y-143215451D01*
X39084117Y-143215453D01*
X38848624Y-143271989D01*
X38848612Y-143271992D01*
X38843888Y-143273127D01*
X38839391Y-143274989D01*
X38839387Y-143274991D01*
X38615644Y-143367668D01*
X38615639Y-143367670D01*
X38611140Y-143369534D01*
X38606987Y-143372078D01*
X38606981Y-143372082D01*
X38400494Y-143498617D01*
X38400481Y-143498626D01*
X38396340Y-143501164D01*
X38392645Y-143504319D01*
X38392635Y-143504327D01*
X38208475Y-143661615D01*
X38208468Y-143661621D01*
X38204775Y-143664776D01*
X38201620Y-143668469D01*
X38201614Y-143668476D01*
X38044326Y-143852636D01*
X38044318Y-143852646D01*
X38041163Y-143856341D01*
X38038625Y-143860482D01*
X38038616Y-143860495D01*
X37912081Y-144066982D01*
X37912077Y-144066988D01*
X37909533Y-144071141D01*
X37813126Y-144303889D01*
X37811991Y-144308613D01*
X37811988Y-144308625D01*
X37755452Y-144544118D01*
X37755450Y-144544124D01*
X37754316Y-144548852D01*
X37734550Y-144800000D01*
X37754316Y-145051148D01*
X37755451Y-145055877D01*
X37755452Y-145055881D01*
X37811988Y-145291374D01*
X37811990Y-145291382D01*
X37813126Y-145296111D01*
X37909533Y-145528859D01*
X37912080Y-145533016D01*
X37912081Y-145533017D01*
X38038616Y-145739504D01*
X38038621Y-145739511D01*
X38041163Y-145743659D01*
X38044323Y-145747358D01*
X38044326Y-145747363D01*
X38201182Y-145931017D01*
X38204775Y-145935224D01*
X38208475Y-145938384D01*
X38390704Y-146094023D01*
X38396340Y-146098836D01*
X38400490Y-146101379D01*
X38400494Y-146101382D01*
X38512299Y-146169896D01*
X38611140Y-146230466D01*
X38843888Y-146326873D01*
X39088851Y-146385683D01*
X39339999Y-146405449D01*
X39591147Y-146385683D01*
X39836110Y-146326873D01*
X40068858Y-146230466D01*
X40131210Y-146192256D01*
X40193566Y-146174008D01*
X40256589Y-146189795D01*
X40302979Y-146235283D01*
X40320000Y-146297984D01*
X40320000Y-147675500D01*
X40303387Y-147737500D01*
X40258000Y-147782887D01*
X40196000Y-147799500D01*
X25824500Y-147799500D01*
X25762500Y-147782887D01*
X25717113Y-147737500D01*
X25700500Y-147675500D01*
X25700500Y-144800000D01*
X30774551Y-144800000D01*
X30794317Y-145051148D01*
X30795452Y-145055877D01*
X30795453Y-145055881D01*
X30851989Y-145291374D01*
X30851991Y-145291382D01*
X30853127Y-145296111D01*
X30949534Y-145528859D01*
X30952081Y-145533016D01*
X30952082Y-145533017D01*
X31078617Y-145739504D01*
X31078622Y-145739511D01*
X31081164Y-145743659D01*
X31084324Y-145747358D01*
X31084327Y-145747363D01*
X31241183Y-145931017D01*
X31244776Y-145935224D01*
X31248476Y-145938384D01*
X31430705Y-146094023D01*
X31436341Y-146098836D01*
X31440491Y-146101379D01*
X31440495Y-146101382D01*
X31552300Y-146169896D01*
X31651141Y-146230466D01*
X31883889Y-146326873D01*
X32128852Y-146385683D01*
X32380000Y-146405449D01*
X32631148Y-146385683D01*
X32876111Y-146326873D01*
X33108859Y-146230466D01*
X33323659Y-146098836D01*
X33515224Y-145935224D01*
X33678836Y-145743659D01*
X33810466Y-145528859D01*
X33906873Y-145296111D01*
X33965683Y-145051148D01*
X33985449Y-144800000D01*
X33965683Y-144548852D01*
X33906873Y-144303889D01*
X33810466Y-144071141D01*
X33678836Y-143856341D01*
X33515224Y-143664776D01*
X33511523Y-143661615D01*
X33327363Y-143504327D01*
X33327358Y-143504324D01*
X33323659Y-143501164D01*
X33319511Y-143498622D01*
X33319504Y-143498617D01*
X33113017Y-143372082D01*
X33113016Y-143372081D01*
X33108859Y-143369534D01*
X32876111Y-143273127D01*
X32871382Y-143271991D01*
X32871374Y-143271989D01*
X32635881Y-143215453D01*
X32635877Y-143215452D01*
X32631148Y-143214317D01*
X32626295Y-143213935D01*
X32384854Y-143194933D01*
X32380000Y-143194551D01*
X32375146Y-143194933D01*
X32133704Y-143213935D01*
X32133702Y-143213935D01*
X32128852Y-143214317D01*
X32124124Y-143215451D01*
X32124118Y-143215453D01*
X31888625Y-143271989D01*
X31888613Y-143271992D01*
X31883889Y-143273127D01*
X31879392Y-143274989D01*
X31879388Y-143274991D01*
X31655645Y-143367668D01*
X31655640Y-143367670D01*
X31651141Y-143369534D01*
X31646988Y-143372078D01*
X31646982Y-143372082D01*
X31440495Y-143498617D01*
X31440482Y-143498626D01*
X31436341Y-143501164D01*
X31432646Y-143504319D01*
X31432636Y-143504327D01*
X31248476Y-143661615D01*
X31248469Y-143661621D01*
X31244776Y-143664776D01*
X31241621Y-143668469D01*
X31241615Y-143668476D01*
X31084327Y-143852636D01*
X31084319Y-143852646D01*
X31081164Y-143856341D01*
X31078626Y-143860482D01*
X31078617Y-143860495D01*
X30952082Y-144066982D01*
X30952078Y-144066988D01*
X30949534Y-144071141D01*
X30853127Y-144303889D01*
X30851992Y-144308613D01*
X30851989Y-144308625D01*
X30795453Y-144544118D01*
X30795451Y-144544124D01*
X30794317Y-144548852D01*
X30774551Y-144800000D01*
X25700500Y-144800000D01*
X25700500Y-129999999D01*
X32374556Y-129999999D01*
X32394312Y-130314014D01*
X32395039Y-130317826D01*
X32395041Y-130317840D01*
X32452538Y-130619248D01*
X32453269Y-130623078D01*
X32550497Y-130922314D01*
X32684463Y-131207006D01*
X32686545Y-131210287D01*
X32686548Y-131210292D01*
X32850962Y-131469368D01*
X32850966Y-131469374D01*
X32853053Y-131472662D01*
X33053610Y-131715093D01*
X33282970Y-131930477D01*
X33537516Y-132115415D01*
X33813234Y-132266993D01*
X34105775Y-132382818D01*
X34410527Y-132461065D01*
X34722682Y-132500499D01*
X35033423Y-132500499D01*
X35037318Y-132500499D01*
X35349473Y-132461065D01*
X35654225Y-132382818D01*
X35946766Y-132266993D01*
X36222484Y-132115415D01*
X36477030Y-131930477D01*
X36706390Y-131715093D01*
X36906947Y-131472662D01*
X37075537Y-131207006D01*
X37209503Y-130922314D01*
X37306731Y-130623078D01*
X37365688Y-130314014D01*
X37385444Y-129999999D01*
X37365688Y-129685984D01*
X37306731Y-129376920D01*
X37209503Y-129077684D01*
X37075537Y-128792992D01*
X37064589Y-128775741D01*
X36909037Y-128530629D01*
X36909035Y-128530626D01*
X36906947Y-128527336D01*
X36706390Y-128284905D01*
X36477030Y-128069521D01*
X36222484Y-127884583D01*
X36219081Y-127882712D01*
X36219076Y-127882709D01*
X35950183Y-127734883D01*
X35950176Y-127734879D01*
X35946766Y-127733005D01*
X35943140Y-127731569D01*
X35943135Y-127731567D01*
X35657847Y-127618614D01*
X35657846Y-127618613D01*
X35654225Y-127617180D01*
X35650455Y-127616212D01*
X35650452Y-127616211D01*
X35353256Y-127539904D01*
X35353251Y-127539903D01*
X35349473Y-127538933D01*
X35345602Y-127538444D01*
X35345597Y-127538443D01*
X35041184Y-127499987D01*
X35041177Y-127499986D01*
X35037318Y-127499499D01*
X34722682Y-127499499D01*
X34718823Y-127499986D01*
X34718815Y-127499987D01*
X34414402Y-127538443D01*
X34414394Y-127538444D01*
X34410527Y-127538933D01*
X34406751Y-127539902D01*
X34406743Y-127539904D01*
X34109547Y-127616211D01*
X34109539Y-127616213D01*
X34105775Y-127617180D01*
X34102158Y-127618611D01*
X34102152Y-127618614D01*
X33816864Y-127731567D01*
X33816853Y-127731571D01*
X33813234Y-127733005D01*
X33809829Y-127734876D01*
X33809816Y-127734883D01*
X33540923Y-127882709D01*
X33540911Y-127882716D01*
X33537516Y-127884583D01*
X33534372Y-127886866D01*
X33534366Y-127886871D01*
X33286126Y-128067227D01*
X33286115Y-128067235D01*
X33282970Y-128069521D01*
X33280135Y-128072182D01*
X33280128Y-128072189D01*
X33056447Y-128282240D01*
X33056440Y-128282247D01*
X33053610Y-128284905D01*
X33051135Y-128287896D01*
X33051131Y-128287901D01*
X32855536Y-128524333D01*
X32855526Y-128524345D01*
X32853053Y-128527336D01*
X32850971Y-128530615D01*
X32850962Y-128530629D01*
X32686548Y-128789705D01*
X32686541Y-128789716D01*
X32684463Y-128792992D01*
X32682810Y-128796503D01*
X32682807Y-128796510D01*
X32552153Y-129074164D01*
X32550497Y-129077684D01*
X32453269Y-129376920D01*
X32452540Y-129380740D01*
X32452538Y-129380749D01*
X32395041Y-129682157D01*
X32395038Y-129682173D01*
X32394312Y-129685984D01*
X32374556Y-129999999D01*
X25700500Y-129999999D01*
X25700500Y-116020000D01*
X29694556Y-116020000D01*
X29714312Y-116334015D01*
X29715039Y-116337827D01*
X29715041Y-116337841D01*
X29772538Y-116639249D01*
X29773269Y-116643079D01*
X29870497Y-116942315D01*
X30004463Y-117227007D01*
X30006545Y-117230288D01*
X30006548Y-117230293D01*
X30170962Y-117489369D01*
X30170966Y-117489375D01*
X30173053Y-117492663D01*
X30373610Y-117735094D01*
X30602970Y-117950478D01*
X30857516Y-118135416D01*
X31133234Y-118286994D01*
X31425775Y-118402819D01*
X31730527Y-118481066D01*
X32042682Y-118520500D01*
X32353423Y-118520500D01*
X32357318Y-118520500D01*
X32669473Y-118481066D01*
X32974225Y-118402819D01*
X33266766Y-118286994D01*
X33542484Y-118135416D01*
X33797030Y-117950478D01*
X34026390Y-117735094D01*
X34226947Y-117492663D01*
X34395537Y-117227007D01*
X34529503Y-116942315D01*
X34626731Y-116643079D01*
X34685688Y-116334015D01*
X34705444Y-116020000D01*
X34685688Y-115705985D01*
X34626731Y-115396921D01*
X34529503Y-115097685D01*
X34395537Y-114812993D01*
X34279806Y-114630630D01*
X34229037Y-114550630D01*
X34229035Y-114550627D01*
X34226947Y-114547337D01*
X34026390Y-114304906D01*
X33797030Y-114089522D01*
X33542484Y-113904584D01*
X33539081Y-113902713D01*
X33539076Y-113902710D01*
X33270183Y-113754884D01*
X33270176Y-113754880D01*
X33266766Y-113753006D01*
X33263140Y-113751570D01*
X33263135Y-113751568D01*
X32977847Y-113638615D01*
X32977846Y-113638614D01*
X32974225Y-113637181D01*
X32970455Y-113636213D01*
X32970452Y-113636212D01*
X32673256Y-113559905D01*
X32673251Y-113559904D01*
X32669473Y-113558934D01*
X32665602Y-113558445D01*
X32665597Y-113558444D01*
X32361184Y-113519988D01*
X32361177Y-113519987D01*
X32357318Y-113519500D01*
X32042682Y-113519500D01*
X32038823Y-113519987D01*
X32038815Y-113519988D01*
X31734402Y-113558444D01*
X31734394Y-113558445D01*
X31730527Y-113558934D01*
X31726751Y-113559903D01*
X31726743Y-113559905D01*
X31429547Y-113636212D01*
X31429539Y-113636214D01*
X31425775Y-113637181D01*
X31422158Y-113638612D01*
X31422152Y-113638615D01*
X31136864Y-113751568D01*
X31136853Y-113751572D01*
X31133234Y-113753006D01*
X31129829Y-113754877D01*
X31129816Y-113754884D01*
X30860923Y-113902710D01*
X30860911Y-113902717D01*
X30857516Y-113904584D01*
X30854372Y-113906867D01*
X30854366Y-113906872D01*
X30606126Y-114087228D01*
X30606115Y-114087236D01*
X30602970Y-114089522D01*
X30600135Y-114092183D01*
X30600128Y-114092190D01*
X30376447Y-114302241D01*
X30376440Y-114302248D01*
X30373610Y-114304906D01*
X30371135Y-114307897D01*
X30371131Y-114307902D01*
X30175536Y-114544334D01*
X30175526Y-114544346D01*
X30173053Y-114547337D01*
X30170971Y-114550616D01*
X30170962Y-114550630D01*
X30006548Y-114809706D01*
X30006541Y-114809717D01*
X30004463Y-114812993D01*
X30002810Y-114816504D01*
X30002807Y-114816511D01*
X29965470Y-114895857D01*
X29870497Y-115097685D01*
X29869295Y-115101382D01*
X29869293Y-115101389D01*
X29774474Y-115393211D01*
X29773269Y-115396921D01*
X29772540Y-115400741D01*
X29772538Y-115400750D01*
X29715041Y-115702158D01*
X29715038Y-115702174D01*
X29714312Y-115705985D01*
X29694556Y-116020000D01*
X25700500Y-116020000D01*
X25700500Y-103800000D01*
X31594556Y-103800000D01*
X31614312Y-104114015D01*
X31615039Y-104117827D01*
X31615041Y-104117841D01*
X31672538Y-104419249D01*
X31673269Y-104423079D01*
X31770497Y-104722315D01*
X31904463Y-105007007D01*
X31906545Y-105010288D01*
X31906548Y-105010293D01*
X32070962Y-105269369D01*
X32070966Y-105269375D01*
X32073053Y-105272663D01*
X32273610Y-105515094D01*
X32502970Y-105730478D01*
X32757516Y-105915416D01*
X33033234Y-106066994D01*
X33325775Y-106182819D01*
X33630527Y-106261066D01*
X33942682Y-106300500D01*
X34253423Y-106300500D01*
X34257318Y-106300500D01*
X34569473Y-106261066D01*
X34874225Y-106182819D01*
X35166766Y-106066994D01*
X35442484Y-105915416D01*
X35697030Y-105730478D01*
X35926390Y-105515094D01*
X36126947Y-105272663D01*
X36295537Y-105007007D01*
X36429503Y-104722315D01*
X36526731Y-104423079D01*
X36585688Y-104114015D01*
X36605444Y-103800000D01*
X36585688Y-103485985D01*
X36526731Y-103176921D01*
X36429503Y-102877685D01*
X36295537Y-102592993D01*
X36284589Y-102575742D01*
X36129037Y-102330630D01*
X36129035Y-102330627D01*
X36126947Y-102327337D01*
X35926390Y-102084906D01*
X35697030Y-101869522D01*
X35442484Y-101684584D01*
X35439081Y-101682713D01*
X35439076Y-101682710D01*
X35170183Y-101534884D01*
X35170176Y-101534880D01*
X35166766Y-101533006D01*
X35163140Y-101531570D01*
X35163135Y-101531568D01*
X34877847Y-101418615D01*
X34877846Y-101418614D01*
X34874225Y-101417181D01*
X34870455Y-101416213D01*
X34870452Y-101416212D01*
X34573256Y-101339905D01*
X34573251Y-101339904D01*
X34569473Y-101338934D01*
X34565602Y-101338445D01*
X34565597Y-101338444D01*
X34261184Y-101299988D01*
X34261177Y-101299987D01*
X34257318Y-101299500D01*
X33942682Y-101299500D01*
X33938823Y-101299987D01*
X33938815Y-101299988D01*
X33634402Y-101338444D01*
X33634394Y-101338445D01*
X33630527Y-101338934D01*
X33626751Y-101339903D01*
X33626743Y-101339905D01*
X33329547Y-101416212D01*
X33329539Y-101416214D01*
X33325775Y-101417181D01*
X33322158Y-101418612D01*
X33322152Y-101418615D01*
X33036864Y-101531568D01*
X33036853Y-101531572D01*
X33033234Y-101533006D01*
X33029829Y-101534877D01*
X33029816Y-101534884D01*
X32760923Y-101682710D01*
X32760911Y-101682717D01*
X32757516Y-101684584D01*
X32754372Y-101686867D01*
X32754366Y-101686872D01*
X32506126Y-101867228D01*
X32506115Y-101867236D01*
X32502970Y-101869522D01*
X32500135Y-101872183D01*
X32500128Y-101872190D01*
X32276447Y-102082241D01*
X32276440Y-102082248D01*
X32273610Y-102084906D01*
X32271135Y-102087897D01*
X32271131Y-102087902D01*
X32075536Y-102324334D01*
X32075526Y-102324346D01*
X32073053Y-102327337D01*
X32070971Y-102330616D01*
X32070962Y-102330630D01*
X31906548Y-102589706D01*
X31906541Y-102589717D01*
X31904463Y-102592993D01*
X31902810Y-102596504D01*
X31902807Y-102596511D01*
X31772153Y-102874165D01*
X31770497Y-102877685D01*
X31673269Y-103176921D01*
X31672540Y-103180741D01*
X31672538Y-103180750D01*
X31615041Y-103482158D01*
X31615038Y-103482174D01*
X31614312Y-103485985D01*
X31594556Y-103800000D01*
X25700500Y-103800000D01*
X25700500Y-91200000D01*
X29794556Y-91200000D01*
X29814312Y-91514015D01*
X29815039Y-91517827D01*
X29815041Y-91517841D01*
X29872538Y-91819249D01*
X29873269Y-91823079D01*
X29970497Y-92122315D01*
X30104463Y-92407007D01*
X30106545Y-92410288D01*
X30106548Y-92410293D01*
X30270962Y-92669369D01*
X30270966Y-92669375D01*
X30273053Y-92672663D01*
X30473610Y-92915094D01*
X30702970Y-93130478D01*
X30957516Y-93315416D01*
X31233234Y-93466994D01*
X31525775Y-93582819D01*
X31830527Y-93661066D01*
X32142682Y-93700500D01*
X32453423Y-93700500D01*
X32457318Y-93700500D01*
X32769473Y-93661066D01*
X33074225Y-93582819D01*
X33366766Y-93466994D01*
X33642484Y-93315416D01*
X33897030Y-93130478D01*
X34126390Y-92915094D01*
X34326947Y-92672663D01*
X34495537Y-92407007D01*
X34629503Y-92122315D01*
X34726731Y-91823079D01*
X34785688Y-91514015D01*
X34805444Y-91200000D01*
X34785688Y-90885985D01*
X34726731Y-90576921D01*
X34629503Y-90277685D01*
X34495537Y-89992993D01*
X34415408Y-89866730D01*
X34329037Y-89730630D01*
X34329035Y-89730627D01*
X34326947Y-89727337D01*
X34126390Y-89484906D01*
X33897030Y-89269522D01*
X33883749Y-89259873D01*
X33645633Y-89086872D01*
X33645634Y-89086872D01*
X33642484Y-89084584D01*
X33639081Y-89082713D01*
X33639076Y-89082710D01*
X33370183Y-88934884D01*
X33370176Y-88934880D01*
X33366766Y-88933006D01*
X33363140Y-88931570D01*
X33363135Y-88931568D01*
X33077847Y-88818615D01*
X33077846Y-88818614D01*
X33074225Y-88817181D01*
X33070455Y-88816213D01*
X33070452Y-88816212D01*
X32773256Y-88739905D01*
X32773251Y-88739904D01*
X32769473Y-88738934D01*
X32765602Y-88738445D01*
X32765597Y-88738444D01*
X32461184Y-88699988D01*
X32461177Y-88699987D01*
X32457318Y-88699500D01*
X32142682Y-88699500D01*
X32138823Y-88699987D01*
X32138815Y-88699988D01*
X31834402Y-88738444D01*
X31834394Y-88738445D01*
X31830527Y-88738934D01*
X31826751Y-88739903D01*
X31826743Y-88739905D01*
X31529547Y-88816212D01*
X31529539Y-88816214D01*
X31525775Y-88817181D01*
X31522158Y-88818612D01*
X31522152Y-88818615D01*
X31236864Y-88931568D01*
X31236853Y-88931572D01*
X31233234Y-88933006D01*
X31229829Y-88934877D01*
X31229816Y-88934884D01*
X30960923Y-89082710D01*
X30960911Y-89082717D01*
X30957516Y-89084584D01*
X30954372Y-89086867D01*
X30954366Y-89086872D01*
X30706126Y-89267228D01*
X30706115Y-89267236D01*
X30702970Y-89269522D01*
X30700135Y-89272183D01*
X30700128Y-89272190D01*
X30476447Y-89482241D01*
X30476440Y-89482248D01*
X30473610Y-89484906D01*
X30471135Y-89487897D01*
X30471131Y-89487902D01*
X30275536Y-89724334D01*
X30275526Y-89724346D01*
X30273053Y-89727337D01*
X30270971Y-89730616D01*
X30270962Y-89730630D01*
X30106548Y-89989706D01*
X30106541Y-89989717D01*
X30104463Y-89992993D01*
X30102810Y-89996504D01*
X30102807Y-89996511D01*
X29972153Y-90274165D01*
X29970497Y-90277685D01*
X29969295Y-90281382D01*
X29969293Y-90281389D01*
X29874474Y-90573211D01*
X29873269Y-90576921D01*
X29872540Y-90580741D01*
X29872538Y-90580750D01*
X29815041Y-90882158D01*
X29815038Y-90882174D01*
X29814312Y-90885985D01*
X29794556Y-91200000D01*
X25700500Y-91200000D01*
X25700500Y-65600892D01*
X29384696Y-65600892D01*
X29403898Y-65967296D01*
X29404403Y-65970489D01*
X29404405Y-65970501D01*
X29460785Y-66326468D01*
X29461295Y-66329686D01*
X29462133Y-66332815D01*
X29462136Y-66332827D01*
X29555415Y-66680948D01*
X29555419Y-66680962D01*
X29556258Y-66684091D01*
X29557421Y-66687120D01*
X29557425Y-66687133D01*
X29686584Y-67023604D01*
X29687745Y-67026628D01*
X29854318Y-67353544D01*
X30054149Y-67661258D01*
X30056194Y-67663783D01*
X30281906Y-67942515D01*
X30285051Y-67946398D01*
X30544494Y-68205841D01*
X30829634Y-68436743D01*
X31137348Y-68636574D01*
X31464264Y-68803147D01*
X31806801Y-68934634D01*
X32161206Y-69029597D01*
X32523596Y-69086994D01*
X32890000Y-69106196D01*
X33256404Y-69086994D01*
X33618794Y-69029597D01*
X33973199Y-68934634D01*
X34315736Y-68803147D01*
X34642652Y-68636574D01*
X34950366Y-68436743D01*
X35235506Y-68205841D01*
X35494949Y-67946398D01*
X35725851Y-67661258D01*
X35925682Y-67353544D01*
X36092255Y-67026628D01*
X36223742Y-66684091D01*
X36318705Y-66329686D01*
X36376102Y-65967296D01*
X36395304Y-65600892D01*
X36376102Y-65234488D01*
X36318705Y-64872098D01*
X36223742Y-64517693D01*
X36092255Y-64175156D01*
X35925682Y-63848240D01*
X35725851Y-63540526D01*
X35494949Y-63255386D01*
X35235506Y-62995943D01*
X34950366Y-62765041D01*
X34642652Y-62565210D01*
X34639764Y-62563738D01*
X34639758Y-62563735D01*
X34318617Y-62400105D01*
X34315736Y-62398637D01*
X34312715Y-62397477D01*
X34312712Y-62397476D01*
X33976241Y-62268317D01*
X33976228Y-62268313D01*
X33973199Y-62267150D01*
X33970070Y-62266311D01*
X33970056Y-62266307D01*
X33621935Y-62173028D01*
X33621923Y-62173025D01*
X33618794Y-62172187D01*
X33615581Y-62171678D01*
X33615576Y-62171677D01*
X33259609Y-62115297D01*
X33259597Y-62115295D01*
X33256404Y-62114790D01*
X33253171Y-62114620D01*
X33253166Y-62114620D01*
X32893244Y-62095758D01*
X32890000Y-62095588D01*
X32886756Y-62095758D01*
X32526833Y-62114620D01*
X32526826Y-62114620D01*
X32523596Y-62114790D01*
X32520404Y-62115295D01*
X32520390Y-62115297D01*
X32164423Y-62171677D01*
X32164414Y-62171678D01*
X32161206Y-62172187D01*
X32158080Y-62173024D01*
X32158064Y-62173028D01*
X31809943Y-62266307D01*
X31809923Y-62266313D01*
X31806801Y-62267150D01*
X31803776Y-62268310D01*
X31803758Y-62268317D01*
X31467287Y-62397476D01*
X31467277Y-62397480D01*
X31464264Y-62398637D01*
X31461389Y-62400101D01*
X31461382Y-62400105D01*
X31140241Y-62563735D01*
X31140227Y-62563742D01*
X31137348Y-62565210D01*
X31134628Y-62566976D01*
X31134620Y-62566981D01*
X30832362Y-62763269D01*
X30832356Y-62763272D01*
X30829634Y-62765041D01*
X30827114Y-62767081D01*
X30827108Y-62767086D01*
X30547012Y-62993903D01*
X30547001Y-62993912D01*
X30544494Y-62995943D01*
X30542209Y-62998227D01*
X30542199Y-62998237D01*
X30287345Y-63253091D01*
X30287335Y-63253101D01*
X30285051Y-63255386D01*
X30283020Y-63257893D01*
X30283011Y-63257904D01*
X30056194Y-63538000D01*
X30056189Y-63538006D01*
X30054149Y-63540526D01*
X30052380Y-63543248D01*
X30052377Y-63543254D01*
X29856089Y-63845512D01*
X29856084Y-63845520D01*
X29854318Y-63848240D01*
X29852850Y-63851119D01*
X29852843Y-63851133D01*
X29689213Y-64172274D01*
X29687745Y-64175156D01*
X29686588Y-64178169D01*
X29686584Y-64178179D01*
X29557425Y-64514650D01*
X29557418Y-64514668D01*
X29556258Y-64517693D01*
X29555421Y-64520815D01*
X29555415Y-64520835D01*
X29462136Y-64868956D01*
X29462132Y-64868972D01*
X29461295Y-64872098D01*
X29460786Y-64875306D01*
X29460785Y-64875315D01*
X29404405Y-65231282D01*
X29404403Y-65231296D01*
X29403898Y-65234488D01*
X29384696Y-65600892D01*
X25700500Y-65600892D01*
X25700500Y-45964450D01*
X26774500Y-45964450D01*
X26774987Y-45968310D01*
X26774988Y-45968316D01*
X26788358Y-46074153D01*
X26789336Y-46081892D01*
X26792207Y-46089143D01*
X26844643Y-46221582D01*
X26844644Y-46221585D01*
X26847514Y-46228832D01*
X26852096Y-46235139D01*
X26852097Y-46235140D01*
X26935818Y-46350373D01*
X26935820Y-46350375D01*
X26940406Y-46356687D01*
X26946415Y-46361658D01*
X26946418Y-46361661D01*
X26999047Y-46405199D01*
X27062177Y-46457424D01*
X27205174Y-46524714D01*
X27360412Y-46554327D01*
X27518138Y-46544404D01*
X27668441Y-46495567D01*
X27801877Y-46410886D01*
X27910062Y-46295682D01*
X27986197Y-46157192D01*
X28025500Y-46004119D01*
X28025500Y-44660650D01*
X28010664Y-44543208D01*
X27952486Y-44396268D01*
X27859594Y-44268413D01*
X27853583Y-44263440D01*
X27853581Y-44263438D01*
X27743834Y-44172649D01*
X27737823Y-44167676D01*
X27730763Y-44164354D01*
X27730762Y-44164353D01*
X27651642Y-44127122D01*
X27594826Y-44100386D01*
X27587167Y-44098924D01*
X27587164Y-44098924D01*
X27447245Y-44072233D01*
X27447239Y-44072232D01*
X27439588Y-44070773D01*
X27431809Y-44071262D01*
X27431804Y-44071262D01*
X27289649Y-44080206D01*
X27289648Y-44080206D01*
X27281862Y-44080696D01*
X27274447Y-44083105D01*
X27274443Y-44083106D01*
X27138977Y-44127122D01*
X27138972Y-44127124D01*
X27131559Y-44129533D01*
X27124979Y-44133708D01*
X27124972Y-44133712D01*
X27004709Y-44210034D01*
X27004706Y-44210035D01*
X26998123Y-44214214D01*
X26992788Y-44219894D01*
X26992782Y-44219900D01*
X26895278Y-44323731D01*
X26895276Y-44323733D01*
X26889938Y-44329418D01*
X26886180Y-44336253D01*
X26886179Y-44336255D01*
X26817561Y-44461070D01*
X26817557Y-44461077D01*
X26813803Y-44467908D01*
X26811863Y-44475460D01*
X26811862Y-44475465D01*
X26792482Y-44550946D01*
X26774500Y-44620981D01*
X26774500Y-45964450D01*
X25700500Y-45964450D01*
X25700500Y-34099107D01*
X29904696Y-34099107D01*
X29923898Y-34465511D01*
X29924403Y-34468704D01*
X29924405Y-34468716D01*
X29980785Y-34824683D01*
X29981295Y-34827901D01*
X29982133Y-34831030D01*
X29982136Y-34831042D01*
X30075415Y-35179163D01*
X30075419Y-35179177D01*
X30076258Y-35182306D01*
X30077421Y-35185335D01*
X30077425Y-35185348D01*
X30206584Y-35521819D01*
X30207745Y-35524843D01*
X30374318Y-35851759D01*
X30574149Y-36159473D01*
X30576194Y-36161998D01*
X30801906Y-36440730D01*
X30805051Y-36444613D01*
X31064494Y-36704056D01*
X31349634Y-36934958D01*
X31657348Y-37134789D01*
X31984264Y-37301362D01*
X32326801Y-37432849D01*
X32681206Y-37527812D01*
X33043596Y-37585209D01*
X33410000Y-37604411D01*
X33776404Y-37585209D01*
X34138794Y-37527812D01*
X34493199Y-37432849D01*
X34835736Y-37301362D01*
X35162652Y-37134789D01*
X35470366Y-36934958D01*
X35755506Y-36704056D01*
X36014949Y-36444613D01*
X36245851Y-36159473D01*
X36445682Y-35851759D01*
X36612255Y-35524843D01*
X36743742Y-35182306D01*
X36838705Y-34827901D01*
X36896102Y-34465511D01*
X36915304Y-34099107D01*
X36896102Y-33732703D01*
X36838705Y-33370313D01*
X36743742Y-33015908D01*
X36612255Y-32673371D01*
X36445682Y-32346455D01*
X36245851Y-32038741D01*
X36014949Y-31753601D01*
X35755506Y-31494158D01*
X35470366Y-31263256D01*
X35162652Y-31063425D01*
X35159764Y-31061953D01*
X35159758Y-31061950D01*
X34838617Y-30898320D01*
X34835736Y-30896852D01*
X34832715Y-30895692D01*
X34832712Y-30895691D01*
X34496241Y-30766532D01*
X34496228Y-30766528D01*
X34493199Y-30765365D01*
X34490070Y-30764526D01*
X34490056Y-30764522D01*
X34141935Y-30671243D01*
X34141923Y-30671240D01*
X34138794Y-30670402D01*
X34135581Y-30669893D01*
X34135576Y-30669892D01*
X33779609Y-30613512D01*
X33779597Y-30613510D01*
X33776404Y-30613005D01*
X33773171Y-30612835D01*
X33773166Y-30612835D01*
X33413244Y-30593973D01*
X33410000Y-30593803D01*
X33406756Y-30593973D01*
X33046833Y-30612835D01*
X33046826Y-30612835D01*
X33043596Y-30613005D01*
X33040404Y-30613510D01*
X33040390Y-30613512D01*
X32684423Y-30669892D01*
X32684414Y-30669893D01*
X32681206Y-30670402D01*
X32678080Y-30671239D01*
X32678064Y-30671243D01*
X32329943Y-30764522D01*
X32329923Y-30764528D01*
X32326801Y-30765365D01*
X32323776Y-30766525D01*
X32323758Y-30766532D01*
X31987287Y-30895691D01*
X31987277Y-30895695D01*
X31984264Y-30896852D01*
X31981389Y-30898316D01*
X31981382Y-30898320D01*
X31660241Y-31061950D01*
X31660227Y-31061957D01*
X31657348Y-31063425D01*
X31654628Y-31065191D01*
X31654620Y-31065196D01*
X31352362Y-31261484D01*
X31352356Y-31261487D01*
X31349634Y-31263256D01*
X31347114Y-31265296D01*
X31347108Y-31265301D01*
X31067012Y-31492118D01*
X31067001Y-31492127D01*
X31064494Y-31494158D01*
X31062209Y-31496442D01*
X31062199Y-31496452D01*
X30807345Y-31751306D01*
X30807335Y-31751316D01*
X30805051Y-31753601D01*
X30803020Y-31756108D01*
X30803011Y-31756119D01*
X30576194Y-32036215D01*
X30576189Y-32036221D01*
X30574149Y-32038741D01*
X30572380Y-32041463D01*
X30572377Y-32041469D01*
X30376089Y-32343727D01*
X30376084Y-32343735D01*
X30374318Y-32346455D01*
X30372850Y-32349334D01*
X30372843Y-32349348D01*
X30209213Y-32670489D01*
X30207745Y-32673371D01*
X30206588Y-32676384D01*
X30206584Y-32676394D01*
X30077425Y-33012865D01*
X30077418Y-33012883D01*
X30076258Y-33015908D01*
X30075421Y-33019030D01*
X30075415Y-33019050D01*
X29982136Y-33367171D01*
X29982132Y-33367187D01*
X29981295Y-33370313D01*
X29980786Y-33373521D01*
X29980785Y-33373530D01*
X29924405Y-33729497D01*
X29924403Y-33729511D01*
X29923898Y-33732703D01*
X29904696Y-34099107D01*
X25700500Y-34099107D01*
X25700500Y-22300000D01*
X30774551Y-22300000D01*
X30794317Y-22551148D01*
X30795452Y-22555877D01*
X30795453Y-22555881D01*
X30851989Y-22791374D01*
X30851991Y-22791382D01*
X30853127Y-22796111D01*
X30949534Y-23028859D01*
X30952081Y-23033016D01*
X30952082Y-23033017D01*
X31078617Y-23239504D01*
X31078622Y-23239511D01*
X31081164Y-23243659D01*
X31084324Y-23247358D01*
X31084327Y-23247363D01*
X31241183Y-23431017D01*
X31244776Y-23435224D01*
X31248476Y-23438384D01*
X31430705Y-23594023D01*
X31436341Y-23598836D01*
X31440491Y-23601379D01*
X31440495Y-23601382D01*
X31552300Y-23669896D01*
X31651141Y-23730466D01*
X31883889Y-23826873D01*
X32128852Y-23885683D01*
X32380000Y-23905449D01*
X32631148Y-23885683D01*
X32876111Y-23826873D01*
X33108859Y-23730466D01*
X33323659Y-23598836D01*
X33515224Y-23435224D01*
X33678836Y-23243659D01*
X33810466Y-23028859D01*
X33906873Y-22796111D01*
X33965683Y-22551148D01*
X33985449Y-22300000D01*
X33965683Y-22048852D01*
X33906873Y-21803889D01*
X33810466Y-21571141D01*
X33678836Y-21356341D01*
X33515224Y-21164776D01*
X33511523Y-21161615D01*
X33327363Y-21004327D01*
X33327358Y-21004324D01*
X33323659Y-21001164D01*
X33319511Y-20998622D01*
X33319504Y-20998617D01*
X33113017Y-20872082D01*
X33113016Y-20872081D01*
X33108859Y-20869534D01*
X32876111Y-20773127D01*
X32871382Y-20771991D01*
X32871374Y-20771989D01*
X32635881Y-20715453D01*
X32635877Y-20715452D01*
X32631148Y-20714317D01*
X32626295Y-20713935D01*
X32384854Y-20694933D01*
X32380000Y-20694551D01*
X32375146Y-20694933D01*
X32133704Y-20713935D01*
X32133702Y-20713935D01*
X32128852Y-20714317D01*
X32124124Y-20715451D01*
X32124118Y-20715453D01*
X31888625Y-20771989D01*
X31888613Y-20771992D01*
X31883889Y-20773127D01*
X31879392Y-20774989D01*
X31879388Y-20774991D01*
X31655645Y-20867668D01*
X31655640Y-20867670D01*
X31651141Y-20869534D01*
X31646988Y-20872078D01*
X31646982Y-20872082D01*
X31440495Y-20998617D01*
X31440482Y-20998626D01*
X31436341Y-21001164D01*
X31432646Y-21004319D01*
X31432636Y-21004327D01*
X31248476Y-21161615D01*
X31248469Y-21161621D01*
X31244776Y-21164776D01*
X31241621Y-21168469D01*
X31241615Y-21168476D01*
X31084327Y-21352636D01*
X31084319Y-21352646D01*
X31081164Y-21356341D01*
X31078626Y-21360482D01*
X31078617Y-21360495D01*
X30952082Y-21566982D01*
X30952078Y-21566988D01*
X30949534Y-21571141D01*
X30853127Y-21803889D01*
X30851992Y-21808613D01*
X30851989Y-21808625D01*
X30795453Y-22044118D01*
X30795451Y-22044124D01*
X30794317Y-22048852D01*
X30774551Y-22300000D01*
X25700500Y-22300000D01*
X25700500Y-20124000D01*
X25717113Y-20062000D01*
X25762500Y-20016613D01*
X25824500Y-20000000D01*
X40196000Y-20000000D01*
X40258000Y-20016613D01*
G37*
%TD.AperFunction*%
%TD*%
M02*
