M48
; DRILL file {KiCad (7.0.0)} date Mon Mar  6 17:31:15 2023
; FORMAT={-:-/ absolute / inch / decimal}
; #@! TF.CreationDate,2023-03-06T17:31:15-08:00
; #@! TF.GenerationSoftware,Kicad,Pcbnew,(7.0.0)
; #@! TF.FileFunction,Plated,1,2,PTH
FMAT,2
INCH
; #@! TA.AperFunction,Plated,PTH,ComponentDrill
T1C0.0480
; #@! TA.AperFunction,Plated,PTH,ComponentDrill
T2C0.0559
; #@! TA.AperFunction,Plated,PTH,ComponentDrill
T3C0.0563
%
G90
G05
T1
X0.9843Y-1.2276
X0.9843Y-1.8051
X0.9843Y-2.4594
X0.9843Y-3.0374
X0.9843Y-3.7441
X0.9843Y-4.3209
X1.3878Y-1.2276
X1.3878Y-1.8051
X1.3878Y-2.4594
X1.3878Y-3.0374
X1.3878Y-3.7441
X1.3878Y-4.3209
T2
X0.9843Y-1.3496
X0.9843Y-1.9272
X0.9843Y-2.5815
X0.9843Y-3.1594
X0.9843Y-3.8661
X0.9843Y-4.4429
X1.3878Y-1.3496
X1.3878Y-1.9272
X1.3878Y-2.5815
X1.3878Y-3.1594
X1.3878Y-3.8661
X1.3878Y-4.4429
T3
X0.9843Y-1.6764
X0.9843Y-2.2539
X0.9843Y-2.9083
X0.9843Y-3.4862
X0.9843Y-4.1929
X0.9843Y-4.7697
X1.3878Y-1.6764
X1.3878Y-2.2539
X1.3878Y-2.9083
X1.3878Y-3.4862
X1.3878Y-4.1929
X1.3878Y-4.7697
T0
M30
