%TF.GenerationSoftware,KiCad,Pcbnew,(7.0.0)*%
%TF.CreationDate,2023-03-06T17:31:15-08:00*%
%TF.ProjectId,passive mult,70617373-6976-4652-906d-756c742e6b69,rev?*%
%TF.SameCoordinates,Original*%
%TF.FileFunction,Copper,L2,Bot*%
%TF.FilePolarity,Positive*%
%FSLAX46Y46*%
G04 Gerber Fmt 4.6, Leading zero omitted, Abs format (unit mm)*
G04 Created by KiCad (PCBNEW (7.0.0)) date 2023-03-06 17:31:15*
%MOMM*%
%LPD*%
G01*
G04 APERTURE LIST*
%TA.AperFunction,ComponentPad*%
%ADD10R,1.930000X1.830000*%
%TD*%
%TA.AperFunction,ComponentPad*%
%ADD11C,2.130000*%
%TD*%
G04 APERTURE END LIST*
D10*
%TO.P,J10,S*%
%TO.N,GND*%
X35249999Y-95099999D03*
D11*
%TO.P,J10,T*%
%TO.N,Net-(J10-PadT)*%
X35250000Y-106500000D03*
%TO.P,J10,TN*%
%TO.N,unconnected-(J10-PadTN)*%
X35250000Y-98200000D03*
%TD*%
D10*
%TO.P,J8,S*%
%TO.N,GND*%
X35249999Y-77149999D03*
D11*
%TO.P,J8,T*%
%TO.N,Net-(J6-PadT)*%
X35250000Y-88550000D03*
%TO.P,J8,TN*%
%TO.N,unconnected-(J8-PadTN)*%
X35250000Y-80250000D03*
%TD*%
D10*
%TO.P,J7,S*%
%TO.N,GND*%
X24999999Y-62469999D03*
D11*
%TO.P,J7,T*%
%TO.N,Net-(J6-PadT)*%
X25000000Y-73870000D03*
%TO.P,J7,TN*%
%TO.N,unconnected-(J7-PadTN)*%
X25000000Y-65570000D03*
%TD*%
D10*
%TO.P,J12,S*%
%TO.N,GND*%
X35249999Y-109749999D03*
D11*
%TO.P,J12,T*%
%TO.N,Net-(J10-PadT)*%
X35250000Y-121150000D03*
%TO.P,J12,TN*%
%TO.N,unconnected-(J12-PadTN)*%
X35250000Y-112850000D03*
%TD*%
D10*
%TO.P,J11,S*%
%TO.N,GND*%
X24999999Y-95099999D03*
D11*
%TO.P,J11,T*%
%TO.N,Net-(J10-PadT)*%
X25000000Y-106500000D03*
%TO.P,J11,TN*%
%TO.N,unconnected-(J11-PadTN)*%
X25000000Y-98200000D03*
%TD*%
D10*
%TO.P,J13,S*%
%TO.N,GND*%
X24999999Y-109749999D03*
D11*
%TO.P,J13,T*%
%TO.N,Net-(J10-PadT)*%
X25000000Y-121150000D03*
%TO.P,J13,TN*%
%TO.N,unconnected-(J13-PadTN)*%
X25000000Y-112850000D03*
%TD*%
D10*
%TO.P,J9,S*%
%TO.N,GND*%
X24999999Y-77149999D03*
D11*
%TO.P,J9,T*%
%TO.N,Net-(J6-PadT)*%
X25000000Y-88550000D03*
%TO.P,J9,TN*%
%TO.N,unconnected-(J9-PadTN)*%
X25000000Y-80250000D03*
%TD*%
D10*
%TO.P,J4,S*%
%TO.N,GND*%
X35249999Y-45849999D03*
D11*
%TO.P,J4,T*%
%TO.N,Net-(J2-PadT)*%
X35250000Y-57250000D03*
%TO.P,J4,TN*%
%TO.N,unconnected-(J4-PadTN)*%
X35250000Y-48950000D03*
%TD*%
D10*
%TO.P,J6,S*%
%TO.N,GND*%
X35249999Y-62469999D03*
D11*
%TO.P,J6,T*%
%TO.N,Net-(J6-PadT)*%
X35250000Y-73870000D03*
%TO.P,J6,TN*%
%TO.N,unconnected-(J6-PadTN)*%
X35250000Y-65570000D03*
%TD*%
D10*
%TO.P,J5,S*%
%TO.N,GND*%
X24999999Y-45849999D03*
D11*
%TO.P,J5,T*%
%TO.N,Net-(J2-PadT)*%
X25000000Y-57250000D03*
%TO.P,J5,TN*%
%TO.N,unconnected-(J5-PadTN)*%
X25000000Y-48950000D03*
%TD*%
D10*
%TO.P,J2,S*%
%TO.N,GND*%
X35249999Y-31179999D03*
D11*
%TO.P,J2,T*%
%TO.N,Net-(J2-PadT)*%
X35250000Y-42580000D03*
%TO.P,J2,TN*%
%TO.N,unconnected-(J2-PadTN)*%
X35250000Y-34280000D03*
%TD*%
D10*
%TO.P,J3,S*%
%TO.N,GND*%
X24999999Y-31179999D03*
D11*
%TO.P,J3,T*%
%TO.N,Net-(J2-PadT)*%
X25000000Y-42580000D03*
%TO.P,J3,TN*%
%TO.N,unconnected-(J3-PadTN)*%
X25000000Y-34280000D03*
%TD*%
%TA.AperFunction,Conductor*%
%TO.N,GND*%
G36*
X40257500Y-20017113D02*
G01*
X40302887Y-20062500D01*
X40319500Y-20124500D01*
X40319500Y-148375500D01*
X40302887Y-148437500D01*
X40257500Y-148482887D01*
X40195500Y-148499500D01*
X20124500Y-148499500D01*
X20062500Y-148482887D01*
X20017113Y-148437500D01*
X20000500Y-148375500D01*
X20000500Y-145500000D01*
X25074551Y-145500000D01*
X25094317Y-145751148D01*
X25095452Y-145755877D01*
X25095453Y-145755881D01*
X25151989Y-145991374D01*
X25151991Y-145991382D01*
X25153127Y-145996111D01*
X25249534Y-146228859D01*
X25252081Y-146233016D01*
X25252082Y-146233017D01*
X25378617Y-146439504D01*
X25378622Y-146439511D01*
X25381164Y-146443659D01*
X25384324Y-146447358D01*
X25384327Y-146447363D01*
X25534845Y-146623596D01*
X25544776Y-146635224D01*
X25548476Y-146638384D01*
X25730705Y-146794023D01*
X25736341Y-146798836D01*
X25740491Y-146801379D01*
X25740495Y-146801382D01*
X25852300Y-146869896D01*
X25951141Y-146930466D01*
X26183889Y-147026873D01*
X26428852Y-147085683D01*
X26680000Y-147105449D01*
X26931148Y-147085683D01*
X27176111Y-147026873D01*
X27408859Y-146930466D01*
X27623659Y-146798836D01*
X27815224Y-146635224D01*
X27978836Y-146443659D01*
X28110466Y-146228859D01*
X28206873Y-145996111D01*
X28265683Y-145751148D01*
X28285449Y-145500000D01*
X32034551Y-145500000D01*
X32054317Y-145751148D01*
X32055452Y-145755877D01*
X32055453Y-145755881D01*
X32111989Y-145991374D01*
X32111991Y-145991382D01*
X32113127Y-145996111D01*
X32209534Y-146228859D01*
X32212081Y-146233016D01*
X32212082Y-146233017D01*
X32338617Y-146439504D01*
X32338622Y-146439511D01*
X32341164Y-146443659D01*
X32344324Y-146447358D01*
X32344327Y-146447363D01*
X32494845Y-146623596D01*
X32504776Y-146635224D01*
X32508476Y-146638384D01*
X32690705Y-146794023D01*
X32696341Y-146798836D01*
X32700491Y-146801379D01*
X32700495Y-146801382D01*
X32812300Y-146869896D01*
X32911141Y-146930466D01*
X33143889Y-147026873D01*
X33388852Y-147085683D01*
X33640000Y-147105449D01*
X33891148Y-147085683D01*
X34136111Y-147026873D01*
X34368859Y-146930466D01*
X34583659Y-146798836D01*
X34775224Y-146635224D01*
X34938836Y-146443659D01*
X35070466Y-146228859D01*
X35166873Y-145996111D01*
X35225683Y-145751148D01*
X35245449Y-145500000D01*
X35225683Y-145248852D01*
X35166873Y-145003889D01*
X35070466Y-144771141D01*
X34938836Y-144556341D01*
X34775224Y-144364776D01*
X34771523Y-144361615D01*
X34587363Y-144204327D01*
X34587358Y-144204324D01*
X34583659Y-144201164D01*
X34579511Y-144198622D01*
X34579504Y-144198617D01*
X34373017Y-144072082D01*
X34373016Y-144072081D01*
X34368859Y-144069534D01*
X34136111Y-143973127D01*
X34131382Y-143971991D01*
X34131374Y-143971989D01*
X33895881Y-143915453D01*
X33895877Y-143915452D01*
X33891148Y-143914317D01*
X33886295Y-143913935D01*
X33644854Y-143894933D01*
X33640000Y-143894551D01*
X33635146Y-143894933D01*
X33393704Y-143913935D01*
X33393702Y-143913935D01*
X33388852Y-143914317D01*
X33384124Y-143915451D01*
X33384118Y-143915453D01*
X33148625Y-143971989D01*
X33148613Y-143971992D01*
X33143889Y-143973127D01*
X33139392Y-143974989D01*
X33139388Y-143974991D01*
X32915645Y-144067668D01*
X32915640Y-144067670D01*
X32911141Y-144069534D01*
X32906988Y-144072078D01*
X32906982Y-144072082D01*
X32700495Y-144198617D01*
X32700482Y-144198626D01*
X32696341Y-144201164D01*
X32692646Y-144204319D01*
X32692636Y-144204327D01*
X32508476Y-144361615D01*
X32508469Y-144361621D01*
X32504776Y-144364776D01*
X32501621Y-144368469D01*
X32501615Y-144368476D01*
X32344327Y-144552636D01*
X32344319Y-144552646D01*
X32341164Y-144556341D01*
X32338626Y-144560482D01*
X32338617Y-144560495D01*
X32212082Y-144766982D01*
X32212078Y-144766988D01*
X32209534Y-144771141D01*
X32207670Y-144775640D01*
X32207668Y-144775645D01*
X32114991Y-144999388D01*
X32113127Y-145003889D01*
X32111992Y-145008613D01*
X32111989Y-145008625D01*
X32055453Y-145244118D01*
X32055451Y-145244124D01*
X32054317Y-145248852D01*
X32034551Y-145500000D01*
X28285449Y-145500000D01*
X28265683Y-145248852D01*
X28206873Y-145003889D01*
X28110466Y-144771141D01*
X27978836Y-144556341D01*
X27815224Y-144364776D01*
X27811523Y-144361615D01*
X27627363Y-144204327D01*
X27627358Y-144204324D01*
X27623659Y-144201164D01*
X27619511Y-144198622D01*
X27619504Y-144198617D01*
X27413017Y-144072082D01*
X27413016Y-144072081D01*
X27408859Y-144069534D01*
X27176111Y-143973127D01*
X27171382Y-143971991D01*
X27171374Y-143971989D01*
X26935881Y-143915453D01*
X26935877Y-143915452D01*
X26931148Y-143914317D01*
X26926295Y-143913935D01*
X26684854Y-143894933D01*
X26680000Y-143894551D01*
X26675146Y-143894933D01*
X26433704Y-143913935D01*
X26433702Y-143913935D01*
X26428852Y-143914317D01*
X26424124Y-143915451D01*
X26424118Y-143915453D01*
X26188625Y-143971989D01*
X26188613Y-143971992D01*
X26183889Y-143973127D01*
X26179392Y-143974989D01*
X26179388Y-143974991D01*
X25955645Y-144067668D01*
X25955640Y-144067670D01*
X25951141Y-144069534D01*
X25946988Y-144072078D01*
X25946982Y-144072082D01*
X25740495Y-144198617D01*
X25740482Y-144198626D01*
X25736341Y-144201164D01*
X25732646Y-144204319D01*
X25732636Y-144204327D01*
X25548476Y-144361615D01*
X25548469Y-144361621D01*
X25544776Y-144364776D01*
X25541621Y-144368469D01*
X25541615Y-144368476D01*
X25384327Y-144552636D01*
X25384319Y-144552646D01*
X25381164Y-144556341D01*
X25378626Y-144560482D01*
X25378617Y-144560495D01*
X25252082Y-144766982D01*
X25252078Y-144766988D01*
X25249534Y-144771141D01*
X25247670Y-144775640D01*
X25247668Y-144775645D01*
X25154991Y-144999388D01*
X25153127Y-145003889D01*
X25151992Y-145008613D01*
X25151989Y-145008625D01*
X25095453Y-145244118D01*
X25095451Y-145244124D01*
X25094317Y-145248852D01*
X25074551Y-145500000D01*
X20000500Y-145500000D01*
X20000500Y-138000000D01*
X21499459Y-138000000D01*
X21499617Y-138000383D01*
X21499901Y-138000500D01*
X24487944Y-138000500D01*
X24500099Y-138000500D01*
X24500383Y-138000383D01*
X24500541Y-138000000D01*
X26499459Y-138000000D01*
X26499617Y-138000383D01*
X26499901Y-138000500D01*
X29487944Y-138000500D01*
X29500099Y-138000500D01*
X29500383Y-138000383D01*
X29500541Y-138000000D01*
X31499459Y-138000000D01*
X31499617Y-138000383D01*
X31499901Y-138000500D01*
X34487944Y-138000500D01*
X34500099Y-138000500D01*
X34500383Y-138000383D01*
X34500541Y-138000000D01*
X36499459Y-138000000D01*
X36499617Y-138000383D01*
X36499901Y-138000500D01*
X39487944Y-138000500D01*
X39500099Y-138000500D01*
X39500383Y-138000383D01*
X39500541Y-138000000D01*
X39500383Y-137999617D01*
X39500099Y-137999500D01*
X36499901Y-137999500D01*
X36499617Y-137999617D01*
X36499459Y-138000000D01*
X34500541Y-138000000D01*
X34500383Y-137999617D01*
X34500099Y-137999500D01*
X31499901Y-137999500D01*
X31499617Y-137999617D01*
X31499459Y-138000000D01*
X29500541Y-138000000D01*
X29500383Y-137999617D01*
X29500099Y-137999500D01*
X26499901Y-137999500D01*
X26499617Y-137999617D01*
X26499459Y-138000000D01*
X24500541Y-138000000D01*
X24500383Y-137999617D01*
X24500099Y-137999500D01*
X21499901Y-137999500D01*
X21499617Y-137999617D01*
X21499459Y-138000000D01*
X20000500Y-138000000D01*
X20000500Y-121150000D01*
X23429659Y-121150000D01*
X23448993Y-121395655D01*
X23450128Y-121400384D01*
X23450129Y-121400388D01*
X23505379Y-121630525D01*
X23505381Y-121630533D01*
X23506517Y-121635262D01*
X23600816Y-121862920D01*
X23729567Y-122073023D01*
X23732731Y-122076728D01*
X23732735Y-122076733D01*
X23886434Y-122256691D01*
X23889601Y-122260399D01*
X23893308Y-122263565D01*
X24073266Y-122417264D01*
X24073269Y-122417266D01*
X24076977Y-122420433D01*
X24287080Y-122549184D01*
X24514738Y-122643483D01*
X24754345Y-122701007D01*
X25000000Y-122720341D01*
X25245655Y-122701007D01*
X25485262Y-122643483D01*
X25712920Y-122549184D01*
X25923023Y-122420433D01*
X26110399Y-122260399D01*
X26270433Y-122073023D01*
X26399184Y-121862920D01*
X26493483Y-121635262D01*
X26551007Y-121395655D01*
X26570341Y-121150000D01*
X33679659Y-121150000D01*
X33698993Y-121395655D01*
X33700128Y-121400384D01*
X33700129Y-121400388D01*
X33755379Y-121630525D01*
X33755381Y-121630533D01*
X33756517Y-121635262D01*
X33850816Y-121862920D01*
X33979567Y-122073023D01*
X33982731Y-122076728D01*
X33982735Y-122076733D01*
X34136434Y-122256691D01*
X34139601Y-122260399D01*
X34143308Y-122263565D01*
X34323266Y-122417264D01*
X34323269Y-122417266D01*
X34326977Y-122420433D01*
X34537080Y-122549184D01*
X34764738Y-122643483D01*
X35004345Y-122701007D01*
X35250000Y-122720341D01*
X35495655Y-122701007D01*
X35735262Y-122643483D01*
X35962920Y-122549184D01*
X36173023Y-122420433D01*
X36360399Y-122260399D01*
X36520433Y-122073023D01*
X36649184Y-121862920D01*
X36743483Y-121635262D01*
X36801007Y-121395655D01*
X36820341Y-121150000D01*
X36801007Y-120904345D01*
X36743483Y-120664738D01*
X36649184Y-120437080D01*
X36520433Y-120226977D01*
X36360399Y-120039601D01*
X36356691Y-120036434D01*
X36176733Y-119882735D01*
X36176728Y-119882731D01*
X36173023Y-119879567D01*
X35962920Y-119750816D01*
X35735262Y-119656517D01*
X35730533Y-119655381D01*
X35730525Y-119655379D01*
X35500388Y-119600129D01*
X35500384Y-119600128D01*
X35495655Y-119598993D01*
X35490802Y-119598611D01*
X35254854Y-119580041D01*
X35250000Y-119579659D01*
X35245146Y-119580041D01*
X35009197Y-119598611D01*
X35009195Y-119598611D01*
X35004345Y-119598993D01*
X34999617Y-119600127D01*
X34999611Y-119600129D01*
X34769474Y-119655379D01*
X34769462Y-119655382D01*
X34764738Y-119656517D01*
X34760241Y-119658379D01*
X34760237Y-119658381D01*
X34541584Y-119748950D01*
X34541579Y-119748952D01*
X34537080Y-119750816D01*
X34532927Y-119753360D01*
X34532921Y-119753364D01*
X34331134Y-119877019D01*
X34331128Y-119877022D01*
X34326977Y-119879567D01*
X34323277Y-119882726D01*
X34323266Y-119882735D01*
X34143308Y-120036434D01*
X34143301Y-120036440D01*
X34139601Y-120039601D01*
X34136440Y-120043301D01*
X34136434Y-120043308D01*
X33982735Y-120223266D01*
X33982726Y-120223277D01*
X33979567Y-120226977D01*
X33977022Y-120231128D01*
X33977019Y-120231134D01*
X33853364Y-120432921D01*
X33853360Y-120432927D01*
X33850816Y-120437080D01*
X33756517Y-120664738D01*
X33755382Y-120669462D01*
X33755379Y-120669474D01*
X33700129Y-120899611D01*
X33700127Y-120899617D01*
X33698993Y-120904345D01*
X33679659Y-121150000D01*
X26570341Y-121150000D01*
X26551007Y-120904345D01*
X26493483Y-120664738D01*
X26399184Y-120437080D01*
X26270433Y-120226977D01*
X26110399Y-120039601D01*
X26106691Y-120036434D01*
X25926733Y-119882735D01*
X25926728Y-119882731D01*
X25923023Y-119879567D01*
X25712920Y-119750816D01*
X25485262Y-119656517D01*
X25480533Y-119655381D01*
X25480525Y-119655379D01*
X25250388Y-119600129D01*
X25250384Y-119600128D01*
X25245655Y-119598993D01*
X25240802Y-119598611D01*
X25004854Y-119580041D01*
X25000000Y-119579659D01*
X24995146Y-119580041D01*
X24759197Y-119598611D01*
X24759195Y-119598611D01*
X24754345Y-119598993D01*
X24749617Y-119600127D01*
X24749611Y-119600129D01*
X24519474Y-119655379D01*
X24519462Y-119655382D01*
X24514738Y-119656517D01*
X24510241Y-119658379D01*
X24510237Y-119658381D01*
X24291584Y-119748950D01*
X24291579Y-119748952D01*
X24287080Y-119750816D01*
X24282927Y-119753360D01*
X24282921Y-119753364D01*
X24081134Y-119877019D01*
X24081128Y-119877022D01*
X24076977Y-119879567D01*
X24073277Y-119882726D01*
X24073266Y-119882735D01*
X23893308Y-120036434D01*
X23893301Y-120036440D01*
X23889601Y-120039601D01*
X23886440Y-120043301D01*
X23886434Y-120043308D01*
X23732735Y-120223266D01*
X23732726Y-120223277D01*
X23729567Y-120226977D01*
X23727022Y-120231128D01*
X23727019Y-120231134D01*
X23603364Y-120432921D01*
X23603360Y-120432927D01*
X23600816Y-120437080D01*
X23506517Y-120664738D01*
X23505382Y-120669462D01*
X23505379Y-120669474D01*
X23450129Y-120899611D01*
X23450127Y-120899617D01*
X23448993Y-120904345D01*
X23429659Y-121150000D01*
X20000500Y-121150000D01*
X20000500Y-116230000D01*
X23494859Y-116230000D01*
X23494939Y-116233292D01*
X23494939Y-116233308D01*
X23496575Y-116300226D01*
X23496656Y-116303526D01*
X23497086Y-116306799D01*
X23497087Y-116306800D01*
X23528186Y-116543027D01*
X23528187Y-116543033D01*
X23528851Y-116548074D01*
X23600555Y-116784079D01*
X23709842Y-117005205D01*
X23853777Y-117205512D01*
X23857382Y-117209105D01*
X23857386Y-117209109D01*
X24024890Y-117376029D01*
X24028495Y-117379621D01*
X24229303Y-117522856D01*
X24450809Y-117631370D01*
X24687064Y-117702250D01*
X24692104Y-117702895D01*
X24692106Y-117702896D01*
X24926679Y-117732946D01*
X24931722Y-117733592D01*
X25178215Y-117724553D01*
X25419921Y-117675377D01*
X25650350Y-117587385D01*
X25863313Y-117462939D01*
X26053092Y-117305382D01*
X26214589Y-117118945D01*
X26343468Y-116908634D01*
X26436266Y-116680099D01*
X26490493Y-116439475D01*
X26502572Y-116230000D01*
X33744859Y-116230000D01*
X33744939Y-116233292D01*
X33744939Y-116233308D01*
X33746575Y-116300226D01*
X33746656Y-116303526D01*
X33747086Y-116306799D01*
X33747087Y-116306800D01*
X33778186Y-116543027D01*
X33778187Y-116543033D01*
X33778851Y-116548074D01*
X33850555Y-116784079D01*
X33959842Y-117005205D01*
X34103777Y-117205512D01*
X34107382Y-117209105D01*
X34107386Y-117209109D01*
X34274890Y-117376029D01*
X34278495Y-117379621D01*
X34479303Y-117522856D01*
X34700809Y-117631370D01*
X34937064Y-117702250D01*
X34942104Y-117702895D01*
X34942106Y-117702896D01*
X35176679Y-117732946D01*
X35181722Y-117733592D01*
X35428215Y-117724553D01*
X35669921Y-117675377D01*
X35900350Y-117587385D01*
X36113313Y-117462939D01*
X36303092Y-117305382D01*
X36464589Y-117118945D01*
X36593468Y-116908634D01*
X36686266Y-116680099D01*
X36740493Y-116439475D01*
X36754692Y-116193226D01*
X36728481Y-115947965D01*
X36662564Y-115710278D01*
X36558712Y-115486548D01*
X36419714Y-115282784D01*
X36276548Y-115132968D01*
X36252820Y-115108138D01*
X36252817Y-115108136D01*
X36249303Y-115104458D01*
X36245235Y-115101403D01*
X36245232Y-115101401D01*
X36056123Y-114959415D01*
X36056122Y-114959414D01*
X36052054Y-114956360D01*
X35866161Y-114859590D01*
X35837779Y-114844815D01*
X35837775Y-114844813D01*
X35833266Y-114842466D01*
X35828433Y-114840886D01*
X35828430Y-114840885D01*
X35603651Y-114767416D01*
X35603647Y-114767415D01*
X35598813Y-114765835D01*
X35593784Y-114765065D01*
X35593778Y-114765064D01*
X35360028Y-114729295D01*
X35360022Y-114729294D01*
X35354993Y-114728525D01*
X35349904Y-114728587D01*
X35349902Y-114728587D01*
X35113438Y-114731476D01*
X35113427Y-114731477D01*
X35108354Y-114731539D01*
X35103349Y-114732430D01*
X35103343Y-114732431D01*
X34870531Y-114773900D01*
X34870518Y-114773903D01*
X34865518Y-114774794D01*
X34860718Y-114776493D01*
X34860717Y-114776494D01*
X34637809Y-114855430D01*
X34637799Y-114855434D01*
X34633008Y-114857131D01*
X34628555Y-114859588D01*
X34628553Y-114859590D01*
X34421517Y-114973879D01*
X34421507Y-114973885D01*
X34417068Y-114976336D01*
X34413084Y-114979482D01*
X34413077Y-114979487D01*
X34227484Y-115126060D01*
X34227480Y-115126063D01*
X34223496Y-115129210D01*
X34220084Y-115132958D01*
X34220075Y-115132968D01*
X34060914Y-115307883D01*
X34060907Y-115307891D01*
X34057492Y-115311645D01*
X34054735Y-115315905D01*
X34054730Y-115315913D01*
X33926274Y-115514476D01*
X33926268Y-115514485D01*
X33923514Y-115518744D01*
X33921490Y-115523397D01*
X33921485Y-115523408D01*
X33838100Y-115715183D01*
X33825159Y-115744945D01*
X33823919Y-115749879D01*
X33823919Y-115749881D01*
X33766310Y-115979231D01*
X33766308Y-115979240D01*
X33765070Y-115984171D01*
X33764653Y-115989234D01*
X33764652Y-115989245D01*
X33745130Y-116226701D01*
X33744859Y-116230000D01*
X26502572Y-116230000D01*
X26504692Y-116193226D01*
X26478481Y-115947965D01*
X26412564Y-115710278D01*
X26308712Y-115486548D01*
X26169714Y-115282784D01*
X26026548Y-115132968D01*
X26002820Y-115108138D01*
X26002817Y-115108136D01*
X25999303Y-115104458D01*
X25995235Y-115101403D01*
X25995232Y-115101401D01*
X25806123Y-114959415D01*
X25806122Y-114959414D01*
X25802054Y-114956360D01*
X25616161Y-114859590D01*
X25587779Y-114844815D01*
X25587775Y-114844813D01*
X25583266Y-114842466D01*
X25578433Y-114840886D01*
X25578430Y-114840885D01*
X25353651Y-114767416D01*
X25353647Y-114767415D01*
X25348813Y-114765835D01*
X25343784Y-114765065D01*
X25343778Y-114765064D01*
X25110028Y-114729295D01*
X25110022Y-114729294D01*
X25104993Y-114728525D01*
X25099904Y-114728587D01*
X25099902Y-114728587D01*
X24863438Y-114731476D01*
X24863427Y-114731477D01*
X24858354Y-114731539D01*
X24853349Y-114732430D01*
X24853343Y-114732431D01*
X24620531Y-114773900D01*
X24620518Y-114773903D01*
X24615518Y-114774794D01*
X24610718Y-114776493D01*
X24610717Y-114776494D01*
X24387809Y-114855430D01*
X24387799Y-114855434D01*
X24383008Y-114857131D01*
X24378555Y-114859588D01*
X24378553Y-114859590D01*
X24171517Y-114973879D01*
X24171507Y-114973885D01*
X24167068Y-114976336D01*
X24163084Y-114979482D01*
X24163077Y-114979487D01*
X23977484Y-115126060D01*
X23977480Y-115126063D01*
X23973496Y-115129210D01*
X23970084Y-115132958D01*
X23970075Y-115132968D01*
X23810914Y-115307883D01*
X23810907Y-115307891D01*
X23807492Y-115311645D01*
X23804735Y-115315905D01*
X23804730Y-115315913D01*
X23676274Y-115514476D01*
X23676268Y-115514485D01*
X23673514Y-115518744D01*
X23671490Y-115523397D01*
X23671485Y-115523408D01*
X23588100Y-115715183D01*
X23575159Y-115744945D01*
X23573919Y-115749879D01*
X23573919Y-115749881D01*
X23516310Y-115979231D01*
X23516308Y-115979240D01*
X23515070Y-115984171D01*
X23514653Y-115989234D01*
X23514652Y-115989245D01*
X23495130Y-116226701D01*
X23494859Y-116230000D01*
X20000500Y-116230000D01*
X20000500Y-112850000D01*
X23429659Y-112850000D01*
X23448993Y-113095655D01*
X23450128Y-113100384D01*
X23450129Y-113100388D01*
X23505379Y-113330525D01*
X23505381Y-113330533D01*
X23506517Y-113335262D01*
X23600816Y-113562920D01*
X23729567Y-113773023D01*
X23732731Y-113776728D01*
X23732735Y-113776733D01*
X23886434Y-113956691D01*
X23889601Y-113960399D01*
X23893308Y-113963565D01*
X24073266Y-114117264D01*
X24073269Y-114117266D01*
X24076977Y-114120433D01*
X24287080Y-114249184D01*
X24514738Y-114343483D01*
X24754345Y-114401007D01*
X25000000Y-114420341D01*
X25245655Y-114401007D01*
X25485262Y-114343483D01*
X25712920Y-114249184D01*
X25923023Y-114120433D01*
X26110399Y-113960399D01*
X26270433Y-113773023D01*
X26399184Y-113562920D01*
X26493483Y-113335262D01*
X26551007Y-113095655D01*
X26570341Y-112850000D01*
X33679659Y-112850000D01*
X33698993Y-113095655D01*
X33700128Y-113100384D01*
X33700129Y-113100388D01*
X33755379Y-113330525D01*
X33755381Y-113330533D01*
X33756517Y-113335262D01*
X33850816Y-113562920D01*
X33979567Y-113773023D01*
X33982731Y-113776728D01*
X33982735Y-113776733D01*
X34136434Y-113956691D01*
X34139601Y-113960399D01*
X34143308Y-113963565D01*
X34323266Y-114117264D01*
X34323269Y-114117266D01*
X34326977Y-114120433D01*
X34537080Y-114249184D01*
X34764738Y-114343483D01*
X35004345Y-114401007D01*
X35250000Y-114420341D01*
X35495655Y-114401007D01*
X35735262Y-114343483D01*
X35962920Y-114249184D01*
X36173023Y-114120433D01*
X36360399Y-113960399D01*
X36520433Y-113773023D01*
X36649184Y-113562920D01*
X36743483Y-113335262D01*
X36801007Y-113095655D01*
X36820341Y-112850000D01*
X36801007Y-112604345D01*
X36743483Y-112364738D01*
X36649184Y-112137080D01*
X36520433Y-111926977D01*
X36360399Y-111739601D01*
X36356691Y-111736434D01*
X36176733Y-111582735D01*
X36176728Y-111582731D01*
X36173023Y-111579567D01*
X35962920Y-111450816D01*
X35848835Y-111403560D01*
X35795971Y-111361885D01*
X35772671Y-111298729D01*
X35785804Y-111232705D01*
X35831499Y-111183273D01*
X35896289Y-111165000D01*
X36259518Y-111165000D01*
X36266114Y-111164646D01*
X36314667Y-111159426D01*
X36329641Y-111155888D01*
X36448777Y-111111452D01*
X36464189Y-111103037D01*
X36565092Y-111027501D01*
X36577501Y-111015092D01*
X36653037Y-110914189D01*
X36661452Y-110898777D01*
X36705888Y-110779641D01*
X36709426Y-110764667D01*
X36714646Y-110716114D01*
X36715000Y-110709518D01*
X36715000Y-110016326D01*
X36711549Y-110003450D01*
X36698674Y-110000000D01*
X33801326Y-110000000D01*
X33788450Y-110003450D01*
X33785000Y-110016326D01*
X33785000Y-110709518D01*
X33785353Y-110716114D01*
X33790573Y-110764667D01*
X33794111Y-110779641D01*
X33838547Y-110898777D01*
X33846962Y-110914189D01*
X33922498Y-111015092D01*
X33934907Y-111027501D01*
X34035810Y-111103037D01*
X34051222Y-111111452D01*
X34170358Y-111155888D01*
X34185332Y-111159426D01*
X34233885Y-111164646D01*
X34240482Y-111165000D01*
X34603711Y-111165000D01*
X34668501Y-111183273D01*
X34714196Y-111232705D01*
X34727329Y-111298729D01*
X34704029Y-111361885D01*
X34651164Y-111403561D01*
X34541584Y-111448950D01*
X34541579Y-111448952D01*
X34537080Y-111450816D01*
X34532927Y-111453360D01*
X34532921Y-111453364D01*
X34331134Y-111577019D01*
X34331128Y-111577022D01*
X34326977Y-111579567D01*
X34323277Y-111582726D01*
X34323266Y-111582735D01*
X34143308Y-111736434D01*
X34143301Y-111736440D01*
X34139601Y-111739601D01*
X34136440Y-111743301D01*
X34136434Y-111743308D01*
X33982735Y-111923266D01*
X33982726Y-111923277D01*
X33979567Y-111926977D01*
X33977022Y-111931128D01*
X33977019Y-111931134D01*
X33853364Y-112132921D01*
X33853360Y-112132927D01*
X33850816Y-112137080D01*
X33756517Y-112364738D01*
X33755382Y-112369462D01*
X33755379Y-112369474D01*
X33700129Y-112599611D01*
X33700127Y-112599617D01*
X33698993Y-112604345D01*
X33679659Y-112850000D01*
X26570341Y-112850000D01*
X26551007Y-112604345D01*
X26493483Y-112364738D01*
X26399184Y-112137080D01*
X26270433Y-111926977D01*
X26110399Y-111739601D01*
X26106691Y-111736434D01*
X25926733Y-111582735D01*
X25926728Y-111582731D01*
X25923023Y-111579567D01*
X25712920Y-111450816D01*
X25598835Y-111403560D01*
X25545971Y-111361885D01*
X25522671Y-111298729D01*
X25535804Y-111232705D01*
X25581499Y-111183273D01*
X25646289Y-111165000D01*
X26009518Y-111165000D01*
X26016114Y-111164646D01*
X26064667Y-111159426D01*
X26079641Y-111155888D01*
X26198777Y-111111452D01*
X26214189Y-111103037D01*
X26315092Y-111027501D01*
X26327501Y-111015092D01*
X26403037Y-110914189D01*
X26411452Y-110898777D01*
X26455888Y-110779641D01*
X26459426Y-110764667D01*
X26464646Y-110716114D01*
X26465000Y-110709518D01*
X26465000Y-110016326D01*
X26461549Y-110003450D01*
X26448674Y-110000000D01*
X23551326Y-110000000D01*
X23538450Y-110003450D01*
X23535000Y-110016326D01*
X23535000Y-110709518D01*
X23535353Y-110716114D01*
X23540573Y-110764667D01*
X23544111Y-110779641D01*
X23588547Y-110898777D01*
X23596962Y-110914189D01*
X23672498Y-111015092D01*
X23684907Y-111027501D01*
X23785810Y-111103037D01*
X23801222Y-111111452D01*
X23920358Y-111155888D01*
X23935332Y-111159426D01*
X23983885Y-111164646D01*
X23990482Y-111165000D01*
X24353711Y-111165000D01*
X24418501Y-111183273D01*
X24464196Y-111232705D01*
X24477329Y-111298729D01*
X24454029Y-111361885D01*
X24401164Y-111403561D01*
X24291584Y-111448950D01*
X24291579Y-111448952D01*
X24287080Y-111450816D01*
X24282927Y-111453360D01*
X24282921Y-111453364D01*
X24081134Y-111577019D01*
X24081128Y-111577022D01*
X24076977Y-111579567D01*
X24073277Y-111582726D01*
X24073266Y-111582735D01*
X23893308Y-111736434D01*
X23893301Y-111736440D01*
X23889601Y-111739601D01*
X23886440Y-111743301D01*
X23886434Y-111743308D01*
X23732735Y-111923266D01*
X23732726Y-111923277D01*
X23729567Y-111926977D01*
X23727022Y-111931128D01*
X23727019Y-111931134D01*
X23603364Y-112132921D01*
X23603360Y-112132927D01*
X23600816Y-112137080D01*
X23506517Y-112364738D01*
X23505382Y-112369462D01*
X23505379Y-112369474D01*
X23450129Y-112599611D01*
X23450127Y-112599617D01*
X23448993Y-112604345D01*
X23429659Y-112850000D01*
X20000500Y-112850000D01*
X20000500Y-109483674D01*
X23535000Y-109483674D01*
X23538450Y-109496549D01*
X23551326Y-109500000D01*
X24733674Y-109500000D01*
X24746549Y-109496549D01*
X24750000Y-109483674D01*
X25250000Y-109483674D01*
X25253450Y-109496549D01*
X25266326Y-109500000D01*
X26448674Y-109500000D01*
X26461549Y-109496549D01*
X26465000Y-109483674D01*
X33785000Y-109483674D01*
X33788450Y-109496549D01*
X33801326Y-109500000D01*
X34983674Y-109500000D01*
X34996549Y-109496549D01*
X35000000Y-109483674D01*
X35500000Y-109483674D01*
X35503450Y-109496549D01*
X35516326Y-109500000D01*
X36698674Y-109500000D01*
X36711549Y-109496549D01*
X36715000Y-109483674D01*
X36715000Y-108790482D01*
X36714646Y-108783885D01*
X36709426Y-108735332D01*
X36705888Y-108720358D01*
X36661452Y-108601222D01*
X36653037Y-108585810D01*
X36577501Y-108484907D01*
X36565092Y-108472498D01*
X36464189Y-108396962D01*
X36448777Y-108388547D01*
X36329641Y-108344111D01*
X36314667Y-108340573D01*
X36266114Y-108335353D01*
X36259518Y-108335000D01*
X35516326Y-108335000D01*
X35503450Y-108338450D01*
X35500000Y-108351326D01*
X35500000Y-109483674D01*
X35000000Y-109483674D01*
X35000000Y-108351326D01*
X34996549Y-108338450D01*
X34983674Y-108335000D01*
X34240482Y-108335000D01*
X34233885Y-108335353D01*
X34185332Y-108340573D01*
X34170358Y-108344111D01*
X34051222Y-108388547D01*
X34035810Y-108396962D01*
X33934907Y-108472498D01*
X33922498Y-108484907D01*
X33846962Y-108585810D01*
X33838547Y-108601222D01*
X33794111Y-108720358D01*
X33790573Y-108735332D01*
X33785353Y-108783885D01*
X33785000Y-108790482D01*
X33785000Y-109483674D01*
X26465000Y-109483674D01*
X26465000Y-108790482D01*
X26464646Y-108783885D01*
X26459426Y-108735332D01*
X26455888Y-108720358D01*
X26411452Y-108601222D01*
X26403037Y-108585810D01*
X26327501Y-108484907D01*
X26315092Y-108472498D01*
X26214189Y-108396962D01*
X26198777Y-108388547D01*
X26079641Y-108344111D01*
X26064667Y-108340573D01*
X26016114Y-108335353D01*
X26009518Y-108335000D01*
X25266326Y-108335000D01*
X25253450Y-108338450D01*
X25250000Y-108351326D01*
X25250000Y-109483674D01*
X24750000Y-109483674D01*
X24750000Y-108351326D01*
X24746549Y-108338450D01*
X24733674Y-108335000D01*
X23990482Y-108335000D01*
X23983885Y-108335353D01*
X23935332Y-108340573D01*
X23920358Y-108344111D01*
X23801222Y-108388547D01*
X23785810Y-108396962D01*
X23684907Y-108472498D01*
X23672498Y-108484907D01*
X23596962Y-108585810D01*
X23588547Y-108601222D01*
X23544111Y-108720358D01*
X23540573Y-108735332D01*
X23535353Y-108783885D01*
X23535000Y-108790482D01*
X23535000Y-109483674D01*
X20000500Y-109483674D01*
X20000500Y-106500000D01*
X23429659Y-106500000D01*
X23448993Y-106745655D01*
X23450128Y-106750384D01*
X23450129Y-106750388D01*
X23505379Y-106980525D01*
X23505381Y-106980533D01*
X23506517Y-106985262D01*
X23600816Y-107212920D01*
X23729567Y-107423023D01*
X23732731Y-107426728D01*
X23732735Y-107426733D01*
X23886434Y-107606691D01*
X23889601Y-107610399D01*
X23893308Y-107613565D01*
X24073266Y-107767264D01*
X24073269Y-107767266D01*
X24076977Y-107770433D01*
X24287080Y-107899184D01*
X24514738Y-107993483D01*
X24754345Y-108051007D01*
X25000000Y-108070341D01*
X25245655Y-108051007D01*
X25485262Y-107993483D01*
X25712920Y-107899184D01*
X25923023Y-107770433D01*
X26110399Y-107610399D01*
X26270433Y-107423023D01*
X26399184Y-107212920D01*
X26493483Y-106985262D01*
X26551007Y-106745655D01*
X26570341Y-106500000D01*
X33679659Y-106500000D01*
X33698993Y-106745655D01*
X33700128Y-106750384D01*
X33700129Y-106750388D01*
X33755379Y-106980525D01*
X33755381Y-106980533D01*
X33756517Y-106985262D01*
X33850816Y-107212920D01*
X33979567Y-107423023D01*
X33982731Y-107426728D01*
X33982735Y-107426733D01*
X34136434Y-107606691D01*
X34139601Y-107610399D01*
X34143308Y-107613565D01*
X34323266Y-107767264D01*
X34323269Y-107767266D01*
X34326977Y-107770433D01*
X34537080Y-107899184D01*
X34764738Y-107993483D01*
X35004345Y-108051007D01*
X35250000Y-108070341D01*
X35495655Y-108051007D01*
X35735262Y-107993483D01*
X35962920Y-107899184D01*
X36173023Y-107770433D01*
X36360399Y-107610399D01*
X36520433Y-107423023D01*
X36649184Y-107212920D01*
X36743483Y-106985262D01*
X36801007Y-106745655D01*
X36820341Y-106500000D01*
X36801007Y-106254345D01*
X36743483Y-106014738D01*
X36649184Y-105787080D01*
X36520433Y-105576977D01*
X36360399Y-105389601D01*
X36356691Y-105386434D01*
X36176733Y-105232735D01*
X36176728Y-105232731D01*
X36173023Y-105229567D01*
X35962920Y-105100816D01*
X35735262Y-105006517D01*
X35730533Y-105005381D01*
X35730525Y-105005379D01*
X35500388Y-104950129D01*
X35500384Y-104950128D01*
X35495655Y-104948993D01*
X35490802Y-104948611D01*
X35254854Y-104930041D01*
X35250000Y-104929659D01*
X35245146Y-104930041D01*
X35009197Y-104948611D01*
X35009195Y-104948611D01*
X35004345Y-104948993D01*
X34999617Y-104950127D01*
X34999611Y-104950129D01*
X34769474Y-105005379D01*
X34769462Y-105005382D01*
X34764738Y-105006517D01*
X34760241Y-105008379D01*
X34760237Y-105008381D01*
X34541584Y-105098950D01*
X34541579Y-105098952D01*
X34537080Y-105100816D01*
X34532927Y-105103360D01*
X34532921Y-105103364D01*
X34331134Y-105227019D01*
X34331128Y-105227022D01*
X34326977Y-105229567D01*
X34323277Y-105232726D01*
X34323266Y-105232735D01*
X34143308Y-105386434D01*
X34143301Y-105386440D01*
X34139601Y-105389601D01*
X34136440Y-105393301D01*
X34136434Y-105393308D01*
X33982735Y-105573266D01*
X33982726Y-105573277D01*
X33979567Y-105576977D01*
X33977022Y-105581128D01*
X33977019Y-105581134D01*
X33853364Y-105782921D01*
X33853360Y-105782927D01*
X33850816Y-105787080D01*
X33756517Y-106014738D01*
X33755382Y-106019462D01*
X33755379Y-106019474D01*
X33700129Y-106249611D01*
X33700127Y-106249617D01*
X33698993Y-106254345D01*
X33679659Y-106500000D01*
X26570341Y-106500000D01*
X26551007Y-106254345D01*
X26493483Y-106014738D01*
X26399184Y-105787080D01*
X26270433Y-105576977D01*
X26110399Y-105389601D01*
X26106691Y-105386434D01*
X25926733Y-105232735D01*
X25926728Y-105232731D01*
X25923023Y-105229567D01*
X25712920Y-105100816D01*
X25485262Y-105006517D01*
X25480533Y-105005381D01*
X25480525Y-105005379D01*
X25250388Y-104950129D01*
X25250384Y-104950128D01*
X25245655Y-104948993D01*
X25240802Y-104948611D01*
X25004854Y-104930041D01*
X25000000Y-104929659D01*
X24995146Y-104930041D01*
X24759197Y-104948611D01*
X24759195Y-104948611D01*
X24754345Y-104948993D01*
X24749617Y-104950127D01*
X24749611Y-104950129D01*
X24519474Y-105005379D01*
X24519462Y-105005382D01*
X24514738Y-105006517D01*
X24510241Y-105008379D01*
X24510237Y-105008381D01*
X24291584Y-105098950D01*
X24291579Y-105098952D01*
X24287080Y-105100816D01*
X24282927Y-105103360D01*
X24282921Y-105103364D01*
X24081134Y-105227019D01*
X24081128Y-105227022D01*
X24076977Y-105229567D01*
X24073277Y-105232726D01*
X24073266Y-105232735D01*
X23893308Y-105386434D01*
X23893301Y-105386440D01*
X23889601Y-105389601D01*
X23886440Y-105393301D01*
X23886434Y-105393308D01*
X23732735Y-105573266D01*
X23732726Y-105573277D01*
X23729567Y-105576977D01*
X23727022Y-105581128D01*
X23727019Y-105581134D01*
X23603364Y-105782921D01*
X23603360Y-105782927D01*
X23600816Y-105787080D01*
X23506517Y-106014738D01*
X23505382Y-106019462D01*
X23505379Y-106019474D01*
X23450129Y-106249611D01*
X23450127Y-106249617D01*
X23448993Y-106254345D01*
X23429659Y-106500000D01*
X20000500Y-106500000D01*
X20000500Y-101580000D01*
X23494859Y-101580000D01*
X23494939Y-101583292D01*
X23494939Y-101583308D01*
X23496575Y-101650226D01*
X23496656Y-101653526D01*
X23497086Y-101656799D01*
X23497087Y-101656800D01*
X23528186Y-101893027D01*
X23528187Y-101893033D01*
X23528851Y-101898074D01*
X23600555Y-102134079D01*
X23709842Y-102355205D01*
X23853777Y-102555512D01*
X23857382Y-102559105D01*
X23857386Y-102559109D01*
X24024890Y-102726029D01*
X24028495Y-102729621D01*
X24229303Y-102872856D01*
X24450809Y-102981370D01*
X24687064Y-103052250D01*
X24692104Y-103052895D01*
X24692106Y-103052896D01*
X24926679Y-103082946D01*
X24931722Y-103083592D01*
X25178215Y-103074553D01*
X25419921Y-103025377D01*
X25650350Y-102937385D01*
X25863313Y-102812939D01*
X26053092Y-102655382D01*
X26214589Y-102468945D01*
X26343468Y-102258634D01*
X26436266Y-102030099D01*
X26490493Y-101789475D01*
X26502572Y-101580000D01*
X33744859Y-101580000D01*
X33744939Y-101583292D01*
X33744939Y-101583308D01*
X33746575Y-101650226D01*
X33746656Y-101653526D01*
X33747086Y-101656799D01*
X33747087Y-101656800D01*
X33778186Y-101893027D01*
X33778187Y-101893033D01*
X33778851Y-101898074D01*
X33850555Y-102134079D01*
X33959842Y-102355205D01*
X34103777Y-102555512D01*
X34107382Y-102559105D01*
X34107386Y-102559109D01*
X34274890Y-102726029D01*
X34278495Y-102729621D01*
X34479303Y-102872856D01*
X34700809Y-102981370D01*
X34937064Y-103052250D01*
X34942104Y-103052895D01*
X34942106Y-103052896D01*
X35176679Y-103082946D01*
X35181722Y-103083592D01*
X35428215Y-103074553D01*
X35669921Y-103025377D01*
X35900350Y-102937385D01*
X36113313Y-102812939D01*
X36303092Y-102655382D01*
X36464589Y-102468945D01*
X36593468Y-102258634D01*
X36686266Y-102030099D01*
X36740493Y-101789475D01*
X36754692Y-101543226D01*
X36728481Y-101297965D01*
X36662564Y-101060278D01*
X36558712Y-100836548D01*
X36419714Y-100632784D01*
X36276548Y-100482968D01*
X36252820Y-100458138D01*
X36252817Y-100458136D01*
X36249303Y-100454458D01*
X36245235Y-100451403D01*
X36245232Y-100451401D01*
X36056123Y-100309415D01*
X36056122Y-100309414D01*
X36052054Y-100306360D01*
X35866161Y-100209590D01*
X35837779Y-100194815D01*
X35837775Y-100194813D01*
X35833266Y-100192466D01*
X35828433Y-100190886D01*
X35828430Y-100190885D01*
X35603651Y-100117416D01*
X35603647Y-100117415D01*
X35598813Y-100115835D01*
X35593784Y-100115065D01*
X35593778Y-100115064D01*
X35360028Y-100079295D01*
X35360022Y-100079294D01*
X35354993Y-100078525D01*
X35349904Y-100078587D01*
X35349902Y-100078587D01*
X35113438Y-100081476D01*
X35113427Y-100081477D01*
X35108354Y-100081539D01*
X35103349Y-100082430D01*
X35103343Y-100082431D01*
X34870531Y-100123900D01*
X34870518Y-100123903D01*
X34865518Y-100124794D01*
X34860718Y-100126493D01*
X34860717Y-100126494D01*
X34637809Y-100205430D01*
X34637799Y-100205434D01*
X34633008Y-100207131D01*
X34628555Y-100209588D01*
X34628553Y-100209590D01*
X34421517Y-100323879D01*
X34421507Y-100323885D01*
X34417068Y-100326336D01*
X34413084Y-100329482D01*
X34413077Y-100329487D01*
X34227484Y-100476060D01*
X34227480Y-100476063D01*
X34223496Y-100479210D01*
X34220084Y-100482958D01*
X34220075Y-100482968D01*
X34060914Y-100657883D01*
X34060907Y-100657891D01*
X34057492Y-100661645D01*
X34054735Y-100665905D01*
X34054730Y-100665913D01*
X33926274Y-100864476D01*
X33926268Y-100864485D01*
X33923514Y-100868744D01*
X33921490Y-100873397D01*
X33921485Y-100873408D01*
X33838100Y-101065183D01*
X33825159Y-101094945D01*
X33823919Y-101099879D01*
X33823919Y-101099881D01*
X33766310Y-101329231D01*
X33766308Y-101329240D01*
X33765070Y-101334171D01*
X33764653Y-101339234D01*
X33764652Y-101339245D01*
X33745130Y-101576701D01*
X33744859Y-101580000D01*
X26502572Y-101580000D01*
X26504692Y-101543226D01*
X26478481Y-101297965D01*
X26412564Y-101060278D01*
X26308712Y-100836548D01*
X26169714Y-100632784D01*
X26026548Y-100482968D01*
X26002820Y-100458138D01*
X26002817Y-100458136D01*
X25999303Y-100454458D01*
X25995235Y-100451403D01*
X25995232Y-100451401D01*
X25806123Y-100309415D01*
X25806122Y-100309414D01*
X25802054Y-100306360D01*
X25616161Y-100209590D01*
X25587779Y-100194815D01*
X25587775Y-100194813D01*
X25583266Y-100192466D01*
X25578433Y-100190886D01*
X25578430Y-100190885D01*
X25353651Y-100117416D01*
X25353647Y-100117415D01*
X25348813Y-100115835D01*
X25343784Y-100115065D01*
X25343778Y-100115064D01*
X25110028Y-100079295D01*
X25110022Y-100079294D01*
X25104993Y-100078525D01*
X25099904Y-100078587D01*
X25099902Y-100078587D01*
X24863438Y-100081476D01*
X24863427Y-100081477D01*
X24858354Y-100081539D01*
X24853349Y-100082430D01*
X24853343Y-100082431D01*
X24620531Y-100123900D01*
X24620518Y-100123903D01*
X24615518Y-100124794D01*
X24610718Y-100126493D01*
X24610717Y-100126494D01*
X24387809Y-100205430D01*
X24387799Y-100205434D01*
X24383008Y-100207131D01*
X24378555Y-100209588D01*
X24378553Y-100209590D01*
X24171517Y-100323879D01*
X24171507Y-100323885D01*
X24167068Y-100326336D01*
X24163084Y-100329482D01*
X24163077Y-100329487D01*
X23977484Y-100476060D01*
X23977480Y-100476063D01*
X23973496Y-100479210D01*
X23970084Y-100482958D01*
X23970075Y-100482968D01*
X23810914Y-100657883D01*
X23810907Y-100657891D01*
X23807492Y-100661645D01*
X23804735Y-100665905D01*
X23804730Y-100665913D01*
X23676274Y-100864476D01*
X23676268Y-100864485D01*
X23673514Y-100868744D01*
X23671490Y-100873397D01*
X23671485Y-100873408D01*
X23588100Y-101065183D01*
X23575159Y-101094945D01*
X23573919Y-101099879D01*
X23573919Y-101099881D01*
X23516310Y-101329231D01*
X23516308Y-101329240D01*
X23515070Y-101334171D01*
X23514653Y-101339234D01*
X23514652Y-101339245D01*
X23495130Y-101576701D01*
X23494859Y-101580000D01*
X20000500Y-101580000D01*
X20000500Y-98200000D01*
X23429659Y-98200000D01*
X23448993Y-98445655D01*
X23450128Y-98450384D01*
X23450129Y-98450388D01*
X23505379Y-98680525D01*
X23505381Y-98680533D01*
X23506517Y-98685262D01*
X23600816Y-98912920D01*
X23729567Y-99123023D01*
X23732731Y-99126728D01*
X23732735Y-99126733D01*
X23886434Y-99306691D01*
X23889601Y-99310399D01*
X23893308Y-99313565D01*
X24073266Y-99467264D01*
X24073269Y-99467266D01*
X24076977Y-99470433D01*
X24287080Y-99599184D01*
X24514738Y-99693483D01*
X24754345Y-99751007D01*
X25000000Y-99770341D01*
X25245655Y-99751007D01*
X25485262Y-99693483D01*
X25712920Y-99599184D01*
X25923023Y-99470433D01*
X26110399Y-99310399D01*
X26270433Y-99123023D01*
X26399184Y-98912920D01*
X26493483Y-98685262D01*
X26551007Y-98445655D01*
X26570341Y-98200000D01*
X33679659Y-98200000D01*
X33698993Y-98445655D01*
X33700128Y-98450384D01*
X33700129Y-98450388D01*
X33755379Y-98680525D01*
X33755381Y-98680533D01*
X33756517Y-98685262D01*
X33850816Y-98912920D01*
X33979567Y-99123023D01*
X33982731Y-99126728D01*
X33982735Y-99126733D01*
X34136434Y-99306691D01*
X34139601Y-99310399D01*
X34143308Y-99313565D01*
X34323266Y-99467264D01*
X34323269Y-99467266D01*
X34326977Y-99470433D01*
X34537080Y-99599184D01*
X34764738Y-99693483D01*
X35004345Y-99751007D01*
X35250000Y-99770341D01*
X35495655Y-99751007D01*
X35735262Y-99693483D01*
X35962920Y-99599184D01*
X36173023Y-99470433D01*
X36360399Y-99310399D01*
X36520433Y-99123023D01*
X36649184Y-98912920D01*
X36743483Y-98685262D01*
X36801007Y-98445655D01*
X36820341Y-98200000D01*
X36801007Y-97954345D01*
X36743483Y-97714738D01*
X36649184Y-97487080D01*
X36520433Y-97276977D01*
X36360399Y-97089601D01*
X36356691Y-97086434D01*
X36176733Y-96932735D01*
X36176728Y-96932731D01*
X36173023Y-96929567D01*
X35962920Y-96800816D01*
X35848835Y-96753560D01*
X35795971Y-96711885D01*
X35772671Y-96648729D01*
X35785804Y-96582705D01*
X35831499Y-96533273D01*
X35896289Y-96515000D01*
X36259518Y-96515000D01*
X36266114Y-96514646D01*
X36314667Y-96509426D01*
X36329641Y-96505888D01*
X36448777Y-96461452D01*
X36464189Y-96453037D01*
X36565092Y-96377501D01*
X36577501Y-96365092D01*
X36653037Y-96264189D01*
X36661452Y-96248777D01*
X36705888Y-96129641D01*
X36709426Y-96114667D01*
X36714646Y-96066114D01*
X36715000Y-96059518D01*
X36715000Y-95366326D01*
X36711549Y-95353450D01*
X36698674Y-95350000D01*
X33801326Y-95350000D01*
X33788450Y-95353450D01*
X33785000Y-95366326D01*
X33785000Y-96059518D01*
X33785353Y-96066114D01*
X33790573Y-96114667D01*
X33794111Y-96129641D01*
X33838547Y-96248777D01*
X33846962Y-96264189D01*
X33922498Y-96365092D01*
X33934907Y-96377501D01*
X34035810Y-96453037D01*
X34051222Y-96461452D01*
X34170358Y-96505888D01*
X34185332Y-96509426D01*
X34233885Y-96514646D01*
X34240482Y-96515000D01*
X34603711Y-96515000D01*
X34668501Y-96533273D01*
X34714196Y-96582705D01*
X34727329Y-96648729D01*
X34704029Y-96711885D01*
X34651164Y-96753561D01*
X34541584Y-96798950D01*
X34541579Y-96798952D01*
X34537080Y-96800816D01*
X34532927Y-96803360D01*
X34532921Y-96803364D01*
X34331134Y-96927019D01*
X34331128Y-96927022D01*
X34326977Y-96929567D01*
X34323277Y-96932726D01*
X34323266Y-96932735D01*
X34143308Y-97086434D01*
X34143301Y-97086440D01*
X34139601Y-97089601D01*
X34136440Y-97093301D01*
X34136434Y-97093308D01*
X33982735Y-97273266D01*
X33982726Y-97273277D01*
X33979567Y-97276977D01*
X33977022Y-97281128D01*
X33977019Y-97281134D01*
X33853364Y-97482921D01*
X33853360Y-97482927D01*
X33850816Y-97487080D01*
X33756517Y-97714738D01*
X33755382Y-97719462D01*
X33755379Y-97719474D01*
X33700129Y-97949611D01*
X33700127Y-97949617D01*
X33698993Y-97954345D01*
X33679659Y-98200000D01*
X26570341Y-98200000D01*
X26551007Y-97954345D01*
X26493483Y-97714738D01*
X26399184Y-97487080D01*
X26270433Y-97276977D01*
X26110399Y-97089601D01*
X26106691Y-97086434D01*
X25926733Y-96932735D01*
X25926728Y-96932731D01*
X25923023Y-96929567D01*
X25712920Y-96800816D01*
X25598835Y-96753560D01*
X25545971Y-96711885D01*
X25522671Y-96648729D01*
X25535804Y-96582705D01*
X25581499Y-96533273D01*
X25646289Y-96515000D01*
X26009518Y-96515000D01*
X26016114Y-96514646D01*
X26064667Y-96509426D01*
X26079641Y-96505888D01*
X26198777Y-96461452D01*
X26214189Y-96453037D01*
X26315092Y-96377501D01*
X26327501Y-96365092D01*
X26403037Y-96264189D01*
X26411452Y-96248777D01*
X26455888Y-96129641D01*
X26459426Y-96114667D01*
X26464646Y-96066114D01*
X26465000Y-96059518D01*
X26465000Y-95366326D01*
X26461549Y-95353450D01*
X26448674Y-95350000D01*
X23551326Y-95350000D01*
X23538450Y-95353450D01*
X23535000Y-95366326D01*
X23535000Y-96059518D01*
X23535353Y-96066114D01*
X23540573Y-96114667D01*
X23544111Y-96129641D01*
X23588547Y-96248777D01*
X23596962Y-96264189D01*
X23672498Y-96365092D01*
X23684907Y-96377501D01*
X23785810Y-96453037D01*
X23801222Y-96461452D01*
X23920358Y-96505888D01*
X23935332Y-96509426D01*
X23983885Y-96514646D01*
X23990482Y-96515000D01*
X24353711Y-96515000D01*
X24418501Y-96533273D01*
X24464196Y-96582705D01*
X24477329Y-96648729D01*
X24454029Y-96711885D01*
X24401164Y-96753561D01*
X24291584Y-96798950D01*
X24291579Y-96798952D01*
X24287080Y-96800816D01*
X24282927Y-96803360D01*
X24282921Y-96803364D01*
X24081134Y-96927019D01*
X24081128Y-96927022D01*
X24076977Y-96929567D01*
X24073277Y-96932726D01*
X24073266Y-96932735D01*
X23893308Y-97086434D01*
X23893301Y-97086440D01*
X23889601Y-97089601D01*
X23886440Y-97093301D01*
X23886434Y-97093308D01*
X23732735Y-97273266D01*
X23732726Y-97273277D01*
X23729567Y-97276977D01*
X23727022Y-97281128D01*
X23727019Y-97281134D01*
X23603364Y-97482921D01*
X23603360Y-97482927D01*
X23600816Y-97487080D01*
X23506517Y-97714738D01*
X23505382Y-97719462D01*
X23505379Y-97719474D01*
X23450129Y-97949611D01*
X23450127Y-97949617D01*
X23448993Y-97954345D01*
X23429659Y-98200000D01*
X20000500Y-98200000D01*
X20000500Y-94833674D01*
X23535000Y-94833674D01*
X23538450Y-94846549D01*
X23551326Y-94850000D01*
X24733674Y-94850000D01*
X24746549Y-94846549D01*
X24750000Y-94833674D01*
X25250000Y-94833674D01*
X25253450Y-94846549D01*
X25266326Y-94850000D01*
X26448674Y-94850000D01*
X26461549Y-94846549D01*
X26465000Y-94833674D01*
X33785000Y-94833674D01*
X33788450Y-94846549D01*
X33801326Y-94850000D01*
X34983674Y-94850000D01*
X34996549Y-94846549D01*
X35000000Y-94833674D01*
X35500000Y-94833674D01*
X35503450Y-94846549D01*
X35516326Y-94850000D01*
X36698674Y-94850000D01*
X36711549Y-94846549D01*
X36715000Y-94833674D01*
X36715000Y-94140482D01*
X36714646Y-94133885D01*
X36709426Y-94085332D01*
X36705888Y-94070358D01*
X36661452Y-93951222D01*
X36653037Y-93935810D01*
X36577501Y-93834907D01*
X36565092Y-93822498D01*
X36464189Y-93746962D01*
X36448777Y-93738547D01*
X36329641Y-93694111D01*
X36314667Y-93690573D01*
X36266114Y-93685353D01*
X36259518Y-93685000D01*
X35516326Y-93685000D01*
X35503450Y-93688450D01*
X35500000Y-93701326D01*
X35500000Y-94833674D01*
X35000000Y-94833674D01*
X35000000Y-93701326D01*
X34996549Y-93688450D01*
X34983674Y-93685000D01*
X34240482Y-93685000D01*
X34233885Y-93685353D01*
X34185332Y-93690573D01*
X34170358Y-93694111D01*
X34051222Y-93738547D01*
X34035810Y-93746962D01*
X33934907Y-93822498D01*
X33922498Y-93834907D01*
X33846962Y-93935810D01*
X33838547Y-93951222D01*
X33794111Y-94070358D01*
X33790573Y-94085332D01*
X33785353Y-94133885D01*
X33785000Y-94140482D01*
X33785000Y-94833674D01*
X26465000Y-94833674D01*
X26465000Y-94140482D01*
X26464646Y-94133885D01*
X26459426Y-94085332D01*
X26455888Y-94070358D01*
X26411452Y-93951222D01*
X26403037Y-93935810D01*
X26327501Y-93834907D01*
X26315092Y-93822498D01*
X26214189Y-93746962D01*
X26198777Y-93738547D01*
X26079641Y-93694111D01*
X26064667Y-93690573D01*
X26016114Y-93685353D01*
X26009518Y-93685000D01*
X25266326Y-93685000D01*
X25253450Y-93688450D01*
X25250000Y-93701326D01*
X25250000Y-94833674D01*
X24750000Y-94833674D01*
X24750000Y-93701326D01*
X24746549Y-93688450D01*
X24733674Y-93685000D01*
X23990482Y-93685000D01*
X23983885Y-93685353D01*
X23935332Y-93690573D01*
X23920358Y-93694111D01*
X23801222Y-93738547D01*
X23785810Y-93746962D01*
X23684907Y-93822498D01*
X23672498Y-93834907D01*
X23596962Y-93935810D01*
X23588547Y-93951222D01*
X23544111Y-94070358D01*
X23540573Y-94085332D01*
X23535353Y-94133885D01*
X23535000Y-94140482D01*
X23535000Y-94833674D01*
X20000500Y-94833674D01*
X20000500Y-88550000D01*
X23429659Y-88550000D01*
X23448993Y-88795655D01*
X23450128Y-88800384D01*
X23450129Y-88800388D01*
X23505379Y-89030525D01*
X23505381Y-89030533D01*
X23506517Y-89035262D01*
X23600816Y-89262920D01*
X23729567Y-89473023D01*
X23732731Y-89476728D01*
X23732735Y-89476733D01*
X23886434Y-89656691D01*
X23889601Y-89660399D01*
X23893308Y-89663565D01*
X24073266Y-89817264D01*
X24073269Y-89817266D01*
X24076977Y-89820433D01*
X24287080Y-89949184D01*
X24514738Y-90043483D01*
X24754345Y-90101007D01*
X25000000Y-90120341D01*
X25245655Y-90101007D01*
X25485262Y-90043483D01*
X25712920Y-89949184D01*
X25923023Y-89820433D01*
X26110399Y-89660399D01*
X26270433Y-89473023D01*
X26399184Y-89262920D01*
X26493483Y-89035262D01*
X26551007Y-88795655D01*
X26570341Y-88550000D01*
X33679659Y-88550000D01*
X33698993Y-88795655D01*
X33700128Y-88800384D01*
X33700129Y-88800388D01*
X33755379Y-89030525D01*
X33755381Y-89030533D01*
X33756517Y-89035262D01*
X33850816Y-89262920D01*
X33979567Y-89473023D01*
X33982731Y-89476728D01*
X33982735Y-89476733D01*
X34136434Y-89656691D01*
X34139601Y-89660399D01*
X34143308Y-89663565D01*
X34323266Y-89817264D01*
X34323269Y-89817266D01*
X34326977Y-89820433D01*
X34537080Y-89949184D01*
X34764738Y-90043483D01*
X35004345Y-90101007D01*
X35250000Y-90120341D01*
X35495655Y-90101007D01*
X35735262Y-90043483D01*
X35962920Y-89949184D01*
X36173023Y-89820433D01*
X36360399Y-89660399D01*
X36520433Y-89473023D01*
X36649184Y-89262920D01*
X36743483Y-89035262D01*
X36801007Y-88795655D01*
X36820341Y-88550000D01*
X36801007Y-88304345D01*
X36743483Y-88064738D01*
X36649184Y-87837080D01*
X36520433Y-87626977D01*
X36360399Y-87439601D01*
X36356691Y-87436434D01*
X36176733Y-87282735D01*
X36176728Y-87282731D01*
X36173023Y-87279567D01*
X35962920Y-87150816D01*
X35735262Y-87056517D01*
X35730533Y-87055381D01*
X35730525Y-87055379D01*
X35500388Y-87000129D01*
X35500384Y-87000128D01*
X35495655Y-86998993D01*
X35490802Y-86998611D01*
X35254854Y-86980041D01*
X35250000Y-86979659D01*
X35245146Y-86980041D01*
X35009197Y-86998611D01*
X35009195Y-86998611D01*
X35004345Y-86998993D01*
X34999617Y-87000127D01*
X34999611Y-87000129D01*
X34769474Y-87055379D01*
X34769462Y-87055382D01*
X34764738Y-87056517D01*
X34760241Y-87058379D01*
X34760237Y-87058381D01*
X34541584Y-87148950D01*
X34541579Y-87148952D01*
X34537080Y-87150816D01*
X34532927Y-87153360D01*
X34532921Y-87153364D01*
X34331134Y-87277019D01*
X34331128Y-87277022D01*
X34326977Y-87279567D01*
X34323277Y-87282726D01*
X34323266Y-87282735D01*
X34143308Y-87436434D01*
X34143301Y-87436440D01*
X34139601Y-87439601D01*
X34136440Y-87443301D01*
X34136434Y-87443308D01*
X33982735Y-87623266D01*
X33982726Y-87623277D01*
X33979567Y-87626977D01*
X33977022Y-87631128D01*
X33977019Y-87631134D01*
X33853364Y-87832921D01*
X33853360Y-87832927D01*
X33850816Y-87837080D01*
X33756517Y-88064738D01*
X33755382Y-88069462D01*
X33755379Y-88069474D01*
X33700129Y-88299611D01*
X33700127Y-88299617D01*
X33698993Y-88304345D01*
X33679659Y-88550000D01*
X26570341Y-88550000D01*
X26551007Y-88304345D01*
X26493483Y-88064738D01*
X26399184Y-87837080D01*
X26270433Y-87626977D01*
X26110399Y-87439601D01*
X26106691Y-87436434D01*
X25926733Y-87282735D01*
X25926728Y-87282731D01*
X25923023Y-87279567D01*
X25712920Y-87150816D01*
X25485262Y-87056517D01*
X25480533Y-87055381D01*
X25480525Y-87055379D01*
X25250388Y-87000129D01*
X25250384Y-87000128D01*
X25245655Y-86998993D01*
X25240802Y-86998611D01*
X25004854Y-86980041D01*
X25000000Y-86979659D01*
X24995146Y-86980041D01*
X24759197Y-86998611D01*
X24759195Y-86998611D01*
X24754345Y-86998993D01*
X24749617Y-87000127D01*
X24749611Y-87000129D01*
X24519474Y-87055379D01*
X24519462Y-87055382D01*
X24514738Y-87056517D01*
X24510241Y-87058379D01*
X24510237Y-87058381D01*
X24291584Y-87148950D01*
X24291579Y-87148952D01*
X24287080Y-87150816D01*
X24282927Y-87153360D01*
X24282921Y-87153364D01*
X24081134Y-87277019D01*
X24081128Y-87277022D01*
X24076977Y-87279567D01*
X24073277Y-87282726D01*
X24073266Y-87282735D01*
X23893308Y-87436434D01*
X23893301Y-87436440D01*
X23889601Y-87439601D01*
X23886440Y-87443301D01*
X23886434Y-87443308D01*
X23732735Y-87623266D01*
X23732726Y-87623277D01*
X23729567Y-87626977D01*
X23727022Y-87631128D01*
X23727019Y-87631134D01*
X23603364Y-87832921D01*
X23603360Y-87832927D01*
X23600816Y-87837080D01*
X23506517Y-88064738D01*
X23505382Y-88069462D01*
X23505379Y-88069474D01*
X23450129Y-88299611D01*
X23450127Y-88299617D01*
X23448993Y-88304345D01*
X23429659Y-88550000D01*
X20000500Y-88550000D01*
X20000500Y-83630000D01*
X23494859Y-83630000D01*
X23494939Y-83633292D01*
X23494939Y-83633308D01*
X23496575Y-83700226D01*
X23496656Y-83703526D01*
X23497086Y-83706799D01*
X23497087Y-83706800D01*
X23528186Y-83943027D01*
X23528187Y-83943033D01*
X23528851Y-83948074D01*
X23600555Y-84184079D01*
X23709842Y-84405205D01*
X23853777Y-84605512D01*
X23857382Y-84609105D01*
X23857386Y-84609109D01*
X24024890Y-84776029D01*
X24028495Y-84779621D01*
X24229303Y-84922856D01*
X24450809Y-85031370D01*
X24687064Y-85102250D01*
X24692104Y-85102895D01*
X24692106Y-85102896D01*
X24926679Y-85132946D01*
X24931722Y-85133592D01*
X25178215Y-85124553D01*
X25419921Y-85075377D01*
X25650350Y-84987385D01*
X25863313Y-84862939D01*
X26053092Y-84705382D01*
X26214589Y-84518945D01*
X26343468Y-84308634D01*
X26436266Y-84080099D01*
X26490493Y-83839475D01*
X26502572Y-83630000D01*
X33744859Y-83630000D01*
X33744939Y-83633292D01*
X33744939Y-83633308D01*
X33746575Y-83700226D01*
X33746656Y-83703526D01*
X33747086Y-83706799D01*
X33747087Y-83706800D01*
X33778186Y-83943027D01*
X33778187Y-83943033D01*
X33778851Y-83948074D01*
X33850555Y-84184079D01*
X33959842Y-84405205D01*
X34103777Y-84605512D01*
X34107382Y-84609105D01*
X34107386Y-84609109D01*
X34274890Y-84776029D01*
X34278495Y-84779621D01*
X34479303Y-84922856D01*
X34700809Y-85031370D01*
X34937064Y-85102250D01*
X34942104Y-85102895D01*
X34942106Y-85102896D01*
X35176679Y-85132946D01*
X35181722Y-85133592D01*
X35428215Y-85124553D01*
X35669921Y-85075377D01*
X35900350Y-84987385D01*
X36113313Y-84862939D01*
X36303092Y-84705382D01*
X36464589Y-84518945D01*
X36593468Y-84308634D01*
X36686266Y-84080099D01*
X36740493Y-83839475D01*
X36754692Y-83593226D01*
X36728481Y-83347965D01*
X36662564Y-83110278D01*
X36558712Y-82886548D01*
X36419714Y-82682784D01*
X36276548Y-82532968D01*
X36252820Y-82508138D01*
X36252817Y-82508136D01*
X36249303Y-82504458D01*
X36245235Y-82501403D01*
X36245232Y-82501401D01*
X36056123Y-82359415D01*
X36056122Y-82359414D01*
X36052054Y-82356360D01*
X35866161Y-82259590D01*
X35837779Y-82244815D01*
X35837775Y-82244813D01*
X35833266Y-82242466D01*
X35828433Y-82240886D01*
X35828430Y-82240885D01*
X35603651Y-82167416D01*
X35603647Y-82167415D01*
X35598813Y-82165835D01*
X35593784Y-82165065D01*
X35593778Y-82165064D01*
X35360028Y-82129295D01*
X35360022Y-82129294D01*
X35354993Y-82128525D01*
X35349904Y-82128587D01*
X35349902Y-82128587D01*
X35113438Y-82131476D01*
X35113427Y-82131477D01*
X35108354Y-82131539D01*
X35103349Y-82132430D01*
X35103343Y-82132431D01*
X34870531Y-82173900D01*
X34870518Y-82173903D01*
X34865518Y-82174794D01*
X34860718Y-82176493D01*
X34860717Y-82176494D01*
X34637809Y-82255430D01*
X34637799Y-82255434D01*
X34633008Y-82257131D01*
X34628555Y-82259588D01*
X34628553Y-82259590D01*
X34421517Y-82373879D01*
X34421507Y-82373885D01*
X34417068Y-82376336D01*
X34413084Y-82379482D01*
X34413077Y-82379487D01*
X34227484Y-82526060D01*
X34227480Y-82526063D01*
X34223496Y-82529210D01*
X34220084Y-82532958D01*
X34220075Y-82532968D01*
X34060914Y-82707883D01*
X34060907Y-82707891D01*
X34057492Y-82711645D01*
X34054735Y-82715905D01*
X34054730Y-82715913D01*
X33926274Y-82914476D01*
X33926268Y-82914485D01*
X33923514Y-82918744D01*
X33921490Y-82923397D01*
X33921485Y-82923408D01*
X33838100Y-83115183D01*
X33825159Y-83144945D01*
X33823919Y-83149879D01*
X33823919Y-83149881D01*
X33766310Y-83379231D01*
X33766308Y-83379240D01*
X33765070Y-83384171D01*
X33764653Y-83389234D01*
X33764652Y-83389245D01*
X33745130Y-83626701D01*
X33744859Y-83630000D01*
X26502572Y-83630000D01*
X26504692Y-83593226D01*
X26478481Y-83347965D01*
X26412564Y-83110278D01*
X26308712Y-82886548D01*
X26169714Y-82682784D01*
X26026548Y-82532968D01*
X26002820Y-82508138D01*
X26002817Y-82508136D01*
X25999303Y-82504458D01*
X25995235Y-82501403D01*
X25995232Y-82501401D01*
X25806123Y-82359415D01*
X25806122Y-82359414D01*
X25802054Y-82356360D01*
X25616161Y-82259590D01*
X25587779Y-82244815D01*
X25587775Y-82244813D01*
X25583266Y-82242466D01*
X25578433Y-82240886D01*
X25578430Y-82240885D01*
X25353651Y-82167416D01*
X25353647Y-82167415D01*
X25348813Y-82165835D01*
X25343784Y-82165065D01*
X25343778Y-82165064D01*
X25110028Y-82129295D01*
X25110022Y-82129294D01*
X25104993Y-82128525D01*
X25099904Y-82128587D01*
X25099902Y-82128587D01*
X24863438Y-82131476D01*
X24863427Y-82131477D01*
X24858354Y-82131539D01*
X24853349Y-82132430D01*
X24853343Y-82132431D01*
X24620531Y-82173900D01*
X24620518Y-82173903D01*
X24615518Y-82174794D01*
X24610718Y-82176493D01*
X24610717Y-82176494D01*
X24387809Y-82255430D01*
X24387799Y-82255434D01*
X24383008Y-82257131D01*
X24378555Y-82259588D01*
X24378553Y-82259590D01*
X24171517Y-82373879D01*
X24171507Y-82373885D01*
X24167068Y-82376336D01*
X24163084Y-82379482D01*
X24163077Y-82379487D01*
X23977484Y-82526060D01*
X23977480Y-82526063D01*
X23973496Y-82529210D01*
X23970084Y-82532958D01*
X23970075Y-82532968D01*
X23810914Y-82707883D01*
X23810907Y-82707891D01*
X23807492Y-82711645D01*
X23804735Y-82715905D01*
X23804730Y-82715913D01*
X23676274Y-82914476D01*
X23676268Y-82914485D01*
X23673514Y-82918744D01*
X23671490Y-82923397D01*
X23671485Y-82923408D01*
X23588100Y-83115183D01*
X23575159Y-83144945D01*
X23573919Y-83149879D01*
X23573919Y-83149881D01*
X23516310Y-83379231D01*
X23516308Y-83379240D01*
X23515070Y-83384171D01*
X23514653Y-83389234D01*
X23514652Y-83389245D01*
X23495130Y-83626701D01*
X23494859Y-83630000D01*
X20000500Y-83630000D01*
X20000500Y-80250000D01*
X23429659Y-80250000D01*
X23448993Y-80495655D01*
X23450128Y-80500384D01*
X23450129Y-80500388D01*
X23505379Y-80730525D01*
X23505381Y-80730533D01*
X23506517Y-80735262D01*
X23600816Y-80962920D01*
X23729567Y-81173023D01*
X23732731Y-81176728D01*
X23732735Y-81176733D01*
X23886434Y-81356691D01*
X23889601Y-81360399D01*
X23893308Y-81363565D01*
X24073266Y-81517264D01*
X24073269Y-81517266D01*
X24076977Y-81520433D01*
X24287080Y-81649184D01*
X24514738Y-81743483D01*
X24754345Y-81801007D01*
X25000000Y-81820341D01*
X25245655Y-81801007D01*
X25485262Y-81743483D01*
X25712920Y-81649184D01*
X25923023Y-81520433D01*
X26110399Y-81360399D01*
X26270433Y-81173023D01*
X26399184Y-80962920D01*
X26493483Y-80735262D01*
X26551007Y-80495655D01*
X26570341Y-80250000D01*
X33679659Y-80250000D01*
X33698993Y-80495655D01*
X33700128Y-80500384D01*
X33700129Y-80500388D01*
X33755379Y-80730525D01*
X33755381Y-80730533D01*
X33756517Y-80735262D01*
X33850816Y-80962920D01*
X33979567Y-81173023D01*
X33982731Y-81176728D01*
X33982735Y-81176733D01*
X34136434Y-81356691D01*
X34139601Y-81360399D01*
X34143308Y-81363565D01*
X34323266Y-81517264D01*
X34323269Y-81517266D01*
X34326977Y-81520433D01*
X34537080Y-81649184D01*
X34764738Y-81743483D01*
X35004345Y-81801007D01*
X35250000Y-81820341D01*
X35495655Y-81801007D01*
X35735262Y-81743483D01*
X35962920Y-81649184D01*
X36173023Y-81520433D01*
X36360399Y-81360399D01*
X36520433Y-81173023D01*
X36649184Y-80962920D01*
X36743483Y-80735262D01*
X36801007Y-80495655D01*
X36820341Y-80250000D01*
X36801007Y-80004345D01*
X36743483Y-79764738D01*
X36649184Y-79537080D01*
X36520433Y-79326977D01*
X36360399Y-79139601D01*
X36356691Y-79136434D01*
X36176733Y-78982735D01*
X36176728Y-78982731D01*
X36173023Y-78979567D01*
X35962920Y-78850816D01*
X35848835Y-78803560D01*
X35795971Y-78761885D01*
X35772671Y-78698729D01*
X35785804Y-78632705D01*
X35831499Y-78583273D01*
X35896289Y-78565000D01*
X36259518Y-78565000D01*
X36266114Y-78564646D01*
X36314667Y-78559426D01*
X36329641Y-78555888D01*
X36448777Y-78511452D01*
X36464189Y-78503037D01*
X36565092Y-78427501D01*
X36577501Y-78415092D01*
X36653037Y-78314189D01*
X36661452Y-78298777D01*
X36705888Y-78179641D01*
X36709426Y-78164667D01*
X36714646Y-78116114D01*
X36715000Y-78109518D01*
X36715000Y-77416326D01*
X36711549Y-77403450D01*
X36698674Y-77400000D01*
X33801326Y-77400000D01*
X33788450Y-77403450D01*
X33785000Y-77416326D01*
X33785000Y-78109518D01*
X33785353Y-78116114D01*
X33790573Y-78164667D01*
X33794111Y-78179641D01*
X33838547Y-78298777D01*
X33846962Y-78314189D01*
X33922498Y-78415092D01*
X33934907Y-78427501D01*
X34035810Y-78503037D01*
X34051222Y-78511452D01*
X34170358Y-78555888D01*
X34185332Y-78559426D01*
X34233885Y-78564646D01*
X34240482Y-78565000D01*
X34603711Y-78565000D01*
X34668501Y-78583273D01*
X34714196Y-78632705D01*
X34727329Y-78698729D01*
X34704029Y-78761885D01*
X34651164Y-78803561D01*
X34541584Y-78848950D01*
X34541579Y-78848952D01*
X34537080Y-78850816D01*
X34532927Y-78853360D01*
X34532921Y-78853364D01*
X34331134Y-78977019D01*
X34331128Y-78977022D01*
X34326977Y-78979567D01*
X34323277Y-78982726D01*
X34323266Y-78982735D01*
X34143308Y-79136434D01*
X34143301Y-79136440D01*
X34139601Y-79139601D01*
X34136440Y-79143301D01*
X34136434Y-79143308D01*
X33982735Y-79323266D01*
X33982726Y-79323277D01*
X33979567Y-79326977D01*
X33977022Y-79331128D01*
X33977019Y-79331134D01*
X33853364Y-79532921D01*
X33853360Y-79532927D01*
X33850816Y-79537080D01*
X33756517Y-79764738D01*
X33755382Y-79769462D01*
X33755379Y-79769474D01*
X33700129Y-79999611D01*
X33700127Y-79999617D01*
X33698993Y-80004345D01*
X33679659Y-80250000D01*
X26570341Y-80250000D01*
X26551007Y-80004345D01*
X26493483Y-79764738D01*
X26399184Y-79537080D01*
X26270433Y-79326977D01*
X26110399Y-79139601D01*
X26106691Y-79136434D01*
X25926733Y-78982735D01*
X25926728Y-78982731D01*
X25923023Y-78979567D01*
X25712920Y-78850816D01*
X25598835Y-78803560D01*
X25545971Y-78761885D01*
X25522671Y-78698729D01*
X25535804Y-78632705D01*
X25581499Y-78583273D01*
X25646289Y-78565000D01*
X26009518Y-78565000D01*
X26016114Y-78564646D01*
X26064667Y-78559426D01*
X26079641Y-78555888D01*
X26198777Y-78511452D01*
X26214189Y-78503037D01*
X26315092Y-78427501D01*
X26327501Y-78415092D01*
X26403037Y-78314189D01*
X26411452Y-78298777D01*
X26455888Y-78179641D01*
X26459426Y-78164667D01*
X26464646Y-78116114D01*
X26465000Y-78109518D01*
X26465000Y-77416326D01*
X26461549Y-77403450D01*
X26448674Y-77400000D01*
X23551326Y-77400000D01*
X23538450Y-77403450D01*
X23535000Y-77416326D01*
X23535000Y-78109518D01*
X23535353Y-78116114D01*
X23540573Y-78164667D01*
X23544111Y-78179641D01*
X23588547Y-78298777D01*
X23596962Y-78314189D01*
X23672498Y-78415092D01*
X23684907Y-78427501D01*
X23785810Y-78503037D01*
X23801222Y-78511452D01*
X23920358Y-78555888D01*
X23935332Y-78559426D01*
X23983885Y-78564646D01*
X23990482Y-78565000D01*
X24353711Y-78565000D01*
X24418501Y-78583273D01*
X24464196Y-78632705D01*
X24477329Y-78698729D01*
X24454029Y-78761885D01*
X24401164Y-78803561D01*
X24291584Y-78848950D01*
X24291579Y-78848952D01*
X24287080Y-78850816D01*
X24282927Y-78853360D01*
X24282921Y-78853364D01*
X24081134Y-78977019D01*
X24081128Y-78977022D01*
X24076977Y-78979567D01*
X24073277Y-78982726D01*
X24073266Y-78982735D01*
X23893308Y-79136434D01*
X23893301Y-79136440D01*
X23889601Y-79139601D01*
X23886440Y-79143301D01*
X23886434Y-79143308D01*
X23732735Y-79323266D01*
X23732726Y-79323277D01*
X23729567Y-79326977D01*
X23727022Y-79331128D01*
X23727019Y-79331134D01*
X23603364Y-79532921D01*
X23603360Y-79532927D01*
X23600816Y-79537080D01*
X23506517Y-79764738D01*
X23505382Y-79769462D01*
X23505379Y-79769474D01*
X23450129Y-79999611D01*
X23450127Y-79999617D01*
X23448993Y-80004345D01*
X23429659Y-80250000D01*
X20000500Y-80250000D01*
X20000500Y-76883674D01*
X23535000Y-76883674D01*
X23538450Y-76896549D01*
X23551326Y-76900000D01*
X24733674Y-76900000D01*
X24746549Y-76896549D01*
X24750000Y-76883674D01*
X25250000Y-76883674D01*
X25253450Y-76896549D01*
X25266326Y-76900000D01*
X26448674Y-76900000D01*
X26461549Y-76896549D01*
X26465000Y-76883674D01*
X33785000Y-76883674D01*
X33788450Y-76896549D01*
X33801326Y-76900000D01*
X34983674Y-76900000D01*
X34996549Y-76896549D01*
X35000000Y-76883674D01*
X35500000Y-76883674D01*
X35503450Y-76896549D01*
X35516326Y-76900000D01*
X36698674Y-76900000D01*
X36711549Y-76896549D01*
X36715000Y-76883674D01*
X36715000Y-76190482D01*
X36714646Y-76183885D01*
X36709426Y-76135332D01*
X36705888Y-76120358D01*
X36661452Y-76001222D01*
X36653037Y-75985810D01*
X36577501Y-75884907D01*
X36565092Y-75872498D01*
X36464189Y-75796962D01*
X36448777Y-75788547D01*
X36329641Y-75744111D01*
X36314667Y-75740573D01*
X36266114Y-75735353D01*
X36259518Y-75735000D01*
X35516326Y-75735000D01*
X35503450Y-75738450D01*
X35500000Y-75751326D01*
X35500000Y-76883674D01*
X35000000Y-76883674D01*
X35000000Y-75751326D01*
X34996549Y-75738450D01*
X34983674Y-75735000D01*
X34240482Y-75735000D01*
X34233885Y-75735353D01*
X34185332Y-75740573D01*
X34170358Y-75744111D01*
X34051222Y-75788547D01*
X34035810Y-75796962D01*
X33934907Y-75872498D01*
X33922498Y-75884907D01*
X33846962Y-75985810D01*
X33838547Y-76001222D01*
X33794111Y-76120358D01*
X33790573Y-76135332D01*
X33785353Y-76183885D01*
X33785000Y-76190482D01*
X33785000Y-76883674D01*
X26465000Y-76883674D01*
X26465000Y-76190482D01*
X26464646Y-76183885D01*
X26459426Y-76135332D01*
X26455888Y-76120358D01*
X26411452Y-76001222D01*
X26403037Y-75985810D01*
X26327501Y-75884907D01*
X26315092Y-75872498D01*
X26214189Y-75796962D01*
X26198777Y-75788547D01*
X26079641Y-75744111D01*
X26064667Y-75740573D01*
X26016114Y-75735353D01*
X26009518Y-75735000D01*
X25266326Y-75735000D01*
X25253450Y-75738450D01*
X25250000Y-75751326D01*
X25250000Y-76883674D01*
X24750000Y-76883674D01*
X24750000Y-75751326D01*
X24746549Y-75738450D01*
X24733674Y-75735000D01*
X23990482Y-75735000D01*
X23983885Y-75735353D01*
X23935332Y-75740573D01*
X23920358Y-75744111D01*
X23801222Y-75788547D01*
X23785810Y-75796962D01*
X23684907Y-75872498D01*
X23672498Y-75884907D01*
X23596962Y-75985810D01*
X23588547Y-76001222D01*
X23544111Y-76120358D01*
X23540573Y-76135332D01*
X23535353Y-76183885D01*
X23535000Y-76190482D01*
X23535000Y-76883674D01*
X20000500Y-76883674D01*
X20000500Y-73870000D01*
X23429659Y-73870000D01*
X23448993Y-74115655D01*
X23450128Y-74120384D01*
X23450129Y-74120388D01*
X23505379Y-74350525D01*
X23505381Y-74350533D01*
X23506517Y-74355262D01*
X23600816Y-74582920D01*
X23729567Y-74793023D01*
X23732731Y-74796728D01*
X23732735Y-74796733D01*
X23886434Y-74976691D01*
X23889601Y-74980399D01*
X23893308Y-74983565D01*
X24073266Y-75137264D01*
X24073269Y-75137266D01*
X24076977Y-75140433D01*
X24287080Y-75269184D01*
X24514738Y-75363483D01*
X24754345Y-75421007D01*
X25000000Y-75440341D01*
X25245655Y-75421007D01*
X25485262Y-75363483D01*
X25712920Y-75269184D01*
X25923023Y-75140433D01*
X26110399Y-74980399D01*
X26270433Y-74793023D01*
X26399184Y-74582920D01*
X26493483Y-74355262D01*
X26551007Y-74115655D01*
X26570341Y-73870000D01*
X33679659Y-73870000D01*
X33698993Y-74115655D01*
X33700128Y-74120384D01*
X33700129Y-74120388D01*
X33755379Y-74350525D01*
X33755381Y-74350533D01*
X33756517Y-74355262D01*
X33850816Y-74582920D01*
X33979567Y-74793023D01*
X33982731Y-74796728D01*
X33982735Y-74796733D01*
X34136434Y-74976691D01*
X34139601Y-74980399D01*
X34143308Y-74983565D01*
X34323266Y-75137264D01*
X34323269Y-75137266D01*
X34326977Y-75140433D01*
X34537080Y-75269184D01*
X34764738Y-75363483D01*
X35004345Y-75421007D01*
X35250000Y-75440341D01*
X35495655Y-75421007D01*
X35735262Y-75363483D01*
X35962920Y-75269184D01*
X36173023Y-75140433D01*
X36360399Y-74980399D01*
X36520433Y-74793023D01*
X36649184Y-74582920D01*
X36743483Y-74355262D01*
X36801007Y-74115655D01*
X36820341Y-73870000D01*
X36801007Y-73624345D01*
X36743483Y-73384738D01*
X36649184Y-73157080D01*
X36520433Y-72946977D01*
X36360399Y-72759601D01*
X36356691Y-72756434D01*
X36176733Y-72602735D01*
X36176728Y-72602731D01*
X36173023Y-72599567D01*
X35962920Y-72470816D01*
X35735262Y-72376517D01*
X35730533Y-72375381D01*
X35730525Y-72375379D01*
X35500388Y-72320129D01*
X35500384Y-72320128D01*
X35495655Y-72318993D01*
X35490802Y-72318611D01*
X35254854Y-72300041D01*
X35250000Y-72299659D01*
X35245146Y-72300041D01*
X35009197Y-72318611D01*
X35009195Y-72318611D01*
X35004345Y-72318993D01*
X34999617Y-72320127D01*
X34999611Y-72320129D01*
X34769474Y-72375379D01*
X34769462Y-72375382D01*
X34764738Y-72376517D01*
X34760241Y-72378379D01*
X34760237Y-72378381D01*
X34541584Y-72468950D01*
X34541579Y-72468952D01*
X34537080Y-72470816D01*
X34532927Y-72473360D01*
X34532921Y-72473364D01*
X34331134Y-72597019D01*
X34331128Y-72597022D01*
X34326977Y-72599567D01*
X34323277Y-72602726D01*
X34323266Y-72602735D01*
X34143308Y-72756434D01*
X34143301Y-72756440D01*
X34139601Y-72759601D01*
X34136440Y-72763301D01*
X34136434Y-72763308D01*
X33982735Y-72943266D01*
X33982726Y-72943277D01*
X33979567Y-72946977D01*
X33977022Y-72951128D01*
X33977019Y-72951134D01*
X33853364Y-73152921D01*
X33853360Y-73152927D01*
X33850816Y-73157080D01*
X33756517Y-73384738D01*
X33755382Y-73389462D01*
X33755379Y-73389474D01*
X33700129Y-73619611D01*
X33700127Y-73619617D01*
X33698993Y-73624345D01*
X33679659Y-73870000D01*
X26570341Y-73870000D01*
X26551007Y-73624345D01*
X26493483Y-73384738D01*
X26399184Y-73157080D01*
X26270433Y-72946977D01*
X26110399Y-72759601D01*
X26106691Y-72756434D01*
X25926733Y-72602735D01*
X25926728Y-72602731D01*
X25923023Y-72599567D01*
X25712920Y-72470816D01*
X25485262Y-72376517D01*
X25480533Y-72375381D01*
X25480525Y-72375379D01*
X25250388Y-72320129D01*
X25250384Y-72320128D01*
X25245655Y-72318993D01*
X25240802Y-72318611D01*
X25004854Y-72300041D01*
X25000000Y-72299659D01*
X24995146Y-72300041D01*
X24759197Y-72318611D01*
X24759195Y-72318611D01*
X24754345Y-72318993D01*
X24749617Y-72320127D01*
X24749611Y-72320129D01*
X24519474Y-72375379D01*
X24519462Y-72375382D01*
X24514738Y-72376517D01*
X24510241Y-72378379D01*
X24510237Y-72378381D01*
X24291584Y-72468950D01*
X24291579Y-72468952D01*
X24287080Y-72470816D01*
X24282927Y-72473360D01*
X24282921Y-72473364D01*
X24081134Y-72597019D01*
X24081128Y-72597022D01*
X24076977Y-72599567D01*
X24073277Y-72602726D01*
X24073266Y-72602735D01*
X23893308Y-72756434D01*
X23893301Y-72756440D01*
X23889601Y-72759601D01*
X23886440Y-72763301D01*
X23886434Y-72763308D01*
X23732735Y-72943266D01*
X23732726Y-72943277D01*
X23729567Y-72946977D01*
X23727022Y-72951128D01*
X23727019Y-72951134D01*
X23603364Y-73152921D01*
X23603360Y-73152927D01*
X23600816Y-73157080D01*
X23506517Y-73384738D01*
X23505382Y-73389462D01*
X23505379Y-73389474D01*
X23450129Y-73619611D01*
X23450127Y-73619617D01*
X23448993Y-73624345D01*
X23429659Y-73870000D01*
X20000500Y-73870000D01*
X20000500Y-68950000D01*
X23494859Y-68950000D01*
X23494939Y-68953292D01*
X23494939Y-68953308D01*
X23496575Y-69020226D01*
X23496656Y-69023526D01*
X23497086Y-69026799D01*
X23497087Y-69026800D01*
X23528186Y-69263027D01*
X23528187Y-69263033D01*
X23528851Y-69268074D01*
X23600555Y-69504079D01*
X23709842Y-69725205D01*
X23853777Y-69925512D01*
X23857382Y-69929105D01*
X23857386Y-69929109D01*
X24024890Y-70096029D01*
X24028495Y-70099621D01*
X24229303Y-70242856D01*
X24450809Y-70351370D01*
X24687064Y-70422250D01*
X24692104Y-70422895D01*
X24692106Y-70422896D01*
X24926679Y-70452946D01*
X24931722Y-70453592D01*
X25178215Y-70444553D01*
X25419921Y-70395377D01*
X25650350Y-70307385D01*
X25863313Y-70182939D01*
X26053092Y-70025382D01*
X26214589Y-69838945D01*
X26343468Y-69628634D01*
X26436266Y-69400099D01*
X26490493Y-69159475D01*
X26502572Y-68950000D01*
X33744859Y-68950000D01*
X33744939Y-68953292D01*
X33744939Y-68953308D01*
X33746575Y-69020226D01*
X33746656Y-69023526D01*
X33747086Y-69026799D01*
X33747087Y-69026800D01*
X33778186Y-69263027D01*
X33778187Y-69263033D01*
X33778851Y-69268074D01*
X33850555Y-69504079D01*
X33959842Y-69725205D01*
X34103777Y-69925512D01*
X34107382Y-69929105D01*
X34107386Y-69929109D01*
X34274890Y-70096029D01*
X34278495Y-70099621D01*
X34479303Y-70242856D01*
X34700809Y-70351370D01*
X34937064Y-70422250D01*
X34942104Y-70422895D01*
X34942106Y-70422896D01*
X35176679Y-70452946D01*
X35181722Y-70453592D01*
X35428215Y-70444553D01*
X35669921Y-70395377D01*
X35900350Y-70307385D01*
X36113313Y-70182939D01*
X36303092Y-70025382D01*
X36464589Y-69838945D01*
X36593468Y-69628634D01*
X36686266Y-69400099D01*
X36740493Y-69159475D01*
X36754692Y-68913226D01*
X36728481Y-68667965D01*
X36662564Y-68430278D01*
X36558712Y-68206548D01*
X36419714Y-68002784D01*
X36276548Y-67852968D01*
X36252820Y-67828138D01*
X36252817Y-67828136D01*
X36249303Y-67824458D01*
X36245235Y-67821403D01*
X36245232Y-67821401D01*
X36056123Y-67679415D01*
X36056122Y-67679414D01*
X36052054Y-67676360D01*
X35866161Y-67579590D01*
X35837779Y-67564815D01*
X35837775Y-67564813D01*
X35833266Y-67562466D01*
X35828433Y-67560886D01*
X35828430Y-67560885D01*
X35603651Y-67487416D01*
X35603647Y-67487415D01*
X35598813Y-67485835D01*
X35593784Y-67485065D01*
X35593778Y-67485064D01*
X35360028Y-67449295D01*
X35360022Y-67449294D01*
X35354993Y-67448525D01*
X35349904Y-67448587D01*
X35349902Y-67448587D01*
X35113438Y-67451476D01*
X35113427Y-67451477D01*
X35108354Y-67451539D01*
X35103349Y-67452430D01*
X35103343Y-67452431D01*
X34870531Y-67493900D01*
X34870518Y-67493903D01*
X34865518Y-67494794D01*
X34860718Y-67496493D01*
X34860717Y-67496494D01*
X34637809Y-67575430D01*
X34637799Y-67575434D01*
X34633008Y-67577131D01*
X34628555Y-67579588D01*
X34628553Y-67579590D01*
X34421517Y-67693879D01*
X34421507Y-67693885D01*
X34417068Y-67696336D01*
X34413084Y-67699482D01*
X34413077Y-67699487D01*
X34227484Y-67846060D01*
X34227480Y-67846063D01*
X34223496Y-67849210D01*
X34220084Y-67852958D01*
X34220075Y-67852968D01*
X34060914Y-68027883D01*
X34060907Y-68027891D01*
X34057492Y-68031645D01*
X34054735Y-68035905D01*
X34054730Y-68035913D01*
X33926274Y-68234476D01*
X33926268Y-68234485D01*
X33923514Y-68238744D01*
X33921490Y-68243397D01*
X33921485Y-68243408D01*
X33838100Y-68435183D01*
X33825159Y-68464945D01*
X33823919Y-68469879D01*
X33823919Y-68469881D01*
X33766310Y-68699231D01*
X33766308Y-68699240D01*
X33765070Y-68704171D01*
X33764653Y-68709234D01*
X33764652Y-68709245D01*
X33745130Y-68946701D01*
X33744859Y-68950000D01*
X26502572Y-68950000D01*
X26504692Y-68913226D01*
X26478481Y-68667965D01*
X26412564Y-68430278D01*
X26308712Y-68206548D01*
X26169714Y-68002784D01*
X26026548Y-67852968D01*
X26002820Y-67828138D01*
X26002817Y-67828136D01*
X25999303Y-67824458D01*
X25995235Y-67821403D01*
X25995232Y-67821401D01*
X25806123Y-67679415D01*
X25806122Y-67679414D01*
X25802054Y-67676360D01*
X25616161Y-67579590D01*
X25587779Y-67564815D01*
X25587775Y-67564813D01*
X25583266Y-67562466D01*
X25578433Y-67560886D01*
X25578430Y-67560885D01*
X25353651Y-67487416D01*
X25353647Y-67487415D01*
X25348813Y-67485835D01*
X25343784Y-67485065D01*
X25343778Y-67485064D01*
X25110028Y-67449295D01*
X25110022Y-67449294D01*
X25104993Y-67448525D01*
X25099904Y-67448587D01*
X25099902Y-67448587D01*
X24863438Y-67451476D01*
X24863427Y-67451477D01*
X24858354Y-67451539D01*
X24853349Y-67452430D01*
X24853343Y-67452431D01*
X24620531Y-67493900D01*
X24620518Y-67493903D01*
X24615518Y-67494794D01*
X24610718Y-67496493D01*
X24610717Y-67496494D01*
X24387809Y-67575430D01*
X24387799Y-67575434D01*
X24383008Y-67577131D01*
X24378555Y-67579588D01*
X24378553Y-67579590D01*
X24171517Y-67693879D01*
X24171507Y-67693885D01*
X24167068Y-67696336D01*
X24163084Y-67699482D01*
X24163077Y-67699487D01*
X23977484Y-67846060D01*
X23977480Y-67846063D01*
X23973496Y-67849210D01*
X23970084Y-67852958D01*
X23970075Y-67852968D01*
X23810914Y-68027883D01*
X23810907Y-68027891D01*
X23807492Y-68031645D01*
X23804735Y-68035905D01*
X23804730Y-68035913D01*
X23676274Y-68234476D01*
X23676268Y-68234485D01*
X23673514Y-68238744D01*
X23671490Y-68243397D01*
X23671485Y-68243408D01*
X23588100Y-68435183D01*
X23575159Y-68464945D01*
X23573919Y-68469879D01*
X23573919Y-68469881D01*
X23516310Y-68699231D01*
X23516308Y-68699240D01*
X23515070Y-68704171D01*
X23514653Y-68709234D01*
X23514652Y-68709245D01*
X23495130Y-68946701D01*
X23494859Y-68950000D01*
X20000500Y-68950000D01*
X20000500Y-65570000D01*
X23429659Y-65570000D01*
X23448993Y-65815655D01*
X23450128Y-65820384D01*
X23450129Y-65820388D01*
X23505379Y-66050525D01*
X23505381Y-66050533D01*
X23506517Y-66055262D01*
X23600816Y-66282920D01*
X23729567Y-66493023D01*
X23732731Y-66496728D01*
X23732735Y-66496733D01*
X23886434Y-66676691D01*
X23889601Y-66680399D01*
X23893308Y-66683565D01*
X24073266Y-66837264D01*
X24073269Y-66837266D01*
X24076977Y-66840433D01*
X24287080Y-66969184D01*
X24514738Y-67063483D01*
X24754345Y-67121007D01*
X25000000Y-67140341D01*
X25245655Y-67121007D01*
X25485262Y-67063483D01*
X25712920Y-66969184D01*
X25923023Y-66840433D01*
X26110399Y-66680399D01*
X26270433Y-66493023D01*
X26399184Y-66282920D01*
X26493483Y-66055262D01*
X26551007Y-65815655D01*
X26570341Y-65570000D01*
X33679659Y-65570000D01*
X33698993Y-65815655D01*
X33700128Y-65820384D01*
X33700129Y-65820388D01*
X33755379Y-66050525D01*
X33755381Y-66050533D01*
X33756517Y-66055262D01*
X33850816Y-66282920D01*
X33979567Y-66493023D01*
X33982731Y-66496728D01*
X33982735Y-66496733D01*
X34136434Y-66676691D01*
X34139601Y-66680399D01*
X34143308Y-66683565D01*
X34323266Y-66837264D01*
X34323269Y-66837266D01*
X34326977Y-66840433D01*
X34537080Y-66969184D01*
X34764738Y-67063483D01*
X35004345Y-67121007D01*
X35250000Y-67140341D01*
X35495655Y-67121007D01*
X35735262Y-67063483D01*
X35962920Y-66969184D01*
X36173023Y-66840433D01*
X36360399Y-66680399D01*
X36520433Y-66493023D01*
X36649184Y-66282920D01*
X36743483Y-66055262D01*
X36801007Y-65815655D01*
X36820341Y-65570000D01*
X36801007Y-65324345D01*
X36743483Y-65084738D01*
X36649184Y-64857080D01*
X36520433Y-64646977D01*
X36360399Y-64459601D01*
X36356691Y-64456434D01*
X36176733Y-64302735D01*
X36176728Y-64302731D01*
X36173023Y-64299567D01*
X35962920Y-64170816D01*
X35848835Y-64123560D01*
X35795971Y-64081885D01*
X35772671Y-64018729D01*
X35785804Y-63952705D01*
X35831499Y-63903273D01*
X35896289Y-63885000D01*
X36259518Y-63885000D01*
X36266114Y-63884646D01*
X36314667Y-63879426D01*
X36329641Y-63875888D01*
X36448777Y-63831452D01*
X36464189Y-63823037D01*
X36565092Y-63747501D01*
X36577501Y-63735092D01*
X36653037Y-63634189D01*
X36661452Y-63618777D01*
X36705888Y-63499641D01*
X36709426Y-63484667D01*
X36714646Y-63436114D01*
X36715000Y-63429518D01*
X36715000Y-62736326D01*
X36711549Y-62723450D01*
X36698674Y-62720000D01*
X33801326Y-62720000D01*
X33788450Y-62723450D01*
X33785000Y-62736326D01*
X33785000Y-63429518D01*
X33785353Y-63436114D01*
X33790573Y-63484667D01*
X33794111Y-63499641D01*
X33838547Y-63618777D01*
X33846962Y-63634189D01*
X33922498Y-63735092D01*
X33934907Y-63747501D01*
X34035810Y-63823037D01*
X34051222Y-63831452D01*
X34170358Y-63875888D01*
X34185332Y-63879426D01*
X34233885Y-63884646D01*
X34240482Y-63885000D01*
X34603711Y-63885000D01*
X34668501Y-63903273D01*
X34714196Y-63952705D01*
X34727329Y-64018729D01*
X34704029Y-64081885D01*
X34651164Y-64123561D01*
X34541584Y-64168950D01*
X34541579Y-64168952D01*
X34537080Y-64170816D01*
X34532927Y-64173360D01*
X34532921Y-64173364D01*
X34331134Y-64297019D01*
X34331128Y-64297022D01*
X34326977Y-64299567D01*
X34323277Y-64302726D01*
X34323266Y-64302735D01*
X34143308Y-64456434D01*
X34143301Y-64456440D01*
X34139601Y-64459601D01*
X34136440Y-64463301D01*
X34136434Y-64463308D01*
X33982735Y-64643266D01*
X33982726Y-64643277D01*
X33979567Y-64646977D01*
X33977022Y-64651128D01*
X33977019Y-64651134D01*
X33853364Y-64852921D01*
X33853360Y-64852927D01*
X33850816Y-64857080D01*
X33756517Y-65084738D01*
X33755382Y-65089462D01*
X33755379Y-65089474D01*
X33700129Y-65319611D01*
X33700127Y-65319617D01*
X33698993Y-65324345D01*
X33679659Y-65570000D01*
X26570341Y-65570000D01*
X26551007Y-65324345D01*
X26493483Y-65084738D01*
X26399184Y-64857080D01*
X26270433Y-64646977D01*
X26110399Y-64459601D01*
X26106691Y-64456434D01*
X25926733Y-64302735D01*
X25926728Y-64302731D01*
X25923023Y-64299567D01*
X25712920Y-64170816D01*
X25598835Y-64123560D01*
X25545971Y-64081885D01*
X25522671Y-64018729D01*
X25535804Y-63952705D01*
X25581499Y-63903273D01*
X25646289Y-63885000D01*
X26009518Y-63885000D01*
X26016114Y-63884646D01*
X26064667Y-63879426D01*
X26079641Y-63875888D01*
X26198777Y-63831452D01*
X26214189Y-63823037D01*
X26315092Y-63747501D01*
X26327501Y-63735092D01*
X26403037Y-63634189D01*
X26411452Y-63618777D01*
X26455888Y-63499641D01*
X26459426Y-63484667D01*
X26464646Y-63436114D01*
X26465000Y-63429518D01*
X26465000Y-62736326D01*
X26461549Y-62723450D01*
X26448674Y-62720000D01*
X23551326Y-62720000D01*
X23538450Y-62723450D01*
X23535000Y-62736326D01*
X23535000Y-63429518D01*
X23535353Y-63436114D01*
X23540573Y-63484667D01*
X23544111Y-63499641D01*
X23588547Y-63618777D01*
X23596962Y-63634189D01*
X23672498Y-63735092D01*
X23684907Y-63747501D01*
X23785810Y-63823037D01*
X23801222Y-63831452D01*
X23920358Y-63875888D01*
X23935332Y-63879426D01*
X23983885Y-63884646D01*
X23990482Y-63885000D01*
X24353711Y-63885000D01*
X24418501Y-63903273D01*
X24464196Y-63952705D01*
X24477329Y-64018729D01*
X24454029Y-64081885D01*
X24401164Y-64123561D01*
X24291584Y-64168950D01*
X24291579Y-64168952D01*
X24287080Y-64170816D01*
X24282927Y-64173360D01*
X24282921Y-64173364D01*
X24081134Y-64297019D01*
X24081128Y-64297022D01*
X24076977Y-64299567D01*
X24073277Y-64302726D01*
X24073266Y-64302735D01*
X23893308Y-64456434D01*
X23893301Y-64456440D01*
X23889601Y-64459601D01*
X23886440Y-64463301D01*
X23886434Y-64463308D01*
X23732735Y-64643266D01*
X23732726Y-64643277D01*
X23729567Y-64646977D01*
X23727022Y-64651128D01*
X23727019Y-64651134D01*
X23603364Y-64852921D01*
X23603360Y-64852927D01*
X23600816Y-64857080D01*
X23506517Y-65084738D01*
X23505382Y-65089462D01*
X23505379Y-65089474D01*
X23450129Y-65319611D01*
X23450127Y-65319617D01*
X23448993Y-65324345D01*
X23429659Y-65570000D01*
X20000500Y-65570000D01*
X20000500Y-62203674D01*
X23535000Y-62203674D01*
X23538450Y-62216549D01*
X23551326Y-62220000D01*
X24733674Y-62220000D01*
X24746549Y-62216549D01*
X24750000Y-62203674D01*
X25250000Y-62203674D01*
X25253450Y-62216549D01*
X25266326Y-62220000D01*
X26448674Y-62220000D01*
X26461549Y-62216549D01*
X26465000Y-62203674D01*
X33785000Y-62203674D01*
X33788450Y-62216549D01*
X33801326Y-62220000D01*
X34983674Y-62220000D01*
X34996549Y-62216549D01*
X35000000Y-62203674D01*
X35500000Y-62203674D01*
X35503450Y-62216549D01*
X35516326Y-62220000D01*
X36698674Y-62220000D01*
X36711549Y-62216549D01*
X36715000Y-62203674D01*
X36715000Y-61510482D01*
X36714646Y-61503885D01*
X36709426Y-61455332D01*
X36705888Y-61440358D01*
X36661452Y-61321222D01*
X36653037Y-61305810D01*
X36577501Y-61204907D01*
X36565092Y-61192498D01*
X36464189Y-61116962D01*
X36448777Y-61108547D01*
X36329641Y-61064111D01*
X36314667Y-61060573D01*
X36266114Y-61055353D01*
X36259518Y-61055000D01*
X35516326Y-61055000D01*
X35503450Y-61058450D01*
X35500000Y-61071326D01*
X35500000Y-62203674D01*
X35000000Y-62203674D01*
X35000000Y-61071326D01*
X34996549Y-61058450D01*
X34983674Y-61055000D01*
X34240482Y-61055000D01*
X34233885Y-61055353D01*
X34185332Y-61060573D01*
X34170358Y-61064111D01*
X34051222Y-61108547D01*
X34035810Y-61116962D01*
X33934907Y-61192498D01*
X33922498Y-61204907D01*
X33846962Y-61305810D01*
X33838547Y-61321222D01*
X33794111Y-61440358D01*
X33790573Y-61455332D01*
X33785353Y-61503885D01*
X33785000Y-61510482D01*
X33785000Y-62203674D01*
X26465000Y-62203674D01*
X26465000Y-61510482D01*
X26464646Y-61503885D01*
X26459426Y-61455332D01*
X26455888Y-61440358D01*
X26411452Y-61321222D01*
X26403037Y-61305810D01*
X26327501Y-61204907D01*
X26315092Y-61192498D01*
X26214189Y-61116962D01*
X26198777Y-61108547D01*
X26079641Y-61064111D01*
X26064667Y-61060573D01*
X26016114Y-61055353D01*
X26009518Y-61055000D01*
X25266326Y-61055000D01*
X25253450Y-61058450D01*
X25250000Y-61071326D01*
X25250000Y-62203674D01*
X24750000Y-62203674D01*
X24750000Y-61071326D01*
X24746549Y-61058450D01*
X24733674Y-61055000D01*
X23990482Y-61055000D01*
X23983885Y-61055353D01*
X23935332Y-61060573D01*
X23920358Y-61064111D01*
X23801222Y-61108547D01*
X23785810Y-61116962D01*
X23684907Y-61192498D01*
X23672498Y-61204907D01*
X23596962Y-61305810D01*
X23588547Y-61321222D01*
X23544111Y-61440358D01*
X23540573Y-61455332D01*
X23535353Y-61503885D01*
X23535000Y-61510482D01*
X23535000Y-62203674D01*
X20000500Y-62203674D01*
X20000500Y-57250000D01*
X23429659Y-57250000D01*
X23448993Y-57495655D01*
X23450128Y-57500384D01*
X23450129Y-57500388D01*
X23505379Y-57730525D01*
X23505381Y-57730533D01*
X23506517Y-57735262D01*
X23600816Y-57962920D01*
X23729567Y-58173023D01*
X23732731Y-58176728D01*
X23732735Y-58176733D01*
X23886434Y-58356691D01*
X23889601Y-58360399D01*
X23893308Y-58363565D01*
X24073266Y-58517264D01*
X24073269Y-58517266D01*
X24076977Y-58520433D01*
X24287080Y-58649184D01*
X24514738Y-58743483D01*
X24754345Y-58801007D01*
X25000000Y-58820341D01*
X25245655Y-58801007D01*
X25485262Y-58743483D01*
X25712920Y-58649184D01*
X25923023Y-58520433D01*
X26110399Y-58360399D01*
X26270433Y-58173023D01*
X26399184Y-57962920D01*
X26493483Y-57735262D01*
X26551007Y-57495655D01*
X26570341Y-57250000D01*
X33679659Y-57250000D01*
X33698993Y-57495655D01*
X33700128Y-57500384D01*
X33700129Y-57500388D01*
X33755379Y-57730525D01*
X33755381Y-57730533D01*
X33756517Y-57735262D01*
X33850816Y-57962920D01*
X33979567Y-58173023D01*
X33982731Y-58176728D01*
X33982735Y-58176733D01*
X34136434Y-58356691D01*
X34139601Y-58360399D01*
X34143308Y-58363565D01*
X34323266Y-58517264D01*
X34323269Y-58517266D01*
X34326977Y-58520433D01*
X34537080Y-58649184D01*
X34764738Y-58743483D01*
X35004345Y-58801007D01*
X35250000Y-58820341D01*
X35495655Y-58801007D01*
X35735262Y-58743483D01*
X35962920Y-58649184D01*
X36173023Y-58520433D01*
X36360399Y-58360399D01*
X36520433Y-58173023D01*
X36649184Y-57962920D01*
X36743483Y-57735262D01*
X36801007Y-57495655D01*
X36820341Y-57250000D01*
X36801007Y-57004345D01*
X36743483Y-56764738D01*
X36649184Y-56537080D01*
X36520433Y-56326977D01*
X36360399Y-56139601D01*
X36356691Y-56136434D01*
X36176733Y-55982735D01*
X36176728Y-55982731D01*
X36173023Y-55979567D01*
X35962920Y-55850816D01*
X35735262Y-55756517D01*
X35730533Y-55755381D01*
X35730525Y-55755379D01*
X35500388Y-55700129D01*
X35500384Y-55700128D01*
X35495655Y-55698993D01*
X35490802Y-55698611D01*
X35254854Y-55680041D01*
X35250000Y-55679659D01*
X35245146Y-55680041D01*
X35009197Y-55698611D01*
X35009195Y-55698611D01*
X35004345Y-55698993D01*
X34999617Y-55700127D01*
X34999611Y-55700129D01*
X34769474Y-55755379D01*
X34769462Y-55755382D01*
X34764738Y-55756517D01*
X34760241Y-55758379D01*
X34760237Y-55758381D01*
X34541584Y-55848950D01*
X34541579Y-55848952D01*
X34537080Y-55850816D01*
X34532927Y-55853360D01*
X34532921Y-55853364D01*
X34331134Y-55977019D01*
X34331128Y-55977022D01*
X34326977Y-55979567D01*
X34323277Y-55982726D01*
X34323266Y-55982735D01*
X34143308Y-56136434D01*
X34143301Y-56136440D01*
X34139601Y-56139601D01*
X34136440Y-56143301D01*
X34136434Y-56143308D01*
X33982735Y-56323266D01*
X33982726Y-56323277D01*
X33979567Y-56326977D01*
X33977022Y-56331128D01*
X33977019Y-56331134D01*
X33853364Y-56532921D01*
X33853360Y-56532927D01*
X33850816Y-56537080D01*
X33756517Y-56764738D01*
X33755382Y-56769462D01*
X33755379Y-56769474D01*
X33700129Y-56999611D01*
X33700127Y-56999617D01*
X33698993Y-57004345D01*
X33679659Y-57250000D01*
X26570341Y-57250000D01*
X26551007Y-57004345D01*
X26493483Y-56764738D01*
X26399184Y-56537080D01*
X26270433Y-56326977D01*
X26110399Y-56139601D01*
X26106691Y-56136434D01*
X25926733Y-55982735D01*
X25926728Y-55982731D01*
X25923023Y-55979567D01*
X25712920Y-55850816D01*
X25485262Y-55756517D01*
X25480533Y-55755381D01*
X25480525Y-55755379D01*
X25250388Y-55700129D01*
X25250384Y-55700128D01*
X25245655Y-55698993D01*
X25240802Y-55698611D01*
X25004854Y-55680041D01*
X25000000Y-55679659D01*
X24995146Y-55680041D01*
X24759197Y-55698611D01*
X24759195Y-55698611D01*
X24754345Y-55698993D01*
X24749617Y-55700127D01*
X24749611Y-55700129D01*
X24519474Y-55755379D01*
X24519462Y-55755382D01*
X24514738Y-55756517D01*
X24510241Y-55758379D01*
X24510237Y-55758381D01*
X24291584Y-55848950D01*
X24291579Y-55848952D01*
X24287080Y-55850816D01*
X24282927Y-55853360D01*
X24282921Y-55853364D01*
X24081134Y-55977019D01*
X24081128Y-55977022D01*
X24076977Y-55979567D01*
X24073277Y-55982726D01*
X24073266Y-55982735D01*
X23893308Y-56136434D01*
X23893301Y-56136440D01*
X23889601Y-56139601D01*
X23886440Y-56143301D01*
X23886434Y-56143308D01*
X23732735Y-56323266D01*
X23732726Y-56323277D01*
X23729567Y-56326977D01*
X23727022Y-56331128D01*
X23727019Y-56331134D01*
X23603364Y-56532921D01*
X23603360Y-56532927D01*
X23600816Y-56537080D01*
X23506517Y-56764738D01*
X23505382Y-56769462D01*
X23505379Y-56769474D01*
X23450129Y-56999611D01*
X23450127Y-56999617D01*
X23448993Y-57004345D01*
X23429659Y-57250000D01*
X20000500Y-57250000D01*
X20000500Y-52330000D01*
X23494859Y-52330000D01*
X23494939Y-52333292D01*
X23494939Y-52333308D01*
X23496575Y-52400226D01*
X23496656Y-52403526D01*
X23497086Y-52406799D01*
X23497087Y-52406800D01*
X23528186Y-52643027D01*
X23528187Y-52643033D01*
X23528851Y-52648074D01*
X23600555Y-52884079D01*
X23709842Y-53105205D01*
X23853777Y-53305512D01*
X23857382Y-53309105D01*
X23857386Y-53309109D01*
X24024890Y-53476029D01*
X24028495Y-53479621D01*
X24229303Y-53622856D01*
X24450809Y-53731370D01*
X24687064Y-53802250D01*
X24692104Y-53802895D01*
X24692106Y-53802896D01*
X24926679Y-53832946D01*
X24931722Y-53833592D01*
X25178215Y-53824553D01*
X25419921Y-53775377D01*
X25650350Y-53687385D01*
X25863313Y-53562939D01*
X26053092Y-53405382D01*
X26214589Y-53218945D01*
X26343468Y-53008634D01*
X26436266Y-52780099D01*
X26490493Y-52539475D01*
X26502572Y-52330000D01*
X33744859Y-52330000D01*
X33744939Y-52333292D01*
X33744939Y-52333308D01*
X33746575Y-52400226D01*
X33746656Y-52403526D01*
X33747086Y-52406799D01*
X33747087Y-52406800D01*
X33778186Y-52643027D01*
X33778187Y-52643033D01*
X33778851Y-52648074D01*
X33850555Y-52884079D01*
X33959842Y-53105205D01*
X34103777Y-53305512D01*
X34107382Y-53309105D01*
X34107386Y-53309109D01*
X34274890Y-53476029D01*
X34278495Y-53479621D01*
X34479303Y-53622856D01*
X34700809Y-53731370D01*
X34937064Y-53802250D01*
X34942104Y-53802895D01*
X34942106Y-53802896D01*
X35176679Y-53832946D01*
X35181722Y-53833592D01*
X35428215Y-53824553D01*
X35669921Y-53775377D01*
X35900350Y-53687385D01*
X36113313Y-53562939D01*
X36303092Y-53405382D01*
X36464589Y-53218945D01*
X36593468Y-53008634D01*
X36686266Y-52780099D01*
X36740493Y-52539475D01*
X36754692Y-52293226D01*
X36728481Y-52047965D01*
X36662564Y-51810278D01*
X36558712Y-51586548D01*
X36419714Y-51382784D01*
X36276548Y-51232968D01*
X36252820Y-51208138D01*
X36252817Y-51208136D01*
X36249303Y-51204458D01*
X36245235Y-51201403D01*
X36245232Y-51201401D01*
X36056123Y-51059415D01*
X36056122Y-51059414D01*
X36052054Y-51056360D01*
X35866161Y-50959590D01*
X35837779Y-50944815D01*
X35837775Y-50944813D01*
X35833266Y-50942466D01*
X35828433Y-50940886D01*
X35828430Y-50940885D01*
X35603651Y-50867416D01*
X35603647Y-50867415D01*
X35598813Y-50865835D01*
X35593784Y-50865065D01*
X35593778Y-50865064D01*
X35360028Y-50829295D01*
X35360022Y-50829294D01*
X35354993Y-50828525D01*
X35349904Y-50828587D01*
X35349902Y-50828587D01*
X35113438Y-50831476D01*
X35113427Y-50831477D01*
X35108354Y-50831539D01*
X35103349Y-50832430D01*
X35103343Y-50832431D01*
X34870531Y-50873900D01*
X34870518Y-50873903D01*
X34865518Y-50874794D01*
X34860718Y-50876493D01*
X34860717Y-50876494D01*
X34637809Y-50955430D01*
X34637799Y-50955434D01*
X34633008Y-50957131D01*
X34628555Y-50959588D01*
X34628553Y-50959590D01*
X34421517Y-51073879D01*
X34421507Y-51073885D01*
X34417068Y-51076336D01*
X34413084Y-51079482D01*
X34413077Y-51079487D01*
X34227484Y-51226060D01*
X34227480Y-51226063D01*
X34223496Y-51229210D01*
X34220084Y-51232958D01*
X34220075Y-51232968D01*
X34060914Y-51407883D01*
X34060907Y-51407891D01*
X34057492Y-51411645D01*
X34054735Y-51415905D01*
X34054730Y-51415913D01*
X33926274Y-51614476D01*
X33926268Y-51614485D01*
X33923514Y-51618744D01*
X33921490Y-51623397D01*
X33921485Y-51623408D01*
X33838100Y-51815183D01*
X33825159Y-51844945D01*
X33823919Y-51849879D01*
X33823919Y-51849881D01*
X33766310Y-52079231D01*
X33766308Y-52079240D01*
X33765070Y-52084171D01*
X33764653Y-52089234D01*
X33764652Y-52089245D01*
X33745130Y-52326701D01*
X33744859Y-52330000D01*
X26502572Y-52330000D01*
X26504692Y-52293226D01*
X26478481Y-52047965D01*
X26412564Y-51810278D01*
X26308712Y-51586548D01*
X26169714Y-51382784D01*
X26026548Y-51232968D01*
X26002820Y-51208138D01*
X26002817Y-51208136D01*
X25999303Y-51204458D01*
X25995235Y-51201403D01*
X25995232Y-51201401D01*
X25806123Y-51059415D01*
X25806122Y-51059414D01*
X25802054Y-51056360D01*
X25616161Y-50959590D01*
X25587779Y-50944815D01*
X25587775Y-50944813D01*
X25583266Y-50942466D01*
X25578433Y-50940886D01*
X25578430Y-50940885D01*
X25353651Y-50867416D01*
X25353647Y-50867415D01*
X25348813Y-50865835D01*
X25343784Y-50865065D01*
X25343778Y-50865064D01*
X25110028Y-50829295D01*
X25110022Y-50829294D01*
X25104993Y-50828525D01*
X25099904Y-50828587D01*
X25099902Y-50828587D01*
X24863438Y-50831476D01*
X24863427Y-50831477D01*
X24858354Y-50831539D01*
X24853349Y-50832430D01*
X24853343Y-50832431D01*
X24620531Y-50873900D01*
X24620518Y-50873903D01*
X24615518Y-50874794D01*
X24610718Y-50876493D01*
X24610717Y-50876494D01*
X24387809Y-50955430D01*
X24387799Y-50955434D01*
X24383008Y-50957131D01*
X24378555Y-50959588D01*
X24378553Y-50959590D01*
X24171517Y-51073879D01*
X24171507Y-51073885D01*
X24167068Y-51076336D01*
X24163084Y-51079482D01*
X24163077Y-51079487D01*
X23977484Y-51226060D01*
X23977480Y-51226063D01*
X23973496Y-51229210D01*
X23970084Y-51232958D01*
X23970075Y-51232968D01*
X23810914Y-51407883D01*
X23810907Y-51407891D01*
X23807492Y-51411645D01*
X23804735Y-51415905D01*
X23804730Y-51415913D01*
X23676274Y-51614476D01*
X23676268Y-51614485D01*
X23673514Y-51618744D01*
X23671490Y-51623397D01*
X23671485Y-51623408D01*
X23588100Y-51815183D01*
X23575159Y-51844945D01*
X23573919Y-51849879D01*
X23573919Y-51849881D01*
X23516310Y-52079231D01*
X23516308Y-52079240D01*
X23515070Y-52084171D01*
X23514653Y-52089234D01*
X23514652Y-52089245D01*
X23495130Y-52326701D01*
X23494859Y-52330000D01*
X20000500Y-52330000D01*
X20000500Y-48950000D01*
X23429659Y-48950000D01*
X23448993Y-49195655D01*
X23450128Y-49200384D01*
X23450129Y-49200388D01*
X23505379Y-49430525D01*
X23505381Y-49430533D01*
X23506517Y-49435262D01*
X23600816Y-49662920D01*
X23729567Y-49873023D01*
X23732731Y-49876728D01*
X23732735Y-49876733D01*
X23886434Y-50056691D01*
X23889601Y-50060399D01*
X23893308Y-50063565D01*
X24073266Y-50217264D01*
X24073269Y-50217266D01*
X24076977Y-50220433D01*
X24287080Y-50349184D01*
X24514738Y-50443483D01*
X24754345Y-50501007D01*
X25000000Y-50520341D01*
X25245655Y-50501007D01*
X25485262Y-50443483D01*
X25712920Y-50349184D01*
X25923023Y-50220433D01*
X26110399Y-50060399D01*
X26270433Y-49873023D01*
X26399184Y-49662920D01*
X26493483Y-49435262D01*
X26551007Y-49195655D01*
X26570341Y-48950000D01*
X33679659Y-48950000D01*
X33698993Y-49195655D01*
X33700128Y-49200384D01*
X33700129Y-49200388D01*
X33755379Y-49430525D01*
X33755381Y-49430533D01*
X33756517Y-49435262D01*
X33850816Y-49662920D01*
X33979567Y-49873023D01*
X33982731Y-49876728D01*
X33982735Y-49876733D01*
X34136434Y-50056691D01*
X34139601Y-50060399D01*
X34143308Y-50063565D01*
X34323266Y-50217264D01*
X34323269Y-50217266D01*
X34326977Y-50220433D01*
X34537080Y-50349184D01*
X34764738Y-50443483D01*
X35004345Y-50501007D01*
X35250000Y-50520341D01*
X35495655Y-50501007D01*
X35735262Y-50443483D01*
X35962920Y-50349184D01*
X36173023Y-50220433D01*
X36360399Y-50060399D01*
X36520433Y-49873023D01*
X36649184Y-49662920D01*
X36743483Y-49435262D01*
X36801007Y-49195655D01*
X36820341Y-48950000D01*
X36801007Y-48704345D01*
X36743483Y-48464738D01*
X36649184Y-48237080D01*
X36520433Y-48026977D01*
X36360399Y-47839601D01*
X36356691Y-47836434D01*
X36176733Y-47682735D01*
X36176728Y-47682731D01*
X36173023Y-47679567D01*
X35962920Y-47550816D01*
X35848835Y-47503560D01*
X35795971Y-47461885D01*
X35772671Y-47398729D01*
X35785804Y-47332705D01*
X35831499Y-47283273D01*
X35896289Y-47265000D01*
X36259518Y-47265000D01*
X36266114Y-47264646D01*
X36314667Y-47259426D01*
X36329641Y-47255888D01*
X36448777Y-47211452D01*
X36464189Y-47203037D01*
X36565092Y-47127501D01*
X36577501Y-47115092D01*
X36653037Y-47014189D01*
X36661452Y-46998777D01*
X36705888Y-46879641D01*
X36709426Y-46864667D01*
X36714646Y-46816114D01*
X36715000Y-46809518D01*
X36715000Y-46116326D01*
X36711549Y-46103450D01*
X36698674Y-46100000D01*
X33801326Y-46100000D01*
X33788450Y-46103450D01*
X33785000Y-46116326D01*
X33785000Y-46809518D01*
X33785353Y-46816114D01*
X33790573Y-46864667D01*
X33794111Y-46879641D01*
X33838547Y-46998777D01*
X33846962Y-47014189D01*
X33922498Y-47115092D01*
X33934907Y-47127501D01*
X34035810Y-47203037D01*
X34051222Y-47211452D01*
X34170358Y-47255888D01*
X34185332Y-47259426D01*
X34233885Y-47264646D01*
X34240482Y-47265000D01*
X34603711Y-47265000D01*
X34668501Y-47283273D01*
X34714196Y-47332705D01*
X34727329Y-47398729D01*
X34704029Y-47461885D01*
X34651164Y-47503561D01*
X34541584Y-47548950D01*
X34541579Y-47548952D01*
X34537080Y-47550816D01*
X34532927Y-47553360D01*
X34532921Y-47553364D01*
X34331134Y-47677019D01*
X34331128Y-47677022D01*
X34326977Y-47679567D01*
X34323277Y-47682726D01*
X34323266Y-47682735D01*
X34143308Y-47836434D01*
X34143301Y-47836440D01*
X34139601Y-47839601D01*
X34136440Y-47843301D01*
X34136434Y-47843308D01*
X33982735Y-48023266D01*
X33982726Y-48023277D01*
X33979567Y-48026977D01*
X33977022Y-48031128D01*
X33977019Y-48031134D01*
X33853364Y-48232921D01*
X33853360Y-48232927D01*
X33850816Y-48237080D01*
X33756517Y-48464738D01*
X33755382Y-48469462D01*
X33755379Y-48469474D01*
X33700129Y-48699611D01*
X33700127Y-48699617D01*
X33698993Y-48704345D01*
X33679659Y-48950000D01*
X26570341Y-48950000D01*
X26551007Y-48704345D01*
X26493483Y-48464738D01*
X26399184Y-48237080D01*
X26270433Y-48026977D01*
X26110399Y-47839601D01*
X26106691Y-47836434D01*
X25926733Y-47682735D01*
X25926728Y-47682731D01*
X25923023Y-47679567D01*
X25712920Y-47550816D01*
X25598835Y-47503560D01*
X25545971Y-47461885D01*
X25522671Y-47398729D01*
X25535804Y-47332705D01*
X25581499Y-47283273D01*
X25646289Y-47265000D01*
X26009518Y-47265000D01*
X26016114Y-47264646D01*
X26064667Y-47259426D01*
X26079641Y-47255888D01*
X26198777Y-47211452D01*
X26214189Y-47203037D01*
X26315092Y-47127501D01*
X26327501Y-47115092D01*
X26403037Y-47014189D01*
X26411452Y-46998777D01*
X26455888Y-46879641D01*
X26459426Y-46864667D01*
X26464646Y-46816114D01*
X26465000Y-46809518D01*
X26465000Y-46116326D01*
X26461549Y-46103450D01*
X26448674Y-46100000D01*
X23551326Y-46100000D01*
X23538450Y-46103450D01*
X23535000Y-46116326D01*
X23535000Y-46809518D01*
X23535353Y-46816114D01*
X23540573Y-46864667D01*
X23544111Y-46879641D01*
X23588547Y-46998777D01*
X23596962Y-47014189D01*
X23672498Y-47115092D01*
X23684907Y-47127501D01*
X23785810Y-47203037D01*
X23801222Y-47211452D01*
X23920358Y-47255888D01*
X23935332Y-47259426D01*
X23983885Y-47264646D01*
X23990482Y-47265000D01*
X24353711Y-47265000D01*
X24418501Y-47283273D01*
X24464196Y-47332705D01*
X24477329Y-47398729D01*
X24454029Y-47461885D01*
X24401164Y-47503561D01*
X24291584Y-47548950D01*
X24291579Y-47548952D01*
X24287080Y-47550816D01*
X24282927Y-47553360D01*
X24282921Y-47553364D01*
X24081134Y-47677019D01*
X24081128Y-47677022D01*
X24076977Y-47679567D01*
X24073277Y-47682726D01*
X24073266Y-47682735D01*
X23893308Y-47836434D01*
X23893301Y-47836440D01*
X23889601Y-47839601D01*
X23886440Y-47843301D01*
X23886434Y-47843308D01*
X23732735Y-48023266D01*
X23732726Y-48023277D01*
X23729567Y-48026977D01*
X23727022Y-48031128D01*
X23727019Y-48031134D01*
X23603364Y-48232921D01*
X23603360Y-48232927D01*
X23600816Y-48237080D01*
X23506517Y-48464738D01*
X23505382Y-48469462D01*
X23505379Y-48469474D01*
X23450129Y-48699611D01*
X23450127Y-48699617D01*
X23448993Y-48704345D01*
X23429659Y-48950000D01*
X20000500Y-48950000D01*
X20000500Y-45583674D01*
X23535000Y-45583674D01*
X23538450Y-45596549D01*
X23551326Y-45600000D01*
X24733674Y-45600000D01*
X24746549Y-45596549D01*
X24750000Y-45583674D01*
X25250000Y-45583674D01*
X25253450Y-45596549D01*
X25266326Y-45600000D01*
X26448674Y-45600000D01*
X26461549Y-45596549D01*
X26465000Y-45583674D01*
X33785000Y-45583674D01*
X33788450Y-45596549D01*
X33801326Y-45600000D01*
X34983674Y-45600000D01*
X34996549Y-45596549D01*
X35000000Y-45583674D01*
X35500000Y-45583674D01*
X35503450Y-45596549D01*
X35516326Y-45600000D01*
X36698674Y-45600000D01*
X36711549Y-45596549D01*
X36715000Y-45583674D01*
X36715000Y-44890482D01*
X36714646Y-44883885D01*
X36709426Y-44835332D01*
X36705888Y-44820358D01*
X36661452Y-44701222D01*
X36653037Y-44685810D01*
X36577501Y-44584907D01*
X36565092Y-44572498D01*
X36464189Y-44496962D01*
X36448777Y-44488547D01*
X36329641Y-44444111D01*
X36314667Y-44440573D01*
X36266114Y-44435353D01*
X36259518Y-44435000D01*
X35516326Y-44435000D01*
X35503450Y-44438450D01*
X35500000Y-44451326D01*
X35500000Y-45583674D01*
X35000000Y-45583674D01*
X35000000Y-44451326D01*
X34996549Y-44438450D01*
X34983674Y-44435000D01*
X34240482Y-44435000D01*
X34233885Y-44435353D01*
X34185332Y-44440573D01*
X34170358Y-44444111D01*
X34051222Y-44488547D01*
X34035810Y-44496962D01*
X33934907Y-44572498D01*
X33922498Y-44584907D01*
X33846962Y-44685810D01*
X33838547Y-44701222D01*
X33794111Y-44820358D01*
X33790573Y-44835332D01*
X33785353Y-44883885D01*
X33785000Y-44890482D01*
X33785000Y-45583674D01*
X26465000Y-45583674D01*
X26465000Y-44890482D01*
X26464646Y-44883885D01*
X26459426Y-44835332D01*
X26455888Y-44820358D01*
X26411452Y-44701222D01*
X26403037Y-44685810D01*
X26327501Y-44584907D01*
X26315092Y-44572498D01*
X26214189Y-44496962D01*
X26198777Y-44488547D01*
X26079641Y-44444111D01*
X26064667Y-44440573D01*
X26016114Y-44435353D01*
X26009518Y-44435000D01*
X25266326Y-44435000D01*
X25253450Y-44438450D01*
X25250000Y-44451326D01*
X25250000Y-45583674D01*
X24750000Y-45583674D01*
X24750000Y-44451326D01*
X24746549Y-44438450D01*
X24733674Y-44435000D01*
X23990482Y-44435000D01*
X23983885Y-44435353D01*
X23935332Y-44440573D01*
X23920358Y-44444111D01*
X23801222Y-44488547D01*
X23785810Y-44496962D01*
X23684907Y-44572498D01*
X23672498Y-44584907D01*
X23596962Y-44685810D01*
X23588547Y-44701222D01*
X23544111Y-44820358D01*
X23540573Y-44835332D01*
X23535353Y-44883885D01*
X23535000Y-44890482D01*
X23535000Y-45583674D01*
X20000500Y-45583674D01*
X20000500Y-42580000D01*
X23429659Y-42580000D01*
X23448993Y-42825655D01*
X23450128Y-42830384D01*
X23450129Y-42830388D01*
X23505379Y-43060525D01*
X23505381Y-43060533D01*
X23506517Y-43065262D01*
X23600816Y-43292920D01*
X23729567Y-43503023D01*
X23732731Y-43506728D01*
X23732735Y-43506733D01*
X23886434Y-43686691D01*
X23889601Y-43690399D01*
X23893308Y-43693565D01*
X24073266Y-43847264D01*
X24073269Y-43847266D01*
X24076977Y-43850433D01*
X24287080Y-43979184D01*
X24514738Y-44073483D01*
X24754345Y-44131007D01*
X25000000Y-44150341D01*
X25245655Y-44131007D01*
X25485262Y-44073483D01*
X25712920Y-43979184D01*
X25923023Y-43850433D01*
X26110399Y-43690399D01*
X26270433Y-43503023D01*
X26399184Y-43292920D01*
X26493483Y-43065262D01*
X26551007Y-42825655D01*
X26570341Y-42580000D01*
X33679659Y-42580000D01*
X33698993Y-42825655D01*
X33700128Y-42830384D01*
X33700129Y-42830388D01*
X33755379Y-43060525D01*
X33755381Y-43060533D01*
X33756517Y-43065262D01*
X33850816Y-43292920D01*
X33979567Y-43503023D01*
X33982731Y-43506728D01*
X33982735Y-43506733D01*
X34136434Y-43686691D01*
X34139601Y-43690399D01*
X34143308Y-43693565D01*
X34323266Y-43847264D01*
X34323269Y-43847266D01*
X34326977Y-43850433D01*
X34537080Y-43979184D01*
X34764738Y-44073483D01*
X35004345Y-44131007D01*
X35250000Y-44150341D01*
X35495655Y-44131007D01*
X35735262Y-44073483D01*
X35962920Y-43979184D01*
X36173023Y-43850433D01*
X36360399Y-43690399D01*
X36520433Y-43503023D01*
X36649184Y-43292920D01*
X36743483Y-43065262D01*
X36801007Y-42825655D01*
X36820341Y-42580000D01*
X36801007Y-42334345D01*
X36743483Y-42094738D01*
X36649184Y-41867080D01*
X36520433Y-41656977D01*
X36360399Y-41469601D01*
X36356691Y-41466434D01*
X36176733Y-41312735D01*
X36176728Y-41312731D01*
X36173023Y-41309567D01*
X35962920Y-41180816D01*
X35735262Y-41086517D01*
X35730533Y-41085381D01*
X35730525Y-41085379D01*
X35500388Y-41030129D01*
X35500384Y-41030128D01*
X35495655Y-41028993D01*
X35490802Y-41028611D01*
X35254854Y-41010041D01*
X35250000Y-41009659D01*
X35245146Y-41010041D01*
X35009197Y-41028611D01*
X35009195Y-41028611D01*
X35004345Y-41028993D01*
X34999617Y-41030127D01*
X34999611Y-41030129D01*
X34769474Y-41085379D01*
X34769462Y-41085382D01*
X34764738Y-41086517D01*
X34760241Y-41088379D01*
X34760237Y-41088381D01*
X34541584Y-41178950D01*
X34541579Y-41178952D01*
X34537080Y-41180816D01*
X34532927Y-41183360D01*
X34532921Y-41183364D01*
X34331134Y-41307019D01*
X34331128Y-41307022D01*
X34326977Y-41309567D01*
X34323277Y-41312726D01*
X34323266Y-41312735D01*
X34143308Y-41466434D01*
X34143301Y-41466440D01*
X34139601Y-41469601D01*
X34136440Y-41473301D01*
X34136434Y-41473308D01*
X33982735Y-41653266D01*
X33982726Y-41653277D01*
X33979567Y-41656977D01*
X33977022Y-41661128D01*
X33977019Y-41661134D01*
X33853364Y-41862921D01*
X33853360Y-41862927D01*
X33850816Y-41867080D01*
X33756517Y-42094738D01*
X33755382Y-42099462D01*
X33755379Y-42099474D01*
X33700129Y-42329611D01*
X33700127Y-42329617D01*
X33698993Y-42334345D01*
X33679659Y-42580000D01*
X26570341Y-42580000D01*
X26551007Y-42334345D01*
X26493483Y-42094738D01*
X26399184Y-41867080D01*
X26270433Y-41656977D01*
X26110399Y-41469601D01*
X26106691Y-41466434D01*
X25926733Y-41312735D01*
X25926728Y-41312731D01*
X25923023Y-41309567D01*
X25712920Y-41180816D01*
X25485262Y-41086517D01*
X25480533Y-41085381D01*
X25480525Y-41085379D01*
X25250388Y-41030129D01*
X25250384Y-41030128D01*
X25245655Y-41028993D01*
X25240802Y-41028611D01*
X25004854Y-41010041D01*
X25000000Y-41009659D01*
X24995146Y-41010041D01*
X24759197Y-41028611D01*
X24759195Y-41028611D01*
X24754345Y-41028993D01*
X24749617Y-41030127D01*
X24749611Y-41030129D01*
X24519474Y-41085379D01*
X24519462Y-41085382D01*
X24514738Y-41086517D01*
X24510241Y-41088379D01*
X24510237Y-41088381D01*
X24291584Y-41178950D01*
X24291579Y-41178952D01*
X24287080Y-41180816D01*
X24282927Y-41183360D01*
X24282921Y-41183364D01*
X24081134Y-41307019D01*
X24081128Y-41307022D01*
X24076977Y-41309567D01*
X24073277Y-41312726D01*
X24073266Y-41312735D01*
X23893308Y-41466434D01*
X23893301Y-41466440D01*
X23889601Y-41469601D01*
X23886440Y-41473301D01*
X23886434Y-41473308D01*
X23732735Y-41653266D01*
X23732726Y-41653277D01*
X23729567Y-41656977D01*
X23727022Y-41661128D01*
X23727019Y-41661134D01*
X23603364Y-41862921D01*
X23603360Y-41862927D01*
X23600816Y-41867080D01*
X23506517Y-42094738D01*
X23505382Y-42099462D01*
X23505379Y-42099474D01*
X23450129Y-42329611D01*
X23450127Y-42329617D01*
X23448993Y-42334345D01*
X23429659Y-42580000D01*
X20000500Y-42580000D01*
X20000500Y-37660000D01*
X23494859Y-37660000D01*
X23494939Y-37663292D01*
X23494939Y-37663308D01*
X23496575Y-37730226D01*
X23496656Y-37733526D01*
X23497086Y-37736799D01*
X23497087Y-37736800D01*
X23528186Y-37973027D01*
X23528187Y-37973033D01*
X23528851Y-37978074D01*
X23600555Y-38214079D01*
X23709842Y-38435205D01*
X23853777Y-38635512D01*
X23857382Y-38639105D01*
X23857386Y-38639109D01*
X24024890Y-38806029D01*
X24028495Y-38809621D01*
X24229303Y-38952856D01*
X24450809Y-39061370D01*
X24687064Y-39132250D01*
X24692104Y-39132895D01*
X24692106Y-39132896D01*
X24926679Y-39162946D01*
X24931722Y-39163592D01*
X25178215Y-39154553D01*
X25419921Y-39105377D01*
X25650350Y-39017385D01*
X25863313Y-38892939D01*
X26053092Y-38735382D01*
X26214589Y-38548945D01*
X26343468Y-38338634D01*
X26436266Y-38110099D01*
X26490493Y-37869475D01*
X26502572Y-37660000D01*
X33744859Y-37660000D01*
X33744939Y-37663292D01*
X33744939Y-37663308D01*
X33746575Y-37730226D01*
X33746656Y-37733526D01*
X33747086Y-37736799D01*
X33747087Y-37736800D01*
X33778186Y-37973027D01*
X33778187Y-37973033D01*
X33778851Y-37978074D01*
X33850555Y-38214079D01*
X33959842Y-38435205D01*
X34103777Y-38635512D01*
X34107382Y-38639105D01*
X34107386Y-38639109D01*
X34274890Y-38806029D01*
X34278495Y-38809621D01*
X34479303Y-38952856D01*
X34700809Y-39061370D01*
X34937064Y-39132250D01*
X34942104Y-39132895D01*
X34942106Y-39132896D01*
X35176679Y-39162946D01*
X35181722Y-39163592D01*
X35428215Y-39154553D01*
X35669921Y-39105377D01*
X35900350Y-39017385D01*
X36113313Y-38892939D01*
X36303092Y-38735382D01*
X36464589Y-38548945D01*
X36593468Y-38338634D01*
X36686266Y-38110099D01*
X36740493Y-37869475D01*
X36754692Y-37623226D01*
X36728481Y-37377965D01*
X36662564Y-37140278D01*
X36558712Y-36916548D01*
X36419714Y-36712784D01*
X36276548Y-36562968D01*
X36252820Y-36538138D01*
X36252817Y-36538136D01*
X36249303Y-36534458D01*
X36245235Y-36531403D01*
X36245232Y-36531401D01*
X36056123Y-36389415D01*
X36056122Y-36389414D01*
X36052054Y-36386360D01*
X35866161Y-36289590D01*
X35837779Y-36274815D01*
X35837775Y-36274813D01*
X35833266Y-36272466D01*
X35828433Y-36270886D01*
X35828430Y-36270885D01*
X35603651Y-36197416D01*
X35603647Y-36197415D01*
X35598813Y-36195835D01*
X35593784Y-36195065D01*
X35593778Y-36195064D01*
X35360028Y-36159295D01*
X35360022Y-36159294D01*
X35354993Y-36158525D01*
X35349904Y-36158587D01*
X35349902Y-36158587D01*
X35113438Y-36161476D01*
X35113427Y-36161477D01*
X35108354Y-36161539D01*
X35103349Y-36162430D01*
X35103343Y-36162431D01*
X34870531Y-36203900D01*
X34870518Y-36203903D01*
X34865518Y-36204794D01*
X34860718Y-36206493D01*
X34860717Y-36206494D01*
X34637809Y-36285430D01*
X34637799Y-36285434D01*
X34633008Y-36287131D01*
X34628555Y-36289588D01*
X34628553Y-36289590D01*
X34421517Y-36403879D01*
X34421507Y-36403885D01*
X34417068Y-36406336D01*
X34413084Y-36409482D01*
X34413077Y-36409487D01*
X34227484Y-36556060D01*
X34227480Y-36556063D01*
X34223496Y-36559210D01*
X34220084Y-36562958D01*
X34220075Y-36562968D01*
X34060914Y-36737883D01*
X34060907Y-36737891D01*
X34057492Y-36741645D01*
X34054735Y-36745905D01*
X34054730Y-36745913D01*
X33926274Y-36944476D01*
X33926268Y-36944485D01*
X33923514Y-36948744D01*
X33921490Y-36953397D01*
X33921485Y-36953408D01*
X33838100Y-37145183D01*
X33825159Y-37174945D01*
X33823919Y-37179879D01*
X33823919Y-37179881D01*
X33766310Y-37409231D01*
X33766308Y-37409240D01*
X33765070Y-37414171D01*
X33764653Y-37419234D01*
X33764652Y-37419245D01*
X33745130Y-37656701D01*
X33744859Y-37660000D01*
X26502572Y-37660000D01*
X26504692Y-37623226D01*
X26478481Y-37377965D01*
X26412564Y-37140278D01*
X26308712Y-36916548D01*
X26169714Y-36712784D01*
X26026548Y-36562968D01*
X26002820Y-36538138D01*
X26002817Y-36538136D01*
X25999303Y-36534458D01*
X25995235Y-36531403D01*
X25995232Y-36531401D01*
X25806123Y-36389415D01*
X25806122Y-36389414D01*
X25802054Y-36386360D01*
X25616161Y-36289590D01*
X25587779Y-36274815D01*
X25587775Y-36274813D01*
X25583266Y-36272466D01*
X25578433Y-36270886D01*
X25578430Y-36270885D01*
X25353651Y-36197416D01*
X25353647Y-36197415D01*
X25348813Y-36195835D01*
X25343784Y-36195065D01*
X25343778Y-36195064D01*
X25110028Y-36159295D01*
X25110022Y-36159294D01*
X25104993Y-36158525D01*
X25099904Y-36158587D01*
X25099902Y-36158587D01*
X24863438Y-36161476D01*
X24863427Y-36161477D01*
X24858354Y-36161539D01*
X24853349Y-36162430D01*
X24853343Y-36162431D01*
X24620531Y-36203900D01*
X24620518Y-36203903D01*
X24615518Y-36204794D01*
X24610718Y-36206493D01*
X24610717Y-36206494D01*
X24387809Y-36285430D01*
X24387799Y-36285434D01*
X24383008Y-36287131D01*
X24378555Y-36289588D01*
X24378553Y-36289590D01*
X24171517Y-36403879D01*
X24171507Y-36403885D01*
X24167068Y-36406336D01*
X24163084Y-36409482D01*
X24163077Y-36409487D01*
X23977484Y-36556060D01*
X23977480Y-36556063D01*
X23973496Y-36559210D01*
X23970084Y-36562958D01*
X23970075Y-36562968D01*
X23810914Y-36737883D01*
X23810907Y-36737891D01*
X23807492Y-36741645D01*
X23804735Y-36745905D01*
X23804730Y-36745913D01*
X23676274Y-36944476D01*
X23676268Y-36944485D01*
X23673514Y-36948744D01*
X23671490Y-36953397D01*
X23671485Y-36953408D01*
X23588100Y-37145183D01*
X23575159Y-37174945D01*
X23573919Y-37179879D01*
X23573919Y-37179881D01*
X23516310Y-37409231D01*
X23516308Y-37409240D01*
X23515070Y-37414171D01*
X23514653Y-37419234D01*
X23514652Y-37419245D01*
X23495130Y-37656701D01*
X23494859Y-37660000D01*
X20000500Y-37660000D01*
X20000500Y-34280000D01*
X23429659Y-34280000D01*
X23448993Y-34525655D01*
X23450128Y-34530384D01*
X23450129Y-34530388D01*
X23505379Y-34760525D01*
X23505381Y-34760533D01*
X23506517Y-34765262D01*
X23600816Y-34992920D01*
X23729567Y-35203023D01*
X23732731Y-35206728D01*
X23732735Y-35206733D01*
X23886434Y-35386691D01*
X23889601Y-35390399D01*
X23893308Y-35393565D01*
X24073266Y-35547264D01*
X24073269Y-35547266D01*
X24076977Y-35550433D01*
X24287080Y-35679184D01*
X24514738Y-35773483D01*
X24754345Y-35831007D01*
X25000000Y-35850341D01*
X25245655Y-35831007D01*
X25485262Y-35773483D01*
X25712920Y-35679184D01*
X25923023Y-35550433D01*
X26110399Y-35390399D01*
X26270433Y-35203023D01*
X26399184Y-34992920D01*
X26493483Y-34765262D01*
X26551007Y-34525655D01*
X26570341Y-34280000D01*
X33679659Y-34280000D01*
X33698993Y-34525655D01*
X33700128Y-34530384D01*
X33700129Y-34530388D01*
X33755379Y-34760525D01*
X33755381Y-34760533D01*
X33756517Y-34765262D01*
X33850816Y-34992920D01*
X33979567Y-35203023D01*
X33982731Y-35206728D01*
X33982735Y-35206733D01*
X34136434Y-35386691D01*
X34139601Y-35390399D01*
X34143308Y-35393565D01*
X34323266Y-35547264D01*
X34323269Y-35547266D01*
X34326977Y-35550433D01*
X34537080Y-35679184D01*
X34764738Y-35773483D01*
X35004345Y-35831007D01*
X35250000Y-35850341D01*
X35495655Y-35831007D01*
X35735262Y-35773483D01*
X35962920Y-35679184D01*
X36173023Y-35550433D01*
X36360399Y-35390399D01*
X36520433Y-35203023D01*
X36649184Y-34992920D01*
X36743483Y-34765262D01*
X36801007Y-34525655D01*
X36820341Y-34280000D01*
X36801007Y-34034345D01*
X36743483Y-33794738D01*
X36649184Y-33567080D01*
X36520433Y-33356977D01*
X36360399Y-33169601D01*
X36356691Y-33166434D01*
X36176733Y-33012735D01*
X36176728Y-33012731D01*
X36173023Y-33009567D01*
X35962920Y-32880816D01*
X35848835Y-32833560D01*
X35795971Y-32791885D01*
X35772671Y-32728729D01*
X35785804Y-32662705D01*
X35831499Y-32613273D01*
X35896289Y-32595000D01*
X36259518Y-32595000D01*
X36266114Y-32594646D01*
X36314667Y-32589426D01*
X36329641Y-32585888D01*
X36448777Y-32541452D01*
X36464189Y-32533037D01*
X36565092Y-32457501D01*
X36577501Y-32445092D01*
X36653037Y-32344189D01*
X36661452Y-32328777D01*
X36705888Y-32209641D01*
X36709426Y-32194667D01*
X36714646Y-32146114D01*
X36715000Y-32139518D01*
X36715000Y-31446326D01*
X36711549Y-31433450D01*
X36698674Y-31430000D01*
X33801326Y-31430000D01*
X33788450Y-31433450D01*
X33785000Y-31446326D01*
X33785000Y-32139518D01*
X33785353Y-32146114D01*
X33790573Y-32194667D01*
X33794111Y-32209641D01*
X33838547Y-32328777D01*
X33846962Y-32344189D01*
X33922498Y-32445092D01*
X33934907Y-32457501D01*
X34035810Y-32533037D01*
X34051222Y-32541452D01*
X34170358Y-32585888D01*
X34185332Y-32589426D01*
X34233885Y-32594646D01*
X34240482Y-32595000D01*
X34603711Y-32595000D01*
X34668501Y-32613273D01*
X34714196Y-32662705D01*
X34727329Y-32728729D01*
X34704029Y-32791885D01*
X34651164Y-32833561D01*
X34541584Y-32878950D01*
X34541579Y-32878952D01*
X34537080Y-32880816D01*
X34532927Y-32883360D01*
X34532921Y-32883364D01*
X34331134Y-33007019D01*
X34331128Y-33007022D01*
X34326977Y-33009567D01*
X34323277Y-33012726D01*
X34323266Y-33012735D01*
X34143308Y-33166434D01*
X34143301Y-33166440D01*
X34139601Y-33169601D01*
X34136440Y-33173301D01*
X34136434Y-33173308D01*
X33982735Y-33353266D01*
X33982726Y-33353277D01*
X33979567Y-33356977D01*
X33977022Y-33361128D01*
X33977019Y-33361134D01*
X33853364Y-33562921D01*
X33853360Y-33562927D01*
X33850816Y-33567080D01*
X33756517Y-33794738D01*
X33755382Y-33799462D01*
X33755379Y-33799474D01*
X33700129Y-34029611D01*
X33700127Y-34029617D01*
X33698993Y-34034345D01*
X33679659Y-34280000D01*
X26570341Y-34280000D01*
X26551007Y-34034345D01*
X26493483Y-33794738D01*
X26399184Y-33567080D01*
X26270433Y-33356977D01*
X26110399Y-33169601D01*
X26106691Y-33166434D01*
X25926733Y-33012735D01*
X25926728Y-33012731D01*
X25923023Y-33009567D01*
X25712920Y-32880816D01*
X25598835Y-32833560D01*
X25545971Y-32791885D01*
X25522671Y-32728729D01*
X25535804Y-32662705D01*
X25581499Y-32613273D01*
X25646289Y-32595000D01*
X26009518Y-32595000D01*
X26016114Y-32594646D01*
X26064667Y-32589426D01*
X26079641Y-32585888D01*
X26198777Y-32541452D01*
X26214189Y-32533037D01*
X26315092Y-32457501D01*
X26327501Y-32445092D01*
X26403037Y-32344189D01*
X26411452Y-32328777D01*
X26455888Y-32209641D01*
X26459426Y-32194667D01*
X26464646Y-32146114D01*
X26465000Y-32139518D01*
X26465000Y-31446326D01*
X26461549Y-31433450D01*
X26448674Y-31430000D01*
X23551326Y-31430000D01*
X23538450Y-31433450D01*
X23535000Y-31446326D01*
X23535000Y-32139518D01*
X23535353Y-32146114D01*
X23540573Y-32194667D01*
X23544111Y-32209641D01*
X23588547Y-32328777D01*
X23596962Y-32344189D01*
X23672498Y-32445092D01*
X23684907Y-32457501D01*
X23785810Y-32533037D01*
X23801222Y-32541452D01*
X23920358Y-32585888D01*
X23935332Y-32589426D01*
X23983885Y-32594646D01*
X23990482Y-32595000D01*
X24353711Y-32595000D01*
X24418501Y-32613273D01*
X24464196Y-32662705D01*
X24477329Y-32728729D01*
X24454029Y-32791885D01*
X24401164Y-32833561D01*
X24291584Y-32878950D01*
X24291579Y-32878952D01*
X24287080Y-32880816D01*
X24282927Y-32883360D01*
X24282921Y-32883364D01*
X24081134Y-33007019D01*
X24081128Y-33007022D01*
X24076977Y-33009567D01*
X24073277Y-33012726D01*
X24073266Y-33012735D01*
X23893308Y-33166434D01*
X23893301Y-33166440D01*
X23889601Y-33169601D01*
X23886440Y-33173301D01*
X23886434Y-33173308D01*
X23732735Y-33353266D01*
X23732726Y-33353277D01*
X23729567Y-33356977D01*
X23727022Y-33361128D01*
X23727019Y-33361134D01*
X23603364Y-33562921D01*
X23603360Y-33562927D01*
X23600816Y-33567080D01*
X23506517Y-33794738D01*
X23505382Y-33799462D01*
X23505379Y-33799474D01*
X23450129Y-34029611D01*
X23450127Y-34029617D01*
X23448993Y-34034345D01*
X23429659Y-34280000D01*
X20000500Y-34280000D01*
X20000500Y-30913674D01*
X23535000Y-30913674D01*
X23538450Y-30926549D01*
X23551326Y-30930000D01*
X24733674Y-30930000D01*
X24746549Y-30926549D01*
X24750000Y-30913674D01*
X25250000Y-30913674D01*
X25253450Y-30926549D01*
X25266326Y-30930000D01*
X26448674Y-30930000D01*
X26461549Y-30926549D01*
X26465000Y-30913674D01*
X33785000Y-30913674D01*
X33788450Y-30926549D01*
X33801326Y-30930000D01*
X34983674Y-30930000D01*
X34996549Y-30926549D01*
X35000000Y-30913674D01*
X35500000Y-30913674D01*
X35503450Y-30926549D01*
X35516326Y-30930000D01*
X36698674Y-30930000D01*
X36711549Y-30926549D01*
X36715000Y-30913674D01*
X36715000Y-30220482D01*
X36714646Y-30213885D01*
X36709426Y-30165332D01*
X36705888Y-30150358D01*
X36661452Y-30031222D01*
X36653037Y-30015810D01*
X36577501Y-29914907D01*
X36565092Y-29902498D01*
X36464189Y-29826962D01*
X36448777Y-29818547D01*
X36329641Y-29774111D01*
X36314667Y-29770573D01*
X36266114Y-29765353D01*
X36259518Y-29765000D01*
X35516326Y-29765000D01*
X35503450Y-29768450D01*
X35500000Y-29781326D01*
X35500000Y-30913674D01*
X35000000Y-30913674D01*
X35000000Y-29781326D01*
X34996549Y-29768450D01*
X34983674Y-29765000D01*
X34240482Y-29765000D01*
X34233885Y-29765353D01*
X34185332Y-29770573D01*
X34170358Y-29774111D01*
X34051222Y-29818547D01*
X34035810Y-29826962D01*
X33934907Y-29902498D01*
X33922498Y-29914907D01*
X33846962Y-30015810D01*
X33838547Y-30031222D01*
X33794111Y-30150358D01*
X33790573Y-30165332D01*
X33785353Y-30213885D01*
X33785000Y-30220482D01*
X33785000Y-30913674D01*
X26465000Y-30913674D01*
X26465000Y-30220482D01*
X26464646Y-30213885D01*
X26459426Y-30165332D01*
X26455888Y-30150358D01*
X26411452Y-30031222D01*
X26403037Y-30015810D01*
X26327501Y-29914907D01*
X26315092Y-29902498D01*
X26214189Y-29826962D01*
X26198777Y-29818547D01*
X26079641Y-29774111D01*
X26064667Y-29770573D01*
X26016114Y-29765353D01*
X26009518Y-29765000D01*
X25266326Y-29765000D01*
X25253450Y-29768450D01*
X25250000Y-29781326D01*
X25250000Y-30913674D01*
X24750000Y-30913674D01*
X24750000Y-29781326D01*
X24746549Y-29768450D01*
X24733674Y-29765000D01*
X23990482Y-29765000D01*
X23983885Y-29765353D01*
X23935332Y-29770573D01*
X23920358Y-29774111D01*
X23801222Y-29818547D01*
X23785810Y-29826962D01*
X23684907Y-29902498D01*
X23672498Y-29914907D01*
X23596962Y-30015810D01*
X23588547Y-30031222D01*
X23544111Y-30150358D01*
X23540573Y-30165332D01*
X23535353Y-30213885D01*
X23535000Y-30220482D01*
X23535000Y-30913674D01*
X20000500Y-30913674D01*
X20000500Y-29000000D01*
X21499459Y-29000000D01*
X21499617Y-29000383D01*
X21499901Y-29000500D01*
X24487944Y-29000500D01*
X24500099Y-29000500D01*
X24500383Y-29000383D01*
X24500541Y-29000000D01*
X26499459Y-29000000D01*
X26499617Y-29000383D01*
X26499901Y-29000500D01*
X29487944Y-29000500D01*
X29500099Y-29000500D01*
X29500383Y-29000383D01*
X29500541Y-29000000D01*
X31499459Y-29000000D01*
X31499617Y-29000383D01*
X31499901Y-29000500D01*
X34487944Y-29000500D01*
X34500099Y-29000500D01*
X34500383Y-29000383D01*
X34500541Y-29000000D01*
X36499459Y-29000000D01*
X36499617Y-29000383D01*
X36499901Y-29000500D01*
X39487944Y-29000500D01*
X39500099Y-29000500D01*
X39500383Y-29000383D01*
X39500541Y-29000000D01*
X39500383Y-28999617D01*
X39500099Y-28999500D01*
X36499901Y-28999500D01*
X36499617Y-28999617D01*
X36499459Y-29000000D01*
X34500541Y-29000000D01*
X34500383Y-28999617D01*
X34500099Y-28999500D01*
X31499901Y-28999500D01*
X31499617Y-28999617D01*
X31499459Y-29000000D01*
X29500541Y-29000000D01*
X29500383Y-28999617D01*
X29500099Y-28999500D01*
X26499901Y-28999500D01*
X26499617Y-28999617D01*
X26499459Y-29000000D01*
X24500541Y-29000000D01*
X24500383Y-28999617D01*
X24500099Y-28999500D01*
X21499901Y-28999500D01*
X21499617Y-28999617D01*
X21499459Y-29000000D01*
X20000500Y-29000000D01*
X20000500Y-23000000D01*
X25074551Y-23000000D01*
X25094317Y-23251148D01*
X25095452Y-23255877D01*
X25095453Y-23255881D01*
X25151989Y-23491374D01*
X25151991Y-23491382D01*
X25153127Y-23496111D01*
X25249534Y-23728859D01*
X25252081Y-23733016D01*
X25252082Y-23733017D01*
X25378617Y-23939504D01*
X25378622Y-23939511D01*
X25381164Y-23943659D01*
X25384324Y-23947358D01*
X25384327Y-23947363D01*
X25534845Y-24123596D01*
X25544776Y-24135224D01*
X25548476Y-24138384D01*
X25730705Y-24294023D01*
X25736341Y-24298836D01*
X25740491Y-24301379D01*
X25740495Y-24301382D01*
X25852300Y-24369896D01*
X25951141Y-24430466D01*
X26183889Y-24526873D01*
X26428852Y-24585683D01*
X26680000Y-24605449D01*
X26931148Y-24585683D01*
X27176111Y-24526873D01*
X27408859Y-24430466D01*
X27623659Y-24298836D01*
X27815224Y-24135224D01*
X27978836Y-23943659D01*
X28110466Y-23728859D01*
X28206873Y-23496111D01*
X28265683Y-23251148D01*
X28285449Y-23000000D01*
X32034551Y-23000000D01*
X32054317Y-23251148D01*
X32055452Y-23255877D01*
X32055453Y-23255881D01*
X32111989Y-23491374D01*
X32111991Y-23491382D01*
X32113127Y-23496111D01*
X32209534Y-23728859D01*
X32212081Y-23733016D01*
X32212082Y-23733017D01*
X32338617Y-23939504D01*
X32338622Y-23939511D01*
X32341164Y-23943659D01*
X32344324Y-23947358D01*
X32344327Y-23947363D01*
X32494845Y-24123596D01*
X32504776Y-24135224D01*
X32508476Y-24138384D01*
X32690705Y-24294023D01*
X32696341Y-24298836D01*
X32700491Y-24301379D01*
X32700495Y-24301382D01*
X32812300Y-24369896D01*
X32911141Y-24430466D01*
X33143889Y-24526873D01*
X33388852Y-24585683D01*
X33640000Y-24605449D01*
X33891148Y-24585683D01*
X34136111Y-24526873D01*
X34368859Y-24430466D01*
X34583659Y-24298836D01*
X34775224Y-24135224D01*
X34938836Y-23943659D01*
X35070466Y-23728859D01*
X35166873Y-23496111D01*
X35225683Y-23251148D01*
X35245449Y-23000000D01*
X35225683Y-22748852D01*
X35166873Y-22503889D01*
X35070466Y-22271141D01*
X34938836Y-22056341D01*
X34775224Y-21864776D01*
X34771523Y-21861615D01*
X34587363Y-21704327D01*
X34587358Y-21704324D01*
X34583659Y-21701164D01*
X34579511Y-21698622D01*
X34579504Y-21698617D01*
X34373017Y-21572082D01*
X34373016Y-21572081D01*
X34368859Y-21569534D01*
X34136111Y-21473127D01*
X34131382Y-21471991D01*
X34131374Y-21471989D01*
X33895881Y-21415453D01*
X33895877Y-21415452D01*
X33891148Y-21414317D01*
X33886295Y-21413935D01*
X33644854Y-21394933D01*
X33640000Y-21394551D01*
X33635146Y-21394933D01*
X33393704Y-21413935D01*
X33393702Y-21413935D01*
X33388852Y-21414317D01*
X33384124Y-21415451D01*
X33384118Y-21415453D01*
X33148625Y-21471989D01*
X33148613Y-21471992D01*
X33143889Y-21473127D01*
X33139392Y-21474989D01*
X33139388Y-21474991D01*
X32915645Y-21567668D01*
X32915640Y-21567670D01*
X32911141Y-21569534D01*
X32906988Y-21572078D01*
X32906982Y-21572082D01*
X32700495Y-21698617D01*
X32700482Y-21698626D01*
X32696341Y-21701164D01*
X32692646Y-21704319D01*
X32692636Y-21704327D01*
X32508476Y-21861615D01*
X32508469Y-21861621D01*
X32504776Y-21864776D01*
X32501621Y-21868469D01*
X32501615Y-21868476D01*
X32344327Y-22052636D01*
X32344319Y-22052646D01*
X32341164Y-22056341D01*
X32338626Y-22060482D01*
X32338617Y-22060495D01*
X32212082Y-22266982D01*
X32212078Y-22266988D01*
X32209534Y-22271141D01*
X32207670Y-22275640D01*
X32207668Y-22275645D01*
X32114991Y-22499388D01*
X32113127Y-22503889D01*
X32111992Y-22508613D01*
X32111989Y-22508625D01*
X32055453Y-22744118D01*
X32055451Y-22744124D01*
X32054317Y-22748852D01*
X32034551Y-23000000D01*
X28285449Y-23000000D01*
X28265683Y-22748852D01*
X28206873Y-22503889D01*
X28110466Y-22271141D01*
X27978836Y-22056341D01*
X27815224Y-21864776D01*
X27811523Y-21861615D01*
X27627363Y-21704327D01*
X27627358Y-21704324D01*
X27623659Y-21701164D01*
X27619511Y-21698622D01*
X27619504Y-21698617D01*
X27413017Y-21572082D01*
X27413016Y-21572081D01*
X27408859Y-21569534D01*
X27176111Y-21473127D01*
X27171382Y-21471991D01*
X27171374Y-21471989D01*
X26935881Y-21415453D01*
X26935877Y-21415452D01*
X26931148Y-21414317D01*
X26926295Y-21413935D01*
X26684854Y-21394933D01*
X26680000Y-21394551D01*
X26675146Y-21394933D01*
X26433704Y-21413935D01*
X26433702Y-21413935D01*
X26428852Y-21414317D01*
X26424124Y-21415451D01*
X26424118Y-21415453D01*
X26188625Y-21471989D01*
X26188613Y-21471992D01*
X26183889Y-21473127D01*
X26179392Y-21474989D01*
X26179388Y-21474991D01*
X25955645Y-21567668D01*
X25955640Y-21567670D01*
X25951141Y-21569534D01*
X25946988Y-21572078D01*
X25946982Y-21572082D01*
X25740495Y-21698617D01*
X25740482Y-21698626D01*
X25736341Y-21701164D01*
X25732646Y-21704319D01*
X25732636Y-21704327D01*
X25548476Y-21861615D01*
X25548469Y-21861621D01*
X25544776Y-21864776D01*
X25541621Y-21868469D01*
X25541615Y-21868476D01*
X25384327Y-22052636D01*
X25384319Y-22052646D01*
X25381164Y-22056341D01*
X25378626Y-22060482D01*
X25378617Y-22060495D01*
X25252082Y-22266982D01*
X25252078Y-22266988D01*
X25249534Y-22271141D01*
X25247670Y-22275640D01*
X25247668Y-22275645D01*
X25154991Y-22499388D01*
X25153127Y-22503889D01*
X25151992Y-22508613D01*
X25151989Y-22508625D01*
X25095453Y-22744118D01*
X25095451Y-22744124D01*
X25094317Y-22748852D01*
X25074551Y-23000000D01*
X20000500Y-23000000D01*
X20000500Y-20124500D01*
X20017113Y-20062500D01*
X20062500Y-20017113D01*
X20124500Y-20000500D01*
X40195500Y-20000500D01*
X40257500Y-20017113D01*
G37*
%TD.AperFunction*%
%TD*%
M02*
