%TF.GenerationSoftware,KiCad,Pcbnew,(7.0.0)*%
%TF.CreationDate,2023-03-06T17:31:15-08:00*%
%TF.ProjectId,passive mult,70617373-6976-4652-906d-756c742e6b69,rev?*%
%TF.SameCoordinates,Original*%
%TF.FileFunction,Soldermask,Top*%
%TF.FilePolarity,Negative*%
%FSLAX46Y46*%
G04 Gerber Fmt 4.6, Leading zero omitted, Abs format (unit mm)*
G04 Created by KiCad (PCBNEW (7.0.0)) date 2023-03-06 17:31:15*
%MOMM*%
%LPD*%
G01*
G04 APERTURE LIST*
%ADD10R,1.000000X3.150000*%
%ADD11R,1.930000X1.830000*%
%ADD12C,2.130000*%
G04 APERTURE END LIST*
D10*
%TO.C,J1*%
X22509999Y-132549999D03*
X22509999Y-127499999D03*
X25049999Y-132549999D03*
X25049999Y-127499999D03*
X27589999Y-132549999D03*
X27589999Y-127499999D03*
X30129999Y-132549999D03*
X30129999Y-127499999D03*
X32669999Y-132549999D03*
X32669999Y-127499999D03*
X35209999Y-132549999D03*
X35209999Y-127499999D03*
X37749999Y-132549999D03*
X37749999Y-127499999D03*
%TD*%
D11*
%TO.C,J10*%
X35249999Y-95099999D03*
D12*
X35250000Y-106500000D03*
X35250000Y-98200000D03*
%TD*%
D11*
%TO.C,J8*%
X35249999Y-77149999D03*
D12*
X35250000Y-88550000D03*
X35250000Y-80250000D03*
%TD*%
D11*
%TO.C,J7*%
X24999999Y-62469999D03*
D12*
X25000000Y-73870000D03*
X25000000Y-65570000D03*
%TD*%
D11*
%TO.C,J12*%
X35249999Y-109749999D03*
D12*
X35250000Y-121150000D03*
X35250000Y-112850000D03*
%TD*%
D11*
%TO.C,J11*%
X24999999Y-95099999D03*
D12*
X25000000Y-106500000D03*
X25000000Y-98200000D03*
%TD*%
D11*
%TO.C,J13*%
X24999999Y-109749999D03*
D12*
X25000000Y-121150000D03*
X25000000Y-112850000D03*
%TD*%
D11*
%TO.C,J9*%
X24999999Y-77149999D03*
D12*
X25000000Y-88550000D03*
X25000000Y-80250000D03*
%TD*%
D11*
%TO.C,J4*%
X35249999Y-45849999D03*
D12*
X35250000Y-57250000D03*
X35250000Y-48950000D03*
%TD*%
D11*
%TO.C,J6*%
X35249999Y-62469999D03*
D12*
X35250000Y-73870000D03*
X35250000Y-65570000D03*
%TD*%
D11*
%TO.C,J5*%
X24999999Y-45849999D03*
D12*
X25000000Y-57250000D03*
X25000000Y-48950000D03*
%TD*%
D11*
%TO.C,J2*%
X35249999Y-31179999D03*
D12*
X35250000Y-42580000D03*
X35250000Y-34280000D03*
%TD*%
D11*
%TO.C,J3*%
X24999999Y-31179999D03*
D12*
X25000000Y-42580000D03*
X25000000Y-34280000D03*
%TD*%
M02*
