%TF.GenerationSoftware,KiCad,Pcbnew,(7.0.0)*%
%TF.CreationDate,2023-03-06T17:31:15-08:00*%
%TF.ProjectId,passive mult,70617373-6976-4652-906d-756c742e6b69,rev?*%
%TF.SameCoordinates,Original*%
%TF.FileFunction,Copper,L1,Top*%
%TF.FilePolarity,Positive*%
%FSLAX46Y46*%
G04 Gerber Fmt 4.6, Leading zero omitted, Abs format (unit mm)*
G04 Created by KiCad (PCBNEW (7.0.0)) date 2023-03-06 17:31:15*
%MOMM*%
%LPD*%
G01*
G04 APERTURE LIST*
%TA.AperFunction,SMDPad,CuDef*%
%ADD10R,1.000000X3.150000*%
%TD*%
%TA.AperFunction,ComponentPad*%
%ADD11R,1.930000X1.830000*%
%TD*%
%TA.AperFunction,ComponentPad*%
%ADD12C,2.130000*%
%TD*%
%TA.AperFunction,Conductor*%
%ADD13C,0.250000*%
%TD*%
G04 APERTURE END LIST*
D10*
%TO.P,J1,1,-12v_R*%
%TO.N,unconnected-(J1--12v_R-Pad1)*%
X22509999Y-132549999D03*
%TO.P,J1,2,-12v_L*%
%TO.N,unconnected-(J1--12v_L-Pad2)*%
X22509999Y-127499999D03*
%TO.P,J1,3,GND*%
%TO.N,GND*%
X25049999Y-132549999D03*
%TO.P,J1,4,GND*%
X25049999Y-127499999D03*
%TO.P,J1,5,GND_R3*%
X27589999Y-132549999D03*
%TO.P,J1,6,GND_L3*%
X27589999Y-127499999D03*
%TO.P,J1,7,GND_R2*%
X30129999Y-132549999D03*
%TO.P,J1,8,GND_L2*%
X30129999Y-127499999D03*
%TO.P,J1,9,+12V_R*%
%TO.N,unconnected-(J1-+12V_R-Pad9)*%
X32669999Y-132549999D03*
%TO.P,J1,10,+12V_L*%
%TO.N,unconnected-(J1-+12V_L-Pad10)*%
X32669999Y-127499999D03*
%TO.P,J1,11,+5v_R*%
%TO.N,unconnected-(J1-+5v_R-Pad11)*%
X35209999Y-132549999D03*
%TO.P,J1,12,+5v_L*%
%TO.N,unconnected-(J1-+5v_L-Pad12)*%
X35209999Y-127499999D03*
%TO.P,J1,13,CV_R*%
%TO.N,unconnected-(J1-CV_R-Pad13)*%
X37749999Y-132549999D03*
%TO.P,J1,14,CV_L*%
%TO.N,unconnected-(J1-CV_L-Pad14)*%
X37749999Y-127499999D03*
%TD*%
D11*
%TO.P,J10,S*%
%TO.N,GND*%
X35249999Y-95099999D03*
D12*
%TO.P,J10,T*%
%TO.N,Net-(J10-PadT)*%
X35250000Y-106500000D03*
%TO.P,J10,TN*%
%TO.N,unconnected-(J10-PadTN)*%
X35250000Y-98200000D03*
%TD*%
D11*
%TO.P,J8,S*%
%TO.N,GND*%
X35249999Y-77149999D03*
D12*
%TO.P,J8,T*%
%TO.N,Net-(J6-PadT)*%
X35250000Y-88550000D03*
%TO.P,J8,TN*%
%TO.N,unconnected-(J8-PadTN)*%
X35250000Y-80250000D03*
%TD*%
D11*
%TO.P,J7,S*%
%TO.N,GND*%
X24999999Y-62469999D03*
D12*
%TO.P,J7,T*%
%TO.N,Net-(J6-PadT)*%
X25000000Y-73870000D03*
%TO.P,J7,TN*%
%TO.N,unconnected-(J7-PadTN)*%
X25000000Y-65570000D03*
%TD*%
D11*
%TO.P,J12,S*%
%TO.N,GND*%
X35249999Y-109749999D03*
D12*
%TO.P,J12,T*%
%TO.N,Net-(J10-PadT)*%
X35250000Y-121150000D03*
%TO.P,J12,TN*%
%TO.N,unconnected-(J12-PadTN)*%
X35250000Y-112850000D03*
%TD*%
D11*
%TO.P,J11,S*%
%TO.N,GND*%
X24999999Y-95099999D03*
D12*
%TO.P,J11,T*%
%TO.N,Net-(J10-PadT)*%
X25000000Y-106500000D03*
%TO.P,J11,TN*%
%TO.N,unconnected-(J11-PadTN)*%
X25000000Y-98200000D03*
%TD*%
D11*
%TO.P,J13,S*%
%TO.N,GND*%
X24999999Y-109749999D03*
D12*
%TO.P,J13,T*%
%TO.N,Net-(J10-PadT)*%
X25000000Y-121150000D03*
%TO.P,J13,TN*%
%TO.N,unconnected-(J13-PadTN)*%
X25000000Y-112850000D03*
%TD*%
D11*
%TO.P,J9,S*%
%TO.N,GND*%
X24999999Y-77149999D03*
D12*
%TO.P,J9,T*%
%TO.N,Net-(J6-PadT)*%
X25000000Y-88550000D03*
%TO.P,J9,TN*%
%TO.N,unconnected-(J9-PadTN)*%
X25000000Y-80250000D03*
%TD*%
D11*
%TO.P,J4,S*%
%TO.N,GND*%
X35249999Y-45849999D03*
D12*
%TO.P,J4,T*%
%TO.N,Net-(J2-PadT)*%
X35250000Y-57250000D03*
%TO.P,J4,TN*%
%TO.N,unconnected-(J4-PadTN)*%
X35250000Y-48950000D03*
%TD*%
D11*
%TO.P,J6,S*%
%TO.N,GND*%
X35249999Y-62469999D03*
D12*
%TO.P,J6,T*%
%TO.N,Net-(J6-PadT)*%
X35250000Y-73870000D03*
%TO.P,J6,TN*%
%TO.N,unconnected-(J6-PadTN)*%
X35250000Y-65570000D03*
%TD*%
D11*
%TO.P,J5,S*%
%TO.N,GND*%
X24999999Y-45849999D03*
D12*
%TO.P,J5,T*%
%TO.N,Net-(J2-PadT)*%
X25000000Y-57250000D03*
%TO.P,J5,TN*%
%TO.N,unconnected-(J5-PadTN)*%
X25000000Y-48950000D03*
%TD*%
D11*
%TO.P,J2,S*%
%TO.N,GND*%
X35249999Y-31179999D03*
D12*
%TO.P,J2,T*%
%TO.N,Net-(J2-PadT)*%
X35250000Y-42580000D03*
%TO.P,J2,TN*%
%TO.N,unconnected-(J2-PadTN)*%
X35250000Y-34280000D03*
%TD*%
D11*
%TO.P,J3,S*%
%TO.N,GND*%
X24999999Y-31179999D03*
D12*
%TO.P,J3,T*%
%TO.N,Net-(J2-PadT)*%
X25000000Y-42580000D03*
%TO.P,J3,TN*%
%TO.N,unconnected-(J3-PadTN)*%
X25000000Y-34280000D03*
%TD*%
D13*
%TO.N,Net-(J2-PadT)*%
X35250000Y-57250000D02*
X30000000Y-57250000D01*
X30000000Y-57250000D02*
X30000000Y-42580000D01*
X30000000Y-42580000D02*
X35250000Y-42580000D01*
X30000000Y-57250000D02*
X25000000Y-57250000D01*
X25000000Y-42580000D02*
X30000000Y-42580000D01*
%TO.N,Net-(J6-PadT)*%
X25000000Y-73870000D02*
X30000000Y-73870000D01*
X25000000Y-88550000D02*
X30000000Y-88550000D01*
X30000000Y-88550000D02*
X35250000Y-88550000D01*
X30000000Y-73870000D02*
X35250000Y-73870000D01*
X30000000Y-88550000D02*
X30000000Y-73870000D01*
X30000000Y-73750000D02*
X30000000Y-73870000D01*
%TO.N,Net-(J10-PadT)*%
X30250000Y-121150000D02*
X35250000Y-121150000D01*
X25000000Y-106500000D02*
X30250000Y-106500000D01*
X30250000Y-121150000D02*
X30250000Y-106500000D01*
X25000000Y-121150000D02*
X30250000Y-121150000D01*
X30250000Y-106500000D02*
X35250000Y-106500000D01*
%TD*%
%TA.AperFunction,Conductor*%
%TO.N,GND*%
G36*
X40257500Y-20017113D02*
G01*
X40302887Y-20062500D01*
X40319500Y-20124500D01*
X40319500Y-148375500D01*
X40302887Y-148437500D01*
X40257500Y-148482887D01*
X40195500Y-148499500D01*
X20124500Y-148499500D01*
X20062500Y-148482887D01*
X20017113Y-148437500D01*
X20000500Y-148375500D01*
X20000500Y-145500000D01*
X25074551Y-145500000D01*
X25094317Y-145751148D01*
X25095452Y-145755877D01*
X25095453Y-145755881D01*
X25151989Y-145991374D01*
X25151991Y-145991382D01*
X25153127Y-145996111D01*
X25249534Y-146228859D01*
X25252081Y-146233016D01*
X25252082Y-146233017D01*
X25378617Y-146439504D01*
X25378622Y-146439511D01*
X25381164Y-146443659D01*
X25384324Y-146447358D01*
X25384327Y-146447363D01*
X25534845Y-146623596D01*
X25544776Y-146635224D01*
X25548476Y-146638384D01*
X25730705Y-146794023D01*
X25736341Y-146798836D01*
X25740491Y-146801379D01*
X25740495Y-146801382D01*
X25852300Y-146869896D01*
X25951141Y-146930466D01*
X26183889Y-147026873D01*
X26428852Y-147085683D01*
X26680000Y-147105449D01*
X26931148Y-147085683D01*
X27176111Y-147026873D01*
X27408859Y-146930466D01*
X27623659Y-146798836D01*
X27815224Y-146635224D01*
X27978836Y-146443659D01*
X28110466Y-146228859D01*
X28206873Y-145996111D01*
X28265683Y-145751148D01*
X28285449Y-145500000D01*
X32034551Y-145500000D01*
X32054317Y-145751148D01*
X32055452Y-145755877D01*
X32055453Y-145755881D01*
X32111989Y-145991374D01*
X32111991Y-145991382D01*
X32113127Y-145996111D01*
X32209534Y-146228859D01*
X32212081Y-146233016D01*
X32212082Y-146233017D01*
X32338617Y-146439504D01*
X32338622Y-146439511D01*
X32341164Y-146443659D01*
X32344324Y-146447358D01*
X32344327Y-146447363D01*
X32494845Y-146623596D01*
X32504776Y-146635224D01*
X32508476Y-146638384D01*
X32690705Y-146794023D01*
X32696341Y-146798836D01*
X32700491Y-146801379D01*
X32700495Y-146801382D01*
X32812300Y-146869896D01*
X32911141Y-146930466D01*
X33143889Y-147026873D01*
X33388852Y-147085683D01*
X33640000Y-147105449D01*
X33891148Y-147085683D01*
X34136111Y-147026873D01*
X34368859Y-146930466D01*
X34583659Y-146798836D01*
X34775224Y-146635224D01*
X34938836Y-146443659D01*
X35070466Y-146228859D01*
X35166873Y-145996111D01*
X35225683Y-145751148D01*
X35245449Y-145500000D01*
X35225683Y-145248852D01*
X35166873Y-145003889D01*
X35070466Y-144771141D01*
X34938836Y-144556341D01*
X34775224Y-144364776D01*
X34771523Y-144361615D01*
X34587363Y-144204327D01*
X34587358Y-144204324D01*
X34583659Y-144201164D01*
X34579511Y-144198622D01*
X34579504Y-144198617D01*
X34373017Y-144072082D01*
X34373016Y-144072081D01*
X34368859Y-144069534D01*
X34136111Y-143973127D01*
X34131382Y-143971991D01*
X34131374Y-143971989D01*
X33895881Y-143915453D01*
X33895877Y-143915452D01*
X33891148Y-143914317D01*
X33886295Y-143913935D01*
X33644854Y-143894933D01*
X33640000Y-143894551D01*
X33635146Y-143894933D01*
X33393704Y-143913935D01*
X33393702Y-143913935D01*
X33388852Y-143914317D01*
X33384124Y-143915451D01*
X33384118Y-143915453D01*
X33148625Y-143971989D01*
X33148613Y-143971992D01*
X33143889Y-143973127D01*
X33139392Y-143974989D01*
X33139388Y-143974991D01*
X32915645Y-144067668D01*
X32915640Y-144067670D01*
X32911141Y-144069534D01*
X32906988Y-144072078D01*
X32906982Y-144072082D01*
X32700495Y-144198617D01*
X32700482Y-144198626D01*
X32696341Y-144201164D01*
X32692646Y-144204319D01*
X32692636Y-144204327D01*
X32508476Y-144361615D01*
X32508469Y-144361621D01*
X32504776Y-144364776D01*
X32501621Y-144368469D01*
X32501615Y-144368476D01*
X32344327Y-144552636D01*
X32344319Y-144552646D01*
X32341164Y-144556341D01*
X32338626Y-144560482D01*
X32338617Y-144560495D01*
X32212082Y-144766982D01*
X32212078Y-144766988D01*
X32209534Y-144771141D01*
X32207670Y-144775640D01*
X32207668Y-144775645D01*
X32114991Y-144999388D01*
X32113127Y-145003889D01*
X32111992Y-145008613D01*
X32111989Y-145008625D01*
X32055453Y-145244118D01*
X32055451Y-145244124D01*
X32054317Y-145248852D01*
X32034551Y-145500000D01*
X28285449Y-145500000D01*
X28265683Y-145248852D01*
X28206873Y-145003889D01*
X28110466Y-144771141D01*
X27978836Y-144556341D01*
X27815224Y-144364776D01*
X27811523Y-144361615D01*
X27627363Y-144204327D01*
X27627358Y-144204324D01*
X27623659Y-144201164D01*
X27619511Y-144198622D01*
X27619504Y-144198617D01*
X27413017Y-144072082D01*
X27413016Y-144072081D01*
X27408859Y-144069534D01*
X27176111Y-143973127D01*
X27171382Y-143971991D01*
X27171374Y-143971989D01*
X26935881Y-143915453D01*
X26935877Y-143915452D01*
X26931148Y-143914317D01*
X26926295Y-143913935D01*
X26684854Y-143894933D01*
X26680000Y-143894551D01*
X26675146Y-143894933D01*
X26433704Y-143913935D01*
X26433702Y-143913935D01*
X26428852Y-143914317D01*
X26424124Y-143915451D01*
X26424118Y-143915453D01*
X26188625Y-143971989D01*
X26188613Y-143971992D01*
X26183889Y-143973127D01*
X26179392Y-143974989D01*
X26179388Y-143974991D01*
X25955645Y-144067668D01*
X25955640Y-144067670D01*
X25951141Y-144069534D01*
X25946988Y-144072078D01*
X25946982Y-144072082D01*
X25740495Y-144198617D01*
X25740482Y-144198626D01*
X25736341Y-144201164D01*
X25732646Y-144204319D01*
X25732636Y-144204327D01*
X25548476Y-144361615D01*
X25548469Y-144361621D01*
X25544776Y-144364776D01*
X25541621Y-144368469D01*
X25541615Y-144368476D01*
X25384327Y-144552636D01*
X25384319Y-144552646D01*
X25381164Y-144556341D01*
X25378626Y-144560482D01*
X25378617Y-144560495D01*
X25252082Y-144766982D01*
X25252078Y-144766988D01*
X25249534Y-144771141D01*
X25247670Y-144775640D01*
X25247668Y-144775645D01*
X25154991Y-144999388D01*
X25153127Y-145003889D01*
X25151992Y-145008613D01*
X25151989Y-145008625D01*
X25095453Y-145244118D01*
X25095451Y-145244124D01*
X25094317Y-145248852D01*
X25074551Y-145500000D01*
X20000500Y-145500000D01*
X20000500Y-138000000D01*
X21499459Y-138000000D01*
X21499617Y-138000383D01*
X21499901Y-138000500D01*
X24487944Y-138000500D01*
X24500099Y-138000500D01*
X24500383Y-138000383D01*
X24500541Y-138000000D01*
X26499459Y-138000000D01*
X26499617Y-138000383D01*
X26499901Y-138000500D01*
X29487944Y-138000500D01*
X29500099Y-138000500D01*
X29500383Y-138000383D01*
X29500541Y-138000000D01*
X31499459Y-138000000D01*
X31499617Y-138000383D01*
X31499901Y-138000500D01*
X34487944Y-138000500D01*
X34500099Y-138000500D01*
X34500383Y-138000383D01*
X34500541Y-138000000D01*
X36499459Y-138000000D01*
X36499617Y-138000383D01*
X36499901Y-138000500D01*
X39487944Y-138000500D01*
X39500099Y-138000500D01*
X39500383Y-138000383D01*
X39500541Y-138000000D01*
X39500383Y-137999617D01*
X39500099Y-137999500D01*
X36499901Y-137999500D01*
X36499617Y-137999617D01*
X36499459Y-138000000D01*
X34500541Y-138000000D01*
X34500383Y-137999617D01*
X34500099Y-137999500D01*
X31499901Y-137999500D01*
X31499617Y-137999617D01*
X31499459Y-138000000D01*
X29500541Y-138000000D01*
X29500383Y-137999617D01*
X29500099Y-137999500D01*
X26499901Y-137999500D01*
X26499617Y-137999617D01*
X26499459Y-138000000D01*
X24500541Y-138000000D01*
X24500383Y-137999617D01*
X24500099Y-137999500D01*
X21499901Y-137999500D01*
X21499617Y-137999617D01*
X21499459Y-138000000D01*
X20000500Y-138000000D01*
X20000500Y-134169578D01*
X21509500Y-134169578D01*
X21509501Y-134172872D01*
X21509853Y-134176150D01*
X21509854Y-134176161D01*
X21515079Y-134224768D01*
X21515080Y-134224773D01*
X21515909Y-134232483D01*
X21518619Y-134239749D01*
X21518620Y-134239753D01*
X21552217Y-134329831D01*
X21566204Y-134367331D01*
X21652454Y-134482546D01*
X21767669Y-134568796D01*
X21902517Y-134619091D01*
X21962127Y-134625500D01*
X23057872Y-134625499D01*
X23117483Y-134619091D01*
X23252331Y-134568796D01*
X23367546Y-134482546D01*
X23453796Y-134367331D01*
X23504091Y-134232483D01*
X23510500Y-134172873D01*
X23510500Y-134169518D01*
X24050000Y-134169518D01*
X24050353Y-134176114D01*
X24055573Y-134224667D01*
X24059111Y-134239641D01*
X24103547Y-134358777D01*
X24111962Y-134374189D01*
X24187498Y-134475092D01*
X24199907Y-134487501D01*
X24300810Y-134563037D01*
X24316222Y-134571452D01*
X24435358Y-134615888D01*
X24450332Y-134619426D01*
X24498885Y-134624646D01*
X24505482Y-134625000D01*
X24783674Y-134625000D01*
X24796549Y-134621549D01*
X24800000Y-134608674D01*
X25300000Y-134608674D01*
X25303450Y-134621549D01*
X25316326Y-134625000D01*
X25594518Y-134625000D01*
X25601114Y-134624646D01*
X25649667Y-134619426D01*
X25664641Y-134615888D01*
X25783777Y-134571452D01*
X25799189Y-134563037D01*
X25900092Y-134487501D01*
X25912501Y-134475092D01*
X25988037Y-134374189D01*
X25996452Y-134358777D01*
X26040888Y-134239641D01*
X26044426Y-134224667D01*
X26049646Y-134176114D01*
X26050000Y-134169518D01*
X26590000Y-134169518D01*
X26590353Y-134176114D01*
X26595573Y-134224667D01*
X26599111Y-134239641D01*
X26643547Y-134358777D01*
X26651962Y-134374189D01*
X26727498Y-134475092D01*
X26739907Y-134487501D01*
X26840810Y-134563037D01*
X26856222Y-134571452D01*
X26975358Y-134615888D01*
X26990332Y-134619426D01*
X27038885Y-134624646D01*
X27045482Y-134625000D01*
X27323674Y-134625000D01*
X27336549Y-134621549D01*
X27340000Y-134608674D01*
X27840000Y-134608674D01*
X27843450Y-134621549D01*
X27856326Y-134625000D01*
X28134518Y-134625000D01*
X28141114Y-134624646D01*
X28189667Y-134619426D01*
X28204641Y-134615888D01*
X28323777Y-134571452D01*
X28339189Y-134563037D01*
X28440092Y-134487501D01*
X28452501Y-134475092D01*
X28528037Y-134374189D01*
X28536452Y-134358777D01*
X28580888Y-134239641D01*
X28584426Y-134224667D01*
X28589646Y-134176114D01*
X28590000Y-134169518D01*
X29130000Y-134169518D01*
X29130353Y-134176114D01*
X29135573Y-134224667D01*
X29139111Y-134239641D01*
X29183547Y-134358777D01*
X29191962Y-134374189D01*
X29267498Y-134475092D01*
X29279907Y-134487501D01*
X29380810Y-134563037D01*
X29396222Y-134571452D01*
X29515358Y-134615888D01*
X29530332Y-134619426D01*
X29578885Y-134624646D01*
X29585482Y-134625000D01*
X29863674Y-134625000D01*
X29876549Y-134621549D01*
X29880000Y-134608674D01*
X30380000Y-134608674D01*
X30383450Y-134621549D01*
X30396326Y-134625000D01*
X30674518Y-134625000D01*
X30681114Y-134624646D01*
X30729667Y-134619426D01*
X30744641Y-134615888D01*
X30863777Y-134571452D01*
X30879189Y-134563037D01*
X30980092Y-134487501D01*
X30992501Y-134475092D01*
X31068037Y-134374189D01*
X31076452Y-134358777D01*
X31120888Y-134239641D01*
X31124426Y-134224667D01*
X31129646Y-134176114D01*
X31129997Y-134169578D01*
X31669500Y-134169578D01*
X31669501Y-134172872D01*
X31669853Y-134176150D01*
X31669854Y-134176161D01*
X31675079Y-134224768D01*
X31675080Y-134224773D01*
X31675909Y-134232483D01*
X31678619Y-134239749D01*
X31678620Y-134239753D01*
X31712217Y-134329831D01*
X31726204Y-134367331D01*
X31812454Y-134482546D01*
X31927669Y-134568796D01*
X32062517Y-134619091D01*
X32122127Y-134625500D01*
X33217872Y-134625499D01*
X33277483Y-134619091D01*
X33412331Y-134568796D01*
X33527546Y-134482546D01*
X33613796Y-134367331D01*
X33664091Y-134232483D01*
X33670500Y-134172873D01*
X33670500Y-134169578D01*
X34209500Y-134169578D01*
X34209501Y-134172872D01*
X34209853Y-134176150D01*
X34209854Y-134176161D01*
X34215079Y-134224768D01*
X34215080Y-134224773D01*
X34215909Y-134232483D01*
X34218619Y-134239749D01*
X34218620Y-134239753D01*
X34252217Y-134329831D01*
X34266204Y-134367331D01*
X34352454Y-134482546D01*
X34467669Y-134568796D01*
X34602517Y-134619091D01*
X34662127Y-134625500D01*
X35757872Y-134625499D01*
X35817483Y-134619091D01*
X35952331Y-134568796D01*
X36067546Y-134482546D01*
X36153796Y-134367331D01*
X36204091Y-134232483D01*
X36210500Y-134172873D01*
X36210500Y-134169578D01*
X36749500Y-134169578D01*
X36749501Y-134172872D01*
X36749853Y-134176150D01*
X36749854Y-134176161D01*
X36755079Y-134224768D01*
X36755080Y-134224773D01*
X36755909Y-134232483D01*
X36758619Y-134239749D01*
X36758620Y-134239753D01*
X36792217Y-134329831D01*
X36806204Y-134367331D01*
X36892454Y-134482546D01*
X37007669Y-134568796D01*
X37142517Y-134619091D01*
X37202127Y-134625500D01*
X38297872Y-134625499D01*
X38357483Y-134619091D01*
X38492331Y-134568796D01*
X38607546Y-134482546D01*
X38693796Y-134367331D01*
X38744091Y-134232483D01*
X38750500Y-134172873D01*
X38750499Y-130927128D01*
X38744091Y-130867517D01*
X38693796Y-130732669D01*
X38607546Y-130617454D01*
X38492331Y-130531204D01*
X38421965Y-130504959D01*
X38364752Y-130483620D01*
X38364750Y-130483619D01*
X38357483Y-130480909D01*
X38349770Y-130480079D01*
X38349767Y-130480079D01*
X38301180Y-130474855D01*
X38301169Y-130474854D01*
X38297873Y-130474500D01*
X38294550Y-130474500D01*
X37205439Y-130474500D01*
X37205420Y-130474500D01*
X37202128Y-130474501D01*
X37198850Y-130474853D01*
X37198838Y-130474854D01*
X37150231Y-130480079D01*
X37150225Y-130480080D01*
X37142517Y-130480909D01*
X37135252Y-130483618D01*
X37135246Y-130483620D01*
X37015980Y-130528104D01*
X37015978Y-130528104D01*
X37007669Y-130531204D01*
X37000572Y-130536516D01*
X37000568Y-130536519D01*
X36899550Y-130612141D01*
X36899546Y-130612144D01*
X36892454Y-130617454D01*
X36887144Y-130624546D01*
X36887141Y-130624550D01*
X36811519Y-130725568D01*
X36811516Y-130725572D01*
X36806204Y-130732669D01*
X36803104Y-130740978D01*
X36803104Y-130740980D01*
X36758620Y-130860247D01*
X36758619Y-130860250D01*
X36755909Y-130867517D01*
X36755079Y-130875227D01*
X36755079Y-130875232D01*
X36749855Y-130923819D01*
X36749854Y-130923831D01*
X36749500Y-130927127D01*
X36749500Y-130930448D01*
X36749500Y-130930449D01*
X36749500Y-134169560D01*
X36749500Y-134169578D01*
X36210500Y-134169578D01*
X36210499Y-130927128D01*
X36204091Y-130867517D01*
X36153796Y-130732669D01*
X36067546Y-130617454D01*
X35952331Y-130531204D01*
X35881965Y-130504959D01*
X35824752Y-130483620D01*
X35824750Y-130483619D01*
X35817483Y-130480909D01*
X35809770Y-130480079D01*
X35809767Y-130480079D01*
X35761180Y-130474855D01*
X35761169Y-130474854D01*
X35757873Y-130474500D01*
X35754550Y-130474500D01*
X34665439Y-130474500D01*
X34665420Y-130474500D01*
X34662128Y-130474501D01*
X34658850Y-130474853D01*
X34658838Y-130474854D01*
X34610231Y-130480079D01*
X34610225Y-130480080D01*
X34602517Y-130480909D01*
X34595252Y-130483618D01*
X34595246Y-130483620D01*
X34475980Y-130528104D01*
X34475978Y-130528104D01*
X34467669Y-130531204D01*
X34460572Y-130536516D01*
X34460568Y-130536519D01*
X34359550Y-130612141D01*
X34359546Y-130612144D01*
X34352454Y-130617454D01*
X34347144Y-130624546D01*
X34347141Y-130624550D01*
X34271519Y-130725568D01*
X34271516Y-130725572D01*
X34266204Y-130732669D01*
X34263104Y-130740978D01*
X34263104Y-130740980D01*
X34218620Y-130860247D01*
X34218619Y-130860250D01*
X34215909Y-130867517D01*
X34215079Y-130875227D01*
X34215079Y-130875232D01*
X34209855Y-130923819D01*
X34209854Y-130923831D01*
X34209500Y-130927127D01*
X34209500Y-130930448D01*
X34209500Y-130930449D01*
X34209500Y-134169560D01*
X34209500Y-134169578D01*
X33670500Y-134169578D01*
X33670499Y-130927128D01*
X33664091Y-130867517D01*
X33613796Y-130732669D01*
X33527546Y-130617454D01*
X33412331Y-130531204D01*
X33341965Y-130504959D01*
X33284752Y-130483620D01*
X33284750Y-130483619D01*
X33277483Y-130480909D01*
X33269770Y-130480079D01*
X33269767Y-130480079D01*
X33221180Y-130474855D01*
X33221169Y-130474854D01*
X33217873Y-130474500D01*
X33214550Y-130474500D01*
X32125439Y-130474500D01*
X32125420Y-130474500D01*
X32122128Y-130474501D01*
X32118850Y-130474853D01*
X32118838Y-130474854D01*
X32070231Y-130480079D01*
X32070225Y-130480080D01*
X32062517Y-130480909D01*
X32055252Y-130483618D01*
X32055246Y-130483620D01*
X31935980Y-130528104D01*
X31935978Y-130528104D01*
X31927669Y-130531204D01*
X31920572Y-130536516D01*
X31920568Y-130536519D01*
X31819550Y-130612141D01*
X31819546Y-130612144D01*
X31812454Y-130617454D01*
X31807144Y-130624546D01*
X31807141Y-130624550D01*
X31731519Y-130725568D01*
X31731516Y-130725572D01*
X31726204Y-130732669D01*
X31723104Y-130740978D01*
X31723104Y-130740980D01*
X31678620Y-130860247D01*
X31678619Y-130860250D01*
X31675909Y-130867517D01*
X31675079Y-130875227D01*
X31675079Y-130875232D01*
X31669855Y-130923819D01*
X31669854Y-130923831D01*
X31669500Y-130927127D01*
X31669500Y-130930448D01*
X31669500Y-130930449D01*
X31669500Y-134169560D01*
X31669500Y-134169578D01*
X31129997Y-134169578D01*
X31130000Y-134169518D01*
X31130000Y-132816326D01*
X31126549Y-132803450D01*
X31113674Y-132800000D01*
X30396326Y-132800000D01*
X30383450Y-132803450D01*
X30380000Y-132816326D01*
X30380000Y-134608674D01*
X29880000Y-134608674D01*
X29880000Y-132816326D01*
X29876549Y-132803450D01*
X29863674Y-132800000D01*
X29146326Y-132800000D01*
X29133450Y-132803450D01*
X29130000Y-132816326D01*
X29130000Y-134169518D01*
X28590000Y-134169518D01*
X28590000Y-132816326D01*
X28586549Y-132803450D01*
X28573674Y-132800000D01*
X27856326Y-132800000D01*
X27843450Y-132803450D01*
X27840000Y-132816326D01*
X27840000Y-134608674D01*
X27340000Y-134608674D01*
X27340000Y-132816326D01*
X27336549Y-132803450D01*
X27323674Y-132800000D01*
X26606326Y-132800000D01*
X26593450Y-132803450D01*
X26590000Y-132816326D01*
X26590000Y-134169518D01*
X26050000Y-134169518D01*
X26050000Y-132816326D01*
X26046549Y-132803450D01*
X26033674Y-132800000D01*
X25316326Y-132800000D01*
X25303450Y-132803450D01*
X25300000Y-132816326D01*
X25300000Y-134608674D01*
X24800000Y-134608674D01*
X24800000Y-132816326D01*
X24796549Y-132803450D01*
X24783674Y-132800000D01*
X24066326Y-132800000D01*
X24053450Y-132803450D01*
X24050000Y-132816326D01*
X24050000Y-134169518D01*
X23510500Y-134169518D01*
X23510499Y-132283674D01*
X24050000Y-132283674D01*
X24053450Y-132296549D01*
X24066326Y-132300000D01*
X24783674Y-132300000D01*
X24796549Y-132296549D01*
X24800000Y-132283674D01*
X25300000Y-132283674D01*
X25303450Y-132296549D01*
X25316326Y-132300000D01*
X26033674Y-132300000D01*
X26046549Y-132296549D01*
X26050000Y-132283674D01*
X26590000Y-132283674D01*
X26593450Y-132296549D01*
X26606326Y-132300000D01*
X27323674Y-132300000D01*
X27336549Y-132296549D01*
X27340000Y-132283674D01*
X27840000Y-132283674D01*
X27843450Y-132296549D01*
X27856326Y-132300000D01*
X28573674Y-132300000D01*
X28586549Y-132296549D01*
X28590000Y-132283674D01*
X29130000Y-132283674D01*
X29133450Y-132296549D01*
X29146326Y-132300000D01*
X29863674Y-132300000D01*
X29876549Y-132296549D01*
X29880000Y-132283674D01*
X30380000Y-132283674D01*
X30383450Y-132296549D01*
X30396326Y-132300000D01*
X31113674Y-132300000D01*
X31126549Y-132296549D01*
X31130000Y-132283674D01*
X31130000Y-130930482D01*
X31129646Y-130923885D01*
X31124426Y-130875332D01*
X31120888Y-130860358D01*
X31076452Y-130741222D01*
X31068037Y-130725810D01*
X30992501Y-130624907D01*
X30980092Y-130612498D01*
X30879189Y-130536962D01*
X30863777Y-130528547D01*
X30744641Y-130484111D01*
X30729667Y-130480573D01*
X30681114Y-130475353D01*
X30674518Y-130475000D01*
X30396326Y-130475000D01*
X30383450Y-130478450D01*
X30380000Y-130491326D01*
X30380000Y-132283674D01*
X29880000Y-132283674D01*
X29880000Y-130491326D01*
X29876549Y-130478450D01*
X29863674Y-130475000D01*
X29585482Y-130475000D01*
X29578885Y-130475353D01*
X29530332Y-130480573D01*
X29515358Y-130484111D01*
X29396222Y-130528547D01*
X29380810Y-130536962D01*
X29279907Y-130612498D01*
X29267498Y-130624907D01*
X29191962Y-130725810D01*
X29183547Y-130741222D01*
X29139111Y-130860358D01*
X29135573Y-130875332D01*
X29130353Y-130923885D01*
X29130000Y-130930482D01*
X29130000Y-132283674D01*
X28590000Y-132283674D01*
X28590000Y-130930482D01*
X28589646Y-130923885D01*
X28584426Y-130875332D01*
X28580888Y-130860358D01*
X28536452Y-130741222D01*
X28528037Y-130725810D01*
X28452501Y-130624907D01*
X28440092Y-130612498D01*
X28339189Y-130536962D01*
X28323777Y-130528547D01*
X28204641Y-130484111D01*
X28189667Y-130480573D01*
X28141114Y-130475353D01*
X28134518Y-130475000D01*
X27856326Y-130475000D01*
X27843450Y-130478450D01*
X27840000Y-130491326D01*
X27840000Y-132283674D01*
X27340000Y-132283674D01*
X27340000Y-130491326D01*
X27336549Y-130478450D01*
X27323674Y-130475000D01*
X27045482Y-130475000D01*
X27038885Y-130475353D01*
X26990332Y-130480573D01*
X26975358Y-130484111D01*
X26856222Y-130528547D01*
X26840810Y-130536962D01*
X26739907Y-130612498D01*
X26727498Y-130624907D01*
X26651962Y-130725810D01*
X26643547Y-130741222D01*
X26599111Y-130860358D01*
X26595573Y-130875332D01*
X26590353Y-130923885D01*
X26590000Y-130930482D01*
X26590000Y-132283674D01*
X26050000Y-132283674D01*
X26050000Y-130930482D01*
X26049646Y-130923885D01*
X26044426Y-130875332D01*
X26040888Y-130860358D01*
X25996452Y-130741222D01*
X25988037Y-130725810D01*
X25912501Y-130624907D01*
X25900092Y-130612498D01*
X25799189Y-130536962D01*
X25783777Y-130528547D01*
X25664641Y-130484111D01*
X25649667Y-130480573D01*
X25601114Y-130475353D01*
X25594518Y-130475000D01*
X25316326Y-130475000D01*
X25303450Y-130478450D01*
X25300000Y-130491326D01*
X25300000Y-132283674D01*
X24800000Y-132283674D01*
X24800000Y-130491326D01*
X24796549Y-130478450D01*
X24783674Y-130475000D01*
X24505482Y-130475000D01*
X24498885Y-130475353D01*
X24450332Y-130480573D01*
X24435358Y-130484111D01*
X24316222Y-130528547D01*
X24300810Y-130536962D01*
X24199907Y-130612498D01*
X24187498Y-130624907D01*
X24111962Y-130725810D01*
X24103547Y-130741222D01*
X24059111Y-130860358D01*
X24055573Y-130875332D01*
X24050353Y-130923885D01*
X24050000Y-130930482D01*
X24050000Y-132283674D01*
X23510499Y-132283674D01*
X23510499Y-130927128D01*
X23504091Y-130867517D01*
X23453796Y-130732669D01*
X23367546Y-130617454D01*
X23252331Y-130531204D01*
X23181965Y-130504959D01*
X23124752Y-130483620D01*
X23124750Y-130483619D01*
X23117483Y-130480909D01*
X23109770Y-130480079D01*
X23109767Y-130480079D01*
X23061180Y-130474855D01*
X23061169Y-130474854D01*
X23057873Y-130474500D01*
X23054550Y-130474500D01*
X21965439Y-130474500D01*
X21965420Y-130474500D01*
X21962128Y-130474501D01*
X21958850Y-130474853D01*
X21958838Y-130474854D01*
X21910231Y-130480079D01*
X21910225Y-130480080D01*
X21902517Y-130480909D01*
X21895252Y-130483618D01*
X21895246Y-130483620D01*
X21775980Y-130528104D01*
X21775978Y-130528104D01*
X21767669Y-130531204D01*
X21760572Y-130536516D01*
X21760568Y-130536519D01*
X21659550Y-130612141D01*
X21659546Y-130612144D01*
X21652454Y-130617454D01*
X21647144Y-130624546D01*
X21647141Y-130624550D01*
X21571519Y-130725568D01*
X21571516Y-130725572D01*
X21566204Y-130732669D01*
X21563104Y-130740978D01*
X21563104Y-130740980D01*
X21518620Y-130860247D01*
X21518619Y-130860250D01*
X21515909Y-130867517D01*
X21515079Y-130875227D01*
X21515079Y-130875232D01*
X21509855Y-130923819D01*
X21509854Y-130923831D01*
X21509500Y-130927127D01*
X21509500Y-130930448D01*
X21509500Y-130930449D01*
X21509500Y-134169560D01*
X21509500Y-134169578D01*
X20000500Y-134169578D01*
X20000500Y-129119578D01*
X21509500Y-129119578D01*
X21509501Y-129122872D01*
X21509853Y-129126150D01*
X21509854Y-129126161D01*
X21515079Y-129174768D01*
X21515080Y-129174773D01*
X21515909Y-129182483D01*
X21518619Y-129189749D01*
X21518620Y-129189753D01*
X21552217Y-129279831D01*
X21566204Y-129317331D01*
X21652454Y-129432546D01*
X21767669Y-129518796D01*
X21902517Y-129569091D01*
X21962127Y-129575500D01*
X23057872Y-129575499D01*
X23117483Y-129569091D01*
X23252331Y-129518796D01*
X23367546Y-129432546D01*
X23453796Y-129317331D01*
X23504091Y-129182483D01*
X23510500Y-129122873D01*
X23510500Y-129119518D01*
X24050000Y-129119518D01*
X24050353Y-129126114D01*
X24055573Y-129174667D01*
X24059111Y-129189641D01*
X24103547Y-129308777D01*
X24111962Y-129324189D01*
X24187498Y-129425092D01*
X24199907Y-129437501D01*
X24300810Y-129513037D01*
X24316222Y-129521452D01*
X24435358Y-129565888D01*
X24450332Y-129569426D01*
X24498885Y-129574646D01*
X24505482Y-129575000D01*
X24783674Y-129575000D01*
X24796549Y-129571549D01*
X24800000Y-129558674D01*
X25300000Y-129558674D01*
X25303450Y-129571549D01*
X25316326Y-129575000D01*
X25594518Y-129575000D01*
X25601114Y-129574646D01*
X25649667Y-129569426D01*
X25664641Y-129565888D01*
X25783777Y-129521452D01*
X25799189Y-129513037D01*
X25900092Y-129437501D01*
X25912501Y-129425092D01*
X25988037Y-129324189D01*
X25996452Y-129308777D01*
X26040888Y-129189641D01*
X26044426Y-129174667D01*
X26049646Y-129126114D01*
X26050000Y-129119518D01*
X26590000Y-129119518D01*
X26590353Y-129126114D01*
X26595573Y-129174667D01*
X26599111Y-129189641D01*
X26643547Y-129308777D01*
X26651962Y-129324189D01*
X26727498Y-129425092D01*
X26739907Y-129437501D01*
X26840810Y-129513037D01*
X26856222Y-129521452D01*
X26975358Y-129565888D01*
X26990332Y-129569426D01*
X27038885Y-129574646D01*
X27045482Y-129575000D01*
X27323674Y-129575000D01*
X27336549Y-129571549D01*
X27340000Y-129558674D01*
X27840000Y-129558674D01*
X27843450Y-129571549D01*
X27856326Y-129575000D01*
X28134518Y-129575000D01*
X28141114Y-129574646D01*
X28189667Y-129569426D01*
X28204641Y-129565888D01*
X28323777Y-129521452D01*
X28339189Y-129513037D01*
X28440092Y-129437501D01*
X28452501Y-129425092D01*
X28528037Y-129324189D01*
X28536452Y-129308777D01*
X28580888Y-129189641D01*
X28584426Y-129174667D01*
X28589646Y-129126114D01*
X28590000Y-129119518D01*
X29130000Y-129119518D01*
X29130353Y-129126114D01*
X29135573Y-129174667D01*
X29139111Y-129189641D01*
X29183547Y-129308777D01*
X29191962Y-129324189D01*
X29267498Y-129425092D01*
X29279907Y-129437501D01*
X29380810Y-129513037D01*
X29396222Y-129521452D01*
X29515358Y-129565888D01*
X29530332Y-129569426D01*
X29578885Y-129574646D01*
X29585482Y-129575000D01*
X29863674Y-129575000D01*
X29876549Y-129571549D01*
X29880000Y-129558674D01*
X30380000Y-129558674D01*
X30383450Y-129571549D01*
X30396326Y-129575000D01*
X30674518Y-129575000D01*
X30681114Y-129574646D01*
X30729667Y-129569426D01*
X30744641Y-129565888D01*
X30863777Y-129521452D01*
X30879189Y-129513037D01*
X30980092Y-129437501D01*
X30992501Y-129425092D01*
X31068037Y-129324189D01*
X31076452Y-129308777D01*
X31120888Y-129189641D01*
X31124426Y-129174667D01*
X31129646Y-129126114D01*
X31129997Y-129119578D01*
X31669500Y-129119578D01*
X31669501Y-129122872D01*
X31669853Y-129126150D01*
X31669854Y-129126161D01*
X31675079Y-129174768D01*
X31675080Y-129174773D01*
X31675909Y-129182483D01*
X31678619Y-129189749D01*
X31678620Y-129189753D01*
X31712217Y-129279831D01*
X31726204Y-129317331D01*
X31812454Y-129432546D01*
X31927669Y-129518796D01*
X32062517Y-129569091D01*
X32122127Y-129575500D01*
X33217872Y-129575499D01*
X33277483Y-129569091D01*
X33412331Y-129518796D01*
X33527546Y-129432546D01*
X33613796Y-129317331D01*
X33664091Y-129182483D01*
X33670500Y-129122873D01*
X33670500Y-129119578D01*
X34209500Y-129119578D01*
X34209501Y-129122872D01*
X34209853Y-129126150D01*
X34209854Y-129126161D01*
X34215079Y-129174768D01*
X34215080Y-129174773D01*
X34215909Y-129182483D01*
X34218619Y-129189749D01*
X34218620Y-129189753D01*
X34252217Y-129279831D01*
X34266204Y-129317331D01*
X34352454Y-129432546D01*
X34467669Y-129518796D01*
X34602517Y-129569091D01*
X34662127Y-129575500D01*
X35757872Y-129575499D01*
X35817483Y-129569091D01*
X35952331Y-129518796D01*
X36067546Y-129432546D01*
X36153796Y-129317331D01*
X36204091Y-129182483D01*
X36210500Y-129122873D01*
X36210500Y-129119578D01*
X36749500Y-129119578D01*
X36749501Y-129122872D01*
X36749853Y-129126150D01*
X36749854Y-129126161D01*
X36755079Y-129174768D01*
X36755080Y-129174773D01*
X36755909Y-129182483D01*
X36758619Y-129189749D01*
X36758620Y-129189753D01*
X36792217Y-129279831D01*
X36806204Y-129317331D01*
X36892454Y-129432546D01*
X37007669Y-129518796D01*
X37142517Y-129569091D01*
X37202127Y-129575500D01*
X38297872Y-129575499D01*
X38357483Y-129569091D01*
X38492331Y-129518796D01*
X38607546Y-129432546D01*
X38693796Y-129317331D01*
X38744091Y-129182483D01*
X38750500Y-129122873D01*
X38750499Y-125877128D01*
X38744091Y-125817517D01*
X38693796Y-125682669D01*
X38607546Y-125567454D01*
X38492331Y-125481204D01*
X38421965Y-125454959D01*
X38364752Y-125433620D01*
X38364750Y-125433619D01*
X38357483Y-125430909D01*
X38349770Y-125430079D01*
X38349767Y-125430079D01*
X38301180Y-125424855D01*
X38301169Y-125424854D01*
X38297873Y-125424500D01*
X38294550Y-125424500D01*
X37205439Y-125424500D01*
X37205420Y-125424500D01*
X37202128Y-125424501D01*
X37198850Y-125424853D01*
X37198838Y-125424854D01*
X37150231Y-125430079D01*
X37150225Y-125430080D01*
X37142517Y-125430909D01*
X37135252Y-125433618D01*
X37135246Y-125433620D01*
X37015980Y-125478104D01*
X37015978Y-125478104D01*
X37007669Y-125481204D01*
X37000572Y-125486516D01*
X37000568Y-125486519D01*
X36899550Y-125562141D01*
X36899546Y-125562144D01*
X36892454Y-125567454D01*
X36887144Y-125574546D01*
X36887141Y-125574550D01*
X36811519Y-125675568D01*
X36811516Y-125675572D01*
X36806204Y-125682669D01*
X36803104Y-125690978D01*
X36803104Y-125690980D01*
X36758620Y-125810247D01*
X36758619Y-125810250D01*
X36755909Y-125817517D01*
X36755079Y-125825227D01*
X36755079Y-125825232D01*
X36749855Y-125873819D01*
X36749854Y-125873831D01*
X36749500Y-125877127D01*
X36749500Y-125880448D01*
X36749500Y-125880449D01*
X36749500Y-129119560D01*
X36749500Y-129119578D01*
X36210500Y-129119578D01*
X36210499Y-125877128D01*
X36204091Y-125817517D01*
X36153796Y-125682669D01*
X36067546Y-125567454D01*
X35952331Y-125481204D01*
X35881965Y-125454959D01*
X35824752Y-125433620D01*
X35824750Y-125433619D01*
X35817483Y-125430909D01*
X35809770Y-125430079D01*
X35809767Y-125430079D01*
X35761180Y-125424855D01*
X35761169Y-125424854D01*
X35757873Y-125424500D01*
X35754550Y-125424500D01*
X34665439Y-125424500D01*
X34665420Y-125424500D01*
X34662128Y-125424501D01*
X34658850Y-125424853D01*
X34658838Y-125424854D01*
X34610231Y-125430079D01*
X34610225Y-125430080D01*
X34602517Y-125430909D01*
X34595252Y-125433618D01*
X34595246Y-125433620D01*
X34475980Y-125478104D01*
X34475978Y-125478104D01*
X34467669Y-125481204D01*
X34460572Y-125486516D01*
X34460568Y-125486519D01*
X34359550Y-125562141D01*
X34359546Y-125562144D01*
X34352454Y-125567454D01*
X34347144Y-125574546D01*
X34347141Y-125574550D01*
X34271519Y-125675568D01*
X34271516Y-125675572D01*
X34266204Y-125682669D01*
X34263104Y-125690978D01*
X34263104Y-125690980D01*
X34218620Y-125810247D01*
X34218619Y-125810250D01*
X34215909Y-125817517D01*
X34215079Y-125825227D01*
X34215079Y-125825232D01*
X34209855Y-125873819D01*
X34209854Y-125873831D01*
X34209500Y-125877127D01*
X34209500Y-125880448D01*
X34209500Y-125880449D01*
X34209500Y-129119560D01*
X34209500Y-129119578D01*
X33670500Y-129119578D01*
X33670499Y-125877128D01*
X33664091Y-125817517D01*
X33613796Y-125682669D01*
X33527546Y-125567454D01*
X33412331Y-125481204D01*
X33341965Y-125454959D01*
X33284752Y-125433620D01*
X33284750Y-125433619D01*
X33277483Y-125430909D01*
X33269770Y-125430079D01*
X33269767Y-125430079D01*
X33221180Y-125424855D01*
X33221169Y-125424854D01*
X33217873Y-125424500D01*
X33214550Y-125424500D01*
X32125439Y-125424500D01*
X32125420Y-125424500D01*
X32122128Y-125424501D01*
X32118850Y-125424853D01*
X32118838Y-125424854D01*
X32070231Y-125430079D01*
X32070225Y-125430080D01*
X32062517Y-125430909D01*
X32055252Y-125433618D01*
X32055246Y-125433620D01*
X31935980Y-125478104D01*
X31935978Y-125478104D01*
X31927669Y-125481204D01*
X31920572Y-125486516D01*
X31920568Y-125486519D01*
X31819550Y-125562141D01*
X31819546Y-125562144D01*
X31812454Y-125567454D01*
X31807144Y-125574546D01*
X31807141Y-125574550D01*
X31731519Y-125675568D01*
X31731516Y-125675572D01*
X31726204Y-125682669D01*
X31723104Y-125690978D01*
X31723104Y-125690980D01*
X31678620Y-125810247D01*
X31678619Y-125810250D01*
X31675909Y-125817517D01*
X31675079Y-125825227D01*
X31675079Y-125825232D01*
X31669855Y-125873819D01*
X31669854Y-125873831D01*
X31669500Y-125877127D01*
X31669500Y-125880448D01*
X31669500Y-125880449D01*
X31669500Y-129119560D01*
X31669500Y-129119578D01*
X31129997Y-129119578D01*
X31130000Y-129119518D01*
X31130000Y-127766326D01*
X31126549Y-127753450D01*
X31113674Y-127750000D01*
X30396326Y-127750000D01*
X30383450Y-127753450D01*
X30380000Y-127766326D01*
X30380000Y-129558674D01*
X29880000Y-129558674D01*
X29880000Y-127766326D01*
X29876549Y-127753450D01*
X29863674Y-127750000D01*
X29146326Y-127750000D01*
X29133450Y-127753450D01*
X29130000Y-127766326D01*
X29130000Y-129119518D01*
X28590000Y-129119518D01*
X28590000Y-127766326D01*
X28586549Y-127753450D01*
X28573674Y-127750000D01*
X27856326Y-127750000D01*
X27843450Y-127753450D01*
X27840000Y-127766326D01*
X27840000Y-129558674D01*
X27340000Y-129558674D01*
X27340000Y-127766326D01*
X27336549Y-127753450D01*
X27323674Y-127750000D01*
X26606326Y-127750000D01*
X26593450Y-127753450D01*
X26590000Y-127766326D01*
X26590000Y-129119518D01*
X26050000Y-129119518D01*
X26050000Y-127766326D01*
X26046549Y-127753450D01*
X26033674Y-127750000D01*
X25316326Y-127750000D01*
X25303450Y-127753450D01*
X25300000Y-127766326D01*
X25300000Y-129558674D01*
X24800000Y-129558674D01*
X24800000Y-127766326D01*
X24796549Y-127753450D01*
X24783674Y-127750000D01*
X24066326Y-127750000D01*
X24053450Y-127753450D01*
X24050000Y-127766326D01*
X24050000Y-129119518D01*
X23510500Y-129119518D01*
X23510499Y-127233674D01*
X24050000Y-127233674D01*
X24053450Y-127246549D01*
X24066326Y-127250000D01*
X24783674Y-127250000D01*
X24796549Y-127246549D01*
X24800000Y-127233674D01*
X25300000Y-127233674D01*
X25303450Y-127246549D01*
X25316326Y-127250000D01*
X26033674Y-127250000D01*
X26046549Y-127246549D01*
X26050000Y-127233674D01*
X26590000Y-127233674D01*
X26593450Y-127246549D01*
X26606326Y-127250000D01*
X27323674Y-127250000D01*
X27336549Y-127246549D01*
X27340000Y-127233674D01*
X27840000Y-127233674D01*
X27843450Y-127246549D01*
X27856326Y-127250000D01*
X28573674Y-127250000D01*
X28586549Y-127246549D01*
X28590000Y-127233674D01*
X29130000Y-127233674D01*
X29133450Y-127246549D01*
X29146326Y-127250000D01*
X29863674Y-127250000D01*
X29876549Y-127246549D01*
X29880000Y-127233674D01*
X30380000Y-127233674D01*
X30383450Y-127246549D01*
X30396326Y-127250000D01*
X31113674Y-127250000D01*
X31126549Y-127246549D01*
X31130000Y-127233674D01*
X31130000Y-125880482D01*
X31129646Y-125873885D01*
X31124426Y-125825332D01*
X31120888Y-125810358D01*
X31076452Y-125691222D01*
X31068037Y-125675810D01*
X30992501Y-125574907D01*
X30980092Y-125562498D01*
X30879189Y-125486962D01*
X30863777Y-125478547D01*
X30744641Y-125434111D01*
X30729667Y-125430573D01*
X30681114Y-125425353D01*
X30674518Y-125425000D01*
X30396326Y-125425000D01*
X30383450Y-125428450D01*
X30380000Y-125441326D01*
X30380000Y-127233674D01*
X29880000Y-127233674D01*
X29880000Y-125441326D01*
X29876549Y-125428450D01*
X29863674Y-125425000D01*
X29585482Y-125425000D01*
X29578885Y-125425353D01*
X29530332Y-125430573D01*
X29515358Y-125434111D01*
X29396222Y-125478547D01*
X29380810Y-125486962D01*
X29279907Y-125562498D01*
X29267498Y-125574907D01*
X29191962Y-125675810D01*
X29183547Y-125691222D01*
X29139111Y-125810358D01*
X29135573Y-125825332D01*
X29130353Y-125873885D01*
X29130000Y-125880482D01*
X29130000Y-127233674D01*
X28590000Y-127233674D01*
X28590000Y-125880482D01*
X28589646Y-125873885D01*
X28584426Y-125825332D01*
X28580888Y-125810358D01*
X28536452Y-125691222D01*
X28528037Y-125675810D01*
X28452501Y-125574907D01*
X28440092Y-125562498D01*
X28339189Y-125486962D01*
X28323777Y-125478547D01*
X28204641Y-125434111D01*
X28189667Y-125430573D01*
X28141114Y-125425353D01*
X28134518Y-125425000D01*
X27856326Y-125425000D01*
X27843450Y-125428450D01*
X27840000Y-125441326D01*
X27840000Y-127233674D01*
X27340000Y-127233674D01*
X27340000Y-125441326D01*
X27336549Y-125428450D01*
X27323674Y-125425000D01*
X27045482Y-125425000D01*
X27038885Y-125425353D01*
X26990332Y-125430573D01*
X26975358Y-125434111D01*
X26856222Y-125478547D01*
X26840810Y-125486962D01*
X26739907Y-125562498D01*
X26727498Y-125574907D01*
X26651962Y-125675810D01*
X26643547Y-125691222D01*
X26599111Y-125810358D01*
X26595573Y-125825332D01*
X26590353Y-125873885D01*
X26590000Y-125880482D01*
X26590000Y-127233674D01*
X26050000Y-127233674D01*
X26050000Y-125880482D01*
X26049646Y-125873885D01*
X26044426Y-125825332D01*
X26040888Y-125810358D01*
X25996452Y-125691222D01*
X25988037Y-125675810D01*
X25912501Y-125574907D01*
X25900092Y-125562498D01*
X25799189Y-125486962D01*
X25783777Y-125478547D01*
X25664641Y-125434111D01*
X25649667Y-125430573D01*
X25601114Y-125425353D01*
X25594518Y-125425000D01*
X25316326Y-125425000D01*
X25303450Y-125428450D01*
X25300000Y-125441326D01*
X25300000Y-127233674D01*
X24800000Y-127233674D01*
X24800000Y-125441326D01*
X24796549Y-125428450D01*
X24783674Y-125425000D01*
X24505482Y-125425000D01*
X24498885Y-125425353D01*
X24450332Y-125430573D01*
X24435358Y-125434111D01*
X24316222Y-125478547D01*
X24300810Y-125486962D01*
X24199907Y-125562498D01*
X24187498Y-125574907D01*
X24111962Y-125675810D01*
X24103547Y-125691222D01*
X24059111Y-125810358D01*
X24055573Y-125825332D01*
X24050353Y-125873885D01*
X24050000Y-125880482D01*
X24050000Y-127233674D01*
X23510499Y-127233674D01*
X23510499Y-125877128D01*
X23504091Y-125817517D01*
X23453796Y-125682669D01*
X23367546Y-125567454D01*
X23252331Y-125481204D01*
X23181965Y-125454959D01*
X23124752Y-125433620D01*
X23124750Y-125433619D01*
X23117483Y-125430909D01*
X23109770Y-125430079D01*
X23109767Y-125430079D01*
X23061180Y-125424855D01*
X23061169Y-125424854D01*
X23057873Y-125424500D01*
X23054550Y-125424500D01*
X21965439Y-125424500D01*
X21965420Y-125424500D01*
X21962128Y-125424501D01*
X21958850Y-125424853D01*
X21958838Y-125424854D01*
X21910231Y-125430079D01*
X21910225Y-125430080D01*
X21902517Y-125430909D01*
X21895252Y-125433618D01*
X21895246Y-125433620D01*
X21775980Y-125478104D01*
X21775978Y-125478104D01*
X21767669Y-125481204D01*
X21760572Y-125486516D01*
X21760568Y-125486519D01*
X21659550Y-125562141D01*
X21659546Y-125562144D01*
X21652454Y-125567454D01*
X21647144Y-125574546D01*
X21647141Y-125574550D01*
X21571519Y-125675568D01*
X21571516Y-125675572D01*
X21566204Y-125682669D01*
X21563104Y-125690978D01*
X21563104Y-125690980D01*
X21518620Y-125810247D01*
X21518619Y-125810250D01*
X21515909Y-125817517D01*
X21515079Y-125825227D01*
X21515079Y-125825232D01*
X21509855Y-125873819D01*
X21509854Y-125873831D01*
X21509500Y-125877127D01*
X21509500Y-125880448D01*
X21509500Y-125880449D01*
X21509500Y-129119560D01*
X21509500Y-129119578D01*
X20000500Y-129119578D01*
X20000500Y-121150000D01*
X23429659Y-121150000D01*
X23448993Y-121395655D01*
X23450128Y-121400384D01*
X23450129Y-121400388D01*
X23505379Y-121630525D01*
X23505381Y-121630533D01*
X23506517Y-121635262D01*
X23600816Y-121862920D01*
X23729567Y-122073023D01*
X23732731Y-122076728D01*
X23732735Y-122076733D01*
X23886434Y-122256691D01*
X23889601Y-122260399D01*
X23893308Y-122263565D01*
X24073266Y-122417264D01*
X24073269Y-122417266D01*
X24076977Y-122420433D01*
X24287080Y-122549184D01*
X24514738Y-122643483D01*
X24754345Y-122701007D01*
X25000000Y-122720341D01*
X25245655Y-122701007D01*
X25485262Y-122643483D01*
X25712920Y-122549184D01*
X25923023Y-122420433D01*
X26110399Y-122260399D01*
X26270433Y-122073023D01*
X26399184Y-121862920D01*
X26403689Y-121852045D01*
X26430569Y-121811818D01*
X26470797Y-121784939D01*
X26518249Y-121775500D01*
X30170981Y-121775500D01*
X30179151Y-121775500D01*
X30202386Y-121777696D01*
X30210412Y-121779227D01*
X30265758Y-121775745D01*
X30273545Y-121775500D01*
X30289350Y-121775500D01*
X33731751Y-121775500D01*
X33779203Y-121784939D01*
X33819431Y-121811818D01*
X33846311Y-121852045D01*
X33848948Y-121858412D01*
X33848950Y-121858415D01*
X33850816Y-121862920D01*
X33979567Y-122073023D01*
X33982731Y-122076728D01*
X33982735Y-122076733D01*
X34136434Y-122256691D01*
X34139601Y-122260399D01*
X34143308Y-122263565D01*
X34323266Y-122417264D01*
X34323269Y-122417266D01*
X34326977Y-122420433D01*
X34537080Y-122549184D01*
X34764738Y-122643483D01*
X35004345Y-122701007D01*
X35250000Y-122720341D01*
X35495655Y-122701007D01*
X35735262Y-122643483D01*
X35962920Y-122549184D01*
X36173023Y-122420433D01*
X36360399Y-122260399D01*
X36520433Y-122073023D01*
X36649184Y-121862920D01*
X36743483Y-121635262D01*
X36801007Y-121395655D01*
X36820341Y-121150000D01*
X36801007Y-120904345D01*
X36743483Y-120664738D01*
X36649184Y-120437080D01*
X36520433Y-120226977D01*
X36360399Y-120039601D01*
X36356691Y-120036434D01*
X36176733Y-119882735D01*
X36176728Y-119882731D01*
X36173023Y-119879567D01*
X35962920Y-119750816D01*
X35735262Y-119656517D01*
X35730533Y-119655381D01*
X35730525Y-119655379D01*
X35500388Y-119600129D01*
X35500384Y-119600128D01*
X35495655Y-119598993D01*
X35490802Y-119598611D01*
X35254854Y-119580041D01*
X35250000Y-119579659D01*
X35245146Y-119580041D01*
X35009197Y-119598611D01*
X35009195Y-119598611D01*
X35004345Y-119598993D01*
X34999617Y-119600127D01*
X34999611Y-119600129D01*
X34769474Y-119655379D01*
X34769462Y-119655382D01*
X34764738Y-119656517D01*
X34760241Y-119658379D01*
X34760237Y-119658381D01*
X34541584Y-119748950D01*
X34541579Y-119748952D01*
X34537080Y-119750816D01*
X34532927Y-119753360D01*
X34532921Y-119753364D01*
X34331134Y-119877019D01*
X34331128Y-119877022D01*
X34326977Y-119879567D01*
X34323277Y-119882726D01*
X34323266Y-119882735D01*
X34143308Y-120036434D01*
X34143301Y-120036440D01*
X34139601Y-120039601D01*
X34136440Y-120043301D01*
X34136434Y-120043308D01*
X33982735Y-120223266D01*
X33982726Y-120223277D01*
X33979567Y-120226977D01*
X33977022Y-120231128D01*
X33977019Y-120231134D01*
X33853364Y-120432921D01*
X33853360Y-120432927D01*
X33850816Y-120437080D01*
X33848953Y-120441575D01*
X33848948Y-120441587D01*
X33846311Y-120447955D01*
X33819431Y-120488182D01*
X33779203Y-120515061D01*
X33731751Y-120524500D01*
X30999500Y-120524500D01*
X30937500Y-120507887D01*
X30892113Y-120462500D01*
X30875500Y-120400500D01*
X30875500Y-112850000D01*
X33679659Y-112850000D01*
X33698993Y-113095655D01*
X33700128Y-113100384D01*
X33700129Y-113100388D01*
X33755379Y-113330525D01*
X33755381Y-113330533D01*
X33756517Y-113335262D01*
X33850816Y-113562920D01*
X33979567Y-113773023D01*
X33982731Y-113776728D01*
X33982735Y-113776733D01*
X34136434Y-113956691D01*
X34139601Y-113960399D01*
X34143308Y-113963565D01*
X34323266Y-114117264D01*
X34323269Y-114117266D01*
X34326977Y-114120433D01*
X34537080Y-114249184D01*
X34764738Y-114343483D01*
X35004345Y-114401007D01*
X35250000Y-114420341D01*
X35495655Y-114401007D01*
X35735262Y-114343483D01*
X35962920Y-114249184D01*
X36173023Y-114120433D01*
X36360399Y-113960399D01*
X36520433Y-113773023D01*
X36649184Y-113562920D01*
X36743483Y-113335262D01*
X36801007Y-113095655D01*
X36820341Y-112850000D01*
X36801007Y-112604345D01*
X36743483Y-112364738D01*
X36649184Y-112137080D01*
X36520433Y-111926977D01*
X36360399Y-111739601D01*
X36356691Y-111736434D01*
X36176733Y-111582735D01*
X36176728Y-111582731D01*
X36173023Y-111579567D01*
X35962920Y-111450816D01*
X35848835Y-111403560D01*
X35795971Y-111361885D01*
X35772671Y-111298729D01*
X35785804Y-111232705D01*
X35831499Y-111183273D01*
X35896289Y-111165000D01*
X36259518Y-111165000D01*
X36266114Y-111164646D01*
X36314667Y-111159426D01*
X36329641Y-111155888D01*
X36448777Y-111111452D01*
X36464189Y-111103037D01*
X36565092Y-111027501D01*
X36577501Y-111015092D01*
X36653037Y-110914189D01*
X36661452Y-110898777D01*
X36705888Y-110779641D01*
X36709426Y-110764667D01*
X36714646Y-110716114D01*
X36715000Y-110709518D01*
X36715000Y-110016326D01*
X36711549Y-110003450D01*
X36698674Y-110000000D01*
X33801326Y-110000000D01*
X33788450Y-110003450D01*
X33785000Y-110016326D01*
X33785000Y-110709518D01*
X33785353Y-110716114D01*
X33790573Y-110764667D01*
X33794111Y-110779641D01*
X33838547Y-110898777D01*
X33846962Y-110914189D01*
X33922498Y-111015092D01*
X33934907Y-111027501D01*
X34035810Y-111103037D01*
X34051222Y-111111452D01*
X34170358Y-111155888D01*
X34185332Y-111159426D01*
X34233885Y-111164646D01*
X34240482Y-111165000D01*
X34603711Y-111165000D01*
X34668501Y-111183273D01*
X34714196Y-111232705D01*
X34727329Y-111298729D01*
X34704029Y-111361885D01*
X34651164Y-111403561D01*
X34541584Y-111448950D01*
X34541579Y-111448952D01*
X34537080Y-111450816D01*
X34532927Y-111453360D01*
X34532921Y-111453364D01*
X34331134Y-111577019D01*
X34331128Y-111577022D01*
X34326977Y-111579567D01*
X34323277Y-111582726D01*
X34323266Y-111582735D01*
X34143308Y-111736434D01*
X34143301Y-111736440D01*
X34139601Y-111739601D01*
X34136440Y-111743301D01*
X34136434Y-111743308D01*
X33982735Y-111923266D01*
X33982726Y-111923277D01*
X33979567Y-111926977D01*
X33977022Y-111931128D01*
X33977019Y-111931134D01*
X33853364Y-112132921D01*
X33853360Y-112132927D01*
X33850816Y-112137080D01*
X33756517Y-112364738D01*
X33755382Y-112369462D01*
X33755379Y-112369474D01*
X33700129Y-112599611D01*
X33700127Y-112599617D01*
X33698993Y-112604345D01*
X33679659Y-112850000D01*
X30875500Y-112850000D01*
X30875500Y-109483674D01*
X33785000Y-109483674D01*
X33788450Y-109496549D01*
X33801326Y-109500000D01*
X34983674Y-109500000D01*
X34996549Y-109496549D01*
X35000000Y-109483674D01*
X35500000Y-109483674D01*
X35503450Y-109496549D01*
X35516326Y-109500000D01*
X36698674Y-109500000D01*
X36711549Y-109496549D01*
X36715000Y-109483674D01*
X36715000Y-108790482D01*
X36714646Y-108783885D01*
X36709426Y-108735332D01*
X36705888Y-108720358D01*
X36661452Y-108601222D01*
X36653037Y-108585810D01*
X36577501Y-108484907D01*
X36565092Y-108472498D01*
X36464189Y-108396962D01*
X36448777Y-108388547D01*
X36329641Y-108344111D01*
X36314667Y-108340573D01*
X36266114Y-108335353D01*
X36259518Y-108335000D01*
X35516326Y-108335000D01*
X35503450Y-108338450D01*
X35500000Y-108351326D01*
X35500000Y-109483674D01*
X35000000Y-109483674D01*
X35000000Y-108351326D01*
X34996549Y-108338450D01*
X34983674Y-108335000D01*
X34240482Y-108335000D01*
X34233885Y-108335353D01*
X34185332Y-108340573D01*
X34170358Y-108344111D01*
X34051222Y-108388547D01*
X34035810Y-108396962D01*
X33934907Y-108472498D01*
X33922498Y-108484907D01*
X33846962Y-108585810D01*
X33838547Y-108601222D01*
X33794111Y-108720358D01*
X33790573Y-108735332D01*
X33785353Y-108783885D01*
X33785000Y-108790482D01*
X33785000Y-109483674D01*
X30875500Y-109483674D01*
X30875500Y-107249500D01*
X30892113Y-107187500D01*
X30937500Y-107142113D01*
X30999500Y-107125500D01*
X33731751Y-107125500D01*
X33779203Y-107134939D01*
X33819431Y-107161818D01*
X33846311Y-107202045D01*
X33848948Y-107208412D01*
X33848950Y-107208415D01*
X33850816Y-107212920D01*
X33979567Y-107423023D01*
X33982731Y-107426728D01*
X33982735Y-107426733D01*
X34136434Y-107606691D01*
X34139601Y-107610399D01*
X34143308Y-107613565D01*
X34323266Y-107767264D01*
X34323269Y-107767266D01*
X34326977Y-107770433D01*
X34537080Y-107899184D01*
X34764738Y-107993483D01*
X35004345Y-108051007D01*
X35250000Y-108070341D01*
X35495655Y-108051007D01*
X35735262Y-107993483D01*
X35962920Y-107899184D01*
X36173023Y-107770433D01*
X36360399Y-107610399D01*
X36520433Y-107423023D01*
X36649184Y-107212920D01*
X36743483Y-106985262D01*
X36801007Y-106745655D01*
X36820341Y-106500000D01*
X36801007Y-106254345D01*
X36743483Y-106014738D01*
X36649184Y-105787080D01*
X36520433Y-105576977D01*
X36360399Y-105389601D01*
X36356691Y-105386434D01*
X36176733Y-105232735D01*
X36176728Y-105232731D01*
X36173023Y-105229567D01*
X35962920Y-105100816D01*
X35735262Y-105006517D01*
X35730533Y-105005381D01*
X35730525Y-105005379D01*
X35500388Y-104950129D01*
X35500384Y-104950128D01*
X35495655Y-104948993D01*
X35490802Y-104948611D01*
X35254854Y-104930041D01*
X35250000Y-104929659D01*
X35245146Y-104930041D01*
X35009197Y-104948611D01*
X35009195Y-104948611D01*
X35004345Y-104948993D01*
X34999617Y-104950127D01*
X34999611Y-104950129D01*
X34769474Y-105005379D01*
X34769462Y-105005382D01*
X34764738Y-105006517D01*
X34760241Y-105008379D01*
X34760237Y-105008381D01*
X34541584Y-105098950D01*
X34541579Y-105098952D01*
X34537080Y-105100816D01*
X34532927Y-105103360D01*
X34532921Y-105103364D01*
X34331134Y-105227019D01*
X34331128Y-105227022D01*
X34326977Y-105229567D01*
X34323277Y-105232726D01*
X34323266Y-105232735D01*
X34143308Y-105386434D01*
X34143301Y-105386440D01*
X34139601Y-105389601D01*
X34136440Y-105393301D01*
X34136434Y-105393308D01*
X33982735Y-105573266D01*
X33982726Y-105573277D01*
X33979567Y-105576977D01*
X33977022Y-105581128D01*
X33977019Y-105581134D01*
X33853364Y-105782921D01*
X33853360Y-105782927D01*
X33850816Y-105787080D01*
X33848953Y-105791575D01*
X33848948Y-105791587D01*
X33846311Y-105797955D01*
X33819431Y-105838182D01*
X33779203Y-105865061D01*
X33731751Y-105874500D01*
X30329019Y-105874500D01*
X30320849Y-105874500D01*
X30297614Y-105872304D01*
X30297246Y-105872233D01*
X30297239Y-105872232D01*
X30289588Y-105870773D01*
X30281809Y-105871262D01*
X30281804Y-105871262D01*
X30234241Y-105874255D01*
X30226455Y-105874500D01*
X26518249Y-105874500D01*
X26470797Y-105865061D01*
X26430569Y-105838182D01*
X26403689Y-105797955D01*
X26401051Y-105791587D01*
X26401050Y-105791585D01*
X26399184Y-105787080D01*
X26270433Y-105576977D01*
X26110399Y-105389601D01*
X26106691Y-105386434D01*
X25926733Y-105232735D01*
X25926728Y-105232731D01*
X25923023Y-105229567D01*
X25712920Y-105100816D01*
X25485262Y-105006517D01*
X25480533Y-105005381D01*
X25480525Y-105005379D01*
X25250388Y-104950129D01*
X25250384Y-104950128D01*
X25245655Y-104948993D01*
X25240802Y-104948611D01*
X25004854Y-104930041D01*
X25000000Y-104929659D01*
X24995146Y-104930041D01*
X24759197Y-104948611D01*
X24759195Y-104948611D01*
X24754345Y-104948993D01*
X24749617Y-104950127D01*
X24749611Y-104950129D01*
X24519474Y-105005379D01*
X24519462Y-105005382D01*
X24514738Y-105006517D01*
X24510241Y-105008379D01*
X24510237Y-105008381D01*
X24291584Y-105098950D01*
X24291579Y-105098952D01*
X24287080Y-105100816D01*
X24282927Y-105103360D01*
X24282921Y-105103364D01*
X24081134Y-105227019D01*
X24081128Y-105227022D01*
X24076977Y-105229567D01*
X24073277Y-105232726D01*
X24073266Y-105232735D01*
X23893308Y-105386434D01*
X23893301Y-105386440D01*
X23889601Y-105389601D01*
X23886440Y-105393301D01*
X23886434Y-105393308D01*
X23732735Y-105573266D01*
X23732726Y-105573277D01*
X23729567Y-105576977D01*
X23727022Y-105581128D01*
X23727019Y-105581134D01*
X23603364Y-105782921D01*
X23603360Y-105782927D01*
X23600816Y-105787080D01*
X23598952Y-105791579D01*
X23598950Y-105791584D01*
X23565544Y-105872233D01*
X23506517Y-106014738D01*
X23505382Y-106019462D01*
X23505379Y-106019474D01*
X23450129Y-106249611D01*
X23450127Y-106249617D01*
X23448993Y-106254345D01*
X23429659Y-106500000D01*
X23448993Y-106745655D01*
X23450128Y-106750384D01*
X23450129Y-106750388D01*
X23505379Y-106980525D01*
X23505381Y-106980533D01*
X23506517Y-106985262D01*
X23600816Y-107212920D01*
X23729567Y-107423023D01*
X23732731Y-107426728D01*
X23732735Y-107426733D01*
X23886434Y-107606691D01*
X23889601Y-107610399D01*
X23893308Y-107613565D01*
X24073266Y-107767264D01*
X24073269Y-107767266D01*
X24076977Y-107770433D01*
X24287080Y-107899184D01*
X24514738Y-107993483D01*
X24754345Y-108051007D01*
X25000000Y-108070341D01*
X25245655Y-108051007D01*
X25485262Y-107993483D01*
X25712920Y-107899184D01*
X25923023Y-107770433D01*
X26110399Y-107610399D01*
X26270433Y-107423023D01*
X26399184Y-107212920D01*
X26403689Y-107202045D01*
X26430569Y-107161818D01*
X26470797Y-107134939D01*
X26518249Y-107125500D01*
X29500500Y-107125500D01*
X29562500Y-107142113D01*
X29607887Y-107187500D01*
X29624500Y-107249500D01*
X29624500Y-120400500D01*
X29607887Y-120462500D01*
X29562500Y-120507887D01*
X29500500Y-120524500D01*
X26518249Y-120524500D01*
X26470797Y-120515061D01*
X26430569Y-120488182D01*
X26403689Y-120447955D01*
X26401051Y-120441587D01*
X26401050Y-120441585D01*
X26399184Y-120437080D01*
X26270433Y-120226977D01*
X26110399Y-120039601D01*
X26106691Y-120036434D01*
X25926733Y-119882735D01*
X25926728Y-119882731D01*
X25923023Y-119879567D01*
X25712920Y-119750816D01*
X25485262Y-119656517D01*
X25480533Y-119655381D01*
X25480525Y-119655379D01*
X25250388Y-119600129D01*
X25250384Y-119600128D01*
X25245655Y-119598993D01*
X25240802Y-119598611D01*
X25004854Y-119580041D01*
X25000000Y-119579659D01*
X24995146Y-119580041D01*
X24759197Y-119598611D01*
X24759195Y-119598611D01*
X24754345Y-119598993D01*
X24749617Y-119600127D01*
X24749611Y-119600129D01*
X24519474Y-119655379D01*
X24519462Y-119655382D01*
X24514738Y-119656517D01*
X24510241Y-119658379D01*
X24510237Y-119658381D01*
X24291584Y-119748950D01*
X24291579Y-119748952D01*
X24287080Y-119750816D01*
X24282927Y-119753360D01*
X24282921Y-119753364D01*
X24081134Y-119877019D01*
X24081128Y-119877022D01*
X24076977Y-119879567D01*
X24073277Y-119882726D01*
X24073266Y-119882735D01*
X23893308Y-120036434D01*
X23893301Y-120036440D01*
X23889601Y-120039601D01*
X23886440Y-120043301D01*
X23886434Y-120043308D01*
X23732735Y-120223266D01*
X23732726Y-120223277D01*
X23729567Y-120226977D01*
X23727022Y-120231128D01*
X23727019Y-120231134D01*
X23603364Y-120432921D01*
X23603360Y-120432927D01*
X23600816Y-120437080D01*
X23598952Y-120441579D01*
X23598950Y-120441584D01*
X23568515Y-120515061D01*
X23506517Y-120664738D01*
X23505382Y-120669462D01*
X23505379Y-120669474D01*
X23450129Y-120899611D01*
X23450127Y-120899617D01*
X23448993Y-120904345D01*
X23429659Y-121150000D01*
X20000500Y-121150000D01*
X20000500Y-112850000D01*
X23429659Y-112850000D01*
X23448993Y-113095655D01*
X23450128Y-113100384D01*
X23450129Y-113100388D01*
X23505379Y-113330525D01*
X23505381Y-113330533D01*
X23506517Y-113335262D01*
X23600816Y-113562920D01*
X23729567Y-113773023D01*
X23732731Y-113776728D01*
X23732735Y-113776733D01*
X23886434Y-113956691D01*
X23889601Y-113960399D01*
X23893308Y-113963565D01*
X24073266Y-114117264D01*
X24073269Y-114117266D01*
X24076977Y-114120433D01*
X24287080Y-114249184D01*
X24514738Y-114343483D01*
X24754345Y-114401007D01*
X25000000Y-114420341D01*
X25245655Y-114401007D01*
X25485262Y-114343483D01*
X25712920Y-114249184D01*
X25923023Y-114120433D01*
X26110399Y-113960399D01*
X26270433Y-113773023D01*
X26399184Y-113562920D01*
X26493483Y-113335262D01*
X26551007Y-113095655D01*
X26570341Y-112850000D01*
X26551007Y-112604345D01*
X26493483Y-112364738D01*
X26399184Y-112137080D01*
X26270433Y-111926977D01*
X26110399Y-111739601D01*
X26106691Y-111736434D01*
X25926733Y-111582735D01*
X25926728Y-111582731D01*
X25923023Y-111579567D01*
X25712920Y-111450816D01*
X25598835Y-111403560D01*
X25545971Y-111361885D01*
X25522671Y-111298729D01*
X25535804Y-111232705D01*
X25581499Y-111183273D01*
X25646289Y-111165000D01*
X26009518Y-111165000D01*
X26016114Y-111164646D01*
X26064667Y-111159426D01*
X26079641Y-111155888D01*
X26198777Y-111111452D01*
X26214189Y-111103037D01*
X26315092Y-111027501D01*
X26327501Y-111015092D01*
X26403037Y-110914189D01*
X26411452Y-110898777D01*
X26455888Y-110779641D01*
X26459426Y-110764667D01*
X26464646Y-110716114D01*
X26465000Y-110709518D01*
X26465000Y-110016326D01*
X26461549Y-110003450D01*
X26448674Y-110000000D01*
X23551326Y-110000000D01*
X23538450Y-110003450D01*
X23535000Y-110016326D01*
X23535000Y-110709518D01*
X23535353Y-110716114D01*
X23540573Y-110764667D01*
X23544111Y-110779641D01*
X23588547Y-110898777D01*
X23596962Y-110914189D01*
X23672498Y-111015092D01*
X23684907Y-111027501D01*
X23785810Y-111103037D01*
X23801222Y-111111452D01*
X23920358Y-111155888D01*
X23935332Y-111159426D01*
X23983885Y-111164646D01*
X23990482Y-111165000D01*
X24353711Y-111165000D01*
X24418501Y-111183273D01*
X24464196Y-111232705D01*
X24477329Y-111298729D01*
X24454029Y-111361885D01*
X24401164Y-111403561D01*
X24291584Y-111448950D01*
X24291579Y-111448952D01*
X24287080Y-111450816D01*
X24282927Y-111453360D01*
X24282921Y-111453364D01*
X24081134Y-111577019D01*
X24081128Y-111577022D01*
X24076977Y-111579567D01*
X24073277Y-111582726D01*
X24073266Y-111582735D01*
X23893308Y-111736434D01*
X23893301Y-111736440D01*
X23889601Y-111739601D01*
X23886440Y-111743301D01*
X23886434Y-111743308D01*
X23732735Y-111923266D01*
X23732726Y-111923277D01*
X23729567Y-111926977D01*
X23727022Y-111931128D01*
X23727019Y-111931134D01*
X23603364Y-112132921D01*
X23603360Y-112132927D01*
X23600816Y-112137080D01*
X23506517Y-112364738D01*
X23505382Y-112369462D01*
X23505379Y-112369474D01*
X23450129Y-112599611D01*
X23450127Y-112599617D01*
X23448993Y-112604345D01*
X23429659Y-112850000D01*
X20000500Y-112850000D01*
X20000500Y-109483674D01*
X23535000Y-109483674D01*
X23538450Y-109496549D01*
X23551326Y-109500000D01*
X24733674Y-109500000D01*
X24746549Y-109496549D01*
X24750000Y-109483674D01*
X25250000Y-109483674D01*
X25253450Y-109496549D01*
X25266326Y-109500000D01*
X26448674Y-109500000D01*
X26461549Y-109496549D01*
X26465000Y-109483674D01*
X26465000Y-108790482D01*
X26464646Y-108783885D01*
X26459426Y-108735332D01*
X26455888Y-108720358D01*
X26411452Y-108601222D01*
X26403037Y-108585810D01*
X26327501Y-108484907D01*
X26315092Y-108472498D01*
X26214189Y-108396962D01*
X26198777Y-108388547D01*
X26079641Y-108344111D01*
X26064667Y-108340573D01*
X26016114Y-108335353D01*
X26009518Y-108335000D01*
X25266326Y-108335000D01*
X25253450Y-108338450D01*
X25250000Y-108351326D01*
X25250000Y-109483674D01*
X24750000Y-109483674D01*
X24750000Y-108351326D01*
X24746549Y-108338450D01*
X24733674Y-108335000D01*
X23990482Y-108335000D01*
X23983885Y-108335353D01*
X23935332Y-108340573D01*
X23920358Y-108344111D01*
X23801222Y-108388547D01*
X23785810Y-108396962D01*
X23684907Y-108472498D01*
X23672498Y-108484907D01*
X23596962Y-108585810D01*
X23588547Y-108601222D01*
X23544111Y-108720358D01*
X23540573Y-108735332D01*
X23535353Y-108783885D01*
X23535000Y-108790482D01*
X23535000Y-109483674D01*
X20000500Y-109483674D01*
X20000500Y-98200000D01*
X23429659Y-98200000D01*
X23448993Y-98445655D01*
X23450128Y-98450384D01*
X23450129Y-98450388D01*
X23505379Y-98680525D01*
X23505381Y-98680533D01*
X23506517Y-98685262D01*
X23600816Y-98912920D01*
X23729567Y-99123023D01*
X23732731Y-99126728D01*
X23732735Y-99126733D01*
X23886434Y-99306691D01*
X23889601Y-99310399D01*
X23893308Y-99313565D01*
X24073266Y-99467264D01*
X24073269Y-99467266D01*
X24076977Y-99470433D01*
X24287080Y-99599184D01*
X24514738Y-99693483D01*
X24754345Y-99751007D01*
X25000000Y-99770341D01*
X25245655Y-99751007D01*
X25485262Y-99693483D01*
X25712920Y-99599184D01*
X25923023Y-99470433D01*
X26110399Y-99310399D01*
X26270433Y-99123023D01*
X26399184Y-98912920D01*
X26493483Y-98685262D01*
X26551007Y-98445655D01*
X26570341Y-98200000D01*
X33679659Y-98200000D01*
X33698993Y-98445655D01*
X33700128Y-98450384D01*
X33700129Y-98450388D01*
X33755379Y-98680525D01*
X33755381Y-98680533D01*
X33756517Y-98685262D01*
X33850816Y-98912920D01*
X33979567Y-99123023D01*
X33982731Y-99126728D01*
X33982735Y-99126733D01*
X34136434Y-99306691D01*
X34139601Y-99310399D01*
X34143308Y-99313565D01*
X34323266Y-99467264D01*
X34323269Y-99467266D01*
X34326977Y-99470433D01*
X34537080Y-99599184D01*
X34764738Y-99693483D01*
X35004345Y-99751007D01*
X35250000Y-99770341D01*
X35495655Y-99751007D01*
X35735262Y-99693483D01*
X35962920Y-99599184D01*
X36173023Y-99470433D01*
X36360399Y-99310399D01*
X36520433Y-99123023D01*
X36649184Y-98912920D01*
X36743483Y-98685262D01*
X36801007Y-98445655D01*
X36820341Y-98200000D01*
X36801007Y-97954345D01*
X36743483Y-97714738D01*
X36649184Y-97487080D01*
X36520433Y-97276977D01*
X36360399Y-97089601D01*
X36356691Y-97086434D01*
X36176733Y-96932735D01*
X36176728Y-96932731D01*
X36173023Y-96929567D01*
X35962920Y-96800816D01*
X35848835Y-96753560D01*
X35795971Y-96711885D01*
X35772671Y-96648729D01*
X35785804Y-96582705D01*
X35831499Y-96533273D01*
X35896289Y-96515000D01*
X36259518Y-96515000D01*
X36266114Y-96514646D01*
X36314667Y-96509426D01*
X36329641Y-96505888D01*
X36448777Y-96461452D01*
X36464189Y-96453037D01*
X36565092Y-96377501D01*
X36577501Y-96365092D01*
X36653037Y-96264189D01*
X36661452Y-96248777D01*
X36705888Y-96129641D01*
X36709426Y-96114667D01*
X36714646Y-96066114D01*
X36715000Y-96059518D01*
X36715000Y-95366326D01*
X36711549Y-95353450D01*
X36698674Y-95350000D01*
X33801326Y-95350000D01*
X33788450Y-95353450D01*
X33785000Y-95366326D01*
X33785000Y-96059518D01*
X33785353Y-96066114D01*
X33790573Y-96114667D01*
X33794111Y-96129641D01*
X33838547Y-96248777D01*
X33846962Y-96264189D01*
X33922498Y-96365092D01*
X33934907Y-96377501D01*
X34035810Y-96453037D01*
X34051222Y-96461452D01*
X34170358Y-96505888D01*
X34185332Y-96509426D01*
X34233885Y-96514646D01*
X34240482Y-96515000D01*
X34603711Y-96515000D01*
X34668501Y-96533273D01*
X34714196Y-96582705D01*
X34727329Y-96648729D01*
X34704029Y-96711885D01*
X34651164Y-96753561D01*
X34541584Y-96798950D01*
X34541579Y-96798952D01*
X34537080Y-96800816D01*
X34532927Y-96803360D01*
X34532921Y-96803364D01*
X34331134Y-96927019D01*
X34331128Y-96927022D01*
X34326977Y-96929567D01*
X34323277Y-96932726D01*
X34323266Y-96932735D01*
X34143308Y-97086434D01*
X34143301Y-97086440D01*
X34139601Y-97089601D01*
X34136440Y-97093301D01*
X34136434Y-97093308D01*
X33982735Y-97273266D01*
X33982726Y-97273277D01*
X33979567Y-97276977D01*
X33977022Y-97281128D01*
X33977019Y-97281134D01*
X33853364Y-97482921D01*
X33853360Y-97482927D01*
X33850816Y-97487080D01*
X33756517Y-97714738D01*
X33755382Y-97719462D01*
X33755379Y-97719474D01*
X33700129Y-97949611D01*
X33700127Y-97949617D01*
X33698993Y-97954345D01*
X33679659Y-98200000D01*
X26570341Y-98200000D01*
X26551007Y-97954345D01*
X26493483Y-97714738D01*
X26399184Y-97487080D01*
X26270433Y-97276977D01*
X26110399Y-97089601D01*
X26106691Y-97086434D01*
X25926733Y-96932735D01*
X25926728Y-96932731D01*
X25923023Y-96929567D01*
X25712920Y-96800816D01*
X25598835Y-96753560D01*
X25545971Y-96711885D01*
X25522671Y-96648729D01*
X25535804Y-96582705D01*
X25581499Y-96533273D01*
X25646289Y-96515000D01*
X26009518Y-96515000D01*
X26016114Y-96514646D01*
X26064667Y-96509426D01*
X26079641Y-96505888D01*
X26198777Y-96461452D01*
X26214189Y-96453037D01*
X26315092Y-96377501D01*
X26327501Y-96365092D01*
X26403037Y-96264189D01*
X26411452Y-96248777D01*
X26455888Y-96129641D01*
X26459426Y-96114667D01*
X26464646Y-96066114D01*
X26465000Y-96059518D01*
X26465000Y-95366326D01*
X26461549Y-95353450D01*
X26448674Y-95350000D01*
X23551326Y-95350000D01*
X23538450Y-95353450D01*
X23535000Y-95366326D01*
X23535000Y-96059518D01*
X23535353Y-96066114D01*
X23540573Y-96114667D01*
X23544111Y-96129641D01*
X23588547Y-96248777D01*
X23596962Y-96264189D01*
X23672498Y-96365092D01*
X23684907Y-96377501D01*
X23785810Y-96453037D01*
X23801222Y-96461452D01*
X23920358Y-96505888D01*
X23935332Y-96509426D01*
X23983885Y-96514646D01*
X23990482Y-96515000D01*
X24353711Y-96515000D01*
X24418501Y-96533273D01*
X24464196Y-96582705D01*
X24477329Y-96648729D01*
X24454029Y-96711885D01*
X24401164Y-96753561D01*
X24291584Y-96798950D01*
X24291579Y-96798952D01*
X24287080Y-96800816D01*
X24282927Y-96803360D01*
X24282921Y-96803364D01*
X24081134Y-96927019D01*
X24081128Y-96927022D01*
X24076977Y-96929567D01*
X24073277Y-96932726D01*
X24073266Y-96932735D01*
X23893308Y-97086434D01*
X23893301Y-97086440D01*
X23889601Y-97089601D01*
X23886440Y-97093301D01*
X23886434Y-97093308D01*
X23732735Y-97273266D01*
X23732726Y-97273277D01*
X23729567Y-97276977D01*
X23727022Y-97281128D01*
X23727019Y-97281134D01*
X23603364Y-97482921D01*
X23603360Y-97482927D01*
X23600816Y-97487080D01*
X23506517Y-97714738D01*
X23505382Y-97719462D01*
X23505379Y-97719474D01*
X23450129Y-97949611D01*
X23450127Y-97949617D01*
X23448993Y-97954345D01*
X23429659Y-98200000D01*
X20000500Y-98200000D01*
X20000500Y-94833674D01*
X23535000Y-94833674D01*
X23538450Y-94846549D01*
X23551326Y-94850000D01*
X24733674Y-94850000D01*
X24746549Y-94846549D01*
X24750000Y-94833674D01*
X25250000Y-94833674D01*
X25253450Y-94846549D01*
X25266326Y-94850000D01*
X26448674Y-94850000D01*
X26461549Y-94846549D01*
X26465000Y-94833674D01*
X33785000Y-94833674D01*
X33788450Y-94846549D01*
X33801326Y-94850000D01*
X34983674Y-94850000D01*
X34996549Y-94846549D01*
X35000000Y-94833674D01*
X35500000Y-94833674D01*
X35503450Y-94846549D01*
X35516326Y-94850000D01*
X36698674Y-94850000D01*
X36711549Y-94846549D01*
X36715000Y-94833674D01*
X36715000Y-94140482D01*
X36714646Y-94133885D01*
X36709426Y-94085332D01*
X36705888Y-94070358D01*
X36661452Y-93951222D01*
X36653037Y-93935810D01*
X36577501Y-93834907D01*
X36565092Y-93822498D01*
X36464189Y-93746962D01*
X36448777Y-93738547D01*
X36329641Y-93694111D01*
X36314667Y-93690573D01*
X36266114Y-93685353D01*
X36259518Y-93685000D01*
X35516326Y-93685000D01*
X35503450Y-93688450D01*
X35500000Y-93701326D01*
X35500000Y-94833674D01*
X35000000Y-94833674D01*
X35000000Y-93701326D01*
X34996549Y-93688450D01*
X34983674Y-93685000D01*
X34240482Y-93685000D01*
X34233885Y-93685353D01*
X34185332Y-93690573D01*
X34170358Y-93694111D01*
X34051222Y-93738547D01*
X34035810Y-93746962D01*
X33934907Y-93822498D01*
X33922498Y-93834907D01*
X33846962Y-93935810D01*
X33838547Y-93951222D01*
X33794111Y-94070358D01*
X33790573Y-94085332D01*
X33785353Y-94133885D01*
X33785000Y-94140482D01*
X33785000Y-94833674D01*
X26465000Y-94833674D01*
X26465000Y-94140482D01*
X26464646Y-94133885D01*
X26459426Y-94085332D01*
X26455888Y-94070358D01*
X26411452Y-93951222D01*
X26403037Y-93935810D01*
X26327501Y-93834907D01*
X26315092Y-93822498D01*
X26214189Y-93746962D01*
X26198777Y-93738547D01*
X26079641Y-93694111D01*
X26064667Y-93690573D01*
X26016114Y-93685353D01*
X26009518Y-93685000D01*
X25266326Y-93685000D01*
X25253450Y-93688450D01*
X25250000Y-93701326D01*
X25250000Y-94833674D01*
X24750000Y-94833674D01*
X24750000Y-93701326D01*
X24746549Y-93688450D01*
X24733674Y-93685000D01*
X23990482Y-93685000D01*
X23983885Y-93685353D01*
X23935332Y-93690573D01*
X23920358Y-93694111D01*
X23801222Y-93738547D01*
X23785810Y-93746962D01*
X23684907Y-93822498D01*
X23672498Y-93834907D01*
X23596962Y-93935810D01*
X23588547Y-93951222D01*
X23544111Y-94070358D01*
X23540573Y-94085332D01*
X23535353Y-94133885D01*
X23535000Y-94140482D01*
X23535000Y-94833674D01*
X20000500Y-94833674D01*
X20000500Y-88550000D01*
X23429659Y-88550000D01*
X23448993Y-88795655D01*
X23450128Y-88800384D01*
X23450129Y-88800388D01*
X23505379Y-89030525D01*
X23505381Y-89030533D01*
X23506517Y-89035262D01*
X23600816Y-89262920D01*
X23729567Y-89473023D01*
X23732731Y-89476728D01*
X23732735Y-89476733D01*
X23886434Y-89656691D01*
X23889601Y-89660399D01*
X23893308Y-89663565D01*
X24073266Y-89817264D01*
X24073269Y-89817266D01*
X24076977Y-89820433D01*
X24287080Y-89949184D01*
X24514738Y-90043483D01*
X24754345Y-90101007D01*
X25000000Y-90120341D01*
X25245655Y-90101007D01*
X25485262Y-90043483D01*
X25712920Y-89949184D01*
X25923023Y-89820433D01*
X26110399Y-89660399D01*
X26270433Y-89473023D01*
X26399184Y-89262920D01*
X26403689Y-89252045D01*
X26430569Y-89211818D01*
X26470797Y-89184939D01*
X26518249Y-89175500D01*
X29920981Y-89175500D01*
X29929151Y-89175500D01*
X29952386Y-89177696D01*
X29960412Y-89179227D01*
X30015758Y-89175745D01*
X30023545Y-89175500D01*
X30039350Y-89175500D01*
X33731751Y-89175500D01*
X33779203Y-89184939D01*
X33819431Y-89211818D01*
X33846311Y-89252045D01*
X33848948Y-89258412D01*
X33848950Y-89258415D01*
X33850816Y-89262920D01*
X33979567Y-89473023D01*
X33982731Y-89476728D01*
X33982735Y-89476733D01*
X34136434Y-89656691D01*
X34139601Y-89660399D01*
X34143308Y-89663565D01*
X34323266Y-89817264D01*
X34323269Y-89817266D01*
X34326977Y-89820433D01*
X34537080Y-89949184D01*
X34764738Y-90043483D01*
X35004345Y-90101007D01*
X35250000Y-90120341D01*
X35495655Y-90101007D01*
X35735262Y-90043483D01*
X35962920Y-89949184D01*
X36173023Y-89820433D01*
X36360399Y-89660399D01*
X36520433Y-89473023D01*
X36649184Y-89262920D01*
X36743483Y-89035262D01*
X36801007Y-88795655D01*
X36820341Y-88550000D01*
X36801007Y-88304345D01*
X36743483Y-88064738D01*
X36649184Y-87837080D01*
X36520433Y-87626977D01*
X36360399Y-87439601D01*
X36356691Y-87436434D01*
X36176733Y-87282735D01*
X36176728Y-87282731D01*
X36173023Y-87279567D01*
X35962920Y-87150816D01*
X35735262Y-87056517D01*
X35730533Y-87055381D01*
X35730525Y-87055379D01*
X35500388Y-87000129D01*
X35500384Y-87000128D01*
X35495655Y-86998993D01*
X35490802Y-86998611D01*
X35254854Y-86980041D01*
X35250000Y-86979659D01*
X35245146Y-86980041D01*
X35009197Y-86998611D01*
X35009195Y-86998611D01*
X35004345Y-86998993D01*
X34999617Y-87000127D01*
X34999611Y-87000129D01*
X34769474Y-87055379D01*
X34769462Y-87055382D01*
X34764738Y-87056517D01*
X34760241Y-87058379D01*
X34760237Y-87058381D01*
X34541584Y-87148950D01*
X34541579Y-87148952D01*
X34537080Y-87150816D01*
X34532927Y-87153360D01*
X34532921Y-87153364D01*
X34331134Y-87277019D01*
X34331128Y-87277022D01*
X34326977Y-87279567D01*
X34323277Y-87282726D01*
X34323266Y-87282735D01*
X34143308Y-87436434D01*
X34143301Y-87436440D01*
X34139601Y-87439601D01*
X34136440Y-87443301D01*
X34136434Y-87443308D01*
X33982735Y-87623266D01*
X33982726Y-87623277D01*
X33979567Y-87626977D01*
X33977022Y-87631128D01*
X33977019Y-87631134D01*
X33853364Y-87832921D01*
X33853360Y-87832927D01*
X33850816Y-87837080D01*
X33848953Y-87841575D01*
X33848948Y-87841587D01*
X33846311Y-87847955D01*
X33819431Y-87888182D01*
X33779203Y-87915061D01*
X33731751Y-87924500D01*
X30749500Y-87924500D01*
X30687500Y-87907887D01*
X30642113Y-87862500D01*
X30625500Y-87800500D01*
X30625500Y-80250000D01*
X33679659Y-80250000D01*
X33698993Y-80495655D01*
X33700128Y-80500384D01*
X33700129Y-80500388D01*
X33755379Y-80730525D01*
X33755381Y-80730533D01*
X33756517Y-80735262D01*
X33850816Y-80962920D01*
X33979567Y-81173023D01*
X33982731Y-81176728D01*
X33982735Y-81176733D01*
X34136434Y-81356691D01*
X34139601Y-81360399D01*
X34143308Y-81363565D01*
X34323266Y-81517264D01*
X34323269Y-81517266D01*
X34326977Y-81520433D01*
X34537080Y-81649184D01*
X34764738Y-81743483D01*
X35004345Y-81801007D01*
X35250000Y-81820341D01*
X35495655Y-81801007D01*
X35735262Y-81743483D01*
X35962920Y-81649184D01*
X36173023Y-81520433D01*
X36360399Y-81360399D01*
X36520433Y-81173023D01*
X36649184Y-80962920D01*
X36743483Y-80735262D01*
X36801007Y-80495655D01*
X36820341Y-80250000D01*
X36801007Y-80004345D01*
X36743483Y-79764738D01*
X36649184Y-79537080D01*
X36520433Y-79326977D01*
X36360399Y-79139601D01*
X36356691Y-79136434D01*
X36176733Y-78982735D01*
X36176728Y-78982731D01*
X36173023Y-78979567D01*
X35962920Y-78850816D01*
X35848835Y-78803560D01*
X35795971Y-78761885D01*
X35772671Y-78698729D01*
X35785804Y-78632705D01*
X35831499Y-78583273D01*
X35896289Y-78565000D01*
X36259518Y-78565000D01*
X36266114Y-78564646D01*
X36314667Y-78559426D01*
X36329641Y-78555888D01*
X36448777Y-78511452D01*
X36464189Y-78503037D01*
X36565092Y-78427501D01*
X36577501Y-78415092D01*
X36653037Y-78314189D01*
X36661452Y-78298777D01*
X36705888Y-78179641D01*
X36709426Y-78164667D01*
X36714646Y-78116114D01*
X36715000Y-78109518D01*
X36715000Y-77416326D01*
X36711549Y-77403450D01*
X36698674Y-77400000D01*
X33801326Y-77400000D01*
X33788450Y-77403450D01*
X33785000Y-77416326D01*
X33785000Y-78109518D01*
X33785353Y-78116114D01*
X33790573Y-78164667D01*
X33794111Y-78179641D01*
X33838547Y-78298777D01*
X33846962Y-78314189D01*
X33922498Y-78415092D01*
X33934907Y-78427501D01*
X34035810Y-78503037D01*
X34051222Y-78511452D01*
X34170358Y-78555888D01*
X34185332Y-78559426D01*
X34233885Y-78564646D01*
X34240482Y-78565000D01*
X34603711Y-78565000D01*
X34668501Y-78583273D01*
X34714196Y-78632705D01*
X34727329Y-78698729D01*
X34704029Y-78761885D01*
X34651164Y-78803561D01*
X34541584Y-78848950D01*
X34541579Y-78848952D01*
X34537080Y-78850816D01*
X34532927Y-78853360D01*
X34532921Y-78853364D01*
X34331134Y-78977019D01*
X34331128Y-78977022D01*
X34326977Y-78979567D01*
X34323277Y-78982726D01*
X34323266Y-78982735D01*
X34143308Y-79136434D01*
X34143301Y-79136440D01*
X34139601Y-79139601D01*
X34136440Y-79143301D01*
X34136434Y-79143308D01*
X33982735Y-79323266D01*
X33982726Y-79323277D01*
X33979567Y-79326977D01*
X33977022Y-79331128D01*
X33977019Y-79331134D01*
X33853364Y-79532921D01*
X33853360Y-79532927D01*
X33850816Y-79537080D01*
X33756517Y-79764738D01*
X33755382Y-79769462D01*
X33755379Y-79769474D01*
X33700129Y-79999611D01*
X33700127Y-79999617D01*
X33698993Y-80004345D01*
X33679659Y-80250000D01*
X30625500Y-80250000D01*
X30625500Y-76883674D01*
X33785000Y-76883674D01*
X33788450Y-76896549D01*
X33801326Y-76900000D01*
X34983674Y-76900000D01*
X34996549Y-76896549D01*
X35000000Y-76883674D01*
X35500000Y-76883674D01*
X35503450Y-76896549D01*
X35516326Y-76900000D01*
X36698674Y-76900000D01*
X36711549Y-76896549D01*
X36715000Y-76883674D01*
X36715000Y-76190482D01*
X36714646Y-76183885D01*
X36709426Y-76135332D01*
X36705888Y-76120358D01*
X36661452Y-76001222D01*
X36653037Y-75985810D01*
X36577501Y-75884907D01*
X36565092Y-75872498D01*
X36464189Y-75796962D01*
X36448777Y-75788547D01*
X36329641Y-75744111D01*
X36314667Y-75740573D01*
X36266114Y-75735353D01*
X36259518Y-75735000D01*
X35516326Y-75735000D01*
X35503450Y-75738450D01*
X35500000Y-75751326D01*
X35500000Y-76883674D01*
X35000000Y-76883674D01*
X35000000Y-75751326D01*
X34996549Y-75738450D01*
X34983674Y-75735000D01*
X34240482Y-75735000D01*
X34233885Y-75735353D01*
X34185332Y-75740573D01*
X34170358Y-75744111D01*
X34051222Y-75788547D01*
X34035810Y-75796962D01*
X33934907Y-75872498D01*
X33922498Y-75884907D01*
X33846962Y-75985810D01*
X33838547Y-76001222D01*
X33794111Y-76120358D01*
X33790573Y-76135332D01*
X33785353Y-76183885D01*
X33785000Y-76190482D01*
X33785000Y-76883674D01*
X30625500Y-76883674D01*
X30625500Y-74619500D01*
X30642113Y-74557500D01*
X30687500Y-74512113D01*
X30749500Y-74495500D01*
X33731751Y-74495500D01*
X33779203Y-74504939D01*
X33819431Y-74531818D01*
X33846311Y-74572045D01*
X33848948Y-74578412D01*
X33848950Y-74578415D01*
X33850816Y-74582920D01*
X33979567Y-74793023D01*
X33982731Y-74796728D01*
X33982735Y-74796733D01*
X34136434Y-74976691D01*
X34139601Y-74980399D01*
X34143308Y-74983565D01*
X34323266Y-75137264D01*
X34323269Y-75137266D01*
X34326977Y-75140433D01*
X34537080Y-75269184D01*
X34764738Y-75363483D01*
X35004345Y-75421007D01*
X35250000Y-75440341D01*
X35495655Y-75421007D01*
X35735262Y-75363483D01*
X35962920Y-75269184D01*
X36173023Y-75140433D01*
X36360399Y-74980399D01*
X36520433Y-74793023D01*
X36649184Y-74582920D01*
X36743483Y-74355262D01*
X36801007Y-74115655D01*
X36820341Y-73870000D01*
X36801007Y-73624345D01*
X36743483Y-73384738D01*
X36649184Y-73157080D01*
X36520433Y-72946977D01*
X36360399Y-72759601D01*
X36356691Y-72756434D01*
X36176733Y-72602735D01*
X36176728Y-72602731D01*
X36173023Y-72599567D01*
X35962920Y-72470816D01*
X35735262Y-72376517D01*
X35730533Y-72375381D01*
X35730525Y-72375379D01*
X35500388Y-72320129D01*
X35500384Y-72320128D01*
X35495655Y-72318993D01*
X35490802Y-72318611D01*
X35254854Y-72300041D01*
X35250000Y-72299659D01*
X35245146Y-72300041D01*
X35009197Y-72318611D01*
X35009195Y-72318611D01*
X35004345Y-72318993D01*
X34999617Y-72320127D01*
X34999611Y-72320129D01*
X34769474Y-72375379D01*
X34769462Y-72375382D01*
X34764738Y-72376517D01*
X34760241Y-72378379D01*
X34760237Y-72378381D01*
X34541584Y-72468950D01*
X34541579Y-72468952D01*
X34537080Y-72470816D01*
X34532927Y-72473360D01*
X34532921Y-72473364D01*
X34331134Y-72597019D01*
X34331128Y-72597022D01*
X34326977Y-72599567D01*
X34323277Y-72602726D01*
X34323266Y-72602735D01*
X34143308Y-72756434D01*
X34143301Y-72756440D01*
X34139601Y-72759601D01*
X34136440Y-72763301D01*
X34136434Y-72763308D01*
X33982735Y-72943266D01*
X33982726Y-72943277D01*
X33979567Y-72946977D01*
X33977022Y-72951128D01*
X33977019Y-72951134D01*
X33853364Y-73152921D01*
X33853360Y-73152927D01*
X33850816Y-73157080D01*
X33848953Y-73161575D01*
X33848948Y-73161587D01*
X33846311Y-73167955D01*
X33819431Y-73208182D01*
X33779203Y-73235061D01*
X33731751Y-73244500D01*
X30414291Y-73244500D01*
X30347849Y-73225197D01*
X30343836Y-73222650D01*
X30337823Y-73217676D01*
X30194826Y-73150386D01*
X30187167Y-73148924D01*
X30187164Y-73148924D01*
X30047245Y-73122233D01*
X30047239Y-73122232D01*
X30039588Y-73120773D01*
X30031809Y-73121262D01*
X30031804Y-73121262D01*
X29889649Y-73130206D01*
X29889648Y-73130206D01*
X29881862Y-73130696D01*
X29874447Y-73133105D01*
X29874443Y-73133106D01*
X29738977Y-73177122D01*
X29738972Y-73177124D01*
X29731559Y-73179533D01*
X29724979Y-73183708D01*
X29724972Y-73183712D01*
X29659604Y-73225197D01*
X29593162Y-73244500D01*
X26518249Y-73244500D01*
X26470797Y-73235061D01*
X26430569Y-73208182D01*
X26403689Y-73167955D01*
X26401051Y-73161587D01*
X26401050Y-73161585D01*
X26399184Y-73157080D01*
X26270433Y-72946977D01*
X26110399Y-72759601D01*
X26106691Y-72756434D01*
X25926733Y-72602735D01*
X25926728Y-72602731D01*
X25923023Y-72599567D01*
X25712920Y-72470816D01*
X25485262Y-72376517D01*
X25480533Y-72375381D01*
X25480525Y-72375379D01*
X25250388Y-72320129D01*
X25250384Y-72320128D01*
X25245655Y-72318993D01*
X25240802Y-72318611D01*
X25004854Y-72300041D01*
X25000000Y-72299659D01*
X24995146Y-72300041D01*
X24759197Y-72318611D01*
X24759195Y-72318611D01*
X24754345Y-72318993D01*
X24749617Y-72320127D01*
X24749611Y-72320129D01*
X24519474Y-72375379D01*
X24519462Y-72375382D01*
X24514738Y-72376517D01*
X24510241Y-72378379D01*
X24510237Y-72378381D01*
X24291584Y-72468950D01*
X24291579Y-72468952D01*
X24287080Y-72470816D01*
X24282927Y-72473360D01*
X24282921Y-72473364D01*
X24081134Y-72597019D01*
X24081128Y-72597022D01*
X24076977Y-72599567D01*
X24073277Y-72602726D01*
X24073266Y-72602735D01*
X23893308Y-72756434D01*
X23893301Y-72756440D01*
X23889601Y-72759601D01*
X23886440Y-72763301D01*
X23886434Y-72763308D01*
X23732735Y-72943266D01*
X23732726Y-72943277D01*
X23729567Y-72946977D01*
X23727022Y-72951128D01*
X23727019Y-72951134D01*
X23603364Y-73152921D01*
X23603360Y-73152927D01*
X23600816Y-73157080D01*
X23598952Y-73161579D01*
X23598950Y-73161584D01*
X23575716Y-73217676D01*
X23506517Y-73384738D01*
X23505382Y-73389462D01*
X23505379Y-73389474D01*
X23450129Y-73619611D01*
X23450127Y-73619617D01*
X23448993Y-73624345D01*
X23429659Y-73870000D01*
X23448993Y-74115655D01*
X23450128Y-74120384D01*
X23450129Y-74120388D01*
X23505379Y-74350525D01*
X23505381Y-74350533D01*
X23506517Y-74355262D01*
X23600816Y-74582920D01*
X23729567Y-74793023D01*
X23732731Y-74796728D01*
X23732735Y-74796733D01*
X23886434Y-74976691D01*
X23889601Y-74980399D01*
X23893308Y-74983565D01*
X24073266Y-75137264D01*
X24073269Y-75137266D01*
X24076977Y-75140433D01*
X24287080Y-75269184D01*
X24514738Y-75363483D01*
X24754345Y-75421007D01*
X25000000Y-75440341D01*
X25245655Y-75421007D01*
X25485262Y-75363483D01*
X25712920Y-75269184D01*
X25923023Y-75140433D01*
X26110399Y-74980399D01*
X26270433Y-74793023D01*
X26399184Y-74582920D01*
X26403689Y-74572045D01*
X26430569Y-74531818D01*
X26470797Y-74504939D01*
X26518249Y-74495500D01*
X29250500Y-74495500D01*
X29312500Y-74512113D01*
X29357887Y-74557500D01*
X29374500Y-74619500D01*
X29374500Y-87800500D01*
X29357887Y-87862500D01*
X29312500Y-87907887D01*
X29250500Y-87924500D01*
X26518249Y-87924500D01*
X26470797Y-87915061D01*
X26430569Y-87888182D01*
X26403689Y-87847955D01*
X26401051Y-87841587D01*
X26401050Y-87841585D01*
X26399184Y-87837080D01*
X26270433Y-87626977D01*
X26110399Y-87439601D01*
X26106691Y-87436434D01*
X25926733Y-87282735D01*
X25926728Y-87282731D01*
X25923023Y-87279567D01*
X25712920Y-87150816D01*
X25485262Y-87056517D01*
X25480533Y-87055381D01*
X25480525Y-87055379D01*
X25250388Y-87000129D01*
X25250384Y-87000128D01*
X25245655Y-86998993D01*
X25240802Y-86998611D01*
X25004854Y-86980041D01*
X25000000Y-86979659D01*
X24995146Y-86980041D01*
X24759197Y-86998611D01*
X24759195Y-86998611D01*
X24754345Y-86998993D01*
X24749617Y-87000127D01*
X24749611Y-87000129D01*
X24519474Y-87055379D01*
X24519462Y-87055382D01*
X24514738Y-87056517D01*
X24510241Y-87058379D01*
X24510237Y-87058381D01*
X24291584Y-87148950D01*
X24291579Y-87148952D01*
X24287080Y-87150816D01*
X24282927Y-87153360D01*
X24282921Y-87153364D01*
X24081134Y-87277019D01*
X24081128Y-87277022D01*
X24076977Y-87279567D01*
X24073277Y-87282726D01*
X24073266Y-87282735D01*
X23893308Y-87436434D01*
X23893301Y-87436440D01*
X23889601Y-87439601D01*
X23886440Y-87443301D01*
X23886434Y-87443308D01*
X23732735Y-87623266D01*
X23732726Y-87623277D01*
X23729567Y-87626977D01*
X23727022Y-87631128D01*
X23727019Y-87631134D01*
X23603364Y-87832921D01*
X23603360Y-87832927D01*
X23600816Y-87837080D01*
X23598952Y-87841579D01*
X23598950Y-87841584D01*
X23568515Y-87915061D01*
X23506517Y-88064738D01*
X23505382Y-88069462D01*
X23505379Y-88069474D01*
X23450129Y-88299611D01*
X23450127Y-88299617D01*
X23448993Y-88304345D01*
X23429659Y-88550000D01*
X20000500Y-88550000D01*
X20000500Y-80250000D01*
X23429659Y-80250000D01*
X23448993Y-80495655D01*
X23450128Y-80500384D01*
X23450129Y-80500388D01*
X23505379Y-80730525D01*
X23505381Y-80730533D01*
X23506517Y-80735262D01*
X23600816Y-80962920D01*
X23729567Y-81173023D01*
X23732731Y-81176728D01*
X23732735Y-81176733D01*
X23886434Y-81356691D01*
X23889601Y-81360399D01*
X23893308Y-81363565D01*
X24073266Y-81517264D01*
X24073269Y-81517266D01*
X24076977Y-81520433D01*
X24287080Y-81649184D01*
X24514738Y-81743483D01*
X24754345Y-81801007D01*
X25000000Y-81820341D01*
X25245655Y-81801007D01*
X25485262Y-81743483D01*
X25712920Y-81649184D01*
X25923023Y-81520433D01*
X26110399Y-81360399D01*
X26270433Y-81173023D01*
X26399184Y-80962920D01*
X26493483Y-80735262D01*
X26551007Y-80495655D01*
X26570341Y-80250000D01*
X26551007Y-80004345D01*
X26493483Y-79764738D01*
X26399184Y-79537080D01*
X26270433Y-79326977D01*
X26110399Y-79139601D01*
X26106691Y-79136434D01*
X25926733Y-78982735D01*
X25926728Y-78982731D01*
X25923023Y-78979567D01*
X25712920Y-78850816D01*
X25598835Y-78803560D01*
X25545971Y-78761885D01*
X25522671Y-78698729D01*
X25535804Y-78632705D01*
X25581499Y-78583273D01*
X25646289Y-78565000D01*
X26009518Y-78565000D01*
X26016114Y-78564646D01*
X26064667Y-78559426D01*
X26079641Y-78555888D01*
X26198777Y-78511452D01*
X26214189Y-78503037D01*
X26315092Y-78427501D01*
X26327501Y-78415092D01*
X26403037Y-78314189D01*
X26411452Y-78298777D01*
X26455888Y-78179641D01*
X26459426Y-78164667D01*
X26464646Y-78116114D01*
X26465000Y-78109518D01*
X26465000Y-77416326D01*
X26461549Y-77403450D01*
X26448674Y-77400000D01*
X23551326Y-77400000D01*
X23538450Y-77403450D01*
X23535000Y-77416326D01*
X23535000Y-78109518D01*
X23535353Y-78116114D01*
X23540573Y-78164667D01*
X23544111Y-78179641D01*
X23588547Y-78298777D01*
X23596962Y-78314189D01*
X23672498Y-78415092D01*
X23684907Y-78427501D01*
X23785810Y-78503037D01*
X23801222Y-78511452D01*
X23920358Y-78555888D01*
X23935332Y-78559426D01*
X23983885Y-78564646D01*
X23990482Y-78565000D01*
X24353711Y-78565000D01*
X24418501Y-78583273D01*
X24464196Y-78632705D01*
X24477329Y-78698729D01*
X24454029Y-78761885D01*
X24401164Y-78803561D01*
X24291584Y-78848950D01*
X24291579Y-78848952D01*
X24287080Y-78850816D01*
X24282927Y-78853360D01*
X24282921Y-78853364D01*
X24081134Y-78977019D01*
X24081128Y-78977022D01*
X24076977Y-78979567D01*
X24073277Y-78982726D01*
X24073266Y-78982735D01*
X23893308Y-79136434D01*
X23893301Y-79136440D01*
X23889601Y-79139601D01*
X23886440Y-79143301D01*
X23886434Y-79143308D01*
X23732735Y-79323266D01*
X23732726Y-79323277D01*
X23729567Y-79326977D01*
X23727022Y-79331128D01*
X23727019Y-79331134D01*
X23603364Y-79532921D01*
X23603360Y-79532927D01*
X23600816Y-79537080D01*
X23506517Y-79764738D01*
X23505382Y-79769462D01*
X23505379Y-79769474D01*
X23450129Y-79999611D01*
X23450127Y-79999617D01*
X23448993Y-80004345D01*
X23429659Y-80250000D01*
X20000500Y-80250000D01*
X20000500Y-76883674D01*
X23535000Y-76883674D01*
X23538450Y-76896549D01*
X23551326Y-76900000D01*
X24733674Y-76900000D01*
X24746549Y-76896549D01*
X24750000Y-76883674D01*
X25250000Y-76883674D01*
X25253450Y-76896549D01*
X25266326Y-76900000D01*
X26448674Y-76900000D01*
X26461549Y-76896549D01*
X26465000Y-76883674D01*
X26465000Y-76190482D01*
X26464646Y-76183885D01*
X26459426Y-76135332D01*
X26455888Y-76120358D01*
X26411452Y-76001222D01*
X26403037Y-75985810D01*
X26327501Y-75884907D01*
X26315092Y-75872498D01*
X26214189Y-75796962D01*
X26198777Y-75788547D01*
X26079641Y-75744111D01*
X26064667Y-75740573D01*
X26016114Y-75735353D01*
X26009518Y-75735000D01*
X25266326Y-75735000D01*
X25253450Y-75738450D01*
X25250000Y-75751326D01*
X25250000Y-76883674D01*
X24750000Y-76883674D01*
X24750000Y-75751326D01*
X24746549Y-75738450D01*
X24733674Y-75735000D01*
X23990482Y-75735000D01*
X23983885Y-75735353D01*
X23935332Y-75740573D01*
X23920358Y-75744111D01*
X23801222Y-75788547D01*
X23785810Y-75796962D01*
X23684907Y-75872498D01*
X23672498Y-75884907D01*
X23596962Y-75985810D01*
X23588547Y-76001222D01*
X23544111Y-76120358D01*
X23540573Y-76135332D01*
X23535353Y-76183885D01*
X23535000Y-76190482D01*
X23535000Y-76883674D01*
X20000500Y-76883674D01*
X20000500Y-65570000D01*
X23429659Y-65570000D01*
X23448993Y-65815655D01*
X23450128Y-65820384D01*
X23450129Y-65820388D01*
X23505379Y-66050525D01*
X23505381Y-66050533D01*
X23506517Y-66055262D01*
X23600816Y-66282920D01*
X23729567Y-66493023D01*
X23732731Y-66496728D01*
X23732735Y-66496733D01*
X23886434Y-66676691D01*
X23889601Y-66680399D01*
X23893308Y-66683565D01*
X24073266Y-66837264D01*
X24073269Y-66837266D01*
X24076977Y-66840433D01*
X24287080Y-66969184D01*
X24514738Y-67063483D01*
X24754345Y-67121007D01*
X25000000Y-67140341D01*
X25245655Y-67121007D01*
X25485262Y-67063483D01*
X25712920Y-66969184D01*
X25923023Y-66840433D01*
X26110399Y-66680399D01*
X26270433Y-66493023D01*
X26399184Y-66282920D01*
X26493483Y-66055262D01*
X26551007Y-65815655D01*
X26570341Y-65570000D01*
X33679659Y-65570000D01*
X33698993Y-65815655D01*
X33700128Y-65820384D01*
X33700129Y-65820388D01*
X33755379Y-66050525D01*
X33755381Y-66050533D01*
X33756517Y-66055262D01*
X33850816Y-66282920D01*
X33979567Y-66493023D01*
X33982731Y-66496728D01*
X33982735Y-66496733D01*
X34136434Y-66676691D01*
X34139601Y-66680399D01*
X34143308Y-66683565D01*
X34323266Y-66837264D01*
X34323269Y-66837266D01*
X34326977Y-66840433D01*
X34537080Y-66969184D01*
X34764738Y-67063483D01*
X35004345Y-67121007D01*
X35250000Y-67140341D01*
X35495655Y-67121007D01*
X35735262Y-67063483D01*
X35962920Y-66969184D01*
X36173023Y-66840433D01*
X36360399Y-66680399D01*
X36520433Y-66493023D01*
X36649184Y-66282920D01*
X36743483Y-66055262D01*
X36801007Y-65815655D01*
X36820341Y-65570000D01*
X36801007Y-65324345D01*
X36743483Y-65084738D01*
X36649184Y-64857080D01*
X36520433Y-64646977D01*
X36360399Y-64459601D01*
X36356691Y-64456434D01*
X36176733Y-64302735D01*
X36176728Y-64302731D01*
X36173023Y-64299567D01*
X35962920Y-64170816D01*
X35848835Y-64123560D01*
X35795971Y-64081885D01*
X35772671Y-64018729D01*
X35785804Y-63952705D01*
X35831499Y-63903273D01*
X35896289Y-63885000D01*
X36259518Y-63885000D01*
X36266114Y-63884646D01*
X36314667Y-63879426D01*
X36329641Y-63875888D01*
X36448777Y-63831452D01*
X36464189Y-63823037D01*
X36565092Y-63747501D01*
X36577501Y-63735092D01*
X36653037Y-63634189D01*
X36661452Y-63618777D01*
X36705888Y-63499641D01*
X36709426Y-63484667D01*
X36714646Y-63436114D01*
X36715000Y-63429518D01*
X36715000Y-62736326D01*
X36711549Y-62723450D01*
X36698674Y-62720000D01*
X33801326Y-62720000D01*
X33788450Y-62723450D01*
X33785000Y-62736326D01*
X33785000Y-63429518D01*
X33785353Y-63436114D01*
X33790573Y-63484667D01*
X33794111Y-63499641D01*
X33838547Y-63618777D01*
X33846962Y-63634189D01*
X33922498Y-63735092D01*
X33934907Y-63747501D01*
X34035810Y-63823037D01*
X34051222Y-63831452D01*
X34170358Y-63875888D01*
X34185332Y-63879426D01*
X34233885Y-63884646D01*
X34240482Y-63885000D01*
X34603711Y-63885000D01*
X34668501Y-63903273D01*
X34714196Y-63952705D01*
X34727329Y-64018729D01*
X34704029Y-64081885D01*
X34651164Y-64123561D01*
X34541584Y-64168950D01*
X34541579Y-64168952D01*
X34537080Y-64170816D01*
X34532927Y-64173360D01*
X34532921Y-64173364D01*
X34331134Y-64297019D01*
X34331128Y-64297022D01*
X34326977Y-64299567D01*
X34323277Y-64302726D01*
X34323266Y-64302735D01*
X34143308Y-64456434D01*
X34143301Y-64456440D01*
X34139601Y-64459601D01*
X34136440Y-64463301D01*
X34136434Y-64463308D01*
X33982735Y-64643266D01*
X33982726Y-64643277D01*
X33979567Y-64646977D01*
X33977022Y-64651128D01*
X33977019Y-64651134D01*
X33853364Y-64852921D01*
X33853360Y-64852927D01*
X33850816Y-64857080D01*
X33756517Y-65084738D01*
X33755382Y-65089462D01*
X33755379Y-65089474D01*
X33700129Y-65319611D01*
X33700127Y-65319617D01*
X33698993Y-65324345D01*
X33679659Y-65570000D01*
X26570341Y-65570000D01*
X26551007Y-65324345D01*
X26493483Y-65084738D01*
X26399184Y-64857080D01*
X26270433Y-64646977D01*
X26110399Y-64459601D01*
X26106691Y-64456434D01*
X25926733Y-64302735D01*
X25926728Y-64302731D01*
X25923023Y-64299567D01*
X25712920Y-64170816D01*
X25598835Y-64123560D01*
X25545971Y-64081885D01*
X25522671Y-64018729D01*
X25535804Y-63952705D01*
X25581499Y-63903273D01*
X25646289Y-63885000D01*
X26009518Y-63885000D01*
X26016114Y-63884646D01*
X26064667Y-63879426D01*
X26079641Y-63875888D01*
X26198777Y-63831452D01*
X26214189Y-63823037D01*
X26315092Y-63747501D01*
X26327501Y-63735092D01*
X26403037Y-63634189D01*
X26411452Y-63618777D01*
X26455888Y-63499641D01*
X26459426Y-63484667D01*
X26464646Y-63436114D01*
X26465000Y-63429518D01*
X26465000Y-62736326D01*
X26461549Y-62723450D01*
X26448674Y-62720000D01*
X23551326Y-62720000D01*
X23538450Y-62723450D01*
X23535000Y-62736326D01*
X23535000Y-63429518D01*
X23535353Y-63436114D01*
X23540573Y-63484667D01*
X23544111Y-63499641D01*
X23588547Y-63618777D01*
X23596962Y-63634189D01*
X23672498Y-63735092D01*
X23684907Y-63747501D01*
X23785810Y-63823037D01*
X23801222Y-63831452D01*
X23920358Y-63875888D01*
X23935332Y-63879426D01*
X23983885Y-63884646D01*
X23990482Y-63885000D01*
X24353711Y-63885000D01*
X24418501Y-63903273D01*
X24464196Y-63952705D01*
X24477329Y-64018729D01*
X24454029Y-64081885D01*
X24401164Y-64123561D01*
X24291584Y-64168950D01*
X24291579Y-64168952D01*
X24287080Y-64170816D01*
X24282927Y-64173360D01*
X24282921Y-64173364D01*
X24081134Y-64297019D01*
X24081128Y-64297022D01*
X24076977Y-64299567D01*
X24073277Y-64302726D01*
X24073266Y-64302735D01*
X23893308Y-64456434D01*
X23893301Y-64456440D01*
X23889601Y-64459601D01*
X23886440Y-64463301D01*
X23886434Y-64463308D01*
X23732735Y-64643266D01*
X23732726Y-64643277D01*
X23729567Y-64646977D01*
X23727022Y-64651128D01*
X23727019Y-64651134D01*
X23603364Y-64852921D01*
X23603360Y-64852927D01*
X23600816Y-64857080D01*
X23506517Y-65084738D01*
X23505382Y-65089462D01*
X23505379Y-65089474D01*
X23450129Y-65319611D01*
X23450127Y-65319617D01*
X23448993Y-65324345D01*
X23429659Y-65570000D01*
X20000500Y-65570000D01*
X20000500Y-62203674D01*
X23535000Y-62203674D01*
X23538450Y-62216549D01*
X23551326Y-62220000D01*
X24733674Y-62220000D01*
X24746549Y-62216549D01*
X24750000Y-62203674D01*
X25250000Y-62203674D01*
X25253450Y-62216549D01*
X25266326Y-62220000D01*
X26448674Y-62220000D01*
X26461549Y-62216549D01*
X26465000Y-62203674D01*
X33785000Y-62203674D01*
X33788450Y-62216549D01*
X33801326Y-62220000D01*
X34983674Y-62220000D01*
X34996549Y-62216549D01*
X35000000Y-62203674D01*
X35500000Y-62203674D01*
X35503450Y-62216549D01*
X35516326Y-62220000D01*
X36698674Y-62220000D01*
X36711549Y-62216549D01*
X36715000Y-62203674D01*
X36715000Y-61510482D01*
X36714646Y-61503885D01*
X36709426Y-61455332D01*
X36705888Y-61440358D01*
X36661452Y-61321222D01*
X36653037Y-61305810D01*
X36577501Y-61204907D01*
X36565092Y-61192498D01*
X36464189Y-61116962D01*
X36448777Y-61108547D01*
X36329641Y-61064111D01*
X36314667Y-61060573D01*
X36266114Y-61055353D01*
X36259518Y-61055000D01*
X35516326Y-61055000D01*
X35503450Y-61058450D01*
X35500000Y-61071326D01*
X35500000Y-62203674D01*
X35000000Y-62203674D01*
X35000000Y-61071326D01*
X34996549Y-61058450D01*
X34983674Y-61055000D01*
X34240482Y-61055000D01*
X34233885Y-61055353D01*
X34185332Y-61060573D01*
X34170358Y-61064111D01*
X34051222Y-61108547D01*
X34035810Y-61116962D01*
X33934907Y-61192498D01*
X33922498Y-61204907D01*
X33846962Y-61305810D01*
X33838547Y-61321222D01*
X33794111Y-61440358D01*
X33790573Y-61455332D01*
X33785353Y-61503885D01*
X33785000Y-61510482D01*
X33785000Y-62203674D01*
X26465000Y-62203674D01*
X26465000Y-61510482D01*
X26464646Y-61503885D01*
X26459426Y-61455332D01*
X26455888Y-61440358D01*
X26411452Y-61321222D01*
X26403037Y-61305810D01*
X26327501Y-61204907D01*
X26315092Y-61192498D01*
X26214189Y-61116962D01*
X26198777Y-61108547D01*
X26079641Y-61064111D01*
X26064667Y-61060573D01*
X26016114Y-61055353D01*
X26009518Y-61055000D01*
X25266326Y-61055000D01*
X25253450Y-61058450D01*
X25250000Y-61071326D01*
X25250000Y-62203674D01*
X24750000Y-62203674D01*
X24750000Y-61071326D01*
X24746549Y-61058450D01*
X24733674Y-61055000D01*
X23990482Y-61055000D01*
X23983885Y-61055353D01*
X23935332Y-61060573D01*
X23920358Y-61064111D01*
X23801222Y-61108547D01*
X23785810Y-61116962D01*
X23684907Y-61192498D01*
X23672498Y-61204907D01*
X23596962Y-61305810D01*
X23588547Y-61321222D01*
X23544111Y-61440358D01*
X23540573Y-61455332D01*
X23535353Y-61503885D01*
X23535000Y-61510482D01*
X23535000Y-62203674D01*
X20000500Y-62203674D01*
X20000500Y-57250000D01*
X23429659Y-57250000D01*
X23448993Y-57495655D01*
X23450128Y-57500384D01*
X23450129Y-57500388D01*
X23505379Y-57730525D01*
X23505381Y-57730533D01*
X23506517Y-57735262D01*
X23600816Y-57962920D01*
X23729567Y-58173023D01*
X23732731Y-58176728D01*
X23732735Y-58176733D01*
X23886434Y-58356691D01*
X23889601Y-58360399D01*
X23893308Y-58363565D01*
X24073266Y-58517264D01*
X24073269Y-58517266D01*
X24076977Y-58520433D01*
X24287080Y-58649184D01*
X24514738Y-58743483D01*
X24754345Y-58801007D01*
X25000000Y-58820341D01*
X25245655Y-58801007D01*
X25485262Y-58743483D01*
X25712920Y-58649184D01*
X25923023Y-58520433D01*
X26110399Y-58360399D01*
X26270433Y-58173023D01*
X26399184Y-57962920D01*
X26403689Y-57952045D01*
X26430569Y-57911818D01*
X26470797Y-57884939D01*
X26518249Y-57875500D01*
X29920981Y-57875500D01*
X29929151Y-57875500D01*
X29952386Y-57877696D01*
X29960412Y-57879227D01*
X30015758Y-57875745D01*
X30023545Y-57875500D01*
X30039350Y-57875500D01*
X33731751Y-57875500D01*
X33779203Y-57884939D01*
X33819431Y-57911818D01*
X33846311Y-57952045D01*
X33848948Y-57958412D01*
X33848950Y-57958415D01*
X33850816Y-57962920D01*
X33979567Y-58173023D01*
X33982731Y-58176728D01*
X33982735Y-58176733D01*
X34136434Y-58356691D01*
X34139601Y-58360399D01*
X34143308Y-58363565D01*
X34323266Y-58517264D01*
X34323269Y-58517266D01*
X34326977Y-58520433D01*
X34537080Y-58649184D01*
X34764738Y-58743483D01*
X35004345Y-58801007D01*
X35250000Y-58820341D01*
X35495655Y-58801007D01*
X35735262Y-58743483D01*
X35962920Y-58649184D01*
X36173023Y-58520433D01*
X36360399Y-58360399D01*
X36520433Y-58173023D01*
X36649184Y-57962920D01*
X36743483Y-57735262D01*
X36801007Y-57495655D01*
X36820341Y-57250000D01*
X36801007Y-57004345D01*
X36743483Y-56764738D01*
X36649184Y-56537080D01*
X36520433Y-56326977D01*
X36360399Y-56139601D01*
X36356691Y-56136434D01*
X36176733Y-55982735D01*
X36176728Y-55982731D01*
X36173023Y-55979567D01*
X35962920Y-55850816D01*
X35735262Y-55756517D01*
X35730533Y-55755381D01*
X35730525Y-55755379D01*
X35500388Y-55700129D01*
X35500384Y-55700128D01*
X35495655Y-55698993D01*
X35490802Y-55698611D01*
X35254854Y-55680041D01*
X35250000Y-55679659D01*
X35245146Y-55680041D01*
X35009197Y-55698611D01*
X35009195Y-55698611D01*
X35004345Y-55698993D01*
X34999617Y-55700127D01*
X34999611Y-55700129D01*
X34769474Y-55755379D01*
X34769462Y-55755382D01*
X34764738Y-55756517D01*
X34760241Y-55758379D01*
X34760237Y-55758381D01*
X34541584Y-55848950D01*
X34541579Y-55848952D01*
X34537080Y-55850816D01*
X34532927Y-55853360D01*
X34532921Y-55853364D01*
X34331134Y-55977019D01*
X34331128Y-55977022D01*
X34326977Y-55979567D01*
X34323277Y-55982726D01*
X34323266Y-55982735D01*
X34143308Y-56136434D01*
X34143301Y-56136440D01*
X34139601Y-56139601D01*
X34136440Y-56143301D01*
X34136434Y-56143308D01*
X33982735Y-56323266D01*
X33982726Y-56323277D01*
X33979567Y-56326977D01*
X33977022Y-56331128D01*
X33977019Y-56331134D01*
X33853364Y-56532921D01*
X33853360Y-56532927D01*
X33850816Y-56537080D01*
X33848953Y-56541575D01*
X33848948Y-56541587D01*
X33846311Y-56547955D01*
X33819431Y-56588182D01*
X33779203Y-56615061D01*
X33731751Y-56624500D01*
X30749500Y-56624500D01*
X30687500Y-56607887D01*
X30642113Y-56562500D01*
X30625500Y-56500500D01*
X30625500Y-48950000D01*
X33679659Y-48950000D01*
X33698993Y-49195655D01*
X33700128Y-49200384D01*
X33700129Y-49200388D01*
X33755379Y-49430525D01*
X33755381Y-49430533D01*
X33756517Y-49435262D01*
X33850816Y-49662920D01*
X33979567Y-49873023D01*
X33982731Y-49876728D01*
X33982735Y-49876733D01*
X34136434Y-50056691D01*
X34139601Y-50060399D01*
X34143308Y-50063565D01*
X34323266Y-50217264D01*
X34323269Y-50217266D01*
X34326977Y-50220433D01*
X34537080Y-50349184D01*
X34764738Y-50443483D01*
X35004345Y-50501007D01*
X35250000Y-50520341D01*
X35495655Y-50501007D01*
X35735262Y-50443483D01*
X35962920Y-50349184D01*
X36173023Y-50220433D01*
X36360399Y-50060399D01*
X36520433Y-49873023D01*
X36649184Y-49662920D01*
X36743483Y-49435262D01*
X36801007Y-49195655D01*
X36820341Y-48950000D01*
X36801007Y-48704345D01*
X36743483Y-48464738D01*
X36649184Y-48237080D01*
X36520433Y-48026977D01*
X36360399Y-47839601D01*
X36356691Y-47836434D01*
X36176733Y-47682735D01*
X36176728Y-47682731D01*
X36173023Y-47679567D01*
X35962920Y-47550816D01*
X35848835Y-47503560D01*
X35795971Y-47461885D01*
X35772671Y-47398729D01*
X35785804Y-47332705D01*
X35831499Y-47283273D01*
X35896289Y-47265000D01*
X36259518Y-47265000D01*
X36266114Y-47264646D01*
X36314667Y-47259426D01*
X36329641Y-47255888D01*
X36448777Y-47211452D01*
X36464189Y-47203037D01*
X36565092Y-47127501D01*
X36577501Y-47115092D01*
X36653037Y-47014189D01*
X36661452Y-46998777D01*
X36705888Y-46879641D01*
X36709426Y-46864667D01*
X36714646Y-46816114D01*
X36715000Y-46809518D01*
X36715000Y-46116326D01*
X36711549Y-46103450D01*
X36698674Y-46100000D01*
X33801326Y-46100000D01*
X33788450Y-46103450D01*
X33785000Y-46116326D01*
X33785000Y-46809518D01*
X33785353Y-46816114D01*
X33790573Y-46864667D01*
X33794111Y-46879641D01*
X33838547Y-46998777D01*
X33846962Y-47014189D01*
X33922498Y-47115092D01*
X33934907Y-47127501D01*
X34035810Y-47203037D01*
X34051222Y-47211452D01*
X34170358Y-47255888D01*
X34185332Y-47259426D01*
X34233885Y-47264646D01*
X34240482Y-47265000D01*
X34603711Y-47265000D01*
X34668501Y-47283273D01*
X34714196Y-47332705D01*
X34727329Y-47398729D01*
X34704029Y-47461885D01*
X34651164Y-47503561D01*
X34541584Y-47548950D01*
X34541579Y-47548952D01*
X34537080Y-47550816D01*
X34532927Y-47553360D01*
X34532921Y-47553364D01*
X34331134Y-47677019D01*
X34331128Y-47677022D01*
X34326977Y-47679567D01*
X34323277Y-47682726D01*
X34323266Y-47682735D01*
X34143308Y-47836434D01*
X34143301Y-47836440D01*
X34139601Y-47839601D01*
X34136440Y-47843301D01*
X34136434Y-47843308D01*
X33982735Y-48023266D01*
X33982726Y-48023277D01*
X33979567Y-48026977D01*
X33977022Y-48031128D01*
X33977019Y-48031134D01*
X33853364Y-48232921D01*
X33853360Y-48232927D01*
X33850816Y-48237080D01*
X33756517Y-48464738D01*
X33755382Y-48469462D01*
X33755379Y-48469474D01*
X33700129Y-48699611D01*
X33700127Y-48699617D01*
X33698993Y-48704345D01*
X33679659Y-48950000D01*
X30625500Y-48950000D01*
X30625500Y-45583674D01*
X33785000Y-45583674D01*
X33788450Y-45596549D01*
X33801326Y-45600000D01*
X34983674Y-45600000D01*
X34996549Y-45596549D01*
X35000000Y-45583674D01*
X35500000Y-45583674D01*
X35503450Y-45596549D01*
X35516326Y-45600000D01*
X36698674Y-45600000D01*
X36711549Y-45596549D01*
X36715000Y-45583674D01*
X36715000Y-44890482D01*
X36714646Y-44883885D01*
X36709426Y-44835332D01*
X36705888Y-44820358D01*
X36661452Y-44701222D01*
X36653037Y-44685810D01*
X36577501Y-44584907D01*
X36565092Y-44572498D01*
X36464189Y-44496962D01*
X36448777Y-44488547D01*
X36329641Y-44444111D01*
X36314667Y-44440573D01*
X36266114Y-44435353D01*
X36259518Y-44435000D01*
X35516326Y-44435000D01*
X35503450Y-44438450D01*
X35500000Y-44451326D01*
X35500000Y-45583674D01*
X35000000Y-45583674D01*
X35000000Y-44451326D01*
X34996549Y-44438450D01*
X34983674Y-44435000D01*
X34240482Y-44435000D01*
X34233885Y-44435353D01*
X34185332Y-44440573D01*
X34170358Y-44444111D01*
X34051222Y-44488547D01*
X34035810Y-44496962D01*
X33934907Y-44572498D01*
X33922498Y-44584907D01*
X33846962Y-44685810D01*
X33838547Y-44701222D01*
X33794111Y-44820358D01*
X33790573Y-44835332D01*
X33785353Y-44883885D01*
X33785000Y-44890482D01*
X33785000Y-45583674D01*
X30625500Y-45583674D01*
X30625500Y-43329500D01*
X30642113Y-43267500D01*
X30687500Y-43222113D01*
X30749500Y-43205500D01*
X33731751Y-43205500D01*
X33779203Y-43214939D01*
X33819431Y-43241818D01*
X33846311Y-43282045D01*
X33848948Y-43288412D01*
X33848950Y-43288415D01*
X33850816Y-43292920D01*
X33979567Y-43503023D01*
X33982731Y-43506728D01*
X33982735Y-43506733D01*
X34136434Y-43686691D01*
X34139601Y-43690399D01*
X34143308Y-43693565D01*
X34323266Y-43847264D01*
X34323269Y-43847266D01*
X34326977Y-43850433D01*
X34537080Y-43979184D01*
X34764738Y-44073483D01*
X35004345Y-44131007D01*
X35250000Y-44150341D01*
X35495655Y-44131007D01*
X35735262Y-44073483D01*
X35962920Y-43979184D01*
X36173023Y-43850433D01*
X36360399Y-43690399D01*
X36520433Y-43503023D01*
X36649184Y-43292920D01*
X36743483Y-43065262D01*
X36801007Y-42825655D01*
X36820341Y-42580000D01*
X36801007Y-42334345D01*
X36743483Y-42094738D01*
X36649184Y-41867080D01*
X36520433Y-41656977D01*
X36360399Y-41469601D01*
X36356691Y-41466434D01*
X36176733Y-41312735D01*
X36176728Y-41312731D01*
X36173023Y-41309567D01*
X35962920Y-41180816D01*
X35735262Y-41086517D01*
X35730533Y-41085381D01*
X35730525Y-41085379D01*
X35500388Y-41030129D01*
X35500384Y-41030128D01*
X35495655Y-41028993D01*
X35490802Y-41028611D01*
X35254854Y-41010041D01*
X35250000Y-41009659D01*
X35245146Y-41010041D01*
X35009197Y-41028611D01*
X35009195Y-41028611D01*
X35004345Y-41028993D01*
X34999617Y-41030127D01*
X34999611Y-41030129D01*
X34769474Y-41085379D01*
X34769462Y-41085382D01*
X34764738Y-41086517D01*
X34760241Y-41088379D01*
X34760237Y-41088381D01*
X34541584Y-41178950D01*
X34541579Y-41178952D01*
X34537080Y-41180816D01*
X34532927Y-41183360D01*
X34532921Y-41183364D01*
X34331134Y-41307019D01*
X34331128Y-41307022D01*
X34326977Y-41309567D01*
X34323277Y-41312726D01*
X34323266Y-41312735D01*
X34143308Y-41466434D01*
X34143301Y-41466440D01*
X34139601Y-41469601D01*
X34136440Y-41473301D01*
X34136434Y-41473308D01*
X33982735Y-41653266D01*
X33982726Y-41653277D01*
X33979567Y-41656977D01*
X33977022Y-41661128D01*
X33977019Y-41661134D01*
X33853364Y-41862921D01*
X33853360Y-41862927D01*
X33850816Y-41867080D01*
X33848953Y-41871575D01*
X33848948Y-41871587D01*
X33846311Y-41877955D01*
X33819431Y-41918182D01*
X33779203Y-41945061D01*
X33731751Y-41954500D01*
X30079019Y-41954500D01*
X30070849Y-41954500D01*
X30047614Y-41952304D01*
X30047246Y-41952233D01*
X30047239Y-41952232D01*
X30039588Y-41950773D01*
X30031809Y-41951262D01*
X30031804Y-41951262D01*
X29984241Y-41954255D01*
X29976455Y-41954500D01*
X26518249Y-41954500D01*
X26470797Y-41945061D01*
X26430569Y-41918182D01*
X26403689Y-41877955D01*
X26401051Y-41871587D01*
X26401050Y-41871585D01*
X26399184Y-41867080D01*
X26270433Y-41656977D01*
X26110399Y-41469601D01*
X26106691Y-41466434D01*
X25926733Y-41312735D01*
X25926728Y-41312731D01*
X25923023Y-41309567D01*
X25712920Y-41180816D01*
X25485262Y-41086517D01*
X25480533Y-41085381D01*
X25480525Y-41085379D01*
X25250388Y-41030129D01*
X25250384Y-41030128D01*
X25245655Y-41028993D01*
X25240802Y-41028611D01*
X25004854Y-41010041D01*
X25000000Y-41009659D01*
X24995146Y-41010041D01*
X24759197Y-41028611D01*
X24759195Y-41028611D01*
X24754345Y-41028993D01*
X24749617Y-41030127D01*
X24749611Y-41030129D01*
X24519474Y-41085379D01*
X24519462Y-41085382D01*
X24514738Y-41086517D01*
X24510241Y-41088379D01*
X24510237Y-41088381D01*
X24291584Y-41178950D01*
X24291579Y-41178952D01*
X24287080Y-41180816D01*
X24282927Y-41183360D01*
X24282921Y-41183364D01*
X24081134Y-41307019D01*
X24081128Y-41307022D01*
X24076977Y-41309567D01*
X24073277Y-41312726D01*
X24073266Y-41312735D01*
X23893308Y-41466434D01*
X23893301Y-41466440D01*
X23889601Y-41469601D01*
X23886440Y-41473301D01*
X23886434Y-41473308D01*
X23732735Y-41653266D01*
X23732726Y-41653277D01*
X23729567Y-41656977D01*
X23727022Y-41661128D01*
X23727019Y-41661134D01*
X23603364Y-41862921D01*
X23603360Y-41862927D01*
X23600816Y-41867080D01*
X23598952Y-41871579D01*
X23598950Y-41871584D01*
X23565544Y-41952233D01*
X23506517Y-42094738D01*
X23505382Y-42099462D01*
X23505379Y-42099474D01*
X23450129Y-42329611D01*
X23450127Y-42329617D01*
X23448993Y-42334345D01*
X23429659Y-42580000D01*
X23448993Y-42825655D01*
X23450128Y-42830384D01*
X23450129Y-42830388D01*
X23505379Y-43060525D01*
X23505381Y-43060533D01*
X23506517Y-43065262D01*
X23600816Y-43292920D01*
X23729567Y-43503023D01*
X23732731Y-43506728D01*
X23732735Y-43506733D01*
X23886434Y-43686691D01*
X23889601Y-43690399D01*
X23893308Y-43693565D01*
X24073266Y-43847264D01*
X24073269Y-43847266D01*
X24076977Y-43850433D01*
X24287080Y-43979184D01*
X24514738Y-44073483D01*
X24754345Y-44131007D01*
X25000000Y-44150341D01*
X25245655Y-44131007D01*
X25485262Y-44073483D01*
X25712920Y-43979184D01*
X25923023Y-43850433D01*
X26110399Y-43690399D01*
X26270433Y-43503023D01*
X26399184Y-43292920D01*
X26403689Y-43282045D01*
X26430569Y-43241818D01*
X26470797Y-43214939D01*
X26518249Y-43205500D01*
X29250500Y-43205500D01*
X29312500Y-43222113D01*
X29357887Y-43267500D01*
X29374500Y-43329500D01*
X29374500Y-56500500D01*
X29357887Y-56562500D01*
X29312500Y-56607887D01*
X29250500Y-56624500D01*
X26518249Y-56624500D01*
X26470797Y-56615061D01*
X26430569Y-56588182D01*
X26403689Y-56547955D01*
X26401051Y-56541587D01*
X26401050Y-56541585D01*
X26399184Y-56537080D01*
X26270433Y-56326977D01*
X26110399Y-56139601D01*
X26106691Y-56136434D01*
X25926733Y-55982735D01*
X25926728Y-55982731D01*
X25923023Y-55979567D01*
X25712920Y-55850816D01*
X25485262Y-55756517D01*
X25480533Y-55755381D01*
X25480525Y-55755379D01*
X25250388Y-55700129D01*
X25250384Y-55700128D01*
X25245655Y-55698993D01*
X25240802Y-55698611D01*
X25004854Y-55680041D01*
X25000000Y-55679659D01*
X24995146Y-55680041D01*
X24759197Y-55698611D01*
X24759195Y-55698611D01*
X24754345Y-55698993D01*
X24749617Y-55700127D01*
X24749611Y-55700129D01*
X24519474Y-55755379D01*
X24519462Y-55755382D01*
X24514738Y-55756517D01*
X24510241Y-55758379D01*
X24510237Y-55758381D01*
X24291584Y-55848950D01*
X24291579Y-55848952D01*
X24287080Y-55850816D01*
X24282927Y-55853360D01*
X24282921Y-55853364D01*
X24081134Y-55977019D01*
X24081128Y-55977022D01*
X24076977Y-55979567D01*
X24073277Y-55982726D01*
X24073266Y-55982735D01*
X23893308Y-56136434D01*
X23893301Y-56136440D01*
X23889601Y-56139601D01*
X23886440Y-56143301D01*
X23886434Y-56143308D01*
X23732735Y-56323266D01*
X23732726Y-56323277D01*
X23729567Y-56326977D01*
X23727022Y-56331128D01*
X23727019Y-56331134D01*
X23603364Y-56532921D01*
X23603360Y-56532927D01*
X23600816Y-56537080D01*
X23598952Y-56541579D01*
X23598950Y-56541584D01*
X23568515Y-56615061D01*
X23506517Y-56764738D01*
X23505382Y-56769462D01*
X23505379Y-56769474D01*
X23450129Y-56999611D01*
X23450127Y-56999617D01*
X23448993Y-57004345D01*
X23429659Y-57250000D01*
X20000500Y-57250000D01*
X20000500Y-48950000D01*
X23429659Y-48950000D01*
X23448993Y-49195655D01*
X23450128Y-49200384D01*
X23450129Y-49200388D01*
X23505379Y-49430525D01*
X23505381Y-49430533D01*
X23506517Y-49435262D01*
X23600816Y-49662920D01*
X23729567Y-49873023D01*
X23732731Y-49876728D01*
X23732735Y-49876733D01*
X23886434Y-50056691D01*
X23889601Y-50060399D01*
X23893308Y-50063565D01*
X24073266Y-50217264D01*
X24073269Y-50217266D01*
X24076977Y-50220433D01*
X24287080Y-50349184D01*
X24514738Y-50443483D01*
X24754345Y-50501007D01*
X25000000Y-50520341D01*
X25245655Y-50501007D01*
X25485262Y-50443483D01*
X25712920Y-50349184D01*
X25923023Y-50220433D01*
X26110399Y-50060399D01*
X26270433Y-49873023D01*
X26399184Y-49662920D01*
X26493483Y-49435262D01*
X26551007Y-49195655D01*
X26570341Y-48950000D01*
X26551007Y-48704345D01*
X26493483Y-48464738D01*
X26399184Y-48237080D01*
X26270433Y-48026977D01*
X26110399Y-47839601D01*
X26106691Y-47836434D01*
X25926733Y-47682735D01*
X25926728Y-47682731D01*
X25923023Y-47679567D01*
X25712920Y-47550816D01*
X25598835Y-47503560D01*
X25545971Y-47461885D01*
X25522671Y-47398729D01*
X25535804Y-47332705D01*
X25581499Y-47283273D01*
X25646289Y-47265000D01*
X26009518Y-47265000D01*
X26016114Y-47264646D01*
X26064667Y-47259426D01*
X26079641Y-47255888D01*
X26198777Y-47211452D01*
X26214189Y-47203037D01*
X26315092Y-47127501D01*
X26327501Y-47115092D01*
X26403037Y-47014189D01*
X26411452Y-46998777D01*
X26455888Y-46879641D01*
X26459426Y-46864667D01*
X26464646Y-46816114D01*
X26465000Y-46809518D01*
X26465000Y-46116326D01*
X26461549Y-46103450D01*
X26448674Y-46100000D01*
X23551326Y-46100000D01*
X23538450Y-46103450D01*
X23535000Y-46116326D01*
X23535000Y-46809518D01*
X23535353Y-46816114D01*
X23540573Y-46864667D01*
X23544111Y-46879641D01*
X23588547Y-46998777D01*
X23596962Y-47014189D01*
X23672498Y-47115092D01*
X23684907Y-47127501D01*
X23785810Y-47203037D01*
X23801222Y-47211452D01*
X23920358Y-47255888D01*
X23935332Y-47259426D01*
X23983885Y-47264646D01*
X23990482Y-47265000D01*
X24353711Y-47265000D01*
X24418501Y-47283273D01*
X24464196Y-47332705D01*
X24477329Y-47398729D01*
X24454029Y-47461885D01*
X24401164Y-47503561D01*
X24291584Y-47548950D01*
X24291579Y-47548952D01*
X24287080Y-47550816D01*
X24282927Y-47553360D01*
X24282921Y-47553364D01*
X24081134Y-47677019D01*
X24081128Y-47677022D01*
X24076977Y-47679567D01*
X24073277Y-47682726D01*
X24073266Y-47682735D01*
X23893308Y-47836434D01*
X23893301Y-47836440D01*
X23889601Y-47839601D01*
X23886440Y-47843301D01*
X23886434Y-47843308D01*
X23732735Y-48023266D01*
X23732726Y-48023277D01*
X23729567Y-48026977D01*
X23727022Y-48031128D01*
X23727019Y-48031134D01*
X23603364Y-48232921D01*
X23603360Y-48232927D01*
X23600816Y-48237080D01*
X23506517Y-48464738D01*
X23505382Y-48469462D01*
X23505379Y-48469474D01*
X23450129Y-48699611D01*
X23450127Y-48699617D01*
X23448993Y-48704345D01*
X23429659Y-48950000D01*
X20000500Y-48950000D01*
X20000500Y-45583674D01*
X23535000Y-45583674D01*
X23538450Y-45596549D01*
X23551326Y-45600000D01*
X24733674Y-45600000D01*
X24746549Y-45596549D01*
X24750000Y-45583674D01*
X25250000Y-45583674D01*
X25253450Y-45596549D01*
X25266326Y-45600000D01*
X26448674Y-45600000D01*
X26461549Y-45596549D01*
X26465000Y-45583674D01*
X26465000Y-44890482D01*
X26464646Y-44883885D01*
X26459426Y-44835332D01*
X26455888Y-44820358D01*
X26411452Y-44701222D01*
X26403037Y-44685810D01*
X26327501Y-44584907D01*
X26315092Y-44572498D01*
X26214189Y-44496962D01*
X26198777Y-44488547D01*
X26079641Y-44444111D01*
X26064667Y-44440573D01*
X26016114Y-44435353D01*
X26009518Y-44435000D01*
X25266326Y-44435000D01*
X25253450Y-44438450D01*
X25250000Y-44451326D01*
X25250000Y-45583674D01*
X24750000Y-45583674D01*
X24750000Y-44451326D01*
X24746549Y-44438450D01*
X24733674Y-44435000D01*
X23990482Y-44435000D01*
X23983885Y-44435353D01*
X23935332Y-44440573D01*
X23920358Y-44444111D01*
X23801222Y-44488547D01*
X23785810Y-44496962D01*
X23684907Y-44572498D01*
X23672498Y-44584907D01*
X23596962Y-44685810D01*
X23588547Y-44701222D01*
X23544111Y-44820358D01*
X23540573Y-44835332D01*
X23535353Y-44883885D01*
X23535000Y-44890482D01*
X23535000Y-45583674D01*
X20000500Y-45583674D01*
X20000500Y-34280000D01*
X23429659Y-34280000D01*
X23448993Y-34525655D01*
X23450128Y-34530384D01*
X23450129Y-34530388D01*
X23505379Y-34760525D01*
X23505381Y-34760533D01*
X23506517Y-34765262D01*
X23600816Y-34992920D01*
X23729567Y-35203023D01*
X23732731Y-35206728D01*
X23732735Y-35206733D01*
X23886434Y-35386691D01*
X23889601Y-35390399D01*
X23893308Y-35393565D01*
X24073266Y-35547264D01*
X24073269Y-35547266D01*
X24076977Y-35550433D01*
X24287080Y-35679184D01*
X24514738Y-35773483D01*
X24754345Y-35831007D01*
X25000000Y-35850341D01*
X25245655Y-35831007D01*
X25485262Y-35773483D01*
X25712920Y-35679184D01*
X25923023Y-35550433D01*
X26110399Y-35390399D01*
X26270433Y-35203023D01*
X26399184Y-34992920D01*
X26493483Y-34765262D01*
X26551007Y-34525655D01*
X26570341Y-34280000D01*
X33679659Y-34280000D01*
X33698993Y-34525655D01*
X33700128Y-34530384D01*
X33700129Y-34530388D01*
X33755379Y-34760525D01*
X33755381Y-34760533D01*
X33756517Y-34765262D01*
X33850816Y-34992920D01*
X33979567Y-35203023D01*
X33982731Y-35206728D01*
X33982735Y-35206733D01*
X34136434Y-35386691D01*
X34139601Y-35390399D01*
X34143308Y-35393565D01*
X34323266Y-35547264D01*
X34323269Y-35547266D01*
X34326977Y-35550433D01*
X34537080Y-35679184D01*
X34764738Y-35773483D01*
X35004345Y-35831007D01*
X35250000Y-35850341D01*
X35495655Y-35831007D01*
X35735262Y-35773483D01*
X35962920Y-35679184D01*
X36173023Y-35550433D01*
X36360399Y-35390399D01*
X36520433Y-35203023D01*
X36649184Y-34992920D01*
X36743483Y-34765262D01*
X36801007Y-34525655D01*
X36820341Y-34280000D01*
X36801007Y-34034345D01*
X36743483Y-33794738D01*
X36649184Y-33567080D01*
X36520433Y-33356977D01*
X36360399Y-33169601D01*
X36356691Y-33166434D01*
X36176733Y-33012735D01*
X36176728Y-33012731D01*
X36173023Y-33009567D01*
X35962920Y-32880816D01*
X35848835Y-32833560D01*
X35795971Y-32791885D01*
X35772671Y-32728729D01*
X35785804Y-32662705D01*
X35831499Y-32613273D01*
X35896289Y-32595000D01*
X36259518Y-32595000D01*
X36266114Y-32594646D01*
X36314667Y-32589426D01*
X36329641Y-32585888D01*
X36448777Y-32541452D01*
X36464189Y-32533037D01*
X36565092Y-32457501D01*
X36577501Y-32445092D01*
X36653037Y-32344189D01*
X36661452Y-32328777D01*
X36705888Y-32209641D01*
X36709426Y-32194667D01*
X36714646Y-32146114D01*
X36715000Y-32139518D01*
X36715000Y-31446326D01*
X36711549Y-31433450D01*
X36698674Y-31430000D01*
X33801326Y-31430000D01*
X33788450Y-31433450D01*
X33785000Y-31446326D01*
X33785000Y-32139518D01*
X33785353Y-32146114D01*
X33790573Y-32194667D01*
X33794111Y-32209641D01*
X33838547Y-32328777D01*
X33846962Y-32344189D01*
X33922498Y-32445092D01*
X33934907Y-32457501D01*
X34035810Y-32533037D01*
X34051222Y-32541452D01*
X34170358Y-32585888D01*
X34185332Y-32589426D01*
X34233885Y-32594646D01*
X34240482Y-32595000D01*
X34603711Y-32595000D01*
X34668501Y-32613273D01*
X34714196Y-32662705D01*
X34727329Y-32728729D01*
X34704029Y-32791885D01*
X34651164Y-32833561D01*
X34541584Y-32878950D01*
X34541579Y-32878952D01*
X34537080Y-32880816D01*
X34532927Y-32883360D01*
X34532921Y-32883364D01*
X34331134Y-33007019D01*
X34331128Y-33007022D01*
X34326977Y-33009567D01*
X34323277Y-33012726D01*
X34323266Y-33012735D01*
X34143308Y-33166434D01*
X34143301Y-33166440D01*
X34139601Y-33169601D01*
X34136440Y-33173301D01*
X34136434Y-33173308D01*
X33982735Y-33353266D01*
X33982726Y-33353277D01*
X33979567Y-33356977D01*
X33977022Y-33361128D01*
X33977019Y-33361134D01*
X33853364Y-33562921D01*
X33853360Y-33562927D01*
X33850816Y-33567080D01*
X33756517Y-33794738D01*
X33755382Y-33799462D01*
X33755379Y-33799474D01*
X33700129Y-34029611D01*
X33700127Y-34029617D01*
X33698993Y-34034345D01*
X33679659Y-34280000D01*
X26570341Y-34280000D01*
X26551007Y-34034345D01*
X26493483Y-33794738D01*
X26399184Y-33567080D01*
X26270433Y-33356977D01*
X26110399Y-33169601D01*
X26106691Y-33166434D01*
X25926733Y-33012735D01*
X25926728Y-33012731D01*
X25923023Y-33009567D01*
X25712920Y-32880816D01*
X25598835Y-32833560D01*
X25545971Y-32791885D01*
X25522671Y-32728729D01*
X25535804Y-32662705D01*
X25581499Y-32613273D01*
X25646289Y-32595000D01*
X26009518Y-32595000D01*
X26016114Y-32594646D01*
X26064667Y-32589426D01*
X26079641Y-32585888D01*
X26198777Y-32541452D01*
X26214189Y-32533037D01*
X26315092Y-32457501D01*
X26327501Y-32445092D01*
X26403037Y-32344189D01*
X26411452Y-32328777D01*
X26455888Y-32209641D01*
X26459426Y-32194667D01*
X26464646Y-32146114D01*
X26465000Y-32139518D01*
X26465000Y-31446326D01*
X26461549Y-31433450D01*
X26448674Y-31430000D01*
X23551326Y-31430000D01*
X23538450Y-31433450D01*
X23535000Y-31446326D01*
X23535000Y-32139518D01*
X23535353Y-32146114D01*
X23540573Y-32194667D01*
X23544111Y-32209641D01*
X23588547Y-32328777D01*
X23596962Y-32344189D01*
X23672498Y-32445092D01*
X23684907Y-32457501D01*
X23785810Y-32533037D01*
X23801222Y-32541452D01*
X23920358Y-32585888D01*
X23935332Y-32589426D01*
X23983885Y-32594646D01*
X23990482Y-32595000D01*
X24353711Y-32595000D01*
X24418501Y-32613273D01*
X24464196Y-32662705D01*
X24477329Y-32728729D01*
X24454029Y-32791885D01*
X24401164Y-32833561D01*
X24291584Y-32878950D01*
X24291579Y-32878952D01*
X24287080Y-32880816D01*
X24282927Y-32883360D01*
X24282921Y-32883364D01*
X24081134Y-33007019D01*
X24081128Y-33007022D01*
X24076977Y-33009567D01*
X24073277Y-33012726D01*
X24073266Y-33012735D01*
X23893308Y-33166434D01*
X23893301Y-33166440D01*
X23889601Y-33169601D01*
X23886440Y-33173301D01*
X23886434Y-33173308D01*
X23732735Y-33353266D01*
X23732726Y-33353277D01*
X23729567Y-33356977D01*
X23727022Y-33361128D01*
X23727019Y-33361134D01*
X23603364Y-33562921D01*
X23603360Y-33562927D01*
X23600816Y-33567080D01*
X23506517Y-33794738D01*
X23505382Y-33799462D01*
X23505379Y-33799474D01*
X23450129Y-34029611D01*
X23450127Y-34029617D01*
X23448993Y-34034345D01*
X23429659Y-34280000D01*
X20000500Y-34280000D01*
X20000500Y-30913674D01*
X23535000Y-30913674D01*
X23538450Y-30926549D01*
X23551326Y-30930000D01*
X24733674Y-30930000D01*
X24746549Y-30926549D01*
X24750000Y-30913674D01*
X25250000Y-30913674D01*
X25253450Y-30926549D01*
X25266326Y-30930000D01*
X26448674Y-30930000D01*
X26461549Y-30926549D01*
X26465000Y-30913674D01*
X33785000Y-30913674D01*
X33788450Y-30926549D01*
X33801326Y-30930000D01*
X34983674Y-30930000D01*
X34996549Y-30926549D01*
X35000000Y-30913674D01*
X35500000Y-30913674D01*
X35503450Y-30926549D01*
X35516326Y-30930000D01*
X36698674Y-30930000D01*
X36711549Y-30926549D01*
X36715000Y-30913674D01*
X36715000Y-30220482D01*
X36714646Y-30213885D01*
X36709426Y-30165332D01*
X36705888Y-30150358D01*
X36661452Y-30031222D01*
X36653037Y-30015810D01*
X36577501Y-29914907D01*
X36565092Y-29902498D01*
X36464189Y-29826962D01*
X36448777Y-29818547D01*
X36329641Y-29774111D01*
X36314667Y-29770573D01*
X36266114Y-29765353D01*
X36259518Y-29765000D01*
X35516326Y-29765000D01*
X35503450Y-29768450D01*
X35500000Y-29781326D01*
X35500000Y-30913674D01*
X35000000Y-30913674D01*
X35000000Y-29781326D01*
X34996549Y-29768450D01*
X34983674Y-29765000D01*
X34240482Y-29765000D01*
X34233885Y-29765353D01*
X34185332Y-29770573D01*
X34170358Y-29774111D01*
X34051222Y-29818547D01*
X34035810Y-29826962D01*
X33934907Y-29902498D01*
X33922498Y-29914907D01*
X33846962Y-30015810D01*
X33838547Y-30031222D01*
X33794111Y-30150358D01*
X33790573Y-30165332D01*
X33785353Y-30213885D01*
X33785000Y-30220482D01*
X33785000Y-30913674D01*
X26465000Y-30913674D01*
X26465000Y-30220482D01*
X26464646Y-30213885D01*
X26459426Y-30165332D01*
X26455888Y-30150358D01*
X26411452Y-30031222D01*
X26403037Y-30015810D01*
X26327501Y-29914907D01*
X26315092Y-29902498D01*
X26214189Y-29826962D01*
X26198777Y-29818547D01*
X26079641Y-29774111D01*
X26064667Y-29770573D01*
X26016114Y-29765353D01*
X26009518Y-29765000D01*
X25266326Y-29765000D01*
X25253450Y-29768450D01*
X25250000Y-29781326D01*
X25250000Y-30913674D01*
X24750000Y-30913674D01*
X24750000Y-29781326D01*
X24746549Y-29768450D01*
X24733674Y-29765000D01*
X23990482Y-29765000D01*
X23983885Y-29765353D01*
X23935332Y-29770573D01*
X23920358Y-29774111D01*
X23801222Y-29818547D01*
X23785810Y-29826962D01*
X23684907Y-29902498D01*
X23672498Y-29914907D01*
X23596962Y-30015810D01*
X23588547Y-30031222D01*
X23544111Y-30150358D01*
X23540573Y-30165332D01*
X23535353Y-30213885D01*
X23535000Y-30220482D01*
X23535000Y-30913674D01*
X20000500Y-30913674D01*
X20000500Y-29000000D01*
X21499459Y-29000000D01*
X21499617Y-29000383D01*
X21499901Y-29000500D01*
X24487944Y-29000500D01*
X24500099Y-29000500D01*
X24500383Y-29000383D01*
X24500541Y-29000000D01*
X26499459Y-29000000D01*
X26499617Y-29000383D01*
X26499901Y-29000500D01*
X29487944Y-29000500D01*
X29500099Y-29000500D01*
X29500383Y-29000383D01*
X29500541Y-29000000D01*
X31499459Y-29000000D01*
X31499617Y-29000383D01*
X31499901Y-29000500D01*
X34487944Y-29000500D01*
X34500099Y-29000500D01*
X34500383Y-29000383D01*
X34500541Y-29000000D01*
X36499459Y-29000000D01*
X36499617Y-29000383D01*
X36499901Y-29000500D01*
X39487944Y-29000500D01*
X39500099Y-29000500D01*
X39500383Y-29000383D01*
X39500541Y-29000000D01*
X39500383Y-28999617D01*
X39500099Y-28999500D01*
X36499901Y-28999500D01*
X36499617Y-28999617D01*
X36499459Y-29000000D01*
X34500541Y-29000000D01*
X34500383Y-28999617D01*
X34500099Y-28999500D01*
X31499901Y-28999500D01*
X31499617Y-28999617D01*
X31499459Y-29000000D01*
X29500541Y-29000000D01*
X29500383Y-28999617D01*
X29500099Y-28999500D01*
X26499901Y-28999500D01*
X26499617Y-28999617D01*
X26499459Y-29000000D01*
X24500541Y-29000000D01*
X24500383Y-28999617D01*
X24500099Y-28999500D01*
X21499901Y-28999500D01*
X21499617Y-28999617D01*
X21499459Y-29000000D01*
X20000500Y-29000000D01*
X20000500Y-23000000D01*
X25074551Y-23000000D01*
X25094317Y-23251148D01*
X25095452Y-23255877D01*
X25095453Y-23255881D01*
X25151989Y-23491374D01*
X25151991Y-23491382D01*
X25153127Y-23496111D01*
X25249534Y-23728859D01*
X25252081Y-23733016D01*
X25252082Y-23733017D01*
X25378617Y-23939504D01*
X25378622Y-23939511D01*
X25381164Y-23943659D01*
X25384324Y-23947358D01*
X25384327Y-23947363D01*
X25534845Y-24123596D01*
X25544776Y-24135224D01*
X25548476Y-24138384D01*
X25730705Y-24294023D01*
X25736341Y-24298836D01*
X25740491Y-24301379D01*
X25740495Y-24301382D01*
X25852300Y-24369896D01*
X25951141Y-24430466D01*
X26183889Y-24526873D01*
X26428852Y-24585683D01*
X26680000Y-24605449D01*
X26931148Y-24585683D01*
X27176111Y-24526873D01*
X27408859Y-24430466D01*
X27623659Y-24298836D01*
X27815224Y-24135224D01*
X27978836Y-23943659D01*
X28110466Y-23728859D01*
X28206873Y-23496111D01*
X28265683Y-23251148D01*
X28285449Y-23000000D01*
X32034551Y-23000000D01*
X32054317Y-23251148D01*
X32055452Y-23255877D01*
X32055453Y-23255881D01*
X32111989Y-23491374D01*
X32111991Y-23491382D01*
X32113127Y-23496111D01*
X32209534Y-23728859D01*
X32212081Y-23733016D01*
X32212082Y-23733017D01*
X32338617Y-23939504D01*
X32338622Y-23939511D01*
X32341164Y-23943659D01*
X32344324Y-23947358D01*
X32344327Y-23947363D01*
X32494845Y-24123596D01*
X32504776Y-24135224D01*
X32508476Y-24138384D01*
X32690705Y-24294023D01*
X32696341Y-24298836D01*
X32700491Y-24301379D01*
X32700495Y-24301382D01*
X32812300Y-24369896D01*
X32911141Y-24430466D01*
X33143889Y-24526873D01*
X33388852Y-24585683D01*
X33640000Y-24605449D01*
X33891148Y-24585683D01*
X34136111Y-24526873D01*
X34368859Y-24430466D01*
X34583659Y-24298836D01*
X34775224Y-24135224D01*
X34938836Y-23943659D01*
X35070466Y-23728859D01*
X35166873Y-23496111D01*
X35225683Y-23251148D01*
X35245449Y-23000000D01*
X35225683Y-22748852D01*
X35166873Y-22503889D01*
X35070466Y-22271141D01*
X34938836Y-22056341D01*
X34775224Y-21864776D01*
X34771523Y-21861615D01*
X34587363Y-21704327D01*
X34587358Y-21704324D01*
X34583659Y-21701164D01*
X34579511Y-21698622D01*
X34579504Y-21698617D01*
X34373017Y-21572082D01*
X34373016Y-21572081D01*
X34368859Y-21569534D01*
X34136111Y-21473127D01*
X34131382Y-21471991D01*
X34131374Y-21471989D01*
X33895881Y-21415453D01*
X33895877Y-21415452D01*
X33891148Y-21414317D01*
X33886295Y-21413935D01*
X33644854Y-21394933D01*
X33640000Y-21394551D01*
X33635146Y-21394933D01*
X33393704Y-21413935D01*
X33393702Y-21413935D01*
X33388852Y-21414317D01*
X33384124Y-21415451D01*
X33384118Y-21415453D01*
X33148625Y-21471989D01*
X33148613Y-21471992D01*
X33143889Y-21473127D01*
X33139392Y-21474989D01*
X33139388Y-21474991D01*
X32915645Y-21567668D01*
X32915640Y-21567670D01*
X32911141Y-21569534D01*
X32906988Y-21572078D01*
X32906982Y-21572082D01*
X32700495Y-21698617D01*
X32700482Y-21698626D01*
X32696341Y-21701164D01*
X32692646Y-21704319D01*
X32692636Y-21704327D01*
X32508476Y-21861615D01*
X32508469Y-21861621D01*
X32504776Y-21864776D01*
X32501621Y-21868469D01*
X32501615Y-21868476D01*
X32344327Y-22052636D01*
X32344319Y-22052646D01*
X32341164Y-22056341D01*
X32338626Y-22060482D01*
X32338617Y-22060495D01*
X32212082Y-22266982D01*
X32212078Y-22266988D01*
X32209534Y-22271141D01*
X32207670Y-22275640D01*
X32207668Y-22275645D01*
X32114991Y-22499388D01*
X32113127Y-22503889D01*
X32111992Y-22508613D01*
X32111989Y-22508625D01*
X32055453Y-22744118D01*
X32055451Y-22744124D01*
X32054317Y-22748852D01*
X32034551Y-23000000D01*
X28285449Y-23000000D01*
X28265683Y-22748852D01*
X28206873Y-22503889D01*
X28110466Y-22271141D01*
X27978836Y-22056341D01*
X27815224Y-21864776D01*
X27811523Y-21861615D01*
X27627363Y-21704327D01*
X27627358Y-21704324D01*
X27623659Y-21701164D01*
X27619511Y-21698622D01*
X27619504Y-21698617D01*
X27413017Y-21572082D01*
X27413016Y-21572081D01*
X27408859Y-21569534D01*
X27176111Y-21473127D01*
X27171382Y-21471991D01*
X27171374Y-21471989D01*
X26935881Y-21415453D01*
X26935877Y-21415452D01*
X26931148Y-21414317D01*
X26926295Y-21413935D01*
X26684854Y-21394933D01*
X26680000Y-21394551D01*
X26675146Y-21394933D01*
X26433704Y-21413935D01*
X26433702Y-21413935D01*
X26428852Y-21414317D01*
X26424124Y-21415451D01*
X26424118Y-21415453D01*
X26188625Y-21471989D01*
X26188613Y-21471992D01*
X26183889Y-21473127D01*
X26179392Y-21474989D01*
X26179388Y-21474991D01*
X25955645Y-21567668D01*
X25955640Y-21567670D01*
X25951141Y-21569534D01*
X25946988Y-21572078D01*
X25946982Y-21572082D01*
X25740495Y-21698617D01*
X25740482Y-21698626D01*
X25736341Y-21701164D01*
X25732646Y-21704319D01*
X25732636Y-21704327D01*
X25548476Y-21861615D01*
X25548469Y-21861621D01*
X25544776Y-21864776D01*
X25541621Y-21868469D01*
X25541615Y-21868476D01*
X25384327Y-22052636D01*
X25384319Y-22052646D01*
X25381164Y-22056341D01*
X25378626Y-22060482D01*
X25378617Y-22060495D01*
X25252082Y-22266982D01*
X25252078Y-22266988D01*
X25249534Y-22271141D01*
X25247670Y-22275640D01*
X25247668Y-22275645D01*
X25154991Y-22499388D01*
X25153127Y-22503889D01*
X25151992Y-22508613D01*
X25151989Y-22508625D01*
X25095453Y-22744118D01*
X25095451Y-22744124D01*
X25094317Y-22748852D01*
X25074551Y-23000000D01*
X20000500Y-23000000D01*
X20000500Y-20124500D01*
X20017113Y-20062500D01*
X20062500Y-20017113D01*
X20124500Y-20000500D01*
X40195500Y-20000500D01*
X40257500Y-20017113D01*
G37*
%TD.AperFunction*%
%TD*%
M02*
