%TF.GenerationSoftware,KiCad,Pcbnew,(7.0.0)*%
%TF.CreationDate,2023-03-06T17:31:15-08:00*%
%TF.ProjectId,passive mult,70617373-6976-4652-906d-756c742e6b69,rev?*%
%TF.SameCoordinates,Original*%
%TF.FileFunction,Legend,Bot*%
%TF.FilePolarity,Positive*%
%FSLAX46Y46*%
G04 Gerber Fmt 4.6, Leading zero omitted, Abs format (unit mm)*
G04 Created by KiCad (PCBNEW (7.0.0)) date 2023-03-06 17:31:15*
%MOMM*%
%LPD*%
G01*
G04 APERTURE LIST*
%ADD10C,0.300000*%
%ADD11C,0.150000*%
%ADD12C,0.120000*%
%ADD13R,1.930000X1.830000*%
%ADD14C,2.130000*%
G04 APERTURE END LIST*
D10*
X32714285Y-132816428D02*
X32642857Y-132745000D01*
X32642857Y-132745000D02*
X32500000Y-132673571D01*
X32500000Y-132673571D02*
X32142857Y-132673571D01*
X32142857Y-132673571D02*
X32000000Y-132745000D01*
X32000000Y-132745000D02*
X31928571Y-132816428D01*
X31928571Y-132816428D02*
X31857142Y-132959285D01*
X31857142Y-132959285D02*
X31857142Y-133102142D01*
X31857142Y-133102142D02*
X31928571Y-133316428D01*
X31928571Y-133316428D02*
X32785714Y-134173571D01*
X32785714Y-134173571D02*
X31857142Y-134173571D01*
X30928571Y-132673571D02*
X30785714Y-132673571D01*
X30785714Y-132673571D02*
X30642857Y-132745000D01*
X30642857Y-132745000D02*
X30571429Y-132816428D01*
X30571429Y-132816428D02*
X30500000Y-132959285D01*
X30500000Y-132959285D02*
X30428571Y-133245000D01*
X30428571Y-133245000D02*
X30428571Y-133602142D01*
X30428571Y-133602142D02*
X30500000Y-133887857D01*
X30500000Y-133887857D02*
X30571429Y-134030714D01*
X30571429Y-134030714D02*
X30642857Y-134102142D01*
X30642857Y-134102142D02*
X30785714Y-134173571D01*
X30785714Y-134173571D02*
X30928571Y-134173571D01*
X30928571Y-134173571D02*
X31071429Y-134102142D01*
X31071429Y-134102142D02*
X31142857Y-134030714D01*
X31142857Y-134030714D02*
X31214286Y-133887857D01*
X31214286Y-133887857D02*
X31285714Y-133602142D01*
X31285714Y-133602142D02*
X31285714Y-133245000D01*
X31285714Y-133245000D02*
X31214286Y-132959285D01*
X31214286Y-132959285D02*
X31142857Y-132816428D01*
X31142857Y-132816428D02*
X31071429Y-132745000D01*
X31071429Y-132745000D02*
X30928571Y-132673571D01*
X29857143Y-132816428D02*
X29785715Y-132745000D01*
X29785715Y-132745000D02*
X29642858Y-132673571D01*
X29642858Y-132673571D02*
X29285715Y-132673571D01*
X29285715Y-132673571D02*
X29142858Y-132745000D01*
X29142858Y-132745000D02*
X29071429Y-132816428D01*
X29071429Y-132816428D02*
X29000000Y-132959285D01*
X29000000Y-132959285D02*
X29000000Y-133102142D01*
X29000000Y-133102142D02*
X29071429Y-133316428D01*
X29071429Y-133316428D02*
X29928572Y-134173571D01*
X29928572Y-134173571D02*
X29000000Y-134173571D01*
X28500001Y-132673571D02*
X27571429Y-132673571D01*
X27571429Y-132673571D02*
X28071429Y-133245000D01*
X28071429Y-133245000D02*
X27857144Y-133245000D01*
X27857144Y-133245000D02*
X27714287Y-133316428D01*
X27714287Y-133316428D02*
X27642858Y-133387857D01*
X27642858Y-133387857D02*
X27571429Y-133530714D01*
X27571429Y-133530714D02*
X27571429Y-133887857D01*
X27571429Y-133887857D02*
X27642858Y-134030714D01*
X27642858Y-134030714D02*
X27714287Y-134102142D01*
X27714287Y-134102142D02*
X27857144Y-134173571D01*
X27857144Y-134173571D02*
X28285715Y-134173571D01*
X28285715Y-134173571D02*
X28428572Y-134102142D01*
X28428572Y-134102142D02*
X28500001Y-134030714D01*
X34535714Y-129423571D02*
X34178571Y-130923571D01*
X34178571Y-130923571D02*
X33892857Y-129852142D01*
X33892857Y-129852142D02*
X33607142Y-130923571D01*
X33607142Y-130923571D02*
X33250000Y-129423571D01*
X32678571Y-130923571D02*
X32678571Y-129923571D01*
X32678571Y-129423571D02*
X32749999Y-129495000D01*
X32749999Y-129495000D02*
X32678571Y-129566428D01*
X32678571Y-129566428D02*
X32607142Y-129495000D01*
X32607142Y-129495000D02*
X32678571Y-129423571D01*
X32678571Y-129423571D02*
X32678571Y-129566428D01*
X32035713Y-130852142D02*
X31892856Y-130923571D01*
X31892856Y-130923571D02*
X31607142Y-130923571D01*
X31607142Y-130923571D02*
X31464285Y-130852142D01*
X31464285Y-130852142D02*
X31392856Y-130709285D01*
X31392856Y-130709285D02*
X31392856Y-130637857D01*
X31392856Y-130637857D02*
X31464285Y-130495000D01*
X31464285Y-130495000D02*
X31607142Y-130423571D01*
X31607142Y-130423571D02*
X31821428Y-130423571D01*
X31821428Y-130423571D02*
X31964285Y-130352142D01*
X31964285Y-130352142D02*
X32035713Y-130209285D01*
X32035713Y-130209285D02*
X32035713Y-130137857D01*
X32035713Y-130137857D02*
X31964285Y-129995000D01*
X31964285Y-129995000D02*
X31821428Y-129923571D01*
X31821428Y-129923571D02*
X31607142Y-129923571D01*
X31607142Y-129923571D02*
X31464285Y-129995000D01*
X29849999Y-130923571D02*
X29849999Y-129423571D01*
X29849999Y-129423571D02*
X29349999Y-130495000D01*
X29349999Y-130495000D02*
X28849999Y-129423571D01*
X28849999Y-129423571D02*
X28849999Y-130923571D01*
X27492856Y-129923571D02*
X27492856Y-130923571D01*
X28135713Y-129923571D02*
X28135713Y-130709285D01*
X28135713Y-130709285D02*
X28064284Y-130852142D01*
X28064284Y-130852142D02*
X27921427Y-130923571D01*
X27921427Y-130923571D02*
X27707141Y-130923571D01*
X27707141Y-130923571D02*
X27564284Y-130852142D01*
X27564284Y-130852142D02*
X27492856Y-130780714D01*
X26564284Y-130923571D02*
X26707141Y-130852142D01*
X26707141Y-130852142D02*
X26778570Y-130709285D01*
X26778570Y-130709285D02*
X26778570Y-129423571D01*
X26207141Y-129923571D02*
X25635713Y-129923571D01*
X25992856Y-129423571D02*
X25992856Y-130709285D01*
X25992856Y-130709285D02*
X25921427Y-130852142D01*
X25921427Y-130852142D02*
X25778570Y-130923571D01*
X25778570Y-130923571D02*
X25635713Y-130923571D01*
D11*
%TO.C,J10*%
X40089523Y-95547380D02*
X40089523Y-96261666D01*
X40089523Y-96261666D02*
X40137142Y-96404523D01*
X40137142Y-96404523D02*
X40232380Y-96499761D01*
X40232380Y-96499761D02*
X40375237Y-96547380D01*
X40375237Y-96547380D02*
X40470475Y-96547380D01*
X39089523Y-96547380D02*
X39660951Y-96547380D01*
X39375237Y-96547380D02*
X39375237Y-95547380D01*
X39375237Y-95547380D02*
X39470475Y-95690238D01*
X39470475Y-95690238D02*
X39565713Y-95785476D01*
X39565713Y-95785476D02*
X39660951Y-95833095D01*
X38470475Y-95547380D02*
X38375237Y-95547380D01*
X38375237Y-95547380D02*
X38279999Y-95595000D01*
X38279999Y-95595000D02*
X38232380Y-95642619D01*
X38232380Y-95642619D02*
X38184761Y-95737857D01*
X38184761Y-95737857D02*
X38137142Y-95928333D01*
X38137142Y-95928333D02*
X38137142Y-96166428D01*
X38137142Y-96166428D02*
X38184761Y-96356904D01*
X38184761Y-96356904D02*
X38232380Y-96452142D01*
X38232380Y-96452142D02*
X38279999Y-96499761D01*
X38279999Y-96499761D02*
X38375237Y-96547380D01*
X38375237Y-96547380D02*
X38470475Y-96547380D01*
X38470475Y-96547380D02*
X38565713Y-96499761D01*
X38565713Y-96499761D02*
X38613332Y-96452142D01*
X38613332Y-96452142D02*
X38660951Y-96356904D01*
X38660951Y-96356904D02*
X38708570Y-96166428D01*
X38708570Y-96166428D02*
X38708570Y-95928333D01*
X38708570Y-95928333D02*
X38660951Y-95737857D01*
X38660951Y-95737857D02*
X38613332Y-95642619D01*
X38613332Y-95642619D02*
X38565713Y-95595000D01*
X38565713Y-95595000D02*
X38470475Y-95547380D01*
%TO.C,J8*%
X39613333Y-77597380D02*
X39613333Y-78311666D01*
X39613333Y-78311666D02*
X39660952Y-78454523D01*
X39660952Y-78454523D02*
X39756190Y-78549761D01*
X39756190Y-78549761D02*
X39899047Y-78597380D01*
X39899047Y-78597380D02*
X39994285Y-78597380D01*
X38994285Y-78025952D02*
X39089523Y-77978333D01*
X39089523Y-77978333D02*
X39137142Y-77930714D01*
X39137142Y-77930714D02*
X39184761Y-77835476D01*
X39184761Y-77835476D02*
X39184761Y-77787857D01*
X39184761Y-77787857D02*
X39137142Y-77692619D01*
X39137142Y-77692619D02*
X39089523Y-77645000D01*
X39089523Y-77645000D02*
X38994285Y-77597380D01*
X38994285Y-77597380D02*
X38803809Y-77597380D01*
X38803809Y-77597380D02*
X38708571Y-77645000D01*
X38708571Y-77645000D02*
X38660952Y-77692619D01*
X38660952Y-77692619D02*
X38613333Y-77787857D01*
X38613333Y-77787857D02*
X38613333Y-77835476D01*
X38613333Y-77835476D02*
X38660952Y-77930714D01*
X38660952Y-77930714D02*
X38708571Y-77978333D01*
X38708571Y-77978333D02*
X38803809Y-78025952D01*
X38803809Y-78025952D02*
X38994285Y-78025952D01*
X38994285Y-78025952D02*
X39089523Y-78073571D01*
X39089523Y-78073571D02*
X39137142Y-78121190D01*
X39137142Y-78121190D02*
X39184761Y-78216428D01*
X39184761Y-78216428D02*
X39184761Y-78406904D01*
X39184761Y-78406904D02*
X39137142Y-78502142D01*
X39137142Y-78502142D02*
X39089523Y-78549761D01*
X39089523Y-78549761D02*
X38994285Y-78597380D01*
X38994285Y-78597380D02*
X38803809Y-78597380D01*
X38803809Y-78597380D02*
X38708571Y-78549761D01*
X38708571Y-78549761D02*
X38660952Y-78502142D01*
X38660952Y-78502142D02*
X38613333Y-78406904D01*
X38613333Y-78406904D02*
X38613333Y-78216428D01*
X38613333Y-78216428D02*
X38660952Y-78121190D01*
X38660952Y-78121190D02*
X38708571Y-78073571D01*
X38708571Y-78073571D02*
X38803809Y-78025952D01*
%TO.C,J7*%
X29363333Y-62917380D02*
X29363333Y-63631666D01*
X29363333Y-63631666D02*
X29410952Y-63774523D01*
X29410952Y-63774523D02*
X29506190Y-63869761D01*
X29506190Y-63869761D02*
X29649047Y-63917380D01*
X29649047Y-63917380D02*
X29744285Y-63917380D01*
X28982380Y-62917380D02*
X28315714Y-62917380D01*
X28315714Y-62917380D02*
X28744285Y-63917380D01*
%TO.C,J12*%
X40089523Y-110197380D02*
X40089523Y-110911666D01*
X40089523Y-110911666D02*
X40137142Y-111054523D01*
X40137142Y-111054523D02*
X40232380Y-111149761D01*
X40232380Y-111149761D02*
X40375237Y-111197380D01*
X40375237Y-111197380D02*
X40470475Y-111197380D01*
X39089523Y-111197380D02*
X39660951Y-111197380D01*
X39375237Y-111197380D02*
X39375237Y-110197380D01*
X39375237Y-110197380D02*
X39470475Y-110340238D01*
X39470475Y-110340238D02*
X39565713Y-110435476D01*
X39565713Y-110435476D02*
X39660951Y-110483095D01*
X38708570Y-110292619D02*
X38660951Y-110245000D01*
X38660951Y-110245000D02*
X38565713Y-110197380D01*
X38565713Y-110197380D02*
X38327618Y-110197380D01*
X38327618Y-110197380D02*
X38232380Y-110245000D01*
X38232380Y-110245000D02*
X38184761Y-110292619D01*
X38184761Y-110292619D02*
X38137142Y-110387857D01*
X38137142Y-110387857D02*
X38137142Y-110483095D01*
X38137142Y-110483095D02*
X38184761Y-110625952D01*
X38184761Y-110625952D02*
X38756189Y-111197380D01*
X38756189Y-111197380D02*
X38137142Y-111197380D01*
%TO.C,J11*%
X29839523Y-95547380D02*
X29839523Y-96261666D01*
X29839523Y-96261666D02*
X29887142Y-96404523D01*
X29887142Y-96404523D02*
X29982380Y-96499761D01*
X29982380Y-96499761D02*
X30125237Y-96547380D01*
X30125237Y-96547380D02*
X30220475Y-96547380D01*
X28839523Y-96547380D02*
X29410951Y-96547380D01*
X29125237Y-96547380D02*
X29125237Y-95547380D01*
X29125237Y-95547380D02*
X29220475Y-95690238D01*
X29220475Y-95690238D02*
X29315713Y-95785476D01*
X29315713Y-95785476D02*
X29410951Y-95833095D01*
X27887142Y-96547380D02*
X28458570Y-96547380D01*
X28172856Y-96547380D02*
X28172856Y-95547380D01*
X28172856Y-95547380D02*
X28268094Y-95690238D01*
X28268094Y-95690238D02*
X28363332Y-95785476D01*
X28363332Y-95785476D02*
X28458570Y-95833095D01*
%TO.C,J13*%
X29839523Y-110197380D02*
X29839523Y-110911666D01*
X29839523Y-110911666D02*
X29887142Y-111054523D01*
X29887142Y-111054523D02*
X29982380Y-111149761D01*
X29982380Y-111149761D02*
X30125237Y-111197380D01*
X30125237Y-111197380D02*
X30220475Y-111197380D01*
X28839523Y-111197380D02*
X29410951Y-111197380D01*
X29125237Y-111197380D02*
X29125237Y-110197380D01*
X29125237Y-110197380D02*
X29220475Y-110340238D01*
X29220475Y-110340238D02*
X29315713Y-110435476D01*
X29315713Y-110435476D02*
X29410951Y-110483095D01*
X28506189Y-110197380D02*
X27887142Y-110197380D01*
X27887142Y-110197380D02*
X28220475Y-110578333D01*
X28220475Y-110578333D02*
X28077618Y-110578333D01*
X28077618Y-110578333D02*
X27982380Y-110625952D01*
X27982380Y-110625952D02*
X27934761Y-110673571D01*
X27934761Y-110673571D02*
X27887142Y-110768809D01*
X27887142Y-110768809D02*
X27887142Y-111006904D01*
X27887142Y-111006904D02*
X27934761Y-111102142D01*
X27934761Y-111102142D02*
X27982380Y-111149761D01*
X27982380Y-111149761D02*
X28077618Y-111197380D01*
X28077618Y-111197380D02*
X28363332Y-111197380D01*
X28363332Y-111197380D02*
X28458570Y-111149761D01*
X28458570Y-111149761D02*
X28506189Y-111102142D01*
%TO.C,J9*%
X29363333Y-77597380D02*
X29363333Y-78311666D01*
X29363333Y-78311666D02*
X29410952Y-78454523D01*
X29410952Y-78454523D02*
X29506190Y-78549761D01*
X29506190Y-78549761D02*
X29649047Y-78597380D01*
X29649047Y-78597380D02*
X29744285Y-78597380D01*
X28839523Y-78597380D02*
X28649047Y-78597380D01*
X28649047Y-78597380D02*
X28553809Y-78549761D01*
X28553809Y-78549761D02*
X28506190Y-78502142D01*
X28506190Y-78502142D02*
X28410952Y-78359285D01*
X28410952Y-78359285D02*
X28363333Y-78168809D01*
X28363333Y-78168809D02*
X28363333Y-77787857D01*
X28363333Y-77787857D02*
X28410952Y-77692619D01*
X28410952Y-77692619D02*
X28458571Y-77645000D01*
X28458571Y-77645000D02*
X28553809Y-77597380D01*
X28553809Y-77597380D02*
X28744285Y-77597380D01*
X28744285Y-77597380D02*
X28839523Y-77645000D01*
X28839523Y-77645000D02*
X28887142Y-77692619D01*
X28887142Y-77692619D02*
X28934761Y-77787857D01*
X28934761Y-77787857D02*
X28934761Y-78025952D01*
X28934761Y-78025952D02*
X28887142Y-78121190D01*
X28887142Y-78121190D02*
X28839523Y-78168809D01*
X28839523Y-78168809D02*
X28744285Y-78216428D01*
X28744285Y-78216428D02*
X28553809Y-78216428D01*
X28553809Y-78216428D02*
X28458571Y-78168809D01*
X28458571Y-78168809D02*
X28410952Y-78121190D01*
X28410952Y-78121190D02*
X28363333Y-78025952D01*
%TO.C,J4*%
X39613333Y-46297380D02*
X39613333Y-47011666D01*
X39613333Y-47011666D02*
X39660952Y-47154523D01*
X39660952Y-47154523D02*
X39756190Y-47249761D01*
X39756190Y-47249761D02*
X39899047Y-47297380D01*
X39899047Y-47297380D02*
X39994285Y-47297380D01*
X38708571Y-46630714D02*
X38708571Y-47297380D01*
X38946666Y-46249761D02*
X39184761Y-46964047D01*
X39184761Y-46964047D02*
X38565714Y-46964047D01*
%TO.C,J6*%
X39613333Y-62917380D02*
X39613333Y-63631666D01*
X39613333Y-63631666D02*
X39660952Y-63774523D01*
X39660952Y-63774523D02*
X39756190Y-63869761D01*
X39756190Y-63869761D02*
X39899047Y-63917380D01*
X39899047Y-63917380D02*
X39994285Y-63917380D01*
X38708571Y-62917380D02*
X38899047Y-62917380D01*
X38899047Y-62917380D02*
X38994285Y-62965000D01*
X38994285Y-62965000D02*
X39041904Y-63012619D01*
X39041904Y-63012619D02*
X39137142Y-63155476D01*
X39137142Y-63155476D02*
X39184761Y-63345952D01*
X39184761Y-63345952D02*
X39184761Y-63726904D01*
X39184761Y-63726904D02*
X39137142Y-63822142D01*
X39137142Y-63822142D02*
X39089523Y-63869761D01*
X39089523Y-63869761D02*
X38994285Y-63917380D01*
X38994285Y-63917380D02*
X38803809Y-63917380D01*
X38803809Y-63917380D02*
X38708571Y-63869761D01*
X38708571Y-63869761D02*
X38660952Y-63822142D01*
X38660952Y-63822142D02*
X38613333Y-63726904D01*
X38613333Y-63726904D02*
X38613333Y-63488809D01*
X38613333Y-63488809D02*
X38660952Y-63393571D01*
X38660952Y-63393571D02*
X38708571Y-63345952D01*
X38708571Y-63345952D02*
X38803809Y-63298333D01*
X38803809Y-63298333D02*
X38994285Y-63298333D01*
X38994285Y-63298333D02*
X39089523Y-63345952D01*
X39089523Y-63345952D02*
X39137142Y-63393571D01*
X39137142Y-63393571D02*
X39184761Y-63488809D01*
%TO.C,J5*%
X29363333Y-46297380D02*
X29363333Y-47011666D01*
X29363333Y-47011666D02*
X29410952Y-47154523D01*
X29410952Y-47154523D02*
X29506190Y-47249761D01*
X29506190Y-47249761D02*
X29649047Y-47297380D01*
X29649047Y-47297380D02*
X29744285Y-47297380D01*
X28410952Y-46297380D02*
X28887142Y-46297380D01*
X28887142Y-46297380D02*
X28934761Y-46773571D01*
X28934761Y-46773571D02*
X28887142Y-46725952D01*
X28887142Y-46725952D02*
X28791904Y-46678333D01*
X28791904Y-46678333D02*
X28553809Y-46678333D01*
X28553809Y-46678333D02*
X28458571Y-46725952D01*
X28458571Y-46725952D02*
X28410952Y-46773571D01*
X28410952Y-46773571D02*
X28363333Y-46868809D01*
X28363333Y-46868809D02*
X28363333Y-47106904D01*
X28363333Y-47106904D02*
X28410952Y-47202142D01*
X28410952Y-47202142D02*
X28458571Y-47249761D01*
X28458571Y-47249761D02*
X28553809Y-47297380D01*
X28553809Y-47297380D02*
X28791904Y-47297380D01*
X28791904Y-47297380D02*
X28887142Y-47249761D01*
X28887142Y-47249761D02*
X28934761Y-47202142D01*
%TO.C,J2*%
X39613333Y-31627380D02*
X39613333Y-32341666D01*
X39613333Y-32341666D02*
X39660952Y-32484523D01*
X39660952Y-32484523D02*
X39756190Y-32579761D01*
X39756190Y-32579761D02*
X39899047Y-32627380D01*
X39899047Y-32627380D02*
X39994285Y-32627380D01*
X39184761Y-31722619D02*
X39137142Y-31675000D01*
X39137142Y-31675000D02*
X39041904Y-31627380D01*
X39041904Y-31627380D02*
X38803809Y-31627380D01*
X38803809Y-31627380D02*
X38708571Y-31675000D01*
X38708571Y-31675000D02*
X38660952Y-31722619D01*
X38660952Y-31722619D02*
X38613333Y-31817857D01*
X38613333Y-31817857D02*
X38613333Y-31913095D01*
X38613333Y-31913095D02*
X38660952Y-32055952D01*
X38660952Y-32055952D02*
X39232380Y-32627380D01*
X39232380Y-32627380D02*
X38613333Y-32627380D01*
%TO.C,J3*%
X29363333Y-31627380D02*
X29363333Y-32341666D01*
X29363333Y-32341666D02*
X29410952Y-32484523D01*
X29410952Y-32484523D02*
X29506190Y-32579761D01*
X29506190Y-32579761D02*
X29649047Y-32627380D01*
X29649047Y-32627380D02*
X29744285Y-32627380D01*
X28982380Y-31627380D02*
X28363333Y-31627380D01*
X28363333Y-31627380D02*
X28696666Y-32008333D01*
X28696666Y-32008333D02*
X28553809Y-32008333D01*
X28553809Y-32008333D02*
X28458571Y-32055952D01*
X28458571Y-32055952D02*
X28410952Y-32103571D01*
X28410952Y-32103571D02*
X28363333Y-32198809D01*
X28363333Y-32198809D02*
X28363333Y-32436904D01*
X28363333Y-32436904D02*
X28410952Y-32532142D01*
X28410952Y-32532142D02*
X28458571Y-32579761D01*
X28458571Y-32579761D02*
X28553809Y-32627380D01*
X28553809Y-32627380D02*
X28839523Y-32627380D01*
X28839523Y-32627380D02*
X28934761Y-32579761D01*
X28934761Y-32579761D02*
X28982380Y-32532142D01*
D12*
%TO.C,J10*%
X39750000Y-97080000D02*
X39750000Y-107580000D01*
X36480000Y-93930000D02*
X36480000Y-94730000D01*
X36480000Y-93930000D02*
X35620000Y-93930000D01*
X36050000Y-107580000D02*
X39750000Y-107580000D01*
X35970000Y-97080000D02*
X39750000Y-97080000D01*
X30750000Y-107580000D02*
X34450000Y-107580000D01*
X30750000Y-97080000D02*
X34530000Y-97080000D01*
X30750000Y-97080000D02*
X30750000Y-107580000D01*
X37050000Y-101580000D02*
G75*
G03*
X37050000Y-101580000I-1800000J0D01*
G01*
%TO.C,J8*%
X39750000Y-79130000D02*
X39750000Y-89630000D01*
X36480000Y-75980000D02*
X36480000Y-76780000D01*
X36480000Y-75980000D02*
X35620000Y-75980000D01*
X36050000Y-89630000D02*
X39750000Y-89630000D01*
X35970000Y-79130000D02*
X39750000Y-79130000D01*
X30750000Y-89630000D02*
X34450000Y-89630000D01*
X30750000Y-79130000D02*
X34530000Y-79130000D01*
X30750000Y-79130000D02*
X30750000Y-89630000D01*
X37050000Y-83630000D02*
G75*
G03*
X37050000Y-83630000I-1800000J0D01*
G01*
%TO.C,J7*%
X29500000Y-64450000D02*
X29500000Y-74950000D01*
X26230000Y-61300000D02*
X26230000Y-62100000D01*
X26230000Y-61300000D02*
X25370000Y-61300000D01*
X25800000Y-74950000D02*
X29500000Y-74950000D01*
X25720000Y-64450000D02*
X29500000Y-64450000D01*
X20500000Y-74950000D02*
X24200000Y-74950000D01*
X20500000Y-64450000D02*
X24280000Y-64450000D01*
X20500000Y-64450000D02*
X20500000Y-74950000D01*
X26800000Y-68950000D02*
G75*
G03*
X26800000Y-68950000I-1800000J0D01*
G01*
%TO.C,J12*%
X39750000Y-111730000D02*
X39750000Y-122230000D01*
X36480000Y-108580000D02*
X36480000Y-109380000D01*
X36480000Y-108580000D02*
X35620000Y-108580000D01*
X36050000Y-122230000D02*
X39750000Y-122230000D01*
X35970000Y-111730000D02*
X39750000Y-111730000D01*
X30750000Y-122230000D02*
X34450000Y-122230000D01*
X30750000Y-111730000D02*
X34530000Y-111730000D01*
X30750000Y-111730000D02*
X30750000Y-122230000D01*
X37050000Y-116230000D02*
G75*
G03*
X37050000Y-116230000I-1800000J0D01*
G01*
%TO.C,J11*%
X29500000Y-97080000D02*
X29500000Y-107580000D01*
X26230000Y-93930000D02*
X26230000Y-94730000D01*
X26230000Y-93930000D02*
X25370000Y-93930000D01*
X25800000Y-107580000D02*
X29500000Y-107580000D01*
X25720000Y-97080000D02*
X29500000Y-97080000D01*
X20500000Y-107580000D02*
X24200000Y-107580000D01*
X20500000Y-97080000D02*
X24280000Y-97080000D01*
X20500000Y-97080000D02*
X20500000Y-107580000D01*
X26800000Y-101580000D02*
G75*
G03*
X26800000Y-101580000I-1800000J0D01*
G01*
%TO.C,J13*%
X29500000Y-111730000D02*
X29500000Y-122230000D01*
X26230000Y-108580000D02*
X26230000Y-109380000D01*
X26230000Y-108580000D02*
X25370000Y-108580000D01*
X25800000Y-122230000D02*
X29500000Y-122230000D01*
X25720000Y-111730000D02*
X29500000Y-111730000D01*
X20500000Y-122230000D02*
X24200000Y-122230000D01*
X20500000Y-111730000D02*
X24280000Y-111730000D01*
X20500000Y-111730000D02*
X20500000Y-122230000D01*
X26800000Y-116230000D02*
G75*
G03*
X26800000Y-116230000I-1800000J0D01*
G01*
%TO.C,J9*%
X29500000Y-79130000D02*
X29500000Y-89630000D01*
X26230000Y-75980000D02*
X26230000Y-76780000D01*
X26230000Y-75980000D02*
X25370000Y-75980000D01*
X25800000Y-89630000D02*
X29500000Y-89630000D01*
X25720000Y-79130000D02*
X29500000Y-79130000D01*
X20500000Y-89630000D02*
X24200000Y-89630000D01*
X20500000Y-79130000D02*
X24280000Y-79130000D01*
X20500000Y-79130000D02*
X20500000Y-89630000D01*
X26800000Y-83630000D02*
G75*
G03*
X26800000Y-83630000I-1800000J0D01*
G01*
%TO.C,J4*%
X39750000Y-47830000D02*
X39750000Y-58330000D01*
X36480000Y-44680000D02*
X36480000Y-45480000D01*
X36480000Y-44680000D02*
X35620000Y-44680000D01*
X36050000Y-58330000D02*
X39750000Y-58330000D01*
X35970000Y-47830000D02*
X39750000Y-47830000D01*
X30750000Y-58330000D02*
X34450000Y-58330000D01*
X30750000Y-47830000D02*
X34530000Y-47830000D01*
X30750000Y-47830000D02*
X30750000Y-58330000D01*
X37050000Y-52330000D02*
G75*
G03*
X37050000Y-52330000I-1800000J0D01*
G01*
%TO.C,J6*%
X39750000Y-64450000D02*
X39750000Y-74950000D01*
X36480000Y-61300000D02*
X36480000Y-62100000D01*
X36480000Y-61300000D02*
X35620000Y-61300000D01*
X36050000Y-74950000D02*
X39750000Y-74950000D01*
X35970000Y-64450000D02*
X39750000Y-64450000D01*
X30750000Y-74950000D02*
X34450000Y-74950000D01*
X30750000Y-64450000D02*
X34530000Y-64450000D01*
X30750000Y-64450000D02*
X30750000Y-74950000D01*
X37050000Y-68950000D02*
G75*
G03*
X37050000Y-68950000I-1800000J0D01*
G01*
%TO.C,J5*%
X29500000Y-47830000D02*
X29500000Y-58330000D01*
X26230000Y-44680000D02*
X26230000Y-45480000D01*
X26230000Y-44680000D02*
X25370000Y-44680000D01*
X25800000Y-58330000D02*
X29500000Y-58330000D01*
X25720000Y-47830000D02*
X29500000Y-47830000D01*
X20500000Y-58330000D02*
X24200000Y-58330000D01*
X20500000Y-47830000D02*
X24280000Y-47830000D01*
X20500000Y-47830000D02*
X20500000Y-58330000D01*
X26800000Y-52330000D02*
G75*
G03*
X26800000Y-52330000I-1800000J0D01*
G01*
%TO.C,J2*%
X39750000Y-33160000D02*
X39750000Y-43660000D01*
X36480000Y-30010000D02*
X36480000Y-30810000D01*
X36480000Y-30010000D02*
X35620000Y-30010000D01*
X36050000Y-43660000D02*
X39750000Y-43660000D01*
X35970000Y-33160000D02*
X39750000Y-33160000D01*
X30750000Y-43660000D02*
X34450000Y-43660000D01*
X30750000Y-33160000D02*
X34530000Y-33160000D01*
X30750000Y-33160000D02*
X30750000Y-43660000D01*
X37050000Y-37660000D02*
G75*
G03*
X37050000Y-37660000I-1800000J0D01*
G01*
%TO.C,J3*%
X29500000Y-33160000D02*
X29500000Y-43660000D01*
X26230000Y-30010000D02*
X26230000Y-30810000D01*
X26230000Y-30010000D02*
X25370000Y-30010000D01*
X25800000Y-43660000D02*
X29500000Y-43660000D01*
X25720000Y-33160000D02*
X29500000Y-33160000D01*
X20500000Y-43660000D02*
X24200000Y-43660000D01*
X20500000Y-33160000D02*
X24280000Y-33160000D01*
X20500000Y-33160000D02*
X20500000Y-43660000D01*
X26800000Y-37660000D02*
G75*
G03*
X26800000Y-37660000I-1800000J0D01*
G01*
%TD*%
%LPC*%
D13*
%TO.C,J10*%
X35249999Y-95099999D03*
D14*
X35250000Y-106500000D03*
X35250000Y-98200000D03*
%TD*%
D13*
%TO.C,J8*%
X35249999Y-77149999D03*
D14*
X35250000Y-88550000D03*
X35250000Y-80250000D03*
%TD*%
D13*
%TO.C,J7*%
X24999999Y-62469999D03*
D14*
X25000000Y-73870000D03*
X25000000Y-65570000D03*
%TD*%
D13*
%TO.C,J12*%
X35249999Y-109749999D03*
D14*
X35250000Y-121150000D03*
X35250000Y-112850000D03*
%TD*%
D13*
%TO.C,J11*%
X24999999Y-95099999D03*
D14*
X25000000Y-106500000D03*
X25000000Y-98200000D03*
%TD*%
D13*
%TO.C,J13*%
X24999999Y-109749999D03*
D14*
X25000000Y-121150000D03*
X25000000Y-112850000D03*
%TD*%
D13*
%TO.C,J9*%
X24999999Y-77149999D03*
D14*
X25000000Y-88550000D03*
X25000000Y-80250000D03*
%TD*%
D13*
%TO.C,J4*%
X35249999Y-45849999D03*
D14*
X35250000Y-57250000D03*
X35250000Y-48950000D03*
%TD*%
D13*
%TO.C,J6*%
X35249999Y-62469999D03*
D14*
X35250000Y-73870000D03*
X35250000Y-65570000D03*
%TD*%
D13*
%TO.C,J5*%
X24999999Y-45849999D03*
D14*
X25000000Y-57250000D03*
X25000000Y-48950000D03*
%TD*%
D13*
%TO.C,J2*%
X35249999Y-31179999D03*
D14*
X35250000Y-42580000D03*
X35250000Y-34280000D03*
%TD*%
D13*
%TO.C,J3*%
X24999999Y-31179999D03*
D14*
X25000000Y-42580000D03*
X25000000Y-34280000D03*
%TD*%
M02*
