%TF.GenerationSoftware,KiCad,Pcbnew,(7.0.0)*%
%TF.CreationDate,2023-03-30T09:23:00-07:00*%
%TF.ProjectId,europower_board,6575726f-706f-4776-9572-5f626f617264,rev?*%
%TF.SameCoordinates,Original*%
%TF.FileFunction,Legend,Top*%
%TF.FilePolarity,Positive*%
%FSLAX46Y46*%
G04 Gerber Fmt 4.6, Leading zero omitted, Abs format (unit mm)*
G04 Created by KiCad (PCBNEW (7.0.0)) date 2023-03-30 09:23:00*
%MOMM*%
%LPD*%
G01*
G04 APERTURE LIST*
G04 Aperture macros list*
%AMRoundRect*
0 Rectangle with rounded corners*
0 $1 Rounding radius*
0 $2 $3 $4 $5 $6 $7 $8 $9 X,Y pos of 4 corners*
0 Add a 4 corners polygon primitive as box body*
4,1,4,$2,$3,$4,$5,$6,$7,$8,$9,$2,$3,0*
0 Add four circle primitives for the rounded corners*
1,1,$1+$1,$2,$3*
1,1,$1+$1,$4,$5*
1,1,$1+$1,$6,$7*
1,1,$1+$1,$8,$9*
0 Add four rect primitives between the rounded corners*
20,1,$1+$1,$2,$3,$4,$5,0*
20,1,$1+$1,$4,$5,$6,$7,0*
20,1,$1+$1,$6,$7,$8,$9,0*
20,1,$1+$1,$8,$9,$2,$3,0*%
G04 Aperture macros list end*
%ADD10C,0.150000*%
%ADD11C,0.120000*%
%ADD12RoundRect,0.255000X-2.245000X-0.255000X2.245000X-0.255000X2.245000X0.255000X-2.245000X0.255000X0*%
G04 APERTURE END LIST*
D10*
X88800000Y-20200000D02*
X99300000Y-20200000D01*
X103350000Y-20200000D02*
X113850000Y-20200000D01*
X118250000Y-20100000D02*
X128750000Y-20100000D01*
X132800000Y-20100000D02*
X143300000Y-20100000D01*
X59750000Y-20200000D02*
X70250000Y-20200000D01*
X74300000Y-20200000D02*
X84800000Y-20200000D01*
X44850000Y-20300000D02*
X55350000Y-20300000D01*
X30300000Y-20300000D02*
X40800000Y-20300000D01*
%TO.C,J8*%
X137816666Y-20087380D02*
X137816666Y-20801666D01*
X137816666Y-20801666D02*
X137769047Y-20944523D01*
X137769047Y-20944523D02*
X137673809Y-21039761D01*
X137673809Y-21039761D02*
X137530952Y-21087380D01*
X137530952Y-21087380D02*
X137435714Y-21087380D01*
X138435714Y-20515952D02*
X138340476Y-20468333D01*
X138340476Y-20468333D02*
X138292857Y-20420714D01*
X138292857Y-20420714D02*
X138245238Y-20325476D01*
X138245238Y-20325476D02*
X138245238Y-20277857D01*
X138245238Y-20277857D02*
X138292857Y-20182619D01*
X138292857Y-20182619D02*
X138340476Y-20135000D01*
X138340476Y-20135000D02*
X138435714Y-20087380D01*
X138435714Y-20087380D02*
X138626190Y-20087380D01*
X138626190Y-20087380D02*
X138721428Y-20135000D01*
X138721428Y-20135000D02*
X138769047Y-20182619D01*
X138769047Y-20182619D02*
X138816666Y-20277857D01*
X138816666Y-20277857D02*
X138816666Y-20325476D01*
X138816666Y-20325476D02*
X138769047Y-20420714D01*
X138769047Y-20420714D02*
X138721428Y-20468333D01*
X138721428Y-20468333D02*
X138626190Y-20515952D01*
X138626190Y-20515952D02*
X138435714Y-20515952D01*
X138435714Y-20515952D02*
X138340476Y-20563571D01*
X138340476Y-20563571D02*
X138292857Y-20611190D01*
X138292857Y-20611190D02*
X138245238Y-20706428D01*
X138245238Y-20706428D02*
X138245238Y-20896904D01*
X138245238Y-20896904D02*
X138292857Y-20992142D01*
X138292857Y-20992142D02*
X138340476Y-21039761D01*
X138340476Y-21039761D02*
X138435714Y-21087380D01*
X138435714Y-21087380D02*
X138626190Y-21087380D01*
X138626190Y-21087380D02*
X138721428Y-21039761D01*
X138721428Y-21039761D02*
X138769047Y-20992142D01*
X138769047Y-20992142D02*
X138816666Y-20896904D01*
X138816666Y-20896904D02*
X138816666Y-20706428D01*
X138816666Y-20706428D02*
X138769047Y-20611190D01*
X138769047Y-20611190D02*
X138721428Y-20563571D01*
X138721428Y-20563571D02*
X138626190Y-20515952D01*
%TO.C,J7*%
X123166666Y-20087380D02*
X123166666Y-20801666D01*
X123166666Y-20801666D02*
X123119047Y-20944523D01*
X123119047Y-20944523D02*
X123023809Y-21039761D01*
X123023809Y-21039761D02*
X122880952Y-21087380D01*
X122880952Y-21087380D02*
X122785714Y-21087380D01*
X123547619Y-20087380D02*
X124214285Y-20087380D01*
X124214285Y-20087380D02*
X123785714Y-21087380D01*
%TO.C,J6*%
X108516666Y-20087380D02*
X108516666Y-20801666D01*
X108516666Y-20801666D02*
X108469047Y-20944523D01*
X108469047Y-20944523D02*
X108373809Y-21039761D01*
X108373809Y-21039761D02*
X108230952Y-21087380D01*
X108230952Y-21087380D02*
X108135714Y-21087380D01*
X109421428Y-20087380D02*
X109230952Y-20087380D01*
X109230952Y-20087380D02*
X109135714Y-20135000D01*
X109135714Y-20135000D02*
X109088095Y-20182619D01*
X109088095Y-20182619D02*
X108992857Y-20325476D01*
X108992857Y-20325476D02*
X108945238Y-20515952D01*
X108945238Y-20515952D02*
X108945238Y-20896904D01*
X108945238Y-20896904D02*
X108992857Y-20992142D01*
X108992857Y-20992142D02*
X109040476Y-21039761D01*
X109040476Y-21039761D02*
X109135714Y-21087380D01*
X109135714Y-21087380D02*
X109326190Y-21087380D01*
X109326190Y-21087380D02*
X109421428Y-21039761D01*
X109421428Y-21039761D02*
X109469047Y-20992142D01*
X109469047Y-20992142D02*
X109516666Y-20896904D01*
X109516666Y-20896904D02*
X109516666Y-20658809D01*
X109516666Y-20658809D02*
X109469047Y-20563571D01*
X109469047Y-20563571D02*
X109421428Y-20515952D01*
X109421428Y-20515952D02*
X109326190Y-20468333D01*
X109326190Y-20468333D02*
X109135714Y-20468333D01*
X109135714Y-20468333D02*
X109040476Y-20515952D01*
X109040476Y-20515952D02*
X108992857Y-20563571D01*
X108992857Y-20563571D02*
X108945238Y-20658809D01*
%TO.C,J5*%
X93866666Y-20087380D02*
X93866666Y-20801666D01*
X93866666Y-20801666D02*
X93819047Y-20944523D01*
X93819047Y-20944523D02*
X93723809Y-21039761D01*
X93723809Y-21039761D02*
X93580952Y-21087380D01*
X93580952Y-21087380D02*
X93485714Y-21087380D01*
X94819047Y-20087380D02*
X94342857Y-20087380D01*
X94342857Y-20087380D02*
X94295238Y-20563571D01*
X94295238Y-20563571D02*
X94342857Y-20515952D01*
X94342857Y-20515952D02*
X94438095Y-20468333D01*
X94438095Y-20468333D02*
X94676190Y-20468333D01*
X94676190Y-20468333D02*
X94771428Y-20515952D01*
X94771428Y-20515952D02*
X94819047Y-20563571D01*
X94819047Y-20563571D02*
X94866666Y-20658809D01*
X94866666Y-20658809D02*
X94866666Y-20896904D01*
X94866666Y-20896904D02*
X94819047Y-20992142D01*
X94819047Y-20992142D02*
X94771428Y-21039761D01*
X94771428Y-21039761D02*
X94676190Y-21087380D01*
X94676190Y-21087380D02*
X94438095Y-21087380D01*
X94438095Y-21087380D02*
X94342857Y-21039761D01*
X94342857Y-21039761D02*
X94295238Y-20992142D01*
%TO.C,J4*%
X79216666Y-20087380D02*
X79216666Y-20801666D01*
X79216666Y-20801666D02*
X79169047Y-20944523D01*
X79169047Y-20944523D02*
X79073809Y-21039761D01*
X79073809Y-21039761D02*
X78930952Y-21087380D01*
X78930952Y-21087380D02*
X78835714Y-21087380D01*
X80121428Y-20420714D02*
X80121428Y-21087380D01*
X79883333Y-20039761D02*
X79645238Y-20754047D01*
X79645238Y-20754047D02*
X80264285Y-20754047D01*
%TO.C,J3*%
X64566666Y-20087380D02*
X64566666Y-20801666D01*
X64566666Y-20801666D02*
X64519047Y-20944523D01*
X64519047Y-20944523D02*
X64423809Y-21039761D01*
X64423809Y-21039761D02*
X64280952Y-21087380D01*
X64280952Y-21087380D02*
X64185714Y-21087380D01*
X64947619Y-20087380D02*
X65566666Y-20087380D01*
X65566666Y-20087380D02*
X65233333Y-20468333D01*
X65233333Y-20468333D02*
X65376190Y-20468333D01*
X65376190Y-20468333D02*
X65471428Y-20515952D01*
X65471428Y-20515952D02*
X65519047Y-20563571D01*
X65519047Y-20563571D02*
X65566666Y-20658809D01*
X65566666Y-20658809D02*
X65566666Y-20896904D01*
X65566666Y-20896904D02*
X65519047Y-20992142D01*
X65519047Y-20992142D02*
X65471428Y-21039761D01*
X65471428Y-21039761D02*
X65376190Y-21087380D01*
X65376190Y-21087380D02*
X65090476Y-21087380D01*
X65090476Y-21087380D02*
X64995238Y-21039761D01*
X64995238Y-21039761D02*
X64947619Y-20992142D01*
%TO.C,J2*%
X49916666Y-20087380D02*
X49916666Y-20801666D01*
X49916666Y-20801666D02*
X49869047Y-20944523D01*
X49869047Y-20944523D02*
X49773809Y-21039761D01*
X49773809Y-21039761D02*
X49630952Y-21087380D01*
X49630952Y-21087380D02*
X49535714Y-21087380D01*
X50345238Y-20182619D02*
X50392857Y-20135000D01*
X50392857Y-20135000D02*
X50488095Y-20087380D01*
X50488095Y-20087380D02*
X50726190Y-20087380D01*
X50726190Y-20087380D02*
X50821428Y-20135000D01*
X50821428Y-20135000D02*
X50869047Y-20182619D01*
X50869047Y-20182619D02*
X50916666Y-20277857D01*
X50916666Y-20277857D02*
X50916666Y-20373095D01*
X50916666Y-20373095D02*
X50869047Y-20515952D01*
X50869047Y-20515952D02*
X50297619Y-21087380D01*
X50297619Y-21087380D02*
X50916666Y-21087380D01*
%TO.C,J1*%
X35266666Y-20087380D02*
X35266666Y-20801666D01*
X35266666Y-20801666D02*
X35219047Y-20944523D01*
X35219047Y-20944523D02*
X35123809Y-21039761D01*
X35123809Y-21039761D02*
X34980952Y-21087380D01*
X34980952Y-21087380D02*
X34885714Y-21087380D01*
X36266666Y-21087380D02*
X35695238Y-21087380D01*
X35980952Y-21087380D02*
X35980952Y-20087380D01*
X35980952Y-20087380D02*
X35885714Y-20230238D01*
X35885714Y-20230238D02*
X35790476Y-20325476D01*
X35790476Y-20325476D02*
X35695238Y-20373095D01*
D11*
%TO.C,J8*%
X133565000Y-25790000D02*
X133565000Y-21610000D01*
X133565000Y-21610000D02*
X142735000Y-21610000D01*
X142735000Y-21610000D02*
X142735000Y-25790000D01*
X133565000Y-45590000D02*
X133565000Y-49770000D01*
X133565000Y-49770000D02*
X142735000Y-49770000D01*
X142735000Y-49770000D02*
X142735000Y-45590000D01*
X133565000Y-25790000D02*
X132065000Y-25790000D01*
%TO.C,J7*%
X118915000Y-25790000D02*
X118915000Y-21610000D01*
X118915000Y-21610000D02*
X128085000Y-21610000D01*
X128085000Y-21610000D02*
X128085000Y-25790000D01*
X118915000Y-45590000D02*
X118915000Y-49770000D01*
X118915000Y-49770000D02*
X128085000Y-49770000D01*
X128085000Y-49770000D02*
X128085000Y-45590000D01*
X118915000Y-25790000D02*
X117415000Y-25790000D01*
%TO.C,J6*%
X104265000Y-25790000D02*
X104265000Y-21610000D01*
X104265000Y-21610000D02*
X113435000Y-21610000D01*
X113435000Y-21610000D02*
X113435000Y-25790000D01*
X104265000Y-45590000D02*
X104265000Y-49770000D01*
X104265000Y-49770000D02*
X113435000Y-49770000D01*
X113435000Y-49770000D02*
X113435000Y-45590000D01*
X104265000Y-25790000D02*
X102765000Y-25790000D01*
%TO.C,J5*%
X89615000Y-25790000D02*
X89615000Y-21610000D01*
X89615000Y-21610000D02*
X98785000Y-21610000D01*
X98785000Y-21610000D02*
X98785000Y-25790000D01*
X89615000Y-45590000D02*
X89615000Y-49770000D01*
X89615000Y-49770000D02*
X98785000Y-49770000D01*
X98785000Y-49770000D02*
X98785000Y-45590000D01*
X89615000Y-25790000D02*
X88115000Y-25790000D01*
%TO.C,J4*%
X74965000Y-25790000D02*
X74965000Y-21610000D01*
X74965000Y-21610000D02*
X84135000Y-21610000D01*
X84135000Y-21610000D02*
X84135000Y-25790000D01*
X74965000Y-45590000D02*
X74965000Y-49770000D01*
X74965000Y-49770000D02*
X84135000Y-49770000D01*
X84135000Y-49770000D02*
X84135000Y-45590000D01*
X74965000Y-25790000D02*
X73465000Y-25790000D01*
%TO.C,J3*%
X60315000Y-25790000D02*
X60315000Y-21610000D01*
X60315000Y-21610000D02*
X69485000Y-21610000D01*
X69485000Y-21610000D02*
X69485000Y-25790000D01*
X60315000Y-45590000D02*
X60315000Y-49770000D01*
X60315000Y-49770000D02*
X69485000Y-49770000D01*
X69485000Y-49770000D02*
X69485000Y-45590000D01*
X60315000Y-25790000D02*
X58815000Y-25790000D01*
%TO.C,J2*%
X45665000Y-25790000D02*
X45665000Y-21610000D01*
X45665000Y-21610000D02*
X54835000Y-21610000D01*
X54835000Y-21610000D02*
X54835000Y-25790000D01*
X45665000Y-45590000D02*
X45665000Y-49770000D01*
X45665000Y-49770000D02*
X54835000Y-49770000D01*
X54835000Y-49770000D02*
X54835000Y-45590000D01*
X45665000Y-25790000D02*
X44165000Y-25790000D01*
%TO.C,J1*%
X31015000Y-25790000D02*
X31015000Y-21610000D01*
X31015000Y-21610000D02*
X40185000Y-21610000D01*
X40185000Y-21610000D02*
X40185000Y-25790000D01*
X31015000Y-45590000D02*
X31015000Y-49770000D01*
X31015000Y-49770000D02*
X40185000Y-49770000D01*
X40185000Y-49770000D02*
X40185000Y-45590000D01*
X31015000Y-25790000D02*
X29515000Y-25790000D01*
%TD*%
%LPC*%
D12*
%TO.C,J8*%
X134350000Y-26800000D03*
X134350000Y-29340000D03*
X134350000Y-31880000D03*
X134350000Y-34420000D03*
X134350000Y-36960000D03*
X134350000Y-39500000D03*
X134350000Y-42040000D03*
X134350000Y-44580000D03*
X141950000Y-26800000D03*
X141950000Y-29340000D03*
X141950000Y-31880000D03*
X141950000Y-34420000D03*
X141950000Y-36960000D03*
X141950000Y-39500000D03*
X141950000Y-42040000D03*
X141950000Y-44580000D03*
%TD*%
%TO.C,J7*%
X119700000Y-26800000D03*
X119700000Y-29340000D03*
X119700000Y-31880000D03*
X119700000Y-34420000D03*
X119700000Y-36960000D03*
X119700000Y-39500000D03*
X119700000Y-42040000D03*
X119700000Y-44580000D03*
X127300000Y-26800000D03*
X127300000Y-29340000D03*
X127300000Y-31880000D03*
X127300000Y-34420000D03*
X127300000Y-36960000D03*
X127300000Y-39500000D03*
X127300000Y-42040000D03*
X127300000Y-44580000D03*
%TD*%
%TO.C,J6*%
X105050000Y-26800000D03*
X105050000Y-29340000D03*
X105050000Y-31880000D03*
X105050000Y-34420000D03*
X105050000Y-36960000D03*
X105050000Y-39500000D03*
X105050000Y-42040000D03*
X105050000Y-44580000D03*
X112650000Y-26800000D03*
X112650000Y-29340000D03*
X112650000Y-31880000D03*
X112650000Y-34420000D03*
X112650000Y-36960000D03*
X112650000Y-39500000D03*
X112650000Y-42040000D03*
X112650000Y-44580000D03*
%TD*%
%TO.C,J5*%
X90400000Y-26800000D03*
X90400000Y-29340000D03*
X90400000Y-31880000D03*
X90400000Y-34420000D03*
X90400000Y-36960000D03*
X90400000Y-39500000D03*
X90400000Y-42040000D03*
X90400000Y-44580000D03*
X98000000Y-26800000D03*
X98000000Y-29340000D03*
X98000000Y-31880000D03*
X98000000Y-34420000D03*
X98000000Y-36960000D03*
X98000000Y-39500000D03*
X98000000Y-42040000D03*
X98000000Y-44580000D03*
%TD*%
%TO.C,J4*%
X75750000Y-26800000D03*
X75750000Y-29340000D03*
X75750000Y-31880000D03*
X75750000Y-34420000D03*
X75750000Y-36960000D03*
X75750000Y-39500000D03*
X75750000Y-42040000D03*
X75750000Y-44580000D03*
X83350000Y-26800000D03*
X83350000Y-29340000D03*
X83350000Y-31880000D03*
X83350000Y-34420000D03*
X83350000Y-36960000D03*
X83350000Y-39500000D03*
X83350000Y-42040000D03*
X83350000Y-44580000D03*
%TD*%
%TO.C,J3*%
X61100000Y-26800000D03*
X61100000Y-29340000D03*
X61100000Y-31880000D03*
X61100000Y-34420000D03*
X61100000Y-36960000D03*
X61100000Y-39500000D03*
X61100000Y-42040000D03*
X61100000Y-44580000D03*
X68700000Y-26800000D03*
X68700000Y-29340000D03*
X68700000Y-31880000D03*
X68700000Y-34420000D03*
X68700000Y-36960000D03*
X68700000Y-39500000D03*
X68700000Y-42040000D03*
X68700000Y-44580000D03*
%TD*%
%TO.C,J2*%
X46450000Y-26800000D03*
X46450000Y-29340000D03*
X46450000Y-31880000D03*
X46450000Y-34420000D03*
X46450000Y-36960000D03*
X46450000Y-39500000D03*
X46450000Y-42040000D03*
X46450000Y-44580000D03*
X54050000Y-26800000D03*
X54050000Y-29340000D03*
X54050000Y-31880000D03*
X54050000Y-34420000D03*
X54050000Y-36960000D03*
X54050000Y-39500000D03*
X54050000Y-42040000D03*
X54050000Y-44580000D03*
%TD*%
%TO.C,J1*%
X31800000Y-26800000D03*
X31800000Y-29340000D03*
X31800000Y-31880000D03*
X31800000Y-34420000D03*
X31800000Y-36960000D03*
X31800000Y-39500000D03*
X31800000Y-42040000D03*
X31800000Y-44580000D03*
X39400000Y-26800000D03*
X39400000Y-29340000D03*
X39400000Y-31880000D03*
X39400000Y-34420000D03*
X39400000Y-36960000D03*
X39400000Y-39500000D03*
X39400000Y-42040000D03*
X39400000Y-44580000D03*
%TD*%
M02*
