%TF.GenerationSoftware,KiCad,Pcbnew,(7.0.0)*%
%TF.CreationDate,2023-03-14T07:08:31-07:00*%
%TF.ProjectId,wisseq,77697373-6571-42e6-9b69-6361645f7063,rev?*%
%TF.SameCoordinates,Original*%
%TF.FileFunction,Legend,Bot*%
%TF.FilePolarity,Positive*%
%FSLAX46Y46*%
G04 Gerber Fmt 4.6, Leading zero omitted, Abs format (unit mm)*
G04 Created by KiCad (PCBNEW (7.0.0)) date 2023-03-14 07:08:31*
%MOMM*%
%LPD*%
G01*
G04 APERTURE LIST*
G04 Aperture macros list*
%AMRoundRect*
0 Rectangle with rounded corners*
0 $1 Rounding radius*
0 $2 $3 $4 $5 $6 $7 $8 $9 X,Y pos of 4 corners*
0 Add a 4 corners polygon primitive as box body*
4,1,4,$2,$3,$4,$5,$6,$7,$8,$9,$2,$3,0*
0 Add four circle primitives for the rounded corners*
1,1,$1+$1,$2,$3*
1,1,$1+$1,$4,$5*
1,1,$1+$1,$6,$7*
1,1,$1+$1,$8,$9*
0 Add four rect primitives between the rounded corners*
20,1,$1+$1,$2,$3,$4,$5,0*
20,1,$1+$1,$4,$5,$6,$7,0*
20,1,$1+$1,$6,$7,$8,$9,0*
20,1,$1+$1,$8,$9,$2,$3,0*%
G04 Aperture macros list end*
%ADD10C,0.150000*%
%ADD11C,0.120000*%
%ADD12RoundRect,0.250000X-0.600000X0.600000X-0.600000X-0.600000X0.600000X-0.600000X0.600000X0.600000X0*%
%ADD13C,1.700000*%
%ADD14R,1.930000X1.830000*%
%ADD15C,2.130000*%
G04 APERTURE END LIST*
D10*
X41357142Y-135782380D02*
X41119047Y-136782380D01*
X41119047Y-136782380D02*
X40928571Y-136068095D01*
X40928571Y-136068095D02*
X40738095Y-136782380D01*
X40738095Y-136782380D02*
X40500000Y-135782380D01*
X40119047Y-136782380D02*
X40119047Y-136115714D01*
X40119047Y-135782380D02*
X40166666Y-135830000D01*
X40166666Y-135830000D02*
X40119047Y-135877619D01*
X40119047Y-135877619D02*
X40071428Y-135830000D01*
X40071428Y-135830000D02*
X40119047Y-135782380D01*
X40119047Y-135782380D02*
X40119047Y-135877619D01*
X39690476Y-136734761D02*
X39595238Y-136782380D01*
X39595238Y-136782380D02*
X39404762Y-136782380D01*
X39404762Y-136782380D02*
X39309524Y-136734761D01*
X39309524Y-136734761D02*
X39261905Y-136639523D01*
X39261905Y-136639523D02*
X39261905Y-136591904D01*
X39261905Y-136591904D02*
X39309524Y-136496666D01*
X39309524Y-136496666D02*
X39404762Y-136449047D01*
X39404762Y-136449047D02*
X39547619Y-136449047D01*
X39547619Y-136449047D02*
X39642857Y-136401428D01*
X39642857Y-136401428D02*
X39690476Y-136306190D01*
X39690476Y-136306190D02*
X39690476Y-136258571D01*
X39690476Y-136258571D02*
X39642857Y-136163333D01*
X39642857Y-136163333D02*
X39547619Y-136115714D01*
X39547619Y-136115714D02*
X39404762Y-136115714D01*
X39404762Y-136115714D02*
X39309524Y-136163333D01*
X38233333Y-136782380D02*
X38233333Y-135782380D01*
X38233333Y-135782380D02*
X37995238Y-135782380D01*
X37995238Y-135782380D02*
X37852381Y-135830000D01*
X37852381Y-135830000D02*
X37757143Y-135925238D01*
X37757143Y-135925238D02*
X37709524Y-136020476D01*
X37709524Y-136020476D02*
X37661905Y-136210952D01*
X37661905Y-136210952D02*
X37661905Y-136353809D01*
X37661905Y-136353809D02*
X37709524Y-136544285D01*
X37709524Y-136544285D02*
X37757143Y-136639523D01*
X37757143Y-136639523D02*
X37852381Y-136734761D01*
X37852381Y-136734761D02*
X37995238Y-136782380D01*
X37995238Y-136782380D02*
X38233333Y-136782380D01*
X36852381Y-136734761D02*
X36947619Y-136782380D01*
X36947619Y-136782380D02*
X37138095Y-136782380D01*
X37138095Y-136782380D02*
X37233333Y-136734761D01*
X37233333Y-136734761D02*
X37280952Y-136639523D01*
X37280952Y-136639523D02*
X37280952Y-136258571D01*
X37280952Y-136258571D02*
X37233333Y-136163333D01*
X37233333Y-136163333D02*
X37138095Y-136115714D01*
X37138095Y-136115714D02*
X36947619Y-136115714D01*
X36947619Y-136115714D02*
X36852381Y-136163333D01*
X36852381Y-136163333D02*
X36804762Y-136258571D01*
X36804762Y-136258571D02*
X36804762Y-136353809D01*
X36804762Y-136353809D02*
X37280952Y-136449047D01*
X36423809Y-136734761D02*
X36328571Y-136782380D01*
X36328571Y-136782380D02*
X36138095Y-136782380D01*
X36138095Y-136782380D02*
X36042857Y-136734761D01*
X36042857Y-136734761D02*
X35995238Y-136639523D01*
X35995238Y-136639523D02*
X35995238Y-136591904D01*
X35995238Y-136591904D02*
X36042857Y-136496666D01*
X36042857Y-136496666D02*
X36138095Y-136449047D01*
X36138095Y-136449047D02*
X36280952Y-136449047D01*
X36280952Y-136449047D02*
X36376190Y-136401428D01*
X36376190Y-136401428D02*
X36423809Y-136306190D01*
X36423809Y-136306190D02*
X36423809Y-136258571D01*
X36423809Y-136258571D02*
X36376190Y-136163333D01*
X36376190Y-136163333D02*
X36280952Y-136115714D01*
X36280952Y-136115714D02*
X36138095Y-136115714D01*
X36138095Y-136115714D02*
X36042857Y-136163333D01*
X35566666Y-136782380D02*
X35566666Y-136115714D01*
X35566666Y-135782380D02*
X35614285Y-135830000D01*
X35614285Y-135830000D02*
X35566666Y-135877619D01*
X35566666Y-135877619D02*
X35519047Y-135830000D01*
X35519047Y-135830000D02*
X35566666Y-135782380D01*
X35566666Y-135782380D02*
X35566666Y-135877619D01*
X34661905Y-136115714D02*
X34661905Y-136925238D01*
X34661905Y-136925238D02*
X34709524Y-137020476D01*
X34709524Y-137020476D02*
X34757143Y-137068095D01*
X34757143Y-137068095D02*
X34852381Y-137115714D01*
X34852381Y-137115714D02*
X34995238Y-137115714D01*
X34995238Y-137115714D02*
X35090476Y-137068095D01*
X34661905Y-136734761D02*
X34757143Y-136782380D01*
X34757143Y-136782380D02*
X34947619Y-136782380D01*
X34947619Y-136782380D02*
X35042857Y-136734761D01*
X35042857Y-136734761D02*
X35090476Y-136687142D01*
X35090476Y-136687142D02*
X35138095Y-136591904D01*
X35138095Y-136591904D02*
X35138095Y-136306190D01*
X35138095Y-136306190D02*
X35090476Y-136210952D01*
X35090476Y-136210952D02*
X35042857Y-136163333D01*
X35042857Y-136163333D02*
X34947619Y-136115714D01*
X34947619Y-136115714D02*
X34757143Y-136115714D01*
X34757143Y-136115714D02*
X34661905Y-136163333D01*
X34185714Y-136115714D02*
X34185714Y-136782380D01*
X34185714Y-136210952D02*
X34138095Y-136163333D01*
X34138095Y-136163333D02*
X34042857Y-136115714D01*
X34042857Y-136115714D02*
X33900000Y-136115714D01*
X33900000Y-136115714D02*
X33804762Y-136163333D01*
X33804762Y-136163333D02*
X33757143Y-136258571D01*
X33757143Y-136258571D02*
X33757143Y-136782380D01*
X33328571Y-136734761D02*
X33233333Y-136782380D01*
X33233333Y-136782380D02*
X33042857Y-136782380D01*
X33042857Y-136782380D02*
X32947619Y-136734761D01*
X32947619Y-136734761D02*
X32900000Y-136639523D01*
X32900000Y-136639523D02*
X32900000Y-136591904D01*
X32900000Y-136591904D02*
X32947619Y-136496666D01*
X32947619Y-136496666D02*
X33042857Y-136449047D01*
X33042857Y-136449047D02*
X33185714Y-136449047D01*
X33185714Y-136449047D02*
X33280952Y-136401428D01*
X33280952Y-136401428D02*
X33328571Y-136306190D01*
X33328571Y-136306190D02*
X33328571Y-136258571D01*
X33328571Y-136258571D02*
X33280952Y-136163333D01*
X33280952Y-136163333D02*
X33185714Y-136115714D01*
X33185714Y-136115714D02*
X33042857Y-136115714D01*
X33042857Y-136115714D02*
X32947619Y-136163333D01*
X31919047Y-135877619D02*
X31871428Y-135830000D01*
X31871428Y-135830000D02*
X31776190Y-135782380D01*
X31776190Y-135782380D02*
X31538095Y-135782380D01*
X31538095Y-135782380D02*
X31442857Y-135830000D01*
X31442857Y-135830000D02*
X31395238Y-135877619D01*
X31395238Y-135877619D02*
X31347619Y-135972857D01*
X31347619Y-135972857D02*
X31347619Y-136068095D01*
X31347619Y-136068095D02*
X31395238Y-136210952D01*
X31395238Y-136210952D02*
X31966666Y-136782380D01*
X31966666Y-136782380D02*
X31347619Y-136782380D01*
X30728571Y-135782380D02*
X30633333Y-135782380D01*
X30633333Y-135782380D02*
X30538095Y-135830000D01*
X30538095Y-135830000D02*
X30490476Y-135877619D01*
X30490476Y-135877619D02*
X30442857Y-135972857D01*
X30442857Y-135972857D02*
X30395238Y-136163333D01*
X30395238Y-136163333D02*
X30395238Y-136401428D01*
X30395238Y-136401428D02*
X30442857Y-136591904D01*
X30442857Y-136591904D02*
X30490476Y-136687142D01*
X30490476Y-136687142D02*
X30538095Y-136734761D01*
X30538095Y-136734761D02*
X30633333Y-136782380D01*
X30633333Y-136782380D02*
X30728571Y-136782380D01*
X30728571Y-136782380D02*
X30823809Y-136734761D01*
X30823809Y-136734761D02*
X30871428Y-136687142D01*
X30871428Y-136687142D02*
X30919047Y-136591904D01*
X30919047Y-136591904D02*
X30966666Y-136401428D01*
X30966666Y-136401428D02*
X30966666Y-136163333D01*
X30966666Y-136163333D02*
X30919047Y-135972857D01*
X30919047Y-135972857D02*
X30871428Y-135877619D01*
X30871428Y-135877619D02*
X30823809Y-135830000D01*
X30823809Y-135830000D02*
X30728571Y-135782380D01*
X30014285Y-135877619D02*
X29966666Y-135830000D01*
X29966666Y-135830000D02*
X29871428Y-135782380D01*
X29871428Y-135782380D02*
X29633333Y-135782380D01*
X29633333Y-135782380D02*
X29538095Y-135830000D01*
X29538095Y-135830000D02*
X29490476Y-135877619D01*
X29490476Y-135877619D02*
X29442857Y-135972857D01*
X29442857Y-135972857D02*
X29442857Y-136068095D01*
X29442857Y-136068095D02*
X29490476Y-136210952D01*
X29490476Y-136210952D02*
X30061904Y-136782380D01*
X30061904Y-136782380D02*
X29442857Y-136782380D01*
X29109523Y-135782380D02*
X28490476Y-135782380D01*
X28490476Y-135782380D02*
X28823809Y-136163333D01*
X28823809Y-136163333D02*
X28680952Y-136163333D01*
X28680952Y-136163333D02*
X28585714Y-136210952D01*
X28585714Y-136210952D02*
X28538095Y-136258571D01*
X28538095Y-136258571D02*
X28490476Y-136353809D01*
X28490476Y-136353809D02*
X28490476Y-136591904D01*
X28490476Y-136591904D02*
X28538095Y-136687142D01*
X28538095Y-136687142D02*
X28585714Y-136734761D01*
X28585714Y-136734761D02*
X28680952Y-136782380D01*
X28680952Y-136782380D02*
X28966666Y-136782380D01*
X28966666Y-136782380D02*
X29061904Y-136734761D01*
X29061904Y-136734761D02*
X29109523Y-136687142D01*
%TO.C,J1*%
X19377380Y-115184166D02*
X20091666Y-115184166D01*
X20091666Y-115184166D02*
X20234523Y-115136547D01*
X20234523Y-115136547D02*
X20329761Y-115041309D01*
X20329761Y-115041309D02*
X20377380Y-114898452D01*
X20377380Y-114898452D02*
X20377380Y-114803214D01*
X20377380Y-116184166D02*
X20377380Y-115612738D01*
X20377380Y-115898452D02*
X19377380Y-115898452D01*
X19377380Y-115898452D02*
X19520238Y-115803214D01*
X19520238Y-115803214D02*
X19615476Y-115707976D01*
X19615476Y-115707976D02*
X19663095Y-115612738D01*
D11*
X47800000Y-112267500D02*
X37050000Y-112267500D01*
X25610000Y-109567500D02*
X26610000Y-109567500D01*
X49100000Y-110957500D02*
X20900000Y-110957500D01*
X37050000Y-112267500D02*
X37050000Y-110957500D01*
X37050000Y-112267500D02*
X37050000Y-112267500D01*
X22200000Y-112267500D02*
X22200000Y-118767500D01*
X26610000Y-109567500D02*
X26110000Y-110567500D01*
X20900000Y-120077500D02*
X49100000Y-120077500D01*
X49100000Y-120077500D02*
X49100000Y-110957500D01*
X22200000Y-118767500D02*
X47800000Y-118767500D01*
X32950000Y-110957500D02*
X32950000Y-112267500D01*
X47800000Y-118767500D02*
X47800000Y-112267500D01*
X20900000Y-110957500D02*
X20900000Y-120077500D01*
X32950000Y-112267500D02*
X22200000Y-112267500D01*
X26110000Y-110567500D02*
X25610000Y-109567500D01*
%TD*%
%LPC*%
D12*
%TO.C,J1*%
X26110000Y-114247500D03*
D13*
X26110000Y-116787500D03*
X28650000Y-114247500D03*
X28650000Y-116787500D03*
X31190000Y-114247500D03*
X31190000Y-116787500D03*
X33730000Y-114247500D03*
X33730000Y-116787500D03*
X36270000Y-114247500D03*
X36270000Y-116787500D03*
X38810000Y-114247500D03*
X38810000Y-116787500D03*
X41350000Y-114247500D03*
X41350000Y-116787500D03*
X43890000Y-114247500D03*
X43890000Y-116787500D03*
%TD*%
D14*
%TO.C,J3*%
X42249999Y-122849999D03*
D15*
X42250000Y-134250000D03*
X42250000Y-125950000D03*
%TD*%
D14*
%TO.C,J2*%
X26499999Y-122969999D03*
D15*
X26500000Y-134370000D03*
X26500000Y-126070000D03*
%TD*%
M02*
