M48
; DRILL file {KiCad (7.0.0)} date Tue Mar 14 07:08:31 2023
; FORMAT={-:-/ absolute / inch / decimal}
; #@! TF.CreationDate,2023-03-14T07:08:31-07:00
; #@! TF.GenerationSoftware,Kicad,Pcbnew,(7.0.0)
; #@! TF.FileFunction,Plated,1,2,PTH
FMAT,2
INCH
; #@! TA.AperFunction,Plated,PTH,ViaDrill
T1C0.0157
; #@! TA.AperFunction,Plated,PTH,ComponentDrill
T2C0.0394
; #@! TA.AperFunction,Plated,PTH,ComponentDrill
T3C0.0480
; #@! TA.AperFunction,Plated,PTH,ComponentDrill
T4C0.0559
; #@! TA.AperFunction,Plated,PTH,ComponentDrill
T5C0.0563
%
G90
G05
T1
X0.8346Y-3.748
X0.8661Y-4.4803
X0.874Y-3.2441
X0.874Y-4.0709
X0.876Y-4.3406
X0.8898Y-2.937
X0.8976Y-2.3228
X0.8976Y-2.6299
X0.9055Y-3.5433
X0.9134Y-3.2126
X0.9213Y-3.2756
X0.9528Y-4.0709
X0.9606Y-3.7402
X0.9685Y-4.2362
X0.9764Y-4.1496
X0.9921Y-2.937
X1.0315Y-1.4094
X1.0315Y-4.0709
X1.0394Y-3.748
X1.0787Y-2.6142
X1.0945Y-2.3228
X1.1024Y-4.063
X1.1122Y-2.4705
X1.1181Y-3.7559
X1.1417Y-2.0079
X1.1496Y-4.2126
X1.1713Y-4.1339
X1.1969Y-4.8346
X1.2106Y-2.0177
X1.2106Y-2.3327
X1.2106Y-2.9528
X1.2106Y-3.5531
X1.2126Y-4.063
X1.2283Y-3.2362
X1.2362Y-3.7874
X1.2362Y-3.9724
X1.2362Y-4.7008
X1.2402Y-1.7126
X1.25Y-2.2933
X1.2564Y-3.8863
X1.2756Y-4.0
X1.2894Y-3.7205
X1.2913Y-5.2756
X1.315Y-4.4331
X1.3307Y-3.9104
X1.3465Y-3.8425
X1.3484Y-3.0807
X1.378Y-3.9134
X1.3937Y-4.2362
X1.3937Y-4.4173
X1.4016Y-3.4488
X1.4075Y-1.5846
X1.4075Y-2.7756
X1.4075Y-3.2087
X1.4094Y-3.1181
X1.4094Y-3.9843
X1.4173Y-1.8307
X1.4173Y-2.2835
X1.4173Y-2.7264
X1.4173Y-4.1417
X1.4252Y-1.2677
X1.4252Y-3.6457
X1.4252Y-3.7165
X1.4272Y-1.624
X1.4331Y-3.3701
X1.437Y-2.9035
X1.4562Y-2.6186
X1.4567Y-1.6919
X1.4646Y-4.1496
X1.4665Y-1.4961
X1.4665Y-1.9193
X1.4724Y-4.3071
X1.4803Y-4.2441
X1.4862Y-2.8642
X1.4961Y-2.5591
X1.4961Y-3.4803
X1.5039Y-3.1575
X1.5118Y-2.2992
X1.5118Y-3.7008
X1.5157Y-2.4803
X1.5197Y-3.622
X1.5354Y-2.2047
X1.5354Y-2.9685
X1.5433Y-3.2992
X1.5453Y-3.3858
X1.5512Y-3.0472
X1.565Y-2.0472
X1.5945Y-1.9488
X1.6038Y-3.5231
X1.6043Y-1.5256
X1.6063Y-3.8425
X1.624Y-2.6083
X1.6338Y-2.6673
X1.6339Y-1.4075
X1.6437Y-3.9961
X1.6457Y-2.2205
X1.6457Y-4.2913
X1.6535Y-3.2874
X1.6535Y-4.748
X1.6634Y-2.4606
X1.6831Y-3.5433
X1.6929Y-4.4016
X1.7028Y-2.0472
X1.7038Y-3.7244
X1.7087Y-4.2047
X1.7165Y-2.9843
X1.7165Y-3.874
X1.7224Y-1.6732
X1.7224Y-3.376
X1.7323Y-2.8051
X1.7421Y-2.628
X1.7559Y-3.9921
X1.7638Y-4.6929
X1.7717Y-1.5157
X1.7717Y-3.7165
X1.7795Y-2.2077
X1.7874Y-3.189
X1.7913Y-1.9783
X1.7953Y-3.0551
X1.7953Y-3.9528
X1.811Y-1.189
X1.811Y-2.6476
X1.8189Y-3.0079
X1.8209Y-1.8799
X1.8209Y-2.4311
X1.8209Y-3.7303
X1.8307Y-1.3878
X1.8307Y-1.6831
X1.8425Y-2.0
X1.8425Y-3.5118
X1.8425Y-4.0866
X1.8583Y-2.8031
X1.874Y-3.9528
X1.8799Y-3.3661
X1.8898Y-2.2126
X1.8976Y-2.0551
X1.8996Y-1.8799
X1.9055Y-3.7717
X1.9055Y-4.252
X1.9134Y-1.3386
X1.9193Y-2.6476
X1.9193Y-2.9213
X1.9291Y-3.9055
X1.937Y-2.8661
X1.9528Y-4.315
T2
X1.028Y-4.4979
X1.028Y-4.5979
X1.128Y-4.4979
X1.128Y-4.5979
X1.228Y-4.4979
X1.228Y-4.5979
X1.328Y-4.4979
X1.328Y-4.5979
X1.428Y-4.4979
X1.428Y-4.5979
X1.528Y-4.4979
X1.528Y-4.5979
X1.628Y-4.4979
X1.628Y-4.5979
X1.728Y-4.4979
X1.728Y-4.5979
T3
X1.0433Y-4.8413
X1.6634Y-4.8366
T4
X1.0433Y-4.9634
X1.6634Y-4.9587
T5
X1.0433Y-5.2902
X1.6634Y-5.2854
T0
M30
