%TF.GenerationSoftware,KiCad,Pcbnew,7.0.1*%
%TF.CreationDate,2023-04-03T10:55:15-07:00*%
%TF.ProjectId,transistor_vca,7472616e-7369-4737-946f-725f7663612e,rev?*%
%TF.SameCoordinates,Original*%
%TF.FileFunction,Paste,Top*%
%TF.FilePolarity,Positive*%
%FSLAX46Y46*%
G04 Gerber Fmt 4.6, Leading zero omitted, Abs format (unit mm)*
G04 Created by KiCad (PCBNEW 7.0.1) date 2023-04-03 10:55:15*
%MOMM*%
%LPD*%
G01*
G04 APERTURE LIST*
G04 Aperture macros list*
%AMRoundRect*
0 Rectangle with rounded corners*
0 $1 Rounding radius*
0 $2 $3 $4 $5 $6 $7 $8 $9 X,Y pos of 4 corners*
0 Add a 4 corners polygon primitive as box body*
4,1,4,$2,$3,$4,$5,$6,$7,$8,$9,$2,$3,0*
0 Add four circle primitives for the rounded corners*
1,1,$1+$1,$2,$3*
1,1,$1+$1,$4,$5*
1,1,$1+$1,$6,$7*
1,1,$1+$1,$8,$9*
0 Add four rect primitives between the rounded corners*
20,1,$1+$1,$2,$3,$4,$5,0*
20,1,$1+$1,$4,$5,$6,$7,0*
20,1,$1+$1,$6,$7,$8,$9,0*
20,1,$1+$1,$8,$9,$2,$3,0*%
G04 Aperture macros list end*
%ADD10RoundRect,0.200000X-0.200000X-0.275000X0.200000X-0.275000X0.200000X0.275000X-0.200000X0.275000X0*%
%ADD11RoundRect,0.150000X-0.825000X-0.150000X0.825000X-0.150000X0.825000X0.150000X-0.825000X0.150000X0*%
%ADD12RoundRect,0.150000X-0.512500X-0.150000X0.512500X-0.150000X0.512500X0.150000X-0.512500X0.150000X0*%
%ADD13RoundRect,0.255000X-2.245000X-0.255000X2.245000X-0.255000X2.245000X0.255000X-2.245000X0.255000X0*%
G04 APERTURE END LIST*
D10*
%TO.C,R14*%
X113819002Y-58039000D03*
X115469002Y-58039000D03*
%TD*%
%TO.C,R4*%
X99737500Y-47830000D03*
X101387500Y-47830000D03*
%TD*%
D11*
%TO.C,U2*%
X33782000Y-90678000D03*
X33782000Y-91948000D03*
X33782000Y-93218000D03*
X33782000Y-94488000D03*
X38732000Y-94488000D03*
X38732000Y-93218000D03*
X38732000Y-91948000D03*
X38732000Y-90678000D03*
%TD*%
D10*
%TO.C,R5*%
X99737500Y-50340000D03*
X101387500Y-50340000D03*
%TD*%
%TO.C,R12*%
X108649000Y-70358000D03*
X110299000Y-70358000D03*
%TD*%
%TO.C,R3*%
X108649000Y-62484000D03*
X110299000Y-62484000D03*
%TD*%
%TO.C,R11*%
X108649000Y-68553000D03*
X110299000Y-68553000D03*
%TD*%
%TO.C,R7*%
X113983000Y-61341000D03*
X115633000Y-61341000D03*
%TD*%
%TO.C,R1*%
X108649000Y-60833000D03*
X110299000Y-60833000D03*
%TD*%
D12*
%TO.C,Q1*%
X35119500Y-68795000D03*
X35119500Y-70695000D03*
X37394500Y-69745000D03*
%TD*%
D10*
%TO.C,R8*%
X113983000Y-59690000D03*
X115633000Y-59690000D03*
%TD*%
D13*
%TO.C,J1*%
X31008000Y-38100000D03*
X38608000Y-38100000D03*
X31008000Y-40640000D03*
X38608000Y-40640000D03*
X31008000Y-43180000D03*
X38608000Y-43180000D03*
X31008000Y-45720000D03*
X38608000Y-45720000D03*
X31008000Y-48260000D03*
X38608000Y-48260000D03*
X31008000Y-50800000D03*
X38608000Y-50800000D03*
X31008000Y-53340000D03*
X38608000Y-53340000D03*
X31008000Y-55880000D03*
X38608000Y-55880000D03*
%TD*%
D10*
%TO.C,R6*%
X103747500Y-40300000D03*
X105397500Y-40300000D03*
%TD*%
D12*
%TO.C,Q2*%
X35119500Y-73245000D03*
X35119500Y-75145000D03*
X37394500Y-74195000D03*
%TD*%
D11*
%TO.C,U1*%
X33782000Y-84228000D03*
X33782000Y-85498000D03*
X33782000Y-86768000D03*
X33782000Y-88038000D03*
X38732000Y-88038000D03*
X38732000Y-86768000D03*
X38732000Y-85498000D03*
X38732000Y-84228000D03*
%TD*%
D10*
%TO.C,R10*%
X108649000Y-67283000D03*
X110299000Y-67283000D03*
%TD*%
%TO.C,R2*%
X108558998Y-59182000D03*
X110208998Y-59182000D03*
%TD*%
%TO.C,R13*%
X114327002Y-63373000D03*
X115977002Y-63373000D03*
%TD*%
%TO.C,R9*%
X103747500Y-47830000D03*
X105397500Y-47830000D03*
%TD*%
M02*
