%TF.GenerationSoftware,KiCad,Pcbnew,7.0.1*%
%TF.CreationDate,2023-04-03T10:55:15-07:00*%
%TF.ProjectId,transistor_vca,7472616e-7369-4737-946f-725f7663612e,rev?*%
%TF.SameCoordinates,Original*%
%TF.FileFunction,Legend,Top*%
%TF.FilePolarity,Positive*%
%FSLAX46Y46*%
G04 Gerber Fmt 4.6, Leading zero omitted, Abs format (unit mm)*
G04 Created by KiCad (PCBNEW 7.0.1) date 2023-04-03 10:55:15*
%MOMM*%
%LPD*%
G01*
G04 APERTURE LIST*
G04 Aperture macros list*
%AMRoundRect*
0 Rectangle with rounded corners*
0 $1 Rounding radius*
0 $2 $3 $4 $5 $6 $7 $8 $9 X,Y pos of 4 corners*
0 Add a 4 corners polygon primitive as box body*
4,1,4,$2,$3,$4,$5,$6,$7,$8,$9,$2,$3,0*
0 Add four circle primitives for the rounded corners*
1,1,$1+$1,$2,$3*
1,1,$1+$1,$4,$5*
1,1,$1+$1,$6,$7*
1,1,$1+$1,$8,$9*
0 Add four rect primitives between the rounded corners*
20,1,$1+$1,$2,$3,$4,$5,0*
20,1,$1+$1,$4,$5,$6,$7,0*
20,1,$1+$1,$6,$7,$8,$9,0*
20,1,$1+$1,$8,$9,$2,$3,0*%
G04 Aperture macros list end*
%ADD10C,0.150000*%
%ADD11C,0.120000*%
%ADD12RoundRect,0.200000X-0.200000X-0.275000X0.200000X-0.275000X0.200000X0.275000X-0.200000X0.275000X0*%
%ADD13R,1.930000X1.830000*%
%ADD14C,2.130000*%
%ADD15RoundRect,0.150000X-0.825000X-0.150000X0.825000X-0.150000X0.825000X0.150000X-0.825000X0.150000X0*%
%ADD16RoundRect,0.150000X-0.512500X-0.150000X0.512500X-0.150000X0.512500X0.150000X-0.512500X0.150000X0*%
%ADD17RoundRect,0.255000X-2.245000X-0.255000X2.245000X-0.255000X2.245000X0.255000X-2.245000X0.255000X0*%
G04 APERTURE END LIST*
D10*
%TO.C,R14*%
X114001144Y-57071619D02*
X113667811Y-56595428D01*
X113429716Y-57071619D02*
X113429716Y-56071619D01*
X113429716Y-56071619D02*
X113810668Y-56071619D01*
X113810668Y-56071619D02*
X113905906Y-56119238D01*
X113905906Y-56119238D02*
X113953525Y-56166857D01*
X113953525Y-56166857D02*
X114001144Y-56262095D01*
X114001144Y-56262095D02*
X114001144Y-56404952D01*
X114001144Y-56404952D02*
X113953525Y-56500190D01*
X113953525Y-56500190D02*
X113905906Y-56547809D01*
X113905906Y-56547809D02*
X113810668Y-56595428D01*
X113810668Y-56595428D02*
X113429716Y-56595428D01*
X114953525Y-57071619D02*
X114382097Y-57071619D01*
X114667811Y-57071619D02*
X114667811Y-56071619D01*
X114667811Y-56071619D02*
X114572573Y-56214476D01*
X114572573Y-56214476D02*
X114477335Y-56309714D01*
X114477335Y-56309714D02*
X114382097Y-56357333D01*
X115810668Y-56404952D02*
X115810668Y-57071619D01*
X115572573Y-56024000D02*
X115334478Y-56738285D01*
X115334478Y-56738285D02*
X115953525Y-56738285D01*
%TO.C,R4*%
X100395833Y-46862619D02*
X100062500Y-46386428D01*
X99824405Y-46862619D02*
X99824405Y-45862619D01*
X99824405Y-45862619D02*
X100205357Y-45862619D01*
X100205357Y-45862619D02*
X100300595Y-45910238D01*
X100300595Y-45910238D02*
X100348214Y-45957857D01*
X100348214Y-45957857D02*
X100395833Y-46053095D01*
X100395833Y-46053095D02*
X100395833Y-46195952D01*
X100395833Y-46195952D02*
X100348214Y-46291190D01*
X100348214Y-46291190D02*
X100300595Y-46338809D01*
X100300595Y-46338809D02*
X100205357Y-46386428D01*
X100205357Y-46386428D02*
X99824405Y-46386428D01*
X101252976Y-46195952D02*
X101252976Y-46862619D01*
X101014881Y-45815000D02*
X100776786Y-46529285D01*
X100776786Y-46529285D02*
X101395833Y-46529285D01*
%TO.C,JCV1*%
X30181266Y-123206410D02*
X30181266Y-123920695D01*
X30181266Y-123920695D02*
X30133647Y-124063552D01*
X30133647Y-124063552D02*
X30038409Y-124158791D01*
X30038409Y-124158791D02*
X29895552Y-124206410D01*
X29895552Y-124206410D02*
X29800314Y-124206410D01*
X31228885Y-124111171D02*
X31181266Y-124158791D01*
X31181266Y-124158791D02*
X31038409Y-124206410D01*
X31038409Y-124206410D02*
X30943171Y-124206410D01*
X30943171Y-124206410D02*
X30800314Y-124158791D01*
X30800314Y-124158791D02*
X30705076Y-124063552D01*
X30705076Y-124063552D02*
X30657457Y-123968314D01*
X30657457Y-123968314D02*
X30609838Y-123777838D01*
X30609838Y-123777838D02*
X30609838Y-123634981D01*
X30609838Y-123634981D02*
X30657457Y-123444505D01*
X30657457Y-123444505D02*
X30705076Y-123349267D01*
X30705076Y-123349267D02*
X30800314Y-123254029D01*
X30800314Y-123254029D02*
X30943171Y-123206410D01*
X30943171Y-123206410D02*
X31038409Y-123206410D01*
X31038409Y-123206410D02*
X31181266Y-123254029D01*
X31181266Y-123254029D02*
X31228885Y-123301648D01*
X31514600Y-123206410D02*
X31847933Y-124206410D01*
X31847933Y-124206410D02*
X32181266Y-123206410D01*
X33038409Y-124206410D02*
X32466981Y-124206410D01*
X32752695Y-124206410D02*
X32752695Y-123206410D01*
X32752695Y-123206410D02*
X32657457Y-123349267D01*
X32657457Y-123349267D02*
X32562219Y-123444505D01*
X32562219Y-123444505D02*
X32466981Y-123492124D01*
%TO.C,JOUT1*%
X38912095Y-107284619D02*
X38912095Y-107998904D01*
X38912095Y-107998904D02*
X38864476Y-108141761D01*
X38864476Y-108141761D02*
X38769238Y-108237000D01*
X38769238Y-108237000D02*
X38626381Y-108284619D01*
X38626381Y-108284619D02*
X38531143Y-108284619D01*
X39578762Y-107284619D02*
X39769238Y-107284619D01*
X39769238Y-107284619D02*
X39864476Y-107332238D01*
X39864476Y-107332238D02*
X39959714Y-107427476D01*
X39959714Y-107427476D02*
X40007333Y-107617952D01*
X40007333Y-107617952D02*
X40007333Y-107951285D01*
X40007333Y-107951285D02*
X39959714Y-108141761D01*
X39959714Y-108141761D02*
X39864476Y-108237000D01*
X39864476Y-108237000D02*
X39769238Y-108284619D01*
X39769238Y-108284619D02*
X39578762Y-108284619D01*
X39578762Y-108284619D02*
X39483524Y-108237000D01*
X39483524Y-108237000D02*
X39388286Y-108141761D01*
X39388286Y-108141761D02*
X39340667Y-107951285D01*
X39340667Y-107951285D02*
X39340667Y-107617952D01*
X39340667Y-107617952D02*
X39388286Y-107427476D01*
X39388286Y-107427476D02*
X39483524Y-107332238D01*
X39483524Y-107332238D02*
X39578762Y-107284619D01*
X40435905Y-107284619D02*
X40435905Y-108094142D01*
X40435905Y-108094142D02*
X40483524Y-108189380D01*
X40483524Y-108189380D02*
X40531143Y-108237000D01*
X40531143Y-108237000D02*
X40626381Y-108284619D01*
X40626381Y-108284619D02*
X40816857Y-108284619D01*
X40816857Y-108284619D02*
X40912095Y-108237000D01*
X40912095Y-108237000D02*
X40959714Y-108189380D01*
X40959714Y-108189380D02*
X41007333Y-108094142D01*
X41007333Y-108094142D02*
X41007333Y-107284619D01*
X41340667Y-107284619D02*
X41912095Y-107284619D01*
X41626381Y-108284619D02*
X41626381Y-107284619D01*
X42769238Y-108284619D02*
X42197810Y-108284619D01*
X42483524Y-108284619D02*
X42483524Y-107284619D01*
X42483524Y-107284619D02*
X42388286Y-107427476D01*
X42388286Y-107427476D02*
X42293048Y-107522714D01*
X42293048Y-107522714D02*
X42197810Y-107570333D01*
%TO.C,U2*%
X35495095Y-88645619D02*
X35495095Y-89455142D01*
X35495095Y-89455142D02*
X35542714Y-89550380D01*
X35542714Y-89550380D02*
X35590333Y-89598000D01*
X35590333Y-89598000D02*
X35685571Y-89645619D01*
X35685571Y-89645619D02*
X35876047Y-89645619D01*
X35876047Y-89645619D02*
X35971285Y-89598000D01*
X35971285Y-89598000D02*
X36018904Y-89550380D01*
X36018904Y-89550380D02*
X36066523Y-89455142D01*
X36066523Y-89455142D02*
X36066523Y-88645619D01*
X36495095Y-88740857D02*
X36542714Y-88693238D01*
X36542714Y-88693238D02*
X36637952Y-88645619D01*
X36637952Y-88645619D02*
X36876047Y-88645619D01*
X36876047Y-88645619D02*
X36971285Y-88693238D01*
X36971285Y-88693238D02*
X37018904Y-88740857D01*
X37018904Y-88740857D02*
X37066523Y-88836095D01*
X37066523Y-88836095D02*
X37066523Y-88931333D01*
X37066523Y-88931333D02*
X37018904Y-89074190D01*
X37018904Y-89074190D02*
X36447476Y-89645619D01*
X36447476Y-89645619D02*
X37066523Y-89645619D01*
%TO.C,R5*%
X100395833Y-49372619D02*
X100062500Y-48896428D01*
X99824405Y-49372619D02*
X99824405Y-48372619D01*
X99824405Y-48372619D02*
X100205357Y-48372619D01*
X100205357Y-48372619D02*
X100300595Y-48420238D01*
X100300595Y-48420238D02*
X100348214Y-48467857D01*
X100348214Y-48467857D02*
X100395833Y-48563095D01*
X100395833Y-48563095D02*
X100395833Y-48705952D01*
X100395833Y-48705952D02*
X100348214Y-48801190D01*
X100348214Y-48801190D02*
X100300595Y-48848809D01*
X100300595Y-48848809D02*
X100205357Y-48896428D01*
X100205357Y-48896428D02*
X99824405Y-48896428D01*
X101300595Y-48372619D02*
X100824405Y-48372619D01*
X100824405Y-48372619D02*
X100776786Y-48848809D01*
X100776786Y-48848809D02*
X100824405Y-48801190D01*
X100824405Y-48801190D02*
X100919643Y-48753571D01*
X100919643Y-48753571D02*
X101157738Y-48753571D01*
X101157738Y-48753571D02*
X101252976Y-48801190D01*
X101252976Y-48801190D02*
X101300595Y-48848809D01*
X101300595Y-48848809D02*
X101348214Y-48944047D01*
X101348214Y-48944047D02*
X101348214Y-49182142D01*
X101348214Y-49182142D02*
X101300595Y-49277380D01*
X101300595Y-49277380D02*
X101252976Y-49325000D01*
X101252976Y-49325000D02*
X101157738Y-49372619D01*
X101157738Y-49372619D02*
X100919643Y-49372619D01*
X100919643Y-49372619D02*
X100824405Y-49325000D01*
X100824405Y-49325000D02*
X100776786Y-49277380D01*
%TO.C,R12*%
X108831142Y-69390619D02*
X108497809Y-68914428D01*
X108259714Y-69390619D02*
X108259714Y-68390619D01*
X108259714Y-68390619D02*
X108640666Y-68390619D01*
X108640666Y-68390619D02*
X108735904Y-68438238D01*
X108735904Y-68438238D02*
X108783523Y-68485857D01*
X108783523Y-68485857D02*
X108831142Y-68581095D01*
X108831142Y-68581095D02*
X108831142Y-68723952D01*
X108831142Y-68723952D02*
X108783523Y-68819190D01*
X108783523Y-68819190D02*
X108735904Y-68866809D01*
X108735904Y-68866809D02*
X108640666Y-68914428D01*
X108640666Y-68914428D02*
X108259714Y-68914428D01*
X109783523Y-69390619D02*
X109212095Y-69390619D01*
X109497809Y-69390619D02*
X109497809Y-68390619D01*
X109497809Y-68390619D02*
X109402571Y-68533476D01*
X109402571Y-68533476D02*
X109307333Y-68628714D01*
X109307333Y-68628714D02*
X109212095Y-68676333D01*
X110164476Y-68485857D02*
X110212095Y-68438238D01*
X110212095Y-68438238D02*
X110307333Y-68390619D01*
X110307333Y-68390619D02*
X110545428Y-68390619D01*
X110545428Y-68390619D02*
X110640666Y-68438238D01*
X110640666Y-68438238D02*
X110688285Y-68485857D01*
X110688285Y-68485857D02*
X110735904Y-68581095D01*
X110735904Y-68581095D02*
X110735904Y-68676333D01*
X110735904Y-68676333D02*
X110688285Y-68819190D01*
X110688285Y-68819190D02*
X110116857Y-69390619D01*
X110116857Y-69390619D02*
X110735904Y-69390619D01*
%TO.C,R3*%
X109307333Y-61516619D02*
X108974000Y-61040428D01*
X108735905Y-61516619D02*
X108735905Y-60516619D01*
X108735905Y-60516619D02*
X109116857Y-60516619D01*
X109116857Y-60516619D02*
X109212095Y-60564238D01*
X109212095Y-60564238D02*
X109259714Y-60611857D01*
X109259714Y-60611857D02*
X109307333Y-60707095D01*
X109307333Y-60707095D02*
X109307333Y-60849952D01*
X109307333Y-60849952D02*
X109259714Y-60945190D01*
X109259714Y-60945190D02*
X109212095Y-60992809D01*
X109212095Y-60992809D02*
X109116857Y-61040428D01*
X109116857Y-61040428D02*
X108735905Y-61040428D01*
X109640667Y-60516619D02*
X110259714Y-60516619D01*
X110259714Y-60516619D02*
X109926381Y-60897571D01*
X109926381Y-60897571D02*
X110069238Y-60897571D01*
X110069238Y-60897571D02*
X110164476Y-60945190D01*
X110164476Y-60945190D02*
X110212095Y-60992809D01*
X110212095Y-60992809D02*
X110259714Y-61088047D01*
X110259714Y-61088047D02*
X110259714Y-61326142D01*
X110259714Y-61326142D02*
X110212095Y-61421380D01*
X110212095Y-61421380D02*
X110164476Y-61469000D01*
X110164476Y-61469000D02*
X110069238Y-61516619D01*
X110069238Y-61516619D02*
X109783524Y-61516619D01*
X109783524Y-61516619D02*
X109688286Y-61469000D01*
X109688286Y-61469000D02*
X109640667Y-61421380D01*
%TO.C,R11*%
X108831142Y-67585619D02*
X108497809Y-67109428D01*
X108259714Y-67585619D02*
X108259714Y-66585619D01*
X108259714Y-66585619D02*
X108640666Y-66585619D01*
X108640666Y-66585619D02*
X108735904Y-66633238D01*
X108735904Y-66633238D02*
X108783523Y-66680857D01*
X108783523Y-66680857D02*
X108831142Y-66776095D01*
X108831142Y-66776095D02*
X108831142Y-66918952D01*
X108831142Y-66918952D02*
X108783523Y-67014190D01*
X108783523Y-67014190D02*
X108735904Y-67061809D01*
X108735904Y-67061809D02*
X108640666Y-67109428D01*
X108640666Y-67109428D02*
X108259714Y-67109428D01*
X109783523Y-67585619D02*
X109212095Y-67585619D01*
X109497809Y-67585619D02*
X109497809Y-66585619D01*
X109497809Y-66585619D02*
X109402571Y-66728476D01*
X109402571Y-66728476D02*
X109307333Y-66823714D01*
X109307333Y-66823714D02*
X109212095Y-66871333D01*
X110735904Y-67585619D02*
X110164476Y-67585619D01*
X110450190Y-67585619D02*
X110450190Y-66585619D01*
X110450190Y-66585619D02*
X110354952Y-66728476D01*
X110354952Y-66728476D02*
X110259714Y-66823714D01*
X110259714Y-66823714D02*
X110164476Y-66871333D01*
%TO.C,R7*%
X114641333Y-60373619D02*
X114308000Y-59897428D01*
X114069905Y-60373619D02*
X114069905Y-59373619D01*
X114069905Y-59373619D02*
X114450857Y-59373619D01*
X114450857Y-59373619D02*
X114546095Y-59421238D01*
X114546095Y-59421238D02*
X114593714Y-59468857D01*
X114593714Y-59468857D02*
X114641333Y-59564095D01*
X114641333Y-59564095D02*
X114641333Y-59706952D01*
X114641333Y-59706952D02*
X114593714Y-59802190D01*
X114593714Y-59802190D02*
X114546095Y-59849809D01*
X114546095Y-59849809D02*
X114450857Y-59897428D01*
X114450857Y-59897428D02*
X114069905Y-59897428D01*
X114974667Y-59373619D02*
X115641333Y-59373619D01*
X115641333Y-59373619D02*
X115212762Y-60373619D01*
%TO.C,R1*%
X109307333Y-59865619D02*
X108974000Y-59389428D01*
X108735905Y-59865619D02*
X108735905Y-58865619D01*
X108735905Y-58865619D02*
X109116857Y-58865619D01*
X109116857Y-58865619D02*
X109212095Y-58913238D01*
X109212095Y-58913238D02*
X109259714Y-58960857D01*
X109259714Y-58960857D02*
X109307333Y-59056095D01*
X109307333Y-59056095D02*
X109307333Y-59198952D01*
X109307333Y-59198952D02*
X109259714Y-59294190D01*
X109259714Y-59294190D02*
X109212095Y-59341809D01*
X109212095Y-59341809D02*
X109116857Y-59389428D01*
X109116857Y-59389428D02*
X108735905Y-59389428D01*
X110259714Y-59865619D02*
X109688286Y-59865619D01*
X109974000Y-59865619D02*
X109974000Y-58865619D01*
X109974000Y-58865619D02*
X109878762Y-59008476D01*
X109878762Y-59008476D02*
X109783524Y-59103714D01*
X109783524Y-59103714D02*
X109688286Y-59151333D01*
%TO.C,JIN1*%
X21036762Y-107538619D02*
X21036762Y-108252904D01*
X21036762Y-108252904D02*
X20989143Y-108395761D01*
X20989143Y-108395761D02*
X20893905Y-108491000D01*
X20893905Y-108491000D02*
X20751048Y-108538619D01*
X20751048Y-108538619D02*
X20655810Y-108538619D01*
X21512953Y-108538619D02*
X21512953Y-107538619D01*
X21989143Y-108538619D02*
X21989143Y-107538619D01*
X21989143Y-107538619D02*
X22560571Y-108538619D01*
X22560571Y-108538619D02*
X22560571Y-107538619D01*
X23560571Y-108538619D02*
X22989143Y-108538619D01*
X23274857Y-108538619D02*
X23274857Y-107538619D01*
X23274857Y-107538619D02*
X23179619Y-107681476D01*
X23179619Y-107681476D02*
X23084381Y-107776714D01*
X23084381Y-107776714D02*
X22989143Y-107824333D01*
%TO.C,Q1*%
X-33745642Y-141088238D02*
X-33793261Y-141183476D01*
X-33793261Y-141183476D02*
X-33888500Y-141278714D01*
X-33888500Y-141278714D02*
X-34031357Y-141421571D01*
X-34031357Y-141421571D02*
X-34078976Y-141516809D01*
X-34078976Y-141516809D02*
X-34078976Y-141612047D01*
X-33840880Y-141564428D02*
X-33888500Y-141659666D01*
X-33888500Y-141659666D02*
X-33983738Y-141754904D01*
X-33983738Y-141754904D02*
X-34174214Y-141802523D01*
X-34174214Y-141802523D02*
X-34507547Y-141802523D01*
X-34507547Y-141802523D02*
X-34698023Y-141754904D01*
X-34698023Y-141754904D02*
X-34793261Y-141659666D01*
X-34793261Y-141659666D02*
X-34840880Y-141564428D01*
X-34840880Y-141564428D02*
X-34840880Y-141373952D01*
X-34840880Y-141373952D02*
X-34793261Y-141278714D01*
X-34793261Y-141278714D02*
X-34698023Y-141183476D01*
X-34698023Y-141183476D02*
X-34507547Y-141135857D01*
X-34507547Y-141135857D02*
X-34174214Y-141135857D01*
X-34174214Y-141135857D02*
X-33983738Y-141183476D01*
X-33983738Y-141183476D02*
X-33888500Y-141278714D01*
X-33888500Y-141278714D02*
X-33840880Y-141373952D01*
X-33840880Y-141373952D02*
X-33840880Y-141564428D01*
X-33840880Y-140183476D02*
X-33840880Y-140754904D01*
X-33840880Y-140469190D02*
X-34840880Y-140469190D01*
X-34840880Y-140469190D02*
X-34698023Y-140564428D01*
X-34698023Y-140564428D02*
X-34602785Y-140659666D01*
X-34602785Y-140659666D02*
X-34555166Y-140754904D01*
%TO.C,R8*%
X114641333Y-58722619D02*
X114308000Y-58246428D01*
X114069905Y-58722619D02*
X114069905Y-57722619D01*
X114069905Y-57722619D02*
X114450857Y-57722619D01*
X114450857Y-57722619D02*
X114546095Y-57770238D01*
X114546095Y-57770238D02*
X114593714Y-57817857D01*
X114593714Y-57817857D02*
X114641333Y-57913095D01*
X114641333Y-57913095D02*
X114641333Y-58055952D01*
X114641333Y-58055952D02*
X114593714Y-58151190D01*
X114593714Y-58151190D02*
X114546095Y-58198809D01*
X114546095Y-58198809D02*
X114450857Y-58246428D01*
X114450857Y-58246428D02*
X114069905Y-58246428D01*
X115212762Y-58151190D02*
X115117524Y-58103571D01*
X115117524Y-58103571D02*
X115069905Y-58055952D01*
X115069905Y-58055952D02*
X115022286Y-57960714D01*
X115022286Y-57960714D02*
X115022286Y-57913095D01*
X115022286Y-57913095D02*
X115069905Y-57817857D01*
X115069905Y-57817857D02*
X115117524Y-57770238D01*
X115117524Y-57770238D02*
X115212762Y-57722619D01*
X115212762Y-57722619D02*
X115403238Y-57722619D01*
X115403238Y-57722619D02*
X115498476Y-57770238D01*
X115498476Y-57770238D02*
X115546095Y-57817857D01*
X115546095Y-57817857D02*
X115593714Y-57913095D01*
X115593714Y-57913095D02*
X115593714Y-57960714D01*
X115593714Y-57960714D02*
X115546095Y-58055952D01*
X115546095Y-58055952D02*
X115498476Y-58103571D01*
X115498476Y-58103571D02*
X115403238Y-58151190D01*
X115403238Y-58151190D02*
X115212762Y-58151190D01*
X115212762Y-58151190D02*
X115117524Y-58198809D01*
X115117524Y-58198809D02*
X115069905Y-58246428D01*
X115069905Y-58246428D02*
X115022286Y-58341666D01*
X115022286Y-58341666D02*
X115022286Y-58532142D01*
X115022286Y-58532142D02*
X115069905Y-58627380D01*
X115069905Y-58627380D02*
X115117524Y-58675000D01*
X115117524Y-58675000D02*
X115212762Y-58722619D01*
X115212762Y-58722619D02*
X115403238Y-58722619D01*
X115403238Y-58722619D02*
X115498476Y-58675000D01*
X115498476Y-58675000D02*
X115546095Y-58627380D01*
X115546095Y-58627380D02*
X115593714Y-58532142D01*
X115593714Y-58532142D02*
X115593714Y-58341666D01*
X115593714Y-58341666D02*
X115546095Y-58246428D01*
X115546095Y-58246428D02*
X115498476Y-58198809D01*
X115498476Y-58198809D02*
X115403238Y-58151190D01*
%TO.C,J1*%
X34474666Y-31482619D02*
X34474666Y-32196904D01*
X34474666Y-32196904D02*
X34427047Y-32339761D01*
X34427047Y-32339761D02*
X34331809Y-32435000D01*
X34331809Y-32435000D02*
X34188952Y-32482619D01*
X34188952Y-32482619D02*
X34093714Y-32482619D01*
X35474666Y-32482619D02*
X34903238Y-32482619D01*
X35188952Y-32482619D02*
X35188952Y-31482619D01*
X35188952Y-31482619D02*
X35093714Y-31625476D01*
X35093714Y-31625476D02*
X34998476Y-31720714D01*
X34998476Y-31720714D02*
X34903238Y-31768333D01*
%TO.C,R6*%
X43064619Y-121274666D02*
X42588428Y-121607999D01*
X43064619Y-121846094D02*
X42064619Y-121846094D01*
X42064619Y-121846094D02*
X42064619Y-121465142D01*
X42064619Y-121465142D02*
X42112238Y-121369904D01*
X42112238Y-121369904D02*
X42159857Y-121322285D01*
X42159857Y-121322285D02*
X42255095Y-121274666D01*
X42255095Y-121274666D02*
X42397952Y-121274666D01*
X42397952Y-121274666D02*
X42493190Y-121322285D01*
X42493190Y-121322285D02*
X42540809Y-121369904D01*
X42540809Y-121369904D02*
X42588428Y-121465142D01*
X42588428Y-121465142D02*
X42588428Y-121846094D01*
X42064619Y-120417523D02*
X42064619Y-120607999D01*
X42064619Y-120607999D02*
X42112238Y-120703237D01*
X42112238Y-120703237D02*
X42159857Y-120750856D01*
X42159857Y-120750856D02*
X42302714Y-120846094D01*
X42302714Y-120846094D02*
X42493190Y-120893713D01*
X42493190Y-120893713D02*
X42874142Y-120893713D01*
X42874142Y-120893713D02*
X42969380Y-120846094D01*
X42969380Y-120846094D02*
X43017000Y-120798475D01*
X43017000Y-120798475D02*
X43064619Y-120703237D01*
X43064619Y-120703237D02*
X43064619Y-120512761D01*
X43064619Y-120512761D02*
X43017000Y-120417523D01*
X43017000Y-120417523D02*
X42969380Y-120369904D01*
X42969380Y-120369904D02*
X42874142Y-120322285D01*
X42874142Y-120322285D02*
X42636047Y-120322285D01*
X42636047Y-120322285D02*
X42540809Y-120369904D01*
X42540809Y-120369904D02*
X42493190Y-120417523D01*
X42493190Y-120417523D02*
X42445571Y-120512761D01*
X42445571Y-120512761D02*
X42445571Y-120703237D01*
X42445571Y-120703237D02*
X42493190Y-120798475D01*
X42493190Y-120798475D02*
X42540809Y-120846094D01*
X42540809Y-120846094D02*
X42636047Y-120893713D01*
%TO.C,Q2*%
X36161761Y-72352857D02*
X36066523Y-72305238D01*
X36066523Y-72305238D02*
X35971285Y-72210000D01*
X35971285Y-72210000D02*
X35828428Y-72067142D01*
X35828428Y-72067142D02*
X35733190Y-72019523D01*
X35733190Y-72019523D02*
X35637952Y-72019523D01*
X35685571Y-72257619D02*
X35590333Y-72210000D01*
X35590333Y-72210000D02*
X35495095Y-72114761D01*
X35495095Y-72114761D02*
X35447476Y-71924285D01*
X35447476Y-71924285D02*
X35447476Y-71590952D01*
X35447476Y-71590952D02*
X35495095Y-71400476D01*
X35495095Y-71400476D02*
X35590333Y-71305238D01*
X35590333Y-71305238D02*
X35685571Y-71257619D01*
X35685571Y-71257619D02*
X35876047Y-71257619D01*
X35876047Y-71257619D02*
X35971285Y-71305238D01*
X35971285Y-71305238D02*
X36066523Y-71400476D01*
X36066523Y-71400476D02*
X36114142Y-71590952D01*
X36114142Y-71590952D02*
X36114142Y-71924285D01*
X36114142Y-71924285D02*
X36066523Y-72114761D01*
X36066523Y-72114761D02*
X35971285Y-72210000D01*
X35971285Y-72210000D02*
X35876047Y-72257619D01*
X35876047Y-72257619D02*
X35685571Y-72257619D01*
X36495095Y-71352857D02*
X36542714Y-71305238D01*
X36542714Y-71305238D02*
X36637952Y-71257619D01*
X36637952Y-71257619D02*
X36876047Y-71257619D01*
X36876047Y-71257619D02*
X36971285Y-71305238D01*
X36971285Y-71305238D02*
X37018904Y-71352857D01*
X37018904Y-71352857D02*
X37066523Y-71448095D01*
X37066523Y-71448095D02*
X37066523Y-71543333D01*
X37066523Y-71543333D02*
X37018904Y-71686190D01*
X37018904Y-71686190D02*
X36447476Y-72257619D01*
X36447476Y-72257619D02*
X37066523Y-72257619D01*
%TO.C,U1*%
X35495095Y-82195619D02*
X35495095Y-83005142D01*
X35495095Y-83005142D02*
X35542714Y-83100380D01*
X35542714Y-83100380D02*
X35590333Y-83148000D01*
X35590333Y-83148000D02*
X35685571Y-83195619D01*
X35685571Y-83195619D02*
X35876047Y-83195619D01*
X35876047Y-83195619D02*
X35971285Y-83148000D01*
X35971285Y-83148000D02*
X36018904Y-83100380D01*
X36018904Y-83100380D02*
X36066523Y-83005142D01*
X36066523Y-83005142D02*
X36066523Y-82195619D01*
X37066523Y-83195619D02*
X36495095Y-83195619D01*
X36780809Y-83195619D02*
X36780809Y-82195619D01*
X36780809Y-82195619D02*
X36685571Y-82338476D01*
X36685571Y-82338476D02*
X36590333Y-82433714D01*
X36590333Y-82433714D02*
X36495095Y-82481333D01*
%TO.C,R10*%
X108831142Y-66315619D02*
X108497809Y-65839428D01*
X108259714Y-66315619D02*
X108259714Y-65315619D01*
X108259714Y-65315619D02*
X108640666Y-65315619D01*
X108640666Y-65315619D02*
X108735904Y-65363238D01*
X108735904Y-65363238D02*
X108783523Y-65410857D01*
X108783523Y-65410857D02*
X108831142Y-65506095D01*
X108831142Y-65506095D02*
X108831142Y-65648952D01*
X108831142Y-65648952D02*
X108783523Y-65744190D01*
X108783523Y-65744190D02*
X108735904Y-65791809D01*
X108735904Y-65791809D02*
X108640666Y-65839428D01*
X108640666Y-65839428D02*
X108259714Y-65839428D01*
X109783523Y-66315619D02*
X109212095Y-66315619D01*
X109497809Y-66315619D02*
X109497809Y-65315619D01*
X109497809Y-65315619D02*
X109402571Y-65458476D01*
X109402571Y-65458476D02*
X109307333Y-65553714D01*
X109307333Y-65553714D02*
X109212095Y-65601333D01*
X110402571Y-65315619D02*
X110497809Y-65315619D01*
X110497809Y-65315619D02*
X110593047Y-65363238D01*
X110593047Y-65363238D02*
X110640666Y-65410857D01*
X110640666Y-65410857D02*
X110688285Y-65506095D01*
X110688285Y-65506095D02*
X110735904Y-65696571D01*
X110735904Y-65696571D02*
X110735904Y-65934666D01*
X110735904Y-65934666D02*
X110688285Y-66125142D01*
X110688285Y-66125142D02*
X110640666Y-66220380D01*
X110640666Y-66220380D02*
X110593047Y-66268000D01*
X110593047Y-66268000D02*
X110497809Y-66315619D01*
X110497809Y-66315619D02*
X110402571Y-66315619D01*
X110402571Y-66315619D02*
X110307333Y-66268000D01*
X110307333Y-66268000D02*
X110259714Y-66220380D01*
X110259714Y-66220380D02*
X110212095Y-66125142D01*
X110212095Y-66125142D02*
X110164476Y-65934666D01*
X110164476Y-65934666D02*
X110164476Y-65696571D01*
X110164476Y-65696571D02*
X110212095Y-65506095D01*
X110212095Y-65506095D02*
X110259714Y-65410857D01*
X110259714Y-65410857D02*
X110307333Y-65363238D01*
X110307333Y-65363238D02*
X110402571Y-65315619D01*
%TO.C,R2*%
X109217331Y-58214619D02*
X108883998Y-57738428D01*
X108645903Y-58214619D02*
X108645903Y-57214619D01*
X108645903Y-57214619D02*
X109026855Y-57214619D01*
X109026855Y-57214619D02*
X109122093Y-57262238D01*
X109122093Y-57262238D02*
X109169712Y-57309857D01*
X109169712Y-57309857D02*
X109217331Y-57405095D01*
X109217331Y-57405095D02*
X109217331Y-57547952D01*
X109217331Y-57547952D02*
X109169712Y-57643190D01*
X109169712Y-57643190D02*
X109122093Y-57690809D01*
X109122093Y-57690809D02*
X109026855Y-57738428D01*
X109026855Y-57738428D02*
X108645903Y-57738428D01*
X109598284Y-57309857D02*
X109645903Y-57262238D01*
X109645903Y-57262238D02*
X109741141Y-57214619D01*
X109741141Y-57214619D02*
X109979236Y-57214619D01*
X109979236Y-57214619D02*
X110074474Y-57262238D01*
X110074474Y-57262238D02*
X110122093Y-57309857D01*
X110122093Y-57309857D02*
X110169712Y-57405095D01*
X110169712Y-57405095D02*
X110169712Y-57500333D01*
X110169712Y-57500333D02*
X110122093Y-57643190D01*
X110122093Y-57643190D02*
X109550665Y-58214619D01*
X109550665Y-58214619D02*
X110169712Y-58214619D01*
%TO.C,R13*%
X114509144Y-62405619D02*
X114175811Y-61929428D01*
X113937716Y-62405619D02*
X113937716Y-61405619D01*
X113937716Y-61405619D02*
X114318668Y-61405619D01*
X114318668Y-61405619D02*
X114413906Y-61453238D01*
X114413906Y-61453238D02*
X114461525Y-61500857D01*
X114461525Y-61500857D02*
X114509144Y-61596095D01*
X114509144Y-61596095D02*
X114509144Y-61738952D01*
X114509144Y-61738952D02*
X114461525Y-61834190D01*
X114461525Y-61834190D02*
X114413906Y-61881809D01*
X114413906Y-61881809D02*
X114318668Y-61929428D01*
X114318668Y-61929428D02*
X113937716Y-61929428D01*
X115461525Y-62405619D02*
X114890097Y-62405619D01*
X115175811Y-62405619D02*
X115175811Y-61405619D01*
X115175811Y-61405619D02*
X115080573Y-61548476D01*
X115080573Y-61548476D02*
X114985335Y-61643714D01*
X114985335Y-61643714D02*
X114890097Y-61691333D01*
X115794859Y-61405619D02*
X116413906Y-61405619D01*
X116413906Y-61405619D02*
X116080573Y-61786571D01*
X116080573Y-61786571D02*
X116223430Y-61786571D01*
X116223430Y-61786571D02*
X116318668Y-61834190D01*
X116318668Y-61834190D02*
X116366287Y-61881809D01*
X116366287Y-61881809D02*
X116413906Y-61977047D01*
X116413906Y-61977047D02*
X116413906Y-62215142D01*
X116413906Y-62215142D02*
X116366287Y-62310380D01*
X116366287Y-62310380D02*
X116318668Y-62358000D01*
X116318668Y-62358000D02*
X116223430Y-62405619D01*
X116223430Y-62405619D02*
X115937716Y-62405619D01*
X115937716Y-62405619D02*
X115842478Y-62358000D01*
X115842478Y-62358000D02*
X115794859Y-62310380D01*
%TO.C,R9*%
X104405833Y-46862619D02*
X104072500Y-46386428D01*
X103834405Y-46862619D02*
X103834405Y-45862619D01*
X103834405Y-45862619D02*
X104215357Y-45862619D01*
X104215357Y-45862619D02*
X104310595Y-45910238D01*
X104310595Y-45910238D02*
X104358214Y-45957857D01*
X104358214Y-45957857D02*
X104405833Y-46053095D01*
X104405833Y-46053095D02*
X104405833Y-46195952D01*
X104405833Y-46195952D02*
X104358214Y-46291190D01*
X104358214Y-46291190D02*
X104310595Y-46338809D01*
X104310595Y-46338809D02*
X104215357Y-46386428D01*
X104215357Y-46386428D02*
X103834405Y-46386428D01*
X104882024Y-46862619D02*
X105072500Y-46862619D01*
X105072500Y-46862619D02*
X105167738Y-46815000D01*
X105167738Y-46815000D02*
X105215357Y-46767380D01*
X105215357Y-46767380D02*
X105310595Y-46624523D01*
X105310595Y-46624523D02*
X105358214Y-46434047D01*
X105358214Y-46434047D02*
X105358214Y-46053095D01*
X105358214Y-46053095D02*
X105310595Y-45957857D01*
X105310595Y-45957857D02*
X105262976Y-45910238D01*
X105262976Y-45910238D02*
X105167738Y-45862619D01*
X105167738Y-45862619D02*
X104977262Y-45862619D01*
X104977262Y-45862619D02*
X104882024Y-45910238D01*
X104882024Y-45910238D02*
X104834405Y-45957857D01*
X104834405Y-45957857D02*
X104786786Y-46053095D01*
X104786786Y-46053095D02*
X104786786Y-46291190D01*
X104786786Y-46291190D02*
X104834405Y-46386428D01*
X104834405Y-46386428D02*
X104882024Y-46434047D01*
X104882024Y-46434047D02*
X104977262Y-46481666D01*
X104977262Y-46481666D02*
X105167738Y-46481666D01*
X105167738Y-46481666D02*
X105262976Y-46434047D01*
X105262976Y-46434047D02*
X105310595Y-46386428D01*
X105310595Y-46386428D02*
X105358214Y-46291190D01*
D11*
%TO.C,R14*%
X114406744Y-57516500D02*
X114881260Y-57516500D01*
X114406744Y-58561500D02*
X114881260Y-58561500D01*
%TO.C,R4*%
X100325242Y-47307500D02*
X100799758Y-47307500D01*
X100325242Y-48352500D02*
X100799758Y-48352500D01*
%TO.C,JCV1*%
X30973171Y-124643791D02*
X30973171Y-135143791D01*
X34243171Y-121493791D02*
X34243171Y-122293791D01*
X34243171Y-121493791D02*
X35103171Y-121493791D01*
X34673171Y-135143791D02*
X30973171Y-135143791D01*
X34753171Y-124643791D02*
X30973171Y-124643791D01*
X39973171Y-124643791D02*
X36193171Y-124643791D01*
X39973171Y-124643791D02*
X39973171Y-135143791D01*
X39973171Y-135143791D02*
X36273171Y-135143791D01*
X37273171Y-129143791D02*
G75*
G03*
X37273171Y-129143791I-1800000J0D01*
G01*
%TO.C,JOUT1*%
X40204000Y-108722000D02*
X40204000Y-119222000D01*
X43474000Y-105572000D02*
X43474000Y-106372000D01*
X43474000Y-105572000D02*
X44334000Y-105572000D01*
X43904000Y-119222000D02*
X40204000Y-119222000D01*
X43984000Y-108722000D02*
X40204000Y-108722000D01*
X49204000Y-108722000D02*
X45424000Y-108722000D01*
X49204000Y-108722000D02*
X49204000Y-119222000D01*
X49204000Y-119222000D02*
X45504000Y-119222000D01*
X46504000Y-113222000D02*
G75*
G03*
X46504000Y-113222000I-1800000J0D01*
G01*
%TO.C,U2*%
X36257000Y-90023000D02*
X32807000Y-90023000D01*
X36257000Y-90023000D02*
X38207000Y-90023000D01*
X36257000Y-95143000D02*
X34307000Y-95143000D01*
X36257000Y-95143000D02*
X38207000Y-95143000D01*
%TO.C,R5*%
X100325242Y-49817500D02*
X100799758Y-49817500D01*
X100325242Y-50862500D02*
X100799758Y-50862500D01*
%TO.C,R12*%
X109236742Y-69835500D02*
X109711258Y-69835500D01*
X109236742Y-70880500D02*
X109711258Y-70880500D01*
%TO.C,R3*%
X109236742Y-61961500D02*
X109711258Y-61961500D01*
X109236742Y-63006500D02*
X109711258Y-63006500D01*
%TO.C,R11*%
X109236742Y-68030500D02*
X109711258Y-68030500D01*
X109236742Y-69075500D02*
X109711258Y-69075500D01*
%TO.C,R7*%
X114570742Y-60818500D02*
X115045258Y-60818500D01*
X114570742Y-61863500D02*
X115045258Y-61863500D01*
%TO.C,R1*%
X109236742Y-60310500D02*
X109711258Y-60310500D01*
X109236742Y-61355500D02*
X109711258Y-61355500D01*
%TO.C,JIN1*%
X21662000Y-108976000D02*
X21662000Y-119476000D01*
X24932000Y-105826000D02*
X24932000Y-106626000D01*
X24932000Y-105826000D02*
X25792000Y-105826000D01*
X25362000Y-119476000D02*
X21662000Y-119476000D01*
X25442000Y-108976000D02*
X21662000Y-108976000D01*
X30662000Y-108976000D02*
X26882000Y-108976000D01*
X30662000Y-108976000D02*
X30662000Y-119476000D01*
X30662000Y-119476000D02*
X26962000Y-119476000D01*
X27962000Y-113476000D02*
G75*
G03*
X27962000Y-113476000I-1800000J0D01*
G01*
%TO.C,Q1*%
X36257000Y-68185000D02*
X34457000Y-68185000D01*
X36257000Y-68185000D02*
X37057000Y-68185000D01*
X36257000Y-71305000D02*
X35457000Y-71305000D01*
X36257000Y-71305000D02*
X37057000Y-71305000D01*
%TO.C,R8*%
X114570742Y-59167500D02*
X115045258Y-59167500D01*
X114570742Y-60212500D02*
X115045258Y-60212500D01*
%TO.C,J1*%
X30223000Y-32910000D02*
X39393000Y-32910000D01*
X30223000Y-37090000D02*
X28723000Y-37090000D01*
X30223000Y-37090000D02*
X30223000Y-32910000D01*
X30223000Y-56890000D02*
X30223000Y-61070000D01*
X30223000Y-61070000D02*
X39393000Y-61070000D01*
X39393000Y-32910000D02*
X39393000Y-37090000D01*
X39393000Y-61070000D02*
X39393000Y-56890000D01*
%TO.C,R6*%
X104335242Y-39777500D02*
X104809758Y-39777500D01*
X104335242Y-40822500D02*
X104809758Y-40822500D01*
%TO.C,Q2*%
X36257000Y-72635000D02*
X34457000Y-72635000D01*
X36257000Y-72635000D02*
X37057000Y-72635000D01*
X36257000Y-75755000D02*
X35457000Y-75755000D01*
X36257000Y-75755000D02*
X37057000Y-75755000D01*
%TO.C,U1*%
X36257000Y-83573000D02*
X32807000Y-83573000D01*
X36257000Y-83573000D02*
X38207000Y-83573000D01*
X36257000Y-88693000D02*
X34307000Y-88693000D01*
X36257000Y-88693000D02*
X38207000Y-88693000D01*
%TO.C,R10*%
X109236742Y-66760500D02*
X109711258Y-66760500D01*
X109236742Y-67805500D02*
X109711258Y-67805500D01*
%TO.C,R2*%
X109146740Y-58659500D02*
X109621256Y-58659500D01*
X109146740Y-59704500D02*
X109621256Y-59704500D01*
%TO.C,R13*%
X114914744Y-62850500D02*
X115389260Y-62850500D01*
X114914744Y-63895500D02*
X115389260Y-63895500D01*
%TO.C,R9*%
X104335242Y-47307500D02*
X104809758Y-47307500D01*
X104335242Y-48352500D02*
X104809758Y-48352500D01*
%TD*%
%LPC*%
D12*
%TO.C,R14*%
X113819002Y-58039000D03*
X115469002Y-58039000D03*
%TD*%
%TO.C,R4*%
X99737500Y-47830000D03*
X101387500Y-47830000D03*
%TD*%
D13*
%TO.C,JCV1*%
X35473171Y-122663791D03*
D14*
X35473171Y-134063791D03*
X35473171Y-125763791D03*
%TD*%
D13*
%TO.C,JOUT1*%
X44704000Y-106742000D03*
D14*
X44704000Y-118142000D03*
X44704000Y-109842000D03*
%TD*%
D15*
%TO.C,U2*%
X33782000Y-90678000D03*
X33782000Y-91948000D03*
X33782000Y-93218000D03*
X33782000Y-94488000D03*
X38732000Y-94488000D03*
X38732000Y-93218000D03*
X38732000Y-91948000D03*
X38732000Y-90678000D03*
%TD*%
D12*
%TO.C,R5*%
X99737500Y-50340000D03*
X101387500Y-50340000D03*
%TD*%
%TO.C,R12*%
X108649000Y-70358000D03*
X110299000Y-70358000D03*
%TD*%
%TO.C,R3*%
X108649000Y-62484000D03*
X110299000Y-62484000D03*
%TD*%
%TO.C,R11*%
X108649000Y-68553000D03*
X110299000Y-68553000D03*
%TD*%
%TO.C,R7*%
X113983000Y-61341000D03*
X115633000Y-61341000D03*
%TD*%
%TO.C,R1*%
X108649000Y-60833000D03*
X110299000Y-60833000D03*
%TD*%
D13*
%TO.C,JIN1*%
X26162000Y-106996000D03*
D14*
X26162000Y-118396000D03*
X26162000Y-110096000D03*
%TD*%
D16*
%TO.C,Q1*%
X35119500Y-68795000D03*
X35119500Y-70695000D03*
X37394500Y-69745000D03*
%TD*%
D12*
%TO.C,R8*%
X113983000Y-59690000D03*
X115633000Y-59690000D03*
%TD*%
D17*
%TO.C,J1*%
X31008000Y-38100000D03*
X38608000Y-38100000D03*
X31008000Y-40640000D03*
X38608000Y-40640000D03*
X31008000Y-43180000D03*
X38608000Y-43180000D03*
X31008000Y-45720000D03*
X38608000Y-45720000D03*
X31008000Y-48260000D03*
X38608000Y-48260000D03*
X31008000Y-50800000D03*
X38608000Y-50800000D03*
X31008000Y-53340000D03*
X38608000Y-53340000D03*
X31008000Y-55880000D03*
X38608000Y-55880000D03*
%TD*%
D12*
%TO.C,R6*%
X103747500Y-40300000D03*
X105397500Y-40300000D03*
%TD*%
D16*
%TO.C,Q2*%
X35119500Y-73245000D03*
X35119500Y-75145000D03*
X37394500Y-74195000D03*
%TD*%
D15*
%TO.C,U1*%
X33782000Y-84228000D03*
X33782000Y-85498000D03*
X33782000Y-86768000D03*
X33782000Y-88038000D03*
X38732000Y-88038000D03*
X38732000Y-86768000D03*
X38732000Y-85498000D03*
X38732000Y-84228000D03*
%TD*%
D12*
%TO.C,R10*%
X108649000Y-67283000D03*
X110299000Y-67283000D03*
%TD*%
%TO.C,R2*%
X108558998Y-59182000D03*
X110208998Y-59182000D03*
%TD*%
%TO.C,R13*%
X114327002Y-63373000D03*
X115977002Y-63373000D03*
%TD*%
%TO.C,R9*%
X103747500Y-47830000D03*
X105397500Y-47830000D03*
%TD*%
M02*
