%TF.GenerationSoftware,KiCad,Pcbnew,7.0.1*%
%TF.CreationDate,2023-04-03T10:55:15-07:00*%
%TF.ProjectId,transistor_vca,7472616e-7369-4737-946f-725f7663612e,rev?*%
%TF.SameCoordinates,Original*%
%TF.FileFunction,Other,Comment*%
%FSLAX46Y46*%
G04 Gerber Fmt 4.6, Leading zero omitted, Abs format (unit mm)*
G04 Created by KiCad (PCBNEW 7.0.1) date 2023-04-03 10:55:15*
%MOMM*%
%LPD*%
G01*
G04 APERTURE LIST*
%ADD10C,0.051000*%
G04 APERTURE END LIST*
D10*
%TO.C,JCV1*%
X34235075Y-129328838D02*
X34235075Y-128928838D01*
X34463646Y-129328838D02*
X34292217Y-129100267D01*
X34463646Y-128928838D02*
X34235075Y-129157410D01*
X34635075Y-129119314D02*
X34768408Y-129119314D01*
X34825551Y-129328838D02*
X34635075Y-129328838D01*
X34635075Y-129328838D02*
X34635075Y-128928838D01*
X34635075Y-128928838D02*
X34825551Y-128928838D01*
X34996980Y-129119314D02*
X35130313Y-129119314D01*
X35187456Y-129328838D02*
X34996980Y-129328838D01*
X34996980Y-129328838D02*
X34996980Y-128928838D01*
X34996980Y-128928838D02*
X35187456Y-128928838D01*
X35358885Y-129328838D02*
X35358885Y-128928838D01*
X35358885Y-128928838D02*
X35511266Y-128928838D01*
X35511266Y-128928838D02*
X35549361Y-128947886D01*
X35549361Y-128947886D02*
X35568408Y-128966933D01*
X35568408Y-128966933D02*
X35587456Y-129005029D01*
X35587456Y-129005029D02*
X35587456Y-129062171D01*
X35587456Y-129062171D02*
X35568408Y-129100267D01*
X35568408Y-129100267D02*
X35549361Y-129119314D01*
X35549361Y-129119314D02*
X35511266Y-129138362D01*
X35511266Y-129138362D02*
X35358885Y-129138362D01*
X35835075Y-128928838D02*
X35911266Y-128928838D01*
X35911266Y-128928838D02*
X35949361Y-128947886D01*
X35949361Y-128947886D02*
X35987456Y-128985981D01*
X35987456Y-128985981D02*
X36006504Y-129062171D01*
X36006504Y-129062171D02*
X36006504Y-129195505D01*
X36006504Y-129195505D02*
X35987456Y-129271695D01*
X35987456Y-129271695D02*
X35949361Y-129309791D01*
X35949361Y-129309791D02*
X35911266Y-129328838D01*
X35911266Y-129328838D02*
X35835075Y-129328838D01*
X35835075Y-129328838D02*
X35796980Y-129309791D01*
X35796980Y-129309791D02*
X35758885Y-129271695D01*
X35758885Y-129271695D02*
X35739837Y-129195505D01*
X35739837Y-129195505D02*
X35739837Y-129062171D01*
X35739837Y-129062171D02*
X35758885Y-128985981D01*
X35758885Y-128985981D02*
X35796980Y-128947886D01*
X35796980Y-128947886D02*
X35835075Y-128928838D01*
X36177933Y-128928838D02*
X36177933Y-129252648D01*
X36177933Y-129252648D02*
X36196980Y-129290743D01*
X36196980Y-129290743D02*
X36216028Y-129309791D01*
X36216028Y-129309791D02*
X36254123Y-129328838D01*
X36254123Y-129328838D02*
X36330314Y-129328838D01*
X36330314Y-129328838D02*
X36368409Y-129309791D01*
X36368409Y-129309791D02*
X36387456Y-129290743D01*
X36387456Y-129290743D02*
X36406504Y-129252648D01*
X36406504Y-129252648D02*
X36406504Y-128928838D01*
X36539838Y-128928838D02*
X36768409Y-128928838D01*
X36654123Y-129328838D02*
X36654123Y-128928838D01*
%TO.C,JOUT1*%
X43465904Y-113407047D02*
X43465904Y-113007047D01*
X43694475Y-113407047D02*
X43523046Y-113178476D01*
X43694475Y-113007047D02*
X43465904Y-113235619D01*
X43865904Y-113197523D02*
X43999237Y-113197523D01*
X44056380Y-113407047D02*
X43865904Y-113407047D01*
X43865904Y-113407047D02*
X43865904Y-113007047D01*
X43865904Y-113007047D02*
X44056380Y-113007047D01*
X44227809Y-113197523D02*
X44361142Y-113197523D01*
X44418285Y-113407047D02*
X44227809Y-113407047D01*
X44227809Y-113407047D02*
X44227809Y-113007047D01*
X44227809Y-113007047D02*
X44418285Y-113007047D01*
X44589714Y-113407047D02*
X44589714Y-113007047D01*
X44589714Y-113007047D02*
X44742095Y-113007047D01*
X44742095Y-113007047D02*
X44780190Y-113026095D01*
X44780190Y-113026095D02*
X44799237Y-113045142D01*
X44799237Y-113045142D02*
X44818285Y-113083238D01*
X44818285Y-113083238D02*
X44818285Y-113140380D01*
X44818285Y-113140380D02*
X44799237Y-113178476D01*
X44799237Y-113178476D02*
X44780190Y-113197523D01*
X44780190Y-113197523D02*
X44742095Y-113216571D01*
X44742095Y-113216571D02*
X44589714Y-113216571D01*
X45065904Y-113007047D02*
X45142095Y-113007047D01*
X45142095Y-113007047D02*
X45180190Y-113026095D01*
X45180190Y-113026095D02*
X45218285Y-113064190D01*
X45218285Y-113064190D02*
X45237333Y-113140380D01*
X45237333Y-113140380D02*
X45237333Y-113273714D01*
X45237333Y-113273714D02*
X45218285Y-113349904D01*
X45218285Y-113349904D02*
X45180190Y-113388000D01*
X45180190Y-113388000D02*
X45142095Y-113407047D01*
X45142095Y-113407047D02*
X45065904Y-113407047D01*
X45065904Y-113407047D02*
X45027809Y-113388000D01*
X45027809Y-113388000D02*
X44989714Y-113349904D01*
X44989714Y-113349904D02*
X44970666Y-113273714D01*
X44970666Y-113273714D02*
X44970666Y-113140380D01*
X44970666Y-113140380D02*
X44989714Y-113064190D01*
X44989714Y-113064190D02*
X45027809Y-113026095D01*
X45027809Y-113026095D02*
X45065904Y-113007047D01*
X45408762Y-113007047D02*
X45408762Y-113330857D01*
X45408762Y-113330857D02*
X45427809Y-113368952D01*
X45427809Y-113368952D02*
X45446857Y-113388000D01*
X45446857Y-113388000D02*
X45484952Y-113407047D01*
X45484952Y-113407047D02*
X45561143Y-113407047D01*
X45561143Y-113407047D02*
X45599238Y-113388000D01*
X45599238Y-113388000D02*
X45618285Y-113368952D01*
X45618285Y-113368952D02*
X45637333Y-113330857D01*
X45637333Y-113330857D02*
X45637333Y-113007047D01*
X45770667Y-113007047D02*
X45999238Y-113007047D01*
X45884952Y-113407047D02*
X45884952Y-113007047D01*
%TO.C,JIN1*%
X24923904Y-113661047D02*
X24923904Y-113261047D01*
X25152475Y-113661047D02*
X24981046Y-113432476D01*
X25152475Y-113261047D02*
X24923904Y-113489619D01*
X25323904Y-113451523D02*
X25457237Y-113451523D01*
X25514380Y-113661047D02*
X25323904Y-113661047D01*
X25323904Y-113661047D02*
X25323904Y-113261047D01*
X25323904Y-113261047D02*
X25514380Y-113261047D01*
X25685809Y-113451523D02*
X25819142Y-113451523D01*
X25876285Y-113661047D02*
X25685809Y-113661047D01*
X25685809Y-113661047D02*
X25685809Y-113261047D01*
X25685809Y-113261047D02*
X25876285Y-113261047D01*
X26047714Y-113661047D02*
X26047714Y-113261047D01*
X26047714Y-113261047D02*
X26200095Y-113261047D01*
X26200095Y-113261047D02*
X26238190Y-113280095D01*
X26238190Y-113280095D02*
X26257237Y-113299142D01*
X26257237Y-113299142D02*
X26276285Y-113337238D01*
X26276285Y-113337238D02*
X26276285Y-113394380D01*
X26276285Y-113394380D02*
X26257237Y-113432476D01*
X26257237Y-113432476D02*
X26238190Y-113451523D01*
X26238190Y-113451523D02*
X26200095Y-113470571D01*
X26200095Y-113470571D02*
X26047714Y-113470571D01*
X26523904Y-113261047D02*
X26600095Y-113261047D01*
X26600095Y-113261047D02*
X26638190Y-113280095D01*
X26638190Y-113280095D02*
X26676285Y-113318190D01*
X26676285Y-113318190D02*
X26695333Y-113394380D01*
X26695333Y-113394380D02*
X26695333Y-113527714D01*
X26695333Y-113527714D02*
X26676285Y-113603904D01*
X26676285Y-113603904D02*
X26638190Y-113642000D01*
X26638190Y-113642000D02*
X26600095Y-113661047D01*
X26600095Y-113661047D02*
X26523904Y-113661047D01*
X26523904Y-113661047D02*
X26485809Y-113642000D01*
X26485809Y-113642000D02*
X26447714Y-113603904D01*
X26447714Y-113603904D02*
X26428666Y-113527714D01*
X26428666Y-113527714D02*
X26428666Y-113394380D01*
X26428666Y-113394380D02*
X26447714Y-113318190D01*
X26447714Y-113318190D02*
X26485809Y-113280095D01*
X26485809Y-113280095D02*
X26523904Y-113261047D01*
X26866762Y-113261047D02*
X26866762Y-113584857D01*
X26866762Y-113584857D02*
X26885809Y-113622952D01*
X26885809Y-113622952D02*
X26904857Y-113642000D01*
X26904857Y-113642000D02*
X26942952Y-113661047D01*
X26942952Y-113661047D02*
X27019143Y-113661047D01*
X27019143Y-113661047D02*
X27057238Y-113642000D01*
X27057238Y-113642000D02*
X27076285Y-113622952D01*
X27076285Y-113622952D02*
X27095333Y-113584857D01*
X27095333Y-113584857D02*
X27095333Y-113261047D01*
X27228667Y-113261047D02*
X27457238Y-113261047D01*
X27342952Y-113661047D02*
X27342952Y-113261047D01*
%TD*%
M02*
