%TF.GenerationSoftware,KiCad,Pcbnew,7.0.1*%
%TF.CreationDate,2023-04-03T10:55:15-07:00*%
%TF.ProjectId,transistor_vca,7472616e-7369-4737-946f-725f7663612e,rev?*%
%TF.SameCoordinates,Original*%
%TF.FileFunction,Copper,L2,Bot*%
%TF.FilePolarity,Positive*%
%FSLAX46Y46*%
G04 Gerber Fmt 4.6, Leading zero omitted, Abs format (unit mm)*
G04 Created by KiCad (PCBNEW 7.0.1) date 2023-04-03 10:55:15*
%MOMM*%
%LPD*%
G01*
G04 APERTURE LIST*
%TA.AperFunction,ComponentPad*%
%ADD10R,1.930000X1.830000*%
%TD*%
%TA.AperFunction,ComponentPad*%
%ADD11C,2.130000*%
%TD*%
G04 APERTURE END LIST*
D10*
%TO.P,JCV1,S*%
%TO.N,GND*%
X35473171Y-122663791D03*
D11*
%TO.P,JCV1,T*%
%TO.N,Net-(JCV1-PadT)*%
X35473171Y-134063791D03*
%TO.P,JCV1,TN*%
%TO.N,unconnected-(JCV1-PadTN)*%
X35473171Y-125763791D03*
%TD*%
D10*
%TO.P,JOUT1,S*%
%TO.N,GND*%
X44704000Y-106742000D03*
D11*
%TO.P,JOUT1,T*%
%TO.N,Net-(JOUT1-PadT)*%
X44704000Y-118142000D03*
%TO.P,JOUT1,TN*%
%TO.N,unconnected-(JOUT1-PadTN)*%
X44704000Y-109842000D03*
%TD*%
D10*
%TO.P,JIN1,S*%
%TO.N,GND*%
X26162000Y-106996000D03*
D11*
%TO.P,JIN1,T*%
%TO.N,Net-(JIN1-PadT)*%
X26162000Y-118396000D03*
%TO.P,JIN1,TN*%
%TO.N,unconnected-(JIN1-PadTN)*%
X26162000Y-110096000D03*
%TD*%
%TA.AperFunction,Conductor*%
%TO.N,GND*%
G36*
X50417500Y-20017113D02*
G01*
X50462887Y-20062500D01*
X50479500Y-20124500D01*
X50479500Y-148375500D01*
X50462887Y-148437500D01*
X50417500Y-148482887D01*
X50355500Y-148499500D01*
X20124500Y-148499500D01*
X20062500Y-148482887D01*
X20017113Y-148437500D01*
X20000500Y-148375500D01*
X20000500Y-145500000D01*
X25074551Y-145500000D01*
X25094317Y-145751149D01*
X25153126Y-145996110D01*
X25156100Y-146003289D01*
X25249534Y-146228859D01*
X25381164Y-146443659D01*
X25544776Y-146635224D01*
X25736341Y-146798836D01*
X25951141Y-146930466D01*
X26183889Y-147026873D01*
X26428852Y-147085683D01*
X26680000Y-147105449D01*
X26931148Y-147085683D01*
X27176111Y-147026873D01*
X27408859Y-146930466D01*
X27623659Y-146798836D01*
X27815224Y-146635224D01*
X27978836Y-146443659D01*
X28110466Y-146228859D01*
X28206873Y-145996111D01*
X28265683Y-145751148D01*
X28285449Y-145500000D01*
X42194551Y-145500000D01*
X42214317Y-145751149D01*
X42273126Y-145996110D01*
X42276100Y-146003289D01*
X42369534Y-146228859D01*
X42501164Y-146443659D01*
X42664776Y-146635224D01*
X42856341Y-146798836D01*
X43071141Y-146930466D01*
X43303889Y-147026873D01*
X43548852Y-147085683D01*
X43800000Y-147105449D01*
X44051148Y-147085683D01*
X44296111Y-147026873D01*
X44528859Y-146930466D01*
X44743659Y-146798836D01*
X44935224Y-146635224D01*
X45098836Y-146443659D01*
X45230466Y-146228859D01*
X45326873Y-145996111D01*
X45385683Y-145751148D01*
X45405449Y-145500000D01*
X45385683Y-145248852D01*
X45326873Y-145003889D01*
X45230466Y-144771141D01*
X45098836Y-144556341D01*
X44935224Y-144364776D01*
X44743659Y-144201164D01*
X44528859Y-144069534D01*
X44412485Y-144021330D01*
X44296110Y-143973126D01*
X44051149Y-143914317D01*
X43800000Y-143894551D01*
X43548850Y-143914317D01*
X43303889Y-143973126D01*
X43071139Y-144069535D01*
X42856342Y-144201163D01*
X42664776Y-144364776D01*
X42501163Y-144556342D01*
X42369535Y-144771139D01*
X42273126Y-145003889D01*
X42214317Y-145248850D01*
X42194551Y-145500000D01*
X28285449Y-145500000D01*
X28265683Y-145248852D01*
X28206873Y-145003889D01*
X28110466Y-144771141D01*
X27978836Y-144556341D01*
X27815224Y-144364776D01*
X27623659Y-144201164D01*
X27408859Y-144069534D01*
X27292485Y-144021330D01*
X27176110Y-143973126D01*
X26931149Y-143914317D01*
X26680000Y-143894551D01*
X26428850Y-143914317D01*
X26183889Y-143973126D01*
X25951139Y-144069535D01*
X25736342Y-144201163D01*
X25544776Y-144364776D01*
X25381163Y-144556342D01*
X25249535Y-144771139D01*
X25153126Y-145003889D01*
X25094317Y-145248850D01*
X25074551Y-145500000D01*
X20000500Y-145500000D01*
X20000500Y-138000000D01*
X21499459Y-138000000D01*
X21499617Y-138000383D01*
X21499759Y-138000441D01*
X21499900Y-138000500D01*
X21499901Y-138000500D01*
X24500099Y-138000500D01*
X24500100Y-138000500D01*
X24500193Y-138000460D01*
X24500383Y-138000383D01*
X24500541Y-138000000D01*
X26499459Y-138000000D01*
X26499617Y-138000383D01*
X26499759Y-138000441D01*
X26499900Y-138000500D01*
X26499901Y-138000500D01*
X29500099Y-138000500D01*
X29500100Y-138000500D01*
X29500193Y-138000460D01*
X29500383Y-138000383D01*
X29500541Y-138000000D01*
X31499459Y-138000000D01*
X31499617Y-138000383D01*
X31499759Y-138000441D01*
X31499900Y-138000500D01*
X31499901Y-138000500D01*
X34500099Y-138000500D01*
X34500100Y-138000500D01*
X34500193Y-138000460D01*
X34500383Y-138000383D01*
X34500541Y-138000000D01*
X36499459Y-138000000D01*
X36499617Y-138000383D01*
X36499759Y-138000441D01*
X36499900Y-138000500D01*
X36499901Y-138000500D01*
X39500099Y-138000500D01*
X39500100Y-138000500D01*
X39500193Y-138000460D01*
X39500383Y-138000383D01*
X39500541Y-138000000D01*
X41499459Y-138000000D01*
X41499617Y-138000383D01*
X41499759Y-138000441D01*
X41499900Y-138000500D01*
X41499901Y-138000500D01*
X44500099Y-138000500D01*
X44500100Y-138000500D01*
X44500193Y-138000460D01*
X44500383Y-138000383D01*
X44500541Y-138000000D01*
X46499459Y-138000000D01*
X46499617Y-138000383D01*
X46499759Y-138000441D01*
X46499900Y-138000500D01*
X46499901Y-138000500D01*
X49500099Y-138000500D01*
X49500100Y-138000500D01*
X49500193Y-138000460D01*
X49500383Y-138000383D01*
X49500541Y-138000000D01*
X49500383Y-137999617D01*
X49500381Y-137999616D01*
X49500100Y-137999500D01*
X49500099Y-137999500D01*
X46499901Y-137999500D01*
X46499900Y-137999500D01*
X46499618Y-137999616D01*
X46499616Y-137999618D01*
X46499459Y-137999999D01*
X46499459Y-138000000D01*
X44500541Y-138000000D01*
X44500383Y-137999617D01*
X44500381Y-137999616D01*
X44500100Y-137999500D01*
X44500099Y-137999500D01*
X41499901Y-137999500D01*
X41499900Y-137999500D01*
X41499618Y-137999616D01*
X41499616Y-137999618D01*
X41499459Y-137999999D01*
X41499459Y-138000000D01*
X39500541Y-138000000D01*
X39500383Y-137999617D01*
X39500381Y-137999616D01*
X39500100Y-137999500D01*
X39500099Y-137999500D01*
X36499901Y-137999500D01*
X36499900Y-137999500D01*
X36499618Y-137999616D01*
X36499616Y-137999618D01*
X36499459Y-137999999D01*
X36499459Y-138000000D01*
X34500541Y-138000000D01*
X34500383Y-137999617D01*
X34500381Y-137999616D01*
X34500100Y-137999500D01*
X34500099Y-137999500D01*
X31499901Y-137999500D01*
X31499900Y-137999500D01*
X31499618Y-137999616D01*
X31499616Y-137999618D01*
X31499459Y-137999999D01*
X31499459Y-138000000D01*
X29500541Y-138000000D01*
X29500383Y-137999617D01*
X29500381Y-137999616D01*
X29500100Y-137999500D01*
X29500099Y-137999500D01*
X26499901Y-137999500D01*
X26499900Y-137999500D01*
X26499618Y-137999616D01*
X26499616Y-137999618D01*
X26499459Y-137999999D01*
X26499459Y-138000000D01*
X24500541Y-138000000D01*
X24500383Y-137999617D01*
X24500381Y-137999616D01*
X24500100Y-137999500D01*
X24500099Y-137999500D01*
X21499901Y-137999500D01*
X21499900Y-137999500D01*
X21499618Y-137999616D01*
X21499616Y-137999618D01*
X21499459Y-137999999D01*
X21499459Y-138000000D01*
X20000500Y-138000000D01*
X20000500Y-134063790D01*
X33902830Y-134063790D01*
X33922164Y-134309447D01*
X33979687Y-134549052D01*
X34026837Y-134662882D01*
X34073987Y-134776711D01*
X34202738Y-134986814D01*
X34362772Y-135174190D01*
X34550148Y-135334224D01*
X34760251Y-135462975D01*
X34987909Y-135557274D01*
X35227516Y-135614798D01*
X35473171Y-135634132D01*
X35718826Y-135614798D01*
X35958433Y-135557274D01*
X36186091Y-135462975D01*
X36396194Y-135334224D01*
X36583570Y-135174190D01*
X36743604Y-134986814D01*
X36872355Y-134776711D01*
X36966654Y-134549053D01*
X37024178Y-134309446D01*
X37043512Y-134063791D01*
X37024178Y-133818136D01*
X36966654Y-133578529D01*
X36872355Y-133350871D01*
X36743604Y-133140768D01*
X36583570Y-132953392D01*
X36396194Y-132793358D01*
X36186091Y-132664607D01*
X36072262Y-132617457D01*
X35958432Y-132570307D01*
X35718827Y-132512784D01*
X35473171Y-132493450D01*
X35227514Y-132512784D01*
X34987909Y-132570307D01*
X34760249Y-132664608D01*
X34550149Y-132793357D01*
X34362772Y-132953392D01*
X34202737Y-133140769D01*
X34073988Y-133350869D01*
X33979687Y-133578529D01*
X33922164Y-133818134D01*
X33902830Y-134063790D01*
X20000500Y-134063790D01*
X20000500Y-125763790D01*
X33902830Y-125763790D01*
X33922164Y-126009447D01*
X33979687Y-126249052D01*
X34026837Y-126362882D01*
X34073987Y-126476711D01*
X34202738Y-126686814D01*
X34362772Y-126874190D01*
X34550148Y-127034224D01*
X34760251Y-127162975D01*
X34987909Y-127257274D01*
X35227516Y-127314798D01*
X35473171Y-127334132D01*
X35718826Y-127314798D01*
X35958433Y-127257274D01*
X36186091Y-127162975D01*
X36396194Y-127034224D01*
X36583570Y-126874190D01*
X36743604Y-126686814D01*
X36872355Y-126476711D01*
X36966654Y-126249053D01*
X37024178Y-126009446D01*
X37043512Y-125763791D01*
X37024178Y-125518136D01*
X36966654Y-125278529D01*
X36872355Y-125050871D01*
X36743604Y-124840768D01*
X36583570Y-124653392D01*
X36396194Y-124493358D01*
X36186091Y-124364607D01*
X36072006Y-124317351D01*
X36019142Y-124275676D01*
X35995842Y-124212520D01*
X36008975Y-124146496D01*
X36054670Y-124097064D01*
X36119460Y-124078791D01*
X36485995Y-124078791D01*
X36545546Y-124072388D01*
X36680260Y-124022143D01*
X36795359Y-123935979D01*
X36881523Y-123820880D01*
X36931768Y-123686166D01*
X36938171Y-123626615D01*
X36938171Y-122913791D01*
X34008171Y-122913791D01*
X34008171Y-123626615D01*
X34014573Y-123686166D01*
X34064818Y-123820880D01*
X34150982Y-123935979D01*
X34266081Y-124022143D01*
X34400795Y-124072388D01*
X34460347Y-124078791D01*
X34826882Y-124078791D01*
X34891672Y-124097064D01*
X34937367Y-124146496D01*
X34950500Y-124212520D01*
X34927200Y-124275676D01*
X34874335Y-124317352D01*
X34760249Y-124364608D01*
X34550149Y-124493357D01*
X34362772Y-124653392D01*
X34202737Y-124840769D01*
X34073988Y-125050869D01*
X33979687Y-125278529D01*
X33922164Y-125518134D01*
X33902830Y-125763790D01*
X20000500Y-125763790D01*
X20000500Y-122413791D01*
X34008171Y-122413791D01*
X35223171Y-122413791D01*
X35223171Y-121248791D01*
X35723171Y-121248791D01*
X35723171Y-122413791D01*
X36938171Y-122413791D01*
X36938171Y-121700967D01*
X36931768Y-121641415D01*
X36881523Y-121506701D01*
X36795359Y-121391602D01*
X36680260Y-121305438D01*
X36545546Y-121255193D01*
X36485995Y-121248791D01*
X35723171Y-121248791D01*
X35223171Y-121248791D01*
X34460347Y-121248791D01*
X34400795Y-121255193D01*
X34266081Y-121305438D01*
X34150982Y-121391602D01*
X34064818Y-121506701D01*
X34014573Y-121641415D01*
X34008171Y-121700967D01*
X34008171Y-122413791D01*
X20000500Y-122413791D01*
X20000500Y-118396000D01*
X24591659Y-118396000D01*
X24610993Y-118641656D01*
X24668516Y-118881261D01*
X24715666Y-118995091D01*
X24762816Y-119108920D01*
X24891567Y-119319023D01*
X25051601Y-119506399D01*
X25238977Y-119666433D01*
X25449080Y-119795184D01*
X25676738Y-119889483D01*
X25916345Y-119947007D01*
X26162000Y-119966341D01*
X26407655Y-119947007D01*
X26647262Y-119889483D01*
X26874920Y-119795184D01*
X27085023Y-119666433D01*
X27272399Y-119506399D01*
X27432433Y-119319023D01*
X27561184Y-119108920D01*
X27655483Y-118881262D01*
X27713007Y-118641655D01*
X27732341Y-118396000D01*
X27713007Y-118150345D01*
X27711004Y-118142000D01*
X43133659Y-118142000D01*
X43152993Y-118387656D01*
X43210516Y-118627261D01*
X43216479Y-118641656D01*
X43304816Y-118854920D01*
X43433567Y-119065023D01*
X43593601Y-119252399D01*
X43780977Y-119412433D01*
X43991080Y-119541184D01*
X44218738Y-119635483D01*
X44458345Y-119693007D01*
X44704000Y-119712341D01*
X44949655Y-119693007D01*
X45189262Y-119635483D01*
X45416920Y-119541184D01*
X45627023Y-119412433D01*
X45814399Y-119252399D01*
X45974433Y-119065023D01*
X46103184Y-118854920D01*
X46197483Y-118627262D01*
X46255007Y-118387655D01*
X46274341Y-118142000D01*
X46255007Y-117896345D01*
X46197483Y-117656738D01*
X46103184Y-117429080D01*
X45974433Y-117218977D01*
X45814399Y-117031601D01*
X45627023Y-116871567D01*
X45416920Y-116742816D01*
X45303090Y-116695666D01*
X45189261Y-116648516D01*
X44949656Y-116590993D01*
X44704000Y-116571659D01*
X44458343Y-116590993D01*
X44218738Y-116648516D01*
X43991078Y-116742817D01*
X43780978Y-116871566D01*
X43593601Y-117031601D01*
X43433566Y-117218978D01*
X43304817Y-117429078D01*
X43210516Y-117656738D01*
X43152993Y-117896343D01*
X43133659Y-118142000D01*
X27711004Y-118142000D01*
X27655483Y-117910738D01*
X27561184Y-117683080D01*
X27432433Y-117472977D01*
X27272399Y-117285601D01*
X27085023Y-117125567D01*
X26874920Y-116996816D01*
X26761091Y-116949666D01*
X26647261Y-116902516D01*
X26407656Y-116844993D01*
X26162000Y-116825659D01*
X25916343Y-116844993D01*
X25676738Y-116902516D01*
X25449078Y-116996817D01*
X25238978Y-117125566D01*
X25051601Y-117285601D01*
X24891566Y-117472978D01*
X24762817Y-117683078D01*
X24668516Y-117910738D01*
X24610993Y-118150343D01*
X24591659Y-118396000D01*
X20000500Y-118396000D01*
X20000500Y-110095999D01*
X24591659Y-110095999D01*
X24610993Y-110341656D01*
X24668516Y-110581261D01*
X24715666Y-110695090D01*
X24762816Y-110808920D01*
X24891567Y-111019023D01*
X25051601Y-111206399D01*
X25238977Y-111366433D01*
X25449080Y-111495184D01*
X25676738Y-111589483D01*
X25916345Y-111647007D01*
X26162000Y-111666341D01*
X26407655Y-111647007D01*
X26647262Y-111589483D01*
X26874920Y-111495184D01*
X27085023Y-111366433D01*
X27272399Y-111206399D01*
X27432433Y-111019023D01*
X27561184Y-110808920D01*
X27655483Y-110581262D01*
X27713007Y-110341655D01*
X27732341Y-110096000D01*
X27713007Y-109850345D01*
X27711003Y-109841999D01*
X43133659Y-109841999D01*
X43152993Y-110087656D01*
X43210516Y-110327261D01*
X43216479Y-110341656D01*
X43304816Y-110554920D01*
X43433567Y-110765023D01*
X43593601Y-110952399D01*
X43780977Y-111112433D01*
X43991080Y-111241184D01*
X44218738Y-111335483D01*
X44458345Y-111393007D01*
X44704000Y-111412341D01*
X44949655Y-111393007D01*
X45189262Y-111335483D01*
X45416920Y-111241184D01*
X45627023Y-111112433D01*
X45814399Y-110952399D01*
X45974433Y-110765023D01*
X46103184Y-110554920D01*
X46197483Y-110327262D01*
X46255007Y-110087655D01*
X46274341Y-109842000D01*
X46255007Y-109596345D01*
X46197483Y-109356738D01*
X46103184Y-109129080D01*
X45974433Y-108918977D01*
X45814399Y-108731601D01*
X45627023Y-108571567D01*
X45416920Y-108442816D01*
X45302835Y-108395560D01*
X45249971Y-108353885D01*
X45226671Y-108290729D01*
X45239804Y-108224705D01*
X45285499Y-108175273D01*
X45350289Y-108157000D01*
X45716824Y-108157000D01*
X45776375Y-108150597D01*
X45911089Y-108100352D01*
X46026188Y-108014188D01*
X46112352Y-107899089D01*
X46162597Y-107764375D01*
X46169000Y-107704824D01*
X46169000Y-106992000D01*
X43239000Y-106992000D01*
X43239000Y-107704824D01*
X43245402Y-107764375D01*
X43295647Y-107899089D01*
X43381811Y-108014188D01*
X43496910Y-108100352D01*
X43631624Y-108150597D01*
X43691176Y-108157000D01*
X44057711Y-108157000D01*
X44122501Y-108175273D01*
X44168196Y-108224705D01*
X44181329Y-108290729D01*
X44158029Y-108353885D01*
X44105164Y-108395561D01*
X43991078Y-108442817D01*
X43780978Y-108571566D01*
X43593601Y-108731601D01*
X43433566Y-108918978D01*
X43304817Y-109129078D01*
X43210516Y-109356738D01*
X43152993Y-109596343D01*
X43133659Y-109841999D01*
X27711003Y-109841999D01*
X27655483Y-109610738D01*
X27561184Y-109383080D01*
X27432433Y-109172977D01*
X27272399Y-108985601D01*
X27085023Y-108825567D01*
X26874920Y-108696816D01*
X26760835Y-108649560D01*
X26707971Y-108607885D01*
X26684671Y-108544729D01*
X26697804Y-108478705D01*
X26743499Y-108429273D01*
X26808289Y-108411000D01*
X27174824Y-108411000D01*
X27234375Y-108404597D01*
X27369089Y-108354352D01*
X27484188Y-108268188D01*
X27570352Y-108153089D01*
X27620597Y-108018375D01*
X27627000Y-107958824D01*
X27627000Y-107246000D01*
X24697000Y-107246000D01*
X24697000Y-107958824D01*
X24703402Y-108018375D01*
X24753647Y-108153089D01*
X24839811Y-108268188D01*
X24954910Y-108354352D01*
X25089624Y-108404597D01*
X25149176Y-108411000D01*
X25515711Y-108411000D01*
X25580501Y-108429273D01*
X25626196Y-108478705D01*
X25639329Y-108544729D01*
X25616029Y-108607885D01*
X25563164Y-108649561D01*
X25449078Y-108696817D01*
X25238978Y-108825566D01*
X25051601Y-108985601D01*
X24891566Y-109172978D01*
X24762817Y-109383078D01*
X24668516Y-109610738D01*
X24610993Y-109850343D01*
X24591659Y-110095999D01*
X20000500Y-110095999D01*
X20000500Y-106746000D01*
X24697000Y-106746000D01*
X25912000Y-106746000D01*
X25912000Y-105581000D01*
X26412000Y-105581000D01*
X26412000Y-106746000D01*
X27627000Y-106746000D01*
X27627000Y-106492000D01*
X43239000Y-106492000D01*
X44454000Y-106492000D01*
X44454000Y-105327000D01*
X44954000Y-105327000D01*
X44954000Y-106492000D01*
X46169000Y-106492000D01*
X46169000Y-105779176D01*
X46162597Y-105719624D01*
X46112352Y-105584910D01*
X46026188Y-105469811D01*
X45911089Y-105383647D01*
X45776375Y-105333402D01*
X45716824Y-105327000D01*
X44954000Y-105327000D01*
X44454000Y-105327000D01*
X43691176Y-105327000D01*
X43631624Y-105333402D01*
X43496910Y-105383647D01*
X43381811Y-105469811D01*
X43295647Y-105584910D01*
X43245402Y-105719624D01*
X43239000Y-105779176D01*
X43239000Y-106492000D01*
X27627000Y-106492000D01*
X27627000Y-106033176D01*
X27620597Y-105973624D01*
X27570352Y-105838910D01*
X27484188Y-105723811D01*
X27369089Y-105637647D01*
X27234375Y-105587402D01*
X27174824Y-105581000D01*
X26412000Y-105581000D01*
X25912000Y-105581000D01*
X25149176Y-105581000D01*
X25089624Y-105587402D01*
X24954910Y-105637647D01*
X24839811Y-105723811D01*
X24753647Y-105838910D01*
X24703402Y-105973624D01*
X24697000Y-106033176D01*
X24697000Y-106746000D01*
X20000500Y-106746000D01*
X20000500Y-29000000D01*
X21499459Y-29000000D01*
X21499617Y-29000383D01*
X21499758Y-29000441D01*
X21499900Y-29000500D01*
X21499901Y-29000500D01*
X24500099Y-29000500D01*
X24500100Y-29000500D01*
X24500193Y-29000460D01*
X24500383Y-29000383D01*
X24500541Y-29000000D01*
X26499459Y-29000000D01*
X26499617Y-29000383D01*
X26499758Y-29000441D01*
X26499900Y-29000500D01*
X26499901Y-29000500D01*
X29500099Y-29000500D01*
X29500100Y-29000500D01*
X29500193Y-29000460D01*
X29500383Y-29000383D01*
X29500541Y-29000000D01*
X31499459Y-29000000D01*
X31499617Y-29000383D01*
X31499758Y-29000441D01*
X31499900Y-29000500D01*
X31499901Y-29000500D01*
X34500099Y-29000500D01*
X34500100Y-29000500D01*
X34500193Y-29000460D01*
X34500383Y-29000383D01*
X34500541Y-29000000D01*
X36499459Y-29000000D01*
X36499617Y-29000383D01*
X36499758Y-29000441D01*
X36499900Y-29000500D01*
X36499901Y-29000500D01*
X39500099Y-29000500D01*
X39500100Y-29000500D01*
X39500193Y-29000460D01*
X39500383Y-29000383D01*
X39500541Y-29000000D01*
X41499459Y-29000000D01*
X41499617Y-29000383D01*
X41499758Y-29000441D01*
X41499900Y-29000500D01*
X41499901Y-29000500D01*
X44500099Y-29000500D01*
X44500100Y-29000500D01*
X44500193Y-29000460D01*
X44500383Y-29000383D01*
X44500541Y-29000000D01*
X46499459Y-29000000D01*
X46499617Y-29000383D01*
X46499758Y-29000441D01*
X46499900Y-29000500D01*
X46499901Y-29000500D01*
X49500099Y-29000500D01*
X49500100Y-29000500D01*
X49500193Y-29000460D01*
X49500383Y-29000383D01*
X49500541Y-29000000D01*
X49500383Y-28999617D01*
X49500381Y-28999616D01*
X49500100Y-28999500D01*
X49500099Y-28999500D01*
X46499901Y-28999500D01*
X46499900Y-28999500D01*
X46499618Y-28999616D01*
X46499616Y-28999618D01*
X46499459Y-28999999D01*
X46499459Y-29000000D01*
X44500541Y-29000000D01*
X44500383Y-28999617D01*
X44500381Y-28999616D01*
X44500100Y-28999500D01*
X44500099Y-28999500D01*
X41499901Y-28999500D01*
X41499900Y-28999500D01*
X41499618Y-28999616D01*
X41499616Y-28999618D01*
X41499459Y-28999999D01*
X41499459Y-29000000D01*
X39500541Y-29000000D01*
X39500383Y-28999617D01*
X39500381Y-28999616D01*
X39500100Y-28999500D01*
X39500099Y-28999500D01*
X36499901Y-28999500D01*
X36499900Y-28999500D01*
X36499618Y-28999616D01*
X36499616Y-28999618D01*
X36499459Y-28999999D01*
X36499459Y-29000000D01*
X34500541Y-29000000D01*
X34500383Y-28999617D01*
X34500381Y-28999616D01*
X34500100Y-28999500D01*
X34500099Y-28999500D01*
X31499901Y-28999500D01*
X31499900Y-28999500D01*
X31499618Y-28999616D01*
X31499616Y-28999618D01*
X31499459Y-28999999D01*
X31499459Y-29000000D01*
X29500541Y-29000000D01*
X29500383Y-28999617D01*
X29500381Y-28999616D01*
X29500100Y-28999500D01*
X29500099Y-28999500D01*
X26499901Y-28999500D01*
X26499900Y-28999500D01*
X26499618Y-28999616D01*
X26499616Y-28999618D01*
X26499459Y-28999999D01*
X26499459Y-29000000D01*
X24500541Y-29000000D01*
X24500383Y-28999617D01*
X24500381Y-28999616D01*
X24500100Y-28999500D01*
X24500099Y-28999500D01*
X21499901Y-28999500D01*
X21499900Y-28999500D01*
X21499618Y-28999616D01*
X21499616Y-28999618D01*
X21499459Y-28999999D01*
X21499459Y-29000000D01*
X20000500Y-29000000D01*
X20000500Y-23000000D01*
X25074551Y-23000000D01*
X25094317Y-23251149D01*
X25153126Y-23496110D01*
X25156100Y-23503289D01*
X25249534Y-23728859D01*
X25381164Y-23943659D01*
X25544776Y-24135224D01*
X25736341Y-24298836D01*
X25951141Y-24430466D01*
X26183889Y-24526873D01*
X26428852Y-24585683D01*
X26680000Y-24605449D01*
X26931148Y-24585683D01*
X27176111Y-24526873D01*
X27408859Y-24430466D01*
X27623659Y-24298836D01*
X27815224Y-24135224D01*
X27978836Y-23943659D01*
X28110466Y-23728859D01*
X28206873Y-23496111D01*
X28265683Y-23251148D01*
X28285449Y-23000000D01*
X28285449Y-22999999D01*
X42194551Y-22999999D01*
X42214317Y-23251149D01*
X42273126Y-23496110D01*
X42276100Y-23503289D01*
X42369534Y-23728859D01*
X42501164Y-23943659D01*
X42664776Y-24135224D01*
X42856341Y-24298836D01*
X43071141Y-24430466D01*
X43303889Y-24526873D01*
X43548852Y-24585683D01*
X43800000Y-24605449D01*
X44051148Y-24585683D01*
X44296111Y-24526873D01*
X44528859Y-24430466D01*
X44743659Y-24298836D01*
X44935224Y-24135224D01*
X45098836Y-23943659D01*
X45230466Y-23728859D01*
X45326873Y-23496111D01*
X45385683Y-23251148D01*
X45405449Y-23000000D01*
X45385683Y-22748852D01*
X45326873Y-22503889D01*
X45230466Y-22271141D01*
X45098836Y-22056341D01*
X44935224Y-21864776D01*
X44743659Y-21701164D01*
X44528859Y-21569534D01*
X44412484Y-21521330D01*
X44296110Y-21473126D01*
X44051149Y-21414317D01*
X43800000Y-21394551D01*
X43548850Y-21414317D01*
X43303889Y-21473126D01*
X43071139Y-21569535D01*
X42856342Y-21701163D01*
X42664776Y-21864776D01*
X42501163Y-22056342D01*
X42369535Y-22271139D01*
X42273126Y-22503889D01*
X42214317Y-22748850D01*
X42194551Y-22999999D01*
X28285449Y-22999999D01*
X28265683Y-22748852D01*
X28206873Y-22503889D01*
X28110466Y-22271141D01*
X27978836Y-22056341D01*
X27815224Y-21864776D01*
X27623659Y-21701164D01*
X27408859Y-21569534D01*
X27292484Y-21521330D01*
X27176110Y-21473126D01*
X26931149Y-21414317D01*
X26680000Y-21394551D01*
X26428850Y-21414317D01*
X26183889Y-21473126D01*
X25951139Y-21569535D01*
X25736342Y-21701163D01*
X25544776Y-21864776D01*
X25381163Y-22056342D01*
X25249535Y-22271139D01*
X25153126Y-22503889D01*
X25094317Y-22748850D01*
X25074551Y-23000000D01*
X20000500Y-23000000D01*
X20000500Y-20124500D01*
X20017113Y-20062500D01*
X20062500Y-20017113D01*
X20124500Y-20000500D01*
X50355500Y-20000500D01*
X50417500Y-20017113D01*
G37*
%TD.AperFunction*%
%TD*%
M02*
