%TF.GenerationSoftware,KiCad,Pcbnew,7.0.1*%
%TF.CreationDate,2023-04-03T10:55:15-07:00*%
%TF.ProjectId,transistor_vca,7472616e-7369-4737-946f-725f7663612e,rev?*%
%TF.SameCoordinates,Original*%
%TF.FileFunction,Copper,L1,Top*%
%TF.FilePolarity,Positive*%
%FSLAX46Y46*%
G04 Gerber Fmt 4.6, Leading zero omitted, Abs format (unit mm)*
G04 Created by KiCad (PCBNEW 7.0.1) date 2023-04-03 10:55:15*
%MOMM*%
%LPD*%
G01*
G04 APERTURE LIST*
G04 Aperture macros list*
%AMRoundRect*
0 Rectangle with rounded corners*
0 $1 Rounding radius*
0 $2 $3 $4 $5 $6 $7 $8 $9 X,Y pos of 4 corners*
0 Add a 4 corners polygon primitive as box body*
4,1,4,$2,$3,$4,$5,$6,$7,$8,$9,$2,$3,0*
0 Add four circle primitives for the rounded corners*
1,1,$1+$1,$2,$3*
1,1,$1+$1,$4,$5*
1,1,$1+$1,$6,$7*
1,1,$1+$1,$8,$9*
0 Add four rect primitives between the rounded corners*
20,1,$1+$1,$2,$3,$4,$5,0*
20,1,$1+$1,$4,$5,$6,$7,0*
20,1,$1+$1,$6,$7,$8,$9,0*
20,1,$1+$1,$8,$9,$2,$3,0*%
G04 Aperture macros list end*
%TA.AperFunction,SMDPad,CuDef*%
%ADD10RoundRect,0.200000X-0.200000X-0.275000X0.200000X-0.275000X0.200000X0.275000X-0.200000X0.275000X0*%
%TD*%
%TA.AperFunction,ComponentPad*%
%ADD11R,1.930000X1.830000*%
%TD*%
%TA.AperFunction,ComponentPad*%
%ADD12C,2.130000*%
%TD*%
%TA.AperFunction,SMDPad,CuDef*%
%ADD13RoundRect,0.150000X-0.825000X-0.150000X0.825000X-0.150000X0.825000X0.150000X-0.825000X0.150000X0*%
%TD*%
%TA.AperFunction,SMDPad,CuDef*%
%ADD14RoundRect,0.150000X-0.512500X-0.150000X0.512500X-0.150000X0.512500X0.150000X-0.512500X0.150000X0*%
%TD*%
%TA.AperFunction,SMDPad,CuDef*%
%ADD15RoundRect,0.255000X-2.245000X-0.255000X2.245000X-0.255000X2.245000X0.255000X-2.245000X0.255000X0*%
%TD*%
G04 APERTURE END LIST*
D10*
%TO.P,R14,1*%
%TO.N,Net-(U2A-+)*%
X113819002Y-58039000D03*
%TO.P,R14,2*%
%TO.N,Net-(U1B--)*%
X115469002Y-58039000D03*
%TD*%
%TO.P,R4,1*%
%TO.N,Net-(JIN1-PadT)*%
X99737500Y-47830000D03*
%TO.P,R4,2*%
%TO.N,Net-(Q1-B)*%
X101387500Y-47830000D03*
%TD*%
D11*
%TO.P,JCV1,S*%
%TO.N,GND*%
X35473171Y-122663791D03*
D12*
%TO.P,JCV1,T*%
%TO.N,Net-(JCV1-PadT)*%
X35473171Y-134063791D03*
%TO.P,JCV1,TN*%
%TO.N,unconnected-(JCV1-PadTN)*%
X35473171Y-125763791D03*
%TD*%
D11*
%TO.P,JOUT1,S*%
%TO.N,GND*%
X44704000Y-106742000D03*
D12*
%TO.P,JOUT1,T*%
%TO.N,Net-(JOUT1-PadT)*%
X44704000Y-118142000D03*
%TO.P,JOUT1,TN*%
%TO.N,unconnected-(JOUT1-PadTN)*%
X44704000Y-109842000D03*
%TD*%
D13*
%TO.P,U2,1*%
%TO.N,Net-(R10-Pad1)*%
X33782000Y-90678000D03*
%TO.P,U2,2,-*%
%TO.N,Net-(U2A--)*%
X33782000Y-91948000D03*
%TO.P,U2,3,+*%
%TO.N,Net-(U2A-+)*%
X33782000Y-93218000D03*
%TO.P,U2,4,V-*%
%TO.N,-12V*%
X33782000Y-94488000D03*
%TO.P,U2,5,+*%
%TO.N,unconnected-(U2B-+-Pad5)*%
X38732000Y-94488000D03*
%TO.P,U2,6,-*%
%TO.N,unconnected-(U2B---Pad6)*%
X38732000Y-93218000D03*
%TO.P,U2,7*%
%TO.N,unconnected-(U2-Pad7)*%
X38732000Y-91948000D03*
%TO.P,U2,8,V+*%
%TO.N,+12V*%
X38732000Y-90678000D03*
%TD*%
D10*
%TO.P,R5,1*%
%TO.N,Net-(Q1-C)*%
X99737500Y-50340000D03*
%TO.P,R5,2*%
%TO.N,+12V*%
X101387500Y-50340000D03*
%TD*%
%TO.P,R12,1*%
%TO.N,Net-(U2A--)*%
X108649000Y-70358000D03*
%TO.P,R12,2*%
%TO.N,unconnected-(R12-Pad2)*%
X110299000Y-70358000D03*
%TD*%
%TO.P,R3,1*%
%TO.N,Net-(JCV1-PadT)*%
X108649000Y-62484000D03*
%TO.P,R3,2*%
%TO.N,Net-(U1A--)*%
X110299000Y-62484000D03*
%TD*%
%TO.P,R11,1*%
%TO.N,GND*%
X108649000Y-68553000D03*
%TO.P,R11,2*%
%TO.N,Net-(U2A--)*%
X110299000Y-68553000D03*
%TD*%
%TO.P,R7,1*%
%TO.N,Net-(U1B-+)*%
X113983000Y-61341000D03*
%TO.P,R7,2*%
%TO.N,Net-(Q2-C)*%
X115633000Y-61341000D03*
%TD*%
%TO.P,R1,1*%
%TO.N,Net-(R1-Pad1)*%
X108649000Y-60833000D03*
%TO.P,R1,2*%
%TO.N,Net-(Q1-E)*%
X110299000Y-60833000D03*
%TD*%
D11*
%TO.P,JIN1,S*%
%TO.N,GND*%
X26162000Y-106996000D03*
D12*
%TO.P,JIN1,T*%
%TO.N,Net-(JIN1-PadT)*%
X26162000Y-118396000D03*
%TO.P,JIN1,TN*%
%TO.N,unconnected-(JIN1-PadTN)*%
X26162000Y-110096000D03*
%TD*%
D14*
%TO.P,Q1,1,E*%
%TO.N,Net-(Q1-E)*%
X35119500Y-68795000D03*
%TO.P,Q1,2,B*%
%TO.N,Net-(Q1-B)*%
X35119500Y-70695000D03*
%TO.P,Q1,3,C*%
%TO.N,Net-(Q1-C)*%
X37394500Y-69745000D03*
%TD*%
D10*
%TO.P,R8,1*%
%TO.N,Net-(U1B--)*%
X113983000Y-59690000D03*
%TO.P,R8,2*%
%TO.N,Net-(Q1-C)*%
X115633000Y-59690000D03*
%TD*%
D15*
%TO.P,J1,1,-12v_R*%
%TO.N,-12V*%
X31008000Y-38100000D03*
%TO.P,J1,2,-12v_L*%
X38608000Y-38100000D03*
%TO.P,J1,3,GND*%
%TO.N,GND*%
X31008000Y-40640000D03*
%TO.P,J1,4,GND*%
X38608000Y-40640000D03*
%TO.P,J1,5,GND_R3*%
X31008000Y-43180000D03*
%TO.P,J1,6,GND_L3*%
X38608000Y-43180000D03*
%TO.P,J1,7,GND_R2*%
X31008000Y-45720000D03*
%TO.P,J1,8,GND_L2*%
X38608000Y-45720000D03*
%TO.P,J1,9,+12V_R*%
%TO.N,+12V*%
X31008000Y-48260000D03*
%TO.P,J1,10,+12V_L*%
X38608000Y-48260000D03*
%TO.P,J1,11,+5v_R*%
%TO.N,+5V*%
X31008000Y-50800000D03*
%TO.P,J1,12,+5v_L*%
X38608000Y-50800000D03*
%TO.P,J1,13,CV_R*%
%TO.N,Net-(J1-CV_L)*%
X31008000Y-53340000D03*
%TO.P,J1,14,CV_L*%
X38608000Y-53340000D03*
%TO.P,J1,15,GATE_R*%
%TO.N,Net-(J1-GATE_L)*%
X31008000Y-55880000D03*
%TO.P,J1,16,GATE_L*%
X38608000Y-55880000D03*
%TD*%
D10*
%TO.P,R6,1*%
%TO.N,Net-(Q2-C)*%
X103747500Y-40300000D03*
%TO.P,R6,2*%
%TO.N,+12V*%
X105397500Y-40300000D03*
%TD*%
D14*
%TO.P,Q2,1,E*%
%TO.N,Net-(Q1-E)*%
X35119500Y-73245000D03*
%TO.P,Q2,2,B*%
%TO.N,GND*%
X35119500Y-75145000D03*
%TO.P,Q2,3,C*%
%TO.N,Net-(Q2-C)*%
X37394500Y-74195000D03*
%TD*%
D13*
%TO.P,U1,1*%
%TO.N,Net-(R1-Pad1)*%
X33782000Y-84228000D03*
%TO.P,U1,2,-*%
%TO.N,Net-(U1A--)*%
X33782000Y-85498000D03*
%TO.P,U1,3,+*%
%TO.N,GND*%
X33782000Y-86768000D03*
%TO.P,U1,4,V-*%
%TO.N,-12V*%
X33782000Y-88038000D03*
%TO.P,U1,5,+*%
%TO.N,Net-(U1B-+)*%
X38732000Y-88038000D03*
%TO.P,U1,6,-*%
%TO.N,Net-(U1B--)*%
X38732000Y-86768000D03*
%TO.P,U1,7*%
%TO.N,Net-(U2A-+)*%
X38732000Y-85498000D03*
%TO.P,U1,8,V+*%
%TO.N,+12V*%
X38732000Y-84228000D03*
%TD*%
D10*
%TO.P,R10,1*%
%TO.N,Net-(R10-Pad1)*%
X108649000Y-67283000D03*
%TO.P,R10,2*%
%TO.N,Net-(JOUT1-PadT)*%
X110299000Y-67283000D03*
%TD*%
%TO.P,R2,1*%
%TO.N,Net-(U1A--)*%
X108558998Y-59182000D03*
%TO.P,R2,2*%
%TO.N,Net-(R1-Pad1)*%
X110208998Y-59182000D03*
%TD*%
%TO.P,R13,1*%
%TO.N,GND*%
X114327002Y-63373000D03*
%TO.P,R13,2*%
%TO.N,Net-(U1B-+)*%
X115977002Y-63373000D03*
%TD*%
%TO.P,R9,1*%
%TO.N,GND*%
X103747500Y-47830000D03*
%TO.P,R9,2*%
%TO.N,Net-(Q1-B)*%
X105397500Y-47830000D03*
%TD*%
%TA.AperFunction,Conductor*%
%TO.N,GND*%
G36*
X50417500Y-20017113D02*
G01*
X50462887Y-20062500D01*
X50479500Y-20124500D01*
X50479500Y-148375500D01*
X50462887Y-148437500D01*
X50417500Y-148482887D01*
X50355500Y-148499500D01*
X20124500Y-148499500D01*
X20062500Y-148482887D01*
X20017113Y-148437500D01*
X20000500Y-148375500D01*
X20000500Y-145500000D01*
X25074551Y-145500000D01*
X25094317Y-145751149D01*
X25153126Y-145996110D01*
X25156100Y-146003289D01*
X25249534Y-146228859D01*
X25381164Y-146443659D01*
X25544776Y-146635224D01*
X25736341Y-146798836D01*
X25951141Y-146930466D01*
X26183889Y-147026873D01*
X26428852Y-147085683D01*
X26680000Y-147105449D01*
X26931148Y-147085683D01*
X27176111Y-147026873D01*
X27408859Y-146930466D01*
X27623659Y-146798836D01*
X27815224Y-146635224D01*
X27978836Y-146443659D01*
X28110466Y-146228859D01*
X28206873Y-145996111D01*
X28265683Y-145751148D01*
X28285449Y-145500000D01*
X42194551Y-145500000D01*
X42214317Y-145751149D01*
X42273126Y-145996110D01*
X42276100Y-146003289D01*
X42369534Y-146228859D01*
X42501164Y-146443659D01*
X42664776Y-146635224D01*
X42856341Y-146798836D01*
X43071141Y-146930466D01*
X43303889Y-147026873D01*
X43548852Y-147085683D01*
X43800000Y-147105449D01*
X44051148Y-147085683D01*
X44296111Y-147026873D01*
X44528859Y-146930466D01*
X44743659Y-146798836D01*
X44935224Y-146635224D01*
X45098836Y-146443659D01*
X45230466Y-146228859D01*
X45326873Y-145996111D01*
X45385683Y-145751148D01*
X45405449Y-145500000D01*
X45385683Y-145248852D01*
X45326873Y-145003889D01*
X45230466Y-144771141D01*
X45098836Y-144556341D01*
X44935224Y-144364776D01*
X44743659Y-144201164D01*
X44528859Y-144069534D01*
X44412485Y-144021330D01*
X44296110Y-143973126D01*
X44051149Y-143914317D01*
X43800000Y-143894551D01*
X43548850Y-143914317D01*
X43303889Y-143973126D01*
X43071139Y-144069535D01*
X42856342Y-144201163D01*
X42664776Y-144364776D01*
X42501163Y-144556342D01*
X42369535Y-144771139D01*
X42273126Y-145003889D01*
X42214317Y-145248850D01*
X42194551Y-145500000D01*
X28285449Y-145500000D01*
X28265683Y-145248852D01*
X28206873Y-145003889D01*
X28110466Y-144771141D01*
X27978836Y-144556341D01*
X27815224Y-144364776D01*
X27623659Y-144201164D01*
X27408859Y-144069534D01*
X27292485Y-144021330D01*
X27176110Y-143973126D01*
X26931149Y-143914317D01*
X26680000Y-143894551D01*
X26428850Y-143914317D01*
X26183889Y-143973126D01*
X25951139Y-144069535D01*
X25736342Y-144201163D01*
X25544776Y-144364776D01*
X25381163Y-144556342D01*
X25249535Y-144771139D01*
X25153126Y-145003889D01*
X25094317Y-145248850D01*
X25074551Y-145500000D01*
X20000500Y-145500000D01*
X20000500Y-138000000D01*
X21499459Y-138000000D01*
X21499617Y-138000383D01*
X21499759Y-138000441D01*
X21499900Y-138000500D01*
X21499901Y-138000500D01*
X24500099Y-138000500D01*
X24500100Y-138000500D01*
X24500193Y-138000460D01*
X24500383Y-138000383D01*
X24500541Y-138000000D01*
X26499459Y-138000000D01*
X26499617Y-138000383D01*
X26499759Y-138000441D01*
X26499900Y-138000500D01*
X26499901Y-138000500D01*
X29500099Y-138000500D01*
X29500100Y-138000500D01*
X29500193Y-138000460D01*
X29500383Y-138000383D01*
X29500541Y-138000000D01*
X31499459Y-138000000D01*
X31499617Y-138000383D01*
X31499759Y-138000441D01*
X31499900Y-138000500D01*
X31499901Y-138000500D01*
X34500099Y-138000500D01*
X34500100Y-138000500D01*
X34500193Y-138000460D01*
X34500383Y-138000383D01*
X34500541Y-138000000D01*
X36499459Y-138000000D01*
X36499617Y-138000383D01*
X36499759Y-138000441D01*
X36499900Y-138000500D01*
X36499901Y-138000500D01*
X39500099Y-138000500D01*
X39500100Y-138000500D01*
X39500193Y-138000460D01*
X39500383Y-138000383D01*
X39500541Y-138000000D01*
X41499459Y-138000000D01*
X41499617Y-138000383D01*
X41499759Y-138000441D01*
X41499900Y-138000500D01*
X41499901Y-138000500D01*
X44500099Y-138000500D01*
X44500100Y-138000500D01*
X44500193Y-138000460D01*
X44500383Y-138000383D01*
X44500541Y-138000000D01*
X46499459Y-138000000D01*
X46499617Y-138000383D01*
X46499759Y-138000441D01*
X46499900Y-138000500D01*
X46499901Y-138000500D01*
X49500099Y-138000500D01*
X49500100Y-138000500D01*
X49500193Y-138000460D01*
X49500383Y-138000383D01*
X49500541Y-138000000D01*
X49500383Y-137999617D01*
X49500381Y-137999616D01*
X49500100Y-137999500D01*
X49500099Y-137999500D01*
X46499901Y-137999500D01*
X46499900Y-137999500D01*
X46499618Y-137999616D01*
X46499616Y-137999618D01*
X46499459Y-137999999D01*
X46499459Y-138000000D01*
X44500541Y-138000000D01*
X44500383Y-137999617D01*
X44500381Y-137999616D01*
X44500100Y-137999500D01*
X44500099Y-137999500D01*
X41499901Y-137999500D01*
X41499900Y-137999500D01*
X41499618Y-137999616D01*
X41499616Y-137999618D01*
X41499459Y-137999999D01*
X41499459Y-138000000D01*
X39500541Y-138000000D01*
X39500383Y-137999617D01*
X39500381Y-137999616D01*
X39500100Y-137999500D01*
X39500099Y-137999500D01*
X36499901Y-137999500D01*
X36499900Y-137999500D01*
X36499618Y-137999616D01*
X36499616Y-137999618D01*
X36499459Y-137999999D01*
X36499459Y-138000000D01*
X34500541Y-138000000D01*
X34500383Y-137999617D01*
X34500381Y-137999616D01*
X34500100Y-137999500D01*
X34500099Y-137999500D01*
X31499901Y-137999500D01*
X31499900Y-137999500D01*
X31499618Y-137999616D01*
X31499616Y-137999618D01*
X31499459Y-137999999D01*
X31499459Y-138000000D01*
X29500541Y-138000000D01*
X29500383Y-137999617D01*
X29500381Y-137999616D01*
X29500100Y-137999500D01*
X29500099Y-137999500D01*
X26499901Y-137999500D01*
X26499900Y-137999500D01*
X26499618Y-137999616D01*
X26499616Y-137999618D01*
X26499459Y-137999999D01*
X26499459Y-138000000D01*
X24500541Y-138000000D01*
X24500383Y-137999617D01*
X24500381Y-137999616D01*
X24500100Y-137999500D01*
X24500099Y-137999500D01*
X21499901Y-137999500D01*
X21499900Y-137999500D01*
X21499618Y-137999616D01*
X21499616Y-137999618D01*
X21499459Y-137999999D01*
X21499459Y-138000000D01*
X20000500Y-138000000D01*
X20000500Y-134063790D01*
X33902830Y-134063790D01*
X33922164Y-134309447D01*
X33979687Y-134549052D01*
X34026837Y-134662882D01*
X34073987Y-134776711D01*
X34202738Y-134986814D01*
X34362772Y-135174190D01*
X34550148Y-135334224D01*
X34760251Y-135462975D01*
X34987909Y-135557274D01*
X35227516Y-135614798D01*
X35473171Y-135634132D01*
X35718826Y-135614798D01*
X35958433Y-135557274D01*
X36186091Y-135462975D01*
X36396194Y-135334224D01*
X36583570Y-135174190D01*
X36743604Y-134986814D01*
X36872355Y-134776711D01*
X36966654Y-134549053D01*
X37024178Y-134309446D01*
X37043512Y-134063791D01*
X37024178Y-133818136D01*
X36966654Y-133578529D01*
X36872355Y-133350871D01*
X36743604Y-133140768D01*
X36583570Y-132953392D01*
X36396194Y-132793358D01*
X36186091Y-132664607D01*
X36072262Y-132617457D01*
X35958432Y-132570307D01*
X35718827Y-132512784D01*
X35473171Y-132493450D01*
X35227514Y-132512784D01*
X34987909Y-132570307D01*
X34760249Y-132664608D01*
X34550149Y-132793357D01*
X34362772Y-132953392D01*
X34202737Y-133140769D01*
X34073988Y-133350869D01*
X33979687Y-133578529D01*
X33922164Y-133818134D01*
X33902830Y-134063790D01*
X20000500Y-134063790D01*
X20000500Y-129107019D01*
X33968479Y-129107019D01*
X33982677Y-129353265D01*
X34036903Y-129593885D01*
X34036904Y-129593889D01*
X34036905Y-129593890D01*
X34129703Y-129822425D01*
X34258582Y-130032736D01*
X34420079Y-130219173D01*
X34609858Y-130376730D01*
X34822821Y-130501176D01*
X34822822Y-130501176D01*
X34822825Y-130501178D01*
X35053244Y-130589166D01*
X35053245Y-130589166D01*
X35053250Y-130589168D01*
X35294956Y-130638344D01*
X35541449Y-130647383D01*
X35786107Y-130616041D01*
X36022362Y-130545161D01*
X36243868Y-130436647D01*
X36444676Y-130293412D01*
X36619394Y-130119303D01*
X36763329Y-129918996D01*
X36872616Y-129697870D01*
X36944320Y-129461865D01*
X36958618Y-129353266D01*
X36976515Y-129217319D01*
X36976596Y-129213970D01*
X36978312Y-129143791D01*
X36958101Y-128897962D01*
X36958101Y-128897960D01*
X36898012Y-128658734D01*
X36799658Y-128432538D01*
X36799657Y-128432535D01*
X36665679Y-128225436D01*
X36499675Y-128043001D01*
X36306103Y-127890127D01*
X36090163Y-127770922D01*
X36033470Y-127750846D01*
X35857651Y-127688583D01*
X35614821Y-127645330D01*
X35491497Y-127643823D01*
X35368177Y-127642316D01*
X35368174Y-127642316D01*
X35124359Y-127679625D01*
X34889903Y-127756257D01*
X34671118Y-127870150D01*
X34473866Y-128018249D01*
X34303457Y-128196574D01*
X34164459Y-128400338D01*
X34060606Y-128624067D01*
X33994689Y-128861754D01*
X33968479Y-129107019D01*
X20000500Y-129107019D01*
X20000500Y-125763790D01*
X33902830Y-125763790D01*
X33922164Y-126009447D01*
X33979687Y-126249052D01*
X34026837Y-126362882D01*
X34073987Y-126476711D01*
X34202738Y-126686814D01*
X34362772Y-126874190D01*
X34550148Y-127034224D01*
X34760251Y-127162975D01*
X34987909Y-127257274D01*
X35227516Y-127314798D01*
X35473171Y-127334132D01*
X35718826Y-127314798D01*
X35958433Y-127257274D01*
X36186091Y-127162975D01*
X36396194Y-127034224D01*
X36583570Y-126874190D01*
X36743604Y-126686814D01*
X36872355Y-126476711D01*
X36966654Y-126249053D01*
X37024178Y-126009446D01*
X37043512Y-125763791D01*
X37024178Y-125518136D01*
X36966654Y-125278529D01*
X36872355Y-125050871D01*
X36743604Y-124840768D01*
X36583570Y-124653392D01*
X36396194Y-124493358D01*
X36186091Y-124364607D01*
X36072006Y-124317351D01*
X36019142Y-124275676D01*
X35995842Y-124212520D01*
X36008975Y-124146496D01*
X36054670Y-124097064D01*
X36119460Y-124078791D01*
X36485995Y-124078791D01*
X36545546Y-124072388D01*
X36680260Y-124022143D01*
X36795359Y-123935979D01*
X36881523Y-123820880D01*
X36931768Y-123686166D01*
X36938171Y-123626615D01*
X36938171Y-122913791D01*
X34008171Y-122913791D01*
X34008171Y-123626615D01*
X34014573Y-123686166D01*
X34064818Y-123820880D01*
X34150982Y-123935979D01*
X34266081Y-124022143D01*
X34400795Y-124072388D01*
X34460347Y-124078791D01*
X34826882Y-124078791D01*
X34891672Y-124097064D01*
X34937367Y-124146496D01*
X34950500Y-124212520D01*
X34927200Y-124275676D01*
X34874335Y-124317352D01*
X34760249Y-124364608D01*
X34550149Y-124493357D01*
X34362772Y-124653392D01*
X34202737Y-124840769D01*
X34073988Y-125050869D01*
X33979687Y-125278529D01*
X33922164Y-125518134D01*
X33902830Y-125763790D01*
X20000500Y-125763790D01*
X20000500Y-122413791D01*
X34008171Y-122413791D01*
X35223171Y-122413791D01*
X35223171Y-121248791D01*
X35723171Y-121248791D01*
X35723171Y-122413791D01*
X36938171Y-122413791D01*
X36938171Y-121700967D01*
X36931768Y-121641415D01*
X36881523Y-121506701D01*
X36795359Y-121391602D01*
X36680260Y-121305438D01*
X36545546Y-121255193D01*
X36485995Y-121248791D01*
X35723171Y-121248791D01*
X35223171Y-121248791D01*
X34460347Y-121248791D01*
X34400795Y-121255193D01*
X34266081Y-121305438D01*
X34150982Y-121391602D01*
X34064818Y-121506701D01*
X34014573Y-121641415D01*
X34008171Y-121700967D01*
X34008171Y-122413791D01*
X20000500Y-122413791D01*
X20000500Y-118396000D01*
X24591659Y-118396000D01*
X24610993Y-118641656D01*
X24668516Y-118881261D01*
X24715666Y-118995091D01*
X24762816Y-119108920D01*
X24891567Y-119319023D01*
X25051601Y-119506399D01*
X25238977Y-119666433D01*
X25449080Y-119795184D01*
X25676738Y-119889483D01*
X25916345Y-119947007D01*
X26162000Y-119966341D01*
X26407655Y-119947007D01*
X26647262Y-119889483D01*
X26874920Y-119795184D01*
X27085023Y-119666433D01*
X27272399Y-119506399D01*
X27432433Y-119319023D01*
X27561184Y-119108920D01*
X27655483Y-118881262D01*
X27713007Y-118641655D01*
X27732341Y-118396000D01*
X27713007Y-118150345D01*
X27711004Y-118142000D01*
X43133659Y-118142000D01*
X43152993Y-118387656D01*
X43210516Y-118627261D01*
X43216479Y-118641656D01*
X43304816Y-118854920D01*
X43433567Y-119065023D01*
X43593601Y-119252399D01*
X43780977Y-119412433D01*
X43991080Y-119541184D01*
X44218738Y-119635483D01*
X44458345Y-119693007D01*
X44704000Y-119712341D01*
X44949655Y-119693007D01*
X45189262Y-119635483D01*
X45416920Y-119541184D01*
X45627023Y-119412433D01*
X45814399Y-119252399D01*
X45974433Y-119065023D01*
X46103184Y-118854920D01*
X46197483Y-118627262D01*
X46255007Y-118387655D01*
X46274341Y-118142000D01*
X46255007Y-117896345D01*
X46197483Y-117656738D01*
X46103184Y-117429080D01*
X45974433Y-117218977D01*
X45814399Y-117031601D01*
X45627023Y-116871567D01*
X45416920Y-116742816D01*
X45303090Y-116695666D01*
X45189261Y-116648516D01*
X44949656Y-116590993D01*
X44704000Y-116571659D01*
X44458343Y-116590993D01*
X44218738Y-116648516D01*
X43991078Y-116742817D01*
X43780978Y-116871566D01*
X43593601Y-117031601D01*
X43433566Y-117218978D01*
X43304817Y-117429078D01*
X43210516Y-117656738D01*
X43152993Y-117896343D01*
X43133659Y-118142000D01*
X27711004Y-118142000D01*
X27655483Y-117910738D01*
X27561184Y-117683080D01*
X27432433Y-117472977D01*
X27272399Y-117285601D01*
X27085023Y-117125567D01*
X26874920Y-116996816D01*
X26761091Y-116949666D01*
X26647261Y-116902516D01*
X26407656Y-116844993D01*
X26162000Y-116825659D01*
X25916343Y-116844993D01*
X25676738Y-116902516D01*
X25449078Y-116996817D01*
X25238978Y-117125566D01*
X25051601Y-117285601D01*
X24891566Y-117472978D01*
X24762817Y-117683078D01*
X24668516Y-117910738D01*
X24610993Y-118150343D01*
X24591659Y-118396000D01*
X20000500Y-118396000D01*
X20000500Y-113439228D01*
X24657308Y-113439228D01*
X24671506Y-113685474D01*
X24725732Y-113926094D01*
X24725733Y-113926098D01*
X24725734Y-113926099D01*
X24818532Y-114154634D01*
X24947411Y-114364945D01*
X25108908Y-114551382D01*
X25298687Y-114708939D01*
X25511650Y-114833385D01*
X25511651Y-114833385D01*
X25511654Y-114833387D01*
X25742073Y-114921375D01*
X25742074Y-114921375D01*
X25742079Y-114921377D01*
X25983785Y-114970553D01*
X26230278Y-114979592D01*
X26474936Y-114948250D01*
X26711191Y-114877370D01*
X26932697Y-114768856D01*
X27133505Y-114625621D01*
X27308223Y-114451512D01*
X27452158Y-114251205D01*
X27561445Y-114030079D01*
X27633149Y-113794074D01*
X27635519Y-113776079D01*
X27665344Y-113549528D01*
X27665575Y-113540070D01*
X27667141Y-113476000D01*
X27646930Y-113230171D01*
X27646930Y-113230169D01*
X27635642Y-113185228D01*
X43199308Y-113185228D01*
X43213506Y-113431474D01*
X43267732Y-113672094D01*
X43267733Y-113672098D01*
X43267734Y-113672099D01*
X43360532Y-113900634D01*
X43489411Y-114110945D01*
X43650908Y-114297382D01*
X43840687Y-114454939D01*
X44053650Y-114579385D01*
X44053651Y-114579385D01*
X44053654Y-114579387D01*
X44284073Y-114667375D01*
X44284074Y-114667375D01*
X44284079Y-114667377D01*
X44525785Y-114716553D01*
X44772278Y-114725592D01*
X45016936Y-114694250D01*
X45253191Y-114623370D01*
X45474697Y-114514856D01*
X45675505Y-114371621D01*
X45850223Y-114197512D01*
X45994158Y-113997205D01*
X46103445Y-113776079D01*
X46175149Y-113540074D01*
X46183585Y-113476000D01*
X46207344Y-113295528D01*
X46207425Y-113292179D01*
X46209141Y-113222000D01*
X46190145Y-112990945D01*
X46188930Y-112976169D01*
X46128841Y-112736943D01*
X46038330Y-112528784D01*
X46030486Y-112510744D01*
X45896508Y-112303645D01*
X45730504Y-112121210D01*
X45536932Y-111968336D01*
X45320992Y-111849131D01*
X45264299Y-111829055D01*
X45088480Y-111766792D01*
X44845650Y-111723539D01*
X44722326Y-111722032D01*
X44599006Y-111720525D01*
X44599003Y-111720525D01*
X44355188Y-111757834D01*
X44120732Y-111834466D01*
X43901947Y-111948359D01*
X43704695Y-112096458D01*
X43534286Y-112274783D01*
X43395288Y-112478547D01*
X43291435Y-112702276D01*
X43225518Y-112939963D01*
X43199308Y-113185228D01*
X27635642Y-113185228D01*
X27586841Y-112990943D01*
X27488487Y-112764747D01*
X27488486Y-112764744D01*
X27354508Y-112557645D01*
X27188504Y-112375210D01*
X26994932Y-112222336D01*
X26778992Y-112103131D01*
X26722299Y-112083055D01*
X26546480Y-112020792D01*
X26303650Y-111977539D01*
X26180326Y-111976032D01*
X26057006Y-111974525D01*
X26057003Y-111974525D01*
X25813188Y-112011834D01*
X25578732Y-112088466D01*
X25359947Y-112202359D01*
X25162695Y-112350458D01*
X24992286Y-112528783D01*
X24853288Y-112732547D01*
X24749435Y-112956276D01*
X24683518Y-113193963D01*
X24661232Y-113402503D01*
X24658137Y-113431475D01*
X24657308Y-113439228D01*
X20000500Y-113439228D01*
X20000500Y-110095999D01*
X24591659Y-110095999D01*
X24610993Y-110341656D01*
X24668516Y-110581261D01*
X24715666Y-110695090D01*
X24762816Y-110808920D01*
X24891567Y-111019023D01*
X25051601Y-111206399D01*
X25238977Y-111366433D01*
X25449080Y-111495184D01*
X25676738Y-111589483D01*
X25916345Y-111647007D01*
X26162000Y-111666341D01*
X26407655Y-111647007D01*
X26647262Y-111589483D01*
X26874920Y-111495184D01*
X27085023Y-111366433D01*
X27272399Y-111206399D01*
X27432433Y-111019023D01*
X27561184Y-110808920D01*
X27655483Y-110581262D01*
X27713007Y-110341655D01*
X27732341Y-110096000D01*
X27713007Y-109850345D01*
X27711003Y-109841999D01*
X43133659Y-109841999D01*
X43152993Y-110087656D01*
X43210516Y-110327261D01*
X43216479Y-110341656D01*
X43304816Y-110554920D01*
X43433567Y-110765023D01*
X43593601Y-110952399D01*
X43780977Y-111112433D01*
X43991080Y-111241184D01*
X44218738Y-111335483D01*
X44458345Y-111393007D01*
X44704000Y-111412341D01*
X44949655Y-111393007D01*
X45189262Y-111335483D01*
X45416920Y-111241184D01*
X45627023Y-111112433D01*
X45814399Y-110952399D01*
X45974433Y-110765023D01*
X46103184Y-110554920D01*
X46197483Y-110327262D01*
X46255007Y-110087655D01*
X46274341Y-109842000D01*
X46255007Y-109596345D01*
X46197483Y-109356738D01*
X46103184Y-109129080D01*
X45974433Y-108918977D01*
X45814399Y-108731601D01*
X45627023Y-108571567D01*
X45416920Y-108442816D01*
X45302835Y-108395560D01*
X45249971Y-108353885D01*
X45226671Y-108290729D01*
X45239804Y-108224705D01*
X45285499Y-108175273D01*
X45350289Y-108157000D01*
X45716824Y-108157000D01*
X45776375Y-108150597D01*
X45911089Y-108100352D01*
X46026188Y-108014188D01*
X46112352Y-107899089D01*
X46162597Y-107764375D01*
X46169000Y-107704824D01*
X46169000Y-106992000D01*
X43239000Y-106992000D01*
X43239000Y-107704824D01*
X43245402Y-107764375D01*
X43295647Y-107899089D01*
X43381811Y-108014188D01*
X43496910Y-108100352D01*
X43631624Y-108150597D01*
X43691176Y-108157000D01*
X44057711Y-108157000D01*
X44122501Y-108175273D01*
X44168196Y-108224705D01*
X44181329Y-108290729D01*
X44158029Y-108353885D01*
X44105164Y-108395561D01*
X43991078Y-108442817D01*
X43780978Y-108571566D01*
X43593601Y-108731601D01*
X43433566Y-108918978D01*
X43304817Y-109129078D01*
X43210516Y-109356738D01*
X43152993Y-109596343D01*
X43133659Y-109841999D01*
X27711003Y-109841999D01*
X27655483Y-109610738D01*
X27561184Y-109383080D01*
X27432433Y-109172977D01*
X27272399Y-108985601D01*
X27085023Y-108825567D01*
X26874920Y-108696816D01*
X26760835Y-108649560D01*
X26707971Y-108607885D01*
X26684671Y-108544729D01*
X26697804Y-108478705D01*
X26743499Y-108429273D01*
X26808289Y-108411000D01*
X27174824Y-108411000D01*
X27234375Y-108404597D01*
X27369089Y-108354352D01*
X27484188Y-108268188D01*
X27570352Y-108153089D01*
X27620597Y-108018375D01*
X27627000Y-107958824D01*
X27627000Y-107246000D01*
X24697000Y-107246000D01*
X24697000Y-107958824D01*
X24703402Y-108018375D01*
X24753647Y-108153089D01*
X24839811Y-108268188D01*
X24954910Y-108354352D01*
X25089624Y-108404597D01*
X25149176Y-108411000D01*
X25515711Y-108411000D01*
X25580501Y-108429273D01*
X25626196Y-108478705D01*
X25639329Y-108544729D01*
X25616029Y-108607885D01*
X25563164Y-108649561D01*
X25449078Y-108696817D01*
X25238978Y-108825566D01*
X25051601Y-108985601D01*
X24891566Y-109172978D01*
X24762817Y-109383078D01*
X24668516Y-109610738D01*
X24610993Y-109850343D01*
X24591659Y-110095999D01*
X20000500Y-110095999D01*
X20000500Y-106746000D01*
X24697000Y-106746000D01*
X25912000Y-106746000D01*
X25912000Y-105581000D01*
X26412000Y-105581000D01*
X26412000Y-106746000D01*
X27627000Y-106746000D01*
X27627000Y-106492000D01*
X43239000Y-106492000D01*
X44454000Y-106492000D01*
X44454000Y-105327000D01*
X44954000Y-105327000D01*
X44954000Y-106492000D01*
X46169000Y-106492000D01*
X46169000Y-105779176D01*
X46162597Y-105719624D01*
X46112352Y-105584910D01*
X46026188Y-105469811D01*
X45911089Y-105383647D01*
X45776375Y-105333402D01*
X45716824Y-105327000D01*
X44954000Y-105327000D01*
X44454000Y-105327000D01*
X43691176Y-105327000D01*
X43631624Y-105333402D01*
X43496910Y-105383647D01*
X43381811Y-105469811D01*
X43295647Y-105584910D01*
X43245402Y-105719624D01*
X43239000Y-105779176D01*
X43239000Y-106492000D01*
X27627000Y-106492000D01*
X27627000Y-106033176D01*
X27620597Y-105973624D01*
X27570352Y-105838910D01*
X27484188Y-105723811D01*
X27369089Y-105637647D01*
X27234375Y-105587402D01*
X27174824Y-105581000D01*
X26412000Y-105581000D01*
X25912000Y-105581000D01*
X25149176Y-105581000D01*
X25089624Y-105587402D01*
X24954910Y-105637647D01*
X24839811Y-105723811D01*
X24753647Y-105838910D01*
X24703402Y-105973624D01*
X24697000Y-106033176D01*
X24697000Y-106746000D01*
X20000500Y-106746000D01*
X20000500Y-94703692D01*
X32306500Y-94703692D01*
X32309402Y-94740572D01*
X32355255Y-94898397D01*
X32355256Y-94898398D01*
X32438919Y-95039865D01*
X32555135Y-95156081D01*
X32696601Y-95239743D01*
X32696602Y-95239744D01*
X32854427Y-95285597D01*
X32854431Y-95285598D01*
X32891306Y-95288500D01*
X34672692Y-95288500D01*
X34672694Y-95288500D01*
X34709569Y-95285598D01*
X34867398Y-95239744D01*
X35008865Y-95156081D01*
X35125081Y-95039865D01*
X35208744Y-94898398D01*
X35254598Y-94740569D01*
X35257500Y-94703694D01*
X35257500Y-94703692D01*
X37256500Y-94703692D01*
X37259402Y-94740572D01*
X37305255Y-94898397D01*
X37305256Y-94898398D01*
X37388919Y-95039865D01*
X37505135Y-95156081D01*
X37646601Y-95239743D01*
X37646602Y-95239744D01*
X37804427Y-95285597D01*
X37804431Y-95285598D01*
X37841306Y-95288500D01*
X39622692Y-95288500D01*
X39622694Y-95288500D01*
X39659569Y-95285598D01*
X39817398Y-95239744D01*
X39958865Y-95156081D01*
X40075081Y-95039865D01*
X40158744Y-94898398D01*
X40204598Y-94740569D01*
X40207500Y-94703694D01*
X40207500Y-94272306D01*
X40204598Y-94235431D01*
X40158744Y-94077602D01*
X40075081Y-93936135D01*
X40075080Y-93936134D01*
X40067107Y-93922652D01*
X40068680Y-93921721D01*
X40047533Y-93885094D01*
X40047533Y-93820906D01*
X40068680Y-93784278D01*
X40067107Y-93783348D01*
X40075081Y-93769865D01*
X40158744Y-93628398D01*
X40204598Y-93470569D01*
X40207500Y-93433694D01*
X40207500Y-93002306D01*
X40204598Y-92965431D01*
X40158744Y-92807602D01*
X40075081Y-92666135D01*
X40075080Y-92666134D01*
X40067107Y-92652652D01*
X40068680Y-92651721D01*
X40047533Y-92615094D01*
X40047533Y-92550906D01*
X40068680Y-92514278D01*
X40067107Y-92513348D01*
X40075081Y-92499865D01*
X40158744Y-92358398D01*
X40204598Y-92200569D01*
X40207500Y-92163694D01*
X40207500Y-91732306D01*
X40204598Y-91695431D01*
X40158744Y-91537602D01*
X40075081Y-91396135D01*
X40075080Y-91396134D01*
X40067107Y-91382652D01*
X40068680Y-91381721D01*
X40047533Y-91345094D01*
X40047533Y-91280906D01*
X40068680Y-91244278D01*
X40067107Y-91243348D01*
X40075081Y-91229865D01*
X40158744Y-91088398D01*
X40204598Y-90930569D01*
X40207500Y-90893694D01*
X40207500Y-90462306D01*
X40204598Y-90425431D01*
X40158744Y-90267602D01*
X40075081Y-90126135D01*
X39958865Y-90009919D01*
X39958864Y-90009918D01*
X39817397Y-89926255D01*
X39659572Y-89880402D01*
X39637444Y-89878660D01*
X39622694Y-89877500D01*
X37841306Y-89877500D01*
X37829014Y-89878467D01*
X37804427Y-89880402D01*
X37646602Y-89926255D01*
X37505134Y-90009919D01*
X37388919Y-90126134D01*
X37305255Y-90267602D01*
X37259402Y-90425427D01*
X37256500Y-90462308D01*
X37256500Y-90893692D01*
X37259402Y-90930572D01*
X37305255Y-91088397D01*
X37396893Y-91243348D01*
X37395319Y-91244278D01*
X37416467Y-91280906D01*
X37416467Y-91345094D01*
X37395319Y-91381721D01*
X37396893Y-91382652D01*
X37305255Y-91537602D01*
X37259402Y-91695427D01*
X37256500Y-91732308D01*
X37256500Y-92163692D01*
X37259402Y-92200572D01*
X37305255Y-92358397D01*
X37396893Y-92513348D01*
X37395319Y-92514278D01*
X37416467Y-92550906D01*
X37416467Y-92615094D01*
X37395319Y-92651721D01*
X37396893Y-92652652D01*
X37305255Y-92807602D01*
X37259402Y-92965427D01*
X37256500Y-93002308D01*
X37256500Y-93433692D01*
X37259402Y-93470572D01*
X37305255Y-93628397D01*
X37396893Y-93783348D01*
X37395319Y-93784278D01*
X37416467Y-93820906D01*
X37416467Y-93885094D01*
X37395319Y-93921721D01*
X37396893Y-93922652D01*
X37305255Y-94077602D01*
X37259402Y-94235427D01*
X37256500Y-94272308D01*
X37256500Y-94703692D01*
X35257500Y-94703692D01*
X35257500Y-94272306D01*
X35254598Y-94235431D01*
X35208744Y-94077602D01*
X35125081Y-93936135D01*
X35125080Y-93936134D01*
X35117107Y-93922652D01*
X35118680Y-93921721D01*
X35097533Y-93885094D01*
X35097533Y-93820906D01*
X35118680Y-93784278D01*
X35117107Y-93783348D01*
X35125081Y-93769865D01*
X35208744Y-93628398D01*
X35254598Y-93470569D01*
X35257500Y-93433694D01*
X35257500Y-93002306D01*
X35254598Y-92965431D01*
X35208744Y-92807602D01*
X35125081Y-92666135D01*
X35125080Y-92666134D01*
X35117107Y-92652652D01*
X35118680Y-92651721D01*
X35097533Y-92615094D01*
X35097533Y-92550906D01*
X35118680Y-92514278D01*
X35117107Y-92513348D01*
X35125081Y-92499865D01*
X35208744Y-92358398D01*
X35254598Y-92200569D01*
X35257500Y-92163694D01*
X35257500Y-91732306D01*
X35254598Y-91695431D01*
X35208744Y-91537602D01*
X35125081Y-91396135D01*
X35125080Y-91396134D01*
X35117107Y-91382652D01*
X35118680Y-91381721D01*
X35097533Y-91345094D01*
X35097533Y-91280906D01*
X35118680Y-91244278D01*
X35117107Y-91243348D01*
X35125081Y-91229865D01*
X35208744Y-91088398D01*
X35254598Y-90930569D01*
X35257500Y-90893694D01*
X35257500Y-90462306D01*
X35254598Y-90425431D01*
X35208744Y-90267602D01*
X35125081Y-90126135D01*
X35008865Y-90009919D01*
X35008864Y-90009918D01*
X34867397Y-89926255D01*
X34709572Y-89880402D01*
X34687444Y-89878660D01*
X34672694Y-89877500D01*
X32891306Y-89877500D01*
X32879014Y-89878467D01*
X32854427Y-89880402D01*
X32696602Y-89926255D01*
X32555134Y-90009919D01*
X32438919Y-90126134D01*
X32355255Y-90267602D01*
X32309402Y-90425427D01*
X32306500Y-90462308D01*
X32306500Y-90893692D01*
X32309402Y-90930572D01*
X32355255Y-91088397D01*
X32446893Y-91243348D01*
X32445319Y-91244278D01*
X32466467Y-91280906D01*
X32466467Y-91345094D01*
X32445319Y-91381721D01*
X32446893Y-91382652D01*
X32355255Y-91537602D01*
X32309402Y-91695427D01*
X32306500Y-91732308D01*
X32306500Y-92163692D01*
X32309402Y-92200572D01*
X32355255Y-92358397D01*
X32446893Y-92513348D01*
X32445319Y-92514278D01*
X32466467Y-92550906D01*
X32466467Y-92615094D01*
X32445319Y-92651721D01*
X32446893Y-92652652D01*
X32355255Y-92807602D01*
X32309402Y-92965427D01*
X32306500Y-93002308D01*
X32306500Y-93433692D01*
X32309402Y-93470572D01*
X32355255Y-93628397D01*
X32446893Y-93783348D01*
X32445319Y-93784278D01*
X32466467Y-93820906D01*
X32466467Y-93885094D01*
X32445319Y-93921721D01*
X32446893Y-93922652D01*
X32355255Y-94077602D01*
X32309402Y-94235427D01*
X32306500Y-94272308D01*
X32306500Y-94703692D01*
X20000500Y-94703692D01*
X20000500Y-88253692D01*
X32306500Y-88253692D01*
X32309402Y-88290572D01*
X32355255Y-88448397D01*
X32355256Y-88448398D01*
X32438919Y-88589865D01*
X32555135Y-88706081D01*
X32696602Y-88789744D01*
X32854427Y-88835597D01*
X32854431Y-88835598D01*
X32891306Y-88838500D01*
X34672692Y-88838500D01*
X34672694Y-88838500D01*
X34709569Y-88835598D01*
X34867398Y-88789744D01*
X35008865Y-88706081D01*
X35125081Y-88589865D01*
X35208744Y-88448398D01*
X35254598Y-88290569D01*
X35257500Y-88253694D01*
X35257500Y-88253692D01*
X37256500Y-88253692D01*
X37259402Y-88290572D01*
X37305255Y-88448397D01*
X37305256Y-88448398D01*
X37388919Y-88589865D01*
X37505135Y-88706081D01*
X37646602Y-88789744D01*
X37804427Y-88835597D01*
X37804431Y-88835598D01*
X37841306Y-88838500D01*
X39622692Y-88838500D01*
X39622694Y-88838500D01*
X39659569Y-88835598D01*
X39817398Y-88789744D01*
X39958865Y-88706081D01*
X40075081Y-88589865D01*
X40158744Y-88448398D01*
X40204598Y-88290569D01*
X40207500Y-88253694D01*
X40207500Y-87822306D01*
X40204598Y-87785431D01*
X40158744Y-87627602D01*
X40075081Y-87486135D01*
X40075080Y-87486134D01*
X40067107Y-87472652D01*
X40068680Y-87471721D01*
X40047533Y-87435094D01*
X40047533Y-87370906D01*
X40068680Y-87334278D01*
X40067107Y-87333348D01*
X40123791Y-87237500D01*
X40158744Y-87178398D01*
X40204598Y-87020569D01*
X40207500Y-86983694D01*
X40207500Y-86552306D01*
X40204598Y-86515431D01*
X40158744Y-86357602D01*
X40075081Y-86216135D01*
X40075080Y-86216134D01*
X40067107Y-86202652D01*
X40068680Y-86201721D01*
X40047533Y-86165094D01*
X40047533Y-86100906D01*
X40068680Y-86064278D01*
X40067107Y-86063348D01*
X40075081Y-86049865D01*
X40158744Y-85908398D01*
X40204598Y-85750569D01*
X40207500Y-85713694D01*
X40207500Y-85282306D01*
X40204598Y-85245431D01*
X40158744Y-85087602D01*
X40075081Y-84946135D01*
X40075080Y-84946134D01*
X40067107Y-84932652D01*
X40068680Y-84931721D01*
X40047533Y-84895094D01*
X40047533Y-84830906D01*
X40068680Y-84794278D01*
X40067107Y-84793348D01*
X40075081Y-84779865D01*
X40158744Y-84638398D01*
X40204598Y-84480569D01*
X40207500Y-84443694D01*
X40207500Y-84012306D01*
X40204598Y-83975431D01*
X40158744Y-83817602D01*
X40075081Y-83676135D01*
X39958865Y-83559919D01*
X39817397Y-83476255D01*
X39659572Y-83430402D01*
X39637443Y-83428660D01*
X39622694Y-83427500D01*
X37841306Y-83427500D01*
X37829014Y-83428467D01*
X37804427Y-83430402D01*
X37646602Y-83476255D01*
X37505134Y-83559919D01*
X37388919Y-83676134D01*
X37305255Y-83817602D01*
X37259402Y-83975427D01*
X37256500Y-84012308D01*
X37256500Y-84443692D01*
X37259402Y-84480572D01*
X37305255Y-84638397D01*
X37396893Y-84793348D01*
X37395319Y-84794278D01*
X37416467Y-84830906D01*
X37416467Y-84895094D01*
X37395319Y-84931721D01*
X37396893Y-84932652D01*
X37305255Y-85087602D01*
X37259402Y-85245427D01*
X37256500Y-85282308D01*
X37256500Y-85713692D01*
X37259402Y-85750572D01*
X37305255Y-85908397D01*
X37396893Y-86063348D01*
X37395319Y-86064278D01*
X37416467Y-86100906D01*
X37416467Y-86165094D01*
X37395319Y-86201721D01*
X37396893Y-86202652D01*
X37305255Y-86357602D01*
X37259402Y-86515427D01*
X37256500Y-86552308D01*
X37256500Y-86983692D01*
X37259402Y-87020572D01*
X37305255Y-87178397D01*
X37396893Y-87333348D01*
X37395319Y-87334278D01*
X37416467Y-87370906D01*
X37416467Y-87435094D01*
X37395319Y-87471721D01*
X37396893Y-87472652D01*
X37305255Y-87627602D01*
X37259402Y-87785427D01*
X37256500Y-87822308D01*
X37256500Y-88253692D01*
X35257500Y-88253692D01*
X35257500Y-87822306D01*
X35254598Y-87785431D01*
X35208744Y-87627602D01*
X35125081Y-87486135D01*
X35125080Y-87486134D01*
X35117107Y-87472652D01*
X35118569Y-87471786D01*
X35097178Y-87434733D01*
X35097182Y-87370540D01*
X35118296Y-87333979D01*
X35116709Y-87333040D01*
X35208280Y-87178200D01*
X35254099Y-87020488D01*
X35254295Y-87018000D01*
X32309704Y-87018000D01*
X32309900Y-87020488D01*
X32355719Y-87178200D01*
X32447291Y-87333040D01*
X32445703Y-87333978D01*
X32466817Y-87370547D01*
X32466822Y-87434728D01*
X32445431Y-87471787D01*
X32446893Y-87472652D01*
X32355255Y-87627602D01*
X32309402Y-87785427D01*
X32306500Y-87822308D01*
X32306500Y-88253692D01*
X20000500Y-88253692D01*
X20000500Y-85713692D01*
X32306500Y-85713692D01*
X32309402Y-85750572D01*
X32355255Y-85908397D01*
X32446893Y-86063348D01*
X32445430Y-86064212D01*
X32466819Y-86101256D01*
X32466821Y-86165440D01*
X32445703Y-86202022D01*
X32447291Y-86202961D01*
X32355719Y-86357799D01*
X32309900Y-86515511D01*
X32309704Y-86517999D01*
X32309705Y-86518000D01*
X35254295Y-86518000D01*
X35254295Y-86517999D01*
X35254099Y-86515511D01*
X35208280Y-86357799D01*
X35116709Y-86202960D01*
X35118296Y-86202020D01*
X35097179Y-86165444D01*
X35097182Y-86101254D01*
X35118569Y-86064213D01*
X35117107Y-86063349D01*
X35153066Y-86002543D01*
X35208744Y-85908398D01*
X35254598Y-85750569D01*
X35257500Y-85713694D01*
X35257500Y-85282306D01*
X35254598Y-85245431D01*
X35208744Y-85087602D01*
X35125081Y-84946135D01*
X35125080Y-84946134D01*
X35117107Y-84932652D01*
X35118680Y-84931721D01*
X35097533Y-84895094D01*
X35097533Y-84830906D01*
X35118680Y-84794278D01*
X35117107Y-84793348D01*
X35125081Y-84779865D01*
X35208744Y-84638398D01*
X35254598Y-84480569D01*
X35257500Y-84443694D01*
X35257500Y-84012306D01*
X35254598Y-83975431D01*
X35208744Y-83817602D01*
X35125081Y-83676135D01*
X35008865Y-83559919D01*
X34867397Y-83476255D01*
X34709572Y-83430402D01*
X34687443Y-83428660D01*
X34672694Y-83427500D01*
X32891306Y-83427500D01*
X32879014Y-83428467D01*
X32854427Y-83430402D01*
X32696602Y-83476255D01*
X32555134Y-83559919D01*
X32438919Y-83676134D01*
X32355255Y-83817602D01*
X32309402Y-83975427D01*
X32306500Y-84012308D01*
X32306500Y-84443692D01*
X32309402Y-84480572D01*
X32355255Y-84638397D01*
X32446893Y-84793348D01*
X32445319Y-84794278D01*
X32466467Y-84830906D01*
X32466467Y-84895094D01*
X32445319Y-84931721D01*
X32446893Y-84932652D01*
X32355255Y-85087602D01*
X32309402Y-85245427D01*
X32306500Y-85282308D01*
X32306500Y-85713692D01*
X20000500Y-85713692D01*
X20000500Y-75395000D01*
X33959704Y-75395000D01*
X33959900Y-75397488D01*
X34005719Y-75555200D01*
X34089317Y-75696557D01*
X34205442Y-75812682D01*
X34346802Y-75896282D01*
X34504506Y-75942099D01*
X34541361Y-75945000D01*
X34869500Y-75945000D01*
X34869500Y-75395000D01*
X35369500Y-75395000D01*
X35369500Y-75945000D01*
X35697639Y-75945000D01*
X35734493Y-75942099D01*
X35892197Y-75896282D01*
X36033557Y-75812682D01*
X36149682Y-75696557D01*
X36233280Y-75555200D01*
X36279099Y-75397488D01*
X36279295Y-75395000D01*
X35369500Y-75395000D01*
X34869500Y-75395000D01*
X33959704Y-75395000D01*
X20000500Y-75395000D01*
X20000500Y-74894999D01*
X33959704Y-74894999D01*
X33959705Y-74895000D01*
X34869500Y-74895000D01*
X34869500Y-74345000D01*
X34541361Y-74345000D01*
X34504506Y-74347900D01*
X34346802Y-74393717D01*
X34205442Y-74477317D01*
X34089317Y-74593442D01*
X34005719Y-74734799D01*
X33959900Y-74892511D01*
X33959704Y-74894999D01*
X20000500Y-74894999D01*
X20000500Y-73460692D01*
X33956500Y-73460692D01*
X33959402Y-73497572D01*
X34005255Y-73655397D01*
X34005256Y-73655398D01*
X34088919Y-73796865D01*
X34205135Y-73913081D01*
X34269784Y-73951314D01*
X34346602Y-73996744D01*
X34504427Y-74042597D01*
X34504431Y-74042598D01*
X34541306Y-74045500D01*
X35697692Y-74045500D01*
X35697694Y-74045500D01*
X35734569Y-74042598D01*
X35892398Y-73996744D01*
X36033865Y-73913081D01*
X36033865Y-73913080D01*
X36044379Y-73906863D01*
X36106526Y-73889599D01*
X36168937Y-73905885D01*
X36214724Y-73951314D01*
X36231500Y-74013595D01*
X36231500Y-74376985D01*
X36214724Y-74439266D01*
X36168937Y-74484695D01*
X36106526Y-74500981D01*
X36044379Y-74483717D01*
X35892197Y-74393717D01*
X35734493Y-74347900D01*
X35697639Y-74345000D01*
X35369500Y-74345000D01*
X35369500Y-74895000D01*
X36279296Y-74895000D01*
X36303559Y-74868752D01*
X36359397Y-74834029D01*
X36425138Y-74832738D01*
X36466103Y-74856033D01*
X36466652Y-74855107D01*
X36480134Y-74863080D01*
X36480135Y-74863081D01*
X36621601Y-74946743D01*
X36621602Y-74946744D01*
X36779427Y-74992597D01*
X36779431Y-74992598D01*
X36816306Y-74995500D01*
X37972692Y-74995500D01*
X37972694Y-74995500D01*
X38009569Y-74992598D01*
X38167398Y-74946744D01*
X38308865Y-74863081D01*
X38425081Y-74746865D01*
X38508744Y-74605398D01*
X38554598Y-74447569D01*
X38557500Y-74410694D01*
X38557500Y-73979306D01*
X38554598Y-73942431D01*
X38544264Y-73906863D01*
X38508744Y-73784602D01*
X38432333Y-73655398D01*
X38425081Y-73643135D01*
X38308865Y-73526919D01*
X38259237Y-73497569D01*
X38167397Y-73443255D01*
X38009572Y-73397402D01*
X37987444Y-73395660D01*
X37972694Y-73394500D01*
X36816306Y-73394500D01*
X36804014Y-73395467D01*
X36779427Y-73397402D01*
X36621602Y-73443255D01*
X36469621Y-73533137D01*
X36407474Y-73550401D01*
X36345063Y-73534115D01*
X36299276Y-73488686D01*
X36282500Y-73426405D01*
X36282500Y-73029308D01*
X36282500Y-73029306D01*
X36279598Y-72992431D01*
X36233744Y-72834602D01*
X36150081Y-72693135D01*
X36033865Y-72576919D01*
X36033864Y-72576918D01*
X35892397Y-72493255D01*
X35734572Y-72447402D01*
X35712444Y-72445660D01*
X35697694Y-72444500D01*
X34541306Y-72444500D01*
X34529014Y-72445467D01*
X34504427Y-72447402D01*
X34346602Y-72493255D01*
X34205134Y-72576919D01*
X34088919Y-72693134D01*
X34005255Y-72834602D01*
X33959402Y-72992427D01*
X33956500Y-73029308D01*
X33956500Y-73460692D01*
X20000500Y-73460692D01*
X20000500Y-70910692D01*
X33956500Y-70910692D01*
X33959402Y-70947572D01*
X34005255Y-71105397D01*
X34005256Y-71105398D01*
X34088919Y-71246865D01*
X34205135Y-71363081D01*
X34346602Y-71446744D01*
X34504427Y-71492597D01*
X34504431Y-71492598D01*
X34541306Y-71495500D01*
X35697692Y-71495500D01*
X35697694Y-71495500D01*
X35734569Y-71492598D01*
X35892398Y-71446744D01*
X36033865Y-71363081D01*
X36150081Y-71246865D01*
X36233744Y-71105398D01*
X36279598Y-70947569D01*
X36282500Y-70910694D01*
X36282500Y-70513595D01*
X36299276Y-70451314D01*
X36345063Y-70405885D01*
X36407474Y-70389599D01*
X36469621Y-70406863D01*
X36621602Y-70496744D01*
X36779427Y-70542597D01*
X36779431Y-70542598D01*
X36816306Y-70545500D01*
X37972692Y-70545500D01*
X37972694Y-70545500D01*
X38009569Y-70542598D01*
X38167398Y-70496744D01*
X38308865Y-70413081D01*
X38425081Y-70296865D01*
X38508744Y-70155398D01*
X38554598Y-69997569D01*
X38557500Y-69960694D01*
X38557500Y-69529306D01*
X38554598Y-69492431D01*
X38544264Y-69456863D01*
X38508744Y-69334602D01*
X38432333Y-69205398D01*
X38425081Y-69193135D01*
X38308865Y-69076919D01*
X38259237Y-69047569D01*
X38167397Y-68993255D01*
X38009572Y-68947402D01*
X37987444Y-68945660D01*
X37972694Y-68944500D01*
X36816306Y-68944500D01*
X36804014Y-68945467D01*
X36779427Y-68947402D01*
X36621602Y-68993255D01*
X36469621Y-69083137D01*
X36407474Y-69100401D01*
X36345063Y-69084115D01*
X36299276Y-69038686D01*
X36282500Y-68976405D01*
X36282500Y-68579308D01*
X36282500Y-68579306D01*
X36279598Y-68542431D01*
X36233744Y-68384602D01*
X36150081Y-68243135D01*
X36033865Y-68126919D01*
X35892397Y-68043255D01*
X35734572Y-67997402D01*
X35712443Y-67995660D01*
X35697694Y-67994500D01*
X34541306Y-67994500D01*
X34529014Y-67995467D01*
X34504427Y-67997402D01*
X34346602Y-68043255D01*
X34205134Y-68126919D01*
X34088919Y-68243134D01*
X34005255Y-68384602D01*
X33959402Y-68542427D01*
X33956500Y-68579308D01*
X33956500Y-69010692D01*
X33959402Y-69047572D01*
X34005255Y-69205397D01*
X34005256Y-69205398D01*
X34088919Y-69346865D01*
X34205135Y-69463081D01*
X34269784Y-69501314D01*
X34346602Y-69546744D01*
X34504427Y-69592597D01*
X34504431Y-69592598D01*
X34541306Y-69595500D01*
X35697692Y-69595500D01*
X35697694Y-69595500D01*
X35734569Y-69592598D01*
X35892398Y-69546744D01*
X36033865Y-69463081D01*
X36033865Y-69463080D01*
X36044379Y-69456863D01*
X36106526Y-69439599D01*
X36168937Y-69455885D01*
X36214724Y-69501314D01*
X36231500Y-69563595D01*
X36231500Y-69926405D01*
X36214724Y-69988686D01*
X36168937Y-70034115D01*
X36106526Y-70050401D01*
X36044379Y-70033137D01*
X35892397Y-69943255D01*
X35734572Y-69897402D01*
X35712444Y-69895660D01*
X35697694Y-69894500D01*
X34541306Y-69894500D01*
X34529014Y-69895467D01*
X34504427Y-69897402D01*
X34346602Y-69943255D01*
X34205134Y-70026919D01*
X34088919Y-70143134D01*
X34005255Y-70284602D01*
X33959402Y-70442427D01*
X33956500Y-70479308D01*
X33956500Y-70910692D01*
X20000500Y-70910692D01*
X20000500Y-56185342D01*
X28007500Y-56185342D01*
X28018070Y-56288814D01*
X28073623Y-56456464D01*
X28166339Y-56606778D01*
X28291221Y-56731660D01*
X28441535Y-56824376D01*
X28441537Y-56824376D01*
X28441538Y-56824377D01*
X28609185Y-56879929D01*
X28712658Y-56890500D01*
X33303342Y-56890500D01*
X33406815Y-56879929D01*
X33574462Y-56824377D01*
X33724778Y-56731660D01*
X33849660Y-56606778D01*
X33942377Y-56456462D01*
X33997929Y-56288815D01*
X34008500Y-56185342D01*
X35607500Y-56185342D01*
X35618070Y-56288814D01*
X35673623Y-56456464D01*
X35766339Y-56606778D01*
X35891221Y-56731660D01*
X36041535Y-56824376D01*
X36041537Y-56824376D01*
X36041538Y-56824377D01*
X36209185Y-56879929D01*
X36312658Y-56890500D01*
X40903342Y-56890500D01*
X41006815Y-56879929D01*
X41174462Y-56824377D01*
X41324778Y-56731660D01*
X41449660Y-56606778D01*
X41542377Y-56456462D01*
X41597929Y-56288815D01*
X41608500Y-56185342D01*
X41608500Y-55574658D01*
X41597929Y-55471185D01*
X41542377Y-55303538D01*
X41542376Y-55303537D01*
X41542376Y-55303535D01*
X41449660Y-55153221D01*
X41324778Y-55028339D01*
X41174464Y-54935623D01*
X41006814Y-54880070D01*
X40903342Y-54869500D01*
X36312658Y-54869500D01*
X36209185Y-54880070D01*
X36041535Y-54935623D01*
X35891221Y-55028339D01*
X35766339Y-55153221D01*
X35673623Y-55303535D01*
X35618070Y-55471185D01*
X35607500Y-55574658D01*
X35607500Y-56185342D01*
X34008500Y-56185342D01*
X34008500Y-55574658D01*
X33997929Y-55471185D01*
X33942377Y-55303538D01*
X33942376Y-55303537D01*
X33942376Y-55303535D01*
X33849660Y-55153221D01*
X33724778Y-55028339D01*
X33574464Y-54935623D01*
X33406814Y-54880070D01*
X33303342Y-54869500D01*
X28712658Y-54869500D01*
X28609185Y-54880070D01*
X28441535Y-54935623D01*
X28291221Y-55028339D01*
X28166339Y-55153221D01*
X28073623Y-55303535D01*
X28018070Y-55471185D01*
X28007500Y-55574658D01*
X28007500Y-56185342D01*
X20000500Y-56185342D01*
X20000500Y-53645342D01*
X28007500Y-53645342D01*
X28018070Y-53748814D01*
X28073623Y-53916464D01*
X28166339Y-54066778D01*
X28291221Y-54191660D01*
X28441535Y-54284376D01*
X28441537Y-54284376D01*
X28441538Y-54284377D01*
X28609185Y-54339929D01*
X28712658Y-54350500D01*
X33303342Y-54350500D01*
X33406815Y-54339929D01*
X33574462Y-54284377D01*
X33724778Y-54191660D01*
X33849660Y-54066778D01*
X33942377Y-53916462D01*
X33997929Y-53748815D01*
X34008500Y-53645342D01*
X35607500Y-53645342D01*
X35618070Y-53748814D01*
X35673623Y-53916464D01*
X35766339Y-54066778D01*
X35891221Y-54191660D01*
X36041535Y-54284376D01*
X36041537Y-54284376D01*
X36041538Y-54284377D01*
X36209185Y-54339929D01*
X36312658Y-54350500D01*
X40903342Y-54350500D01*
X41006815Y-54339929D01*
X41174462Y-54284377D01*
X41324778Y-54191660D01*
X41449660Y-54066778D01*
X41542377Y-53916462D01*
X41597929Y-53748815D01*
X41608500Y-53645342D01*
X41608500Y-53034658D01*
X41597929Y-52931185D01*
X41542377Y-52763538D01*
X41542376Y-52763537D01*
X41542376Y-52763535D01*
X41449660Y-52613221D01*
X41324778Y-52488339D01*
X41174464Y-52395623D01*
X41006814Y-52340070D01*
X40903342Y-52329500D01*
X36312658Y-52329500D01*
X36209185Y-52340070D01*
X36041535Y-52395623D01*
X35891221Y-52488339D01*
X35766339Y-52613221D01*
X35673623Y-52763535D01*
X35618070Y-52931185D01*
X35607500Y-53034658D01*
X35607500Y-53645342D01*
X34008500Y-53645342D01*
X34008500Y-53034658D01*
X33997929Y-52931185D01*
X33942377Y-52763538D01*
X33942376Y-52763537D01*
X33942376Y-52763535D01*
X33849660Y-52613221D01*
X33724778Y-52488339D01*
X33574464Y-52395623D01*
X33406814Y-52340070D01*
X33303342Y-52329500D01*
X28712658Y-52329500D01*
X28609185Y-52340070D01*
X28441535Y-52395623D01*
X28291221Y-52488339D01*
X28166339Y-52613221D01*
X28073623Y-52763535D01*
X28018070Y-52931185D01*
X28007500Y-53034658D01*
X28007500Y-53645342D01*
X20000500Y-53645342D01*
X20000500Y-51105342D01*
X28007500Y-51105342D01*
X28018070Y-51208814D01*
X28073623Y-51376464D01*
X28166339Y-51526778D01*
X28291221Y-51651660D01*
X28441535Y-51744376D01*
X28441537Y-51744376D01*
X28441538Y-51744377D01*
X28609185Y-51799929D01*
X28712658Y-51810500D01*
X33303342Y-51810500D01*
X33406815Y-51799929D01*
X33574462Y-51744377D01*
X33724778Y-51651660D01*
X33849660Y-51526778D01*
X33942377Y-51376462D01*
X33997929Y-51208815D01*
X34008500Y-51105342D01*
X35607500Y-51105342D01*
X35618070Y-51208814D01*
X35673623Y-51376464D01*
X35766339Y-51526778D01*
X35891221Y-51651660D01*
X36041535Y-51744376D01*
X36041537Y-51744376D01*
X36041538Y-51744377D01*
X36209185Y-51799929D01*
X36312658Y-51810500D01*
X40903342Y-51810500D01*
X41006815Y-51799929D01*
X41174462Y-51744377D01*
X41324778Y-51651660D01*
X41449660Y-51526778D01*
X41542377Y-51376462D01*
X41597929Y-51208815D01*
X41608500Y-51105342D01*
X41608500Y-50494658D01*
X41597929Y-50391185D01*
X41542377Y-50223538D01*
X41542376Y-50223537D01*
X41542376Y-50223535D01*
X41449660Y-50073221D01*
X41324778Y-49948339D01*
X41174464Y-49855623D01*
X41006814Y-49800070D01*
X40903342Y-49789500D01*
X36312658Y-49789500D01*
X36209185Y-49800070D01*
X36041535Y-49855623D01*
X35891221Y-49948339D01*
X35766339Y-50073221D01*
X35673623Y-50223535D01*
X35618070Y-50391185D01*
X35607500Y-50494658D01*
X35607500Y-51105342D01*
X34008500Y-51105342D01*
X34008500Y-50494658D01*
X33997929Y-50391185D01*
X33942377Y-50223538D01*
X33942376Y-50223537D01*
X33942376Y-50223535D01*
X33849660Y-50073221D01*
X33724778Y-49948339D01*
X33574464Y-49855623D01*
X33406814Y-49800070D01*
X33303342Y-49789500D01*
X28712658Y-49789500D01*
X28609185Y-49800070D01*
X28441535Y-49855623D01*
X28291221Y-49948339D01*
X28166339Y-50073221D01*
X28073623Y-50223535D01*
X28018070Y-50391185D01*
X28007500Y-50494658D01*
X28007500Y-51105342D01*
X20000500Y-51105342D01*
X20000500Y-48565342D01*
X28007500Y-48565342D01*
X28018070Y-48668814D01*
X28073623Y-48836464D01*
X28166339Y-48986778D01*
X28291221Y-49111660D01*
X28441535Y-49204376D01*
X28441537Y-49204376D01*
X28441538Y-49204377D01*
X28609185Y-49259929D01*
X28712658Y-49270500D01*
X33303342Y-49270500D01*
X33406815Y-49259929D01*
X33574462Y-49204377D01*
X33724778Y-49111660D01*
X33849660Y-48986778D01*
X33942377Y-48836462D01*
X33997929Y-48668815D01*
X34008500Y-48565342D01*
X35607500Y-48565342D01*
X35618070Y-48668814D01*
X35673623Y-48836464D01*
X35766339Y-48986778D01*
X35891221Y-49111660D01*
X36041535Y-49204376D01*
X36041537Y-49204376D01*
X36041538Y-49204377D01*
X36209185Y-49259929D01*
X36312658Y-49270500D01*
X40903342Y-49270500D01*
X41006815Y-49259929D01*
X41174462Y-49204377D01*
X41324778Y-49111660D01*
X41449660Y-48986778D01*
X41542377Y-48836462D01*
X41597929Y-48668815D01*
X41608500Y-48565342D01*
X41608500Y-47954658D01*
X41597929Y-47851185D01*
X41542377Y-47683538D01*
X41542376Y-47683537D01*
X41542376Y-47683535D01*
X41449660Y-47533221D01*
X41324778Y-47408339D01*
X41174464Y-47315623D01*
X41006814Y-47260070D01*
X40903342Y-47249500D01*
X36312658Y-47249500D01*
X36209185Y-47260070D01*
X36041535Y-47315623D01*
X35891221Y-47408339D01*
X35766339Y-47533221D01*
X35673623Y-47683535D01*
X35618070Y-47851185D01*
X35607500Y-47954658D01*
X35607500Y-48565342D01*
X34008500Y-48565342D01*
X34008500Y-47954658D01*
X33997929Y-47851185D01*
X33942377Y-47683538D01*
X33942376Y-47683537D01*
X33942376Y-47683535D01*
X33849660Y-47533221D01*
X33724778Y-47408339D01*
X33574464Y-47315623D01*
X33406814Y-47260070D01*
X33303342Y-47249500D01*
X28712658Y-47249500D01*
X28609185Y-47260070D01*
X28441535Y-47315623D01*
X28291221Y-47408339D01*
X28166339Y-47533221D01*
X28073623Y-47683535D01*
X28018070Y-47851185D01*
X28007500Y-47954658D01*
X28007500Y-48565342D01*
X20000500Y-48565342D01*
X20000500Y-45970000D01*
X28008001Y-45970000D01*
X28008001Y-46025311D01*
X28018563Y-46128713D01*
X28074078Y-46296247D01*
X28166735Y-46446468D01*
X28291531Y-46571264D01*
X28441752Y-46663921D01*
X28609285Y-46719436D01*
X28712689Y-46730000D01*
X30758000Y-46730000D01*
X30758000Y-45970000D01*
X31258000Y-45970000D01*
X31258000Y-46729999D01*
X33303311Y-46729999D01*
X33406713Y-46719436D01*
X33574247Y-46663921D01*
X33724468Y-46571264D01*
X33849264Y-46446468D01*
X33941921Y-46296247D01*
X33997436Y-46128714D01*
X34008000Y-46025311D01*
X34008000Y-45970000D01*
X35608001Y-45970000D01*
X35608001Y-46025311D01*
X35618563Y-46128713D01*
X35674078Y-46296247D01*
X35766735Y-46446468D01*
X35891531Y-46571264D01*
X36041752Y-46663921D01*
X36209285Y-46719436D01*
X36312689Y-46730000D01*
X38358000Y-46730000D01*
X38358000Y-45970000D01*
X38858000Y-45970000D01*
X38858000Y-46729999D01*
X40903311Y-46729999D01*
X41006713Y-46719436D01*
X41174247Y-46663921D01*
X41324468Y-46571264D01*
X41449264Y-46446468D01*
X41541921Y-46296247D01*
X41597436Y-46128714D01*
X41608000Y-46025311D01*
X41608000Y-45970000D01*
X38858000Y-45970000D01*
X38358000Y-45970000D01*
X35608001Y-45970000D01*
X34008000Y-45970000D01*
X31258000Y-45970000D01*
X30758000Y-45970000D01*
X28008001Y-45970000D01*
X20000500Y-45970000D01*
X20000500Y-45470000D01*
X28008000Y-45470000D01*
X30758000Y-45470000D01*
X30758000Y-44710001D01*
X28712689Y-44710001D01*
X28609286Y-44720563D01*
X28441752Y-44776078D01*
X28291531Y-44868735D01*
X28166735Y-44993531D01*
X28074078Y-45143752D01*
X28018563Y-45311285D01*
X28008000Y-45414689D01*
X28008000Y-45470000D01*
X20000500Y-45470000D01*
X20000500Y-44710000D01*
X31258000Y-44710000D01*
X31258000Y-45470000D01*
X34007999Y-45470000D01*
X35608000Y-45470000D01*
X38358000Y-45470000D01*
X38358000Y-44710001D01*
X36312689Y-44710001D01*
X36209286Y-44720563D01*
X36041752Y-44776078D01*
X35891531Y-44868735D01*
X35766735Y-44993531D01*
X35674078Y-45143752D01*
X35618563Y-45311285D01*
X35608000Y-45414689D01*
X35608000Y-45470000D01*
X34007999Y-45470000D01*
X34007999Y-45414689D01*
X33997436Y-45311286D01*
X33941921Y-45143752D01*
X33849264Y-44993531D01*
X33724468Y-44868735D01*
X33574247Y-44776078D01*
X33406714Y-44720563D01*
X33303311Y-44710000D01*
X38858000Y-44710000D01*
X38858000Y-45470000D01*
X41607999Y-45470000D01*
X41607999Y-45414689D01*
X41597436Y-45311286D01*
X41541921Y-45143752D01*
X41449264Y-44993531D01*
X41324468Y-44868735D01*
X41174247Y-44776078D01*
X41006714Y-44720563D01*
X40903311Y-44710000D01*
X38858000Y-44710000D01*
X33303311Y-44710000D01*
X31258000Y-44710000D01*
X20000500Y-44710000D01*
X20000500Y-43430000D01*
X28008001Y-43430000D01*
X28008001Y-43485311D01*
X28018563Y-43588713D01*
X28074078Y-43756247D01*
X28166735Y-43906468D01*
X28291531Y-44031264D01*
X28441752Y-44123921D01*
X28609285Y-44179436D01*
X28712689Y-44190000D01*
X30758000Y-44190000D01*
X30758000Y-43430000D01*
X31258000Y-43430000D01*
X31258000Y-44189999D01*
X33303311Y-44189999D01*
X33406713Y-44179436D01*
X33574247Y-44123921D01*
X33724468Y-44031264D01*
X33849264Y-43906468D01*
X33941921Y-43756247D01*
X33997436Y-43588714D01*
X34008000Y-43485311D01*
X34008000Y-43430000D01*
X35608001Y-43430000D01*
X35608001Y-43485311D01*
X35618563Y-43588713D01*
X35674078Y-43756247D01*
X35766735Y-43906468D01*
X35891531Y-44031264D01*
X36041752Y-44123921D01*
X36209285Y-44179436D01*
X36312689Y-44190000D01*
X38358000Y-44190000D01*
X38358000Y-43430000D01*
X38858000Y-43430000D01*
X38858000Y-44189999D01*
X40903311Y-44189999D01*
X41006713Y-44179436D01*
X41174247Y-44123921D01*
X41324468Y-44031264D01*
X41449264Y-43906468D01*
X41541921Y-43756247D01*
X41597436Y-43588714D01*
X41608000Y-43485311D01*
X41608000Y-43430000D01*
X38858000Y-43430000D01*
X38358000Y-43430000D01*
X35608001Y-43430000D01*
X34008000Y-43430000D01*
X31258000Y-43430000D01*
X30758000Y-43430000D01*
X28008001Y-43430000D01*
X20000500Y-43430000D01*
X20000500Y-42930000D01*
X28008000Y-42930000D01*
X30758000Y-42930000D01*
X30758000Y-42170001D01*
X28712689Y-42170001D01*
X28609286Y-42180563D01*
X28441752Y-42236078D01*
X28291531Y-42328735D01*
X28166735Y-42453531D01*
X28074078Y-42603752D01*
X28018563Y-42771285D01*
X28008000Y-42874689D01*
X28008000Y-42930000D01*
X20000500Y-42930000D01*
X20000500Y-42170000D01*
X31258000Y-42170000D01*
X31258000Y-42930000D01*
X34007999Y-42930000D01*
X35608000Y-42930000D01*
X38358000Y-42930000D01*
X38358000Y-42170001D01*
X36312689Y-42170001D01*
X36209286Y-42180563D01*
X36041752Y-42236078D01*
X35891531Y-42328735D01*
X35766735Y-42453531D01*
X35674078Y-42603752D01*
X35618563Y-42771285D01*
X35608000Y-42874689D01*
X35608000Y-42930000D01*
X34007999Y-42930000D01*
X34007999Y-42874689D01*
X33997436Y-42771286D01*
X33941921Y-42603752D01*
X33849264Y-42453531D01*
X33724468Y-42328735D01*
X33574247Y-42236078D01*
X33406714Y-42180563D01*
X33303311Y-42170000D01*
X38858000Y-42170000D01*
X38858000Y-42930000D01*
X41607999Y-42930000D01*
X41607999Y-42874689D01*
X41597436Y-42771286D01*
X41541921Y-42603752D01*
X41449264Y-42453531D01*
X41324468Y-42328735D01*
X41174247Y-42236078D01*
X41006714Y-42180563D01*
X40903311Y-42170000D01*
X38858000Y-42170000D01*
X33303311Y-42170000D01*
X31258000Y-42170000D01*
X20000500Y-42170000D01*
X20000500Y-40890000D01*
X28008001Y-40890000D01*
X28008001Y-40945311D01*
X28018563Y-41048713D01*
X28074078Y-41216247D01*
X28166735Y-41366468D01*
X28291531Y-41491264D01*
X28441752Y-41583921D01*
X28609285Y-41639436D01*
X28712689Y-41650000D01*
X30758000Y-41650000D01*
X30758000Y-40890000D01*
X31258000Y-40890000D01*
X31258000Y-41649999D01*
X33303311Y-41649999D01*
X33406713Y-41639436D01*
X33574247Y-41583921D01*
X33724468Y-41491264D01*
X33849264Y-41366468D01*
X33941921Y-41216247D01*
X33997436Y-41048714D01*
X34008000Y-40945311D01*
X34008000Y-40890000D01*
X35608001Y-40890000D01*
X35608001Y-40945311D01*
X35618563Y-41048713D01*
X35674078Y-41216247D01*
X35766735Y-41366468D01*
X35891531Y-41491264D01*
X36041752Y-41583921D01*
X36209285Y-41639436D01*
X36312689Y-41650000D01*
X38358000Y-41650000D01*
X38358000Y-40890000D01*
X38858000Y-40890000D01*
X38858000Y-41649999D01*
X40903311Y-41649999D01*
X41006713Y-41639436D01*
X41174247Y-41583921D01*
X41324468Y-41491264D01*
X41449264Y-41366468D01*
X41541921Y-41216247D01*
X41597436Y-41048714D01*
X41608000Y-40945311D01*
X41608000Y-40890000D01*
X38858000Y-40890000D01*
X38358000Y-40890000D01*
X35608001Y-40890000D01*
X34008000Y-40890000D01*
X31258000Y-40890000D01*
X30758000Y-40890000D01*
X28008001Y-40890000D01*
X20000500Y-40890000D01*
X20000500Y-40390000D01*
X28008000Y-40390000D01*
X30758000Y-40390000D01*
X30758000Y-39630001D01*
X28712689Y-39630001D01*
X28609286Y-39640563D01*
X28441752Y-39696078D01*
X28291531Y-39788735D01*
X28166735Y-39913531D01*
X28074078Y-40063752D01*
X28018563Y-40231285D01*
X28008000Y-40334689D01*
X28008000Y-40390000D01*
X20000500Y-40390000D01*
X20000500Y-39630000D01*
X31258000Y-39630000D01*
X31258000Y-40390000D01*
X34007999Y-40390000D01*
X35608000Y-40390000D01*
X38358000Y-40390000D01*
X38358000Y-39630001D01*
X36312689Y-39630001D01*
X36209286Y-39640563D01*
X36041752Y-39696078D01*
X35891531Y-39788735D01*
X35766735Y-39913531D01*
X35674078Y-40063752D01*
X35618563Y-40231285D01*
X35608000Y-40334689D01*
X35608000Y-40390000D01*
X34007999Y-40390000D01*
X34007999Y-40334689D01*
X33997436Y-40231286D01*
X33941921Y-40063752D01*
X33849264Y-39913531D01*
X33724468Y-39788735D01*
X33574247Y-39696078D01*
X33406714Y-39640563D01*
X33303311Y-39630000D01*
X38858000Y-39630000D01*
X38858000Y-40390000D01*
X41607999Y-40390000D01*
X41607999Y-40334689D01*
X41597436Y-40231286D01*
X41541921Y-40063752D01*
X41449264Y-39913531D01*
X41324468Y-39788735D01*
X41174247Y-39696078D01*
X41006714Y-39640563D01*
X40903311Y-39630000D01*
X38858000Y-39630000D01*
X33303311Y-39630000D01*
X31258000Y-39630000D01*
X20000500Y-39630000D01*
X20000500Y-38405342D01*
X28007500Y-38405342D01*
X28018070Y-38508814D01*
X28073623Y-38676464D01*
X28166339Y-38826778D01*
X28291221Y-38951660D01*
X28441535Y-39044376D01*
X28441537Y-39044376D01*
X28441538Y-39044377D01*
X28609185Y-39099929D01*
X28712658Y-39110500D01*
X33303342Y-39110500D01*
X33406815Y-39099929D01*
X33574462Y-39044377D01*
X33724778Y-38951660D01*
X33849660Y-38826778D01*
X33942377Y-38676462D01*
X33997929Y-38508815D01*
X34008500Y-38405342D01*
X35607500Y-38405342D01*
X35618070Y-38508814D01*
X35673623Y-38676464D01*
X35766339Y-38826778D01*
X35891221Y-38951660D01*
X36041535Y-39044376D01*
X36041537Y-39044376D01*
X36041538Y-39044377D01*
X36209185Y-39099929D01*
X36312658Y-39110500D01*
X40903342Y-39110500D01*
X41006815Y-39099929D01*
X41174462Y-39044377D01*
X41324778Y-38951660D01*
X41449660Y-38826778D01*
X41542377Y-38676462D01*
X41597929Y-38508815D01*
X41608500Y-38405342D01*
X41608500Y-37794658D01*
X41597929Y-37691185D01*
X41542377Y-37523538D01*
X41542376Y-37523537D01*
X41542376Y-37523535D01*
X41449660Y-37373221D01*
X41324778Y-37248339D01*
X41174464Y-37155623D01*
X41006814Y-37100070D01*
X40903342Y-37089500D01*
X36312658Y-37089500D01*
X36209185Y-37100070D01*
X36041535Y-37155623D01*
X35891221Y-37248339D01*
X35766339Y-37373221D01*
X35673623Y-37523535D01*
X35618070Y-37691185D01*
X35607500Y-37794658D01*
X35607500Y-38405342D01*
X34008500Y-38405342D01*
X34008500Y-37794658D01*
X33997929Y-37691185D01*
X33942377Y-37523538D01*
X33942376Y-37523537D01*
X33942376Y-37523535D01*
X33849660Y-37373221D01*
X33724778Y-37248339D01*
X33574464Y-37155623D01*
X33406814Y-37100070D01*
X33303342Y-37089500D01*
X28712658Y-37089500D01*
X28609185Y-37100070D01*
X28441535Y-37155623D01*
X28291221Y-37248339D01*
X28166339Y-37373221D01*
X28073623Y-37523535D01*
X28018070Y-37691185D01*
X28007500Y-37794658D01*
X28007500Y-38405342D01*
X20000500Y-38405342D01*
X20000500Y-29000000D01*
X21499459Y-29000000D01*
X21499617Y-29000383D01*
X21499758Y-29000441D01*
X21499900Y-29000500D01*
X21499901Y-29000500D01*
X24500099Y-29000500D01*
X24500100Y-29000500D01*
X24500193Y-29000460D01*
X24500383Y-29000383D01*
X24500541Y-29000000D01*
X26499459Y-29000000D01*
X26499617Y-29000383D01*
X26499758Y-29000441D01*
X26499900Y-29000500D01*
X26499901Y-29000500D01*
X29500099Y-29000500D01*
X29500100Y-29000500D01*
X29500193Y-29000460D01*
X29500383Y-29000383D01*
X29500541Y-29000000D01*
X31499459Y-29000000D01*
X31499617Y-29000383D01*
X31499758Y-29000441D01*
X31499900Y-29000500D01*
X31499901Y-29000500D01*
X34500099Y-29000500D01*
X34500100Y-29000500D01*
X34500193Y-29000460D01*
X34500383Y-29000383D01*
X34500541Y-29000000D01*
X36499459Y-29000000D01*
X36499617Y-29000383D01*
X36499758Y-29000441D01*
X36499900Y-29000500D01*
X36499901Y-29000500D01*
X39500099Y-29000500D01*
X39500100Y-29000500D01*
X39500193Y-29000460D01*
X39500383Y-29000383D01*
X39500541Y-29000000D01*
X41499459Y-29000000D01*
X41499617Y-29000383D01*
X41499758Y-29000441D01*
X41499900Y-29000500D01*
X41499901Y-29000500D01*
X44500099Y-29000500D01*
X44500100Y-29000500D01*
X44500193Y-29000460D01*
X44500383Y-29000383D01*
X44500541Y-29000000D01*
X46499459Y-29000000D01*
X46499617Y-29000383D01*
X46499758Y-29000441D01*
X46499900Y-29000500D01*
X46499901Y-29000500D01*
X49500099Y-29000500D01*
X49500100Y-29000500D01*
X49500193Y-29000460D01*
X49500383Y-29000383D01*
X49500541Y-29000000D01*
X49500383Y-28999617D01*
X49500381Y-28999616D01*
X49500100Y-28999500D01*
X49500099Y-28999500D01*
X46499901Y-28999500D01*
X46499900Y-28999500D01*
X46499618Y-28999616D01*
X46499616Y-28999618D01*
X46499459Y-28999999D01*
X46499459Y-29000000D01*
X44500541Y-29000000D01*
X44500383Y-28999617D01*
X44500381Y-28999616D01*
X44500100Y-28999500D01*
X44500099Y-28999500D01*
X41499901Y-28999500D01*
X41499900Y-28999500D01*
X41499618Y-28999616D01*
X41499616Y-28999618D01*
X41499459Y-28999999D01*
X41499459Y-29000000D01*
X39500541Y-29000000D01*
X39500383Y-28999617D01*
X39500381Y-28999616D01*
X39500100Y-28999500D01*
X39500099Y-28999500D01*
X36499901Y-28999500D01*
X36499900Y-28999500D01*
X36499618Y-28999616D01*
X36499616Y-28999618D01*
X36499459Y-28999999D01*
X36499459Y-29000000D01*
X34500541Y-29000000D01*
X34500383Y-28999617D01*
X34500381Y-28999616D01*
X34500100Y-28999500D01*
X34500099Y-28999500D01*
X31499901Y-28999500D01*
X31499900Y-28999500D01*
X31499618Y-28999616D01*
X31499616Y-28999618D01*
X31499459Y-28999999D01*
X31499459Y-29000000D01*
X29500541Y-29000000D01*
X29500383Y-28999617D01*
X29500381Y-28999616D01*
X29500100Y-28999500D01*
X29500099Y-28999500D01*
X26499901Y-28999500D01*
X26499900Y-28999500D01*
X26499618Y-28999616D01*
X26499616Y-28999618D01*
X26499459Y-28999999D01*
X26499459Y-29000000D01*
X24500541Y-29000000D01*
X24500383Y-28999617D01*
X24500381Y-28999616D01*
X24500100Y-28999500D01*
X24500099Y-28999500D01*
X21499901Y-28999500D01*
X21499900Y-28999500D01*
X21499618Y-28999616D01*
X21499616Y-28999618D01*
X21499459Y-28999999D01*
X21499459Y-29000000D01*
X20000500Y-29000000D01*
X20000500Y-23000000D01*
X25074551Y-23000000D01*
X25094317Y-23251149D01*
X25153126Y-23496110D01*
X25156100Y-23503289D01*
X25249534Y-23728859D01*
X25381164Y-23943659D01*
X25544776Y-24135224D01*
X25736341Y-24298836D01*
X25951141Y-24430466D01*
X26183889Y-24526873D01*
X26428852Y-24585683D01*
X26680000Y-24605449D01*
X26931148Y-24585683D01*
X27176111Y-24526873D01*
X27408859Y-24430466D01*
X27623659Y-24298836D01*
X27815224Y-24135224D01*
X27978836Y-23943659D01*
X28110466Y-23728859D01*
X28206873Y-23496111D01*
X28265683Y-23251148D01*
X28285449Y-23000000D01*
X28285449Y-22999999D01*
X42194551Y-22999999D01*
X42214317Y-23251149D01*
X42273126Y-23496110D01*
X42276100Y-23503289D01*
X42369534Y-23728859D01*
X42501164Y-23943659D01*
X42664776Y-24135224D01*
X42856341Y-24298836D01*
X43071141Y-24430466D01*
X43303889Y-24526873D01*
X43548852Y-24585683D01*
X43800000Y-24605449D01*
X44051148Y-24585683D01*
X44296111Y-24526873D01*
X44528859Y-24430466D01*
X44743659Y-24298836D01*
X44935224Y-24135224D01*
X45098836Y-23943659D01*
X45230466Y-23728859D01*
X45326873Y-23496111D01*
X45385683Y-23251148D01*
X45405449Y-23000000D01*
X45385683Y-22748852D01*
X45326873Y-22503889D01*
X45230466Y-22271141D01*
X45098836Y-22056341D01*
X44935224Y-21864776D01*
X44743659Y-21701164D01*
X44528859Y-21569534D01*
X44412484Y-21521330D01*
X44296110Y-21473126D01*
X44051149Y-21414317D01*
X43800000Y-21394551D01*
X43548850Y-21414317D01*
X43303889Y-21473126D01*
X43071139Y-21569535D01*
X42856342Y-21701163D01*
X42664776Y-21864776D01*
X42501163Y-22056342D01*
X42369535Y-22271139D01*
X42273126Y-22503889D01*
X42214317Y-22748850D01*
X42194551Y-22999999D01*
X28285449Y-22999999D01*
X28265683Y-22748852D01*
X28206873Y-22503889D01*
X28110466Y-22271141D01*
X27978836Y-22056341D01*
X27815224Y-21864776D01*
X27623659Y-21701164D01*
X27408859Y-21569534D01*
X27292484Y-21521330D01*
X27176110Y-21473126D01*
X26931149Y-21414317D01*
X26680000Y-21394551D01*
X26428850Y-21414317D01*
X26183889Y-21473126D01*
X25951139Y-21569535D01*
X25736342Y-21701163D01*
X25544776Y-21864776D01*
X25381163Y-22056342D01*
X25249535Y-22271139D01*
X25153126Y-22503889D01*
X25094317Y-22748850D01*
X25074551Y-23000000D01*
X20000500Y-23000000D01*
X20000500Y-20124500D01*
X20017113Y-20062500D01*
X20062500Y-20017113D01*
X20124500Y-20000500D01*
X50355500Y-20000500D01*
X50417500Y-20017113D01*
G37*
%TD.AperFunction*%
%TD*%
M02*
